<?xml version="1.0" encoding="utf-8"?>
<!-- Generator: Adobe Illustrator 19.0.1, SVG Export Plug-In . SVG Version: 6.00 Build 0)  -->
<svg version="1.1" id="Слой_1" xmlns="http://www.w3.org/2000/svg" xmlns:xlink="http://www.w3.org/1999/xlink" x="0px" y="0px"
	 viewBox="0 0 537 400" style="enable-background:new 0 0 537 400;" xml:space="preserve">
<style type="text/css">
	.st0{fill:#FFFFFF;}
</style>
<path class="st0" d="M374.3,344.1C374.3,344.1,374.3,344.1,374.3,344.1c-0.1,0-0.2-0.1-0.2-0.1l-15.7-108.5c0,0,0-0.1,0-0.1
	c0,0,0.1-0.1,0.1-0.1l160.6,10c0.1,0,0.1,0.1,0.2,0.1c0,0.1,0,0.1-0.1,0.2L374.3,344.1C374.4,344.1,374.4,344.1,374.3,344.1
	 M358.8,235.6l15.6,108l144.3-98.1L358.8,235.6z"/>
<path class="st0" d="M354.9,236c-0.3-2.1,1.1-4,3.2-4.3c2.1-0.3,4,1.1,4.3,3.2c0.3,2.1-1.1,4-3.2,4.3
	C357.1,239.5,355.2,238,354.9,236"/>
<path class="st0" d="M358.9,231.6c-2.1-0.1-3.9,1.5-4,3.5c-0.1,2.1,1.5,3.9,3.5,4c2.1,0.1,3.9-1.5,4-3.5
	C362.5,233.6,360.9,231.8,358.9,231.6"/>
<path class="st0" d="M61.8,212.2C61.8,212.2,61.8,212.2,61.8,212.2c-0.2-0.1-0.2-0.2-0.2-0.2l26.2-58.4c0,0,0.1-0.1,0.1-0.1
	c0,0,0.1,0,0.1,0l24.4,15c0,0,0.1,0.1,0.1,0.1c0,0.1,0,0.1-0.1,0.1l-50.6,43.4C61.9,212.2,61.9,212.2,61.8,212.2 M88.1,153.9
	l-25.8,57.6l49.9-42.8L88.1,153.9z"/>
<path class="st0" d="M88,153.8L88,153.8c-0.1,0-0.1,0-0.1-0.1L46,76.9c0-0.1,0-0.1,0-0.2c0-0.1,0.1-0.1,0.2,0l75.1,33.4
	c0,0,0.1,0.1,0.1,0.1c0,0,0,0.1,0,0.1l-33.2,43.4C88.1,153.8,88.1,153.8,88,153.8 M46.5,77.2L88,153.3l32.9-43L46.5,77.2z"/>
<path class="st0" d="M122.7,106.8c1.9,0.9,2.8,3.1,1.9,5c-0.9,1.9-3.1,2.8-5,1.9c-1.9-0.9-2.8-3.1-1.9-5
	C118.6,106.8,120.8,105.9,122.7,106.8"/>
<path class="st0" d="M124.2,112.5c1.3-1.7,1-4-0.7-5.3c-1.7-1.3-4-1-5.3,0.7c-1.3,1.7-1,4,0.7,5.3
	C120.5,114.5,122.9,114.2,124.2,112.5"/>
<path class="st0" d="M121.2,110.4C121.2,110.4,121.1,110.4,121.2,110.4L46,77c-0.1,0-0.1-0.1-0.1-0.2c0-0.1,0.1-0.1,0.2-0.1l80.3,25
	c0,0,0.1,0.1,0.1,0.1c0,0,0,0.1,0,0.1l-5.2,8.3C121.3,110.4,121.2,110.4,121.2,110.4 M48.8,77.8l72.3,32.2l5-8L48.8,77.8z"/>
<path class="st0" d="M127.5,98.3c2,0.6,3.1,2.7,2.5,4.7c-0.6,2-2.7,3.1-4.7,2.5c-2-0.6-3.1-2.7-2.5-4.7
	C123.4,98.7,125.5,97.6,127.5,98.3"/>
<path class="st0" d="M129.6,103.9c1.1-1.8,0.6-4.1-1.2-5.2c-1.8-1.1-4.1-0.6-5.2,1.2c-1.1,1.8-0.6,4.1,1.2,5.2
	C126.2,106.2,128.5,105.7,129.6,103.9"/>
<path class="st0" d="M126.4,102C126.4,102,126.4,102,126.4,102L46.1,77c-0.1,0-0.1-0.1-0.1-0.2v-8.3c0-0.1,0-0.1,0.1-0.1
	c0,0,0.1,0,0.2,0l80.3,33.4c0.1,0,0.1,0.1,0.1,0.2C126.5,102,126.5,102,126.4,102 M46.3,76.7l76.7,23.9L46.3,68.7V76.7z"/>
<path class="st0" d="M496.5,349.1L496.5,349.1l-122.2-5c-0.1,0-0.1-0.1-0.2-0.1c0-0.1,0-0.1,0.1-0.2l144.9-98.5c0.1,0,0.1,0,0.2,0
	c0.1,0,0.1,0.1,0.1,0.2L496.7,349C496.7,349.1,496.6,349.1,496.5,349.1 M374.8,343.8l121.6,5l22.6-103L374.8,343.8z"/>
<path class="st0" d="M84.5,232.3c0,0-0.1,0-0.1,0l-22.7-20c0,0-0.1-0.1-0.1-0.1c0,0,0-0.1,0.1-0.1l50.6-43.4c0.1-0.1,0.1-0.1,0.2,0
	c0.1,0,0.1,0.1,0.1,0.2l-27.9,63.4C84.6,232.2,84.6,232.2,84.5,232.3C84.5,232.3,84.5,232.3,84.5,232.3 M62.1,212.1l22.4,19.8
	l27.5-62.6L62.1,212.1z"/>
<path class="st0" d="M110,165.8c1.6-1.4,4-1.2,5.3,0.4c1.4,1.6,1.2,4-0.4,5.3c-1.6,1.4-4,1.2-5.3-0.4
	C108.2,169.5,108.4,167.1,110,165.8"/>
<path class="st0" d="M115.9,170.2c0.8-1.9,0-4.1-1.9-5c-1.9-0.8-4.1,0-5,1.9c-0.8,1.9,0,4.1,1.9,5
	C112.8,173,115.1,172.1,115.9,170.2"/>
<path class="st0" d="M84.5,232.3c0,0-0.1,0-0.1,0c-0.1,0-0.1-0.1,0-0.2l27.9-63.4c0-0.1,0.1-0.1,0.2-0.1l66.3,11.7
	c0.1,0,0.1,0.1,0.1,0.1c0,0.1,0,0.1-0.1,0.2L84.5,232.3C84.6,232.3,84.5,232.3,84.5,232.3 M112.5,168.8l-27.7,62.9l93.4-51.3
	L112.5,168.8z"/>
<path class="st0" d="M109,167.1c0.8-1.9,3.1-2.8,5-1.9c1.9,0.8,2.8,3.1,1.9,5c-0.8,1.9-3.1,2.8-5,1.9C109,171.3,108.1,169,109,167.1
	"/>
<path class="st0" d="M113.1,164.9c-2.1-0.4-4,1-4.4,3.1c-0.4,2.1,1,4,3.1,4.4c2.1,0.4,4-1,4.4-3.1
	C116.5,167.2,115.2,165.3,113.1,164.9"/>
<path class="st0" d="M224.2,195.5C224.2,195.5,224.2,195.5,224.2,195.5l-45.5-15c-0.1,0-0.1-0.1-0.1-0.2c0-0.1,0.1-0.1,0.1-0.2
	l85.6-16.7c0.1,0,0.2,0,0.2,0.1c0,0.1,0,0.2,0,0.2l-40.2,31.7C224.3,195.5,224.2,195.5,224.2,195.5 M179.5,180.4l44.7,14.8
	l39.5-31.2L179.5,180.4z"/>
<path class="st0" d="M177.6,183.9c-2-0.7-3.1-2.8-2.4-4.8c0.7-2,2.8-3.1,4.8-2.4c2,0.7,3.1,2.8,2.4,4.8
	C181.7,183.5,179.6,184.6,177.6,183.9"/>
<path class="st0" d="M178.1,176.6c-2.1,0.4-3.4,2.4-3,4.4c0.4,2.1,2.4,3.4,4.4,3c2.1-0.4,3.4-2.4,3-4.4
	C182.1,177.6,180.1,176.2,178.1,176.6"/>
<path class="st0" d="M126.4,102C126.4,102,126.4,102,126.4,102L46.1,68.6c-0.1,0-0.1-0.1-0.1-0.2c0-0.1,0-0.1,0.1-0.2l110-46.7
	c0.1,0,0.1,0,0.2,0c0,0,0.1,0.1,0,0.2l-29.7,80.1C126.6,102,126.5,102,126.4,102C126.5,102,126.4,102,126.4,102 M46.6,68.5
	l79.8,33.2L155.8,22L46.6,68.5z"/>
<path class="st0" d="M264.3,163.8C264.3,163.8,264.3,163.8,264.3,163.8l-138-61.8c-0.1,0-0.1-0.1-0.1-0.2l29.7-80.1
	c0-0.1,0.1-0.1,0.1-0.1c0.1,0,0.1,0,0.2,0.1l108.2,141.9c0,0.1,0,0.1,0,0.2C264.4,163.8,264.4,163.8,264.3,163.8 M126.6,101.8
	l137.2,61.4L156.1,22.1L126.6,101.8z"/>
<path class="st0" d="M264.3,163.8L264.3,163.8c-0.1,0-0.1,0-0.1-0.1L156,21.8c0-0.1,0-0.1,0-0.2c0-0.1,0.1-0.1,0.2-0.1L334.2,85
	c0.1,0,0.1,0.1,0.1,0.1c0,0.1,0,0.1,0,0.2l-69.8,78.5C264.4,163.8,264.4,163.8,264.3,163.8 M156.6,22.1l107.8,141.3l69.5-78.1
	L156.6,22.1z"/>
<path class="st0" d="M335.4,81.6c2,0.7,3,2.9,2.3,4.8c-0.7,2-2.9,3-4.8,2.3c-2-0.7-3-2.9-2.3-4.8C331.3,81.9,333.5,80.9,335.4,81.6"
	/>
<path class="st0" d="M337,87.7c1.4-1.6,1.3-4-0.3-5.3c-1.6-1.4-4-1.3-5.3,0.3c-1.4,1.6-1.3,4,0.3,5.3
	C333.2,89.4,335.6,89.3,337,87.7"/>
<path class="st0" d="M334.2,85.3C334.2,85.3,334.1,85.3,334.2,85.3L156,21.9c-0.1,0-0.1-0.1-0.1-0.2c0-0.1,0.1-0.1,0.2-0.1l172.8,15
	c0.1,0,0.1,0.1,0.2,0.1l5.2,48.4c0,0.1,0,0.1-0.1,0.1C334.2,85.3,334.2,85.3,334.2,85.3 M157.4,22L334,84.9l-5.2-48L157.4,22z"/>
<path class="st0" d="M519.2,245.6L519.2,245.6l-160.6-10c-0.1,0-0.1-0.1-0.2-0.1c0-0.1,0-0.2,0.1-0.2l136.2-46.7
	c0.1,0,0.2,0,0.2,0.1l24.4,56.8c0,0.1,0,0.1,0,0.2C519.3,245.6,519.3,245.6,519.2,245.6 M359.5,235.3l159.5,10l-24.3-56.4
	L359.5,235.3z"/>
<path class="st0" d="M358.4,239.2c-2.1-0.1-3.7-1.9-3.5-4c0.1-2.1,1.9-3.7,4-3.5c2.1,0.1,3.7,1.9,3.5,4
	C362.3,237.8,360.5,239.3,358.4,239.2"/>
<path class="st0" d="M357.4,231.8c-2,0.7-3,2.8-2.4,4.8c0.7,2,2.8,3,4.8,2.4c2-0.7,3-2.8,2.4-4.8
	C361.5,232.2,359.4,231.2,357.4,231.8"/>
<path class="st0" d="M358.6,235.6c0,0-0.1,0-0.1-0.1c0,0-0.1-0.1,0-0.2l41.9-90.2c0-0.1,0.1-0.1,0.2-0.1l94.3,43.4
	c0.1,0,0.1,0.1,0.1,0.2c0,0.1-0.1,0.1-0.1,0.2L358.6,235.6C358.7,235.6,358.6,235.6,358.6,235.6 M400.6,145.5l-41.7,89.6l135.4-46.5
	L400.6,145.5z"/>
<path class="st0" d="M397.1,143.7c0.9-1.9,3.1-2.7,5-1.8c1.9,0.9,2.7,3.1,1.8,5c-0.9,1.9-3.1,2.7-5,1.8
	C397,147.8,396.2,145.6,397.1,143.7"/>
<path class="st0" d="M402.1,141.8c-1.9-0.9-4.1,0-5,1.9c-0.9,1.9,0,4.2,1.9,5c1.9,0.9,4.1,0,5-1.9C404.8,145,404,142.7,402.1,141.8"
	/>
<path class="st0" d="M494.8,188.8C494.8,188.8,494.7,188.8,494.8,188.8l-94.3-43.4c0,0-0.1-0.1-0.1-0.1c0-0.1,0-0.1,0-0.1l38.4-45.1
	c0,0,0.1-0.1,0.1-0.1c0.1,0,0.1,0,0.1,0.1l55.9,88.5c0,0.1,0,0.1,0,0.2C494.9,188.8,494.8,188.8,494.8,188.8 M400.8,145.2l93.6,43.1
	l-55.4-87.8L400.8,145.2z"/>
<path class="st0" d="M398.9,148.7c-1.9-0.9-2.7-3.1-1.9-5c0.9-1.9,3.1-2.7,5-1.9c1.9,0.9,2.7,3.1,1.9,5
	C403.1,148.8,400.8,149.6,398.9,148.7"/>
<path class="st0" d="M397.6,142.8c-1.4,1.6-1.2,4,0.4,5.3c1.6,1.4,4,1.2,5.3-0.4c1.4-1.6,1.2-4-0.4-5.3
	C401.4,141,399,141.2,397.6,142.8"/>
<path class="st0" d="M112.4,168.8C112.4,168.8,112.4,168.8,112.4,168.8l-24.5-15c-0.1,0-0.1-0.1-0.1-0.2c0-0.1,0.1-0.1,0.1-0.1
	l48.9-10c0.1,0,0.1,0,0.2,0.1c0,0.1,0,0.1,0,0.2l-24.5,25C112.5,168.8,112.5,168.8,112.4,168.8 M88.5,153.7l24,14.7l24-24.6
	L88.5,153.7z"/>
<path class="st0" d="M88,153.8c-0.1,0-0.1,0-0.1-0.1c0-0.1,0-0.1,0-0.2l33.2-43.4c0,0,0.1-0.1,0.2-0.1c0.1,0,0.1,0,0.1,0.1
	l15.7,33.4c0,0,0,0.1,0,0.1c0,0-0.1,0.1-0.1,0.1L88,153.8C88,153.8,88,153.8,88,153.8 M121.1,110.5l-32.7,42.8l48.2-9.9L121.1,110.5
	z"/>
<path class="st0" d="M118.2,107.9c1.3-1.7,3.6-2,5.3-0.7c1.7,1.3,2,3.6,0.7,5.3c-1.3,1.7-3.6,2-5.3,0.7
	C117.2,112,116.9,109.6,118.2,107.9"/>
<path class="st0" d="M124.6,108.6c-0.9-1.9-3.1-2.7-5-1.8c-1.9,0.9-2.7,3.1-1.8,5c0.9,1.9,3.1,2.7,5,1.8
	C124.7,112.8,125.5,110.5,124.6,108.6"/>
<path class="st0" d="M178.8,180.5C178.8,180.5,178.8,180.5,178.8,180.5l-66.4-11.7c-0.1,0-0.1-0.1-0.1-0.1c0-0.1,0-0.1,0-0.2
	l24.5-25c0.1-0.1,0.2-0.1,0.2,0l41.9,36.7c0.1,0,0.1,0.1,0,0.2C178.9,180.5,178.9,180.5,178.8,180.5 M112.8,168.5l65.4,11.5
	l-41.3-36.2L112.8,168.5z"/>
<path class="st0" d="M134.2,141c1.5-1.5,3.9-1.5,5.4-0.1c1.5,1.5,1.5,3.9,0.1,5.4c-1.5,1.5-3.9,1.5-5.4,0.1
	C132.8,144.9,132.7,142.5,134.2,141"/>
<path class="st0" d="M139.4,140.8c-1.6-1.4-4-1.2-5.3,0.3c-1.4,1.6-1.2,4,0.4,5.3c1.6,1.4,4,1.2,5.3-0.4
	C141.1,144.5,141,142.1,139.4,140.8"/>
<path class="st0" d="M136.9,143.8c-0.1,0-0.1,0-0.2-0.1L121,110.3c0-0.1,0-0.1,0-0.2l5.2-8.3c0-0.1,0.1-0.1,0.2-0.1
	c0.1,0,0.1,0.1,0.1,0.1l10.5,41.7C137.1,143.7,137,143.7,136.9,143.8C136.9,143.8,136.9,143.8,136.9,143.8 M121.4,110.2l14.9,31.7
	l-10-39.7L121.4,110.2z"/>
<path class="st0" d="M123.2,99.9c1.1-1.8,3.5-2.3,5.2-1.2c1.8,1.1,2.3,3.4,1.2,5.2c-1.1,1.8-3.5,2.3-5.2,1.2
	C122.6,104,122.1,101.6,123.2,99.9"/>
<path class="st0" d="M130.1,100.9c-0.5-2-2.6-3.3-4.6-2.8c-2,0.5-3.3,2.6-2.7,4.6c0.5,2,2.6,3.3,4.6,2.8
	C129.4,105,130.6,103,130.1,100.9"/>
<path class="st0" d="M264.3,163.8C264.3,163.8,264.3,163.8,264.3,163.8l-127.5-20c-0.1,0-0.1-0.1-0.1-0.1l-10.5-41.7
	c0-0.1,0-0.1,0.1-0.2c0,0,0.1,0,0.2,0l137.9,61.8c0.1,0,0.1,0.1,0.1,0.2C264.5,163.8,264.4,163.8,264.3,163.8 M137,143.5l126.1,19.8
	l-136.5-61.1L137,143.5z"/>
<path class="st0" d="M265.9,160.2c1.9,0.9,2.8,3.1,1.9,5c-0.9,1.9-3.1,2.8-5,1.9c-1.9-0.9-2.8-3.1-1.9-5
	C261.7,160.2,264,159.3,265.9,160.2"/>
<path class="st0" d="M263.8,167.4c2.1,0.3,4-1.1,4.3-3.2c0.3-2.1-1.1-4-3.2-4.3c-2.1-0.3-4,1.1-4.3,3.2
	C260.3,165.1,261.7,167.1,263.8,167.4"/>
<path class="st0" d="M178.8,180.5c0,0-0.1,0-0.1,0l-41.9-36.7c-0.1,0-0.1-0.1,0-0.2c0-0.1,0.1-0.1,0.2-0.1l127.4,20
	c0.1,0,0.1,0.1,0.1,0.2c0,0.1-0.1,0.2-0.1,0.2L178.8,180.5C178.8,180.5,178.8,180.5,178.8,180.5 M137.4,143.9l41.4,36.3l84.5-16.5
	L137.4,143.9z"/>
<path class="st0" d="M134.4,146.5c-1.6-1.4-1.7-3.8-0.4-5.3c1.4-1.6,3.8-1.7,5.3-0.3c1.6,1.4,1.7,3.8,0.4,5.3
	C138.4,147.7,136,147.8,134.4,146.5"/>
<path class="st0" d="M137.5,139.9c-2.1-0.3-4,1.1-4.3,3.2c-0.3,2.1,1.1,4,3.2,4.3c2.1,0.3,4-1.1,4.3-3.2
	C141,142.1,139.6,140.2,137.5,139.9"/>
<path class="st0" d="M400.5,145.4C400.5,145.4,400.5,145.4,400.5,145.4c-0.1,0-0.2-0.1-0.2-0.2v-31.7c0-0.1,0-0.1,0.1-0.2l38.4-13.3
	c0.1,0,0.1,0,0.2,0.1c0,0.1,0,0.1,0,0.2l-38.4,45.1C400.6,145.4,400.6,145.4,400.5,145.4 M400.7,113.7v31.1l37.7-44.3L400.7,113.7z"
	/>
<path class="st0" d="M396.7,113.6c0-2.1,1.7-3.8,3.8-3.8c2.1,0,3.8,1.7,3.8,3.8c0,2.1-1.7,3.8-3.8,3.8
	C398.4,117.3,396.7,115.6,396.7,113.6"/>
<path class="st0" d="M399.3,110c-2,0.7-3,2.8-2.3,4.8c0.7,2,2.8,3,4.8,2.3c2-0.7,3-2.8,2.3-4.8C403.4,110.3,401.2,109.3,399.3,110"
	/>
<path class="st0" d="M224.2,195.5c-0.1,0-0.1,0-0.2-0.1c0-0.1,0-0.2,0-0.2l40.2-31.7c0,0,0.1,0,0.2,0c0.1,0,0.1,0.1,0.1,0.2v21.7
	c0,0.1-0.1,0.1-0.1,0.2L224.2,195.5C224.2,195.5,224.2,195.5,224.2,195.5 M264.2,164l-39.3,31l39.3-9.8V164z"/>
<path class="st0" d="M262,160.7c1.6-1.3,4-1,5.3,0.6c1.3,1.6,1,4-0.6,5.3c-1.6,1.3-4,1-5.3-0.6C260.1,164.4,260.4,162,262,160.7"/>
<path class="st0" d="M268.1,163.6c0-2.1-1.7-3.8-3.8-3.8c-2.1,0-3.8,1.7-3.8,3.8c0,2.1,1.7,3.8,3.8,3.8
	C266.4,167.4,268.1,165.7,268.1,163.6"/>
<path class="st0" d="M224.2,195.5c-0.1,0-0.2-0.1-0.2-0.1c0-0.1,0-0.2,0.1-0.2l40.2-10c0.1,0,0.1,0,0.2,0.1l3.5,5c0,0,0,0.1,0,0.2
	c0,0.1-0.1,0.1-0.1,0.1L224.2,195.5L224.2,195.5z M264.3,185.5l-37.5,9.4l40.8-4.7L264.3,185.5z"/>
<path class="st0" d="M224.6,199.1c-2.1,0.2-4-1.3-4.2-3.3c-0.2-2.1,1.3-4,3.3-4.2c2.1-0.2,4,1.2,4.2,3.3
	C228.2,197,226.7,198.9,224.6,199.1"/>
<path class="st0" d="M223.3,191.7c-2,0.5-3.3,2.6-2.8,4.6c0.5,2,2.6,3.3,4.6,2.8c2-0.5,3.3-2.6,2.8-4.6
	C227.4,192.4,225.3,191.2,223.3,191.7"/>
<path class="st0" d="M267.8,190.5c-0.1,0-0.1,0-0.1-0.1l-3.5-5c0,0,0-0.1,0-0.1v-21.7c0-0.1,0.1-0.2,0.2-0.2c0.1,0,0.2,0.1,0.2,0.1
	l3.5,26.7C268,190.4,268,190.5,267.8,190.5C267.9,190.5,267.9,190.5,267.8,190.5 M264.5,185.3l3.1,4.4l-3.1-23.5V185.3z"/>
<path class="st0" d="M261.2,187.5c-1.2-1.7-0.8-4.1,0.9-5.3c1.7-1.2,4.1-0.8,5.3,0.9c1.2,1.7,0.8,4.1-0.9,5.3
	C264.8,189.7,262.4,189.2,261.2,187.5"/>
<path class="st0" d="M260.6,185.3c0,2.1,1.7,3.8,3.8,3.8c2.1,0,3.8-1.7,3.8-3.8c0-2.1-1.7-3.8-3.8-3.8
	C262.3,181.6,260.6,183.3,260.6,185.3"/>
<path class="st0" d="M264.3,163.8c0,0-0.1,0-0.1-0.1c-0.1-0.1-0.1-0.2,0-0.2l69.8-78.5c0-0.1,0.1-0.1,0.2,0c0.1,0,0.1,0.1,0.1,0.2
	v28.4c0,0.1,0,0.1-0.1,0.1L264.3,163.8C264.4,163.8,264.4,163.8,264.3,163.8 M334,85.6l-68.5,77l68.5-49.2V85.6z"/>
<path class="st0" d="M331.3,82.7c1.4-1.6,3.8-1.7,5.3-0.3c1.6,1.4,1.7,3.8,0.3,5.3c-1.4,1.6-3.8,1.7-5.3,0.3
	C330.1,86.6,330,84.2,331.3,82.7"/>
<path class="st0" d="M338,85.2c0-2.1-1.7-3.8-3.8-3.8c-2.1,0-3.8,1.7-3.8,3.8c0,2.1,1.7,3.8,3.8,3.8C336.3,89,338,87.3,338,85.2"/>
<path class="st0" d="M334.2,85.3C334.1,85.3,334.1,85.3,334.2,85.3c-0.1,0-0.2-0.1-0.2-0.1l-5.2-48.4c0-0.1,0-0.1,0-0.1
	c0,0,0.1-0.1,0.1,0L423.2,50c0.1,0,0.1,0.1,0.1,0.1c0,0.1,0,0.1-0.1,0.2L334.2,85.3C334.2,85.3,334.2,85.3,334.2,85.3 M329.1,37
	l5.2,48l88.2-34.7L329.1,37z"/>
<path class="st0" d="M400.5,113.7C400.5,113.7,400.5,113.7,400.5,113.7l-66.4-28.4c-0.1,0-0.1-0.1-0.1-0.2c0-0.1,0-0.1,0.1-0.2
	l89-35.1c0.1,0,0.1,0,0.2,0c0,0,0.1,0.1,0,0.2l-22.7,63.4C400.7,113.7,400.6,113.7,400.5,113.7C400.6,113.7,400.5,113.7,400.5,113.7
	 M334.6,85.2l65.8,28.1l22.5-62.9L334.6,85.2z"/>
<path class="st0" d="M400.5,113.7c0,0-0.1,0-0.1,0c0,0-0.1-0.1,0-0.2l22.7-63.4c0-0.1,0.1-0.1,0.2-0.1c0.1,0,0.1,0,0.2,0.1
	l15.7,50.1c0,0.1,0,0.2-0.1,0.2L400.5,113.7C400.6,113.7,400.5,113.7,400.5,113.7 M423.2,50.6l-22.4,62.6l37.9-13.2L423.2,50.6z"/>
<path class="st0" d="M135.2,300.7C135.1,300.7,135.1,300.7,135.2,300.7L88,289c-0.1,0-0.1-0.1-0.1-0.2l-3.5-56.8
	c0-0.1,0-0.1,0.1-0.2c0.1,0,0.1,0,0.2,0.1l50.6,68.4c0,0.1,0,0.1,0,0.2C135.3,300.7,135.2,300.7,135.2,300.7 M88.2,288.7l46.6,11.5
	l-50-67.6L88.2,288.7z"/>
<path class="st0" d="M135.1,300.7c-0.1,0-0.1,0-0.1-0.1l-50.6-68.4c0,0,0-0.1,0-0.1c0-0.1,0-0.1,0.1-0.1l94.3-51.8
	c0.1,0,0.1,0,0.2,0c0.1,0,0.1,0.1,0,0.2l-43.6,120.2C135.3,300.7,135.2,300.7,135.1,300.7C135.2,300.7,135.2,300.7,135.1,300.7
	 M84.8,232.1l50.3,68l43.4-119.5L84.8,232.1z"/>
<path class="st0" d="M135.1,300.7C135.1,300.7,135.1,300.7,135.1,300.7c-0.2-0.1-0.2-0.1-0.2-0.2l43.6-120.2c0-0.1,0.1-0.1,0.2-0.1
	l45.4,15c0.1,0,0.1,0.1,0.1,0.1c0,0.1,0,0.1,0,0.2l-89,105.2C135.2,300.7,135.2,300.7,135.1,300.7 M178.9,180.5l-43.3,119.2
	l88.3-104.3L178.9,180.5z"/>
<path class="st0" d="M175.2,179c0.7-2,2.9-3,4.9-2.3c2,0.7,3,2.9,2.3,4.9c-0.7,2-2.9,3-4.9,2.3C175.5,183.2,174.5,181,175.2,179"/>
<path class="st0" d="M180,176.7c-2-0.7-4.1,0.4-4.8,2.4c-0.7,2,0.4,4.1,2.4,4.8c2,0.7,4.1-0.4,4.8-2.4
	C183,179.5,182,177.4,180,176.7"/>
<path class="st0" d="M28.7,342.4c-0.1,0-0.1,0-0.1-0.1c0-0.1,0-0.2,0-0.2l59.4-53.4c0,0,0.1-0.1,0.2,0l47.1,11.7
	c0.1,0,0.1,0.1,0.1,0.2c0,0.1,0,0.1-0.1,0.2L28.7,342.4C28.7,342.4,28.7,342.4,28.7,342.4 M88.1,289l-58.6,52.7l105.1-41.2L88.1,289
	z"/>
<path class="st0" d="M356.9,355.8c0,0-0.1,0-0.1,0L327.1,329c-0.1-0.1-0.1-0.1,0-0.2c0-0.1,0.1-0.1,0.2-0.1l47.1,15
	c0.1,0,0.1,0.1,0.1,0.1c0,0.1,0,0.1-0.1,0.2L356.9,355.8C356.9,355.8,356.9,355.8,356.9,355.8 M327.9,329.3l29,26.1l17.1-11.4
	L327.9,329.3z"/>
<path class="st0" d="M374.3,344.1C374.3,344.1,374.3,344.1,374.3,344.1l-47.2-15c0,0-0.1,0-0.1-0.1c0,0,0-0.1,0-0.1l31.4-93.5
	c0-0.1,0.1-0.1,0.2-0.1c0.1,0,0.1,0.1,0.1,0.1l15.7,108.5c0,0.1,0,0.1-0.1,0.2C374.4,344.1,374.4,344.1,374.3,344.1 M327.4,328.8
	l46.7,14.9l-15.6-107.6L327.4,328.8z"/>
<path class="st0" d="M326,332.5c-2-0.6-3.1-2.8-2.5-4.8c0.6-2,2.8-3.1,4.8-2.5c2,0.6,3.1,2.8,2.5,4.8
	C330.2,332.1,328,333.2,326,332.5"/>
<path class="st0" d="M323.6,327.7c-0.7,2,0.4,4.1,2.4,4.8c2,0.7,4.1-0.4,4.8-2.4c0.7-2-0.4-4.1-2.4-4.8
	C326.4,324.7,324.3,325.7,323.6,327.7"/>
<path class="st0" d="M267.8,190.5C267.8,190.5,267.8,190.5,267.8,190.5c-0.1,0-0.2-0.1-0.2-0.1l-3.5-26.7c0-0.1,0-0.1,0.1-0.2
	l82-46.7c0.1,0,0.2,0,0.2,0c0.1,0.1,0,0.2,0,0.2L268,190.5C267.9,190.5,267.9,190.5,267.8,190.5 M264.5,163.7L268,190l77.3-72.2
	L264.5,163.7z"/>
<path class="st0" d="M260.6,164.1c-0.3-2.1,1.2-4,3.3-4.2c2.1-0.3,4,1.2,4.2,3.3c0.3,2.1-1.2,4-3.3,4.2
	C262.8,167.7,260.9,166.2,260.6,164.1"/>
<path class="st0" d="M262.5,160.4c-1.8,1-2.5,3.4-1.4,5.2c1,1.8,3.3,2.5,5.2,1.4c1.8-1,2.5-3.3,1.4-5.2
	C266.6,160,264.3,159.3,262.5,160.4"/>
<path class="st0" d="M264.3,163.8c-0.1,0-0.1,0-0.1-0.1c0-0.1,0-0.2,0-0.2l69.8-50.1c0,0,0.1,0,0.1,0l12.2,3.3
	c0.1,0,0.1,0.1,0.1,0.1c0,0.1,0,0.1-0.1,0.2L264.3,163.8C264.4,163.8,264.4,163.8,264.3,163.8 M334.2,113.7l-67.2,48.2l78.9-45
	L334.2,113.7z"/>
<path class="st0" d="M332,110.5c1.7-1.2,4.1-0.8,5.3,0.9c1.2,1.7,0.8,4.1-0.9,5.3c-1.7,1.2-4.1,0.8-5.3-0.9
	C329.9,114.1,330.3,111.7,332,110.5"/>
<path class="st0" d="M335.2,109.9c-2-0.6-4.1,0.6-4.7,2.7c-0.6,2,0.6,4.1,2.7,4.7c2,0.6,4.1-0.6,4.7-2.7
	C338.4,112.5,337.2,110.5,335.2,109.9"/>
<path class="st0" d="M358.6,235.6C358.6,235.6,358.6,235.6,358.6,235.6l-90.9-45.1c0,0-0.1-0.1-0.1-0.1c0-0.1,0-0.1,0.1-0.1
	l78.6-73.4c0,0,0.1-0.1,0.2,0c0.1,0,0.1,0.1,0.1,0.1l12.2,118.5C358.8,235.5,358.8,235.5,358.6,235.6
	C358.7,235.6,358.6,235.6,358.6,235.6 M268.1,190.3l90.3,44.8l-12.2-117.9L268.1,190.3z"/>
<path class="st0" d="M266.2,193.7c-1.9-0.9-2.6-3.2-1.7-5.1c0.9-1.9,3.2-2.6,5.1-1.7c1.9,0.9,2.6,3.2,1.7,5.1
	C270.3,193.9,268,194.7,266.2,193.7"/>
<path class="st0" d="M265.3,187.6c-1.5,1.4-1.6,3.8-0.2,5.4c1.4,1.5,3.8,1.6,5.4,0.2c1.5-1.4,1.6-3.8,0.2-5.4
	C269.2,186.2,266.8,186.1,265.3,187.6"/>
<path class="st0" d="M346.4,117.1C346.4,117.1,346.4,117.1,346.4,117.1l-12.3-3.4c-0.1,0-0.1-0.1-0.1-0.2V85.2
	c0-0.1,0.1-0.1,0.1-0.2c0.1,0,0.2,0,0.2,0.1l12.2,31.7c0,0.1,0,0.1,0,0.2C346.5,117,346.4,117.1,346.4,117.1 M334.3,113.4l11.8,3.2
	l-11.8-30.6V113.4z"/>
<path class="st0" d="M349.9,115.5c0.8,2-0.2,4.1-2.2,4.9c-2,0.8-4.1-0.2-4.9-2.2c-0.8-2,0.2-4.1,2.2-4.9
	C347,112.6,349.2,113.6,349.9,115.5"/>
<path class="st0" d="M345.4,120.5c2,0.6,4.1-0.6,4.7-2.7c0.6-2-0.6-4.1-2.7-4.7c-2-0.6-4.1,0.6-4.7,2.7
	C342.2,117.9,343.4,120,345.4,120.5"/>
<path class="st0" d="M346.4,117.1c-0.1,0-0.1,0-0.2-0.1L334,85.2c0-0.1,0-0.1,0-0.2c0,0,0.1-0.1,0.2,0l66.3,28.4
	c0.1,0,0.1,0.1,0.1,0.2c0,0.1-0.1,0.1-0.2,0.1L346.4,117.1L346.4,117.1z M334.5,85.5l12,31.2l53.3-3.3L334.5,85.5z"/>
<path class="st0" d="M402,110.1c1.9,0.8,2.8,3,2,5c-0.8,1.9-3,2.8-5,2c-1.9-0.8-2.8-3-2-5C397.9,110.1,400.1,109.3,402,110.1"/>
<path class="st0" d="M400.8,117.3c2.1-0.1,3.7-1.9,3.5-4c-0.1-2.1-1.9-3.7-4-3.5c-2.1,0.1-3.7,1.9-3.5,4
	C396.9,115.9,398.7,117.5,400.8,117.3"/>
<path class="st0" d="M358.6,235.6C358.6,235.6,358.6,235.6,358.6,235.6c-0.1,0-0.2-0.1-0.2-0.1l-12.2-118.5c0-0.1,0-0.1,0.1-0.2
	c0.1,0,0.1,0,0.2,0l54.1,28.4c0.1,0,0.1,0.1,0.1,0.2l-41.9,90.2C358.7,235.6,358.7,235.6,358.6,235.6 M346.6,117.2l12.1,117.6
	l41.6-89.5L346.6,117.2z"/>
<path class="st0" d="M342.6,117.3c-0.2-2.1,1.3-3.9,3.4-4.2c2.1-0.2,3.9,1.3,4.2,3.4c0.2,2.1-1.3,3.9-3.4,4.2
	C344.7,120.9,342.8,119.4,342.6,117.3"/>
<path class="st0" d="M348.2,113.5c-1.9-1-4.1-0.3-5.1,1.6c-1,1.9-0.3,4.1,1.6,5.1c1.9,1,4.1,0.3,5.1-1.6
	C350.7,116.8,350,114.5,348.2,113.5"/>
<path class="st0" d="M400.5,145.4C400.5,145.4,400.5,145.4,400.5,145.4L346.3,117c-0.1,0-0.1-0.1-0.1-0.2c0-0.1,0.1-0.1,0.2-0.1
	l54.1-3.3c0.1,0,0.1,0,0.1,0c0,0,0.1,0.1,0.1,0.1v31.7C400.7,145.3,400.7,145.4,400.5,145.4C400.6,145.4,400.5,145.4,400.5,145.4
	 M347,117l53.3,28v-31.3L347,117z"/>
<path class="st0" d="M344.6,120.3c-1.9-1-2.6-3.3-1.6-5.1c1-1.9,3.3-2.6,5.1-1.6c1.9,1,2.6,3.3,1.6,5.1
	C348.8,120.5,346.5,121.2,344.6,120.3"/>
<path class="st0" d="M346.2,113.1c-2.1,0.1-3.7,1.9-3.5,4c0.1,2.1,1.9,3.7,4,3.5c2.1-0.1,3.7-1.9,3.5-4
	C350,114.6,348.2,113,346.2,113.1"/>
<path class="st0" d="M239.9,324.1C239.9,324.1,239.9,324.1,239.9,324.1l-104.8-23.4c-0.1,0-0.1-0.1-0.1-0.1c0-0.1,0-0.1,0-0.2
	l89-105.2c0,0,0.1-0.1,0.2-0.1c0.1,0,0.1,0.1,0.1,0.1l15.7,128.5c0,0.1,0,0.1-0.1,0.1C240,324.1,239.9,324.1,239.9,324.1
	 M135.5,300.4l104.2,23.3l-15.6-127.9L135.5,300.4z"/>
<path class="st0" d="M134.3,304.2c-2-0.5-3.3-2.5-2.9-4.5c0.5-2,2.5-3.3,4.5-2.9c2,0.5,3.3,2.5,2.9,4.5
	C138.4,303.4,136.4,304.7,134.3,304.2"/>
<path class="st0" d="M132.3,298.1c-1.4,1.6-1.2,4,0.4,5.3c1.6,1.3,4,1.1,5.3-0.4c1.4-1.6,1.2-4-0.4-5.3
	C136,296.3,133.6,296.5,132.3,298.1"/>
<path class="st0" d="M239.9,324.1L239.9,324.1c-0.1,0-0.2-0.1-0.2-0.1L224,195.4c0,0,0-0.1,0-0.1c0,0,0.1-0.1,0.1-0.1l43.6-5
	c0.1,0,0.1,0,0.1,0.1c0,0,0.1,0.1,0,0.1l-27.9,133.6C240,324,240,324.1,239.9,324.1 M224.4,195.5l15.6,127.4l27.7-132.3L224.4,195.5
	z"/>
<path class="st0" d="M220.4,195.8c-0.3-2.1,1.2-4,3.3-4.2c2.1-0.3,4,1.2,4.2,3.3c0.3,2.1-1.2,4-3.3,4.2
	C222.6,199.4,220.7,197.9,220.4,195.8"/>
<path class="st0" d="M223.8,191.6c-2.1,0.2-3.6,2.1-3.3,4.2c0.2,2.1,2.1,3.6,4.2,3.3c2.1-0.2,3.6-2.1,3.3-4.2
	C227.7,192.8,225.8,191.4,223.8,191.6"/>
<path class="st0" d="M239.9,324.1C239.9,324.1,239.8,324.1,239.9,324.1c-0.1-0.1-0.2-0.1-0.2-0.2l27.9-133.6c0,0,0-0.1,0.1-0.1
	c0,0,0.1,0,0.1,0l90.8,45.1c0.1,0,0.1,0.1,0.1,0.1c0,0.1,0,0.1-0.1,0.1L240,324C240,324.1,239.9,324.1,239.9,324.1 M268,190.6
	l-27.8,132.9l118.1-88.1L268,190.6z"/>
<path class="st0" d="M264.1,189.6c0.4-2,2.4-3.4,4.5-2.9c2,0.4,3.4,2.4,2.9,4.5c-0.4,2-2.4,3.4-4.5,2.9
	C265,193.6,263.7,191.6,264.1,189.6"/>
<path class="st0" d="M269.5,187c-1.9-0.9-4.1-0.2-5.1,1.7c-0.9,1.9-0.2,4.1,1.7,5.1c1.9,0.9,4.1,0.2,5.1-1.7
	C272.2,190.2,271.4,187.9,269.5,187"/>
<path class="st0" d="M327.2,329.1L327.2,329.1l-87.3-5c-0.1,0-0.1-0.1-0.1-0.1c0-0.1,0-0.1,0.1-0.2l118.7-88.5c0.1,0,0.1,0,0.2,0
	c0.1,0,0.1,0.1,0.1,0.2L327.4,329C327.3,329,327.3,329.1,327.2,329.1 M240.4,323.8l86.7,5l31.2-92.9L240.4,323.8z"/>
<path class="st0" d="M239.7,327.7c-2.1-0.1-3.7-1.9-3.6-4c0.1-2.1,1.9-3.7,4-3.6c2.1,0.1,3.7,1.9,3.6,4
	C243.6,326.2,241.8,327.8,239.7,327.7"/>
<path class="st0" d="M237.6,320.9c-1.7,1.2-2,3.6-0.8,5.3c1.3,1.7,3.6,2,5.3,0.8c1.7-1.2,2-3.6,0.8-5.3
	C241.7,320,239.3,319.6,237.6,320.9"/>
<path class="st0" d="M28.7,342.4c-0.1,0-0.1-0.1-0.2-0.1c0-0.1,0-0.2,0.1-0.2l106.5-41.7c0,0,0.1,0,0.1,0l104.7,23.4
	c0.1,0,0.1,0.1,0.1,0.2c0,0.1-0.1,0.2-0.2,0.2L28.7,342.4L28.7,342.4z M135.2,300.7L29.8,342l209-18.2L135.2,300.7z"/>
<path class="st0" d="M133.8,297c1.9-0.8,4.1,0.2,4.9,2.1c0.8,1.9-0.2,4.1-2.1,4.9c-1.9,0.8-4.1-0.2-4.9-2.1
	C130.9,300,131.8,297.8,133.8,297"/>
<path class="st0" d="M136,296.8c-2-0.5-4.1,0.8-4.5,2.9c-0.5,2,0.8,4.1,2.9,4.5c2,0.5,4.1-0.8,4.5-2.9
	C139.3,299.3,138,297.3,136,296.8"/>
<path class="st0" d="M96.7,355.8C96.7,355.8,96.7,355.8,96.7,355.8l-68.1-13.4c-0.1,0-0.1-0.1-0.1-0.2c0-0.1,0.1-0.2,0.2-0.2
	l211.2-18.4c0.1,0,0.2,0.1,0.2,0.1c0,0.1,0,0.2-0.1,0.2L96.7,355.8C96.8,355.8,96.8,355.8,96.7,355.8 M29.9,342.3l66.9,13.1
	l140.6-31.2L29.9,342.3z"/>
<path class="st0" d="M187.5,379.2C187.5,379.2,187.5,379.2,187.5,379.2l-90.8-23.4c-0.1,0-0.1-0.1-0.1-0.2c0-0.1,0.1-0.1,0.1-0.2
	l143.1-31.7c0.1,0,0.1,0,0.2,0.1c0,0.1,0,0.1,0,0.2l-52.4,55.1C187.6,379.1,187.6,379.2,187.5,379.2 M97.5,355.6l90,23.2l51.9-54.6
	L97.5,355.6z"/>
<path class="st0" d="M187.5,379.2c-0.1,0-0.1,0-0.1-0.1c0-0.1,0-0.1,0-0.2l52.4-55.1c0,0,0.1,0,0.1-0.1l87.3,5
	c0.1,0,0.1,0.1,0.2,0.1c0,0.1,0,0.2-0.1,0.2L187.5,379.2C187.6,379.2,187.5,379.2,187.5,379.2 M240,324.1l-51.8,54.5L326.4,329
	L240,324.1z"/>
<path class="st0" d="M237.1,321.3c1.4-1.5,3.8-1.6,5.4-0.1c1.5,1.4,1.6,3.8,0.1,5.4c-1.4,1.5-3.8,1.6-5.4,0.1
	C235.8,325.2,235.7,322.8,237.1,321.3"/>
<path class="st0" d="M240.1,320.1c-2.1-0.1-3.9,1.5-4,3.6c-0.1,2.1,1.5,3.9,3.6,4c2.1,0.1,3.9-1.5,4-3.6
	C243.8,322,242.2,320.2,240.1,320.1"/>
<path class="st0" d="M187.5,379.2c-0.1,0-0.1-0.1-0.2-0.1c0-0.1,0-0.2,0.1-0.2l139.7-50.1c0.1,0,0.1,0,0.2,0l29.7,26.7
	c0,0,0.1,0.1,0,0.2c0,0.1-0.1,0.1-0.1,0.1L187.5,379.2L187.5,379.2z M327.2,329.1l-138,49.5l167.4-23.1L327.2,329.1z"/>
<path class="st0" d="M325.9,325.3c2-0.7,4.1,0.3,4.8,2.3c0.7,2-0.3,4.1-2.3,4.8c-2,0.7-4.1-0.3-4.8-2.3
	C322.9,328.2,323.9,326.1,325.9,325.3"/>
<path class="st0" d="M329.7,326.1c-1.6-1.4-4-1.3-5.3,0.3c-1.4,1.6-1.3,4,0.3,5.3c1.6,1.4,3.9,1.3,5.3-0.3
	C331.4,329.9,331.3,327.5,329.7,326.1"/>
</svg>
