<?xml version="1.0" encoding="UTF-8" standalone="no"?>
<!-- Created with Inkscape (http://www.inkscape.org/) -->

<svg
   xmlns:svg="http://www.w3.org/2000/svg"
   xmlns="http://www.w3.org/2000/svg"
   version="1.1"
   width="1000"
   height="600"
   id="svg3007">
  <defs
     id="defs3011" />
  <path
     d="m 0,0 1000,0 0,600 L 0,600 0,0 z"
     id="rect3949"
     style="fill:#f7f700;fill-opacity:1;fill-rule:nonzero;stroke:none" />
  <g
     transform="matrix(2.8683086,0,0,2.8683086,1385.3586,408.78851)"
     id="g3866">
    <g
       transform="matrix(0.75646388,0,0,0.75646388,-160.08015,-68.128788)"
       id="g3934">
      <g
         id="g3855">
        <circle
           cx="66"
           cy="67.620003"
           r="40.5"
           transform="matrix(2.3809524,0,0,2.3809524,-353.56871,-121.07605)"
           id="circle2900"
           style="fill:#ffffff;stroke:#005200;stroke-width:3;stroke-opacity:1" />
        <path
           d="m -198.56395,132.59062 c -40.17857,-63.376192 -33.27857,-149.028574 2.1381,-185.735717"
           id="path2902"
           style="fill:none;stroke:#005200;stroke-width:2.38095236;stroke-linecap:round;stroke-opacity:1" />
        <path
           d="m -198.56395,132.59062 c 48.65238,-71.490478 26.17619,-128.2952404 2.1381,-185.735717"
           id="path2904"
           style="fill:none;stroke:#005200;stroke-width:2.38095236;stroke-linecap:round;stroke-opacity:1" />
        <path
           d="m -196.42585,-53.145097 c 68.45238,39.330953 83.27857,120.557144 -2.1381,185.735717"
           id="path2906"
           style="fill:none;stroke:#005200;stroke-width:2.38095236;stroke-linecap:round;stroke-opacity:1" />
        <path
           d="m -196.42585,-53.145097 c -65.47619,24.107143 -92.31667,128.926191 -2.1381,185.735717"
           id="path2908"
           style="fill:none;stroke:#005200;stroke-width:2.38095236;stroke-linecap:round;stroke-opacity:1" />
        <path
           d="m -260.79014,-32.161764 c 51.26667,21.502382 96.80953,15.600001 126.31191,-2.097619"
           id="path2910"
           style="fill:none;stroke:#005200;stroke-width:2.38095236;stroke-opacity:1" />
        <path
           d="m -277.37823,-7.980811 c 43.15476,33.928572 116.66666,36.309524 160.71428,-0.5952381"
           id="path2912"
           style="fill:none;stroke:#005200;stroke-width:2.38095236;stroke-opacity:1" />
        <path
           d="m -288.98538,23.269189 c 49.10715,43.154762 130.35715,51.488096 183.92858,-8.035714"
           id="path2914"
           style="fill:none;stroke:#005200;stroke-width:2.38095236;stroke-opacity:1" />
        <path
           d="m -288.98538,57.904904 c 57.14286,35.911905 111.90477,50.780956 186.86667,-3.088095"
           id="path2916"
           style="fill:none;stroke:#005200;stroke-width:2.38095236;stroke-opacity:1" />
      </g>
      <path
         d="m -238.03538,126.24538 c -2.08333,-16.07143 19.88334,-64.183333 17.8,-69.295238 -2.08333,-5.111905 4.46429,-12.252381 5.35715,-16.121429 0.89285,-3.869047 0.13095,-16.373809 -9.02619,-22.695238 0,0 -9.42619,-2.926191 -18.95,1.254762 -9.52381,4.180952 -29.35715,8.009524 -46.55953,6.261905 0,0 -0.84762,-6.847619 1.91667,-6.261905 11.30952,2.392857 17.2619,-0.345238 22.91667,-2.25 5.65476,-1.904762 13.98809,-1.309524 21.13095,-5.476191 7.14286,-4.1666664 12.90238,-10.1190474 19.54524,-9.5238093 6.64285,0.5952381 11.37857,0.6380952 9.30952,-2.65714288 -2.06905,-3.29523812 -5.04524,-9.05952392 -3.25952,-13.17142882 3.27381,-9.469048 13.39285,-9.047619 17.55952,-1.433333 0,0 2.38095,8.6309523 -1.78571,12.2023809 -4.16667,3.57142855 0.75952,5.3571429 2.46428,6.25 1.70476,0.8928572 3.05715,3.8690477 8.18572,-0.297619 5.12381,-4.1666667 8.1,0.3404761 14.64762,-3.55000008 6.54761,-3.89047622 19.40952,-7.16428572 24.43809,-11.33095282 5.02857,-4.166666 19.01429,-12.138095 20.8,-15.442857 1.78572,-3.304762 6.75714,2.645238 2.48572,4.728572 -4.27143,2.083333 -23.61667,17.8571426 -27.1881,20.238095 -3.57143,2.38095235 -9.93571,10.0071429 -24.40476,14.285714 -3.8,1.12381 -12.20238,9.226191 -12.20238,19.571429 0,4.335714 -3.27381,21.202381 2.67857,29.833334 5.95238,8.630952 2.97619,28.273809 9.22619,35.416667 6.25,7.142855 9.93809,24.999995 12.1119,32.440475 0,0 -1.39762,4.16667 -3.48095,0 -2.08333,-4.16667 -15.6119,-23.80952 -19.1119,-33.035714 0,0 -10.92857,-20.030952 -12.11905,-26.578571 -1.19048,-6.547619 -3.31667,-2.290476 -3.60238,0.09048 -0.28572,2.380952 -11.29762,15.77381 -13.67857,25.297619 -2.38096,9.523806 -8.63096,22.321426 -11.30953,27.380946 -2.67857,5.05953 -5.89524,3.86905 -5.89524,3.86905 z"
         id="path2919"
         style="fill:#005200;fill-opacity:1" />
    </g>
  </g>
</svg>
