<?xml version="1.0" encoding="iso-8859-1"?>
<!-- Generator: Adobe Illustrator 19.0.0, SVG Export Plug-In . SVG Version: 6.00 Build 0)  -->
<svg xmlns="http://www.w3.org/2000/svg" xmlns:xlink="http://www.w3.org/1999/xlink" version="1.1" id="Layer_1" x="0px" y="0px" viewBox="0 0 512 512" style="enable-background:new 0 0 512 512;" xml:space="preserve" width="512px" height="512px">
<g>
	<g>
		<g>
			<path d="M302.481,419.029c-4.207-2.099-9.267-0.333-11.366,3.883c-1.306,2.603-1.126,5.572,0.196,7.962     c-1.451,2.475-1.621,5.615-0.179,8.337c1.536,2.884,4.489,4.523,7.543,4.523c1.348,0,2.722-0.324,4.002-0.998     c7.211-3.84,8.235-9.071,8.201-11.844C310.801,425.207,306.492,421.035,302.481,419.029z" fill="#0DB5E6"/>
			<path d="M286.234,158.251c3.217,2.62,3.908,4.156,3.9,3.934c-0.043,3.345-3.627,8.533-6.34,11.307l-11.179,12.416     c-3.149,3.499-2.867,8.892,0.631,12.049c1.63,1.468,3.678,2.193,5.709,2.193c2.338,0,4.659-0.956,6.349-2.825l10.863-12.092     c1.126-1.126,11.034-11.366,11.034-23.1c0-5.922-3.328-11.52-10.172-17.101c-3.652-2.978-9.028-2.432-12.006,1.212     C282.044,149.897,282.59,155.273,286.234,158.251z" fill="#0DB5E6"/>
			<path d="M208.077,367.522c-9.284-9.916-20.344-25.464-20.344-43.255c0-10.624,3.977-21.666,11.827-32.828     c2.714-3.857,1.783-9.173-2.065-11.887c-3.857-2.714-9.182-1.792-11.895,2.065c-9.907,14.097-14.933,28.442-14.933,42.65     c0,23.364,13.568,42.761,24.951,54.921c1.681,1.792,3.959,2.696,6.229,2.696c2.091,0,4.19-0.759,5.837-2.304     C211.123,376.363,211.302,370.961,208.077,367.522z" fill="#0DB5E6"/>
			<path d="M116.77,196.702c-25.335,8.456-39.902,6.886-50.091-5.41l-8.277-13.252l36.173-3.004     c4.693-0.384,8.183-4.514,7.799-9.207c-0.393-4.693-4.506-8.201-9.216-7.799l-44.937,3.729L36.361,142.78l59.025-10.65     c4.634-0.836,7.714-5.274,6.878-9.916c-0.836-4.634-5.24-7.731-9.916-6.878l-65.724,11.861l-2.125-3.388     c-5.521-9.796-7.433-13.577-7.433-21.41c0-3.106,4.514-6.827,10.564-8.764l187.23-34.039c4.634-0.845,7.714-5.291,6.869-9.924     s-5.274-7.697-9.924-6.869L24.073,76.937c-0.316,0.06-0.623,0.137-0.939,0.222C9.079,81.408,0,91.307,0,102.4     c0,12.126,3.482,18.884,9.83,30.123l42.667,68.267c0.179,0.29,0.375,0.572,0.589,0.828     c10.615,13.167,23.774,17.485,37.129,17.485c10.948,0,22.033-2.901,31.949-6.204c4.471-1.493,6.895-6.323,5.402-10.795     C126.071,197.641,121.259,195.2,116.77,196.702z" fill="#0DB5E6"/>
			<path d="M328.081,77.696c-6.315-3.157-16.845-5.444-28.885-6.263c-4.599-0.256-8.772,3.226-9.097,7.927     c-0.324,4.702,3.226,8.772,7.927,9.097c10.735,0.734,18.995,2.79,22.426,4.514c14.097,7.04,37.948,29.542,37.948,69.163     c0,37.973-40.559,71.006-40.969,71.339c-3.669,2.953-4.267,8.32-1.323,11.989c1.69,2.108,4.164,3.2,6.665,3.2     c1.869,0,3.755-0.614,5.325-1.869c1.929-1.545,47.369-38.426,47.369-84.659C375.467,114.185,345.685,86.502,328.081,77.696z" fill="#0DB5E6"/>
			<path d="M488.866,77.158c-0.316-0.085-0.623-0.162-0.939-0.222L300.194,42.803c-4.659-0.819-9.079,2.244-9.924,6.869     c-0.845,4.634,2.236,9.079,6.869,9.924l187.23,34.039c6.05,1.937,10.564,5.658,10.564,8.764c0,7.834-1.911,11.614-7.236,21.077     l-2.33,3.721l-65.715-11.861c-4.659-0.853-9.079,2.244-9.916,6.878c-0.836,4.642,2.244,9.079,6.878,9.916l59.017,10.65     l-11.853,18.978l-44.937-3.729c-4.693-0.401-8.823,3.106-9.216,7.799c-0.384,4.693,3.106,8.823,7.799,9.207l36.173,2.995     l-8.277,13.261c-10.18,12.297-24.738,13.867-50.091,5.41c-4.489-1.502-9.301,0.939-10.795,5.402     c-1.493,4.471,0.93,9.301,5.402,10.795c9.916,3.302,21.001,6.204,31.949,6.204c13.355,0,26.513-4.318,37.128-17.485     c0.213-0.256,0.41-0.538,0.589-0.828l42.863-68.599c6.153-10.906,9.634-17.664,9.634-29.79     C512,91.307,502.921,81.408,488.866,77.158z" fill="#0DB5E6"/>
			<path d="M234.999,309.99c-4.369-1.783-9.344,0.324-11.119,4.685c-1.34,3.285-2.014,6.511-2.014,9.591     c0,4.796,1.638,9.873,4.872,15.113c1.613,2.611,4.403,4.053,7.27,4.053c1.527,0,3.081-0.41,4.471-1.271     c4.011-2.483,5.257-7.74,2.782-11.75c-2.022-3.277-2.33-5.257-2.33-6.144c0-0.853,0.265-1.946,0.751-3.166     C241.459,316.74,239.36,311.765,234.999,309.99z" fill="#0DB5E6"/>
			<path d="M230.656,119.467c4.719,0,8.533-3.823,8.533-8.533s-3.814-8.533-8.533-8.533h-0.085c-4.71,0-8.491,3.823-8.491,8.533     S225.946,119.467,230.656,119.467z" fill="#0DB5E6"/>
			<path d="M264.533,209.801v-69.222c9.344-5.385,17.067-13.909,17.067-29.645c0-12.937-6.059-23.134-17.067-29.995V49.63     C274.449,46.089,281.6,36.71,281.6,25.6C281.6,11.486,270.114,0,256,0s-25.6,11.486-25.6,25.6     c0,11.11,7.151,20.489,17.067,24.021v24.337c-7.492-1.877-16.085-2.867-25.685-2.867c-14.967,0-29.824,2.594-37.862,6.605     c-17.604,8.806-47.386,36.489-47.386,84.437c0,46.234,43.998,81.963,45.867,83.465l65.067,52.045v61.107l-23.1,27.75     c-0.802,0.802-19.567,19.9-19.567,48.7c0,30.874,21.538,41.643,38.852,50.304l1.664,0.828c0.717,0.358,1.434,0.717,2.15,1.075     v16.06c0,4.71,3.823,8.533,8.533,8.533s8.533-3.823,8.533-8.533v-8.26c5.828,2.227,11.443,3.738,16.538,3.738     c8.482,0,13.312-4.019,15.864-7.39c10.419-13.739-1.237-29.858-10.214-37.581l-26.266-19.695l52.241-52.275     c1.161-0.99,28.638-24.457,28.638-57.737c0-37.239-26.948-64.623-28.1-65.766L264.533,209.801z M256,17.067     c4.702,0,8.533,3.831,8.533,8.533c0,4.702-3.831,8.533-8.533,8.533c-4.702,0-8.533-3.831-8.533-8.533     C247.467,20.898,251.298,17.067,256,17.067z M301.167,369.434l-59.733,59.733c-1.749,1.749-2.654,4.173-2.483,6.639     c0.179,2.466,1.417,4.736,3.396,6.221l33.681,25.233c3.081,2.662,9.779,10.726,7.305,13.986     c-0.154,0.205-0.478,0.631-2.261,0.631c-6.545,0-17.997-5.743-28.109-10.803l-1.681-0.845     c-18.236-9.114-29.414-15.684-29.414-35.029c0-21.555,14.447-36.506,15.087-37.205l42.146-50.628     c1.126-1.126,11.034-11.366,11.034-23.1s-9.907-21.973-11.034-23.1c-0.222-0.222-0.461-0.435-0.7-0.631l-85.333-68.258     c-0.384-0.316-39.467-32.179-39.467-70.144c0-39.62,23.851-62.123,37.948-69.163c4.787-2.398,16.708-4.813,30.234-4.813     c10.035,0,42.752,1.638,42.752,22.775c0,11.87-6.647,15.266-22.963,20.702c-5.001,1.673-10.18,3.396-14.984,5.794     c-5.112,2.56-21.786,11.896-21.786,24.704c0,11.733,9.907,21.973,11.034,23.1l33.766,33.766c0.29,0.333,0.572,0.623,0.905,0.913     l50.662,50.654c0.23,0.23,23.1,23.45,23.1,53.7C324.267,349.491,301.918,368.751,301.167,369.434z M264.533,338.253v-26.957     l2.773,2.227c2.423,2.586,5.76,7.535,5.76,10.743c0,3.345-3.618,8.576-6.554,11.605L264.533,338.253z M247.467,147.661v45.073     l-19.541-19.541c-2.441-2.483-6.059-7.714-6.101-10.684c0.657-2.125,6.801-6.989,12.39-9.805     c3.729-1.869,8.107-3.328,12.749-4.873C247.125,147.772,247.305,147.712,247.467,147.661z" fill="#0DB5E6"/>
		</g>
	</g>
</g>
<g>
</g>
<g>
</g>
<g>
</g>
<g>
</g>
<g>
</g>
<g>
</g>
<g>
</g>
<g>
</g>
<g>
</g>
<g>
</g>
<g>
</g>
<g>
</g>
<g>
</g>
<g>
</g>
<g>
</g>
</svg>
