<?xml version="1.0" encoding="iso-8859-1"?>
<!-- Generator: Adobe Illustrator 19.0.0, SVG Export Plug-In . SVG Version: 6.00 Build 0)  -->
<svg xmlns="http://www.w3.org/2000/svg" xmlns:xlink="http://www.w3.org/1999/xlink" version="1.1" id="Layer_1" x="0px" y="0px" viewBox="0 0 512 512" style="enable-background:new 0 0 512 512;" xml:space="preserve" width="512px" height="512px">
<g>
	<g>
		<g>
			<path d="M281.6,34.133h-51.2c-23.526,0-42.667,19.14-42.667,42.667c0,4.71,3.823,8.533,8.533,8.533S204.8,81.51,204.8,76.8     c0-14.114,11.486-25.6,25.6-25.6h51.2c14.114,0,25.6,11.486,25.6,25.6c0,4.71,3.823,8.533,8.533,8.533s8.533-3.823,8.533-8.533     C324.267,53.274,305.126,34.133,281.6,34.133z" fill="#0DB5E6"/>
			<path d="M162.133,85.333c4.71,0,8.533-3.823,8.533-8.533c0-30.703,29.03-59.733,59.733-59.733h51.2     c31.266,0,59.733,28.467,59.733,59.733c0,4.71,3.823,8.533,8.533,8.533S358.4,81.51,358.4,76.8c0-40.909-35.891-76.8-76.8-76.8     h-51.2c-40.192,0-76.8,36.608-76.8,76.8C153.6,81.51,157.423,85.333,162.133,85.333z" fill="#0DB5E6"/>
			<path d="M503.467,366.933c-4.71,0-8.533,3.823-8.533,8.533v93.867c0,14.114-11.486,25.6-25.6,25.6H42.667     c-14.114,0-25.6-11.486-25.6-25.6v-93.867c0-4.71-3.823-8.533-8.533-8.533S0,370.756,0,375.467v93.867     C0,492.86,19.14,512,42.667,512h426.667C492.86,512,512,492.86,512,469.333v-93.867C512,370.756,508.177,366.933,503.467,366.933     z" fill="#0DB5E6"/>
			<path d="M469.333,102.4H42.667C19.14,102.4,0,121.54,0,145.067v170.667C0,339.26,19.14,358.4,42.667,358.4H230.4     c4.71,0,8.533-3.823,8.533-8.533v-76.8h34.133v76.8c0,4.71,3.823,8.533,8.533,8.533h187.733c23.526,0,42.667-19.14,42.667-42.667     V145.067C512,121.54,492.86,102.4,469.333,102.4z M494.933,315.733c0,14.114-11.486,25.6-25.6,25.6h-179.2v-68.267     c0-9.412-7.654-17.067-17.067-17.067h-34.133c-9.412,0-17.067,7.654-17.067,17.067v68.267h-179.2     c-14.114,0-25.6-11.486-25.6-25.6V145.067c0-14.114,11.486-25.6,25.6-25.6h42.667v196.267c0,4.71,3.823,8.533,8.533,8.533     c4.71,0,8.533-3.823,8.533-8.533V119.467h307.2v196.267c0,4.71,3.823,8.533,8.533,8.533s8.533-3.823,8.533-8.533V119.467h42.667     c14.114,0,25.6,11.486,25.6,25.6V315.733z" fill="#0DB5E6"/>
			<path d="M264.789,392.533c0-4.71-3.814-8.533-8.533-8.533h-0.085c-4.71,0-8.491,3.823-8.491,8.533     c0,4.71,3.866,8.533,8.576,8.533C260.975,401.067,264.789,397.244,264.789,392.533z" fill="#0DB5E6"/>
			<path d="M230.4,375.467c-4.71,0-8.533,3.823-8.533,8.533v25.6c0,9.412,7.654,17.067,17.067,17.067h34.133     c9.412,0,17.067-7.654,17.067-17.067V384c0-4.71-3.823-8.533-8.533-8.533s-8.533,3.823-8.533,8.533v25.6h-34.133V384     C238.933,379.29,235.11,375.467,230.4,375.467z" fill="#0DB5E6"/>
		</g>
	</g>
</g>
<g>
</g>
<g>
</g>
<g>
</g>
<g>
</g>
<g>
</g>
<g>
</g>
<g>
</g>
<g>
</g>
<g>
</g>
<g>
</g>
<g>
</g>
<g>
</g>
<g>
</g>
<g>
</g>
<g>
</g>
</svg>
