<?xml version="1.0" encoding="iso-8859-1"?>
<!-- Generator: Adobe Illustrator 17.1.0, SVG Export Plug-In . SVG Version: 6.00 Build 0)  -->
<!DOCTYPE svg PUBLIC "-//W3C//DTD SVG 1.1//EN" "http://www.w3.org/Graphics/SVG/1.1/DTD/svg11.dtd">
<svg xmlns="http://www.w3.org/2000/svg" xmlns:xlink="http://www.w3.org/1999/xlink" version="1.1" id="Capa_1" x="0px" y="0px" viewBox="0 0 495.724 495.724" style="enable-background:new 0 0 495.724 495.724;" xml:space="preserve" width="512px" height="512px">
<g>
	<path d="M192.142,97.698c0,17.236,5.964,33.168,15.525,45.053l-0.022,17.303c-0.431,0.683-2.425,1.987-4.946,2.73l-29.785,7.735   c-0.049,0.013-0.098,0.026-0.147,0.04c-18.962,5.313-28.883,23.902-28.883,39.519v8.633c0,9.453,8.273,17.144,18.444,17.144   l171.067-0.019c10.169,0,18.443-7.691,18.443-17.144v-8.633c0-15.618-9.921-34.207-28.883-39.519   c-0.049-0.014-0.098-0.027-0.147-0.04l-29.785-7.735c-2.521-0.743-4.514-2.047-4.946-2.73l-0.02-16.198   c0.024-0.029,0.05-0.055,0.074-0.084c10.214-12.208,15.839-28.025,15.839-44.539V87.149c10.19-33.194,3.008-61.973-0.678-70.35   c-0.012-0.027-0.027-0.052-0.039-0.079c-0.071-0.158-0.151-0.31-0.232-0.461c-0.047-0.088-0.091-0.177-0.14-0.262   c-0.075-0.129-0.158-0.253-0.24-0.378c-0.067-0.102-0.132-0.205-0.203-0.303c-0.068-0.093-0.141-0.181-0.213-0.271   c-0.095-0.119-0.189-0.239-0.29-0.353c-0.055-0.062-0.115-0.119-0.172-0.179c-0.123-0.13-0.247-0.258-0.378-0.379   c-0.049-0.045-0.101-0.085-0.151-0.129c-0.144-0.126-0.288-0.25-0.44-0.364c-0.055-0.041-0.113-0.078-0.168-0.118   c-0.151-0.108-0.302-0.214-0.459-0.311c-0.076-0.047-0.155-0.087-0.232-0.131c-0.142-0.081-0.283-0.163-0.429-0.234   c-0.103-0.051-0.21-0.094-0.315-0.141c-0.126-0.055-0.251-0.113-0.38-0.162c-0.122-0.047-0.248-0.084-0.373-0.125   c-0.119-0.039-0.236-0.08-0.357-0.113c-0.126-0.034-0.255-0.06-0.383-0.089c-0.126-0.028-0.251-0.058-0.379-0.08   c-0.116-0.02-0.233-0.031-0.35-0.046c-0.146-0.019-0.292-0.038-0.439-0.049c-0.098-0.007-0.197-0.007-0.296-0.01   c-0.17-0.006-0.34-0.01-0.511-0.005c-0.084,0.003-0.169,0.011-0.253,0.016c-0.184,0.011-0.368,0.026-0.552,0.051   c-0.027,0.003-0.053,0.003-0.08,0.007c-7.702,1.1-17.098-1.149-27.046-3.531c-17.597-4.213-37.445-8.954-54.834,3.582   c-16.816,1.446-28.738,15.577-28.738,34.677c0,13.887,6.443,38.688,7.921,44.195V97.698z M287.971,85.877c0,0.024,0,0.049,0,0.073   v13.265c0,14.091-5.299,27-13.565,35.933c-0.02,0.02-0.038,0.041-0.058,0.061c-7.106,7.651-16.392,12.372-26.399,12.372   c-21.206,0-39.808-23.309-39.808-49.881v-2.73c0-7.943,3.361-19.558,5.874-26.908c36.21,0.831,63.533,9.527,73.955,13.384V85.877z    M272.078,160.145c0,7.203,4.674,12.323,10.347,15.444c-8.907,7.734-21.333,12.292-34.51,12.292   c-13.19,0-25.629-4.569-34.539-12.318c5.638-3.125,10.268-8.227,10.268-15.389l0.004-3.422c7.393,4.355,15.653,6.829,24.3,6.829   c8.488,0,16.681-2.197,24.125-6.354L272.078,160.145z M335.839,210.059v8.633c0,0.218-0.814,1.144-2.444,1.144l-171.067,0.019   c-1.629,0-2.443-0.926-2.443-1.144v-8.633c0-9.568,5.885-20.903,17.132-24.093l19.311-5.015   c11.89,14.245,31.152,22.911,51.588,22.911c20.433,0,39.691-8.662,51.582-22.903l19.21,4.989   C329.955,189.156,335.839,200.491,335.839,210.059z M215.826,28.022c0.037,0,0.072-0.005,0.108-0.005   c0.226-0.003,0.452-0.012,0.678-0.034c0.088-0.009,0.173-0.025,0.26-0.036c0.173-0.023,0.345-0.045,0.516-0.079   c0.108-0.021,0.212-0.051,0.318-0.076c0.147-0.035,0.295-0.069,0.44-0.113c0.116-0.035,0.228-0.079,0.342-0.119   c0.131-0.046,0.263-0.09,0.393-0.144c0.122-0.051,0.24-0.11,0.359-0.166c0.116-0.055,0.232-0.106,0.346-0.167   c0.136-0.073,0.267-0.155,0.398-0.235c0.091-0.056,0.184-0.106,0.274-0.167c0.169-0.113,0.331-0.236,0.49-0.361   c0.045-0.035,0.093-0.065,0.138-0.102c11.76-9.608,27.022-5.955,43.18-2.085c8.697,2.083,17.628,4.215,26.301,4.248   c2.083,7.699,4.132,21.339,1.932,37.586c-13.015-4.74-43.539-13.976-83.854-13.976c-0.023,0-0.045,0.003-0.068,0.003   c-0.168,0.001-0.335,0.013-0.503,0.025c-0.103,0.007-0.207,0.011-0.31,0.022c-0.132,0.015-0.262,0.039-0.393,0.06   c-0.135,0.022-0.272,0.04-0.405,0.069c-0.079,0.017-0.156,0.041-0.235,0.061c-0.179,0.044-0.357,0.088-0.531,0.144   c-0.028,0.009-0.054,0.021-0.081,0.03c-0.219,0.073-0.435,0.152-0.644,0.242c-0.003,0.001-0.006,0.003-0.009,0.004   c-0.231,0.1-0.457,0.21-0.676,0.331c-0.035,0.019-0.068,0.043-0.103,0.063c-0.184,0.105-0.366,0.213-0.541,0.332   c-0.11,0.075-0.213,0.159-0.32,0.239c-0.095,0.072-0.193,0.139-0.284,0.214c-0.146,0.121-0.284,0.251-0.421,0.383   c-0.047,0.045-0.097,0.085-0.143,0.131c-0.131,0.131-0.253,0.271-0.375,0.412c-0.048,0.055-0.099,0.106-0.145,0.163   c-0.096,0.117-0.184,0.242-0.274,0.366c-0.066,0.09-0.135,0.177-0.197,0.271c-0.063,0.095-0.12,0.196-0.179,0.295   c-0.08,0.132-0.161,0.262-0.233,0.398c-0.041,0.077-0.076,0.158-0.114,0.237c-0.05,0.102-0.102,0.202-0.148,0.306   c-0.551-3.761-0.896-7.218-0.896-9.961C200.221,38.153,204.308,28.022,215.826,28.022z" fill="#0DB5E6"/>
	<path d="M179.071,426.335c-0.049-0.014-0.098-0.027-0.147-0.04l-29.784-7.735c-2.521-0.743-4.515-2.047-4.946-2.73l-0.02-16.198   c0.024-0.029,0.05-0.056,0.074-0.085c10.214-12.208,15.839-28.025,15.839-44.539v-12.065c10.19-33.194,3.008-61.973-0.678-70.35   c-0.011-0.025-0.025-0.047-0.036-0.072c-0.076-0.169-0.161-0.333-0.248-0.495c-0.04-0.074-0.078-0.15-0.12-0.223   c-0.086-0.149-0.18-0.292-0.276-0.434c-0.054-0.081-0.106-0.164-0.162-0.242c-0.088-0.121-0.182-0.236-0.277-0.352   c-0.073-0.09-0.144-0.182-0.22-0.268c-0.088-0.099-0.183-0.192-0.275-0.287c-0.089-0.091-0.176-0.184-0.269-0.27   c-0.096-0.089-0.197-0.17-0.297-0.254c-0.096-0.081-0.19-0.164-0.289-0.24c-0.116-0.089-0.238-0.169-0.358-0.251   c-0.089-0.06-0.174-0.124-0.265-0.18c-0.146-0.091-0.299-0.173-0.451-0.255c-0.07-0.037-0.138-0.079-0.209-0.114   c-0.174-0.087-0.353-0.163-0.533-0.237c-0.054-0.022-0.107-0.048-0.162-0.069c-0.185-0.071-0.374-0.132-0.565-0.189   c-0.056-0.017-0.11-0.037-0.167-0.053c-0.175-0.049-0.354-0.087-0.534-0.124c-0.078-0.016-0.155-0.036-0.233-0.049   c-0.151-0.026-0.303-0.043-0.456-0.06c-0.113-0.013-0.226-0.029-0.34-0.037c-0.119-0.008-0.24-0.009-0.36-0.012   c-0.152-0.004-0.304-0.009-0.456-0.004c-0.092,0.003-0.184,0.012-0.276,0.018c-0.18,0.012-0.361,0.026-0.541,0.05   c-0.026,0.003-0.051,0.003-0.077,0.007c-7.702,1.099-17.098-1.149-27.046-3.531c-17.597-4.213-37.445-8.955-54.834,3.582   c-16.816,1.446-28.738,15.577-28.738,34.677c0,13.887,6.443,38.688,7.921,44.195v6.674c0,17.235,5.964,33.167,15.525,45.052   l-0.021,17.303c-0.431,0.683-2.425,1.987-4.946,2.73l-29.785,7.735c-0.049,0.013-0.098,0.026-0.147,0.04   C9.921,431.667,0,450.256,0,465.873v8.633c0,9.453,8.273,17.144,18.444,17.144l171.067-0.019c10.169,0,18.443-7.691,18.443-17.144   v-8.633C207.954,450.237,198.033,431.648,179.071,426.335z M64.257,350.763c0-7.943,3.361-19.558,5.874-26.907   c36.21,0.831,63.533,9.526,73.955,13.384v4.429c0,0.027,0,0.054,0,0.081v13.26c0,14.09-5.298,26.998-13.563,35.931   c-0.022,0.022-0.043,0.046-0.065,0.068c-7.105,7.648-16.388,12.366-26.393,12.366c-21.206,0-39.808-23.309-39.808-49.881V350.763z    M79.761,415.968l0.004-3.422c7.393,4.355,15.653,6.829,24.301,6.829c8.488,0,16.681-2.197,24.124-6.354l0.004,2.919   c0,7.203,4.674,12.323,10.347,15.444c-8.907,7.734-21.333,12.292-34.51,12.292c-13.19,0-25.629-4.569-34.539-12.318   C75.13,428.232,79.761,423.13,79.761,415.968z M71.941,283.817c0.037,0,0.072-0.005,0.109-0.005   c0.226-0.003,0.451-0.012,0.677-0.034c0.088-0.009,0.174-0.025,0.261-0.037c0.172-0.022,0.344-0.045,0.515-0.078   c0.108-0.021,0.212-0.051,0.319-0.077c0.147-0.035,0.294-0.069,0.439-0.113c0.116-0.035,0.229-0.079,0.343-0.119   c0.131-0.046,0.263-0.09,0.392-0.144c0.123-0.051,0.24-0.11,0.359-0.166c0.116-0.055,0.233-0.106,0.346-0.167   c0.136-0.073,0.267-0.155,0.398-0.235c0.091-0.056,0.184-0.107,0.274-0.166c0.169-0.113,0.331-0.236,0.49-0.361   c0.045-0.035,0.093-0.065,0.138-0.102c11.76-9.608,27.022-5.955,43.18-2.085c8.697,2.083,17.628,4.215,26.301,4.248   c2.083,7.699,4.132,21.339,1.932,37.586c-13.016-4.74-43.54-13.976-83.854-13.976c-0.024,0-0.047,0.003-0.071,0.004   c-0.165,0.001-0.328,0.013-0.491,0.025c-0.107,0.008-0.215,0.011-0.322,0.023c-0.127,0.014-0.252,0.037-0.378,0.058   c-0.141,0.022-0.282,0.042-0.42,0.071c-0.072,0.016-0.143,0.037-0.214,0.055c-0.186,0.045-0.371,0.091-0.551,0.149   c-0.018,0.006-0.036,0.014-0.054,0.02c-0.473,0.156-0.927,0.351-1.357,0.588c-0.019,0.01-0.037,0.023-0.056,0.034   c-0.201,0.113-0.398,0.231-0.587,0.361c-0.099,0.067-0.191,0.143-0.287,0.215c-0.105,0.079-0.214,0.154-0.316,0.238   c-0.141,0.117-0.274,0.244-0.408,0.371c-0.051,0.049-0.106,0.093-0.155,0.143c-0.129,0.129-0.249,0.268-0.37,0.407   c-0.049,0.057-0.102,0.11-0.15,0.168c-0.095,0.116-0.182,0.24-0.271,0.363c-0.067,0.091-0.137,0.18-0.2,0.274   c-0.063,0.094-0.119,0.195-0.178,0.292c-0.08,0.132-0.162,0.263-0.234,0.4c-0.041,0.077-0.076,0.158-0.114,0.237   c-0.05,0.102-0.102,0.202-0.148,0.306c-0.551-3.761-0.896-7.218-0.896-9.961C56.336,293.948,60.423,283.817,71.941,283.817z    M191.954,474.487c0,0.218-0.814,1.144-2.444,1.144L18.443,475.65c-1.629,0-2.443-0.926-2.443-1.144v-8.633   c0-9.569,5.885-20.904,17.134-24.093l19.309-5.015c11.89,14.245,31.152,22.911,51.588,22.911c20.433,0,39.691-8.662,51.582-22.903   l19.209,4.989c11.247,3.19,17.132,14.525,17.132,24.093V474.487z" fill="#0DB5E6"/>
	<path d="M466.84,426.336c-0.049-0.014-0.098-0.027-0.147-0.04l-29.785-7.735c-2.521-0.743-4.514-2.047-4.946-2.73l-0.02-16.198   c0.024-0.029,0.05-0.056,0.074-0.085c10.214-12.208,15.839-28.025,15.839-44.539v-12.065c10.19-33.194,3.008-61.973-0.678-70.35   c-0.011-0.026-0.026-0.049-0.037-0.075c-0.074-0.165-0.157-0.324-0.242-0.482c-0.043-0.08-0.083-0.161-0.128-0.239   c-0.082-0.141-0.171-0.276-0.261-0.411c-0.059-0.089-0.116-0.18-0.179-0.267c-0.08-0.11-0.167-0.215-0.252-0.321   c-0.081-0.101-0.161-0.204-0.247-0.3c-0.076-0.085-0.157-0.165-0.236-0.246c-0.102-0.105-0.203-0.212-0.31-0.311   c-0.079-0.073-0.162-0.139-0.243-0.208c-0.114-0.097-0.226-0.195-0.344-0.285c-0.095-0.072-0.195-0.137-0.294-0.206   c-0.11-0.076-0.217-0.154-0.33-0.224c-0.125-0.078-0.255-0.146-0.384-0.217c-0.092-0.05-0.182-0.104-0.275-0.151   c-0.155-0.077-0.314-0.144-0.474-0.211c-0.074-0.031-0.145-0.065-0.22-0.094c-0.171-0.066-0.345-0.12-0.521-0.174   c-0.07-0.021-0.138-0.047-0.209-0.066c-0.166-0.046-0.336-0.082-0.506-0.117c-0.086-0.018-0.172-0.04-0.258-0.055   c-0.146-0.025-0.295-0.041-0.443-0.059c-0.117-0.014-0.233-0.03-0.351-0.039c-0.118-0.008-0.238-0.009-0.357-0.012   c-0.152-0.004-0.304-0.009-0.457-0.004c-0.093,0.003-0.186,0.012-0.279,0.018c-0.179,0.012-0.358,0.026-0.537,0.05   c-0.026,0.004-0.052,0.004-0.079,0.007c-7.702,1.099-17.098-1.149-27.046-3.531c-17.597-4.213-37.445-8.955-54.835,3.582   c-16.816,1.446-28.739,15.577-28.739,34.677c0,13.887,6.443,38.688,7.921,44.195v6.674c0,17.236,5.964,33.168,15.525,45.053   l-0.022,17.303c-0.431,0.683-2.424,1.987-4.945,2.729l-29.785,7.736c-0.049,0.013-0.098,0.026-0.147,0.04   c-18.962,5.313-28.883,23.902-28.883,39.519v8.633c0,9.453,8.273,17.144,18.444,17.144l171.067-0.019   c10.169,0,18.443-7.691,18.443-17.144v-8.633C495.724,450.237,485.802,431.648,466.84,426.336z M352.027,350.763   c0-7.943,3.361-19.558,5.874-26.907c36.21,0.831,63.533,9.526,73.955,13.384v4.432c0,0.024,0,0.049,0,0.073v13.265   c0,14.091-5.299,27-13.565,35.933c-0.02,0.02-0.038,0.041-0.058,0.061c-7.106,7.651-16.392,12.372-26.399,12.372   c-21.206,0-39.808-23.309-39.808-49.881V350.763z M367.53,415.968l0.004-3.422c7.393,4.355,15.653,6.829,24.3,6.829   c8.488,0,16.681-2.197,24.125-6.354l0.004,2.919c0,7.203,4.674,12.323,10.347,15.444c-8.907,7.734-21.333,12.292-34.51,12.292   c-13.19,0-25.629-4.569-34.539-12.318C362.9,428.232,367.53,423.13,367.53,415.968z M359.71,283.817   c0.037,0,0.072-0.005,0.109-0.005c0.226-0.003,0.452-0.012,0.677-0.034c0.088-0.009,0.174-0.025,0.262-0.037   c0.172-0.022,0.344-0.045,0.515-0.078c0.108-0.021,0.212-0.051,0.319-0.077c0.147-0.035,0.294-0.069,0.439-0.113   c0.116-0.035,0.229-0.079,0.343-0.119c0.131-0.046,0.263-0.09,0.393-0.144c0.122-0.051,0.24-0.11,0.359-0.166   c0.116-0.055,0.232-0.106,0.346-0.167c0.136-0.073,0.267-0.155,0.398-0.235c0.091-0.056,0.184-0.107,0.274-0.166   c0.169-0.113,0.331-0.236,0.49-0.361c0.045-0.035,0.093-0.065,0.138-0.102c11.76-9.608,27.022-5.955,43.18-2.085   c8.697,2.083,17.628,4.215,26.301,4.248c2.083,7.699,4.132,21.339,1.932,37.586c-13.015-4.74-43.54-13.976-83.854-13.976   c-0.024,0-0.047,0.003-0.071,0.004c-0.164,0.002-0.327,0.013-0.49,0.025c-0.108,0.007-0.216,0.011-0.323,0.023   c-0.126,0.014-0.25,0.037-0.374,0.057c-0.142,0.022-0.285,0.042-0.424,0.072c-0.07,0.015-0.138,0.036-0.208,0.053   c-0.188,0.046-0.375,0.092-0.558,0.151c-0.015,0.005-0.029,0.011-0.044,0.016c-0.476,0.156-0.934,0.353-1.366,0.592   c-0.015,0.008-0.029,0.019-0.044,0.027c-0.205,0.115-0.406,0.236-0.599,0.368c-0.097,0.066-0.189,0.141-0.283,0.212   c-0.107,0.08-0.217,0.156-0.319,0.241c-0.142,0.118-0.277,0.246-0.411,0.374c-0.05,0.047-0.103,0.091-0.152,0.14   c-0.13,0.13-0.252,0.271-0.373,0.411c-0.048,0.055-0.1,0.107-0.146,0.164c-0.097,0.118-0.185,0.244-0.275,0.368   c-0.065,0.089-0.134,0.176-0.195,0.268c-0.064,0.096-0.121,0.198-0.181,0.298c-0.079,0.13-0.159,0.26-0.231,0.395   c-0.041,0.078-0.077,0.16-0.115,0.24c-0.049,0.101-0.102,0.201-0.147,0.305c-0.551-3.762-0.896-7.219-0.896-9.962   C344.105,293.948,348.192,283.817,359.71,283.817z M479.724,474.487c0,0.218-0.814,1.144-2.444,1.144l-171.067,0.019   c-1.629,0-2.443-0.926-2.443-1.144v-8.633c0-9.568,5.885-20.903,17.132-24.093l19.311-5.015   c11.89,14.245,31.152,22.911,51.588,22.911c20.433,0,39.691-8.662,51.582-22.903l19.21,4.989   c11.248,3.19,17.132,14.524,17.132,24.093V474.487z" fill="#0DB5E6"/>
	<path d="M323.643,113.544c42.674,26.47,68.151,72.212,68.151,122.362c0,4.418,3.582,8,8,8s8-3.582,8-8   c0-27.704-7.2-55.004-20.821-78.947c-13.205-23.212-32.188-42.926-54.896-57.011c-3.755-2.33-8.687-1.172-11.015,2.582   C318.732,106.283,319.888,111.215,323.643,113.544z" fill="#0DB5E6"/>
	<path d="M96.037,243.906c4.418,0,8-3.582,8-8c0-50.153,25.48-95.898,68.159-122.366c3.755-2.329,4.911-7.26,2.583-11.015   c-2.329-3.755-7.26-4.912-11.015-2.583c-22.71,14.084-41.695,33.799-54.902,57.012c-13.624,23.945-20.824,51.246-20.824,78.952   C88.037,240.324,91.619,243.906,96.037,243.906z" fill="#0DB5E6"/>
	<path d="M319.121,370.332c-1.863-4.006-6.619-5.744-10.627-3.882c-19.033,8.848-39.415,13.334-60.578,13.334   c-21.168,0-41.554-4.488-60.59-13.34c-4.005-1.865-8.765-0.126-10.627,3.881c-1.863,4.006-0.125,8.764,3.881,10.627   c21.165,9.842,43.82,14.832,67.336,14.832c23.511,0,46.162-4.988,67.323-14.826C319.245,379.096,320.983,374.339,319.121,370.332z" fill="#0DB5E6"/>
</g>
<g>
</g>
<g>
</g>
<g>
</g>
<g>
</g>
<g>
</g>
<g>
</g>
<g>
</g>
<g>
</g>
<g>
</g>
<g>
</g>
<g>
</g>
<g>
</g>
<g>
</g>
<g>
</g>
<g>
</g>
</svg>
