<?xml version="1.0" encoding="utf-8"?>
<!-- Generator: Adobe Illustrator 19.0.1, SVG Export Plug-In . SVG Version: 6.00 Build 0)  -->
<svg version="1.1" id="Layer_1" xmlns="http://www.w3.org/2000/svg" xmlns:xlink="http://www.w3.org/1999/xlink" x="0px" y="0px"
	 viewBox="-164 42.3 512 512" style="enable-background:new -164 42.3 512 512;" xml:space="preserve">
<style type="text/css">
	.st0{fill:none;stroke:#0DB5E6;stroke-width:15;stroke-miterlimit:10;}
	.st1{fill:#0DB5E6;}
	.st2{fill:none;stroke:#0DB5E6;stroke-width:20;stroke-miterlimit:10;}
</style>
<path class="st0" d="M207.4,546.9H-50.8c-26.5,0-48.3-21.7-48.3-48.3V99.8c0-26.5,21.7-48.3,48.3-48.3h258.2
	c26.5,0,48.3,21.7,48.3,48.3v398.8C255.7,525.2,234,546.9,207.4,546.9z"/>
<path class="st1" d="M194.5,149.6H-37c-5.8,0-10.5-4.7-10.5-10.5v0c0-5.8,4.7-10.5,10.5-10.5h231.5c5.8,0,10.5,4.7,10.5,10.5v0
	C205,144.8,200.3,149.6,194.5,149.6z"/>
<path class="st1" d="M194.5,211.6H-37c-5.8,0-10.5-4.7-10.5-10.5v0c0-5.8,4.7-10.5,10.5-10.5h231.5c5.8,0,10.5,4.7,10.5,10.5v0
	C205,206.8,200.3,211.6,194.5,211.6z"/>
<path class="st1" d="M194.5,276.6H-37c-5.8,0-10.5-4.7-10.5-10.5l0,0c0-5.8,4.7-10.5,10.5-10.5h231.5c5.8,0,10.5,4.7,10.5,10.5l0,0
	C205,271.8,200.3,276.6,194.5,276.6z"/>
<path class="st1" d="M132,340.6H-37c-5.8,0-10.5-4.7-10.5-10.5l0,0c0-5.8,4.7-10.5,10.5-10.5h169c5.8,0,10.5,4.7,10.5,10.5l0,0
	C142.5,335.8,137.8,340.6,132,340.6z"/>
<circle class="st2" cx="164.5" cy="447.4" r="32.2"/>
</svg>
