<?xml version="1.0" encoding="iso-8859-1"?>
<!-- Generator: Adobe Illustrator 19.0.0, SVG Export Plug-In . SVG Version: 6.00 Build 0)  -->
<svg xmlns="http://www.w3.org/2000/svg" xmlns:xlink="http://www.w3.org/1999/xlink" version="1.1" id="Layer_1" x="0px" y="0px" viewBox="0 0 448.721 448.721" style="enable-background:new 0 0 448.721 448.721;" xml:space="preserve" width="512px" height="512px">
<g>
	<g>
		<path d="M396.123,340.947c-2.932-2.93-7.68-2.929-10.607,0l-26.794,26.794V261.398c0-4.142-3.357-7.5-7.5-7.5s-7.5,3.358-7.5,7.5    v106.344l-26.794-26.794c-2.929-2.928-7.677-2.929-10.607,0c-2.929,2.929-2.929,7.677,0,10.606l39.598,39.598    c1.407,1.406,3.314,2.197,5.304,2.197s3.896-0.79,5.304-2.197l39.598-39.598C399.051,348.625,399.051,343.876,396.123,340.947z" fill="#16b6e8"/>
	</g>
</g>
<g>
	<g>
		<path d="M422.264,256.921c3.747-10.417,5.646-21.337,5.646-32.535c0-22.035-7.638-43.571-21.507-60.641    c-12.393-15.253-29.267-26.402-47.999-31.823C356.248,74.03,308.479,27.596,250.07,27.596c-24.724,0-48.909,8.545-68.102,24.06    c-16.483,13.326-28.749,31.303-35.166,51.317c-8.633-3.449-17.903-5.247-27.252-5.247c-40.306,0-73.13,32.647-73.418,72.887    C18.328,183.218,0,211.302,0,242.136c0,43.28,35.21,78.49,78.49,78.49h135.738c4.142,0,7.5-3.358,7.5-7.5    c0-4.142-3.358-7.5-7.5-7.5H78.49c-35.008,0-63.49-28.481-63.49-63.49c0-26.424,16.637-50.35,41.399-59.538    c3.117-1.156,5.101-4.228,4.874-7.544c-0.095-1.38-0.143-2.695-0.143-3.907c0-32.213,26.207-58.42,58.42-58.42    c9.958,0,19.798,2.561,28.458,7.406c2.064,1.155,4.552,1.268,6.712,0.306c2.16-0.962,3.741-2.886,4.264-5.193    c4.604-20.308,16.116-38.748,32.415-51.924c16.532-13.365,37.368-20.725,58.671-20.725c51.506,0,93.41,41.904,93.41,93.41    c0,0.33-0.008,0.659-0.016,0.991l-0.013,0.629c-0.062,3.566,2.396,6.682,5.877,7.453c17.757,3.932,33.892,13.921,45.434,28.126    c11.703,14.404,18.148,32.581,18.148,51.182c0,7.345-0.988,14.54-2.9,21.508c-16.356-12.401-36.727-19.771-58.789-19.771    c-53.762,0-97.5,43.738-97.5,97.5c0,53.762,43.738,97.5,97.5,97.5c53.762,0,97.5-43.738,97.5-97.5    C448.721,297.844,438.66,274.374,422.264,256.921z M351.221,406.123c-45.491,0-82.5-37.009-82.5-82.5    c0-45.491,37.009-82.5,82.5-82.5c45.491,0,82.5,37.009,82.5,82.5C433.721,369.114,396.712,406.123,351.221,406.123z" fill="#16b6e8"/>
	</g>
</g>
<g>
	<g>
		<g>
			<path d="M241.773,306.889C242.184,307.159,241.364,306.619,241.773,306.889L241.773,306.889z" fill="#16b6e8"/>
			<path d="M241.773,306.889c-2.673-1.762-6.246-1.647-8.777,0.325c-2.407,1.876-3.458,5.165-2.562,8.087     c0.939,3.063,3.787,5.242,6.994,5.323c3.064,0.077,5.93-1.803,7.104-4.625C245.888,312.743,244.728,308.834,241.773,306.889z" fill="#16b6e8"/>
		</g>
	</g>
</g>
<g>
</g>
<g>
</g>
<g>
</g>
<g>
</g>
<g>
</g>
<g>
</g>
<g>
</g>
<g>
</g>
<g>
</g>
<g>
</g>
<g>
</g>
<g>
</g>
<g>
</g>
<g>
</g>
<g>
</g>
</svg>
