<?xml version="1.0" encoding="UTF-8"?>
<!DOCTYPE svg PUBLIC "-//W3C//DTD SVG 1.1//EN" "http://www.w3.org/Graphics/SVG/1.1/DTD/svg11.dtd">
<!-- Creator: CorelDRAW X7 -->
<svg xmlns="http://www.w3.org/2000/svg" xml:space="preserve" width="1173px" height="1173px" version="1.1" style="shape-rendering:geometricPrecision; text-rendering:geometricPrecision; image-rendering:optimizeQuality; fill-rule:evenodd; clip-rule:evenodd"
viewBox="0 0 64975 64975"
 xmlns:xlink="http://www.w3.org/1999/xlink">
 <defs>
  <style type="text/css">
   <![CDATA[
    .fil0 {fill:#16B6E8}
   ]]>
  </style>
 </defs>
 <g id="Слой_x0020_1">
  <metadata id="CorelCorpID_0Corel-Layer"/>
  <g id="_975592768">
   <path class="fil0" d="M61726 0l-58477 0c-1841,0 -3249,1408 -3249,3249l0 40068 0 9746c0,650 433,1083 1083,1083l21658 0 0 8663 -3248 0 0 2166 3248 0 2166 0 15161 0 2166 0 3249 0 0 -2166 -3249 0 0 -8663 21658 0c650,0 1083,-433 1083,-1083l0 -9746 0 -40068c0,-1841 -1408,-3249 -3249,-3249zm-59560 3249c0,-650 433,-1083 1083,-1083l58477 0c650,0 1083,433 1083,1083l0 38985 -3248 0 0 -35737c0,-649 -434,-1082 -1083,-1082l-51981 0c-649,0 -1082,433 -1082,1082l0 35737 -3249 0 0 -38985zm11912 15161l8663 0 0 -2166 -8663 0 0 -2166 21658 0 0 2166 0 4331 -21658 0 0 -2165zm28156 9746l0 -2166c0,-2382 -1949,-4332 -4332,-4332l0 -4331 12995 0 0 19492 -12995 0 0 -4331c2383,0 4332,-1950 4332,-4332zm-4332 2166l0 -6498c1191,0 2166,975 2166,2166l0 2166c0,1191 -975,2166 -2166,2166zm-23824 -7581l21658 0 0 15161 0 4332 -21658 0 0 -19493zm23824 16244l14078 0c650,0 1083,-433 1083,-1083l0 -21658c0,-650 -433,-1083 -1083,-1083l-14078 0 0 -2166c0,-650 -433,-1083 -1083,-1083l-23824 0c-650,0 -1083,433 -1083,1083l0 29239 -4332 0 0 -34654 49815 0 0 34654 -19493 0 0 -3249zm2166 23824l-15161 0 0 -8663 15161 0 0 8663zm22741 -10829l-21658 0 -17327 0 -21658 0 0 -7580 4331 0 6498 0 23824 0 21659 0 4331 0 0 7580z"/>
   <rect class="fil0" x="17327" y="24907" width="2166" height="2166"/>
   <rect class="fil0" x="21658" y="24907" width="2166" height="2166"/>
   <rect class="fil0" x="25990" y="24907" width="2166" height="2166"/>
   <rect class="fil0" x="30322" y="24907" width="2166" height="2166"/>
   <rect class="fil0" x="17327" y="29239" width="2166" height="2166"/>
   <rect class="fil0" x="21658" y="29239" width="2166" height="2166"/>
   <rect class="fil0" x="25990" y="29239" width="2166" height="2166"/>
   <rect class="fil0" x="30322" y="29239" width="2166" height="2166"/>
   <rect class="fil0" x="17327" y="33570" width="2166" height="2166"/>
   <rect class="fil0" x="21658" y="33570" width="2166" height="2166"/>
   <rect class="fil0" x="25990" y="33570" width="2166" height="2166"/>
   <rect class="fil0" x="30322" y="33570" width="2166" height="2166"/>
   <rect class="fil0" x="17327" y="37902" width="2166" height="2166"/>
   <rect class="fil0" x="21658" y="37902" width="2166" height="2166"/>
   <rect class="fil0" x="25990" y="37902" width="2166" height="2166"/>
   <rect class="fil0" x="30322" y="37902" width="2166" height="2166"/>
   <rect class="fil0" x="24907" y="16244" width="4332" height="2166"/>
   <path class="fil0" d="M46566 23824l2165 0 0 -3249c0,-649 -433,-1082 -1083,-1082l-3248 0 0 2165 2166 0 0 2166z"/>
   <path class="fil0" d="M48731 33570l0 -3248 -2165 0 0 2166 -2166 0 0 2165 3248 0c650,0 1083,-433 1083,-1083z"/>
  </g>
 </g>
</svg>
