<?xml version="1.0" encoding="UTF-8"?>
<!DOCTYPE svg PUBLIC "-//W3C//DTD SVG 1.1//EN" "http://www.w3.org/Graphics/SVG/1.1/DTD/svg11.dtd">
<!-- Creator: CorelDRAW X8 -->
<svg xmlns="http://www.w3.org/2000/svg" xml:space="preserve" width="823px" height="796px" version="1.1" style="shape-rendering:geometricPrecision; text-rendering:geometricPrecision; image-rendering:optimizeQuality; fill-rule:evenodd; clip-rule:evenodd"
viewBox="0 0 172399 166781"
 xmlns:xlink="http://www.w3.org/1999/xlink">
 <defs>
  <style type="text/css">
   <![CDATA[
    .fil0 {fill:#16B6E8}
   ]]>
  </style>
 </defs>
 <g id="Слой_x0020_1">
  <metadata id="CorelCorpID_0Corel-Layer"/>
  <g id="_895340448">
   <path class="fil0" d="M171187 148503l-13167 -11412c-1465,-1269 -3683,-1111 -4953,354 -1270,1466 -1111,3683 354,4953l6054 5247 -16395 0 0 -703c0,-1939 -1572,-3511 -3511,-3511 -1939,0 -3511,1572 -3511,3511l0 703 -17556 0 0 -703c0,-1939 -1573,-3511 -3512,-3511 -1938,0 -3511,1572 -3511,3511l0 703 -17555 0 0 -703c0,-1939 -1573,-3511 -3512,-3511 -1939,0 -3511,1572 -3511,3511l0 703 -17556 0 0 -703c0,-1939 -1572,-3511 -3511,-3511 -1939,0 -3511,1572 -3511,3511l0 703 -17556 0 0 -703c0,-1939 -1572,-3511 -3511,-3511 -1939,0 -3511,1572 -3511,3511l0 703 -17556 0 0 -32990 21531 -19891 20604 12166 0 7710c0,1939 1572,3511 3511,3511 1939,0 3511,-1572 3511,-3511l0 -8704 22474 -35778 21850 8878c1787,726 3823,-125 4563,-1905l17825 -42864 0 7341c0,1939 1573,3511 3511,3511 1939,0 3512,-1572 3512,-3511l0 -16413 11670 11748c1368,1375 3591,1382 4966,16 1376,-1367 1383,-3590 17,-4966l-17674 -17790c-827,-832 -2015,-1197 -3167,-970 -1152,226 -2115,1013 -2566,2097l-23240 55889 -21352 -8676c-1579,-641 -3389,-57 -4295,1386l-22761 36237 -21637 -12777c-1335,-788 -3029,-608 -4168,445l-18685 17260 0 -11170 703 0c1938,0 3511,-1572 3511,-3511 0,-1940 -1573,-3512 -3511,-3512l-703 0 0 -17556 703 0c1938,0 3511,-1572 3511,-3511 0,-1940 -1573,-3511 -3511,-3511l-703 0 0 -17556 703 0c1938,0 3511,-1572 3511,-3511 0,-1940 -1573,-3512 -3511,-3512l-703 0 0 -24821 5247 6054c695,802 1672,1212 2654,1212 815,0 1634,-282 2299,-857 1465,-1271 1624,-3488 354,-4953l-11412 -13167c-159,-183 -282,-305 -381,-375 -304,-259 -655,-470 -1044,-615 -1374,-512 -2921,-118 -3881,990l-11412 13167c-1270,1465 -1111,3682 354,4953 1466,1269 3682,1111 4953,-354l5247 -6054 0 134721 -9656 0c-1939,0 -3511,1572 -3511,3511 0,1940 1572,3512 3511,3512l9656 0 0 8602c0,1939 1572,3511 3511,3511 1939,0 3511,-1571 3511,-3511l0 -8602 139286 0 -6053 5246c-1466,1270 -1624,3488 -354,4953 694,802 1672,1212 2655,1212 814,0 1633,-282 2297,-857l13168 -11412c194,-168 326,-306 410,-423 243,-296 441,-631 580,-1003 511,-1374 117,-2921 -991,-3881z"/>
   <path class="fil0" d="M65834 125174c-1938,0 -3511,1571 -3511,3511l0 4213c0,1939 1573,3512 3511,3512 1939,0 3512,-1572 3512,-3512l0 -4213c0,-1940 -1572,-3511 -3512,-3511z"/>
   <path class="fil0" d="M44767 110427c0,-1940 -1572,-3512 -3511,-3512 -1939,0 -3511,1572 -3511,3512l0 4213c0,1939 1572,3511 3511,3511 1939,0 3511,-1572 3511,-3511l0 -4213z"/>
   <path class="fil0" d="M41256 125174c-1939,0 -3511,1571 -3511,3511l0 4213c0,1939 1572,3512 3511,3512 1939,0 3511,-1572 3511,-3512l0 -4213c0,-1940 -1572,-3511 -3511,-3511z"/>
   <path class="fil0" d="M93924 110427c0,-1940 -1572,-3512 -3511,-3512 -1939,0 -3512,1572 -3512,3512l0 4213c0,1939 1573,3511 3512,3511 1939,0 3511,-1572 3511,-3511l0 -4213z"/>
   <path class="fil0" d="M93924 92169c0,-1940 -1572,-3512 -3511,-3512 -1939,0 -3512,1572 -3512,3512l0 4213c0,1939 1573,3511 3512,3511 1939,0 3511,-1572 3511,-3511l0 -4213z"/>
   <path class="fil0" d="M90413 125174c-1939,0 -3512,1571 -3512,3511l0 4213c0,1939 1573,3512 3512,3512 1939,0 3511,-1572 3511,-3512l0 -4213c0,-1940 -1572,-3511 -3511,-3511z"/>
   <path class="fil0" d="M118502 110427c0,-1940 -1572,-3512 -3511,-3512 -1939,0 -3511,1572 -3511,3512l0 4213c0,1939 1572,3511 3511,3511 1939,0 3511,-1572 3511,-3511l0 -4213z"/>
   <path class="fil0" d="M118502 92169c0,-1940 -1572,-3512 -3511,-3512 -1939,0 -3511,1572 -3511,3512l0 4213c0,1939 1572,3511 3511,3511 1939,0 3511,-1572 3511,-3511l0 -4213z"/>
   <path class="fil0" d="M114991 125174c-1939,0 -3511,1571 -3511,3511l0 4213c0,1939 1572,3512 3511,3512 1939,0 3511,-1572 3511,-3512l0 -4213c0,-1940 -1572,-3511 -3511,-3511z"/>
   <path class="fil0" d="M143080 110427c0,-1940 -1572,-3512 -3511,-3512 -1939,0 -3511,1572 -3511,3512l0 4213c0,1939 1572,3511 3511,3511 1939,0 3511,-1572 3511,-3511l0 -4213z"/>
   <path class="fil0" d="M139569 125174c-1939,0 -3511,1571 -3511,3511l0 4213c0,1939 1572,3512 3511,3512 1939,0 3511,-1572 3511,-3512l0 -4213c0,-1940 -1572,-3511 -3511,-3511z"/>
   <path class="fil0" d="M143080 92169c0,-1940 -1572,-3512 -3511,-3512 -1939,0 -3511,1572 -3511,3512l0 4213c0,1939 1572,3511 3511,3511 1939,0 3511,-1572 3511,-3511l0 -4213z"/>
   <path class="fil0" d="M143080 73910c0,-1939 -1572,-3511 -3511,-3511 -1939,0 -3511,1572 -3511,3511l0 4214c0,1939 1572,3511 3511,3511 1939,0 3511,-1572 3511,-3511l0 -4214z"/>
   <path class="fil0" d="M143080 55652c0,-1939 -1572,-3511 -3511,-3511 -1939,0 -3511,1572 -3511,3511l0 4214c0,1939 1572,3511 3511,3511 1939,0 3511,-1572 3511,-3511l0 -4214z"/>
   <path class="fil0" d="M89711 44767l4213 0c1939,0 3511,-1571 3511,-3511 0,-1939 -1572,-3511 -3511,-3511l-4213 0c-1939,0 -3512,1572 -3512,3511 0,1940 1573,3511 3512,3511z"/>
   <path class="fil0" d="M107969 44767l4213 0c1939,0 3511,-1571 3511,-3511 0,-1939 -1572,-3511 -3511,-3511l-4213 0c-1939,0 -3512,1572 -3512,3511 0,1940 1573,3511 3512,3511z"/>
   <path class="fil0" d="M71453 44767l4213 0c1939,0 3511,-1571 3511,-3511 0,-1939 -1572,-3511 -3511,-3511l-4213 0c-1939,0 -3512,1572 -3512,3511 0,1940 1572,3511 3512,3511z"/>
   <path class="fil0" d="M34936 44767l4214 0c1938,0 3511,-1571 3511,-3511 0,-1939 -1573,-3511 -3511,-3511l-4214 0c-1939,0 -3511,1572 -3511,3511 0,1940 1572,3511 3511,3511z"/>
   <path class="fil0" d="M53194 44767l4214 0c1938,0 3511,-1571 3511,-3511 0,-1939 -1573,-3511 -3511,-3511l-4214 0c-1939,0 -3511,1572 -3511,3511 0,1940 1572,3511 3511,3511z"/>
   <path class="fil0" d="M107969 20189l4213 0c1939,0 3511,-1572 3511,-3511 0,-1939 -1572,-3511 -3511,-3511l-4213 0c-1939,0 -3512,1572 -3512,3511 0,1939 1573,3511 3512,3511z"/>
   <path class="fil0" d="M126227 20189l4213 0c1939,0 3511,-1572 3511,-3511 0,-1939 -1572,-3511 -3511,-3511l-4213 0c-1939,0 -3512,1572 -3512,3511 0,1939 1573,3511 3512,3511z"/>
   <path class="fil0" d="M89711 20189l4213 0c1939,0 3511,-1572 3511,-3511 0,-1939 -1572,-3511 -3511,-3511l-4213 0c-1939,0 -3512,1572 -3512,3511 0,1939 1573,3511 3512,3511z"/>
   <path class="fil0" d="M71453 20189l4213 0c1939,0 3511,-1572 3511,-3511 0,-1939 -1572,-3511 -3511,-3511l-4213 0c-1939,0 -3512,1572 -3512,3511 0,1939 1572,3511 3512,3511z"/>
   <path class="fil0" d="M53194 20189l4214 0c1938,0 3511,-1572 3511,-3511 0,-1939 -1573,-3511 -3511,-3511l-4214 0c-1939,0 -3511,1572 -3511,3511 0,1939 1572,3511 3511,3511z"/>
   <path class="fil0" d="M71453 69346l4213 0c1939,0 3511,-1572 3511,-3511 0,-1940 -1572,-3512 -3511,-3512l-4213 0c-1939,0 -3512,1572 -3512,3512 0,1939 1572,3511 3512,3511z"/>
   <path class="fil0" d="M39150 62324l-4214 0c-1939,0 -3511,1571 -3511,3511 0,1939 1572,3511 3511,3511l4214 0c1938,0 3511,-1572 3511,-3511 0,-1940 -1573,-3511 -3511,-3511z"/>
   <path class="fil0" d="M53194 69346l4214 0c1938,0 3511,-1572 3511,-3511 0,-1940 -1573,-3512 -3511,-3512l-4214 0c-1939,0 -3511,1572 -3511,3512 0,1939 1572,3511 3511,3511z"/>
  </g>
 </g>
</svg>
