<?xml version="1.0" encoding="UTF-8"?>
<!DOCTYPE svg PUBLIC "-//W3C//DTD SVG 1.0//EN" "http://www.w3.org/TR/2001/REC-SVG-20010904/DTD/svg10.dtd">
<!-- Creator: CorelDRAW X7 -->
<svg xmlns="http://www.w3.org/2000/svg" xml:space="preserve" width="36.336mm" height="21.8722mm" version="1.0" shape-rendering="geometricPrecision" text-rendering="geometricPrecision" image-rendering="optimizeQuality" fill-rule="evenodd" clip-rule="evenodd"
viewBox="0 0 3634 2187"
 xmlns:xlink="http://www.w3.org/1999/xlink">
 <g id="Слой_x0020_1">
  <metadata id="CorelCorpID_0Corel-Layer"/>
  <path fill="black" fill-rule="nonzero" d="M3076 230l-2540 0c-47,0 -84,36 -84,80l0 1480c0,44 37,80 84,80l2540 0c47,0 85,-36 85,-80l0 -1480c0,-44 -38,-80 -85,-80zm57 1560c0,30 -26,53 -57,53l-2540 0c-31,0 -56,-23 -56,-53l0 -1480c0,-30 25,-53 56,-53l2540 0c31,0 57,23 57,53l0 1480z"/>
  <path fill="none" stroke="black" stroke-width="30" d="M2043 1997c0,12 -5,56 -53,56 -48,0 -337,0 -343,0 -5,0 -56,-4 -56,-56"/>
  <circle fill="none" stroke="black" stroke-width="10" cx="1805" cy="164" r="50"/>
  <circle fill="none" stroke="black" stroke-width="10" cx="1805" cy="164" r="25"/>
  <path fill="none" stroke="black" stroke-width="30" d="M2030 2110c1482,0 1429,0 1483,0 55,0 57,-57 57,-57l0 -56 -1527 0 -1976 0 0 56c0,0 2,57 56,57 55,0 425,0 1907,0zm-1662 -120l0 -1799c0,0 -3,-113 129,-113 133,0 2601,0 2601,0 0,0 160,-33 160,134 0,167 0,1778 0,1778"/>
 </g>
</svg>
