<?xml version="1.0" encoding="UTF-8"?>
<!DOCTYPE svg PUBLIC "-//W3C//DTD SVG 1.1//EN" "http://www.w3.org/Graphics/SVG/1.1/DTD/svg11.dtd">
<!-- Creator: CorelDRAW X8 -->
<svg xmlns="http://www.w3.org/2000/svg" xml:space="preserve" width="2088px" height="1220px" version="1.1" style="shape-rendering:geometricPrecision; text-rendering:geometricPrecision; image-rendering:optimizeQuality; fill-rule:evenodd; clip-rule:evenodd"
viewBox="0 0 66253 38719"
 xmlns:xlink="http://www.w3.org/1999/xlink">
 <defs>
  <style type="text/css">
   <![CDATA[
    .fil0 {fill:white;fill-rule:nonzero}
   ]]>
  </style>
 </defs>
 <g id="Слой_x0020_1">
  <metadata id="CorelCorpID_0Corel-Layer"/>
  <g id="_1032609008">
   <path class="fil0" d="M56708 3182l-47632 0c-881,0 -1575,676 -1575,1501l0 27754c0,825 694,1500 1575,1500l47632 0c881,0 1594,-675 1594,-1500l0 -27754c0,-826 -713,-1501 -1594,-1501zm1069 29254c0,563 -488,994 -1069,994l-47632 0c-581,0 -1050,-431 -1050,-994l0 -27754c0,-562 469,-993 1050,-993l47632 0c582,0 1069,431 1069,993l0 27754z"/>
   <g>
    <path class="fil0" d="M37618 36318c0,173 -47,637 -363,970 -196,208 -486,362 -912,362l-6432 0c-77,0 -612,-40 -976,-405l0 -1c-203,-203 -356,-498 -356,-926l563 0c0,254 81,421 190,530l0 0c216,216 533,239 579,239l6432 0c248,0 406,-78 506,-183 180,-190 206,-477 206,-586l563 0z"/>
    <path class="fil0" d="M33670 1945c0,-221 -89,-420 -233,-564 -144,-144 -343,-233 -564,-233 -220,0 -419,89 -563,233 -145,144 -234,343 -234,564 0,220 89,419 233,563 144,144 344,234 564,234 221,0 420,-90 564,-234 144,-144 233,-343 233,-563zm-34 -762c195,195 315,464 315,762 0,297 -120,566 -315,761l-1 1c-195,195 -464,316 -762,316 -297,0 -567,-121 -762,-316l0 -1c-195,-195 -316,-464 -316,-761 0,-298 121,-568 316,-763 195,-195 465,-316 762,-316 298,0 567,121 762,316l1 1z"/>
    <path class="fil0" d="M33201 1945c0,-91 -36,-173 -96,-233 -59,-59 -141,-96 -232,-96 -90,0 -173,37 -232,96 -59,60 -96,142 -96,233 0,90 37,172 96,232 59,59 142,96 232,96 91,0 173,-37 232,-96 60,-60 96,-142 96,-232zm103 -431c110,111 178,263 178,431 0,168 -68,320 -178,430 -110,111 -263,179 -431,179 -168,0 -320,-68 -431,-179 -110,-110 -178,-262 -178,-430 0,-168 68,-320 178,-431l0 0c111,-110 263,-179 431,-179 168,0 321,69 431,179l0 0z"/>
    <path class="fil0" d="M37093 38156l27810 0c704,0 781,-684 788,-787l0 -769 -65129 0 0 769c7,103 83,787 769,787l35762 0zm27810 563l-63572 0c-1283,0 -1330,-1333 -1330,-1337l-1 -13 0 -1332 5644 0 0 -33586 1 0c-1,-95 -10,-2400 2700,-2400l48751 0c326,-58 3306,-498 3306,2794l0 33192 5851 0 0 1332 -1 13c0,4 -47,1337 -1349,1337zm-27567 -2682l22504 0 0 -33192c0,-2787 -2658,-2239 -2666,-2238l-28 6 -48801 0c-2189,0 -2139,1829 -2139,1835l1 3 0 33586 31129 0z"/>
   </g>
  </g>
 </g>
</svg>
