<?xml version="1.0" encoding="UTF-8"?>
<!DOCTYPE svg PUBLIC "-//W3C//DTD SVG 1.1//EN" "http://www.w3.org/Graphics/SVG/1.1/DTD/svg11.dtd">
<!-- Creator: CorelDRAW X7 -->
<svg xmlns="http://www.w3.org/2000/svg" xml:space="preserve" width="2803px" height="1871px" version="1.1" style="shape-rendering:geometricPrecision; text-rendering:geometricPrecision; image-rendering:optimizeQuality; fill-rule:evenodd; clip-rule:evenodd"
viewBox="0 0 85904 57329"
 xmlns:xlink="http://www.w3.org/1999/xlink">
 <defs>
  <style type="text/css">
   <![CDATA[
    .fil12 {fill:#FEFEFE}
    .fil2 {fill:#FEFEFE;fill-rule:nonzero}
    .fil3 {fill:#FEFEFE;fill-rule:nonzero}
    .fil11 {fill:#FEFEFE;fill-rule:nonzero}
    .fil0 {fill:#D9DADA;fill-rule:nonzero}
    .fil7 {fill:#C5C6C6;fill-rule:nonzero}
    .fil4 {fill:#9D9E9E;fill-rule:nonzero}
    .fil10 {fill:#F6E831;fill-rule:nonzero}
    .fil5 {fill:#E4E4E5;fill-rule:nonzero}
    .fil6 {fill:#E0DFE6;fill-rule:nonzero}
    .fil8 {fill:#008DD2;fill-rule:nonzero}
    .fil9 {fill:#16B6E8;fill-rule:nonzero}
    .fil1 {fill:#E5E4E5;fill-rule:nonzero}
   ]]>
  </style>
    <clipPath id="id0" style="clip-rule:nonzero">
     <path d="M30069 51777c-1600,0 -3225,-349 -4443,-1049 1218,700 2843,1049 4443,1049 1267,0 2533,-221 3632,-657 -1099,436 -2365,657 -3632,657zm-28192 -14748c0,0 0,0 0,-9 0,9 0,9 0,9zm0 -9c0,0 0,0 0,0 0,0 0,0 0,0zm0 0c0,0 0,0 0,-8 0,8 0,8 0,8zm-24 -8c0,0 0,0 0,0 0,0 0,0 0,0zm0 0c0,0 0,0 0,-9 0,9 0,9 0,9zm0 -9c0,0 0,0 0,0 0,0 0,0 0,0zm0 0c-24,0 -24,0 -24,-8 0,8 0,8 24,8zm-24 -8c0,0 0,0 0,0 0,0 0,0 0,0zm0 0c0,0 0,0 0,-9 0,9 0,9 0,9zm0 -9c0,0 -23,0 -23,0 0,0 23,0 23,0zm-23 0c0,0 0,0 0,-8 0,8 0,8 0,8zm0 -8c0,0 0,0 0,0 0,0 0,0 0,0zm0 0c0,0 0,0 -24,-9 24,9 24,9 24,9zm-24 -9c0,0 0,0 0,0 0,0 0,0 0,0zm0 0c0,0 0,0 0,-8 0,8 0,8 0,8zm0 -8c0,0 0,0 0,0 0,0 0,0 0,0zm0 0c-24,0 -24,0 -24,-9 0,9 0,9 24,9zm-24 -9c0,0 0,0 0,0 0,0 0,0 0,0zm0 0c0,0 0,0 0,-8 0,8 0,8 0,8zm0 -8c0,0 -24,0 -24,0 0,0 24,0 24,0zm-24 0c0,0 0,0 0,-9 0,9 0,9 0,9zm0 -9c0,0 0,0 0,0 0,0 0,0 0,0zm0 0c0,0 0,0 0,-8 0,8 0,8 0,8zm-24 -8c0,0 0,0 0,0 0,0 0,0 0,0zm0 0c0,0 0,0 0,-9 0,0 0,9 0,9zm0 -9c0,0 0,0 0,0 0,0 0,0 0,0zm0 0c-24,0 -24,-9 -24,-9 0,0 0,9 24,9zm-24 -9c0,0 0,0 0,0 0,0 0,0 0,0zm0 0c0,0 0,-8 0,-8 0,0 0,8 0,8zm0 -8c0,0 0,0 0,0 0,0 0,0 0,0zm-24 0c0,0 0,-9 0,-9 0,0 0,9 0,9zm0 -9c0,0 0,0 0,0 0,0 0,0 0,0zm0 0c0,0 0,-8 0,-8 0,0 0,8 0,8zm0 -8c0,0 -24,0 -24,0 0,0 24,0 24,0zm-24 0c0,0 0,-9 0,-9 0,0 0,9 0,9zm0 -9c0,0 0,0 0,0 0,0 0,0 0,0zm0 0c0,-8 0,-8 -24,-8 24,0 24,0 24,8zm-24 -8c0,0 0,0 0,0 0,0 0,0 0,0zm0 0c0,-9 0,-9 0,-9 0,0 0,0 0,9zm0 -9c0,0 0,0 0,0 0,0 0,0 0,0zm0 0c0,-8 -23,-8 -23,-8 0,0 23,0 23,8zm-23 -8c0,0 0,0 0,0 0,0 0,0 0,0zm0 -9c0,0 0,0 0,0 0,0 0,0 0,0zm0 0c0,0 0,0 0,0 0,0 0,0 0,0zm-24 -8c0,0 0,0 0,0 0,0 0,0 0,0zm0 0c0,0 0,0 0,0 0,0 0,0 0,0zm0 -9c0,0 0,0 0,0 0,0 0,0 0,0zm0 0c0,0 -24,0 -24,0 0,0 24,0 24,0zm-24 -8c0,0 0,0 0,0 0,0 0,0 0,0zm0 0c0,0 0,0 0,-9 0,9 0,9 0,9zm0 -9c0,0 0,0 0,0 0,0 0,0 0,0zm0 0c-24,0 -24,0 -24,-8 0,8 0,8 24,8zm-24 -8c0,0 0,0 0,0 0,0 0,0 0,0zm0 0c0,0 0,-9 0,-9 0,0 0,9 0,9zm0 -9c0,0 0,0 -24,0 24,0 24,0 24,0zm-24 0c0,0 0,-9 0,-9 0,0 0,9 0,9zm0 -9c0,0 0,0 0,0 0,0 0,0 0,0zm0 0c0,0 0,-8 0,-8 0,0 0,8 0,8zm0 -8c0,0 -24,0 -24,0 0,0 24,0 24,0zm-24 0c0,-9 0,-9 0,-9 0,0 0,0 0,9zm0 -9c0,0 0,0 0,0 0,0 0,0 0,0zm0 0c0,-8 0,-8 0,-8 0,0 0,0 0,8zm0 -8c-24,0 -24,0 -24,0 0,0 0,0 24,0zm-24 0c0,-9 0,-9 0,-9 0,0 0,0 0,9zm0 -9c0,0 0,0 0,-8 0,8 0,8 0,8zm0 -8c0,0 0,0 -24,0 24,0 24,0 24,0zm-24 0c0,0 0,0 0,-9 0,9 0,9 0,9zm0 -9c0,0 0,0 0,0 0,0 0,0 0,0zm0 0c0,0 0,0 0,-8 0,8 0,8 0,8zm0 -8c0,0 -24,0 -24,0 0,0 24,0 24,0zm-24 0c0,0 0,-9 0,-9 0,0 0,9 0,9zm0 -9c0,0 0,0 0,0 0,0 0,0 0,0zm0 0c0,0 0,-8 0,-8 0,0 0,8 0,8zm0 -8c0,0 -24,0 -24,0 0,0 24,0 24,0zm-24 0c0,-9 0,-9 0,-9 0,0 0,0 0,9zm0 -9c0,0 0,0 0,0 0,0 0,0 0,0zm0 0c0,-8 0,-8 0,-8 0,0 0,0 0,8zm0 -8c-23,0 -23,0 -23,0 0,0 0,0 23,0zm-23 -9c0,0 0,0 0,0 0,0 0,0 0,0zm0 0c0,0 0,0 0,-8 0,8 0,8 0,8zm0 -8c0,0 -24,-9 -24,-9 0,0 24,9 24,9zm-24 -9c0,0 0,-9 0,-9 0,0 0,9 0,9zm0 -9c-884,-657 -1314,-1442 -1314,-2236l0 -8c0,793 430,1587 1314,2244zm82736 -14731c0,0 0,0 0,0 0,0 0,0 0,0zm24 -9c0,0 0,0 0,0 0,0 0,0 0,0zm24 -8c0,0 0,0 0,0 0,0 0,0 0,0l0 0z"/>
    </clipPath>
    <clipPath id="id1" style="clip-rule:nonzero">
     <path d="M61100 22783l0 18 -280 163 0 0 0 -3 275 -160 0 -15 5 -3zm-8037 4676l0 0 1809 -1050 3 0 -1812 1050zm5479 -3176l-2 -1 2177 -1262 5 0 -2180 1263z"/>
    </clipPath>
    <clipPath id="id2" style="clip-rule:nonzero">
     <path d="M54874 26410l-2 -1 3668 -2127 2 1 -3668 2127 0 0z"/>
    </clipPath>
 </defs>
 <g id="Слой_x0020_1">
  <metadata id="CorelCorpID_0Corel-Layer"/>
  <g id="_971354992">
   <path class="fil0" d="M84058 22834l-49508 28772c-2472,1436 -6494,1436 -8982,0l-23681 -13672c-1251,-723 -1877,-1672 -1874,-2620l-13 4647c-3,947 623,1896 1874,2619l23681 13672c2487,1436 6510,1436 8982,0l49508 -28771c1229,-714 1843,-1648 1846,-2583l13 -4647c-3,935 -617,1869 -1846,2583z"/>
   <path class="fil1" d="M84058 21929l-49508 28772c-2472,1436 -6494,1436 -8982,0l-23681 -13672c-1251,-723 -1877,-1672 -1874,-2620l-13 4647c-3,947 623,1896 1874,2619l23681 13672c2487,1436 6510,1436 8982,0l49508 -28771c1229,-714 1843,-1648 1846,-2583l13 -4647c-3,936 -617,1869 -1846,2583z"/>
   <path class="fil0" d="M84029 16727c2488,1436 2502,3765 29,5202l-49508 28772c-2472,1436 -6494,1436 -8982,0l-23681 -13672c-2487,-1437 -2500,-3767 -29,-5203l49509 -28771c2473,-1437 6494,-1436 8981,0l23681 13672z"/>
   <path class="fil2" d="M82643 16906c2374,1371 2388,3593 28,4965l-47983 27882c-2358,1370 -6197,1370 -8571,0l-22597 -13047c-2373,-1370 -2386,-3593 -28,-4964l47984 -27882c2360,-1371 6196,-1370 8570,0l22597 13046z"/>
   <g style="clip-path:url(#id0)">
    <image x="-106" y="21785" width="84290" height="30111" xlink:href="phone_Images\phone_ImgID1.png"/>
   </g>
   <polygon class="fil1" points="81058,22034 37315,47406 7488,30186 51231,4813 "/>
   <path class="fil3" d="M79894 26909c3,562 -394,1252 -887,1534l-7715 4454c-362,208 -672,143 -815,-131 -51,-99 -79,-225 -79,-373 0,-567 396,-1257 889,-1539l7715 -4457c122,-72 242,-109 347,-117 320,-29 545,205 545,629z"/>
   <path class="fil4" d="M79432 26659c0,564 -393,1251 -886,1536l-7715 4454c-126,72 -245,112 -354,117 -51,-99 -79,-225 -79,-373 0,-567 396,-1257 889,-1539l7715 -4457c122,-72 242,-109 347,-117 52,99 83,228 83,379z"/>
   <path class="fil5" d="M71850 13643c-31,51 -84,100 -155,140 -265,155 -695,155 -962,0l-5285 -3050c-71,-42 -124,-91 -157,-142 -91,-139 -38,-304 155,-416 265,-153 696,-153 962,0l5285 3052c195,112 248,276 157,416z"/>
   <path class="fil4" d="M71850 13643c-31,51 -84,100 -155,140 -265,155 -695,155 -962,0l-5285 -3050c-71,-42 -124,-91 -157,-142 32,-52 83,-101 155,-141 265,-155 696,-155 962,0l5285 3050c72,42 124,91 157,143z"/>
   <path class="fil6" d="M21615 40307c559,322 564,844 9,1167l-2110 1226c-555,322 -1456,321 -2015,-1l-2123 -1226c-557,-322 -562,-844 -7,-1166l2110 -1226c555,-323 1456,-322 2013,0l2123 1226z"/>
   <path class="fil3" d="M21010 40420c450,260 454,681 7,941l-1700 988c-448,260 -1174,259 -1624,-1l-1712 -988c-449,-259 -452,-680 -5,-940l1700 -988c447,-260 1174,-259 1623,0l1711 988z"/>
   <path class="fil5" d="M29500 46606c309,179 311,468 4,647 -307,178 -806,178 -1115,-1l-3168 -1829c-309,-178 -312,-468 -5,-646 307,-179 807,-178 1116,0l3168 1829z"/>
   <path class="fil5" d="M11709 36335c309,178 312,468 5,646 -307,179 -807,178 -1116,0l-3168 -1829c-309,-179 -311,-468 -4,-647 306,-178 806,-178 1115,1l3168 1829z"/>
   <path class="fil3" d="M11114 44729c-1,312 218,694 492,851l4280 2471c201,115 373,79 452,-73 28,-55 44,-125 44,-207 0,-315 -220,-697 -493,-854l-4280 -2472c-68,-40 -134,-60 -193,-65 -177,-16 -302,114 -302,349z"/>
   <path class="fil4" d="M11370 44590c0,313 218,694 492,852l4280 2471c69,40 136,62 196,65 28,-55 44,-125 44,-207 0,-315 -220,-697 -493,-854l-4280 -2472c-68,-40 -134,-60 -193,-65 -28,55 -46,126 -46,210z"/>
   <path class="fil3" d="M18175 48764c0,111 -25,200 -69,267 -94,145 -278,175 -491,52 -308,-178 -557,-609 -556,-964 0,-238 114,-381 283,-395 81,-6 176,18 277,76 309,178 558,610 556,964z"/>
   <path class="fil4" d="M18175 48764c0,111 -25,200 -69,267 -81,7 -177,-17 -278,-76 -308,-177 -558,-609 -557,-964 0,-111 26,-200 71,-267 81,-6 176,18 277,76 309,178 558,610 556,964z"/>
   <polygon class="fil7" points="81058,22034 78472,23534 48633,6320 51231,4813 "/>
   <polygon class="fil7" points="75660,23657 68750,27673 61747,23605 68703,19636 "/>
   <polygon class="fil7" points="67602,19005 60691,23020 53689,18952 60644,14983 "/>
   <polygon class="fil7" points="61099,32101 45779,40977 18546,25224 33922,16405 "/>
   <polygon class="fil8" points="75660,4021 68750,8037 68754,10127 75656,6142 "/>
   <polygon class="fil9" points="75660,4021 68750,8037 61747,3969 68703,0 "/>
   <polygon class="fil8" points="61747,3969 68750,8037 68754,10127 61751,6090 "/>
   <polygon class="fil10" points="59277,14136 59275,13880 59530,13878 59533,14133 "/>
   <polygon class="fil10" points="41730,11908 41475,11908 41475,11653 41730,11653 "/>
   <polygon class="fil8" points="61099,20681 45772,29593 45776,31683 61095,22801 "/>
   <polygon class="fil9" points="61099,20681 45772,29593 18546,13855 33918,4989 "/>
   <polygon class="fil8" points="18546,13855 45776,29593 45776,31683 18551,15975 "/>
   <g style="clip-path:url(#id1)">
    <image x="52974" y="22705" width="8226" height="4855" xlink:href="phone_Images\phone_ImgID2.png"/>
   </g>
   <g style="clip-path:url(#id2)">
    <image x="54749" y="24186" width="3884" height="2339" xlink:href="phone_Images\phone_ImgID3.png"/>
   </g>
   <polygon class="fil2" points="47507,12834 47559,12864 32171,21730 32136,21709 "/>
   <polygon class="fil8" points="67602,12973 60691,16989 60695,19079 67598,15094 "/>
   <polygon class="fil9" points="67602,12973 60691,16989 53689,12921 60644,8952 "/>
   <polygon class="fil8" points="53689,12921 60691,16989 60695,19079 53693,15042 "/>
   <path class="fil11" d="M28903 13490l-701 -398 4353 -2475 -1913 -264 190 -455 2554 342 618 351 -5101 2899zm2714 443c153,86 229,187 229,303 0,115 -74,215 -221,299 -147,84 -324,126 -530,128 -206,1 -385,-41 -537,-128 -148,-84 -220,-184 -218,-301 3,-117 78,-218 225,-301 148,-84 323,-126 526,-126 204,0 379,42 526,126zm3614 3155l-846 -481 717 -1526 -2699 399 -793 -451 3522 -407 656 -1786 824 468 -633 1313 2318 -355 793 451 -3104 359 -755 2016z"/>
   <path class="fil11" d="M46817 17442c564,321 765,691 602,1110 -162,419 -671,871 -1525,1356 -854,486 -1650,775 -2390,869 -740,94 -1391,-19 -1956,-340 -564,-321 -763,-691 -598,-1112 165,-420 675,-873 1528,-1358 854,-486 1650,-775 2387,-867 737,-93 1388,21 1952,342zm-557 317c-330,-188 -738,-235 -1223,-141 -486,94 -1095,349 -1827,765 -732,416 -1181,762 -1349,1040 -168,277 -87,510 244,698 325,184 733,230 1224,136 490,-94 1101,-349 1833,-765 727,-413 1173,-759 1338,-1038 166,-279 86,-511 -240,-695zm-617 3800c152,87 228,188 228,304 0,115 -73,215 -221,299 -147,84 -324,126 -530,128 -205,1 -385,-42 -537,-128 -148,-84 -220,-184 -217,-301 2,-117 77,-218 225,-302 147,-83 322,-125 526,-125 203,0 378,42 526,125zm3614 3155l-847 -481 717 -1525 -2699 399 -793 -451 3523 -408 655 -1785 824 468 -633 1313 2318 -355 793 450 -3103 360 -755 2015z"/>
   <g>
    <path class="fil12" d="M68985 6190l-4016 -2309c-111,-64 -291,-64 -402,0 -110,64 -110,167 0,231l4016 2309c111,64 291,64 401,0 111,-64 111,-167 1,-231z"/>
    <path class="fil12" d="M65742 3725c-111,-63 -291,-63 -402,0 -111,64 -111,168 0,231l3514 2021c111,64 291,64 402,0 111,-64 111,-167 0,-231l-50 -29 1807 -1039 50 29c55,32 145,31 200,0 56,-32 56,-84 0,-116l-3513 -2020c-56,-32 -145,-32 -201,0 -55,32 -55,83 0,115l50 29 -1807 1039 -50 -29 0 0zm4869 722l-1807 1039 -602 -346 1807 -1040 602 347zm-1004 -577l-1807 1039 -602 -347 1807 -1039 602 347zm-1606 -924l602 346 -1807 1039 -602 -346 1807 -1039z"/>
    <path class="fil12" d="M67679 2323l4016 2309c0,0 1,1 2,1 111,64 290,64 401,0 89,-51 107,-126 55,-187l-1096 -1662c-29,-43 -89,-78 -165,-94l-2911 -635c-125,-28 -267,-1 -339,64 -73,64 -57,149 37,204z"/>
   </g>
   <g>
    <path class="fil12" d="M64884 12658l-2445 -1407c-202,-116 -531,-116 -733,0l-990 570 -991 -570c-202,-116 -531,-116 -733,0l-2445 1407c-202,116 -202,305 0,421l1839 1058c9,-8 17,-16 27,-23l381 -277 -1685 -969 2250 -1293 892 513 -990 570c-202,116 -202,305 0,421l322 185 410 -298 -170 -98 893 -513 893 513 -281 161 237 398 606 -348c202,-116 202,-305 0,-421l-991 -570 892 -513 2250 1293 -2250 1294 -107 -61 230 386c14,24 22,48 27,71 79,-13 154,-37 217,-73l2445 -1406c202,-116 202,-305 0,-421z"/>
    <path class="fil12" d="M61781 14568l-947 -1592c-8,-13 -20,-24 -36,-33 -22,-13 -50,-21 -81,-24 -54,-6 -110,6 -144,31l-1817 1320c-37,28 -43,65 -13,96 7,7 15,14 25,19 32,19 77,28 123,25l1408 -90 1273 355c55,15 121,10 166,-13 46,-24 63,-60 43,-94z"/>
   </g>
   <g>
    <polygon class="fil7" points="28306,32190 21334,36236 10503,29963 17511,25954 "/>
    <polygon class="fil8" points="28240,22736 21329,26751 21334,28841 28236,24856 "/>
    <polygon class="fil9" points="28240,22736 21329,26751 10503,20450 17459,16481 "/>
    <polygon class="fil8" points="10503,20450 21329,26751 21334,28841 10507,22571 "/>
    <g>
     <path class="fil12" d="M22254 21072c216,-46 432,-90 660,-138 -463,-654 -1259,-1093 -2448,-1266 -1149,-168 -2192,-19 -3131,406 155,107 303,208 452,309 1356,-678 3728,-431 4467,689z"/>
     <path class="fil12" d="M22483 22788c-188,-77 -376,-153 -572,-232 -493,383 -1137,615 -1949,675 -808,59 -1531,-68 -2172,-363 -150,102 -295,202 -442,302 1251,670 3759,717 5135,-382z"/>
     <path class="fil12" d="M17430 20580c-167,-81 -341,-165 -514,-249 -975,604 -1231,1768 -7,2596 178,-86 353,-170 522,-252 -868,-700 -868,-1394 -1,-2095z"/>
     <path class="fil12" d="M22393 21835c-37,164 -118,321 -240,476 211,57 420,112 638,171 306,-388 397,-786 277,-1207 -230,23 -456,46 -692,70 44,164 53,328 17,490z"/>
     <path class="fil12" d="M18420 22578l194 -112c198,78 425,132 669,158l0 159c1,59 83,106 186,107l287 0c103,-1 186,-48 187,-107l0 -162c242,-27 467,-82 662,-159l200 114c72,42 190,42 262,0l204 -117c72,-41 72,-109 0,-151l-201 -115c134,-113 227,-242 273,-381l285 0c103,0 186,-48 187,-107l-1 -167c-1,-59 -84,-106 -187,-107l-285 0c-46,-138 -140,-268 -274,-381l201 -115c72,-42 72,-110 0,-151l-204 -117c-72,-42 -190,-42 -262,0l-200 115c-195,-78 -421,-133 -663,-160l-1 -159c-2,-60 -84,-107 -187,-108l-288 1c-103,1 -185,48 -186,107l0 159c-244,26 -470,81 -668,158l-194 -111c-73,-42 -191,-42 -263,0l-203 117c-73,41 -73,109 0,151l193 111c-135,114 -232,245 -278,384l-272 2c-103,1 -185,48 -186,107l0 165c1,60 83,107 186,108l273 0c47,140 144,271 279,385l-193 111c-73,41 -73,109 0,151l203 117c74,42 193,42 265,0zm231 -955c0,-304 428,-552 958,-552 529,0 960,247 960,551 0,305 -429,552 -958,552 -529,1 -959,-246 -960,-551z"/>
    </g>
   </g>
  </g>
 </g>
</svg>
