<?xml version="1.0" encoding="UTF-8"?>
<!DOCTYPE svg PUBLIC "-//W3C//DTD SVG 1.1//EN" "http://www.w3.org/Graphics/SVG/1.1/DTD/svg11.dtd">
<!-- Creator: CorelDRAW X7 -->
<svg xmlns="http://www.w3.org/2000/svg" xml:space="preserve" width="1886px" height="1401px" version="1.1" style="shape-rendering:geometricPrecision; text-rendering:geometricPrecision; image-rendering:optimizeQuality; fill-rule:evenodd; clip-rule:evenodd"
viewBox="0 0 188828 140273"
 xmlns:xlink="http://www.w3.org/1999/xlink">
 <defs>
  <style type="text/css">
   <![CDATA[
    .str2 {stroke:#FEFEFE;stroke-width:591.307}
    .str3 {stroke:#FEFEFE;stroke-width:591.307}
    .str0 {stroke:#FEFEFE;stroke-width:290.214}
    .str4 {stroke:#9D9E9E;stroke-width:295.654}
    .str5 {stroke:#9D9E9E;stroke-width:295.654}
    .str1 {stroke:#FEFEFE;stroke-width:90.1152}
    .str6 {stroke:#FEFEFE;stroke-width:591.307;stroke-linejoin:round}
    .fil10 {fill:none}
    .fil4 {fill:none;fill-rule:nonzero}
    .fil9 {fill:#FEFEFE}
    .fil8 {fill:#008DD2}
    .fil6 {fill:#16B6E8}
    .fil5 {fill:#FEFEFE;fill-rule:nonzero}
    .fil11 {fill:#2B2A29;fill-rule:nonzero}
    .fil1 {fill:#008DD2;fill-rule:nonzero}
    .fil7 {fill:#16B6E8;fill-rule:nonzero}
    .fil0 {fill:#16B6E8;fill-rule:nonzero}
    .fil3 {fill:url(#id6);fill-rule:nonzero}
    .fil2 {fill:url(#id7);fill-rule:nonzero}
   ]]>
  </style>
    <mask id="id0">
  <linearGradient id="id1" gradientUnits="userSpaceOnUse" x1="138000" y1="28406.5" x2="122233" y2="77678.5">
   <stop offset="0" style="stop-opacity:1; stop-color:white"/>
   <stop offset="1" style="stop-opacity:0; stop-color:white"/>
  </linearGradient>
     <rect style="fill:url(#id1)" x="71941" y="19371" width="116352" height="67343"/>
    </mask>
    <clipPath id="id2" style="clip-rule:nonzero">
     <path d="M36295 60905l-17 -10 -13646 7931 2369 1366c2435,-448 4766,-300 6226,543 2521,1455 1500,4412 -2273,6606 -3769,2190 -8872,2791 -11392,1335 -1460,-841 -1725,-2193 -957,-3603l-2369 -1370 -13646 7932 15907 9183 -2354 1368c-2434,-446 -4765,-297 -6215,546 -2504,1455 -1456,4409 2343,6602 3799,2194 8903,2792 11407,1336 1450,-842 1704,-2190 921,-3602l2355 -1368c11726,6771 20288,11744 31795,18388l2348 -1366c-774,-1411 -524,-2761 927,-3605 2504,-1454 7609,-857 11407,1337 3798,2192 4847,5148 2343,6603 -1450,844 -3775,994 -6221,548l-2348 1366 15908 9184 13661 -7939 2369 1367c-763,1409 -499,2759 962,3602 2520,1456 7623,861 11396,-1333 3775,-2193 4785,-5150 2265,-6606 -1461,-843 -3787,-994 -6222,-545l-2369 -1368 13641 -7928 1 1 13645 -7930 -2364 -1365c-2434,449 -4766,300 -6231,-546 -2521,-1455 -1790,-4502 1979,-6692 3775,-2194 8999,-3075 11519,-1620 1465,846 1897,2567 1130,3978l2364 1365 13646 -7930 -15908 -9184 2349 -1365c2445,446 4770,294 6221,-548 2504,-1456 1455,-4410 -2344,-6603 -771,-446 -1597,-825 -2443,-1136 855,312 1689,694 2467,1144 3799,2193 4848,5148 2344,6603 -1451,843 -3776,995 -6221,548l-2348 1365 15907 9185 13661 -7939 2369 1367c-762,1409 -498,2760 962,3603 2521,1455 7623,860 11397,-1333 3775,-2194 4785,-5151 2264,-6607 -1460,-842 -3787,-994 -6221,-545l-2370 -1368 13647 -7930 -15908 -9184 -2354 1368c784,1412 529,2759 -921,3602 -2504,1455 -7613,860 -11412,-1333 -3799,-2193 -4843,-5151 -2338,-6606 1450,-843 3780,-992 6215,-545l2354 -1368c-12315,-7110 -19842,-11438 -31846,-18369l2349 -1365c2445,446 4770,295 6221,-548 2504,-1456 1455,-4410 -2344,-6603 -3798,-2194 -8903,-2791 -11407,-1336 -1450,843 -1699,2193 -926,3605l-2349 1365 -15907 -9184 -13646 7930 2369 1368c2434,-449 4767,-301 6226,542 2521,1456 1501,4413 -2274,6606 -3769,2190 -8871,2791 -11392,1336 -1460,-843 -1724,-2193 -957,-3605l-2369 -1368c-15569,9048 -5371,3126 -13069,7602l-14215 8262 -2363 -1365c762,-1414 493,-2762 -967,-3605 -2521,-1455 -7618,-857 -11392,1336 -3774,2193 -4790,5148 -2269,6603 1460,843 3792,992 6226,548l2364 1365 -13642 7928z"/>
    </clipPath>
     <clipPath id="id3">
      <path d="M143083 49034l-3485 2872c0,4 -1,10 -3,18 -2,9 -3,14 -3,19l0 2909c0,105 38,196 115,272 77,77 168,116 273,116l2327 0 0 -2328 1552 0 0 2328 2327 0c105,0 196,-39 273,-116 76,-76 115,-167 115,-272l0 -2909c0,-17 -2,-29 -6,-37l-3485 -2872zm4818 2218l-1327 -1103 0 -2473c0,-56 -18,-103 -55,-139 -36,-37 -83,-55 -139,-55l-1164 0c-56,0 -103,18 -139,55 -37,36 -55,83 -55,139l0 1182 -1479 -1236c-129,-106 -282,-158 -460,-158 -178,0 -331,52 -461,158l-4357 3630c-41,32 -63,75 -67,130 -4,55 10,102 43,142l375 449c33,36 75,59 127,67 49,4 97,-10 146,-43l4194 -3497 4194 3497c32,28 74,43 127,43l18 0c53,-9 95,-31 128,-67l375 -449c33,-40 47,-87 43,-142 -5,-54 -27,-98 -67,-130z"/>
     </clipPath>
       <mask id="id4">
  <linearGradient id="id5" gradientUnits="userSpaceOnUse" x1="145399" y1="58940.5" x2="144884" y2="51640.5">
   <stop offset="0" style="stop-opacity:1; stop-color:white"/>
   <stop offset="1" style="stop-opacity:0; stop-color:white"/>
  </linearGradient>
        <rect style="fill:url(#id5)" x="136858" y="51045" width="16568" height="8491"/>
       </mask>
  <linearGradient id="id6" gradientUnits="userSpaceOnUse" x1="110068" y1="80254.8" x2="7362.96" y2="108784">
   <stop offset="0" style="stop-opacity:1; stop-color:#00ACED"/>
   <stop offset="0.831373" style="stop-opacity:1; stop-color:#7FD5F6"/>
   <stop offset="1" style="stop-opacity:1; stop-color:white"/>
  </linearGradient>
  <linearGradient id="id7" gradientUnits="userSpaceOnUse" x1="89410.5" y1="58858.1" x2="170823" y2="47227.8">
   <stop offset="0" style="stop-opacity:1; stop-color:#00ACED"/>
   <stop offset="0.780392" style="stop-opacity:1; stop-color:#0594C2"/>
   <stop offset="1" style="stop-opacity:1; stop-color:#0B7B96"/>
  </linearGradient>
 </defs>
 <g id="Capa_x0020_1">
  <metadata id="CorelCorpID_0Corel-Layer"/>
  <g id="_910226352">
   <path class="fil0" d="M107219 73029c-1460,-843 -3787,-995 -6221,-546l-2370 -1367 13646 -7931 -15907 -9184 -2354 1368c784,1412 529,2759 -921,3602 -2504,1455 -7613,860 -11412,-1333 -3799,-2193 -4843,-5150 -2339,-6606 1451,-843 3781,-991 6216,-545l2354 -1368 -15908 -9184 -13646 7930 -2364 -1365c762,-1414 493,-2762 -967,-3605 -2521,-1455 -7618,-857 -11392,1336 -3774,2193 -4790,5148 -2269,6603 1460,843 3792,992 6227,548l2364 1365 -13661 7939 15907 9184 2349 -1365c-773,-1411 -524,-2762 926,-3605 2505,-1455 7609,-857 11407,1336 3799,2194 4848,5148 2344,6603 -1451,843 -3776,995 -6221,549l-2348 1365 15907 9184 13661 -7939 2369 1368c-762,1408 -498,2759 962,3602 2521,1455 7623,860 11397,-1333 3774,-2194 4785,-5151 2264,-6606z"/>
   <path class="fil1" d="M138424 32258c-1311,186 -2739,97 -4037,-140l-2349 1364 -12 4515 2349 -1365c1465,268 3028,359 4495,62 1239,-249 2772,-899 3044,-2277 24,-120 38,-244 41,-369 1,-20 1,-39 1,-58l13 -4515c-6,1808 -2015,2565 -3545,2783z"/>
   <path class="fil1" d="M156144 57826c200,-60 409,-110 625,-154 69,-14 133,-32 204,-44 86,-15 178,-25 266,-37 157,-22 315,-44 478,-59 86,-7 174,-11 261,-17 166,-10 333,-18 504,-21 98,-2 196,-2 295,-2 164,2 331,7 499,15 111,5 222,10 334,18 157,11 315,27 474,44 137,14 274,28 412,46 256,34 514,71 773,119l2354 -1368 13 -4515 -2354 1368c-212,-39 -424,-73 -634,-103 -47,-7 -92,-10 -138,-16 -139,-18 -276,-32 -413,-46 -104,-11 -210,-27 -314,-35 -54,-5 -107,-5 -161,-9 -112,-8 -222,-13 -332,-18 -92,-4 -185,-13 -276,-15 -76,-2 -149,1 -224,1 -99,-1 -198,-1 -296,1 -62,1 -126,-1 -187,1 -107,3 -210,14 -315,20 -87,6 -176,10 -262,17 -34,3 -68,4 -101,7 -130,13 -252,35 -377,52 -89,13 -180,22 -267,37 -17,3 -36,4 -53,8 -52,9 -97,26 -149,36 -217,44 -427,94 -627,154 -37,12 -80,17 -116,29 -89,28 -170,64 -255,96 -61,23 -124,44 -183,68 -189,79 -369,164 -535,260 -16,10 -32,19 -48,28 -203,122 -378,255 -534,395 -5,5 -14,10 -19,15 -1,0 -1,0 -1,1 -108,99 -204,203 -289,311 -38,48 -66,99 -100,148 -16,25 -34,50 -50,75 -14,23 -33,45 -46,69 -55,98 -102,198 -141,301 -13,36 -20,74 -32,111 -9,31 -17,61 -26,92 -11,41 -26,81 -35,123 -24,121 -38,245 -41,371 -1,19 -1,39 -1,58l-13 4515c0,-190 30,-374 78,-553 8,-30 16,-61 26,-91 52,-166 124,-327 218,-481 16,-26 34,-50 51,-75 107,-161 233,-316 389,-460 5,-6 14,-10 19,-15 168,-151 359,-294 582,-423 166,-97 347,-182 535,-260 59,-25 121,-45 182,-68 120,-45 245,-87 373,-125z"/>
   <polygon class="fil1" points="174354,73848 174341,78362 187987,70432 188000,65917 "/>
   <path class="fil2" d="M183192 75761c-1460,-843 -3787,-994 -6221,-546l-2369 -1367 13646 -7931 -15908 -9184 -2354 1368c784,1412 529,2759 -921,3602 -2504,1455 -7613,860 -11412,-1333 -3799,-2193 -4843,-5150 -2338,-6606 1450,-842 3780,-991 6215,-545l2354 -1368 -15908 -9184 -896 521c280,-174 567,-348 866,-521l-15907 -9184 2348 -1365c2445,446 4770,295 6220,-549 2505,-1456 1456,-4410 -2343,-6603 -3799,-2194 -8902,-2791 -11407,-1335 -1449,842 -1699,2192 -926,3604l-2349 1365 -15908 -9183 -13645 7929 2368 1368c2435,-448 4768,-300 6227,543 2522,1455 1501,4413 -2274,6605 -3767,2190 -8870,2792 -11392,1336 -1460,-843 -1723,-2193 -957,-3605l-2368 -1368 -13647 7931 15908 9184 -2355 1368c-2434,-446 -4763,-298 -6215,546 -2504,1455 -1454,4409 2344,6602 3799,2194 8903,2792 11407,1336 1451,-843 1704,-2191 922,-3601l2353 -1370 15907 9186c246,-143 491,-278 736,-410l-725 421 15907 9184 2349 -1365c-773,-1411 -524,-2762 926,-3604 2505,-1456 7609,-858 11407,1336 3799,2193 4848,5147 2344,6603 -1451,842 -3776,994 -6221,548l-2348 1365 15907 9184 13661 -7939 2369 1368c-762,1408 -498,2759 962,3602 2521,1455 7624,860 11397,-1333 3775,-2193 4785,-5151 2264,-6606z"/>
   <path class="fil1" d="M29214 69820c-1276,-180 -2711,-92 -3978,139 -144,26 -2141,-1187 -2434,-1356l-13 4515 2369 1368c1881,-349 4528,-438 6227,542 938,542 1386,1292 1384,2133l12 -4515c5,-1847 -2036,-2606 -3567,-2826z"/>
   <polygon class="fil1" points="760,81413 747,85927 16654,95112 16667,90597 "/>
   <path class="fil1" d="M22762 99659c-340,464 -872,804 -1392,1028 -3127,1353 -8096,61 -10929,-1574 -2405,-1389 -3708,-3083 -3704,-4508l-13 4514c-4,1426 1299,3120 3705,4509 2842,1641 7789,2925 10929,1574 977,-422 1802,-1171 1833,-2267 18,-601 5,-1225 6,-1829l1914 -1112c10609,6118 21213,12239 31819,18363l2349 -1365 8 -2808c1588,-2253 6516,-1612 8793,-949 2734,797 7245,3065 7237,5996l13 -4514c7,-2453 -3377,-4523 -5606,-5429 -2533,-1033 -6241,-1743 -8854,-720 -2253,877 -2708,1164 -2326,4357l-1860 1113c-10534,-6314 -20922,-12422 -31560,-18559l-2354 1368 -8 2812z"/>
   <path class="fil1" d="M116814 111781l0 134 13646 -7930 13 -4515 -13458 7821 0 -134 -13646 7930 -13 4515 13458 -7821zm-51415 6943l-13 4515 15908 9184 13661 -7939 1958 1131 -5 1710c-10,3253 5360,3075 7502,2697 2814,-486 8819,-2851 8923,-6305 49,-1499 9,-3072 13,-4579 -12,3475 -6191,5885 -8924,6369 -2032,359 -5737,488 -7093,-1414l8 -2756 -2369 -1368 -13662 7939 -15907 -9184z"/>
   <path class="fil3" d="M60652 74955l2349 -1364c2444,445 4769,295 6219,-549 2505,-1455 1457,-4410 -2342,-6603 -3799,-2194 -8902,-2791 -11407,-1335 -1452,842 -1700,2193 -927,3604l-2349 1365 -15907 -9183 -13646 7930 2369 1367c2435,-449 4766,-301 6226,542 2521,1456 1500,4413 -2273,6606 -3769,2190 -8872,2791 -11392,1336 -1460,-842 -1725,-2194 -957,-3604l-2369 -1369 -13646 7932 15907 9182 -2354 1368c-2434,-445 -4764,-297 -6215,547 -2504,1455 -1456,4409 2343,6602 3799,2194 8903,2791 11407,1336 1450,-843 1704,-2191 921,-3603l2355 -1368 15907 9186 574 -334c-195,117 -390,233 -594,351l15908 9185 2348 -1366c-773,-1411 -524,-2761 927,-3604 2504,-1455 7609,-858 11407,1336 3798,2193 4847,5148 2343,6604 -1450,843 -3775,994 -6221,547l-2348 1366 15908 9184 13661 -7939 2369 1368c-763,1408 -499,2759 962,3601 2520,1457 7623,862 11396,-1333 3775,-2192 4785,-5150 2265,-6606 -1461,-842 -3787,-994 -6222,-545l-2369 -1367 13645 -7931 -15907 -9185 -2354 1369c785,1411 530,2758 -920,3602 -2506,1455 -7614,860 -11412,-1333 -3800,-2194 -4844,-5151 -2339,-6605 1451,-844 3781,-993 6215,-546l2353 -1368 -25567 -14975 -177 104 -6070 -3505z"/>
   <g>
    <path class="fil4 str0" d="M107201 73259c-1460,-843 -3787,-995 -6221,-545l-2370 -1368 13646 -7931 -15907 -9184 -2354 1368c784,1412 529,2759 -921,3602 -2505,1455 -7614,861 -11412,-1333 -3799,-2193 -4843,-5150 -2339,-6606 1451,-842 3781,-991 6216,-545l2354 -1368 -15908 -9184 -13646 7930 -2364 -1365c762,-1414 493,-2762 -967,-3605 -2521,-1455 -7618,-857 -11392,1336 -3774,2193 -4790,5148 -2269,6603 1460,843 3792,992 6226,548l2365 1365 -13661 7939 15907 9185 2349 -1365c-773,-1412 -524,-2763 926,-3605 2505,-1456 7609,-858 11407,1335 3799,2194 4848,5148 2344,6603 -1451,843 -3776,995 -6221,549l-2349 1365 15908 9184 13661 -7939 2369 1368c-762,1408 -498,2759 962,3602 2521,1455 7623,860 11397,-1333 3774,-2193 4785,-5151 2264,-6606z"/>
   </g>
   <path class="fil4" d="M183192 75761c-1460,-843 -3787,-994 -6221,-546l-2369 -1367 13646 -7931 -15908 -9184 -2354 1368c784,1412 529,2759 -921,3602 -2504,1455 -7613,860 -11412,-1333 -3799,-2193 -4843,-5150 -2338,-6606 1450,-842 3780,-991 6215,-545l2354 -1368 -15908 -9184 -904 525c283,-175 573,-350 874,-525l-15907 -9184 2348 -1366c2445,447 4770,295 6221,-548 2504,-1455 1455,-4410 -2344,-6603 -3798,-2193 -8902,-2791 -11407,-1336 -1450,843 -1699,2194 -926,3605l-2349 1365 -15907 -9184 -13646 7930 2369 1368c2434,-449 4767,-300 6226,543 2521,1455 1501,4412 -2274,6606 -3769,2190 -8871,2791 -11392,1335 -1459,-843 -1724,-2193 -956,-3604l-2370 -1368 -13646 7930 15908 9184 -2354 1368c-2435,-446 -4765,-298 -6215,545 -2505,1456 -1456,4410 2343,6603 3799,2194 8903,2791 11407,1336 1450,-843 1705,-2190 921,-3602l2354 -1367 15908 9183c246,-143 493,-279 739,-411l-729 423 15907 9184 2349 -1365c-773,-1411 -524,-2762 926,-3604 2505,-1456 7609,-858 11407,1336 3799,2193 4848,5147 2344,6603 -1451,842 -3776,994 -6221,548l-2348 1365 15907 9184 13661 -7939 2369 1368c-762,1408 -498,2759 962,3602 2521,1455 7624,860 11397,-1333 3775,-2193 4785,-5151 2264,-6606z"/>
   <path class="fil5 str1" style="mask:url(#id0)" d="M183192 75761c-1460,-843 -3787,-994 -6221,-546l-2369 -1367 13646 -7931 -15908 -9184 -2354 1368c784,1412 529,2759 -921,3602 -2504,1455 -7613,860 -11412,-1333 -3799,-2193 -4843,-5150 -2338,-6606 1450,-842 3780,-991 6215,-545l2354 -1368 -15908 -9184 -904 525c283,-175 573,-350 874,-525l-15907 -9184 2348 -1366c2445,447 4770,295 6221,-548 2504,-1455 1455,-4410 -2344,-6603 -3798,-2193 -8902,-2791 -11407,-1336 -1450,843 -1699,2194 -926,3605l-2349 1365 -15907 -9184 -13646 7930 2369 1368c2434,-449 4767,-300 6226,543 2521,1455 1501,4412 -2274,6606 -3769,2190 -8871,2791 -11392,1335 -1459,-843 -1724,-2193 -956,-3604l-2370 -1368 -13646 7930 15908 9184 -2354 1368c-2435,-446 -4765,-298 -6215,545 -2505,1456 -1456,4410 2343,6603 3799,2194 8903,2791 11407,1336 1450,-843 1705,-2190 921,-3602l2354 -1367 15908 9183c246,-143 493,-279 739,-411l-729 423 15907 9184 2349 -1365c-773,-1411 -524,-2762 926,-3604 2505,-1456 7609,-858 11407,1336 3799,2193 4848,5147 2344,6603 -1451,842 -3776,994 -6221,548l-2348 1365 15907 9184 13661 -7939 2369 1368c-762,1408 -498,2759 962,3602 2521,1455 7624,860 11397,-1333 3775,-2193 4785,-5151 2264,-6606z"/>
   <path class="fil1" d="M176373 84064c-2179,521 -6536,925 -8059,-1211l7 -2755 -2369 -1368 -13413 7939 -37 4506 13 -4515 -13646 7931 -1950 -991c17,-5821 -4911,-5693 -9671,-4392 -2614,708 -6858,2770 -6944,5552 -41,1507 -10,3065 -14,4578 17,-4961 11657,-7717 15426,-5126l-10 3293 3150 1600 13646 -7930 13437 -7930 1958 1130 -5 1711c-10,3601 6291,3014 8468,2493 2996,-718 7867,-3084 7957,-6102 42,-1507 10,-3065 14,-4579 -7,3205 -5378,5549 -7958,6166z"/>
   <path class="fil1" d="M94029 27346l-14 4515 2370 1367c2171,-373 7620,-630 7610,2676l13 -4515c5,-1646 -1656,-2448 -3054,-2737 -1418,-294 -3079,-206 -4491,50 -162,29 -2109,-1168 -2434,-1356z"/>
   <path class="fil1" d="M49764 52859l-2173 -1477c-2195,386 -7621,776 -7611,-2682l-13 4515c-6,2207 2697,2729 4404,2997 197,32 5679,-2980 5393,-3353z"/>
   <g id="_973683504">
    <g>
     <path class="fil6" d="M28720 113930l1480 0c47,0 85,39 85,86 0,47 -38,85 -85,85l-1480 0c-47,0 -86,-38 -86,-85 0,-47 39,-86 86,-86z"/>
     <path class="fil6" d="M31276 116068c0,890 -813,1611 -1816,1611 -1003,0 -1816,-721 -1816,-1611 0,-622 530,-1521 1201,-1896l1230 0c670,375 1201,1274 1201,1896zm-2440 -2209l0 0c-87,-125 -140,-260 -140,-371 0,-327 342,-143 764,-143 421,0 763,-168 763,143 0,115 -51,248 -135,371l-1252 0z"/>
     <path class="fil0" d="M28552 113882c-5,-131 -40,-205 -82,-240 -3,-2 -7,-5 -10,-7l0 -179c40,6 80,23 117,53 92,75 165,234 144,513l0 0c-1,9 -3,18 -7,27 -18,43 -68,64 -112,46 -53,-23 -101,-46 -142,-70l0 -204c25,20 55,40 92,61zm-92 -247l0 0c-24,-14 -49,-14 -67,-3 -19,12 -31,36 -23,67 8,36 35,78 90,122l0 204c-161,-93 -236,-197 -257,-287 -26,-112 23,-205 102,-253 45,-27 100,-38 155,-29l0 179z"/>
     <path class="fil0" d="M28477 114009c-57,-27 -106,-42 -147,-48l0 -170c94,8 209,47 345,132 9,5 18,12 25,21 31,36 25,90 -11,120 -140,116 -261,173 -359,190l0 -173c41,-12 90,-35 147,-72zm-147 -48l0 0c-43,-6 -77,-1 -103,10 -31,13 -46,39 -45,63 1,22 18,44 48,52 26,7 59,6 100,-5l0 173c-55,10 -102,8 -142,-3 -112,-29 -171,-116 -177,-208 -5,-90 44,-185 148,-230 46,-19 103,-29 171,-22l0 170z"/>
     <path class="fil0" d="M28536 113985c12,-46 59,-73 105,-61 46,12 73,59 60,105 -37,137 -181,252 -364,319 -169,61 -377,82 -559,39 -46,-11 -74,-57 -63,-103 11,-46 57,-74 103,-63 148,35 319,17 461,-34 133,-48 235,-122 257,-202z"/>
     <path class="fil0" d="M28533 114004c2,-47 41,-84 89,-83 47,2 84,41 82,89 0,8 -1,15 -1,21 -16,140 -156,319 -354,456 -192,133 -443,232 -692,224 -23,0 -46,-2 -66,-4 -48,-5 -81,-48 -76,-95 5,-47 47,-80 94,-75 19,2 37,3 54,4 208,6 423,-80 589,-195 159,-110 270,-241 281,-334 0,-4 0,-7 0,-8z"/>
     <path class="fil0" d="M29621 116784c49,-10 95,-24 138,-42 67,-26 126,-63 175,-109 50,-46 88,-101 115,-164 28,-64 41,-136 42,-217 -1,-69 -10,-128 -31,-178 -20,-49 -47,-91 -83,-126 -35,-34 -76,-64 -123,-89 -46,-24 -96,-46 -150,-65 -27,-10 -55,-19 -83,-29l0 374c7,4 15,8 22,13 17,12 31,27 42,47 12,19 18,45 18,77 0,47 -15,85 -43,115 -11,11 -24,21 -39,30l0 363zm0 -1412l0 0c5,1 9,3 13,4 26,7 49,14 69,23 20,8 40,14 59,20 20,6 41,9 65,9 36,0 68,-8 96,-23 28,-15 50,-35 66,-60 15,-25 23,-53 24,-84 -1,-36 -11,-67 -32,-93 -20,-27 -47,-49 -81,-67 -34,-18 -72,-33 -114,-44 -41,-12 -84,-20 -126,-26 -13,-2 -26,-4 -39,-5l0 346zm-222 1561l0 0c0,20 7,36 20,49 13,14 29,21 50,21 21,0 37,-7 50,-21 13,-13 20,-29 20,-49l0 -137c28,-3 56,-7 82,-12l0 -363c-23,14 -50,24 -82,30l0 -347 54 21c9,4 19,9 28,14l0 -374c-27,-9 -54,-18 -82,-27l0 -377c31,2 59,6 82,11l0 -346c-28,-4 -56,-6 -82,-7l0 -135c0,-19 -8,-36 -21,-49 -13,-13 -30,-20 -49,-21 -19,1 -36,8 -49,21 -13,13 -21,30 -21,49l0 135c-29,1 -57,4 -84,8l0 359c25,-11 53,-19 84,-23l0 324 -54 -25c-10,-4 -19,-9 -30,-14l0 383c28,9 56,19 84,27l0 401c-30,-2 -58,-6 -84,-11l0 348c29,3 57,5 84,5l0 132zm-84 -1906l0 0c-78,12 -148,33 -210,64 -82,41 -146,99 -190,172 -45,74 -67,162 -68,265 1,71 11,133 32,184 21,52 51,97 87,133 37,37 79,68 126,93 47,26 97,48 149,67 25,9 50,18 74,26l0 -383c-7,-4 -14,-9 -21,-13 -17,-12 -31,-27 -44,-47 -11,-19 -18,-44 -18,-74 0,-32 8,-59 22,-79 15,-21 35,-36 60,-48l1 -1 0 -359zm0 1421l0 0c-9,-2 -18,-4 -26,-7 -34,-9 -64,-18 -92,-29 -29,-10 -56,-19 -83,-27 -26,-7 -53,-11 -81,-12 -44,1 -80,10 -108,28 -27,18 -48,39 -61,65 -13,27 -20,52 -20,77 1,35 13,67 36,94 24,28 55,52 95,72 39,20 83,37 131,50 48,14 98,23 148,30 21,3 42,6 61,7l0 -348z"/>
    </g>
    <path class="fil6" d="M29429 117596c-489,0 -1087,-22 -1359,-56 -82,-112 -205,-298 -302,-444 -343,-517 -751,-1130 -1198,-1554 -333,-316 -632,-533 -1020,-638 -2,0 -4,0 -5,-1l-408 429 -15 -15 426 2803 -407 558 -8 0 -11 -15 -12 15 -7 0 -408 -558 427 -2803 -15 15 -409 -429c-1,1 -3,1 -4,1 -389,105 -688,322 -1021,638 -447,424 -855,1037 -1198,1554 -97,146 -220,332 -302,444 -271,34 -870,56 -1359,56 -362,0 -656,294 -655,657 0,362 294,656 656,656 0,0 0,0 1,0 1595,-1 1869,-130 1972,-179 208,-97 355,-277 588,-620l0 1948c0,281 124,615 153,651 -4,33 -4,6280 -4,6280 0,429 304,779 732,779 429,0 776,-347 776,-776l-1 -5394 90 0 89 0 -1 5394c0,429 347,776 776,776 428,0 733,-350 733,-779 0,0 -1,-6247 -5,-6280 29,-36 153,-370 153,-651l0 -1948c233,343 380,523 588,620 103,49 378,178 1973,179 0,0 0,0 0,0 363,0 656,-294 657,-656 0,-363 -294,-657 -656,-657zm-4307 -2787c918,-17 1657,-767 1657,-1690 0,-922 -739,-1672 -1657,-1690 -919,18 -1658,768 -1658,1690 0,923 739,1673 1658,1690z"/>
   </g>
   <path class="fil6" d="M154325 5445c-134,0 -243,106 -243,237 0,130 109,235 243,235 134,0 242,-105 242,-235 0,-131 -108,-237 -242,-237zm-366 -904c-134,0 -243,105 -243,235 0,131 109,236 243,236 134,0 242,-105 242,-236 0,-130 -108,-235 -242,-235zm-344 -877c-134,0 -242,106 -242,236 0,130 108,236 242,236 134,0 243,-106 243,-236 0,-130 -109,-236 -243,-236zm-35 2060c115,-39 239,24 277,139 37,115 -26,239 -140,276l-945 336c-23,7 -46,11 -69,11 -92,0 -177,-59 -208,-150 -37,-115 25,-239 140,-277l945 -335zm-83 -775c38,114 -23,238 -138,276l-943 337c-23,8 -45,11 -68,12 -92,0 -178,-58 -209,-150 -38,-114 24,-238 139,-277l942 -336c116,-39 239,23 277,138zm-1481 -315c-19,5 -39,8 -58,8 -96,0 -184,-64 -211,-161 -32,-117 37,-238 154,-269l948 -293c115,-32 237,37 269,153 31,117 -37,237 -154,269l-948 293zm-1472 -1262c32,-53 84,-91 145,-103l3231 -779c106,-21 211,38 248,140l1113 2828 -306 417 -1154 -2941 -2806 716c175,543 592,1677 992,2734 348,921 549,1237 930,1301 1,0 1,-1 1,-2 779,110 765,-884 765,-884l2489 -1005c177,1121 -685,1391 -685,1391l-1822 827c0,0 -284,136 -594,122 -833,-20 -1126,-626 -1494,-1596 -530,-1401 -1068,-2972 -1074,-2989 -19,-59 -11,-123 21,-177zm7599 9c935,0 1691,-757 1691,-1690 0,-934 -757,-1691 -1691,-1691 -933,0 -1690,757 -1690,1691 0,933 757,1690 1690,1690zm1976 5685l0 324 -1402 0 0 3466 4695 0 0 -3466 -1402 0 0 -324c0,-157 -129,-286 -286,-286l-27 0c24,-85 31,-176 17,-269 -393,-2677 -987,-3824 -2446,-4718 -28,-18 -58,-30 -88,-43 -188,-125 -399,-218 -615,-271l-422 424 -408 -428c-1,0 -3,0 -4,0 -312,75 -616,233 -854,456 -185,125 -353,257 -509,397 -1105,747 -1586,2276 -2263,2218 -412,-35 -772,268 -807,678 -15,174 31,339 121,474 -42,-1 -82,-3 -124,-3l563 269c1106,-221 1842,-971 2458,-1600 10,-9 19,-19 28,-28 37,118 69,278 69,278l0 2067c0,176 34,341 95,493 -5,34 -8,68 -8,103l0 6286c0,428 347,775 776,775 428,0 775,-347 775,-776l0 -5394c31,2 61,4 92,4 6,0 12,-1 19,-1l-1 5392c0,428 348,775 776,775 428,0 776,-347 776,-775l0 -2444 -1235 0 0 -3944 1300 0c61,-151 96,-317 96,-494l0 -2261c210,524 389,1245 541,2281 4,27 12,53 19,79l-29 0c-157,0 -286,129 -286,286zm-1972 -1817l-7 0 -408 -558 315 -2111c32,-85 46,-175 40,-266l53 -348 8 0 408 2725 -409 558zm2408 1770c121,150 307,243 509,243 31,0 64,-2 96,-7 169,-25 314,-113 413,-236l151 0c26,0 47,21 47,47l0 324 -1413 0 0 -324c0,-26 21,-47 47,-47l150 0z"/>
   <path class="fil6" d="M34815 1759c0,-971 -787,-1759 -1758,-1759 -971,0 -1758,788 -1758,1759 0,971 787,1758 1758,1758 971,0 1758,-787 1758,-1758zm-6043 8243c58,-342 309,-617 636,-714 -4,-56 -3,-113 8,-171 47,-236 370,-1531 663,-2691l342 -1944c152,-707 868,-1047 1477,-1064l6 0c0,0 214,1 399,36 194,37 363,130 363,130 449,218 878,668 931,1214 7,26 16,52 20,80 125,883 220,1440 480,1741 200,232 579,398 1221,529 120,-196 334,-328 580,-328 1064,0 1656,-107 1920,-346 255,-233 374,-762 492,-1596 4,-28 13,-53 20,-80 53,-546 482,-996 930,-1213 0,0 170,-93 364,-130 185,-35 399,-37 399,-37l5 0c609,18 1098,357 1250,1064 0,0 1068,4190 1155,4635 11,58 12,115 8,171 327,97 578,372 636,714l1314 0 0 3883 -5259 0 0 -3884 1314 0c57,-338 304,-611 627,-711 -214,-1068 -737,-2703 -877,-3062 -139,-358 -402,-239 -214,107 276,658 596,1741 827,2843 -253,132 -446,353 -541,621l-443 0c-318,-166 -576,-443 -662,-845l-333 -1556c-455,479 -1156,712 -2285,771 -97,268 -352,451 -640,451 -31,0 -62,-2 -93,-7 -1443,-197 -2280,-619 -2769,-1190l-38 42 -319 1489c-86,402 -344,679 -662,845l-443 0c-95,-268 -288,-489 -541,-621 231,-1102 551,-2185 827,-2843 188,-346 -75,-465 -214,-107 -140,359 -663,1994 -877,3062 323,100 570,373 627,711l1314 0 0 3884 -5259 0 0 -3883 1314 0zm2161 0c-54,-150 -184,-263 -345,-291 -127,137 -307,221 -500,221 -43,0 -87,-5 -132,-14 -147,-29 -274,-105 -369,-208 -160,28 -291,142 -345,292l1691 0zm941 4136l0 1271c-1,514 -417,930 -931,930l-1 0c-514,0 -930,-418 -930,-932l1 -1269 1861 0 0 0zm9042 -4136c54,-150 184,-263 344,-291 128,137 308,221 501,221 43,0 87,-5 132,-14 148,-29 274,-105 369,-208 160,28 290,142 345,292l-1691 0zm-941 4136l0 1271c1,514 417,930 931,930l1 0c514,0 930,-418 930,-932l0 -1269 -1862 0 0 0zm652 -12379c0,-971 -787,-1758 -1758,-1758 -971,0 -1758,787 -1758,1758 0,971 787,1758 1758,1758 971,0 1758,-787 1758,-1758z"/>
   <path class="fil6" d="M152275 127769l0 0c455,0 822,-370 822,-823l0 -227 1311 0c134,0 234,-124 204,-254l-1515 -6971 0 -1847 1326 579c79,35 161,51 245,51 110,0 219,-30 315,-88 456,-274 912,-548 1368,-822 667,-531 331,-1342 -483,-1139l-1245 749c0,0 -1982,-1011 -2565,-1262 -73,-31 -155,23 -155,104l0 0 0 946 -293 0 -608 0 -399 0 0 -946c0,-84 -88,-139 -163,-100 -689,350 -3289,1728 -3289,1728 -159,84 -274,235 -313,410 -38,176 2,360 112,504l1552 2029c120,157 302,239 486,239 60,0 121,-8 180,-26l-1273 5861c-28,131 71,253 204,253l1311 0 0 228c0,454 369,822 822,822l0 0c455,0 822,-369 822,-822l0 -228 397 0 0 228c0,456 369,824 824,824zm-2865 -8275l-1046 -1300 1046 -547 0 1847zm3892 -4980c58,-55 93,-132 93,-216 0,-127 -81,-236 -194,-278 64,-54 106,-136 106,-229 0,-133 -87,-245 -206,-283 63,-54 101,-135 101,-224 0,-133 -87,-245 -208,-284 42,-50 68,-117 68,-189 0,-154 -117,-279 -266,-295 27,-44 42,-96 42,-152 0,-165 -133,-298 -297,-298 -2,0 -2,0 -4,0l-1 -1c1,-11 1,-23 1,-34 0,-164 -132,-297 -297,-297 -17,0 -35,2 -51,5 -12,-7 -22,-14 -35,-21 -143,-212 -671,-289 -900,-289l0 0 0 0c-230,0 -758,77 -901,289 -13,7 -23,14 -35,21 -16,-3 -34,-5 -51,-5 -165,0 -297,133 -297,297 0,11 0,23 1,34l-1 1c-2,0 -2,0 -4,0 -164,0 -297,133 -297,298 0,56 15,106 42,152 -151,16 -266,141 -266,295 0,72 26,139 68,189 -121,39 -208,151 -208,284 0,89 40,170 101,224 -120,38 -206,150 -206,283 0,93 42,173 106,229 -113,42 -194,151 -194,278 0,84 35,161 93,216 -115,40 -199,150 -199,280 0,199 120,388 287,495 194,126 446,113 664,71 207,-40 411,-110 600,-203 2,-1 4,-1 7,-3 -218,-128 -330,-382 -385,-637 230,380 627,630 1076,630 450,0 847,-250 1076,-630 -54,257 -166,509 -385,637 2,2 4,2 7,3 189,93 394,163 600,203 219,42 471,55 665,-71 164,-107 287,-296 287,-495 -4,-130 -88,-240 -203,-280zm6223 6573l-645 -2013 -164 0 0 -110c320,-78 326,-394 326,-394 0,0 -121,142 -326,198l0 -87 -127 0 0 108c-6,0 -11,1 -16,2 -291,7 -422,-476 -788,-476 -341,0 -722,203 -968,231l0 -549c174,-27 308,-176 308,-358 0,-200 -163,-362 -363,-362 -201,0 -363,162 -363,362 0,192 148,347 337,361l0 542c-247,-39 -612,-227 -941,-227 -366,0 -496,483 -787,476 -24,-1 -46,-5 -68,-8l0 -102 -128 0 0 72c-173,-62 -273,-183 -273,-183 0,0 6,280 273,378l0 126 -163 0 -657 2013 -376 0c0,0 270,515 1236,515 965,0 1235,-515 1235,-515l-338 0 -645 -2012 -164 0 0 -97c26,3 53,4 82,4 476,0 546,-301 809,-301 208,0 447,227 734,322 289,96 116,104 435,5 294,-92 538,-328 750,-328 263,0 333,302 809,302 11,0 20,-1 30,-2l0 94 -163 0 -657 2012 -376 0c0,0 269,515 1235,515 965,0 1235,-514 1235,-514l-338 0zm-4713 0l-685 0 615 -1884 70 0 0 1884zm199 -1885l604 1884 -675 0 0 -1884 71 0zm3578 1885l-686 0 615 -1884 71 0 0 1884 0 0zm127 0l0 -1885 71 0 604 1884 -675 1 0 0z"/>
   <path class="fil7" d="M36295 60905l-17 -10 -13646 7931 2369 1366c2435,-448 4766,-300 6226,543 2521,1455 1500,4412 -2273,6606 -3769,2190 -8872,2791 -11392,1335 -1460,-841 -1725,-2193 -957,-3603l-2369 -1370 -13646 7932 15907 9183 -2354 1368c-2434,-446 -4765,-297 -6215,546 -2504,1455 -1456,4409 2343,6602 3799,2194 8903,2792 11407,1336 1450,-842 1704,-2190 921,-3602l2355 -1368c11726,6771 20288,11744 31795,18388l2348 -1366c-774,-1411 -524,-2761 927,-3605 2504,-1454 7609,-857 11407,1337 3798,2192 4847,5148 2343,6603 -1450,844 -3775,994 -6221,548l-2348 1366 15908 9184 13661 -7939 2369 1367c-763,1409 -499,2759 962,3602 2520,1456 7623,861 11396,-1333 3775,-2193 4785,-5150 2265,-6606 -1461,-843 -3787,-994 -6222,-545l-2369 -1368 13641 -7928 1 1 13645 -7930 -2364 -1365c-2434,449 -4766,300 -6231,-546 -2521,-1455 -1790,-4502 1979,-6692 3775,-2194 8999,-3075 11519,-1620 1465,846 1897,2567 1130,3978l2364 1365 13646 -7930 -15908 -9184 2349 -1365c2445,446 4770,294 6221,-548 2504,-1456 1455,-4410 -2344,-6603 -771,-446 -1597,-825 -2443,-1136 855,312 1689,694 2467,1144 3799,2193 4848,5148 2344,6603 -1451,843 -3776,995 -6221,548l-2348 1365 15907 9185 13661 -7939 2369 1367c-762,1409 -498,2760 962,3603 2521,1455 7623,860 11397,-1333 3775,-2194 4785,-5151 2264,-6607 -1460,-842 -3787,-994 -6221,-545l-2370 -1368 13647 -7930 -15908 -9184 -2354 1368c784,1412 529,2759 -921,3602 -2504,1455 -7613,860 -11412,-1333 -3799,-2193 -4843,-5151 -2338,-6606 1450,-843 3780,-992 6215,-545l2354 -1368c-12315,-7110 -19842,-11438 -31846,-18369l2349 -1365c2445,446 4770,295 6221,-548 2504,-1456 1455,-4410 -2344,-6603 -3798,-2194 -8903,-2791 -11407,-1336 -1450,843 -1699,2193 -926,3605l-2349 1365 -15907 -9184 -13646 7930 2369 1368c2434,-449 4767,-301 6226,542 2521,1456 1501,4413 -2274,6606 -3769,2190 -8871,2791 -11392,1336 -1460,-843 -1724,-2193 -957,-3605l-2369 -1368c-15569,9048 -5371,3126 -13069,7602l-14215 8262 -2363 -1365c762,-1414 493,-2762 -967,-3605 -2521,-1455 -7618,-857 -11392,1336 -3774,2193 -4790,5148 -2269,6603 1460,843 3792,992 6226,548l2364 1365 -13642 7928z"/>
   <g style="clip-path:url(#id2)">
    <g id="_973687152">
     <path id="1" class="fil8" d="M69393 106441c32,199 -25,506 227,620 243,119 176,708 141,835 -21,132 -71,319 98,485 161,169 -77,490 -112,617 -21,132 31,644 -18,831 -43,196 151,568 453,531 308,-27 739,302 499,621 -230,315 -56,688 162,766 221,83 740,469 959,484 240,14 1080,740 1350,899 250,163 1234,735 1407,1123 184,373 850,446 1003,455 171,4 974,144 1245,140 270,-4 874,-178 1371,768 480,954 1497,2719 1715,3063 222,349 272,758 230,890 -14,128 245,616 427,821 190,216 788,1090 1158,2333 351,1247 851,1868 949,2023 95,149 177,707 234,880 64,183 468,439 793,569 321,125 464,649 588,991 122,358 141,388 312,558 161,186 115,495 77,666 -23,162 296,813 681,1270 380,466 1137,1210 1184,1285 38,60 582,848 858,821 258,-25 382,367 1163,-172 210,-183 486,-358 701,-300 218,45 479,-305 695,-545 236,-242 33,-344 -355,-195 -379,149 -778,116 -1065,-38 -273,-149 -414,-438 -622,-550 -210,-98 -759,-218 -504,-858 252,-628 209,-1588 95,-1852 -123,-259 -264,-266 -429,-161 -165,104 -912,-310 -409,-1008 502,-698 -273,-1487 -538,-1605 -262,-115 -485,-301 -448,-606 50,-319 704,65 835,-489 114,-548 -513,-807 -469,-1017 50,-221 1368,-30 1271,-1523 -99,-883 -932,-921 -1157,-1059 -227,-142 -926,-266 -843,-451 68,-190 778,-33 1125,-15 329,22 893,0 875,-606 -6,-604 185,-768 -34,-1112 -216,-340 -155,-608 -39,-640 137,-32 161,-425 25,-1004 -119,-582 154,-1176 -268,-1476 -427,-310 -647,-723 -314,-1222 345,-500 9,-665 149,-809 149,-144 368,-179 344,-498 -15,-322 394,-439 460,-482 68,-43 475,-443 254,-876 -229,-422 -298,-896 -253,-1353 44,-446 -429,-1191 -705,-1624 -279,-439 -686,-699 -550,-1311 143,-601 125,-779 62,-1307 -54,-533 300,-569 -220,-1471 -525,-892 -988,-1123 -1157,-778 -165,336 -486,261 -886,94 -398,-182 -791,-351 -962,-242 -165,105 -346,696 -685,478 -325,-215 -472,66 -502,184 -26,109 -145,282 -427,-161 -277,-435 -625,-171 -766,-81 -135,86 -588,185 -809,135 -220,-49 -560,76 -685,491 -116,397 -366,367 -309,9 41,-364 218,-995 -89,-1079 -293,-100 -425,123 -745,-380 -323,-509 -1029,-628 -1872,-185 -859,449 -1255,422 -1513,297 -270,-109 -414,-436 -971,-271 -565,169 -951,-439 -1348,-187 -404,257 -862,877 -1070,631 -202,-251 -308,342 -736,181 -423,-152 -849,217 -716,510 141,288 527,745 208,856 -306,97 -381,-87 -522,-522 -134,-428 -196,-822 -398,-694 -195,124 77,617 -170,774 -225,142 -561,357 -379,808 129,304 -154,607 -202,914 -45,-38 -110,-71 -200,-91 -388,-82 -612,61 -988,446 -363,371 -220,512 -882,280 -668,-240 -620,-82 -908,-683 -295,-612 -467,-1909 -901,-1633 -427,271 -1115,758 -1329,935 -213,177 -467,206 -542,-209 -88,-420 174,-586 -162,-1115 -340,-534 -398,-1385 -889,-886 -483,496 -360,839 -255,1285 100,439 -118,493 -360,690 -243,196 -630,778 -1321,418 -697,-354 -1277,-686 -1474,-1212 -198,-526 -567,-957 -832,-1440 -256,-488 -409,-958 -255,-1245 139,-278 835,-1315 1381,-1431 538,-111 789,-81 430,-413 -361,-338 -30,-494 386,-716 423,-227 1052,-858 1474,-558 414,289 630,860 1064,1096 437,240 937,433 1110,276 190,-164 4,-754 -436,-1083 -456,-320 -1323,-974 -1479,-1351 -144,-376 -147,-893 171,-1368 306,-476 750,-1465 272,-2051 -467,-586 -846,-1430 -469,-1845 386,-435 799,-1405 366,-2019 -429,-610 -345,-1188 -8,-1402 336,-214 306,-195 437,-551 146,-381 337,-215 381,220 41,443 239,457 433,383 191,-80 42,-448 226,-901 191,-443 513,-879 652,-1107 135,-233 -402,-649 -885,-285 -390,296 -719,457 -831,346 -115,-116 57,-506 -178,-875 -231,-364 -844,-353 -967,-183 -113,170 -383,1084 -377,1457 0,379 -195,454 -336,446 -139,-3 -325,-445 -44,-1044 266,-589 199,-1157 518,-1450 330,-307 1006,-549 1313,-744 299,-190 650,-315 606,-665 -36,-355 -58,-671 189,-729 250,-69 287,385 417,954 130,568 77,980 267,1280 190,299 449,-6 714,-265 255,-261 849,-351 1167,-231 306,135 427,-271 404,-537 -24,-272 -208,-708 -529,-602 -311,106 -845,-304 -1268,-77 -411,213 -486,29 -372,-288 127,-312 385,-666 -314,-1006 -683,-364 -455,-418 -892,-610 -441,-182 -705,-679 -1189,-183 -490,501 -684,113 -953,53 -275,-70 -582,-337 -514,-660 64,-329 -63,-248 -471,-311 -426,-58 -982,-356 -1116,-649 -141,-288 -587,-510 -524,648 16,306 206,836 -324,879 -530,42 -797,1 -941,-292 -142,-288 -256,-930 -606,-623 -351,307 -692,103 -1239,101 -557,17 -1325,380 -1481,479 -150,96 -70,171 7,542 77,385 -10,861 370,913 373,57 526,380 441,693 -102,318 -34,359 470,542 499,187 1027,539 866,1229 -153,685 -403,887 60,1103 476,203 707,434 871,624 162,191 77,469 -101,835 -193,374 -661,83 -977,-66 -309,-140 -516,-681 -788,-760 -267,-90 -425,-157 -894,-152 -463,-1 -1693,-18 -1994,-78 -293,-81 -806,203 -1086,340 -297,146 -473,133 -683,-197 -209,-329 -291,-276 -545,-115 -232,148 -464,-217 -673,-546 -209,-329 -405,-751 -286,-1177 117,-411 -19,-955 -174,-1066 -155,-112 -92,-277 166,-400 259,-123 536,-382 769,-874 229,-482 -168,-1322 -173,-1528 -13,-217 -113,-574 290,-536 403,39 839,-267 890,-649 72,-382 -196,-590 -360,-780 -170,-186 -119,-387 -59,-474 89,-91 -53,-513 -408,-328 -356,184 -488,225 -792,292 -289,58 -305,446 -102,485 196,44 -31,447 -29,698 -5,256 359,697 -4,802 -349,96 -722,-424 -866,-718 -142,-288 -511,-390 -783,-174 -296,230 -429,483 -645,326 -230,-148 64,-546 -290,-573 -360,-37 -1474,-253 -1630,14 -171,276 -108,1301 425,1214 541,-91 1417,-102 1151,621 -261,712 323,740 46,1147 -276,407 -343,-307 -1210,244 -853,542 -1260,647 -1684,692 -426,40 -1069,449 -1311,679 -230,217 -112,534 217,689 335,180 -7,467 -7,467 0,0 -1012,-36 -1379,196 -381,243 -1014,569 -1255,421 -245,-153 -784,-258 -1358,29 -569,278 -1206,234 -1910,682 -703,447 -1675,687 -2025,979 -347,298 -564,898 -749,1086 -182,193 -658,39 -629,547 19,527 -40,781 -467,604 -424,-186 -2109,353 -3124,921 -996,564 -1847,1028 -2864,1212 -1012,195 -1894,1204 -2135,1518 -255,309 -453,792 -555,1326 -80,535 -275,609 -447,768 -198,168 -413,788 256,650 666,-143 990,-160 1382,-73 392,86 993,272 369,480 -640,217 -969,146 -1294,444 -330,308 -167,863 176,1037 335,165 736,99 1065,-110 344,-219 802,-986 973,-717 171,270 386,757 161,1047 -254,294 -622,773 -874,1270 -252,496 465,566 921,556 482,-19 1226,-254 1403,159 171,416 421,447 822,-46 398,-499 1081,-1458 924,-118 -150,1335 -519,2242 -785,2600 -244,344 -488,786 -257,787 232,-1 251,-68 630,-646 394,-586 960,-1366 1108,-2175 155,-813 770,-1631 438,-1855 -320,-223 -228,-1053 -134,-1203 83,-151 218,-237 272,212 44,449 140,667 245,601 97,-62 104,-199 386,-665 263,-462 345,-648 253,-792 -85,-135 -115,-396 296,-510 397,-119 974,95 1641,-196 672,-280 1182,-751 1716,-755 518,7 723,164 1083,-162 363,-322 897,-94 1438,178 566,264 2135,1459 2925,1726 785,259 605,373 891,675 280,291 522,424 954,675 440,245 1699,1399 2425,2458 721,1068 1472,1789 2357,2220 895,433 1524,796 1966,614 452,-197 706,-112 1213,322 510,438 1912,1586 2354,1768 447,192 2132,1222 2266,906 120,-308 -265,-484 -750,-652 -482,-162 -1266,-834 -1928,-1115 -642,-284 -1340,-737 -1201,-1014 146,-283 1195,458 1703,696 534,228 1943,825 2723,1176 777,346 1166,429 1385,990 216,570 1207,592 2137,567 909,-23 1792,-256 2016,-266 247,-10 490,-122 490,-486 -7,-374 513,-234 845,-74 337,164 1267,224 1671,-33 389,-248 804,-190 1181,90 366,278 799,760 1184,705 389,-66 842,67 1263,-13 415,-74 427,10 610,-528 170,-526 629,-532 764,-485 18,8 34,9 49,4 26,58 67,115 126,173 477,453 649,245 730,669zm-17077 -26105c-151,11 -368,-82 -319,-253 52,-167 140,-243 267,-240 130,-13 81,-73 153,-224 91,-155 157,-330 357,-100 192,221 -34,428 -118,376 -87,-36 -235,-5 -240,153 5,157 -12,294 -100,288zm-75 726c-74,-183 -188,-329 -339,-170 -158,164 -5,340 82,460 98,105 251,113 361,22 95,-81 -64,-232 -104,-312zm-12796 -2561c-68,274 -487,-55 -488,-139 -12,-69 -37,-305 255,-161 288,139 258,158 233,300zm250 906c173,-41 239,128 316,366 67,238 -182,241 -496,112 -333,-111 -147,-397 180,-478zm-2113 -2860c282,178 472,394 282,640 -181,228 -357,17 -501,-94 -142,-107 -53,-744 219,-546zm1104 -380c225,-44 555,229 486,301 -71,87 -325,249 -485,196 -173,-57 -167,-461 -1,-497zm5 -2041c229,359 430,14 542,-57 119,-76 -238,-374 -399,-314 -169,65 -251,201 -143,371zm-2470 21302c-378,-181 -857,-388 -511,-538 368,-150 281,-220 908,5 620,215 1132,625 1183,705 57,90 -50,319 531,769 573,455 1520,904 919,802 -606,-111 -1196,-262 -1510,-839 -322,-573 -629,-659 -999,-795 -364,-125 -223,30 -521,-109zm21531 -23612c-263,-85 -477,-173 -444,-699 46,-540 -264,-680 309,-637 569,51 1064,52 799,662 -278,617 -225,801 -664,674zm56510 17396c102,458 -168,1157 -433,1401 -275,245 -105,993 -19,1127 89,140 999,414 897,1048 -93,648 -190,709 301,1202 503,493 737,729 1083,775 341,57 546,-115 615,-552 68,-422 158,-709 -256,-1412 -408,-708 -636,-716 -555,-1188 85,-475 -104,-706 -303,-1152 -213,-448 -281,-790 -272,-1070 31,-284 -238,-345 -545,-695 -301,-341 -846,-918 -513,516zm-29729 -25133c-142,7 -134,-412 -31,-561 104,-151 157,-548 281,-220 127,332 30,758 -250,781zm1198 11917c157,-100 -167,-461 -287,-385 -127,81 -200,330 -94,431 98,105 254,35 381,-46zm1823 -1643c-138,-150 -436,-339 -480,-310 -61,38 -468,-74 -311,239 154,309 238,753 550,750 343,-7 507,-392 241,-679zm2564 297c-287,-105 -333,-524 -582,-337 -251,201 -935,678 -487,722 438,58 533,-170 766,-150 205,24 455,-177 303,-235zm3658 -938c-299,190 -662,132 -618,-62 43,-182 45,-310 434,-361 387,-35 784,-287 704,-34 -77,260 -295,314 -520,457zm2411 -1366c-168,65 -237,-471 -28,-604 210,-134 689,-802 603,-341 -75,460 -421,890 -575,945zm60808 -9277c300,90 569,-228 569,-228 0,0 -206,-275 -631,-300 -431,-33 -537,132 -469,320 82,179 287,139 531,208zm4143 715c127,151 -24,197 -97,376 -61,186 78,323 308,387 224,54 507,-29 494,-315 -29,-275 -313,-557 -458,-654 -157,-83 -360,47 -247,206zm-42986 9666c33,282 43,562 189,791 143,225 690,522 831,565 146,46 192,-213 283,-564 91,-354 236,-424 -292,-676 -536,-262 -1047,-505 -1011,-116zm12913 -49981c325,-186 620,-366 582,-489 -38,-130 -37,-489 -471,-213 -448,285 -755,249 -793,617 -33,378 162,373 682,85zm-12448 4201c-247,23 -1072,-19 -557,-382 504,-363 756,-362 1015,-484 260,-138 534,-270 692,-20 162,254 194,304 -226,571 -411,261 -706,295 -924,315zm-2410 1777c265,-126 532,-269 860,-547 314,-284 246,-472 476,-590 243,-112 276,-175 173,-453 -98,-288 -495,-351 -783,-126 -280,220 -820,-67 -698,290 105,361 36,320 -289,337 -344,23 -495,231 -588,564 -101,337 444,698 849,525zm-17223 5715c-194,123 -256,359 -66,441 168,82 332,-22 436,-88 121,-77 267,-211 72,-319 -179,-117 -398,-62 -442,-34zm1103 -1521c79,-239 11,-280 -247,-389 -273,-99 -681,-576 -896,-285 -203,290 -580,558 -569,1070 3,502 -19,747 293,745 303,-4 455,103 833,-95 365,-204 507,-841 586,-1046zm1995 645c-192,-172 -198,-147 -191,-502 -4,-355 -235,-467 -658,-241 -439,237 -830,-18 -1084,690 -263,713 -788,928 -314,1046 466,139 555,-37 1173,74 625,108 782,323 1001,-159 197,-483 250,-748 73,-908zm967 477c336,-213 377,-316 691,-516 299,-189 332,-336 43,-658 -287,-321 -515,-449 -894,-251 -379,213 -620,-299 -558,166 57,468 193,500 214,1076 11,581 -27,752 155,678 184,-75 192,-395 349,-495zm-13173 16366c-2,99 23,336 289,209 267,-142 400,-101 394,-370 -17,-262 -271,-528 -465,-405 -195,124 -215,326 -218,566zm-2421 -8946c168,96 279,173 384,106 104,-66 85,-97 -218,-408 -317,-303 -526,-331 -341,-603 167,-267 -35,-55 -122,-356 -65,-302 -114,-313 170,-725 285,-412 -178,-825 -411,-516 -230,300 -304,810 -427,1048 -125,234 -383,356 -297,575 101,209 -88,406 318,302 411,-100 420,48 593,253 170,201 237,242 351,324zm943 -600c255,-162 -203,-501 -317,-499 -120,-7 -507,162 -329,441 174,274 228,359 342,371 120,-7 222,-260 304,-313zm649 -104c-172,109 -337,214 -297,343 43,133 255,153 427,44 165,-105 -18,-459 -130,-387zm246 -1795c199,132 207,-6 432,-310 238,-306 227,-26 -104,-480 -329,-450 -484,-827 -712,-640 -243,196 -157,331 -191,625 -41,299 292,592 575,805zm-254 1254c314,-200 539,-343 229,-567 -302,-242 -304,-478 -371,-583 -72,-115 -339,-534 -610,-362 -276,175 129,465 64,710 -88,244 -121,307 49,704 168,397 339,288 639,98zm-2403 2038c164,-6 240,-236 164,-419 -75,-184 -263,-218 -409,-83 -152,125 52,513 245,502zm-356 731c263,-69 -46,-440 -151,-373 -105,66 -301,191 -193,361 105,164 252,29 344,12zm-1036 70c208,-349 221,-329 462,-679 242,-343 141,-440 -64,-695 -195,-275 -353,-755 -505,-266 -156,484 -8,782 -389,793 -390,17 -953,-60 -1322,448 -371,509 -1033,1203 -569,1140 478,-74 789,-229 989,-279 217,-54 25,-93 144,-400 110,-308 394,-488 458,-256 64,232 401,879 796,194zm6382 4404c-171,11 -701,54 -711,-555 -1,-631 28,-684 179,-1207 125,-514 -199,-232 217,-1000 407,-763 642,-1186 1132,-1770 490,-585 1043,-740 937,-1303 -114,-544 -482,-625 -820,-298 -332,337 176,476 -391,921 -571,439 -961,884 -1171,1052 -198,167 -564,828 -830,1271 -265,441 -31,1111 -115,1473 -74,362 31,758 -214,1068 -234,310 -271,1111 197,1052 471,-69 729,40 1316,-144 601,-178 991,-357 951,-486 -50,-114 -412,-88 -677,-74zm-14887 5556c83,-4 116,-382 -16,-768 -154,-379 -361,-1298 -323,-1517 28,-222 171,-312 447,220 271,542 606,525 907,306 292,-221 198,-631 -266,-882 -454,-251 -893,-546 -1215,-755 -330,-189 -501,-459 -343,-622 163,-175 639,574 746,-166 101,-751 328,-1399 -258,-1363 -586,36 -1234,7 -1555,477 -304,466 -57,856 -597,1094 -527,230 -1102,-245 -969,476 120,736 214,1461 628,1632 409,181 981,56 1149,488 173,436 259,655 688,915 441,266 776,494 977,465zm-5591 13913c187,-449 417,-847 600,-1088 168,-234 167,-682 -167,-693 -323,-12 -910,-326 -1021,-51 -124,267 -130,488 -509,603 -378,114 -904,197 -836,503 80,307 -28,467 -248,221 -216,-241 -441,-364 -518,77 -81,436 -406,832 -55,771 338,-61 539,105 366,215 -187,119 310,56 485,70 170,18 180,594 700,354 526,-230 995,-465 1203,-982zm56858 -20782c-59,-26 103,-248 103,-248 0,0 206,9 403,-46 177,-36 347,-116 314,-333 -32,-232 -108,-288 144,-449 255,-162 450,-286 239,-404 -212,-117 -212,-432 -578,-129 -382,306 -224,324 -606,168 -380,-151 -761,-519 -836,-324 -90,205 18,276 292,459 258,193 400,384 377,545 -50,172 96,150 -20,300 -129,144 -186,118 -235,324 -51,200 -13,359 83,410 107,37 268,75 379,-30 109,-112 49,-207 -59,-243zm-747 6659c-213,-202 -527,-548 -293,-808 237,-256 319,-489 393,-817 81,-339 100,-308 411,-548 313,-229 582,-188 524,-510 -63,-316 -6,-457 103,-814 97,-342 197,-616 223,-989 9,-363 -64,-779 -213,-1014 -143,-224 -320,-434 -162,-569 173,-138 299,-155 558,37 259,193 595,589 473,842 -127,262 -144,302 33,581 181,284 387,643 470,773 79,124 222,812 -193,1151 -431,345 -683,330 -704,413 -10,85 86,366 -12,610 -100,240 -223,211 -316,96 -120,-105 -374,-225 -250,-93 130,135 133,273 34,482 -126,214 -61,649 -264,491 -217,-156 -387,-259 -291,-390 92,-136 -34,-187 -191,-18 -136,149 -324,268 -124,366 200,83 346,312 431,547 67,236 173,483 -125,645 -300,155 -266,-40 -305,-197 -33,-154 -114,-179 -210,-267zm-165 6170c-125,-130 -276,-434 -244,-664 25,-225 -31,-478 41,-564 62,-69 224,-143 322,194 110,321 146,657 295,843 160,185 -15,652 -414,191zm-2524 4379c168,146 251,161 434,5 183,-144 276,-344 206,-552 -28,-99 -68,-253 -127,-369 4,-16 9,-30 13,-42 60,-172 -363,-406 -504,-498 -140,-88 -266,-419 -106,-612 156,-185 609,-527 721,-915 119,-391 715,-546 732,-1376 23,-827 -191,-1874 -99,-2206 101,-338 -168,-1126 -415,-1514 -241,-380 -886,-749 -1309,-1068 -423,-319 -1048,-293 -794,-902 235,-605 198,-813 362,-917 157,-100 44,-574 -267,-419 -314,151 -688,620 -774,765 -96,146 -206,40 -584,-174 -359,-235 -263,-513 59,-718 321,-204 48,-1627 373,-1329 327,296 484,414 775,228 292,-185 506,-279 809,33 290,320 1045,568 1234,1079 192,515 419,874 677,438 265,-442 340,-953 185,-1344 -160,-402 -786,-459 -1175,-577 -387,-112 -535,-346 -428,-673 100,-337 168,-794 222,-1290 50,-480 -265,-925 140,-853 396,64 775,-2 867,-782 91,-786 279,-2405 81,-3098 -206,-689 -306,-1123 -598,-1483 -277,-370 -36,-523 -449,-1172 -409,-644 -865,-767 -1052,-648 -203,129 -199,498 -730,506 -532,23 -864,276 -656,-388 201,-675 564,-1823 522,-2384 -35,-566 -54,-961 448,-1378 513,-417 1250,-381 1586,-595 322,-204 270,-353 214,-507 -42,-148 18,-186 183,-291 157,-100 572,-91 472,246 -101,338 86,352 464,20 380,-325 411,-576 625,-670 216,-89 97,-475 -42,-429 -154,56 -278,-139 -116,-332 150,-194 212,-591 263,-1071 46,-492 282,-551 423,-542 137,-3 565,-632 577,-234 24,384 308,533 438,177 130,-356 319,71 117,745 -217,684 -108,1203 -469,1706 -357,500 -71,1313 355,1686 413,369 833,964 1197,1320 367,362 574,819 731,586 160,-242 252,-1022 148,-1270 -119,-254 291,-417 115,-760 -187,-344 254,-526 -43,-926 -310,-391 -423,-732 -131,-967 317,-244 -206,-555 -552,-966 -355,-412 -329,-1016 -84,-1404 252,-384 559,-495 655,-773 91,-289 355,-499 625,-439 263,49 501,-4 528,-525 28,-516 639,-994 736,-1469 109,-476 497,-821 864,-956 363,-140 292,-598 -135,-776 -431,-181 -760,-203 -498,-503 257,-303 635,-634 295,-873 -331,-239 -35,-567 261,-398 288,189 381,-95 621,-247 225,-143 723,213 1130,143 404,-76 555,-402 498,-639 -63,-233 -263,-330 56,-624 315,-298 306,-607 -50,-739 -367,-130 -861,-48 -1130,173 -265,210 -647,320 -1052,261 -397,-62 -1662,196 -2051,212 -388,16 -1086,144 -1594,369 -486,225 -1138,409 -1251,662 -101,254 -63,313 113,524 173,205 263,561 -6,634 -273,82 -847,-323 -1293,-82 -441,231 -1403,570 -1633,1080 -207,503 -289,688 -596,421 -300,-258 -1086,-851 -1779,-319 -709,535 -1248,1207 -1616,1258 -377,51 -932,-822 -1535,-348 -614,489 -921,999 -1290,779 -366,-230 -944,-493 -1169,-350 -223,142 -363,1001 -153,1330 203,319 285,449 47,734 -229,284 -817,435 -1053,626 -235,192 -1081,282 -969,890 117,611 -81,465 -544,430 -472,-15 -776,3 -944,-394 -157,-398 -878,-389 -1371,-173 -505,230 -932,319 -778,726 165,392 -182,571 -433,674 -243,112 -1344,365 -1777,542 -428,188 -1109,704 -1388,608 -290,-89 -542,-419 -717,182 -160,607 -516,112 -191,-465 315,-565 666,-872 418,-1261 -247,-390 -555,-509 -1130,-143 -592,376 -1396,1244 -1494,809 -101,-440 -303,-543 -683,-301 -390,248 -836,489 -872,926 -49,437 -121,392 -401,661 -284,279 195,604 -302,878 -498,274 -1007,269 -1322,700 -320,435 -837,848 -1270,1438 -435,606 -1223,1513 -812,1665 409,146 57,454 -294,677 -352,223 -753,520 -648,685 105,165 750,252 649,590 -116,346 -1169,-119 -1418,215 -244,344 -214,738 -102,981 107,248 -369,410 -576,-46 -199,-463 -600,-383 -505,47 94,445 828,1470 1191,1744 363,273 1178,1205 1129,1691 -59,486 -86,875 -538,1253 -449,369 -662,246 -379,-166 284,-411 452,-875 119,-1399 -330,-519 -1071,-1454 -1270,-1504 -217,-44 -372,-351 -453,-762 -65,-414 -282,-591 -633,-285 -345,318 -666,522 -534,1076 127,549 -149,1271 472,1604 625,339 1131,423 1029,628 -100,190 -1365,265 -1657,234 -307,-36 -867,222 -1197,348 -326,116 -599,331 -154,454 443,132 121,337 -149,508 -254,162 -1081,730 -1167,875 -82,151 -315,432 -439,237 -123,-194 -542,-292 -848,449 -307,742 -590,1370 -504,1504 82,130 -452,561 -608,253 -156,-314 -705,-469 -873,-320 -170,164 -316,663 -19,699 299,40 388,530 198,742 -187,203 -482,761 -541,1016 -60,269 -336,1537 -962,1760 -647,222 -708,-601 -1112,-659 -404,-58 -150,-450 351,-538 488,-93 967,16 1257,-799 284,-825 -368,-859 -872,-811 -512,52 -2313,377 -2699,482 -382,110 -843,-830 -2014,55 -1167,874 -2391,1611 -2576,3234 -201,1620 -375,2998 -338,3619 27,621 473,1108 -211,1949 -696,855 -504,1371 -95,2014 415,653 869,1500 1427,1005 553,-485 695,-1037 611,-1383 -89,-356 480,-172 659,260 184,423 795,673 969,877 187,196 610,746 812,485 206,-271 123,-534 201,-989 67,-456 444,-640 2,-1136 -449,-492 -349,-682 -229,-856 116,-165 367,-913 -165,-890 -531,8 -772,-287 -903,-428 -133,-146 -465,-384 -135,-922 344,-534 302,-1326 208,-1673 -82,-361 89,-785 455,-1018 352,-224 973,-388 761,203 -216,585 -609,1970 32,2613 623,647 914,1240 1209,548 284,-678 730,-1052 1082,-1374 350,-307 808,-283 891,-153 85,135 -191,758 -704,1043 -501,269 -1051,395 -826,749 228,359 542,159 720,635 168,482 -221,862 -441,596 -213,-265 -309,-848 -535,-607 -215,221 137,775 134,1135 0,364 128,696 434,732 258,32 -44,169 -127,477l-12 -3c1,18 1,36 1,53 -3,18 -5,36 -6,55 -1,9 2,19 6,31 -11,279 -107,453 -284,475 -201,30 -215,74 -485,378 -287,309 -441,547 -547,677 -110,140 -320,106 -484,147 -160,31 -323,37 -375,336 -70,304 -99,259 -271,236 -169,-20 -341,55 -646,-157 -285,-218 -301,-839 -434,-1048 -140,-220 -259,-571 -348,-746 -88,-189 -198,-14 -250,251 -60,269 -499,653 -108,1070 387,426 719,538 906,832 180,284 385,554 209,623 -173,75 -620,563 -763,786 -146,233 -194,354 -87,721 117,367 39,311 -124,485 -181,178 -531,569 -407,861 117,283 -32,280 -110,638 -61,333 -120,307 -296,377 -173,74 -179,247 -11,413 158,166 28,108 -192,291 -240,187 -435,374 -638,503 -201,128 75,415 376,328 289,-93 653,-16 858,156 200,166 254,104 426,127 170,19 544,180 689,487 142,323 124,462 245,685 111,223 -1,295 -409,463 -399,149 -720,289 -1002,406 -282,102 -468,192 -639,434 -161,243 -269,171 -380,410 -97,230 142,372 336,480 203,102 334,460 476,601 164,126 260,606 329,862 65,253 404,373 485,616 103,243 297,351 476,237 181,-114 563,-421 786,-269 226,158 384,58 495,-146 124,-218 756,-250 718,-624 -47,-370 214,-704 146,-990 -62,-297 218,-537 -69,-656 -267,-139 -235,-355 -200,-581 46,-225 108,-621 234,-870 126,-248 197,-335 10,-679 -179,-348 -167,-328 -17,-591 147,-262 274,-342 485,-308 211,33 379,-101 450,-252 60,-136 119,-341 194,-389 68,-43 88,-189 65,-342 -38,-144 88,-260 286,-246 188,14 389,118 741,391 379,264 856,388 1032,416 173,23 385,-140 669,-89 292,45 926,301 1006,327 66,21 231,280 284,513 57,237 165,491 242,182 81,-318 -32,-414 -23,-482 21,-84 31,-398 -175,-393 -219,6 -323,-159 -332,-322 -17,-157 150,-193 269,-205 126,-18 323,60 331,-43 -10,-99 -228,-191 -381,-185 -160,-4 -455,-19 -578,-32 -137,-18 -140,-219 -429,-64 -280,137 -550,-21 -727,-104 -183,-88 -560,-352 -766,-312 -198,21 -374,6 -436,-290 -56,-301 -181,-285 -56,-533 127,-248 262,-201 365,28 117,234 354,-351 631,-65 276,287 945,366 1143,380 193,3 671,-104 859,-56 189,48 579,3 559,381 -20,383 307,371 626,540 328,155 717,434 885,698 165,260 461,380 599,152 149,-228 612,-725 297,-924 -316,-199 -584,-224 -842,-397 -268,-158 -330,-420 -81,-410 263,1 -178,-427 269,-634 425,-207 583,141 776,-234 185,-370 632,-724 296,-756 -328,-22 -580,-72 -637,-358 -3,-21 -32,-62 -81,-118 -44,-120 -54,-238 -7,-352 56,-175 7,-550 -31,-841 -46,-286 209,-315 105,-697 -113,-391 -226,-635 119,-720 355,-86 677,74 704,330 30,247 225,354 494,414 263,49 295,-328 344,-681 53,-349 18,-600 -225,-487 -244,113 -143,-456 141,-637 300,-190 679,-25 597,343 -91,386 188,658 518,532 336,-115 696,104 1050,19 345,-87 862,-2 813,436 -36,436 -228,418 -725,691 -513,285 -1190,211 -1677,521 -487,309 -460,565 -550,853 -86,279 -490,221 -609,745 -124,533 -108,755 -284,909 -171,157 -321,799 217,1003 544,194 1116,103 1386,163 270,60 217,-369 697,-541 481,-166 637,9 882,-463 254,-476 479,-620 427,-271 -60,354 297,765 502,1088 203,319 207,822 327,1159 116,332 363,357 651,579 278,237 495,1010 822,1159 333,161 745,445 1097,669 371,220 903,114 1390,666 488,551 922,955 1397,924 483,-33 901,247 1209,599 307,350 681,1071 1061,1238 381,169 397,692 854,269 454,-428 970,-1249 1240,-1966 278,-722 722,-2005 991,-2311 266,-309 183,-703 108,-1119 -71,-409 103,-696 95,-1006 -22,-315 -154,-588 -655,-817 -509,-222 -883,114 -1116,-152 -214,-270 -636,-505 -689,-240 -67,259 20,891 -283,1124 -300,240 -471,349 -779,-135 -311,-489 -382,-534 -675,-432 -298,92 -800,-37 -1135,-280 -343,-245 -593,-358 -433,-817 170,-472 498,-93 734,80 246,158 909,192 1172,389 264,203 748,253 1095,-109 368,-366 727,-594 930,-407 206,191 502,359 837,14 319,-343 447,-424 649,-321 200,102 415,-124 706,-408 277,-259 351,8 644,-410 290,-401 512,-269 782,8 266,286 423,319 617,196 188,-120 204,186 390,397 173,206 503,444 794,259 300,-191 265,-575 422,-759 151,-193 263,50 514,578 247,520 836,1381 1508,1857 665,486 1569,1047 1894,1429 341,385 918,1012 1113,889 194,-124 186,-482 230,-1008 20,-516 -5,-635 -202,-1012 -194,-375 -16,-620 -413,-1013 -375,-391 -533,-839 -330,-1016 213,-177 342,-618 175,-882 -165,-259 -94,-578 37,-933 131,-357 358,-725 185,-1295 -190,-565 -74,-681 218,-784 313,-100 549,-292 467,-568 -75,-269 167,-515 426,-174 258,339 454,434 851,413 116,-9 229,15 336,62 -166,129 -262,205 -262,205 253,399 632,432 822,730 191,299 453,827 730,587 8,-8 16,-16 24,-25 74,34 146,34 212,-19 134,-104 141,-325 140,-528 34,10 74,25 120,47 498,236 852,363 1278,784 406,443 1000,1045 1069,1486 73,444 -144,302 772,770 919,451 820,726 1363,1150 540,421 1023,401 1357,400 350,-13 159,-313 -269,-671 -442,-349 -695,-748 -1362,-1018 -649,-280 -1299,-79 -1815,-1220 -502,-1138 -788,-1454 -307,-1261 466,186 1710,509 2094,685 393,169 683,-364 986,-1111 294,-746 72,-1095 -680,-1598 -260,-181 -561,-337 -853,-473l5 -4 82 -150c0,0 -1159,-488 -1550,-794 -66,-161 -102,-344 -98,-517 55,-237 154,-521 193,-786 216,-206 324,-337 267,-350 -156,-35 -215,55 -252,201l1 -19c25,-471 294,-545 546,-215 273,332 251,296 190,796 -27,228 -16,342 36,402 27,74 93,151 206,244zm5514 1664c-17,-178 -81,-277 13,-407 99,-127 64,-182 -49,-362 -114,-179 -241,-161 -208,105 30,260 -92,268 -17,536 63,281 -187,547 -103,745 91,194 130,204 244,-78 100,-288 143,-272 120,-539zm607 -1178c-161,-254 -439,-505 -47,-502 400,-1 499,40 707,55 217,-6 175,275 178,560 0,280 -287,392 -420,232 -129,-170 -304,-165 -418,-345zm913 -859c-83,-130 -115,-181 -280,-258 -160,-72 -318,-154 -121,-306 186,-156 141,-344 383,36 244,384 443,748 519,817 77,56 -308,15 -501,-289zm-2103 -765c-194,-270 -211,-580 -191,-909 39,-354 -131,-273 -322,-508 -185,-241 -113,-244 -378,-118 -278,142 -207,306 -163,489 49,193 320,554 383,653 67,105 -299,191 -19,369 297,169 511,355 729,530 224,174 221,71 397,-68 144,-135 274,-280 610,-214 331,76 332,-71 184,-222 -175,-142 -446,-221 -625,-73 -190,163 -415,307 -605,71zm3612 2544c-113,-97 -110,-141 -149,-367 -46,-223 -143,-589 -307,-697 -176,-97 -253,-335 -387,67 -135,414 -315,380 -519,686 -203,311 -108,608 226,424 356,-184 446,-241 513,30 83,278 319,156 529,204 206,43 300,-191 94,-347zm2202 2123c-220,-147 -450,-211 -409,-595 48,-386 65,-293 323,-100 275,183 397,210 370,514 -24,311 24,385 -284,181zm12146 -2593c-67,-106 -200,-118 -240,-31 -47,108 1,184 161,187 146,17 127,-81 79,-156zm1470 32c158,117 410,19 410,19 0,0 -64,-168 -201,-152 -138,11 -272,67 -209,133zm-486 -336c-197,56 -497,-5 -340,-105 157,-100 341,-174 490,-137 134,62 -150,242 -150,242zm3411 1299c-208,-127 -165,-358 -105,-396 36,-24 144,13 240,163 101,160 112,392 -135,233zm4888 -341c-88,-238 200,-561 280,-569 68,-8 201,201 94,331 -88,127 -330,357 -374,238zm258 802c-134,86 -578,116 -359,-170 212,-275 248,-402 388,-247 129,170 68,356 -29,417zm-20338 2450c-189,197 -468,123 -226,-107 253,-231 323,-234 539,-343 220,-98 531,125 259,194 -274,66 -402,79 -572,256zm-483 414c-72,170 -189,50 -317,131 -127,81 -64,-100 33,-232 92,-135 144,-168 273,-131 115,31 60,94 11,232zm16144 12025c320,-57 402,23 510,-255 115,-282 106,-493 318,-160 206,325 342,637 350,913 -5,290 6,639 -333,568 -328,-71 -562,-323 -791,-421 -234,-103 -1001,-464 -54,-645zm9415 -4725c-54,231 172,319 46,685 -126,362 -286,392 -220,778 63,380 290,1133 -151,1266 -453,148 -772,140 -831,212 -55,64 -260,88 -269,-325 -23,-414 -220,-724 213,-1101 437,-385 540,-836 426,-1197 -119,-351 -10,-562 -136,-760 -130,-205 -227,-571 96,-462 325,116 504,-278 647,-53 146,228 271,542 179,957zm-1400 -2928c-273,-1 -248,-226 -571,-337 -328,-120 -710,-158 -658,-373 42,-201 173,-110 519,-78 340,37 526,101 669,324 146,230 370,404 454,386 94,-20 333,110 556,149 230,29 435,5 530,-308 88,-309 307,-328 346,66 53,394 -134,548 -118,819 35,272 3,502 103,726 103,214 -16,472 -205,487 -212,30 -159,-185 -333,-293 -171,-101 -396,-456 -614,-388 -207,55 -112,-75 -22,-314 107,-243 -362,-869 -656,-866zm-7212 -4372c492,113 622,135 832,38 216,-109 138,-298 -178,-280 -304,19 -325,32 -720,-75 -386,-111 -549,-189 -610,-117 -47,74 380,368 676,434zm-6988 -4483c-228,41 -305,-15 -447,-206 -152,-190 -260,-226 126,-115 394,108 618,-34 668,143 50,177 -49,136 -347,178zm-1890 698c133,-106 358,-760 373,-916 4,-144 191,-263 -113,-392 -298,-124 -256,-125 -297,259 -47,388 58,356 -164,568 -219,216 -216,388 -364,517 -123,121 274,185 565,-36zm-7237 1987c-207,-78 -161,-254 69,-505 235,-256 561,-504 754,-200 197,310 200,413 538,514 354,96 444,74 472,-232 15,-289 -118,-563 122,-750 229,-186 449,-251 787,-317 344,-86 1016,-51 1428,-131 401,-80 879,-173 1283,-31 418,128 1227,144 1180,385 -62,249 56,533 423,549 370,19 1131,207 1280,295 153,76 315,331 -98,343 -407,19 -614,256 -912,117 -302,-125 -541,-371 -1033,-270 -499,108 -756,201 -614,390 153,192 25,420 -326,643 -360,229 -542,58 -841,99 -277,44 -49,320 -505,-35 -476,-335 -503,-276 -664,-530 -162,-255 -533,-96 -917,-104 -392,13 -428,-44 -935,0 -512,38 -917,358 -931,88 -33,-267 -366,-230 -560,-318zm-3146 3877c-57,-238 -148,-332 -395,-491 -247,-172 -188,-525 -280,-719 -84,-198 -89,-371 -274,-714 -173,-353 -525,-444 101,-814 615,-357 936,-413 1050,-695 94,-284 536,-565 334,-38 -204,521 -282,466 -697,654 -406,187 -712,453 -504,712 196,259 657,43 806,-86 124,-121 369,19 226,354 -140,341 -155,601 158,614 329,2 931,-24 763,404 -165,421 -296,477 -612,215 -314,-264 -559,-648 -428,-232 122,426 471,695 217,856 -255,162 -384,321 -465,-20zm1469 1337c113,-57 428,-90 513,-202 107,-115 96,-213 189,-267 89,-41 216,-269 21,-180 -167,84 -324,184 -486,244 -168,65 -296,126 -407,253 -114,136 18,241 170,152zm174 603c-135,2 -445,10 -312,-95 146,-100 201,-212 344,-184 134,25 294,1 299,89 8,79 -234,192 -331,190zm1185 -879c123,-520 101,-702 390,-1025 282,-334 551,-751 371,-194 -190,562 -315,696 -409,995 -104,317 -439,630 -352,224zm-1915 985c-104,186 -439,237 -583,77 -144,-147 173,-257 316,-347 135,-86 515,-181 267,270zm-3372 -1436c570,-424 962,124 1092,-695 116,-808 222,-1023 -167,-1418 -393,-388 -483,-283 -265,-568 209,-280 -259,-620 -571,-813 -316,-200 -220,-498 -163,-738 45,-226 -173,-422 -552,-622 -387,-210 -463,-15 -572,259 -129,276 264,713 17,1018 -248,304 -47,619 -255,856 -207,221 -453,377 -301,682 147,298 46,305 -280,422 -312,101 -351,126 -322,498 48,356 350,620 901,1004 535,397 971,456 1438,115zm-173 2106c-300,191 -757,133 -1027,255 -267,127 -277,868 309,735 609,-136 721,-354 1244,-540 516,-180 1263,-409 1484,-460 220,-33 245,-539 -266,-418 -520,141 -615,-240 -1056,-107 -466,142 -420,365 -688,535zm-4597 -1826c-506,-35 -1160,-54 -1475,-253 -324,-180 -647,-323 -950,-173 -306,145 -972,324 -337,563 632,230 1532,393 2056,754 508,355 1483,779 2075,1181 603,402 1335,482 1628,246 296,-243 247,-1096 -362,-1197 -602,-103 -1139,-551 -1634,-784 -480,-226 -793,-322 -1001,-337zm-46581 -2834c-378,-33 -465,-54 -850,-230 -393,-171 -346,52 -746,-366 -397,-407 -407,-504 -366,-671 38,-157 -10,-414 -234,-272 -233,148 -483,448 -547,348 -60,-95 23,-329 50,-452 27,-122 -24,-433 -330,-238 -292,185 -330,524 -295,776 22,266 -110,111 135,544 240,442 283,660 621,761 338,100 366,461 570,402 207,-55 275,-344 564,-219 293,128 589,116 483,428 -117,327 -489,354 -394,503 88,140 415,324 318,701 -103,381 265,252 265,252 0,0 51,143 0,343 -46,211 -100,624 108,667 209,49 127,-80 333,-317 193,-228 127,-213 493,-628 373,-405 596,-617 782,-707 198,-84 363,-189 204,-403 -165,-211 -176,-379 -97,-534 80,-156 -44,-498 -233,-483 -196,20 -210,281 -439,202 -215,-59 -201,-383 -395,-407zm-49933 29163c-102,269 -307,574 -24,625 299,55 379,32 480,-305 122,-336 150,-557 -21,-596 -172,-38 -304,-80 -435,276zm-5189 1407c8,80 291,208 420,147 139,-61 290,-303 226,-437 -54,-134 -634,-39 -646,290zm-2020 -1244c293,31 505,2 517,-244 30,-250 -75,-450 -566,-264 -500,206 -728,442 -615,538 135,96 506,-48 664,-30zm22239 -25378c247,389 603,-670 825,-651 219,15 337,249 591,-95 250,-334 461,-398 478,-619 23,-211 -149,-186 -409,-231 -256,-40 -373,-224 -137,-347 234,-128 -142,-456 145,-617 300,-156 569,-509 459,-698 -98,-204 -592,-352 -215,-718 392,-376 801,-789 843,-1236 60,-452 78,-589 473,-925 417,-335 -27,-571 63,-992 100,-421 436,-635 788,-810 347,-164 644,-458 501,-682 -139,-220 -321,-440 -957,-36 -644,410 -1766,808 -2445,1295 -674,477 -1601,1298 -2167,1797 -564,485 -1043,790 -1288,1247 -247,471 -304,298 -960,771 -666,472 -1281,793 -1119,1097 163,309 431,398 893,266 459,-138 1444,-456 1613,-620 195,-172 578,201 67,420 -505,230 -747,742 -381,789 369,52 1229,17 888,339 -334,317 -481,698 -428,979 47,272 823,255 598,545 -222,295 -492,928 40,591 531,-338 953,-501 901,-699 -45,-202 282,-249 340,-160zm-2922 330c346,-248 384,-454 561,-672 177,-217 394,-734 133,-847 -268,-124 -637,54 -725,-248 -94,-297 -111,-391 -526,-282 -401,94 -654,45 -1035,-91 -376,-146 -529,-105 -539,210 1,315 93,509 187,658 96,150 6,207 68,469 68,272 -12,610 297,434 312,-170 663,-212 702,-151 31,49 -235,506 24,600 264,85 496,169 853,-80zm1310 905c116,115 389,264 679,9 276,-259 461,-349 647,-237 173,122 387,112 542,-287 149,-410 437,-719 753,-850 307,-112 1030,-445 930,-24 -86,426 155,525 -90,834 -233,310 -821,327 -847,434 -28,122 -357,283 -619,449 -284,181 -890,615 -972,437 -83,-179 -350,12 -369,164 -18,137 -182,242 -424,340 -247,107 -304,18 -581,-269 -291,-291 -587,-509 -842,-298 -243,211 -376,365 -690,334 -307,-36 -571,-204 -589,-348 -14,-152 14,-556 -390,-249 -401,311 -432,379 -668,123 -247,-256 -913,-610 -447,-703 470,-89 617,-7 946,-132 334,-136 349,-145 464,118 122,259 798,-297 697,104 -110,406 21,413 291,277 279,-156 391,-178 464,-64 70,110 187,-69 320,-224 126,-165 419,-266 795,62zm-5343 1379c202,-213 194,-306 611,-263 419,49 494,51 694,1 196,-55 383,-174 157,-415 -238,-241 -150,-598 -637,-471 -490,137 -803,405 -1111,286 -300,-110 -427,-260 -697,-40 -267,225 -212,443 70,523 278,75 408,97 399,264 -5,158 185,324 360,318 168,-16 89,-141 154,-203zm-1752 1576c-173,-142 -321,-210 -157,-398 170,-179 368,-430 6,-487 -374,-42 -894,-83 -984,156 -101,254 -57,373 -251,580 -215,207 -776,101 -621,395 159,283 479,620 743,557 272,-68 564,-435 669,-271 104,165 336,17 536,-130 182,-144 222,-247 59,-402zm4728 -729c-172,-206 -217,-457 -238,-605 -7,-143 -219,-478 -551,-239 -342,239 -541,8 -628,350 -97,343 84,479 -182,838 -269,353 -178,365 -379,213 -205,-157 -379,-348 -639,-344 -250,5 -456,241 -183,474 281,242 771,238 914,378 150,137 382,73 688,-157 297,-210 537,-362 684,-295 142,58 364,-105 529,-209 172,-110 82,-284 -15,-404zm1015 -57c292,-235 556,-248 669,-285 122,-57 116,-445 -235,-453 -337,-18 -793,-239 -768,-2 20,246 -23,477 -80,618 -35,127 295,233 414,122zm-7024 3827c149,-179 187,-301 119,-573 -68,-272 -44,-434 168,-596 215,-158 624,23 893,-1 264,-14 570,23 686,5 112,-22 635,-354 516,-510 -134,-146 -573,-42 -606,-308 -51,-262 -147,-943 195,-670 329,288 329,519 606,392 280,-122 523,-466 676,-94 164,358 491,774 222,945 -277,176 -626,188 -849,484 -234,310 -441,826 -713,894 -257,58 -574,154 -554,-12 31,-167 -191,-467 -306,-184 -135,282 -307,343 -659,566 -352,224 -549,-169 -394,-338zm-447 -472c-24,-237 347,-529 29,-747 -311,-209 -592,-702 -847,-309 -233,379 -491,417 -554,864 -42,446 -102,947 -288,1100 -193,144 -604,223 -305,496 298,272 578,381 741,25 157,-365 169,-478 464,-526 304,-67 548,-1104 583,-636 38,473 265,665 310,223 27,-437 -123,-342 -133,-490zm16387 -2600c-157,100 -339,111 -402,-186 -55,-302 -129,-716 215,-654 324,80 673,-15 578,347 -98,377 -301,436 -391,493zm235 4271c44,-196 1,-281 30,-384 47,-106 -30,-394 -230,-246 -192,144 -384,405 -411,577 -17,171 84,430 341,371 272,-68 230,-167 270,-318zm6096 -3056c-125,100 -381,46 -305,-248 75,-278 87,-391 251,-201 175,176 209,330 54,449zm5933 6756c-144,22 -412,-103 -307,-351 100,-239 222,-162 358,3 136,180 281,109 384,337 82,229 -53,413 -206,223 -149,-185 -136,-215 -229,-212zm-1384 -822c-220,-49 -493,33 -654,-5 -147,-33 -182,-220 -64,-316 114,-101 443,-79 705,-14 272,65 272,65 247,207 -33,147 -185,138 -234,128zm1405 13598c97,-62 81,-253 -7,-324 -72,-66 -190,-118 -253,14 -69,141 -137,331 37,389 174,57 200,-64 223,-79zm2183 442c-166,-78 -124,120 -237,24 -45,-153 -87,-218 35,-275 123,-71 140,22 280,60 121,43 243,35 219,114 -9,68 -215,108 -297,77zm-677 -139c-105,67 -237,-59 -175,-175 66,-112 27,-256 154,-188 137,67 71,276 80,291 16,25 -36,58 -59,72zm-1073 -431c-22,-168 10,-250 -154,-343 -153,-92 -142,-224 32,-230 174,-6 414,-26 509,222 98,239 117,284 225,305 127,19 -25,94 -171,144 -146,51 -415,-8 -441,-98zm119 815c-184,75 -275,-168 -191,-384 75,-194 111,-322 221,-147 108,169 131,337 260,360 123,26 331,-141 267,39 -66,176 -67,275 -235,242 -165,-28 -256,-139 -322,-110zm7335 -775c-87,13 -250,52 -233,-69 41,-133 -74,-199 151,-258 203,-44 387,63 339,219 -30,152 -100,91 -257,108zm1981 588c-6,89 -182,-71 -107,-169 72,-102 84,-215 157,-99 76,119 -9,117 -50,268zm-1102 -328c-74,48 -195,-10 -242,-84 -55,-85 58,-157 177,-233 120,-76 260,-23 221,114 -58,141 -95,165 -156,203zm700 158c-112,71 -306,-52 -245,-203 80,-155 -119,-337 138,-296 265,20 445,38 359,234 -97,194 -147,198 -252,265zm481 723c-54,-51 -65,-168 40,-235 119,-76 299,-140 377,32 88,155 12,316 -114,334 -120,26 -235,-89 -303,-131zm250 1039c-245,-6 -297,-55 -212,-217 85,-165 57,-392 34,-427 -25,-39 127,-198 255,-162 115,33 236,124 86,352 -160,243 -63,181 -16,256 47,74 -51,201 -147,198zm-482 1126c164,126 222,217 386,77 162,-124 122,-485 97,-524 -23,-35 -208,-162 -370,-4 -172,159 -223,361 -113,451zm-3821 -2607c-180,114 -350,327 -188,449 158,116 253,217 432,19 168,-184 211,-463 269,-585 66,-112 267,-491 28,-339 -233,148 -429,385 -541,456zm-2992 599c14,89 208,162 305,100 97,-61 164,-238 41,-349 -116,-115 -375,72 -346,249zm-415 1727c-153,41 -489,256 -201,346 266,103 478,25 577,47 82,30 217,-89 299,-191 101,-121 -101,-159 -297,-169 -190,-19 -222,-68 -378,-33zm1236 -567c112,-72 -177,-378 -123,-574 36,-191 356,-416 648,-517 290,-107 860,-218 1005,-205 144,13 389,265 105,446 -292,185 -321,239 -358,479 -40,234 -245,210 -546,347 -290,122 -442,281 -574,387 -112,104 -277,-287 -157,-363zm-4599 485c158,-100 184,-523 391,-627 210,-98 741,-386 870,-498 149,-114 255,-78 400,-15 166,63 817,28 1012,-13 195,-40 589,-81 800,-46 219,30 476,-78 426,108 -37,190 -201,245 -441,397 -254,162 -535,201 -633,46 -101,-159 -426,-191 -623,-121 -194,75 -389,199 -573,90 -166,-111 -364,-125 -581,13 -217,138 -786,365 -455,456 328,87 280,341 32,416 -263,82 -367,148 -535,116 -148,-33 -201,-251 -90,-322zm-1155 -26296c551,204 1304,580 1565,413 278,-176 541,-490 809,-283 276,203 774,538 531,-337 -234,-881 -159,-1160 -419,-1471 -240,-309 -295,-464 -194,-766 90,-288 180,-577 31,-811 -146,-230 113,-583 195,-734 94,-150 292,-816 493,-846 205,-39 206,-187 390,-724 168,-527 342,-1015 177,-1274 -172,-270 -21,-464 193,-410 227,44 755,-151 1010,-642 249,-481 674,-1501 797,-1670 121,-175 427,-881 -27,-1300 -445,-418 -616,-28 -691,-590 -81,-558 -167,-693 114,-829 303,-137 110,-490 148,-745 22,-245 -344,-671 -612,-963 -284,-296 -603,-135 -654,-944 -55,-812 -93,-872 -327,-1241 -238,-374 -164,-786 -61,-1138 105,-347 195,-867 547,-1420 355,-548 569,-642 -17,-920 -609,-279 -553,106 -1002,490 -460,383 -1120,1181 -1386,1490 -270,318 -618,960 -771,1232 -154,287 -442,197 -288,-237 146,-415 667,-935 615,-1231 -48,-292 383,-1085 -343,-756 -734,319 -1227,402 -1736,725 -493,314 -789,593 -1223,588 -429,-14 -770,28 -1182,423 -392,389 -1005,681 -1126,856 -138,178 -542,-27 -818,331 -289,372 -308,706 -181,773 130,57 -187,119 -688,388 -484,266 -723,551 -955,698 -231,147 160,466 -371,754 -520,289 -1032,558 -1137,625 -104,66 -239,152 -817,765 -598,611 -935,825 -1313,1108 -382,291 -865,787 -491,1012 388,230 246,453 -352,834 -600,380 -1045,1084 -979,1189 64,100 236,222 596,-105 348,-313 672,-183 503,345 -176,532 -659,881 -1048,1178 -370,276 -1202,1051 -588,1123 616,77 1012,-175 1057,-104 38,59 -202,260 296,316 500,59 881,196 1053,318 164,126 407,-70 558,-495 147,-430 1470,-1026 2116,-1016 662,-1 1940,307 2351,887 410,580 603,1164 895,979 307,-195 402,-1138 1193,-801 770,351 1479,1021 1056,1661 -435,655 -659,1029 -186,1576 493,527 1700,1350 2694,1726zm-18398 2807c155,244 198,378 374,505 172,122 429,147 576,-135 146,-282 285,-1022 389,-1221 98,-210 62,-796 -323,-593 -393,193 -487,211 -857,488 -386,302 -565,317 -159,956zm9602 1237c75,-195 365,-366 833,-242 452,132 1155,197 1760,141 617,-70 942,-220 1100,-187 160,38 632,-262 202,-360 -448,-93 -1199,-36 -1229,-248 -49,-207 901,-201 1203,-155 300,40 288,-275 282,-516 0,-232 -496,-616 -980,-583 -504,34 -1505,-219 -1489,-558 26,-339 348,-411 923,-167 576,243 1196,690 1196,-53 -10,-743 175,-1560 -323,-1301 -475,260 -915,-69 -1398,147 -471,201 -656,375 -1002,258 -344,-110 -479,-389 -313,-641 161,-242 -183,-634 -822,-549 -643,79 -1474,327 -1943,248 -476,-69 -984,-125 -1381,127 -396,252 -493,546 -823,903 -341,356 -509,323 -680,-178 -179,-496 -485,-679 -881,-427 -404,257 -321,1099 -235,1235 79,124 318,449 111,538 -234,93 -398,-313 -468,-787 -67,-469 -231,-463 -579,-102 -330,357 -806,848 -627,1344 170,501 757,1291 1210,1045 467,-241 687,-191 807,-135 130,57 845,-439 1399,-658 568,-214 1024,-406 894,-610 -127,-200 146,-415 434,-178 295,233 662,364 1103,182 445,-192 755,-200 922,212 172,402 515,512 253,960 -281,465 938,300 220,658 -700,354 -849,218 -920,536 -76,328 220,428 488,537 258,109 550,71 753,-436zm-3268 2596c-10,-281 -443,-1127 -13,-1211 414,-74 1025,-140 1484,-145 471,-19 857,9 691,493 -158,478 -688,304 -924,166 -231,-133 -299,190 -247,487 48,291 -50,599 -501,550 -442,-49 -483,-114 -490,-340zm-8045 -1814c211,-15 633,-129 939,6 325,130 582,8 740,-471 162,-474 102,-667 -279,-803 -367,-131 -208,-855 -698,-586 -494,265 -897,290 -1123,1043 -225,753 22,827 421,811zm2379 1576c211,-162 543,-302 729,-323 177,-21 195,-123 259,-451 79,-324 -111,-391 -494,-282 -411,114 -777,249 -997,579 -214,325 148,746 503,477zm-3386 2062c199,-315 360,-838 1025,-981 655,-143 966,-151 1100,-468 135,-317 323,-1046 -312,-1021 -650,36 -1122,104 -1413,-221 -302,-327 -814,-555 -1113,-512 -303,52 -374,518 -117,642 262,114 19,310 -359,228 -389,-82 -960,43 -1331,139 -352,90 -591,473 -1155,545 -553,71 -1013,-288 -1260,2 -232,295 -609,296 -969,294 -381,11 -621,444 -692,629 -68,176 418,113 294,611 -102,485 -420,1241 267,1281 666,39 878,373 1325,-331 445,-703 236,-1180 408,-1289 165,-105 355,657 798,809 415,157 1163,886 1896,287 206,-271 508,-43 669,-5 156,48 399,215 939,-639zm96835 -4400c-101,253 -515,775 -285,987 241,218 284,597 284,597 0,0 237,158 386,295 129,134 223,663 706,1042 454,384 1504,1111 1957,1824 447,703 527,829 834,815 309,-8 677,-241 710,-536 41,-300 309,-652 565,-814 253,-162 804,-287 810,-690 8,-418 460,-1064 633,-1222 168,-149 650,-595 836,-797 185,-208 659,-553 779,-496 123,62 389,-247 720,-59 359,186 348,235 738,435 400,202 404,59 451,-147 46,-211 162,-375 154,-455 -7,-92 21,-329 284,-48 274,282 428,310 574,539 143,225 366,-51 625,143 261,193 441,624 954,654 524,32 914,-132 1074,-93 165,27 244,-115 262,-433 25,-339 -44,-380 396,-252 434,123 511,306 588,-67 86,-361 -165,-525 242,-826 400,-297 292,-186 318,-426 22,-246 -282,-227 -258,-472 25,-242 -178,-561 -224,-846 -46,-287 -277,-867 -208,-1172 70,-317 185,-486 -2,-860 -194,-373 -510,-804 -566,-1174 -60,-375 -323,-291 -513,-444 -184,-157 -373,-799 -758,-912 -393,-121 -596,-307 -731,-305 -140,-4 -401,-565 -664,-482 -265,78 -427,-177 -696,-320 -271,-144 -395,-339 -671,-345 -282,5 -773,357 -1038,-60 -267,-421 -532,-707 -686,-784 -142,-92 -447,-570 -735,-661 -275,-99 -258,523 -614,27 -353,-490 -612,-600 -807,-707 -191,-103 -500,-355 -342,92 137,444 478,1131 678,1362 198,245 242,531 307,764 50,227 268,634 103,739 -158,101 -970,-103 -1326,-101 -359,-3 -1040,116 -1093,-167 -46,-287 14,-556 -42,-778 -58,-237 -160,-530 -426,-319 -272,216 -492,216 -675,290 -178,70 -454,196 -349,361 98,155 -254,246 -418,351 -165,104 -318,292 -202,674 97,386 -74,678 200,679 281,10 273,197 -4,192 -288,-7 -490,219 -688,74 -183,-158 -439,-262 -505,47 -71,318 -105,829 -146,1128 -33,295 -114,529 -73,594 38,59 22,251 -150,178 -177,-62 -348,96 -115,529 237,439 322,657 129,914 -192,261 -491,352 -571,719 -82,368 -252,532 -379,612 -135,86 -221,315 -337,613zm-53684 2550c-33,379 130,983 366,958 230,-20 430,294 362,765 -70,486 -91,751 -292,816 -207,69 -392,60 -232,1022 164,954 378,2563 329,2783 -41,216 253,595 469,521 200,-64 396,245 567,514 166,261 814,668 717,1226 -85,559 -266,1052 37,1035 303,-4 826,420 965,640 143,224 709,305 1034,337 338,37 926,168 905,433 -24,260 282,444 606,491 346,32 1402,41 1634,207 237,158 450,212 909,-142 472,-365 1117,-1019 1416,-1209 321,-204 526,-461 620,-710 88,-243 74,-677 544,-913 478,-240 825,-271 1049,-35 209,245 291,375 891,-71 586,-435 744,-284 994,-189 255,90 507,798 703,1107 200,314 -123,898 368,1076 498,187 1353,457 1496,683 142,223 670,62 899,422 227,358 890,624 1029,1041 139,402 392,618 621,662 209,49 311,489 257,902 -52,397 111,1050 406,1612 291,557 516,1109 972,1133 439,29 769,450 825,539 58,90 746,81 1053,762 308,685 787,1439 1458,1700 666,254 1124,594 1295,863 168,264 254,399 482,381 238,-25 493,177 405,437 -92,233 177,376 455,515 273,133 786,628 1057,78 278,-555 793,-1002 1061,-1173 263,-167 945,-481 887,-1746 -65,-1276 -83,-2889 -87,-3078 5,-192 1,-496 -336,-346 -334,150 -396,-441 -207,-624 196,-189 650,-350 673,-793 25,-456 -603,-869 -821,-1110 -223,-236 -769,-317 -883,-496 -114,-180 83,-367 286,-742 200,-379 318,-770 258,-1046 -46,-272 723,-649 281,-1426 -430,-792 -1158,-1821 -1754,-2199 -613,-351 -821,-597 -1039,-1021 -203,-436 -683,-1190 -646,-1710 42,-530 198,-1374 274,-2115 101,-751 431,-1703 379,-2363 -49,-655 -295,-1241 -360,-1641 -59,-405 60,-1293 -159,-1721 -198,-427 -332,-720 -658,-259 -335,464 -911,830 -1141,1166 -212,324 -440,959 -1078,369 -617,-609 -837,-658 -1351,-772 -509,-105 -1089,-240 -1395,-605 -294,-382 -714,-430 -884,-434 -199,1 -710,-620 -878,-884 -171,-270 -431,-483 -707,-420 -282,53 -444,-285 -726,-546 -288,-253 -639,-708 -1007,-790 -366,-81 -1299,-491 -1286,-751 21,-265 596,62 824,106 210,49 169,-232 -109,-750 -263,-512 -774,-818 -1170,-566 -395,251 -819,396 -923,713 -109,322 -171,424 -788,627 -620,212 -1747,109 -2075,255 -351,159 -698,506 -408,763 294,248 420,860 260,1089 -167,231 -480,-262 -824,-106 -335,148 -1079,-443 -1691,-118 -598,318 -1213,835 -1518,539 -326,-298 -248,-473 -121,-553 143,-91 -28,-542 -168,-580 -148,-33 -197,-806 -564,-573 -352,224 -1025,1016 -1637,1341 -612,326 -1492,711 -1569,1566 -82,863 -821,955 -1054,1103 -217,138 -546,412 -523,1025 17,606 -265,659 -309,1003z"/>
    </g>
   </g>
   <path class="fil4 str2" d="M36295 60905l-17 -10 -13646 7931 2369 1366c2435,-448 4766,-300 6226,543 2521,1455 1500,4412 -2273,6606 -3769,2190 -8872,2791 -11392,1335 -1460,-841 -1725,-2193 -957,-3603l-2369 -1370 -13646 7932 15907 9183 -2354 1368c-2434,-446 -4765,-297 -6215,546 -2504,1455 -1456,4409 2343,6602 3799,2194 8903,2792 11407,1336 1450,-842 1704,-2190 921,-3602l2355 -1368c11726,6771 20288,11744 31795,18388l2348 -1366c-774,-1411 -524,-2761 927,-3605 2504,-1454 7609,-857 11407,1337 3798,2192 4847,5148 2343,6603 -1450,844 -3775,994 -6221,548l-2348 1366 15908 9184 13661 -7939 2369 1367c-763,1409 -499,2759 962,3602 2520,1456 7623,861 11396,-1333 3775,-2193 4785,-5150 2265,-6606 -1461,-843 -3787,-994 -6222,-545l-2369 -1368 13641 -7928 1 1 13645 -7930 -2364 -1365c-2434,449 -4766,300 -6231,-546 -2521,-1455 -1790,-4502 1979,-6692 3775,-2194 8999,-3075 11519,-1620 1465,846 1897,2567 1130,3978l2364 1365 13646 -7930 -15908 -9184 2349 -1365c2445,446 4770,294 6221,-548 2504,-1456 1455,-4410 -2344,-6603 -771,-446 -1597,-825 -2443,-1136 855,312 1689,694 2467,1144 3799,2193 4848,5148 2344,6603 -1451,843 -3776,995 -6221,548l-2348 1365 15907 9185 13661 -7939 2369 1367c-762,1409 -498,2760 962,3603 2521,1455 7623,860 11397,-1333 3775,-2194 4785,-5151 2264,-6607 -1460,-842 -3787,-994 -6221,-545l-2370 -1368 13647 -7930 -15908 -9184 -2354 1368c784,1412 529,2759 -921,3602 -2504,1455 -7613,860 -11412,-1333 -3799,-2193 -4843,-5151 -2338,-6606 1450,-843 3780,-992 6215,-545l2354 -1368c-12315,-7110 -19842,-11438 -31846,-18369l2349 -1365c2445,446 4770,295 6221,-548 2504,-1456 1455,-4410 -2344,-6603 -3798,-2194 -8903,-2791 -11407,-1336 -1450,843 -1699,2193 -926,3605l-2349 1365 -15907 -9184 -13646 7930 2369 1368c2434,-449 4767,-301 6226,542 2521,1456 1501,4413 -2274,6606 -3769,2190 -8871,2791 -11392,1336 -1460,-843 -1724,-2193 -957,-3605l-2369 -1368c-15569,9048 -5371,3126 -13069,7602l-14215 8262 -2363 -1365c762,-1414 493,-2762 -967,-3605 -2521,-1455 -7618,-857 -11392,1336 -3774,2193 -4790,5148 -2269,6603 1460,843 3792,992 6226,548l2364 1365 -13642 7928z"/>
   <path class="fil4 str3" d="M107201 73259c-1460,-843 -3787,-995 -6221,-545l-2370 -1368 13646 -7931 -15907 -9184 -2354 1368c784,1412 529,2759 -921,3602 -2505,1455 -7614,861 -11412,-1333 -3799,-2193 -4843,-5150 -2339,-6606 1451,-842 3781,-991 6216,-545l2354 -1368 -15908 -9184 -13646 7930 -2364 -1365c762,-1414 493,-2762 -967,-3605 -2521,-1455 -7618,-857 -11392,1336 -3774,2193 -4790,5148 -2269,6603 1460,843 3792,992 6226,548l2365 1365 -13661 7939 15907 9185 2349 -1365c-773,-1412 -524,-2763 926,-3605 2505,-1456 7609,-858 11407,1335 3799,2194 4848,5148 2344,6603 -1451,843 -3776,995 -6221,549l-2349 1365 15908 9184 13661 -7939 2369 1368c-762,1408 -498,2759 962,3602 2521,1455 7623,860 11397,-1333 3774,-2193 4785,-5151 2264,-6606z"/>
   <path class="fil5" d="M50110 93405c0,-1209 980,-2188 2189,-2188 1209,0 2189,979 2189,2188 0,1209 -980,2189 -2189,2189 -1209,0 -2189,-980 -2189,-2189z"/>
   <polyline class="fil4 str4" points="52298,93405 52293,139817 454,139817 "/>
   <path class="fil5" d="M112347 85405c0,-1208 980,-2188 2188,-2188 1209,0 2189,980 2189,2188 0,1209 -980,2189 -2189,2189 -1208,0 -2188,-980 -2188,-2189z"/>
   <polyline class="fil4 str5" points="114535,85405 120618,140125 184997,140125 "/>
   <g id="_973687408">
    <path class="fil9" d="M142680 44106c4002,-222 7426,2841 7649,6843 222,4002 -2842,7426 -6844,7648 -4002,223 -7426,-2841 -7648,-6843 -222,-4002 2842,-7426 6843,-7648z"/>
    <path class="fil6" d="M143083 49034l-3485 2872c0,4 -1,10 -3,18 -2,9 -3,14 -3,19l0 2909c0,105 38,196 115,272 77,77 168,116 273,116l2327 0 0 -2328 1552 0 0 2328 2327 0c105,0 196,-39 273,-116 76,-76 115,-167 115,-272l0 -2909c0,-17 -2,-29 -6,-37l-3485 -2872zm4818 2218l-1327 -1103 0 -2473c0,-56 -18,-103 -55,-139 -36,-37 -83,-55 -139,-55l-1164 0c-56,0 -103,18 -139,55 -37,36 -55,83 -55,139l0 1182 -1479 -1236c-129,-106 -282,-158 -460,-158 -178,0 -331,52 -461,158l-4357 3630c-41,32 -63,75 -67,130 -4,55 10,102 43,142l375 449c33,36 75,59 127,67 49,4 97,-10 146,-43l4194 -3497 4194 3497c32,28 74,43 127,43l18 0c53,-9 95,-31 128,-67l375 -449c33,-40 47,-87 43,-142 -5,-54 -27,-98 -67,-130z"/>
    <g style="clip-path:url(#id3)">
     <g>
      <path id="1" class="fil10" style="mask:url(#id4)" d="M145142 51314c-4510,609 -8166,2883 -8166,5079 0,2196 3656,3483 8166,2874 4509,-609 8165,-2883 8165,-5079 0,-2196 -3656,-3483 -8165,-2874z"/>
     </g>
    </g>
    <path class="fil10" d="M143083 49034l-3485 2872c0,4 -1,10 -3,18 -2,9 -3,14 -3,19l0 2909c0,105 38,196 115,272 77,77 168,116 273,116l2327 0 0 -2328 1552 0 0 2328 2327 0c105,0 196,-39 273,-116 76,-76 115,-167 115,-272l0 -2909c0,-17 -2,-29 -6,-37l-3485 -2872zm4818 2218l-1327 -1103 0 -2473c0,-56 -18,-103 -55,-139 -36,-37 -83,-55 -139,-55l-1164 0c-56,0 -103,18 -139,55 -37,36 -55,83 -55,139l0 1182 -1479 -1236c-129,-106 -282,-158 -460,-158 -178,0 -331,52 -461,158l-4357 3630c-41,32 -63,75 -67,130 -4,55 10,102 43,142l375 449c33,36 75,59 127,67 49,4 97,-10 146,-43l4194 -3497 4194 3497c32,28 74,43 127,43l18 0c53,-9 95,-31 128,-67l375 -449c33,-40 47,-87 43,-142 -5,-54 -27,-98 -67,-130z"/>
   </g>
   <g id="_973687632">
    <path class="fil9" d="M67426 92435c4002,-223 7426,2841 7648,6843 223,4002 -2841,7426 -6843,7648 -4002,223 -7426,-2841 -7648,-6843 -222,-4002 2841,-7426 6843,-7648z"/>
    <path class="fil6" d="M69047 98701c-102,-57 -213,-110 -333,-157 -101,-44 -215,-84 -341,-120 -125,-35 -252,-61 -379,-77l34 607c41,6 84,16 130,29 46,14 94,26 144,36 223,55 426,119 608,189 182,71 338,158 470,261 132,103 236,232 312,385 76,153 120,342 133,567 15,264 -19,492 -101,684 -81,191 -194,351 -338,478 -144,127 -310,226 -500,298 -189,71 -387,119 -593,144l45 815 -538 30 -46 -828c-312,-10 -622,-54 -933,-131 -310,-77 -591,-181 -841,-311l502 -1183c125,70 259,134 402,194 120,52 259,101 417,149 158,47 318,78 481,91l-33 -592c-141,-28 -282,-63 -424,-105 -215,-60 -401,-127 -559,-202 -157,-74 -288,-162 -392,-262 -105,-100 -185,-216 -239,-348 -55,-132 -87,-285 -97,-460 -13,-243 15,-459 86,-650 70,-191 171,-357 303,-500 132,-142 289,-259 470,-350 182,-91 378,-154 587,-188l-37 -680 538 -30 38 687c150,10 295,29 436,57 141,28 277,62 407,102 131,40 254,83 369,128 115,46 221,88 317,128l-505 1115zm-629 1926c-4,-63 -33,-116 -90,-160 -56,-45 -131,-82 -222,-113l27 498c108,-15 183,-42 226,-80 42,-38 62,-87 59,-145zm-1032 -2036c4,67 30,121 77,161 47,40 117,76 208,107l-28 -512c-178,32 -264,114 -257,244zm209 -3118c2324,-130 4312,1650 4442,3974 129,2324 -1651,4312 -3975,4441 -2324,129 -4312,-1650 -4441,-3974 -129,-2324 1650,-4312 3974,-4441z"/>
   </g>
   <g id="_973695952">
    <path class="fil9" d="M88251 58068c4002,-222 7426,2841 7648,6843 223,4002 -2841,7426 -6843,7648 -4002,223 -7426,-2841 -7648,-6843 -223,-4002 2841,-7426 6843,-7648z"/>
    <path class="fil6" d="M92490 66900c-15,-49 -48,-92 -93,-119l-3873 -2414c57,-320 49,-650 -27,-976 -148,-637 -536,-1179 -1090,-1526 -555,-345 -1212,-454 -1849,-307 -638,148 -1178,536 -1525,1091 -715,1146 -364,2659 783,3374 556,346 1212,456 1849,308 326,-76 626,-215 889,-406l1272 793c53,33 115,42 176,26l558 -150 112 568c12,60 47,113 100,145 52,33 115,43 174,26l560 -150 111 568c12,60 48,113 100,146 52,32 108,43 175,25l559 -150 112 568c11,64 51,118 106,150 50,28 106,36 160,24 8,-2 16,-4 24,-7l841 -296c114,-40 175,-164 138,-279l-342 -1032zm-6733 -3177c-204,327 -633,426 -960,223 -326,-204 -426,-633 -222,-959 203,-327 632,-426 959,-223 326,203 426,633 223,959zm6012 3420c-24,38 -62,64 -103,73 -41,10 -87,4 -126,-20l-3295 -2055c56,-97 104,-197 145,-300l3326 2073c78,48 102,151 53,229z"/>
   </g>
   <path class="fil5" d="M125140 52629c0,1209 980,2189 2189,2189 1208,0 2188,-980 2188,-2189 0,-1209 -980,-2189 -2188,-2189 -1209,0 -2189,980 -2189,2189z"/>
   <polyline class="fil4 str4" points="127274,53125 129979,28333 184997,28154 "/>
   <path class="fil4 str6" d="M136605 77365l2349 -1365c2445,446 4770,294 6221,-548 2504,-1456 1455,-4410 -2344,-6603 -3798,-2194 -9323,-3046 -11827,-1591 -1450,843 -1700,2194 -926,3605l-2349 1365 -15356 -8880 -13646 7930 2370 1368c2434,-450 4766,-301 6226,542 2521,1455 1500,4413 -2274,6606 -3769,2190 -8871,2791 -11392,1336 -1460,-843 -1724,-2193 -957,-3605l-2369 -1368 -13646 7930 15356 8881 -2354 1368c-2435,-446 -4765,-298 -6216,545 -2504,1456 -1455,4410 2344,6603 3799,2194 8902,2791 11407,1336 1450,-843 1705,-2190 921,-3602l2354 -1368 16077 9404 13498 -7686 -2364 -1365c-2435,449 -4788,-163 -6254,-1009 -2520,-1455 -1500,-4413 2269,-6603 3775,-2193 8877,-2794 11398,-1339 1465,846 1751,2660 983,4071l2261 1305 13749 -7870 -15509 -9393z"/>
   <path class="fil9" d="M93360 83087l-4181 -1210c-258,-75 -525,73 -600,331 -75,258 72,525 331,600l3060 886 -16392 10358c-235,130 -320,423 -190,658 129,236 422,320 658,191l16391 -10359 -886 3061c-75,258 73,525 331,600 127,36 261,20 367,-39 108,-59 195,-160 230,-290l1210 -4181c76,-264 -72,-534 -329,-606z"/>
   <path class="fil9" d="M135360 55867l-4181 -1211c-258,-74 -525,73 -600,331 -75,258 72,525 331,600l3060 886 -22500 13989c-235,130 -320,422 -190,658 129,235 422,320 658,190l22499 -13989 -886 3061c-75,258 73,525 331,600 127,36 261,20 368,-39 107,-59 194,-160 229,-290l1210 -4182c77,-262 -72,-533 -329,-604z"/>
   <g id="_910226512">
    <path class="fil9" d="M103132 71636c4039,-224 7494,2868 7718,6906 225,4038 -2867,7494 -6906,7718 -4038,224 -7493,-2867 -7718,-6906 -224,-4038 2868,-7494 6906,-7718z"/>
    <path class="fil6" d="M102171 75426c5,-471 -219,-752 -765,-752 -546,0 -770,281 -766,752 8,679 332,1083 766,1083 434,0 758,-404 765,-1083zm175 2306c123,169 234,359 295,486 -46,163 -171,417 -295,638l0 -1124zm-2182 487c62,-130 177,-324 303,-495l0 1146c-127,-224 -257,-484 -303,-651zm2537 1200c82,-128 490,-789 545,-1194 6,-49 0,-100 -18,-146 -57,-146 -477,-995 -976,-1235 0,0 -388,-180 -388,-180l-170 -143 -253 252 255 1706c1,6 -1,12 -4,17l-267 365c-4,6 -11,9 -19,9 -7,0 -14,-3 -18,-9l-267 -365c-3,-5 -5,-11 -4,-17l255 -1705 -254 -253 -169 143c0,0 -386,176 -396,181 -499,240 -919,1089 -976,1235 -18,46 -24,97 -17,146 54,405 462,1066 544,1194 56,89 153,138 251,138 51,0 104,-14 151,-42 24,67 58,129 100,187l0 3316c0,199 162,360 360,360 199,0 361,-161 361,-360l4 -2923c25,2 50,3 75,3 24,0 48,-1 73,-3l0 2923c0,199 161,360 360,360 199,0 360,-161 360,-360l0 -3307c45,-59 81,-124 106,-194 46,26 96,39 145,39 99,0 195,-49 251,-138zm3699 455c75,-444 1032,-480 1114,0l556 0 0 1644 -2226 0 0 -1644 556 0zm-1930 -2014c-113,166 -212,338 -270,460 44,157 152,387 270,608l0 -1068zm-340 1843c-93,-148 -563,-908 -626,-1374 -8,-57 -1,-116 20,-169 57,-147 431,-907 906,-1283 59,-46 245,-146 341,-178 55,-35 291,-158 405,-185 1,0 1,0 3,-1l218 230 225 -227c111,27 357,156 377,168 642,394 1219,996 1102,2711 -160,-14 -322,1 -486,29l-2 -1c-78,25 -147,71 -199,131 -16,-44 -22,-92 -19,-142 43,-547 10,-943 -72,-1241l0 1129c0,123 -31,236 -83,336l10 133 -583 0 0 1906 730 0 99 1277c18,229 -153,428 -382,446 -11,1 -22,1 -33,1 -214,0 -396,-166 -413,-383l-206 -2919c-14,1 -50,2 -65,2 -30,0 -39,-1 -69,-4l-273 2924c-18,217 -200,380 -413,380 -12,0 -24,0 -36,-1 -229,-20 -398,-221 -378,-449l284 -3100c-31,8 -62,12 -92,12 -114,1 -224,-56 -290,-158zm3184 171c-22,-63 -78,-111 -145,-123 -54,59 -130,94 -212,94 -18,0 -37,-2 -56,-6 -62,-12 -116,-44 -156,-88 -68,12 -123,60 -146,123l715 0zm-2823 -4316c0,-499 405,-905 905,-905 500,0 905,406 905,905 0,500 -405,905 -905,905 -500,0 -905,-405 -905,-905zm906 2976l2 0 218 -298 -218 -1460 -4 0 -218 1460 220 298z"/>
   </g>
   <path class="fil5" d="M72675 50149c0,-1209 -980,-2189 -2189,-2189 -1208,0 -2188,980 -2188,2189 0,1209 980,2189 2188,2189 1209,0 2189,-980 2189,-2189z"/>
   <polyline class="fil4 str4" points="70487,50149 70455,28659 600,28659 "/>
  </g>
 </g>
</svg>
