<?xml version="1.0" encoding="UTF-8"?>
<!DOCTYPE svg PUBLIC "-//W3C//DTD SVG 1.1//EN" "http://www.w3.org/Graphics/SVG/1.1/DTD/svg11.dtd">
<!-- Creator: CorelDRAW X8 -->
<svg xmlns="http://www.w3.org/2000/svg" xml:space="preserve" width="390px" height="390px" version="1.1" style="shape-rendering:geometricPrecision; text-rendering:geometricPrecision; image-rendering:optimizeQuality; fill-rule:evenodd; clip-rule:evenodd"
viewBox="0 0 4130 4130"
 xmlns:xlink="http://www.w3.org/1999/xlink">
 <defs>
  <style type="text/css">
   <![CDATA[
    .fil0 {fill:white;fill-rule:nonzero}
   ]]>
  </style>
 </defs>
 <g id="Слой_x0020_1">
  <metadata id="CorelCorpID_0Corel-Layer"/>
  <g id="_1032618608">
   <path class="fil0" d="M2065 0c570,0 1087,231 1460,605 374,374 605,890 605,1460 0,570 -231,1087 -605,1460 -373,374 -890,605 -1460,605 -570,0 -1086,-231 -1460,-605 -374,-373 -605,-890 -605,-1460 0,-570 231,-1086 605,-1460 374,-374 890,-605 1460,-605zm1328 737c-340,-339 -809,-549 -1328,-549 -518,0 -988,210 -1328,549 -339,340 -549,810 -549,1328 0,519 210,988 549,1328 340,340 810,550 1328,550 519,0 988,-210 1328,-550 340,-340 550,-809 550,-1328 0,-518 -210,-988 -550,-1328z"/>
   <path class="fil0" d="M1779 1242l1121 756c42,29 54,87 25,130 -8,12 -19,22 -31,29l-1115 749c-43,28 -101,17 -130,-26 -11,-17 -16,-36 -15,-55l0 -1506c0,-51 41,-93 93,-93 19,0 37,6 52,16l0 0zm901 833l-860 -580 0 1158 860 -578z"/>
  </g>
 </g>
</svg>
