<svg xmlns="http://www.w3.org/2000/svg" width="1968" height="1937" viewBox="0 0 25319 24924" shape-rendering="geometricPrecision" text-rendering="geometricPrecision" image-rendering="optimizeQuality" fill-rule="evenodd" clip-rule="evenodd"><defs><style type="text/css"><![CDATA[
    .fil0 {fill:#10B5E5}
    .fil3 {fill:#35C1EA}
    .fil2 {fill:white}
    .fil4 {fill:white}
    .fil7 {fill:#00A0E3;fill-rule:nonzero}
    .fil1 {fill:#10B5E5;fill-rule:nonzero}
    .fil6 {fill:#999999;fill-rule:nonzero}
    .fil8 {fill:#999999;fill-rule:nonzero}
    .fil5 {fill:white;fill-rule:nonzero}
   ]]></style></defs><g id="_1083395152"><circle class="fil0" cx="19012" cy="16543" r="2173"/><path class="fil1" d="M20564 14636c65 53 127 109 187 169 445 445 720 1059 720 1738s-275 1293-720 1738c-100 100-208 191-324 273l60 85c-237 166-502 293-787 372-275 77-566 108-865 87-255-17-499-72-726-158-236-89-454-211-649-360l62-82c-87-67-170-139-248-217-445-445-720-1059-720-1738s275-1293 720-1738c118-118 248-224 388-316l-57-86c206-136 433-242 673-314 233-70 480-107 734-107 301 0 589 52 858 147 278 99 534 244 758 427l-64 80zm-2926 3710c173 133 366 241 574 319 201 76 417 124 642 140 267 19 525-9 768-76 251-70 486-183 696-331l58 84c112-79 216-167 312-263 429-429 694-1022 694-1676s-265-1247-694-1676c-57-57-117-111-180-163l-65 80c-198-162-425-290-671-378-237-84-493-130-760-130-226 0-445 33-650 95-214 64-415 158-596 277l-56-85c-135 88-260 190-373 304-429 429-694 1022-694 1676s265 1247 694 1676c75 75 155 145 239 209l62-82z"/><path class="fil2" d="M17689 16329c0-17 0-34 2-49v-2c24-380 319-686 697-726l-162 245c-189 88-319 268-337 475-14 194 123 373 408 534l-63 206c-306-100-545-346-545-683zM19644 17686c-65 87-146 161-241 216-35 19-69 36-105 52-331 129-707 21-916-266h272c141 110 325 150 500 106 305-97 435-312 387-646l203-49c56 228 23 425-100 587zM18799 15624c387 308 666 686 838 1133-78 17-156 30-234 40-171-378-414-719-717-1005l113-168zM18818 16021c-299 360-492 787-578 1281h199c109-395 289-768 532-1098-49-61-101-122-153-183zM20074 16911c-500 207-998 269-1498 184 27-76 55-150 87-222 437 49 880 6 1298-130l113 168zM19927 15632c15 8 29 17 42 27h2c287 191 414 547 313 877l-163-246c-6-183-97-350-245-457-162-108-384-80-665 88l-147-158c240-217 573-300 863-131zM17624 16882l105-169c43 72 100 137 165 190l-57 93-34 55-6 8c-8 9-13 19-19 28-13 27-21 55-21 86 2 76 44 143 112 176l2 3c40 20 84 30 128 26h1466c-13 87-57 167-123 228h-1324c-93 8-187-13-270-57h-2c-141-74-236-215-236-374 0-63 16-126 44-183 11-21 23-41 38-62l32-48zm987-1586c5-12 13-23 20-33l6-9c38-50 87-90 142-118 223-120 508-47 635 158l4 6 114 182c-84 7-167 28-245 63l-82-132-2-3v-2c-61-97-196-130-300-74-27 13-48 32-66 55l-3 2-1 2c-4 5-8 9-10 15l-2 2-725 1168c-69-66-124-146-137-236l652-1046zm1149 551c-88-27-182-16-274 15l753 1208c36 59 38 133 5 194-2 4-3 7-5 11s-4 8-8 10c-42 59-112 93-184 93h-207c-8 80-29 156-63 228h270c153 2 298-70 389-196 6-7 10-15 16-20 5-6 9-16 13-23 70-129 66-285-12-411l-693-1109z"/><circle class="fil0" cx="2472" cy="16543" r="2173"/><path class="fil1" d="M4769 15667c30 78 56 159 77 240 163 607 94 1277-245 1865-340 588-885 983-1493 1145-136 37-276 62-417 75l10 103c-288 26-582 3-868-71-276-71-544-189-793-357-211-143-395-312-549-500-160-195-287-409-382-636l95-40c-43-101-78-206-107-312-162-607-93-1277 246-1865s885-983 1493-1146c161-43 326-70 493-79l-6-103c247-14 496 6 740 64 236 57 469 147 690 275 260 150 483 339 668 556 192 224 341 479 444 749l-96 37zM380 17418c84 201 197 391 338 563 136 166 298 316 486 442 221 150 459 255 703 317 252 65 512 85 767 62l9 102c136-13 271-37 402-72 586-157 1112-537 1439-1104 328-567 394-1213 237-1798-21-79-46-156-75-232l-95 37c-91-239-223-464-393-663-163-191-361-359-593-492-196-114-402-194-611-244-217-51-437-70-654-57l-6-102c-161 9-320 35-475 77-586 157-1112 537-1439 1104-328 567-394 1213-237 1798 27 103 61 203 102 301l95-39z"/><path class="fil3" d="M822 16148c0-21 0-42 2-61v-2c31-474 398-855 870-905l-202 305c-237 109-398 334-421 593-17 241 154 464 509 665l-78 256c-382-123-680-431-680-851zM3259 17840c-80 109-182 201-301 270-42 23-85 45-130 64-412 161-881 26-1142-332h339c175 137 405 187 623 133 381-121 543-389 483-806l254-61c68 284 28 530-126 732zM2205 15270c483 384 831 855 1045 1412-97 21-194 38-292 49-213-471-516-895-893-1253l140-208zM2229 15764c-372 449-613 981-721 1597h249c135-493 361-957 664-1369-62-75-126-152-192-228zM3795 16873c-624 258-1244 336-1867 230 33-95 69-187 109-277 545 62 1097 7 1618-161l140 208zM3612 15279c19 10 36 21 52 33h3c357 239 516 683 390 1095l-203-308c-8-227-121-436-306-569-201-135-478-99-829 109l-182-196c298-271 713-375 1075-164zM741 16838l130-211c55 90 126 171 207 237l-72 116-42 69-7 9c-10 12-17 24-24 36-17 33-26 68-26 106 2 95 54 178 140 220l2 3c50 26 105 38 159 33h1828c-16 109-70 209-153 285H1232c-116 9-233-17-337-72h-2c-175-92-294-267-294-467 0-78 19-156 54-227 15-26 29-52 48-78l40-59zm1230-1978c6-14 16-29 26-40l7-12c47-62 109-112 177-147 278-149 633-59 792 197l5 7 141 227c-103 10-208 35-305 78l-102-163-2-5v-3c-76-120-244-161-374-92-34 17-60 40-83 69l-3 3-2 2c-5 7-10 11-12 18l-3 3-904 1457c-86-83-154-183-171-294l813-1305zm1433 687c-109-34-228-19-341 19l938 1506c45 74 47 166 7 242-3 5-5 9-7 14-3 5-5 9-10 12-52 73-140 116-230 116h-258c-9 99-35 194-78 285h336c192 2 372-88 486-245 7-9 12-19 19-26s12-19 17-28c87-161 82-356-15-512l-864-1383z"/><path class="fil4" d="M2959 16915c-2 0-286 8-328-296 47-33 90-75 128-127 74-100 122-226 139-362 6-5 10-11 14-19 30-73 46-152 46-233 0-311-234-564-523-564-75 0-148 18-217 52-27 2-53 7-77 14-119 34-215 122-272 247-55 122-65 265-30 403 7 29 17 58 28 85 3 8 8 14 13 19 28 213 129 389 266 485-42 304-326 296-328 296-204 7-367 175-367 380v429c0 30 24 55 55 55h1765c31 0 56-25 56-55v-429c0-205-164-373-368-380zm-788-1428c21-6 42-10 64-11 8 0 16-2 23-6 57-30 116-45 177-45 227 0 412 204 412 453v23c-45-45-106-73-173-73h-379c-22 0-43-7-61-20-16-12-27-27-34-45-11-27-38-44-68-42-29 2-54 22-61 51-22 84-66 162-126 225-56-230 45-458 226-510zm-48 959c-72-88-119-207-134-337 70-63 125-140 161-227 6 5 11 10 17 15 38 27 82 42 128 42h379c53 0 99 32 120 78v1c0 314-182 568-405 568-98 0-192-49-266-140zm128 227c44 16 90 24 138 24 47 0 93-8 138-24 20 106 79 198 161 262l-291 415c-2 3-5 4-8 4-4 0-6-1-8-4l-292-415c83-64 141-156 162-262zm965 995H1561v-373c0-148 122-269 270-269 2 0 92-3 162-35l297 423c23 32 59 51 99 51 39 0 76-19 98-51l297-423c80 35 160 35 162 35 149 0 270 121 270 269v373z"/><circle class="fil0" cx="18946" cy="2561" r="2173"/><path class="fil1" d="M21243 1685c30 79 56 159 78 240 163 608 94 1277-246 1865-339 588-885 983-1492 1146-137 36-276 61-417 74l9 103c-288 26-581 3-868-70-275-72-544-190-792-358-212-143-396-312-550-500-159-194-287-409-382-636l95-40c-42-101-78-206-106-312-163-607-94-1277 245-1865 340-588 885-983 1493-1145 161-44 327-70 494-80l-6-102c246-15 495 6 739 63 237 57 469 148 690 275 260 150 484 339 669 556 191 225 340 479 443 749l-96 37zm-4389 1751c84 201 197 391 338 563 136 166 299 316 486 442 222 150 459 255 703 318 252 65 512 85 768 62l9 101c136-13 270-36 402-72 586-157 1112-537 1439-1104s394-1212 237-1798c-21-79-46-156-75-232l-96 37c-91-239-223-464-392-663-164-191-362-359-593-492-197-114-402-194-611-244-218-51-438-70-654-57l-6-102c-161 9-321 35-476 77-586 157-1112 537-1439 1104s-394 1213-237 1798c28 103 62 203 103 301l94-39z"/><path class="fil3" d="M17296 2166c0-21 0-42 3-61v-2c30-474 398-855 869-905l-202 306c-236 108-397 333-421 592-17 241 154 464 509 665l-78 256c-381-123-680-431-680-851zM19734 3858c-81 109-183 201-301 270-43 23-85 45-130 64-413 161-882 26-1142-332h339c175 138 404 188 622 133 382-121 543-389 484-806l253-61c69 284 29 531-125 732zM18680 1288c483 384 831 855 1044 1412-97 21-194 38-291 49-213-471-516-895-893-1253l140-208zM18703 1783c-372 448-613 980-720 1596h249c135-493 360-957 663-1369-61-75-126-152-192-227zM20269 2891c-623 259-1244 337-1867 230 33-94 69-187 109-277 545 62 1097 7 1618-161l140 208zM20086 1297c20 10 36 21 53 34h2c358 238 517 682 391 1094l-204-308c-7-227-121-436-305-569-202-135-479-99-830 109l-182-196c299-270 713-375 1075-164zM17216 2856l130-211c54 90 126 171 206 237l-71 116-42 69-8 9c-9 12-17 24-24 36-16 33-26 68-26 106 3 95 55 178 140 220l3 3c49 26 104 38 158 33h1829c-17 109-71 209-154 285h-1651c-116 9-232-17-337-72h-2c-175-92-294-267-294-467 0-78 20-156 55-227 14-26 28-52 47-78l41-59zm1229-1978c7-14 17-29 26-40l7-12c47-62 109-112 178-147 277-149 632-59 791 197l5 7 142 227c-104 10-208 35-306 78l-102-163-2-5v-3c-76-120-244-160-374-92-34 17-59 40-83 69l-3 3-2 2c-4 7-9 11-11 18l-3 3-905 1457c-85-83-154-183-171-294l813-1305zm1433 687c-109-33-227-19-341 19l938 1506c45 74 47 166 7 242-2 5-5 9-7 14-3 5-5 10-9 12-52 73-140 116-230 116h-258c-10 100-36 195-78 285h336c191 2 372-88 485-245 7-9 12-18 19-26 8-7 12-19 17-28 88-161 83-355-14-512l-865-1383z"/><path class="fil4" d="M18595 1494c0 101 34 193 90 263v101c-3 4-14 11-29 16l-174 45c-111 31-169 139-169 230v51c0 55 48 100 108 100l997-1c59 0 108-44 108-99v-51c0-91-58-199-169-230h-1l-173-46c-15-4-27-11-29-15v-95c60-72 93-164 93-260v-70c59-194 17-362-4-411h-1c0-1 0-2-1-3 0 0 0-1-1-1 0-1-1-2-1-2-1-1-1-2-1-2l-2-2c0-1-1-1-1-2-1 0-1-1-1-1-1-1-2-1-2-2-1 0-1-1-1-1-1-1-2-1-3-2 0 0-1 0-1-1-1 0-2-1-3-2h-1c-1-1-2-1-2-2h-2c-1-1-2-1-2-1-1-1-2-1-3-1 0 0-1-1-2-1h-2c-1 0-1-1-2-1h-15c-45 6-99-7-157-21-103-24-219-52-320 21-98 9-168 91-168 202 0 81 38 226 47 258v39zm558-69v78c0 82-31 157-79 209v1c-42 44-96 72-154 72-124 0-232-136-232-291v-16c0-46 19-114 34-157 211 5 371 56 431 78v26zm-92 433c0 42 27 72 60 90-52 45-124 72-201 72s-150-27-202-72c33-18 60-48 60-90v-20c43 26 92 40 142 40 49 0 97-13 141-37v17zm371 291v51c0 1-4 6-14 6h-997c-10 0-14-5-14-6v-51c0-56 34-122 99-140l113-29c69 83 182 133 301 133s231-50 301-133l112 29c65 18 99 84 99 140zm-699-1061h4c1 0 1-1 2-1h3s1 0 2-1h2c1 0 2-1 2-1 1 0 2 0 2-1 1 0 2 0 3-1 0 0 1 0 2-1 0 0 1-1 2-1 0 0 1-1 2-1l2-2c1 0 1 0 1-1 69-56 158-34 252-12 51 12 103 25 153 25 12 45 24 124 12 219-76-28-254-81-489-81h-8c-1 0-1 0-2 1h-2c-1 0-2 0-3 1-1 0-3 1-4 1-1 1-3 2-4 2v1c-2 0-3 1-4 2l-1 1c-1 0-2 1-2 1l-3 3-3 3v1c-1 0-2 1-2 2l-1 1c-1 1-1 1-1 2-1 1-1 2-2 2v2c-1 0-1 1-1 2-3-22-5-43-5-59 0-50 24-109 91-109zM18518 3410l-174-45c-15-5-26-12-29-16v-95c60-71 93-163 93-260v-70c59-194 17-361-4-410v-1c-1-1-1-2-2-3l-1-1c0-1-1-2-1-2-1-1-1-1-1-2-1 0-1-1-2-2l-1-1c-1-1-1-2-2-2 0-1-1-1-1-2-1 0-1-1-2-1l-2-2s-1-1-2-1l-1-1c-1-1-2-1-3-2h-1c-1-1-2-1-3-2h-1c-1 0-2-1-3-1h-1c-1-1-3-1-4-1h-1c-1-1-2-1-3-1h-12c-44 7-99-6-157-20-103-25-219-52-320 21-98 8-167 91-167 202 0 81 37 225 46 258v38c0 101 34 194 90 263v101c-2 4-14 12-29 16l-173 45h-1c-111 31-169 140-169 231v50c0 55 49 100 108 100h997c60 0 108-45 108-100v-50c0-91-58-200-169-231zm-669-440c0-47 20-114 34-157 211 5 371 55 431 78v103c0 82-31 158-79 210-41 45-96 72-154 72-124 0-232-136-232-291v-15zm90 380v-20c43 25 92 40 142 40s97-13 141-37v17c0 42 27 71 60 90-52 45-124 71-201 71s-150-26-202-72c33-18 60-48 60-89zm-45-771h6c1 0 2 0 3-1h2c1 0 1-1 2-1h2c1-1 2-1 3-1 0-1 1-1 2-1 0-1 1-1 2-1 0-1 1-1 2-2 1 0 1 0 2-1 1 0 2-1 2-2h1c69-56 158-35 252-12 51 12 103 24 153 24 13 45 24 125 12 219-76-27-254-81-489-81h-5c-1 0-2 0-3 1h-3c-1 1-2 1-4 1-3 1-5 2-8 4-1 1-2 1-4 2l-1 1-2 2c-1 0-2 1-2 2-1 0-1 0-1 1-1 0-2 1-2 2-1 0-1 1-1 1l-2 2c0 1-1 1-1 2l-1 1c-1 1-1 2-1 3-1 0-1 1-1 1 0 1-1 1-1 2-3-22-5-42-5-58 0-51 24-110 91-110zm699 1112c0 1-4 7-14 7h-997c-10 0-14-6-14-7v-50c0-56 34-122 99-141l113-29c69 83 182 134 301 134s231-51 301-134l112 29c65 19 99 85 99 141v50zM20196 3410h-1l-173-45c-15-4-27-12-29-16v-95c60-71 92-163 92-260v-70c60-194 18-361-3-410-1 0-1-1-1-1 0-1-1-2-1-2 0-1-1-1-1-2s-1-1-1-2c-1-1-1-1-1-2-1 0-1-1-2-2l-1-1-2-2s-1-1-1-2c-1 0-1 0-2-1-1 0-1-1-2-2 0 0-1 0-2-1 0 0-1-1-2-1 0-1-1-1-2-1 0-1-1-1-1-1-1-1-2-1-3-1l-1-1c-1 0-2-1-3-1h-2c-1-1-2-1-3-1h-1c-1-1-2-1-3-1h-12c-45 7-99-6-157-20-103-25-219-52-320 21-98 8-168 91-168 202 0 81 38 225 46 258v38c0 101 35 194 91 263v101c-3 4-14 12-29 16l-174 45c-111 31-169 140-169 231v50c0 55 48 100 108 100h997c59 0 108-45 108-100v-50c0-91-58-200-169-231zm-669-440c0-47 19-114 34-157 211 5 370 55 431 78v103c0 82-31 158-79 210-42 45-96 72-154 72-124 0-232-136-232-291v-15zm90 380v-20c43 25 91 40 142 40 49 0 97-13 141-37v17c0 42 27 71 60 90-52 45-124 71-201 71s-150-26-202-72c33-18 60-48 60-89zm-45-771h6c1 0 2 0 3-1h2s1-1 2-1h2c1-1 2-1 2-1 1-1 2-1 2-1 1-1 2-1 3-1 0-1 1-1 2-2 0 0 1 0 1-1 1 0 2-1 3-2h1c69-56 158-35 252-12 51 12 103 24 153 24 12 45 24 125 11 219-75-27-253-81-488-81h-6s-1 0-2 1h-3c-2 1-3 1-4 1-3 1-5 2-8 4-1 1-3 1-4 2l-1 1c-1 1-2 1-2 2-1 0-2 1-3 2v1c-1 0-2 1-3 2 0 0 0 1-1 1 0 1-1 1-1 2s-1 1-1 2c-1 0-1 1-1 1-1 1-1 2-2 3v1c-1 1-1 1-1 2-3-22-5-42-5-58 0-51 23-110 91-110zm699 1112c0 1-4 7-14 7h-997c-10 0-15-6-15-7v-50c0-56 35-122 100-141l113-29c69 83 182 134 301 134s231-51 300-134l112 29c66 19 100 85 100 141v50zM19361 1586c249 155 398 421 398 714 0 26 21 47 46 47 26 0 47-21 47-47 0-162-42-321-121-460-77-136-188-251-321-333-21-13-50-7-64 15-13 22-7 51 15 64zM18034 2347c26 0 47-21 47-47 0-293 148-559 397-714 22-13 29-42 15-64-13-22-42-28-64-15-132 82-243 197-320 333-79 139-121 298-121 460 0 26 20 47 46 47zM19335 3084c-11-24-39-34-62-23-111 52-230 78-353 78-124 0-243-26-353-78-24-11-52-1-62 23-11 23-1 51 22 62 124 57 256 86 393 86s269-29 392-86c24-11 34-39 23-62z"/><circle class="fil0" cx="2508" cy="2561" r="2173"/><path class="fil1" d="M2256 116c84-8 168-13 252-13 629 0 1258 240 1738 720s720 1109 720 1739c0 141-12 282-36 421l102 18c-49 285-147 563-293 820-140 248-323 476-550 673-193 168-404 301-625 402-229 103-470 171-714 204l-13-102c-109 14-219 22-329 22-629 0-1258-240-1738-720S50 3191 50 2562c0-167 17-334 50-498L0 2043c50-241 134-477 253-697 116-214 264-415 444-596 212-212 453-379 710-502 266-126 550-204 839-234l10 102zm555 4693c216-29 429-89 632-181 196-88 382-207 553-355 201-175 364-378 488-597 128-227 215-472 259-725l100 17c23-134 35-270 35-406 0-607-231-1213-694-1676S3114 192 2508 192c-81 0-162 4-243 12l11 102c-255 26-506 95-742 208-227 108-440 256-629 445-160 160-291 338-393 527-106 196-181 404-225 617l-100-21c-33 158-49 319-49 480 0 606 231 1213 694 1675 463 463 1069 695 1676 695 106 0 212-8 317-22l-14-101z"/><path class="fil4" d="M2755 2152c55-48 87-117 87-192v-433c0-248-201-450-449-450h-93c-248 0-450 202-450 450v433c0 75 32 144 87 192v365c-90 46-357 188-606 392-62 51-98 127-98 208v297c0 32 26 58 59 58s59-26 59-58v-297c0-46 20-89 55-117 264-217 551-362 605-389 27-13 44-40 44-70v-418c0-20-10-38-26-49-38-25-61-68-61-114v-433c0-183 149-332 332-332h93c183 0 332 149 332 332v433c0 46-23 89-61 114-17 11-26 29-26 49v418c0 33 26 59 59 59 32 0 58-26 58-59v-389zM2490 2602c-33 0-59 26-59 59 0 24-10 47-27 62-3 3-7 6-10 9-14 9-30 14-47 14-47 0-85-38-85-85 0-33-26-59-59-59s-59 26-59 59c0 48 17 92 45 126l-44 1005c0 17 7 34 20 46l138 124c11 11 25 16 39 16s28-5 39-16l140-126c13-12 20-28 20-46l-46-993c34-36 54-83 54-136 0-32-27-59-59-59zm-148 1238l-78-70 39-910c14 3 29 4 44 4 11 0 23-1 34-2l41 906-80 72zM3770 2678c-113-113-263-175-422-175-160 0-309 63-422 175-213 213-232 551-50 786-21 38-45 64-70 77-32 15-49 48-44 83 6 35 32 61 67 67 14 3 29 4 44 4 70 0 144-23 207-62 83 41 175 63 268 63 160 0 309-62 422-174 113-113 175-262 175-422-1-160-63-310-175-422zm-84 760c-90 90-210 140-338 140-86 0-169-22-243-66-9-5-19-8-29-8-14 0-26 4-37 12-30 24-61 38-87 47 17-23 33-52 46-84 9-21 6-45-10-62-167-190-158-477 21-656 90-90 210-140 338-140s248 50 339 140 140 210 140 338-49 249-140 339z"/><path class="fil5" d="M3154 3346v-149h78l13 61c20 9 45 14 75 14 27 0 50-5 68-15s27-25 27-44c0-10-3-19-9-26s-14-14-24-19-21-10-35-15c-13-4-26-9-41-14-14-5-28-11-43-16-15-6-28-14-41-22-13-9-25-19-35-31-10-11-18-24-24-41s-9-35-9-56c0-42 13-77 40-105 26-27 62-45 106-53v-100h91v97c22 1 44 5 67 10 22 5 39 10 50 14l18 6-4 139h-75l-17-62c-23-9-46-13-68-13-25 0-45 5-60 14-14 10-21 23-21 39 0 12 5 23 14 31 10 9 22 17 37 23s32 12 50 18 37 14 56 22c19 9 36 18 52 30 15 11 28 26 38 45 9 19 14 41 14 66 0 47-13 85-41 115-27 30-64 50-110 60v116h-91v-111c-23-1-47-4-72-9-24-4-43-9-55-13l-19-6z"/><path class="fil6" d="M6260 17087v88h-176v-88h176zm8982 0h-152v88h152v-88zm-240 0v88h-177v-88h177zm-265 0v88h-177v-88h177zm-265 0v88h-177v-88h177zm-265 0v88h-176v-88h176zm-265 0v88h-176v-88h176zm-265 0v88h-176v-88h176zm-265 0v88h-176v-88h176zm-264 0v88h-177v-88h177zm-265 0v88h-177v-88h177zm-265 0v88h-177v-88h177zm-265 0v88h-177v-88h177zm-265 0v88h-177v-88h177zm-265 0v88h-177v-88h177zm-265 0v88h-176v-88h176zm-265 0v88h-176v-88h176zm-265 0v88h-176v-88h176zm-265 0v88h-176v-88h176zm-264 0v88h-177v-88h177zm-265 0v88h-177v-88h177zm-265 0v88h-177v-88h177zm-265 0v88h-177v-88h177zm-265 0v88h-177v-88h177zm-265 0v88h-176v-88h176zm-265 0v88h-176v-88h176zm-265 0v88h-176v-88h176zm-265 0v88h-176v-88h176zm-264 0v88h-177v-88h177zm-265 0v88h-177v-88h177zm-265 0v88h-177v-88h177zm-265 0v88h-177v-88h177zm-265 0v88h-177v-88h177zm-265 0v88h-177v-88h177zm-265 0v88h-176v-88h176zM6434 17544l-413-413 410-410 63 62-348 348 350 350z"/><path class="fil7" d="M15065 16120v-88h177v88h-177zm-8981 0h151v-88h-151v88zm240 0v-88h176v88h-176zm264 0v-88h177v88h-177zm265 0v-88h177v88h-177zm265 0v-88h177v88h-177zm265 0v-88h177v88h-177zm265 0v-88h177v88h-177zm265 0v-88h177v88h-177zm265 0v-88h176v88h-176zm265 0v-88h176v88h-176zm265 0v-88h176v88h-176zm265 0v-88h176v88h-176zm264 0v-88h177v88h-177zm265 0v-88h177v88h-177zm265 0v-88h177v88h-177zm265 0v-88h177v88h-177zm265 0v-88h177v88h-177zm265 0v-88h177v88h-177zm265 0v-88h176v88h-176zm265 0v-88h176v88h-176zm265 0v-88h176v88h-176zm265 0v-88h176v88h-176zm264 0v-88h177v88h-177zm265 0v-88h177v88h-177zm265 0v-88h177v88h-177zm265 0v-88h177v88h-177zm265 0v-88h177v88h-177zm265 0v-88h176v88h-176zm265 0v-88h176v88h-176zm265 0v-88h176v88h-176zm265 0v-88h176v88h-176zm264 0v-88h177v88h-177zm265 0v-88h177v88h-177zm265 0v-88h177v88h-177zM14829 16426l350-350-347-348 62-62 410 410-413 413z"/><path class="fil1" d="M2885 13063h89v176h-89v-176zm89-5423v36h-89v-36h89zm-89 125h89v176h-89v-176zm0 265h89v176h-89v-176zm0 264h89v177h-89v-177zm0 265h89v177h-89v-177zm0 265h89v177h-89v-177zm0 265h89v177h-89v-177zm0 265h89v177h-89v-177zm0 265h89v176h-89v-176zm0 265h89v176h-89v-176zm0 265h89v176h-89v-176zm0 265h89v176h-89v-176zm0 264h89v177h-89v-177zm0 265h89v177h-89v-177zm0 265h89v177h-89v-177zm0 265h89v177h-89v-177zm0 265h89v177h-89v-177zm0 265h89v177h-89v-177zm0 265h89v176h-89v-176zm0 265h89v176h-89v-176zm0 265h89v176h-89v-176zM2579 12826l350 351 348-348 62 63-410 410-412-413z"/><path class="fil8" d="M1866 7794h-88v-177h88v177zm-88 5476v-90h88v90h-88zm88-178h-88v-177h88v177zm0-265h-88v-176h88v176zm0-265h-88v-176h88v176zm0-265h-88v-176h88v176zm0-265h-88v-176h88v176zm0-264h-88v-177h88v177zm0-265h-88v-177h88v177zm0-265h-88v-177h88v177zm0-265h-88v-177h88v177zm0-265h-88v-177h88v177zm0-265h-88v-177h88v177zm0-265h-88v-176h88v176zm0-265h-88v-176h88v176zm0-265h-88v-176h88v176zm0-265h-88v-176h88v176zm0-264h-88v-177h88v177zm0-265h-88v-177h88v177zm0-265h-88v-177h88v177zm0-265h-88v-177h88v177zm0-265h-88v-177h88v177zM1409 7968l413-413 410 410-62 62-348-347-350 350z"/><path class="fil6" d="M15065 2105v-88h177v88h-177zm-8981 0h151v-88h-151v88zm240 0v-88h176v88h-176zm264 0v-88h177v88h-177zm265 0v-88h177v88h-177zm265 0v-88h177v88h-177zm265 0v-88h177v88h-177zm265 0v-88h177v88h-177zm265 0v-88h177v88h-177zm265 0v-88h176v88h-176zm265 0v-88h176v88h-176zm265 0v-88h176v88h-176zm265 0v-88h176v88h-176zm264 0v-88h177v88h-177zm265 0v-88h177v88h-177zm265 0v-88h177v88h-177zm265 0v-88h177v88h-177zm265 0v-88h177v88h-177zm265 0v-88h177v88h-177zm265 0v-88h176v88h-176zm265 0v-88h176v88h-176zm265 0v-88h176v88h-176zm265 0v-88h176v88h-176zm264 0v-88h177v88h-177zm265 0v-88h177v88h-177zm265 0v-88h177v88h-177zm265 0v-88h177v88h-177zm265 0v-88h177v88h-177zm265 0v-88h176v88h-176zm265 0v-88h176v88h-176zm265 0v-88h176v88h-176zm265 0v-88h176v88h-176zm264 0v-88h177v88h-177zm265 0v-88h177v88h-177zm265 0v-88h177v88h-177zM14891 1648l413 413-410 410-62-62 347-348-350-350z"/><path class="fil1" d="M6260 3072v88h-176v-88h176zm8982 0h-152v88h152v-88zm-240 0v88h-177v-88h177zm-265 0v88h-177v-88h177zm-265 0v88h-177v-88h177zm-265 0v88h-176v-88h176zm-265 0v88h-176v-88h176zm-265 0v88h-176v-88h176zm-265 0v88h-176v-88h176zm-264 0v88h-177v-88h177zm-265 0v88h-177v-88h177zm-265 0v88h-177v-88h177zm-265 0v88h-177v-88h177zm-265 0v88h-177v-88h177zm-265 0v88h-177v-88h177zm-265 0v88h-176v-88h176zm-265 0v88h-176v-88h176zm-265 0v88h-176v-88h176zm-265 0v88h-176v-88h176zm-264 0v88h-177v-88h177zm-265 0v88h-177v-88h177zm-265 0v88h-177v-88h177zm-265 0v88h-177v-88h177zm-265 0v88h-177v-88h177zm-265 0v88h-176v-88h176zm-265 0v88h-176v-88h176zm-265 0v88h-176v-88h176zm-265 0v88h-176v-88h176zm-264 0v88h-177v-88h177zm-265 0v88h-177v-88h177zm-265 0v88h-177v-88h177zm-265 0v88h-177v-88h177zm-265 0v88h-177v-88h177zm-265 0v88h-177v-88h177zm-265 0v88h-176v-88h176zM6496 2766l-350 350 348 348-63 62-410-410 413-412zM18879 13482v-88h177v88h-177zm-7151 0h176v-88h-176v88zm264 0v-88h177v88h-177zm265 0v-88h176v88h-176zm265 0v-88h176v88h-176zm265 0v-88h176v88h-176zm265 0v-88h176v88h-176zm264 0v-88h177v88h-177zm265 0v-88h177v88h-177zm265 0v-88h177v88h-177zm265 0v-88h177v88h-177zm265 0v-88h177v88h-177zm265 0v-88h177v88h-177zm265 0v-88h176v88h-176zm265 0v-88h176v88h-176zm265 0v-88h176v88h-176zm265 0v-88h176v88h-176zm264 0v-88h177v88h-177zm265 0v-88h177v88h-177zm265 0v-88h177v88h-177zm265 0v-88h177v88h-177zm265 0v-88h177v88h-177zm265 0v-88h176v88h-176zm265 0v-88h176v88h-176zm265 0v-88h176v88h-176zm265 0v-88h176v88h-176zm264 0v-88h177v88h-177zm265 0v-88h177v88h-177zM19100 7859h-88v-176h88v176zm0 5563h-88v-176h88v176zm0-265h-88v-176h88v176zm0-265h-88v-176h88v176zm0-265h-88v-176h88v176zm0-264h-88v-177h88v177zm0-265h-88v-177h88v177zm0-265h-88v-177h88v177zm0-265h-88v-177h88v177zm0-265h-88v-177h88v177zm0-265h-88v-177h88v177zm0-265h-88v-176h88v176zm0-265h-88v-176h88v176zm0-265h-88v-176h88v176zm0-265h-88v-176h88v176zm0-264h-88v-177h88v177zm0-265h-88v-177h88v177zm0-265h-88v-177h88v177zm0-265h-88v-177h88v177zm0-265h-88v-177h88v177zm0-265h-88v-176h88v176zm0-265h-88v-176h88v176zM19406 8096l-350-351-348 348-62-63 410-410 413 413z"/><path class="fil7" d="M11684 15899h88v177h-88v-177zm0-2384h88v177h-88v-177zm0 265h88v177h-88v-177zm0 265h88v176h-88v-176zm0 265h88v176h-88v-176zm0 265h88v176h-88v-176zm0 265h88v176h-88v-176zm0 264h88v177h-88v-177zm0 265h88v177h-88v-177zm0 265h88v177h-88v-177z"/><path class="fil1" d="M16522 21362c38-46 75-92 112-139l-70-54c-36 46-73 91-110 137l68 56zm-11744-139l35 45 69-55-35-44-69 54zm91 114c37 46 75 91 114 136l67-58c-38-44-76-89-113-134l-68 56zm172 203c39 45 79 89 119 132l65-60c-40-43-79-86-118-130l-66 58zm179 197c41 43 82 86 124 128l63-62c-42-42-82-84-122-126l-65 60zm187 191c42 42 84 83 127 123l61-64c-43-40-85-81-127-122l-61 63zm192 184c44 40 88 80 132 119l58-67c-44-38-87-77-130-117l-60 65zm199 177c45 39 91 77 136 114l56-68c-45-37-90-75-134-113l-58 67zm205 170c47 37 93 73 140 109l54-70c-47-35-93-71-139-108l-55 69zm211 163c48 35 96 70 144 104l51-72c-48-34-95-68-142-103l-53 71zm217 155c49 34 98 67 147 99l49-74c-49-32-98-65-146-98l-50 73zm222 147c50 32 100 63 151 94l45-75c-50-31-99-62-149-93l-47 74zm227 140c51 30 102 60 154 88l43-77c-51-28-102-58-152-87l-45 76zm232 131c52 29 104 56 157 83l40-78c-52-27-104-54-155-82l-42 77zm236 123c53 27 106 53 160 78l37-80c-53-25-105-51-158-77l-39 79zm241 115c53 25 108 48 162 72l35-82c-54-23-108-46-161-70l-36 80zm244 106c55 23 110 45 165 66l32-83c-55-21-109-42-163-65l-34 82zm248 97c56 21 111 41 167 60l29-83c-55-19-110-39-165-60l-31 83zm251 89c57 18 113 36 170 54l25-85c-56-17-111-35-167-53l-28 84zm255 79c57 17 114 33 171 48l23-86c-57-15-113-30-170-47l-24 85zm257 70c57 15 115 29 173 42l19-86c-57-13-114-27-171-41l-21 85zm259 61c58 13 116 24 174 36l17-87c-58-11-115-23-172-35l-19 86zm262 52c58 10 116 20 175 29l13-87c-58-9-115-19-173-29l-15 87zm263 42c58 9 117 17 176 24l10-88c-58-7-116-15-174-23l-12 87zm264 34c59 6 118 11 177 16l7-88c-58-4-117-10-175-16l-9 88zm265 23c60 5 119 8 178 11l4-88c-59-3-117-7-175-11l-7 88zm266 15c60 2 119 3 178 4l1-88c-59-1-117-2-175-4l-4 88zm267 5v-88c58 0 117-1 175-2l2 88c-59 2-118 2-177 2zm266-4c59-2 119-5 178-8l-5-88c-59 3-117 6-176 8l3 88zm266-13c59-4 118-9 177-15l-8-87c-58 5-116 10-175 13l6 89zm266-23c59-6 117-13 176-20l-11-88c-58 7-116 14-174 20l9 88zm264-32c59-8 118-17 176-27l-14-87c-58 10-116 19-174 26l12 88zm263-41c59-11 117-21 175-33l-17-87c-58 12-115 23-173 33l15 87zm262-51c58-12 116-25 173-39l-20-86c-57 14-114 26-171 39l18 86zm260-60c57-14 114-29 172-45l-24-85c-56 15-113 30-170 44l22 86zm257-69c57-17 114-34 170-51l-26-85c-56 18-112 35-169 51l25 85zm255-78c56-19 112-38 168-58l-30-83c-55 20-110 38-166 57l28 84zm252-88c55-20 110-41 166-63l-33-82c-54 22-109 42-164 63l31 82zm248-96c55-22 109-45 164-69l-36-81c-53 24-107 46-162 69l34 81zm245-105c54-24 108-49 161-75l-38-79c-53 25-106 50-159 74l36 80zm241-113c53-27 106-53 158-81l-41-78c-52 27-104 54-156 80l39 79zm237-123c51-27 105-56 155-86l-44-76c-50 25-103 58-153 85l42 77zm232-130c51-30 102-60 152-91l-46-75c-50 30-100 60-151 90l45 76zm228-138c50-32 99-64 149-97l-49-74c-49 33-98 65-148 96l48 75zm222-147c49-33 98-67 146-102l-52-71c-47 34-95 67-144 100l50 73zm217-154c48-35 95-71 142-107l-54-70c-46 36-93 71-140 106l52 71zm212-162c47-37 92-74 138-112l-56-68c-46 38-91 74-137 111l55 69zm206-169c45-38 90-77 134-117l-59-66c-44 39-88 78-132 116l57 67zm200-176c43-40 87-81 130-122l-62-63c-42 40-85 80-128 120l60 65zm193-184c43-41 84-83 126-125l-64-62c-41 42-82 84-124 124l62 63zm187-189c41-43 81-87 121-131l-65-59c-40 43-79 86-120 129l64 61zm180-197c40-44 78-89 116-134l-67-57c-38 45-76 89-115 133l66 58zM5352 21241l-496-1v492h-88l1-580 583 1z"/><path class="fil8" d="M4514 21909c-37-45-74-91-110-137l-69 54c36 47 73 93 111 139l68-56zm12492-137l-9 12 69 55 10-13-70-54zm-64 81c-37 45-74 91-112 135l68 57c37-46 75-91 113-137l-69-55zm-169 202c-38 44-77 88-116 132l65 59c40-44 79-89 118-133l-67-58zm-175 197c-40 43-80 85-121 127l64 62c41-43 82-86 122-130l-65-59zm-182 190c-41 42-82 83-124 124l61 64c43-42 85-83 126-126l-63-62zm-188 185c-42 41-85 80-128 120l59 65c44-40 87-80 130-121l-61-64zm-193 179c-44 39-88 77-133 115l58 67c45-38 89-77 133-116l-58-66zm-200 172c-45 37-90 74-136 111l55 69c46-37 92-74 138-112l-57-68zm-205 165c-46 36-92 72-139 107l52 71c48-36 95-72 142-108l-55-70zm-210 159c-47 35-95 68-143 102l50 72c49-33 97-68 145-103l-52-71zm-215 152c-49 33-97 65-147 97l48 74c50-32 99-65 148-98l-49-73zm-221 144c-49 32-99 62-149 93l46 75c50-30 101-61 151-93l-48-75zm-224 138l-153 87 43 77c52-29 103-58 154-88l-44-76zm-230 129c-51 28-103 56-155 83l41 78c52-27 104-55 156-83l-42-78zm-233 122c-52 27-105 52-158 78l38 79c53-25 107-51 160-78l-40-79zm-237 115c-53 24-107 48-161 72l36 81c54-24 108-48 162-73l-37-80zm-241 106c-54 23-108 45-163 67l33 82c55-22 109-44 164-67l-34-82zm-245 99c-54 21-109 41-164 61l29 83c56-20 112-40 167-62l-32-82zm-247 90c-55 19-111 38-167 56l27 84c57-18 113-37 169-56l-29-84zm-250 82c-56 17-112 34-169 50l24 85c57-16 114-33 171-50l-26-85zm-253 74c-57 15-113 30-170 44l21 86c58-14 115-29 172-45l-23-85zm-256 65c-57 14-114 27-171 39l19 86c58-12 115-25 173-39l-21-86zm-257 57c-55 11-119 20-172 33l15 87c58-12 117-22 175-34l-18-86zm-259 48c-57 10-115 19-173 28l12 87c59-9 117-18 176-28l-15-87zm-260 40c-58 8-116 15-174 22l9 87c59-6 118-14 177-22l-12-87zm-262 31c-58 6-116 11-175 16l7 88c59-5 118-10 177-16l-9-88zm-262 23c-59 3-117 7-176 10l4 88c59-4 119-6 178-10l-6-88zm-263 13c-59 3-117 4-176 5l1 88c60-1 119-2 178-4l-3-89zm-264 6c-58 0-117 0-175-1l-2 88c59 1 118 1 178 1l-1-88zm-263-3c-59-2-117-4-176-7l-4 88c59 3 118 6 177 7l3-88zm-263-12c-59-3-117-7-175-12l-8 88c59 5 118 9 177 12l6-88zm-263-20c-58-5-116-11-175-18l-10 88 177 18 8-88zm-262-29c-58-7-116-15-174-24l-13 88c59 8 117 16 176 24l11-88zm-261-37c-57-9-115-19-173-30l-16 87c59 11 117 21 175 30l14-87zm-259-46c-57-11-115-23-172-35l-19 86 174 36 17-87zm-258-54c-57-13-114-27-171-41l-21 85c57 15 115 29 172 42l20-86zm-256-63c-56-15-113-30-169-47l-24 85c56 17 114 32 171 47l22-85zm-253-72c-56-17-112-34-168-52l-27 84c56 18 113 36 169 53l26-85zm-251-80c-56-18-111-37-166-57l-30 83c56 20 111 39 168 58l28-84zm-248-88c-55-20-110-41-164-63l-33 82c55 22 110 43 166 64l31-83zm-246-96c-54-21-108-45-161-68l-36 80c54 24 109 48 164 70l33-82zm-241-104c-54-24-107-49-160-74l-38 80c53 25 107 50 161 74l37-80zm-239-112c-52-26-105-53-157-79l-40 78c52 27 105 54 158 80l39-79zm-234-120c-52-28-103-56-154-85l-44 77c52 29 104 58 156 86l42-78zm-231-128c-51-29-101-59-151-89l-46 75c51 31 102 61 153 90l44-76zm-226-135c-50-31-99-63-148-94l-48 73c49 33 99 65 150 96l46-75zm-221-143c-49-32-97-65-145-99l-51 72c48 34 97 68 147 101l49-74zm-217-150c-48-34-95-68-142-103l-53 70c47 36 95 71 143 105l52-72zm-212-156c-46-36-92-72-138-109l-55 69c46 37 92 74 139 110l54-70zm-206-164c-45-37-91-75-135-113l-57 67c44 39 90 77 136 114l56-68zm-201-170c-44-39-88-78-131-117l-60 65c44 40 88 79 132 118l59-66zm-196-177c-42-40-85-81-126-121l-62 63c42 41 85 82 128 122l60-64zm-189-183c-41-42-82-83-123-126l-64 61c41 43 83 85 125 127l62-62zm-183-189c-40-43-80-86-119-130l-66 59c40 44 80 88 120 131l65-60zm-177-195c-39-44-77-89-115-134l-68 57c39 45 77 90 116 135l67-58zM16501 21756l584-1 1 580h-88l-1-492-496 1zM22359 3553c-45-37-92-74-138-111l-55 69c46 37 92 73 137 111l56-69zm-138 12630l12-10-55-69-12 10 55 69zm82-65c46-37 91-75 137-113l-57-67c-45 37-90 75-136 111l56 69zm204-171c45-38 89-77 133-117l-59-66c-43 40-87 78-132 117l58 66zm199-177c44-40 87-81 129-122l-61-63c-42 40-85 81-128 120l60 65zm193-184c42-41 84-83 125-125l-63-62c-41 42-82 84-124 125l62 62zm187-189c41-43 81-86 121-130l-66-60c-39 44-79 86-119 129l64 61zm180-196c40-44 79-89 117-134l-67-57c-38 44-77 88-116 132l66 59zm174-202c38-45 75-91 112-137l-69-55c-36 45-73 91-111 136l68 56zm168-207c36-47 72-94 107-141l-71-53c-35 47-70 94-106 140l70 54zm160-213c35-47 69-96 103-144l-73-51c-33 48-67 96-101 144l71 51zm153-217c34-49 66-99 99-148l-75-48c-32 49-64 98-97 146l73 50zm146-223c32-50 63-100 94-151l-76-46c-30 51-61 100-92 150l74 47zm139-227c30-51 60-103 89-154l-78-43c-28 51-57 102-87 152l76 45zm131-232c29-52 56-104 84-157l-79-40c-27 52-54 103-82 155l77 42zm124-236c27-53 52-106 78-160l-80-37c-25 52-51 105-77 157l79 40zm116-240c24-54 49-108 72-162l-81-35c-23 54-47 107-72 160l81 37zm107-244c23-54 46-109 68-164l-83-32c-21 54-43 108-66 162l81 34zm100-247c21-55 41-110 62-166l-84-30c-19 55-40 110-61 165l83 31zm91-250c19-56 38-112 56-168l-84-27c-18 56-36 111-55 166l83 29zm83-253c18-57 34-113 51-170l-85-24c-16 56-33 112-50 168l84 26zm75-256l45-171-86-22c-14 57-29 114-45 170l86 23zm66-258c13-57 26-115 39-173l-87-18c-12 57-25 114-38 171l86 20zm57-260c12-58 22-116 34-174l-87-16c-14 53-22 118-34 173l87 17zm49-262c10-58 19-117 28-175l-88-13c-8 58-18 116-27 174l87 14zm40-263c8-59 15-117 22-176l-88-10c-7 58-14 116-22 174l88 12zm31-264c6-59 12-118 17-177l-88-7c-5 58-11 117-16 175l87 9zm23-266c4-59 7-118 11-177l-89-4c-3 59-6 117-10 175l88 6zm14-266c2-59 4-118 5-177l-88-1c-1 58-3 117-5 175l88 3zm6-266c0-59 0-118-1-177l-89 1c1 59 2 117 1 176h89zm-3-266c-2-59-4-119-7-178l-88 5c2 58 5 117 6 175l89-2zm-12-266c-4-59-8-118-13-177l-88 7c5 58 9 117 13 175l88-5zm-21-266c-5-59-11-118-18-176l-88 10c7 58 13 116 19 175l87-9zm-29-265c-7-58-15-117-24-176l-87 14c9 58 16 116 24 174l87-12zm-37-263c-10-59-20-117-30-175l-87 16c10 57 20 115 29 173l88-14zm-47-262c-11-59-23-117-36-174l-86 18c13 58 24 115 36 172l86-16zm-55-261c-13-58-27-115-41-173l-86 22c14 57 28 114 41 171l86-20zm-63-259c-15-57-31-115-48-171l-84 25c16 55 31 113 46 169l86-23zm-73-256c-17-57-34-113-53-170l-83 28c18 55 35 111 52 167l84-25zm-80-254c-19-56-39-112-59-168l-83 30c20 56 39 111 58 166l84-28zm-89-251c-21-55-42-111-64-166l-82 33c21 55 43 109 63 164l83-31zm-98-248c-22-55-45-109-69-163l-81 35c24 53 47 108 69 162l81-34zm-105-245c-24-53-49-107-75-161l-79 39c25 52 49 106 73 159l81-37zm-114-240c-26-54-52-106-80-159l-78 41c27 52 53 104 79 157l79-39zm-121-238c-28-52-56-104-85-155l-77 43c29 51 57 103 84 154l78-42zm-129-233c-30-51-60-102-90-152l-76 45c30 51 60 101 90 152l76-45zm-137-228c-31-50-63-100-95-150l-74 48c32 49 64 99 94 149l75-47zm-144-224c-33-49-66-98-100-147l-72 51c33 48 66 96 99 145l73-49zm-151-219c-35-48-70-96-105-143l-71 53c35 47 70 94 104 141l72-51zm-159-214c-36-47-72-94-109-140l-69 55c36 46 73 92 108 139l70-54zm-165-209c-38-46-76-91-114-136l-67 58c38 44 75 89 112 134l69-56zm-173-203c-39-45-78-89-118-132l-65 59c40 44 79 87 117 131l66-58zm-178-197c-41-44-82-87-123-129l-63 62c41 42 81 84 121 127l65-60zm-185-192c-42-42-84-83-127-124l-61 64c42 40 84 81 125 123l63-63zm-192-185c-43-41-87-81-130-120l-59 65c43 39 87 79 129 119l60-64zm-197-179c-44-39-89-78-134-116l-57 68c45 37 89 76 133 114l58-66zM22238 15609v495l491 1v88l-579-1v-583z"/></g></svg>