<svg xmlns="http://www.w3.org/2000/svg" viewBox="0 0 537 400" enable-background="new 0 0 537 400"><style type="text/css">.st0{fill:#FFFFFF;}</style><path class="st0" d="M374.3 344.1c-.1 0-.2-.1-.2-.1l-15.7-108.5v-.1l.1-.1 160.6 10c.1 0 .1.1.2.1 0 .1 0 .1-.1.2l-144.9 98.5c.1 0 .1 0 0 0m-15.5-108.5l15.6 108 144.3-98.1-159.9-9.9zM354.9 236c-.3-2.1 1.1-4 3.2-4.3 2.1-.3 4 1.1 4.3 3.2.3 2.1-1.1 4-3.2 4.3-2.1.3-4-1.2-4.3-3.2M358.9 231.6c-2.1-.1-3.9 1.5-4 3.5-.1 2.1 1.5 3.9 3.5 4 2.1.1 3.9-1.5 4-3.5.1-2-1.5-3.8-3.5-4"/><path class="st0" d="M61.8 212.2c-.2-.1-.2-.2-.2-.2l26.2-58.4.1-.1h.1l24.4 15 .1.1c0 .1 0 .1-.1.1l-50.6 43.4c.1.1.1.1 0 .1m26.3-58.3l-25.8 57.6 49.9-42.8-24.1-14.8zM88 153.8c-.1 0-.1 0-.1-.1L46 76.9v-.2c0-.1.1-.1.2 0l75.1 33.4.1.1v.1l-33.2 43.4c-.1.1-.1.1-.2.1M46.5 77.2L88 153.3l32.9-43-74.4-33.1zM122.7 106.8c1.9.9 2.8 3.1 1.9 5-.9 1.9-3.1 2.8-5 1.9-1.9-.9-2.8-3.1-1.9-5 .9-1.9 3.1-2.8 5-1.9M124.2 112.5c1.3-1.7 1-4-.7-5.3-1.7-1.3-4-1-5.3.7-1.3 1.7-1 4 .7 5.3 1.6 1.3 4 1 5.3-.7"/><path class="st0" d="M121.2 110.4s-.1 0 0 0L46 77c-.1 0-.1-.1-.1-.2s.1-.1.2-.1l80.3 25 .1.1v.1l-5.2 8.3c0 .2-.1.2-.1.2M48.8 77.8l72.3 32.2 5-8-77.3-24.2zM127.5 98.3c2 .6 3.1 2.7 2.5 4.7-.6 2-2.7 3.1-4.7 2.5-2-.6-3.1-2.7-2.5-4.7.6-2.1 2.7-3.2 4.7-2.5M129.6 103.9c1.1-1.8.6-4.1-1.2-5.2-1.8-1.1-4.1-.6-5.2 1.2-1.1 1.8-.6 4.1 1.2 5.2 1.8 1.1 4.1.6 5.2-1.2"/><path class="st0" d="M126.4 102L46.1 77c-.1 0-.1-.1-.1-.2v-8.3c0-.1 0-.1.1-.1h.2l80.3 33.4c.1 0 .1.1.1.2h-.3M46.3 76.7l76.7 23.9-76.7-31.9v8zM496.5 349.1l-122.2-5c-.1 0-.1-.1-.2-.1 0-.1 0-.1.1-.2l144.9-98.5h.2c.1 0 .1.1.1.2L496.7 349c0 .1-.1.1-.2.1m-121.7-5.3l121.6 5 22.6-103-144.2 98zM84.5 232.3h-.1l-22.7-20-.1-.1s0-.1.1-.1l50.6-43.4c.1-.1.1-.1.2 0 .1 0 .1.1.1.2l-27.9 63.4c-.1-.1-.1-.1-.2 0m-22.4-20.2l22.4 19.8 27.5-62.6-49.9 42.8zM110 165.8c1.6-1.4 4-1.2 5.3.4 1.4 1.6 1.2 4-.4 5.3-1.6 1.4-4 1.2-5.3-.4-1.4-1.6-1.2-4 .4-5.3M115.9 170.2c.8-1.9 0-4.1-1.9-5-1.9-.8-4.1 0-5 1.9-.8 1.9 0 4.1 1.9 5 1.9.9 4.2 0 5-1.9"/><path class="st0" d="M84.5 232.3h-.1c-.1 0-.1-.1 0-.2l27.9-63.4c0-.1.1-.1.2-.1l66.3 11.7c.1 0 .1.1.1.1 0 .1 0 .1-.1.2l-94.3 51.7c.1 0 0 0 0 0m28-63.5l-27.7 62.9 93.4-51.3-65.7-11.6zM109 167.1c.8-1.9 3.1-2.8 5-1.9 1.9.8 2.8 3.1 1.9 5-.8 1.9-3.1 2.8-5 1.9-1.9-.8-2.8-3.1-1.9-5M113.1 164.9c-2.1-.4-4 1-4.4 3.1-.4 2.1 1 4 3.1 4.4 2.1.4 4-1 4.4-3.1.3-2.1-1-4-3.1-4.4"/><path class="st0" d="M224.2 195.5l-45.5-15c-.1 0-.1-.1-.1-.2s.1-.1.1-.2l85.6-16.7c.1 0 .2 0 .2.1v.2l-40.2 31.7c0 .1-.1.1-.1.1m-44.7-15.1l44.7 14.8 39.5-31.2-84.2 16.4zM177.6 183.9c-2-.7-3.1-2.8-2.4-4.8.7-2 2.8-3.1 4.8-2.4 2 .7 3.1 2.8 2.4 4.8-.7 2-2.8 3.1-4.8 2.4M178.1 176.6c-2.1.4-3.4 2.4-3 4.4.4 2.1 2.4 3.4 4.4 3 2.1-.4 3.4-2.4 3-4.4-.4-2-2.4-3.4-4.4-3"/><path class="st0" d="M126.4 102L46.1 68.6c-.1 0-.1-.1-.1-.2s0-.1.1-.2l110-46.7h.2s.1.1 0 .2l-29.7 80.1c0 .2-.1.2-.2.2.1 0 0 0 0 0M46.6 68.5l79.8 33.2L155.8 22 46.6 68.5zM264.3 163.8l-138-61.8c-.1 0-.1-.1-.1-.2l29.7-80.1c0-.1.1-.1.1-.1.1 0 .1 0 .2.1l108.2 141.9v.2h-.1m-137.7-62l137.2 61.4L156.1 22.1l-29.5 79.7zM264.3 163.8c-.1 0-.1 0-.1-.1L156 21.8v-.2c0-.1.1-.1.2-.1l178 63.5c.1 0 .1.1.1.1v.2l-69.8 78.5h-.2M156.6 22.1l107.8 141.3 69.5-78.1-177.3-63.2zM335.4 81.6c2 .7 3 2.9 2.3 4.8-.7 2-2.9 3-4.8 2.3-2-.7-3-2.9-2.3-4.8.7-2 2.9-3 4.8-2.3M337 87.7c1.4-1.6 1.3-4-.3-5.3-1.6-1.4-4-1.3-5.3.3-1.4 1.6-1.3 4 .3 5.3 1.5 1.4 3.9 1.3 5.3-.3"/><path class="st0" d="M334.2 85.3s-.1 0 0 0L156 21.9c-.1 0-.1-.1-.1-.2s.1-.1.2-.1l172.8 15c.1 0 .1.1.2.1l5.2 48.4c0 .1 0 .1-.1.1v.1M157.4 22L334 84.9l-5.2-48L157.4 22zM519.2 245.6l-160.6-10c-.1 0-.1-.1-.2-.1 0-.1 0-.2.1-.2l136.2-46.7c.1 0 .2 0 .2.1l24.4 56.8v.2c0-.1 0-.1-.1-.1m-159.7-10.3l159.5 10-24.3-56.4-135.2 46.4zM358.4 239.2c-2.1-.1-3.7-1.9-3.5-4 .1-2.1 1.9-3.7 4-3.5 2.1.1 3.7 1.9 3.5 4-.1 2.1-1.9 3.6-4 3.5M357.4 231.8c-2 .7-3 2.8-2.4 4.8.7 2 2.8 3 4.8 2.4 2-.7 3-2.8 2.4-4.8-.7-2-2.8-3-4.8-2.4"/><path class="st0" d="M358.6 235.6s-.1 0-.1-.1c0 0-.1-.1 0-.2l41.9-90.2c0-.1.1-.1.2-.1l94.3 43.4c.1 0 .1.1.1.2s-.1.1-.1.2l-136.3 46.8c.1 0 0 0 0 0m42-90.1l-41.7 89.6 135.4-46.5-93.7-43.1zM397.1 143.7c.9-1.9 3.1-2.7 5-1.8 1.9.9 2.7 3.1 1.8 5-.9 1.9-3.1 2.7-5 1.8-1.9-.9-2.7-3.1-1.8-5M402.1 141.8c-1.9-.9-4.1 0-5 1.9-.9 1.9 0 4.2 1.9 5 1.9.9 4.1 0 5-1.9.8-1.8 0-4.1-1.9-5"/><path class="st0" d="M494.8 188.8s-.1 0 0 0l-94.3-43.4-.1-.1v-.1l38.4-45.1.1-.1c.1 0 .1 0 .1.1l55.9 88.5v.2h-.1m-94-43.6l93.6 43.1-55.4-87.8-38.2 44.7zM398.9 148.7c-1.9-.9-2.7-3.1-1.9-5 .9-1.9 3.1-2.7 5-1.9 1.9.9 2.7 3.1 1.9 5-.8 2-3.1 2.8-5 1.9M397.6 142.8c-1.4 1.6-1.2 4 .4 5.3 1.6 1.4 4 1.2 5.3-.4 1.4-1.6 1.2-4-.4-5.3-1.5-1.4-3.9-1.2-5.3.4"/><path class="st0" d="M112.4 168.8l-24.5-15c-.1 0-.1-.1-.1-.2s.1-.1.1-.1l48.9-10c.1 0 .1 0 .2.1v.2l-24.5 25h-.1m-23.9-15.1l24 14.7 24-24.6-48 9.9zM88 153.8c-.1 0-.1 0-.1-.1v-.2l33.2-43.4s.1-.1.2-.1.1 0 .1.1l15.7 33.4v.1l-.1.1-49 10.1m33.1-43.3l-32.7 42.8 48.2-9.9-15.5-32.9zM118.2 107.9c1.3-1.7 3.6-2 5.3-.7 1.7 1.3 2 3.6.7 5.3-1.3 1.7-3.6 2-5.3.7-1.7-1.2-2-3.6-.7-5.3M124.6 108.6c-.9-1.9-3.1-2.7-5-1.8-1.9.9-2.7 3.1-1.8 5 .9 1.9 3.1 2.7 5 1.8 1.9-.8 2.7-3.1 1.8-5"/><path class="st0" d="M178.8 180.5l-66.4-11.7c-.1 0-.1-.1-.1-.1v-.2l24.5-25c.1-.1.2-.1.2 0l41.9 36.7c.1 0 .1.1 0 .2 0 .1 0 .1-.1.1m-66-12l65.4 11.5-41.3-36.2-24.1 24.7zM134.2 141c1.5-1.5 3.9-1.5 5.4-.1 1.5 1.5 1.5 3.9.1 5.4-1.5 1.5-3.9 1.5-5.4.1-1.5-1.5-1.6-3.9-.1-5.4M139.4 140.8c-1.6-1.4-4-1.2-5.3.3-1.4 1.6-1.2 4 .4 5.3 1.6 1.4 4 1.2 5.3-.4 1.3-1.5 1.2-3.9-.4-5.2"/><path class="st0" d="M136.9 143.8c-.1 0-.1 0-.2-.1L121 110.3v-.2l5.2-8.3c0-.1.1-.1.2-.1s.1.1.1.1l10.5 41.7c.1.2 0 .2-.1.3m-15.5-33.6l14.9 31.7-10-39.7-4.9 8zM123.2 99.9c1.1-1.8 3.5-2.3 5.2-1.2 1.8 1.1 2.3 3.4 1.2 5.2-1.1 1.8-3.5 2.3-5.2 1.2-1.8-1.1-2.3-3.5-1.2-5.2M130.1 100.9c-.5-2-2.6-3.3-4.6-2.8-2 .5-3.3 2.6-2.7 4.6.5 2 2.6 3.3 4.6 2.8 2-.5 3.2-2.5 2.7-4.6"/><path class="st0" d="M264.3 163.8l-127.5-20c-.1 0-.1-.1-.1-.1L126.2 102c0-.1 0-.1.1-.2h.2l137.9 61.8c.1 0 .1.1.1.2h-.2M137 143.5l126.1 19.8-136.5-61.1 10.4 41.3zM265.9 160.2c1.9.9 2.8 3.1 1.9 5-.9 1.9-3.1 2.8-5 1.9-1.9-.9-2.8-3.1-1.9-5 .8-1.9 3.1-2.8 5-1.9M263.8 167.4c2.1.3 4-1.1 4.3-3.2.3-2.1-1.1-4-3.2-4.3-2.1-.3-4 1.1-4.3 3.2-.3 2 1.1 4 3.2 4.3"/><path class="st0" d="M178.8 180.5h-.1l-41.9-36.7c-.1 0-.1-.1 0-.2 0-.1.1-.1.2-.1l127.4 20c.1 0 .1.1.1.2s-.1.2-.1.2l-85.6 16.6m-41.4-36.6l41.4 36.3 84.5-16.5-125.9-19.8zM134.4 146.5c-1.6-1.4-1.7-3.8-.4-5.3 1.4-1.6 3.8-1.7 5.3-.3 1.6 1.4 1.7 3.8.4 5.3-1.3 1.5-3.7 1.6-5.3.3M137.5 139.9c-2.1-.3-4 1.1-4.3 3.2-.3 2.1 1.1 4 3.2 4.3 2.1.3 4-1.1 4.3-3.2.3-2.1-1.1-4-3.2-4.3"/><path class="st0" d="M400.5 145.4c-.1 0-.2-.1-.2-.2v-31.7c0-.1 0-.1.1-.2l38.4-13.3c.1 0 .1 0 .2.1v.2l-38.4 45.1h-.1m.2-31.7v31.1l37.7-44.3-37.7 13.2zM396.7 113.6c0-2.1 1.7-3.8 3.8-3.8 2.1 0 3.8 1.7 3.8 3.8 0 2.1-1.7 3.8-3.8 3.8-2.1-.1-3.8-1.8-3.8-3.8M399.3 110c-2 .7-3 2.8-2.3 4.8.7 2 2.8 3 4.8 2.3 2-.7 3-2.8 2.3-4.8-.7-2-2.9-3-4.8-2.3"/><path class="st0" d="M224.2 195.5c-.1 0-.1 0-.2-.1v-.2l40.2-31.7h.2c.1 0 .1.1.1.2v21.7c0 .1-.1.1-.1.2l-40.2 9.9m40-31.5l-39.3 31 39.3-9.8V164zM262 160.7c1.6-1.3 4-1 5.3.6 1.3 1.6 1 4-.6 5.3-1.6 1.3-4 1-5.3-.6-1.3-1.6-1-4 .6-5.3M268.1 163.6c0-2.1-1.7-3.8-3.8-3.8-2.1 0-3.8 1.7-3.8 3.8 0 2.1 1.7 3.8 3.8 3.8 2.1 0 3.8-1.7 3.8-3.8"/><path class="st0" d="M224.2 195.5c-.1 0-.2-.1-.2-.1 0-.1 0-.2.1-.2l40.2-10c.1 0 .1 0 .2.1l3.5 5v.2c0 .1-.1.1-.1.1l-43.7 4.9zm40.1-10l-37.5 9.4 40.8-4.7-3.3-4.7zM224.6 199.1c-2.1.2-4-1.3-4.2-3.3-.2-2.1 1.3-4 3.3-4.2 2.1-.2 4 1.2 4.2 3.3.3 2.1-1.2 4-3.3 4.2M223.3 191.7c-2 .5-3.3 2.6-2.8 4.6.5 2 2.6 3.3 4.6 2.8 2-.5 3.3-2.6 2.8-4.6-.5-2.1-2.6-3.3-4.6-2.8"/><path class="st0" d="M267.8 190.5c-.1 0-.1 0-.1-.1l-3.5-5v-21.8c0-.1.1-.2.2-.2s.2.1.2.1l3.5 26.7c-.1.2-.1.3-.3.3.1 0 .1 0 0 0m-3.3-5.2l3.1 4.4-3.1-23.5v19.1zM261.2 187.5c-1.2-1.7-.8-4.1.9-5.3 1.7-1.2 4.1-.8 5.3.9 1.2 1.7.8 4.1-.9 5.3-1.7 1.3-4.1.8-5.3-.9M260.6 185.3c0 2.1 1.7 3.8 3.8 3.8 2.1 0 3.8-1.7 3.8-3.8 0-2.1-1.7-3.8-3.8-3.8-2.1.1-3.8 1.8-3.8 3.8"/><path class="st0" d="M264.3 163.8s-.1 0-.1-.1c-.1-.1-.1-.2 0-.2L334 85c0-.1.1-.1.2 0 .1 0 .1.1.1.2v28.4c0 .1 0 .1-.1.1l-69.9 50.1c.1 0 .1 0 0 0M334 85.6l-68.5 77 68.5-49.2V85.6zM331.3 82.7c1.4-1.6 3.8-1.7 5.3-.3 1.6 1.4 1.7 3.8.3 5.3-1.4 1.6-3.8 1.7-5.3.3s-1.6-3.8-.3-5.3M338 85.2c0-2.1-1.7-3.8-3.8-3.8-2.1 0-3.8 1.7-3.8 3.8 0 2.1 1.7 3.8 3.8 3.8 2.1 0 3.8-1.7 3.8-3.8"/><path class="st0" d="M334.2 85.3c-.1 0-.1 0 0 0-.1 0-.2-.1-.2-.1l-5.2-48.4v-.1s.1-.1.1 0L423.2 50c.1 0 .1.1.1.1 0 .1 0 .1-.1.2l-89 35M329.1 37l5.2 48 88.2-34.7L329.1 37zM400.5 113.7l-66.4-28.4c-.1 0-.1-.1-.1-.2s0-.1.1-.2l89-35.1h.2s.1.1 0 .2l-22.7 63.4c.1.3 0 .3-.1.3.1 0 0 0 0 0m-65.9-28.5l65.8 28.1 22.5-62.9-88.3 34.8zM400.5 113.7h-.1s-.1-.1 0-.2l22.7-63.4c0-.1.1-.1.2-.1s.1 0 .2.1l15.7 50.1c0 .1 0 .2-.1.2l-38.6 13.3c.1 0 0 0 0 0m22.7-63.1l-22.4 62.6 37.9-13.2-15.5-49.4zM135.2 300.7c-.1 0-.1 0 0 0L88 289c-.1 0-.1-.1-.1-.2L84.4 232c0-.1 0-.1.1-.2.1 0 .1 0 .2.1l50.6 68.4v.2c0 .2-.1.2-.1.2m-47-12l46.6 11.5-50-67.6 3.4 56.1zM135.1 300.7c-.1 0-.1 0-.1-.1l-50.6-68.4v-.1c0-.1 0-.1.1-.1l94.3-51.8h.2c.1 0 .1.1 0 .2l-43.6 120.2c-.1.1-.2.1-.3.1.1 0 .1 0 0 0m-50.3-68.6l50.3 68 43.4-119.5-93.7 51.5zM135.1 300.7c-.2-.1-.2-.1-.2-.2l43.6-120.2c0-.1.1-.1.2-.1l45.4 15c.1 0 .1.1.1.1v.2l-89 105.2h-.1m43.8-120.2l-43.3 119.2 88.3-104.3-45-14.9zM175.2 179c.7-2 2.9-3 4.9-2.3 2 .7 3 2.9 2.3 4.9-.7 2-2.9 3-4.9 2.3-2-.7-3-2.9-2.3-4.9M180 176.7c-2-.7-4.1.4-4.8 2.4-.7 2 .4 4.1 2.4 4.8 2 .7 4.1-.4 4.8-2.4.6-2-.4-4.1-2.4-4.8"/><path class="st0" d="M28.7 342.4c-.1 0-.1 0-.1-.1v-.2L88 288.7s.1-.1.2 0l47.1 11.7c.1 0 .1.1.1.2s0 .1-.1.2L28.7 342.4M88.1 289l-58.6 52.7 105.1-41.2L88.1 289zM356.9 355.8h-.1L327.1 329c-.1-.1-.1-.1 0-.2 0-.1.1-.1.2-.1l47.1 15c.1 0 .1.1.1.1 0 .1 0 .1-.1.2l-17.5 11.8m-29-26.5l29 26.1L374 344l-46.1-14.7zM374.3 344.1l-47.2-15s-.1 0-.1-.1v-.1l31.4-93.5c0-.1.1-.1.2-.1s.1.1.1.1l15.7 108.5c0 .1 0 .1-.1.2.1 0 .1 0 0 0m-46.9-15.3l46.7 14.9-15.6-107.6-31.1 92.7zM326 332.5c-2-.6-3.1-2.8-2.5-4.8.6-2 2.8-3.1 4.8-2.5 2 .6 3.1 2.8 2.5 4.8-.6 2.1-2.8 3.2-4.8 2.5M323.6 327.7c-.7 2 .4 4.1 2.4 4.8 2 .7 4.1-.4 4.8-2.4.7-2-.4-4.1-2.4-4.8-2-.6-4.1.4-4.8 2.4"/><path class="st0" d="M267.8 190.5c-.1 0-.2-.1-.2-.1l-3.5-26.7c0-.1 0-.1.1-.2l82-46.7h.2c.1.1 0 .2 0 .2L268 190.5h-.2m-3.3-26.8L268 190l77.3-72.2-80.8 45.9zM260.6 164.1c-.3-2.1 1.2-4 3.3-4.2 2.1-.3 4 1.2 4.2 3.3.3 2.1-1.2 4-3.3 4.2-2 .3-3.9-1.2-4.2-3.3M262.5 160.4c-1.8 1-2.5 3.4-1.4 5.2 1 1.8 3.3 2.5 5.2 1.4 1.8-1 2.5-3.3 1.4-5.2-1.1-1.8-3.4-2.5-5.2-1.4"/><path class="st0" d="M264.3 163.8c-.1 0-.1 0-.1-.1v-.2l69.8-50.1h.1l12.2 3.3c.1 0 .1.1.1.1 0 .1 0 .1-.1.2l-82 46.8c.1 0 .1 0 0 0m69.9-50.1L267 161.9l78.9-45-11.7-3.2zM332 110.5c1.7-1.2 4.1-.8 5.3.9 1.2 1.7.8 4.1-.9 5.3-1.7 1.2-4.1.8-5.3-.9-1.2-1.7-.8-4.1.9-5.3M335.2 109.9c-2-.6-4.1.6-4.7 2.7-.6 2 .6 4.1 2.7 4.7 2 .6 4.1-.6 4.7-2.7.5-2.1-.7-4.1-2.7-4.7"/><path class="st0" d="M358.6 235.6l-90.9-45.1-.1-.1c0-.1 0-.1.1-.1l78.6-73.4s.1-.1.2 0c.1 0 .1.1.1.1l12.2 118.5-.2.1c.1 0 0 0 0 0m-90.5-45.3l90.3 44.8-12.2-117.9-78.1 73.1zM266.2 193.7c-1.9-.9-2.6-3.2-1.7-5.1.9-1.9 3.2-2.6 5.1-1.7 1.9.9 2.6 3.2 1.7 5.1-1 1.9-3.3 2.7-5.1 1.7M265.3 187.6c-1.5 1.4-1.6 3.8-.2 5.4 1.4 1.5 3.8 1.6 5.4.2 1.5-1.4 1.6-3.8.2-5.4-1.5-1.6-3.9-1.7-5.4-.2"/><path class="st0" d="M346.4 117.1l-12.3-3.4c-.1 0-.1-.1-.1-.2V85.2c0-.1.1-.1.1-.2.1 0 .2 0 .2.1l12.2 31.7v.2l-.1.1m-12.1-3.7l11.8 3.2L334.3 86v27.4zM349.9 115.5c.8 2-.2 4.1-2.2 4.9-2 .8-4.1-.2-4.9-2.2-.8-2 .2-4.1 2.2-4.9 2-.7 4.2.3 4.9 2.2M345.4 120.5c2 .6 4.1-.6 4.7-2.7.6-2-.6-4.1-2.7-4.7-2-.6-4.1.6-4.7 2.7-.5 2.1.7 4.2 2.7 4.7"/><path class="st0" d="M346.4 117.1c-.1 0-.1 0-.2-.1L334 85.2V85s.1-.1.2 0l66.3 28.4c.1 0 .1.1.1.2s-.1.1-.2.1l-54 3.4zm-11.9-31.6l12 31.2 53.3-3.3-65.3-27.9zM402 110.1c1.9.8 2.8 3 2 5-.8 1.9-3 2.8-5 2-1.9-.8-2.8-3-2-5 .9-2 3.1-2.8 5-2M400.8 117.3c2.1-.1 3.7-1.9 3.5-4-.1-2.1-1.9-3.7-4-3.5-2.1.1-3.7 1.9-3.5 4 .1 2.1 1.9 3.7 4 3.5"/><path class="st0" d="M358.6 235.6c-.1 0-.2-.1-.2-.1L346.2 117c0-.1 0-.1.1-.2h.2l54.1 28.4c.1 0 .1.1.1.2l-41.9 90.2h-.2m-12-118.4l12.1 117.6 41.6-89.5-53.7-28.1zM342.6 117.3c-.2-2.1 1.3-3.9 3.4-4.2 2.1-.2 3.9 1.3 4.2 3.4.2 2.1-1.3 3.9-3.4 4.2-2.1.2-4-1.3-4.2-3.4M348.2 113.5c-1.9-1-4.1-.3-5.1 1.6-1 1.9-.3 4.1 1.6 5.1 1.9 1 4.1.3 5.1-1.6.9-1.8.2-4.1-1.6-5.1"/><path class="st0" d="M400.5 145.4L346.3 117c-.1 0-.1-.1-.1-.2s.1-.1.2-.1l54.1-3.3h.1l.1.1v31.7c0 .1 0 .2-.2.2.1 0 0 0 0 0M347 117l53.3 28v-31.3L347 117zM344.6 120.3c-1.9-1-2.6-3.3-1.6-5.1 1-1.9 3.3-2.6 5.1-1.6 1.9 1 2.6 3.3 1.6 5.1-.9 1.8-3.2 2.5-5.1 1.6M346.2 113.1c-2.1.1-3.7 1.9-3.5 4 .1 2.1 1.9 3.7 4 3.5 2.1-.1 3.7-1.9 3.5-4-.2-2-2-3.6-4-3.5"/><path class="st0" d="M239.9 324.1l-104.8-23.4c-.1 0-.1-.1-.1-.1v-.2l89-105.2s.1-.1.2-.1.1.1.1.1L240 323.7c0 .1 0 .1-.1.1.1.3 0 .3 0 .3m-104.4-23.7l104.2 23.3-15.6-127.9-88.6 104.6zM134.3 304.2c-2-.5-3.3-2.5-2.9-4.5.5-2 2.5-3.3 4.5-2.9 2 .5 3.3 2.5 2.9 4.5-.4 2.1-2.4 3.4-4.5 2.9M132.3 298.1c-1.4 1.6-1.2 4 .4 5.3 1.6 1.3 4 1.1 5.3-.4 1.4-1.6 1.2-4-.4-5.3-1.6-1.4-4-1.2-5.3.4"/><path class="st0" d="M239.9 324.1c-.1 0-.2-.1-.2-.1L224 195.4v-.1l.1-.1 43.6-5c.1 0 .1 0 .1.1 0 0 .1.1 0 .1L239.9 324c.1 0 .1.1 0 .1m-15.5-128.6L240 322.9l27.7-132.3-43.3 4.9zM220.4 195.8c-.3-2.1 1.2-4 3.3-4.2 2.1-.3 4 1.2 4.2 3.3.3 2.1-1.2 4-3.3 4.2-2 .3-3.9-1.2-4.2-3.3M223.8 191.6c-2.1.2-3.6 2.1-3.3 4.2.2 2.1 2.1 3.6 4.2 3.3 2.1-.2 3.6-2.1 3.3-4.2-.3-2.1-2.2-3.5-4.2-3.3"/><path class="st0" d="M239.9 324.1s-.1 0 0 0c-.1-.1-.2-.1-.2-.2l27.9-133.6s0-.1.1-.1h.1l90.8 45.1c.1 0 .1.1.1.1 0 .1 0 .1-.1.1L240 324c0 .1-.1.1-.1.1M268 190.6l-27.8 132.9 118.1-88.1-90.3-44.8zM264.1 189.6c.4-2 2.4-3.4 4.5-2.9 2 .4 3.4 2.4 2.9 4.5-.4 2-2.4 3.4-4.5 2.9-2-.5-3.3-2.5-2.9-4.5M269.5 187c-1.9-.9-4.1-.2-5.1 1.7-.9 1.9-.2 4.1 1.7 5.1 1.9.9 4.1.2 5.1-1.7s.2-4.2-1.7-5.1"/><path class="st0" d="M327.2 329.1l-87.3-5c-.1 0-.1-.1-.1-.1 0-.1 0-.1.1-.2l118.7-88.5h.2c.1 0 .1.1.1.2L327.4 329c-.1 0-.1.1-.2.1m-86.8-5.3l86.7 5 31.2-92.9-117.9 87.9zM239.7 327.7c-2.1-.1-3.7-1.9-3.6-4 .1-2.1 1.9-3.7 4-3.6 2.1.1 3.7 1.9 3.6 4-.1 2.1-1.9 3.7-4 3.6M237.6 320.9c-1.7 1.2-2 3.6-.8 5.3 1.3 1.7 3.6 2 5.3.8 1.7-1.2 2-3.6.8-5.3-1.2-1.7-3.6-2.1-5.3-.8"/><path class="st0" d="M28.7 342.4c-.1 0-.1-.1-.2-.1 0-.1 0-.2.1-.2l106.5-41.7h.1l104.7 23.4c.1 0 .1.1.1.2s-.1.2-.2.2L28.7 342.4zm106.5-41.7L29.8 342l209-18.2-103.6-23.1zM133.8 297c1.9-.8 4.1.2 4.9 2.1.8 1.9-.2 4.1-2.1 4.9-1.9.8-4.1-.2-4.9-2.1-.8-1.9.1-4.1 2.1-4.9M136 296.8c-2-.5-4.1.8-4.5 2.9-.5 2 .8 4.1 2.9 4.5 2 .5 4.1-.8 4.5-2.9.4-2-.9-4-2.9-4.5"/><path class="st0" d="M96.7 355.8l-68.1-13.4c-.1 0-.1-.1-.1-.2s.1-.2.2-.2l211.2-18.4c.1 0 .2.1.2.1 0 .1 0 .2-.1.2L96.7 355.8c.1 0 .1 0 0 0m-66.8-13.5l66.9 13.1 140.6-31.2-207.5 18.1zM187.5 379.2l-90.8-23.4c-.1 0-.1-.1-.1-.2s.1-.1.1-.2l143.1-31.7c.1 0 .1 0 .2.1v.2l-52.4 55.1s0 .1-.1.1m-90-23.6l90 23.2 51.9-54.6-141.9 31.4zM187.5 379.2c-.1 0-.1 0-.1-.1v-.2l52.4-55.1s.1 0 .1-.1l87.3 5c.1 0 .1.1.2.1 0 .1 0 .2-.1.2l-139.8 50.2c.1 0 0 0 0 0m52.5-55.1l-51.8 54.5L326.4 329l-86.4-4.9zM237.1 321.3c1.4-1.5 3.8-1.6 5.4-.1 1.5 1.4 1.6 3.8.1 5.4-1.4 1.5-3.8 1.6-5.4.1-1.4-1.5-1.5-3.9-.1-5.4M240.1 320.1c-2.1-.1-3.9 1.5-4 3.6-.1 2.1 1.5 3.9 3.6 4 2.1.1 3.9-1.5 4-3.6.1-2.1-1.5-3.9-3.6-4"/><path class="st0" d="M187.5 379.2c-.1 0-.1-.1-.2-.1 0-.1 0-.2.1-.2l139.7-50.1h.2l29.7 26.7s.1.1 0 .2c0 .1-.1.1-.1.1l-169.4 23.4zm139.7-50.1l-138 49.5 167.4-23.1-29.4-26.4zM325.9 325.3c2-.7 4.1.3 4.8 2.3.7 2-.3 4.1-2.3 4.8-2 .7-4.1-.3-4.8-2.3-.7-1.9.3-4 2.3-4.8M329.7 326.1c-1.6-1.4-4-1.3-5.3.3-1.4 1.6-1.3 4 .3 5.3 1.6 1.4 3.9 1.3 5.3-.3 1.4-1.5 1.3-3.9-.3-5.3"/></svg>