<svg xmlns="http://www.w3.org/2000/svg" width="1000" height="600"><path d="M0 0h1000v600H0V0z" fill="#f7f700"/><g><g stroke="#005200" transform="matrix(2.168 0 0 2.168 926.25 213.395)"><circle cx="66" cy="67.62" r="40.5" transform="matrix(2.381 0 0 2.381 -353.569 -121.076)" fill="#fff" stroke-width="3"/><path d="M-198.564 132.59c-40.18-63.376-33.28-149.028 2.138-185.735" stroke-width="2.381" stroke-linecap="round" fill="none"/><path d="M-198.564 132.59c48.652-71.49 26.176-128.295 2.138-185.735" stroke-width="2.381" stroke-linecap="round" fill="none"/><path d="M-196.426-53.145c68.453 39.33 83.28 120.557-2.138 185.736" stroke-width="2.381" stroke-linecap="round" fill="none"/><path d="M-196.426-53.145c-65.476 24.107-92.317 128.926-2.138 185.736" stroke-width="2.381" stroke-linecap="round" fill="none"/><path d="M-260.79-32.162c51.267 21.503 96.81 15.6 126.312-2.097" stroke-width="2.381" fill="none"/><path d="M-277.378-7.98c43.155 33.928 116.666 36.31 160.714-.596" stroke-width="2.381" fill="none"/><path d="M-288.985 23.27c49.107 43.154 130.357 51.487 183.928-8.037" stroke-width="2.381" fill="none"/><path d="M-288.985 57.905c57.142 35.912 111.904 50.78 186.866-3.088" stroke-width="2.381" fill="none"/></g><path d="M410.19 487.095c-4.517-34.843 43.106-139.15 38.59-150.232-4.517-11.083 9.678-26.563 11.614-34.95 1.936-8.39.284-35.5-19.57-49.205 0 0-20.435-6.344-41.082 2.72-20.648 9.065-63.647 17.365-100.94 13.577 0 0-1.84-14.846 4.154-13.576 24.52 5.186 37.424-.75 49.683-4.88 12.26-4.13 30.325-2.838 45.81-11.872 15.487-9.033 27.973-21.938 42.375-20.647 14.402 1.29 24.67 1.384 20.183-5.76-4.485-7.144-10.938-19.64-7.066-28.556 7.097-20.53 29.035-19.615 38.07-3.107 0 0 5.16 18.712-3.873 26.455-9.034 7.743 1.646 11.614 5.342 13.55 3.696 1.935 6.628 8.388 17.746-.646 11.11-9.033 17.56.74 31.756-7.696 14.196-8.435 42.08-15.532 52.982-24.565 10.902-9.034 41.223-26.316 45.095-33.48 3.872-7.165 14.65 5.734 5.39 10.25-9.26 4.518-51.2 38.715-58.944 43.877-7.743 5.162-21.54 21.696-52.91 30.972-8.238 2.436-26.454 20.002-26.454 42.43 0 9.4-7.098 45.967 5.807 64.68 12.904 18.71 6.45 61.297 20 76.782 13.55 15.486 21.547 54.2 26.26 70.33 0 0-3.03 9.035-7.547 0-4.517-9.032-33.847-51.618-41.435-71.62 0 0-23.693-43.427-26.274-57.622-2.58-14.196-7.19-4.966-7.81.196-.62 5.162-24.493 34.197-29.655 54.845-5.163 20.648-18.713 48.393-24.52 59.362-5.807 10.97-12.78 8.388-12.78 8.388z" fill="#005200"/></g></svg>