<svg xmlns="http://www.w3.org/2000/svg" width="3840" height="2560"><path fill="#fcd215" d="M.003-.22H3852v2560.224H.003z"/><path d="M1934.603 890.656l1.766.913h2.346l2.444-.15 2.334-.645 2.982-.66 4.172-2.356 1.935-1.863.733-.814-1.008-.43-1.738-.788-3.064-.886-2.348-.003-2.015.315-2.61.578-2.252 1.02-2.292 1.418-1.714 1.683z" color="#000" fill="#12ac50" overflow="visible" enable-background="accumulate"/><path d="M1937.388 880.772l-1.987-.068-2.048-1.146-2.058-1.325-1.72-1.705-2.28-2.034-2.485-4.096-.778-2.57-.24-1.068 1.088.118 1.902.162 3.106.725 2.05 1.146 1.603 1.262 1.995 1.78 1.465 1.99 1.306 2.36.672 2.306z" color="#000" fill="#5eb73a" overflow="visible" enable-background="accumulate"/><path d="M1941.432 870.022l1.825.788 2.342-.16 2.427-.32 2.283-.808 2.93-.866 3.997-2.64 1.8-1.993.674-.863-1.034-.358-1.79-.665-3.118-.67-2.34.16-1.99.45-2.565.76-2.175 1.172-2.188 1.575-1.593 1.798z" color="#000" fill="#5eb73a" overflow="visible" enable-background="accumulate"/><path d="M1942.2 860.48l1.953.375 2.25-.663 2.303-.835 2.055-1.282 2.674-1.478 3.333-3.442 1.328-2.334.47-.987-1.086-.126-1.892-.264-3.19.018-2.252.664-1.843.874-2.34 1.294-1.87 1.615-1.797 2.012-1.166 2.098z" color="#000" fill="#12ac50" overflow="visible" enable-background="accumulate"/><path d="M1941.8 861.106l-1.984-.154-1.996-1.235-2-1.414-1.642-1.78-2.188-2.13-2.304-4.202-.664-2.6-.194-1.078 1.082.166 1.894.245 3.072.86 1.996 1.235 1.547 1.33 1.913 1.866 1.377 2.052 1.202 2.415.57 2.334z" color="#000" fill="#12ac50" overflow="visible" enable-background="accumulate"/><path d="M1938.882 880.126l1.766.913 2.347.002 2.444-.15 2.333-.646 2.982-.66 4.172-2.356 1.935-1.862.733-.813-1.008-.43-1.738-.788-3.065-.887-2.348-.003-2.015.316-2.61.577-2.252 1.02-2.293 1.42-1.714 1.68z" color="#000" fill="#12ac50" overflow="visible" enable-background="accumulate"/><path d="M1956.71 874.202l-2.737.763-2.642.754-4.08 1.306-4.18 1.19-3.526 1.058-1.323.455.647-3.3.916-.452 1.652-.945.474-.3 1.843-.964 1.13-.436 1.34-.39 1.018-.21 1.51-.162.996-.12.842-.125 1.425.07 1.05.203 1.222.274 1.15.32.708.19.3.194.358.362z" color="#000" fill="#c0e01f" overflow="visible" enable-background="accumulate"/><path d="M1923.837 903.438l3.598-4.41 3.6-5.585 3.87-8.525 1.722-5.353 2.473-7.533 3.816-17.016.953-.178-1.62 8.377-.56 4.83-1.85 6.5-1.67 6.28-1.704 3.53-2.97 7.422-4.61 7.184-2.648 5.407-1.647 2.11z" color="#000" fill="#5eb73a" overflow="visible" enable-background="accumulate"/><path d="M1932.113 889.803l-1.982-.155-1.996-1.234-1.998-1.415-1.643-1.78-2.188-2.132-2.305-4.2-.663-2.602-.194-1.078 1.082.166 1.893.246 3.072.86 1.996 1.235 1.547 1.33 1.915 1.865 1.377 2.053 1.2 2.415.57 2.332z" color="#000" fill="#12ac50" overflow="visible" enable-background="accumulate"/><path d="M1952.432 884.732l-2.738.763-2.642.754-4.082 1.306-4.18 1.19-3.525 1.058-1.323.454.646-3.298.916-.453 1.652-.944.474-.3 1.844-.964 1.13-.437 1.34-.388 1.018-.21 1.508-.163.997-.12.842-.125 1.424.07 1.05.203 1.222.274 1.15.32.708.19.3.193.358.362z" color="#000" fill="#c0e01f" overflow="visible" enable-background="accumulate"/><path d="M1944.006 855.39l1.576-1.21.998-2.125.902-2.276.405-2.39.67-2.98-.365-4.777-.864-2.542-.426-1.008-.816.73-1.453 1.24-2.103 2.398-.998 2.124-.57 1.96-.585 2.608-.032 2.47.312 2.68.797 2.266z" color="#000" fill="#12ac50" overflow="visible" enable-background="accumulate"/><path d="M1943.263 854.05l-1.002-3.094.505-3.41.602-4.43.904-3.45-.62-.14-1.5 5.534-.328 4.362.298 3.328z" color="#000" fill="#5ec23c" overflow="visible" enable-background="accumulate"/><path d="M1942.835 860.216l.798.492 1.83.348.892.075.753-.144.706-.217 1.578-.618 1.974-1.122 1.65-1.352 1.676-1.472 1.366-.79 1.047-1.455.964-1.504.276-1.096.15-1.5-1.292.868-11.608 7.227-2.312 1.516-.587.245.032.414z" color="#000" fill="#5eb73a" overflow="visible" enable-background="accumulate"/><path d="M1959.654 863.393l-2.738.764-2.642.753-4.082 1.308-4.18 1.19-3.525 1.058-1.323.455.646-3.3.916-.45 1.652-.945.474-.3 1.844-.965 1.13-.435 1.34-.388 1.018-.21 1.508-.163.998-.12.84-.125 1.426.068 1.05.204 1.222.274 1.15.32.708.19.3.193.358.36z" color="#000" fill="#c0e01f" overflow="visible" enable-background="accumulate"/><path d="M1939.586 870.282l-1.987-.067-2.05-1.146-2.058-1.326-1.72-1.705-2.28-2.036-2.485-4.095-.777-2.572-.24-1.068 1.088.12 1.902.16 3.106.726 2.048 1.146 1.605 1.26 1.993 1.78 1.465 1.99 1.306 2.36.672 2.307z" color="#000" fill="#5eb73a" overflow="visible" enable-background="accumulate"/><path d="M1943.04 923.235l-1.288 1.514-.533 2.285-.407 2.415.102 2.42-.03 3.054 1.352 4.596 1.377 2.306.627.897.647-.884 1.16-1.517 1.557-2.784.532-2.287.15-2.035.026-2.673-.485-2.424-.865-2.553-1.25-2.05z" color="#000" fill="#12ac50" overflow="visible" enable-background="accumulate"/><path d="M1952.04 928.18l.514-1.92 1.58-1.736 1.755-1.706 2.05-1.29 2.495-1.76 4.552-1.497 2.68-.176 1.094.007-.36 1.035-.588 1.816-1.408 2.864-1.58 1.736-1.59 1.278-2.184 1.54-2.27.978-2.594.74-2.398.133z" color="#000" fill="#5eb73a" overflow="visible" enable-background="accumulate"/><path d="M1961.598 934.55l-1.18 1.6-.372 2.317-.237 2.437.27 2.406.18 3.05 1.67 4.49 1.535 2.204.69.852.58-.927 1.053-1.594 1.358-2.886.372-2.318.01-2.04-.16-2.67-.65-2.382-1.042-2.49-1.39-1.956z" color="#000" fill="#5eb73a" overflow="visible" enable-background="accumulate"/><path d="M1970.72 937.453l-.807 1.817.137 2.344.295 2.43.784 2.29.835 2.94 2.6 4.024 1.974 1.82.855.683.368-1.03.684-1.782.703-3.112-.137-2.343-.435-1.993-.73-2.57-1.153-2.188-1.553-2.205-1.782-1.61z" color="#000" fill="#12ac50" overflow="visible" enable-background="accumulate"/><path d="M1970.2 936.92l.6-1.896 1.652-1.666 1.83-1.627 2.104-1.198 2.57-1.65 4.614-1.296 2.684-.058 1.094.054-.407 1.017-.666 1.788-1.532 2.798-1.653 1.666-1.646 1.206-2.25 1.444-2.31.877-2.624.624-2.402.03z" color="#000" fill="#12ac50" overflow="visible" enable-background="accumulate"/><path d="M1952.332 929.782l-1.29 1.515-.532 2.285-.406 2.415.102 2.42-.03 3.054 1.352 4.597 1.377 2.306.627.897.646-.884 1.16-1.516 1.557-2.784.532-2.286.148-2.035.027-2.673-.484-2.424-.865-2.554-1.252-2.05z" color="#000" fill="#12ac50" overflow="visible" enable-background="accumulate"/><path d="M1954.074 948.49l-.125-2.84-.138-2.745-.35-4.27-.217-4.343-.233-3.672-.145-1.39 3.068 1.373.234.994.546 1.823.185.53.524 2.014.168 1.2.076 1.392-.025 1.04-.182 1.505-.107 1-.07.848-.388 1.372-.436.977-.544 1.13-.572 1.046-.345.647-.257.25-.433.266z" color="#000" fill="#c0e01f" overflow="visible" enable-background="accumulate"/><path d="M1933.02 909.86l3.485 4.502 4.626 4.77 7.43 5.694 4.827 2.887 6.78 4.11 15.714 7.562-.04.968-7.796-3.47-4.58-1.637-5.913-3.27-5.738-3.044-3.054-2.458-6.56-4.57-5.956-6.114-4.67-3.8-1.682-2.082z" color="#000" fill="#5eb73a" overflow="visible" enable-background="accumulate"/><path d="M1944.434 921.003l.598-1.897 1.654-1.665 1.83-1.627 2.103-1.2 2.57-1.648 4.613-1.296 2.684-.06 1.094.054-.405 1.017-.667 1.79-1.532 2.798-1.653 1.666-1.646 1.207-2.25 1.444-2.31.878-2.624.624-2.4.03z" color="#000" fill="#12ac50" overflow="visible" enable-background="accumulate"/><path d="M1944.784 941.942l-.125-2.84-.14-2.744-.35-4.27-.216-4.343-.233-3.672-.143-1.39 3.067 1.373.234.994.547 1.823.185.53.523 2.014.168 1.2.077 1.392-.025 1.038-.182 1.506-.108 1-.07.847-.388 1.373-.436.977-.543 1.13-.572 1.046-.345.647-.256.25-.433.266z" color="#000" fill="#c0e01f" overflow="visible" enable-background="accumulate"/><path d="M1975.27 940.362l.824 1.81 1.843 1.45 2.014 1.394 2.235.934 2.753 1.325 4.736.725 2.672-.268 1.08-.187-.528-.96-.88-1.695-1.86-2.59-1.844-1.453-1.78-.998-2.41-1.16-2.4-.59-2.68-.3-2.386.263z" color="#000" fill="#12ac50" overflow="visible" enable-background="accumulate"/><path d="M1976.743 939.94l3.24-.276 3.208 1.26 4.18 1.588 3.157 1.66.277-.573-5.05-2.714-4.177-1.303-3.31-.462z" color="#000" fill="#5ec23c" overflow="visible" enable-background="accumulate"/><path d="M1970.834 938.13l-.66.667-.753 1.706-.273.85-.03.766.053.736.244 1.677.648 2.177.944 1.912 1.055 1.965.46 1.51 1.183 1.348 1.25 1.28 1.004.517 1.428.484-.554-1.454-4.417-12.94-.955-2.595-.105-.627-.41-.063z" color="#000" fill="#5eb73a" overflow="visible" enable-background="accumulate"/><path d="M1963.94 953.798l-.126-2.84-.138-2.744-.35-4.272-.217-4.34-.234-3.673-.144-1.393 3.067 1.375.233.994.547 1.822.185.53.523 2.015.168 1.2.076 1.392-.025 1.04-.182 1.505-.108 1-.07.847-.388 1.372-.437.976-.543 1.128-.572 1.047-.345.65-.256.25-.433.265z" color="#000" fill="#c0e01f" overflow="visible" enable-background="accumulate"/><path d="M1961.76 932.692l.516-1.92 1.58-1.737 1.755-1.706 2.05-1.29 2.497-1.762 4.552-1.497 2.678-.175 1.095.007-.36 1.034-.59 1.816-1.407 2.862-1.58 1.737-1.59 1.28-2.184 1.54-2.27.977-2.594.74-2.398.133z" color="#000" fill="#5eb73a" overflow="visible" enable-background="accumulate"/><path d="M2161.09 1524.143l-14.12-.715-16.804-1.252-20.2-1.25-27.884-1.967-16.98-1.252-11.977-.715-.358.357" color="#000" stroke="#fff" overflow="visible" enable-background="accumulate" fill="none"/><path d="M2144.466 1595.643l-10.546-.536-8.938-.537-18.232-1.072-15.194-.894-10.01-.18-15.91-.356-23.236-1.25-.715.356" color="#000" stroke="#fff" overflow="visible" enable-background="accumulate" fill="none"/><path d="M2071.447 1564.63h-.715l-6.435-.18-16.088-.357-13.765-.893-10.725.178-5.183-.18-12.334-.177-1.43-.178" color="#000" stroke="#fff" overflow="visible" enable-background="accumulate" fill="none"/><path d="M1951.148 1567.668l-5.005.18h-4.648l-14.3.178-13.764-.18H1894.664l-4.29.36-2.503.177" color="#000" stroke="#fff" overflow="visible" enable-background="accumulate" fill="none"/><path d="M1948.913 1573.3H1938.723l-14.3.178-6.434-.358h-8.402l-5.005.18h-9.472" color="#000" stroke="#fff" overflow="visible" enable-background="accumulate" fill="none"/><path d="M1816.102 1546.13l8.58-.537 16.266-.358 20.914-1.25 19.126-.895 17.16-.536" color="#000" overflow="visible" enable-background="accumulate" fill="none"/><path d="M1876.52 1598.145l-69.892.536" color="#000" stroke="#fff" overflow="visible" enable-background="accumulate" fill="none"/><path d="M1822.895 1565.076l-28.78.715-22.343.36-35.93 1.608-15.37.893" color="#000" stroke="#fff" overflow="visible" enable-background="accumulate" fill="none"/><path d="M1802.338 1513.418l-17.875.357-28.78 1.073-23.236 1.608h-1.788" color="#000" overflow="visible" enable-background="accumulate" fill="none"/><path d="M1737.976 1642.025l39.545-.666" color="#000" stroke="#fff" overflow="visible" enable-background="accumulate" fill="none"/><path d="M1760.193 1662.464l38.212-1.11" color="#000" stroke="#fff" overflow="visible" enable-background="accumulate" fill="none"/><path d="M1898.6 1650.467h35.99" color="#000" stroke="#fff" overflow="visible" enable-background="accumulate" fill="none"/><path d="M1869.72 1669.35l58.65.223" color="#000" stroke="#fff" overflow="visible" enable-background="accumulate" fill="none"/><path d="M1993.02 1780.654l38.655.222" color="#000" stroke="#fff" overflow="visible" enable-background="accumulate" fill="none"/><path d="M1893.046 1747.108l-69.315-.667" color="#000" stroke="#fff" overflow="visible" enable-background="accumulate" fill="none"/><path d="M1973.913 1754.217l35.768.222" color="#000" stroke="#fff" overflow="visible" enable-background="accumulate" fill="none"/><path d="M1914.436 853.705l.072-3.372-.143-3.587-.717-2.654-1.148-2.726-1.363-3.443-4.017-4.59-.574-.72 1.363-1.362 1.29 1.006 1.722 2.008 1.434 2.51 1.292 2.655.86 2.582.718 2.008.502 5.74-.215 4.088z" color="#000" fill="#5eb73a" overflow="visible" enable-background="accumulate"/><path d="M1839.106 833.126a1.758.68 0 1 1-3.515 0 1.758.68 0 1 1 3.516 0z" transform="matrix(-4.265 0 0 10.263 9746.03 -7671.19)" fill="#f03936"/><path d="M1839.106 833.126a1.758.68 0 1 1-3.515 0 1.758.68 0 1 1 3.516 0z" transform="matrix(-4.265 0 0 10.263 9745.814 -7676.857)" fill="#f03936"/><path d="M1839.106 833.126a1.758.68 0 1 1-3.515 0 1.758.68 0 1 1 3.516 0z" transform="matrix(-4.265 0 0 10.263 9736.417 -7676.642)" fill="#f03936"/><path d="M1839.106 833.126a1.758.68 0 1 1-3.515 0 1.758.68 0 1 1 3.516 0z" transform="matrix(-4.265 0 0 10.263 9739.789 -7686.901)" fill="#f03936"/><path d="M1839.106 833.126a1.758.68 0 1 1-3.515 0 1.758.68 0 1 1 3.516 0z" transform="matrix(-4.265 0 0 14.158 9752.486 -10925.61)" fill="#f03936"/><path d="M1839.106 833.126a1.758.68 0 1 1-3.515 0 1.758.68 0 1 1 3.516 0z" transform="matrix(-4.265 0 0 14.158 9759.408 -10925.86)" fill="#f03936"/><path d="M1839.106 833.126a1.758.68 0 1 1-3.515 0 1.758.68 0 1 1 3.516 0z" transform="matrix(-4.122 0 0 9.579 9501.701 -7101.443)" fill="#f03936"/><path d="M1839.106 833.126a1.758.68 0 1 1-3.515 0 1.758.68 0 1 1 3.516 0z" transform="matrix(-4.122 0 0 9.579 9507.368 -7107.612)" fill="#f03936"/><path d="M1925.03 858.08l-4.016-2.726-1.722-.646-.79-.717-1.147-.43-3.3.144-1.506.79-5.022 4.733 1.004 1.005.932-1.076 1.578-1.866 1.005-1.147 1.148-.36-1.937 3.086-1.292 2.58-.645 1.436.862-.072 1.434-2.654 1.794-2.726.43-.072-.143 4.16.79-.214v-4.448l.86-.646.717-.573.717.216-.142 3.515h.79l.43 2.01 1.65.43-.073-2.224 1.005-.143.645 2.582 1.65-1.435-.932-1.363-1.22-1.147-.79-.503-.07-1.72.717.07.86.718.574.574 1.076 1.218.072 1.435 1.148-.143.574-1.435z" color="#000" fill="#9e3e30" overflow="visible" enable-background="accumulate"/><path d="M1839.106 833.126a1.758.68 0 1 1-3.515 0 1.758.68 0 1 1 3.516 0z" transform="matrix(-4.122 0 0 9.579 9504.319 -7118.66)" fill="#f03936"/><path d="M1926.035 861.38l-2.51.286-1.65.933-1.22.286v-1.076l.933-.79 1.29-.5 2.44.142.86.144z" color="#000" fill="#f8a41e" overflow="visible" enable-background="accumulate"/><path d="M1839.106 833.126a1.758.68 0 1 1-3.515 0 1.758.68 0 1 1 3.516 0z" transform="matrix(-4.265 0 0 14.158 9756.216 -10918.364)" fill="#f03936"/><path d="M1839.106 833.126a1.758.68 0 1 1-3.515 0 1.758.68 0 1 1 3.516 0z" transform="matrix(-1 0 0 2.211 3757.896 -975.174)"/><path d="M1839.106 833.126a1.758.68 0 1 1-3.515 0 1.758.68 0 1 1 3.516 0z" transform="matrix(-1 0 0 2.211 3774.718 -968)"/><path d="M1839.106 833.126a1.758.68 0 1 1-3.515 0 1.758.68 0 1 1 3.516 0z" transform="matrix(-1 0 0 2.211 3765.751 -959.607)"/><path d="M1839.106 833.126a1.758.68 0 1 1-3.515 0 1.758.68 0 1 1 3.516 0z" transform="matrix(-1 0 0 2.211 3744.445 -960.54)"/><path d="M1839.106 833.126a1.758.68 0 1 1-3.515 0 1.758.68 0 1 1 3.516 0z" transform="matrix(-1 0 0 2.211 3733.9 -967.14)"/><path d="M1937.226 869.27l-5.452-.717v-1.22l4.878.503.79 1.004z" color="#000" fill="#f8a41e" overflow="visible" enable-background="accumulate"/><path d="M1934.5 866.544l-.79-.143v-1.936l.72-.43.5-2.942-.43-1.147-.717-.933.717-.143.86 1.075.36.932.143 3.587v.933l-.79.287z" color="#000" fill="#f8a41e" overflow="visible" enable-background="accumulate"/><path d="M1910.038 867.477v-1.435l.79-1.578 1.434-1.865 1.578-.934h4.59l.217.933-3.515.645-1.722 1.004-1.722.86-.502 1.004z" color="#000" fill="#f8a41e" overflow="visible" enable-background="accumulate"/><path d="M1907.097 875.583l2.01-.86 1.433-.36 1.076-1.147v-.717l-1.936 1.075-1.722.79z" color="#000" fill="#f8a41e" overflow="visible" enable-background="accumulate"/><path d="M1874.513 824.02l-1.72 2.37-3.085 1.56-3.315 1.42-3.498.697-4.362 1.108-7.05-.337-3.78-1.168-1.502-.585 1.043-1.232 1.765-2.19 3.444-3.196 3.086-1.558 2.862-.922 3.816-.97 3.637-.15 3.958.35 3.37 1.078z" color="#000" fill="#12ac50" overflow="visible" enable-background="accumulate"/><path d="M1864.302 812.86l2.57-1.405 1.936-2.864 1.83-3.106 1.133-3.383 1.653-4.185.558-7.036-.68-3.897-.39-1.565-1.354.877-2.395 1.474-3.606 3.01-1.936 2.864-1.275 2.722-1.445 3.663-.61 3.588-.155 3.97.643 3.48z" color="#000" fill="#5eb73a" overflow="visible" enable-background="accumulate"/><path d="M-.003 1022h3840.02v514.008H-.003z"/><path d="M1912.377 1955.595l-16.617-15.153-50.712-54.18-26.595-31.022-29.616-35.19-23.532-32.937-35.532-50.595-31.405-49.49-42.595-71.49-35.362-64.978-23.362-45.447-10.26-20.094-43.912-92.294-34.38-70.676-24.043-57.7-14.553-52.765-13.447-64.895-6.468-64.682-3.532-73.106-3.447-50.98-5.447-321.235 27.277 11.363 37.105 13.915 44.47 15.532 58.425 15.826 30.66 6.642c43.594 4.446 23.19 4.118 12.483 2.3l53.207 4.83 66.32-1.79 98.75-19.298 46.12-17.862z" color="#000" overflow="visible" enable-background="accumulate"/><path d="M1899.923 867.764l-.072-1.65.504-1.29 1.578-1.795 1.363-1.364 4.734-.143-.79.79-2.295.43-1.148 1.004-1.865 1.147-.646.718z" color="#000" fill="#f8a41e" overflow="visible" enable-background="accumulate"/><path d="M1851.86 801.396l-1.88 2.246-3.187 1.34-3.405 1.186-3.54.45-4.427.8-7.008-.826-3.69-1.43-1.457-.688 1.124-1.156 1.913-2.06 3.658-2.95 3.19-1.338 2.918-.72 3.874-.7 3.64.104 3.923.623 3.286 1.31z" color="#000" fill="#5eb73a" overflow="visible" enable-background="accumulate"/><path d="M1856.15 870.02l-1.398 2.573-2.858 1.944-3.102 1.84-3.38 1.143-4.18 1.664-7.035.58-3.898-.668-1.567-.386.873-1.356 1.466-2.4 3-3.616 2.86-1.945 2.717-1.283 3.657-1.456 3.588-.62 3.97-.168 3.48.633z" color="#000" fill="#12ac50" overflow="visible" enable-background="accumulate"/><path d="M1896.84 863.388l.357-2.01.574-1.075 1.22-1.004 1.15-.934 1.003-.645 3.443.288-.932.79-1.65.358-1.507.79-1.434 1.003-1.292 1.29z" color="#000" fill="#f8a41e" overflow="visible" enable-background="accumulate"/><path d="M1912.493 1955.49l16.617-15.154 50.712-54.18 26.595-31.022 29.616-35.19 23.532-32.937 35.53-50.595 31.406-49.49 42.596-71.49 35.363-64.978 23.362-45.447 10.26-20.094 43.912-92.293 34.38-70.677 24.043-57.7 14.553-52.765 13.447-64.894 6.468-64.683 3.532-73.105 3.447-50.978 5.447-321.236-27.277 11.363-37.106 13.916-44.468 15.53-58.427 15.827-30.66 6.642c-43.594 4.444-23.192 4.117-12.483 2.3l-53.207 4.83-66.32-1.793-99.044-19.336-45.838-17.837z" color="#000" overflow="visible" enable-background="accumulate"/><path d="M1602.967 1498.424l399.642 139.656 221.344-146.69 50.826-103.355 27.085-58.216 30.944-73.678 20.753-70.253 19.508-86.567 8.468-48.69-286.863 4.007-200.05 1.494-218.022-1.266-224.642.663 9.112 72.37 17.578 85.945 38.125 107.755 60.333 131.25z" color="#000" fill="#fff" overflow="visible" enable-background="accumulate"/><path d="M1895.26 870.777l1.364-.717.573-.43 1.722-.43-.073-1.006h-1.004l-1.722.503-.645.79z" color="#000" fill="#f8a41e" overflow="visible" enable-background="accumulate"/><path d="M1844.53 789.35l-2.32 1.787-3.402.62-3.582.424-3.553-.324-4.496-.174-6.665-2.322-3.293-2.19-1.276-.988 1.347-.887 2.315-1.6 4.21-2.088 3.4-.62 3.005-.07 3.934.152 3.53.886 3.698 1.456 2.925 1.99z" color="#000" fill="#12ac50" overflow="visible" enable-background="accumulate"/><path d="M1844.577 860.277l2.366-1.726 1.55-3.09 1.41-3.32.686-3.5 1.094-4.365-.358-7.048-1.18-3.776-.59-1.5-1.228 1.045-2.184 1.772-3.186 3.453-1.55 3.09-.91 2.865-.958 3.82-.14 3.637.36 3.957 1.09 3.365z" color="#000" fill="#5eb73a" overflow="visible" enable-background="accumulate"/><path d="M1849.903 904.06l-.593 2.87-2.174 2.687-2.437 2.658-2.906 2.072-3.52 2.8-6.567 2.59-3.925.487-1.61.084.443-1.55.71-2.722 1.827-4.33 2.173-2.687 2.23-2.016 3.082-2.45 3.255-1.632 3.752-1.308 3.515-.4z" color="#000" fill="#12ac50" overflow="visible" enable-background="accumulate"/><path d="M2234.363 1241.55a89.938 82.646 0 1 1-179.877 0 89.938 82.646 0 1 1 179.877 0z" transform="matrix(1.097 0 0 1.206 -213.508 -251.238)" fill="#f78d17"/><path d="M2228.35 1492.196l40.84-85.084 44.245-94.444 27.227-65.514 9.36-38.288 17.016-61.26 6.806-45.946 3.404-36.586 1.7-17.017-193.99 4.254-122.52-1.7-102.953 2.552-130.178-1.702-142.942 3.404-205.052-.85-26.376.85-1.702 10.21 3.404 53.603 7.656 47.647 11.912 49.348 17.017 47.647 39.99 99.548 62.96 135.283 20.42 37.438" color="#000" stroke="#000" stroke-width="8.1" overflow="visible" enable-background="accumulate" fill="none"/><path d="M1844.934 1519.655l27.103-76.838-8.784-7.686-2.67 1.076-5.016 15.944-3.843 4.94-6.587 2.745-5.49-1.647-9.882-3.294-36.782-4.94-7.137 4.94-6.04 2.196-3.84-.55-1.648-3.292-1.647-2.745-7.685 6.587-6.04 3.843-3.293-1.098h-5.49l-6.588 3.843-6.275.487-.862-5.977-.973-7.86-2.32 6.213-12.628 8.785-5.49 1.647 2.196-7.137 4.392-8.234 1.996-3.704-7.485 6.45-16.47 9.332-4.94 2.745.55-6.04 11.015-14.446-3.33-3.12-2.37-1.085-11.904 10.418-6.04 4.39-8.783 3.844h-3.842l-1.646-1.647 21.96-18.116-3.795-5.413-15.97 9.257-9.333 4.94-10.98 3.295-2.745-1.1 12.73-7.797 10.114-6.887-3.268-5.08-18.613 7.937-2.67-.562 25.613-13.85 14.983-9.282-1.044-4.727 18.153-7.51 16.805-8.045 16.682-10.073 8.974-8.637 9.692-11.675 18.666-12.078 19.214-7.136 3.294.55 12.627 7.684 3.988 3.34 4.192.448 2.6-.595.75-2.644v-3.844l-1.693-4.482-3.25-4.3.1-2.948 1.256-2.588 3.34-2.644 145.17 167.31-5.483 1.172-2.745 1.647-1.098 4.392-1.098 3.843-1.344 2.018-4.37 2.148-5.345 1.737-2.116 1.235-2.196 3.843-4.94 1.097-3.53 1.064-4.156 1.68-3.752 2.14-7.227-2.14-3.26-.212-3.328.76-2.745 4.393h-3.294l-7.137-3.293-3.605-4.204-1.136-.79-1.014.064-5.225 3.832-2.743 3.842-3.42.437-5.098-.42-11.032-1.7-4.73-4.412-2.064-.237-6.854-2.34z" color="#000" overflow="visible" enable-background="accumulate"/><path d="M1987.177 1382.54l-75.45 27.94-5.552-10.268 1.64-2.365 16.658-1.362 13.128-18.815 1.117-4.04-4.83 8.666 11.94-22.62-.405-20.98 1.248-5.688 2.946-7 2.27-4.225 1.236-2.69 2.305-3.635 2.088-6.214.112-2.197-.164-4.52 6.01-2.868c-.987-3.28 10.753-10.43 5.384-11.08l-.09-8.498 7.15-9.267-9.05 4.592-.175.888.528-8.592 7.44-3.924-12.064-.505-2.254-1.625 4.825-3.67-7.68 3.01 12.746-13.996 3.77-4.21-6.01-.802-16.528 7.544-2.305-3.938-.533-2.552 12.794-9.3 13.613-9.358-10.647-1.5-1.813-4.28 7.816-13.514-20.576 27.704-4.44-4.898 12.563-13.524 6.884-8.007 5.644-9.98-.463-2.92-10.42 10.687-8.956 8.34-4.23-4.31 11.86-16.395.043-2.728-19.176 21.91-12.37 12.557-4.378-2.065-11.344 16.04-11.565 14.608-13.516 14.037-10.41 6.84-13.53 6.865-15.91 15.53-11.215 17.156-.194 3.335 4.7 14.015 2.373 4.63-.49 4.185-1.154 2.403-2.745.146-3.746-.85-3.997-2.643-3.475-4.12-2.896-.554-2.802.65-3.318 2.67 131.02 178.612 2.356-5.088 2.214-2.312 4.526-.098 3.99-.22 2.266-.864 3.063-3.787 2.878-4.828 1.67-1.79 4.235-1.29 2.164-4.576 1.82-3.208 2.56-3.68 2.917-3.185-.487-7.522 1.702-2.036 2.47-1.89 2.71-4.08.73-3.213-1.632-7.687-.33-3.458.67-.886 1.276 1.006 2.715-6.227 1.383-3.214 1.184-3.237.72-5.066 1.38-8.36-3.852-8.362 2.208-5.037-2.946-20.077z" color="#000" overflow="visible" enable-background="accumulate"/><path d="M1845.473 789.908l2.506-1.517 1.807-2.945 1.693-3.185.984-3.43 1.466-4.253.25-7.053-.85-3.863-.46-1.546-1.313.936-2.328 1.577-3.473 3.167-1.808 2.946-1.156 2.775-1.283 3.722-.45 3.613.018 3.973.795 3.447z" color="#000" fill="#12ac50" overflow="visible" enable-background="accumulate"/><path d="M1836.01 898.08l1.765-2.336.59-3.406.392-3.586-.357-3.55-.214-4.494-2.38-6.644-2.22-3.273-1-1.266-.874 1.356-1.58 2.327-2.05 4.228-.59 3.406-.044 3.007.187 3.933.918 3.523 1.49 3.683 2.015 2.907z" color="#000" fill="#5eb73a" overflow="visible" enable-background="accumulate"/><path d="M1830.756 850.52l-1.574 2.472-2.987 1.74-3.222 1.62-3.45.905-4.288 1.368-7.057.088-3.843-.94-1.535-.493.965-1.292 1.63-2.292 3.246-3.397 2.988-1.742 2.8-1.09 3.752-1.198 3.62-.37 3.973.11 3.428.875z" color="#000" fill="#5eb73a" overflow="visible" enable-background="accumulate"/><path d="M1819.957 892.74l-.792 2.818-2.356 2.53-2.617 2.482-3.042 1.864-3.707 2.55-6.73 2.124-3.95.213-1.613-.028.55-1.517.898-2.665 2.125-4.19 2.356-2.53 2.365-1.855 3.244-2.23 3.36-1.4 3.833-1.044 3.534-.154z" color="#000" fill="#5eb73a" overflow="visible" enable-background="accumulate"/><path d="M1461.735 1050.634l-8.467-41.28-3.176-55.04-5.292-109.022v-158.77l-1.64-42.12 36.566 14.975 49.06 19.316 60.902 18.52 71.774 14.028 81.982 2.012 69.91-7.673 68-16.512 28.32-16.144 56.197 21.803 77.37 16.514 94.797 1.642 67.584-7.303 70.76-20.43 80.338-28.58 25.4-12.488-4.978 153.367-1.905 125.11-5.292 122.994-86.842 1.905z" color="#000" fill="#5e1516" overflow="visible" enable-background="accumulate"/><path d="M1904.673 894.972l5.763-15.362 2.546-8.156 4.288-8.724 7.64-9.294 5.762-4.93 4.02-2.087-5.763 2.275-8.175 4.74-7.37 8.536-4.155 7.777-2.412 5.31-2.145 5.5z" color="#000" fill="#3e1f12" overflow="visible" enable-background="accumulate"/><path d="M1918.575 927.408l-8.432-16.127-3.725-8.56-6.274-9.16-11.176-9.756-8.43-5.177-5.883-2.19 8.43 2.39 11.96 4.977 10.785 8.96 6.078 8.163 3.53 5.575 3.137 5.774z" color="#000" fill="#3e1f12" overflow="visible" enable-background="accumulate"/><path d="M1821.925 839.528l-2.07 2.072-3.292 1.055-3.496.885-3.565.138-4.48.41-6.91-1.438-3.55-1.746-1.392-.813 1.22-1.053 2.088-1.885 3.902-2.617 3.293-1.055 2.97-.46 3.92-.36 3.617.423 3.854.965 3.159 1.593z" color="#000" fill="#12ac50" overflow="visible" enable-background="accumulate"/><path d="M1861.909 813l-1.72 2.37-3.087 1.56-3.314 1.422-3.5.695-4.36 1.108-7.05-.337-3.78-1.168-1.503-.585 1.04-1.232 1.766-2.19 3.444-3.196 3.087-1.558 2.86-.92 3.817-.97 3.64-.15 3.956.348 3.37 1.078z" color="#000" fill="#12ac50" overflow="visible" enable-background="accumulate"/><path d="M1822.932 839.958l2.29-1.828 1.41-3.156 1.266-3.377.53-3.528.903-4.41-.665-7.026-1.344-3.72-.654-1.474-1.182 1.098-2.104 1.866-3.032 3.59-1.412 3.156-.785 2.9-.79 3.858.02 3.64.535 3.938 1.235 3.315z" color="#000" fill="#12ac50" overflow="visible" enable-background="accumulate"/><path d="M1808.325 884.768l-1.382 2.582-2.847 1.962-3.09 1.858-3.373 1.163-4.17 1.688-7.032.622-3.9-.645-1.57-.376.865-1.36 1.453-2.41 2.98-3.633 2.846-1.96 2.71-1.3 3.65-1.478 3.583-.643 3.97-.19 3.483.612z" color="#000" fill="#12ac50" overflow="visible" enable-background="accumulate"/><path d="M1866.125 936.165l.52 2.882-1.017 3.305-1.27 3.376-1.923 3.004-2.223 3.913-5.128 4.85-3.46 1.915-1.464.678-.167-1.604-.356-2.79.082-4.698 1.015-3.305 1.32-2.7 1.944-3.423 2.41-2.727 2.995-2.612 3.112-1.682z" color="#000" fill="#12ac50" overflow="visible" enable-background="accumulate"/><path d="M1809.414 884.888l1.662-2.41.44-3.43.234-3.6-.512-3.53-.41-4.48-2.67-6.535-2.362-3.172-1.053-1.22-.814 1.392-1.476 2.394-1.864 4.313-.44 3.43.088 3.003.36 3.92 1.07 3.48 1.65 3.615 2.14 2.816z" color="#000" fill="#12ac50" overflow="visible" enable-background="accumulate"/><path d="M1842.223 860.725l-1.397 2.574-2.86 1.944-3.1 1.84-3.38 1.143-4.18 1.664-7.035.58-3.898-.668-1.566-.385.873-1.357 1.466-2.4 3-3.615 2.86-1.945 2.717-1.284 3.658-1.455 3.588-.62 3.97-.167 3.48.633z" color="#000" fill="#12ac50" overflow="visible" enable-background="accumulate"/><path d="M1834.526 817.016l4.11-.81 3.974-.758 6.236-.984 6.29-1.202 5.337-.944 2.042-.278-3.036-3.912-1.505.01-2.8-.147-.822-.08-3.065-.047-1.776.176-2.02.376-1.477.397-2.092.785-1.392.502-1.19.394-1.828 1.035-1.246.963-1.427 1.17-1.3 1.183-.807.72-.268.453-.23.71z" color="#000" fill="#c0e01f" overflow="visible" enable-background="accumulate"/><path d="M1851.003 935.795l.768-2.826-.723-3.382-.972-3.473-1.654-3.16-1.873-4.092-4.686-5.277-3.28-2.21-1.4-.802-.305 1.583-.597 2.75-.328 4.686.724 3.38 1.08 2.806 1.64 3.58 2.164 2.925 2.755 2.863 2.954 1.946z" color="#000" fill="#5eb73a" overflow="visible" enable-background="accumulate"/><path d="M1833.885 899.19l-.593 2.87-2.174 2.687-2.438 2.66-2.904 2.07-3.522 2.802-6.566 2.587-3.925.488-1.61.083.443-1.55.71-2.722 1.827-4.33 2.174-2.687 2.23-2.016 3.082-2.45 3.253-1.632 3.752-1.308 3.515-.4z" color="#000" fill="#12ac50" overflow="visible" enable-background="accumulate"/><path d="M1815.592 868.256l3.968-1.335 3.844-1.267 6.056-1.783 6.08-2.007 5.17-1.627 1.99-.54-3.517-3.487-1.49.205-2.795.216-.827.027-3.044.35-1.738.406-1.954.635-1.414.586-1.972 1.05-1.316.677-1.13.546-1.678 1.263-1.11 1.117-1.263 1.345-1.135 1.34-.706.82-.21.483-.135.737z" color="#000" fill="#c0e01f" overflow="visible" enable-background="accumulate"/><path d="M1839.106 833.126a1.758.68 0 1 1-3.515 0 1.758.68 0 1 1 3.516 0z" transform="matrix(4.265 0 0 10.263 -5987.345 -7705.792)" fill="#f03936"/><path d="M1834.117 936.822l.316 2.912-1.243 3.226-1.503 3.278-2.128 2.864-2.49 3.748-5.455 4.48-3.585 1.67-1.508.574-.054-1.612-.16-2.808.41-4.68 1.242-3.227 1.504-2.602 2.18-3.28 2.596-2.552 3.168-2.397 3.222-1.46z" color="#000" fill="#5eb73a" overflow="visible" enable-background="accumulate"/><path d="M1810.57 914.1l3.412-2.425 3.313-2.325 5.282-3.458 5.24-3.68 4.48-3.053 1.746-1.093-4.374-2.32-1.368.628-2.613 1.014-.785.263-2.813 1.217-1.547.89-1.687 1.173-1.184.97-1.585 1.574-1.064 1.03-.923.848-1.243 1.695-.74 1.39-.82 1.653-.7 1.612-.44.988-.058.523.083.745z" color="#000" fill="#c0e01f" overflow="visible" enable-background="accumulate"/><path d="M1879.845 876.69l-8.035-2.398-9.008-3.827-11.768-7.19-6.528-5.1-9.245-7.134-18.728-17.58-1.308.572 8.902 8.87 4.682 5.424 7.63 6.39 7.23 6.273 4.998 2.89 9.76 6.59 11.562 4.94 7.7 4.4 3.753 1.208z" color="#000" fill="#5eb73a" overflow="visible" enable-background="accumulate"/><path d="M1897.144 833.707l-7.656-3.42-8.436-4.962-10.737-8.654-5.812-5.9-8.243-8.275-16.29-19.86-1.373.398 7.678 9.95 3.94 5.984 6.736 7.326 6.356 7.155 4.582 3.517 8.823 7.798 10.827 6.397 7.065 5.36 3.564 1.684z" color="#000" fill="#5eb73a" overflow="visible" enable-background="accumulate"/><path d="M1916.963 955.715l-8.43-16.128-3.727-8.562-6.274-9.158-11.176-9.757-8.43-5.176-5.883-2.19 8.43 2.39 11.96 4.976 10.785 8.96 6.078 8.163 3.53 5.575 3.137 5.775z" color="#000" fill="#3e1f12" overflow="visible" enable-background="accumulate"/><path d="M1874.516 903.597l-8.385.027-9.73-1.06-13.342-3.48-7.724-2.993-10.914-4.157-23.012-11.415-1.087.926 11.088 5.92 6.05 3.836 9.152 3.912 8.733 3.914 5.622 1.323 11.248 3.485 12.498 1.386 8.644 1.986 3.94.072z" color="#000" fill="#5eb73a" overflow="visible" enable-background="accumulate"/><path d="M1858.478 866.92l2.288-1.83 1.412-3.155 1.265-3.377.53-3.528.904-4.408-.667-7.027-1.343-3.72-.656-1.474-1.18 1.1-2.105 1.865-3.03 3.59-1.413 3.156-.785 2.902-.79 3.857.02 3.64.533 3.937 1.235 3.315z" color="#000" fill="#12ac50" overflow="visible" enable-background="accumulate"/><path d="M1839.106 833.126a1.758.68 0 1 1-3.515 0 1.758.68 0 1 1 3.516 0z" transform="matrix(4.265 0 0 10.263 -5987.13 -7711.459)" fill="#f03936"/><path d="M1851.236 900.42l1.662-2.41.44-3.43.234-3.6-.51-3.53-.412-4.48-2.67-6.535-2.36-3.172-1.055-1.222-.814 1.394-1.474 2.394-1.864 4.313-.44 3.43.088 3.005.36 3.92 1.07 3.48 1.65 3.615 2.14 2.816z" color="#000" fill="#12ac50" overflow="visible" enable-background="accumulate"/><path d="M1829.518 877.55l3.97-1.336 3.843-1.267 6.057-1.784 6.08-2.006 5.17-1.628 1.99-.542-3.518-3.486-1.49.206-2.795.216-.827.026-3.045.35-1.738.406-1.954.635-1.413.587-1.973 1.05-1.315.678-1.13.545-1.68 1.262-1.11 1.118-1.263 1.345-1.135 1.34-.707.82-.207.484-.136.735z" color="#000" fill="#c0e01f" overflow="visible" enable-background="accumulate"/><path d="M1877.224 821.248l2.506-1.516 1.81-2.946 1.69-3.185.985-3.428 1.466-4.254.25-7.054-.85-3.863-.458-1.545-1.314.935-2.328 1.578-3.47 3.166-1.81 2.947-1.155 2.776-1.283 3.722-.452 3.612.02 3.973.794 3.448z" color="#000" fill="#12ac50" overflow="visible" enable-background="accumulate"/><path d="M1815.514 834.82l-2.924-.174-2.974-1.763-2.982-2.028-2.47-2.575-3.28-3.08-3.51-6.123-1.05-3.814-.315-1.58 1.598.213 2.795.31 4.548 1.183 2.975 1.762 2.315 1.916 2.87 2.695 2.085 2.985 1.836 3.523.905 3.42z" color="#000" fill="#12ac50" overflow="visible" enable-background="accumulate"/><path d="M1839.106 833.126a1.758.68 0 1 1-3.515 0 1.758.68 0 1 1 3.516 0z" transform="matrix(4.265 0 0 10.263 -5977.732 -7711.244)" fill="#f03936"/><path d="M1815.31 832.57l-1.34-4.6-3.433-3.738-4.4-4.902-3.956-3.456.643-.683 6.408 5.502 4.007 5.046 2.39 4.302z" color="#000" fill="#5ec23c" overflow="visible" enable-background="accumulate"/><path d="M1847.13 828.036l4.11-.81 3.975-.76 6.236-.982 6.29-1.202 5.337-.944 2.042-.278-3.036-3.913-1.504.012-2.8-.15-.822-.08-3.065-.047-1.776.176-2.02.375-1.478.398-2.093.785-1.392.502-1.19.394-1.83 1.035-1.245.963-1.426 1.17-1.3 1.182-.807.72-.268.453-.23.713z" color="#000" fill="#c0e01f" overflow="visible" enable-background="accumulate"/><path d="M1820.933 839.73l-.565 1.26-1.945 1.94-1.024.828-1.038.447-1.04.32-2.434.553-3.334.265-3.13-.283-3.26-.406-2.318.168-2.48-.908-2.42-1.038-1.245-1.106-1.422-1.706 2.292-.01 20.127-.795 4.073-.066.917-.188.303.53z" color="#000" fill="#5eb73a" overflow="visible" enable-background="accumulate"/><path d="M1839.106 833.126a1.758.68 0 1 1-3.515 0 1.758.68 0 1 1 3.516 0z" transform="matrix(4.265 0 0 10.263 -5981.104 -7721.503)" fill="#f03936"/><path d="M1838.783 783.85l-2.877-.55-2.72-2.134-2.694-2.397-2.115-2.874-2.854-3.48-2.686-6.526-.546-3.917-.107-1.61 1.557.42 2.732.67 4.356 1.762 2.72 2.133 2.048 2.2 2.497 3.045 1.68 3.23 1.363 3.732.453 3.508z" color="#000" fill="#12ac50" overflow="visible" enable-background="accumulate"/><path d="M1820.35 933.762l-.318 2.91-1.91 2.883-2.176 2.876-2.696 2.338-3.24 3.12-6.293 3.2-3.862.854-1.596.236.294-1.586.45-2.776 1.41-4.482 1.91-2.882 2.03-2.216 2.837-2.73 3.087-1.933 3.612-1.656 3.46-.73z" color="#000" fill="#12ac50" overflow="visible" enable-background="accumulate"/><path d="M1826.587 918.97l3.414-2.426 3.314-2.325 5.28-3.46 5.242-3.678 4.478-3.053 1.748-1.093-4.375-2.32-1.366.627-2.612 1.015-.784.263-2.814 1.216-1.546.89-1.687 1.172-1.184.97-1.585 1.575-1.064 1.03-.923.848-1.24 1.694-.74 1.39-.82 1.653-.7 1.612-.44.988-.06.523.084.744z" color="#000" fill="#c0e01f" overflow="visible" enable-background="accumulate"/><path d="M1803.063 857.518l3.97-1.335 3.842-1.268 6.056-1.783 6.082-2.007 5.17-1.627 1.988-.54-3.517-3.487-1.49.207-2.794.216-.828.026-3.045.35-1.738.405-1.955.635-1.414.586-1.97 1.05-1.317.677-1.13.545-1.678 1.263-1.11 1.12-1.263 1.344-1.136 1.34-.706.82-.208.483-.136.737z" color="#000" fill="#c0e01f" overflow="visible" enable-background="accumulate"/><path d="M1839.106 833.126a1.758.68 0 1 1-3.515 0 1.758.68 0 1 1 3.516 0z" transform="matrix(4.265 0 0 14.158 -5993.801 -10960.212)" fill="#f03936"/><path d="M1838.872 781.594l-.73-4.735-2.922-4.152-3.727-5.43-3.475-3.94.725-.595 5.64 6.285 3.32 5.523 1.813 4.577z" color="#000" fill="#5ec23c" overflow="visible" enable-background="accumulate"/><path d="M1833.22 849.31l2.367-1.725 1.55-3.09 1.41-3.32.686-3.5 1.095-4.365-.36-7.05-1.178-3.774-.59-1.5-1.228 1.043-2.185 1.77-3.186 3.455-1.547 3.09-.912 2.865-.957 3.82-.14 3.637.36 3.956 1.09 3.366z" color="#000" fill="#5eb73a" overflow="visible" enable-background="accumulate"/><path d="M1839.106 833.126a1.758.68 0 1 1-3.515 0 1.758.68 0 1 1 3.516 0z" transform="matrix(4.265 0 0 14.158 -6000.724 -10960.462)" fill="#f03936"/><path d="M1843.52 789.423l-.724 1.175-2.18 1.672-1.123.688-1.085.31-1.073.18-2.485.235-3.34-.17-3.067-.686-3.18-.825-2.32-.133-2.342-1.224-2.264-1.342-1.09-1.26-1.19-1.875 2.273.287 20.06 1.82 4.046.464.934-.067.232.566z" color="#000" fill="#5eb73a" overflow="visible" enable-background="accumulate"/><path d="M1839.106 833.126a1.758.68 0 1 1-3.515 0 1.758.68 0 1 1 3.516 0z" transform="matrix(4.122 0 0 9.579 -5743.016 -7136.045)" fill="#f03936"/><path d="M1823.495 804.744l4.108-.81 3.976-.758 6.235-.983 6.29-1.202 5.336-.943 2.043-.278-3.035-3.914-1.504.012-2.8-.148-.822-.082-3.065-.046-1.776.176-2.02.376-1.477.398-2.092.785-1.39.502-1.19.393-1.83 1.035-1.246.964-1.426 1.17-1.3 1.182-.807.72-.267.453-.23.713z" color="#000" fill="#c0e01f" overflow="visible" enable-background="accumulate"/><path d="M1839.106 833.126a1.758.68 0 1 1-3.515 0 1.758.68 0 1 1 3.516 0z" transform="matrix(4.122 0 0 9.579 -5748.683 -7142.215)" fill="#f03936"/><path d="M1854.462 800.515l2.57-1.404 1.936-2.864 1.83-3.107 1.134-3.384 1.65-4.186.56-7.036-.68-3.896-.39-1.565-1.355.877-2.396 1.474-3.605 3.01-1.936 2.865-1.277 2.72-1.445 3.664-.61 3.59-.155 3.97.644 3.478z" color="#000" fill="#5eb73a" overflow="visible" enable-background="accumulate"/><path d="M1883.297 798.567l-2.833.743-3.374-.753-3.465-1.003-3.146-1.68-4.076-1.91-5.236-4.732-2.18-3.3-.792-1.406 1.587-.292 2.753-.573 4.69-.286 3.374.753 2.796 1.103 3.565 1.67 2.91 2.192 2.838 2.78 1.92 2.97z" color="#000" fill="#12ac50" overflow="visible" enable-background="accumulate"/><path d="M1882.48 783.462l2.878.544 3.313-.986 3.388-1.242 3.02-1.897 3.933-2.187 4.895-5.086 1.945-3.444.69-1.457-1.602-.18-2.787-.38-4.697.04-3.314.986-2.713 1.296-3.44 1.915-2.748 2.39-2.64 2.97-1.708 3.097z" color="#000" fill="#5eb73a" overflow="visible" enable-background="accumulate"/><path d="M1880.133 766.708l-2.878.544-3.314-.986-3.385-1.242-3.02-1.897-3.933-2.188-4.894-5.087-1.945-3.444-.69-1.458 1.602-.18 2.786-.38 4.7.04 3.313.986 2.713 1.296 3.44 1.915 2.747 2.387 2.638 2.97 1.71 3.1z" color="#000" fill="#5eb73a" overflow="visible" enable-background="accumulate"/><path d="M1882.104 752.746l-2.927-.09-3.022-1.68-3.04-1.943-2.54-2.504-3.365-2.987-3.68-6.023-1.157-3.782-.36-1.573 1.605.17 2.803.23 4.58 1.055 3.022 1.68 2.368 1.85 2.946 2.613 2.167 2.925 1.934 3.47 1 3.394z" color="#000" fill="#12ac50" overflow="visible" enable-background="accumulate"/><path d="M1882.48 753.775l2.9.417 3.266-1.13 3.33-1.39 2.934-2.027 3.832-2.36 4.667-5.294 1.792-3.524.626-1.487-1.61-.11-2.8-.26-4.692.248-3.267 1.13-2.654 1.414-3.353 2.064-2.64 2.506-2.506 3.084-1.572 3.17z" color="#000" fill="#12ac50" overflow="visible" enable-background="accumulate"/><path d="M1880.54 782.053l-2.832.743-3.374-.753-3.465-1.003-3.147-1.68-4.074-1.91-5.238-4.733-2.18-3.3-.792-1.405 1.587-.292 2.753-.573 4.69-.287 3.374.753 2.796 1.103 3.565 1.67 2.908 2.192 2.84 2.78 1.92 2.97z" color="#000" fill="#12ac50" overflow="visible" enable-background="accumulate"/><path d="M1856.824 767.79l3.69 1.98 3.555 1.935 5.444 3.195 5.625 3.06 4.723 2.655 1.755 1.08.135-4.95-1.17-.945-2.07-1.89-.585-.585-2.34-1.98-1.484-.99-1.8-.99-1.395-.63-2.116-.72-1.395-.495-1.17-.45-2.07-.36-1.576-.045h-1.845l-1.756.09-1.08.045-.495.18-.63.405z" color="#000" fill="#c0e01f" overflow="visible" enable-background="accumulate"/><path d="M1894.65 820.41l-3.75-7.5-3.375-9.187-2.813-13.5-.75-8.25-1.125-11.625V744.66l-1.312-.56-.375 12.56-.75 7.126.562 9.937.375 9.562 1.313 5.625 1.875 11.625 4.312 11.812 2.063 8.625 1.687 3.563z" color="#000" fill="#5eb73a" overflow="visible" enable-background="accumulate"/><path d="M1887.15 798.143l2.9.417 3.267-1.13 3.328-1.39 2.936-2.026 3.833-2.36 4.666-5.294 1.792-3.526.626-1.486-1.61-.11-2.8-.258-4.692.246-3.267 1.13-2.654 1.414-3.353 2.064-2.64 2.507-2.506 3.084-1.57 3.17z" color="#000" fill="#12ac50" overflow="visible" enable-background="accumulate"/><path d="M1859.58 784.304l3.69 1.98 3.555 1.935 5.444 3.194 5.624 3.06 4.725 2.655 1.754 1.08.135-4.95-1.17-.946-2.07-1.89-.586-.585-2.34-1.98-1.485-.99-1.8-.99-1.396-.63-2.115-.72-1.395-.496-1.17-.45-2.07-.36-1.575-.045h-1.845l-1.755.09-1.08.044-.495.18-.63.405z" color="#000" fill="#c0e01f" overflow="visible" enable-background="accumulate"/><path d="M1800.826 882.113l-2.848.68-3.357-.827-3.44-1.08-3.108-1.75-4.032-2-5.13-4.847-2.107-3.35-.76-1.422 1.593-.256 2.766-.512 4.695-.183 3.357.828 2.77 1.165 3.528 1.75 2.858 2.255 2.776 2.842 1.854 3.013z" color="#000" fill="#12ac50" overflow="visible" enable-background="accumulate"/><path d="M1821.407 933.468l.643-2.857-.87-3.345-1.125-3.427-1.79-3.085-2.052-4.005-4.913-5.068-3.374-2.063-1.433-.74-.236 1.594-.476 2.773-.12 4.697.87 3.346 1.2 2.756 1.796 3.504 2.29 2.83 2.88 2.738 3.035 1.815z" color="#000" fill="#12ac50" overflow="visible" enable-background="accumulate"/><path d="M1873.926 1054.604l51.183-.24 1.37-8.143 1.936-10.96 2.257-14.833v-11.285l.322-9.673-2.9-38.047-2.903-17.41-.645-17.41 4.19-11.61 7.74-10.64 8.705-8.06 6.126-4.19 7.416-3.547 4.19-1.935-6.125 1.29-9.996 3.87-7.093 4.19-7.093 5.805-7.738 8.706-3.547 6.77-.323-13.54-1.29-8.06v-5.805l-1.934-13.22-8.06-24.503-8.706-21.28-6.126-10.64-3.224 3.224 2.257 9.995 4.19 11.286 2.58 14.832 2.58 30.63 1.612 26.76 1.29 18.702-1.29 23.214-1.64 17.82-3.49 16.76-7.6 25.96-8.864 20.842-5.263 7.738-5.386 7.285z" color="#000" fill="#3e1f12" overflow="visible" enable-background="accumulate"/><path d="M1849.446 937.618l.518 2.882-1.015 3.305-1.272 3.375-1.923 3.005-2.223 3.913-5.128 4.85-3.46 1.915-1.463.678-.166-1.604-.356-2.79.082-4.697 1.015-3.306 1.32-2.7 1.945-3.424 2.412-2.727 2.993-2.612 3.112-1.68z" color="#000" fill="#12ac50" overflow="visible" enable-background="accumulate"/><path d="M1877.716 1053.053l7.36-4.774 5.57-5.968 4.375-7.558 2.388-7.36 4.774-12.134 2.984-13.128 1.79-22.278.796-8.553v-13.127l-2.586 19.095-1.592 13.725-3.78 15.117-4.176 13.924-4.973 13.725-5.17 9.348-5.97 6.365z" color="#000" fill="#855634" overflow="visible" enable-background="accumulate"/><path d="M1799.98 880.02l-2.61-4.017-4.37-2.585-5.628-3.42-4.787-2.165.417-.84 7.725 3.413 5.294 3.673 3.534 3.426z" color="#000" fill="#5ec23c" overflow="visible" enable-background="accumulate"/><path d="M1833.368 960.144l2.263-3.523 2.21-3.39 3.61-5.18 3.492-5.367 3.017-4.502 1.213-1.664-4.924-.523-1.035 1.093-2.046 1.915-.63.538-2.157 2.178-1.104 1.403-1.13 1.716-.736 1.34-.884 2.053-.602 1.35-.54 1.132-.522 2.035-.168 1.567-.145 1.84-.048 1.756-.04 1.08.14.507.355.66z" color="#000" fill="#c0e01f" overflow="visible" enable-background="accumulate"/><path d="M1844.854 915.463l-.072-3.372.144-3.586.717-2.654 1.148-2.726 1.364-3.443 4.017-4.59.575-.718-1.363-1.363-1.29 1.004-1.723 2.008-1.436 2.51-1.29 2.655-.862 2.583-.717 2.008-.502 5.74.215 4.088z" color="#000" fill="#5eb73a" overflow="visible" enable-background="accumulate"/><path d="M1807.434 885.25l-.177 1.368-1.3 2.42-.74 1.088-.865.727-.903.607-2.17 1.234-3.116 1.217-3.077.635-3.238.554-2.172.83-2.637-.152-2.616-.293-1.512-.7-1.855-1.222 2.192-.67 19.035-6.58 3.88-1.24.824-.447.443.42z" color="#000" fill="#5eb73a" overflow="visible" enable-background="accumulate"/><path d="M1888.79 926.56l-7.77 3.15-9.424 2.644-13.678 1.746-8.284.1-11.677.21-25.608-2.012-.664 1.264 12.494 1.358 7.044 1.307 9.95.218 9.563.376 5.71-.867 11.737-.958 12.113-3.373 8.76-1.38 3.684-1.403z" color="#000" fill="#5eb73a" overflow="visible" enable-background="accumulate"/><path d="M1905.564 951.012l.198-19.095-2.585-2.586-2.586-2.784-5.37-3.38-4.376-2.388-9.15-3.382-8.155-2.586-9.15-3.38-13.726-5.173-10.94-3.58-7.757-1.99 18.3 9.747 17.703 5.37 9.945 4.576 12.93 8.95 6.96 7.56 5.57 9.15z" color="#000" fill="#5f3316" overflow="visible" enable-background="accumulate"/><path d="M1881.15 744.85l-1.875-2.25-.75-3.376-.563-3.563.188-3.56v-4.5l2.063-6.75 2.062-3.376.937-1.312.938 1.312 1.687 2.25 2.25 4.125.75 3.374.188 3v3.937l-.75 3.564-1.313 3.75-1.875 3z" color="#000" fill="#12ac50" overflow="visible" enable-background="accumulate"/><path d="M1882.65 743.16l2.437-4.124.375-5.062.563-6.562-.188-5.25h.938l.375 8.437-.938 6.374-1.5 4.687z" color="#000" fill="#5ec23c" overflow="visible" enable-background="accumulate"/><path d="M1881.277 752.16l-1.305.45-2.745-.09-1.304-.18-1.035-.45-.945-.54-2.07-1.394-2.475-2.25-1.935-2.475-1.935-2.654-1.71-1.575-1.035-2.43-.9-2.474-.045-1.665.27-2.204 1.575 1.665 14.354 14.13 2.835 2.926.765.54-.18.585z" color="#000" fill="#5eb73a" overflow="visible" enable-background="accumulate"/><path d="M1856.078 751.306l3.69 1.98 3.555 1.935 5.445 3.196 5.625 3.06 4.725 2.655 1.755 1.08.135-4.95-1.17-.944-2.07-1.89-.585-.585-2.34-1.98-1.485-.99-1.8-.99-1.395-.63-2.115-.72-1.395-.494-1.17-.45-2.07-.36-1.575-.045h-1.845l-1.755.09-1.08.046-.495.18-.63.405z" color="#000" fill="#c0e01f" overflow="visible" enable-background="accumulate"/><path d="M1882.702 767.677l2.878.544 3.314-.985 3.386-1.242 3.02-1.896 3.933-2.19 4.894-5.085 1.946-3.444.69-1.457-1.603-.18-2.786-.38-4.7.04-3.312.988-2.713 1.295-3.44 1.915-2.748 2.39-2.638 2.97-1.71 3.097z" color="#000" fill="#5eb73a" overflow="visible" enable-background="accumulate"/><path d="M1842.98 819.604l-.073-3.372.144-3.587.718-2.654 1.148-2.725 1.363-3.443 4.016-4.592.574-.717-1.363-1.363-1.29 1.004-1.723 2.01-1.434 2.51-1.292 2.654-.86 2.583-.718 2.01-.502 5.738.215 4.09z" color="#000" fill="#5eb73a" overflow="visible" enable-background="accumulate"/><path d="M1833.654 823.477l4.017-2.726 1.723-.644.79-.718 1.147-.43 3.3.143 1.506.79 5.02 4.735-1.003 1.004-.932-1.077-1.578-1.865-1.004-1.147-1.148-.358 1.937 3.084 1.29 2.583.647 1.434-.86-.072-1.436-2.654-1.793-2.726-.43-.072.143 4.16-.79-.214v-4.448l-.86-.646-.717-.574-.717.216.144 3.515h-.79l-.43 2.007-1.65.43.072-2.223-1.005-.144-.645 2.583-1.65-1.435.932-1.363 1.22-1.148.79-.502.07-1.72-.717.07-.86.718-.574.574-1.076 1.22-.072 1.434-1.147-.143-.574-1.434z" color="#000" fill="#9e3e30" overflow="visible" enable-background="accumulate"/><path d="M1839.106 833.126a1.758.68 0 1 1-3.515 0 1.758.68 0 1 1 3.516 0z" transform="matrix(4.122 0 0 9.579 -5745.634 -7153.262)" fill="#f03936"/><path d="M1832.65 826.777l2.51.287 1.65.933 1.22.287v-1.076l-.933-.79-1.29-.502-2.44.144-.86.143z" color="#000" fill="#f8a41e" overflow="visible" enable-background="accumulate"/><path d="M1839.106 833.126a1.758.68 0 1 1-3.515 0 1.758.68 0 1 1 3.516 0z" transform="matrix(4.265 0 0 14.158 -5997.531 -10952.966)" fill="#f03936"/><path d="M1839.106 833.126a1.758.68 0 1 1-3.515 0 1.758.68 0 1 1 3.516 0z" transform="matrix(1 0 0 2.211 .789 -1009.776)"/><path d="M1839.106 833.126a1.758.68 0 1 1-3.515 0 1.758.68 0 1 1 3.516 0z" transform="matrix(1 0 0 2.211 -16.033 -1002.603)"/><path d="M1839.106 833.126a1.758.68 0 1 1-3.515 0 1.758.68 0 1 1 3.516 0z" transform="matrix(1 0 0 2.211 -7.066 -994.209)"/><path d="M1839.106 833.126a1.758.68 0 1 1-3.515 0 1.758.68 0 1 1 3.516 0z" transform="matrix(1 0 0 2.211 14.24 -995.142)"/><path d="M1839.106 833.126a1.758.68 0 1 1-3.515 0 1.758.68 0 1 1 3.516 0z" transform="matrix(1 0 0 2.211 24.785 -1001.742)"/><path d="M1821.458 834.668l5.452-.717v-1.22l-4.878.504-.79 1.004z" color="#000" fill="#f8a41e" overflow="visible" enable-background="accumulate"/><path d="M1824.185 831.942l.79-.143v-1.938l-.72-.43-.5-2.942.43-1.147.717-.933-.717-.144-.86 1.077-.36.932-.143 3.587v.933l.79.286z" color="#000" fill="#f8a41e" overflow="visible" enable-background="accumulate"/><path d="M1848.647 832.875v-1.435l-.79-1.578-1.434-1.865-1.578-.933h-4.592l-.215.933 3.515.645 1.722 1.005 1.722.86.502 1.005z" color="#000" fill="#f8a41e" overflow="visible" enable-background="accumulate"/><path d="M1851.588 840.98l-2.01-.86-1.434-.358-1.076-1.148v-.718l1.937 1.076 1.722.79z" color="#000" fill="#f8a41e" overflow="visible" enable-background="accumulate"/><path d="M1858.76 833.162l.073-1.65-.502-1.29-1.577-1.795-1.363-1.363-4.735-.143.79.79 2.295.43 1.148 1.005 1.865 1.147.646.718z" color="#000" fill="#f8a41e" overflow="visible" enable-background="accumulate"/><path d="M1861.846 828.786l-.36-2.01-.573-1.075-1.22-1.003-1.147-.933-1.004-.645-3.443.286.93.79 1.65.357 1.507.79 1.435 1.004 1.29 1.29z" color="#000" fill="#f8a41e" overflow="visible" enable-background="accumulate"/><path d="M1863.424 836.175l-1.363-.718-.573-.43-1.72-.43.07-1.005h1.005l1.722.502.645.79z" color="#000" fill="#f8a41e" overflow="visible" enable-background="accumulate"/><path d="M1837.67 841.842l.934-1.29 1.363-1.508-3.013-.143.072 1.65v.933z" color="#000" fill="#fff" overflow="visible" enable-background="accumulate"/><path d="M1866.005 932.29l.643-2.857-.87-3.346-1.125-3.427-1.79-3.085-2.052-4.006-4.912-5.068-3.374-2.063-1.433-.742-.235 1.595-.476 2.772-.123 4.697.87 3.346 1.202 2.756 1.794 3.504 2.29 2.83 2.88 2.738 3.035 1.815z" color="#000" fill="#12ac50" overflow="visible" enable-background="accumulate"/><path d="M1839.106 833.126a1.758.68 0 1 1-3.515 0 1.758.68 0 1 1 3.516 0z" transform="matrix(4.265 0 0 10.263 -5986.739 -7609.432)" fill="#f03936"/><path d="M1850.047 958.69l2.263-3.522 2.208-3.392 3.612-5.178 3.49-5.368 3.018-4.502 1.215-1.665-4.925-.523-1.033 1.093-2.047 1.915-.63.538-2.156 2.177-1.103 1.403-1.13 1.717-.737 1.34-.883 2.053-.603 1.352-.54 1.13-.522 2.036-.168 1.567-.144 1.84-.048 1.757-.04 1.08.14.508.355.66z" color="#000" fill="#c0e01f" overflow="visible" enable-background="accumulate"/><path d="M1839.106 833.126a1.758.68 0 1 1-3.515 0 1.758.68 0 1 1 3.516 0z" transform="matrix(4.265 0 0 10.263 -5986.524 -7615.099)" fill="#f03936"/><path d="M1812.404 934.095l-2.39 1.692-3.423.484-3.595.282-3.537-.466-4.486-.353-6.567-2.585-3.203-2.32-1.235-1.038 1.382-.832 2.374-1.506 4.29-1.92 3.422-.483 3.006.048 3.925.308 3.492 1.027 3.635 1.603 2.844 2.104z" color="#000" fill="#12ac50" overflow="visible" enable-background="accumulate"/><path d="M1839.106 833.126a1.758.68 0 1 1-3.515 0 1.758.68 0 1 1 3.516 0z" transform="matrix(4.265 0 0 10.263 -5977.126 -7614.884)" fill="#f03936"/><path d="M1795.47 907.443l3.413-2.425 3.314-2.325 5.28-3.458 5.242-3.68 4.477-3.052 1.747-1.093-4.374-2.32-1.366.628-2.613 1.015-.783.264-2.814 1.216-1.547.89-1.686 1.173-1.185.97-1.585 1.574-1.063 1.03-.923.848-1.242 1.695-.74 1.39-.82 1.653-.7 1.613-.44.986-.058.523.083.744z" color="#000" fill="#c0e01f" overflow="visible" enable-background="accumulate"/><path d="M1810.84 932.467l-3.922-2.753-5.017-.77-6.498-1.076-5.248-.225.073-.934 8.44.286 6.283 1.434 4.555 1.863z" color="#000" fill="#5ec23c" overflow="visible" enable-background="accumulate"/><path d="M1839.106 833.126a1.758.68 0 1 1-3.515 0 1.758.68 0 1 1 3.516 0z" transform="matrix(4.265 0 0 10.263 -5980.498 -7625.143)" fill="#f03936"/><path d="M1819.704 934.54l.346 1.337-.305 2.73-.282 1.286-.53.997-.612.9-1.552 1.954-2.437 2.29-2.618 1.736-2.798 1.72-1.704 1.582-2.504.84-2.538.704-1.663-.085-2.177-.44 1.783-1.44 15.213-13.204 3.138-2.597.6-.72.568.224z" color="#000" fill="#5eb73a" overflow="visible" enable-background="accumulate"/><path d="M1839.106 833.126a1.758.68 0 1 1-3.515 0 1.758.68 0 1 1 3.516 0z" transform="matrix(4.265 0 0 14.158 -5993.195 -10863.852)" fill="#f03936"/><path d="M1816.876 959.596l2.263-3.524 2.207-3.392 3.612-5.178 3.49-5.367 3.017-4.503 1.215-1.665-4.924-.522-1.034 1.092-2.047 1.916-.63.537-2.156 2.177-1.102 1.403-1.128 1.717-.738 1.34-.883 2.053-.604 1.352-.54 1.13-.522 2.037-.168 1.565-.145 1.84-.047 1.756-.04 1.08.14.51.355.66z" color="#000" fill="#c0e01f" overflow="visible" enable-background="accumulate"/><path d="M1839.106 833.126a1.758.68 0 1 1-3.515 0 1.758.68 0 1 1 3.516 0z" transform="matrix(4.265 0 0 14.158 -6000.118 -10864.102)" fill="#f03936"/><path d="M1835.284 934.336l.768-2.826-.724-3.38-.972-3.474-1.654-3.16-1.874-4.092-4.686-5.277-3.28-2.21-1.4-.802-.306 1.583-.597 2.748-.328 4.688.723 3.38 1.08 2.806 1.64 3.58 2.164 2.926 2.754 2.863 2.954 1.945z" color="#000" fill="#5eb73a" overflow="visible" enable-background="accumulate"/><path d="M1839.106 833.126a1.758.68 0 1 1-3.515 0 1.758.68 0 1 1 3.516 0z" transform="matrix(4.122 0 0 9.579 -5742.41 -7039.685)" fill="#f03936"/><path d="M1839.106 833.126a1.758.68 0 1 1-3.515 0 1.758.68 0 1 1 3.516 0z" transform="matrix(4.122 0 0 9.579 -5748.077 -7045.854)" fill="#f03936"/><path d="M1821.967 890.867l1.766-2.336.59-3.406.392-3.585-.357-3.55-.214-4.496-2.38-6.644-2.22-3.273-1-1.266-.874 1.356-1.58 2.328-2.05 4.227-.59 3.408-.044 3.005.187 3.933.918 3.523 1.49 3.682 2.016 2.908z" color="#000" fill="#5eb73a" overflow="visible" enable-background="accumulate"/><path d="M1834.26 919.837l4.017-2.726 1.722-.644.788-.717 1.147-.432 3.3.144 1.507.79 5.02 4.733-1.003 1.005-.934-1.076-1.578-1.866-1.004-1.147-1.148-.358 1.937 3.085 1.29 2.582.647 1.434-.86-.072-1.436-2.654-1.793-2.726-.43-.072.144 4.16-.79-.214v-4.448l-.86-.646-.717-.573-.718.214.143 3.515h-.79l-.43 2.007-1.65.43.072-2.223-1.004-.143-.645 2.583-1.65-1.435.933-1.363 1.22-1.147.79-.503.07-1.72-.717.07-.86.718-.574.574-1.076 1.22-.072 1.434-1.147-.143-.573-1.434z" color="#000" fill="#9e3e30" overflow="visible" enable-background="accumulate"/><path d="M1839.106 833.126a1.758.68 0 1 1-3.515 0 1.758.68 0 1 1 3.516 0z" transform="matrix(4.122 0 0 9.579 -5745.028 -7056.902)" fill="#f03936"/><path d="M1833.255 923.137l2.51.287 1.65.933 1.22.287v-1.076l-.932-.79-1.29-.5-2.44.142-.86.143z" color="#000" fill="#f8a41e" overflow="visible" enable-background="accumulate"/><path d="M1839.106 833.126a1.758.68 0 1 1-3.515 0 1.758.68 0 1 1 3.516 0z" transform="matrix(4.265 0 0 14.158 -5996.926 -10856.606)" fill="#f03936"/><path d="M1839.106 833.126a1.758.68 0 1 1-3.515 0 1.758.68 0 1 1 3.516 0z" transform="matrix(1 0 0 2.211 1.395 -913.416)"/><path d="M1839.106 833.126a1.758.68 0 1 1-3.515 0 1.758.68 0 1 1 3.516 0z" transform="matrix(1 0 0 2.211 -15.427 -906.243)"/><path d="M1839.106 833.126a1.758.68 0 1 1-3.515 0 1.758.68 0 1 1 3.516 0z" transform="matrix(1 0 0 2.211 -6.46 -897.849)"/><path d="M1839.106 833.126a1.758.68 0 1 1-3.515 0 1.758.68 0 1 1 3.516 0z" transform="matrix(1 0 0 2.211 14.846 -898.782)"/><path d="M1839.106 833.126a1.758.68 0 1 1-3.515 0 1.758.68 0 1 1 3.516 0z" transform="matrix(1 0 0 2.211 25.391 -905.382)"/><path d="M1822.064 931.028l5.452-.717v-1.22l-4.878.504-.79 1.004z" color="#000" fill="#f8a41e" overflow="visible" enable-background="accumulate"/><path d="M1824.79 928.302l.79-.143v-1.938l-.718-.43-.502-2.942.43-1.147.718-.933-.718-.143-.86 1.076-.36.932-.143 3.587v.933l.79.287z" color="#000" fill="#f8a41e" overflow="visible" enable-background="accumulate"/><path d="M1849.253 929.235V927.8l-.79-1.578-1.434-1.865-1.58-.933h-4.59l-.216.933 3.515.645 1.72 1.005 1.723.86.502 1.005z" color="#000" fill="#f8a41e" overflow="visible" enable-background="accumulate"/><path d="M1852.194 937.34l-2.01-.86-1.434-.358-1.076-1.148v-.718l1.937 1.077 1.723.79z" color="#000" fill="#f8a41e" overflow="visible" enable-background="accumulate"/><path d="M1859.367 929.522l.072-1.65-.503-1.29-1.578-1.795-1.364-1.363-4.735-.143.79.79 2.296.43 1.148 1.005 1.865 1.147.645.718z" color="#000" fill="#f8a41e" overflow="visible" enable-background="accumulate"/><path d="M1862.452 925.146l-.36-2.01-.573-1.075-1.22-1.003-1.148-.933-1.004-.645-3.444.286.933.79 1.65.358 1.506.79 1.435 1.003 1.29 1.29z" color="#000" fill="#f8a41e" overflow="visible" enable-background="accumulate"/><path d="M1864.03 932.535l-1.363-.718-.574-.43-1.72-.43.07-1.005h1.005l1.722.502.645.79z" color="#000" fill="#f8a41e" overflow="visible" enable-background="accumulate"/><path d="M1989.22 930.442l-.98-.9-.49-1.062.49-2.043.083-2.533.408-.98.328.98.9 1.062.735 1.063v2.37l-.246.898z" color="#000" fill="#fff" overflow="visible" enable-background="accumulate"/><path d="M1980.804 936.735l-.9-.573-.734-.817-.818-.408.164-.736.9-.08 1.633.08.735.083.163 1.47-.082.9z" color="#000" fill="#fff" overflow="visible" enable-background="accumulate"/><path d="M1969.444 931.913l-.898-.98-.246-1.145 1.144.41.246.816z" color="#000" fill="#fff" overflow="visible" enable-background="accumulate"/><path d="M1975.052 913.55l.072-3.37-.144-3.588-.717-2.654-1.148-2.726-1.363-3.443-4.017-4.592-.574-.718 1.364-1.363 1.29 1.005 1.723 2.008 1.435 2.51 1.29 2.655.862 2.583.717 2.01.503 5.737-.215 4.09z" color="#000" fill="#5eb73a" overflow="visible" enable-background="accumulate"/><path d="M1839.106 833.126a1.758.68 0 1 1-3.515 0 1.758.68 0 1 1 3.516 0z" transform="matrix(-4.265 0 0 10.263 9806.645 -7611.344)" fill="#f03936"/><path d="M1839.106 833.126a1.758.68 0 1 1-3.515 0 1.758.68 0 1 1 3.516 0z" transform="matrix(-4.265 0 0 10.263 9806.43 -7617.011)" fill="#f03936"/><path d="M1839.106 833.126a1.758.68 0 1 1-3.515 0 1.758.68 0 1 1 3.516 0z" transform="matrix(-4.265 0 0 10.263 9797.032 -7616.796)" fill="#f03936"/><path d="M1839.106 833.126a1.758.68 0 1 1-3.515 0 1.758.68 0 1 1 3.516 0z" transform="matrix(-4.265 0 0 10.263 9800.404 -7627.055)" fill="#f03936"/><path d="M1839.106 833.126a1.758.68 0 1 1-3.515 0 1.758.68 0 1 1 3.516 0z" transform="matrix(-4.265 0 0 14.158 9813.101 -10865.764)" fill="#f03936"/><path d="M1839.106 833.126a1.758.68 0 1 1-3.515 0 1.758.68 0 1 1 3.516 0z" transform="matrix(-4.265 0 0 14.158 9820.024 -10866.014)" fill="#f03936"/><path d="M1839.106 833.126a1.758.68 0 1 1-3.515 0 1.758.68 0 1 1 3.516 0z" transform="matrix(-4.122 0 0 9.579 9562.316 -7041.597)" fill="#f03936"/><path d="M1839.106 833.126a1.758.68 0 1 1-3.515 0 1.758.68 0 1 1 3.516 0z" transform="matrix(-4.122 0 0 9.579 9567.983 -7047.766)" fill="#f03936"/><path d="M1985.647 917.926l-4.018-2.726-1.722-.646-.79-.717-1.147-.43-3.3.143-1.506.79-5.02 4.733 1.003 1.005.933-1.076 1.578-1.865 1.004-1.148 1.148-.36-1.937 3.085-1.29 2.582-.647 1.435.86-.072 1.436-2.654 1.793-2.726.43-.072-.143 4.16.79-.214v-4.448l.86-.645.717-.573.717.215-.144 3.515h.79l.43 2.01 1.65.43-.072-2.225 1.005-.143.646 2.58 1.65-1.433-.932-1.363-1.22-1.148-.788-.502-.072-1.722.717.072.86.717.575.575 1.076 1.22.072 1.434 1.148-.144.573-1.435z" color="#000" fill="#9e3e30" overflow="visible" enable-background="accumulate"/><path d="M1839.106 833.126a1.758.68 0 1 1-3.515 0 1.758.68 0 1 1 3.516 0z" transform="matrix(-4.122 0 0 9.579 9564.934 -7058.814)" fill="#f03936"/><path d="M1986.65 921.226l-2.51.287-1.65.932-1.22.287v-1.076l.933-.79 1.29-.5 2.44.142.86.144z" color="#000" fill="#f8a41e" overflow="visible" enable-background="accumulate"/><path d="M1839.106 833.126a1.758.68 0 1 1-3.515 0 1.758.68 0 1 1 3.516 0z" transform="matrix(-4.265 0 0 14.158 9816.832 -10858.518)" fill="#f03936"/><path d="M1839.106 833.126a1.758.68 0 1 1-3.515 0 1.758.68 0 1 1 3.516 0z" transform="matrix(-1 0 0 2.211 3818.511 -915.328)"/><path d="M1839.106 833.126a1.758.68 0 1 1-3.515 0 1.758.68 0 1 1 3.516 0z" transform="matrix(-1 0 0 2.211 3835.333 -908.154)"/><path d="M1839.106 833.126a1.758.68 0 1 1-3.515 0 1.758.68 0 1 1 3.516 0z" transform="matrix(-1 0 0 2.211 3826.366 -899.761)"/><path d="M1839.106 833.126a1.758.68 0 1 1-3.515 0 1.758.68 0 1 1 3.516 0z" transform="matrix(-1 0 0 2.211 3805.061 -900.694)"/><path d="M1839.106 833.126a1.758.68 0 1 1-3.515 0 1.758.68 0 1 1 3.516 0z" transform="matrix(-1 0 0 2.211 3794.515 -907.293)"/><path d="M1997.842 929.117l-5.452-.718v-1.22l4.878.502.79 1.004z" color="#000" fill="#f8a41e" overflow="visible" enable-background="accumulate"/><path d="M1995.116 926.39l-.79-.143v-1.937l.718-.43.502-2.94-.43-1.15-.718-.932.718-.143.86 1.076.36.933.143 3.587v.933l-.79.287z" color="#000" fill="#f8a41e" overflow="visible" enable-background="accumulate"/><path d="M1970.654 927.323v-1.435l.79-1.578 1.434-1.865 1.578-.932h4.59l.216.932-3.515.646-1.722 1.005-1.72.86-.504 1.005z" color="#000" fill="#f8a41e" overflow="visible" enable-background="accumulate"/><path d="M1967.712 935.43l2.01-.86 1.434-.36 1.076-1.148v-.717l-1.937 1.076-1.722.79z" color="#000" fill="#f8a41e" overflow="visible" enable-background="accumulate"/><path d="M1960.54 927.61l-.073-1.65.502-1.29 1.577-1.794 1.363-1.363 4.735-.144-.79.788-2.295.43-1.148 1.005-1.865 1.148-.645.718z" color="#000" fill="#f8a41e" overflow="visible" enable-background="accumulate"/><path d="M1957.454 923.234l.36-2.008.573-1.076 1.22-1.005 1.147-.932 1.004-.646 3.444.287-.933.79-1.65.358-1.507.79-1.435 1.003-1.29 1.29z" color="#000" fill="#f8a41e" overflow="visible" enable-background="accumulate"/><path d="M1955.876 930.623l1.363-.717.573-.43 1.722-.43-.072-1.005h-1.005l-1.72.503-.647.79z" color="#000" fill="#f8a41e" overflow="visible" enable-background="accumulate"/><path d="M1971.513 836.32l.072-3.37-.143-3.588-.717-2.655-1.148-2.726-1.363-3.442-4.017-4.59-.574-.718 1.363-1.363 1.29 1.004 1.722 2.01 1.435 2.51 1.29 2.655.862 2.582.718 2.01.502 5.738-.215 4.09z" color="#000" fill="#5eb73a" overflow="visible" enable-background="accumulate"/><path d="M1839.106 833.126a1.758.68 0 1 1-3.515 0 1.758.68 0 1 1 3.516 0z" transform="matrix(-4.265 0 0 10.263 9803.106 -7688.575)" fill="#f03936"/><path d="M1839.106 833.126a1.758.68 0 1 1-3.515 0 1.758.68 0 1 1 3.516 0z" transform="matrix(-4.265 0 0 10.263 9802.891 -7694.242)" fill="#f03936"/><path d="M1839.106 833.126a1.758.68 0 1 1-3.515 0 1.758.68 0 1 1 3.516 0z" transform="matrix(-4.265 0 0 10.263 9793.494 -7694.027)" fill="#f03936"/><path d="M1839.106 833.126a1.758.68 0 1 1-3.515 0 1.758.68 0 1 1 3.516 0z" transform="matrix(-4.265 0 0 10.263 9796.865 -7704.286)" fill="#f03936"/><path d="M1839.106 833.126a1.758.68 0 1 1-3.515 0 1.758.68 0 1 1 3.516 0z" transform="matrix(-4.265 0 0 14.158 9809.563 -10942.994)" fill="#f03936"/><path d="M1839.106 833.126a1.758.68 0 1 1-3.515 0 1.758.68 0 1 1 3.516 0z" transform="matrix(-4.265 0 0 14.158 9816.485 -10943.244)" fill="#f03936"/><path d="M1839.106 833.126a1.758.68 0 1 1-3.515 0 1.758.68 0 1 1 3.516 0z" transform="matrix(-4.122 0 0 9.579 9558.778 -7118.828)" fill="#f03936"/><path d="M1839.106 833.126a1.758.68 0 1 1-3.515 0 1.758.68 0 1 1 3.516 0z" transform="matrix(-4.122 0 0 9.579 9564.445 -7124.997)" fill="#f03936"/><path d="M1982.108 840.695l-4.017-2.726-1.72-.647-.79-.717-1.148-.43-3.3.143-1.506.788-5.022 4.735 1.005 1.004.93-1.076 1.58-1.864 1.004-1.148 1.147-.36-1.935 3.086-1.292 2.583-.645 1.434.86-.07 1.435-2.655 1.794-2.726.43-.072-.143 4.16.79-.215v-4.448l.86-.645.717-.574.718.215-.143 3.516h.79l.43 2.01 1.65.43-.073-2.225 1.005-.142.645 2.582 1.65-1.434-.932-1.363-1.22-1.148-.79-.502-.07-1.722.716.073.86.717.575.574 1.077 1.22.072 1.434 1.147-.143.574-1.435z" color="#000" fill="#9e3e30" overflow="visible" enable-background="accumulate"/><path d="M1839.106 833.126a1.758.68 0 1 1-3.515 0 1.758.68 0 1 1 3.516 0z" transform="matrix(-4.122 0 0 9.579 9561.396 -7136.044)" fill="#f03936"/><path d="M1983.112 843.995l-2.51.287-1.65.932-1.22.287v-1.075l.933-.79 1.29-.5 2.44.142.86.144z" color="#000" fill="#f8a41e" overflow="visible" enable-background="accumulate"/><path d="M1839.106 833.126a1.758.68 0 1 1-3.515 0 1.758.68 0 1 1 3.516 0z" transform="matrix(-4.265 0 0 14.158 9813.293 -10935.748)" fill="#f03936"/><path d="M1839.106 833.126a1.758.68 0 1 1-3.515 0 1.758.68 0 1 1 3.516 0z" transform="matrix(-1 0 0 2.211 3814.973 -992.559)"/><path d="M1839.106 833.126a1.758.68 0 1 1-3.515 0 1.758.68 0 1 1 3.516 0z" transform="matrix(-1 0 0 2.211 3831.795 -985.385)"/><path d="M1839.106 833.126a1.758.68 0 1 1-3.515 0 1.758.68 0 1 1 3.516 0z" transform="matrix(-1 0 0 2.211 3822.828 -976.992)"/><path d="M1839.106 833.126a1.758.68 0 1 1-3.515 0 1.758.68 0 1 1 3.516 0z" transform="matrix(-1 0 0 2.211 3801.522 -977.924)"/><path d="M1839.106 833.126a1.758.68 0 1 1-3.515 0 1.758.68 0 1 1 3.516 0z" transform="matrix(-1 0 0 2.211 3790.977 -984.524)"/><path d="M1994.303 851.886l-5.452-.718v-1.22l4.88.503.788 1.005z" color="#000" fill="#f8a41e" overflow="visible" enable-background="accumulate"/><path d="M1991.577 849.16l-.79-.144v-1.937l.718-.43.503-2.942-.43-1.148-.718-.932.717-.144.86 1.076.36.933.143 3.586v.932l-.79.287z" color="#000" fill="#f8a41e" overflow="visible" enable-background="accumulate"/><path d="M1967.115 850.092v-1.434l.79-1.58 1.434-1.864 1.577-.932h4.59l.216.932-3.515.646-1.72 1.004-1.723.86-.502 1.005z" color="#000" fill="#f8a41e" overflow="visible" enable-background="accumulate"/><path d="M1964.174 858.2l2.01-.862 1.433-.36 1.076-1.147v-.716l-1.937 1.076-1.72.79z" color="#000" fill="#f8a41e" overflow="visible" enable-background="accumulate"/><path d="M1957 850.38l-.072-1.65.502-1.292 1.58-1.793 1.362-1.363 4.734-.144-.79.79-2.295.43-1.146 1.004-1.865 1.148-.647.717z" color="#000" fill="#f8a41e" overflow="visible" enable-background="accumulate"/><path d="M1953.916 846.003l.358-2.008.574-1.076 1.22-1.006 1.148-.932 1.004-.646 3.443.287-.932.79-1.65.358-1.506.79-1.434 1.004-1.292 1.292z" color="#000" fill="#f8a41e" overflow="visible" enable-background="accumulate"/><path d="M1952.337 853.392l1.363-.717.574-.43 1.722-.43-.072-1.005h-1.004l-1.722.502-.646.79z" color="#000" fill="#f8a41e" overflow="visible" enable-background="accumulate"/><path d="M1964.933 901.628l-.342 2.56 1.027 2.873 1.253 2.925 1.814 2.57 2.115 3.36 4.71 4.07 3.126 1.55 1.316.54.083-1.42.203-2.472-.26-4.137-1.025-2.872-1.27-2.328-1.85-2.94-2.234-2.306-2.742-2.183-2.81-1.36z" color="#000" fill="#12ac50" overflow="visible" enable-background="accumulate"/><path d="M1978.245 900.702l-.79-2.46.505-3.008.718-3.1 1.332-2.85 1.49-3.68 3.92-4.836 2.803-2.078 1.2-.762.333 1.383.636 2.4.475 4.117-.504 3.008-.84 2.515-1.302 3.22-1.792 2.664-2.314 2.632-2.525 1.833z" color="#000" fill="#5eb73a" overflow="visible" enable-background="accumulate"/><path d="M1993.166 900.937l-.163 2.578 1.223 2.794 1.455 2.828 1.99 2.44 2.343 3.203 4.984 3.733 3.226 1.33 1.35.445-.016-1.423.03-2.48-.546-4.11-1.223-2.793-1.424-2.236-2.05-2.804-2.39-2.145-2.887-1.987-2.898-1.16z" color="#000" fill="#5eb73a" overflow="visible" enable-background="accumulate"/><path d="M2005.175 897.694l.397 2.552 1.798 2.464 2.03 2.448 2.47 1.952 2.98 2.623 5.672 2.567 3.436.6 1.416.145-.323-1.385-.506-2.43-1.42-3.893-1.798-2.463-1.877-1.873-2.61-2.293-2.795-1.58-3.248-1.316-3.08-.505z" color="#000" fill="#12ac50" overflow="visible" enable-background="accumulate"/><path d="M2004.233 897.477l-.68-2.493.635-2.983.854-3.064 1.456-2.79 1.65-3.61 4.127-4.66 2.89-1.953 1.235-.71.27 1.397.53 2.424.295 4.134-.635 2.983-.95 2.477-1.442 3.16-1.907 2.583-2.426 2.528-2.604 1.72z" color="#000" fill="#12ac50" overflow="visible" enable-background="accumulate"/><path d="M1979.69 902.246l-.343 2.56 1.025 2.873 1.254 2.923 1.814 2.57 2.115 3.36 4.71 4.07 3.126 1.552 1.318.54.083-1.42.204-2.474-.26-4.136-1.025-2.872-1.27-2.327-1.85-2.94-2.234-2.307-2.742-2.183-2.81-1.36z" color="#000" fill="#12ac50" overflow="visible" enable-background="accumulate"/><path d="M1994.752 921.46l-2.135-3.016-2.08-2.902-3.388-4.42-3.29-4.59-2.838-3.85-1.137-1.418 4.32-.656.953.922 1.88 1.607.576.448 1.987 1.834 1.03 1.19 1.06 1.47.705 1.15.86 1.775.585 1.167.52.975.54 1.773.21 1.374.202 1.615.112 1.545.078.95-.104.453-.287.596z" color="#000" fill="#c0e01f" overflow="visible" enable-background="accumulate"/><path d="M1944.578 894.063l6.973 2.468 8.41 1.957 12.124.995 7.303-.24 10.3-.277 22.486-2.79.635 1.086-10.957 1.694-6.154 1.43-8.76.588-8.412.71-5.067-.537-10.38-.378-10.81-2.492-7.773-.868-3.302-1.09z" color="#000" fill="#5eb73a" overflow="visible" enable-background="accumulate"/><path d="M1964.885 898.21l-.68-2.494.635-2.983.854-3.064 1.456-2.79 1.65-3.612 4.127-4.66 2.89-1.953 1.235-.71.27 1.397.53 2.424.295 4.134-.635 2.983-.95 2.476-1.442 3.158-1.907 2.584-2.427 2.528-2.604 1.72z" color="#000" fill="#12ac50" overflow="visible" enable-background="accumulate"/><path d="M1979.996 920.84l-2.135-3.014-2.08-2.902-3.387-4.42-3.29-4.59-2.837-3.85-1.136-1.418 4.318-.656.954.922 1.88 1.607.575.447 1.988 1.833 1.028 1.193 1.062 1.468.704 1.153.86 1.774.584 1.167.52.975.54 1.772.21 1.374.202 1.615.112 1.547.078.95-.105.453-.285.596z" color="#000" fill="#c0e01f" overflow="visible" enable-background="accumulate"/><path d="M2012.192 897.67l2.173 1.398 3.036.29 3.18.105 3.1-.55 3.938-.49 5.685-2.54 2.73-2.17 1.047-.964-1.25-.68-2.153-1.232-3.856-1.52-3.035-.29-2.646.16-3.448.428-3.037 1.044-3.14 1.556-2.423 1.968z" color="#000" fill="#12ac50" overflow="visible" enable-background="accumulate"/><path d="M2013.506 896.175l3.346-2.582 4.39-.878 5.685-1.206 4.616-.407-.102-.82-7.426.588-5.478 1.514-3.94 1.822z" color="#000" fill="#5ec23c" overflow="visible" enable-background="accumulate"/><path d="M2005.777 898.354l-.253 1.19.377 2.395.3 1.12.507.858.576.77 1.446 1.66 2.238 1.92 2.376 1.427 2.535 1.405 1.563 1.326 2.24.642 2.264.52 1.463-.143 1.9-.476-1.628-1.2-13.93-11.03-2.868-2.163-.555-.612-.494.222z" color="#000" fill="#5eb73a" overflow="visible" enable-background="accumulate"/><path d="M2009.263 920.32l-2.134-3.014-2.08-2.902-3.39-4.42-3.29-4.59-2.837-3.85-1.136-1.418 4.318-.656.955.922 1.88 1.607.575.447 1.987 1.834 1.028 1.193 1.062 1.468.704 1.153.86 1.774.585 1.167.522.975.54 1.772.21 1.374.2 1.615.113 1.547.078.95-.104.453-.287.596z" color="#000" fill="#c0e01f" overflow="visible" enable-background="accumulate"/><path d="M1992.04 898.793l-.79-2.46.503-3.01.72-3.098 1.332-2.85 1.49-3.68 3.92-4.837 2.802-2.077 1.2-.762.333 1.384.636 2.398.474 4.117-.503 3.008-.84 2.515-1.302 3.22-1.792 2.665-2.315 2.632-2.525 1.832z" color="#000" fill="#5eb73a" overflow="visible" enable-background="accumulate"/><path d="M1919.452 820.064l2.237 1.7 3.265.573 3.438.385 3.405-.333 4.312-.195 6.38-2.267 3.144-2.12 1.217-.956-1.297-.842-2.23-1.52-4.048-1.978-3.266-.573-2.884-.052-3.772.17-3.382.872-3.536 1.42-2.794 1.925z" color="#000" fill="#12ac50" overflow="visible" enable-background="accumulate"/><path d="M1925.73 806.983l-2.75-.576-2.573-2.092-2.544-2.345-1.98-2.79-2.677-3.386-2.467-6.304-.458-3.766-.075-1.545 1.486.428 2.608.688 4.15 1.763 2.572 2.09 1.926 2.146 2.344 2.96 1.556 3.127 1.245 3.602.375 3.372z" color="#000" fill="#5eb73a" overflow="visible" enable-background="accumulate"/><path d="M1933.967 793.003l2.35 1.54 3.298.344 3.456.145 3.376-.57 4.287-.493 6.205-2.707 2.99-2.336 1.148-1.037-1.354-.75-2.33-1.36-4.177-1.69-3.298-.346-2.88.145-3.75.43-3.313 1.107-3.43 1.662-2.652 2.115z" color="#000" fill="#5eb73a" overflow="visible" enable-background="accumulate"/><path d="M1937.354 779.91l2.626.995 3.295-.376 3.406-.606 3.172-1.285 4.08-1.41 5.475-3.98 2.414-2.927.898-1.26-1.483-.44-2.568-.826-4.444-.75-3.295.377-2.78.77-3.568 1.23-2.996 1.796-2.99 2.363-2.132 2.64z" color="#000" fill="#12ac50" overflow="visible" enable-background="accumulate"/><path d="M1936.642 780.682l-2.72-.696-2.48-2.203-2.438-2.454-1.855-2.876-2.53-3.498-2.186-6.407-.292-3.783-.014-1.547 1.466.494 2.576.8 4.066 1.945 2.48 2.2 1.83 2.23 2.21 3.06 1.418 3.19 1.086 3.654.228 3.385z" color="#000" fill="#12ac50" overflow="visible" enable-background="accumulate"/><path d="M1927.965 806.447l2.236 1.7 3.267.573 3.438.385 3.405-.333 4.312-.194 6.38-2.267 3.144-2.12 1.217-.955-1.298-.842-2.228-1.52-4.05-1.978-3.266-.573-2.88-.05-3.774.17-3.38.872-3.538 1.42-2.794 1.924z" color="#000" fill="#12ac50" overflow="visible" enable-background="accumulate"/><path d="M1954.22 802.53l-3.998.398-3.86.407-5.998.83-6.108.642-5.162.615-1.952.312 1.7-4.435 1.384-.408 2.528-.913.734-.305 2.8-.894 1.68-.33 1.96-.215 1.466-.046 2.138.14 1.418.073 1.202.03 1.966.444 1.412.54 1.634.677 1.522.725.94.435.373.342.408.59z" color="#000" fill="#c0e01f" overflow="visible" enable-background="accumulate"/><path d="M1901.365 835.24l6.08-5.265 6.367-6.898 7.454-10.926 3.697-7.03 5.27-9.886 9.444-22.757 1.37-.016-4.287 11.268-1.955 6.587-4.15 8.597-3.85 8.334-3.23 4.5-5.934 9.61-8.162 8.88-4.998 6.88-2.804 2.537z" color="#000" fill="#5eb73a" overflow="visible" enable-background="accumulate"/><path d="M1916.194 818.272l-2.722-.697-2.478-2.202-2.438-2.454-1.856-2.876-2.527-3.5-2.188-6.405-.292-3.784-.014-1.547 1.465.493 2.576.802 4.067 1.943 2.48 2.203 1.83 2.228 2.21 3.06 1.42 3.192 1.085 3.653.227 3.385z" color="#000" fill="#12ac50" overflow="visible" enable-background="accumulate"/><path d="M1945.707 816.147l-3.997.398-3.86.407-6 .83-6.107.642-5.162.615-1.95.31 1.7-4.434 1.384-.407 2.528-.915.734-.303 2.8-.894 1.68-.33 1.958-.216 1.468-.046 2.138.14 1.418.074 1.202.03 1.966.443 1.412.54 1.634.678 1.522.725.94.437.372.342.41.59z" color="#000" fill="#c0e01f" overflow="visible" enable-background="accumulate"/><path d="M1941.102 773.264l2.488-1.304 1.906-2.714 1.808-2.95 1.143-3.224 1.654-3.987.656-6.738-.587-3.748-.35-1.508-1.312.818-2.322 1.372-3.51 2.828-1.905 2.714-1.268 2.59-1.447 3.487-.645 3.432-.216 3.805.558 3.347z" color="#000" fill="#12ac50" overflow="visible" enable-background="accumulate"/><path d="M1940.394 771.217l-.643-4.55 1.53-4.623 1.914-6.02 2.096-4.582-.83-.345-3.434 7.337-1.513 5.992-.395 4.704z" color="#000" fill="#5ec23c" overflow="visible" enable-background="accumulate"/><path d="M1938.3 779.695l.992.878 2.465.93 1.222.32 1.08-.02 1.037-.13 2.347-.474 3.02-1.085 2.623-1.48 2.69-1.642 2.094-.766 1.812-1.773 1.707-1.86.65-1.46.572-2.052-2.007.896-17.91 7.24-3.588 1.55-.876.196-.054.585z" color="#000" fill="#5eb73a" overflow="visible" enable-background="accumulate"/><path d="M1960.94 788.2l-3.997.4-3.86.406-6 .83-6.107.642-5.16.615-1.953.312 1.7-4.435 1.384-.407 2.528-.913.734-.304 2.8-.894 1.68-.33 1.957-.216 1.468-.046 2.138.14 1.418.074 1.203.03 1.966.443 1.41.54 1.635.678 1.522.724.94.436.373.342.41.59z" color="#000" fill="#c0e01f" overflow="visible" enable-background="accumulate"/><path d="M1931.335 792.917l-2.75-.576-2.573-2.09-2.543-2.346-1.98-2.79-2.68-3.386-2.465-6.304-.457-3.766-.075-1.545 1.486.43 2.607.687 4.148 1.763 2.573 2.092 1.926 2.145 2.344 2.962 1.556 3.126 1.245 3.6.374 3.373z" color="#000" fill="#5eb73a" overflow="visible" enable-background="accumulate"/><path d="M1949.555 835.726l2.023 2.064 3.24 1.072 3.44.906 3.518.17 4.418.445 6.832-1.355 3.52-1.69 1.38-.79-1.195-1.05-2.04-1.882-3.828-2.618-3.24-1.07-2.926-.483-3.866-.39-3.572.383-3.813.916-3.13 1.544z" color="#000" fill="#12ac50" overflow="visible" enable-background="accumulate"/><path d="M1957.898 823.347l-2.713-.997-2.307-2.514-2.24-2.766-1.598-3.137-2.22-3.846-1.57-6.786.096-3.9.154-1.585 1.45.66 2.55 1.088 3.96 2.415 2.307 2.514 1.64 2.47 1.944 3.365 1.12 3.415.73 3.852-.122 3.49z" color="#000" fill="#5eb73a" overflow="visible" enable-background="accumulate"/><path d="M1968.372 810.346l2.162 1.918 3.306.843 3.497.664 3.52-.076 4.438.138 6.72-1.83 3.393-1.93 1.323-.885-1.265-.964-2.168-1.733-4-2.345-3.306-.843-2.952-.283-3.884-.12-3.537.63-3.74 1.18-3.015 1.758z" color="#000" fill="#5eb73a" overflow="visible" enable-background="accumulate"/><path d="M1973.774 797.52l2.525 1.407 3.41.11 3.557-.108 3.42-.835 4.364-.824 6.168-3.236 2.895-2.618 1.1-1.15-1.443-.668-2.49-1.224-4.413-1.427-3.41-.11-2.944.37-3.818.72-3.317 1.38-3.396 1.96-2.566 2.367z" color="#000" fill="#12ac50" overflow="visible" enable-background="accumulate"/><path d="M1972.934 798.202l-2.666-1.115-2.195-2.612-2.116-2.862-1.46-3.204-2.05-3.94-1.27-6.848.267-3.894.223-1.576 1.42.72 2.5 1.202 3.85 2.585 2.195 2.612 1.53 2.54 1.795 3.447.967 3.46.56 3.88-.274 3.48z" color="#000" fill="#12ac50" overflow="visible" enable-background="accumulate"/><path d="M1960.254 823.135l2.023 2.064 3.24 1.07 3.44.906 3.517.17 4.42.446 6.83-1.355 3.52-1.69 1.38-.79-1.195-1.05-2.042-1.882-3.828-2.618-3.24-1.07-2.926-.483-3.866-.39-3.572.383-3.812.917-3.132 1.543z" color="#000" fill="#12ac50" overflow="visible" enable-background="accumulate"/><path d="M1987.565 823.068l-4.128-.192-3.99-.162-6.23-.05-6.315-.26-5.346-.144-2.033.026 2.392-4.26 1.47-.208 2.71-.552.792-.2 2.985-.49 1.76-.088 2.025.073 1.5.174 2.157.46 1.432.29 1.22.21 1.934.743 1.357.76 1.563.934 1.44.966.893.585.328.405.33.662z" color="#000" fill="#c0e01f" overflow="visible" enable-background="accumulate"/><path d="M1928.876 848.476l6.975-4.452 7.513-6.072 9.22-10.01 4.813-6.607 6.84-9.276 13.012-21.757 1.396.188-6.045 10.83-2.974 6.415-5.51 8.13-5.16 7.91-3.962 4.1-7.476 8.896-9.635 7.82-6.116 6.262-3.233 2.162z" color="#000" fill="#5eb73a" overflow="visible" enable-background="accumulate"/><path d="M1946.506 833.416l-2.667-1.116-2.195-2.612-2.116-2.862-1.46-3.204-2.05-3.94-1.272-6.847.268-3.894.222-1.575 1.42.72 2.5 1.202 3.85 2.585 2.195 2.613 1.53 2.54 1.796 3.447.966 3.46.56 3.88-.275 3.48z" color="#000" fill="#12ac50" overflow="visible" enable-background="accumulate"/><path d="M1976.867 835.66l-4.128-.193-3.992-.16-6.23-.053-6.314-.258-5.347-.144-2.033.025 2.393-4.26 1.47-.208 2.71-.553.792-.2 2.983-.49 1.76-.088 2.025.072 1.5.173 2.157.46 1.432.29 1.22.21 1.935.743 1.356.76 1.563.934 1.442.966.892.584.328.404.328.662z" color="#000" fill="#c0e01f" overflow="visible" enable-background="accumulate"/><path d="M1978.582 791.316l2.728-.956 2.344-2.478 2.28-2.733 1.647-3.113 2.28-3.81 1.672-6.763-.038-3.903-.13-1.585-1.458.636-2.57 1.052-3.994 2.354-2.345 2.48-1.678 2.445-1.995 3.336-1.17 3.397-.787 3.84.068 3.49z" color="#000" fill="#12ac50" overflow="visible" enable-background="accumulate"/><path d="M1978.167 789.127l.025-4.728 2.246-4.48 2.847-5.842 2.818-4.35-.793-.476-4.592 6.956-2.434 5.874-1.104 4.73z" color="#000" fill="#5ec23c" overflow="visible" enable-background="accumulate"/><path d="M1974.77 797.445l.878 1.042 2.37 1.314 1.197.51 1.104.142 1.073.022 2.46-.134 3.236-.652 2.89-1.116 2.985-1.268 2.246-.468 2.108-1.534 2.016-1.64.88-1.388.89-2.004-2.178.613-19.315 4.696-3.88 1.04-.923.07-.143.587z" color="#000" fill="#5eb73a" overflow="visible" enable-background="accumulate"/><path d="M1996.546 809.484l-4.128-.19-3.99-.163-6.23-.05-6.314-.258-5.347-.145-2.034.026 2.393-4.26 1.47-.21 2.71-.55.792-.2 2.985-.492 1.76-.085 2.025.073 1.5.172 2.157.462 1.432.287 1.22.21 1.934.744 1.358.76 1.563.934 1.44.965.894.585.328.403.328.663z" color="#000" fill="#c0e01f" overflow="visible" enable-background="accumulate"/><path d="M1965.704 809.865l-2.712-.997-2.307-2.514-2.24-2.766-1.598-3.137-2.22-3.845-1.57-6.786.096-3.903.154-1.584 1.45.66 2.55 1.088 3.96 2.416 2.307 2.513 1.64 2.47 1.945 3.365 1.116 3.415.73 3.852-.123 3.49z" color="#000" fill="#5eb73a" overflow="visible" enable-background="accumulate"/><path d="M1834.806 1819.95l10.48-71.344 43.935-126.566-4.217-27.85 45.35 16.315 19.33 207.833-31.843 122.94-5.29 14.154-.183.165-75.142-103.803z" color="#000" overflow="visible" enable-background="accumulate"/><path d="M1597.593 1490.568l-3.198-8.66 128.46 2.194 87.357-1.964 41.225-.98-12.76 46.13 8.834 7.853 8.835 1.965 11.778 4.907 7.852 2.945 12.76-.982 2.945-3.926 5.89 4.907 12.76-.982 5.888-4.907 4.908 1.963h6.87l6.872-4.907 7.852.982 7.852-9.816 7.853.98 2.944-8.833 3.925-5.89h5.89l7.852-4.907 5.89-9.815 3.925-7.853 8.834-6.87 3.926-5.89 74.597 3.926 83.43 4.908 65.763 4.908 1.82 3.726-72.626 130.954-46.36 77.94-51.566 74.906-61.783 81.086-65.33 71.27-15.803 16.618-58.603-61.354-28.463-32.372-56.14-70.458-35.134-50.242-44.198-72.46-58.66-109.74-16.687-29.447z" color="#000" fill="#1577c6" overflow="visible" enable-background="accumulate"/><path d="M1596.176 1494.748l37.437 70.62 25.525 47.647 57.858 95.294 71.47 105.503 85.084 98.698 39.99 39.99 9.36-9.36 68.917-75.724 57.006-70.62 78.278-114.863 53.604-94.443 34.884-63.813 12.763-29.78" color="#000" stroke="#000" stroke-width="8.1" overflow="visible" enable-background="accumulate" fill="none"/><path d="M1917.77 938.388l8.662-16.318 3.828-8.664 6.447-9.267 11.483-9.873 8.663-5.238 6.044-2.217-8.663 2.417-12.29 5.037-11.08 9.066-6.245 8.26-3.628 5.64-3.223 5.844z" color="#000" fill="#3e1f12" overflow="visible" enable-background="accumulate"/><path d="M5599.36 1558.48l55.12-5.2h20.8" color="#000" stroke="#fff" overflow="visible" enable-background="accumulate" fill="none"/><path d="M5593.12 1608.4l99.84-3.12h-1.04" color="#000" stroke="#fff" overflow="visible" enable-background="accumulate" fill="none"/><path d="M5688.8 1587.6l81.12-6.24" color="#000" stroke="#fff" overflow="visible" enable-background="accumulate" fill="none"/><path d="M5762.64 1609.44l56.16-1.04" color="#000" stroke="#fff" overflow="visible" enable-background="accumulate" fill="none"/><path d="M5770.96 1615.68l38.48-1.04" color="#000" stroke="#fff" overflow="visible" enable-background="accumulate" fill="none"/><path d="M5590 1611.52l110.24-5.2" color="#000" stroke="#fff" overflow="visible" enable-background="accumulate" fill="none"/><path d="M5676.32 1640.64l73.84-4.16" color="#000" stroke="#fff" overflow="visible" enable-background="accumulate" fill="none"/><path d="M5761.6 1606.32l62.4 1.04v1.04" color="#000" stroke="#fff" overflow="visible" enable-background="accumulate" fill="none"/><path d="M5774.08 1613.6h38.48" color="#000" stroke="#fff" overflow="visible" enable-background="accumulate" fill="none"/><path d="M5675.28 1640.64l73.84-2.08" color="#000" stroke="#fff" overflow="visible" enable-background="accumulate" fill="none"/><path d="M5612.88 1683.28l34.32-3.12" color="#000" stroke="#fff" overflow="visible" enable-background="accumulate" fill="none"/><path d="M5630.56 1702l46.8-1.04" color="#000" stroke="#fff" overflow="visible" enable-background="accumulate" fill="none"/><path d="M5746 1711.36l64.48-2.08" color="#000" stroke="#fff" overflow="visible" enable-background="accumulate" fill="none"/><path d="M5770.96 1690.56h38.48" color="#000" stroke="#fff" overflow="visible" enable-background="accumulate" fill="none"/><path d="M5676.32 1639.6l66.56-3.12" color="#000" stroke="#fff" overflow="visible" enable-background="accumulate" fill="none"/><path d="M5607.68 1681.2l40.56 1.04 1.04-1.04" color="#000" stroke="#fff" overflow="visible" enable-background="accumulate" fill="none"/><path d="M5630.56 1700.96l39.52-1.04" color="#000" stroke="#fff" overflow="visible" enable-background="accumulate" fill="none"/><path d="M5696.08 1788.32l62.4-3.12" color="#000" stroke="#fff" overflow="visible" enable-background="accumulate" fill="none"/><path d="M5844.8 1795.6h39.52" color="#000" stroke="#fff" overflow="visible" enable-background="accumulate" fill="none"/><path d="M5863.52 1820.56l40.56 1.04" color="#000" stroke="#fff" overflow="visible" enable-background="accumulate" fill="none"/><path d="M5913.44 1630.24l100.88 5.2" color="#000" stroke="#fff" overflow="visible" enable-background="accumulate" fill="none"/><path d="M5880.16 1603.2l59.28 2.08" color="#000" stroke="#fff" overflow="visible" enable-background="accumulate" fill="none"/><path d="M5922.8 1556.4l73.84 3.12 38.48 4.16" color="#000" stroke="#fff" overflow="visible" enable-background="accumulate" fill="none"/><path d="M1696.24 1526.24l55.12-5.2h20.8" color="#000" stroke="#fff" overflow="visible" enable-background="accumulate" fill="none"/><path d="M1690 1576.16l99.84-3.12h-1.04" color="#000" stroke="#fff" overflow="visible" enable-background="accumulate" fill="none"/><path d="M1785.68 1555.36l81.12-6.24" color="#000" stroke="#fff" overflow="visible" enable-background="accumulate" fill="none"/><path d="M1859.52 1577.2l56.16-1.04" color="#000" stroke="#fff" overflow="visible" enable-background="accumulate" fill="none"/><path d="M1867.84 1583.44l38.48-1.04" color="#000" stroke="#fff" overflow="visible" enable-background="accumulate" fill="none"/><path d="M1686.88 1579.28l110.24-5.2" color="#000" stroke="#fff" overflow="visible" enable-background="accumulate" fill="none"/><path d="M1773.2 1608.4l73.84-4.16" color="#000" stroke="#fff" overflow="visible" enable-background="accumulate" fill="none"/><path d="M1858.48 1574.08l62.4 1.04v1.04" color="#000" stroke="#fff" overflow="visible" enable-background="accumulate" fill="none"/><path d="M1870.96 1581.36h38.48" color="#000" stroke="#fff" overflow="visible" enable-background="accumulate" fill="none"/><path d="M1772.16 1608.4l73.84-2.08" color="#000" stroke="#fff" overflow="visible" enable-background="accumulate" fill="none"/><path d="M1709.76 1651.04l34.32-3.12" color="#000" stroke="#fff" overflow="visible" enable-background="accumulate" fill="none"/><path d="M1727.44 1669.76l46.8-1.04" color="#000" stroke="#fff" overflow="visible" enable-background="accumulate" fill="none"/><path d="M1842.88 1679.12l64.48-2.08" color="#000" stroke="#fff" overflow="visible" enable-background="accumulate" fill="none"/><path d="M1867.84 1658.32h38.48" color="#000" stroke="#fff" overflow="visible" enable-background="accumulate" fill="none"/><path d="M1773.2 1607.36l66.56-3.12" color="#000" stroke="#fff" overflow="visible" enable-background="accumulate" fill="none"/><path d="M1704.56 1648.96l40.56 1.04 1.04-1.04" color="#000" stroke="#fff" overflow="visible" enable-background="accumulate" fill="none"/><path d="M1727.44 1668.72l39.52-1.04" color="#000" stroke="#fff" overflow="visible" enable-background="accumulate" fill="none"/><path d="M1792.96 1756.08l62.4-3.12" color="#000" stroke="#fff" overflow="visible" enable-background="accumulate" fill="none"/><path d="M1941.68 1763.36h39.52" color="#000" stroke="#fff" overflow="visible" enable-background="accumulate" fill="none"/><path d="M1960.4 1788.32l40.56 1.04" color="#000" stroke="#fff" overflow="visible" enable-background="accumulate" fill="none"/><path d="M2010.32 1598l100.88 5.2" color="#000" stroke="#fff" overflow="visible" enable-background="accumulate" fill="none"/><path d="M1977.04 1570.96l59.28 2.08" color="#000" stroke="#fff" overflow="visible" enable-background="accumulate" fill="none"/><path d="M2019.68 1524.16l73.84 3.12 38.48 4.16" color="#000" stroke="#fff" overflow="visible" enable-background="accumulate" fill="none"/><path d="M1439.532 638.877l23.293 11.647 43.093 16.888 62.31 20.38 59.98 14.56 48.334 5.823 27.37 1.747h47.75l78.034-11.064 47.17-11.065 18.052-8.735 14.558-6.988 5.823-1.747 32.61 15.723 51.246 13.394 32.028 7.57 66.386 4.077 42.51-1.747 46.587-4.66 34.94-6.987 33.776-10.482 46.004-13.975 47.17-17.47 34.94-13.976 1.747-1.748-6.99 218.376 1.166 64.056-3.494 74.54-3.494 50.08-189.84 6.406h-535.167l-189.84 1.164-6.407-34.357-4.658-48.916-5.24-264.38z" color="#000" stroke="#000" stroke-width="6" overflow="visible" enable-background="accumulate" fill="none"/></svg>