<svg xmlns="http://www.w3.org/2000/svg" viewBox="0 0 470 470" enable-background="new 0 0 470 470" width="512" height="512"><g fill="#0db5e6"><path d="M401.17 68.83C356.784 24.444 297.77 0 235 0S113.216 24.444 68.83 68.83C24.444 113.215 0 172.23 0 235c0 62.77 24.444 121.784 68.83 166.17S172.23 470 235 470s121.784-24.444 166.17-68.83S470 297.77 470 235c0-62.77-24.444-121.785-68.83-166.17zM227.5 454.858C109.652 450.888 15 353.798 15 235S109.652 19.11 227.5 15.142v439.716zm15-257.918c17.813 3.504 31.294 19.234 31.294 38.06s-13.48 34.555-31.294 38.06v-76.12zm0 91.32c26.123-3.662 46.294-26.144 46.294-53.26s-20.17-49.598-46.294-53.26v-30.18c42.7 3.807 76.294 39.765 76.294 83.44S285.2 314.633 242.5 318.44v-30.18zm0 45.25c50.985-3.844 91.294-46.558 91.294-98.51s-40.31-94.666-91.294-98.51V98.31c72.01 3.91 129.396 63.72 129.396 136.69S314.51 367.78 242.5 371.69v-38.18zm0 121.348V439.85c46.24-1.7 90.716-19.073 125.965-49.373 3.142-2.7 3.5-7.435.8-10.577-2.7-3.14-7.436-3.5-10.577-.798-32.53 27.962-73.534 44.047-116.188 45.74v-38.13c80.286-3.924 144.396-70.47 144.396-151.712S322.786 87.213 242.5 83.29V45.16C343.802 49.116 425 132.747 425 235c0 45.33-16.3 89.255-45.898 123.688-2.7 3.14-2.343 7.876.8 10.577 1.414 1.217 3.153 1.813 4.884 1.813 2.11 0 4.208-.886 5.69-2.61C422.413 331.313 440 283.914 440 235c0-110.526-87.925-200.886-197.5-204.848v-15.01C360.348 19.112 455 116.202 455 235s-94.652 215.89-212.5 219.858zM67.26 248.7c-7.592 0-13.768-6.175-13.768-13.767v-57.287c0-4.142-3.357-7.5-7.5-7.5s-7.5 3.358-7.5 7.5v57.287c0 13.268 9.03 24.46 21.268 27.77v17.114c-6.664 3.77-12.585 8.917-17.388 15.272-2.497 3.303-1.843 8.007 1.46 10.504 3.305 2.497 8.01 1.843 10.507-1.46 4.196-5.554 9.554-9.845 15.607-12.68.33-.128.65-.273.955-.443 5.198-2.274 10.88-3.488 16.78-3.488 23.026 0 41.76 18.735 41.76 41.763v6.33c0 4.143 3.358 7.5 7.5 7.5h22.314c14.287 0 25.91 11.625 25.91 25.912 0 12.196-8.647 22.86-20.562 25.357-3.475.728-5.962 3.79-5.962 7.34v18.39c0 4.142 3.357 7.5 7.5 7.5s7.5-3.358 7.5-7.5V407.33c15.68-5.91 26.524-21.146 26.524-38.302 0-22.56-18.353-40.91-40.91-40.91H144.43c-.622-30.764-25.84-55.595-56.75-55.595-4.415 0-8.742.503-12.92 1.467v-11.287c12.235-3.308 21.267-14.502 21.267-27.77v-8.768c11.232.27 30.32.063 48.2-.257v2.357c0 4.142 3.358 7.5 7.5 7.5s7.5-3.358 7.5-7.5v-109.19c10.51-5.948 17.272-17.247 17.272-29.566 0-18.716-15.227-33.942-33.942-33.942h-4.663c-4.143 0-7.5 3.358-7.5 7.5s3.357 7.5 7.5 7.5h4.663c10.444 0 18.94 8.497 18.94 18.94 0 7.894-4.97 15.036-12.37 17.772-2.945 1.09-4.9 3.896-4.9 7.035v96.588c-24.91.43-50.294.558-54.097.035-2.17-.474-4.438.034-6.198 1.4-1.833 1.42-2.905 3.608-2.905 5.927v16.67c0 7.59-6.175 13.766-13.767 13.766zM201.53 71.826c1.106.578 2.29.85 3.46.85 2.705 0 5.32-1.468 6.656-4.034 1.915-3.673.49-8.203-3.184-10.117-8.157-4.252-15.27-10.49-20.567-18.04-2.378-3.388-7.056-4.21-10.447-1.83-3.39 2.38-4.21 7.057-1.83 10.448 6.672 9.507 15.632 17.365 25.91 22.723zM113.043 247.41v2.963c0 4.142 3.357 7.5 7.5 7.5s7.5-3.358 7.5-7.5v-2.964c0-4.143-3.357-7.5-7.5-7.5s-7.5 3.357-7.5 7.5z"/></g></svg>