<svg xmlns="http://www.w3.org/2000/svg" viewBox="0 0 463 463" width="512" height="512" enable-background="new 0 0 463 463"><path d="M462.988 319.813c0-.105.012-.208.012-.313 0-.023-.003-.046-.004-.07 0-.17-.013-.34-.026-.51-.006-.084-.01-.167-.02-.25-.015-.146-.04-.292-.066-.44-.018-.104-.033-.21-.056-.314-.025-.113-.057-.225-.087-.338-.035-.135-.07-.27-.112-.4-.028-.087-.063-.173-.094-.26-.056-.152-.113-.303-.18-.45-.01-.024-.016-.048-.027-.072L383 141.876V119h.5c8.547 0 15.5-6.953 15.5-15.5v-1.188c0-7.648-5.48-14.083-13.03-15.302L255 65.875v-13.43c4.97-5.57 8-12.91 8-20.945C263 14.13 248.87 0 231.5 0S200 14.13 200 31.5c0 8.036 3.03 15.375 8 20.946v12.7L76.95 86.988c-7.503 1.25-12.95 7.68-12.95 15.29v1.222c0 8.547 6.953 15.5 15.5 15.5h.5v22.875L.672 316.395c-.01.024-.018.05-.028.072-.065.147-.122.3-.178.45-.032.087-.066.173-.095.26-.042.13-.077.266-.112.4-.03.114-.062.226-.087.34-.02.103-.037.21-.055.314-.025.148-.05.294-.067.44-.01.083-.012.167-.02.25-.012.17-.023.34-.025.51 0 .023-.004.046-.004.07 0 .105.01.208.01.314.005.084.004.17.01.253C.49 350.917 38.736 375 87.5 375s87.01-24.084 87.478-54.932c.007-.084.006-.17.01-.254 0-.105.012-.208.012-.313 0-.022-.003-.045-.004-.07 0-.17-.013-.34-.026-.51-.006-.083-.01-.166-.02-.248-.015-.147-.04-.293-.066-.44-.018-.105-.033-.21-.056-.315-.025-.113-.057-.225-.087-.338-.035-.136-.07-.27-.112-.402-.028-.086-.063-.172-.094-.258-.056-.153-.113-.304-.18-.452-.01-.023-.016-.047-.027-.07L95 141.874V119h113v162.945c-4.765 2.647-8 7.728-8 13.555v110.486l-47.51 14.847c-9.863 3.083-16.49 12.097-16.49 22.43V455.5c0 4.142 3.357 7.5 7.5 7.5h176c4.143 0 7.5-3.358 7.5-7.5v-12.237c0-10.334-6.627-19.348-16.49-22.43L263 405.985V295.5c0-5.827-3.235-10.908-8-13.555V119h113v22.875l-79.328 174.522c-.01.023-.018.048-.028.07-.065.148-.122.3-.178.452-.032.085-.066.17-.095.258-.042.13-.077.266-.112.4-.03.114-.062.226-.087.34-.02.103-.037.21-.055.314-.025.147-.05.293-.067.44-.01.082-.012.166-.02.25-.012.17-.023.34-.025.508 0 .024-.004.047-.004.07 0 .106.01.21.01.315.005.084.004.17.01.253.47 30.848 38.715 54.932 87.48 54.932s87.01-24.084 87.478-54.932c.007-.085.006-.17.01-.255zM87.5 161.625L155.852 312H19.148L87.5 161.625zM87.5 360c-34.728 0-64.692-14.482-71.194-33h142.39c-6.504 18.518-36.468 33-71.196 33zM248 295.5V404h-33V295.5c0-.276.225-.5.5-.5h32c.275 0 .5.224.5.5zM223 280V61.825c2.706.76 5.555 1.175 8.5 1.175s5.794-.415 8.5-1.175V280h-17zm8.5-265c9.098 0 16.5 7.402 16.5 16.5S240.598 48 231.5 48 215 40.598 215 31.5 222.402 15 231.5 15zm-152 89c-.275 0-.5-.224-.5-.5v-1.223c0-.246.176-.453.418-.493L208 80.354V104H79.5zM312 443.263V448H151v-4.737c0-3.738 2.397-7 5.965-8.113l51.68-16.15h45.71l51.68 16.15c3.568 1.115 5.965 4.375 5.965 8.113zM255 81.07l128.58 20.75c.243.038.42.246.42.493v1.188c0 .277-.225.5-.5.5H255V81.07zm120.5 80.555L443.852 312H307.148L375.5 161.625zm0 198.375c-34.728 0-64.692-14.482-71.194-33h142.39c-6.504 18.518-36.468 33-71.196 33z" fill="#0DB5E6"/></svg>