<svg xmlns="http://www.w3.org/2000/svg" viewBox="0 0 463 463" enable-background="new 0 0 463 463" width="512" height="512"><g fill="#0DB5E6"><path d="M71.5 0C32.075 0 0 32.075 0 71.5S32.075 143 71.5 143 143 110.925 143 71.5 110.925 0 71.5 0zm0 128C40.346 128 15 102.654 15 71.5S40.346 15 71.5 15 128 40.346 128 71.5 102.654 128 71.5 128zM71.5 160C32.075 160 0 192.075 0 231.5S32.075 303 71.5 303s71.5-32.075 71.5-71.5S110.925 160 71.5 160zm0 128C40.346 288 15 262.654 15 231.5S40.346 175 71.5 175s56.5 25.346 56.5 56.5S102.654 288 71.5 288zM71.5 320C32.075 320 0 352.075 0 391.5S32.075 463 71.5 463s71.5-32.075 71.5-71.5S110.925 320 71.5 320zm0 128C40.346 448 15 422.654 15 391.5S40.346 335 71.5 335s56.5 25.346 56.5 56.5S102.654 448 71.5 448zM90.196 50.197L63.5 76.894 52.804 66.197c-2.93-2.93-7.678-2.93-10.607 0s-2.93 7.678 0 10.606l16 16C59.66 94.268 61.58 95 63.5 95s3.84-.732 5.304-2.197l32-32c2.93-2.93 2.93-7.678 0-10.606-2.93-2.93-7.678-2.93-10.608 0zM90.196 210.197L63.5 236.894l-10.696-10.697c-2.93-2.93-7.678-2.93-10.607 0s-2.93 7.678 0 10.606l16 16C59.66 254.268 61.58 255 63.5 255s3.84-.732 5.304-2.197l32-32c2.93-2.93 2.93-7.678 0-10.606-2.93-2.93-7.678-2.93-10.608 0zM175.5 55h144c4.143 0 7.5-3.358 7.5-7.5s-3.357-7.5-7.5-7.5h-144c-4.143 0-7.5 3.358-7.5 7.5s3.357 7.5 7.5 7.5zM175.5 103h280c4.143 0 7.5-3.358 7.5-7.5s-3.357-7.5-7.5-7.5h-280c-4.143 0-7.5 3.358-7.5 7.5s3.357 7.5 7.5 7.5zM175.5 215h144c4.143 0 7.5-3.358 7.5-7.5s-3.357-7.5-7.5-7.5h-144c-4.143 0-7.5 3.358-7.5 7.5s3.357 7.5 7.5 7.5zM455.5 248h-280c-4.143 0-7.5 3.358-7.5 7.5s3.357 7.5 7.5 7.5h280c4.143 0 7.5-3.358 7.5-7.5s-3.357-7.5-7.5-7.5zM175.5 375h144c4.143 0 7.5-3.358 7.5-7.5s-3.357-7.5-7.5-7.5h-144c-4.143 0-7.5 3.358-7.5 7.5s3.357 7.5 7.5 7.5zM455.5 408h-280c-4.143 0-7.5 3.358-7.5 7.5s3.357 7.5 7.5 7.5h280c4.143 0 7.5-3.358 7.5-7.5s-3.357-7.5-7.5-7.5z"/></g></svg>