<svg xmlns="http://www.w3.org/2000/svg" viewBox="0 0 512 512" width="512" height="512"><g fill="#0DB5E6"><path d="M344.277 343.424c-.82.708-20.01 17.707-20.01 49.11V435.2c0 4.71 3.813 8.533 8.532 8.533 4.718 0 8.532-3.823 8.532-8.533v-42.667c0-23.33 13.594-35.738 14.566-36.634l59.733-59.734c3.39-3.388 7.613-5.35 11.896-5.52 4.352-.19 8.09 1.38 11.204 4.487 3.106 3.115 4.668 6.99 4.49 11.204-.172 4.284-2.134 8.508-5.522 11.895L395.034 360.9c-3.337 3.337-3.337 8.73 0 12.066 3.336 3.337 8.73 3.337 12.066 0l42.667-42.658c6.426-6.426 10.155-14.694 10.513-23.28.367-8.968-2.995-17.484-9.48-23.96-6.486-6.478-14.892-9.814-23.97-9.482-8.577.358-16.846 4.087-23.263 10.513l-59.29 59.324zM93.867 435.2c2.185 0 4.37-.836 6.033-2.5 3.337-3.337 3.337-8.73 0-12.066l-68.753-68.71c-.572-.503-14.08-12.553-14.08-36.19v-128c0-9.412 7.654-17.067 17.067-17.067 9.412 0 17.067 7.654 17.067 17.067v67.558c0 4.71 3.815 8.533 8.534 8.533s8.533-3.823 8.533-8.533v-67.558c0-18.825-15.31-34.133-34.133-34.133C15.31 153.6 0 168.91 0 187.734v128c0 31.863 19.277 48.495 19.567 48.7L87.834 432.7c1.664 1.664 3.848 2.5 6.033 2.5zM51.72 307.03c.36 8.584 4.088 16.852 10.514 23.27l42.667 42.666c3.338 3.337 8.73 3.337 12.067 0 3.336-3.337 3.336-8.73 0-12.066L74.3 318.225c-3.388-3.38-5.35-7.603-5.52-11.887-.18-4.215 1.38-8.09 4.488-11.204 3.115-3.106 6.878-4.676 11.204-4.488 4.284.17 8.508 2.133 11.895 5.52l60.134 60.11c.573.52 14.166 12.928 14.166 36.258V435.2c0 4.71 3.814 8.533 8.533 8.533s8.532-3.823 8.532-8.533v-42.667c0-31.403-19.19-48.4-19.567-48.7L108.433 284.1c-6.417-6.426-14.686-10.155-23.262-10.513-9.113-.316-17.492 3.004-23.97 9.48-6.484 6.478-9.846 14.994-9.48 23.962zM256 110.933c9.412 0 17.067 7.654 17.067 17.067 0 4.71 3.814 8.533 8.533 8.533 4.72 0 8.533-3.823 8.533-8.533 0-15.855-10.914-29.107-25.6-32.922v-1.212c0-4.71-3.814-8.533-8.533-8.533s-8.533 3.823-8.533 8.533v1.212c-14.686 3.814-25.6 17.067-25.6 32.922 0 18.825 15.31 34.133 34.133 34.133 9.412 0 17.067 7.654 17.067 17.067s-7.654 17.067-17.067 17.067c-9.412 0-17.067-7.654-17.067-17.067 0-4.71-3.814-8.533-8.533-8.533s-8.533 3.823-8.533 8.533c0 15.855 10.914 29.107 25.6 32.922v1.212c0 4.71 3.814 8.533 8.533 8.533s8.533-3.823 8.533-8.533v-1.212c14.686-3.814 25.6-17.067 25.6-32.922 0-18.825-15.31-34.133-34.133-34.133-9.412 0-17.067-7.654-17.067-17.067 0-9.412 7.655-17.067 17.067-17.067zM196.267 460.8H59.733c-4.72 0-8.533 3.823-8.533 8.533v34.133c0 4.71 3.814 8.533 8.533 8.533s8.533-3.824 8.533-8.534v-25.6h119.467v25.6c0 4.71 3.814 8.533 8.533 8.533s8.533-3.824 8.533-8.534v-34.133c0-4.71-3.814-8.533-8.533-8.533zM452.267 460.8H315.733c-4.72 0-8.533 3.823-8.533 8.533v34.133c0 4.71 3.814 8.533 8.533 8.533s8.533-3.824 8.533-8.534v-25.6h119.467v25.6c0 4.71 3.814 8.533 8.533 8.533 4.72 0 8.533-3.824 8.533-8.534v-34.133c0-4.71-3.814-8.533-8.533-8.533zM256 34.133c-65.877 0-119.467 53.59-119.467 119.467S190.123 273.067 256 273.067s119.467-53.59 119.467-119.467S321.877 34.133 256 34.133zM256 256c-56.465 0-102.4-45.935-102.4-102.4S199.535 51.2 256 51.2s102.4 45.935 102.4 102.4S312.465 256 256 256zM477.867 153.6c-18.825 0-34.133 15.31-34.133 34.133v67.558c0 4.71 3.814 8.534 8.533 8.534 4.72 0 8.533-3.823 8.533-8.533v-67.557c0-9.412 7.654-17.067 17.067-17.067s17.067 7.654 17.067 17.067v128c0 23.637-13.508 35.686-14.566 36.634L412.1 420.634c-3.337 3.337-3.337 8.73 0 12.066 1.664 1.664 3.85 2.5 6.033 2.5 2.185 0 4.37-.836 6.033-2.5l67.738-67.78c.82-.69 20.096-17.323 20.096-49.186v-128c0-18.825-15.31-34.134-34.133-34.134zM409.6 153.6C409.6 68.907 340.693 0 256 0S102.4 68.907 102.4 153.6 171.307 307.2 256 307.2s153.6-68.907 153.6-153.6zM256 290.133c-75.28 0-136.533-61.252-136.533-136.533S180.72 17.067 256 17.067 392.533 78.32 392.533 153.6 331.28 290.133 256 290.133z"/></g></svg>