<svg xmlns="http://www.w3.org/2000/svg" viewBox="0 0 470 470" enable-background="new 0 0 470 470" width="512" height="512"><g fill="#0DB5E6"><path d="M202.5 405.883V285.675c0-4.143-3.357-7.5-7.5-7.5h-50c-4.143 0-7.5 3.357-7.5 7.5s3.357 7.5 7.5 7.5h42.5v112.708c-14.315 3.396-25 16.278-25 31.617 0 17.92 14.58 32.5 32.5 32.5s32.5-14.58 32.5-32.5c0-15.34-10.685-28.22-25-31.617zM195 455c-9.65 0-17.5-7.85-17.5-17.5S185.35 420 195 420s17.5 7.85 17.5 17.5S204.65 455 195 455zM282.5 405.883V285.675c0-4.143-3.357-7.5-7.5-7.5h-50c-4.142 0-7.5 3.357-7.5 7.5s3.358 7.5 7.5 7.5h42.5v112.708c-14.315 3.396-25 16.278-25 31.617 0 17.92 14.58 32.5 32.5 32.5s32.5-14.58 32.5-32.5c0-15.34-10.685-28.22-25-31.617zM275 455c-9.65 0-17.5-7.85-17.5-17.5S265.35 420 275 420s17.5 7.85 17.5 17.5S284.65 455 275 455zM410 355c-15.34 0-28.22 10.685-31.617 25H362.5v-94.325c0-4.143-3.357-7.5-7.5-7.5h-50c-4.143 0-7.5 3.357-7.5 7.5s3.357 7.5 7.5 7.5h42.5V387.5c0 4.143 3.357 7.5 7.5 7.5h23.383c3.396 14.315 16.278 25 31.617 25 17.92 0 32.5-14.58 32.5-32.5S427.92 355 410 355zm0 50c-9.65 0-17.5-7.85-17.5-17.5S400.35 370 410 370s17.5 7.85 17.5 17.5S419.65 405 410 405zM452.14 161.557c-10.107-12.55-23.836-21.848-39.112-26.592-1.72-35.503-16.45-68.628-41.84-93.806C344.422 14.616 308.922 0 271.226 0c-49.5 0-95.306 25.812-121.066 67.787-6.264-1.975-12.775-2.972-19.434-2.972-30.637 0-56.983 21.626-63.336 51.105C28.044 126.127 0 161.988 0 203.1c0 49.668 40.406 90.075 90.073 90.075H107.5V380H91.617C88.22 365.685 75.34 355 60 355c-17.92 0-32.5 14.58-32.5 32.5S42.08 420 60 420c15.34 0 28.22-10.685 31.617-25H115c4.143 0 7.5-3.357 7.5-7.5V285.675c0-4.143-3.357-7.5-7.5-7.5H90.073C48.678 278.175 15 244.497 15 203.1c0-35.722 25.395-66.687 60.383-73.626 3.155-.625 5.56-3.193 5.978-6.383 3.23-24.67 24.452-43.274 49.366-43.274 6.854 0 13.5 1.373 19.756 4.08 3.546 1.535 7.675.125 9.543-3.254C182.41 40.152 225.02 15 271.225 15c69.385 0 126.34 56.438 126.967 125.812.03 3.466 2.433 6.458 5.81 7.24 30.027 6.948 51 33.35 51 64.202 0 36.35-29.572 65.92-65.92 65.92H385c-4.143 0-7.5 3.358-7.5 7.5s3.357 7.5 7.5 7.5h4.08c44.62 0 80.92-36.3 80.92-80.92 0-18.395-6.343-36.4-17.86-50.697zM60 405c-9.65 0-17.5-7.85-17.5-17.5S50.35 370 60 370s17.5 7.85 17.5 17.5S69.65 405 60 405zM365.692 148.605h.07c4.14-.038 7.468-3.426 7.43-7.568-.11-12.354-2.443-24.443-6.93-35.93-1.508-3.86-5.856-5.766-9.715-4.26s-5.765 5.857-4.258 9.716c3.82 9.784 5.807 20.083 5.902 30.61.04 4.12 3.39 7.432 7.5 7.432zM338.278 86.756c1.483 1.796 3.626 2.724 5.786 2.724 1.683 0 3.375-.563 4.772-1.718 3.193-2.638 3.644-7.365 1.006-10.56C330.312 53.56 301.657 40 271.227 40c-4.143 0-7.5 3.357-7.5 7.5s3.357 7.5 7.5 7.5c25.94 0 50.38 11.574 67.05 31.756z"/></g></svg>