<svg xmlns="http://www.w3.org/2000/svg" viewBox="0 0 512 512" width="512" height="512"><g fill="#0DB5E6"><path d="M302.48 419.03c-4.206-2.1-9.266-.334-11.365 3.882-1.306 2.603-1.126 5.572.196 7.962-1.45 2.475-1.62 5.615-.178 8.337 1.536 2.885 4.49 4.524 7.543 4.524 1.348 0 2.722-.324 4.002-.998 7.21-3.84 8.235-9.07 8.2-11.844-.076-5.685-4.385-9.857-8.396-11.863zM286.234 158.25c3.217 2.62 3.908 4.157 3.9 3.935-.043 3.345-3.627 8.533-6.34 11.307l-11.18 12.416c-3.148 3.5-2.866 8.892.632 12.05 1.63 1.467 3.678 2.192 5.71 2.192 2.337 0 4.658-.956 6.348-2.825l10.863-12.092c1.126-1.126 11.034-11.366 11.034-23.1 0-5.922-3.327-11.52-10.17-17.1-3.653-2.98-9.03-2.433-12.007 1.21-2.98 3.654-2.433 9.03 1.21 12.008zM208.077 367.522c-9.284-9.916-20.344-25.464-20.344-43.255 0-10.624 3.977-21.666 11.827-32.828 2.714-3.858 1.783-9.174-2.065-11.888-3.857-2.714-9.182-1.792-11.895 2.065-9.907 14.097-14.933 28.442-14.933 42.65 0 23.364 13.568 42.76 24.95 54.92 1.682 1.793 3.96 2.697 6.23 2.697 2.09 0 4.19-.76 5.837-2.304 3.44-3.217 3.618-8.62.393-12.058zM116.77 196.702c-25.335 8.456-39.902 6.886-50.09-5.41L58.4 178.04l36.173-3.004c4.693-.384 8.183-4.514 7.8-9.207-.394-4.694-4.507-8.202-9.217-7.8l-44.937 3.73-11.86-18.98 59.026-10.65c4.634-.836 7.714-5.274 6.878-9.916-.836-4.634-5.24-7.73-9.916-6.878l-65.724 11.86-2.125-3.387c-5.522-9.797-7.434-13.578-7.434-21.41 0-3.107 4.514-6.828 10.564-8.765l187.23-34.04c4.634-.844 7.714-5.29 6.87-9.923s-5.275-7.697-9.925-6.87L24.073 76.938c-.316.06-.623.137-.94.222C9.08 81.407 0 91.306 0 102.4c0 12.126 3.482 18.884 9.83 30.123l42.667 68.267c.18.29.375.572.59.828 10.614 13.167 23.773 17.485 37.128 17.485 10.948 0 22.033-2.9 31.95-6.204 4.47-1.494 6.894-6.324 5.4-10.796-1.494-4.463-6.306-6.904-10.795-5.402zM328.08 77.696c-6.314-3.157-16.844-5.444-28.884-6.263-4.6-.256-8.772 3.226-9.097 7.927-.325 4.702 3.225 8.772 7.926 9.097 10.735.734 18.995 2.79 22.426 4.514 14.097 7.04 37.948 29.543 37.948 69.164 0 37.973-40.56 71.006-40.97 71.34-3.668 2.952-4.266 8.32-1.322 11.988 1.69 2.108 4.164 3.2 6.665 3.2 1.87 0 3.755-.614 5.325-1.87 1.93-1.544 47.37-38.425 47.37-84.658 0-47.95-29.783-75.632-47.387-84.438zM488.866 77.158c-.316-.085-.623-.162-.94-.222L300.195 42.803c-4.66-.82-9.08 2.244-9.924 6.87-.845 4.633 2.236 9.078 6.87 9.923l187.23 34.04c6.05 1.936 10.563 5.657 10.563 8.763 0 7.833-1.91 11.613-7.236 21.076l-2.33 3.72-65.715-11.86c-4.66-.853-9.08 2.244-9.916 6.878-.836 4.642 2.244 9.08 6.878 9.916l59.017 10.65-11.852 18.978-44.937-3.73c-4.692-.4-8.822 3.107-9.215 7.8-.384 4.693 3.106 8.823 7.8 9.207l36.172 2.995-8.277 13.26c-10.18 12.298-24.738 13.868-50.09 5.41-4.49-1.5-9.302.94-10.796 5.403-1.493 4.47.93 9.3 5.402 10.795 9.916 3.302 21 6.204 31.95 6.204 13.354 0 26.512-4.318 37.127-17.485.213-.256.41-.538.59-.828l42.862-68.6c6.153-10.906 9.634-17.664 9.634-29.79 0-11.093-9.08-20.992-23.134-25.242zM235 309.99c-4.37-1.783-9.345.324-11.12 4.685-1.34 3.285-2.014 6.51-2.014 9.59 0 4.797 1.638 9.874 4.872 15.114 1.613 2.61 4.403 4.052 7.27 4.052 1.527 0 3.08-.41 4.47-1.27 4.012-2.484 5.258-7.74 2.783-11.75-2.02-3.278-2.33-5.258-2.33-6.145 0-.853.266-1.946.752-3.166 1.777-4.36-.322-9.335-4.683-11.11zM230.656 119.467c4.72 0 8.533-3.823 8.533-8.533s-3.815-8.533-8.534-8.533h-.085c-4.71 0-8.49 3.824-8.49 8.534s3.866 8.533 8.576 8.533zM264.533 209.8v-69.22c9.344-5.386 17.067-13.91 17.067-29.646 0-12.937-6.06-23.134-17.067-29.995V49.63C274.45 46.09 281.6 36.71 281.6 25.6 281.6 11.486 270.114 0 256 0s-25.6 11.486-25.6 25.6c0 11.11 7.15 20.49 17.067 24.02V73.96c-7.492-1.877-16.085-2.867-25.685-2.867-14.967 0-29.824 2.595-37.862 6.606-17.604 8.806-47.386 36.49-47.386 84.437 0 46.234 43.998 81.963 45.867 83.465l65.068 52.045v61.107l-23.1 27.75c-.802.802-19.567 19.9-19.567 48.7 0 30.874 21.54 41.643 38.853 50.304l1.664.828 2.15 1.075v16.06c0 4.71 3.823 8.533 8.533 8.533s8.533-3.823 8.533-8.533v-8.26c5.828 2.227 11.443 3.738 16.538 3.738 8.483 0 13.313-4.02 15.865-7.39 10.42-13.74-1.237-29.858-10.214-37.58l-26.265-19.696 52.24-52.276c1.162-.99 28.64-24.457 28.64-57.737 0-37.24-26.95-64.623-28.1-65.766l-48.702-48.7zM256 17.068c4.702 0 8.533 3.83 8.533 8.533 0 4.702-3.83 8.533-8.533 8.533-4.702 0-8.533-3.83-8.533-8.533 0-4.702 3.83-8.533 8.533-8.533zm45.167 352.367l-59.733 59.733c-1.75 1.75-2.654 4.173-2.483 6.64.18 2.465 1.418 4.735 3.397 6.22l33.68 25.233c3.082 2.662 9.78 10.726 7.306 13.986-.154.205-.478.63-2.26.63-6.546 0-17.998-5.742-28.11-10.802l-1.68-.845c-18.237-9.115-29.415-15.685-29.415-35.03 0-21.555 14.447-36.506 15.087-37.205l42.146-50.628c1.127-1.126 11.035-11.366 11.035-23.1s-9.907-21.973-11.034-23.1c-.22-.222-.46-.435-.7-.63l-85.332-68.26c-.384-.315-39.467-32.178-39.467-70.143 0-39.62 23.852-62.123 37.95-69.163 4.786-2.397 16.707-4.812 30.233-4.812 10.035 0 42.752 1.638 42.752 22.775 0 11.87-6.647 15.266-22.963 20.702-5 1.673-10.18 3.396-14.984 5.794-5.112 2.56-21.786 11.895-21.786 24.703 0 11.733 9.907 21.973 11.034 23.1L249.602 219c.29.332.572.622.905.912l50.662 50.654c.23.23 23.1 23.45 23.1 53.7-.003 25.225-22.352 44.485-23.103 45.168zm-36.634-31.18v-26.958l2.773 2.227c2.423 2.586 5.76 7.535 5.76 10.743 0 3.345-3.618 8.576-6.554 11.605l-1.98 2.383zM247.467 147.66v45.074l-19.54-19.54c-2.442-2.484-6.06-7.715-6.102-10.685.657-2.126 6.8-6.99 12.39-9.806 3.73-1.87 8.107-3.328 12.75-4.873.16-.058.34-.118.502-.17z"/></g></svg>