<svg xmlns="http://www.w3.org/2000/svg" viewBox="0 0 512 512" width="512" height="512"><g fill="#0DB5E6"><path d="M281.6 34.133h-51.2c-23.526 0-42.667 19.14-42.667 42.667 0 4.71 3.823 8.533 8.533 8.533S204.8 81.51 204.8 76.8c0-14.114 11.486-25.6 25.6-25.6h51.2c14.114 0 25.6 11.486 25.6 25.6 0 4.71 3.823 8.533 8.533 8.533s8.533-3.823 8.533-8.533c0-23.526-19.14-42.667-42.666-42.667zM162.133 85.333c4.71 0 8.533-3.823 8.533-8.533 0-30.703 29.03-59.733 59.733-59.733h51.2c31.265 0 59.732 28.467 59.732 59.733 0 4.71 3.823 8.533 8.533 8.533S358.4 81.51 358.4 76.8c0-40.91-35.89-76.8-76.8-76.8h-51.2c-40.192 0-76.8 36.608-76.8 76.8 0 4.71 3.823 8.533 8.533 8.533zM503.467 366.933c-4.71 0-8.533 3.823-8.533 8.533v93.867c0 14.114-11.486 25.6-25.6 25.6H42.667c-14.114 0-25.6-11.486-25.6-25.6v-93.867c0-4.71-3.823-8.533-8.533-8.533S0 370.756 0 375.467v93.867C0 492.86 19.14 512 42.667 512h426.667C492.86 512 512 492.86 512 469.333v-93.867c0-4.71-3.823-8.533-8.533-8.533zM469.333 102.4H42.667C19.14 102.4 0 121.54 0 145.067v170.667C0 339.26 19.14 358.4 42.667 358.4H230.4c4.71 0 8.533-3.823 8.533-8.533v-76.8h34.133v76.8c0 4.71 3.823 8.533 8.533 8.533H469.33c23.526 0 42.667-19.14 42.667-42.667V145.067c0-23.527-19.14-42.667-42.667-42.667zm25.6 213.333c0 14.114-11.486 25.6-25.6 25.6h-179.2v-68.267c0-9.412-7.654-17.067-17.067-17.067h-34.133c-9.412 0-17.067 7.653-17.067 17.066v68.267h-179.2c-14.114 0-25.6-11.486-25.6-25.6V145.067c0-14.114 11.486-25.6 25.6-25.6h42.667v196.267c0 4.71 3.823 8.533 8.533 8.533 4.71 0 8.533-3.823 8.533-8.533V119.467h307.2v196.267c0 4.71 3.822 8.533 8.532 8.533s8.533-3.823 8.533-8.533V119.467h42.667c14.114 0 25.6 11.486 25.6 25.6v170.666zM264.79 392.533c0-4.71-3.815-8.533-8.534-8.533h-.085c-4.71 0-8.49 3.823-8.49 8.533 0 4.71 3.866 8.533 8.576 8.533 4.72 0 8.533-3.822 8.533-8.533zM230.4 375.467c-4.71 0-8.533 3.823-8.533 8.533v25.6c0 9.412 7.654 17.067 17.067 17.067h34.133c9.412 0 17.067-7.654 17.067-17.067V384c0-4.71-3.823-8.533-8.533-8.533s-8.532 3.823-8.532 8.533v25.6h-34.133V384c-.002-4.71-3.825-8.533-8.535-8.533z"/></g></svg>