<svg xmlns="http://www.w3.org/2000/svg" viewBox="0 0 495.724 495.724" width="512" height="512" enable-background="new 0 0 495.724 495.724"><g fill="#0DB5E6"><path d="M192.142 97.698c0 17.236 5.964 33.168 15.525 45.053l-.022 17.304c-.43.683-2.425 1.987-4.946 2.73l-29.786 7.735c-.05.012-.098.025-.147.04-18.962 5.312-28.883 23.9-28.883 39.518v8.633c0 9.454 8.273 17.145 18.444 17.145l171.067-.02c10.17 0 18.443-7.69 18.443-17.143v-8.633c0-15.62-9.92-34.208-28.883-39.52l-.147-.04-29.785-7.735c-2.52-.743-4.514-2.047-4.946-2.73l-.02-16.198c.024-.03.05-.055.074-.084 10.215-12.208 15.84-28.025 15.84-44.54V87.15c10.19-33.195 3.008-61.974-.678-70.35-.012-.028-.027-.053-.04-.08-.07-.158-.15-.31-.23-.46-.048-.09-.092-.178-.14-.263-.076-.13-.16-.253-.24-.378-.068-.103-.133-.206-.204-.304-.068-.093-.14-.18-.213-.27-.095-.12-.19-.24-.29-.354-.055-.062-.115-.12-.172-.18-.123-.13-.247-.257-.378-.378-.05-.045-.1-.085-.15-.13-.145-.125-.29-.25-.44-.363-.056-.04-.114-.077-.17-.117-.15-.108-.3-.214-.458-.31-.076-.048-.155-.088-.232-.132-.142-.08-.283-.162-.43-.233-.102-.05-.21-.094-.314-.14-.125-.056-.25-.114-.38-.163-.12-.047-.247-.084-.372-.125-.12-.04-.236-.08-.357-.114-.125-.034-.254-.06-.382-.09-.126-.027-.25-.057-.38-.08-.115-.02-.232-.03-.35-.045-.145-.018-.29-.037-.438-.048-.098-.007-.197-.007-.296-.01-.17-.006-.34-.01-.51-.005-.085.003-.17.01-.254.016-.184.01-.368.026-.552.05-.027.004-.053.004-.08.008-7.702 1.1-17.098-1.148-27.046-3.53-17.597-4.213-37.445-8.954-54.834 3.582-16.816 1.446-28.738 15.577-28.738 34.677 0 13.886 6.443 38.687 7.92 44.194v6.674zm95.83-11.82v13.337c0 14.09-5.3 27-13.566 35.933l-.058.06c-7.106 7.652-16.392 12.373-26.4 12.373-21.205 0-39.807-23.308-39.807-49.88v-2.73c0-7.943 3.362-19.558 5.875-26.908 36.21.83 63.533 9.527 73.955 13.384v4.43zm-15.894 74.267c0 7.203 4.674 12.323 10.347 15.444-8.907 7.733-21.333 12.29-34.51 12.29-13.19 0-25.63-4.568-34.54-12.317 5.64-3.125 10.27-8.227 10.27-15.39l.003-3.42c7.393 4.354 15.653 6.828 24.3 6.828 8.488 0 16.68-2.196 24.125-6.353l.005 2.918zm63.76 49.914v8.632c0 .218-.813 1.144-2.443 1.144l-171.067.02c-1.63 0-2.443-.927-2.443-1.145v-8.632c0-9.568 5.885-20.903 17.132-24.093l19.31-5.015c11.89 14.245 31.153 22.91 51.59 22.91 20.432 0 39.69-8.66 51.58-22.902l19.21 4.99c11.248 3.188 17.132 14.523 17.132 24.09zM215.827 28.02c.037 0 .072-.005.108-.005.226-.003.452-.012.678-.034.088-.01.173-.025.26-.036.173-.023.345-.045.516-.08.108-.02.212-.05.318-.075.147-.035.295-.07.44-.113.116-.036.228-.08.342-.12.13-.046.263-.09.393-.144.123-.05.24-.11.36-.166.116-.055.232-.106.346-.167.136-.073.267-.155.398-.235.09-.056.184-.106.274-.167.17-.112.33-.235.49-.36.045-.035.093-.065.138-.102 11.76-9.608 27.022-5.955 43.18-2.085 8.697 2.083 17.628 4.215 26.3 4.248 2.084 7.7 4.133 21.34 1.933 37.587-13.016-4.74-43.54-13.976-83.855-13.976-.023 0-.045.004-.068.004-.168 0-.335.013-.503.025-.103.006-.207.01-.31.02-.132.016-.262.04-.393.06-.134.023-.27.04-.404.07-.08.017-.156.04-.235.06-.178.045-.356.09-.53.145l-.08.03c-.22.073-.436.152-.645.242-.003 0-.006.003-.01.004-.23.1-.456.21-.675.332-.035.02-.068.043-.103.063-.184.105-.366.213-.54.332-.11.075-.214.16-.32.24-.096.07-.194.138-.285.213-.146.12-.284.25-.42.383-.048.045-.098.085-.144.13-.13.132-.253.272-.375.413-.048.055-.1.106-.145.163-.096.116-.184.24-.274.365-.066.09-.135.177-.197.27-.063.096-.12.197-.18.296-.08.133-.16.263-.232.4-.04.076-.076.157-.114.236-.05.102-.1.202-.147.306-.55-3.76-.896-7.218-.896-9.96.004-8.68 4.09-18.81 15.61-18.81zM179.07 426.335l-.146-.04-29.784-7.735c-2.52-.743-4.515-2.047-4.946-2.73l-.02-16.198c.024-.03.05-.056.074-.085 10.214-12.208 15.84-28.025 15.84-44.54v-12.064c10.19-33.194 3.007-61.973-.68-70.35-.01-.025-.024-.047-.035-.072-.076-.168-.16-.332-.248-.494-.04-.074-.078-.15-.12-.223-.086-.15-.18-.292-.276-.434-.055-.082-.107-.165-.163-.243-.088-.12-.182-.236-.277-.352-.073-.09-.144-.182-.22-.268-.088-.1-.183-.192-.275-.287-.09-.09-.176-.184-.27-.27-.095-.09-.196-.17-.296-.254-.097-.08-.19-.164-.29-.24-.116-.09-.238-.17-.358-.25-.09-.06-.174-.125-.265-.18-.146-.092-.3-.174-.45-.256-.07-.037-.14-.08-.21-.114-.174-.087-.353-.163-.533-.237-.054-.023-.107-.05-.162-.07-.185-.07-.374-.132-.565-.19-.056-.016-.11-.036-.167-.052-.175-.05-.354-.087-.534-.124-.078-.016-.155-.036-.233-.05-.15-.025-.303-.042-.456-.06-.113-.012-.226-.028-.34-.036-.12-.008-.24-.01-.36-.012-.152-.004-.304-.01-.456-.004-.09.003-.183.012-.275.018-.18.012-.36.026-.54.05-.027.003-.052.003-.078.007-7.702 1.1-17.098-1.15-27.046-3.53-17.596-4.214-37.444-8.956-54.833 3.58-16.816 1.447-28.738 15.578-28.738 34.678 0 13.887 6.442 38.688 7.92 44.195v6.674c0 17.235 5.964 33.167 15.525 45.052l-.02 17.303c-.432.682-2.426 1.986-4.947 2.73l-29.785 7.734-.147.04C9.92 431.667 0 450.256 0 465.874v8.632c0 9.453 8.273 17.144 18.444 17.144l171.067-.02c10.17 0 18.444-7.69 18.444-17.143v-8.633c0-15.617-9.92-34.206-28.883-39.52zM64.258 350.763c0-7.943 3.36-19.558 5.874-26.907 36.21.83 63.534 9.526 73.956 13.384v17.77c0 14.09-5.298 26.998-13.563 35.93l-.065.07c-7.105 7.647-16.388 12.365-26.393 12.365-21.206 0-39.808-23.31-39.808-49.88v-2.732zm15.504 65.205l.005-3.422c7.393 4.355 15.653 6.83 24.3 6.83 8.49 0 16.682-2.198 24.125-6.355l.004 2.92c0 7.203 4.674 12.323 10.347 15.444-8.906 7.734-21.332 12.292-34.51 12.292-13.19 0-25.628-4.57-34.538-12.318 5.638-3.126 10.27-8.228 10.27-15.39zm-7.82-132.15c.038 0 .073-.006.11-.006.226-.003.45-.012.677-.034.088-.01.174-.025.26-.037.173-.02.345-.044.516-.077.108-.02.212-.05.32-.077.146-.035.293-.07.438-.113.117-.035.23-.08.344-.12.13-.045.263-.09.392-.143.123-.05.24-.11.36-.166.115-.055.232-.106.345-.167.137-.073.268-.155.4-.235.09-.056.183-.107.273-.166.17-.113.33-.236.49-.36.045-.036.093-.066.138-.103 11.76-9.608 27.023-5.955 43.18-2.085 8.698 2.083 17.63 4.215 26.302 4.248 2.083 7.7 4.132 21.34 1.932 37.586-13.016-4.74-43.54-13.976-83.854-13.976-.024 0-.047.003-.07.004-.166 0-.33.013-.492.025-.107.008-.215.01-.322.023-.127.014-.252.037-.378.058-.14.022-.282.042-.42.07-.072.017-.143.038-.214.056-.186.045-.37.09-.55.15-.02.005-.037.013-.055.02-.474.155-.928.35-1.358.587-.02.01-.037.022-.056.033-.2.113-.398.23-.587.36-.1.068-.192.144-.288.216-.105.078-.214.153-.316.237-.14.117-.274.244-.408.37-.05.05-.106.094-.155.144-.13.13-.25.27-.37.408-.05.057-.102.11-.15.168-.095.116-.182.24-.27.363-.068.09-.138.18-.2.273-.064.094-.12.195-.18.292-.08.132-.16.263-.233.4-.04.077-.076.158-.114.237-.05.102-.102.202-.148.306-.55-3.76-.896-7.218-.896-9.96.004-8.68 4.09-18.81 15.61-18.81zm120.014 190.67c0 .217-.814 1.143-2.444 1.143l-171.067.02c-1.63 0-2.443-.926-2.443-1.144v-8.633c0-9.57 5.885-20.904 17.134-24.093l19.31-5.015c11.89 14.245 31.15 22.91 51.587 22.91 20.434 0 39.692-8.66 51.583-22.902l19.21 4.99c11.246 3.19 17.13 14.524 17.13 24.092v8.632zM466.84 426.336l-.147-.04-29.785-7.735c-2.52-.742-4.514-2.046-4.946-2.73l-.02-16.197c.024-.03.05-.056.074-.085 10.214-12.208 15.84-28.025 15.84-44.54v-12.064c10.19-33.194 3.007-61.973-.68-70.35-.01-.026-.025-.05-.036-.075-.074-.166-.157-.325-.242-.483-.043-.08-.083-.16-.128-.24-.082-.14-.17-.275-.26-.41-.06-.09-.117-.18-.18-.267-.08-.11-.167-.215-.252-.32-.08-.102-.16-.205-.247-.3-.075-.086-.156-.166-.235-.247-.102-.105-.203-.212-.31-.31-.08-.074-.162-.14-.243-.21-.114-.096-.226-.194-.344-.284-.095-.073-.195-.138-.294-.207-.11-.076-.217-.154-.33-.224-.125-.08-.255-.147-.384-.218-.092-.05-.182-.104-.275-.15-.155-.078-.314-.145-.474-.212-.073-.03-.144-.065-.22-.094-.17-.066-.344-.12-.52-.174-.07-.02-.138-.047-.21-.066-.165-.046-.335-.082-.505-.117-.086-.02-.172-.04-.258-.056-.146-.025-.295-.04-.443-.06-.117-.013-.233-.03-.35-.038-.12-.008-.24-.01-.358-.012-.152-.004-.304-.01-.457-.004-.094.003-.187.012-.28.018-.18.012-.358.026-.537.05-.026.004-.052.004-.08.007-7.7 1.1-17.097-1.15-27.045-3.53-17.597-4.214-37.445-8.956-54.835 3.58-16.816 1.447-28.74 15.578-28.74 34.678 0 13.887 6.444 38.688 7.922 44.195v6.674c0 17.236 5.964 33.168 15.525 45.053l-.022 17.303c-.43.683-2.424 1.987-4.945 2.73l-29.785 7.735-.147.04c-18.96 5.313-28.882 23.902-28.882 39.52v8.632c0 9.453 8.273 17.144 18.444 17.144l171.067-.02c10.168 0 18.442-7.69 18.442-17.144v-8.633c.002-15.616-9.92-34.205-28.882-39.517zm-114.813-75.573c0-7.943 3.36-19.558 5.874-26.907 36.21.83 63.534 9.526 73.956 13.384V355.01c0 14.09-5.3 27-13.565 35.933l-.057.06c-7.106 7.652-16.392 12.373-26.4 12.373-21.205 0-39.807-23.31-39.807-49.88v-2.733zm15.503 65.205l.004-3.422c7.393 4.355 15.653 6.83 24.3 6.83 8.488 0 16.68-2.198 24.125-6.355l.003 2.92c0 7.203 4.674 12.323 10.347 15.444-8.907 7.734-21.333 12.292-34.51 12.292-13.19 0-25.63-4.57-34.54-12.318 5.64-3.126 10.27-8.228 10.27-15.39zm-7.82-132.15c.037 0 .072-.006.11-.006.225-.003.45-.012.676-.034.088-.01.174-.025.262-.037.172-.02.344-.044.515-.077.108-.02.212-.05.32-.077.146-.035.293-.07.438-.113.117-.035.23-.08.344-.12.13-.045.263-.09.393-.143.122-.05.24-.11.36-.166.115-.055.23-.106.345-.167.136-.073.267-.155.398-.235.09-.056.184-.107.274-.166.17-.113.33-.236.49-.36.045-.036.093-.066.138-.103 11.76-9.608 27.022-5.955 43.18-2.085 8.697 2.083 17.628 4.215 26.3 4.248 2.084 7.7 4.133 21.34 1.933 37.586-13.015-4.74-43.54-13.976-83.854-13.976-.023 0-.046.003-.07.004-.164.002-.327.013-.49.025-.108.007-.216.01-.323.023-.126.014-.25.037-.374.057-.142.022-.285.042-.424.072-.07.015-.14.036-.21.053-.187.046-.374.092-.557.15l-.044.017c-.477.156-.935.353-1.367.592-.015.007-.03.018-.044.026-.206.115-.407.236-.6.368-.097.066-.19.14-.283.212-.107.08-.217.156-.32.24-.14.12-.276.247-.41.375-.05.048-.103.092-.152.14-.13.13-.252.272-.373.412-.048.055-.1.107-.146.164-.097.118-.185.244-.275.368-.064.09-.133.176-.194.268-.064.096-.12.198-.18.298-.08.13-.16.26-.232.395-.04.078-.077.16-.115.24-.05.1-.103.2-.148.305-.55-3.762-.896-7.22-.896-9.962 0-8.68 4.086-18.81 15.604-18.81zm120.014 190.67c0 .217-.814 1.143-2.444 1.143l-171.067.02c-1.63 0-2.443-.926-2.443-1.144v-8.633c0-9.568 5.885-20.903 17.132-24.093l19.31-5.015c11.89 14.245 31.153 22.91 51.59 22.91 20.432 0 39.69-8.66 51.58-22.902l19.21 4.99c11.25 3.19 17.133 14.523 17.133 24.092v8.632zM323.643 113.544c42.674 26.47 68.15 72.212 68.15 122.362 0 4.418 3.583 8 8 8s8-3.582 8-8c0-27.704-7.2-55.004-20.82-78.947-13.205-23.213-32.188-42.927-54.896-57.012-3.755-2.33-8.687-1.172-11.015 2.582-2.33 3.753-1.174 8.685 2.58 11.014zM96.037 243.906c4.418 0 8-3.582 8-8 0-50.153 25.48-95.898 68.16-122.366 3.754-2.33 4.91-7.26 2.582-11.015-2.33-3.755-7.26-4.912-11.016-2.583-22.71 14.084-41.695 33.8-54.902 57.012C95.238 180.9 88.038 208.2 88.038 235.906c0 4.418 3.58 8 8 8zM319.12 370.332c-1.862-4.006-6.618-5.744-10.626-3.882-19.033 8.848-39.415 13.334-60.578 13.334-21.168 0-41.554-4.488-60.59-13.34-4.005-1.865-8.765-.126-10.627 3.88-1.864 4.007-.126 8.765 3.88 10.628 21.165 9.842 43.82 14.832 67.336 14.832 23.51 0 46.162-4.988 67.323-14.826 4.005-1.862 5.743-6.62 3.88-10.626z"/></g></svg>