<svg xmlns="http://www.w3.org/2000/svg" viewBox="-164 42.3 512 512" enable-background="new -164 42.3 512 512"><style type="text/css">.st0{fill:none;stroke:#0DB5E6;stroke-width:15;stroke-miterlimit:10;} .st1{fill:#0DB5E6;} .st2{fill:none;stroke:#0DB5E6;stroke-width:20;stroke-miterlimit:10;}</style><path class="st0" d="M207.4 546.9H-50.8c-26.5 0-48.3-21.7-48.3-48.3V99.8c0-26.5 21.7-48.3 48.3-48.3h258.2c26.5 0 48.3 21.7 48.3 48.3v398.8c0 26.6-21.7 48.3-48.3 48.3z"/><path class="st1" d="M194.5 149.6H-37c-5.8 0-10.5-4.7-10.5-10.5s4.7-10.5 10.5-10.5h231.5c5.8 0 10.5 4.7 10.5 10.5 0 5.7-4.7 10.5-10.5 10.5zM194.5 211.6H-37c-5.8 0-10.5-4.7-10.5-10.5s4.7-10.5 10.5-10.5h231.5c5.8 0 10.5 4.7 10.5 10.5 0 5.7-4.7 10.5-10.5 10.5zM194.5 276.6H-37c-5.8 0-10.5-4.7-10.5-10.5s4.7-10.5 10.5-10.5h231.5c5.8 0 10.5 4.7 10.5 10.5 0 5.7-4.7 10.5-10.5 10.5zM132 340.6H-37c-5.8 0-10.5-4.7-10.5-10.5s4.7-10.5 10.5-10.5h169c5.8 0 10.5 4.7 10.5 10.5 0 5.7-4.7 10.5-10.5 10.5z"/><circle class="st2" cx="164.5" cy="447.4" r="32.2"/></svg>