<svg xmlns="http://www.w3.org/2000/svg" viewBox="0 0 512 512" width="512" height="512"><g fill="#0DB5E6"><path d="M401.067 477.867H280.02c-2.567-7.228-8.25-12.92-15.487-15.497v-44.237c0-4.71-3.814-8.533-8.533-8.533-4.72 0-8.533 3.823-8.533 8.533v44.237c-7.236 2.577-12.92 8.27-15.488 15.497H110.932c-4.72 0-8.533 3.823-8.533 8.533s3.814 8.533 8.533 8.533h121.045C235.51 504.85 244.89 512 256 512c11.11 0 20.49-7.15 24.02-17.067h121.046c4.72 0 8.533-3.823 8.533-8.533s-3.814-8.533-8.533-8.533zM256 494.933c-4.71 0-8.533-3.83-8.533-8.533s3.823-8.533 8.533-8.533c4.71 0 8.533 3.83 8.533 8.533s-3.823 8.533-8.533 8.533zM392.533 172.126V128c0-33.69-17.74-95.923-83.362-101.93-.127-4.03-1.458-7.27-2.943-9.67C297.84 2.843 274.287 0 256 0 104.158 0 102.4 143.616 102.4 145.067c0 4.71 3.814 8.525 8.516 8.525h.01c4.71 0 8.524-3.806 8.54-8.516.018-5.222 1.938-128.01 136.534-128.01 24.132 0 33.8 5.223 35.712 8.312.265.435.99 1.604-.683 4.94-1.324 2.646-1.18 5.787.374 8.304 1.562 2.51 4.3 4.045 7.262 4.045 75.657 0 76.79 81.86 76.8 85.333v51.2c0 4.71 3.814 8.533 8.533 8.533 4.71 0 8.532 3.83 8.532 8.533V230.4c0 4.702-3.823 8.533-8.533 8.533-3.56 0-6.742 2.21-7.997 5.538-.247.675-25.446 67.645-41.77 92.127l-1.4 2.116c-10.223 15.514-24.235 36.753-76.834 36.753s-66.612-21.24-76.835-36.753l-1.4-2.116c-16.323-24.482-41.522-91.452-41.77-92.126-1.254-3.327-4.437-5.537-7.996-5.537-4.71 0-8.534-3.83-8.534-8.533v-34.133c0-2.313.922-4.412 2.423-5.948 3.088 6.954 9.42 13.21 20.052 14.267l29.193 21.897C173.405 243.106 187.555 256 204.8 256h17.067C240.69 256 256 240.69 256 221.867 256 240.69 271.31 256 290.133 256H307.2c17.246 0 31.394-12.894 33.664-29.517l31.19-23.39c3.77-2.825 4.54-8.175 1.706-11.947-2.825-3.772-8.175-4.548-11.947-1.707l-21.75 16.315c-3.252-10.402-12.86-18.022-24.33-18.022H281.6c-14.114 0-25.6 11.486-25.6 25.6 0-14.114-11.486-25.6-25.6-25.6h-34.133c-11.47 0-21.077 7.62-24.33 18.022l-16.28-12.21c6.715-16.23 12.8-40.236 14.523-57.09 26.897-.477 104.713-3.762 139.332-25.37 7.85 30.31 33.058 55.818 34.32 57.08 3.337 3.337 8.73 3.337 12.067 0 3.336-3.336 3.336-8.73 0-12.065-.317-.316-31.634-31.983-31.634-62.234 0-3.83-2.56-7.202-6.255-8.226-3.66-1.016-7.628.546-9.59 3.83-12.425 20.694-93.022 29.996-146.287 29.996-4.72 0-8.533 3.823-8.533 8.533 0 13.857-6.554 41.514-13.508 58.538-2.722-1.638-3.49-4.693-3.558-7.34 0-4.71-3.814-8.532-8.533-8.532-14.113 0-25.6 11.486-25.6 25.6V230.4c0 11.99 8.287 22.076 19.43 24.85 6.23 16.195 26.804 68.42 41.738 90.82l1.348 2.038c10.957 16.614 29.295 44.424 91.085 44.424s80.13-27.81 91.086-44.424l1.348-2.04c14.933-22.4 35.507-74.623 41.737-90.82 11.146-2.772 19.43-12.86 19.43-24.848v-34.133c0-11.128-7.134-20.617-17.067-24.14zm-119.466 41.207c0-4.702 3.823-8.533 8.533-8.533h34.133c4.71 0 8.533 3.83 8.533 8.533v8.533c0 9.412-7.654 17.067-17.067 17.067H290.13c-9.412 0-17.067-7.654-17.067-17.067v-8.533zm-85.334 0c0-4.702 3.823-8.533 8.533-8.533H230.4c4.71 0 8.533 3.83 8.533 8.533v8.533c0 9.412-7.654 17.067-17.067 17.067H204.8c-9.412 0-17.067-7.654-17.067-17.067v-8.533zM298.658 307.226c.01-4.702-3.797-8.533-8.5-8.56-.16 0-15.42-.17-30.344-7.636-2.398-1.195-5.23-1.195-7.63 0-14.924 7.467-30.18 7.637-30.318 7.637-4.72 0-8.533 3.823-8.533 8.533s3.814 8.533 8.533 8.533c.725 0 16.853-.094 34.133-7.646 17.28 7.552 33.407 7.646 34.132 7.646 4.703 0 8.51-3.806 8.526-8.507zM247.467 324.267c-4.72 0-8.533 3.823-8.533 8.533 0 4.71 3.814 8.533 8.533 8.533h17.067c4.72 0 8.533-3.823 8.533-8.533 0-4.71-3.814-8.533-8.533-8.533h-17.067z"/></g></svg>