<svg xmlns="http://www.w3.org/2000/svg" viewBox="0 0 501.164 501.164" enable-background="new 0 0 501.164 501.164" width="512" height="512"><g fill="#0DB5E6"><path d="M482.08 138.808L278.714 51.65c-17.88-7.662-38.397-7.656-56.298.015l-203.32 87.138C7.317 143.85 0 154.946 0 167.76c0 12.807 7.313 23.897 19.085 28.942l24.034 10.3c-.026.25-.04.5-.04.755V321.49c-9.29 3.14-16 11.93-16 22.267 0 5.992 2.26 11.465 5.964 15.62-4.098 4.018-6.82 9.464-7.38 15.635l-5.76 63.342c-.392 4.327 1.063 8.647 3.992 11.855 2.93 3.207 7.1 5.047 11.445 5.047h30.48c4.344 0 8.516-1.84 11.445-5.048 2.93-3.21 4.384-7.53 3.99-11.856L75.5 375.012c-.56-6.17-3.283-11.616-7.38-15.634 3.704-4.155 5.962-9.628 5.962-15.62 0-10.336-6.71-19.128-16-22.267V213.416l41.038 17.588c-.025.248-.038.5-.038.753v57.263c0 23.898 16.364 46.007 46.08 62.255 28.28 15.464 65.72 23.98 105.42 23.98s77.14-8.516 105.42-23.98c29.715-16.248 46.08-38.357 46.08-62.256v-57.264c0-.254-.013-.505-.038-.752l80.024-34.296c11.78-5.048 19.097-16.145 19.097-28.958 0-12.807-7.312-23.897-19.084-28.942zM66.19 440.094c-.15.163-.31.163-.37.163H35.34c-.06 0-.22 0-.368-.163-.15-.163-.134-.322-.13-.382l5.76-63.342c.472-5.195 4.762-9.113 9.98-9.113 5.215 0 9.505 3.918 9.978 9.113l5.758 63.34c.006.062.02.22-.13.384zm-15.61-87.837c-4.686 0-8.5-3.813-8.5-8.5s3.814-8.5 8.5-8.5 8.5 3.813 8.5 8.5-3.812 8.5-8.5 8.5zm336.5-95.237c0 19.394-15.96 38.33-43.792 51.95-3.72 1.82-5.26 6.313-3.44 10.033 1.302 2.66 3.97 4.205 6.743 4.205 1.108 0 2.23-.246 3.293-.766 15.437-7.555 27.805-16.76 36.623-26.993-2.812 15.815-15.945 30.77-37.7 42.665-26.113 14.28-60.996 22.142-98.224 22.142s-72.11-7.863-98.225-22.142c-21.675-11.852-34.795-26.742-37.67-42.495 7.58 8.74 17.81 16.73 30.473 23.656 28.282 15.464 65.722 23.98 105.42 23.98 11.107 0 22.184-.675 32.924-2.007 4.11-.51 7.03-4.256 6.52-8.367-.51-4.11-4.25-7.03-8.366-6.52-10.13 1.257-20.586 1.894-31.077 1.894-37.227 0-72.11-7.863-98.224-22.142-24.682-13.496-38.275-30.93-38.275-49.095v-19.604l108.37 46.445c8.933 3.83 18.525 5.744 28.122 5.744 9.608 0 19.22-1.92 28.175-5.757l108.334-46.43v19.603zm89.078-74.1l-203.32 87.138c-14.145 6.062-30.357 6.067-44.48.015l-155.39-66.597 142.38-24.762c6.403 7.58 19.454 12.542 35.233 12.542 22.52 0 39.5-10.103 39.5-23.5s-16.98-23.5-39.5-23.5c-20.45 0-36.333 8.334-39.076 19.9l-162.208 28.21c-.476.083-.93.212-1.367.377l-22.935-9.83c-6.26-2.68-9.995-8.346-9.995-15.153 0-6.814 3.74-12.486 10.006-15.17l203.32-87.14c7.08-3.032 14.674-4.55 22.267-4.55 7.58 0 15.158 1.513 22.213 4.536l203.364 87.158c6.258 2.682 9.994 8.348 9.994 15.155 0 6.815-3.74 12.486-10.006 15.17zM226.08 167.758c0-2.185 8.425-8.5 24.5-8.5s24.5 6.315 24.5 8.5-8.423 8.5-24.5 8.5-24.5-6.316-24.5-8.5zM306.574 337.083c.56 0 1.127-.063 1.695-.194 5.66-1.31 11.235-2.827 16.572-4.516 3.95-1.25 6.138-5.463 4.89-9.412s-5.463-6.14-9.414-4.89c-4.96 1.57-10.15 2.982-15.425 4.2-4.036.933-6.552 4.96-5.62 8.996.802 3.47 3.888 5.815 7.3 5.815z"/></g></svg>