<svg xmlns="http://www.w3.org/2000/svg" viewBox="0 0 60 60" width="512" height="512" enable-background="new 0 0 60 60"><g fill="#16b6e8"><path d="M19 45c2.206 0 4-1.794 4-4s-1.794-4-4-4-4 1.794-4 4 1.794 4 4 4zm0-6c1.103 0 2 .897 2 2s-.897 2-2 2-2-.897-2-2 .897-2 2-2zM44 12c-2.206 0-4 1.794-4 4s1.794 4 4 4 4-1.794 4-4-1.794-4-4-4zm0 6c-1.103 0-2-.897-2-2s.897-2 2-2 2 .897 2 2-.897 2-2 2zM19 49c4.41 0 8-3.59 8-8s-3.59-8-8-8-8 3.59-8 8 3.59 8 8 8zm0-14c3.31 0 6 2.69 6 6s-2.69 6-6 6-6-2.69-6-6 2.69-6 6-6zM59.187 36.913c.12-.507.227-1.018.32-1.534l.017-.08v-.02c.307-1.716.476-3.478.476-5.28 0-4.126-.838-8.06-2.35-11.64-.007-.016-.007-.034-.014-.05-1.16-2.74-2.74-5.284-4.643-7.55-1.12-1.337-2.354-2.573-3.686-3.696-2.284-1.93-4.85-3.528-7.617-4.7-.015-.006-.032-.006-.048-.01C38.062.837 34.126 0 30 0c-1.738 0-3.44.157-5.098.442h-.008c-.028.005-.056.01-.085.017-.406.07-.81.147-1.208.234l-.067.016c-1.597.352-3.145.833-4.636 1.43-.138.054-.277.105-.413.162-.224.093-.443.194-.664.292-.216.096-.432.19-.646.292-.174.083-.346.17-.518.256l-.145.07c-.013.007-.028.007-.042.014-.06.03-.117.064-.177.095-.14.073-.278.148-.417.222-.124.066-.246.133-.368.2-.142.08-.286.155-.427.236-.167.096-.33.197-.495.296l-.256.156c-.348.213-.69.434-1.03.66l-.105.07c-.18.12-.357.24-.532.364l-.07.05c-.372.267-.74.542-1.1.825l-.035.025-.006.007C9.813 7.725 8.295 9.192 6.94 10.82c-.02.02-.028.046-.043.07C2.59 16.08 0 22.743 0 30c0 2.995.447 5.887 1.268 8.618.002.007 0 .015 0 .022.01.032.023.062.032.094.166.544.344 1.083.54 1.613.07.19.148.373.22.56.122.31.244.62.375.923.134.313.276.62.42.927.068.143.135.286.205.427 2.928 6.002 7.763 10.836 13.766 13.762.134.066.27.13.405.194.314.147.628.292.947.428.29.125.584.24.88.356.2.08.398.164.602.238.524.193 1.058.37 1.596.534.035.01.068.024.104.035.012.005.025.003.037.006C24.124 59.556 27.01 60 30 60c4.995 0 9.705-1.234 13.852-3.402.027-.01.055-.017.082-.03.073-.04.14-.083.214-.12.243-.132.48-.27.72-.407.224-.127.45-.25.67-.385.423-.256.838-.523 1.246-.8.175-.118.343-.245.515-.367.27-.193.542-.386.807-.588.15-.114.295-.23.442-.347.294-.232.584-.47.87-.712.107-.09.213-.182.318-.275.348-.304.688-.617 1.02-.937l.12-.113c.48-.468.95-.95 1.4-1.448.016-.015.038-.02.052-.038 2.222-2.476 3.994-5.268 5.285-8.31.047-.11.09-.223.134-.333.107-.262.217-.522.318-.788.004-.01.002-.022.005-.032.435-1.152.8-2.338 1.09-3.552.01-.034.016-.07.024-.103zM49.04 50.505c-.25.233-.507.46-.766.683-.098.085-.195.172-.295.256-.204.172-.413.337-.622.502-.16.127-.318.255-.48.378-.16.12-.324.238-.487.356-.15.11-.303.22-.457.326.215-.96.125-1.974-.283-2.91-.65-1.49-1.998-2.526-3.604-2.773L41 47.16v-1.776l.994-.19c1.597-.308 2.905-1.395 3.5-2.908.593-1.513.374-3.2-.588-4.51l-.626-.854 1.257-1.258 1.28.87c1.317.89 2.98 1.06 4.45.45 1.468-.607 2.525-1.903 2.825-3.465l.292-1.52h1.777l.162 1.046c.14.915.53 1.74 1.137 2.414-.245 1.23-.578 2.436-.984 3.613-.322-.05-.648-.073-.976-.073-3.584 0-6.5 2.916-6.5 6.5 0 1.386.44 2.705 1.242 3.808-.355.373-.717.74-1.093 1.092l-.11.105zm6.286-8.6C54.334 44 53.08 45.967 51.61 47.76c-.397-.68-.61-1.454-.61-2.26 0-2.48 2.02-4.5 4.5-4.5.076 0 .15.002.226.006-.113.262-.225.524-.345.782-.017.04-.036.077-.054.116zM44 28c-6.617 0-12-5.383-12-12 0-5.526 3.843-10.378 9.184-11.662 1.948.852 3.782 1.917 5.47 3.17.033.024.067.047.1.072.275.206.542.42.81.636.085.07.174.136.26.206.2.166.393.34.588.51.142.124.287.244.427.372.073.068.144.14.218.208.508.473.998.963 1.47 1.472.055.06.112.115.167.175.132.144.258.296.387.444.166.19.335.377.496.572.073.088.142.18.214.27.213.264.425.528.628.8.028.036.054.075.082.113 1.25 1.684 2.31 3.515 3.162 5.46C54.377 24.157 49.526 28 44 28zM23.228 2.834c-.157.745-.097 1.53.193 2.268.5 1.274 1.603 2.19 2.948 2.45l.632.12v1.086l-.667.102c-1.353.208-2.488 1.08-3.036 2.336-.548 1.256-.417 2.683.352 3.816l.36.534-.768.767-.177-.13c-1.13-.828-2.575-1.003-3.87-.467-1.292.536-2.192 1.683-2.404 3.065l-.033.22h-1.085l-.122-.632c-.258-1.346-1.174-2.447-2.45-2.948-1.274-.5-2.694-.314-3.798.494l-.544.4-.768-.767.36-.534c.678-1 .852-2.21.51-3.342.1-.114.198-.23.3-.344.254-.285.517-.562.783-.835.275-.282.557-.558.843-.83.133-.124.27-.246.404-.368C11.764 11.42 13.693 13 16 13c2.757 0 5-2.243 5-5 0-1.527-.693-2.904-1.807-3.827.612-.256 1.235-.488 1.865-.7l.194-.066c.65-.214 1.31-.407 1.976-.573zM13.01 7.772c.08-.062.158-.127.24-.188.402-.3.817-.584 1.235-.864.202-.135.4-.275.606-.404l.08-.05c.422-.265.857-.51 1.293-.75.19-.106.378-.22.57-.32C18.21 5.622 19 6.73 19 8c0 1.654-1.346 3-3 3s-3-1.346-3-3c0-.075.004-.15.01-.228zm.107 18.344c.03-.01.06-.005.088-.017.035-.015.06-.043.092-.06C15.072 25.37 16.994 25 19 25c8.822 0 16 7.178 16 16 0 2.292-.488 4.472-1.354 6.45-.01.016-.025.027-.033.045-.01.022-.007.046-.015.068-2.117 4.732-6.467 8.26-11.88 9.186l-.01-.003c-.492-.152-.976-.322-1.457-.5-.224-.083-.445-.175-.667-.264-.23-.092-.46-.186-.686-.283-.297-.13-.593-.262-.885-.4l-.32-.157c-5.57-2.738-10.103-7.27-12.84-12.84l-.15-.314c-.14-.294-.274-.59-.404-.89-.098-.227-.19-.456-.283-.686-.09-.22-.18-.442-.263-.666-.178-.482-.348-.968-.5-1.462l-.002-.005c.97-5.668 4.794-10.172 9.867-12.164zm12.605 31.557c4.076-1.622 7.352-4.644 9.3-8.458l1.57.698c.134.06.272.087.408.087.383 0 .75-.222.915-.594.224-.505-.003-1.096-.508-1.32l-1.564-.695C36.59 45.403 37 43.248 37 41c0-1.948-.32-3.82-.896-5.58l1.258-.488c.515-.2.77-.78.57-1.294-.2-.515-.777-.772-1.294-.57l-1.267.493c-1.683-3.69-4.57-6.71-8.164-8.56l.708-1.594c.224-.505-.003-1.096-.508-1.32-.505-.223-1.095.004-1.32.508l-.71 1.595C23.393 23.432 21.25 23 19 23c-1.948 0-3.82.322-5.58.89l-.488-1.252c-.2-.515-.78-.77-1.294-.57-.515.2-.77.78-.57 1.295l.484 1.244c-4.174 1.887-7.495 5.325-9.225 9.672C2.112 32.882 2 31.453 2 30c0-5.098 1.376-9.878 3.767-14 .048.138.116.27.225.377l1.958 1.957c.35.35.9.392 1.298.1l1.236-.906c.557-.408 1.243-.498 1.886-.245.642.252 1.085.785 1.216 1.464l.278 1.443c.09.47.503.81.982.81h2.77c.493 0 .912-.36.987-.848l.164-1.065c.105-.688.552-1.256 1.194-1.52.643-.27 1.36-.18 1.922.23l.87.637c.397.292.948.25 1.297-.1l1.957-1.957c.34-.34.39-.87.12-1.268l-.824-1.22c-.387-.57-.45-1.262-.175-1.895.276-.632.825-1.055 1.507-1.16l1.515-.232c.49-.075.85-.495.85-.988v-2.77c0-.48-.34-.892-.812-.982l-1.443-.277c-.678-.13-1.21-.573-1.463-1.216-.252-.642-.163-1.33.244-1.885l.105-.142C27.056 2.12 28.515 2 30 2c2.876 0 5.65.437 8.265 1.246-1.25.565-2.402 1.3-3.42 2.185l-.744-.744c-.39-.39-1.022-.39-1.413 0s-.39 1.023 0 1.414l.752.752c-1.94 2.24-3.174 5.08-3.396 8.147H29c-.552 0-1 .446-1 1s.448 1 1 1h1.05c.222 3.107 1.456 5.933 3.382 8.153l-.745.745c-.39.39-.39 1.023 0 1.414.195.195.45.293.707.293s.512-.098.707-.293l.746-.745c2.22 1.926 5.047 3.16 8.154 3.38V31c0 .553.448 1 1 1s1-.447 1-1v-1.044c3.068-.222 5.907-1.457 8.147-3.395l.752.753c.194.195.45.293.706.293s.512-.098.707-.293c.39-.39.39-1.023 0-1.414l-.745-.746c.885-1.017 1.62-2.17 2.186-3.42C57.564 24.35 58 27.125 58 30c0 .258-.013.513-.02.77-.107-.445-.496-.77-.96-.77h-3.462c-.48 0-.892.34-.982.812l-.448 2.33c-.176.913-.77 1.64-1.627 1.996-.856.355-1.79.262-2.56-.26l-1.965-1.333c-.396-.27-.93-.217-1.268.12l-2.447 2.45c-.35.348-.39.9-.1 1.298l1.133 1.545c.554.755.68 1.726.338 2.597s-1.094 1.497-2.013 1.674l-1.805.346c-.472.09-.812.502-.812.982v3.462c0 .493.36.913.848.988l1.894.29c.925.144 1.7.74 2.076 1.6.374.856.284 1.832-.24 2.607l-1.026 1.513C38.772 56.92 34.512 58 30 58c-1.454 0-2.883-.112-4.278-.327z"/></g></svg>