<svg xmlns="http://www.w3.org/2000/svg" viewBox="0 0 448.721 448.721" width="512" height="512" enable-background="new 0 0 448.721 448.721"><path d="M396.123 340.947c-2.932-2.93-7.68-2.93-10.607 0l-26.794 26.794V261.4c0-4.142-3.357-7.5-7.5-7.5s-7.5 3.358-7.5 7.5v106.344l-26.794-26.794c-2.93-2.928-7.677-2.93-10.607 0-2.928 2.93-2.928 7.677 0 10.606l39.6 39.598c1.406 1.406 3.313 2.197 5.303 2.197s3.896-.79 5.304-2.198l39.598-39.598c2.926-2.93 2.926-7.678-.002-10.607zM422.264 256.92c3.747-10.416 5.646-21.336 5.646-32.534 0-22.035-7.638-43.57-21.507-60.64-12.393-15.254-29.267-26.403-48-31.824C356.25 74.03 308.48 27.596 250.07 27.596c-24.724 0-48.91 8.545-68.102 24.06-16.483 13.326-28.75 31.303-35.166 51.317-8.633-3.45-17.903-5.247-27.252-5.247-40.306 0-73.13 32.647-73.418 72.887C18.328 183.218 0 211.303 0 242.136c0 43.28 35.21 78.49 78.49 78.49h135.738c4.142 0 7.5-3.358 7.5-7.5 0-4.142-3.358-7.5-7.5-7.5H78.49c-35.008 0-63.49-28.48-63.49-63.49 0-26.424 16.637-50.35 41.4-59.538 3.116-1.156 5.1-4.228 4.873-7.544-.095-1.38-.143-2.695-.143-3.907 0-32.213 26.207-58.42 58.42-58.42 9.958 0 19.798 2.56 28.458 7.406 2.064 1.155 4.552 1.268 6.712.306 2.16-.963 3.74-2.887 4.264-5.194 4.604-20.308 16.116-38.748 32.415-51.924 16.53-13.365 37.367-20.725 58.67-20.725 51.506 0 93.41 41.904 93.41 93.41 0 .33-.008.66-.016.99l-.013.63c-.06 3.566 2.397 6.682 5.878 7.453 17.757 3.932 33.892 13.92 45.434 28.126 11.703 14.404 18.148 32.58 18.148 51.182 0 7.345-.988 14.54-2.9 21.508-16.356-12.4-36.727-19.77-58.79-19.77-53.76 0-97.5 43.737-97.5 97.5 0 53.76 43.74 97.5 97.5 97.5 53.763 0 97.5-43.74 97.5-97.5 0-25.782-10.06-49.252-26.456-66.705zM351.22 406.124c-45.49 0-82.5-37.01-82.5-82.5s37.01-82.5 82.5-82.5c45.492 0 82.5 37.01 82.5 82.5s-37.008 82.5-82.5 82.5z" fill="#16b6e8"/><g fill="#16b6e8"><path d="M241.773 306.89c.41.27-.41-.27 0 0zM241.773 306.89c-2.673-1.763-6.246-1.648-8.777.324-2.407 1.876-3.458 5.165-2.562 8.087.94 3.064 3.787 5.243 6.994 5.324 3.064.077 5.93-1.803 7.104-4.625 1.356-3.257.196-7.166-2.76-9.11z"/></g></svg>