<svg xmlns="http://www.w3.org/2000/svg" viewBox="0 0 290.142 290.142" width="512" height="512" enable-background="new 0 0 290.142 290.142"><path d="M145.07.07c-52.406 0-94.997 42.594-94.997 95 0 50.732 39.91 92.263 90.002 94.868l-.004.133v50c-.002.17.004.336.02.503-9.775 1.998-17.52 9.747-19.517 19.52-.167-.015-.334-.023-.502-.022h-115C2.31 260.033.04 262.24 0 265c-.04 2.76 2.168 5.032 4.93 5.07.046.002.093.002.14 0h115c.168.004.335-.002.502-.017 2.327 11.383 12.455 20.018 24.498 20.018 12.045 0 22.174-8.637 24.498-20.022.167.016.334.024.502.023h115c2.76.04 5.032-2.167 5.07-4.928.04-2.76-2.167-5.032-4.928-5.07-.047-.002-.094-.002-.14 0h-115c-.17-.004-.336.002-.503.017-2-9.775-9.748-17.52-19.522-19.517.016-.167.024-.334.023-.502v-50c0-.043 0-.088-.003-.132 50.09-2.605 90.004-44.136 90.004-94.867 0-52.406-42.59-95-95-95zm0 10c1.768 0 3.52.06 5.26.167 5.822 5.85 11.1 14.408 15.302 24.857-3.554 2.308-6.246 5.834-7.47 9.977h-36.31c4.617-15 11.178-27.263 18.766-34.884 1.475-.075 2.96-.115 4.453-.115zm-19.09 2.148c-6.23 8.96-11.184 20.177-14.735 32.854h-34.93c11.86-16.295 29.36-28.208 49.666-32.854zm39.035.205c19.943 4.782 37.12 16.583 48.814 32.648h-21.423c-2.183-7.396-9.053-12.856-17.12-12.856l-.038.002c-2.888-7.367-6.295-14.04-10.235-19.793zm10.27 29.79c4.4 0 7.856 3.46 7.856 7.858s-3.456 7.856-7.854 7.856-7.857-3.457-7.857-7.855 3.458-7.856 7.856-7.856zM70.036 55.072H108.8c-1.542 7.29-2.66 14.947-3.336 22.85-5.856 1.688-10.504 6.31-12.23 12.15h-33.01c.73-12.605 4.192-24.465 9.81-35zm49.13 0h38.998c2.084 7.06 8.442 12.332 16.03 12.8 1.056 7.132 1.708 14.576 1.913 22.2H127.48c-1.7-5.758-6.238-10.337-11.976-12.085.734-7.993 1.98-15.688 3.66-22.914zm73.242 0h27.703c5.618 10.534 9.082 22.395 9.81 35h-43.81c-.214-8.387-.935-16.58-2.13-24.437 4.026-2.27 7.096-6.054 8.427-10.562zm-82.05 32.144c4.4 0 7.856 3.46 7.856 7.857s-3.457 7.856-7.855 7.856h-.002c-4.398 0-7.855-3.458-7.855-7.855 0-4.288 3.293-7.674 7.534-7.84h.322v-.016zM60.223 100.07h33.012c1.724 5.84 6.373 10.46 12.23 12.15.673 7.902 1.79 15.56 3.333 22.85H70.03c-5.618-10.535-9.08-22.395-9.808-35zm67.255 0h48.626c-.203 7.623-.853 15.067-1.908 22.2-7.59.467-13.95 5.74-16.035 12.8h-39c-1.68-7.228-2.928-14.92-3.66-22.915 5.74-1.747 10.277-6.327 11.976-12.086zm58.632 0h43.81c-.73 12.604-4.193 24.465-9.812 35h-27.703c-1.33-4.51-4.402-8.29-8.43-10.562 1.197-7.857 1.923-16.05 2.135-24.44zm-10.826 32.144c4.4 0 7.855 3.46 7.855 7.857 0 4.4-3.456 7.856-7.854 7.856s-7.857-3.457-7.857-7.855 3.458-7.856 7.856-7.856zm-98.97 12.855h34.927c3.55 12.675 8.498 23.89 14.73 32.85-20.304-4.647-37.8-16.56-49.658-32.85zm45.535 0h36.313c1.223 4.143 3.916 7.672 7.473 9.98-4.2 10.444-9.475 19-15.293 24.85-1.744.107-3.5.17-5.27.17-1.498 0-2.986-.042-4.464-.118-7.586-7.622-14.144-19.884-18.76-34.883zm70.557 0h21.422c-11.693 16.062-28.868 27.863-48.808 32.645 3.94-5.752 7.346-12.425 10.232-19.79h.03c8.07.002 14.94-5.46 17.123-12.856zm-47.336 105c8.344 0 15 6.658 15 15s-6.656 15-15 15-15-6.656-15-15 6.658-15 15-15zm0 2.5c-6.873 0-12.5 5.625-12.5 12.5-.02 1.38 1.085 2.515 2.466 2.534 1.38.02 2.516-1.084 2.535-2.465v-.072c0-4.172 3.33-7.5 7.5-7.5 1.382.02 2.517-1.084 2.536-2.465.02-1.38-1.084-2.516-2.465-2.535h-.07z" fill="#16b6e8"/></svg>