<svg xmlns="http://www.w3.org/2000/svg" width="978" height="1173" viewBox="0 0 157832 189274" shape-rendering="geometricPrecision" text-rendering="geometricPrecision" image-rendering="optimizeQuality" fill-rule="evenodd" clip-rule="evenodd"><defs><style type="text/css"><![CDATA[
    .fil0 {fill:#16B6E8}
   ]]></style></defs><g id="_971754672"><path class="fil0" d="M57825 103908V74126c0-1275-657-2472-1699-3168-2820-1892-4520-5021-4520-8420V31636c0-13249 10777-23988 23988-23988h6644c13249 0 23987 10777 23987 23988v30902c0 3399-1699 6528-4519 8421-1082 695-1700 1892-1700 3167v29782c0 2008 1121 3785 2897 4674 3902 1892 24374 12245 43224 27734 2588 2125 4056 5254 4056 8614v21168c0 2124 1700 3824 3825 3824 2124 0 3824-1700 3824-3824v-21168c0-5639-2511-10932-6837-14524-17885-14678-37121-24876-43340-28005V76019c3940-3361 6219-8266 6219-13481V31636C113874 14176 99659 0 82238 0h-6644C58134 0 43958 14215 43958 31636v30902c0 5215 2279 10120 6219 13481v26382c-6219 3129-25455 13327-43340 28005C2472 133960 0 139252 0 144930v21168c0 2124 1700 3824 3824 3824 2125 0 3824-1700 3824-3824v-21168c0-3360 1468-6489 4056-8614 18850-15489 39323-25803 43224-27734 1777-889 2897-2666 2897-4674zM101204 147634l-32409 32408-12167-12167c-1507-1507-3902-1507-5408 0-1507 1506-1507 3901 0 5408l14871 14871c734 734 1739 1120 2704 1120 966 0 1970-386 2704-1120l35113-35112c1506-1507 1506-3901 0-5408-1507-1468-3902-1468-5408 0z"/></g></svg>