<svg xmlns="http://www.w3.org/2000/svg" width="1173" height="1173" viewBox="0 0 64975 64975" shape-rendering="geometricPrecision" text-rendering="geometricPrecision" image-rendering="optimizeQuality" fill-rule="evenodd" clip-rule="evenodd"><defs><style type="text/css"><![CDATA[
    .fil0 {fill:#16B6E8}
   ]]></style></defs><g id="_975592768"><path class="fil0" d="M61726 0H3249C1408 0 0 1408 0 3249v49814c0 650 433 1083 1083 1083h21658v8663h-3248v2166h25990v-2166h-3249v-8663h21658c650 0 1083-433 1083-1083V3249c0-1841-1408-3249-3249-3249zM2166 3249c0-650 433-1083 1083-1083h58477c650 0 1083 433 1083 1083v38985h-3248V6497c0-649-434-1082-1083-1082H6497c-649 0-1082 433-1082 1082v35737H2166V3249zm11912 15161h8663v-2166h-8663v-2166h21658v6497H14078v-2165zm28156 9746v-2166c0-2382-1949-4332-4332-4332v-4331h12995v19492H37902v-4331c2383 0 4332-1950 4332-4332zm-4332 2166v-6498c1191 0 2166 975 2166 2166v2166c0 1191-975 2166-2166 2166zm-23824-7581h21658v19493H14078V22741zm23824 16244h14078c650 0 1083-433 1083-1083V16244c0-650-433-1083-1083-1083H37902v-2166c0-650-433-1083-1083-1083H12995c-650 0-1083 433-1083 1083v29239H7580V7580h49815v34654H37902v-3249zm2166 23824H24907v-8663h15161v8663zm22741-10829H2166v-7580h60643v7580zM17327 24907h2166v2166h-2166zM21658 24907h2166v2166h-2166zM25990 24907h2166v2166h-2166zM30322 24907h2166v2166h-2166zM17327 29239h2166v2166h-2166zM21658 29239h2166v2166h-2166zM25990 29239h2166v2166h-2166zM30322 29239h2166v2166h-2166zM17327 33570h2166v2166h-2166zM21658 33570h2166v2166h-2166zM25990 33570h2166v2166h-2166zM30322 33570h2166v2166h-2166zM17327 37902h2166v2166h-2166zM21658 37902h2166v2166h-2166zM25990 37902h2166v2166h-2166zM30322 37902h2166v2166h-2166zM24907 16244h4332v2166h-4332zM46566 23824h2165v-3249c0-649-433-1082-1083-1082h-3248v2165h2166v2166zM48731 33570v-3248h-2165v2166h-2166v2165h3248c650 0 1083-433 1083-1083z"/></g></svg>