<svg xmlns="http://www.w3.org/2000/svg" width="823" height="823" viewBox="0 0 28799 28805" shape-rendering="geometricPrecision" text-rendering="geometricPrecision" image-rendering="optimizeQuality" fill-rule="evenodd" clip-rule="evenodd"><defs><style type="text/css"><![CDATA[
    .fil0 {fill:#16B6E8}
   ]]></style></defs><g id="_895358976"><path class="fil0" d="M18631 6094c-3458-3458-9085-3458-12543 0-1675 1675-2598 3902-2598 6272 0 2369 923 4596 2598 6271 1729 1729 4000 2594 6272 2594 2271 0 4542-865 6271-2594 3458-3458 3458-9085 0-12543zm-644 11898c-3103 3103-8152 3103-11254 0-1503-1502-2331-3501-2331-5626 0-2126 828-4124 2331-5627 1551-1552 3589-2328 5627-2328s4075 776 5627 2328c3102 3102 3102 8151 0 11253zM22093 8301c-97-232-364-342-596-245s-342 364-245 596c490 1174 739 2423 739 3714 0 251 204 455 455 455 252 0 456-204 456-455 0-1412-272-2780-809-4065zM20963 6268c-342-480-728-937-1149-1357-1991-1991-4638-3088-7454-3088-252 0-456 204-456 456 0 251 204 455 456 455 2572 0 4991 1002 6810 2821 384 385 738 802 1050 1242 89 125 230 191 372 191 92 0 184-27 264-84 205-146 253-431 107-636zM28666 25964l-3438-3437c-178-178-466-178-644 0l-709 709-2456-2455c2135-2295 3306-5265 3306-8415 0-3303-1286-6409-3622-8744C18768 1286 15663 0 12360 0S5952 1286 3616 3622c-4821 4821-4821 12666 0 17487 2335 2336 5441 3622 8744 3622 3150 0 6120-1171 8415-3306l2455 2456-709 709c-178 178-178 466 0 644l3438 3437c89 89 205 134 322 134 116 0 233-45 322-134l2063-2062c177-178 177-467 0-645zm-8207-5499c-2163 2163-5040 3355-8099 3355-3060 0-5936-1192-8100-3355-4465-4466-4465-11733 0-16199C6424 2103 9300 911 12360 911c3059 0 5936 1192 8099 3355 2163 2164 3355 5040 3355 8100 0 3059-1192 5935-3355 8099zm5822 7240l-2793-2793 708-709h1s0-1 1-1l708-708 2793 2793-1418 1418zM18621 14826h-516V7747c0-251-204-455-456-455h-2188c-251 0-455 204-455 455v7079h-1277V9935c0-252-204-456-455-456h-2188c-251 0-456 204-456 456v4891H9355V9206c0-252-205-456-456-456H6711c-251 0-456 204-456 456v5620h-516c-252 0-456 204-456 456s204 456 456 456h12882c252 0 456-204 456-456s-204-456-456-456zm-10178 0H7167V9661h1276v5165zm4375 0h-1276v-4435h1276v4435zm4375 0h-1276V8203h1276v6623z"/></g></svg>