<svg xmlns="http://www.w3.org/2000/svg" width="823" height="810" viewBox="0 0 44839 44124" shape-rendering="geometricPrecision" text-rendering="geometricPrecision" image-rendering="optimizeQuality" fill-rule="evenodd" clip-rule="evenodd"><defs><style type="text/css"><![CDATA[
    .fil0 {fill:#16B6E8}
   ]]></style></defs><g id="_895358048"><path class="fil0" d="M22606 14276c62 447 445 770 884 770 41 0 82-3 124-8 2665-370 5277-999 7764-1869 465-163 711-672 548-1138-163-465-673-711-1138-548-2376 831-4872 1432-7420 1785-488 68-829 519-762 1008zM34121 12003c123 0 249-26 369-81 683-310 1361-644 2015-992 435-232 600-773 369-1208-232-436-773-601-1209-369-620 331-1264 648-1914 943-449 204-648 733-444 1183 150 329 474 524 814 524zM41735 0c-1676 0-3046 1336-3101 2999-4469 3841-9335 5532-12662 6274-3708 827-6371 691-6396 690h-26c-9 0-17-1-25-1H6788c-493 0-893 400-893 893v2566h-2C2644 13421 0 16065 0 19314c0 3250 2644 5893 5893 5893h2v2566c0 494 400 894 893 894h1544l2046 10924c492 2627 2789 4533 5462 4533h4294c266 0 518-118 687-323 170-204 240-473 191-735l-2697-14399h1210c9 0 17-1 26-2 8 0 16 1 24 0 26-1 2689-137 6397 690 3327 743 8193 2434 12662 6274 55 1663 1425 2999 3101 2999 1711 0 3104-1392 3104-3104V3104c0-1712-1393-3104-3104-3104zM5895 23421h-2c-2264 0-4107-1842-4107-4107 0-2264 1843-4107 4107-4107h2v8214zm12427 14987h-2244c-494 0-894 399-894 893 0 493 400 893 894 893h2578l402 2144h-3218c-1814 0-3372-1294-3706-3076l-1984-10595h6347l386 2059h-2324c-493 0-893 400-893 893 0 494 400 894 893 894l2659-1 384 2055h-2328c-494 0-894 400-894 893s400 893 894 893h2663l385 2055zm309-11528H7681V11748h10950v15132zm20000 6440c-4432-3430-9077-5003-12335-5722-2624-580-4731-708-5878-727V11757c1147-19 3254-147 5878-726 3258-720 7903-2292 12335-5723v28012zm4421 2204c0 727-591 1318-1317 1318s-1317-591-1317-1318V3104c0-727 591-1318 1317-1318s1317 591 1317 1318v32420z"/></g></svg>