<svg xmlns="http://www.w3.org/2000/svg" width="823" height="796" viewBox="0 0 172399 166781" shape-rendering="geometricPrecision" text-rendering="geometricPrecision" image-rendering="optimizeQuality" fill-rule="evenodd" clip-rule="evenodd"><defs><style type="text/css"><![CDATA[
    .fil0 {fill:#16B6E8}
   ]]></style></defs><g id="_895340448"><path class="fil0" d="M171187 148503l-13167-11412c-1465-1269-3683-1111-4953 354-1270 1466-1111 3683 354 4953l6054 5247h-16395v-703c0-1939-1572-3511-3511-3511s-3511 1572-3511 3511v703h-17556v-703c0-1939-1573-3511-3512-3511-1938 0-3511 1572-3511 3511v703H93924v-703c0-1939-1573-3511-3512-3511s-3511 1572-3511 3511v703H69345v-703c0-1939-1572-3511-3511-3511s-3511 1572-3511 3511v703H44767v-703c0-1939-1572-3511-3511-3511s-3511 1572-3511 3511v703H20189v-32990l21531-19891 20604 12166v7710c0 1939 1572 3511 3511 3511s3511-1572 3511-3511v-8704l22474-35778 21850 8878c1787 726 3823-125 4563-1905l17825-42864v7341c0 1939 1573 3511 3511 3511 1939 0 3512-1572 3512-3511V25195l11670 11748c1368 1375 3591 1382 4966 16 1376-1367 1383-3590 17-4966l-17674-17790c-827-832-2015-1197-3167-970-1152 226-2115 1013-2566 2097l-23240 55889-21352-8676c-1579-641-3389-57-4295 1386l-22761 36237-21637-12777c-1335-788-3029-608-4168 445l-18685 17260V93924h703c1938 0 3511-1572 3511-3511 0-1940-1573-3512-3511-3512h-703V69345h703c1938 0 3511-1572 3511-3511 0-1940-1573-3511-3511-3511h-703V44767h703c1938 0 3511-1572 3511-3511 0-1940-1573-3512-3511-3512h-703V12923l5247 6054c695 802 1672 1212 2654 1212 815 0 1634-282 2299-857 1465-1271 1624-3488 354-4953L19331 1212c-159-183-282-305-381-375-304-259-655-470-1044-615-1374-512-2921-118-3881 990L2613 14379c-1270 1465-1111 3682 354 4953 1466 1269 3682 1111 4953-354l5247-6054v134721H3511c-1939 0-3511 1572-3511 3511 0 1940 1572 3512 3511 3512h9656v8602c0 1939 1572 3511 3511 3511s3511-1571 3511-3511v-8602h139286l-6053 5246c-1466 1270-1624 3488-354 4953 694 802 1672 1212 2655 1212 814 0 1633-282 2297-857l13168-11412c194-168 326-306 410-423 243-296 441-631 580-1003 511-1374 117-2921-991-3881zM65834 125174c-1938 0-3511 1571-3511 3511v4213c0 1939 1573 3512 3511 3512 1939 0 3512-1572 3512-3512v-4213c0-1940-1572-3511-3512-3511zM44767 110427c0-1940-1572-3512-3511-3512s-3511 1572-3511 3512v4213c0 1939 1572 3511 3511 3511s3511-1572 3511-3511v-4213zM41256 125174c-1939 0-3511 1571-3511 3511v4213c0 1939 1572 3512 3511 3512s3511-1572 3511-3512v-4213c0-1940-1572-3511-3511-3511zM93924 110427c0-1940-1572-3512-3511-3512s-3512 1572-3512 3512v4213c0 1939 1573 3511 3512 3511s3511-1572 3511-3511v-4213zM93924 92169c0-1940-1572-3512-3511-3512s-3512 1572-3512 3512v4213c0 1939 1573 3511 3512 3511s3511-1572 3511-3511v-4213zM90413 125174c-1939 0-3512 1571-3512 3511v4213c0 1939 1573 3512 3512 3512s3511-1572 3511-3512v-4213c0-1940-1572-3511-3511-3511zM118502 110427c0-1940-1572-3512-3511-3512s-3511 1572-3511 3512v4213c0 1939 1572 3511 3511 3511s3511-1572 3511-3511v-4213zM118502 92169c0-1940-1572-3512-3511-3512s-3511 1572-3511 3512v4213c0 1939 1572 3511 3511 3511s3511-1572 3511-3511v-4213zM114991 125174c-1939 0-3511 1571-3511 3511v4213c0 1939 1572 3512 3511 3512s3511-1572 3511-3512v-4213c0-1940-1572-3511-3511-3511zM143080 110427c0-1940-1572-3512-3511-3512s-3511 1572-3511 3512v4213c0 1939 1572 3511 3511 3511s3511-1572 3511-3511v-4213zM139569 125174c-1939 0-3511 1571-3511 3511v4213c0 1939 1572 3512 3511 3512s3511-1572 3511-3512v-4213c0-1940-1572-3511-3511-3511zM143080 92169c0-1940-1572-3512-3511-3512s-3511 1572-3511 3512v4213c0 1939 1572 3511 3511 3511s3511-1572 3511-3511v-4213zM143080 73910c0-1939-1572-3511-3511-3511s-3511 1572-3511 3511v4214c0 1939 1572 3511 3511 3511s3511-1572 3511-3511v-4214zM143080 55652c0-1939-1572-3511-3511-3511s-3511 1572-3511 3511v4214c0 1939 1572 3511 3511 3511s3511-1572 3511-3511v-4214zM89711 44767h4213c1939 0 3511-1571 3511-3511 0-1939-1572-3511-3511-3511h-4213c-1939 0-3512 1572-3512 3511 0 1940 1573 3511 3512 3511zM107969 44767h4213c1939 0 3511-1571 3511-3511 0-1939-1572-3511-3511-3511h-4213c-1939 0-3512 1572-3512 3511 0 1940 1573 3511 3512 3511zM71453 44767h4213c1939 0 3511-1571 3511-3511 0-1939-1572-3511-3511-3511h-4213c-1939 0-3512 1572-3512 3511 0 1940 1572 3511 3512 3511zM34936 44767h4214c1938 0 3511-1571 3511-3511 0-1939-1573-3511-3511-3511h-4214c-1939 0-3511 1572-3511 3511 0 1940 1572 3511 3511 3511zM53194 44767h4214c1938 0 3511-1571 3511-3511 0-1939-1573-3511-3511-3511h-4214c-1939 0-3511 1572-3511 3511 0 1940 1572 3511 3511 3511zM107969 20189h4213c1939 0 3511-1572 3511-3511s-1572-3511-3511-3511h-4213c-1939 0-3512 1572-3512 3511s1573 3511 3512 3511zM126227 20189h4213c1939 0 3511-1572 3511-3511s-1572-3511-3511-3511h-4213c-1939 0-3512 1572-3512 3511s1573 3511 3512 3511zM89711 20189h4213c1939 0 3511-1572 3511-3511s-1572-3511-3511-3511h-4213c-1939 0-3512 1572-3512 3511s1573 3511 3512 3511zM71453 20189h4213c1939 0 3511-1572 3511-3511s-1572-3511-3511-3511h-4213c-1939 0-3512 1572-3512 3511s1572 3511 3512 3511zM53194 20189h4214c1938 0 3511-1572 3511-3511s-1573-3511-3511-3511h-4214c-1939 0-3511 1572-3511 3511s1572 3511 3511 3511zM71453 69346h4213c1939 0 3511-1572 3511-3511 0-1940-1572-3512-3511-3512h-4213c-1939 0-3512 1572-3512 3512 0 1939 1572 3511 3512 3511zM39150 62324h-4214c-1939 0-3511 1571-3511 3511 0 1939 1572 3511 3511 3511h4214c1938 0 3511-1572 3511-3511 0-1940-1573-3511-3511-3511zM53194 69346h4214c1938 0 3511-1572 3511-3511 0-1940-1573-3512-3511-3512h-4214c-1939 0-3511 1572-3511 3512 0 1939 1572 3511 3511 3511z"/></g></svg>