<svg xmlns="http://www.w3.org/2000/svg" width="36.336mm" height="21.872mm" version="1" shape-rendering="geometricPrecision" text-rendering="geometricPrecision" image-rendering="optimizeQuality" fill-rule="evenodd" clip-rule="evenodd" viewBox="0 0 3634 2187"><g><path d="M3076 230H536c-47 0-84 36-84 80v1480c0 44 37 80 84 80h2540c47 0 85-36 85-80V310c0-44-38-80-85-80zm57 1560c0 30-26 53-57 53H536c-31 0-56-23-56-53V310c0-30 25-53 56-53h2540c31 0 57 23 57 53v1480z"/><path stroke="#000" stroke-width="30" d="M2043 1997c0 12-5 56-53 56h-343c-5 0-56-4-56-56" fill="none"/><circle stroke="#000" stroke-width="10" cx="1805" cy="164" r="50" fill="none"/><circle stroke="#000" stroke-width="10" cx="1805" cy="164" r="25" fill="none"/><path stroke="#000" stroke-width="30" d="M2030 2110h1483c55 0 57-57 57-57v-56H67v56s2 57 56 57h1907zM368 1990V191S365 78 497 78h2601s160-33 160 134v1778" fill="none"/></g></svg>