<svg xmlns="http://www.w3.org/2000/svg" width="2088" height="1220" viewBox="0 0 66253 38719" shape-rendering="geometricPrecision" text-rendering="geometricPrecision" image-rendering="optimizeQuality" fill-rule="evenodd" clip-rule="evenodd"><defs><style type="text/css"><![CDATA[
    .fil0 {fill:white;fill-rule:nonzero}
   ]]></style></defs><g id="_1032609008"><path class="fil0" d="M56708 3182H9076c-881 0-1575 676-1575 1501v27754c0 825 694 1500 1575 1500h47632c881 0 1594-675 1594-1500V4683c0-826-713-1501-1594-1501zm1069 29254c0 563-488 994-1069 994H9076c-581 0-1050-431-1050-994V4682c0-562 469-993 1050-993h47632c582 0 1069 431 1069 993v27754zM37618 36318c0 173-47 637-363 970-196 208-486 362-912 362h-6432c-77 0-612-40-976-405v-1c-203-203-356-498-356-926h563c0 254 81 421 190 530 216 216 533 239 579 239h6432c248 0 406-78 506-183 180-190 206-477 206-586h563zM33670 1945c0-221-89-420-233-564s-343-233-564-233c-220 0-419 89-563 233-145 144-234 343-234 564 0 220 89 419 233 563s344 234 564 234c221 0 420-90 564-234s233-343 233-563zm-34-762c195 195 315 464 315 762 0 297-120 566-315 761l-1 1c-195 195-464 316-762 316-297 0-567-121-762-316v-1c-195-195-316-464-316-761 0-298 121-568 316-763s465-316 762-316c298 0 567 121 762 316l1 1zM33201 1945c0-91-36-173-96-233-59-59-141-96-232-96-90 0-173 37-232 96-59 60-96 142-96 233 0 90 37 172 96 232 59 59 142 96 232 96 91 0 173-37 232-96 60-60 96-142 96-232zm103-431c110 111 178 263 178 431s-68 320-178 430c-110 111-263 179-431 179s-320-68-431-179c-110-110-178-262-178-430s68-320 178-431c111-110 263-179 431-179s321 69 431 179zM37093 38156h27810c704 0 781-684 788-787v-769H562v769c7 103 83 787 769 787h35762zm27810 563H1331C48 38719 1 37386 1 37382l-1-13v-1332h5644V2451h1c-1-95-10-2400 2700-2400h48751c326-58 3306-498 3306 2794v33192h5851v1332l-1 13c0 4-47 1337-1349 1337zm-27567-2682h22504V2845c0-2787-2658-2239-2666-2238l-28 6H8345c-2189 0-2139 1829-2139 1835l1 3v33586h31129z"/></g></svg>