<svg id="Layer_1" data-name="Layer 1" xmlns="http://www.w3.org/2000/svg" viewBox="0 0 217.15 69.71"><defs><style>.cls-1,.cls-2{fill:#fff;}.cls-1{fill-rule:evenodd;}</style></defs><title>logo_white</title><path class="cls-1" d="M-682.72,267.82l-28-28a3,3,0,0,1-.52-0.7C-691,241-684.22,249.15-682.72,267.82Z" transform="translate(711.31 -202.83)"/><path class="cls-1" d="M-642,238.73a3,3,0,0,1-.71,1.11l-31.82,31.82a3,3,0,0,1-4.3,0l-1.29-1.29C-679.24,244-672.39,238.82-642,238.73Z" transform="translate(711.31 -202.83)"/><path class="cls-1" d="M-680.09,204.92l1.2-1.2a3,3,0,0,1,4.3,0l31.82,31.82a3,3,0,0,1,.71,1.11C-668.15,236.52-678.55,230.55-680.09,204.92Z" transform="translate(711.31 -202.83)"/><path class="cls-1" d="M-710.7,235.54l28.12-28.12c-1.11,21.52-7,27.77-28.72,29A3,3,0,0,1-710.7,235.54Z" transform="translate(711.31 -202.83)"/><circle class="cls-2" cx="30.37" cy="34.63" r="5.19"/><path class="cls-2" d="M-630.59,251.5V224.17h21.84v6.55h-13.06v3.64h11v6.27h-11v4.23h13.6v6.64h-22.38Z" transform="translate(711.31 -202.83)"/><path class="cls-2" d="M-583.77,251.5l-0.43-2.36a9.19,9.19,0,0,1-3.58,2.35,14.12,14.12,0,0,1-4.88.77,11.65,11.65,0,0,1-9.24-3.85q-3.38-3.85-3.38-10.55t3.77-10.62q3.77-3.77,10.56-3.78a13.27,13.27,0,0,1,8.62,2.65,11,11,0,0,1,3.89,7.48h-8.33a4.77,4.77,0,0,0-1.62-2.49,4.45,4.45,0,0,0-2.77-.85,4.38,4.38,0,0,0-3.94,2,11.22,11.22,0,0,0-1.31,6,9.53,9.53,0,0,0,1.32,5.55,4.6,4.6,0,0,0,4,1.84,5.75,5.75,0,0,0,3.27-.9,3.74,3.74,0,0,0,1.66-2.42h-4v-5.84h12v15h-5.66Z" transform="translate(711.31 -202.83)"/><path class="cls-2" d="M-575.83,251.5l9.61-27.33h8.89l9.61,27.33h-8.7l-1-3.62h-8.7l-1.06,3.62h-8.63Zm11.28-9.35H-559l-2.73-9.46Z" transform="translate(711.31 -202.83)"/><path class="cls-2" d="M-547.91,251.5l9.61-27.33h8.89l9.61,27.33h-8.7l-1-3.62h-8.7l-1.06,3.62h-8.63Zm11.28-9.35h5.51l-2.73-9.46Z" transform="translate(711.31 -202.83)"/><path class="cls-2" d="M-518.57,243H-510a3.45,3.45,0,0,0,1.28,2.13,4.83,4.83,0,0,0,2.76.65,4.71,4.71,0,0,0,2.42-.53,1.63,1.63,0,0,0,.88-1.46q0-1.48-3.69-2.41l-1.13-.28q-3-.78-4.81-1.42a12.16,12.16,0,0,1-2.61-1.2,7.39,7.39,0,0,1-2.37-2.71,7.94,7.94,0,0,1-.79-3.6,7.57,7.57,0,0,1,3.06-6.38q3.06-2.32,8.42-2.32t8.29,2.22A8.45,8.45,0,0,1-494.9,232h-8.33a2.6,2.6,0,0,0-1.07-1.8,4.31,4.31,0,0,0-2.46-.59,3.78,3.78,0,0,0-2.1.46,1.59,1.59,0,0,0-.69,1.41q0,1.35,3.6,2.26l0.48,0.13,1.58,0.39a23.38,23.38,0,0,1,6.23,2.19,7.86,7.86,0,0,1,2.65,2.75,7.52,7.52,0,0,1,.83,3.64,8.25,8.25,0,0,1-3.16,7q-3.16,2.43-9.06,2.43-5.44,0-8.62-2.43A9.2,9.2,0,0,1-518.57,243Z" transform="translate(711.31 -202.83)"/></svg>