<svg xmlns="http://www.w3.org/2000/svg" width="390" height="390" viewBox="0 0 4130 4130" shape-rendering="geometricPrecision" text-rendering="geometricPrecision" image-rendering="optimizeQuality" fill-rule="evenodd" clip-rule="evenodd"><defs><style type="text/css"><![CDATA[
    .fil0 {fill:white;fill-rule:nonzero}
   ]]></style></defs><g id="_1032618608"><path class="fil0" d="M2065 0c570 0 1087 231 1460 605 374 374 605 890 605 1460s-231 1087-605 1460c-373 374-890 605-1460 605S979 3899 605 3525C231 3152 0 2635 0 2065S231 979 605 605 1495 0 2065 0zm1328 737c-340-339-809-549-1328-549-518 0-988 210-1328 549-339 340-549 810-549 1328 0 519 210 988 549 1328 340 340 810 550 1328 550 519 0 988-210 1328-550s550-809 550-1328c0-518-210-988-550-1328zM1779 1242l1121 756c42 29 54 87 25 130-8 12-19 22-31 29l-1115 749c-43 28-101 17-130-26-11-17-16-36-15-55V1319c0-51 41-93 93-93 19 0 37 6 52 16zm901 833l-860-580v1158l860-578z"/></g></svg>