<svg xmlns="http://www.w3.org/2000/svg" width="1202" height="902" viewBox="0 0 21215 15911" shape-rendering="geometricPrecision" text-rendering="geometricPrecision" image-rendering="optimizeQuality" fill-rule="evenodd" clip-rule="evenodd"><defs><style type="text/css"><![CDATA[
    .fil2 {fill:#00A0E3}
    .fil3 {fill:#00B8E6}
    .fil0 {fill:#2B2A29}
    .fil4 {fill:#939598}
    .fil1 {fill:white}
    .fil5 {fill:#00A0E3;fill-rule:nonzero}
   ]]></style></defs><g id="_1032611376"><g id="_640300288"><path class="fil0" d="M19336 13485h-2954c-52 0-95 43-95 95v1746c0 53 43 95 95 95h2954c52 0 95-42 95-95v-1746c0-52-43-95-95-95zm13 1841c0 7-6 13-13 13h-2954c-6 0-12-6-12-13v-1746c0-6 6-12 12-12h2954c7 0 13 6 13 12v1746zM19711 15482h-96v-1947c0-129-105-233-234-233h-3044c-129 0-233 104-233 233v1947h-97c-34 0-61 28-61 62v169c0 109 89 198 199 198h3429c109 0 198-89 198-198v-169c0-34-27-62-61-62zm-3485-1947c0-61 50-111 111-111h3044c61 0 111 50 111 111v1947h-3266v-1947zm1453 2070h360v32c0 14-12 26-26 26h-308c-14 0-26-12-26-26v-32zm1971 108c0 41-35 76-76 76h-3429c-42 0-77-35-77-76v-108h1529v32c0 60 48 108 107 108h308c60 0 108-49 108-108v-32h1528l2 108z"/><circle class="fil1" cx="17852" cy="13577" r="702"/><path class="fil2" d="M17048 12554c-50 41-98 85-141 132l90 84c40-42 83-83 128-119l-77-97zM17427 12475l-45-115c-60 24-118 52-175 84l62 107c51-29 104-55 158-76zM16888 12907l-102-70c-36 54-69 110-97 169l112 53c25-53 54-104 87-152zM19025 12999c-28-58-61-115-97-168l-102 71c33 48 63 98 88 151l111-54zM16686 13568h-123c0 64 5 129 15 192l122-18c-9-57-14-115-14-174zM18664 12550l-77 96c46 36 89 76 129 119l90-85c-44-47-92-91-142-130zM18329 12357l-45 115c54 21 107 46 158 75l61-107c-56-32-114-60-174-83zM17952 12272l-9 124c58 4 116 12 173 25l27-120c-63-14-127-24-191-29zM17768 12396l-10-123c-64 5-128 15-191 29l27 121c57-13 116-22 174-27zM18446 14581l62 107c55-32 109-69 160-109l-77-97c-46 36-94 70-145 99zM18121 14709l28 120c63-14 125-33 185-57l-44-116c-56 22-112 39-169 53zM18719 14363l91 84c44-48 84-98 121-152l-102-70c-34 49-70 95-110 138zM18916 14074l111 54c29-58 52-119 71-180l-118-37c-17 56-39 110-64 163zM17387 14773c59 23 122 43 185 57l27-120c-57-13-114-30-167-52l-45 115zM17772 14735l-9 123c32 3 64 4 96 4 33 0 66-1 98-4l-9-123c-58 4-117 4-176 0zM17052 14580c51 40 105 76 160 109l62-107c-50-29-100-62-145-99l-77 97zM16790 14297c36 53 77 104 121 151l90-84c-40-42-76-89-110-136l-101 69zM16739 13913l-118 36c19 62 43 122 71 181l111-54c-25-53-47-107-64-163zM16709 13342c4-15 25-117 25-117l-114-39s-9 31-22 90c-14 58-20 99-20 99l122 18c-1 0 4-36 9-51zM19027 13568c0 59-3 117-12 175l121 18c9-64 15-128 14-193h-123zM18984 13263c2 16 24 118 24 118l120-11s-4-33-16-92c-11-59-21-98-21-98l-119 33c1 0 10 35 12 50z"/><path class="fil3" d="M17331 13479v-20c10-150 126-270 275-286l-64 96c-75 35-125 106-133 187-5 77 49 147 161 210l-25 81c-120-39-214-136-214-268zM18100 14012c-26 35-58 64-95 85-14 8-27 15-41 21-130 50-278 8-361-105h107c56 43 128 59 197 42 120-38 171-123 152-254l80-20c22 90 9 168-39 231zM17767 13201c153 122 262 270 330 446-31 6-62 12-92 15-67-148-163-282-282-395l44-66zM17775 13358c-118 141-194 309-228 503h79c42-155 114-302 209-432-19-23-40-48-60-71zM18269 13707c-197 82-393 106-589 73 10-30 21-59 34-88 172 20 346 3 511-50l44 65zM18211 13204c6 3 11 7 16 11h1c113 75 163 215 124 345l-65-97c-2-72-38-138-96-179-64-43-151-32-262 34l-57-62c94-85 225-118 339-52z"/><path class="fil4" d="M17305 13696l41-66c17 28 40 53 65 74l-22 37-13 22-3 3c-3 3-5 7-7 11-5 10-8 22-8 33 0 30 17 57 44 70v1c16 8 33 12 51 10h576c-5 35-22 66-48 90h-521c-37 3-73-5-106-23h-1c-55-29-93-84-93-147 0-24 6-49 18-72 4-8 9-16 15-24l12-19zm388-624c2-4 5-9 8-13l3-3c15-20 34-36 56-47 87-47 199-18 249 62l2 3 45 71c-33 3-66 11-97 25l-32-52-1-1v-1c-24-38-77-51-118-29-10 5-18 13-26 22l-1 1c-2 2-3 4-4 6l-1 1-285 460c-27-27-49-58-54-93l256-412zm452 217c-34-11-71-6-107 6l296 475c14 23 15 52 2 76-1 2-2 3-2 5-1 1-2 3-3 4-17 23-44 36-73 36h-81c-3 32-12 62-25 90h106c61 1 117-28 153-77 3-3 4-6 6-8 3-3 4-6 6-9 27-51 26-112-5-162l-273-436z"/></g><g id="_640300288_0"><path class="fil0" d="M14666 13485h-2953c-53 0-95 43-95 95v1746c0 53 42 95 95 95h2953c53 0 95-42 95-95v-1746c0-52-42-95-95-95zm13 1841c0 7-6 13-13 13h-2953c-7 0-13-6-13-13v-1746c0-6 6-12 13-12h2953c7 0 13 6 13 12v1746zM15042 15482h-97v-1947c0-129-105-233-234-233h-3043c-129 0-234 104-234 233v1947h-97c-33 0-61 28-61 62v169c0 109 89 198 199 198h3429c110 0 199-89 199-198v-169c0-34-28-62-61-62zm-3486-1947c0-61 51-111 112-111h3043c61 0 112 50 112 111v1947h-3267v-1947zm1453 2070h361v32c0 14-12 26-27 26h-307c-15 0-27-12-27-26v-32zm1971 108c0 41-34 76-76 76h-3429c-42 0-76-35-76-76v-108h1528v32c0 60 49 108 108 108h308c59 0 107-49 107-108v-32h1529l1 108z"/><circle class="fil1" cx="13182" cy="13577" r="702"/><path class="fil2" d="M12379 12554c-51 41-98 85-142 132l91 84c39-42 83-83 128-119l-77-97zM12758 12475l-46-115c-60 24-118 52-174 84l62 107c51-29 104-55 158-76zM12219 12907l-103-70c-36 54-68 110-96 169l111 53c26-53 55-104 88-152zM14355 12999c-28-58-61-115-97-168l-101 71c33 48 62 98 88 151l110-54zM12017 13568h-123c0 64 5 129 15 192l121-18c-9-57-13-115-13-174zM13994 12550l-77 96c46 36 89 76 129 119l90-85c-44-47-92-91-142-130zM13659 12357l-45 115c55 21 108 46 158 75l62-107c-56-32-115-60-175-83zM13282 12272l-9 124c58 4 117 12 174 25l27-120c-63-14-128-24-192-29zM13098 12396l-9-123c-65 5-129 15-192 29l28 121c57-13 115-22 173-27zM13776 14581l62 107c56-32 109-69 160-109l-77-97c-45 36-94 70-145 99zM13452 14709l27 120c63-14 125-33 186-57l-45-116c-55 22-111 39-168 53zM14050 14363l90 84c44-48 85-98 121-152l-101-70c-34 49-71 95-110 138zM14246 14074l112 54c28-58 51-119 71-180l-118-37c-18 56-39 110-65 163zM12717 14773c60 23 123 43 186 57l26-120c-56-13-113-30-167-52l-45 115zM13103 14735l-9 123c31 3 63 4 95 4 33 0 66-1 98-4l-9-123c-58 4-117 4-175 0zM12382 14580c51 40 105 76 160 109l62-107c-50-29-99-62-145-99l-77 97zM12120 14297c37 53 77 104 121 151l91-84c-40-42-77-89-110-136l-102 69zM12069 13913l-118 36c20 62 44 122 71 181l112-54c-26-53-48-107-65-163zM12039 13342c5-15 25-117 25-117l-114-39s-9 31-22 90c-14 58-19 99-19 99l121 18s5-36 9-51zM14358 13568c0 59-4 117-13 175l122 18c9-64 14-128 13-193h-122zM14314 13263c3 16 25 118 25 118l119-11s-4-33-15-92-22-98-22-98l-119 33c1 0 10 35 12 50z"/><path class="fil3" d="M12661 13479c0-7 0-14 1-20 10-150 125-270 274-286l-63 96c-75 35-126 106-133 187-6 77 48 147 160 210l-24 81c-121-39-215-136-215-268zM13430 14012c-25 35-57 64-95 85-13 8-27 15-41 21-130 50-278 8-360-105h107c55 43 128 59 196 42 121-38 172-123 153-254l80-20c21 90 9 168-40 231zM13098 13201c152 122 262 270 329 446-30 6-61 12-92 15-67-148-163-282-282-395l45-66zM13105 13358c-117 141-193 309-227 503h78c43-155 114-302 210-432-20-23-40-48-61-71zM13599 13707c-197 82-392 106-589 73 11-30 22-59 34-88 172 20 347 3 511-50l44 65zM13541 13204c7 3 12 7 17 11h1c113 75 163 215 123 345l-64-97c-3-72-38-138-97-179-63-43-151-32-261 34l-58-62c94-85 225-118 339-52z"/><path class="fil4" d="M12636 13696l41-66c17 28 39 53 65 74l-23 37-13 22-2 3c-3 3-6 7-8 11-5 10-8 22-8 33 1 30 17 57 44 70l1 1c15 8 33 12 50 10h577c-5 35-23 66-49 90h-521c-36 3-73-5-106-23-56-29-93-84-93-147 0-24 6-49 17-72 4-8 9-16 15-24l13-19zm388-624c2-4 5-9 8-13l2-3c15-20 34-36 56-47 88-47 200-18 250 62l1 3 45 71c-33 3-66 11-96 25l-33-52v-2c-24-38-77-51-118-29-11 5-19 13-26 22l-1 1h-1c-1 2-3 4-4 6l-1 1-285 460c-27-27-49-58-54-93l257-412zm452 217c-35-11-72-6-108 6l296 475c14 23 15 52 2 76 0 2-1 3-2 5-1 1-1 3-3 4-16 23-44 36-72 36h-82c-3 32-11 62-24 90h106c60 1 117-28 153-77 2-3 4-6 6-8 2-3 3-6 5-9 28-51 26-112-4-162l-273-436z"/></g><g id="_640300288_1"><path class="fil0" d="M9997 13485H7043c-52 0-95 43-95 95v1746c0 53 43 95 95 95h2954c52 0 95-42 95-95v-1746c0-52-43-95-95-95zm12 1841c0 7-6 13-12 13H7043c-7 0-13-6-13-13v-1746c0-6 6-12 13-12h2954c6 0 12 6 12 12v1746zM10372 15482h-97v-1947c0-129-104-233-234-233H6998c-129 0-234 104-234 233v1947h-96c-34 0-61 28-61 62v169c0 109 89 198 198 198h3429c110 0 199-89 199-198v-169c0-34-27-62-61-62zm-3485-1947c0-61 50-111 111-111h3043c62 0 112 50 112 111v1947H6887v-1947zm1453 2070h360v32c0 14-12 26-26 26h-308c-14 0-26-12-26-26v-32zm1971 108c0 41-35 76-77 76H6805c-42 0-76-35-76-76v-108h1529v32c0 60 48 108 107 108h308c60 0 108-49 108-108v-32h1528l2 108z"/><circle class="fil1" cx="8512" cy="13577" r="702"/><path class="fil2" d="M7709 12554c-50 41-98 85-141 132l90 84c40-42 83-83 128-119l-77-97zM8088 12475l-46-115c-59 24-118 52-174 84l62 107c51-29 104-55 158-76zM7549 12907l-102-70c-36 54-69 110-97 169l112 53c25-53 54-104 87-152zM9686 12999c-29-58-61-115-97-168l-102 71c33 48 63 98 88 151l111-54zM7347 13568h-123c0 64 5 129 15 192l122-18c-9-57-14-115-14-174zM9325 12550l-77 96c45 36 89 76 128 119l91-85c-44-47-92-91-142-130zM8989 12357l-45 115c55 21 108 46 159 75l61-107c-56-32-114-60-175-83zM8613 12272l-9 124c58 4 116 12 173 25l27-120c-63-14-127-24-191-29zM8429 12396l-10-123c-64 5-129 15-191 29l27 121c57-13 115-22 174-27zM9107 14581l62 107c55-32 109-69 160-109l-78-97c-45 36-94 70-144 99zM8782 14709l28 120c63-14 125-33 185-57l-45-116c-55 22-111 39-168 53zM9380 14363l91 84c44-48 84-98 121-152l-102-70c-34 49-70 95-110 138zM9577 14074l111 54c28-58 52-119 71-180l-118-37c-17 56-39 110-64 163zM8048 14773c59 23 122 43 185 57l27-120c-57-13-114-30-168-52l-44 115zM8433 14735l-9 123c32 3 64 4 96 4 33 0 66-1 98-4l-9-123c-58 4-118 4-176 0zM7713 14580c51 40 104 76 160 109l62-107c-50-29-100-62-145-99l-77 97zM7450 14297c37 53 77 104 122 151l90-84c-40-42-76-89-110-136l-102 69zM7400 13913l-119 36c20 62 44 122 71 181l112-54c-26-53-47-107-64-163zM7370 13342c4-15 24-117 24-117l-113-39s-9 31-23 90c-13 58-19 99-19 99l122 18c-1 0 4-36 9-51zM9688 13568c0 59-4 117-13 175l122 18c9-64 14-128 14-193h-123zM9645 13263c2 16 24 118 24 118l120-11s-4-33-16-92c-11-59-21-98-21-98l-119 33s9 35 12 50z"/><path class="fil3" d="M7992 13479v-20c10-150 126-270 275-286l-64 96c-75 35-126 106-133 187-5 77 49 147 161 210l-25 81c-120-39-214-136-214-268zM8761 14012c-26 35-58 64-95 85-14 8-27 15-41 21-131 50-279 8-361-105h107c56 43 128 59 197 42 120-38 171-123 152-254l80-20c22 90 9 168-39 231zM8428 13201c152 122 262 270 330 446-31 6-62 12-92 15-68-148-163-282-282-395l44-66zM8436 13358c-118 141-194 309-228 503h79c42-155 113-302 209-432-19-23-40-48-60-71zM8930 13707c-197 82-393 106-589 73 10-30 21-59 34-88 172 20 346 3 510-50l45 65zM8872 13204c6 3 11 7 16 11h1c113 75 163 215 123 345l-64-97c-2-72-38-138-96-179-64-43-151-32-262 34l-57-62c94-85 225-118 339-52z"/><path class="fil4" d="M7966 13696l41-66c17 28 40 53 65 74l-22 37-14 22-2 3c-3 3-5 7-7 11-6 10-9 22-9 33 1 30 18 57 44 70l1 1c16 8 33 12 50 10h577c-5 35-22 66-48 90h-521c-37 3-73-5-106-23h-1c-55-29-93-84-93-147 0-24 6-49 17-72 5-8 9-16 15-24l13-19zm388-624c2-4 5-9 8-13l2-3c15-20 35-36 56-47 88-47 200-18 250 62l2 3 44 71c-32 3-65 11-96 25l-32-52-1-1v-1c-24-38-77-51-118-29-10 5-19 13-26 22l-1 1h-1c-1 2-3 4-3 6l-1 1-286 460c-27-27-48-58-53-93l256-412zm452 217c-34-11-72-6-107 6l296 475c14 23 14 52 2 76-1 2-2 3-2 5-1 1-2 3-3 4-17 23-45 36-73 36h-81c-3 32-12 62-25 90h106c60 1 117-28 153-77 2-3 4-6 6-8 2-3 4-6 5-9 28-51 27-112-4-162l-273-436z"/></g><g id="_640300288_2"><path class="fil0" d="M5327 13485H2374c-53 0-95 43-95 95v1746c0 53 42 95 95 95h2953c52 0 95-42 95-95v-1746c0-52-43-95-95-95zm13 1841c0 7-6 13-13 13H2374c-7 0-13-6-13-13v-1746c0-6 6-12 13-12h2953c7 0 13 6 13 12v1746zM5702 15482h-96v-1947c0-129-105-233-234-233H2329c-130 0-234 104-234 233v1947h-97c-33 0-61 28-61 62v169c0 109 89 198 199 198h3429c110 0 199-89 199-198v-169c0-34-28-62-62-62zm-3485-1947c0-61 50-111 112-111h3043c61 0 111 50 111 111v1947H2217v-1947zm1453 2070h360v32c0 14-12 26-26 26h-308c-14 0-26-12-26-26v-32zm1971 108c0 41-34 76-76 76H2136c-42 0-76-35-76-76v-108h1528v32c0 60 48 108 108 108h307c60 0 108-49 108-108v-32h1528l2 108z"/><circle class="fil1" cx="3843" cy="13577" r="702"/><path class="fil2" d="M3039 12554c-50 41-98 85-141 132l91 84c39-42 83-83 127-119l-77-97zM3418 12475l-45-115c-60 24-118 52-174 84l62 107c50-29 104-55 157-76zM2879 12907l-102-70c-36 54-69 110-96 169l111 53c25-53 55-104 87-152zM5016 12999c-28-58-61-115-97-168l-102 71c33 48 63 98 89 151l110-54zM2678 13568h-124c0 64 6 129 15 192l122-18c-9-57-13-115-13-174zM4655 12550l-77 96c46 36 89 76 129 119l90-85c-44-47-92-91-142-130zM4320 12357l-45 115c54 21 107 46 158 75l62-107c-57-32-115-60-175-83zM3943 12272l-9 124c58 4 117 12 173 25l27-120c-62-14-127-24-191-29zM3759 12396l-10-123c-64 5-128 15-191 29l28 121c57-13 115-22 173-27zM4437 14581l62 107c55-32 109-69 160-109l-77-97c-46 36-94 70-145 99zM4113 14709l27 120c63-14 125-33 186-57l-45-116c-56 22-111 39-168 53zM4711 14363l90 84c44-48 85-98 121-152l-102-70c-33 49-70 95-109 138zM4907 14074l111 54c29-58 52-119 71-180l-118-37c-17 56-39 110-64 163zM3378 14773c60 23 123 43 185 57l27-120c-57-13-113-30-167-52l-45 115zM3764 14735l-9 123c31 3 63 4 95 4 33 0 66-1 98-4l-9-123c-58 4-117 4-175 0zM3043 14580c51 40 105 76 160 109l62-107c-50-29-99-62-145-99l-77 97zM2781 14297c36 53 77 104 121 151l90-84c-39-42-76-89-109-136l-102 69zM2730 13913l-118 36c19 62 43 122 71 181l111-54c-25-53-47-107-64-163zM2700 13342c5-15 25-117 25-117l-114-39s-9 31-22 90c-14 58-20 99-20 99l122 18c-1 0 5-36 9-51zM5018 13568c0 59-3 117-12 175l122 18c9-64 14-128 13-193h-123zM4975 13263c2 16 25 118 25 118l119-11s-4-33-15-92c-12-59-22-98-22-98l-119 33c1 0 10 35 12 50z"/><path class="fil3" d="M3322 13479c0-7 0-14 1-20 9-150 125-270 274-286l-64 96c-74 35-125 106-133 187-5 77 49 147 161 210l-24 81c-121-39-215-136-215-268zM4091 14012c-25 35-58 64-95 85-13 8-27 15-41 21-130 50-278 8-360-105h107c55 43 127 59 196 42 120-38 171-123 153-254l80-20c21 90 9 168-40 231zM3758 13201c153 122 263 270 330 446-31 6-61 12-92 15-67-148-163-282-282-395l44-66zM3766 13358c-118 141-194 309-227 503h78c43-155 114-302 209-432-19-23-39-48-60-71zM4260 13707c-197 82-393 106-589 73 10-30 22-59 34-88 172 20 346 3 511-50l44 65zM4202 13204c6 3 12 7 17 11h1c112 75 162 215 123 345l-64-97c-3-72-39-138-97-179-63-43-151-32-262 34l-57-62c94-85 225-118 339-52z"/><path class="fil4" d="M3296 13696l42-66c17 28 39 53 65 74l-23 37-13 22-2 3c-4 3-6 7-8 11-5 10-8 22-8 33 1 30 17 57 44 70l1 1c15 8 33 12 50 10h577c-6 35-23 66-49 90h-521c-36 3-73-5-106-23h-1c-55-29-92-84-92-147 0-24 6-49 17-72 4-8 9-16 15-24l12-19zm388-624c3-4 6-9 9-13l2-3c15-20 34-36 56-47 87-47 199-18 250 62l1 3 45 71c-33 3-66 11-97 25l-32-52v-2c-24-38-77-51-118-29-11 5-19 13-27 22v1h-1c-2 2-3 4-4 6l-1 1-285 460c-27-27-49-58-54-93l256-412zm453 217c-35-11-72-6-108 6l296 475c14 23 15 52 2 76-1 2-1 3-2 5-1 1-2 3-3 4-16 23-44 36-73 36h-81c-3 32-11 62-25 90h106c61 1 118-28 154-77 2-3 3-6 6-8 2-3 3-6 5-9 28-51 26-112-5-162l-272-436z"/></g><path class="fil5" d="M58 10023l-58 122 123 58 58-122-123-58zm21073-8722c-42-18-84-37-125-54l-54 124 124 54 55-124zm-251-108l-125-52-51 126 124 51 52-125zm-251-103l-127-49-49 126 126 49 50-126zm-254-98c-42-16-85-32-127-48l-47 127 126 48 48-127zm-255-94l-129-46-44 128 127 45 46-127zm-257-90l-129-43-43 129 128 42 44-128zm-259-85l-129-41-41 129 129 41 41-129zm-260-81c-43-13-87-25-130-38l-38 130c43 13 86 25 129 38l39-130zm-261-76l-131-36-36 131 130 36 37-131zm-263-71l-131-34-34 132 131 33 34-131zm-264-66l-132-32-31 132 132 31 31-131zm-265-62l-132-29-29 132 132 29 29-132zm-266-57l-133-27-26 133 132 26 27-132zm-267-53l-134-24-23 133 133 25 24-134zm-268-47l-134-22-21 134 133 21 22-133zm-269-43c-44-6-89-13-134-19l-19 134c45 6 89 13 134 19l19-134zm-269-38l-135-17-16 135 133 17 18-135zm-270-33l-135-14-14 134 134 15 15-135zm-271-28l-135-12-12 135 134 12 13-135zm-271-23c-45-4-91-7-136-10l-9 135 135 10 10-135zm-272-19l-135-7-7 135 135 8 7-136zm-271-13l-136-5-5 135 135 5 6-135zm-272-9l-136-2-2 135 135 3 3-136zm-272-4h-137l1 136h135l1-136zm-273 1c-45 1-90 1-136 3l3 135c45-1 90-2 135-2l-2-136zm-272 6l-136 5 6 135 135-5-5-135zm-272 11c-45 2-90 4-136 7l8 135c45-3 90-5 135-7l-7-135zm-272 15c-45 3-90 6-135 10l10 135c45-4 90-7 135-10l-10-135zm-271 20l-135 12 12 135 135-12-12-135zm-271 26c-45 4-90 9-135 14l15 135c45-5 89-10 134-15l-14-134zm-270 30c-45 5-91 10-136 16l18 135c45-7 90-12 134-17l-16-134zm-270 34c-45 6-90 13-135 20l20 134c44-7 89-13 133-19l-18-135zm-269 40c-45 7-90 14-135 22l23 133c44-7 88-14 133-21l-21-134zm-269 45c-45 8-90 15-134 24l25 133c44-9 89-16 133-24l-24-133zm-268 49c-44 8-89 17-133 26l27 133c44-9 88-18 132-26l-26-133zm-266 54c-45 10-89 19-133 29l29 132c44-10 88-19 132-28l-28-133zm-266 59c-44 10-89 20-133 31l33 132c43-11 87-21 131-31l-31-132zm-265 64c-44 10-88 22-131 33l34 131c43-11 87-22 130-33l-33-131zm-263 68c-44 12-88 24-131 36l36 130c44-12 87-24 130-35l-35-131zm-262 73c-44 13-87 25-131 38l39 130c43-13 86-25 130-38l-38-130zm-261 78l-130 40 41 129 129-40-40-129zm-259 82c-44 14-87 28-130 43l44 128c43-14 85-28 128-42l-42-129zm-258 87l-129 45 46 128c42-16 85-30 127-45l-44-128zm-257 91c-42 16-85 32-127 48l48 126c42-16 84-31 126-47l-47-127zm-254 96c-43 16-85 33-127 50l50 126c42-17 84-33 126-49l-49-127zm-253 101l-126 51 52 125c42-17 83-34 125-51l-51-125zm-251 104c-42 18-84 36-125 54l54 124c41-18 83-36 124-53l-53-125zm-250 109l-124 56 57 124 123-56-56-124zm-247 114c-41 19-82 38-123 58l59 122c40-19 81-39 122-58l-58-122zm-246 117c-40 20-81 40-121 61l60 121c41-21 81-40 121-60l-60-122zm-243 122c-40 21-81 41-121 62l63 120c40-21 80-41 120-62l-62-120zm-241 126l-120 64 65 119 119-64-64-119zm-239 130c-40 22-79 44-119 66l67 118c39-22 78-44 118-66l-66-118zm-237 134c-39 22-79 45-118 68l69 117 117-68-68-117zm-235 138c-39 23-77 46-116 70l71 115c38-23 77-46 115-69l-70-116zm-232 141c-38 24-77 48-115 72l73 115 114-72-72-115zm-230 146c-38 24-76 49-114 74l75 113c38-25 75-49 113-74l-74-113zm-227 149c-38 25-75 51-113 76l77 112c37-25 74-50 112-75l-76-113zm-225 153l-111 78 78 111 110-78-77-111zm-222 157c-37 26-74 53-111 79l80 110c37-27 73-53 110-79l-79-110zm-220 160c-37 27-73 54-109 81l82 108c36-27 72-54 108-80l-81-109zm-218 164l-107 83 83 107 107-83-83-107zm-214 167c-36 28-71 56-106 85l85 105 105-84-84-106zm-212 170l-105 87 87 104 104-86-86-105zm-209 174c-35 30-69 59-104 89l89 102c34-29 68-58 103-87l-88-104zm-206 177c-35 30-69 60-103 90l90 102c34-30 68-60 102-89l-89-103zm-204 181l-101 91 92 100c33-30 66-60 100-91l-91-100zm-201 183l-99 93 93 99 99-93-93-99zm-198 187c-32 31-65 63-98 94l95 97c32-31 64-62 97-93l-94-98zm-195 190l-96 95 96 96c32-32 64-64 96-95l-96-96zm-192 192l-95 97 98 95 94-97-97-95zm-189 195l-93 99 98 93c31-33 62-66 93-98l-98-94zm-186 199l-92 100 100 91c30-33 61-66 91-100l-99-91zm-184 201l-90 101 102 90 90-101-102-90zm-180 203c-29 35-59 69-88 103l103 88 88-102-103-89zm-177 207l-87 104 104 86 87-103-104-87zm-174 209c-28 35-57 70-86 105l106 85c28-35 57-70 85-104l-105-86zm-171 211l-84 107 107 83 84-106-107-84zm-167 214l-83 108 108 82 82-107-107-83zm-165 217c-27 36-54 72-81 109l109 80c27-36 53-72 80-108l-108-81zm-162 218c-26 37-53 74-79 111l110 78c26-36 53-73 79-109l-110-80zm-158 221c-26 37-52 75-78 112l111 77 78-111-111-78zm-155 224l-77 112 113 76 76-112-112-76zm-152 225l-75 114 114 74 74-113-113-75zm-149 228l-73 114 115 73 72-114-114-73zm-145 230l-72 115 116 71 71-115-115-71zm-143 231l-69 117 116 69 70-116-117-70zm-139 234l-68 117 118 68 68-117-118-68zm-135 235l-67 119 119 66 66-118-118-67zm-133 238c-21 40-43 80-65 120l120 63c22-39 43-79 64-118l-119-65zm-129 239l-63 121 120 62 63-119-120-64zm-125 241c-21 41-42 81-62 122l121 60c21-40 41-80 61-120l-120-62zm-123 243c-20 41-40 81-60 122l122 59c20-40 40-81 60-121l-122-60zM3859 12160l-44 129 129 43 43-128-128-44zM21158 76l-71-7-13 135 71 7 13-135zm-206-19c-46-4-91-8-136-11l-10 135 134 11 12-135zm-272-21l-136-9-8 135 135 9 9-135zm-272-17l-135-6-6 135c45 2 90 5 135 7l6-136zm-271-11l-136-4-4 136 135 3 5-135zm-273-6l-136-2v136l135 1 1-135zm-272-2c-45 0-91 1-136 1l2 136c45-1 90-1 135-1l-1-136zm-272 4c-45 0-91 2-136 3l4 135 135-3-3-135zm-272 8l-136 6 7 135 135-6-6-135zm-272 13l-57 3-78 5 9 135 134-8-8-135zm-271 18c-46 3-91 7-136 10l12 135c45-3 89-7 134-10l-10-135zm-271 22c-46 4-91 9-136 14l14 134c45-4 90-9 134-13l-12-135zm-271 28l-135 16 16 134 134-15-15-135zm-271 33c-44 5-90 11-135 18l20 134 133-18-18-134zm-269 37c-45 6-90 13-135 20l22 134c44-7 89-14 133-20l-20-134zm-269 42c-45 7-89 15-134 23l24 133c44-8 88-15 132-22l-22-134zm-268 47l-134 25 26 133 133-25-25-133zm-267 52c-45 9-89 18-134 27l29 133c44-10 88-19 132-28l-27-132zm-266 56c-45 10-89 20-133 30l31 132c43-10 87-20 131-30l-29-132zm-266 61l-132 33 33 131 132-32-33-132zm-264 66c-44 12-88 23-131 35l35 131c44-12 87-23 131-34l-35-132zm-262 71c-44 12-88 25-131 37l38 130 129-36-36-131zm-262 76l-130 39 40 129 129-39-39-129zm-260 80c-43 13-87 27-130 41l43 129c43-14 86-28 128-41l-41-129zm-259 84c-43 15-86 29-128 44l44 128c43-15 85-29 128-44l-44-128zm-257 89l-128 47 47 127 127-46-46-128zm-255 94c-43 16-85 32-128 49l50 126c42-17 84-33 126-48l-48-127zm-254 98l-126 51 51 125c42-17 83-34 125-50l-50-126zm-252 103l-125 52 53 125 124-53-52-124zm-250 107c-42 18-84 36-125 55l56 123 123-54-54-124zm-249 111c-41 18-82 38-123 57l58 122c40-19 81-38 122-56l-57-123zm-246 115l-123 59 60 122 122-59-59-122zm-245 120c-40 20-81 41-121 61l62 121c40-21 80-41 120-61l-61-121zm-242 124c-40 20-80 42-120 63l64 120c39-22 79-43 119-63l-63-120zm-240 128l-119 65 66 118 118-65-65-118zm-238 131c-39 23-79 45-118 68l68 117c39-22 78-45 117-67l-67-118zm-236 136c-39 23-78 46-117 70l70 116c39-23 77-46 116-69l-69-117zm-233 140l-116 71 72 115 115-70-71-116zm-231 144c-38 24-77 48-115 73l74 114c38-25 76-49 114-73l-73-114zm-229 147c-38 25-75 50-113 75l75 113c38-25 75-50 113-75l-75-113zm-226 151l-112 77 77 112 112-77-77-112zm-224 155c-37 26-74 53-111 79l80 110c36-26 73-52 110-78l-79-111zm-221 159c-36 26-73 53-109 80l81 109c36-27 72-54 108-80l-80-109zm-218 162l-108 82 82 107 108-81-82-108zm-216 165c-36 28-72 56-107 84l84 106c36-28 71-56 106-83l-83-107zm-213 169c-36 28-71 57-106 86l86 104c35-28 70-56 105-85l-85-105zm-211 172l-104 88 87 103 104-87-87-104zm-208 176c-34 29-69 59-103 89l90 102 102-89-89-102zm-205 179c-34 30-68 60-101 90l91 101c33-30 67-60 100-90l-90-101zm-202 182l-100 92 92 99 100-92-92-99zm-199 185l-99 93 94 98 98-93-93-98zm-197 188c-32 31-65 63-97 95l96 96c31-32 64-63 96-94l-95-97zm-193 191l-96 96 97 95c31-32 63-64 95-96l-96-95zm-191 194l-94 98 98 93 94-97-98-94zm-188 197c-31 33-62 66-92 99l99 92c31-33 62-66 92-99l-99-92zm-184 199l-92 101 102 90c30-33 60-67 90-100l-100-91zm-182 202c-30 34-60 69-90 103l103 88c29-33 59-67 89-101l-102-90zm-179 206l-88 103 104 87 87-103-103-87zm-175 207l-87 105 105 86 86-104-104-87zm-173 210c-28 36-57 71-85 107l106 84c28-36 57-71 85-106l-106-85zm-169 213c-28 36-56 72-84 107l108 83c27-35 55-71 83-106l-107-84zm-166 215l-82 109 108 81 82-108-108-82zm-163 218l-81 110 110 79 80-109-109-80zm-160 220l-79 111 111 77 78-110-110-78zm-157 222c-26 37-52 75-77 112l112 76c25-37 51-74 76-111l-111-77zm-154 224l-75 113 113 75 75-112-113-76zm-150 227l-74 114 114 73 74-113-114-74zm-147 229l-72 115 115 71 72-114-115-72zm-144 230c-24 39-47 78-71 117l117 69 70-115-116-71zm-141 233l-69 117 118 68c22-39 45-77 68-116l-117-69zm-137 235l-67 118 118 66c22-39 44-78 67-117l-118-67zm-134 236l-66 119 119 65 66-118-119-66zm-131 239l-64 120 120 63 64-119-120-64zm-127 240l-62 121 120 61 62-120-120-62zm-124 242c-20 40-40 81-61 122l122 59c19-40 40-80 60-120l-121-61zm-121 243c-20 41-39 82-59 123l123 58 58-121-122-60zm-117 246l-57 123 123 56 57-122-123-57zm-114 246c-19 42-37 83-56 125l124 54c18-41 37-82 55-123l-123-56zm-111 249c-18 41-36 83-54 125l125 53c18-42 35-83 54-124l-125-54zm-107 250l-52 125 125 52 52-125-125-52zm-104 251l-50 126 126 50 50-126-126-50zm-100 253l-49 126 127 49 48-127-126-48zm-97 254l-47 127 127 46 47-126-127-47zm-94 255l-45 128 128 45 45-128-128-45zM8536 12160l-44 129 129 43 43-128-128-44zM21030 361c-44 10-88 20-133 30l31 132 132-30-30-132zm-265 61l-132 33 33 131c44-11 87-22 131-32l-32-132zm-264 66c-44 12-88 23-132 35l36 131c43-12 87-23 130-35l-34-131zm-263 71c-44 12-87 24-131 37l38 130c43-12 87-25 130-37l-37-130zm-261 75c-44 13-87 26-131 40l41 129 129-39-39-130zm-261 80l-129 42 42 129c43-15 86-28 129-42l-42-129zm-258 85l-129 44 45 128c42-16 85-30 127-44l-43-128zm-257 89c-42 13-86 31-128 46l47 127c41-15 84-32 126-45l-45-128zm-256 94c-42 15-84 32-127 48l49 126 126-48-48-126zm-254 98c-42 16-84 33-126 50l51 126c42-17 84-34 126-50l-51-126zm-252 102c-41 18-83 35-125 53l53 125c42-18 83-36 125-53l-53-125zm-250 107c-41 18-83 37-124 55l55 124c41-19 82-37 124-55l-55-124zm-248 111c-41 19-83 38-124 57l58 123c41-19 81-38 122-57l-56-123zm-247 116c-41 19-81 39-122 59l60 122c40-20 81-40 121-59l-59-122zm-244 119c-41 21-81 41-121 62l61 120 121-61-61-121zm-242 124c-41 21-81 42-121 64l64 119 120-63-63-120zm-241 128c-39 22-79 43-119 65l66 119c39-22 79-44 118-65l-65-119zm-238 132c-39 22-78 45-118 67l68 118c39-23 78-45 117-67l-67-118zm-235 136l-117 69 70 116c38-23 77-46 116-69l-69-116zm-234 140c-38 23-77 47-116 71l72 115 115-71-71-115zm-231 143l-114 74 73 113c38-24 76-48 114-73l-73-114zm-228 148l-114 75 76 112 112-74-74-113zm-226 151c-38 25-75 51-113 77l78 111c37-25 74-51 111-76l-76-112zm-224 155l-111 78 79 110c37-26 73-52 110-78l-78-110zm-221 158c-37 27-73 54-110 81l81 108c36-26 72-53 109-80l-80-109zm-219 162l-108 82 82 108 108-82-82-108zm-216 165l-107 85 85 106 106-84-84-107zm-213 169l-106 86 86 105 105-85-85-106zm-211 173l-104 87 88 103c34-29 69-58 103-86l-87-104zm-207 175c-35 30-69 59-103 89l89 102c34-30 68-59 102-88l-88-103zm-206 179c-33 30-67 60-101 90l91 101c33-30 67-60 101-90l-91-101zm-202 182l-100 92 93 99 99-92-92-99zm-199 185l-99 93 94 98c33-31 65-62 98-93l-93-98zm-196 188c-33 31-65 63-98 95l96 96c32-31 64-63 96-94l-94-97zm-194 191l-96 96 97 95 95-96-96-95zm-191 194l-94 98 98 93 94-97-98-94zm-187 197l-93 99 100 92c30-33 61-66 92-99l-99-92zm-185 199c-31 34-61 67-91 101l101 90c30-33 60-66 90-100l-100-91zm-182 203c-30 33-60 68-89 102l102 89c29-34 59-68 89-102l-102-89zm-178 205l-89 103 104 87 87-102-102-88zm-176 207l-87 105 105 86 86-104-104-87zm-173 211l-85 106 107 84 84-106-106-84zm-169 212l-84 108 108 82c27-36 55-71 83-106l-107-84zm-166 216l-82 108 108 81 82-108-108-81zm-163 217c-27 36-54 73-81 110l110 79c27-36 53-73 80-109l-109-80zm-160 220l-79 111 111 78 78-110-110-79zm-157 222c-26 37-52 75-77 112l112 76 76-111-111-77zm-154 225c-25 37-49 76-75 113l113 74 75-112-113-75zm-150 226l-74 114 114 73 74-113-114-74zm-147 229l-72 115 115 71 72-114-115-72zm-144 230c-24 39-47 78-71 117l116 69 71-115-116-71zm-141 233l-69 117 117 69 69-117-117-69zm-137 235l-67 118 118 66 67-117-118-67zm-134 236l-66 119 119 65 66-118-119-66zm-131 239l-64 120 120 63 64-119-120-64zm-127 240l-62 121 120 61 62-120-120-62zm-124 242l-61 121 122 60 60-120-121-61zm-121 244c-20 40-39 81-59 122l123 58 58-121-122-59zm-117 245l-57 123 123 57 57-123-123-57zm-114 246l-56 124 124 55 55-123-123-56zm-111 249l-54 125 125 53c18-42 36-83 54-124l-125-54zm-107 250l-52 125 125 52 52-125-125-52zm-104 251l-50 126 126 50 50-125-126-51zm-100 253l-49 126 126 48 49-126-126-48zm-97 253l-47 128 127 46 47-126-127-48zm-94 256l-45 128 128 44 45-127-128-45zM13213 12160l-44 129 129 43 43-128-128-44zm7904-9974l-63 38 69 116 63-37-69-117zm-180 108l-116 72 72 115 115-71-71-116zm-231 144c-38 24-76 49-114 73l73 114c38-24 76-49 114-73l-73-114zm-229 148l-113 75 76 112 112-74-75-113zm-226 151c-37 25-74 51-112 77l77 111c37-26 75-51 112-76l-77-112zm-223 155l-111 78 79 110 110-78-78-110zm-221 158c-37 27-74 53-110 81l81 108c36-27 72-53 108-80l-79-109zm-219 162l-108 82 82 108 108-82-82-108zm-216 165l-107 84 84 106c36-27 71-55 106-83l-83-107zm-213 169l-106 86 86 105 105-85-85-106zm-211 173c-35 28-69 58-104 87l88 103c34-29 68-58 103-86l-87-104zm-207 175l-103 89 89 102 102-88-88-103zm-206 179c-33 30-67 60-101 90l91 101c33-30 67-60 100-90l-90-101zm-202 182l-100 92 93 99c32-31 66-61 99-91l-92-100zm-199 185l-99 93 94 98 98-93-93-98zm-197 188l-97 95 96 96c32-31 64-63 96-94l-95-97zm-193 191l-96 96 97 95 95-96-96-95zm-191 194l-94 98 98 93c31-32 62-65 94-97l-98-94zm-187 197c-32 33-62 66-93 99l99 92 92-99-98-92zm-185 199l-91 101 100 90 91-100-100-91zm-182 203l-90 102 103 89c29-34 59-68 89-102l-102-89zm-178 205l-89 103 104 87 87-102-102-88zm-176 207l-87 105 105 86 86-104-104-87zm-173 211c-28 35-56 70-85 106l106 84c28-35 57-70 85-105l-106-85zm-169 212c-28 36-56 72-83 108l107 82c27-35 55-71 83-106l-107-84zm-166 215l-82 109 108 81 82-108-108-82zm-163 218l-81 110 110 79 80-109-109-80zm-160 220l-79 111 111 78 78-110-110-79zm-157 222l-77 112 112 76 76-111-111-77zm-154 224l-75 113 113 75 75-112-113-76zm-150 227l-74 114 114 73 74-113-114-74zm-147 229l-72 115 115 71 71-114-114-72zm-144 230l-71 116 116 70 71-115-116-71zm-141 233l-69 117 117 69 69-117-117-69zm-137 235l-67 118 118 66c22-39 44-78 67-117l-118-67zm-134 236c-22 40-44 80-66 119l119 65 65-118-118-66zm-131 239c-20 40-43 80-64 120l120 63c21-40 43-79 64-119l-120-64zm-127 240l-62 121 120 61 62-120-120-62zm-124 242l-61 121 122 60 60-120-121-61zm-121 243l-59 123 122 58 59-121-122-60zm-117 246l-58 123 124 56c18-40 37-81 57-122l-123-57zm-114 246l-56 124 124 55 55-123-123-56zm-111 249c-18 41-36 83-54 125l125 53 53-124-124-54zm-107 250l-52 125 125 52 52-125-125-52zm-104 251l-50 126 125 50 51-125-126-51zm-100 253l-49 126 126 49 49-127-126-48zm-97 253l-48 128 128 46 47-126-127-48zm-94 256l-45 128 127 45 46-128-128-45zM17890 12160l-44 129 128 43 44-128-128-44zm3209-5862l-35 43 107 84 33-43-105-84zm-119 149l-83 108 107 82 83-106-107-84zm-166 215l-82 109 108 81 82-108-108-82zm-163 218c-27 37-54 73-81 110l110 79 80-109-109-80zm-160 220l-79 111 111 78 78-110-110-79zm-157 222l-77 112 112 76 76-111-111-77zm-154 225l-75 113 113 74 75-112-113-75zm-150 226l-74 114 114 73 74-113-114-74zm-147 229l-72 115 115 71 72-114-115-72zm-144 230l-71 117 116 69c24-38 47-76 71-115l-116-71zm-140 233l-70 117 117 69 69-117-116-69zm-138 235l-67 118 118 67 67-118-118-67zm-134 236l-66 119 119 65 66-118-119-66zm-131 239l-64 120 120 63 64-119-120-64zm-127 240l-62 121 120 61 62-119-120-63zm-124 242c-20 40-41 81-61 121l122 60 60-120-121-61zm-121 243l-59 123 122 58c20-40 39-81 59-121l-122-60zm-117 246c-19 41-39 82-58 123l123 57 58-123-123-57zm-114 246l-56 124 124 55 55-123-123-56zm-111 249l-54 125 125 53 53-124-124-54zm-107 250l-52 125 125 52 52-125-125-52zm-104 251l-51 126 126 50 51-125-126-51zm-100 252l-49 127 126 49 49-126-126-50zm-97 254l-48 128 128 46 47-126-127-48zm-94 256l-45 128 127 45 46-128-128-45zM121 3819l-104 89 88 102 103-87-87-104zm21043 626c-32-31-66-62-99-93l-92 99c33 31 66 62 98 93l93-99zm-199-185l-101-91-90 100 100 91 91-100zm-202-182l-102-90-89 102c34 30 67 60 101 89l90-101zm-205-179l-104-88-87 103c34 29 69 59 103 88l88-103zm-208-176c-35-29-70-57-105-86l-85 105c34 28 69 57 104 86l86-105zm-210-172l-107-85-84 106 106 85 85-106zm-213-169l-108-83-82 108c35 27 71 54 106 82l84-107zm-216-165l-109-82-81 109 108 81 82-108zm-219-163l-110-79-79 110 110 79 79-110zm-221-158l-111-78-77 111 110 78 78-111zm-223-155l-113-76-75 113 111 75 77-112zm-227-151c-37-25-75-50-113-75l-74 114 113 74 74-113zm-228-148l-115-72-72 115 115 72 72-115zm-231-144c-38-24-78-47-116-70l-70 116c38 23 78 46 115 70l71-116zm-233-140l-118-68-67 117 116 68 69-117zm-236-136l-119-66-65 118 117 66 67-118zm-238-132l-120-64-63 119 119 64 64-119zm-240-128c-40-21-80-42-121-62l-61 121 120 61 62-120zm-242-124l-122-60-60 122 121 60 61-122zm-244-119l-123-59-58 123 122 58 59-122zm-247-116c-41-19-82-38-124-56l-55 123 123 56 56-123zm-248-111l-125-54-53 124c41 18 83 36 124 54l54-124zm-250-107c-42-18-84-35-126-52l-51 125c42 17 83 34 125 52l52-125zm-252-103l-127-50-49 127c42 16 84 32 126 49l50-126zm-254-98l-128-48-46 127 126 48 48-127zm-255-94l-129-45-44 128 127 45 46-128zm-258-89c-43-15-86-29-129-43l-42 128 128 43 43-128zm-258-85l-130-41-40 130c43 13 86 26 129 40l41-129zm-260-80l-131-39-37 131c43 12 86 25 129 38l39-130zm-262-76l-131-36-35 131 130 36 36-131zm-262-71l-132-33-33 131c43 11 87 22 131 33l34-131zm-264-66l-133-31-30 132 131 31 32-132zm-266-61l-133-29-28 132 132 29 29-132zm-266-57l-133-26-26 133c44 8 88 17 132 26l27-133zm-267-52l-134-24-23 134 133 23 24-133zm-268-47l-134-22-21 134 133 22 22-134zm-269-42l-135-20-18 135c45 6 89 12 134 19l19-134zm-269-38l-135-17-17 135 134 17 18-135zm-271-32l-135-15-14 135c45 5 90 9 134 14l15-134zm-270-28l-136-12-11 135 134 12 13-135zm-272-23l-135-9-9 135 135 9 9-135zm-271-18l-136-7-6 135c44 2 89 5 134 7l8-135zm-272-13c-45-2-91-3-136-5l-4 136 135 4 5-135zm-272-8l-136-3-2 136 135 2 3-135zm-272-4h-136l1 136h135V0zm-272 1c-46 1-91 2-136 3l3 135c45-1 90-2 135-2l-2-136zm-272 7c-46 1-91 3-136 5l5 135c45-2 90-4 135-5l-4-135zm-272 11c-45 2-91 4-136 7l8 135c45-2 90-5 135-7l-7-135zm-272 15c-45 3-90 7-136 10l11 135c45-3 89-7 134-9l-9-136zm-271 21c-45 4-91 8-136 12l13 135c45-4 90-8 134-12l-11-135zm-271 26c-45 4-91 9-136 14l16 135c44-5 89-10 134-15l-14-134zm-271 30c-45 6-90 11-135 17l18 134c45-5 89-11 134-16l-17-135zm-270 35c-44 7-89 13-134 20l20 134c44-7 89-13 133-20l-19-134zm-269 40c-45 8-89 15-134 22l23 134 133-22-22-134zm-268 45c-45 8-89 16-134 25l25 133c44-8 88-16 133-24l-24-134zm-268 50c-44 9-89 18-133 27l27 132c44-9 88-17 132-26l-26-133zm-266 55c-45 9-89 19-133 29l29 132c44-10 88-20 132-29l-28-132zm-266 59c-44 10-88 21-132 31l32 132c43-11 87-21 131-31l-31-132zm-264 64l-132 34 34 131 131-34-33-131zm-264 69c-44 11-87 24-131 36l37 130c43-12 86-24 130-36l-36-130zm-262 73c-43 13-87 25-130 39l39 129c43-13 86-25 129-38l-38-130zm-261 78c-43 14-86 27-129 41l41 129c43-14 86-27 129-41l-41-129zm-259 83l-129 43 44 128c42-14 85-28 128-43l-43-128zm-258 87c-42 15-85 30-128 45l46 128c42-15 85-30 127-45l-45-128zm-256 92c-41 15-87 30-127 47l48 127c42-16 84-32 126-47l-47-127zm-254 96c-43 17-85 33-127 50l50 126c42-17 84-33 126-50l-49-126zm-253 101l-126 52 53 125c41-18 83-35 124-52l-51-125zm-251 105c-42 18-83 36-125 54l55 124 123-54-53-124zm-249 109c-42 19-83 38-124 57l57 122c40-19 82-37 122-55l-55-124zm-248 114l-122 58 58 122c41-19 82-38 122-58l-58-122zm-245 118l-122 60 61 121c40-20 81-40 121-60l-60-121zm-243 122c-40 20-81 41-121 62l63 120c40-20 80-41 120-62l-62-120zm-241 126c-40 21-80 43-120 65l65 118c40-21 79-43 119-64l-64-119zm-239 130l-119 67 67 118c40-23 79-45 118-67l-66-118zm-237 134l-117 69 69 117 116-68-68-118zm-234 139l-116 70 71 116 115-70-70-116zm-232 142c-39 23-77 48-115 72l73 114c37-24 76-48 114-71l-72-115zm-230 146l-114 74 75 113 113-74-74-113zm-227 149l-113 76 77 112 112-75-76-113zm-225 153l-111 78 78 111c37-26 74-52 111-77l-78-112zm-222 157c-37 27-73 54-110 80l80 109c36-26 73-53 109-79l-79-110zm-220 161l-108 81 82 108 108-81-82-108zm-217 164c-35 28-71 55-107 83l84 107 106-83-83-107zm-214 167c-35 28-71 57-106 85l85 106 106-85-85-106zm-212 171l-104 87 86 104 104-86-86-105zM163 1010l-126 49 49 126 126-49-49-126zm21052 10628l-14-37-127 48 14 36 127-47zm-62-164l-50-127-126 50 49 126 127-49zm-100-253l-51-126-125 51 51 125 125-50zm-102-252c-18-42-35-84-53-125l-125 53 53 124 125-52zm-107-250l-54-125-124 55c18 41 36 82 54 124l124-54zm-109-249c-19-41-37-83-56-124l-123 57c18 41 37 82 55 123l124-56zm-113-247l-58-123-122 58 57 122 123-57zm-116-246l-60-122-121 59 59 122 122-59zm-120-244c-20-41-41-81-61-122l-121 62 61 121 121-61zm-123-243l-63-120-120 63 63 120 120-63zm-126-240c-20-40-43-81-65-120l-119 65c21 39 44 79 64 119l120-64zm-130-239l-66-119-118 66 65 118 119-65zm-133-237c-23-40-45-79-68-118l-117 68c23 39 45 78 67 117l118-67zm-136-236c-23-39-46-78-70-117l-116 70c23 39 46 77 69 116l117-69zm-140-233l-71-116-115 71 71 116 115-71zm-143-231l-72-115-115 73 73 114 114-72zm-146-230c-24-38-49-76-74-114l-113 75c25 38 49 75 74 113l113-74zm-149-227l-76-113-112 76 75 112 113-75zm-153-225l-77-112-111 78 77 111 111-77zm-156-223c-26-37-52-74-79-111l-109 80 78 110 110-79zm-158-221c-27-36-54-73-81-109l-109 81c27 36 54 72 80 109l110-81zm-163-218l-82-108-107 82 81 108 108-82zm-165-216c-28-36-56-71-84-107l-106 84 83 107 107-84zm-168-213c-28-36-57-71-86-106l-105 86c29 34 57 69 85 104l106-84zm-172-211l-87-105-103 87 86 104 104-86zm-174-209c-30-34-59-69-89-103l-102 89c29 34 58 68 88 102l103-88zm-178-206l-90-102-101 91c30 33 60 67 89 101l102-90zm-181-203l-91-100-100 91 91 100 100-91zm-184-200c-30-34-61-67-93-100l-98 94c31 32 62 65 93 98l98-92zm-186-198c-31-33-63-65-95-98l-97 95c32 32 63 64 94 97l98-94zm-190-195l-96-96-95 96 95 95 96-95zm-193-192l-97-95-94 98 97 94 94-97zm-195-189l-99-93-93 99 99 92 93-98zm-199-186c-33-31-66-62-100-92l-91 101c34 30 67 60 100 91l91-100zm-201-183l-102-90-89 102c34 29 67 59 101 89l90-101zm-204-180l-103-88-88 103 102 88 89-103zm-207-176l-105-87-86 104 104 87 87-104zm-210-174l-106-85-84 106 105 85 85-106zm-212-169c-36-28-71-57-107-84l-83 107c36 28 71 55 106 83l84-106zm-215-167c-36-27-72-55-109-82l-81 109 108 81 82-108zm-218-163l-110-80-79 109 109 80 80-109zm-220-160l-111-78-78 111c37 26 74 52 110 78l79-111zm-223-156l-112-76-76 112 111 76 77-112zm-225-152l-114-75-74 114c38 24 75 49 113 74l75-113zm-228-149l-115-72-72 114 114 73 73-115zm-231-144c-38-24-77-48-116-71l-70 116c39 23 77 46 115 70l71-115zm-232-141c-39-24-78-47-118-69l-68 117c39 22 78 45 117 68l69-116zm-235-138l-119-67-66 119c40 22 79 44 118 66l67-118zm-238-133c-39-22-79-43-119-65l-64 120c40 21 79 42 118 64l65-119zm-239-129l-120-63-63 120 120 63 63-120zm-242-125c-40-20-81-41-121-61l-60 122c40 19 80 40 120 60l61-121zm-244-121l-122-59-58 123 122 58 58-122zm-245-117c-41-19-83-38-124-57l-55 124 122 56 57-123zm-248-112l-124-55-54 124 124 55 54-124zm-250-108c-41-18-83-36-125-53l-51 125c41 17 83 35 124 52l52-124zm-251-104l-126-51-50 127c42 16 84 33 125 49l51-125zm-253-100l-128-48-47 127c43 16 85 32 127 48l48-127zm-255-95c-43-15-86-31-128-46l-45 128c42 15 84 30 127 45l46-127zm-257-91l-129-43-43 128 128 44 44-129zm-258-85c-43-14-87-28-130-42l-40 130c43 13 86 27 128 40l42-128zm-260-82l-130-39-38 130 129 39 39-130zm-261-77c-44-12-87-24-131-36l-35 130c43 12 86 24 129 37l37-131zm-262-72c-44-12-88-23-132-34l-33 131c43 11 87 22 130 34l35-131zm-264-67c-44-11-88-22-132-32l-31 131c44 11 87 21 131 32l32-131zm-265-63c-44-10-88-20-133-30l-28 133c44 9 88 19 131 29l30-132zm-266-58l-133-28-26 133 132 27 27-132zm-267-53c-44-9-89-17-133-25l-24 133c44 8 88 16 132 25l25-133zm-268-49l-133-22-22 133 133 23 22-134zm-268-44c-45-6-90-13-135-20l-18 135c44 6 88 13 133 19l20-134zm-269-38c-45-7-90-12-135-18l-17 134c45 6 89 12 134 18l18-134zm-271-34l-134-16-15 135 134 15 15-134zm-270-30c-45-4-90-8-136-12l-11 135c45 4 89 8 134 12l13-135zm-271-24l-136-10-9 135 134 10 11-135zm-272-19l-135-8-7 135 134 8 8-135zm-271-15c-46-2-91-4-136-5l-5 135 135 6 6-136zm-272-9c-45-1-91-3-136-3l-2 135c45 1 89 2 134 3l4-135zm-272-5l-136-1v135l135 1 1-135zm-272 0c-46 0-91 1-136 1l2 136c45-1 90-2 135-2l-1-135zm-272 4c-46 1-91 3-136 5l4 135c45-2 90-3 135-4l-3-136zm-272 10c-46 2-91 4-136 7l7 135c45-3 90-5 135-7l-6-135zm-272 14c-45 3-91 6-136 10l10 135c45-4 89-7 134-9l-8-136zm-272 20c-45 3-90 7-135 11l12 135c45-4 89-8 134-11l-11-135zm-271 24c-45 4-90 9-135 14l14 135c45-5 90-10 135-14l-14-135zm-270 29c-45 5-90 11-135 16l16 135c45-6 90-12 134-16l-15-135zm-270 34c-45 6-90 12-135 19l19 134c45-7 89-13 134-19l-18-134zm-270 39c-45 7-89 14-134 21l22 134 133-21-21-134zm-268 43l-134 24 24 133 133-23-23-134zm-268 49c-45 8-89 17-134 26l27 132c44-8 88-17 132-25l-25-133zm-267 53c-44 9-91 18-133 28l29 133c44-10 88-20 132-29l-28-132zm-266 58c-44 10-89 20-133 31l32 131 131-30-30-132zm-265 62l-132 34 34 131c43-11 87-22 131-33l-33-132zm-264 68c-43 11-87 23-131 35l36 131c43-12 87-24 130-35l-35-131zm-262 72c-44 12-87 25-131 38l39 130 129-38-37-130zm-261 77c-43 13-87 26-130 40l41 129c42-13 85-27 128-40l-39-129zm-260 81c-43 14-86 28-129 43l43 128c42-14 85-28 128-42l-42-129zm-258 86l-129 45 46 128c42-16 85-30 127-45l-44-128zm-257 91c-42 15-85 31-127 47l47 126c42-15 84-31 127-46l-47-127zM207 269L73 244 49 378l133 24 25-133zm12967 11978l-45-128-127 44 43 128 129-44zm-89-257l-46-128-128 47 46 127 128-46zm-93-255l-47-128-127 48 47 127 127-47zm-96-255l-49-126-126 49 49 126 126-49zm-99-253l-51-126-125 52 50 125 126-51zm-103-251c-17-42-34-84-52-126l-125 53c17 42 35 83 52 125l125-52zm-106-251c-18-41-36-83-54-124l-124 54c18 42 36 83 54 124l124-54zm-109-249l-56-124-123 57c18 41 37 82 55 123l124-56zm-113-247c-19-41-38-82-58-123l-122 58c19 41 38 81 57 122l123-57zm-116-246c-20-41-40-81-60-122l-121 60 59 121 122-59zm-120-244l-61-121-121 61 61 121 121-61zm-123-242c-21-41-42-81-63-121l-119 63 62 120 120-62zm-126-241c-22-40-43-80-65-120l-118 65c21 39 42 79 63 119l120-64zm-130-239c-21-40-44-79-66-119l-118 66c22 40 44 79 66 118l118-65zm-133-237l-67-118-117 68 67 117 117-67zm-136-236l-69-116-116 69 69 116 116-69zm-139-233c-24-39-47-77-71-116l-115 71c23 39 47 77 70 115l116-70zm-143-231l-73-115-114 73 72 114 115-72zm-146-230l-74-114-113 75 73 113 114-74zm-149-227c-25-38-51-75-76-113l-112 76c25 37 50 75 75 112l113-75zm-153-225l-77-112-111 78 77 111 111-77zm-156-223l-78-111-110 79 78 110 110-78zm-158-221l-81-109-109 81 80 108 110-80zm-162-218c-28-36-55-73-83-109l-107 83 82 108 108-82zm-166-216c-28-36-55-72-83-107l-107 84 84 106 106-83zm-168-214c-28-35-57-70-85-106l-105 86 84 105 106-85zm-171-211l-87-104-104 87 86 104 105-87zm-175-208c-29-35-59-69-88-104l-103 89c30 34 59 68 88 103l103-88zm-178-206l-89-102-102 90 90 101 101-89zm-180-204l-92-100-99 91 90 100 101-91zm-184-200l-93-99-98 93c31 32 61 65 92 98l99-92zm-187-198c-31-33-62-65-94-98l-97 95c32 32 63 65 94 97l97-94zm-189-195l-96-96-96 96 96 95 96-95zm-193-192c-32-32-65-63-97-95l-94 98c32 31 64 62 96 94l95-97zm-195-189l-99-93-93 99 99 92 93-98zm-199-186c-33-31-66-62-100-92l-91 101 100 91 91-100zm-201-183l-101-90-90 101 101 90 90-101zm-204-180c-34-30-69-59-103-89l-88 104c34 29 69 58 102 88l89-103zm-207-176l-104-88-86 105 103 86 87-103zm-209-174c-36-28-71-57-106-85l-85 106 105 84 86-105zm-213-170l-107-84-83 108c36 27 71 55 107 83l83-107zm-215-166l-108-82-81 108 107 81 82-107zm-217-164c-37-27-74-53-110-80l-80 110 109 80 81-110zm-221-159l-111-79-77 111 110 78 78-110zm-223-156c-37-26-74-52-112-77l-76 112c38 26 75 51 112 76l76-111zm-225-153l-114-75-73 114c38 24 75 49 112 74l75-113zm-228-149l-114-72-73 114 115 73 72-115zm-230-144c-38-24-77-48-116-71l-70 115c38 24 77 47 115 71l71-115zm-233-141c-38-24-78-47-117-70l-68 118 116 68 69-116zm-235-138l-118-67-66 118 117 67 67-118zm-237-133c-39-22-79-44-119-65l-64 119c39 22 79 43 118 65l65-119zm-239-129c-40-21-80-43-121-63l-62 120 120 63 63-120zm-242-125c-40-21-81-41-121-61l-60 121 120 60 61-120zm-243-121c-41-20-82-40-123-59l-58 122c41 19 81 39 122 58l59-121zm-246-117c-41-20-82-38-124-57l-56 123 123 57 57-123zm-248-113c-41-18-83-37-124-55l-54 125 123 54 55-124zm-250-108c-41-18-83-36-125-53l-51 125c41 18 83 35 124 53l52-125zm-251-104l-126-51-49 127 125 49 50-125zm-253-100l-127-48-48 127 127 48 48-127zm-255-95c-43-16-85-31-128-46l-45 128c42 15 85 30 127 45l46-127zm-257-91c-43-15-86-29-129-43l-42 128c42 14 85 29 128 43l43-128zm-258-86l-129-41-41 129c43 14 86 27 129 41l41-129zm-260-81c-43-14-86-27-130-40l-38 131c43 12 86 25 129 38l39-129zm-261-77c-43-13-87-25-131-37l-35 131 130 36 36-130zm-262-73c-44-11-87-23-131-34l-34 131c44 11 87 23 131 34l34-131zm-263-67c-44-11-89-22-133-32l-31 132 131 31 33-131zm-265-63c-44-10-89-20-133-30l-29 133c44 9 88 19 132 29l30-132zm-266-58c-45-10-89-19-134-28l-26 133 132 27 28-132zM187 112c-45 6-90 11-134 17l17 135c45-6 89-12 134-17l-17-135zm17634 12048c-15-42-30-85-45-128l-127 45c15 43 29 85 44 128l128-45zm-90-256c-16-43-31-85-47-128l-127 47c16 42 31 85 46 127l128-46zm-94-255c-16-43-32-85-48-127l-126 48c16 42 32 84 47 127l127-48zm-97-254c-16-42-33-85-50-127l-126 51c17 42 34 83 50 125l126-49zm-100-253c-17-42-35-84-52-126l-125 52c17 42 34 84 51 125l126-51zm-104-251c-18-42-36-83-53-125l-125 54c18 41 36 82 53 124l125-53zm-107-250l-55-124-124 55 55 124 124-55zm-111-248l-57-124-123 57 57 123 123-56zm-114-247l-58-123-122 59 58 122 122-58zm-117-245l-60-122-122 60 60 121 122-59zm-121-244c-21-40-41-81-62-121l-120 62c21 40 41 80 61 120l121-61zm-124-242l-63-120-120 64c21 39 42 79 63 119l120-63zm-127-240c-22-40-44-80-66-119l-118 65c22 39 43 79 64 119l120-65zm-131-238c-22-40-45-79-67-119l-118 67c23 39 45 78 67 118l118-66zm-134-237l-68-117-117 68 68 117 117-68zm-138-235l-69-116-116 70 69 116 116-70zm-140-232c-24-39-48-78-72-116l-114 72c23 38 47 76 71 115l115-71zm-144-231c-24-38-49-77-73-115l-114 74c24 38 49 76 73 114l114-73zm-147-229c-25-38-50-76-75-113l-113 75c25 37 50 75 75 113l113-75zm-150-226l-77-113-111 77 76 112 112-76zm-154-225l-78-111-111 78 78 111 111-78zm-157-222c-26-37-53-74-79-110l-110 80c27 36 53 73 79 109l110-79zm-160-220c-27-36-54-73-81-109l-108 82 81 108 108-81zm-163-217c-27-36-55-72-83-108l-107 83c28 35 55 71 83 107l107-82zm-166-216l-84-106-106 84 84 106 106-84zm-169-212l-86-106-105 86 85 105 106-85zm-173-211c-29-34-58-69-87-104l-103 88c29 34 57 69 86 103l104-87zm-175-207c-30-35-60-69-89-103l-102 89c29 34 59 68 88 102l103-88zm-179-205l-90-102-101 91 90 101 101-90zm-182-203l-92-100-99 92 91 100 100-92zm-184-199c-31-33-63-66-94-99l-98 94c31 32 62 65 93 98l99-93zm-188-197c-32-33-63-65-95-97l-96 95c31 32 63 64 94 96l97-94zm-191-194l-96-96-95 97 96 95 95-96zm-193-191c-33-32-65-64-98-95l-93 99 97 93 94-97zm-197-188l-99-93-92 99 99 93 92-99zm-199-185l-101-92-90 101 100 91 91-100zm-202-182l-102-90-89 102 101 89 90-101zm-205-179c-35-29-69-59-104-88l-87 104c34 29 69 58 103 87l88-103zm-208-175l-105-87-86 105c35 28 70 57 104 86l87-104zm-211-173l-106-85-84 107 106 84 84-106zm-213-169c-36-28-71-55-108-83l-82 108c36 27 72 55 107 82l83-107zm-216-165c-36-27-72-55-109-82l-80 110c36 26 72 53 108 80l81-108zm-218-162l-110-80-79 110 109 80 80-110zm-221-159c-38-26-75-52-112-78l-77 112c37 26 74 52 111 77l78-111zm-224-154c-38-26-75-51-113-76l-75 112c38 25 75 50 112 76l76-112zm-226-152l-114-74-73 114 113 74 74-114zm-229-147c-38-24-77-49-115-72l-71 115 114 72 72-115zm-231-144c-39-23-77-47-116-70l-70 116c39 23 77 47 116 70l70-116zm-233-140l-118-68-67 118 116 68 69-118zm-236-135l-119-67-65 119c39 22 78 44 118 66l66-118zm-238-132c-40-22-80-44-120-65l-63 120c40 21 79 42 119 64l64-119zm-240-128l-121-63-61 121 120 62 62-120zm-242-124l-122-60-60 121c41 20 81 40 121 60l61-121zm-245-120c-41-19-82-39-123-58l-57 123c41 19 81 38 122 58l58-123zm-246-115l-124-56-55 123 123 56 56-123zm-249-111c-41-19-83-37-125-54l-52 124 123 54 54-124zm-250-107c-42-18-84-35-126-52l-50 126c41 16 83 34 124 51l52-125zm-252-103l-126-49-49 126 126 49 49-126zm-254-98c-42-16-85-32-127-47l-46 127c42 15 84 31 126 47l47-127zm-255-94l-129-45-44 128c43 15 85 30 128 45l45-128zm-257-89l-129-43-42 129 128 43 43-129zm-259-84c-43-14-87-28-130-41l-39 130c43 13 86 26 128 40l41-129zm-260-80c-43-13-87-26-131-39l-37 131c43 12 86 25 130 38l38-130zm-262-76l-131-36-35 131 131 36 35-131zm-262-70c-44-12-88-23-132-34l-33 131c44 11 87 22 131 34l34-131zm-264-66c-44-11-89-22-133-32l-30 132c44 10 88 21 131 31l32-131zm-266-62l-132-29-28 133 132 29 28-133zm-266-56c-44-9-89-18-133-27l-25 133 132 27 26-133zm-267-52c-44-8-89-16-134-24l-23 133c44 8 89 16 133 24l24-133zm-268-47l-134-22-21 134 133 22 22-134zm-269-42l-134-19-19 134 134 19 19-134zm-269-37c-45-6-90-12-136-17l-15 134c44 6 89 11 133 17l18-134zm-271-33c-45-5-90-10-135-14l-13 134c44 5 89 10 134 15l14-135zm-271-28l-135-12-11 135 135 12 11-135zm-271-22l-136-10-8 135c45 3 90 6 135 10l9-135zm-271-18c-45-3-91-5-136-7l-6 135c45 2 90 4 134 7l8-135zm-272-13c-45-2-91-4-136-5l-4 135c45 2 90 3 135 5l5-135zm-272-8l-136-3-2 136 136 2 2-135zm-272-4v136c-45 0-90-1-135 0l-1-136h136zm-272 2c-45 0-91 0-136 2l3 136c44-2 90-3 135-3l-2-135zm-272 6c-46 1-91 3-136 5l5 135c45-2 90-3 135-5l-4-135zm-272 11c-45 2-91 5-136 7l8 136c45-3 90-6 135-8l-7-135zm-272 16c-45 3-90 7-136 10l11 135c44-4 90-7 134-10l-9-135zM729 56L593 68l13 135c45-5 90-8 135-12L729 56zM458 82c-45 4-90 9-135 14l15 135c44-5 89-10 134-15L458 82zM213 1985l-119-66-65 119 118 65 66-118zm8298 10304l-23-66-128 44 22 65 129-43zm-67-194l-45-129-127 46c15 42 30 85 44 127l128-44zm-91-256l-47-128-127 47 47 127 127-46zm-94-255l-49-127-126 49 48 126 127-48zm-98-254l-50-126-126 50 50 126 126-50zm-102-252l-51-126-125 52 51 125 125-51zm-104-251l-54-125-124 54 53 124 125-53zm-108-249c-18-42-37-83-56-125l-123 56c18 41 37 82 55 123l124-54zm-112-248c-19-42-38-83-57-124l-123 57c20 41 38 82 57 123l123-56zm-115-247l-58-123-122 60 58 121 122-58zm-118-245c-20-40-40-81-60-122l-121 61 60 121 121-60zm-121-243c-21-40-42-81-63-121l-120 63c21 39 42 79 62 120l121-62zm-125-241l-64-121-119 65c21 39 42 79 63 119l120-63zm-129-240c-21-40-43-80-65-119l-118 65c21 40 43 79 64 119l119-65zm-131-238l-67-118-118 67c23 39 45 78 67 117l118-66zm-135-236c-23-39-46-79-69-118l-116 70c23 38 45 77 68 116l117-68zm-138-234c-23-39-47-78-71-117l-115 71c23 38 47 77 70 115l116-69zm-142-233c-23-38-47-77-72-115l-114 72c24 38 48 77 71 115l115-72zm-144-230l-74-114-113 74 73 113 114-73zm-148-228c-25-38-50-76-76-113l-112 75c25 38 50 75 75 113l113-75zm-151-226c-26-37-51-75-77-112l-112 77c26 37 51 74 77 111l112-76zm-155-224l-78-111-111 79c27 37 53 73 78 110l111-78zm-157-221c-27-37-54-74-80-110l-110 80c27 36 54 73 80 109l110-79zm-161-220l-82-108-108 81 81 109 109-82zm-164-217l-83-107-107 83 83 107 107-83zm-167-214l-85-106-106 84 85 106 106-84zm-170-212l-87-105-104 86 86 105 105-86zm-174-210c-29-34-59-69-88-104l-102 88c28 29 60 72 87 103l103-87zm-176-207l-89-102-102 89 89 102 102-89zm-179-204c-31-34-61-68-91-101l-101 91 90 100 102-90zm-183-202c-31-33-61-66-92-100l-99 93c30 33 61 66 91 99l100-92zm-185-199l-94-98-98 94 93 98 99-94zm-189-196l-95-97-96 96 94 96 97-95zm-191-193l-97-95-95 96 96 95 96-96zm-195-190l-98-94-93 98c33 31 65 62 97 93l94-97zm-197-188l-100-92-91 100 99 92 92-100zm-200-184c-33-30-67-61-101-91l-90 101c33 30 67 60 100 91l91-101zm-203-181l-102-89-89 102 102 89 89-102zm-206-178l-103-88-87 104 103 87 87-103zm-208-174l-105-87-86 106 105 85 86-104zm-211-172l-107-84-83 106 105 84 85-106zm-214-168l-108-83-82 108 107 82 83-107zm-217-164l-109-81-80 109 108 80 81-108zm-219-162c-37-26-74-53-111-79l-78 111 110 78 79-110zm-222-157c-37-26-74-52-112-77l-76 111c37 26 74 51 111 77l77-111zm-224-154l-113-76-75 114 112 75 76-113zm-227-150l-114-74-73 114 113 74 74-114zm-229-147c-39-24-77-48-116-72l-71 116c39 24 77 47 115 71l72-115zm-232-142c-39-24-78-47-117-70l-69 116c39 23 78 46 116 70l70-116zm-234-139l-118-68-67 118 117 67 68-117zM201 5838l-89-103-102 89 88 103 103-89zm3598 6349l-44-128-128 45 44 127 128-44zm-90-256l-46-128-127 46 46 127 127-45zm-93-256l-48-127-126 48 47 127 127-48zm-96-254l-50-126-126 50 49 125 127-49zm-101-252l-51-126-125 51 51 125 125-50zm-103-252l-53-125-125 53 53 125 125-53zm-107-250l-55-124-123 55 54 123 124-54zm-110-248l-57-124-123 57 56 123 124-56zm-114-247l-58-123-122 58 58 122 122-57zm-117-246l-60-122-121 60 59 121 122-59zm-120-243c-20-41-41-81-62-122l-120 62 61 120 121-60zm-124-243l-63-120-120 63 63 120 120-63zm-127-240c-21-40-43-80-65-120l-119 66c22 39 44 78 65 118l119-64zm-130-239l-67-118-118 66 66 118 119-66zm-134-236l-68-118-117 68 68 117 117-67zm-137-235c-23-39-46-79-70-117l-116 70 70 116 116-69zm-140-233c-24-39-48-77-72-116l-114 72 70 115 116-71zm-144-231c-24-38-48-77-73-115l-114 73c25 38 49 76 73 114l114-72zm-146-229l-75-114-113 75 74 113 114-74zm-150-227l-77-112-111 76c25 37 50 75 75 112l113-76zm-154-224l-77-112-111 78 77 111 111-77zm-156-223l-79-110-110 79 79 110 110-79zm-160-220l-81-109-108 81c27 36 54 72 80 108l109-80zm-162-218l-83-108-107 83 82 107 108-82zm-166-215l-84-107-107 84 84 106 107-83zm-169-213c-29-36-57-71-86-106l-105 86c29 35 57 70 85 105l106-85zm-173-211l-87-104-103 87 86 104 104-87z"/></g></svg>