<svg xmlns="http://www.w3.org/2000/svg" height="480" width="640" viewBox="0 0 640 480"><defs><clipPath id="a"><path fill-opacity=".67" d="M-79.698 0h682.67v512h-682.67z"/></clipPath></defs><g clip-path="url(#a)" fill-rule="evenodd"><path fill="#fff" d="M-37.843 0h715.947v479.778H-37.843z"/><path d="M-36.258.58h713.706v202.69H-36.258z"/><path fill="#0061ff" d="M94.696 190.63h473.7v106.763h-473.7z"/><path d="M677.616 1.644V480.26H320.5L677.617 1.643zM-36.614 1.644V480.26H320.5L-36.613 1.643z" fill="#e20000"/><path d="M487.784 190.733l-71.58-18.163 60.896-45.94-74.783 10.684 38.46-65.168-66.237 38.46 11.753-75.852-44.87 59.828-18.164-69.444-20.3 71.58-44.87-60.896 12.82 77.99-66.238-40.598 38.46 65.168-72.647-11.753 59.828 44.87-74.784 19.23h332.258z" fill="#ffd600"/></g></svg>