<svg xmlns="http://www.w3.org/2000/svg" height="480" width="640" viewBox="0 0 640 480"><path d="M0 0h640v480H0z" fill="#3a7dce" fill-rule="evenodd"/><path d="M184.83 225.328c-2.887-5.906-2.887-5.906-2.887-11.81-1.444 0-1.714.28-2.55.046-.835-.23-1.15 5.445-3.856 4.337-.45-.552 1.94-4.656-.655-6.363-.834-.555.203-3.922-.16-5.4 0 0-3.292 1.754-5.774-4.426-1.22-1.615-2.888 1.476-2.888 1.476s.722 1.89-.585 2.353c-1.85-1.385-3.204-.66-5.55-2.56-2.345-1.905.497-4.084-3.97-5.698 2.89-7.38 2.89-5.906 10.106-8.857-4.33-2.953-4.33-2.953-7.215-7.382-4.332-1.475-5.775-2.95-10.107-5.903-5.775-7.382-8.662-22.142-8.662-32.475 3.656-3.46 8.662 11.81 15.88 16.237l10.107 4.428c5.775 2.952 7.22 5.903 11.55 8.856l12.994 4.43c5.775 4.426 8.662 10.332 12.994 11.807 4.693 0 5.597-2.763 7.1-2.934 8.488-.447 12.82-1.565 14.51-4.17 1.715-2.077 5.82 1.2 17.37-3.23l-1.44-5.906s3.066-2.582 7.218-1.475c-.113-2.7-.385-9.894 3.703-13.14-2.482-2.663-.815-4.573-.815-4.573s2.3-2.26 2.57-3.46c-1.216-6.505 1.057-6.605 1.566-8.52.51-1.912-1.962-1.257-1.264-3.895.695-2.64 4.877-3.265 5.437-5.438.563-2.175-1.19-3.264-1.09-3.783.903-2.075.137-6.964 0-8.856 7.76-2.123 10.288-8.58 12.993-5.905 1.444-8.858 2.888-11.81 11.55-11.81 1.22-2.72-3.16-5.03-1.443-5.904 2.887-.37 5.098-.184 8.484 4.29 1.07 1.418 1.262-2.076 2.344-2.445 1.084-.37 3.676-.374 4.06-2.12.408-1.8.994-4.153 2.438-7.105 1.218-2.4 2.165.923 3.248 5.628 6.09.23 19.85 1.614 25.626 3.23 4.33 1.152 7.218-1.154 11.368-1.616 3.067 3.137 5.955.784 7.58 7.472 2.292 3.61 6.046.324 6.858 1.384 4.828 13.607 21.43 4.428 22.693 4.66 2.12 0 4.71 6.084 6.38 5.932 2.712-.467 1.944-2.36 4.31-1.598-.63 5.12 4.65 11.025 4.65 14.854 0 0 1.286.647 2.476-.49 1.19-1.135 2.284-4.053 3.343-3.985 2.527.37 3.55.702 6.462 1.222 7.828 2.734 11.816 3.35 14.856 4.752 1.416 2.647 2.784 4 5.653 3.506 2.37 1.628.64 3.76 2.04 3.898 2.888-1.477 3.834-3.09 6.722-1.615 2.887 1.477 5.775 4.43 7.22 7.382 0 1.476-1.445 7.38 0 16.238.72 2.95 1.07 5.292 4.17 10.355-.823 5.202 3.904 13.954 3.904 16.168 0 2.952-2.302 4.475-3.746 7.425 5.775 4.43 0 11.81-2.887 16.238 21.656 4.43 11.55 13.286 28.874 8.857-4.33 10.334-2.797 9.504 1.534 19.838-8.66 5.905-.18 7.703-5.952 15.083-.362.463 3.427 6.413 8.75 6.413-1.443 11.81-5.774 7.38-4.33 25.094-11.37-.23-6.77 13.24-14.438 11.81.45 8.442 4.376 9.18 2.887 17.713-5.775 1.477-5.775 1.477-8.662 5.906l-4.33-1.478c-1.445 7.38-4.332 8.857 0 16.238 0 0-5.595.185-7.22 0-.135 2.538 2.483 3.23 2.888 5.904-.225 1.062-8.21 5.72-14.438 5.907-1.622 3.644 4.33 7.52 3.97 9.363-6.767 1.338-9.744 9.825-9.744 9.825s3.474 1.43 2.89 2.954c-1.85-1.385-2.89-1.477-5.776-1.477-1.444.37-4.963-.09-8.337 5.732-3.703 1.247-5.45.797-8.26 4.594-1.243-3.62-3.032.035-5.22 1.44-2.183 1.405-5.127 4.9-5.524 4.75.09-1.015 1.354-4.707 1.354-4.707l-7.22 1.477-.887.09c-.568.057-.417-4.308-1.784-4.15-1.37.16-5.282 5.49-6.616 5.66-1.332.167-1.753-1.696-2.902-1.534-1.147.162-3.384 5.625-4.198 5.768-.813.146-4.037-3.318-6.8-2.836-14.212 5.122-16.47-10.1-18.678-1.52-2.978-1.615-2.462-.678-5.487.133-1.932.51-2.107-2.61-3.824-2.56-3.433.1-3.252 3.422-5.127 2.428-1.53-6.92-10.78-5.675-11.684-8.625-.734-3.08 4.007-3.066 5.54-5.152 1.172-3.01-1.224-4.152 3.534-7.055 6.2-4.288 2.635-5.907 3.722-9.128 1.945-4.654 1.956-5.79.332-9.894 0 0-4.828-13.285-5.775-13.285-2.887-.83-2.887 4.89-7.13 6.458-8.66 2.95-23.953-7.474-26.616-7.474-2.435.047-13.717 2.732-13.292-3.02-1.687 5.593-7.89 1.314-8.272 1.314-5.775 0-3.565 4.566-7.444 4.382-1.763-.6-19.536-1.66-19.536-1.66v2.952l-11.55-5.907-10.107-2.95c-8.662-2.953-4.33-10.334-18.768-5.906v-8.857h-7.22c2.887-17.714 0-8.856-1.444-25.094l-5.775 1.477c-5.774-7.98 8.03-6.458-4.33-11.808 0 0 .227-8.813-2.887-5.906-.63.37 1.443 4.43 1.443 4.43-11.55-1.477-14.437-4.43-14.437-16.24 0 0 9.52 1.386 8.66 0-1.35-2.212-3.11-16.605-2.795-17.574-.136-1.938 8.842-6.827 7.106-11.488 1.105-.415 4.353-.46 4.353-.46" fill="#fff"/><path d="M574.575 284.306c-.462 1.04-.38 2.077.098 2.817.856-1.284.133-1.877-.098-2.817z" stroke="#fff" stroke-width="2.108" stroke-linecap="round" stroke-linejoin="round" fill="none"/><path d="M203.29 167.756s-2.422-.296-1.878 1.828c.79-1.63 1.828-1.728 1.877-1.828zm.543-4.94c-1.334.05-2.965-.197-2.42 1.926.79-1.63 2.37-1.828 2.42-1.926zm9.113 28.312s2.075-.148 1.53 1.976c-.79-1.63-1.48-1.877-1.53-1.976z" stroke="#fff" stroke-width="1.976" stroke-linejoin="round" fill="none"/></svg>