<svg xmlns="http://www.w3.org/2000/svg" xmlns:xlink="http://www.w3.org/1999/xlink" height="480" width="640" viewBox="0 0 640 480"><path fill="#74acdf" d="M0 0h640v480H0z"/><path fill="#fff" d="M0 160.003h640v160.003H0z"/><g id="c" transform="translate(-64) scale(.96)"><path id="a" d="M396.84 251.31l28.454 61.992s.49 1.185 1.28.86c.79-.328.3-1.513.3-1.513l-23.716-63.957m-.68 24.12c-.347 9.428 5.452 14.613 4.694 23.032-.757 8.42 3.867 13.18 4.94 16.454 1.073 3.273-1.16 5.23-.198 5.697.963.466 3.07-2.12 2.383-6.775-.687-4.655-4.22-6.037-3.39-16.32.83-10.283-4.206-12.678-2.98-22.058" fill="#f6b40e" stroke="#85340a" stroke-width="1.112"/><use height="100%" width="100%" xlink:href="#a" transform="rotate(22.5 400 250)"/><use height="100%" width="100%" xlink:href="#a" transform="rotate(45 400 250)"/><use height="100%" width="100%" xlink:href="#a" transform="rotate(67.5 400 250)"/><path id="b" d="M404.31 274.41c.453 9.054 5.587 13.063 4.58 21.314 2.212-6.525-3.125-11.583-2.82-21.22m-7.65-23.757l19.487 42.577-16.33-43.887" fill="#85340a"/><use height="100%" width="100%" xlink:href="#b" transform="rotate(22.5 400 250)"/><use height="100%" width="100%" xlink:href="#b" transform="rotate(45 400 250)"/><use height="100%" width="100%" xlink:href="#b" transform="rotate(67.5 400 250)"/></g><use height="100%" width="100%" xlink:href="#c" transform="rotate(90 320 240)"/><use height="100%" width="100%" xlink:href="#c" transform="rotate(180 320 240)"/><use height="100%" width="100%" xlink:href="#c" transform="rotate(-90 320 240)"/><circle r="26.667" cy="240" cx="320" fill="#f6b40e" stroke="#85340a" stroke-width="1.44"/><path id="h" d="M329.09 234.298c-1.82 0-3.563.79-4.59 2.43 2.052 1.845 6.583 2.046 9.66-.21a7.04 7.04 0 0 0-5.07-2.22zm-.03.42c1.774-.033 3.43.78 3.66 1.59-2.05 2.256-5.328 2.06-7.38.42.9-1.436 2.343-1.985 3.72-2.01z" fill="#843511"/><use height="100%" width="100%" xlink:href="#d" transform="matrix(-1 0 0 1 640.24 0)"/><use height="100%" width="100%" xlink:href="#e" transform="matrix(-1 0 0 1 640.24 0)"/><use height="100%" width="100%" xlink:href="#f" transform="translate(18.108)"/><use height="100%" width="100%" xlink:href="#g" transform="matrix(-1 0 0 1 640.24 0)"/><path d="M315.92 243.686c-.877.16-1.5.94-1.5 1.83 0 1.02.842 1.83 1.86 1.83.602 0 1.154-.285 1.5-.78.71.534 1.694.59 2.22.6.08.002.185 0 .24 0 .526-.01 1.51-.066 2.22-.6.346.495.898.78 1.5.78 1.018 0 1.86-.81 1.86-1.83 0-.89-.623-1.67-1.5-1.83.492.174.81.65.81 1.17 0 .68-.548 1.23-1.23 1.23a1.24 1.24 0 0 1-1.23-1.17c-.2.4-.993 1.59-2.55 1.65-1.557-.06-2.35-1.25-2.55-1.65a1.24 1.24 0 0 1-1.23 1.17c-.68 0-1.23-.55-1.23-1.23 0-.52.318-.996.81-1.17zm2.006 5.463c-2.052 0-2.863 1.86-4.71 3.09 1.026-.41 1.834-1.22 3.27-2.04 1.437-.82 2.66.18 3.48.18h.03c.82 0 2.044-1 3.48-.18 1.437.82 2.274 1.63 3.3 2.04-1.846-1.23-2.687-3.09-4.74-3.09-.41 0-1.22.22-2.04.63h-.03c-.82-.41-1.63-.63-2.04-.63zM317.235 251.578c-.81.035-1.88.198-3.42.66 3.694-.82 4.51.42 6.15.42h.03c1.642 0 2.456-1.24 6.15-.42-4.103-1.23-4.92-.42-6.15-.42h-.03c-.77 0-1.38-.3-2.73-.24zM314 252.21c-.238.004-.498.006-.78.03 4.308.41 2.237 2.88 6.75 2.88h.03c4.513 0 2.47-2.47 6.78-2.88-4.513-.41-3.086 2.25-6.78 2.25h-.03c-3.463 0-2.396-2.323-5.97-2.28zM323.696 258.874a3.694 3.694 0 0 0-7.385 0 3.797 3.797 0 0 1 7.386 0z" fill="#85340a"/><path id="e" d="M303.42 234.26c4.72-4.103 10.666-4.72 13.95-1.64.803 1.075 1.318 2.225 1.53 3.426.412 2.335-.318 4.86-2.148 7.445.207 0 .618.205.823.41 1.628-3.113 2.204-6.312 1.67-9.355a13.263 13.263 0 0 0-.643-2.338c-4.513-3.69-10.665-4.102-15.178 2.052z" fill="#85340a"/><path id="d" d="M310.803 233.03c2.666 0 3.282.616 4.513 1.642 1.232 1.026 1.846.82 2.05 1.026.205.205 0 .82-.41.614-.408-.206-1.23-.614-2.46-1.64-1.23-1.027-2.46-1.026-3.692-1.026-3.692 0-5.743 3.076-6.153 2.87-.41-.205 2.053-3.486 6.154-3.486z" fill="#85340a"/><use height="100%" width="100%" xlink:href="#h" transform="translate(-18.414)"/><circle id="f" cy="236.304" cx="310.918" r="1.846" fill="#85340a"/><path id="g" d="M305.878 237.542c3.488 2.668 6.975 2.462 9.026 1.23 2.05-1.23 2.05-1.64 1.642-1.64-.41 0-.82.41-2.46 1.23-1.643.822-4.103.822-8.205-.82z" fill="#85340a"/></svg>