<svg xmlns="http://www.w3.org/2000/svg" height="480" width="640" viewBox="0 0 640 480"><defs><clipPath id="a"><path fill-opacity=".67" d="M-90.533 0h682.67v512h-682.67z"/></clipPath></defs><g clip-path="url(#a)" fill-rule="evenodd"><path d="M-82.09 0l402.215 240.128L-82.09 480.256zm708.52 0L224.213 240.128 626.43 480.256z" fill="#00cf00"/><path d="M-82.09 0l402.215 240.128L722.34 0zm-95.91 480.256l402.214-240.128L626.43 480.256z" fill="#f00"/><path d="M722.34 0h-74.948L-82.09 435.513v44.746h74.947L722.34 44.744zM459 240.128c0 76.697-62.174 138.87-138.872 138.87s-138.873-62.172-138.873-138.87 62.175-138.874 138.873-138.874S459 163.43 459 240.128zM-82.09 0v44.745L647.395 480.26h74.948v-44.747L-7.14 0z" fill="#fff"/><path stroke="#00de00" stroke-width="3.6591379999999996" fill="#f00" d="M347.462 187.754l-18.057.302-9.33 15.422-9.306-15.45-18.03-.385 8.727-15.78-8.672-15.828 18.03-.31 9.36-15.438 9.302 15.474 18.03.385-8.754 15.774zm-128.02 117.11l-18.057.302-9.33 15.422-9.306-15.45-18.03-.383 8.727-15.78-8.672-15.83 18.03-.31 9.36-15.438 9.302 15.473 18.03.385-8.754 15.774zm118.476 6.92l-18.057.302-9.33 15.423-9.305-15.45-18.028-.385 8.726-15.78-8.672-15.83 18.03-.31 9.36-15.438 9.303 15.474 18.03.385-8.754 15.775z"/></g></svg>