<svg xmlns="http://www.w3.org/2000/svg" height="480" width="640" viewBox="0 0 640 480"><path fill="#ffd520" d="M.1 0h640.1v480H.1z"/><path d="M.1 480h640.1V0z" fill="#ff4e12"/><g stroke="#000" stroke-width=".521"><g fill="#fff"><path d="M345.392 150.072c-3.99-1.417-6.567.644-6.437 5.795.127 5.152 2.834 8.114 6.824 6.182l-.388-11.978zM348.896 140.424c-3.323-2.624-6.423-1.5-7.957 3.42-1.534 4.92.076 8.594 4.476 8.047l3.48-11.465zM354.432 131.088c-2.863-3.124-6.103-2.51-8.406 2.1-2.3 4.61-1.3 8.494 3.133 8.66l5.272-10.76zm-3.632 45.384c-4.893 1.803-5.41 8.5-2.317 12.62 3.09 4.122 8.757 4.894 11.847 0l-9.528-12.623zM345.136 162.304c-4.637-1.545-8.814 4.682-9.53 10.302-.9 7.083-10.947 9.4-5.407 20.09 1.156-6.825 5.666-10.56 9.27-10.817 3.606-.258 9.016-1.03 11.333-5.41l-5.667-14.166zm14.68 27.56c-5.41 1.288-6.183 8.5-2.32 13.65 3.307 4.41 13.65 3.35 13.394-1.03l-11.074-12.62zm15.328 43.4c.257-4.636-7.21-6.44-10.817-5.538-3.606.902-10.497-.128-12.106-3.992-1.286 3.09.58 6.44 5.797 8.114 3.947 1.267 3.864 4.12 2.704 5.41 2.964.514 11.72.514 14.424-3.994zM370.896 203.648c-5.28-2.318-8.41 1.213-10.43 4.636-2.964 5.023-12.107-1.416-15.197 5.28 4.185-1.803 8.445 2.042 10.43 3.35 5.666 3.733 16.613 2.574 18.16-6.183l-2.964-7.082zM373.984 209.824c-5.28 3.992-7.34 8.757-7.21 11.977.13 3.22 4.637 10.303 9.53 10.69 2.834-5.796 4.25-18.03-2.32-22.666zm-21.888 24.856c0-1.932 2.833-2.704 4.763-2.06 1.933.643 4.893 2.575 3.863 4.636l-8.627-2.576zm-29.112-10.56c-.513-2.318 3.22-6.31 8.243-4.12 5.02 2.19 5.667 6.44 3.604 8.113l-11.846-3.993zM335.216 228.368c-.387-1.288 3.23-3.86 9.403-2.318 6.18 1.545 7.696 5.525 7.47 8.628l-16.874-6.31zm-12.872-4.248c3.22-2.447 2-7.084-.903-8.5-5.28-2.576-3.346-9.272-6.696-10.56-3.347-1.288-6.567-3.606-6.697-5.924-1.673 3.22-.643 6.182 1.677 8.242 2.317 2.06-1.803 10.432 1.157 12.62l11.464 4.122zm-69.032-1.8c-2.704-4.25-9.144-3.477-11.848-.515-2.704 2.962-2.318 7.34.258 9.272l11.59-8.758zm15.456-6.312c-1.03-5.666-7.856-6.31-11.59-4.894-3.735 1.417-6.31 7.083-3.864 11.204l15.455-6.31zM279.072 215.232c2.447-4.765-2.318-11.848-7.727-12.878-4.516-.86-9.852-.837-11.59-5.28-1.095 3.863 1.803 6.31 5.15 8.5 3.35 2.19-.643 7.856 4.766 11.075l9.402-1.418zM278.56 215.4c-1.127-3.413 1.16-7.955 5.786-7.636 4.627.318 7.264 3.68 5.224 7.884l-11.01-.248zM288.856 215.656c-.637-3.538 2.264-7.712 6.8-6.748 4.537.964 6.674 4.664 4.067 8.54l-10.867-1.792zM299.088 217.28c-.46-3.566 2.647-7.59 7.13-6.4 4.483 1.19 6.433 4.99 3.633 8.73l-10.762-2.33zm-77.712 59c-8.63 0-10.736 2.054-11.977 10.946-1.546 11.076 13.522 12.364 11.976-10.946zM225.24 264.688c-13.265-5.023-20.476 15.97-33.612 12.234 4.7 7.47 16.094.014 20.347.773 7.212 1.288 22.795-1.417 13.265-13.007zm-8.632 28.72c-6.568-2.962-13.65 7.083-12.363 11.462 1.635 5.56 16.613 1.03 12.363-11.462zM185.96 336.68c3.606 1.027 7.984 3.09 7.212 10.043-.773 6.954-13.908 21.12-25.756 21.894-11.848.773-16.1 15.066-26.272 11.073 9.53-1.8 9.53-12.62 17-15.966-5.41-1.933-8.244 10.303-15.197 10.303-6.954 0-10.303 11.074-18.803 10.3-8.5-.77-9.394 13.483-26.4 13.654-13.007.127-29.104 15.324-34.9 8.758 12.62-1.804 17.714-8.797 25.242-16.487 12.106-12.36 25.757-6.822 30.393-17.77a31.65 31.65 0 0 1-18.288 5.41c-7.922-.163-16.613 12.62-25.5 6.954 5.152-.643 8.5-2.833 13.91-8.5 5.538-5.803 13.666-2.053 20.09-7.983 10.044-9.273 18.673-1.546 28.332-13.136-2.705-1.287-8.5-.387-13.91 2.447-5.408 2.834-12.362-1.933-18.544 1.417.773-7.596 15.196-3.25 24.21-8.5 10.176-5.923 18.61-4.186 26.66-3.476-11.204-.063-15.583-10.69-31.036-7.6-6.74 1.35-12.106-9.27-18.803-3.863.194-3.99 7.213-7.21 14.425-3.346 7.212 3.864 10.12-3.38 24.47 5.667 5.923 3.734 16.097-2.32 22.536 1.674-.836-2.446-4.507-3.993-8.82-3.67 2.704-5.536 20.154-4.83 27.752.71zM197.424 328.304c-5.666-4.38-13.522.903-18.93-1.16 0 3.606 1.802 9.016 7.726 11.076 1.803-1.286 9.916-8.37 11.204-9.916zM206.312 315.816c-8.886-4.507-10.43 6.697-17.386 4.38.258 3.22 2.834 7.21 8.5 8.112l8.887-12.492zM211.592 305.64c-13.136-5.15-14.81 7.47-22.537 5.022 1.803 4.38 12.88 6.697 18.545 5.152l3.992-10.174zm18.024-55.248c-3.477-4.894-10.818-.9-11.977 4.894-1.16 5.795 1.673 13.908 6.567 12.105l5.41-16.998zM238.504 234.936c-6.053-1.416-13.007-.773-12.234 5.15-2.32 1.03-2.962 8.63 3.348 10.304l8.886-15.455zM242.496 230.944c-5.924-6.954-12.53-6.793-16.226-3.864-6.826 5.41-13.46 2.32-13.652 7.727 4.122-3.155 7.727.644 11.076-.515 3.348-1.16 5.795 5.28 15.068 2.576l3.734-5.924zM228.2 334.88c.902 1.673 6.44 2.447 9.144-.387 3.584-3.756-.386-14.167-6.053-14.94-5.665-.772-6.18 11.72-3.09 15.327zM221.76 335.136c8.113 2.96 11.59-3.737 7.212-7.985-1.16 1.418-5.41 6.57-7.212 7.986zM191.368 346.208c-1.546 4.637-9.53 5.41-18.545 19.834-9.015 14.423-17.643 8.37-19.833 18.286 10.818-8.757 19.314-2.94 25.756-11.59 9.788-13.137 17.848-11.25 21.636-20.09 5.41-12.62 29.105-12.364 30.393-32.196-7.984-1.546-33.226 19.832-39.407 25.755zm203.224-194.72c10.303 3.348 10.56 16.742 22.406 21.12 11.85 4.38 13.01 14.938 22.667 12.363-9.014-2.446-8.37-12.877-17.77-15.453-11.027-3.02-15.197-19.833-23.957-22.408m43.918 74.306c1.803 4.12 1.547 11.462-4.893 13.394 3.476 2.19 8.626.128 11.46-4.636-4.25 9.4-1.417 17.9 5.28 19.575-3.22-6.57 3.993-9.66 1.676-13.91 4.25 1.803 7.983 7.598 7.853 11.204 5.54-6.182-4.12-14.424-2.317-20.218l-19.06-5.41zm-66.712 66.192c-6.31-5.538-9.003 1.448-12.106-.966-2.897-2.254-6.76-2.576-8.24-.322 5.41.193 2.766 4.38 13.263 5.41-10.496.707-8.562 12.427-15.582 11.847 7.47 7.083 11.333-6.31 17.386-4.12-1.803.514 2.833 4.764-.387 10.43 5.217-.128 7.34-7.34 7.987-11.075l-2.32-11.204zm-138.96 60.144c-2.318-1.93-9.015-2.833-11.59-1.287-2.576 1.544-1.674 1.93 1.416 2.19 3.09.257 7.082 5.257.387 5.537-3.09.127-2.06 7.597-8.5 8.114 2.64 3.22 10.174 1.093 12.878-2.447-.515 2.896 3.348 5.536 1.803 9.013 4.765.516 1.996-9.657 9.53-9.144-3.09.386-1.803 7.34 3.606 5.536-3.22 1.547-1.545 5.28 2.06 4.38-2.317.773-3.09 3.733.13 5.41 3.09-4.25-.387-19.446-11.72-27.303zM516.68 205.656c9.857 0 17.846-7.992 17.846-17.85 0-9.856-7.99-17.848-17.846-17.848-9.86 0-17.85 7.992-17.85 17.848 0 9.858 7.99 17.85 17.85 17.85zM423.44 227.216c5.41-5.15 13.654-7.727 19.317-3.864 5.666 3.864 24.47 8.5 33.743 2.06 9.27-6.44 13.65-9.787 17.77-9.014 3.094 4.636 6.827 6.825 11.464 7.212 1.416 1.545 6.44 2.833 9.273 2.446 4.12 1.03 9.143-.257 13.134-4.636 6.184.902 11.978-3.734 14.167-10.688 6.567-.773 6.954-8.114 2.834-13.008-3.863-.772-.9-13.78-14.94-11.204 5.927 3.606 1.417 10.818 6.314 14.167-3.35 0-7.663 1.416-8.694 6.44 1.287-3.478-.193-5.796-1.096-6.57.13-2.96-6.437-10.237-12.62-7.597 4.443.966 1.933 8.113 5.153 10.817-2.32.13-4.767 1.288-6.183 3.35-1.674-2.963-7.597-6.054-11.204-6.31 0-1.03-.193-3.092-.643-4.123-1.61-3.09-2.963-6.76-2.32-11.46-3.09 3.347-5.666 7.984-7.21 11.332-4.893-3.35-17 1.545-22.666 2.833-5.666 1.287-24.726-1.804-29.106-6.44-4.376-4.636-12.876-7.47-20.86-9.788-10.98-3.186-11.076-15.196-23.183-23.438-.256 14.94 22.41 62.33 27.56 67.482zm-126.208 113.84c9.53 0 17.257-7.727 17.257-17.257 0-9.53-7.728-17.257-17.258-17.257s-17.257 7.726-17.257 17.256c0 9.53 7.726 17.256 17.257 17.256zM256.016 327.792c3.477 4.508 9.4 4.25 11.848 3.864 2.06 5.407 8.628 5.28 11.462 8.24 2.833 2.964 12.49 2.707 15.324 1.03-2.574-.256-5.923-1.8-9.143-4.506-3.886-3.264-2.06-9.788-5.15-12.105 2.317-2.576 2.703-6.825 2.19-8.5 2.445-1.417 4.248-3.735 4.506-4.894 4.25-.256 7.983-2.446 9.53-4.12 2.19 2.06 7.727-.644 10.69 2.833.644-8.5-7.47-13.007-12.88-10.173-2.19-1.16-7.984-.387-9.014 1.16-1.804-.774-6.827 1.802-9.145 3.476 2.576-1.417 2.962-5.667 1.932-7.212 2.19-.9 4.636-3.863 4.893-6.053 3.09.516 7.726-1.544 9.787-1.03-3.347-4.378-8.884-5.923-14.55-5.537-5.86.323-8.37 4.444-9.145 8.887-3.477 2.06-4.636 9.014-3.348 11.46-1.997-.063-3.864 1.87-4.636 2.963-2.705-1.16-6.568-1.995-9.337-1.995m1.226-7.018c-1.16-3.348.376-6.363 1.16-9.014 1.995-6.76.772-8.5-5.28-7.598-.516 3.22 2.575 13.78 4.12 16.612zM248.616 282.328c1.545 1.545 7.02 2.254 7.598-2.64.666-5.618-1.61-7.792-6.503-5.602-.385 1.288-.837 6.568-1.094 8.242zM249.776 273.896c2.06.837 6.504 2.51 8.95-2.254 2.053-3.996-.643-7.083-4.893-6.826-1.03 1.16-3.09 5.28-4.057 9.08zM253.576 264.432c.515 1.545 5.795 6.697 9.658 2.962 3.864-3.735 3.864-9.272-1.93-11.333-1.547.26-6.183 5.668-7.728 8.37zM261.296 256.064c1.16 3.22 4.765 8.757 11.462 6.18 6.697-2.574 3.863-10.945.773-12.62-1.802.13-9.143 3.478-12.234 6.44zM273.536 249.624c-.515 2.833 0 10.56 9.143 10.43 9.142-.127 6.57-10.816 4.25-12.362-3.735 0-10.046.13-13.394 1.932zM287.312 248.072c-1.03 2.19-3.352 16.6 14.553 12.62 2.316-.514 8.37-13.78-14.553-12.62zM297.096 249.36c-1.8 1.803 2.833 16.355 14.94 13.908 12.106-2.447 1.933-16.226-14.94-13.908zM307.4 251.552c-1.93 3.992.97 15.84 15.906 15.84 13.537 0-.71-15.582-15.906-15.84zM319.12 255.032c-.97 2.213-2.157 14.774 15.454 15.84 12.75.773 9.66-17.257-15.454-15.84zM338.056 260.312c-2.187 3.864-4.507 13.522 14.81 14.295 12.377.496 4.767-14.037-14.81-14.295zM354.152 263.272c-2.833 3.864-.747 11.442 6.437 12.878 9.015 1.803 10.302-6.696 4.122-10.817-6.183-4.12-10.56-2.06-10.56-2.06zM362.912 265.072c-2.06 3.606-.783 12.363 12.877 12.363 2.832 0 13.652-11.075-12.878-12.363zM257.184 433.016c11.064 0 20.034-8.97 20.034-20.034 0-11.066-8.97-20.036-20.034-20.036-11.065 0-20.034 8.97-20.034 20.036 0 11.064 8.97 20.034 20.034 20.034zM404.12 141.704c-1.547 1.545-4.763 6.18-5.41 7.984-6.697 20.09 11.18 35.097 21.637 56.664 8.243 17 7.213 43.787-5.667 60.786-4.406 5.815-3.09 7.47-8.757 13.394-2.173 2.272-4.636 5.15-3.863 13.393 3.607-1.288 8.757 2.06 9.786 4.894 2.577-1.29 6.184-.774 7.47.77 4.377-2.06 7.984-1.03 11.847 3.093 3.35-.516 6.956 0 10.303 3.605 1.803-3.605 5.41-4.893 7.983-4.12-.257-4.637 4.38-7.985 8.5-6.182-1.287-6.182 4.38-10.82 9.79-9.015 4.633-3.605 13.906-3.863 18.543 1.546-8.243-2.318-7.983 6.44-14.94 5.667 1.803 5.15-2.833 8.113-7.467 9.787 2.96-1.417 6.18-3.09 7.21-1.288 2.577-2.253 7.727-1.416 9.017-.257 3.41-1.095 6.697-.258 8.24 3.863 4.637 2.833 7.727 10.045 4.38 15.454-1.03-5.666-4.893-5.41-6.44-7.727-3.607 1.288-7.213 1.288-8.243-1.03-2.06 2.06-9.014 3.864-12.103.773-1.16 4.636-5.154 8.5-9.79 8.5 1.29 3.605-2.317 9.788-5.15 12.878 4.38 2.317 3.09 7.47 2.06 10.56 6.696 1.03 1.03 6.953 12.62 10.817-5.664 1.803-16.74 0-18.287-6.954-5.667-.257-9.53-5.924-9.27-11.85-4.38-4.12-5.024-10.044 1.03-14.165-5.154 1.545-7.987-6.697-15.457-3.348-3.714 1.666-13.52-1.16-13.39-4.637-1.547 2.576-10.947 1.546-12.238-2.833-3.09 1.674-10.303-1.16-10.173-5.41-3.994 1.804-9.4-1.415-9.143-5.536-3.735-.514-4.12-3.863-3.865-6.696-3.35-1.545-2.446-4.765-1.16-8.628-2.316-2.576-1.286-6.182.517-9.53-2.577-2.576-2.06-5.667-1.29-9.272-12.363-1.03-27.85-4.012-63.36-14.94-53.574-16.483-67.998 22.15-56.15 46.363 13.67 27.935-1.545 34 3.09 54.863 4.895 1.03 7.47 5.15 7.213 9.53 2.897.127 4.958 2.83 3.927 7.984 2.447-.45 5.603.256 7.663 2.316 1.804-3.346 7.728-4.12 10.82-.256 6.694-.517 10.044 4.893 9.787 11.59 3.603 6.44 2.317 14.297-1.547 19.317.387-2.702 0-6.566-.126-8.882-.24-4.264-6.185-5.154-5.54-8.63-3.09.256-6.054-1.417-7.084-3.734-1.803 1.543-4.378 2.06-6.568 1.287 3.477 1.547 6.182 7.727 5.152 11.847 1.803 3.093 1.416 8.76-.773 11.206-1.03 5.02-4.894 6.824-9.916 4.634 2.834-1.8 3.864-5.02 3.735-7.727-1.803-1.543-2.704-4.506-2.833-6.31-5.022.774-11.977-3.476-13.26-5.156-11.064 0-20.033 8.97-20.033 20.036-.516-4.123-5.73-8.183-5.085-11.66-3.09-9.53 1.288-18.416 13.91-20.216-1.546-3.607 3.862-7.344 1.802-11.464-2.632-5.263-7.47-12.106-14.68-20.09 4.378-7.47 3.09-17.514.514-23.696-3.697-8.877-7.21-6.697-20.347 7.726-21.408 23.507-49.968 17-75.21 32.454-6.706 4.107-13.392 5.667-6.18-1.543 7.21-7.213 26.27-14.423 38.634-20.606 23.152-11.577 42.756-30.908 50.483-68.512 18.157-88.368 84.992-59.24 127.232-42.756 39.657 15.477 32.453-19.575 12.363-40.695-24.146-25.385-19.317-45.33-7.983-61.3 20.346-2.833 59.37 4.25 51.513 11.076zM475.856 358.784c12.174 0 22.043-9.866 22.043-22.04s-9.87-22.043-22.044-22.043c-12.174 0-22.043 9.87-22.043 22.044s9.87 22.04 22.043 22.04z"/></g><g fill="none"><path d="M391.76 142.728c-4.893 21.636-.773 31.423 6.44 40.953 14.903 19.698 26.786 64.65 9.786 94.01M417.512 252.328c2.06-.773 5.923-3.22 6.827-7.47m-5.284-1.93c.643-3.735 6.437-5.344 6.567-9.336m-6.44-5.224c-.386-3.864 5.798-7.34 4.894-11.204m-8.237-2.7c-.517-2.19 5.15-6.31 3.607-9.787m-7.855-3.733c-1.16-2.447 2.703-5.28 1.03-7.856m-7.214-2.968c-.387-1.674 1.997-5.344.71-7.533m-6.894-5.21c.513-.645 2.577-2.19 1.737-4.122m-5.984-5.215c.837-.45 3.347-1.224 3.027-3.09M266.064 410.856c-5.15-1.803-11.59.773-12.878 5.153m3.862 3.99c.644-4.377 7.34-6.31 9.4-4.25-4.25-2.317-6.31 5.923-2.575 6.183m34.647-103.797c-3.09 1.546-3.99 7.212 0 11.463m4.632-10.176c-2.187 1.803-2.06 7.212 1.16 8.5-2.703-1.932 0-5.28 1.933-5.41 1.93-.128 3.217 2.19.9 4.508m176.95 5.146c-7.21-1.93-13.005 6.44-6.44 13.91-.126-7.213 5.024-11.976 11.335-10.69m-2.902 4.988c-1.773 0-2.77 1.387-2.77 2.737 0 1.416 1.223 2.77 3.22 2.77 1.29 0 2.32-1.48 2.32-2.64m22.662-160.98c1.16 4.38 7.213 6.183 11.977 5.152m0-2.83c-3.734.128-6.824-3.35-6.568-6.31 0 2.188 5.023 3.22 6.566 1.802M267.864 331.656c-1.03-2.577 3.09-5.152 3.22-7.6.13-2.446 4.636-4.378 9.272.258m-2.188-27.426c-.9.386-1.674.9-2.447 1.16m11.336 12.872c-1.095.065-3.348-.064-4.572-.902m.068 5.798c-.9.45-2.898 1.224-4.057 1.482m-40.12 76.302c-.128 2.32 2.19 5.667 3.478 6.697m6.57-12.233c-1.287 1.93-2.06 5.28-1.287 7.597m20.472.132c-2.318-1.547-.773-5.54-1.03-8.114-.258-2.576 2.704-6.696 8.5-3.22m-29.102-3.346c2.318-.387 4.765-.26 6.31.383m23.05-7.727c-1.03 1.417-1.288 2.963-1.416 3.993m12.232-4.248c-1.803 0-3.348 1.287-4.12 2.577m-20.864-68.514c2.06.71 7.405 3.992 7.598 7.405m14.298-24.148c-6.31-.13-8.757-6.568-3.992-6.568m15.328 15.192c-2.447 1.03-1.287 5.28 2.19 7.34m-17.262 33.1c-1.224-1.543.386-6.05 4.38-4.7m5.02 51.708c.256-3.927 5.216-6.247 7.213-1.803m-25.5 13.004c-.322-4.313 1.867-5.73 3.8-5.987 1.93-.256 4.7 1.35 5.988 4.184m-48.164 5.028c.258-2.577 2.447-5.28 4.765-4.893m230.906-109.467c-1.677 1.224-2.77 6.697 3.603 7.212m-13.388 1.804c0 .644.837 1.545 1.353 1.932m29.04 8.372c-1.674-1.288-5.99 3.928-2.06 7.727M447.39 349.56c-.967-3.67 2.447-4.637 5.667-3.863m-13.908-22.153c1.93-1.288 3.863-2.704 6.31-3.348m-7.342 17.508c0-3.09 1.543-5.663 2.96-6.437m8.368-29.1c-.257 3.736 1.29 7.34 2.45 9.273m28.206-9.016c-1.87.58-3.543 1.288-4.25 2.833m2.186 7.727c.903-.773 1.933-1.674 2.383-2.318m46.297-110.114c0 3.606-4.507 5.537-7.467 3.22m17.26-3.092c1.992 1.545 8.882.065 7.272-3.927m-15.65 24.663c-1.416-.258-3.862-1.803-4.892-3.09m19.06-7.598c-2.316.515-3.862 0-5.022-.515m-31.552 13.395c1.287 0 4.377-.515 6.503-1.61m-10.366-21.182c-1.673-.193-2.9.13-3.863.773m29.816 5.53c-.45 1.61-1.61 4.12-3.027 5.216M497.488 212.792c3.22-1.417 7.213 9.53 14.94 5.666m.644-11.338c-1.03 1.417-1.673 3.606-1.803 5.538M359.048 190.384c1.03-.13 2.833-.515 3.22-1.803m-135.74 121.7c3.864 2.19 6.568 5.924 4.894 11.462M403.6 178.536c1.16.773 5.54.773 7.987-.13m3.093 2.706c-.13 1.803.387 8.628-3.09 10.045m1.29-.9c3.22 1.03 9.66.643 11.72-5.28m-4.512 5.015c1.673 2.576 2.187 7.598-2.833 10.302m4.12-6.046c3.734 1.288 12.364 1.416 11.46-5.924m-2.955 5.924c2.577 3.606 13.91 7.856 12.106.386m-22.538 10.038c4.377 1.03 10.56-1.932 7.983-9.658m12.362 3.866c.643 2.962 15.066 6.053 13.137-.644m-2.706 3.868c2.707 6.18 17 5.666 12.494-2.576m-2.318 6.432c2.833 3.477 15.457 1.417 10.434-6.954m-.138 6.826c7.857 5.924 17-2.576 7.083-8.758m4.508 6.83c6.957 5.538 15.457-4.508 9.403-7.34m-64.394 5.02c2.19.644 6.827.386 7.857-3.606m-1.737 2.702c-.257 5.86 9.597 8.114 12.106 1.353m-3.282 3.67c1.803 3.864 10.43 5.41 11.846-.128m-1.414 2.577c1.417 3.864 8.886 3.477 10.946-.515m-2.706 2.58c2.317 5.02 11.846 5.02 14.037-2.32m-1.67 3.215c3.733 2.318 11.72 1.417 11.074-5.795m-1.546 5.155c5.537 4.508 13.394.13 9.53-7.47m-.386 13.39c2.963-.515 4.507-6.44 1.417-7.984m-70.058 9.016c6.18-3.348 7.34-9.014 3.09-14.552m2.19 8.888c3.863 2.318 11.203-.13 12.49-5.795m-7.21 6.435c2.187 2.833 2.573 6.31-.26 9.53m2.06-5.922c6.823-4.25 15.323 3.606 9.014 8.37m-1.158-8.754c1.547-.386 4.25-3.22 4.507-6.44m-1.42 9.4c2.834-2.962 22.155 3.09 9.918 9.272m-.9-17.384c3.732 1.417 5.666 6.697 0 8.5m4.895 4.38c4.12-4.25 17-1.545 12.363 3.864m-3.09-5.544c2.317-7.856 16.097-2.962 11.59.257m-14.422-8.114c.387 1.546.513 5.41-2.06 7.47m13.652-9.014c.513 1.288.387 3.735-.773 5.28m9.525-5.152c.773 1.416 2.06 4.12-.773 6.31m-109.46-65.55c.127 7.34 2.703 12.234 12.62 7.598m-9.532 1.162c-4.893 6.568.643 13.65 10.303 6.568m-25.374-3.352c6.697 7.212 18.674 1.932 10.946-9.015m8.118 15.2c-1.29 7.083 4.507 8.5 9.27 5.28m-34.254-10.304c1.22 7.12 8.5 12.75 15.583 8.37m-6.824 1.422c0 10.174 14.037 11.333 17.257.773m-5.025 6.436c4.507 9.272 14.294 5.538 17.514-.13m-27.434-14.678c1.803 4.507 5.41 9.53 13.78 5.795m-39.532-7.987c1.16 3.735 7.857 8.242 15.583 3.09m-10.824 1.678c-4.123 6.053 4.12 11.72 14.037 2.704m-9.14 4.768c1.672 8.5 5.02 15.326 17.125 4.38m-6.054 4.372c4.38 5.41 11.077 8.757 17.386-.386M387.248 188.832c-.387 6.44.9 9.658 5.923 9.4 3.96-.202 7.728-3.348 9.918-6.696m-10.816 6.704c-.13 7.34 5.663 13.136 16.483 5.667m-11.98 2.957c-2.06 5.538 4.12 14.552 16.227 9.916m-41.85-24.596c-.77 7.083 5.797 11.848 16.357 2.704m-11.206 5.152c.387 5.795 6.953 12.75 16.614 2.704m-11.982 4.64c-.773 9.916 8.37 12.75 16.097 5.15M367.16 200.04c2.06.13 3.733-1.674 4.763-2.962m-.387 10.17c1.803.386 4.897-1.288 5.927-3.348m-1.415 15.068c2.06 2.19 9.014.644 9.914-2.318m-2.186 2.19c3.863 9.014 14.163 8.628 18.414-1.545m-1.934 3.61c1.93 5.28 6.827 8.627 14.81 6.824m-10.946-1.418c-4.507 7.34 1.417 15.97 11.46 7.47m-9.012 3.474c-.513 4.636 3.737 9.916 9.53 10.56m-28.594-24.08c-1.547 10.43 5.923 15.454 15.326 9.916m-26.27-4.892c2.447 1.932 6.827 2.19 10.946.644m5.022 6.052c-2.32 8.758 6.697 15.068 14.423 5.28m-26.91-10.56c.13 4.507 4.51 9.4 12.106 7.984m21.246 9.016c-5.153 3.477-6.183 9.658 1.03 13.65m-13.654-15.458c.26 5.28 2.707 8.242 8.5 8.757m-16.092-11.46c-7.727 7.082-.13 15.325 9.014 8.37m-3.606 2.19c-2.577 8.113 7.083 13.006 12.234 4.764m-28.202-22.022c-2.833 7.985.773 13.265 7.34 12.75m-17.516-14.294c.387 4.765 4.507 6.44 9.143 5.41m-6.183-.386c-3.477 6.697 1.803 10.302 8.76 7.727m21.12 14.937c-1.16 4.25-.517 7.34 5.793 8.758m-5.41-2.702c-7.6 3.477-8.242 10.818-2.32 15.582m-3.8-23.758c-3.99 3.606-3.22 9.85 1.16 12.298m-34.96-35.802c-4.38 4.315-.192 16.226 9.464 9.724m15.65 5.34c-5.928 4.894-3.22 13.78 6.566 11.333m-16.36-15.07c-3.09 8.76-.126 11.85 6.828 11.978M359.304 236.096c-5.28 3.992-3.863 9.658-1.543 12.234 2.317 2.576 6.694 1.417 8.11-1.93m-17.646-13.776c-5.923 7.598 0 16.613 8.374 13.91m23.314 8.626c-6.053 2.19-10.67 7.686-6.957 12.492 2.19 2.833 11.72 3.22 14.424-7.727m-18.42-11.853c-3.477 5.023-2.32 9.788 4.12 12.234m-4.504-2.826c-3.737 2.06-6.183 4.508-5.28 9.015m-3.088-16.87c-1.417 6.052.257 9.787 3.99 11.59m-4.118-4.383c-5.797-.386-8.757 2.06-6.827 7.727m.515-6.312c-5.667-2.06-6.57-6.954-4.123-12.106m-.773 7.602c-6.183.258-8.886 3.348-8.886 7.598M340.496 229.656c-4.507 1.932-5.923 7.985-4.25 11.333 1.677 3.347 6.957 3.605 10.177 1.415m-18.543-17.51c-4.12 4.637.643 13.652 7.987 11.463m-18.547-15.07c-3.863 5.41.387 14.424 10.303 11.848m.513 25.112c-1.03-6.44 5.667-10.69 13.91-2.318m-3.99-13.002c-2.447 2.19-3.603 5.666-3.22 8.5M306.76 218.2c-4.25 7.212.903 13.78 10.046 11.204m13.778 6.692c-6.053 6.053-3.993 12.106.513 15.582m-4.377-8.494c-9.143.13-9.657 10.69-2.187 14.038m-4.765-24.598c-3.733 2.576-4.893 9.658 1.547 12.492m-1.803 3.348c-3.863-1.803-8.5.386-8.114 4.894m2.314-4.766c-3.477-8.242-13.65-6.825-12.746 1.674m15.578-11.85c-2.187.386-6.567 1.674-8.24 5.023m.648-14.296c-4.12 4.636-.903 10.174 2.447 11.333m-14.68-24.34c-.773 5.537 1.417 8.24 8.37 7.726m-5.93-.64c-2.707 6.698.9 9.66 7.853 9.273m-6.31-1.032c-4.12 4.894-1.286 10.174 2.704 12.363m-4.63-6.18c-7.34-.9-8.5 7.6-6.054 11.59M292.848 215.496c-4.506 1.932-7.08 7.598-4.635 11.075 2.448 3.478 7.342 2.32 10.045.516m-8.498 1.026c-3.734 5.666-.387 9.916 3.607 11.59M275.336 214.848c-2.962 3.09-1.16 9.402 6.053 9.53 5.805.104 8.756-5.41 6.953-9.272m-7.983 9.27c-2.318 5.15-.9 10.69 7.856 9.787m3.736 8.117c-5.41-2.447-12.62 0-9.53 6.44m-.774-15.584c-2.19 3.09-1.417 7.47 1.03 10.174m-1.414-1.934c-3.606.644-7.083 2.576-4.894 8.242m-.522-4.634c-4.636-1.417-10.56 1.932-6.954 6.697m-.766-4.504c-3.992-.644-8.757 3.606-4.894 7.856m-1.546-3.48c-3.606.902-7.856 5.023-4.12 8.242m22.28-28.458c-5.15 2.318-5.667 8.114-3.22 12.363m-2.196-23.052c-7.727 2.962-7.598 13.265.9 16.484m-3.604-2.324c-4.636 2.704-5.538 7.856-2.447 11.204m-5.664-29.228c-3.09 1.03-2.833 10.56 5.41 10.302M255.12 220c-6.182 4.12 1.288 14.552 11.333 7.083m-5.54 2.573c-.902 4.25.257 8.886 7.082 9.402m-6.7-3.73c-4.893 1.803-5.794 11.848 3.09 12.62m-18.665-21.764c-6.31 5.795 5.15 10.818 9.402 2.447m-18.162 7.21c-3.09 3.735 7.727 13.522 12.492-2.833m1.156-.255c.257 3.863 2.576 6.18 7.34 6.44m-.124 3.736c-7.598 1.16-10.045 10.69-1.545 12.75m-12.496-14.038c-.258 3.606 3.477 6.568 7.727 5.924m3.866 7.852c-6.954 1.545-7.856 10.56-1.674 10.045m-3.222 8.372c-5.796-1.738-5.924-8.63-.773-11.204M245.72 267.776c-4.893 2.962-2.962 10.045-.386 11.075 2.575 1.03 4.636-.256 4.894-2.445m-.388 9.915c.515 3.348-11.913 2.06-5.537-8.37m-.07 8.954c-4.186 6.568 2.64 11.912 6.953 6.31m-6.37 1.61c-1.674 5.28 4.7 9.08 8.82 4.96m-22.732-54.416c-2.318 4.765 9.272 6.568 10.045-3.22m-13.262 10.308c-2.318 9.272 15.196 7.34 10.69-4.636m.382 6.18c2.447 1.417 9.788 1.545 11.59-6.31m-5.278 6.566c.515 2.447 2.704 5.41 4.765 6.31m-13.133-3.862c-.773 5.023 4.25 9.144 10.045 8.758m-9.15-3.862c-2.833 3.864-3.735 11.333 5.152 11.848m-18.672-10.56c-1.417 3.992 6.954 8.114 11.848 1.545m-14.424 8.623c-.71 3.027 6.825 7.083 11.075-5.795m-3.348 6.572c1.803 3.22 7.856 5.795 11.59-.515m-6.054 3.867c-1.545 4.507 2.705 8.757 7.856 7.47m-17.512-8.502c-1.03 6.44 6.44 10.174 11.075 6.825m-15.97-3.993c-2.19 8.242 8.37 11.333 12.362 5.15m-2.7 2.45c.387 4.636 7.6 8.628 13.265 4.765M217 290.447c-.515 2.06 8.114 4.12 9.4-3.09m-4.376 4.89c2.06 5.28 9.014 6.568 13.007.13m-2.318 2.574c.902 4.894 7.212 7.598 12.75 4.25m2.314 1.934c-1.416 6.568 5.41 11.848 9.658 8.242m-20.602-9.402c-2.06 7.212 6.954 11.333 11.977 7.34m-22.794-10.948c-.515 6.697 4.765 10.69 10.818 7.727m-22.282-7.08c-1.803 4.38 7.727 7.986 12.234 4.25m-18.162 7.727c2.447 2.833 10.946 0 11.72-6.31m-2.312 4.63c3.09 3.606 10.43 5.538 13.394-2.19m-2.578 3.998c-.13 5.538 9.788 9.53 13.007-.644m11.65 1.996c-.903 2.705 1.223 7.018 5.665 7.533m-13.842-9.205c-.644 3.09 3.864 7.404 8.63 5.666m.906 1.286c-1.288 3.348-.194 8.177 4.314 8.113M255.312 322c-3.348 2.833-1.932 7.856 2.898 8.05m-4.634-3.29c-4.765 3.218-3.09 10.302 3.22 9.918m-17.644-23.566c0 6.954 8.628 7.984 10.302 1.545m-3.35 4.12c-1.288 4.12 2.06 8.113 7.34 6.953m-6.308 42.758c1.16 1.677 5.924-1.157 4.636-3.99-1.287-2.833-6.335-1.293-5.795 1.673m4.63-2.834c.645-5.667-6.052-6.567-7.726-1.673m2.448-2.83c1.674-2.834-3.992-6.698-6.31-2.578m2.062-1.68c1.545-4.122-4.894-5.922-5.41-2.19m-1.414-5.41c.773-2.06 7.985-.772 4.894 3.478m5.538 5.155c2.833-2.577-1.93-7.857-4.894-5.923m23.95 13.78c-2.254.256-4.573 1.736-2.898 6.502 1.16 3.307 6.117 3.477 6.825 1.48M260.464 365.848c-2.19-1.417-6.954.967-4.765 5.603 1.647 3.49 5.794 2.06 6.44.258m-13.98.772c1.094 1.93 6.567 1.097 7.533-1.03m-3.797-5.346c1.16-.773 3.283.19 3.735 1.157m-4.118-32.9c-3.735 2.447-1.417 9.917 4.38 7.983m-5.54-1.927c-2.962 2.317-.258 9.53 5.28 6.827m-4.376-.003c-2.06 2.06-.065 7.79 5.28 6.697m-6.056-3.865c-1.16-.517-4.186-.13-5.474 1.8m2.13-27.88c-2.833 2.704-1.48 8.243 3.8 8.693m-4.832-3.03c-4.057 1.998-4.057 10.044 4.056 10.367m-4.376-1.286c-2.253 1.803-1.16 8.757 4.636 7.853m-2.772-.254c-.838.837-.967 2.963-.258 3.863m-2.318-6.504c-2.06.063-4.765 1.547-5.474 3.67m-3.734-7.47c.773-2.06 7.148-1.93 7.598 4.123m.642-7.212c-.902.193-2.64 1.03-3.09 2.77m.322-21.634c-2.77 2.51-4.12 10.432 4.314 11.976m-9.914 4.376c0-2.127 5.73-3.93 7.727-.773m-11.4-10.755c.838 1.61 4.83 3.8 7.277 1.997m-28.012-14.613c-.128 3.735 2.962 7.083 7.212 6.568 4.25-.515 5.15-4.25 3.863-6.697m-3.22 6.825c-2.832 3.477.645 8.37 3.864 6.954m-.64-9.402c1.675-.644 7.213-1.417 8.887 1.16m-26.79-.128c-1.288 1.932 6.697 3.864 9.4.13m-2.704 1.926c-.258 2.576 1.03 6.954 7.598 5.15M219.832 326.632c1.03-2.19-3.864-5.795-7.598-1.803-3.735 3.99.515 8.5 2.833 6.952m-12.363-13.774c-1.932 3.348 5.538 9.466 9.788 3.8M197.744 323.8c-2.704 2.77.644 7.857 4.7 6.31 4.057-1.545 3.67-5.795 2.706-6.89M192.528 328.952c-2.19 1.995-.065 6.695 2.962 6.695 3.026 0 4.894-2.38 4.314-5.406m5.02-1.672c-.387 2.962 3.992 5.022 6.825 2.255m.134-5.415c.386-.644.065-1.74-.58-2.254m-23.372 9.79c-2.51 1.997 2.898 7.533 6.31 2.447m13.066-3.542c-1.61 1.543.965 5.6 3.54 4.377m-12.356-1.545c.386 2.767 5.795 4.827 9.208.58m-6.248 2.188c-.837 1.74.838 4.51 2.898 4.123m48.358 11.79c-1.995 3.927 4.38 8.5 9.015 3.733m-4.383 2.123c-.965 2.123.194 5.087 1.932 6.18m-7.98-1.74c.45-1.933 3.22-3.737 5.73-2.833m-9.082-2.255c.386-1.737 2.704-3.477 4.443-3.023m147.197-77.337c-9.143.13-5.28 14.81 2.577 11.848m-5.537-1.024c-1.803 2.962 1.673 7.663 5.537 4.894m-1.025.578c-2.707 4.507 6.953 11.397 10.817 4.314m-3.09 2.702c.127 4.25 12.49 6.954 10.69-1.545m-1.162 4.633c2.96 5.022 14.037 5.538 12.877-1.932m-2.445 5.156c2.32 3.348 13.137 5.41 12.75-1.546m-56.67-40.822c1.543 3.992 6.823 5.41 12.62 3.09m-15.964-.258c3.607 2.318-1.673 12.878-7.21 8.628m7.21-2.06c3.993 1.932 8.886.515 10.303-5.15m-2.448 4.374c.387 2.962 4.637 5.28 10.174 4.12m-20.094-1.024c5.153 4.38-2.317 13.394-5.667 9.272m7.603-5.928c2.447 1.803 8.757.773 9.4-3.992m-2.832 3.992c.517 3.09 2.963 4.25 6.44 4.38m-14.424-.132c2.573 3.606 9.014 4.636 11.846-.13m-2.838 2.706c-.257 3.477 3.607 6.31 7.6 5.538m-21.632 2.19c3.347 1.674 6.953-4.636 4.12-9.014m-.256 15.71c3.993.258 4.507-5.795.773-9.144m8.37 14.68c3.35-.773 2.318-8.114-5.796-8.758m15.964 14.174c3.22-.902.643-9.015-8.24-8.5m20.48 11.332c2.187-3.348-5.023-9.014-10.946-6.053m16.994 10.685c3.993 1.16 6.697-9.4-5.923-7.727m13.266 7.727c3.48-.9 5.927-7.212-4.247-5.15m11.974 5.67c3.09 1.546 4.507-7.47-4.897-5.022m-47.007-23.058c3.863 2.19 9.917-.386 9.4-5.28m-1.544 4.256c1.29 2.318.773 6.825-1.673 7.984m2.057-2.576c2.577 1.03 6.053.13 8.114-3.992m-3.602 3.992c.77 1.803 1.03 5.41-.647 7.212m1.295-4.124c2.833 1.545 6.18-.515 7.597-3.477m-1.805 2.573c2.06 1.288 3.863 7.34.387 9.788m1.932-2.828c2.447.13 6.053.13 8.37-2.962m-1.674 1.674c2.19.644 4.763 4.25 3.863 7.47m.13-1.166c2.45-.258 6.697-1.932 7.857-4.894m-1.16 1.934c2.062 1.16 3.48 3.606 3.22 6.44m-.005-2.064c2.447-.13 4.637-1.416 5.28-4.12m-.64 1.808c1.803.644 3.993 2.704 4.123 5.15m-.26-1.55c1.804-.258 3.09-1.417 4.25-3.22m4.895-.252c2.32 2.318-.77 10.046-5.537 8.63m-43.92-164.718c-4.766 2.833-18.29 1.932-11.593-9.272m12.882 1.672c-9.4 3.735-20.994-3.477-8.886-11.333m-3.218-2.57c-7.857 0-13.137 12.62-2.573 17m-27.947-11.72c-2.06 3.99 5.28 8.37 10.303 4.378 3.89-3.093 3.605-11.462 1.288-14.682m-15.582 19.83c-2.577 8.5 16.357 9.015 13.394-4.507m-14.426 17.132c.643 6.44 18.16 4.38 12.49-8.63m2.062-3.61c1.417 1.932 5.28 5.28 11.846 4.636m-8.758-13.78c.58 2.318 4.507 4.12 9.53 2.383m-185.25 193.56c-4.443 3.158 2.383 8.115 4.894 2.64m-8.374-.19c-4.442 3.152 2.383 8.11 4.894 2.636m-8.566-.253c-4.444 3.157 2.382 8.114 4.894 2.64m-8.758-.448c-4.25 2.253.708 7.79 5.022 2.897m-9.206-.77c-4.25 2.25.71 7.79 5.023 2.897m16.553-9.537c-.065 3.283 6.182 4.637 8.434-.26m-4.506 3.292c-1.932 2.447 1.61 5.473 3.542 4.377m-11.854-4.834c-.194 2.77 5.215 4.38 7.856 1.353m-4.888 1.55c-1.74 2.253 1.674 5.28 3.863 4.377m-10.43-4.77c.192 2.19 3.282 4.7 6.63 3.284m-4.64-.322c-1.287 1.16-.643 3.867 1.16 4.703m-7.855-4.894c-.515 1.997 2.898 5.54 6.375 3.22m-5.67-.9c-2.06 1.61-1.804 4.057.836 4.377m-5.79-4.633c-.256 1.35 1.483 3.54 3.672 3.283m-14.687-3.41c-2.06 1.092 3.22 6.696 6.503 1.48m-11.59.83c-2.576 1.228 3.8 7.408 6.633 1.098m10.047-1.352c-1.997.45-3.284 3.35-1.61 4.507m-4.894-3.475c-.258 1.16 2.19 3.09 4.186 2.383m-5.858-1.863c-1.932 1.223-.902 4.633 1.353 4.12m-8.24-1.872c-1.804 1.35-.58 4.057 1.93 3.413m1.35-3.604c.064.707 1.673 1.803 3.026 1.353m-12.555-2.514c-2.253.967-2.124 6.633 5.474 3.543M149 353.87c-3.156 1.547-2.125 5.797 4.765 1.74m.58.324c-.838.643-1.74 3.477 1.416 2.38m-7.208-1.036c-1.288 1.16-.45 3.543 2.383 2.64m-9.015-2.248c-2.318 1.353 2.768 3.157 6.182-.45m-4.638 2.122c-1.03 1.03-1.03 4.057 1.674 2.963m-8.242-1.74c-1.545 1.16 1.094 2.708 5.924.58m-3.996 1.093c-1.803 1.48-1.61 3.347 1.03 2.767m-6.374-1.927c-1.996 1.803.9 3.027 4.38 1.543m-4.316.457c-3.413 1.543-1.932 4.377.193 3.283m113.783 6.565c-.79 1.703 1.803 3.09 4.25 2.703 2.35-.37 4.6-2.305 2.833-5.02m.125 3.35c2.318 1.803 6.44-.257 6.44-2.963"/></g><g fill="#fff"><path d="M396.776 103.064c-10.303-5.15-31.68-14.682-37.734-6.954 5.537-2.318 21.764.13 35.157 12.492l2.576-5.538zM403.024 102.52c-11.914-13.878-18.93-10.77-27.497-15.55-8.046-4.493-20.863-5.41-23.346 1.732 11.758-5.726 22.55 3.08 29.18 4.145 9.107 1.462 14.247 8.502 16.91 11.74l4.755-2.067zm44.88-1.776C441.72 86.578 428.5 90.278 422.66 84.26c-8.496-8.757-30.002-16.87-38.89-10.818 19.574-1.03 27.91 13.492 38.377 18.545 7.47 3.606 15.454 11.333 25.757 8.758zM424.728 99.2c-10.56-13.136-26.79-24.726-34.257-20.348 9.788.515 12.878 7.34 19.835 11.72 6.953 4.378 3.863 10.688 14.423 8.628zm-50.232 23.184c-11.077-4.12-32.71-6.18-42.757 6.44 16.742 2.832 41.982 1.287 42.756-6.44zM372.44 127.28c-11.077-5.15-19.726 2.044-30.137 1.03-19.83-1.932-33.997-.773-35.8 8.758 11.334-10.174 30.394-1.803 38.12-3.864 7.727-2.06 36.317-.257 45.33 3.606-4.636-5.666-11.846-7.212-17.513-9.53zm34.768-29.496c-2.573-8.5-2.447-17.514 10.303-16.87-3.22-3.993-15.065-6.053-17 8.886-14.036-10.302-29.362-12.106-32.192-3.22 7.21-6.18 18.413-1.674 31.806 13.523 1.16-.644 4.25-1.932 7.083-2.318zM387.896 109.504c-7.983-5.15-18.803-13.522.13-16.87-8.114-4.38-19.963-2.447-18.674 12.492-21.636-8.758-37.173-5.802-40.44 2.833-3.606 9.53 9.79 14.81 12.107 8.756-2.448 1.03-10.818-1.803-6.44-7.212 4.38-5.408 26.82-1.348 48.165 9.788 5.924 3.09 26.27 2.576 5.15-9.788zM382.224 123.672c-6.16-12.578-26.143-1.16-30.17-13.342-5.504 17.85 28.416 7.972 30.17 13.342zm127.112 13.648c4.19 2.082 7.813-1.19 1.403-3.758 4.193 2.08 7.85-1.114 1.44-3.683 4.193 2.08 7.85-1.114 1.44-3.683-1.71 1.722-4.157 8.032-4.284 11.123zm2.184-24.208c9.274-9.787-.77-13.136 10.56-23.18 9.274-8.22 1.77-13.697 10.563-20.09 2.834-2.06 9.014-6.183 9.53-10.304 3.734 9.272-11.593 10.56-10.563 25.5.657 9.512-5.773 8.68-8.24 24.726-.516 3.348-2.833 10.818-11.85 3.348zM515.648 117.488c5.15-11.075 11.063-10.862 13.906-15.196 5.41-8.242 16.87 1.417 26.53-5.924-1.673 10.43-14.68 6.697-20.346 13.394-5.666 6.696-10.303 9.788-20.09 7.727zM516.936 121.096c9.017-7.212 15.66-2.4 21.894-6.182 15.71-9.53 22.023 1.932 36.06-2.575-3.737 9.013-24.47 1.287-33.484 7.983-9.016 6.697-40.696 13.136-24.47.773zm-26.272 51.384c-.13-4.12-3.993-9.402-9.403-10.045-5.406-.644-7.726-6.31-11.846-6.568-4.12-.257-6.826-8.5-12.493-8.37-5.666.128-7.983 7.47 5.28 14.165 13.267 6.697 27.947 14.424 28.464 10.82zm-16.744 3.48c-5.667.258-6.44 8.5-11.846 8.758 7.466 3.992 12.876-1.803 16.74-6.955l-4.894-1.803zM478.56 176.984c-4.893 4.12-6.31 12.75.773 15.196-4.25-5.86 7.47-8.5 3.864-13.91l-4.637-1.286zM483.448 177.248c-3.863 7.47 6.053 8.37 3.477 14.038 5.666-1.288 6.57-11.977 1.416-14.81l-4.892.772zM445.584 161.272c9.274-.515 17.754 4.5 23.44 12.62 3.607 5.152 15.71 7.212 19.834 3.09 4.12-4.12 1.803-12.877-8.5-10.043-2.577-4.38-10.047-2.835-13.65-6.44-3.607-3.606-17.518-13.91-21.124.772zM480.36 166.944c-2.447.515-3.22 4.765-1.677 6.954m6.957-4.378c.773 1.288.257 3.09-.13 3.992m-25.238-11.848c4.763.258 5.667 3.735 10.817 5.023"/><path d="M457.12 149.944c16.457 4.12 29.514 7.727 37.61 12.363 8.097 4.637 20.634 5.924 31.604 2.834 10.97-3.09 32.123-5.923 31.08 7.728 5.75-6.826-1.567-14.167-16.194-15.455.263-6.696-6.903-12.75-12.057-8.757 4.767-.644 8.88 8.242-.52 11.848 1.827-6.697-4.833-12.75-11.753-9.788 4.44 1.288 8.93 8.734-1.004 11.59-6.27 1.804-15.41-.514-22.2-4.635-6.79-4.12-44.923-19.06-36.566-7.726zM498.648 143.248c-5.15 2.318-1.803 7.727-9.786 10.818-7.987 3.09-13.524 10.173-11.72 16.226 5.41-11.848 14.94-11.333 18.286-15.97 3.35-4.635 8.243-11.46 3.22-11.074zM500.064 144.016c-.257 9.4-7.657 5.976-4.767 19.19.904 4.12 2.577 10.816-.256 17.513 8.307-6.053 2.964-18.77 6.697-23.568 1.804-2.318 4.12-5.924 5.024-9.014-1.933 5.408-1.803 15.454 3.477 18.03-4.25-10.046 11.464-18.288.644-29.878-1.543 2.833-6.44 7.855-10.816 7.727zm-26.272-9.4c1.29 1.932 2.577 6.826 1.417 9.53 2.575-1.545 6.312-5.537 7.47-8.242 5.28.773 7.34 7.34 2.32 10.174 3.09 0 8.37 0 11.33-3.477-3.604-3.992-14.807-10.174-22.538-7.984zM393.688 116.144c-.833-.76-2.24-1.48-4.763-2-7.797-1.6-3.77-8.627 2.866-8.564 14.164-15.454 22.118-3.54 39.375-8.435 6.04-1.712 10.186-1.206 13.477.217 7.726-5.15 16.79-3.712 23.36 2.34.73-1.16 1.71-2.046 3.086-2.43 6.05-1.68 10.944 3.48 12.617 10.177 4.717-.875 10.103 1.46 13.647 4.68 4.906-2.52 8.286-2.633 9.53-.04 4.38-2.062 10.054-3.354 12.886 3.6 2.834 6.954-6.696 4.894-8.243 19.575-.953 9.057-11.073 12.62-19.06 7.212-12.773-8.653-25.24-10.045-31.423 3.09-6.18 13.137-11.023 20.77-26.014 16.485-5.406-1.546-12.363.515-16.74 6.44-4.38 5.923-11.076.385-19.06 1.03 10.044-1.546 6.197-4.073 14.94-4.637 7.984-.515 5.924-7.984 11.074-9.015-20.09 5.152-19.317-2.318-35.8 2.833 7.21-9.272 18.543-4.12 24.21-9.53-14.94-.257-21.62-10.017-28.333-5.923-10.56 6.44-5.928 24.772-33.484 23.18-13.394-.772-21.894 1.03-29.877 9.016 13.91-28.847 32.83-13 41.982-22.15 5.41-5.41 9.53-9.53 12.363-14.682.997-1.814 2.347-2.85 4.033-3.25-22.923-7.213-9.06-18.447 13.35-19.22zM506.872 112.088c.35.724.53 1.664.53 2.826 0 5.666-8.5 5.924-9.014 14.295-.27 4.378-.773 6.825-3.736 6.31-2.96-.516-5.537-5.15-2.704-10.56"/><path d="M397.936 107.704c-2.133-1.5-4.267-2.108-6.18-2.126m52.836-8.258c6.82 2.953 10.146 10.037 20.054 10.384 9.536.335 15.456 14.166 31.423 5.15.432-.243.855-.47 1.265-.682M468 99.704c-1.423 2.263-1.747 5.423-1.357 8.195m-29.81 20.924c-12.104 0-15.198 6.18-15.198 12.106 0 5.924 5.667 13.65 15.714 13.65 10.042 0 15.452-6.18 15.452-12.878 0-6.697-6.183-12.878-15.97-12.878zM439.016 154.32c-.257-3.348-6.31-2.833-6.053-5.41.256-2.575 3.35-3.605 3.35-7.21s5.406-3.864 7.21-1.03c1.803 2.832 7.213 8.37 8.373 5.537m-8.368-5.535c-2.833 2.833-4.12 8.628-.387 13.136m4.252-8.76c-.9 1.932-1.157 4.894-.127 6.697"/><path d="M495.488 135.584c9.466.773 11.077-9.66 3.993-10.302m-15.64-17.834c-3.283-4.185-10.817-5.602-10.946 3.284" fill="none"/><path d="M471.992 120.84c-3.22-7.985-11.463-9.144-15.843-5.15-3.645 3.32-3.735 11.975 4.122 13.78 2.704-3.22 7.984-7.47 11.72-8.63zm-3.544-5.024c-4.637-4.12-11.463 3.67-5.28 10.818m-82.92 8.694c3.103-.737 7.64.782 14.597 4.054 4.38 2.06 17.517 6.44 25.757 2.06-8.5 3.09-14.937-9.787-21.377-8.242-6.44 1.546-18.223 3.928-23.18-.773 12.103.773 18.613-8.817 32.45-.515 3.867 2.318 8.76 3.864 13.137 3.606-11.33-13.65-26.27-4.894-27.817-15.97 6.827 7.342 23.503-1.673 32.003 12.107m-29.554-10.047c-1.593-1.983-.873-3.96-2.583-5.524"/></g><path d="M483.84 107.448c-2.833-3.026-9.014-.644-7.277 5.474 1.354-2.833 4.25-5.216 7.277-5.474zm-17.512 16.496c1.95-1.416 3.963-2.58 5.66-3.105-.927-2.293-2.263-4.022-3.807-5.23-1.472-1.017-5.705 4.676-1.852 8.334z" stroke="none"/><path d="M458.72 113.496c-4.637-3.09-8.886-2.833-10.303-.257-3.347-.13-6.117 2.317-6.247 7.21m7.15 2.062c-5.537-3.8-13.137-2.382-12.62 6.118m-3.348 4.826c2.703-2.19 6.567-3.735 9.53.13m31.814-8.498c-1.03 1.416-1.803 3.606-.13 6.954-2.06-2.704-7.21-2.704-12.75 4.507m25.112-11.846c-6.697.773-6.567 5.15-1.16 7.083m-46.488-23.443c-5.667-1.16-9.786 2.19-1.93 5.023m12.746-8.887c-7.987-1.932-11.206.13-7.6 1.932m-15.456 30.14c-.257 2.833 1.287 6.568 5.923 2.318m-4.37 6.178c0 .773-.13 1.674-.648 2.318m-17.905-40.054c-4.893-1.417-5.793-5.924-.127-5.538m-1.545 15.97c-5.41-1.803-5.41-7.083-.903-6.568m10.95 3.864c-6.31-1.546-6.566-5.924-1.8-5.28m2.57-8.112c-3.348-.257-8.5 3.477.13 5.667m9.277 1.805c-7.857-1.16-7.727 2.06-3.093 4.12m9.012-11.592c-6.053-1.16-8.114 2.447-3.993 3.992m-15.064 18.288c-1.483-1.223-2.703-7.083 4.377-5.344m10.303 3.544c-4.763-1.288-9.27 3.348-4.893 6.053m11.197-11.588c-5.02-.902-9.27.515-6.567 2.318" fill="none"/><path d="M483.568 107.448c-2.83.524-5.367 2.187-7.01 5.472" fill="#fff"/></g></svg>