<svg xmlns="http://www.w3.org/2000/svg" height="480" width="640" viewBox="0 0 640 480"><defs><clipPath id="a"><path fill-opacity=".67" d="M0 0h682.6v512H0z"/></clipPath></defs><g fill-rule="evenodd" clip-path="url(#a)"><path fill="#b20000" d="M0 0h960.102v318.853H0z"/><path fill="#429f00" d="M0 318.853h960.102V480H0z"/><path fill="#fff" d="M0 0h106.296v480H0z"/><g fill="#b20000"><path d="M5.057 8.14h5.062v8.137H5.056zm15.522.542h15.185v8.137H20.58zm6.066-8.14h5.062V8.68h-5.06zm25.65-.542h5.062v8.137h-5.063zm21.927 8.14H89.41v8.137H74.222zm6.42-7.597h5.06V8.68h-5.06zM15.185 16.275H25.31v8.137H15.185zm16.196 1.085h10.126v8.137H31.38zm36.44 0h10.123v8.137H67.82zm17.542 0h10.124v8.137H85.363zm-69.858 8.137h10.124v8.136H15.504zm20.597.543h10.125v8.136H36.1zm27 0H73.22v8.136H63.1zm26.983 0h10.124v8.136H90.083zM103.58 9.767h5.06v8.137h-5.06zM12.132 32.006h10.124v8.136H11.458zm29.364 1.628h10.123v8.136H40.822zm52.984 0h10.124v8.136H93.806zM19.547 59.123h10.124v8.138H16.178zm-.32 9.765h10.125v8.134H15.858zm20.58-7.595h10.124v8.137H36.44zm-3.71 7.595h10.125v8.134H32.73zm-10.464 8.677H37.45V85.7H22.263zM25.3 81.36h5.06v8.137H25.3zm37.125-18.98h10.123v8.135H62.426zM72.2 67.26h10.125v8.134H69.84zm20.58-7.595h10.123v8.137H90.42zm-3.71 7.595h10.123v8.134H86.71zm-10.466 8.677H91.43V85.7H76.244zM75.927 81.36h5.06v8.137h-5.06zm-20.262-2.71h5.063v8.135h-5.063zm-52.297-.543H8.43v8.136H3.368zm97.858 0h5.06v8.136h-5.06zm-69.19 40.678h5.06v8.136h-5.06zM20.243 122.038h15.185v8.136H20.243zm-3.71 16.272h25.31v8.135h-25.31zM76.6 123.124H82v8.135h-5.063zM70.854 122.038H86.04v8.136H70.855zm-.34 16.272h25.308v8.135H70.514zm4.72 41.22h25.31v8.136h-25.31zm-9.777-29.83h35.432v8.137H65.456zm-51.3-2.17h35.43v8.137h-35.43zm1.7 40.678h15.187v8.136H15.858zm-4.732-5.424h25.308v8.136H11.125zm70.53-16.813h25.31v8.136h-25.31zm-.338 23.323H96.5v8.135H81.318zM20.243 187.122h5.06v8.138h-5.06zm62.088 12.475h5.062v8.137h-5.06zm-76.94-32.542H30.7v8.136H5.39zm40.166 14.102H60.74v8.136H45.557zm8.088 9.22h5.063v8.136h-5.063zm-14.847-23.864h35.43v8.136h-35.43zm19.23-123.66h10.125v8.136H58.028zM45.556 40.683H60.74v8.135H45.557zM40.486 48.818H50.61v8.138H40.485zm17.878 3.255H68.49v8.137H58.363zm-54.66-8.136H13.83v8.136H3.704zM5.057 48.818h10.125v8.138H5.057zm91.45-4.88h10.122v8.135H96.505zm1.005 7.593h10.124v8.138H97.512zM5.727 125.836h5.06v8.135h-5.06zm95.162 4.88h5.06v8.137h-5.06zM59.03 195.26h15.185v8.138H52.293zM40.486 195.26H50.61v8.134H40.485zm17.878 13.016H68.49v8.136H58.363zm-19.23 8.136h10.122v8.135H39.133zm23.965.542H73.22v8.136H63.1zM30.37 211.528h10.125v8.138H30.37zm37.45 14.102h10.123v8.137H67.82zm-38.142 8.137h10.124v8.136H29.68zm42.86.543h10.126v8.136H72.538zM15.185 227.8H30.37v8.136H15.186zm61.752 15.187h15.185v8.136H76.937zM86.04 219.666h10.124v8.135H86.04zm10.798 6.507h10.124v8.137H96.838zM96.17 203.394h10.123v8.136H96.17zm-79.656 29.83h10.124v8.137H16.514zM.004 227.26h10.125v8.136H5.73zM0 203.394h10.124v8.136H0zm20.243 46.102h5.06v8.135h-5.06zm62.088 2.17h5.062v8.135h-5.06zm-26.33-24.41h5.064v8.14H56zm-17.203 22.782h5.06v8.135h-5.06zm29.36 1.627h5.06v8.136h-5.06zm-13.166 0h5.064v8.136H54.99zm-51.622 0H8.43v8.136H3.368zm97.858 0h5.06v8.136h-5.06zM64.086 137.767h5.062v8.136H57.35zM25.298 41.226h5.06v8.134h-5.06zm48.943-5.425h5.062v8.136h-5.06zm-27 56.948h15.185v8.138H50.61zM35.428 105.767h15.184v8.137H35.43zM40.486 113.903h5.06v8.136h-5.06zm-7.42-8.678h10.123v8.137H33.064zM35.428 89.497h15.184v8.135H35.43zM40.486 81.36h5.06v8.137h-5.06zm17.878 13.56H73.55v8.136H58.364zM60.74 81.36h5.063v8.137H60.74zm9.1 21.695h10.125v8.138H69.84zM55.67 105.767h15.184v8.137H55.67zM60.74 113.903h5.063v8.136H60.74zm24.286-8.678H95.15v8.137H85.026zM86.04 89.497h15.186v8.135H86.04zM96.17 97.63h10.123v8.14H96.17zM86.04 105.767h15.186v8.137H86.04zM91.11 113.903h5.064v8.136H91.11zm6.065-24.95h5.063v8.138h-5.063zm-91.11 14.102h10.123v8.138H6.064zM5.057 89.497h15.186v8.135H5.057zM15.185 97.63H25.31v8.14H15.185zM5.057 105.767h15.186v8.137H5.057zM10.114 113.903h5.06v8.136h-5.06zm.673-24.95h5.06v8.138h-5.06zM5.73 149.7h20.247v8.135H5.73zm24.977 4.338h20.247v8.136H30.707zm26.984 0h20.25v8.136H57.69zm26.998 0h20.247v8.136H84.688zm-38.813 16.27h25.31v8.138h-25.31zm-38.123 1.085H33.06v8.137H7.752zm68.51 0h25.31v8.137h-25.31zm30.017 32.543h5.06v8.136h-5.06zm-99.543 2.17h5.06v8.136h-5.06zm-1.68 276.61h5.062v-8.135H5.056zm15.522 18.44h15.185v-8.135H20.58zM25.3 479.997h5.06v-8.135H25.3zm26.995 32h5.063v-8.136h-5.063zm21.928-8.128H89.41v-8.137H74.222zM75.927 479.997h5.06v-8.135h-5.06zM25.292 527.73h10.123v-8.136H20.24zm11.14-1.085h10.126v-8.136H31.38zm36.44 0h10.123v-8.136H67.82zm17.542 0h10.124v-8.136H85.363zm-44.544-8.14H50.94v-8.135H40.82zm22.28-.542h10.124v-8.136H63.1zm26.985 0h10.124v-8.136H90.083zm11.813 16.28h5.06v-8.137h-5.06zm-90.438-23.323h10.124v-8.136H11.458zM40.486 447.462H50.61v-8.135H40.485zm53.32 29.83h10.124v-8.135H93.806zm-77.628-24.405h10.124v-8.137H16.178zm-.32-9.767h10.125v-8.135H15.858zm20.58 7.597h10.124v-8.137H36.44zm-3.71-7.597h10.125v-8.135H32.73zm-10.464-8.682H37.45v-8.136H22.263zM25.3 398.648h5.06v-8.135H25.3zm37.125 50.985h10.123v-8.138H62.426zm7.415-6.513h10.125v-8.135H69.84zm20.58 7.597h10.123v-8.137H90.42zm-3.71-7.597h10.123v-8.135H86.71zm-10.466-8.682H91.43v-8.136H76.244zM75.927 398.648h5.06v-8.135h-5.06zM60.718 459.93h5.063v-8.135h-5.063zm-52.297.542H8.43v-8.136H3.368zm97.858 0h5.06v-8.136h-5.06zm-69.19-40.673h5.06v-8.138h-5.06zM20.243 357.975h15.185v-8.138H20.243zm-3.71 15.726h25.31v-8.137h-25.31zM76.6 388.884H82v-8.138h-5.063zM70.854 357.975H86.04v-8.138H70.855zm-.34 15.726h25.308v-8.137H70.514zm4.72-41.216h25.31v-8.138h-25.31zm-9.777 29.822h35.432v-8.136H65.456zm-51.3 2.17h35.43v-8.137h-35.43zm1.7-40.674h15.187v-8.14H15.858zm-4.732 5.427h25.308v-8.138H11.125zm70.53 16.81h25.31V337.9h-25.31zm-.338-23.323H96.5v-8.137H81.318zM4.716 343.87h25.31v-8.138H5.053zm40.503-14.64H60.74v-8.138H45.557zm8.088-9.224h5.063v-8.138h-5.063zm-14.847 23.864h35.43v-8.138h-35.43zm19.23 123.66h10.125v-8.135H58.028zm-8.766-.004h15.186v-8.135H49.26zm-5.743-8.68H53.64v-8.138H43.518zm14.847-.543H68.49v-8.137H58.363zm-54.66 8.138H13.83v-8.135H3.704zm1.353-7.595h10.125v-8.138H5.057zm91.45 7.594h10.122v-8.134H96.505zm1.005-7.594h10.124v-8.138H97.512zM5.727 386.178h5.06v-8.137h-5.06zm95.162-4.88h5.06v-8.137h-5.06zM53.96 308.62h10.124v-8.138H47.222zm11.142-4.882H68.49V295.6H58.363zm-19.23-8.14h10.122v-8.137H39.133zm23.965-.542H73.22v-8.137l-10.122-.002zm-28.687-8.14h10.124v-8.137H34.413zm33.406-.542h10.123v-8.138H67.82zM25.3 260.348h10.123v-8.138H25.3zM74.22 295.06h10.126v-8.137H72.538zm-52.637-8.14h15.186v-8.137H19.9zm57.037-.542h15.185v-8.137H76.937zm14.157 8.14h10.123v-8.138H91.094zM91.11 268.476h10.125v-8.138H91.11zm11.123 26.037h10.124v-8.137h-10.124zm-85.72-15.724H26.64v-8.14H16.514zM5.057 268.476h10.125v-8.138H5.057zM.674 312.41H10.46v-8.137H.338zm19.906-32h5.06v-8.136h-5.06zm31.716 22.234h5.062v-8.137H51.96zM56 377.5h5.063v-8.137H53.98zm-25.312 87.314h5.06v-8.135h-5.06zm48.943 5.423h5.062v-8.135h-5.06zm-27-56.94h15.185v-8.137H50.61zm-12.15-11.937h15.184v-8.135H38.46zm4.383-8.68h5.06v-8.138h-5.06zm-9.778 15.735H43.19v-8.136H33.064zM35.428 390.51h15.184v-8.137H35.43zm7.415 34.172h5.06v-8.135h-5.06zm15.52-7.596H73.55v-8.136H58.364zm6.083 7.596h5.062v-8.135h-5.062zM65.798 382.38h10.124v-8.135H65.798zm-5.75 17.353h15.185v-8.135H60.05zm4.398-8.68h5.062v-8.138h-5.062zm20.58 15.735H95.15v-8.136H85.026zM86.04 390.51h15.186v-8.137H86.04zM96.17 382.38h10.123v-8.135H96.17zm-3.73 17.353h15.186v-8.135H92.44zm4.398-8.68h5.063v-8.138H96.84zm.337 32.002h5.063v-8.135h-5.063zm-91.11-14.098h10.123v-8.135H6.064zM5.057 390.51h15.186v-8.137H5.057zM15.185 382.38H25.31v-8.135H15.185zM7.08 425.226h15.185v-8.135H6.068zm4.382-8.68h5.062v-8.138H10.45zm.337 32.002h5.06v-8.135h-5.06zm-5.056-62.91h20.247v-8.138H5.73zm24.977-4.34h20.247v-8.136H30.707zm26.984 0h20.25v-8.136H57.69zm26.998 0h20.247v-8.136H84.688zM47.56 339.528h25.31v-8.137h-25.31zm-38.123-1.085H33.06v-8.137H7.752zm68.51 0h25.31v-8.137h-25.31zm30.017-32.535h5.06v-8.137h-5.06zm-99.543-2.17h5.06V295.6h-5.06zm38.82-40.682h5.06v8.138h-5.06zm13.145-2.712h5.06v8.137h-5.06zm.673-16.27h5.06v8.134h-5.06zM49.26 241.9h5.062v8.136h-5.06zM12.474 462.65H23.27v8.136H13.146zm68.51-139.937h5.062v-8.137h-5.06zM30.35 302.103h5.062v-8.137h-5.062zm21.27-8.132h15.183v8.135H46.9z"/></g></g></svg>