<svg xmlns="http://www.w3.org/2000/svg" xmlns:xlink="http://www.w3.org/1999/xlink" height="480" width="640" viewBox="0 0 640 480"><defs><radialGradient id="a"><stop offset="0" stop-color="#ffef5d"/><stop offset="1" stop-color="#ea5700"/></radialGradient><radialGradient id="b"><stop offset="0" stop-color="#952d1a"/><stop offset="1" stop-color="#570a00"/></radialGradient><radialGradient xlink:href="#a" id="c" gradientTransform="scale(1.226 .816)" cx="247.075" cy="238.328" fx="247.075" fy="238.328" r="35.95" gradientUnits="userSpaceOnUse"/><radialGradient xlink:href="#a" id="d" gradientTransform="scale(.936 1.068)" cx="321.991" cy="152.954" fx="321.991" fy="152.954" r="10.578" gradientUnits="userSpaceOnUse"/><radialGradient xlink:href="#b" id="e" gradientTransform="scale(1.224 .817)" cx="364.21" cy="237.789" fx="364.21" fy="237.789" r="36.034" gradientUnits="userSpaceOnUse"/><radialGradient xlink:href="#b" id="f" gradientTransform="scale(.956 1.046)" cx="468.154" cy="156.129" fx="468.154" fy="156.129" r="10.739" gradientUnits="userSpaceOnUse"/></defs><path fill="#ce1126" d="M0 0h640v480H0z"/><path fill="#003f87" d="M0 34.285h640v411.427H0z"/><circle cx="320" cy="240" r="188.572" fill="#fff"/><circle r="156.3" cy="239.04" cx="320" stroke="#552300" stroke-width="3.939" fill="none"/><path d="M301.942 73.19c14.136-15.165 26.918 2.354 26.577 10.563-.342 8.21-14.6 26.32-27.5 11.745 13.364 3.422 17.36-11.523 24.12-11.67-6.76.148-9.524-14.65-23.198-10.636zm-147.14 118.925c-7.43-19.298 14.06-22.902 21.32-18.96 7.265 3.94 17.3 24.653-1.58 29.67 9.014-10.373-2.712-20.552.15-26.63-2.862 6.078-17.452 1.977-19.89 15.92zM471.95 173.03c19.36 7.59 7.532 25.754-.303 28.41-7.834 2.657-30.006-3.977-20.987-21.19 1.624 13.604 17.11 11.89 19.695 18.092-2.588-6.2 10.31-14.113 1.593-25.312zM218.796 377.414c-20.713-2.06-14.324-22.737-7.52-27.413 6.808-4.676 29.963-4.295 26.016 14.706-5.3-12.647-19.726-6.808-23.918-12.073 4.19 5.265-6.044 16.368 5.422 24.78zm209.337-14.966c.296 20.656-21.132 16.712-26.59 10.534-5.456-6.178-7.71-29.05 11.76-27.324-12.055 6.667-4.57 20.226-9.362 24.958 4.794-4.732 17.076 4.095 24.193-8.167zM169.894 152.87c-1.89-20.573 19.782-18.267 25.698-12.522 5.916 5.746 9.928 28.382-9.62 28.138 11.51-7.563 2.998-20.514 7.413-25.597-4.414 5.083-17.34-2.786-23.49 9.98zm22.196 193.008c-20.527-3.443-12.745-23.645-5.637-27.857 7.11-4.208 30.187-2.276 24.955 16.417-4.43-12.976-19.22-8.115-23.043-13.65 3.824 5.536-7.142 15.93 3.724 25.09zm162.2-271.836c18.642-9.195 24.32 11.687 21.064 19.24-3.255 7.555-23.065 19.46-29.91 1.285 11.267 7.91 20.352-4.65 26.724-2.407-6.372-2.244-3.66-17.052-17.877-18.118zM393.96 388.31c-9.24 18.512-26.49 5.292-28.5-2.678-2.012-7.97 6.508-29.34 23.035-18.978-13.794.465-13.373 15.923-19.814 17.96 6.44-2.038 13.305 11.38 25.28 3.696zm90.52-178.665c15.662 13.61-1.638 26.767-9.913 26.653-8.278-.113-26.91-13.763-12.58-26.962-3.082 13.352 12.08 16.91 12.414 23.61-.337-6.7 14.492-9.846 10.077-23.3zM221.503 100.838c4.674-20.132 24.537-11.23 28.354-3.938 3.815 7.29.508 30.037-17.986 23.753 13.31-3.62 9.298-18.56 15.09-22.02-5.792 3.46-15.6-8.02-25.457 2.206zM159.94 273.34c-18.24-9.957-4.19-26.49 3.918-28.144s29.258 7.71 18.116 23.654c.123-13.695-15.455-13.942-17.23-20.416 1.775 6.475-12.027 12.705-4.805 24.907zm263.548-159.6c20.604-2.96 19.43 18.636 13.962 24.804-5.468 6.168-28.032 11.344-28.822-8.042 8.22 11.005 20.8 1.884 26.15 5.99-5.35-4.106 1.883-17.333-11.29-22.75zM306.3 408.115c-19.005 8.43-23.815-12.667-20.25-20.083 3.566-7.413 23.853-18.5 29.94-.063-10.933-8.364-20.53 3.816-26.803 1.315 6.274 2.5 2.952 17.183 17.114 18.83zm170.535-115.238c8.582 18.822-12.653 23.695-20.14 20.192s-18.756-23.583-.207-29.71c-8.374 10.887 3.945 20.35 1.453 26.59 2.493-6.24 17.305-3.01 18.895-17.072zm-325.16-60.624c-11.94-16.924 8.02-25.608 16.03-23.538 8.012 2.068 22.827 19.735 5.74 29.16 6.2-12.237-7.67-19.28-6.382-25.866-1.288 6.585-16.444 6.13-15.39 20.243zm112.29 163.344c-19.536 7.136-22.9-14.238-18.837-21.395 4.062-7.16 25.056-16.86 29.875 1.943-10.34-9.077-20.74 2.434-26.83-.483 6.09 2.915 1.773 17.34 15.792 19.934zM258.33 81.54c11.575-17.17 26.956-1.847 27.913 6.313.956 8.16-10.275 28.26-25.315 15.864 13.74 1.31 15.334-14.072 21.987-15.266-6.653 1.194-11.712-12.992-24.585-6.91zM458.5 333.716c1.25 20.623-20.34 17.655-26.074 11.73-5.737-5.925-9.043-28.674 10.49-27.83-11.74 7.205-3.635 20.412-8.205 25.356 4.57-4.943 17.247 3.317 23.79-9.255zm-5.31-194.438c20.407 4.088 11.98 24.036 4.74 28.02-7.24 3.982-30.242 1.323-24.415-17.197 4.01 13.11 18.95 8.718 22.594 14.37-3.645-5.65 7.65-15.693-2.92-25.193zm-258.432-14.535c.198-20.66 21.526-16.21 26.832-9.904 5.307 6.307 7.014 29.227-12.41 27.04 12.213-6.38 5.052-20.113 9.958-24.73-4.906 4.617-16.972-4.496-24.38 7.595zm-25.804 186.212c-18.573-9.334-5.1-26.334 2.95-28.26 8.046-1.926 29.504 6.716 18.92 23.027-.35-13.693-15.928-13.41-17.924-19.82 1.997 6.41-11.583 13.104-3.946 25.054zM392 91.014c19.476-7.296 23.017 14.046 19.017 21.24-4.002 7.19-24.914 17.066-29.89-1.697 10.413 8.99 20.72-2.605 26.833.262-6.115-2.868-1.92-17.33-15.96-19.806zm-41.338 314.788c-15.146 14.203-26.69-4.125-25.787-12.293.904-8.17 16.372-25.304 28.24-9.908-13.098-4.296-18.11 10.355-24.865 10.056 6.756.297 8.496 15.246 22.41 12.144zm132.71-157.997c14.21 15.1-4.33 26.47-12.553 25.534-8.225-.936-25.385-16.372-9.795-28.08-4.414 12.98 10.31 18.028 9.967 24.728.344-6.7 15.416-8.357 12.38-22.183z" fill="#007f00"/><path d="M301.02 95.498c13.364 3.42 16.714-11.342 23.473-11.49-3.946 4.712-14.237 16.725-23.472 11.49zm.922-22.307c14.136-15.165 26.918 2.354 26.577 10.563-11.473-20-15.063-16.915-26.574-10.562zM174.54 202.82c9.016-10.375-2.833-19.9.028-25.978 2.51 5.6 8.793 20.083-.027 25.977zm-19.737-10.705c-7.432-19.298 14.058-22.902 21.32-18.96-23.15 1.343-21.955 5.904-21.32 18.96zm295.863-11.865c1.623 13.604 16.704 11.36 19.29 17.56-5.856-1.946-20.865-7.124-19.29-17.56zm21.283-7.22c19.36 7.59 7.532 25.754-.303 28.41 14.63-17.856 10.434-20.06.302-28.41zM237.295 364.714c-5.3-12.648-19.192-6.408-23.384-11.672 6.167.286 22.03 1.205 23.384 11.672zm-18.5 12.7c-20.712-2.06-14.323-22.737-7.52-27.413-9.167 21.14-4.522 22.123 7.52 27.414zm194.506-31.756c-12.056 6.667-4.228 19.654-9.02 24.386-.417-6.114-1.303-21.86 9.02-24.386zm14.832 16.79c.296 20.656-21.132 16.712-26.59 10.534 22.208 6.634 22.666 1.943 26.59-10.534zM185.974 168.48c11.51-7.563 2.7-19.917 7.116-25 .887 6.066 2.984 21.697-7.116 25zm-16.08-15.61c-1.89-20.573 19.782-18.267 25.698-12.522-22.653-4.927-22.747-.216-25.698 12.522zm41.51 181.565c-4.427-12.974-18.712-7.678-22.536-13.21 6.132.697 21.897 2.677 22.537 13.21zm-19.314 11.443c-20.527-3.443-12.745-23.645-5.637-27.857-10.585 20.48-6.02 21.772 5.637 27.858zm153.36-251.31c11.268 7.91 19.685-4.71 26.057-2.466-5.375 3.014-19.3 10.613-26.057 2.466zm8.84-20.526c18.642-9.195 24.32 11.687 21.064 19.24-3.57-22.74-8.03-21.122-21.063-19.24zm34.206 292.61c-13.794.466-12.805 15.57-19.246 17.605 2.442-5.627 8.898-20.036 19.246-17.604zm5.462 21.658c-9.24 18.512-26.49 5.292-28.5-2.678 16.704 15.966 19.27 12 28.5 2.678zm68.026-178.972c-3.082 13.352 11.88 16.274 12.214 22.975-4.854-3.786-17.234-13.673-12.214-22.975zm22.493.307c15.663 13.61-1.637 26.767-9.912 26.653 19.83-11.93 16.624-15.407 9.912-26.653zm-252.605-88.992c13.31-3.62 8.83-18.086 14.62-21.547-1.065 6.036-3.987 21.536-14.62 21.547zm-10.368-19.815c4.674-20.132 24.537-11.23 28.354-3.938-19.974-11.697-21.544-7.25-28.354 3.938zm-39.533 168.01c.125-13.696-15.122-13.363-16.895-19.837 5.56 2.663 19.79 9.682 16.896 19.838zm-22.03 4.492c-18.24-9.957-4.19-26.49 3.918-28.144-16.79 15.878-12.907 18.59-3.92 28.145zm248.687-142.838c8.22 11.006 20.184 1.622 25.532 5.727-6.056 1.2-21.675 4.106-25.533-5.728zm14.86-16.762c20.605-2.96 19.43 18.636 13.963 24.804 3.76-22.71-.987-22.553-13.962-24.803zm-107.5 274.234c-10.932-8.362-19.864 3.905-26.137 1.4 5.496-2.79 19.722-9.816 26.137-1.4zm-9.687 20.14c-19.005 8.43-23.815-12.666-20.25-20.082 2.628 22.867 7.15 21.43 20.25 20.083zm150.183-124.75c-8.373 10.89 4.03 19.695 1.538 25.933-2.84-5.44-9.987-19.526-1.537-25.934zm20.352 9.513c8.582 18.822-12.653 23.695-20.14 20.192 23.03-2.718 21.56-7.2 20.14-20.193zm-303.39-55c6.203-12.237-7.625-18.615-6.34-25.2 3.804 4.824 13.45 17.355 6.34 25.2zm-21.77-5.624c-11.94-16.924 8.02-25.608 16.03-23.538-22.125 6.893-19.847 11.027-16.03 23.538zm123.32 143.894c-10.34-9.077-20.084 2.563-26.172-.352 5.672-2.42 20.344-8.475 26.172.352zm-11.03 19.45c-19.536 7.136-22.9-14.238-18.837-21.395 1.064 22.99 5.674 21.862 18.837 21.395zm-3.034-291.88c13.74 1.31 14.726-13.793 21.378-14.987-3.154 5.267-11.433 18.728-21.377 14.988zm-2.6-22.176c11.575-17.17 26.956-1.847 27.913 6.313-14.486-17.974-17.545-14.37-27.913-6.312zm184.58 236.076c-11.74 7.205-3.32 19.824-7.89 24.77-.698-6.09-2.31-21.778 7.89-24.77zm15.59 16.1c1.25 20.622-20.34 17.654-26.074 11.73 22.49 5.617 22.73.913 26.073-11.73zm-24.99-183.62c4.01 13.108 18.458 8.265 22.102 13.917-6.107-.89-21.8-3.367-22.102-13.917zm19.68-10.82c20.407 4.09 11.98 24.037 4.74 28.02 11.24-20.132 6.718-21.568-4.74-28.02zm-244.003 2.593c12.214-6.38 4.698-19.55 9.602-24.167.27 6.12.78 21.883-9.603 24.166zm-14.43-17.128c.2-20.66 21.527-16.21 26.833-9.904-22.04-7.155-22.61-2.476-26.832 9.904zm-3.935 180.98c-.35-13.694-15.573-12.844-17.57-19.254 5.648 2.473 20.11 9.007 17.57 19.254zm-21.868 5.232c-18.573-9.334-5.1-26.334 2.95-28.26-16.235 16.435-12.26 19.015-2.95 28.26zm212.17-200.4c10.413 8.99 20.06-2.73 26.175.137-5.654 2.467-20.276 8.643-26.177-.136zM392 91.014c19.476-7.296 23.017 14.046 19.017 21.24-1.26-22.984-5.858-21.816-19.017-21.24zm-38.88 292.592c-13.1-4.295-17.455 10.218-24.207 9.918 4.258-4.442 15.354-15.75 24.207-9.918zm-2.458 22.196c-15.146 14.203-26.69-4.125-25.787-12.293 10.077 20.712 13.868 17.87 25.787 12.292zM461.024 245.26c-4.413 12.98 10.178 17.375 9.832 24.076-4.447-4.25-15.767-15.318-9.832-24.075zm22.35 2.545c14.21 15.1-4.33 26.47-12.555 25.534 20.936-9.9 18.097-13.678 12.553-25.535z" fill="#005800"/><g fill="#730000" stroke="#000" stroke-width=".509"><path d="M349.05 120.326s.585-1.37 1.66-.585c.978.78 1.27 4.2 1.27 4.2l-1.564.78s.88-1.266-1.366-4.394zm-8.88 30.672s.78-1.073-.293-3.42l1.563-.488s.584 1.855-.196 3.91l-1.074-.002m27.052-5.376l-3.71 2.25 1.857.88 4.49-2.64-2.638-.49m-49.718 14.554c-.978.782-1.075 2.15-1.66 2.93-.487.78-1.953 1.855-2.05 3.028-.195 1.17-.292 1.952.195 3.517.582 1.562 3.025 8.498 2.05 13.774-1.076 5.274-.683 7.52-.29 8.303.386.782 1.56 2.93 2.244 2.93 1.562-.196.88-.683 1.464-1.66 1.465-2.54 0-22.175-.684-27.645-.487-4.2-2.443-8.01-2.635-8.4-.196-.49-.586-1.758-.88-2.54-1.464-3.518-3.223-6.543-3.223-13.874 0 0-4.787 1.077-8.887-8.205-2.148-4.688-5.275-4.2-8.985-5.76l1.66-1.078s3.126 1.564 4.69 1.564c1.562 0 1.074-3.127 1.074-3.127l1.562-1.565v6.84c0 3.127 4.297 7.424 6.836 8.694 1.563.78 3.615-2.443 3.127-5.567-.49-3.126 0-7.326 0-7.326l2.148 1.267s-.78 1.367-.585 2.15c.29.782 1.365-.78 2.146-1.565 0 0 .195.197.978.197 0 0-1.563 2.634-2.343 4.004-.78 1.27-.78 6.253-.78 8.11 0 1.856.683 6.152.683 7.52 0 .98 1.854 4.98 3.322 7.425.487.975 1.66 3.514 1.66 3.514 1.17 1.856 1.267 3.126 1.952 4.69.39.78 1.075 3.027 1.563 6.936.196.976.39 4.688.686 7.128.29 2.345 2.246.49 4.587-1.17 2.345-1.758 2.345-5.958 2.345-5.958s1.856-1.563 1.563-.684c-.195.977.98 1.954.98 1.954-1.465 3.32-.586 2.93.88 2.832 1.462-.198 6.54-4.006 6.54-4.006.684-.196 3.712-.196 3.223 0-.585.294-1.368 1.76-1.368 1.76l3.322-.392c-1.172.88-5.57 3.418-6.542 4.005-1.076.684-6.347 3.225-8.594 4.102-2.246.975-6.642 3.125-6.836 5.372-.1 2.248.29 8.303 0 10.256-.196 1.953-.98 10.65-.98 10.65h-10.45s2.052-7.62-.1-9.67c-2.05-2.15-6.835-8.403-9.96-10.554-3.127-2.05 2.05-.484 2.05-.484v-2.15l4.784 5.765s8.3-7.327 0-17.29c-2.636-3.126-5.274-7.912-7.324-8.403-2.148-.585-3.223-1.074-6.838 0-3.71 1.074-12.6 1.074-16.31-4.788l3.127-.488 2.634-1.074s-1.073 3.712 6.348 3.712c7.326 0 8.4 0 7.814-6.838l2.147-1.074 1.564 1.565s-1.074 3.71-.488 5.272c.49 1.562 3.127 2.638 5.178 4.2.88.685 1.563.783 2.148.783.88-.098 1.073-.098 2.246-1.27 1.758-1.955 1.367-1.857 3.125-3.418 0 0 .88-1.37 1.075-1.565l1.075 2.834h-.006zM319.07 155.002c.388-.388 1.17-1.857 1.854-3.126 1.173-1.954 2.54-3.126 4.102-5.57 1.464-2.246 2.05-5.565 1.464-7.91l1.367.783.1 3.71s1.856-1.565 2.638-1.953l.78.388s-5.86 6.058-11.33 15.826l-.978-2.146.002-.002zm-51.37-20.314c.78 1.364 1.563 4.005 3.906 6.055l1.563-.488s-3.614-4.2-3.614-6.055l-1.857.488m9.177-2.352s.487 4.982-.78 6.838l1.562-.778s1.073-3.42.78-5.277l-1.563-.78v-.004zm51.475-15.725s-.295 7.033 1.074 11.332l1.855-.584s-.29-1.274 1.27-1.86c1.564-.487 5.274-2.05 7.13-3.614l-.585-1.56s-2.832 2.246-4.2 2.83c-1.27.49-2.05 1.075-3.125.784-1.076-.294-2.343-2.053-1.563-6.06l-1.855-1.267m20.698 32.824s-.487 4.98-.194 7.13l1.66.393s-.388-5.96.683-6.447l-2.15-1.076m7.43 3.715s-1.856 3.222-4.003 3.516l3.418-.685s.98-.487 2.443-2.05l-1.858-.78"/></g><g fill="#289400" stroke="#030" stroke-width=".509"><path d="M326.595 138.394l1.268.778 1.367.198s1.464 1.367 3.126 2.635c1.268 1.077 1.268-.194 1.268-.194l.78 3.127h1.075s-.295 2.05-.295 3.126l1.857-1.564 2.148 1.856s1.563-1.368 2.344-1.368c.78 0 1.073-.78 1.073-.78h.1c-5.177-2.443-7.422-4.98-5.86-7.62 2.54-4.394 6.74-1.563 8.105-.975L363.9 147.77s1.27-.78.39-1.564c-.98-.778-1.368-2.734-1.076-3.514.294-.782 2.443 2.44 3.516 2.733 1.075.293 3.514.685 3.514.685l-.097-.977s3.125 2.147 3.125 3.223c0 0 2.248-1.172 1.464-1.856-.78-.682 3.42 1.662 3.712 2.933l.878-.98c-.1 0 .294-3.126 1.367-4.59.978-1.464 2.052-1.857 2.052-1.857s.978-1.662 1.952-1.662c0 0-.978-.68-1.368-1.463-.488-.782-1.66-1.172-1.66-1.172s1.463-1.073 1.856-1.563c.39-.583.782-.685.782-.685s-2.25-1.855-3.812-2.146c0 0-.098-2.542-2.05-2.736h.88s-1.466-2.735-2.834-2.832c0 0 .88-.976 1.66-1.074 0 0-1.66-2.148-3.904-1.367l1.464-.584s-1.075-1.17-4.393-.584c0 0 .29-1.367-1.173-2.444 0 0-1.27.096-1.27 1.074 0 0-1.172-1.074-2.636-1.074-1.464 0 .49 1.564.49 1.564s-1.954-1.27-3.127-.88c0 0 .488-2.245-.78-3.42 0 0-1.463.783-1.857 1.76l-.39-.977s-1.954 2.343-2.343 1.66c-.293-.39-.585-2.05-.585-2.05l-1.17 1.76.194-2.445s-1.367.782-2.44 3.32c0 0-1.37 1.27-1.37 2.44 0 0-1.074-1.268-2.05 0-.88 1.367 0 1.077 0 1.077s-.39.485-1.368.68l.196.78s-1.268-.68-2.245-.387l.486 1.17s-2.538.197-2.634-1.853c0 0-2.148-1.076-2.442.097l-1.563.977s-.488-.978-1.367-1.17c-.978-.295-.196 1.266-.196 1.266s-.292-1.17-1.464-1.76c-1.17-.484-.195 1.078-.195 1.078s-1.563-1.27-.78-2.245c0 0-1.464 1.367-.78 2.638l-.978.682s-.49-.487-.392-.88c.1-.39-1.66 1.17-1.66 1.17s-1.074-2.536 0-2.536c.098 0-1.855-.1-2.147 2.15 0 0-1.27.096-2.44.484-1.27.392.88 1.27.88 1.27s-1.86-.39-2.933.197l.685.88s-.685-.684-2.345-.1c-1.758.488.39.782.39.782s-1.76-.39-2.637 0c-.88.392.293 1.074.293 1.074s-3.223-.976-3.712-.68c-.485.29 1.077 1.855 1.077 1.855s-1.954.49-2.343 1.955l1.758.68s-.78.39-1.173 1.175c-.388.78 1.172.388 1.172.388s-2.148 1.565-2.148 2.735c0 0 1.562.488 2.735-.682 1.17-1.17.39-.78.39-.78l.096.78s2.248-.974 2.248-1.56c0-.488-.39.78-.39.78l2.247-1.172 1.464.978v-.002zM324.733 107.923l-.49-2.148 4.98.583.88-2.05s2.343 1.074 3.126 1.853c0 0 4.59-1.17 5.958-.68l-.586 2.15s4.198.29 5.567.78c1.27.487-.586 1.564-.586 1.564s4.785.583 6.837 1.854c2.15 1.27 2.15 2.345 1.077 2.636l2.634 4.2s-4.197.487-4.98 1.56c-.78 1.075-1.562-1.073-1.562-1.073l-.78 2.93s-2.637-1.368-3.71-2.343c0 0-1.27 1.564-.49 2.344l-4.786-3.124s-2.05-.292-2.05 1.564c0 0-2.343-2.638-2.93-3.42l-2.638.782s-.78-1.073-1.757-1.37c-1.075-.192-.294 1.37-.294 1.37l-1.563-1.856-1.562-1.852s-1.368 1.852-2.442 1.852c-.98 0-.98-1.27-.78-2.148.292-.78-3.127-.975-3.42 0 0 0-.978-3.907 2.636-4.98l3.712-.978v.003zm-18.94 13.383l-1.66 1.563-.98-.488-1.952 2.147-.39-1.175-1.074 1.76-1.66-.586-.78 1.27-1.465-.295s-1.27 1.173-2.05 1.465c-.78.197 0-1.756 0-1.756s-1.173 1.952-2.052 1.952c-.78 0-.487-.88-.487-.88s-.486 1.267-1.463 1.465c-.88.1-.49-.975-.49-.975l-1.563 1.17v-.976l-.684-.293s.39-1.76 1.076-2.15c.683-.39-.684-1.56-.684-1.56l.684-.782s-1.955-.488-1.955-.097c0 0 .98-2.635 2.344-3.128l.1-2.93s1.367-1.17 2.636-1.27c1.366-.195-.39-2.246-.39-2.246l3.125-1.852.39-2.246 4.785.387.977-2.05 3.81.975 3.222-1.66 2.342 2.735 3.516.294s-.098 2.44-.098 3.126c0 0 4.198 1.268 4.688 1.66 0 0-.782 2.54-.782 3.028 0 0 2.932-.78 3.81-.585 0 0 .295 2.736.39 3.42 0 0 4.98 1.563 5.274 2.443 0 0-1.075.68-1.66 1.56 0 0 .584 3.03.584 4.006l-.39.586s-1.464-1.368-2.637-1.562l-.978 2.147-1.758-1.17-1.074.097s-.88-1.074-1.564-1.074l-.1-.978-1.366.88s-2.147-1.076-2.147-1.76c0-.584.1-1.564.1-1.564l-2.248 1.565s-.487-1.17-.388-1.66c.098-.488-.88 1.173-.88 1.173s-1.172-2.052-1.074-2.444l-.294 1.662s-2.343-.78-2.635-2.344v-.002zM274.534 130.877s4.103 2.054 4.103 3.03c0 0 1.076-2.15.488-2.932l1.564 1.077s.485-1.953-.1-2.54c-.49-.49 3.514-2.147 4.393.49 0 0 2.443-2.54-2.245-4.69 0 0-.39-1.562 2.442-1.17 0 0-.195-.98-.88-1.37h2.736s-1.66-1.368-4.103-1.757c-2.342-.392-.88-.683-.977-1.175-.196-.488 0-2.247 0-2.247s-1.367-.487-2.442.098l.39-.49s-2.54-.68-3.515-.095c0 0-1.466-.586-1.27-2.15 0 0-1.465-.097-2.147 1.464 0 0-1.368 1.563-3.222 1.563-.39 0-1.758-.782-1.758-.782l-1.173 2.737-1.856-.098.585 1.072s-2.833-.78-3.713 0c0 0 1.076 1.663.78 2.833 0 0-2.246.392-2.734.782-.586.387.78.682.78.682s-2.54.78-3.126 1.564l.98.778-1.174 1.566.978.193s-1.66.49-2.537.783c-.88.29 1.562.488 1.562.488l-1.17 1.074 1.855.29s-1.464 3.91-1.563 5.767c0 0 2.248-2.735 2.83-2.93l-1.756 2.93s3.323-1.072 3.617-1.565c.292-.583.584-1.072.584-1.072l.1 1.66s1.27-1.758 1.464-2.442c.1-.68 2.05.685 2.05.685v-.98s1.76.585 2.344.686c.684.098.78-.292.78-.292l1.66-.195-.293 1.364s1.17-.78 1.464-1.562c.195-.783.78 0 .78 0l.78-3.126h1.66l.004.007zm-13.382 13.872l1.563 3.222c-1.27.096-3.126 1.56-3.126 1.56.29 5.375-1.074 5.08-1.074 5.08.387.978-.25 2.79-.25 2.79l7.77-4.644.097-.488 9.182-4.3.29.487 2.64-1.463 1.855 4.882-1.856 1.074c.1 1.66 2.05 4.593 2.05 4.593l2.444-.584 2.637-.98s.1 1.464.1.98c0-.396 2.83-1.368 2.83-1.368l1.27 1.27c.978-.098 2.733-2.445 2.733-2.445l2.05.783s.685-1.17.685-2.05c0-.782 2.54-.782 2.54-.782l1.758 1.268 2.247-1.853s.684 1.367 1.563 1.56c.978.1 3.42 1.953 3.42 1.565 0-.39 1.074-2.54 1.074-2.54l4.1 1.66c-.584-1.855-1.95-4.1-1.95-4.1s1.95-1.56 1.56-1.954c-.388-.39-1.56 0-1.56 0l1.17-2.344H309.4l.486-.584-2.54-1.073 1.367-2.736c-.585-.685-7.324-2.052-7.324-2.052l1.564-1.465s-.78-1.17-1.563-1.17c-.78 0-4.882.097-5.078-.29-.1-.393-1.76-1.86-1.76-1.86l-2.54 1.86-1.268-.393-2.246.88s0 1.267-.295.388c-.29-.783-2.343-2.833-2.343-2.833-.39.682-3.026 3.808-3.026 3.808s-.39 1.663-1.27.488c-.978-1.17-3.027-2.44-3.32-1.463-.294 1.076-2.148 2.05-2.54 1.76-.39-.297-2.54-.1-2.736.486-.098.683-2.443 2.44-2.443 2.44-1.465-.68-3.81-.29-3.81-.29s-.683 1.075-.78 1.954l-4.784 1.267h.005zm44.15 39.56v-2.052l2.343 1.564 1.368-1.564 1.76 1.757 1.073-1.757v2.834l2.637-2.343 1.56.68v-2.245s1.858-3.128 1.076-3.712l1.562-.487s-2.638-2.638-3.42-3.128c-.78-.584-1.854-.584-1.854-.584s-2.052-2.054-3.42-2.638c-1.268-.488-2.05.584-2.05.584s-.78-1.56-2.15-1.856c-1.266-.29-1.266 1.074-1.266 1.074s-.98-.977-2.247-1.465c-1.27-.583-.39 1.172-.39 1.172l-4.495-1.365.585 1.365-4.198-1.07.485 1.56-2.93-.49-.193 1.273-4.2.78.78 1.366-2.637-1.074v1.857l-2.93 1.073 1.074.98s-3.905 1.855-4.688 2.44c-.78.488 1.562 1.56 1.562 1.56l-4.2-.584 1.564 1.37-3.71 3.42 2.635 1.855-1.562 2.343 3.906.78 1.563 2.638 3.223-.585v2.93l4.69-3.71s3.42 3.027 3.71 2.147c.195-.78.195-3.42.195-3.42h1.66v-2.634l1.27 1.073 2.147-3.127 2.83 3.91 2.15-4.98 3.125.486h.005zm19.143-11.817l-.488-4.493-1.366 1.367.584-4.2-2.146-.392.78-4.1-1.562-.784.388-1.952 1.563-1.17 2.832-2.736 6.54.1.78-2.15 4.69.783c.78.88 3.22-1.76 3.22-1.76h.98l1.075 2.05s3.42-.488 4.98.585l-1.856 2.54 3.418.292 2.342.492 2.442-.784 3.127-.197.78 1.27h2.93l-.978 1.17 3.81 1.76-.78.782s2.147.782 3.71.782h.78s.78 1.853-.294 2.635c0 0 1.075 2.638 3.42 3.127 2.343.487 2.343.487 2.636 1.072.294.49 0 3.127-2.636 3.127v2.638s-2.052 1.855-2.344 2.635l-1.564-1.075s-1.365 1.565-1.365 2.64c0 0-3.42-4.496-4.69-4.693-1.366-.29-1.075 2.54-1.075 2.54l-3.71-3.125-.488 2.148-3.125-2.635-1.857 1.266-3.322-3.418-3.222.392 1.268-1.662h-3.906l-.78-3.416-.586 2.83-2.342-1.56-3.028 3.32s-.39-.393-.88-1.955c-.486-1.562-1.855 1.856-1.855 1.856l-1.075-2.44-1.27 2.44s-1.074-1.855-2.148-2.44c-.977-.488-2.05 2.928-2.34 4.493v.003zm.585 10.253l.195-1.56 5.566-2.15 4.69-1.76 2.342-1.074 1.076 1.855 1.367-2.635 2.148 2.733 1.172-1.465 1.855 1.367h1.563l.293 2.054s3.907.292 4.2-.486c.292-.783.78 2.635.78 2.635l3.71.487.78 4.2s1.854 3.91 1.27 5.47c-.49 1.66-2.053-2.05-2.053-2.05s-.292 2.93-.585 3.71c-.195.78-4.98-.78-4.98-.78l-2.05 3.907s-2.148-3.126-3.126-3.126c-1.075 0-1.075 3.126-1.075 3.126s-3.126-3.712-4.494-5.276c-1.27-1.56-1.563 1.564-1.563 1.564s-2.05-3.42-2.05-4.395c0-1.074-1.857-2.15-1.857-2.15s-3.223 3.712-5.57 4.69c0 0 .295-2.344-.485-3.126-.78-.78-3.127 1.562-3.127 1.562s-1.66-3.613 0-7.325h.01z"/></g><g stroke="#004b00" stroke-width=".509" fill="none"><path d="M350.816 124.522l.49 1.953s1.755-.39 2.93-.293c0 0-.293 1.562-.684 2.247 0 0 2.343-.39 3.42.29l-.49 1.17 2.735 1.174-2.54 2.05s4.1 1.464 4.884 2.64c0 0-2.635 1.853-3.027 1.757-.39-.196-.097.78.586 1.66l-2.248-.098s.88 2.053.78 2.832c-.098.782-3.71.585-3.71.585M368 137.22s.684-3.907-.388-4.884c0 0 2.538 2.15 4.198 2.246 1.76.1-.1-3.222-.1-3.222s2.444 1.27 3.616 1.562c1.172.196-.88-2.442-.88-2.442s.684-1.27 2.637-.098m-45.41-15.53s.097-.88-.295-1.367c-2.342-3.223 2.443 2.444 3.418 2.638m4.49-.003s1.563 1.17 2.345 1.17c.78 0-.487-3.126-.88-3.515-.39-.39 2.833 1.268 4.006 1.465 1.173.29 1.367-1.953 1.367-1.953s3.614.583 4.395 1.073m-25.104-.68s-.292-2.05-.388-2.93m-24.216 12.703c-.196-.392.98-2.15.488-2.932 0 0 .684.588 1.367.686.586.097.388-2.25.388-2.25l.782.293s2.05-.977 1.66-1.76c-.392-.78 1.366 1.17 1.366 1.17s1.175-1.17 1.175-1.656c0-.493 1.365 1.17 1.365 1.17s1.464-.294 1.464-1.17c0-.88 1.856.29 1.856.29s.78-1.073.684-1.758m-19.727 9.77s.877-2.05-.1-3.418m-23.63 9.858c.097-.975.583-3.613.097-4.005-.487-.387.98.392 2.15.685m9.272-.385c-1.173-1.174-1.857-1.76-3.71-1.76m-16.114 8.297c.293-.68.78-2.343.487-3.32m25 51.772l1.27-2.638 1.562 3.71 1.073-2.343.39.782 2.343-2.54 2.54 3.81m40.732-16.506l1.66-3.32 2.248 1.172 1.075-3.223 2.342 1.464 1.367-3.027 2.637.682.193-2.15s1.856 1.074 2.344 1.855c.584.784 0-2.635 0-2.635l2.148.976s1.563-1.564-.585-2.444M343.587 163.114l2.344 3.42 1.952-2.247 1.76 3.808 2.245-1.367 3.222 1.856 1.463-1.17 3.516 2.54 1.464-3.028 3.125.976 2.05-3.514m-84.38-9.185s1.367-2.347.88-3.42c-.59-1.075 2.83 1.856 2.83 1.856s.78-2.347.292-3.42c-.586-1.073 3.907 3.126 3.907 3.126s.78-3.613 0-4.397c-.782-.782 4.297 1.076 4.297 1.076s2.05-.585 1.27-1.66c-.783-1.075 3.415 1.56 3.415 1.56s.978-2.634 0-3.615c-1.073-1.07 3.127 1.272 3.127 1.272l-1.564-2.832 3.418.194-.292-3.126m30.276 45.122l2.246-1.073 1.954 1.953 2.15-3.418 2.635 2.54.39-2.54 2.83 1.174.588-1.566 3.126 1.663.292-2.345 1.562.49.295-1.565"/></g><path d="M283.126 298.11a69.836 69.836 0 0 1-5.958-12.99l42.29-37.22 42.292 37.12c-1.465 4.295-3.42 8.89-6.152 13.286l-.338.54c-.78-.29-3.18-1.225-3.18-1.225s-1.368 1.272-2.44 1.368c-1.464.197-2.734-1.267-2.734-1.267s-1.857 1.563-3.71 1.268c-1.858-.193-2.64-1.367-2.64-1.367s-1.952 1.565-3.32 1.272c-1.27-.296-2.15-1.176-2.15-1.176s-1.17 1.468-2.83 1.176c-1.563-.296-3.028-1.176-3.028-1.176s-2.44 1.072-4.004 1.27c-1.56.295-2.93-1.368-2.93-1.368s-2.05 1.367-2.83 1.367c-.782 0-3.712-1.367-3.712-1.367s-3.028.978-4.1.978c-.98 0-4.005-1.27-4.005-1.27s-2.832.78-4.1.78c-1.37 0-3.32-.78-3.32-.78s-2.34 1.076-3.615.78c-1.367-.29-2.442-.78-2.442-.78s-2.54 1.076-4.2.78c-1.563-.29-3.418-1.362-3.418-1.362s-.293.78-3.32 1.363h-.1" fill="#9dd7ff"/><path d="M319.462 205.114v42.783l-42.29 37.415c-4.102-11.917-4.394-22.564-4.394-27.154v-53.043h46.684" fill="#fff" stroke="#000" stroke-width=".684"/><path d="M319.462 205.114v42.783l42.193 37.415c4.1-11.917 4.394-22.564 4.394-27.154v-53.043H319.46" fill="#ffd83c" stroke="#000" stroke-width=".684"/><g stroke="#000" stroke-width=".509"><path d="M292.18 289.22c3.18 1.722 2.102 1.18 8.692 3.513 5.373 1.86 11.622 2.735 20.704 2.735 7.947 0 12.42-.63 14.938-1.325 2.61-.75 3.228-1.802 3.228-1.802l-6.54 6.644s-26.3 1.42-31.06-1.66c-1.855-.978-5.86-4.2-9.96-8.106z" fill="#730000"/><path d="M330.762 276.816s8.4 4.785 0 13.967m-37.796-1.074l12.11-11.53-1.366 15.434m6.344 1.366v-25.786m20.708 25.786v-27.35m-10.455 27.84v-29.4" fill="none"/><path d="M310.054 270.566l-5.47 1.76 5.47.585v-2.344m10.253-4.012l-5.76 2.15 5.76.195v-2.346m10.455 1.564l-5.762 2.15 5.762.292v-2.444.002zm3.418 12.413c-.294-1.172 3.42-1.072 3.42-1.072s1.074 3.905 0 6.346l-3.126-.584s.293-2.636-.295-4.69z" fill="#ff0018"/><g fill="#fff"><path d="M294.82 288.144l10.255-9.964-.49 5.96s-5.272 3.416-5.272 5.86l-4.494-1.856m5.462 2.054s1.075-3.125 4.004-4.687l-.293 6.252-3.71-1.564zm14.755-17.29s4.198-.585 7.325 0c0 0-.49 4.2 0 4.98 0 0-5.763-1.367-8.106.78 0 0-.782-3.905.78-5.76zm-8.89 1.076s4.2-.586 7.324 0c0 0-.78 4.69-.292 5.47 0 0-4.69-2.637-7.03-.49 0 0-1.565-3.22 0-4.98zM305.85 279.446s4.2-.487 7.325 0c0 0-.488 4.2 0 4.984 0 0-5.47-1.27-7.815.78 0 0-1.074-3.907.49-5.764zm8.4-.777s6.055-.78 9.18-.292c0 0-1.27 3.418.294 5.762 0 0-6.544-1.76-8.987.29 0 0-2.05-3.906-.487-5.76zm-8.88 6.546l8.104.585s-.78 5.96-.293 6.74c0 0-6.54-1.563-7.814.584 0 0-2.15-5.468 0-7.91h.003v.002zm9.177 0s7.03-.49 10.255 0c0 0-1.86 4.496.196 8.4 0 0-9.183-2.634-10.454-.49 0 0-2.145-5.47 0-7.91h.003zm10.743-12.307s4.198-.587 7.324 0c0 0-.486 4.2 0 4.98 0 0-5.762-1.37-8.104.78-.002 0-.783-3.907.78-5.76zm0 5.76s4.198-.49 7.324 0c0 0-.486 4.2 0 4.98 0 0-5.762-1.27-8.104.783-.002 0-.783-3.91.78-5.764zm.49 6.056s4.197-.582 7.42 0c0 0-1.074 6.545-.585 7.326 0 0-4.782-2.246-7.03-.29 0 0-1.367-5.177.194-7.036zM334.467 285.216s1.365 4.98 3.124 5.567l-2.34 2.833s-2.833-2.052-3.127-4.393c0 0 1.855-2.15 2.344-4.007z"/></g></g><g stroke="#000" stroke-width=".61"><path d="M355.405 298.694c-6.738 11.235-17.776 21.782-35.94 28.326-18.46-6.64-29.692-17.677-36.334-28.815l.1-.098c3.027-.59 3.32-1.367 3.32-1.367s1.856 1.074 3.42 1.367c1.66.29 4.2-.782 4.2-.782s1.073.49 2.44.782c1.27.29 3.614-.782 3.614-.782s1.953.782 3.32.782c1.27 0 4.102-.782 4.102-.782s3.027 1.268 4.003 1.268c1.074 0 4.1-.978 4.1-.978s2.93 1.37 3.71 1.37c.78 0 2.833-1.37 2.833-1.37s1.367 1.66 2.93 1.37c1.562-.196 4.004-1.27 4.004-1.27s1.464.88 3.027 1.172c1.66.295 2.832-1.17 2.832-1.17s.88.88 2.15 1.17c1.366.295 3.32-1.27 3.32-1.27s.78 1.174 2.637 1.368c1.855.294 3.71-1.267 3.71-1.267s1.268 1.464 2.735 1.267c1.075-.098 2.44-1.367 2.44-1.367s2.443.78 3.32 1.076" fill="#006ac8" stroke="none"/><path d="M353.744 301.238c-1.464.1-1.66-.88-1.66-.88s-1.95 1.663-3.808 1.37c-1.953-.29-2.832-1.563-2.832-1.563s-2.052 1.66-3.42 1.367c-1.366-.195-2.34-1.173-2.34-1.173s-1.27 1.466-2.932 1.172c-1.66-.195-3.127-1.173-3.127-1.173s-2.636 1.076-4.298 1.367c-1.66.295-3.027-1.562-3.027-1.562s-3.81 1.27-4.59 1.27c-.88 0-3.615-1.27-3.615-1.27s-1.854 1.174-2.93 1.174c-1.17 0-4.296-1.37-4.296-1.37s-2.932.784-4.3.784c-1.367 0-3.418-.784-3.418-.784s-2.54 1.074-3.906.784c-1.367-.295-2.442-.784-2.442-.784s-2.736 1.074-4.395.784c-1.66-.295-3.616-1.367-3.616-1.367s-.292.68-3.514 1.367h-.1" fill="none"/><path d="M293.09 305.222s-.272.64-2.82 1.2c-.053-.003-.69.15-.69.15.236-.042.427-.075.63-.12-.09.035-.29.108-.72.24 2.88 4.16 7.195 7.938 11.69 10.966 4.497 3.03 9.664 6.645 18.46 9.225 9.25-3.61 11.72-4.986 17.764-9.034 6.045-4.416 9.195-7.167 12.566-11.698-2.64 1.5-2.26 1.517-3.63 1.32-1.367-.29-2.37-1.29-2.37-1.29s-1.248 1.487-2.91 1.29c-1.66-.29-3.12-1.29-3.12-1.29s-2.17 1.476-4.32 1.38c-1.66-.1-3.03-1.56-3.03-1.56s-3.81 1.26-4.59 1.26c-.88 0-3.6-1.26-3.6-1.26s-1.866 1.17-2.94 1.17c-1.17 0-4.29-1.38-4.29-1.38s-2.923.78-4.29.78c-1.368 0-3.42-.78-3.42-.78s-2.436 1.073-3.9.78c-1.368-.29-2.46-.78-2.46-.78s-2.72 1.073-4.38.78c-1.66-.29-3.63-1.35-3.63-1.35z" fill="#5ac800"/><path d="M319.645 326.89c9.555-3.978 11.28-5.06 17.06-8.593-1.008.027-3.94-.92-2.88-1.22 0 0-1.174 1.057-2.345 1.057-1.076 0-4.2-1.363-4.2-1.363s-2.93.78-4.297.78c-1.368 0-3.42-.78-3.42-.78s-2.54 1.073-3.906.78c-1.368-.29-2.442-.78-2.442-.78s-2.83 1.073-4.394.78c-1.66-.29-3.614-1.367-3.614-1.367s-2.403 1.275-3.913 1.42c4.617 3.383 9.478 6.684 18.352 9.287z" fill="#ffd800"/></g><g stroke="#000" stroke-width=".509"><path d="M313.165 248.966c1.898-1.545 2.987-3.032 2.354-4.187-.715-.993-1.83.62-3.087.24 0 0-1.897-1.172-2.414-2.013-1.108-1.23-2.53-2.337-3.35-3.394-.87-.98-4.14-5.3-9.114-10.276-1.43-.933-1.103-4.464-2.128-5.56-.088-.764-9.944-10.522-13.46-14.052-1.423-1.046-2.173-1.725-4.67.54-1.974 1.78-2.684 3.617-.096 5.835l12.822 11.658c1.873 1.82 4.49 2.15 5.586 3.094l13.033 13.328c1.64 1.418 2.428 2.423 1.5 3.635-1.03 1.994.073 2.263.307 2.324.15.08 1.07.08 1.685-.395l1.03-.78z" fill="#b34b00"/><path d="M280.66 214.003l13.4 13.24" fill="none"/><path d="M298.803 220.05c.208-.397.66-1.413 1.14-2.52.188-.438 3.793-6.187 5.59-6.356 0 0 11.21 8.155 11.218 8.263.04.44-4.86 7.77-5.287 7.212-.002 0-13.133-5.514-12.66-6.6z" fill="#fff"/><path d="M305.946 221.97c-1.535-1.19-4.073-2.354-6.12-3.72l-.92 1.92c.74.83 10.067 5.167 11.6 6 0 0-1.777-2.036-4.56-4.2z" fill="#ccb8c8" stroke="none"/><path d="M299.82 218.006c1.2.84 3.48 2.28 4.92 3.12 2.76 1.92 4.508 4.035 6.48 5.16" fill="none"/><path d="M277.107 252.94l25.524-31.587c.48-.438 2.845-.462 3.166 1.985l-24.172 32.943s-2.753-.272-4.517-3.34z" fill="#782121"/><path d="M362.662 253.286c-.88.687-2.374.864-2.374.864-1.66-1.953-3.03-4.005-5.373-6.543l-25.493-31.356 2.638-2.54 22.95 26.863c.684.683 4.69 4.885 8.5 9.863.002.002.334 1.95-.848 2.85z" fill="#730000"/><path d="M338.115 220.253l-4.103-4.885s-3.125.39-3.71 2.053c0 0-2.247 3.713-8.204 4.104 0 0 1.66 6.934 8.594 10.645 0 0 2.54-7.133 4.98-8.403 0 0 2.54-1.856 2.443-3.514z" fill="#fff"/><path d="M327.862 241.94c-.584-.198-1.172 0-2.05.488-.78.49-1.758.292-1.66-.686.097-.88 0-.78 1.073-1.463 1.564-.88 3.615-.98 4.884-.49l-2.248 2.15m27.83-27.745c-.195-.68-.388-1.364.294-2.243.684-.782.684-2.15-.98-1.467-1.66.685-2.244 2.54-.876 5.373l1.56-1.663h.003z" fill="#730000"/><path d="M327.277 242.525l28.91-28.72 7.127 7.62s-1.463-.587-2.05-.197c-.488.392.585 1.857.585 1.857s-1.368-.488-1.953-.098c-.684.39 0 2.05 0 2.05s-1.173-.88-1.76-.49c-.487.393 0 2.246 0 2.246s-1.562-.486-1.95-.098c-.392.392 0 2.053 0 2.053s-1.565-.782-2.345 0c-.78.78.39 1.856.39 1.856s-1.953-.782-2.734.39c-.78 1.172.098 2.246.098 2.246s-1.562-.78-1.952-.392c-.39.392 0 2.246 0 2.246s-1.367-.78-2.247.198c-.88 1.074.098 1.954.098 1.954s-1.268-.784-1.954-.395c-.683.396.197 2.248.197 2.248s-1.27-.88-2.148 0c-.88.98 0 1.953 0 1.953s-1.076-.976-2.15 0c-.978 1.077 0 2.15 0 2.15s-1.56-.78-2.146 0c-.683.78.194 1.858.194 1.858s-1.17-.684-1.952-.296c-.78.39 0 2.15 0 2.15s-1.17-1.27-1.66-.585c-.585.683.098 2.344.098 2.344s-1.075-1.27-1.66-.584c-.684.585.39 2.052.39 2.052s-1.953-.88-1.465-.88z" fill="#fff"/><path d="M354.522 216.154l-2.247 2.246.488 7.717s.49-2.246 1.172-.685c0 0 .196-1.855.684-1.56-.394-.2-.1-7.718-.098-7.718m-4.196 4.195l-1.66 1.56.585 7.717s.49-2.93 1.172-.584c0 0-.098-1.953-.098-2.64.002.49.002-6.054.002-6.054m-17.48 17.298l-1.564 1.658.392 4.69s.487-3.026 1.17-.685c0 0-.195-1.95-.195-2.635 0 .49.195-3.03.195-3.03" fill="#7e4b7e" stroke="none"/><g stroke="#7e4b7e" stroke-width=".916" fill="none"><path d="M330.886 218.304c1.076 1.074 4.103 4.98 4.103 4.98m-2.73-2.83c-.195.588-.584 2.247-1.463 3.126m1.943-2.742c-.1.39-.1 1.66-1.463 2.932m1.952-2.336c-.197.68-.294 1.17-.78 1.66m1.076-1.074c0 .487-.29.585-.388.88m-3.22-2.743c-.39.39-3.225 2.244-4.787 2.832m4-1.758c-.39.392-2.15 1.76-3.126 2.15m2.838-.98c-.585.395-1.563 1.368-2.344 1.662m1.758-.49c-.39.488-.977.88-1.464 1.174M311.302 224.65c.32-.59.875-1.744 1.6-2.8.92-1.342 1.318-1.568 1.8-2.04"/></g></g><path d="M217.01 303.39c1.466.68 0-4.79.488-6.84.586-2.148 4.785 5.275 6.838 6.254 2.148 1.073 15.235-5.18 15.235-5.18l3.127-5.86 1.66 4.787s3.613-4.2 4.688-5.76c1.075-1.563 0 3.126-1.075 4.687-1.075 1.564 3.126 2.15 2.636 5.276-.487 3.126 4.2-2.15 4.2-2.15l12.11 1.074s2.05-7.326 5.274-11.526l.977 4.692 4.98-5.078c5.568 14.652 17.29 30.575 41.314 39.267 22.562-8.204 34.185-22.76 40.238-36.632l6.74 6.94s5.274-1.567 6.25-2.15c1.074-.49 12.404 4.006 12.404 4.006s2.05.78 3.126 1.564c1.073.78.29-3.42.29-3.42s5.764 1.073 5.275 4.2c0 0 1.27-2.93 2.344-3.418 1.075-.488 3.613 2.638 4.2 3.712.488.98 12.893 2.54 14.65 3.614 0 0 1.368 1.565 1.368 2.638 0 0 2.638-.294 4.69-.294 0 0-1.564.78-1.564 2.442 0 1.564-.78 2.835-2.343 3.613-1.563.783 0 1.367 2.052 1.565 2.147.292 0 2.93-4.2 4.496 0 0-.98 2.34.78 3.122 0 0-3.615.295-4.2-.78 0 0-1.267 2.44-1.267 3.712 0 0-3.906-1.27-4.98-1.855 0 0-1.565 1.56-.49 2.34 0 0-7.128-.777-8.497-3.416 0 0-2.54.78-2.052 1.66 0 0-4.98-3.418-6.542-3.418l-1.074 1.755s-3.42-2.05-4.494-2.05c-.98 0-.196 1.562-.196 1.562l-4.784-2.932-1.855 2.93s-3.91-1.857-4.98-2.635c-.98-.78-1.27 1.562-2.052 1.853 0 0-1.563-2.145-3.712-1.853 0 0-.78 2.636-.487 3.418 0 0-6.057-1.268-7.13-1.564-1.076-.29-.488 1.27 0 2.347 0 0-4.494-1.27-5.47-2.054l-.293 2.053s-3.71-.295-4.492-1.076l-2.344 3.22h-3.418l-.78 2.833s-6.542-1.852-7.13-.778c-.487 1.072.294 2.634.294 2.634l-5.762-.78-.486 2.344s-6.643-2.053-8.205-1.076c0 0-2.052 2.15-3.42 2.638-1.266.585 0-.782 0-.782l-2.05-2.83s-2.343 1.268-3.71.78c-1.27-.588-5.47 2.05-6.84 1.268 0 0 0-1.858-1.07-2.344-.98-.49-2.833-.49-3.617.782 0 0-.78-1.076-2.147-3.127-1.27-2.15-3.128.194-3.128.194l-.293-2.54-3.615-.295c-2.15-.294-2.636-2.15-2.636-2.15s-5.568.585-6.35.295l1.366-1.27s-7.617 1.565-9.18.98c-1.66-.49 1.76-2.64 1.76-2.64s-7.034-1.754-8.4-2.05c-1.27-.292-8.89 1.266-9.964 1.266-1.075 0-1.563-1.757-1.563-1.757s-1.86 1.565-3.42 2.055c0 0-1.27-3.126-.487-3.42 0 0-4.98 1.366-5.275 2.638 0 0-1.27-2.05-1.075-2.93 0 0-2.343 3.712-3.418 4.49-1.076.784-.196-1.854-.196-1.854s-2.93 3.71-4.004 4.005v-2.638s-8.4 4.493-10.744 3.908c0 0 0-1.86.78-2.344l-5.274-.294c-1.267-.195-2.83-.78-4.198-1.074-1.27-.197 1.856-1.562 4.004-.978 0 0-5.86-2.148-7.62-1.076 0 0-.78-2.146 2.343-2.93 0 0-4.005-3.906-6.35-3.614 0 0 2.64-1.562 4.787-.783 0 0-2.442-6.64-4.005-7.42 0 0 5.567-.98 7.13-.194z" fill="#289400" stroke="#060" stroke-width=".488"/><path d="M208.9 188.803l71.1-36.826c.34-1.903-.74-3.4-1.854-4.885-20.333 9.972-38.838 22.072-61.432 29.403-1.27.49-12.502 5.177-18.264 12.114-1.827 1.83-1.962 4.534-1.962 4.534s.14 3.102.792 3.94c0 0 .17.852 1.23 1.532-.01 0 .658.328 1.12.163.517.096 1.357.09 2.53-1.965 1.173-1.955 4.98-6.447 6.74-8.012z" fill="#730000" stroke="#000" stroke-width=".489"/><path d="M266.134 152.37l9.18-4.396s3.127 2.345 2.833 4.983c0 0 .683 6.055 8.205 10.255 0 0-6.35 7.91-17.483 8.596 0 0 1.276-10.44-1.066-13.47 0 0-.39.373-.22-.144.332-1.016-.227-4.5-1.652-5.268-.174-.095.113-.38.202-.555z" fill="#fff" stroke="#000" stroke-width=".489"/><path d="M276.877 153.638c-1.953.782-8.3 4.102-8.3 4.102m5.276-2.153c-.1.977-.685 3.32 0 4.982m-.883-4.685c0 .487-.78 2.246.098 4.59m-1.068-4.1c-.196.98-.39 1.564 0 2.64m-.787-2.055c-.195.585 0 .88 0 1.268m5.76-1.566c.292.78 2.93 4.883 4.493 6.544m-4.1-4.69c.295.78 1.76 3.614 2.833 4.69m-3.026-3.03c.39.977 1.173 2.736 1.953 3.71m-1.953-1.752c.196.783.586 1.76 1.173 2.445" stroke="#7e4b7e" stroke-width=".814" fill="none"/><g stroke="#000" stroke-width=".509"><path d="M342.29 148.282l26.12 12.79c5.233 2.543 7.114.193 10.067 1.476l51.547 26.257c4.42 1.932 6.897 2.55 6.262 4.838-.108 3.634 1.718 3.69 2.217 3.727.36.097 2.104-.158 2.83-1.125.547-.63.567-.695.567-.695.584-.584.478-.636.66-.897 2.167-3.12 3.368-5.822 1.1-7.588-2.594-1.216-2.893 1.542-5.624 1.25 0 0-4.884-1.854-6.642-3.124-3.24-1.763-7.76-3.854-8.79-5.002-3.29-.616-28.063-14.55-42.097-21.544-1.505-1.26-2.325-5.92-5.283-7.48-.868-1.26-19.866-9.932-29.8-14.898-3.663-1.368-5.712-2.305-8.35 2.19-2.302 4.405-1.743 6.81 5.217 9.826z" fill="#b34b00"/><path d="M344.5 142.81l29.24 14.6" fill="none"/></g><g fill="#ffa54b" stroke="#000" stroke-width=".509"><path d="M257.34 158.515c-.194.586-.683.195-.683.392-.39 2.05-.293 3.123-.78 4.296-.684 1.367-3.126 2.638-3.028 2.54-1.954.584-4.297 2.93-8.105.78-.196-.096-.39-.293-.586-.487 0 0 1.07 4.002-2.833 5.956-1.367.684-15.14 7.914-15.14 7.914s-1.464 2.638-.488 6.25c.098.587.292 1.075-.294 1.466-.88.682-2.54 2.638-3.515 5.764 0 0-2.93-1.27-2.93-3.126 0-1.856 1.172-2.832 1.465-4.202.292-1.27 1.072-4.492.683-5.47-.39-1.075-2.148-1.465-2.832-1.856-.585-.392-1.368.39-1.27 1.27.1.976.782.778 1.564.976 0 0-.88 1.855-.78 3.222l-8.888 4.592s1.17 1.56 1.562 2.246c.39.684 1.268 9.768 3.906 14.067 2.637 4.298 3.517 3.126 4.102 3.71.488.49 1.268 1.27 1.953 1.858.683.488 3.71.78 4.298-.88.683-1.565 1.17-2.54 3.028-4.006 1.856-1.463 5.664-5.176 5.664-6.84 0 0 2.246 6.45 1.952 11.822 0 0 8.205 1.66 15.53 1.854 7.327.1 11.037-1.463 11.037-1.463s.978-6.152.584-7.325c0 0 1.172 4.005 2.052 5.372.977 1.658 2.05 5.077 4.198 5.273 2.05.097 3.81-2.05 4.004-2.93v-6.446h8.3c0-.097 3.712 1.367 4.884 1.17 1.172-.097 1.855-1.17.78-1.562l-.39-.29c1.074 0 2.442.68 2.442.68h4.1c.1-.096 0-.39-.098-.487-.293-1.173-2.442-2.15-4.003-2.832-1.564-.584-3.32-1.27-4.494-1.367-1.855-.197-3.126-.097-5.958.392-.78.097-3.71.39-5.567 1.268-.49.294-.978.39-.78-.88.293-1.368.195-7.52-1.268-10.16-1.075-1.854-.977-3.418-.78-4.98.1-1.564.195-6.935 0-8.5-.295-1.56-2.443-3.712-6.348-4.2-3.71-.49-6.838-3.517-7.032-5.958-.292-2.44.392-6.934.782-8.887" fill="url(#c)"/><g fill="none"><path d="M240.742 147.485c-.683 3.123-.683 5.86-.584 8.887.098 2.05 1.073 4.393 1.952 6.446.585 1.37 1.368 2.93 2.637 3.712 3.42 2.247 6.642-.195 8.497-.976.88-.296 2.248-1.56 2.638-2.344.487-1.17.29-2.05.78-4.296-.1.096.78-.392.683-.392.88-1.465.683-1.953 1.172-2.932.488-.977-.585-2.05-1.76-1.854.586-1.855.98-3.91.39-5.668-.194-.583.49-2.145-.584-1.758-4.396 1.758-9.57 1.37-14.26 1.37-.39 0-.683-.784-1.268-.683-.1 0-.196.29-.295.485" fill="url(#d)"/><path d="M240.35 149.136c-.49-.39-.587-1.266 0-3.126.682-1.852 0-1.952 1.073-3.027 1.075-1.075.78-1.563 1.465-1.854.684-.2 2.735-.2 3.42-.49.584-.295 1.464-.684 2.83-.878 1.464-.296 4.394-.198 5.762.583 1.464.78 2.442 2.736 3.32 3.42.98.68 1.566 3.513 1.37 7.62-.295 4.1-1.075 3.32-1.075 3.32s-1.173-1.954-2.15-.297c0 0 0-1.56.197-2.734.098-1.17-.585-3.32.098-4.785 0 0-5.568 1.757-8.4 1.658-2.93-.193-7.03-.88-7.226-1.56l-.685 2.148" fill="#000"/><path d="M243.18 145.728c-.292-.586-1.758-2.736-.584-3.42 1.075-.586.39 2.637 1.858 3.32 0 0-.49 1.466-1.268.1h-.005z" fill="#fff" stroke="#fff" stroke-width="0.96"/><path d="M246.406 153.734c-.487 1.663-.683 2.053-.88 3.03m10.164 1.56c.195.585.387.29.877.388m.39-3.806c.488-.585 1.172-.29.78 1.174M240.742 151.392c.88.29 1.76.584 2.638.98 1.465.585.586 2.73.196 4.1-.196.685-.978 1.855-.584 2.444.487.778 1.074.29 1.953.386 0-.29.585-.487.78-.487.684-.096 1.076.487 1.563.295.585-.295.49-1.175.293-1.66m-.098-4.3c.098-.388.977-.78 1.465-.88 2.05-.388 3.514-.683 5.177.49m-5.47 10.642c-1.66.39-3.42.68-4.982-.198m-.002-.772c.78-.392 1.076-.783 2.052-.296 0-.097 1.075-.388 1.075-.388.78 0 1.27.29 2.05.78m-5.273.288c.88-.294 3.224-.294 5.18.098"/><path d="M240.646 153.734c.685-.096 1.465-.88 3.028.294 1.075.684-1.758 1.37-1.27 1.27-1.266.195-1.66-.486-1.754-1.076 0-.194-.196-.488 0-.488h-.004zm59.7 7.184c.684-1.37 1.76-1.075 2.735-.784.98.294.686.1 1.565.59-1.075.194-.78.29-1.564.68-.878.392-1.658.586-2.246.198-.196-.198-.683-.488-.683-.88 0 .098.098.196.196.196z" fill="#fff"/><path d="M242.01 154.906c.39 0 .683-.39.683-.782 0-.488-.294-.88-.683-.88-.487 0-.78.392-.78.88 0 .392.29.782.78.782zm60.054 6.646c.39 0 .684-.387.684-.88 0-.487-.39-.778-.78-.778s-.684.29-.684.78c0 .492.39.878.78.878z" fill="#000"/></g><g id="g"><g fill="none"><path d="M292.016 205.114c-.584-.686-.977-.98-1.757-1.27l-1.955-.977c-.684-.39-1.66-.487-2.247-.88m.39 2.54c-.294-.194-.488-.29-.78-.49-.293-.096-.683-.096-.98-.193-.097 0-.097-.196-.194-.196-.878-.098-1.757-.49-2.342-1.268m-60.264-8.988c.877.682 3.026 2.15 3.222 4.982.196 1.464.978 2.93.978 2.93m-12.6-7.518c.49 1.658.586 7.128 5.763 12.892m-4.783-20.515c-.39 1.074-.88 2.052.194 2.833m13.87 10.262c1.076-2.444 4.396-2.25 4.396-4.59M233.418 198.96c-.294-2.735-.88-4.296-.39-8.3.196-1.175.39-5.665 0-7.816 0 0 1.565 7.52-3.515 8.988m33.012 12.014c0-3.81.88-5.96.88-5.96 1.17-5.37-1.075-7.422-.196-8.79.78-1.17 1.953-3.614.39-8.5 0 0 2.733 10.066-4.3 10.066-7.127 0-6.835-2.638-6.835-2.638M233.024 182.842c0 2.05 0 8.11 8.693 8.11 2.636 0 5.47-1.857 7.03-3.127m2.152-2.64c-.295-1.858-.295-4.2-.295-6.644m-13.088-3.31c2.343-.297 4.2-.587 8.597-.587m.292-6.067c.49 2.15-.29 5.568 3.712 6.057m4.2-6.835c-.587 1.564-.587 3.126-.783 4.2m.196 2.645c1.662 0 4.787-1.076 8.693-.294m1.37 21.874c.78 1.565.976 3.614 3.418 5.96m-30.47-10.942c.195 1.27-1.66 5.47-.295 8.89 1.27 3.418 1.076 7.327-1.075 10.647m6.352-18.262c-.78 1.56-2.15 3.126-2.443 4.493m6.34-1.564c0 .978-2.635 8.4-4.494 10.45 0 0 3.42 1.368 2.93 6.35m7.035-20.217c0 1.27-.195 1.564.88 2.34m2.347 0c1.267 1.564 5.272 6.255 4.393 8.89m-7.033-6.25c.294.978.294 6.058-.586 8.598m-2.044-.197c-1.075 0-2.636.783-2.93 2.638m8.393-2.934c1.072-.294 3.22 1.56 3.22 6.838m15.048-9.862c-2.05.585-2.93 1.662-2.343 1.074-1.075.88-2.052 1.465-2.052 1.465"/></g><path d="M238.198 190.07c.584 0 1.074-.39 1.074-.88 0-.394-.487-.782-1.074-.782-.488 0-.98.388-.98.783 0 .486.49.88.98.88zm73.768 8.218c.49 0 .98-.39.98-.88 0-.485-.488-.778-.98-.778-.583 0-1.073.293-1.073.778 0 .49.49.88 1.073.88z" fill="#000"/><path d="M229.318 230.218c1.172-7.62 4.786-13.97 4.883-14.556 0 0 3.71.783 10.158 1.367 6.347.68 8.106.39 11.036.193 2.83-.29 6.542-.78 6.542-.78s1.172 2.344 1.27 4.69c.292 4.98 2.146 26.57 2.34 32.33 0 0 .782 3.42.782 11.82 0 9.185 2.54 27.84 2.54 37.806l-2.54.49s-13.868 1.073-13.868-.783c0-2.05-.78-25.983 1.27-40.44 0 0-.488-2.833-1.27-5.277-.78-2.344-4.2-9.67-4.2-11.23 0 0-5.467 15.43-5.76 18.07-.293 2.443-1.076 36.824-1.564 39.66 0 0-7.91 6.056-8.985 6.644-1.073.49-8.69-3.226-8.887-4.2-.294-1.073.78-12.7 4.395-31.85 1.368-6.837.586-8.1.586-9.96 0-1.856.098-26.374 1.27-33.994l.004-.002z" fill="#fff"/><path d="M242.5 263.923c-.585 2.15-1.564 4.2-3.417 5.57m-2.64-51.487c-.293 1.27-2.15 7.032-6.84 10.452m13.674-9.376c-1.075 3.42-5.273 21.785-6.057 43.567m-.29 6.84c-.195 2.05-1.268 17.293-1.562 19.927m-.78 2.932c-.488 1.07-2.635 9.96-2.635 17.873m30.956-34.482c-.197 1.856-.98 15.042 3.417 26.862m-17.77-82.54c-.293 2.146-.78 16.02-.78 17.093 0 1.072 1.562 2.637 2.343 2.93 0 0-1.563.49-1.856 5.764m-3.912-12.407c-.296 1.658-1.857 8.205-2.932 10.843m12.6-24.417s4.688.976 4.98 0c0 0 1.563 28.33 3.71 44.054m-10.736-40.446c0 1.857-.584 15.826-.584 15.826m2.34 2.05s1.855 2.635 1.37 3.903m-17.094-26.953c1.564.488 2.93.78 2.93.78m4.98 1.562c-.294.782-.585 4.397-.585 4.397m8.4 37.315c.587.782 1.37 1.86.783 4.202" fill="none"/><path d="M233.514 215.472s0-3.126 1.17-4.69c0 0 3.32.685 8.01 1.173 4.784.487 8.592.88 12.11.487 3.516-.39 7.13-1.27 7.13-1.27s.977 4.594.486 5.277c0 0-3.81.78-8.007.975-4.298.29-11.426-.392-13.867-.78-3.225-.392-6.058-.98-7.032-1.173z" fill="#9b5f00"/><path d="M236.538 215.856l.583-4.688.98.096-.195 4.885-1.367-.294m21.196-3.907l.1 5.275 1.17-.198-.096-5.373-1.174.295m-15.043 0l-.39 5.078h.686l.683-5.08h-.98" fill="#fff"/><path d="M225.7 307.978c-.294 1.27-.78 3.027-.978 5.276 0 .487-.487 3.126.977 3.222 1.074.098 1.367-2.736 1.367-2.736s-.978 3.126.293 3.518c1.76.387 1.953-3.42 1.953-3.42-.196 1.075-1.368 3.81.293 4.1 1.758.295 2.246-3.712 2.246-3.712s-1.464 4.007.293 4.104c1.66.096 1.66-3.91 1.66-3.91s-.88 4.79 1.464 4.398c1.268-.195 1.562-1.857 1.855-2.833.39-1.463 1.27-3.32.196-6.348-.78-2.247-.486-2.833-.486-2.833s-2.736 2.053-4.883 3.42c-.978.585-6.253-2.246-6.253-2.246zm79.592 8.627c-.488-.295-.39 1.76-.585 2.732-.1.98.196 3.127 3.516 2.933 3.22-.295 6.447-.977 8.497-.488 2.052.585 5.078.682 6.74.682 1.66 0 2.736-.194 3.515-.49.685-.29 2.15.393 2.832.393.685 0 1.758-1.074 1.66-1.76-.098-1.27-1.268-1.27-2.93-1.366-1.564-.194-3.71-.49-4.785-.878-1.075-.392-3.027-1.466-5.47-1.954 0 0-4.687.197-5.662.197-.978 0-6.74.29-7.328 0z"/></g><g fill="none"><path d="M205.482 182.256c-.487.294-1.076-1.954.39-2.833 0 0 .39-1.854 1.953-2.05 0 0 1.268-1.76 3.127-1.56 0 0 2.145-1.465 2.93-1.273.778.098 2.734 2.05 2.83 2.736.196.683 0 1.856-.49 2.345-.585.584-.977-.097-1.074-.88 0 0 .39 1.464-.78 2.05-1.17.686-1.075.2-1.17-.585 0 0-.297 1.565-1.076 1.76-.782.292-1.27-.393-1.858-.393 0 0 .98.784.295 1.37-.685.487-1.466.29-1.956-.098-.488-.488-1.075-1.76-3.126-.586l.004-.002z" fill="#ffb366"/><path d="M215.053 178.646c-.49-1.563-2.052-2.93-3.906-2.734m2.15 4.194c-.295-.392-.393-.784-.685-1.172-.88-1.466-2.735-1.367-4.297-1.758m2.34 4.398c-.584-.39-.78-1.173-1.367-1.463-.977-.39-1.953-.878-3.125-.684"/></g></g><g transform="translate(-40) scale(.96)" stroke="#000" stroke-width=".509"><path d="M439.14 165.12c.712-.306.51.61.61.916.306 1.32.306 2.748.813 3.967.608 1.12.812 1.526 1.83 2.035 1.627.916 6.407 3.562 9.767 1.424a3.11 3.11 0 0 0 .712-.508s-1.22 4.172 2.95 6.207c1.32.71 15.668 8.242 15.668 8.242s1.525 2.748.61 6.512c-.205.61-.406 1.118.203 1.526 1.02.71 2.644 2.748 3.766 6.004 0 0 2.946-1.324 2.946-3.256 0-1.934-1.22-2.95-1.525-4.375-.2-1.324-1.016-4.682-.607-5.698.405-1.118 2.135-1.526 2.847-1.936.714-.41 1.526.405 1.322 1.32-.102 1.02-.812.817-1.628 1.02 0 0 1.02 1.93.814 3.355l9.358 4.783s-1.22 1.63-1.628 2.34c-.51.715-1.425 10.175-4.17 14.653-2.75 4.478-3.664 3.257-4.172 3.867-.61.508-1.424 1.324-2.137 1.934-.61.51-3.765.815-4.477-.915-.712-1.628-1.22-2.647-3.153-4.174-1.934-1.523-5.9-5.39-5.9-7.122 0 0-2.34 6.72-2.035 12.313 0 0-8.443 1.732-16.176 1.937-7.632.102-11.498-1.528-11.498-1.528s-1.018-6.41-.61-7.632c0 0-1.22 4.172-2.033 5.596-1.12 1.727-2.237 5.29-4.376 5.493-2.236.104-3.968-2.135-4.27-3.05v-6.717h-8.647c0-.1-3.766 1.424-5.087 1.223-1.22-.105-1.832-1.223-.813-1.63l.407-.304c-1.12 0-2.544.71-2.544.71h-4.272c0-.102.103-.41.103-.51.308-1.218 2.546-2.24 4.273-2.95 1.628-.608 3.356-1.323 4.578-1.423 1.934-.203 3.257-.1 6.207.408.812.1 3.967.408 5.798 1.322.508.304 1.118.405.813-.915-.305-1.426-1.22-5.598.307-8.346 1.018-1.933.916-3.56.813-5.19-.204-1.728-1.118-5.597-1.118-7.324 0-5.7 4.375-8.04 8.24-9.262 4.272-1.32 7.12-2.748 6.92-5.288-.104-2.646.608-7.02.202-9.058" fill="url(#e)"/><g fill="none"><path d="M456.34 153.63c.916 3.356 1.12 4.17 1.12 5.29 0 1.22-.51 1.425-.104 2.75.713 2.44-.712 5.087-2.44 7.936-.814 1.32-1.425 3.052-2.747 3.866-3.357 2.135-7.428-.408-9.564-1.327-1.117-.505-1.73-1.32-2.033-2.135-.407-1.22-.51-2.34-.813-3.967 0-.306.103-1.22-.61-.916-1.22-1.424-1.017-2.034-1.523-3.05-.51-1.022.916-2.14 2.034-1.935-.61-1.933-.915-4.072-.305-5.904.204-.608-.508-2.235.51-1.832 4.577 1.832 9.97 1.426 14.854 1.426.403 0 .71-.812 1.32-.71.097 0 .2.305.3.508" fill="url(#f)"/><path d="M456.75 155.35c.508-.406.204-2.34-.306-4.375-.203-1.017-1.018-1.424-2.136-2.542-1.12-1.122-1.525-1.122-2.236-1.424-.61-.207-2.034-.207-2.746-.51-.61-.307-2.238-.104-3.766.102-2.036.304-3.153.202-4.68 1.018-1.525.814-2.745 1.73-3.255 3.256-.406 1.118-1.12 2.542-.814 6.817.205 4.272 1.02 3.458 1.02 3.458s1.12-1.627 1.832-.61c0 0-.103-2.24-.305-3.56-.103-1.222 0-2.748.51-4.58 0 0 4.678 1.732 9.053 1.732 3.053 0 7.02-.306 7.123-1.017l.71 2.235h-.003z" fill="#000"/><path d="M450.44 160.14c.61 1.732.104 1.222.408 2.34m-10.278 2.03c0 .812-.61.61-1.02.61M456.85 158.82c-.916-.713-2.645-.204-3.46.102-1.525.71-.712 2.24-.204 3.664.204.71 1.02 1.727.51 2.44-.406.813-.712.41-1.628.51.104-.307-.812 0-1.117 0-.61-.1-.915.404-1.425.203-.608-.305-.508-1.22-.306-1.73m.1-4.48c0-.403-1.32-.81-2.745-.915-2.238-.102-2.442.104-4.172 1.322m11.497 8.953c-.405-.608-1.018-.916-2.137-.405 0-.204-1.524-.406-1.524-.406-.813 0-1.322.302-2.137.71m5.587.61c-.916-.61-3.256-.2-5.596-.2m.206.81c1.73.512 3.46.816 5.188 0"/><path d="M456.44 160.14c-.712-.1-1.018-.916-3.153.306-1.12.61 1.832 1.426 1.425 1.324 1.22.202 1.628-.508 1.73-1.122-.002-.203.202-.508-.002-.508zm-8.34.81c0-.816-1.83-1.12-2.847-.816-1.02.306-.61.105-1.526.613 1.02.203.712.303 1.526.71.914.408 1.12.814 2.34.206.305-.105.71-.508.812-.916-.1.1-.202.203-.305.203z" fill="#fff"/><path d="M455.12 161.36a.802.802 0 0 1-.813-.814c0-.508.307-.916.813-.916.405 0 .712.408.712.916 0 .408-.307.814-.712.814zm-8.75.2c-.406 0-.712-.403-.712-.916 0-.508.403-.81.812-.81.41 0 .712.302.712.81 0 .514-.303.916-.812.916z" fill="#000"/></g><use height="100%" width="100%" xlink:href="#g" transform="matrix(-1 0 0 1 748.816 0)" fill="#730000"/><g fill="none"><path d="M491.64 193.51c.508.206 1.934-2.033.508-3.05 0 0-.508-1.933-2.136-2.035 0 0-1.322-1.933-3.257-1.63 0 0-2.136-1.524-2.948-1.42-.916.2-2.95 2.236-3.053 2.95-.102.608 0 1.83.508 2.44.61.51 1.02-.104 1.12-1.02 0 0-.406 1.53.812 2.24 1.22.71 1.12.1 1.22-.71 0 0 .307 1.626 1.12 1.932.813.303 1.322-.408 1.935-.408 0 0-1.02.814-.306 1.323.713.61 1.525.303 2.035-.104.61-.405.305-1.728 2.44-.51z" fill="#730000"/><path d="M482.49 189.75c.506-1.73 2.235-3.153 4.067-2.85m-2.137 4.38c.203-.41.305-.816.61-1.224.915-1.524 2.948-1.524 4.576-1.832m-2.546 4.476c.61-.408.814-1.118 1.426-1.42 1.018-.513 2.136-.917 3.256-.715"/><path d="M482.31 186.77c-.896.716-1.837 1.798-1.906 2.28-.103.61-.008 1.828.5 2.44.55.46.95-.018 1.095-.782-.06.463-.072 1.465.843 2 1.22.71 1.118.095 1.22-.72 0 0 .31 1.636 1.124 1.94.813.305 1.325-.407 1.938-.407 0 0-1.026.805-.312 1.313.712.61 1.522.31 2.03-.094.61-.41.3-1.723 2.44-.5.266.105.803-.453 1.03-1.157l-7.688-5.53-2.315-.783z" fill="#730000" stroke="none"/><path d="M480.68 188.19c-1.502 2.582.5 4.132 1.164 2.62-.193 2.385 1.606 2.29 2.285 1.537.657 2.512 1.83 1.395 2.908 1.164-1.223 2.29 1.48 1.61 2.12 1.082.924-1.362 1.356-.277 2.036-.416l1.164-1.247m-7.978-5.7c-1.686.896-2.512 2.137-2.535 3.7m4.865-2.2c-1.687.896-2.512 2.137-2.535 3.7m5.405-1.75c-1.687.897-1.765 1.722-2.493 2.826"/></g></g><path d="M238.496 310.714l-.196-4.493 1.857 1.565.487-3.42c.78-.198 2.052 1.37 2.052 1.37l-.196-3.422 2.832 3.126s-.195-2.64.78-4.203c0 0 2.147 1.858 2.147 4.006 0 1.86 1.856-2.64 1.856-2.64.488 1.566 1.563 4.984 1.563 4.984l1.267-1.857 1.075 3.907 2.344-3.42 1.854 4.008 4.2-.295.49 2.342 1.854-2.05 2.443 1.562s2.05-.585 3.125-.585c1.075 0 2.345 1.37 2.345 1.37s.78-1.37 1.563-1.862c.78-.486 1.857.783 2.146 1.565l1.564-2.832s2.052 2.052 2.343 2.833c0 0 .292-2.343.78-3.127.49-.78 1.27.295 1.857 1.27l1.27-4.2s1.367.29 2.342 1.858c1.072 1.56 1.072-2.344 1.072-2.344s2.344 3.126 2.93 5.274c0 0-16.172 5.552-27.577 4.034-13.423-1.787-24.48-4.326-24.48-4.326m110.86-.488s.78-2.15 1.858-3.226c0 0 2.05 2.445 2.05 3.226 0 0 .584-.293 1.66-1.076l1.563 1.562 1.858-1.267 1.758 1.56 3.222-1.367 1.27 1.368 4.98-.582 1.855.78 1.76-2.248 1.66 1.76 2.637-2.64s1.27 1.074 1.563 1.858c0 0 2.148-1.072 2.637-1.857 0 0 2.05-.78 2.343.488 0 0 1.27-.977 1.173-2.05-.098-1.073 1.464-.294 1.952 1.073 0 0 .585-2.146 2.147-2.342 0 0 1.073 1.266.78 3.616 0 0 2.344-1.86 3.42-2.056 0 0 .487 2.64-.294 4.986 0 0 2.44-4.007 2.93-2.638.197.78.782 3.418.197 5.272l2.148-1.367.78 2.638 2.342-.49s-13.864 2.125-26.928.88c-13.063-1.247-25.32-5.86-25.32-5.86m-9.657 9.695c.634-.392-4.365 10.28-16.484 10.847-16.86.79-31.274-7.622-31.274-7.622s1.76-2.93 2.832-3.713c0 0 2.343 1.86 3.125 4.2 0 0 .293-1.562 1.074-2.93 0 0 2.93 1.366 3.42 3.225 0 0 1.074-1.858 1.856-2.344.78-.588 1.563 2.05 1.563 3.615 0 0 1.854-1.956 2.93-2.053 0 0 2.05.976 2.637 4.396 0 0 1.953-1.854 2.636-1.564 0 0 2.344 1.565 1.757 3.712-.292 1.174 2.344-1.364 5.57-2.147l2.83 2.148s2.636-3.514 3.42-4.69c0 0 2.147.784 2.147 2.056 0 0 .978-3.714 1.758-4.104.78-.488 1.854 1.17 1.854 2.248 0 0 .295-2.834 1.858-3.42 0 0 1.563 1.074 1.563 2.15-.003 0 1.657-3.225 2.927-4.008z" fill="#5ac800"/><path d="M238.496 310.714l-.196-4.493 1.857 1.565.487-3.42c.78-.195 2.052 1.37 2.052 1.37l-.196-3.42 2.832 3.126s-.195-2.637.78-4.2c0 0 2.147 1.858 2.147 4.006 0 1.86 1.856-2.638 1.856-2.638.488 1.566 1.563 4.984 1.563 4.984l1.267-1.86 1.074 3.907 2.344-3.418 1.856 4.005 4.2-.295.49 2.345 1.854-2.05 2.443 1.563s2.05-.585 3.125-.585c1.075 0 2.344 1.365 2.344 1.365s.78-1.365 1.563-1.854c.78-.488 1.854.78 2.144 1.56l1.564-2.83s2.052 2.05 2.344 2.83c0 0 .292-2.34.78-3.124.49-.78 1.27.294 1.857 1.27l1.268-4.2s1.367.292 2.342 1.856c1.075 1.56 1.075-2.346 1.075-2.346s2.343 3.128 2.932 5.275m58.8-.783s.78-2.146 1.856-3.222c0 0 2.05 2.443 2.05 3.222 0 0 .586-.293 1.66-1.072l1.564 1.56 1.856-1.267 1.76 1.562 3.222-1.367 1.266 1.367 4.98-.583 1.86.78 1.756-2.244 1.66 1.755 2.637-2.635s1.27 1.07 1.563 1.855c0 0 2.15-1.074 2.637-1.855 0 0 2.05-.78 2.342.485 0 0 1.27-.976 1.172-2.05-.1-1.073 1.464-.29 1.953 1.078 0 0 .584-2.15 2.148-2.348 0 0 1.073 1.27.78 3.616 0 0 2.343-1.854 3.418-2.05 0 0 .49 2.634-.292 4.98 0 0 2.442-4.004 2.93-2.636.196.78.782 3.42.196 5.273l2.148-1.367.78 2.638 2.343-.49m-109.737 7.957s1.76-2.93 2.83-3.712c0 0 2.345 1.857 3.127 4.2 0 0 .295-1.56 1.075-2.93 0 0 2.93 1.365 3.418 3.224 0 0 1.076-1.856 1.857-2.343.78-.59 1.563 2.05 1.563 3.613 0 0 1.856-1.955 2.93-2.052 0 0 2.05.976 2.637 4.397 0 0 1.954-1.856 2.636-1.565 0 0 2.344 1.565 1.758 3.712-.293 1.17 2.344-1.366 5.568-2.148l2.83 2.147s2.637-3.516 3.42-4.69c0 0 2.148.78 2.148 2.053 0 0 .978-3.714 1.76-4.102.78-.487 1.852 1.17 1.852 2.247 0 0 .295-2.833 1.86-3.42 0 0 1.562 1.074 1.562 2.15 0 0 1.66-3.222 2.93-4.007" stroke="#060" stroke-width=".509" fill="none"/><g fill="#fff"><path d="M319.462 361.9c21.977.198 34.967-7.815 42.097-12.6 16.7-11.232 20.216-11.624 22.95-11.43 3.128.296 7.715 1.37 7.91 4.105.295 4.2-6.54 6.055-10.45 6.055-4.002 0-14.455-2.638-14.455-2.638l-2.736 1.858c1.856.88 23.246 8.01 27.348 1.27 4.197-6.837 8.4-17.877 8.4-17.877s-4.69-8.4-15.14-8.4c-10.55 0-20.806 6.644-27.64 11.62-6.84 4.983-15.43 11.82-38.288 11.82-22.855 0-31.546-6.837-38.382-11.82-6.836-4.98-17.093-11.62-27.542-11.62-10.547 0-15.237 8.4-15.237 8.4s4.2 11.04 8.4 17.877c4.1 6.74 25.49-.39 27.344-1.27l-2.636-1.858s-10.548 2.638-14.456 2.638c-4.004 0-10.84-1.855-10.548-6.055.196-2.736 4.785-3.81 7.912-4.106 2.734-.194 6.25.198 22.95 11.43 7.134 4.785 20.124 12.503 42.196 12.6M284.106 336.01s0-1.86-.296-4.592c-.39-3.518-2.44-4.397-4.1-3.908-1.074.387-3.222 3.03-3.222 3.03v.097a31.068 31.068 0 0 0-3.028-1.857c.782-.88 5.274-3.614 6.35-3.614.977 0 14.454 5.47 18.75 9.18 1.075.98 1.857 7.035 1.27 8.986-7.228-1.855-11.916-4.59-15.727-7.227v-.098m-6.45 13.683s-2.93 2.93-3.025 8.302c-.1 6.348 4.492 6.643 7.52 6.543 3.614-.1 6.542-2.148 6.446-8.89 0 0-5.96-2.54-10.94-5.957m77.07-13.678s.1-1.86.39-4.592c.388-3.518 2.343-4.397 4.004-3.908 1.074.387 3.222 3.03 3.222 3.03v.097c.976-.686 1.95-1.27 3.026-1.857-.78-.88-5.272-3.614-6.25-3.614-1.073 0-14.55 5.47-18.848 9.18-.98.98-1.76 7.035-1.27 8.986 7.326-1.855 11.915-4.59 15.725-7.227v-.098m6.442 13.683s2.93 2.93 3.028 8.302c.195 6.348-4.495 6.643-7.52 6.543-3.615-.1-6.446-2.148-6.446-8.89 0 0 5.958-2.54 10.94-5.957"/></g><path d="M271.31 345.39s-10.453 2.637-14.36 2.637c-4.002 0-10.84-1.853-10.546-6.056.195-2.735 4.785-3.807 7.91-4.1 2.344-.2 5.372.097 16.995 7.52m96.21 0s10.45 2.637 14.456 2.637c3.907 0 10.743-1.853 10.45-6.056-.195-2.735-4.784-3.807-7.91-4.1-2.346-.2-5.374.097-16.996 7.52m-83.414-9.284c-1.075-.782-2.15-1.566-3.128-2.344-1.464-1.076-2.93-2.053-4.494-3.126 0 0 2.15-2.736 3.223-3.03 1.66-.584 3.71.292 4.1 3.81.294 2.735.294 4.69.294 4.69m-7.127 27.552c1.858 1.076 3.907.98 5.178.88 3.615-.1 6.544-2.15 6.447-8.89 0 0 4.49 2.248 11.817 4.006 0 0 1.173 1.464 1.367 4.393.297 2.445-1.366 5.08-3.318 4.887 0 0-10.255-1.857-16.504-2.93-3.615-.682-4.98-2.344-4.98-2.344m77.745-27.554l3.22-2.344c1.37-1.076 2.833-2.053 4.397-3.126 0 0-2.148-2.736-3.222-3.03-1.66-.584-3.614.292-4.003 3.81-.295 2.732-.392 4.69-.392 4.69m7.123 27.552c-1.855 1.076-3.907.98-5.177.88-3.615-.1-6.447-2.15-6.447-8.89 0 0-4.494 2.248-11.72 4.006 0 0-1.27 1.464-1.466 4.393-.196 2.445 1.465 5.08 3.32 4.887 0 0 10.352-1.857 16.506-2.93 3.614-.682 4.98-2.344 4.98-2.344" fill="#69f"/><g stroke="#000" stroke-width=".712" fill="none"><path d="M319.462 361.9c21.978.196 34.967-7.816 42.097-12.6 16.7-11.234 20.216-11.623 22.95-11.43 3.127.294 7.718 1.37 7.91 4.103.295 4.2-6.542 6.055-10.45 6.055-4.004 0-14.456-2.633-14.456-2.633l-2.734 1.856c1.857.88 23.244 8.01 27.346 1.268 4.2-6.837 8.398-17.874 8.398-17.874s-4.688-8.404-15.14-8.404c-10.546 0-20.802 6.645-27.64 11.626-6.836 4.98-15.43 11.82-38.285 11.82-22.856 0-31.546-6.84-38.383-11.82-6.836-4.98-17.094-11.626-27.543-11.626-10.546 0-15.235 8.404-15.235 8.404s4.197 11.037 8.4 17.874c4.1 6.74 25.49-.387 27.345-1.267l-2.635-1.855s-10.55 2.633-14.454 2.633c-4.006 0-10.842-1.85-10.55-6.055.196-2.736 4.785-3.808 7.912-4.102 2.733-.193 6.248.198 22.95 11.43 7.132 4.787 20.122 12.505 42.194 12.6zM271.31 345.39s-10.454 2.637-14.357 2.637c-4.005 0-10.84-1.856-10.55-6.056.196-2.735 4.786-3.81 7.912-4.1 2.34-.2 5.37.097 16.994 7.52zm96.2 0s10.452 2.637 14.456 2.637c3.906 0 10.743-1.856 10.45-6.056-.195-2.735-4.783-3.81-7.908-4.1-2.344-.2-5.374.098-16.994 7.52h-.004zm-83.404-9.284c-1.076-.782-2.15-1.566-3.128-2.344-1.462-1.076-2.93-2.053-4.492-3.126 0 0 2.15-2.736 3.222-3.03 1.66-.584 3.71.292 4.1 3.813.298 2.73.298 4.686.298 4.686zM284.106 336.01s0-1.86-.296-4.592c-.388-3.518-2.44-4.397-4.1-3.908-1.075.39-3.224 3.03-3.224 3.03v.097a31.88 31.88 0 0 0-3.028-1.857c.782-.88 5.274-3.614 6.35-3.614.98 0 14.454 5.47 18.75 9.183 1.077.977 1.857 7.03 1.27 8.986-7.227-1.86-11.916-4.593-15.727-7.228m-6.446 13.582s-2.93 2.93-3.026 8.302c-.098 6.344 4.492 6.64 7.52 6.543 3.615-.1 6.542-2.148 6.448-8.892 0 0-5.958-2.54-10.94-5.96l-.002.007zM280.102 351.15s-2.34 2.44-2.733 6.445c-.197 3.127 1.854 4.883 4.49 4.688 3.712-.193 5.18-5.272 3.42-8.105l-5.178-3.03"/><path d="M276.973 363.658c1.856 1.074 3.905.977 5.176.88 3.614-.1 6.54-2.15 6.447-8.89 0 0 4.492 2.246 11.818 4.004 0 0 1.173 1.464 1.366 4.397.296 2.44-1.365 5.08-3.317 4.882 0 0-10.257-1.857-16.506-2.93-3.617-.686-4.984-2.344-4.984-2.344zm77.75-27.552c1.075-.782 2.15-1.566 3.223-2.344 1.368-1.076 2.832-2.053 4.395-3.126 0 0-2.147-2.736-3.222-3.03-1.66-.584-3.614.292-4.003 3.813-.294 2.73-.39 4.687-.39 4.687h-.002zM354.723 336.01s.1-1.86.392-4.592c.39-3.518 2.342-4.397 4.003-3.908 1.075.39 3.222 3.03 3.222 3.03v.097a31.88 31.88 0 0 1 3.028-1.857c-.782-.88-5.274-3.614-6.252-3.614-1.074 0-14.55 5.47-18.848 9.183-.98.977-1.76 7.03-1.27 8.986 7.326-1.86 11.915-4.593 15.725-7.228m6.442 13.582s2.93 2.93 3.028 8.302c.195 6.344-4.495 6.64-7.522 6.543-3.612-.1-6.443-2.148-6.443-8.892 0 0 5.956-2.54 10.938-5.96v.007zM358.726 351.15s2.345 2.44 2.735 6.445c.296 3.127-1.856 4.883-4.492 4.688-3.71-.193-5.078-5.272-3.42-8.105l5.178-3.03"/><path d="M361.846 363.658c-1.855 1.074-3.907.977-5.177.88-3.614-.1-6.445-2.15-6.445-8.89 0 0-4.495 2.246-11.72 4.004 0 0-1.27 1.464-1.465 4.397-.195 2.44 1.465 5.08 3.32 4.882 0 0 10.354-1.857 16.505-2.93 3.615-.686 4.98-2.344 4.98-2.344z"/></g><path d="M299.638 361.41s3.223 2.348-.683 5.277m-8.984-6.84l9.865 4.3m-8.213-2.054l7.225 3.124m-4.68-4.977l5.47 2.445m39.65-1.274s-3.322 2.348.585 5.277m8.986-6.84l-9.865 4.3m8.3-2.054l-7.226 3.124m4.595-4.977l-5.372 2.445" stroke="#fff" stroke-width=".712" fill="none"/><path d="M261.018 331.363c.14.227.23.464.273.707a2.51 2.51 0 0 1-.028.83 2.346 2.346 0 0 1-1.157 1.644c-.634.372-1.36.475-2.164.32a3.68 3.68 0 0 1-1.086-.385 4.348 4.348 0 0 1-.887-.595c-.107.127-.22.25-.334.376-.157-.027-.313-.06-.47-.088.152-.945.3-1.892.457-2.836l.476.092c.03.367.09.7.167 1.007.073.308.2.598.368.887.16.265.364.495.615.68.245.186.55.317.908.383.27.054.513.063.732.03.213-.033.4-.097.543-.203.147-.104.272-.238.368-.4.093-.156.16-.344.203-.576a1.71 1.71 0 0 0-.108-.973c-.13-.323-.378-.59-.72-.806a48.25 48.25 0 0 0-.81-.503c-.307-.187-.57-.346-.79-.506-.426-.298-.745-.634-.936-1.03-.196-.387-.247-.852-.142-1.398.06-.312.18-.588.362-.837.18-.25.41-.45.69-.62.266-.165.565-.264.898-.324a2.902 2.902 0 0 1 1 .016c.383.07.722.197 1.002.37.28.176.535.358.754.564.105-.114.212-.23.316-.346l.47.09-.472 2.74-.478-.092c-.025-.33-.064-.647-.114-.954a3.557 3.557 0 0 0-.277-.857c-.125-.26-.3-.476-.514-.656-.213-.18-.502-.3-.858-.37a1.378 1.378 0 0 0-1.02.175c-.304.19-.494.446-.558.787-.066.353-.036.664.088.932.12.27.33.504.623.717.26.193.524.358.782.51.256.154.5.308.738.47.215.144.426.3.618.473.187.168.35.354.475.553m11.98 1.68c-.1-.05-.257-.107-.464-.175-.21-.067-.39-.1-.556-.084-.163.013-.334.133-.516.354a5.674 5.674 0 0 0-.572.874c-.586 1.063-1.175 2.126-1.76 3.19-.225.406-.505.71-.843.918-.337.208-.7.326-1.084.365-.38.04-.74.008-1.095-.074a4.164 4.164 0 0 1-.945-.367c-.445-.246-.815-.52-1.1-.83-.285-.313-.5-.63-.62-.957a2.225 2.225 0 0 1-.156-.97c.02-.32.11-.615.26-.888l2.394-4.34a.904.904 0 0 0 .11-.34c.002-.098-.043-.22-.124-.356a1.497 1.497 0 0 0-.27-.305c-.123-.1-.22-.18-.306-.236l.202-.366c1.035.572 2.065 1.14 3.1 1.708l-.204.367c-.1-.053-.23-.1-.393-.156a1.933 1.933 0 0 0-.372-.104c-.14-.022-.26 0-.35.078a.878.878 0 0 0-.236.28c-.746 1.352-1.493 2.703-2.238 4.056-.11.197-.2.416-.27.653a1.79 1.79 0 0 0-.08.746c.03.267.134.517.3.767.17.25.46.487.867.712.38.21.74.33 1.067.356.324.02.616-.02.876-.134.24-.108.456-.246.623-.418.17-.17.313-.36.427-.564l1.66-3.012c.213-.384.36-.712.435-.988.08-.274.083-.47.02-.61-.07-.157-.206-.316-.386-.477a3.57 3.57 0 0 0-.445-.353l.203-.366 3.042 1.68a19.19 19.19 0 0 1-.202.367m4.31 7.46c.13.266.206.56.21.87.007.312-.082.635-.274.97a1.932 1.932 0 0 1-.73.75 2.166 2.166 0 0 1-.936.278c-.324.03-.65-.005-.988-.09a4.03 4.03 0 0 1-.98-.4l-3.486-2.007.21-.364c.087.042.214.095.388.162.174.07.302.11.386.12a.54.54 0 0 0 .342-.063.712.712 0 0 0 .243-.27l3.007-5.22a.94.94 0 0 0 .12-.34.557.557 0 0 0-.115-.352 1.678 1.678 0 0 0-.28-.32c-.115-.1-.207-.18-.293-.235.068-.12.14-.242.21-.362l3.398 1.958c.263.152.5.32.713.51.207.19.385.413.53.665.133.238.213.5.22.778.01.28-.062.572-.23.864a1.806 1.806 0 0 1-.534.596c-.208.15-.44.244-.693.29a2.482 2.482 0 0 1-.743.03 3.325 3.325 0 0 1-.794-.166c-.01.016-.02.03-.027.047a5 5 0 0 1 .62.563c.216.235.388.48.506.74zm-.625-1.82c.217-.074.395-.18.545-.325.146-.146.293-.335.432-.577.228-.398.297-.775.208-1.132-.086-.36-.374-.67-.85-.946-.11-.06-.25-.142-.42-.234-.173-.095-.315-.17-.424-.226-.54.934-1.074 1.863-1.612 2.795l.654.376c.286.166.548.27.79.314.247.043.47.034.677-.043zm-.612 2.734c.248-.427.3-.862.173-1.308-.13-.45-.47-.824-1.018-1.14-.22-.127-.41-.235-.56-.317l-.35-.183-1.474 2.56a.62.62 0 0 0-.017.64c.112.21.326.404.644.585.512.297.993.38 1.438.24.445-.146.83-.496 1.166-1.078zm18.912 4.317a3.455 3.455 0 0 0-.48-.126 1.43 1.43 0 0 0-.56-.03c-.16.03-.318.168-.478.406-.16.24-.32.55-.482.926l-1.434 3.35c-.183.426-.432.758-.746.998a2.572 2.572 0 0 1-1.043.47c-.377.077-.74.08-1.097.032a4.306 4.306 0 0 1-2.156-.986c-.315-.285-.558-.576-.715-.89a2.226 2.226 0 0 1-.25-.95c-.012-.32.045-.623.168-.91l1.95-4.556a.902.902 0 0 0 .078-.347.71.71 0 0 0-.158-.34 1.597 1.597 0 0 0-.3-.278c-.132-.086-.235-.158-.328-.204.056-.128.11-.26.164-.383l3.254 1.393c-.056.127-.11.257-.166.383a3.45 3.45 0 0 0-.407-.115 2.308 2.308 0 0 0-.38-.067c-.144-.01-.26.025-.34.112a.945.945 0 0 0-.208.302c-.61 1.42-1.217 2.84-1.823 4.26-.09.205-.158.43-.207.672-.055.248-.053.5 0 .753.054.262.182.5.375.733.193.23.503.44.932.62.4.174.772.257 1.1.25.322-.013.61-.08.856-.22.23-.134.43-.29.58-.477.152-.184.278-.388.37-.604l1.354-3.16c.173-.405.287-.746.337-1.027.05-.283.034-.478-.044-.61-.088-.15-.235-.294-.432-.437a3.722 3.722 0 0 0-.475-.306l.164-.383c1.063.456 2.13.91 3.192 1.367-.058.124-.114.253-.168.38m9.188 10.79l-3.605-1.042.117-.403c.133.03.302.066.515.104.21.032.36.043.45.027a.81.81 0 0 0 .336-.175.713.713 0 0 0 .18-.323l1.696-5.858a1.38 1.38 0 0 0-.09-.024c-1.576 2.03-3.19 4.028-4.77 6.058-.093-.027-.186-.056-.285-.083-.192-2.59-.435-5.18-.627-7.77a.712.712 0 0 0-.074-.02l-1.39 4.808c-.134.462-.205.82-.215 1.086-.015.26.03.457.118.6.06.105.216.227.46.38.243.15.405.233.484.26l-.117.404c-1.097-.317-2.195-.634-3.295-.95l.117-.406c.178.032.37.06.57.07.2.018.364 0 .495-.06.162-.07.3-.197.418-.407.112-.204.242-.562.39-1.075l1.19-4.12a1.73 1.73 0 0 0 .084-.61.95.95 0 0 0-.14-.442 1.227 1.227 0 0 0-.373-.352 2.04 2.04 0 0 0-.49-.233l.118-.402 2.778.803c.182 2.243.415 4.482.595 6.727 1.14-1.5 2.315-2.98 3.457-4.48.128-.167.25-.34.36-.533a2.83 2.83 0 0 0 .2-.382l2.66.77-.117.402a3.857 3.857 0 0 0-.422-.066 2.406 2.406 0 0 0-.392-.022.44.44 0 0 0-.33.153.937.937 0 0 0-.168.325c-.56 1.938-1.12 3.87-1.678 5.807a.79.79 0 0 0-.03.353c.02.104.086.207.196.315.06.06.17.127.34.21.168.085.3.14.403.177l-.12.4m8.726-2.65c.22.197.406.437.53.722.125.287.173.62.124 1-.048.383-.18.708-.38.977-.21.264-.46.464-.756.62-.29.15-.607.245-.948.3-.35.047-.7.053-1.058.01-1.33-.17-2.66-.337-3.99-.503l.052-.417c.097.007.233.007.42 0a1.73 1.73 0 0 0 .406-.04.522.522 0 0 0 .29-.19.722.722 0 0 0 .12-.34c.253-1.992.5-3.984.753-5.978a.97.97 0 0 0-.02-.36.57.57 0 0 0-.243-.28 1.662 1.662 0 0 0-.38-.184c-.147-.05-.26-.088-.36-.104.016-.14.032-.278.05-.417 1.297.162 2.593.327 3.892.49.3.04.58.102.857.196.264.096.51.228.74.41.215.165.393.376.51.63.115.254.156.548.114.884-.036.29-.123.543-.256.756a1.735 1.735 0 0 1-.526.538c-.202.137-.43.234-.673.313a3.407 3.407 0 0 1-.796.155l-.01.053c.24.06.5.15.79.277.284.13.538.29.746.483zm-1.28-1.434c.17-.15.297-.32.38-.51.077-.19.138-.42.172-.7.06-.457-.024-.827-.245-1.126-.22-.298-.602-.472-1.15-.54a27.263 27.263 0 0 0-.96-.103c-.135 1.07-.267 2.137-.403 3.204.252.03.5.06.75.094.324.04.61.035.854-.018.238-.053.44-.15.6-.3zm.493 2.76c.06-.493-.06-.914-.347-1.276-.295-.362-.754-.576-1.38-.655-.256-.032-.467-.06-.64-.075-.176-.02-.305-.028-.396-.036l-.37 2.933a.626.626 0 0 0 .233.595c.184.15.46.247.82.292.59.075 1.062-.034 1.417-.337.357-.308.578-.782.662-1.444zm11.432 2.64h-2.29c-.5-.792-.966-1.457-1.367-2.034-.41-.574-.86-1.15-1.337-1.765h-.868v2.66c0 .136.025.26.065.36.043.105.14.186.283.242.07.028.197.05.376.077.18.02.333.035.456.04v.42h-3.59v-.42c.094-.005.232-.022.42-.04.18-.02.305-.05.377-.078a.512.512 0 0 0 .26-.224.742.742 0 0 0 .08-.378v-6.06c0-.134-.02-.26-.06-.37-.042-.102-.133-.185-.282-.24a2.226 2.226 0 0 0-.39-.1c-.16-.025-.292-.05-.405-.052v-.42h3.922c.358 0 .694.033 1.012.106a2.8 2.8 0 0 1 .855.356c.244.16.446.356.59.613.147.254.223.56.223.92 0 .327-.05.61-.15.858-.1.25-.25.46-.443.645a2.532 2.532 0 0 1-.646.438c-.25.124-.528.23-.83.32.412.55.77 1.004 1.047 1.38.27.374.62.823 1.017 1.364a2.526 2.526 0 0 0 .9.8c.1.055.234.09.39.115.155.03.287.044.387.05-.002.137-.002.277-.002.418zm-3.148-6.246c0-.507-.154-.904-.442-1.21-.29-.298-.712-.444-1.25-.444h-1.02v3.592h.785c.55 0 1.016-.166 1.377-.52.36-.353.55-.82.55-1.418zm12.93 5.622l-3.52.268c-.013-.14-.023-.28-.033-.42.31-.042.565-.1.77-.177.198-.077.296-.154.29-.24-.004-.037-.016-.077-.023-.13a.464.464 0 0 0-.046-.134c-.276-.608-.568-1.21-.846-1.82l-2.974.225a9.564 9.564 0 0 0-.214.74c-.055.213-.107.404-.147.58a3.39 3.39 0 0 0-.078.42c-.01.11-.017.196-.01.26.01.158.144.266.403.338.258.07.542.095.86.09l.033.42-3.19.24c-.01-.14-.02-.28-.032-.42.102-.012.23-.044.382-.097.152-.05.275-.108.37-.18.154-.12.266-.24.346-.366.082-.12.153-.282.22-.497.337-1.08.736-2.29 1.14-3.64.404-1.348.79-2.546 1.107-3.597l.48-.035c1.105 2.34 2.26 4.655 3.37 6.99.07.15.15.267.23.36.086.09.194.173.338.25.095.05.217.086.37.11.15.03.272.04.375.035.012.145.022.286.032.426zm-3.664-3.16c-.503-1.048-1.028-2.088-1.533-3.14-.33 1.115-.686 2.22-1.02 3.334.852-.066 1.7-.13 2.553-.194zm15.713-6.613a27.85 27.85 0 0 0-.428.116c-.165-.28-.422-.55-.77-.828-.346-.274-.646-.394-.89-.367-.126.02-.27.043-.432.08-.168.042-.353.087-.565.143-.46.124-.915.25-1.374.373l.88 3.25.94-.256c.284-.077.505-.164.645-.27.134-.1.25-.228.326-.377.054-.11.092-.26.107-.455.016-.19.01-.39-.026-.598l.433-.118c.29 1.065.577 2.125.862 3.184-.14.037-.287.076-.432.118a2.865 2.865 0 0 0-.272-.54c-.13-.192-.246-.326-.348-.4a.874.874 0 0 0-.508-.177 2.285 2.285 0 0 0-.66.1l-.94.257c.254.93.504 1.857.756 2.786.034.124.09.232.17.316.075.085.182.136.328.165.066.016.202.01.402-.008.2-.012.355-.038.455-.06.035.135.074.272.11.406-1.185.32-2.37.643-3.554.964-.036-.134-.075-.272-.11-.406.115-.036.267-.093.453-.164.183-.072.306-.122.358-.167.103-.08.17-.18.194-.288a.808.808 0 0 0-.017-.374l-1.583-5.836a1.1 1.1 0 0 0-.154-.32c-.07-.082-.182-.133-.332-.16a2.428 2.428 0 0 0-.45-.018 2.36 2.36 0 0 0-.443.047l-.11-.406 6.43-1.742c.18.678.365 1.356.548 2.03m9.465-.72c.31.775.616 1.55.926 2.324l-5.98 2.888-.183-.38c.085-.046.2-.12.36-.22a1.45 1.45 0 0 0 .303-.23.507.507 0 0 0 .142-.32.776.776 0 0 0-.095-.37l-2.61-5.406a.935.935 0 0 0-.214-.29.51.51 0 0 0-.357-.1c-.1-.01-.238.005-.41.036a1.93 1.93 0 0 0-.402.107l-.18-.38 3.226-1.557.183.38a2.79 2.79 0 0 0-.362.238c-.148.11-.253.196-.307.258a.41.41 0 0 0-.144.338.795.795 0 0 0 .09.362l2.45 5.072c.11.23.207.407.297.523.09.122.19.2.31.225.11.027.254.01.428-.06.175-.056.407-.154.7-.3.134-.06.267-.135.412-.21.142-.073.27-.16.387-.237.117-.084.215-.173.306-.26a.59.59 0 0 0 .165-.25c.064-.238.126-.563.16-.995.03-.423.043-.756.017-1 .13-.058.257-.12.383-.182m4.474-8.303a4.184 4.184 0 0 1 1.466.753c.46.372.86.832 1.197 1.402a4.94 4.94 0 0 1 .643 1.724c.094.575.06 1.125-.067 1.653-.123.515-.353.98-.67 1.41-.313.43-.71.78-1.193 1.063-.508.3-1.03.49-1.577.55-.546.06-1.067.027-1.573-.133a4.047 4.047 0 0 1-1.438-.767 5.026 5.026 0 0 1-1.156-1.348 4.968 4.968 0 0 1-.65-1.738 4.353 4.353 0 0 1 .06-1.646c.125-.52.362-.992.68-1.425.32-.434.714-.78 1.183-1.058a3.99 3.99 0 0 1 1.53-.54 3.845 3.845 0 0 1 1.565.097zm2.253 5.574a3.932 3.932 0 0 0-.198-1.3c-.142-.44-.355-.9-.64-1.38a7.213 7.213 0 0 0-.95-1.28c-.34-.355-.7-.618-1.06-.8a2.39 2.39 0 0 0-1.11-.254c-.375 0-.755.12-1.122.335-.41.242-.708.54-.88.9-.176.36-.272.75-.267 1.166.007.402.08.824.235 1.274.153.452.36.896.62 1.34.287.485.596.9.91 1.242.32.34.674.604 1.04.8.367.192.733.274 1.117.28.38 0 .77-.108 1.16-.34.366-.216.653-.504.845-.844.19-.346.297-.727.3-1.138zm10.535-5.72c-.622.44-1.25.886-1.87 1.327-.86-.357-1.63-.63-2.29-.867-.667-.236-1.37-.44-2.106-.667l-.713.504 1.54 2.17c.077.107.173.19.26.253.1.06.22.068.37.034.075-.017.19-.07.353-.156.163-.083.29-.16.394-.23l.243.343c-.976.694-1.952 1.385-2.93 2.077l-.242-.342c.075-.06.178-.15.318-.275.133-.12.22-.215.263-.284a.487.487 0 0 0 .08-.333.744.744 0 0 0-.15-.352c-1.17-1.648-2.34-3.3-3.507-4.946a1.055 1.055 0 0 0-.26-.263c-.095-.063-.217-.08-.366-.036a3.07 3.07 0 0 0-.74.336l-.244-.342 3.197-2.267a4.56 4.56 0 0 1 .887-.496 2.72 2.72 0 0 1 .904-.207c.296-.015.573.036.836.156.27.12.508.33.715.623.19.267.317.525.374.786.066.26.07.516.016.78a2.52 2.52 0 0 1-.276.73 4.856 4.856 0 0 1-.495.74c.657.212 1.21.373 1.654.52.435.15.984.312 1.618.524a2.504 2.504 0 0 0 1.196.132c.115-.013.24-.063.385-.13.145-.064.26-.133.343-.185.08.115.164.23.243.345zm-6.178-3.272c-.294-.415-.653-.65-1.06-.732-.414-.073-.84.047-1.28.36-.277.195-.553.39-.833.59l2.08 2.933c.213-.15.426-.302.64-.456.45-.317.73-.725.82-1.22.09-.5-.024-.99-.368-1.475zm13.176-2.007c.233.79.467 1.582.705 2.37-2.207.82-4.41 1.635-6.615 2.454-.05-.13-.1-.264-.146-.394.11-.047.26-.118.43-.215.18-.094.294-.157.34-.208a.586.586 0 0 0 .17-.308.737.737 0 0 0-.053-.364l-2.098-5.652a.975.975 0 0 0-.18-.303c-.078-.075-.194-.114-.346-.13-.117-.012-.268 0-.448.024-.19.02-.33.05-.437.083-.048-.13-.1-.263-.145-.393l6.165-2.288.702 1.896c-.14.054-.284.105-.42.157-.177-.26-.456-.49-.815-.715-.372-.23-.67-.31-.908-.256a4.274 4.274 0 0 0-.424.12c-.168.058-.35.118-.558.195l-1.25.462c.384 1.04.773 2.083 1.157 3.12l.9-.333c.285-.105.49-.21.605-.317a.877.877 0 0 0 .248-.392c.046-.14.06-.305.054-.51-.01-.2-.032-.378-.074-.548.138-.05.28-.102.42-.156l1.143 3.083c-.14.053-.283.104-.42.155a3.172 3.172 0 0 0-.33-.524c-.137-.167-.257-.287-.367-.35a.87.87 0 0 0-.497-.132c-.17.007-.37.06-.612.15l-.9.333c.292.79.58 1.575.875 2.364.087.234.173.41.26.54a.543.543 0 0 0 .307.235c.12.036.275.026.447-.015.177-.05.422-.124.73-.238.125-.047.285-.105.49-.18.203-.075.373-.14.502-.215.134-.07.277-.15.414-.246.137-.1.227-.187.26-.278.108-.242.193-.58.245-1.01.052-.428.083-.736.067-.92.136-.053.267-.1.406-.153m7.104-5.817c.42.338.78.755 1.055 1.268.277.52.464 1.1.55 1.758.09.66.058 1.272-.083 1.838a4.14 4.14 0 0 1-.707 1.497c-.31.422-.71.76-1.17 1.032-.46.27-.96.436-1.51.51-.59.078-1.145.046-1.665-.113-.525-.158-1-.39-1.4-.736a4.097 4.097 0 0 1-1.02-1.268 4.867 4.867 0 0 1-.54-1.693 4.94 4.94 0 0 1 .083-1.855c.14-.557.385-1.05.704-1.49a3.978 3.978 0 0 1 2.686-1.556 4.063 4.063 0 0 1 1.62.102c.517.146.986.375 1.396.704zm-.11 6.01c.174-.388.292-.81.332-1.273.037-.46.02-.966-.053-1.52a6.983 6.983 0 0 0-.373-1.55 3.884 3.884 0 0 0-.656-1.15 2.422 2.422 0 0 0-.923-.67 2.25 2.25 0 0 0-1.164-.13c-.475.063-.866.22-1.17.486-.3.262-.542.583-.7.97-.145.37-.248.786-.277 1.26-.04.475-.025.966.04 1.475.075.56.197 1.06.357 1.5.155.44.382.818.645 1.14.257.324.56.54.912.698.35.15.755.2 1.205.14a2.29 2.29 0 0 0 1.102-.445 2.38 2.38 0 0 0 .726-.93z" stroke="#000" stroke-width=".7"/><path d="M366.05 205.114v53.04c0 10.548-1.463 52.554-46.588 68.868-45.22-16.314-46.684-58.316-46.684-68.868v-53.04h93.273" stroke="#000" stroke-width=".977" fill="none"/></svg>