<svg xmlns="http://www.w3.org/2000/svg" height="480" width="640" viewBox="0 0 640 480"><path fill="#fff" d="M150.225 0H490.04v480.256H150.224z"/><path fill="#bf0a30" d="M-19.682 0h169.907v480.256H-19.682zm429.403 0H579.63v480.256H409.722zM188.105 232.07l-13.194 4.51 61.397 53.885c4.643 13.848-1.613 17.93-5.6 25.195l66.655-8.46-1.736 67.077 13.806-.397-3.01-66.52 66.72 7.908c-4.13-8.72-7.805-13.35-3.985-27.294l61.358-51.05-10.737-3.888c-8.78-6.774 3.793-32.628 5.69-48.943 0 0-35.827 12.32-38.175 5.874l-9.123-17.527-32.592 35.804c-3.56.853-5.078-.563-5.913-3.572l15.057-74.82-23.845 13.41c-1.996.853-3.992.117-5.307-2.21l-22.934-46.018-23.647 47.792c-1.782 1.712-3.567 1.91-5.048.746l-22.705-12.736 13.63 74.236c-1.085 2.945-3.68 3.776-6.735 2.18l-31.157-35.397c-4.076 6.53-6.838 17.2-12.225 19.59-5.388 2.24-23.43-4.524-35.525-7.164 4.13 14.91 17.05 39.68 8.874 47.8z"/></svg>