<svg xmlns="http://www.w3.org/2000/svg" height="480" width="640" viewBox="0 0 640 480"><path fill="#006" d="M0 0h640v480H0z"/><path d="M0 0v24.81l319.75 197.106H360v-24.81L40.25 0H.002zm360.004 0v24.81L40.246 221.917H0v-24.814L319.75-.003H360zM150.003 0v221.92h60V0h-60zM0 73.973v73.973h360.004V73.973H0z" fill="#fff"/><path d="M0 88.766v44.384h360.004V88.766H0zM162.003 0v221.92h36V0h-36zM0 221.92l120.004-73.974h26.833l-120.004 73.97H-.003zM0 0l120.004 73.973H93.17L.004 16.54V0zm213.172 73.973L333.168 0H360L239.998 73.973h-26.833zm146.832 147.95L240 147.948h26.833L360 205.38v16.542z" fill="#c00"/><path d="M471.6 213l5.2-16.668-14.013-10.647 17.655-.224 5.883-16.436 5.708 16.527 17.657.485-14.128 10.438 5.028 16.744-14.44-10.078m27.05 13.134l10.408-13.934-9.68-14.798 16.706 5.795 10.977-13.484-.085 17.512L558 203.828l-16.76 5.026-.8 17.485-10.273-14.41m-98.397 14.977l-.693-17.47-16.746-5.183 16.53-6.296.028-17.487 10.905 13.58 16.77-5.63-9.793 14.684 10.336 14.016-16.956-4.503m-39.69 40.867l-7.332-15.822-17.415 1.824 12.818-12.317-6.674-16.124 15.25 8.21 13.292-11.798-3.394 17.39 14.894 8.84-17.348 2.535m-17.474 55.583l-13.31-11.106-14.964 9.22 6.375-16.7-12.845-11.664 17.247.787 7.022-16.44 4.283 17.19 17.19 1.508-14.6 9.837m3.275 60.417l-16.568-4.817-10.11 14.498-.703-17.895-16.36-5.516 16.13-6.24-.005-17.916 10.672 14.04 16.364-5.554-9.537 14.917m29.527 50.853l-17.074 2.394-3.463 17.41-7.78-16.078-17.162 1.67 12.266-12.33-7.15-16.38 15.36 8.46 12.748-11.797-2.772 17.556m45.038 37.955l-15.208 8.226 2.676 17.55-12.775-12.36-15.537 7.576 7.314-15.863-12.288-12.87 17.295 2.56 7.95-15.535 3.374 17.447m53.833 8.963l-8.3 15.322 11.7 13.21-17.36-3.266-8.924 14.962-2.43-17.338-17.225-3.962 15.86-7.448-1.716-17.417 12.23 12.74m57.332-13.124l-.517 17.475 16.345 6.366-16.924 5.103-1.237 17.44-9.94-14.32-17.117 4.424 10.783-13.952-9.342-14.716 16.604 5.698m54.4-203.218l11.944 12.604 15.92-7.39-8.25 15.835 11.418 13.102-17.04-2.82-8.864 15.496-2.28-17.577-16.9-3.53 15.632-8.043m34.244 21.104l5.42 16.595 17.507.293-14.175 10.68 4.734 16.815-14.177-9.994-14.585 10.107 5.412-16.857-13.75-10.576 17.524-.422m19.513 33.206l-2.006 17.364 15.743 7.775-17.296 3.598-2.72 17.27-8.68-15.14-17.43 2.905L587.82 319.2l-8.05-15.48 16.054 7.133m2.93 39.795l-7.766 15.607 12.148 12.79-17.462-2.652-8.406 15.268-3.02-17.24-17.353-3.35 15.596-8.005-2.313-17.345 12.66 12.296m-9.834 39.108l-14.675 9.17 3.747 17.348-13.508-11.534-15.043 8.542 6.328-16.293-13.053-12.072 17.416 1.465 6.983-16.006 4.436 17.2" fill-rule="evenodd" fill="#fff"/></svg>