<svg xmlns="http://www.w3.org/2000/svg" height="480" width="640" viewBox="0 0 640 480"><defs><clipPath id="a"><path fill-opacity=".67" d="M-123.43 0h682.67v512h-682.67z"/></clipPath></defs><g fill-rule="evenodd" clip-path="url(#a)"><path fill="#fff" d="M-.304 219.067h795.738V412.68H-.304z"/><path fill="#081873" d="M.326 0H795.52v241.242H.325zm-122.86 362.718h800.992V481.28h-800.992z"/><path fill="#de3929" d="M.55 284.397h795.194v37.27H.55z"/><path fill="#ffce08" d="M238.785 375.218l6.25 19.24h20.23l-16.366 11.89 6.25 19.243-16.365-11.89-16.366 11.89 6.25-19.24-16.367-11.892h20.23m181.082-158.99l6.25 19.24h20.232l-16.367 11.89 6.25 19.243-16.365-11.89-16.365 11.89 6.25-19.24-16.366-11.892h20.23m-208.67 60.613l6.25 19.24h20.232l-16.367 11.892 6.252 19.242-16.365-11.89-16.368 11.89 6.25-19.242-16.365-11.89h20.23m221.17-24.87l6.25 19.238h20.232l-16.367 11.89 6.25 19.243-16.365-11.89-16.365 11.89 6.25-19.242-16.366-11.89h20.23M369.35 176.887l6.252 19.24h20.23l-16.367 11.89 6.25 19.243-16.364-11.89-16.365 11.89 6.25-19.242-16.366-11.89h20.23m-60.564-42.506l6.25 19.24h20.23l-16.366 11.89 6.25 19.243-16.364-11.89-16.366 11.89 6.25-19.242-16.366-11.89h20.23m-60.573 2.718l6.252 19.24h20.23l-16.367 11.892 6.25 19.24-16.364-11.89-16.364 11.89 6.25-19.24-16.367-11.89h20.23m-32.727 40.646l6.25 19.24h20.232l-16.368 11.89 6.25 19.243-16.364-11.89-16.365 11.89 6.25-19.24-16.367-11.892h20.232m112.054 140.476l6.25 19.24h20.23l-16.366 11.89 6.25 19.242-16.364-11.89-16.366 11.89 6.25-19.242-16.366-11.89h20.23m77.24-39.206l6.25 19.24h20.232l-16.367 11.89 6.25 19.243-16.366-11.89-16.365 11.89 6.25-19.24-16.367-11.892h20.23"/></g></svg>