<svg xmlns="http://www.w3.org/2000/svg" xmlns:xlink="http://www.w3.org/1999/xlink" height="480" width="640" viewBox="0 0 640 480"><path fill="#fff" d="M0 0h640v480H0z"/><path id="a" d="M307.84 398.6a.815.815 0 0 1-.278-.196l-.1-.094c-.26-.237-.688-.657-1.265-1.314-1.066-1.21-2.495-2.982-3.752-4.548-2.492-3.106-4.55-5.782-4.94-6.286l-.634-.826-6.21-1.916-4.538-2.115 2.425-2.725 8.326 3.565 6.215 1.275 11.49 8.45-.01.008c-.022.02-1.67 1.39-3.308 2.88-.73.663-1.65 1.516-2.3 2.226-.3.326-.565.65-.745.912-.11.16-.172.306-.202.377l.714-.444.773.6-1.574.146-.072.016zm-42.672-12.816c-5.422 0-10.777-1.5-15.916-4.454l-.006-.003.002-.006s.672-1.28 2.302-2.474c1.553-1.14 4.354-2.503 8.88-2.52h.094c5.36 0 11.92 1.822 19.498 5.416-.256.17-6.204 4.045-14.852 4.045l.008.008zm-23.496-5.208c-1.002 0-1.903-.38-2.536-1.066-.52-.565-.89-1.317-1.138-2.303-.403-1.614-.292-3.22-.28-3.373a3.48 3.48 0 0 1 1.25-.284l.09-.002c2.008 0 3.59 1.743 4.27 3.47.384.982.458 1.807.218 2.454-.24.648-.992 1.096-1.872 1.096zm41.344-4.792c-13.887-1.983-19.774-7.004-22.266-10.866-2.66-4.12-2.113-7.93-2.108-7.968l.002-.012.01-.003c.005 0 .85-.228 2.127-.234 3.697 0 13.146 1.86 22.24 19.076l.007.01-.016-.007zm-28.464-2.752c-5.933 0-10.45-1.024-13.426-3.043-1.71-1.16-2.547-2.437-2.948-3.3a5.408 5.408 0 0 1-.476-1.62c.157-.073 2.586-1.15 6.212-1.32.307-.015.616-.024.94-.025 4.585 0 11.558 1.496 18.916 8.624l.007.006h-.01c-3.36.44-6.463.673-9.223.673zm-28.728-1.104c-6.256 0-14.85-1.91-20.21-7.27l-.006-.006.016-.004c.056-.014 5.873-1.49 12.418-1.65.39-.01.783-.014 1.18-.014 5.866 0 10.355 1.137 13.346 3.38 1.044.783 1.614 1.512 1.742 2.226.107.597-.208 1.24-.845 1.72-1.346 1.017-3.753 1.56-7.156 1.614l-.48.016zm-20.272-10.4a2.56 2.56 0 0 1-1.983-.934c-.407-.49-.69-1.132-.89-2.017-.333-1.48-.232-2.925-.23-2.94v-.014a2.43 2.43 0 0 1 .973-.22h.002c.926 0 1.63.504 2.07.927a5.57 5.57 0 0 1 1.352 2.116c.292.824.34 1.513.144 2.108-.16.472-.703.968-1.44.968zm46.824-1.056c-1.002 0-1.903-.38-2.536-1.066-.52-.565-.89-1.317-1.138-2.303-.403-1.614-.292-3.22-.28-3.373a3.48 3.48 0 0 1 1.25-.284l.09-.002c2.008 0 3.59 1.743 4.27 3.47.384.982.458 1.807.218 2.454-.24.656-1 1.096-1.872 1.096zm-22.808-.944c-12.59-.443-19.123-4.022-22.387-6.946-1.836-1.647-2.857-3.28-3.39-4.358-.503-1.02-.693-1.8-.727-1.95l.017-.007s1.19-.426 3.107-.464l.295-.003c4.245 0 12.888 1.784 23.08 13.723v.008zm13.672-1.272c-10.13-1.542-15.867-5.89-18.898-9.268-3.176-3.54-4.128-6.837-4.17-6.99.018-.006 1.256-.328 3.12-.376a14.24 14.24 0 0 1 .862 0c5.094.112 14.347 2.42 19.084 16.628h.008zm-52-4.864c-3.32 0-6.54-.384-9.57-1.142-5.303-1.326-7.578-3.35-8.552-4.816-.554-.832-.755-1.562-.825-2.028a3.414 3.414 0 0 1-.025-.858l.025-.01c.013-.002 3.52-.987 8.37-1.06a35.027 35.027 0 0 1 7.43.66c8.43 1.683 12.802 8.046 12.845 8.11l.004.007-.01.002c-.05.008-4.065 1.136-9.697 1.136zm23.512-8.544c-1.015 0-1.916-.37-2.538-1.043-.51-.553-.883-1.315-1.136-2.327-.404-1.612-.292-3.2-.28-3.348a3.48 3.48 0 0 1 1.25-.283l.09-.002c2.004 0 3.59 1.743 4.27 3.47.374.95.44 1.767.194 2.428-.248.672-.976 1.104-1.848 1.104zm-17.68-2.424c-.076-.018-4.782-1.23-9.574-4.18-4.435-2.73-9.86-7.56-10.522-15.064v-.004l.01-.003c.002 0 .414-.1 1.024-.123.084-.003.173-.005.267-.005 1.325 0 4.037.373 7.317 2.867 4.176 3.184 8.032 8.736 11.48 16.52zm11.544-.424c-.03-.012-3.383-1.354-7.575-4.867-3.904-3.274-9.395-9.168-13.37-18.664 0-.003.913-.49 2.31-.577a3.31 3.31 0 0 1 .243-.007c.12 0 .244.004.37.007 1.93.055 4.866.856 8.123 4.37 3.74 4.038 7.08 10.673 9.923 19.722l.007.025-.024-.007zm-29.912-.872c-3.857 0-5.177-2.092-5.566-2.992-.638-1.48-.444-2.95-.443-2.966l.002-.016a8.498 8.498 0 0 1 1.92-.25l.13-.002c3.04 0 5.44 1.544 6.468 3.073.204.303.83 1.355.312 2.177-.416.648-1.36.976-2.824.976zm-8.544-10.776c-2.154 0-5.45-.132-8.913-.762-3.435-.624-5.382-3.545-6.41-5.884-1.12-2.548-1.435-4.98-1.44-5.004h.01c10.627.312 15.645 3.417 17.984 5.966 2.416 2.632 2.56 5.365 2.567 5.538h-.007c-.017 0-1.513.144-3.793.144zm11.064-11.056a42.733 42.733 0 0 1-2.426-3.382c-1.26-1.956-2.423-3.997-2.423-5.668 0-1.612-.38-5.012-.605-6.895-.287-2.386-.576-4.43-.6-4.603l.01.003c.27.097 6.646 2.49 6.646 8.47 0 5.993-.59 12.013-.596 12.073v.01h-.008zm-8.264-.568c-.067 0-.134-.006-.2-.017-1.885-.312-5.197-1.753-8.858-3.852-4.066-2.33-7.368-4.83-9.296-7.033-1.76-2.01-2.803-5.166-3.104-9.38-.214-2.992.042-5.484.07-5.73.33-.11.68-.164 1.05-.164 1.412.024 2.92.66 4.952 2.06 1.585 1.09 3.332 2.577 5.192 4.41 3.21 3.167 5.735 6.347 5.76 6.378l.025.032c.214.38 2.03 3.656 3.448 6.845.9 2.026 1.413 3.486 1.62 4.597.117.633.15 1.048-.004 1.425a.72.72 0 0 1-.308.358.866.866 0 0 1-.352.072z" fill="#435125"/><use height="100%" width="100%" xlink:href="#a" transform="matrix(-1 0 0 1 593.742 0)"/><path d="M519.064 76.38l-1.884.75-.738.296-2.284-.126-2.138 1.026-3.792 2.592-.167.12-1.412.368-1.313-.566-.745.34-.258 1.535-.71 1.103-.873.614-3.03.31-2.55 1.316-3.32-.89-1.543.605-3.28 2.953-1.675.794-.586-.034-2.222-.114-.94.307-1.4 1.353-2.652.206-.827.57-1.294 2.61-1.4 1.445-.804.17-.87-.318-.653.115-.296 1.67-.634.698-1.776.612-1.418 1.182-1.246.64-1.667-.043h-.383l-1.66.92-3.125.273-1.3 1.24-.287.264-.606.366-.992.592-.243.147-1.196-.212-1.4.554-.567-.87-.97.58-1.283.056-1.598-.712-1.22-.542-.89.13-.31 1.55-.03.166-.936 1.245-1.747 1.06-.238.308-1.99 2.567-3.776 3.972-3.195 1.623-3.31 1.007-2.32 1.904-6.08 3.014-9.594 4.773-1.962.63-2.816.45-5.024 1.848-4.43 1.338-.247.076-.878.266-6.25 1.89-2.907-.308-1.722.626-4.483-.498-3.118.062-1.975.41-3.71 1.78-6.26 3.01-2.07 1.892-3.22 1.68-3.773 1.195.01-1.585-.024-.067-1.307.413-.944.3-3.06.47h-1.703l-1.056-.305-.165.055-6.254 2.06-6.974.673-3.49 1.12-2.61-.042-1.63.487-3.195.39-1.14-.304-.26-.07-9.4.408-4.298-.485-2.05.466-3.438-1.155-5.015-.58-1.173-.352-2.636-.783-1.192.686-.893.096-2.134-.774-.767-.02-1.762.637-1.012-.26-.942-.75-2.21-.33-1.344-1.13-7.522.996-2.04-.6-6.844-1.99-1.09.054-1.355 1.017-2.04.744-1.767.46-2.41.084-2.798-.735-2.884-1.398-1.066-.254-2.38.24-.727.068-4.374-2.346-5.633-3.522-3.823-1.837-1.435-.232-.193.684.71 2.245.244 2.22-.073 2.05-.04 1.27.358 1.14 1.38 1.53.577 1.534.42 4.227-.005 4.29-.67 6.84-.227 1.043-.8 3.543-.732 3.255-2.836 8.667-.78 1.075-1.912 1.304-4.335 2.95-3.193 1.84-1.01.42-2.592.195-1.614-.084-2.01-1.09-1.973-.507-2.586-1.86-2.876-.595-3.153-1.822-.82-.987-1.716-.16-2.38-.716v-.005l-.873-.26-.603-.177-3.037-.084-2.83-1.308-1.492-.36-2.038-.103-2.133.99v-.002l-1.08.506-1.367-.543-.988.062-1.12 1.692-.166.262-.772.407-.96-.013-.75-.02-.814.355-1.094.473v.002l-.966.422-.472.204-.008-.007-.29.058-.517.09-.64.123-1.128-.66-.6-.353-1.005-.205-.542.39-.106 1.842-.495 1.102-1.57 1.385-1.593 1.404-1.11 1.637-2.942 6.712-1.842 2.707-.572.63-1.927 2.126-1.707 1.325-3.937 3.05-3.727 1.394-3.21.656-1.563.006-2.956-.393-2.66-.815-2.92-1.826-3.2-2.574-4.635-4.58-.656-.393-.138-.09-1.46-.935-1.082.027-.424.7-.232 1.01-.196.896-.532 5.094.04.295.28 2.1 3.52 4.92 1.086 2.612.178.298.727 1.22.553.93.055.096 1.203 3.59-.846 2.027.428 1.358-1.07.83-.195 1.174 3.16 3.962.69 1.748-.77 2.423-1.23 1.337-.342.366.174 1.023 1.454 1.308 2.47 2.2 1.32 3.27 1 .877 1.167-.248.648.494.982-.017.967.966.626.303.99.493.78 1.017.174 3.13 1.457 3.887.024 2.108.008.3.907 1.558.284 1.23-.484 3.256 1.156 1.045 1.254-.256.81.128 1.3 1.084 1.576 2.4 1.54-.225.978.47 4.722 4.268 1.07.54.06.035.77.386.958.966 1.485-.986.164-.018 1.614-.142.71.477 1.362.92 1.787-.024 3.875 1.188 1.696.437 3.408 2.118 1.45.896.857.698 1.138.93 2.277.978 1.952.467 1.057.25.796.31.02-.05.01.002-.018.05 4.227 1.62 2.288.533 2.12.78 1.54.563 1.132.02 1.6-1.347 1.55-.09 1.286.322 1.256-.21 1.988-1.226.388-.576 1.41-.67 4.755-.59 1.39.45 3.568-1.552 2.39.666 2.117-.75 4.623 1.026 1.23.865 1.373 1.57.168.007 1.53.03-.64 1.065 2.02 2.118 1.823 2.756.123.364 1.326 3.89.985 1.38.69 1.924.034 1.254-1.072.818-.176.466-.06.173.217.524.404-.22.77-.428.933-.145 1.653.176 1.09.115 1.724-.855 1.142-.568 1.833.79 2.016-.023.846.376 2.396 1.087 1.222.115.452-.297.288-.684-.148-.798-.916-1.06-2.025-2.35-.83-1.207-.63-1.75-.196-2.234-.14-1.51.25-1.98.544-.707.4-1.575h.007l.104-.412 1.125-1.492 2.98-1.915 3.2-2.866 2.53-1.668 2.606-1.13.07-.317.29.116 6.634-2.255.108-.012 2.954-.514 19.936 1.404.74-.224.002-.005.664-1.865.358-.345.237-.227 2.19-.965 1.025-.146 2.845.702 1.166.288 1.865-1.046 1.325.022 2.734-1.492 1.69.042.64-.257 3.29-2.362 3.17-.908.823-.44.29-.158 3.248-1.716 2.064-1.584 1.78-.947 1.95-.503 5.105-.36 1.026-1.71 2.195-.292 1.327-1.496 1.516-.617 1.088-1.567.91-1.312 1.275-.737 4.08-.254 4.836.6.64-.39 1.093-3.9 1.144-.73 3.08-4.49.01-1.637.004-1.367.507-1.946-.344-3.512.408-3.557 1.916-4.52 1.688-1.823 2.72-1.84 1.384-.604 1.96-.33v-.003l.287-.05.5-.085 6.745-.09c.093-.07 2.453-.035 2.453-.035l2.25-.03 5.69 1.012.406.07 1.922.623 2.22 1.727 2.348 2.294.44.43 1.523.64.46.2 1.257-.2 1.79-.932 1.35-1.142 1.84-1.005.045-.063 1.036-1.56.034-.03.022.005.002-.01-.018-.003.408-.62 3.558-1.387 4.184-.243.47-.255.262-.14 1.105-1.3 1.036-.01 2.508.91 1.766-.35 1.4.56 1.088-.13 2.052-.243 2.203 1.55 1.283.164 4.526 2.65.234.037.122.023.26.042.536-.16.8-.23.105-.03.1.138.515.725.706.102.835-1.114-.33-.506-.127-.184-1.616-.33-1.452-2.48 1.382-1.49-2.17-2.66-.36-.44-.12-.19-.75-1.137-3.798-5.787-4.946-3.95-.002.004-1.732-1.386-.01-.008-.608-.476-2.64-2.687-1.888-2.503-.247-.54-.39-.85-1.13-2.46-1.97-1.518-1.605-1.754-.08-.103-3.31-4.5-.545-.756-.782-.452-1.653-.01-.156-.158-.094-.097.056-.058.793-.79.884-.22.38-.873-1.687-4.883-.01-.17-.125-1.56 1.374-7.084.175-.863 2.342-4.767 1.45-1.19 1.584-3.112 1.356-1.99 1.3-1.265.227-.135 2.347-1.42 1.972-.278 1.878-.265 3.28 1.01 3.12-.06.61-.064 1.415-.162 2.327-.733 1.1-.68.57-.873 1.19-3.99.38-1.27.735-1.378 4.245-4.887 3.21-2.97 7.214-5.29 3.533-2.11 1.803-1.078 16.1-7.158 4.185-4.24 2.18-2.207 3.858-2.588 4.51-1.85 3.885-3.072.848-1.068 1.07-3.442.89-.215.805-1.74.23-.494 3.167-2.234.36-.18 12.31-6.167 1.788.245.96-1.435 3.58-.6.66-.112.883-.44.75-1.28v-.253l.104-3.42.765-.923.417-2.252.39-.52.41-.54 1.015-.714-.176-.424z" fill="#d47600"/></svg>