<svg xmlns="http://www.w3.org/2000/svg" height="480" width="640" viewBox="0 0 640 480"><defs><clipPath id="a"><path fill-opacity=".67" d="M-158.67 0H524v512h-682.67z"/></clipPath></defs><g clip-path="url(#a)" fill-rule="evenodd"><path d="M-20.45 0h962.56v240.64H-20.45z"/><path fill="#107b00" d="M-20.45 240.64h962.56v240.64H-20.45z"/><path fill="#fff" d="M-20.45 159.15h962.56v165.564H-20.45z"/><path d="M440.13 183.817c-42.49-18.258-79.06 19.405-79.018 54.6.043 36.808 35.74 76.065 80.998 58.684-32.042-9.434-45.267-33.1-45.26-57.038-.23-23.703 14.933-51.268 43.28-56.245z" fill="#f0f"/><path fill="#ff1800" d="M490.106 276.56l-24.285-17.735-24.432 17.764 9.365-28.58-24.44-17.737 30.065.066 9.334-28.72 9.227 28.61 30.187.003-24.368 17.61"/><path d="M444.23 296.71c-47.486 16.485-83.24-19.25-83.863-55.888-.62-36.637 35.334-74.417 84.104-57.213-27.593 4.09-47.856 28.274-48.1 55.617-.183 20.675 12.045 50.144 47.86 57.483zM-280.21 37.88L177.372 260.16-150.34 500.22l.002-478.818.014-2.465z" fill="#f00"/></g></svg>