<svg xmlns="http://www.w3.org/2000/svg" height="480" width="640" viewBox="0 0 640 480"><defs><clipPath id="a"><path fill-opacity=".67" d="M-81.333 0h682.67v512h-682.67z"/></clipPath></defs><g fill-rule="evenodd" clip-path="url(#a)"><path fill="#6797d6" d="M-160.63 0h962.56v481.28h-962.56z"/><path fill="#fff" d="M320.45 115.606l-30.494 20.88 11.687-33.745-30.526-20.845 37.714.035 11.625-33.764L332.08 81.93l37.712-.024-30.53 20.836 11.684 33.75M320.45 366.65l-30.494-20.882 11.687 33.746-30.526 20.845 37.714-.037 11.625 33.765 11.624-33.765 37.712.026-30.53-20.837 11.683-33.75m-177.08-86.918l-23.06 28.886 1.312-35.688-35.287-11.01 36.077-10.993 1.245-35.69 20.988 28.892 36.058-11.05-23.105 28.852 21.04 28.858m257.823-11.057l23.058 28.886-1.31-35.688 35.287-11.01-36.076-10.993-1.245-35.69-20.99 28.892-36.058-11.05 23.106 28.852-21.04 28.858"/></g></svg>