<svg xmlns="http://www.w3.org/2000/svg" xmlns:xlink="http://www.w3.org/1999/xlink" height="480" width="640" viewBox="0 0 640 480"><rect height="480" width="640" rx="0" ry="0" fill="#fff" fill-rule="evenodd"/><rect id="a" y="192" ry="0" rx="0" height="96" width="640" fill="#c00" fill-rule="evenodd"/><use xlink:href="#a" height="300" width="600" transform="matrix(0 .75 -1 0 560 0)"/><path d="M355.205 146.61c3.08-4.82 1.24-7.933-3.42-8.895 0 0-14.867 4.766-30.924 5.29-16.055.522-35.13-4.04-35.13-4.04-3.422 2.148-2.587 7.242-.89 10.422 0 0 16.808 5.584 35.943 5.036 12.153-.348 23.67-3.45 30.13-5.505 3.712-1.18 4.294-2.254 4.292-2.308z" fill="#ebeae3" fill-rule="evenodd" stroke="#000" stroke-width=".522"/><path d="M320 357.552l-30.857-64.106-70.946 5.33L258.285 240l-40.088-58.776 70.946 5.33L320 122.448l30.857 64.106 70.946-5.33L381.715 240l40.088 58.776-70.946-5.33z" fill="#fff" stroke="#161111" stroke-width="1.6"/><path d="M319.54 122.228c38.763 6.39 37.378 8.2 37.378 8.2l10.117-30.245s1.065-5.963-1.704-9.584C362.563 86.98 354.79 89 354.79 89s-1.065-4.9-4.472-6.07c-3.408-1.172-16.08 4.58-20.02 5.857-3.94 1.277-5.965 2.555-11.502 2.45-5.538-.108-15.442-5.007-17.252-5.966-1.81-.958-4.473-1.916-6.922-1.81-2.45.107-5.005.746-6.283 2.45-1.278 1.703-1.278 3.833-1.278 3.833s-2.025-1.278-5.22-1.278c-3.194 0-5.005.425-6.496 2.13-1.49 1.703-3.407 6.495-3.407 6.495l3.62 8.2.213 11.288 7.56 11.928 36.21-6.282z" fill="#b02320" fill-rule="evenodd" stroke="#000" stroke-width="1.304"/><path d="M355.674 139.315s1.952 2.327 1.877 3.153c-.074.825-.9 1.576-.9 1.576s.6.6.45 1.502c-.15.9-1.35.975-1.35.975s.224.827-.526 1.203c-.75.375-3.83 1.05-3.83 1.05s-15.013-4.278-31.077-4.278c-16.065 0-34.983 5.18-34.983 5.18s-1.95-.676-2.026-1.952c-.075-1.277.225-2.177.225-2.177s-1.07.11-1.35-.826c-.397-1.31.15-2.327.15-2.327s-.746.24.074-1.502c.6-1.275 1.5-1.725 1.5-1.725s16.816-6.006 35.96-6.08c19.142-.076 35.807 6.08 35.807 6.23z" fill="#ebeae3" fill-rule="evenodd" stroke="#000" stroke-width=".522"/><path d="M276.23 101.495s-.642-2.18.768-4.102c1.41-1.923 3.974-1.795 4.744-1.41.77.384.64 1.282 1.666 1.538 1.026.257 1.795-.512 1.795-.512" stroke="#000" stroke-width="1.147" fill="none"/><path d="M369.824 106.598l-5.822 12.046-2.29.402s-1.395-.84-5.38-.562c-2.85.2-3.693.923-3.693.923l5.18-12.006s.402 2.58 1.002 4.097c.763 1.927 3.654 3.734 3.654 3.734s.4-2.304-.36-5.1c-.844-3.09-2.81-7.266-2.81-7.266l10.52 3.734z" fill="#fc0" fill-opacity=".941" fill-rule="evenodd" stroke="#000" stroke-width="1.2"/><path fill="#121116" stroke="#121116" stroke-width="1.17" stroke-linejoin="round" d="M316.492 69.16h6.516v27.695h-6.516z"/><path d="M276.56 120.235l4.185 8.955s17.81-6.943 38.833-6.813c31.534.194 40.49 6.52 40.49 6.52l4.67-11.095-3.503 2.044-3.602 2.24-4.087 1.556-4.964-.39-4.38-3.21-2.238-4.673-3.7 3.406-6.52 1.46-6.423-1.655-5.644-7.104s-4.205 7.898-9.54 8.37c-7.687.68-12.164-3.698-12.164-3.698s-2.86 6.423-7.592 7.59c-7.494 1.85-13.723-3.503-13.82-3.503z" fill="#f6ca1f" fill-rule="evenodd" stroke="#000" stroke-width=".991"/><path d="M348.447 65.647c0 1.88-1.502 3.407-3.358 3.41-1.857.005-3.366-1.515-3.373-3.397-.007-1.88 1.49-3.413 3.345-3.424 1.856-.012 3.37 1.503 3.385 3.384" fill="#eee" stroke="#1e1e1e" stroke-linejoin="round" stroke-width="1.17"/><path d="M343.515 67.4s2.72-.048 2.996-1.154c.278-1.106-.183-2.535-.183-2.535s1.29 1.43.922 2.536c-.37 1.106-.73 1.392-1.66 1.614-.63.15-1.568-.093-2.075-.46z" fill="#a3afb8" fill-rule="evenodd"/><path d="M340.272 69.47c0 1.88-1.503 3.406-3.36 3.41-1.855.004-3.364-1.516-3.37-3.398-.008-1.88 1.49-3.414 3.344-3.425 1.856-.01 3.37 1.503 3.385 3.385" fill="#eee" stroke="#1e1e1e" stroke-linejoin="round" stroke-width="1.17"/><path d="M335.34 71.22s2.72-.046 2.995-1.152c.277-1.107-.184-2.536-.184-2.536s1.29 1.43.923 2.536c-.37 1.106-.73 1.392-1.66 1.613-.63.15-1.567-.09-2.074-.46z" fill="#a3afb8" fill-rule="evenodd"/><path d="M357.94 63.406c0 1.88-1.503 3.407-3.36 3.41-1.855.005-3.364-1.516-3.37-3.397-.01-1.882 1.49-3.415 3.344-3.426 1.856-.01 3.37 1.503 3.385 3.385" fill="#eee" stroke="#1e1e1e" stroke-linejoin="round" stroke-width="1.17"/><path d="M353.007 65.157s2.72-.046 2.996-1.152c.277-1.107-.184-2.536-.184-2.536s1.29 1.43.92 2.535c-.37 1.106-.73 1.392-1.66 1.613-.63.15-1.566-.092-2.073-.46z" fill="#a3afb8" fill-rule="evenodd"/><path d="M368.63 65.557c0 1.88-1.5 3.408-3.357 3.41-1.856.005-3.365-1.515-3.372-3.397-.007-1.88 1.49-3.413 3.346-3.424 1.856-.01 3.37 1.503 3.385 3.384" fill="#eee" stroke="#1e1e1e" stroke-linejoin="round" stroke-width="1.17"/><path d="M363.698 67.31s2.72-.047 2.997-1.154c.277-1.106-.184-2.535-.184-2.535s1.29 1.43.923 2.536c-.37 1.107-.73 1.393-1.66 1.614-.63.15-1.567-.093-2.075-.46z" fill="#a3afb8" fill-rule="evenodd"/><path d="M376.78 72.272c0 1.88-1.502 3.408-3.358 3.41-1.856.005-3.365-1.515-3.372-3.397-.007-1.88 1.49-3.413 3.345-3.424 1.856-.01 3.37 1.504 3.385 3.385" fill="#eee" stroke="#1e1e1e" stroke-linejoin="round" stroke-width="1.17"/><path d="M371.848 74.024s2.72-.046 2.996-1.153c.277-1.105-.184-2.534-.184-2.534s1.29 1.43.922 2.535c-.37 1.108-.73 1.394-1.66 1.615-.63.15-1.567-.092-2.074-.46z" fill="#a3afb8" fill-rule="evenodd"/><path d="M380.3 83.29c0 1.88-1.502 3.407-3.358 3.41-1.856.005-3.364-1.515-3.372-3.397-.007-1.88 1.49-3.413 3.346-3.424 1.856-.013 3.37 1.502 3.385 3.383" fill="#eee" stroke="#1e1e1e" stroke-linejoin="round" stroke-width="1.17"/><path d="M375.368 85.042s2.72-.047 2.997-1.153c.276-1.107-.185-2.536-.185-2.536s1.29 1.43.922 2.535c-.37 1.105-.73 1.39-1.66 1.613-.63.15-1.567-.093-2.074-.46z" fill="#a3afb8" fill-rule="evenodd"/><path d="M378.997 94.438c0 1.88-1.503 3.408-3.36 3.41-1.855.005-3.363-1.515-3.37-3.396-.008-1.882 1.49-3.414 3.345-3.425 1.856-.01 3.37 1.503 3.385 3.384" fill="#eee" stroke="#1e1e1e" stroke-linejoin="round" stroke-width="1.17"/><path d="M374.064 96.19s2.72-.046 2.997-1.153c.277-1.106-.184-2.535-.184-2.535s1.29 1.43.922 2.535c-.368 1.107-.73 1.393-1.66 1.614-.63.15-1.567-.09-2.074-.46z" fill="#a3afb8" fill-rule="evenodd"/><path d="M374.042 104.217c0 1.882-1.502 3.408-3.358 3.412-1.856.002-3.365-1.518-3.372-3.4-.008-1.88 1.49-3.413 3.345-3.424 1.856-.01 3.37 1.503 3.385 3.384" fill="#eee" stroke="#1e1e1e" stroke-linejoin="round" stroke-width="1.17"/><path d="M369.11 105.97s2.72-.047 2.996-1.154c.277-1.106-.184-2.535-.184-2.535s1.29 1.43.922 2.536c-.37 1.107-.73 1.393-1.66 1.614-.63.15-1.567-.092-2.074-.46z" fill="#a3afb8" fill-rule="evenodd"/><path d="M332.318 72.402c0 1.882-1.503 3.408-3.36 3.412-1.855.003-3.363-1.517-3.37-3.398-.008-1.882 1.49-3.414 3.345-3.425 1.856-.01 3.37 1.504 3.385 3.386" fill="#eee" stroke="#1e1e1e" stroke-linejoin="round" stroke-width="1.17"/><path d="M327.385 74.154s2.72-.046 2.997-1.152c.276-1.107-.185-2.536-.185-2.536s1.29 1.43.922 2.536c-.37 1.106-.73 1.392-1.66 1.613-.63.15-1.568-.092-2.075-.46z" fill="#a3afb8" fill-rule="evenodd"/><path d="M322.15 71.53c0 1.573-1.256 2.85-2.808 2.853-1.552.003-2.814-1.27-2.82-2.842-.006-1.572 1.246-2.854 2.798-2.863 1.552-.01 2.818 1.257 2.83 2.83" fill="#eee" stroke="#1e1e1e" stroke-linejoin="round" stroke-width="1.17"/><path d="M318.026 72.995s2.274-.04 2.506-.964c.23-.924-.155-2.12-.155-2.12s1.08 1.196.77 2.12c-.307.926-.61 1.165-1.386 1.35-.526.125-1.31-.077-1.734-.385z" fill="#a3afb8" fill-rule="evenodd"/><path d="M322.183 75.075c0 1.574-1.256 2.85-2.808 2.853-1.552.003-2.814-1.268-2.82-2.84-.006-1.575 1.245-2.856 2.797-2.865 1.552-.01 2.82 1.257 2.83 2.83" fill="#eee" stroke="#1e1e1e" stroke-linejoin="round" stroke-width="1.17"/><path d="M318.058 76.54s2.275-.038 2.506-.964c.23-.925-.154-2.12-.154-2.12s1.08 1.195.77 2.12c-.307.926-.61 1.165-1.387 1.35-.526.125-1.31-.077-1.735-.386z" fill="#a3afb8" fill-rule="evenodd"/><path d="M322.38 80.29c0 1.574-1.258 2.85-2.81 2.854-1.552.003-2.813-1.268-2.82-2.842-.006-1.573 1.246-2.855 2.798-2.864 1.552-.01 2.82 1.257 2.83 2.83" fill="#eee" stroke="#1e1e1e" stroke-linejoin="round" stroke-width="1.17"/><path d="M318.254 81.756s2.274-.04 2.506-.964c.23-.925-.154-2.12-.154-2.12s1.08 1.195.77 2.12c-.308.925-.61 1.164-1.387 1.35-.528.125-1.312-.078-1.736-.386z" fill="#a3afb8" fill-rule="evenodd"/><path d="M322.67 85.832c0 1.702-1.36 3.082-3.037 3.086-1.68.003-3.043-1.372-3.05-3.073-.006-1.702 1.347-3.088 3.026-3.098 1.677-.01 3.047 1.36 3.06 3.06" fill="#eee" stroke="#1e1e1e" stroke-linejoin="round" stroke-width="1.17"/><path d="M318.21 87.417s2.46-.042 2.71-1.043c.25-1-.168-2.293-.168-2.293s1.168 1.294.834 2.294c-.333 1-.66 1.26-1.5 1.46-.57.135-1.418-.084-1.877-.417z" fill="#a3afb8" fill-rule="evenodd"/><path d="M322.995 93.265c0 1.88-1.503 3.407-3.358 3.41-1.856.005-3.365-1.516-3.372-3.397-.008-1.88 1.49-3.414 3.345-3.425 1.856-.01 3.37 1.503 3.385 3.385" fill="#eee" stroke="#1e1e1e" stroke-linejoin="round" stroke-width="1.17"/><path d="M318.062 95.016s2.72-.046 2.997-1.152c.275-1.107-.185-2.536-.185-2.536s1.29 1.43.92 2.536c-.367 1.106-.73 1.392-1.66 1.613-.628.15-1.565-.092-2.073-.46z" fill="#a3afb8" fill-rule="evenodd"/><path d="M322.658 108.517c0 1.767-1.41 3.2-3.154 3.204-1.743.004-3.16-1.423-3.167-3.19-.007-1.767 1.4-3.206 3.142-3.216 1.742-.01 3.164 1.41 3.178 3.178" fill="#eee" stroke="#1e1e1e" stroke-linejoin="round" stroke-width="1.17"/><path d="M318.025 110.162s2.555-.043 2.815-1.082c.26-1.04-.174-2.38-.174-2.38s1.213 1.34.866 2.38c-.346 1.04-.686 1.308-1.558 1.515-.59.14-1.472-.086-1.95-.433z" fill="#a3afb8" fill-rule="evenodd"/><path d="M313.552 72.312c0 1.88-1.502 3.407-3.358 3.41-1.856.005-3.365-1.515-3.372-3.397-.008-1.88 1.49-3.413 3.345-3.424 1.856-.01 3.37 1.504 3.385 3.385" fill="#eee" stroke="#1e1e1e" stroke-linejoin="round" stroke-width="1.17"/><path d="M308.62 74.064s2.72-.047 2.996-1.153c.277-1.105-.184-2.534-.184-2.534s1.29 1.43.922 2.535c-.37 1.107-.73 1.393-1.66 1.615-.63.15-1.567-.093-2.074-.46z" fill="#a3afb8" fill-rule="evenodd"/><path d="M305.21 69.02c0 1.883-1.504 3.41-3.36 3.413-1.856.004-3.364-1.517-3.372-3.398-.007-1.88 1.49-3.414 3.346-3.425 1.856-.01 3.37 1.503 3.385 3.385" fill="#eee" stroke="#1e1e1e" stroke-linejoin="round" stroke-width="1.17"/><path d="M300.276 70.773s2.72-.046 2.997-1.152c.276-1.106-.185-2.535-.185-2.535s1.29 1.43.922 2.536c-.37 1.107-.73 1.393-1.66 1.614-.63.15-1.567-.092-2.074-.46z" fill="#a3afb8" fill-rule="evenodd"/><path d="M297.218 65.26c0 1.882-1.503 3.41-3.36 3.412-1.855.004-3.363-1.516-3.37-3.397-.008-1.882 1.49-3.414 3.345-3.425 1.856-.01 3.37 1.503 3.385 3.384" fill="#eee" stroke="#1e1e1e" stroke-linejoin="round" stroke-width="1.17"/><path d="M292.285 67.013s2.72-.046 2.997-1.153c.276-1.106-.185-2.535-.185-2.535s1.29 1.43.922 2.535c-.37 1.107-.73 1.393-1.66 1.614-.63.15-1.568-.092-2.075-.46z" fill="#a3afb8" fill-rule="evenodd"/><path d="M288.052 63.263c0 1.882-1.503 3.408-3.36 3.412-1.855.003-3.363-1.517-3.37-3.398-.008-1.882 1.49-3.414 3.345-3.425 1.856-.01 3.37 1.503 3.385 3.385" fill="#eee" stroke="#1e1e1e" stroke-linejoin="round" stroke-width="1.17"/><path d="M283.12 65.015s2.72-.046 2.996-1.152c.276-1.107-.185-2.536-.185-2.536s1.292 1.43.923 2.536c-.368 1.106-.73 1.392-1.66 1.613-.63.15-1.567-.092-2.074-.46z" fill="#a3afb8" fill-rule="evenodd"/><path d="M277.24 65.85c0 1.88-1.502 3.406-3.358 3.41-1.856.004-3.364-1.516-3.372-3.398-.007-1.88 1.49-3.413 3.346-3.425 1.856-.01 3.37 1.503 3.385 3.385" fill="#eee" stroke="#1e1e1e" stroke-linejoin="round" stroke-width="1.17"/><path d="M272.308 67.6s2.72-.046 2.997-1.152c.276-1.106-.185-2.536-.185-2.536s1.29 1.43.922 2.536c-.37 1.106-.73 1.392-1.66 1.613-.63.15-1.567-.09-2.074-.46z" fill="#a3afb8" fill-rule="evenodd"/><path d="M269.602 73.487c0 1.88-1.502 3.408-3.358 3.41-1.856.005-3.365-1.515-3.372-3.397-.007-1.88 1.49-3.413 3.345-3.424 1.856-.01 3.37 1.503 3.385 3.384" fill="#eee" stroke="#1e1e1e" stroke-linejoin="round" stroke-width="1.17"/><path d="M264.67 75.24s2.72-.047 2.996-1.154c.277-1.106-.184-2.535-.184-2.535s1.29 1.43.922 2.536c-.37 1.107-.73 1.393-1.66 1.614-.63.15-1.567-.093-2.074-.46z" fill="#a3afb8" fill-rule="evenodd"/><path d="M266.43 84.18c0 1.882-1.503 3.408-3.36 3.412-1.855.004-3.364-1.516-3.37-3.398-.008-1.88 1.49-3.414 3.344-3.425 1.856-.01 3.37 1.502 3.386 3.384" fill="#eee" stroke="#1e1e1e" stroke-linejoin="round" stroke-width="1.17"/><path d="M261.497 85.932s2.72-.046 2.996-1.152c.277-1.107-.184-2.536-.184-2.536s1.29 1.43.92 2.536c-.368 1.106-.73 1.392-1.66 1.613-.628.15-1.566-.092-2.073-.46z" fill="#a3afb8" fill-rule="evenodd"/><path d="M267.84 95.344c0 1.882-1.503 3.408-3.36 3.412-1.855.003-3.363-1.517-3.37-3.398-.008-1.882 1.49-3.414 3.345-3.425 1.856-.01 3.37 1.503 3.385 3.385" fill="#eee" stroke="#1e1e1e" stroke-linejoin="round" stroke-width="1.17"/><path d="M262.907 97.096s2.72-.046 2.997-1.152c.276-1.107-.185-2.536-.185-2.536s1.29 1.43.92 2.536c-.368 1.106-.73 1.392-1.66 1.613-.628.15-1.566-.092-2.073-.46z" fill="#a3afb8" fill-rule="evenodd"/><path d="M273.01 105.45c0 1.882-1.502 3.408-3.358 3.412-1.856.003-3.365-1.517-3.372-3.398-.007-1.88 1.49-3.414 3.345-3.425 1.856-.01 3.37 1.502 3.385 3.384" fill="#eee" stroke="#1e1e1e" stroke-linejoin="round" stroke-width="1.17"/><path d="M268.078 107.202s2.72-.046 2.996-1.152c.277-1.107-.184-2.536-.184-2.536s1.29 1.43.922 2.536c-.37 1.106-.73 1.392-1.66 1.613-.63.15-1.567-.092-2.074-.46z" fill="#a3afb8" fill-rule="evenodd"/><path d="M430.628 247.41c0 3.607-2.88 6.533-6.44 6.54-3.558.007-6.45-2.907-6.465-6.515-.014-3.607 2.856-6.545 6.415-6.566 3.558-.022 6.462 2.88 6.49 6.49" fill="#eee" stroke="#1e1e1e" stroke-linejoin="round" transform="matrix(.316 -.085 .135 .504 109.39 30)"/><path d="M276.318 120.676s1.636-.486 1.517-1.6c-.118-1.113-.767-2.42-.767-2.42s1.15 1.17 1.214 2.3c.063 1.13-.082 1.464-.587 1.828-.343.247-.974.166-1.377-.108z" fill="#a3afb8" fill-rule="evenodd"/><path d="M430.628 247.41c0 3.607-2.88 6.533-6.44 6.54-3.558.007-6.45-2.907-6.465-6.515-.014-3.607 2.856-6.545 6.415-6.566 3.558-.022 6.462 2.88 6.49 6.49" fill="#eee" stroke="#1e1e1e" stroke-linejoin="round" transform="matrix(.318 .078 -.125 .506 259.933 -40.204)"/><path d="M362.342 119.795s1.667.364 2.1-.67c.435-1.03.496-2.488.496-2.488s.444 1.58-.046 2.6-.778 1.242-1.397 1.317c-.42.05-.932-.325-1.153-.76z" fill="#a3afb8" fill-rule="evenodd"/><path d="M316.722 53.812l.243 5.7s-6.757.592-7.033 1.21c-1.313 2.944 1.576 6.913 1.576 6.913s2.272-1.698 8.003-1.698c5.458 0 8.247 1.334 8.247 1.334s1.455-2.303 1.455-4c0-1.698-.606-3.396-.606-3.396s-2.79-.363-3.638-.363h-2.425l-.243-5.82-5.578.12z" fill="#b3a192" fill-rule="evenodd" stroke="#000" stroke-width="1.17"/><path d="M326.36 62.653c0 .64-.54 1.158-1.208 1.16-.667 0-1.21-.516-1.21-1.155-.004-.64.534-1.16 1.2-1.163.667-.004 1.212.51 1.217 1.15m2.784.63c0 .666-.563 1.207-1.26 1.21-.695 0-1.26-.54-1.264-1.206-.003-.668.56-1.21 1.255-1.215.695-.004 1.263.532 1.27 1.2m-5.575-.656c0 .638-.54 1.157-1.207 1.158-.666 0-1.21-.515-1.21-1.154-.004-.64.534-1.16 1.2-1.164.667-.004 1.212.51 1.217 1.15m-5.59.072c0 .665-.56 1.204-1.255 1.206-.694 0-1.258-.536-1.26-1.2-.004-.666.556-1.208 1.25-1.212.694-.004 1.26.53 1.266 1.196m-3.102.217c0 .664-.56 1.203-1.255 1.205-.694 0-1.26-.536-1.26-1.2-.004-.666.555-1.208 1.25-1.212.693-.004 1.26.53 1.265 1.196m5.695-3.48c0 .56-.474 1.016-1.06 1.017-.585 0-1.06-.452-1.063-1.013-.002-.56.47-1.018 1.055-1.022.585-.003 1.063.448 1.068 1.01m0-4.722c0 .562-.474 1.017-1.06 1.018-.585 0-1.06-.452-1.063-1.013-.002-.56.47-1.018 1.055-1.022.585-.003 1.063.448 1.068 1.01m0 2.554c0 .56-.474 1.016-1.06 1.017-.585.002-1.06-.452-1.063-1.013-.002-.56.47-1.017 1.055-1.02.585-.004 1.063.448 1.068 1.01m-8.84 6.523c0 .642-.54 1.163-1.21 1.164-.67.002-1.215-.517-1.218-1.16-.003-.64.538-1.163 1.207-1.167.67-.004 1.217.513 1.222 1.154" fill="#f0ddcb" stroke="#121116" stroke-width=".596" stroke-linejoin="round"/><path d="M320.845 62.36c0 .702-.595 1.272-1.33 1.273-.737.002-1.335-.565-1.337-1.268-.003-.702.59-1.274 1.325-1.278.736-.004 1.336.56 1.342 1.263" fill="#916c68" stroke="#4d3126" stroke-width=".596" stroke-linejoin="round"/><path d="M322.063 45.45c0 1.392-1.112 2.52-2.486 2.524-1.374.003-2.49-1.122-2.496-2.514-.004-1.393 1.104-2.527 2.477-2.535 1.374-.008 2.495 1.112 2.506 2.505" fill="#eee" stroke="#1e1e1e" stroke-width="1.17" stroke-linejoin="round"/><path d="M318.412 46.746s2.013-.034 2.218-.853c.204-.82-.137-1.876-.137-1.876s.955 1.057.683 1.876c-.273.82-.54 1.03-1.23 1.194-.465.11-1.16-.068-1.534-.34z" fill="#a3afb8" fill-rule="evenodd"/><path d="M279.967 130.135s2.222 2.074 2.815 3.926c.592 1.853 1.48 6.816 1.48 6.816s23.26-6.444 34.667-5.926c11.406.52 37.7 6.296 37.7 6.296s.445-2.815.964-5.777c.518-2.964 2.666-6.223 2.666-6.223s-25.11-7.852-40.96-7.11c-15.852.74-23.778 2.443-27.333 3.554-3.556 1.112-12.222 4.52-12 4.445z" fill="#fc0" fill-rule="evenodd" stroke="#000" stroke-width=".522"/><path d="M314.66 36.048h10.005s-2.47 1.708-2.97 3.334c-.433 1.4-.304 3.7-.304 3.7s2.73 0 3.94-1.032c1.214-1.03 3.76-2.85 3.76-2.85v12.732s-2.455-2.374-3.94-3.152a14.443 14.443 0 0 0-3.577-1.274s0 2.062.848 3.274c.85 1.213 4.245 5.82 4.245 5.82l-14.308.546s3.394-3.578 4.79-6.184c.91-1.697.545-3.456.545-3.456s-2.425 0-3.637.85c-1.213.848-3.335 3.394-3.335 3.394V39.504s.91 2.364 2.91 3.273c2 .91 3.88.425 3.88.425s.39-2.437-.424-3.94c-.838-1.55-2.607-3.275-2.425-3.214z" fill="#fc0" fill-rule="evenodd" stroke="#000" stroke-width="1.17"/><path d="M313.877 76.45s-7.116-.087-13.204-3.688c-6.088-3.6-12.228-7.373-21.264-5.23-1.85.438-8.66 3.43-11.66 13.118-2.107 6.798.34 15.004 2.485 18.69 2.144 3.688 5.6 7.425 5.6 7.425l3.676-2.49s-9.36-7.935-8.246-18.224c1.115-10.287 6.26-12.69 6.26-12.69s6.344-4.97 14.832-.255c8.49 4.715 16.805 6.86 16.805 6.86s7.804 1.885 8.49 1.8c.686-.086-3.944-5.402-3.773-5.316z" fill="#fc0" fill-rule="evenodd" stroke="#121116" stroke-width="1.17"/><path d="M274.515 115.04l-3.78-7.433 11.343-4.433s-2.738 3.65-3.39 6.26c-.796 3.184-.522 5.866-.522 5.866s1.043-.782 2.347-2.868c.99-1.584 2.608-7.302 2.608-7.302l5.086 16.298c.04.044-2.614-2.614-4.48-2.93-2.103-.355-4.647.323-4.647.323l-3 .913-1.565-4.694z" fill="#fc0" fill-rule="evenodd" stroke="#000" stroke-width="1.2"/><path d="M326.703 76.314s7.117-.085 13.204-3.686c6.088-3.602 12.228-7.373 21.264-5.23 1.85.438 8.66 3.43 11.66 13.118 2.107 6.798-.34 15.004-2.485 18.69-2.143 3.688-3.6 5.857-3.6 5.857l-4.42-1.587s8.106-7.27 6.99-17.56c-1.113-10.288-6.258-12.69-6.258-12.69s-6.345-4.97-14.833-.255c-8.488 4.716-16.805 6.86-16.805 6.86s-7.804 1.886-8.49 1.8c-.685-.085 3.945-5.4 3.773-5.316z" fill="#fc0" fill-rule="evenodd" stroke="#121116" stroke-width="1.17"/><path fill="#fc0" stroke="#121116" stroke-width="1.17" stroke-linejoin="round" d="M323.028 69.272h2.97V96.98h-2.97zm-10.004-.12h3.516v27.706h-3.516zM329.212 62.724c0 4.915-4.33 8.903-9.68 8.913-5.35.01-9.7-3.962-9.72-8.877-.022-4.915 4.292-8.92 9.642-8.948 5.35-.03 9.715 3.927 9.758 8.842"/><path d="M310.907 96.747l16.68-.137s-1.955 1.167-3.637 4.153c-1.682 2.986-1.442 4.874-1.442 4.874s2.54-.034 4.325-1.34c1.785-1.303 3.776-3.74 3.776-3.74l-.07 15.377s-1.2-1.956-3.192-3.123c-1.99-1.166-4.805-1.166-4.805-1.166h-5.698s-2.605.154-3.776.926c-1.65 1.09-3.708 3.193-3.708 3.193l-.274-14.52s.823 2.54 3.5 3.57c2.678 1.03 4.188.893 4.188.893s0-3.26-1.373-4.943c-1.373-1.682-4.496-3.947-4.496-4.016z" fill="#fc0" fill-rule="evenodd" stroke="#000" stroke-width=".991"/><path d="M320.2 108.82s2.442 5.696 5.28 8.21c1.652 1.463 6.62 2.565 8.864 1.992 5.047-1.29 8.515-5.326 8.515-5.326s-.18 4.423 2.978 6.86c3.16 2.437 5.687 3.07 8.304 2.347 2.618-.722 10.02-6.228 10.02-6.228l1.535 1.354s-4.245 4.12-8.707 6.31c-2.297 1.126-9.27.5-11.527-1.305-2.257-1.806-3.597-6.18-3.597-6.18s-1.39 2.812-4.368 3.805c-2.98.993-7.073.95-10.874-.16-2.558-.748-5.88-4.277-6.513-5.45-.63-1.174-.45-1.806-.45-1.806s-1.875 5.373-5.777 6.84c-3.686 1.383-7.887 1.394-11.457.368-3.608-1.038-3.89-3.055-3.89-3.055s-.27 5.687-8.123 7.31c-7.854 1.626-14.082-4.15-14.082-4.15l1.084-1.626s4.423 4.966 11.193 4.515c6.77-.452 9.027-9.117 9.027-9.117s2.98 4.513 10.923 4.603c7.943.09 10.2-10.29 10.2-10.29l1.444.18z" fill="#f6ca1f" fill-rule="evenodd" stroke="#000" stroke-width=".939"/><g fill="#fc0" stroke="#000" stroke-width="2.2"><path d="M300.63 112.134s.06-2.764.653-3.595c.842-1.18 1.99-1.227 2.574-1.063.72.202 1.47.858 1.348 2.778-.123 1.92-.654 2.86-.082 3.595.572.736.654 1.226 1.757 1.062 1.103-.163 1.593-.53 1.348-1.552-.245-1.022-.572.082-.776-.776-.204-.858 1.067-4.565.858-6.864-.204-2.247-1.062-4.045-2.778-4.495-1.613-.422-2.983-.408-4.495.695-1.45 1.058-3.31 4.535-3.31 4.535l-.04 7.436 3.024-.162-.08-1.594zM294.997 114.136s-1.157-2.512-2.033-3.037c-1.242-.746-2.313-.333-2.784.05-.58.474-1.007 1.374-.13 3.086.88 1.712 1.74 2.362 1.51 3.265-.233.903-.112 1.386-1.19 1.675-1.076.29-1.672.148-1.854-.886-.183-1.036.557-.154.402-1.023-.154-.868-2.798-3.76-3.522-5.953-.71-2.142-.638-4.133.756-5.23 1.31-1.03 2.573-1.562 4.4-1.153 1.75.393 4.842 2.84 4.842 2.84l3 6.805-2.837 1.055-.56-1.494zM294.42 92.114s-2.943 4.944-2.29 8.744c.654 3.8 4.577 11.97 4.577 11.97l.04 1.104 2.117-.23-.482-1.12s1.057-9.78.408-12.87c-.482-2.294-4.33-7.557-4.37-7.598zm4.697 22.635s1.47 1.758 3.228 2.614c1.92.935 2.71.94 3.473.368.56-.42.367-2.207-.286-2.697-.654-.49-1.396-.24-1.512.245-.197.82-.464.766-1.062.45-.873-.463-2.9-1.716-2.9-1.716l-.94.735zm-2.277.398s-.62 2.207-1.87 3.71c-1.368 1.64-2.085 1.97-3.016 1.76-.683-.154-1.24-1.86-.846-2.577.395-.714 1.173-.79 1.48-.396.515.67.737.51 1.152-.026.607-.78 1.94-2.755 1.94-2.755l1.16.285z" fill-rule="evenodd"/><path d="M302.445 113.372c.108.645-1.838 1.51-4.35 1.93-2.51.424-4.638.245-4.756-.397-.12-.643 1.82-1.508 4.33-1.933 2.51-.425 4.645-.25 4.773.39"/></g><g fill="#fc0" stroke="#000" stroke-width="2.2"><path d="M345.636 113.242s1.025-2.568 1.873-3.138c1.2-.808 2.292-.45 2.782-.092.605.442 1.076 1.32.288 3.074-.788 1.756-1.615 2.45-1.337 3.34.278.89.182 1.376 1.273 1.61 1.09.233 1.678.06 1.807-.98.128-1.044-.565-.126-.455-1 .11-.876 2.6-3.9 3.21-6.128.597-2.176.424-4.16-1.025-5.183-1.363-.96-2.65-1.428-4.453-.925-1.73.482-4.69 3.086-4.69 3.086l-2.645 6.95 2.89.907.48-1.52zM339.66 113.14s-.203-2.757-.84-3.556c-.9-1.133-2.05-1.12-2.624-.928-.71.24-1.425.933-1.203 2.845.22 1.91.8 2.823.267 3.587-.533.764-.59 1.258-1.7 1.152-1.11-.108-1.618-.45-1.426-1.482.192-1.033.575.052.735-.816.16-.867-1.303-4.503-1.213-6.81.088-2.255.852-4.094 2.543-4.632 1.59-.505 2.957-.562 4.524.462 1.503.982 3.54 4.358 3.54 4.358l.424 7.424-3.028-.007v-1.596zM346.84 92.316s-4.488 3.598-5.208 7.385c-.72 3.79.087 12.817.087 12.817l-.35 1.047 2.063.528-.06-1.217s4.42-8.79 4.897-11.91c.353-2.318-1.406-8.597-1.43-8.65zm-3.537 22.844s.76 2.163 2.106 3.58c1.47 1.55 2.206 1.833 3.122 1.563.67-.197 1.118-1.937.678-2.625-.44-.69-1.222-.715-1.502-.3-.472.7-.703.554-1.152.047-.656-.74-2.115-2.624-2.115-2.624l-1.137.36zm-2.273-.424s-1.353 1.85-3.052 2.817c-1.856 1.057-2.643 1.114-3.442.59-.585-.382-.51-2.177.112-2.71.62-.53 1.377-.33 1.524.15.25.806.513.734 1.09.38.84-.52 2.783-1.9 2.783-1.9l.986.673z" fill-rule="evenodd"/><path d="M346.902 115.038c-.125.64-2.25.768-4.75.283-2.5-.484-4.43-1.397-4.315-2.04.115-.643 2.233-.774 4.733-.292 2.5.483 4.44 1.396 4.334 2.04"/></g><path d="M279.09 129.87s.487 2.045 1.655.974c1.167-1.07 17.227-7.397 39.904-7.397 22.676 0 37.567 6.23 38.443 6.62.876.388 1.266.875 2.044 0 .78-.877-.778-2.24-.778-2.24s-15.768-6.716-40.392-6.618c-24.624.096-40.586 7.104-40.586 7.104s-1.07.778-.292 1.557z" fill="#cca715" fill-rule="evenodd" stroke="#000" stroke-width=".522"/><path d="M307.846 139.304s.724-2.012 1.987-2.4c1.007-.307 2.598.683 2.598.683s-1.915-.176-2.515.165c-.54.308-.705 1.223-.705 1.223s.41-.73 1.88-.66c1.47.07 1.635.07 1.635.07s-2.492.19-3.068.907c-.576.717 2.35 1.046 2.35 1.046s-4.48.024-5.066-.247c-.587-.27-.963-1.186-1.963-.904-1 .282-2.022 1.176-2.022 1.176s1.14-1.917 1.858-1.928c.717-.012 1.14-.047 1.787.247s1.246.624 1.246.624zm-16.75 3.628s.34-2.11 1.51-2.725c.933-.49 2.68.19 2.68.19s-1.917.18-2.443.627c-.475.403-.467 1.332-.467 1.332s.27-.792 1.727-.995a68.51 68.51 0 0 0 1.62-.232s-2.416.646-2.85 1.457c-.433.812 2.505.594 2.505.594s-4.398.85-5.025.693c-.628-.157-1.167-.988-2.097-.526-.93.462-1.77 1.53-1.77 1.53s.766-2.095 1.47-2.24c.702-.144 1.11-.256 1.8-.087.69.17 1.34.382 1.34.382zm30.876-4.372s.84-1.966 2.123-2.28c1.024-.25 2.554.832 2.554.832s-1.904-.287-2.52.02c-.56.275-.777 1.18-.777 1.18s.453-.705 1.916-.55c1.462.156 1.626.165 1.626.165s-2.5.044-3.115.726c-.616.683 2.287 1.18 2.287 1.18s-4.473-.235-5.044-.54c-.57-.303-.894-1.24-1.908-1.016-1.014.223-2.086 1.056-2.086 1.056s1.25-1.847 1.965-1.817c.716.03 1.14.02 1.77.35.628.33 1.207.694 1.207.694zm14.144 1.6s1.062-1.855 2.374-2.016c1.045-.13 2.44 1.124 2.44 1.124s-1.857-.507-2.507-.276c-.587.21-.907 1.08-.907 1.08s.532-.645 1.967-.32 1.597.354 1.597.354-2.487-.248-3.18.358c-.69.605 2.134 1.44 2.134 1.44s-4.415-.757-4.947-1.126c-.532-.368-.742-1.337-1.776-1.233-1.032.104-2.195.806-2.195.806s1.457-1.688 2.165-1.575c.71.114 1.13.153 1.717.555.586.4 1.12.83 1.12.83zm14.044 2.507s.99-1.412 2.055-1.446c.85-.026 1.88 1.083 1.88 1.083s-1.456-.544-1.995-.405c-.487.125-.808.802-.808.802s.475-.48 1.604-.114c1.13.367 1.257.402 1.257.402s-1.98-.382-2.58.054c-.6.436 1.608 1.313 1.608 1.313s-3.49-.93-3.892-1.266c-.4-.337-.5-1.13-1.336-1.122-.838.008-1.824.486-1.824.486s1.294-1.25 1.855-1.107c.56.143.898.205 1.34.57.44.367.837.75.837.75z" fill-rule="evenodd"/><path d="M305.022 129.722c.338 1.676-1.634 3.485-4.402 4.04-2.768.554-5.283-.356-5.617-2.033-.338-1.676 1.633-3.485 4.4-4.04 2.77-.554 5.285.356 5.62 2.032z" fill="#0f6545" stroke="#000" stroke-width=".697" stroke-linejoin="round"/><path d="M298.753 129.448c.08.407-.347.835-.956.957-.61.122-1.17-.108-1.25-.515-.082-.406.346-.834.955-.956.61-.122 1.17.108 1.25.515z" fill="#cecfc1"/><path d="M344.14 131.75c-.51 1.63-3.108 2.268-5.802 1.423-2.693-.846-4.46-2.854-3.947-4.484.51-1.633 3.11-2.27 5.803-1.424 2.693.845 4.46 2.853 3.947 4.484z" fill="#0f6545" stroke="#000" stroke-width=".697" stroke-linejoin="round"/><path d="M338.776 128.493c-.124.395-.705.565-1.298.38-.593-.187-.973-.658-.85-1.054.125-.396.706-.565 1.3-.38.592.187.972.658.848 1.053z" fill="#cecfc1"/><path fill="#1f2d86" stroke="#000" stroke-width=".991" stroke-linejoin="round" d="M314.603 125.943h10.14v5.112h-10.14z"/><path d="M318.877 127.033c0 .23-.432.42-.964.42s-.963-.19-.963-.42c0-.23.43-.42.963-.42s.964.188.964.42z" fill="#707c8b"/><path d="M285.944 131.055L287.62 136l-3.1 1.675s-1.425 1.006-2.85.25c-1.424-.753-2.264-3.012-1.508-3.937 1.5-1.836 5.782-3.017 5.782-2.933z" fill="#9f1209" fill-rule="evenodd" stroke="#000" stroke-width=".522"/><path d="M283.347 134.575c0 .833-.638 1.51-1.425 1.51s-1.425-.677-1.425-1.51c0-.834.638-1.51 1.425-1.51s1.425.676 1.425 1.51z" fill="#8f322f"/><path d="M282 133.984c.043.266-.02.53-.164.69a.418.418 0 0 1-.538.087c-.19-.105-.33-.334-.374-.6-.044-.267.018-.53.163-.69a.418.418 0 0 1 .538-.088c.188.106.33.336.374.602z" fill="#e2a494"/><path d="M353.88 131.7l-1.665 4.402 3.947 2.067s1.745.778 2.846-.19c.94-.825 1.155-2.737.403-3.704-.71-.915-5.584-2.604-5.53-2.577z" fill="#9f1209" fill-rule="evenodd" stroke="#000" stroke-width=".522"/><path d="M358.605 135.23c0 .54-.565.98-1.262.98-.696 0-1.26-.44-1.26-.98 0-.542.564-.98 1.26-.98.697 0 1.262.438 1.262.98z" fill="#aa675d"/><path d="M357.397 135.082c0 .26-.112.5-.295.628a.498.498 0 0 1-.59 0c-.184-.13-.297-.37-.296-.628 0-.26.112-.5.295-.63a.498.498 0 0 1 .592 0c.183.13.295.37.295.63z" fill="#e2a494"/><path d="M328.55 126.38c0 .377-.32.682-.713.682-.395 0-.714-.305-.714-.68 0-.378.32-.683.714-.683.394 0 .714.304.713.68zm4.315.25c0 .376-.32.68-.714.68-.393 0-.713-.304-.712-.68 0-.377.32-.682.713-.682.396 0 .715.305.715.682zm-2.187 1.676c0 .473-.4.856-.897.856s-.896-.383-.896-.856.4-.857.897-.857.9.383.898.856zm2.082 2.814c0 .377-.32.682-.714.682-.394 0-.714-.305-.713-.68 0-.378.32-.683.713-.683.395 0 .714.304.714.68zm-4.164-.536c0 .376-.32.68-.713.68-.395 0-.714-.304-.714-.68 0-.376.32-.682.713-.682.394 0 .714.306.713.682zM307.73 127.115c.084.367-.16.736-.543.825-.384.09-.764-.136-.85-.503-.084-.366.158-.736.543-.825.384-.09.764.137.85.503zm4.258-.73c.085.366-.157.735-.54.824-.386.09-.766-.137-.85-.504-.086-.366.157-.736.54-.825.385-.088.765.138.85.504zm-1.752 2.125c.107.46-.198.925-.68 1.037-.484.112-.962-.17-1.068-.632-.107-.46.198-.925.68-1.037.484-.112.96.172 1.068.632zm2.664 2.273c.084.367-.158.736-.542.825-.385.09-.765-.136-.85-.503-.085-.366.158-.736.542-.825.384-.09.765.137.85.503zm-4.18.417c.087.366-.156.736-.54.825-.384.09-.764-.137-.85-.503-.084-.367.158-.736.542-.825.385-.09.765.136.85.503zM289.54 131.04c.137.35-.05.752-.418.895-.367.142-.776-.026-.912-.377-.136-.35.05-.75.42-.894.367-.143.775.026.91.377zm4.113-1.33c.136.352-.05.752-.42.895-.366.143-.775-.026-.91-.377-.137-.35.05-.75.418-.894.37-.142.777.027.913.377zm-1.432 2.355c.173.44-.063.944-.525 1.123-.462.18-.975-.032-1.146-.473-.173-.44.063-.944.525-1.124.462-.178.975.034 1.146.475zm2.96 1.87c.137.35-.05.752-.418.895-.367.142-.776-.026-.912-.377s.05-.75.42-.894c.367-.144.775.025.91.376zm-4.075 1.008c.136.35-.05.75-.42.893-.366.143-.775-.026-.91-.377-.137-.35.05-.75.418-.894.368-.143.776.026.912.377zM347.283 129.063c-.096.394-.508.63-.92.53-.414-.1-.67-.502-.573-.896.096-.394.51-.63.92-.53.414.1.67.502.573.896zm4.452 1.367c-.096.393-.51.63-.922.53-.413-.102-.67-.503-.572-.897.097-.393.51-.63.923-.53.412.1.67.503.572.896zm-2.718 1.193c-.12.495-.64.793-1.158.666-.52-.128-.842-.632-.72-1.127.12-.495.64-.794 1.158-.667.518.127.84.632.72 1.127zm1.457 3.48c-.096.393-.51.63-.922.53-.412-.1-.67-.503-.572-.897.096-.393.51-.63.922-.53.412.1.67.503.572.896zm-4.22-1.63c-.096.394-.51.632-.92.53-.414-.1-.67-.502-.574-.896.096-.394.51-.63.922-.53.413.1.67.502.572.896z" fill="#f5d8bc"/><path d="M355.973 88.93s-2.05 1.924-4.487 1.924c-2.436 0-3.846-1.025-4.615-1.538-.77-.513.257-2.052.257-2.052" stroke="#000" stroke-width="1.2" fill="none"/><path d="M312.896 92.777s-3.718-.64-5.257-1.154c-1.54-.512-1.154-1.538-2.95-1.41-1.794.128-3.59 1.41-3.205 3.205.385 1.795 1.667 2.052 2.95 1.667 1.28-.385.897-2.564-.77-2.436-1.667.127-.256 1.538-.256 1.538" stroke="#000" stroke-width="1.095" fill="none"/><path d="M287.255 89.957s1.025 1.538 3.718 1.282c2.692-.258 3.718-1.668 3.846-2.31.127-.64 0-1.794-.514-2.307-.513-.512-2.308-.77-2.308-.77" stroke="#000" stroke-width="1.043" fill="none"/><g stroke="#161111"><path d="M339.19 270.402c2.487-2.448 6.486-5.158 8.707-11.048 2.08-5.513 3.087-15.633 4.984-20.762 2.48-8.792 7.475-17.364 1.53-16.778-5.66.56-7.49 6.028-9.634 10.03-.994 1.49-3.283 4.683-3.716 6.497-.087-3.044-1.625-11.925-1.94-20.856-.293-8.34-.056-17.023-.28-20.263-.272-4.276-.244-8.294-1.247-11.455-.467-1.474-2.633-2.89-3.743-2.83-2.28.018-3.66 2.002-3.97 3.866-.22 1.474-.16.937-.31 2.84-.19 2.41.046 5.514-.127 8.24-.187 2.94.197 6.204.037 8.94-.323 5.513-.722 10.565-.885 11.6 0-2.046-.935-11.705-1.247-20.873-.12-3.48-.2-6.908-.26-10.1-.05-2.584.062-5.33-.215-7.337-.473-3.424-1.58-4.983-4.064-4.983-1.676 0-4.074 1.22-4.84 5.026-.414 2.053-.43 4.566-.363 7.31.063 2.55.2 5.298.158 8.057-.155 10.444-.34 21.513-.766 24.774-.07-1.072-1.115-6.536-1.397-13.852-.11-2.882-.268-6.36-.422-9.684-.184-3.975-.17-6.94-.27-9.59-.027-1.603-.664-6.213-3.747-5.936-1.618-.198-3.332.93-4.022 5.293-.383 2.43-.374 6.612-.438 9.835-.12 6.12-.386 11.48-.092 16.927.183 3.4.155 6.02.194 7.695.04.445-.868-2.856-1.327-7.343-.45-4.39-.847-9.977-.81-8.688 0-2.266-.11-5.64-.315-8.424-.16-2.175-.06-4.574-2.418-4.382-2.394.194-3.864 1.003-4.36 5.102-.32 2.655-.408 8.394-.478 10.475.258 5.292-1.156 17.63-1.797 21.138-.176 2.487-1.157 5.72-1.572 9.186-.893 7.46-.044 16.192.944 20.662 1.963 7.056 7.087 10.222 6.83 15.01-.258 4.788 0 13.23 0 17.01 0 3.78 3.283 3.984 10.08 2.52 11.115-2.394 17.188 2.394 26.365-1.134-1.164-10.458 1.104-16.745 1.045-20.525zm-6.485-24.712c2.3-6.346 5.202-8.84 8.004-10.223" fill="#c00"/><path d="M307.432 239.148c3.46-1.365 7.055-2.356 10.572-3.558 4.304-1.214 8.472-2.954 12.913-3.642 2.14-.436 4.29-.858 6.474-1.005m-36.13 42.064c.483-.32.95.188 1.415.285.652.2 1.334.402 2.022.284 1.35-.022 2.703-.024 4.054.005 1.604-.058 2.93-.116 4.22-1.023m10.042.614c.464.382.992.68 1.55.9.86.38 1.798.43 7.368-.02 3.454.222 6.513-2.76 7.375-3.566" fill="none"/></g></svg>