<svg xmlns="http://www.w3.org/2000/svg" height="480" width="640" viewBox="0 0 640 480"><defs><clipPath id="a"><path fill-opacity=".67" d="M-85.333 0h682.67v512h-682.67z"/></clipPath></defs><g clip-path="url(#a)"><path fill="#006" d="M-160.64 0h962.58v481.29h-962.58z"/><path d="M-160.64 0v53.81l854.963 427.48H801.94v-53.806L-53.025 0H-160.64zm867.22 0v53.808l-854.964 427.48H-256v-53.807L598.963 0H706.58zM240.435 0v481.29h160.43V0h-160.43zM-300.16 160.43v160.43h962.58V160.43H-230.4z" fill="#fff"/><path d="M-160.64 192.516v96.258h962.58v-96.258h-962.58zM81.8 24.576v481.29h96.257V12.288H177.16zM-200.7 469L92.507 320.86h71.745l-320.86 160.43h-71.744zm-27.65-450.567L64.86 191.15H-6.885L-256 66.595V30.72zm569.975 129.71L634.835 0h71.744L385.72 160.43h-71.745zm428.985 331.1L422.1 331.1h71.745L742.96 455.657v35.873z" fill="#c00"/></g></svg>