<svg xmlns="http://www.w3.org/2000/svg" height="480" width="640" viewBox="0 0 640 480"><path d="M0 0h640v480H0z" fill="#fff"/><path d="M272 0h96v480h-96zM0 192h640v96H0z" fill="#f00"/><path style="mix-blend-mode:multiply" d="M146.848 373.155c1.023-16.824 3.97-31.155 3.97-31.155s-9.84 1.008-14.818 1.008c-4.902 0-14.814-1.008-14.814-1.008s2.946 14.33 3.97 31.155C108.33 372.13 94 369.185 94 369.185s1.008 7.408 1.008 14.815c0 7.41-1.008 14.814-1.008 14.814s14.33-2.943 31.155-3.97c-1.023 16.825-3.97 31.156-3.97 31.156s7.41-1.008 14.815-1.008c7.41 0 14.817 1.008 14.817 1.008s-2.946-14.33-3.97-31.155c16.822 1.026 31.153 3.97 31.153 3.97s-1.005-9.84-1.005-14.815c0-4.902 1.005-14.814 1.005-14.814s-14.33 2.943-31.152 3.97zm367.997-288C515.87 68.33 518.815 54 518.815 54s-9.84 1.008-14.815 1.008c-4.902 0-14.814-1.008-14.814-1.008s2.943 14.33 3.97 31.155C476.33 84.13 462 81.185 462 81.185s1.008 7.408 1.008 14.815c0 7.41-1.008 14.814-1.008 14.814s14.33-2.943 31.155-3.97c-1.025 16.825-3.97 31.156-3.97 31.156s7.408-1.008 14.815-1.008c7.41 0 14.814 1.008 14.814 1.008s-2.943-14.33-3.97-31.155c16.825 1.026 31.156 3.97 31.156 3.97s-1.008-9.84-1.008-14.815c0-4.902 1.008-14.814 1.008-14.814s-14.33 2.943-31.155 3.97zm-367.997 0C147.87 68.33 150.818 54 150.818 54s-9.84 1.008-14.818 1.008c-4.902 0-14.814-1.008-14.814-1.008s2.946 14.33 3.97 31.155C108.33 84.13 94 81.185 94 81.185S95.008 88.594 95.008 96c0 7.41-1.008 14.814-1.008 14.814s14.33-2.943 31.155-3.97c-1.023 16.825-3.97 31.156-3.97 31.156s7.41-1.008 14.815-1.008c7.41 0 14.817 1.008 14.817 1.008s-2.946-14.33-3.97-31.155c16.822 1.026 31.153 3.97 31.153 3.97s-1.005-9.84-1.005-14.815c0-4.902 1.005-14.814 1.005-14.814s-14.33 2.943-31.152 3.97zm367.997 288c1.026-16.824 3.97-31.155 3.97-31.155s-9.84 1.008-14.815 1.008c-4.902 0-14.814-1.008-14.814-1.008s2.943 14.33 3.97 31.155c-16.826-1.026-31.156-3.97-31.156-3.97s1.008 7.408 1.008 14.815c0 7.41-1.008 14.814-1.008 14.814s14.33-2.943 31.155-3.97c-1.025 16.825-3.97 31.156-3.97 31.156s7.408-1.008 14.815-1.008c7.41 0 14.814 1.008 14.814 1.008s-2.943-14.33-3.97-31.155c16.825 1.026 31.156 3.97 31.156 3.97s-1.008-9.84-1.008-14.815c0-4.902 1.008-14.814 1.008-14.814s-14.33 2.943-31.155 3.97z" fill="#f00" fill-rule="evenodd"/></svg>