<svg xmlns="http://www.w3.org/2000/svg" height="480" width="640" viewBox="0 0 640 480"><defs><clipPath id="a"><path fill-opacity=".67" d="M0 0h120v90H0z"/></clipPath></defs><g fill-rule="evenodd" clip-path="url(#a)"><path fill="#0d5eaf" d="M0 0h719.55v53.3H0z"/><path fill="#fff" d="M0 53.3h719.55v53.3H0z"/><path fill="#0d5eaf" d="M0 106.6h719.55v53.3H0z"/><path fill="#fff" d="M0 159.9h719.55v53.3H0z"/><path fill="#0d5eaf" d="M0 213.2h719.55v53.3H0z"/><path fill="#fff" d="M0 266.5h719.55v53.3H0z"/><path fill="#0d5eaf" d="M0 319.8h719.55v53.3H0z"/><path fill="#fff" d="M0 373.1h719.55v53.3H0z"/><path fill="#0d5eaf" d="M0 426.4h719.55v53.3H0zm0-772.8h266.5v266.5H0z"/><g fill="#fff"><path d="M106.6 0h53.3v266.5h-53.3zM0 106.6h266.5v53.3H0z"/></g></g></svg>