<svg xmlns="http://www.w3.org/2000/svg" height="480" width="640" viewBox="0 0 640 480"><defs><clipPath id="a"><path fill-opacity=".67" d="M-89.048 0h682.67v512h-682.67z"/></clipPath></defs><g clip-path="url(#a)"><path fill-rule="evenodd" fill="#ba0000" d="M664.4 481.28H-23.144V0H664.4z"/><path d="M310.842 232.935s-48.523-20.893-41.56-75.028c6.74-26.06 18.646-43.806 40.213-53.465 10.107-3.146 20.443-4.494 31-5.392-2.772 2.62-5.09 5.242-6.29 8.537-2.322 5.915-.6 11.606 2.47 17.296 3.894 6.59 6.214 13.404 6.964 22.24 1.42 12.43-3.894 24.412-13.704 31.675-6.216 4.794-13.553 6.44-19.545 11.907-4.64 4.57-7.486 9.137-8.534 17.073-.15 15.124 3.97 17.222 8.986 25.16z" fill-rule="evenodd" fill="#fff"/><path d="M301.63 154.607v-.223" fill-rule="evenodd" stroke="#000" stroke-width="2.0228800000000002" fill="#ba0000"/><path d="M304.697 227.314c-18.874-16.7-17.224-58.703-2.846-72.707" stroke="#ba0000" stroke-width="2.0228800000000002" fill="none"/><path fill-rule="evenodd" fill="#ba0000" d="M313.436 145.21l3.102 5.188-5.753-2.343-4.3 4.615.753-6.058-5.76-2.335 6.218-1.4.74-6.06 3.093 5.193 6.212-1.41"/><path d="M314.964 229.352s5.758-52.514 59.56-61.72c26.89-1.19 47.345 4.99 62.9 22.78 5.97 8.744 10.285 18.23 14.238 28.06-3.318-1.88-6.503-3.33-10.004-3.51-6.336-.488-11.273 2.827-15.815 7.43-5.16 5.653-10.994 9.867-19.223 13.173-11.468 5.004-24.48 3.43-34.3-3.82-6.402-4.538-10.128-11.07-17.11-15.197-5.728-3.1-10.93-4.482-18.825-3.16-14.506 4.29-15.303 8.843-21.422 15.965z" fill-rule="evenodd" fill="#fff"/><path d="M387.156 197.596l.214-.066" fill-rule="evenodd" stroke="#000" stroke-width="2.0228800000000002" fill="#ba0000"/><path d="M318.538 221.83c10.438-22.937 51.08-33.668 68.682-24.026" stroke="#ba0000" stroke-width="2.0228800000000002" fill="none"/><path fill-rule="evenodd" fill="#ba0000" d="M399.6 206.128l-4.05 4.484.553-6.186-5.673-2.757 6.013-1.057.545-6.19 3.16 5.535 6.01-1.07-4.06 4.48 3.17 5.526"/><path d="M318.59 233.145s51.626-11.22 77.44 36.872c9.67 25.12 10.304 46.48-1.623 66.88-6.395 8.435-14.02 15.542-22.086 22.412.732-3.745 1.095-7.226.154-10.604-1.55-6.162-6.26-9.79-12.068-12.633-7-3.1-12.85-7.293-18.597-14.044-8.386-9.288-11.03-22.127-7.273-33.74 2.27-7.513 7.282-13.12 8.977-21.05 1.12-6.416.778-11.787-2.983-18.853-8.673-12.392-13.244-11.703-21.94-15.243z" fill-rule="evenodd" fill="#fff"/><path d="M371.63 291.513l.132.18" fill-rule="evenodd" stroke="#000" stroke-width="2.0228800000000002" fill="#ba0000"/><path d="M326.858 234.145c25.065 2.613 48.147 37.74 44.594 57.495" stroke="#ba0000" stroke-width="2.0228800000000002" fill="none"/><path fill-rule="evenodd" fill="#ba0000" d="M367.492 306.022l-5.54-2.418 6.044-1.438.813-6.255 2.91 5.365 6.043-1.448-4.244 4.755 2.922 5.358-5.534-2.426-4.237 4.76"/><path d="M317.427 238.47s25.267 46.395-13.64 84.677c-21.392 16.337-41.715 22.942-64.643 17.223-9.893-3.77-18.854-9.09-27.713-14.902 3.8-.35 7.243-.98 10.22-2.83 5.48-3.218 7.638-8.76 8.738-15.13 1.006-7.588 3.39-14.38 8.255-21.793 6.556-10.655 18.137-16.798 30.338-16.453 7.85.07 14.637 3.304 22.726 2.704 6.472-.726 11.53-2.563 17.256-8.16 9.46-11.802 7.513-15.998 8.468-25.337z" fill-rule="evenodd" fill="#fff"/><path d="M276.306 305.766l-.138.177" fill-rule="evenodd" stroke="#000" stroke-width="2.0228800000000002" fill="#ba0000"/><path d="M318.79 246.684c4.534 24.79-22.7 56.81-42.657 58.946" stroke="#ba0000" stroke-width="2.0228800000000002" fill="none"/><path fill-rule="evenodd" fill="#ba0000" d="M261.218 305.868l.764-5.995 3.08 5.396 6.23-.98-4.332 4.304 3.087 5.392-5.753-2.737-4.324 4.308.774-5.994-5.76-2.728"/><path d="M311.704 237.463s-35.364 39.245-84.398 15.27c-22.516-14.75-35.5-31.723-37.723-55.247.266-10.583 2.307-20.803 4.846-31.09 1.592 3.465 3.33 6.505 6.066 8.697 4.856 4.098 10.8 4.294 17.174 3.215 7.49-1.573 14.69-1.582 23.298.545 12.227 2.644 21.868 11.524 25.598 23.147 2.542 7.426 1.746 14.903 5 22.332 2.836 5.863 6.25 10.024 13.427 13.564 14.277 5 17.588 1.772 26.715-.432z" fill-rule="evenodd" fill="#fff"/><path d="M234.568 221.037l-.212-.07" fill-rule="evenodd" stroke="#000" stroke-width="2.0228800000000002" fill="#ba0000"/><path d="M304.408 241.477c-21.874 12.513-61.124-2.535-69.77-20.648" stroke="#ba0000" stroke-width="2.0228800000000002" fill="none"/><path fill-rule="evenodd" fill="#ba0000" d="M229.458 206.84l5.91-1.27-4.068 4.697 2.992 5.552-5.496-2.657-4.06 4.702.67-6.336-5.5-2.648 5.91-1.26.66-6.34"/></g></svg>