<svg xmlns="http://www.w3.org/2000/svg" height="480" width="640" viewBox="0 0 640 480"><defs><clipPath id="a"><path fill-opacity=".67" d="M-87.62 0h682.67v512H-87.62z"/></clipPath></defs><g fill-rule="evenodd" clip-path="url(#a)"><path fill="#fff" d="M664.404 481.28H-23.14V0h687.544z"/><path fill="#00c" d="M664.404 108.316H-23.14V45.123h687.544zm-44.974 336.337H-68.114V381.46H619.43zM165.41 228.3l103.513 180.05 105.74-179.306-209.253-.743z"/><path d="M294.345 298.74l19.693 33.377 20.116-33.238-39.81-.138z" fill="#fff"/><path d="M210 301.345l103.52-180.047 105.732 179.305-209.253.742z" fill="#00c"/><path d="M294.345 180.113l19.693-33.375 20.116 33.238-39.81.136zm-109.748 86.227l-20.342 33.823 38.446-.12-18.103-33.703zm-22.62-57.74l38.75.273-18.643 34.084-20.107-34.357zm140.89 58.905l19.58 33.442-39.21-.5 19.63-32.942zm28.296-58.88l-38.752.272 18.646 34.085 20.107-34.357zm-106.187-4.053l-26.69 48.424 27.072 47.28 49.566 1.144 30.12-48.424-27.832-48.805-52.238.38z" fill="#fff"/></g></svg>