<svg xmlns="http://www.w3.org/2000/svg" height="480" width="640" viewBox="0 0 640 480"><defs><clipPath id="a"><path fill-opacity=".67" d="M-77.62 0h682.67v512H-77.62z"/></clipPath></defs><g clip-path="url(#a)"><path fill-rule="evenodd" fill="#ba0000" d="M664.434 481.28H-23.11V0h687.544z"/><path d="M336.93 353.45c.187-.57.566-6.434.377-6.434s-8.893-10.215-8.703-10.215c.19 0 11.162 2.46 11.162 2.08 0-.377 4.352-10.78 4.352-10.97 0-.188 5.296 12.675 5.296 12.675l10.782 4.73-7.567 6.242s1.703 12.107 1.703 12.298c0 .188-7.567-7.19-7.567-7.19l-8.326.947s-1.133-3.784-1.51-4.162z" fill-rule="evenodd" fill-opacity=".988" stroke="#000" stroke-width="2.0717600000000003" fill="#ffef00"/><path d="M278.31 194.477c-7.188 3.7-34.776 35.236-38.558 40.155-3.17 7.14-9.372 16.172-15.758 21.986-6.817 5.16-10.605 12.204-9.667 18.875-.075 8.3 4.578 13.952 8.286 19.793 2.194 2.668 5.146 4.393 8.286 4.602 6.438.85 7.01 2.833 10.232 4.06 12.695 17.288 31.634 30.034 45.274 40.13 8.695 4.583 14.74 9.165 16.812 11.667 3.993 7.625 3.258 15.06 2.71 18.713-3.374 12.737-6.75 25.472-10.126 38.208-1.704 10.405 7.338 8.065 7.824 5.984 4.08-5.297 10.17-1.578 18.873-32.224 3.99-5.37 7.98-10.74 11.968-16.11 0 0 4.604-1.842 4.604-2.3 7-8.407 1.67-13.218-2.303-14.73l-8.745-3.225s-10.126-10.125-10.587-10.125c-4.813-14-28.433-43.886-33.92-48.047-3.798-3.958-5.605-5.645-9.21-7.846-5.543-2.65-7.332-3.514-10.726-4.87-2.827-1.133-.814-4.236.983-5.655 18.71-10.184 33.54-21.502 51.49-33.01l2.763-1.843-6.445-36.824-29.92-10.59c-1.57 1.076-2.76 2.15-4.143 3.226z" fill-rule="evenodd" stroke="#000" stroke-width="2.47784" fill="#fff"/><path d="M303.343 388.36c.094-.377 18.727-3.783 18.727-3.783s-2.175 6.906-2.27 6.906l-18.537 5.58 2.08-8.7z" fill-rule="evenodd" fill="#ffec00"/><path d="M254.792 318.2c3.594-9.554 13.57-17.118 20.274-19.205" stroke="#000" stroke-width="2.0717600000000003" fill="none"/><path d="M244.58 413.32c1.28-.36 6.96-2.018 8.616-2.276 1.765-.414 3.523-.876 5.22-1.424 1.96-.4 3.186-.768 5.22-1.14 1.595-.607 3.17-1.024 4.874-1.422m-27.52 18.518c.167-.22 1.517-1.415 2.487-1.992 1.143-.36 5.05-2.018 6.527-2.276a53.935 53.935 0 0 0 4.662-1.424c1.75-.4 2.845-.768 4.663-1.14 1.42-.607 2.83-1.023 4.35-1.422" stroke="#000" stroke-width="2.437" fill="none" transform="translate(72.77) scale(.94)"/><path d="M249.04 341.38h-.284c.89 0 .344-.074-.855 1.423-.424 1.15-4.08 3.7-6.83 3.7-1.326.142-3.366.284-4.695.284-.38 0-.9-.284-1.28-.284m13.665 53.517h1.422c1.476 0 2.957.263 4.27.284 1.423 0 2.846.404 4.27.404 1.436.203 3.167.137 4.653.348 1.666.057 3.004.386 4.738.386 1.398.053 2.152.286 3.7.286l-3.7-.286c1.398.053 2.152.286 3.7.286M239.08 434.74c.152-.222 1.39-1.415 2.276-1.992 1.047-.36 4.624-2.018 5.978-2.276a46.72 46.72 0 0 0 4.268-1.424c1.604-.4 2.606-.768 4.27-1.14 1.304-.607 2.592-1.024 3.984-1.422m5.874-41.216c-.805 2.337.238 2.924.67 3.933.75.977 2.666 2.466 5.693 3.415 1.167.314 2.064.622 3.415 1.14.894.082 1.334.305 1.992.568M153.13 299.55h.284c-.892 0-.357.058 1.14-1.14.923-1.032 1.695-1.5 2.56-2.56m14.436 23.97c.19 0 16.557-8.25 18.305-10.01 1.238-.9 2.176-1.846 3.68-2.866.967-.504 1.66-1.15 2.564-1.707.75-1.09 1.732-1.748 2.274-2.745 1.005-.87.574-1.815 1.39-2.864.384-1.075 1.105-2.885 1.34-3.87M221.95 308c.09.59-.26 2.402-.236 3.782-.057 1.6-2.115 6.543-4.603 8.02" stroke="#000" stroke-width="2.204" fill="none" transform="translate(72.77) scale(.94)"/><path d="M253.767 289.35c.09 0 2.432.762 6.345 1.965 4.712 1.695 14.512 7.87 15.484 8.72.993.78 2.77 1.48 3.45 2.407 1.065.92 1.844 1.982 2.676 2.942.977 1.194 1.81 2.202 2.406 3.212 2.975 2.413 10.98 19.123 11.236 20.066.45.883 1.006 2.11 1.338 2.942.593.684.997 1.65 1.605 2.676.56 1.33 1.186 1.936 1.874 2.942.887.617 2.08 1.786 3.21 2.408 1.208 1.03 2.338 1.45 3.212 2.14 1.262.537 15.36 9.45 16.015 9.896 1.288 1.034 5.222 5.11 2.46 8.075-1.17 1.004-2.228 2.332-3.227 2.898-1.02 1.02-2.438 1.478-3.61 2.006-6.352 1.877-9.587 1.205-10.838 1.205h-1.337m-83.44-108.017c1.805.706 1.077.185 2.702.925 1.093.48 1.812.49 2.886.883 1.137.365 4.32.938 5.85 2.473 1.122 1.014 1.978 1.87 3.21 2.61 1.458 1.006 2.51 1.452 4.317 2.206 1.525.57 3.23 1.202 4.77 1.257 1.603.094 1.988.013 3.526.013h3.745-3.745 3.745" stroke="#000" stroke-width="2.0717600000000003" fill="none"/><path d="M222.192 275.683c4.012-.267 10.7.937 10.834.937l8.83-.133c4.637-.448 5.662-2.23 6.42-3.48 1.74-2.674 2.944-3.61 4.28-5.617 2.14-1.605 5.087 2.14 5.218 2.14 7.492 7.09 1.47 15.784 1.07 16.05-3.744 3.435-4.547 3.658-6.82 1.472-2.275-2.675-2.943-3.878-4.816-4.815-3.61-1.74-11.102-.4-11.237-.4-.133 0-3.878 1.47-3.878 1.47-1.83.67-2.99 2.275-6.153 2.81-3.21.223-4.282-.09-5.887-2.675-2.14-3.344-1.072-7.357 2.14-7.758z" fill-rule="evenodd" stroke="#000" stroke-width="2.0717600000000003" fill="#ffe606"/><path d="M431.662 113.42c-.587.115-5.884 2.66-5.792 2.824.092.166-4.547 12.756-4.64 12.59-.094-.165-3.328-10.935-3.657-10.748-.33.185-11.53 1.49-11.696 1.584-.166.093 8.45-10.828 8.45-10.828l-1.16-11.718 9.15 3.537s9.72-7.418 9.884-7.51c.165-.094-2.558 10.12-2.558 10.12l4.905 6.792s-2.74 2.842-2.886 3.356z" fill-rule="evenodd" fill-opacity=".988" stroke="#000" stroke-width="2.0717600000000003" fill="#ffef00"/><path d="M321.804 242.426c6.75 4.452 47.758 13.045 53.9 13.933 7.777-.737 18.69.24 26.888 2.958 7.837 3.414 15.835 3.263 21.19-.824 7.273-4.002 9.92-10.828 13.193-16.922 1.25-3.22 1.306-6.64-.05-9.478-2.415-6.03-.965-7.5-1.475-10.91 8.846-19.537 10.675-42.293 12.792-59.13-.267-9.824.765-17.34 1.93-20.373 4.69-7.218 11.53-10.22 14.984-11.532 12.756-3.302 25.512-6.6 38.267-9.9 9.905-3.614 3.433-10.348 1.382-9.753-6.617-.96-6.36-8.093-37.337-.658l-19.91-2.538s-3.862-3.112-4.263-2.887c-10.757-1.98-12.338 5.023-11.71 9.227l1.476 9.203s-3.863 13.79-3.637 14.19c-9.845 11.056-24.498 46.557-25.436 53.38-.445 6.41-2.866 5.252-2.216 11.483.025 4.87-.54 1.83 1.085 11.86.396 3.02-3.295 2.788-5.413 1.916-18.046-11.318-35.18-18.697-54.01-28.706-.987-.502-1.972-1.006-2.958-1.506l-28.94 23.665 5.432 31.27c1.706.84 3.227 1.353 4.84 2.03z" fill-rule="evenodd" stroke="#000" stroke-width="2.47784" fill="#fff"/><path d="M478.54 125.584c-.376.103-12.477-14.47-12.477-14.47s7.086-1.488 7.132-1.406l13.95 13.425-8.605 2.45z" fill-rule="evenodd" fill="#ffec00"/><path d="M441.184 202.297c-10.09 1.55-21.573-3.44-26.677-8.26" stroke="#000" stroke-width="2.0717600000000003" fill="none"/><path d="M432.18 134.14c-.94-.94-5.17-5.08-6.207-6.395a66.484 66.484 0 0 0-3.8-3.853c-1.308-1.51-2.23-2.4-3.55-3.992-1.31-1.09-2.447-2.26-3.63-3.55m29.63 14.91c-.275-.034-1.978-.626-2.956-1.19-.874-.82-4.234-3.41-5.183-4.573a54.21 54.21 0 0 0-3.525-3.366c-1.21-1.33-2.066-2.1-3.28-3.505-1.228-.942-2.28-1.964-3.373-3.095" stroke="#000" stroke-width="2.437" fill="none" transform="translate(72.77) scale(.94)"/><path d="M367.28 165.51l.14.248c-.437-.777-.234-.263 1.66.047 1.21-.192 5.223 1.743 6.57 4.14.776 1.09 1.9 2.797 2.55 3.956.186.33.194.926.38 1.258m39.95-38.138l-.14-.248c.187.332-.37-.66-.557-.99-.723-1.288-1.22-2.708-1.845-3.863-.697-1.24-1.043-2.68-1.74-3.92-.527-1.353-1.433-2.83-1.977-4.228-.766-1.48-1.134-2.807-1.984-4.32-.64-1.244-.806-2.015-1.565-3.366l1.566 3.367c-.64-1.245-.806-2.016-1.565-3.367m44.82 12.354c-.268-.024-1.914-.517-2.852-1.008-.827-.736-4.025-3.04-4.914-4.095a47.07 47.07 0 0 0-3.332-3.023c-1.135-1.202-1.947-1.894-3.086-3.164-1.17-.838-2.163-1.757-3.193-2.775M397.35 129.45c2.432-.444 2.432-1.64 3.1-2.51.484-1.134.843-3.534.187-6.637-.298-1.172-.47-2.105-.68-3.536-.367-.82-.388-1.312-.482-2.015M377.82 269.62l-.14-.248c.438.778.226.283-1.55-.434-1.354-.3-2.14-.743-3.487-.978m13.817-24.34c-.093-.166-15.305-10.39-17.697-11.05-1.39-.638-2.674-.99-4.3-1.804-.914-.594-1.817-.88-2.746-1.397-1.318-.123-2.372-.657-3.507-.64-1.252-.45-1.864.39-3.178.193-1.125.19-3.056.45-4.03.727m.458-24.17c.47-.366 2.222-.95 3.413-1.648 1.422-.735 6.74-1.363 9.245.082M365.71 231.2c-.047-.084-.562-2.652-1.486-6.91-.886-5.252-.268-17.558.013-18.904.207-1.328-.072-3.34.433-4.454.298-1.466.876-2.743 1.334-4.015.596-1.528 1.097-2.826 1.723-3.906.686-4.016 12.008-20.15 12.75-20.88a43.017 43.017 0 0 1 2.03-2.774c.325-.907 1.01-1.784 1.645-2.884.94-1.21 1.177-2.108 1.752-3.27.11-1.143.57-2.86.558-4.233.328-1.657.127-2.925.312-4.095-.16-1.45.753-19.172.826-20.01.288-1.735 2.017-7.507 6.206-6.492 1.54.565 3.32.852 4.368 1.484 1.48.413 2.642 1.49 3.743 2.3 5.052 4.913 6.115 8.264 6.766 9.423l.698 1.24m-56.74 133.12l-.14-.248c.377.67.17.336-.31-1.132-.125-1.263-.515-2.97-.712-4.17-.255-1.247-.84-2.667-.68-3.536-.447-1.266-.166-2.31-.046-3.566.354-1.568.514-2.703.558-4.232.172-1.875.034-3.205.14-4.977-.494-1.46-.594-2.683-1.348-4.14-.67-1.395-1.182-2.685-1.984-4.11l-1.953-3.474 1.953 3.474-1.953-3.473" stroke="#000" stroke-width="2.204" fill="none" transform="translate(72.77) scale(.94)"/><path d="M420.1 251.544c-2.2-3.365-4.427-9.785-4.493-9.903l-4.444-7.63c-2.663-3.824-4.718-3.843-6.18-3.89-3.183-.206-4.59-.797-6.995-.98-2.447-1.078-.626-5.48-.69-5.597 2.508-10.003 13.036-9.017 13.467-8.798 4.83 1.58 5.416 2.17 4.625 5.224-1.217 3.294-1.937 4.464-1.837 6.557.254 4 5.092 9.875 5.16 9.992.064.116 3.18 2.66 3.18 2.66 1.48 1.265 3.45 1.49 5.465 3.987 1.77 2.688 2.02 3.775.554 6.44-1.867 3.505-5.89 4.54-7.813 1.937z" fill-rule="evenodd" stroke="#000" stroke-width="2.0717600000000003" fill="#ffe606"/><path d="M171.697 158.55c.418.43 5.448 3.468 5.535 3.3s13.164-3.185 13.076-3.016-7.326 8.773-6.99 8.947c.335.175 7.565 8.83 7.733 8.918.17.087-13.688-1.14-13.688-1.14l-9.165 7.39-2.054-9.59s-11.53-4.07-11.698-4.156c-.168-.088 9.867-3.403 9.867-3.403l2.997-7.825s3.88.736 4.388.575z" fill-rule="evenodd" fill-opacity=".988" stroke="#000" stroke-width="2.0717600000000003" fill="#ffef00"/><path d="M339.785 179.78c.028-8.084-15.247-47.1-17.87-52.725-4.876-6.102-10.035-15.767-12.253-24.115-1.435-8.425-5.942-15.034-12.295-17.275-7.332-3.892-14.493-2.366-21.385-1.767-3.38.718-6.27 2.543-7.903 5.232-3.723 5.323-5.744 4.916-8.32 7.212-21.19 3.302-41.23 14.237-56.477 21.69-8.072 5.603-14.925 8.86-18.1 9.544-8.607.03-14.867-4.048-17.857-6.216l-29.242-26.593c-8.45-6.307-10.54 2.797-8.917 4.187 2.82 6.063-3.286 9.752 19.902 31.596l8.782 18.045s-.487 4.935-.08 5.147c4.235 10.086 10.962 7.572 14.135 4.743l6.89-6.276s13.654-4.322 13.865-4.73c14.642 2.18 52.37-5.007 58.59-7.96 5.608-3.14 5.965-.48 10.822-4.437 4.06-2.687 1.827-.547 9.33-7.402 2.31-1.985 4.135 1.23 4.568 3.48.416 21.297 3.628 39.674 5.57 60.91l.36 3.3c11.883 3.75 23.77 7.498 35.652 11.248 7.726-7.225 15.457-14.45 23.184-21.677-.23-1.885-.635-3.44-.952-5.16z" fill-rule="evenodd" stroke="#000" stroke-width="2.47878" fill="#fff"/><path d="M156.183 112.66c.29.257-5.272 18.364-5.272 18.364s-5.126-5.114-5.082-5.198l3.59-19.023 6.764 5.856z" fill-rule="evenodd" fill="#ffec00"/><path d="M240.823 101.89c6.823 7.594 8.94 19.934 7.703 26.844" stroke="#000" stroke-width="2.0717600000000003" fill="none"/><path d="M88.917 119.143c-.27 1.302-1.416 7.108-1.95 8.696a66.817 66.817 0 0 0-1.142 5.287c-.547 1.923-.785 3.18-1.394 5.158-.193 1.694-.55 3.284-.98 4.98m-3.755-32.955c.12.25.557 1.998.622 3.125-.206 1.18-.535 5.41-.987 6.84a54.356 54.356 0 0 0-.886 4.794c-.45 1.736-.628 2.88-1.138 4.662-.116 1.543-.394 2.984-.74 4.517" stroke="#000" stroke-width="2.437" fill="none" transform="translate(72.77) scale(.94)"/><path d="M214.422 146.872l.123-.237c-.386.743-.085.32-.816-1.33-.777-.853-1.32-5.005-.13-7.3.458-1.17 1.223-2.933 1.798-4.042.164-.315.627-.628.792-.945m-50.548-11.77l-.122.237-.494.95c-.64 1.23-1.5 2.35-2.087 3.437-.616 1.187-1.57 2.2-2.186 3.387-.79 1.11-1.485 2.584-2.307 3.73-.768 1.367-1.622 2.34-2.373 3.787-.65 1.144-1.17 1.673-1.84 2.963l1.842-2.963c-.65 1.144-1.172 1.673-1.843 2.963m-13.37-41.617c.12.223.58 1.772.677 2.762-.153 1.03-.32 4.732-.69 5.972-.28 1.382-.518 2.783-.66 4.178-.362 1.51-.49 2.506-.9 4.055-.057 1.352-.27 2.606-.54 3.94m31.84 22.77c-1.6-1.686-2.543-1.07-3.572-1.148-1.137.204-3.21 1.156-5.314 3.27-.766.838-1.412 1.455-2.43 2.357-.455.71-.83.98-1.335 1.415M290.87 84.98l-.122.238c.386-.745.106-.323.456 1.443.46 1.22.517 2.067 1.027 3.247m-26.243 1.658c-.083.16-.29 17.386.423 19.607.212 1.422.597 2.613.795 4.312.002 1.024.242 1.882.315 2.876.583 1.1.707 2.204 1.304 3.09.29 1.215 1.266 1.264 1.79 2.4.728.786 1.926 2.17 2.645 2.793m-19.245 12.09c-.53-.18-1.89-1.26-3.052-1.836-1.31-.74-4.543-4.597-4.697-7.313" stroke="#000" stroke-width="2.0717600000000003" fill="none"/><path d="M206.527 121.572c-.044.085-1.91 1.923-4.967 5.028-3.91 3.618-14.542 9.843-15.822 10.344-1.224.555-2.754 1.89-3.963 2.077-1.39.556-2.775.773-4.09 1.086-1.605.34-2.965.63-4.212.7-3.737 1.625-23.436.992-24.452.77a43.156 43.156 0 0 1-3.433-.178c-.936.225-2.046.13-3.313.204-1.53-.123-2.41.17-3.697.327-1.015.534-2.704 1.09-3.847 1.85-1.566.633-2.516 1.496-3.596 1.982-1.125.928-16.452 9.872-17.193 10.27-1.607.71-7.383 2.425-8.83-1.636-.37-1.597-1.106-3.244-1.15-4.467-.466-1.464-.2-3.027-.126-4.39 1.342-6.92 3.563-9.644 4.175-10.824l.655-1.263m142.437-25.45l-.13.254c.353-.683.188-.325-.778.88-.987.796-2.203 2.057-3.1 2.88-.902.896-1.77 2.162-2.583 2.505-.813 1.068-1.842 1.405-2.957 1.992-1.506.563-2.543 1.05-3.846 1.85-1.664.885-2.7 1.73-4.24 2.61-.95 1.213-1.918 1.967-2.725 3.395-.8 1.323-1.597 2.46-2.35 3.91l-1.837 3.536 1.837-3.537-1.837 3.536m11.75 73.122l.263-.506c-.485.935-.315.69.14-.888.005-1.892.454-4.18.473-5.85.286-1.766.575-3.675.593-5.464-.107-2.094-.104-3.97-.417-5.99-.024-1.857-.24-3.784-.296-5.605-.035-1.803-.17-3.35-.56-5.1-.037-1.31-.118-3.11-.437-4.716.17-1.268-.19-2.433-.458-3.446-.49-1.95-.68-3.09-1.195-5.11-.31-1.084-.615-2.468-1.082-4.09-.17-1.537-.992-3.533-1.326-4.858-.457-.974-.918-2.294-1.095-3.453-.478-1.07-1.16-2.375-1.345-3.585-.504-.924-1.04-2.36-1.598-3.718-.48-1.116-.834-2.49-1.345-3.584-.518-1.38-1.148-2.56-1.47-3.97-.492-.476-.604-1-.87-1.412" stroke="#000" stroke-width="2.204" fill="none" transform="translate(72.77) scale(.94)"/><path d="M293.57 92.562c-1.612 3.685-5.763 9.065-5.824 9.184l-3.95 7.897c-1.74 4.323-.63 6.054.13 7.3 1.572 2.776 1.848 4.277 3.012 6.39.44 2.637-4.242 3.524-4.304 3.643-9.744 3.38-14.685-5.97-14.74-6.448-1.32-4.905-1.147-5.72 1.84-6.73 3.42-.787 4.798-.826 6.492-2.056 3.208-2.404 5.47-9.67 5.534-9.79.06-.117.48-4.12.48-4.12.252-1.93-.64-3.7.345-6.755 1.28-2.952 2.05-3.76 5.085-3.992 3.955-.357 7.024 2.44 5.9 5.476z" fill-rule="evenodd" stroke="#000" stroke-width="2.0717600000000003" fill="#ffe606"/><path d="M280.783 187.67c-1.472-1.336 27.69 10.567 31.702 10.703 5.486-2.006 28.093-21.135 28.093-21.135.223 1.873 1.024 6.733 3.21 7.76-8.74 7.09-16.677 13.912-25.416 21 .623 11.237-1.43 23.142 4.28 35.717 0 0-6.82.132-6.82 0-6.02-6.02-8.163-35.047-8.163-35.047-9.587-4.28-19.175-8.428-28.76-12.708 1.38-.893 2.496-3.657 1.872-6.29z" fill-rule="evenodd" fill-opacity=".987" stroke="#000" stroke-width="2.0717600000000003" fill="#ffef00"/><path d="M308.53 217.422c.468-.338-5.26 2.66-6.73 3.412-26.494 14.134-40.128 34.692-40.977 35.468-.458.876-1.3 2.044-2.072 3.19-.62.958-1.513 1.95-2.1 2.92-.81 1.125-2.518 3.345-3.45 4.33-.115.635.443-.216.26.207m73.176-66.326c-.514-.26 4.772 3.46 6.114 4.425 24.685 17.095 49.204 19.816 50.283 20.215.987.007 2.412.222 3.782.386 1.137.114 2.428.452 3.56.53 1.37.207 4.126.71 5.428 1.088.617-.188-.395-.294.063-.326" stroke="#000" stroke-width="2.0717600000000003" fill="none"/></g></svg>