<svg xmlns="http://www.w3.org/2000/svg" height="480" width="640" viewBox="0 0 640 480"><defs><clipPath id="a"><path fill-opacity=".67" d="M0 0h682.67v512H0z"/></clipPath></defs><g clip-path="url(#a)"><path fill-rule="evenodd" fill="#fff" d="M0 0h960v480H0z"/><path d="M960 417.413c-10.757 6.47-20 21.595-48.576 21.595-57.137 0-71.426-31.842-114.28-31.842-28.57 0-42.856 31.842-71.426 31.842-57.143 0-71.43-31.842-114.28-31.842-28.574 0-42.86 31.842-71.43 31.842-57.143 0-71.43-31.842-114.282-31.842-28.572 0-42.858 31.842-71.43 31.842-57.14 0-71.428-31.842-114.28-31.842-28.573 0-42.858 31.842-71.43 31.842-57.142 0-71.43-31.842-114.29-31.842-28.57 0-37.143 22.69-54.286 22.69v40.994c17.143 0 25.714-22.688 54.286-22.688 42.858 0 57.146 31.838 114.282 31.838 28.57 0 42.855-31.842 71.43-31.842 42.855 0 57.14 31.842 114.28 31.842 28.57 0 42.857-31.842 71.43-31.842 42.856 0 57.14 31.842 114.28 31.842 28.57 0 42.857-31.842 71.43-31.842 42.856 0 57.142 31.842 114.28 31.842 28.572 0 42.857-31.842 71.426-31.842 42.858 0 57.146 31.842 114.28 31.842 28.578 0 37.82-9.023 48.577-15.495V417.41zm64-51.786c-10.757 6.472-20 21.596-48.576 21.596-57.137 0-71.426-31.842-114.28-31.842-28.57 0-42.856 31.843-71.426 31.843-57.143 0-71.43-31.842-114.28-31.842-28.574 0-42.86 31.843-71.43 31.843-57.143 0-71.43-31.842-114.282-31.842-28.572 0-42.858 31.843-71.43 31.843-57.14 0-71.428-31.842-114.28-31.842-28.573 0-42.858 31.843-71.43 31.843-57.142 0-71.43-31.842-114.29-31.842-28.57 0-37.143 22.69-54.286 22.69v40.995c17.143.01 25.714-22.688 54.286-22.688 42.857 0 57.144 31.843 114.29 31.843 28.572 0 42.857-31.843 71.43-31.843 42.856 0 57.142 31.843 114.28 31.843 28.572 0 42.858-31.843 71.43-31.843 42.857 0 57.143 31.843 114.282 31.843 28.57 0 42.856-31.843 71.43-31.843 42.855 0 57.14 31.843 114.28 31.843 28.57 0 42.857-31.843 71.425-31.843 42.858 0 57.146 31.843 114.28 31.843 28.578 0 37.82-9.024 48.577-15.495V365.63zm0-84.91c-10.757 6.47-20 21.595-48.576 21.595-57.137 0-71.426-31.842-114.28-31.842-28.57 0-42.856 31.842-71.426 31.842-57.143 0-71.43-31.842-114.28-31.842-28.574 0-42.86 31.842-71.43 31.842-57.143 0-71.43-31.842-114.282-31.842-28.572 0-42.858 31.842-71.43 31.842-57.14 0-71.428-31.842-114.28-31.842-28.573 0-42.858 31.842-71.43 31.842-57.142 0-71.43-31.842-114.29-31.842-28.57 0-37.143 22.69-54.286 22.69v40.994c17.143 0 25.714-22.687 54.286-22.687 42.857 0 57.144 31.842 114.29 31.842 28.572 0 42.857-31.843 71.43-31.843 42.856 0 57.142 31.842 114.28 31.842 28.572 0 42.858-31.843 71.43-31.843 42.857 0 57.143 31.842 114.282 31.842 28.57 0 42.856-31.843 71.43-31.843 42.855 0 57.14 31.842 114.28 31.842 28.57 0 42.857-31.843 71.425-31.843 42.858 0 57.146 31.842 114.28 31.842 28.578 0 37.82-9.024 48.577-15.496V280.72zm0-84.91c-10.757 6.47-20 21.595-48.576 21.595-57.137 0-71.426-31.842-114.28-31.842-28.57 0-42.856 31.842-71.426 31.842-57.143 0-71.43-31.842-114.28-31.842-28.574 0-42.86 31.842-71.43 31.842-57.143 0-71.43-31.842-114.282-31.842-28.572 0-42.858 31.842-71.43 31.842-57.14 0-71.428-31.842-114.28-31.842-28.573 0-42.858 31.842-71.43 31.842-57.142 0-71.43-31.842-114.29-31.842-28.57 0-37.143 22.69-54.286 22.69v40.994c17.143 0 25.714-22.687 54.286-22.687 42.857 0 57.144 31.842 114.29 31.842 28.572 0 42.857-31.843 71.43-31.843 42.856 0 57.142 31.842 114.28 31.842 28.572 0 42.858-31.843 71.43-31.843 42.857 0 57.143 31.842 114.282 31.842 28.57 0 42.856-31.843 71.43-31.843 42.855 0 57.14 31.842 114.28 31.842 28.57 0 42.857-31.843 71.425-31.843 42.858 0 57.146 31.842 114.28 31.842 28.578 0 37.82-9.024 48.577-15.496V195.81zm0-84.91c-10.757 6.47-20 21.595-48.576 21.595-57.137 0-71.426-31.842-114.28-31.842-28.57 0-42.856 31.842-71.426 31.842-57.143 0-71.43-31.842-114.28-31.842-28.574 0-42.86 31.842-71.43 31.842-57.143 0-71.43-31.842-114.282-31.842-28.572 0-42.858 31.842-71.43 31.842-57.14 0-71.428-31.842-114.28-31.842-28.573 0-42.858 31.842-71.43 31.842-57.142 0-71.43-31.842-114.29-31.842-28.585-.002-37.157 22.688-54.3 22.688v40.994c17.143 0 25.714-22.69 54.286-22.69 42.857 0 57.144 31.84 114.29 31.84 28.572 0 42.857-31.84 71.43-31.84 42.856 0 57.142 31.84 114.28 31.84 28.572 0 42.858-31.84 71.43-31.84 42.857 0 57.143 31.84 114.28 31.84 28.573 0 42.858-31.84 71.43-31.84 42.857 0 57.143 31.84 114.282 31.84 28.57 0 42.857-31.84 71.425-31.84 42.857 0 57.145 31.84 114.28 31.84 28.577 0 37.82-9.022 48.576-15.494v-47.095zm0-84.915c-10.757 6.472-20 21.595-48.576 21.595-57.137 0-71.426-31.842-114.28-31.842-28.57 0-42.856 31.842-71.426 31.842-57.143 0-71.43-31.842-114.28-31.842-28.574 0-42.86 31.842-71.43 31.842-57.143 0-71.43-31.842-114.282-31.842-28.572 0-42.858 31.842-71.43 31.842-57.14 0-71.428-31.842-114.28-31.842-28.573 0-42.858 31.842-71.43 31.842-57.142 0-71.43-31.842-114.29-31.842-28.585 0-37.157 22.69-54.3 22.69V79.42c17.143 0 25.714-22.69 54.286-22.69 42.857 0 57.144 31.842 114.29 31.842 28.572 0 42.857-31.843 71.43-31.843 42.856 0 57.142 31.842 114.28 31.842 28.572 0 42.858-31.843 71.43-31.843 42.857 0 57.143 31.842 114.28 31.842 28.573 0 42.858-31.843 71.43-31.843 42.857 0 57.143 31.842 114.282 31.842 28.57 0 42.857-31.843 71.425-31.843 42.857 0 57.145 31.842 114.28 31.842 28.577 0 37.82-9.024 48.576-15.495V25.98zM0 .06h244.978V148.1H0z" fill-rule="evenodd" fill="#000063"/><path d="M0 .06v16.55l217.59 131.487h27.39v-16.55L27.39.06H0zm244.98.003v16.55L27.39 148.1H0v-16.552L217.59.064h27.39zM102.075.06v148.035h40.83V.06h-40.83zM13.61 49.41v49.346h244.98V49.408H6.805z" fill="#fff"/><path d="M0 59.273V88.88h244.98V59.275H0zM110.24 7.963v148.037h24.5V4.01h-24.5zM14.7 144.153l81.66-49.346h18.258L25.608 148.1H7.348zM-7.35 19.8l81.66 49.345H63.4L0 20.967V9.93zM145.06 39.54L226.72.063h18.26l-81.66 49.345h-18.26zm109.59 101.98l-81.66-49.345h18.26l63.4 38.312v11.035z" fill="#c00"/><path d="M814.96-301.18l-17.72 708.66c0 37.298 80.097 37.298 88.583 0l-17.717-708.66h-53.15z" fill-rule="evenodd" transform="matrix(.193 0 0 .46 198.512 250.855)" stroke="#fff" stroke-width="6.935" fill="#a24300"/><path d="M496.06 549.21l17.717 70.866 35.433-53.15-17.717 88.583 35.433-35.434-35.433 88.582 35.433-35.433-35.433 88.583 35.433-35.433-35.433 106.3 35.433-35.433-35.433 106.3 35.433-35.433-35.433 106.3-17.716 53.15-17.717 17.72-17.717-17.72-17.716-53.15-35.433-106.3 35.433 35.432-35.433-106.3 35.433 35.433-35.433-106.3 35.433 35.433-35.433-88.583 35.433 35.433-35.433-88.582 35.433 35.433-17.717-88.584 35.433 53.15 17.717-70.866z" fill-rule="evenodd" transform="matrix(-.22 .063 -.097 -.183 554.653 302.551)" stroke="#fff" stroke-width="8.25" fill="#006d00"/><path d="M496.06 549.21v496.07M425.2 868.11l70.86 106.3 70.87-106.3M425.2 797.24l70.866 106.3 70.866-106.3M425.2 726.38l70.866 106.3 70.866-106.3M425.2 673.23l70.866 88.583 70.866-88.583M425.2 620.08l70.866 88.582 70.866-88.582M442.91 566.93l53.15 106.3 53.15-106.3" transform="matrix(-.22 .063 -.097 -.183 554.653 302.551)" stroke="#000" stroke-width="1pt" fill="none"/><path d="M496.06 549.21l17.717 70.866 35.433-53.15-17.717 88.583 35.433-35.434-35.433 88.582 35.433-35.433-35.433 88.583 35.433-35.433-35.433 106.3 35.433-35.433-35.433 106.3 35.433-35.433-35.433 106.3-17.716 53.15-17.717 17.72-17.717-17.72-17.716-53.15-35.433-106.3 35.433 35.432-35.433-106.3 35.433 35.433-35.433-106.3 35.433 35.433-35.433-88.583 35.433 35.433-35.433-88.582 35.433 35.433-17.717-88.584 35.433 53.15 17.717-70.866z" fill-rule="evenodd" transform="matrix(.166 -.17 .207 .137 69.257 87.727)" stroke="#fff" stroke-width="8.25" fill="#006d00"/><path d="M496.06 549.21v496.07M425.2 868.11l70.86 106.3 70.87-106.3M425.2 797.24l70.866 106.3 70.866-106.3M425.2 726.38l70.866 106.3 70.866-106.3M425.2 673.23l70.866 88.583 70.866-88.583M425.2 620.08l70.866 88.582 70.866-88.582M442.91 566.93l53.15 106.3 53.15-106.3" transform="matrix(.166 -.17 .207 .137 69.257 87.727)" stroke="#000" stroke-width="1pt" fill="none"/><path d="M496.06 549.21l17.717 70.866 35.433-53.15-17.717 88.583 35.433-35.434-35.433 88.582 35.433-35.433-35.433 88.583 35.433-35.433-35.433 106.3 35.433-35.433-35.433 106.3 35.433-35.433-35.433 106.3-17.716 53.15-17.717 17.72-17.717-17.72-17.716-53.15-35.433-106.3 35.433 35.432-35.433-106.3 35.433 35.433-35.433-106.3 35.433 35.433-35.433-88.583 35.433 35.433-35.433-88.582 35.433 35.433-17.717-88.584 35.433 53.15 17.717-70.866z" fill-rule="evenodd" transform="matrix(.107 .203 -.234 .101 545.687 -54.198)" stroke="#fff" stroke-width="8.25" fill="#006d00"/><path d="M496.06 549.21v496.07M425.2 868.11l70.86 106.3 70.87-106.3M425.2 797.24l70.866 106.3 70.866-106.3M425.2 726.38l70.866 106.3 70.866-106.3M425.2 673.23l70.866 88.583 70.866-88.583M425.2 620.08l70.866 88.582 70.866-88.582M442.91 566.93l53.15 106.3 53.15-106.3" transform="matrix(.107 .203 -.234 .101 545.687 -54.198)" stroke="#000" stroke-width="1pt" fill="none"/><path d="M496.06 549.21l17.717 70.866 35.433-53.15-17.717 88.583 35.433-35.434-35.433 88.582 35.433-35.433-35.433 88.583 35.433-35.433-35.433 106.3 35.433-35.433-35.433 106.3 35.433-35.433-35.433 106.3-17.716 53.15-17.717 17.72-17.717-17.72-17.716-53.15-35.433-106.3 35.433 35.432-35.433-106.3 35.433 35.433-35.433-106.3 35.433 35.433-35.433-88.583 35.433 35.433-35.433-88.582 35.433 35.433-17.717-88.584 35.433 53.15 17.717-70.866z" fill-rule="evenodd" transform="matrix(-.147 .183 -.221 -.12 662.087 185.535)" stroke="#fff" stroke-width="8.25" fill="#006d00"/><path d="M496.06 549.21v496.07M425.2 868.11l70.86 106.3 70.87-106.3M425.2 797.24l70.866 106.3 70.866-106.3M425.2 726.38l70.866 106.3 70.866-106.3M425.2 673.23l70.866 88.583 70.866-88.583M425.2 620.08l70.866 88.582 70.866-88.582M442.91 566.93l53.15 106.3 53.15-106.3" transform="matrix(-.147 .183 -.221 -.12 662.087 185.535)" stroke="#000" stroke-width="1pt" fill="none"/><path d="M496.06 549.21l17.717 70.866 35.433-53.15-17.717 88.583 35.433-35.434-35.433 88.582 35.433-35.433-35.433 88.583 35.433-35.433-35.433 106.3 35.433-35.433-35.433 106.3 35.433-35.433-35.433 106.3-17.716 53.15-17.717 17.72-17.717-17.72-17.716-53.15-35.433-106.3 35.433 35.432-35.433-106.3 35.433 35.433-35.433-106.3 35.433 35.433-35.433-88.583 35.433 35.433-35.433-88.582 35.433 35.433-17.717-88.584 35.433 53.15 17.717-70.866z" fill-rule="evenodd" transform="matrix(-.145 -.156 .166 -.142 258.735 371.531)" stroke="#fff" stroke-width="8.25" fill="#006d00"/><path d="M496.06 549.21v496.07M425.2 868.11l70.86 106.3 70.87-106.3M425.2 797.24l70.866 106.3 70.866-106.3M425.2 726.38l70.866 106.3 70.866-106.3M425.2 673.23l70.866 88.583 70.866-88.583M425.2 620.08l70.866 88.582 70.866-88.582M442.91 566.93l53.15 106.3 53.15-106.3" transform="matrix(-.145 -.156 .166 -.142 258.735 371.531)" stroke="#000" stroke-width="1pt" fill="none"/><path d="M460.63 549.21l28.643 70.866 42.223-53.15-10.184 88.583 27.9-35.434-17.716 88.582 25.25-35.433-25.25 88.583 35.433-35.433-35.434 106.3 35.433-35.433-35.434 106.3 35.433-35.433-35.434 106.3-17.716 53.15-17.717 17.72-17.717-17.72-17.716-53.15-35.433-106.3 35.433 35.432-35.433-106.3 35.433 35.433-35.433-106.3 35.433 35.433-45.617-88.583 45.617 35.433-53.15-88.582 42.966 35.433-25.25-88.584 35.433 53.15V549.21z" fill-rule="evenodd" transform="matrix(-.254 -.06 -.147 .191 641.705 -30.232)" stroke="#fff" stroke-width="8.25" fill="#006d00"/><path d="M467.21 584.65l28.855 124.02v336.62M436.23 885.83l59.833 88.582 60.682-88.582M434.53 814.96l61.53 88.582 60.682-88.582M435.38 744.1l60.682 88.582 59.833-88.582M432.84 690.94l63.228 70.866 53.15-70.866M425.2 637.8l70.866 70.865 45.406-70.865M436.12 593.24l53.15 86.886 35.327-95.478" transform="matrix(-.254 -.06 -.147 .191 641.705 -30.232)" stroke="#000" stroke-width="1pt" fill="none"/><path d="M460.63 549.21l28.643 70.866 42.223-53.15-10.184 88.583 27.9-35.434-17.716 88.582 25.25-35.433-25.25 88.583 35.433-35.433-35.434 106.3 35.433-35.433-35.434 106.3 35.433-35.433-35.434 106.3-17.716 53.15-17.717 17.72-17.717-17.72-17.716-53.15-35.433-106.3 35.433 35.432-35.433-106.3 35.433 35.433-35.433-106.3 35.433 35.433-45.617-88.583 45.617 35.433-53.15-88.582 42.966 35.433-25.25-88.584 35.433 53.15V549.21z" fill-rule="evenodd" transform="matrix(.253 .063 .009 .23 225.839 -129.837)" stroke="#fff" stroke-width="8.25" fill="#006d00"/><path d="M467.21 584.65l28.855 124.02v336.62M436.23 885.83l59.833 88.582 60.682-88.582M434.53 814.96l61.53 88.582 60.682-88.582M435.38 744.1l60.682 88.582 59.833-88.582M432.84 690.94l63.228 70.866 53.15-70.866M425.2 637.8l70.866 70.865 45.406-70.865M436.12 593.24l53.15 86.886 35.327-95.478" transform="matrix(.253 .063 .009 .23 225.839 -129.837)" stroke="#000" stroke-width="1pt" fill="none"/><path d="M354.33 531.5l88.583 88.583 17.716-53.15v88.583l35.432-35.433-17.716 88.583 35.432-35.434-17.716 88.584 35.433-35.433-17.716 106.3 35.432-35.433-35.433 106.3 35.432-35.433-17.717 106.3-17.716 53.15-17.718 17.72-17.717-17.72-17.716-53.15-53.15-82.294 35.433 11.43-35.433-106.3 35.433 35.432-53.15-106.3 35.433 35.433-53.15-88.584 53.15 35.434-70.866-88.583 53.15 35.433-70.867-70.866 70.866 35.433-53.15-88.583z" fill-rule="evenodd" transform="matrix(.033 -.22 .229 .039 108.303 215.307)" stroke="#fff" stroke-width="8.25" fill="#006d00"/><path d="M378.96 560.02l63.952 95.497 17.716 53.15 8.86 45.205 8.857 78.81 9.315 70.867 8.4 141.74M425.2 903.54l63.665 70.866 50.75-88.583M417.08 814.96l70.58 88.583 50.75-88.583M407.48 752.44l70.867 80.235 45.948-88.583M372.05 637.8l88.583 70.866 25.83-70.866M360.62 602.36l82.296 53.15 10.515-53.15m-63.67 88.58l81.095 70.866L504.8 690.94" transform="matrix(.033 -.22 .229 .039 108.303 215.307)" stroke="#000" stroke-width="1pt" fill="none"/><g fill-rule="evenodd"><path d="M541.46 1173.3l-1.7-229.13-61.1-106.94c-15.277-52.618-7.754-78.08 16.973-79.776 24.728-1.698 49.224 13.58 84.868 15.276 35.646 1.697 28.857-59.408 81.475-57.71 52.618 1.697 144.28 32.25 222.36 37.342 78.078 5.092 118.81-27.158 208.77-30.553 89.97-3.396 113.73 42.434 118.82 42.434s30.55-18.672 56.01-22.066c25.46-3.395 33.95 10.184 33.95 10.184s-1.7 57.71-13.58 91.657c-11.88 33.947-54.32 89.96-56.01 89.96-1.7 0-15.28 249.52-15.28 251.21 0 1.7-675.55-6.79-675.55-11.88z" stroke="#000" stroke-width="1pt" fill="#c00" transform="matrix(.129 0 0 .118 249.846 195.282)"/><g stroke="#000" stroke-width="1pt"><path d="M408.553 305.933s8.702-6.148 8.936-20.906c.134-8.488-4.402-14.635-15.74-14.635-15.874 0-38.55 6.272-38.55 6.272v2.09s18.14-6.27 38.55-6.27c9.07 0 13.607 6.145 13.607 12.417 0 10.454-9.07 21.032-9.07 21.032v16.724h2.266v-16.724z" fill="#fff100"/><path d="M413.304 301.55c0 1.154 1.015 2.09 2.268 2.09 1.252 0 2.268-.936 2.268-2.09 0-1.155-1.016-2.09-2.268-2.09-1.253 0-2.268.935-2.268 2.09zM415.572 296.774c0 1.154 1.015 2.09 2.268 2.09 1.252 0 2.268-.936 2.268-2.09 0-1.155-1.016-2.09-2.268-2.09-1.253 0-2.268.935-2.268 2.09zM416.754 291.91c0 1.154 1.015 2.09 2.268 2.09 1.252 0 2.268-.936 2.268-2.09 0-1.155-1.016-2.09-2.268-2.09-1.253 0-2.268.935-2.268 2.09zM417.624 286.708c0 1.154 1.015 2.09 2.268 2.09 1.252 0 2.268-.936 2.268-2.09 0-1.155-1.016-2.09-2.268-2.09-1.253 0-2.268.935-2.268 2.09zM417.407 281.068c0 1.154 1.015 2.09 2.268 2.09 1.252 0 2.268-.936 2.268-2.09 0-1.155-1.016-2.09-2.268-2.09-1.253 0-2.268.935-2.268 2.09zM410.043 305.752c0 1.154 1.015 2.09 2.268 2.09s2.27-.936 2.27-2.09c0-1.155-1.017-2.09-2.27-2.09-1.252 0-2.267.935-2.267 2.09zM415.478 275.74c0 1.155 1.015 2.09 2.268 2.09 1.252 0 2.268-.935 2.268-2.09 0-1.154-1.016-2.09-2.268-2.09-1.253 0-2.268.936-2.268 2.09zM411.348 271.54c0 1.154 1.015 2.09 2.268 2.09 1.252 0 2.268-.936 2.268-2.09 0-1.155-1.016-2.09-2.268-2.09-1.253 0-2.268.935-2.268 2.09zM405.697 268.74c0 1.154 1.015 2.09 2.268 2.09 1.252 0 2.268-.936 2.268-2.09 0-1.155-1.016-2.09-2.268-2.09-1.253 0-2.268.935-2.268 2.09zM400.045 268.338c0 1.154 1.015 2.09 2.268 2.09 1.252 0 2.268-.936 2.268-2.09 0-1.155-1.015-2.09-2.267-2.09-1.253 0-2.268.935-2.268 2.09zM393.96 268.54c0 1.153 1.015 2.09 2.268 2.09 1.252 0 2.268-.937 2.268-2.09 0-1.156-1.016-2.092-2.268-2.092-1.253 0-2.268.936-2.268 2.09zM387.874 269.34c0 1.153 1.015 2.09 2.268 2.09 1.252 0 2.268-.937 2.268-2.09 0-1.156-1.016-2.092-2.268-2.092-1.253 0-2.268.936-2.268 2.09zM381.787 270.14c0 1.154 1.015 2.09 2.268 2.09 1.252 0 2.268-.936 2.268-2.09 0-1.155-1.016-2.09-2.268-2.09-1.253 0-2.268.935-2.268 2.09zM375.267 271.14c0 1.153 1.015 2.09 2.268 2.09 1.252 0 2.268-.937 2.268-2.09 0-1.156-1.016-2.092-2.268-2.092-1.253 0-2.268.936-2.268 2.09zM369.616 272.54c0 1.155 1.015 2.09 2.268 2.09 1.252 0 2.268-.935 2.268-2.09 0-1.154-1.016-2.09-2.268-2.09-1.253 0-2.268.936-2.268 2.09z" fill="#fff"/></g><path d="M478.35 549.21c0 9.785-7.932 17.717-17.717 17.717-9.785 0-17.717-7.932-17.717-17.717 0-9.785 7.932-17.717 17.717-17.717 9.785 0 17.717 7.932 17.717 17.717z" transform="matrix(.129 0 0 .118 251.898 236.869)" stroke="#000" stroke-width="1pt" fill="#fff"/><path d="M478.35 549.21c0 9.785-7.932 17.717-17.717 17.717-9.785 0-17.717-7.932-17.717-17.717 0-9.785 7.932-17.717 17.717-17.717 9.785 0 17.717 7.932 17.717 17.717z" transform="matrix(.129 0 0 .118 249.628 232.091)" stroke="#000" stroke-width="1pt" fill="#fff"/><path d="M478.35 549.21c0 9.785-7.932 17.717-17.717 17.717-9.785 0-17.717-7.932-17.717-17.717 0-9.785 7.932-17.717 17.717-17.717 9.785 0 17.717 7.932 17.717 17.717z" transform="matrix(.129 0 0 .118 248.445 227.224)" stroke="#000" stroke-width="1pt" fill="#fff"/><path d="M478.35 549.21c0 9.785-7.932 17.717-17.717 17.717-9.785 0-17.717-7.932-17.717-17.717 0-9.785 7.932-17.717 17.717-17.717 9.785 0 17.717 7.932 17.717 17.717z" transform="matrix(.129 0 0 .118 247.576 222.019)" stroke="#000" stroke-width="1pt" fill="#fff"/><path d="M478.35 549.21c0 9.785-7.932 17.717-17.717 17.717-9.785 0-17.717-7.932-17.717-17.717 0-9.785 7.932-17.717 17.717-17.717 9.785 0 17.717 7.932 17.717 17.717z" transform="matrix(.129 0 0 .118 247.793 216.376)" stroke="#000" stroke-width="1pt" fill="#fff"/><path d="M478.35 549.21c0 9.785-7.932 17.717-17.717 17.717-9.785 0-17.717-7.932-17.717-17.717 0-9.785 7.932-17.717 17.717-17.717 9.785 0 17.717 7.932 17.717 17.717z" transform="matrix(.129 0 0 .118 249.724 211.046)" stroke="#000" stroke-width="1pt" fill="#fff"/><path d="M478.35 549.21c0 9.785-7.932 17.717-17.717 17.717-9.785 0-17.717-7.932-17.717-17.717 0-9.785 7.932-17.717 17.717-17.717 9.785 0 17.717 7.932 17.717 17.717z" transform="matrix(.129 0 0 .118 253.856 206.843)" stroke="#000" stroke-width="1pt" fill="#fff"/><path d="M478.35 549.21c0 9.785-7.932 17.717-17.717 17.717-9.785 0-17.717-7.932-17.717-17.717 0-9.785 7.932-17.717 17.717-17.717 9.785 0 17.717 7.932 17.717 17.717z" transform="matrix(.129 0 0 .118 259.509 204.04)" stroke="#000" stroke-width="1pt" fill="#fff"/><path d="M478.35 549.21c0 9.785-7.932 17.717-17.717 17.717-9.785 0-17.717-7.932-17.717-17.717 0-9.785 7.932-17.717 17.717-17.717 9.785 0 17.717 7.932 17.717 17.717z" transform="matrix(.129 0 0 .118 265.163 203.64)" stroke="#000" stroke-width="1pt" fill="#fff"/><path d="M478.35 549.21c0 9.785-7.932 17.717-17.717 17.717-9.785 0-17.717-7.932-17.717-17.717 0-9.785 7.932-17.717 17.717-17.717 9.785 0 17.717 7.932 17.717 17.717z" transform="matrix(.129 0 0 .118 271.252 203.841)" stroke="#000" stroke-width="1pt" fill="#fff"/><path d="M478.35 549.21c0 9.785-7.932 17.717-17.717 17.717-9.785 0-17.717-7.932-17.717-17.717 0-9.785 7.932-17.717 17.717-17.717 9.785 0 17.717 7.932 17.717 17.717z" transform="matrix(.129 0 0 .118 277.342 204.642)" stroke="#000" stroke-width="1pt" fill="#fff"/><path d="M478.35 549.21c0 9.785-7.932 17.717-17.717 17.717-9.785 0-17.717-7.932-17.717-17.717 0-9.785 7.932-17.717 17.717-17.717 9.785 0 17.717 7.932 17.717 17.717z" transform="matrix(.129 0 0 .118 283.432 205.442)" stroke="#000" stroke-width="1pt" fill="#fff"/><path d="M478.35 549.21c0 9.785-7.932 17.717-17.717 17.717-9.785 0-17.717-7.932-17.717-17.717 0-9.785 7.932-17.717 17.717-17.717 9.785 0 17.717 7.932 17.717 17.717z" transform="matrix(.129 0 0 .118 289.955 206.443)" stroke="#000" stroke-width="1pt" fill="#fff"/><path d="M478.35 549.21c0 9.785-7.932 17.717-17.717 17.717-9.785 0-17.717-7.932-17.717-17.717 0-9.785 7.932-17.717 17.717-17.717 9.785 0 17.717 7.932 17.717 17.717z" transform="matrix(.129 0 0 .118 295.61 207.845)" stroke="#000" stroke-width="1pt" fill="#fff"/><path d="M478.35 549.21c0 9.785-7.932 17.717-17.717 17.717-9.785 0-17.717-7.932-17.717-17.717 0-9.785 7.932-17.717 17.717-17.717 9.785 0 17.717 7.932 17.717 17.717z" transform="matrix(.129 0 0 .118 255.16 241.074)" stroke="#000" stroke-width="1pt" fill="#fff"/><path d="M531.5 584.65s-67.982-52.097-69.813-177.17c-1.053-71.93 34.38-124.02 122.96-124.02 124.02 0 301.18 53.15 301.18 53.15v17.716s-141.73-53.15-301.18-53.15c-70.866 0-106.3 52.087-106.3 105.24 0 88.583 70.867 178.23 70.867 178.23v141.73h-17.717v-141.73z" transform="matrix(.129 0 0 .118 249.846 237.07)" stroke="#000" stroke-width="1pt" fill="#fff100"/><path d="M1240.2 531.5s15.35-35.433 70.86-35.433c37.79 0 70.87 35.433 70.87 70.866V637.8h35.43v-70.867c0-35.47 35.44-70.866 70.87-70.866 53.15 0 70.87 35.433 70.87 35.433s0-106.3-70.87-106.3c-53.15 0-70.87 35.433-70.87 35.433s17.72-53.15 17.72-106.3-35.43-88.583-35.43-88.583c0 6.79-35.44 35.433-35.44 88.583s17.72 106.3 17.72 106.3-17.72-35.433-70.87-35.433c-70.86 0-70.86 106.3-70.86 106.3z" transform="matrix(.043 0 0 .045 280.868 289.902)" stroke="#000" stroke-width="2.991" fill="#fff100"/><path d="M1240.2 531.5s15.35-35.433 70.86-35.433c37.79 0 70.87 35.433 70.87 70.866V637.8h35.43v-70.867c0-35.47 35.44-70.866 70.87-70.866 53.15 0 70.87 35.433 70.87 35.433s0-106.3-70.87-106.3c-53.15 0-70.87 35.433-70.87 35.433s17.72-53.15 17.72-106.3-35.43-88.583-35.43-88.583c0 6.79-35.44 35.433-35.44 88.583s17.72 106.3 17.72 106.3-17.72-35.433-70.87-35.433c-70.86 0-70.86 106.3-70.86 106.3z" transform="matrix(.043 0 0 .045 326.265 289.902)" stroke="#000" stroke-width="2.991" fill="#fff100"/><path d="M531.5 832.68V673.23s35.433 53.15 88.583 53.15c43.49 0 88.582-70.866 88.582-70.866s41.515 53.15 88.583 53.15c42.02 0 88.516-68.573 88.516-68.573s43.207 68.573 88.65 68.573c45.44 0 88.58-53.15 88.58-53.15s46.29 70.867 106.3 70.867c53.15 0 70.87-53.15 70.87-53.15v159.45h-708.66z" transform="matrix(.129 0 0 .118 249.846 237.07)" stroke="#000" stroke-width="1pt" fill="#fff100"/><path d="M708.66 832.68V708.66s106.3 35.433 106.3 124.02h-106.3z" transform="matrix(.129 0 0 .118 227.146 237.07)" stroke="#000" stroke-width="1pt" fill="#fff100"/><path d="M708.66 832.68V708.66s106.3 35.433 106.3 124.02h-106.3z" transform="matrix(-.129 0 0 .118 499.529 237.07)" stroke="#000" stroke-width="1pt" fill="#fff100"/><path d="M602.36 832.68c0-88.583 106.37-144.6 106.37-144.6s106.23 56.016 106.23 144.6h-212.6z" transform="matrix(.129 0 0 .118 249.846 237.07)" stroke="#000" stroke-width="1pt" fill="#fff100"/><path d="M602.36 832.68c0-88.583 106.37-144.6 106.37-144.6s106.23 56.016 106.23 144.6h-212.6z" transform="matrix(.129 0 0 .118 295.243 237.07)" stroke="#000" stroke-width="1pt" fill="#fff100"/><path d="M584.65 847.53c0-88.583 124.08-159.45 124.08-159.45s123.95 70.866 123.95 159.45H584.65z" transform="matrix(.129 0 0 .118 272.543 235.319)" stroke="#000" stroke-width="1pt" fill="#fff100"/><path d="M1275.6 655.51c-35.43-17.716-166.02-35.433-376.28-35.433s-350.1 17.717-385.53 35.433c-35.434 17.717-35.434 53.15 0 70.866 35.432 17.716 175.28 35.433 385.54 35.433s340.84-17.717 376.28-35.434c35.43-17.716 35.43-53.15 0-70.866z" transform="matrix(.127 0 0 .118 249.412 257.964)" stroke="#000" stroke-width="1pt" fill="#fff"/><path d="M408.522 343.446c0 4.176-37.74 4.176-45.374 4.176-8.247 0-45.373 1.132-45.373-4.176 0-4.177 37.433-4.177 45.373-4.177 7.94 0 45.374.848 45.374 4.176z" fill="#808080"/><path d="M322.31 328.446c0 1.365-1.017 2.47-2.27 2.47-1.253 0-2.268-1.105-2.268-2.47s1.015-2.473 2.27-2.473c1.25 0 2.268 1.107 2.268 2.473zm107.696 21.896c0 1.365-1.016 2.47-2.27 2.47-1.252 0-2.268-1.105-2.268-2.47s1.016-2.472 2.27-2.472c1.252 0 2.268 1.106 2.268 2.472z" fill="#c00"/><path d="M367.683 327.124c0 1.365-2.032 2.47-4.538 2.47s-4.537-1.105-4.537-2.47 2.03-2.47 4.537-2.47 4.538 1.105 4.538 2.47z"/><path d="M389.447 327.124c0 1.365-1.524 2.47-3.403 2.47-1.88 0-3.403-1.105-3.403-2.47s1.525-2.47 3.404-2.47c1.88 0 3.403 1.105 3.403 2.47zm-20.756 21.808c0 1.365-1.524 2.47-3.402 2.47-1.88 0-3.404-1.105-3.404-2.47s1.524-2.47 3.404-2.47c1.878 0 3.403 1.105 3.403 2.47z" fill="#006300"/><path d="M1257.9 496.06s35.44-53.15 70.87-53.15h35.43v35.433c0 53.15-53.15 70.867-53.15 70.867h141.74s-53.15-17.717-53.15-70.867V442.91h35.43c35.43 0 70.87 53.15 70.87 53.15V354.33s-35.44 53.15-70.87 53.15h-35.43v-35.433c0-53.15 53.15-70.867 53.15-70.867h-141.74s53.15 17.717 53.15 70.867v35.433h-35.43c-35.43 0-70.87-53.15-70.87-53.15v141.73z" transform="matrix(.073 0 0 .068 262.171 279.455)" stroke="#000" stroke-width="2.188" fill="#fff100"/><path d="M1381.9 549.21h70.87s-53.15-17.716-53.15-70.866V442.91h35.43c35.43 0 70.87 53.15 70.87 53.15V354.33s-35.44 53.15-70.87 53.15h-35.43V372.05c0-53.15 53.15-70.867 53.15-70.867h-70.87v248.03z" transform="matrix(.037 0 0 .059 267.358 288.261)" stroke="#000" stroke-width="3.307" fill="#fff100"/><path d="M1381.9 549.21h70.87s-53.15-17.716-53.15-70.866V442.91h35.43c35.43 0 70.87 53.15 70.87 53.15V354.33s-35.44 53.15-70.87 53.15h-35.43V372.05c0-53.15 53.15-70.867 53.15-70.867h-70.87v248.03z" transform="matrix(-.037 0 0 .059 459.325 288.261)" stroke="#000" stroke-width="3.307" fill="#fff100"/><path d="M903.54 602.36c0 9.785-7.932 17.717-17.717 17.717-9.785 0-17.717-7.932-17.717-17.717 0-9.785 7.932-17.717 17.717-17.717 9.785 0 17.717 7.932 17.717 17.717z" transform="matrix(.129 0 0 .118 249.846 237.07)" stroke="#000" stroke-width="1pt" fill="#fff"/><path d="M1257.9 496.06s35.44-53.15 70.87-53.15h35.43v35.433c0 53.15-53.15 70.867-53.15 70.867h141.74s-53.15-17.717-53.15-70.867V442.91h35.43c35.43 0 70.87 53.15 70.87 53.15V354.33s-35.44 53.15-70.87 53.15h-35.43v-35.433c0-53.15 53.15-70.867 53.15-70.867h-141.74s53.15 17.717 53.15 70.867v35.433h-35.43c-35.43 0-70.87-53.15-70.87-53.15v141.73z" transform="matrix(.073 0 0 .068 262.171 235.579)" stroke="#000" stroke-width="2.188" fill="#fff100"/><path d="M903.54 602.36c0 9.785-7.932 17.717-17.717 17.717-9.785 0-17.717-7.932-17.717-17.717 0-9.785 7.932-17.717 17.717-17.717 9.785 0 17.717 7.932 17.717 17.717z" transform="matrix(.129 0 0 .118 250.063 193.543)" stroke="#000" stroke-width="1pt" fill="#fff"/><path stroke="#000" stroke-width="1pt" fill="#fff100" d="M850.39 655.51h70.866v53.15H850.39zM850.39 683.3h70.866v202.53H850.39z" transform="matrix(.129 0 0 .118 249.846 195.282)"/><path d="M478.35 549.21c0 9.785-7.932 17.717-17.717 17.717-9.785 0-17.717-7.932-17.717-17.717 0-9.785 7.932-17.717 17.717-17.717 9.785 0 17.717 7.932 17.717 17.717z" transform="matrix(.129 0 0 .118 304.323 230.801)" stroke="#000" stroke-width="1pt" fill="#fff"/><path d="M478.35 549.21c0 9.785-7.932 17.717-17.717 17.717-9.785 0-17.717-7.932-17.717-17.717 0-9.785 7.932-17.717 17.717-17.717 9.785 0 17.717 7.932 17.717 17.717z" transform="matrix(.129 0 0 .118 304.323 225.397)" stroke="#000" stroke-width="1pt" fill="#fff"/><path d="M478.35 549.21c0 9.785-7.932 17.717-17.717 17.717-9.785 0-17.717-7.932-17.717-17.717 0-9.785 7.932-17.717 17.717-17.717 9.785 0 17.717 7.932 17.717 17.717z" transform="matrix(.129 0 0 .118 304.323 220.355)" stroke="#000" stroke-width="1pt" fill="#fff"/><path d="M478.35 549.21c0 9.785-7.932 17.717-17.717 17.717-9.785 0-17.717-7.932-17.717-17.717 0-9.785 7.932-17.717 17.717-17.717 9.785 0 17.717 7.932 17.717 17.717z" transform="matrix(.129 0 0 .118 304.323 215.151)" stroke="#000" stroke-width="1pt" fill="#fff"/><path d="M367.964 335.14c0 .937-2.064 1.696-4.61 1.696s-4.61-.76-4.61-1.697 2.063-1.698 4.61-1.698 4.61.76 4.61 1.696zm66.315 26.487c-.256.642-2.502.695-5.016.12-2.516-.578-4.348-1.567-4.093-2.21.257-.642 2.502-.696 5.016-.12 2.517.578 4.348 1.567 4.093 2.21zm-14.68-2.54c-.1.827-2.285 1.35-4.88 1.17-2.594-.183-4.617-1-4.515-1.827.1-.826 2.286-1.35 4.88-1.17 2.595.182 4.618 1 4.516 1.827zm-77.916 2.628c.255.642 2.5.696 5.015.12 2.515-.577 4.348-1.566 4.093-2.208-.256-.644-2.502-.697-5.016-.12-2.516.577-4.348 1.565-4.093 2.208zm13.22-3.03c.103.828 2.288 1.35 4.882 1.17 2.595-.18 4.617-.998 4.516-1.825-.1-.827-2.287-1.35-4.882-1.17-2.594.182-4.616 1-4.515 1.826z"/></g></g></svg>