<svg xmlns="http://www.w3.org/2000/svg" height="480" width="640" viewBox="0 0 640 480"><defs><clipPath id="a"><path fill-opacity=".67" d="M-85.31 0h682.67v512H-85.31z"/></clipPath></defs><g clip-path="url(#a)" fill-rule="evenodd"><path fill="#fff" d="M-100.078 0H740.37v480.256h-840.448z"/><path fill="#da0000" d="M-100.078 322.522H740.37v157.734h-840.448z"/><g fill="#fff"><path d="M59.693 329.2h46.028v3.166H59.694zm-74.46 37.595h3.17v3.077h-3.17zm39.74.948v3.167h-9.2v-3.167zm7.544-15.745h3.168v18.91h-3.168zM129.112 344.936v3.168H111.68v-3.168zm-109.203 15.402h3.167v10.57H19.91zM126.518 329.2h3.168v18.91h-3.168zm-84.823 21.758h3.168v18.91h-3.168zm-42.544 7.527v3.167h-16.8v-3.167zm34.086.497v3.168h-16.8v-3.168zM96.642 337.538h3.167v10.572H96.64zM96.642 337.538h3.167v10.572H96.64zM96.642 337.538h3.167v10.572H96.64zM-97.98 382.16h3.167v10.572H-19.1zm24.584 0H8.65v10.572H5.485zm-11.6 0h3.166v10.572h-3.167zM89.02 344.936v3.168h-14.2v-3.168zm-78.436 14.59v3.166H1.58v-3.167z"/></g><g fill="#fff"><path d="M-15.91 329.2h46.028v3.166H-15.91zm-79.456 37.595h3.168v3.077h-3.168zm39.74.948v3.167h-9.2v-3.167zm7.543-15.745h3.168v18.91h-3.168zM53.51 344.936v3.168H36.075v-3.168zm-114.2 15.402h3.167v10.57h-3.168zM50.915 329.2h3.168v18.91h-3.168zm-89.82 21.758h3.168v18.91h-3.168zm-42.544 7.527v3.167h-16.8v-3.167zm34.086.497v3.168h-16.8v-3.168zM21.04 337.538h3.167v10.572H21.04zM21.04 337.538h3.167v10.572H21.04zM21.04 337.538h3.167v10.572H21.04zm-120.74 22.31h3.167v10.572H-99.7zm24.584 0h3.167v10.572h-3.167zm-11.6 0h3.166v10.572h-3.167zM13.42 344.936v3.168H-.784v-3.168zm-83.436 14.59v3.166h-9.003v-3.167z"/></g><g fill="#fff"><path d="M134.663 329.2h46.027v3.166h-46.027zm-69.504 37.595h3.166v3.077H65.16zm39.737.948v3.167h-9.2v-3.167zm7.545-15.745h3.168v18.91h-3.168zM204.08 344.936v3.168h-17.43v-3.168zM28.056 383.138H103v10.57h-3.167zM201.488 329.2h3.167v18.91h-3.167zM49.67 372.716h3.168v18.91h-3.168zm-42.544 7.527v3.167h-16.8v-3.167zm34.084.497v3.168h-16.8v-3.168zM171.61 337.538h3.168v10.572h-3.168zM171.61 337.538h3.168v10.572h-3.168zM171.61 337.538h3.168v10.572h-3.168zm-110.785 22.31h3.167v10.572h-3.167zm24.583 0h3.168v10.572h-3.168zm-11.6 0h3.167v10.572h-3.167zM163.99 344.936v3.168h-14.2v-3.168zm-73.482 14.59v3.166h-9.003v-3.167z"/></g><g fill="#fff"><path d="M664.056 329.2h46.027v3.166h-46.027zm-34.512 37.595h3.168v3.077h-3.168zm39.74.948v3.167h-9.2v-3.167zm7.543-15.745h3.168v18.91h-3.168zM733.474 344.936v3.168h-17.432v-3.168zm-69.255 15.402h3.167v10.57h-3.168zM730.88 329.2h3.168v18.91h-3.167zm-44.875 21.758h3.168v18.91h-3.168zm-42.544 7.527v3.167h-16.8v-3.167zm34.086.497v3.168h-16.8v-3.168zM701.004 337.538h3.168v10.572h-3.168zM701.004 337.538h3.168v10.572h-3.168zM701.004 337.538h3.168v10.572h-3.168zm-75.794 22.31h3.167v10.572h-3.167zm24.584 0h3.167v10.572h-3.167zm-11.6 0h3.166v10.572h-3.167zM693.384 344.936v3.168h-14.2v-3.168zm-38.49 14.59v3.166h-9.003v-3.167z"/></g><g fill="#fff"><path d="M210.12 329.2h46.028v3.166H210.12zm-64.516 37.595h3.168v3.077h-3.168zm39.74.948v3.167h-9.2v-3.167zm7.543-15.745h3.168v18.91h-3.168zM279.54 344.936v3.168h-17.434v-3.168zm-99.26 15.402h3.167v10.57h-3.168zM276.945 329.2h3.168v18.91h-3.168zm-74.88 21.758h3.168v18.91h-3.168zm-42.544 7.527v3.167h-16.8v-3.167zm34.086.497v3.168h-16.8v-3.168zM247.07 337.538h3.166v10.572h-3.167zM247.07 337.538h3.166v10.572h-3.167zM247.07 337.538h3.166v10.572h-3.167zm-105.8 22.31h3.167v10.572h-3.167zm24.584 0h3.167v10.572h-3.167zm-11.6 0h3.166v10.572h-3.167zM239.448 344.936v3.168h-14.2v-3.168zm-68.494 14.59v3.166h-9.003v-3.167z"/></g><g fill="#fff"><path d="M285.854 329.2h46.028v3.166h-46.028zm-59.51 37.595h3.168v3.077h-3.168zm39.74.948v3.167h-9.2v-3.167zm7.543-15.745h3.168v18.91h-3.168zM355.273 344.936v3.168H337.84v-3.168zm-94.254 15.402h3.167v10.57h-3.168zM352.68 329.2h3.167v18.91h-3.168zm-69.875 21.758h3.168v18.91h-3.168zm-42.544 7.527v3.167h-16.8v-3.167zm34.086.497v3.168h-16.8v-3.168zM322.803 337.538h3.167v10.572h-3.167zM322.803 337.538h3.167v10.572h-3.167zM322.803 337.538h3.167v10.572h-3.167zM158.08 382.16h3.167v10.572h-3.167zm24.584 0h3.167v10.572h-3.167zm-11.6 0h3.166v10.572h-3.167zM315.183 344.936v3.168H300.98v-3.168zm-63.49 14.59v3.166h-9.002v-3.167z"/></g><path fill="#239f40" d="M-100.078 0H740.37v157.734h-840.448z"/><g fill="#fff"><path d="M362.03 329.2h46.027v3.166H362.03zm-54.476 37.595h3.168v3.077h-3.168zm39.74.948v3.167h-9.2v-3.167zm7.543-15.745h3.168v18.91h-3.168zM431.448 344.936v3.168h-17.433v-3.168zm-89.22 15.402h3.17v10.57h-3.17zM428.854 329.2h3.168v18.91h-3.168zm-64.84 21.758h3.17v18.91h-3.17zm-42.543 7.527v3.167h-16.8v-3.167zm34.086.497v3.168h-16.8v-3.168zM398.978 337.538h3.167v10.572h-3.167zM398.978 337.538h3.167v10.572h-3.167zM398.978 337.538h3.167v10.572h-3.167zm-95.758 22.31h3.167v10.572h-3.167zm24.584 0h3.167v10.572h-3.167zm-11.6 0h3.166v10.572h-3.167zM391.358 344.936v3.168h-14.202v-3.168zm-58.454 14.59v3.166H323.9v-3.167z"/></g><g fill="#fff"><path d="M437.754 329.2h46.027v3.166h-46.026zm-49.47 37.595h3.168v3.077h-3.168zm39.74.948v3.167h-9.2v-3.167zm7.543-15.745h3.168v18.91h-3.168zM507.172 344.936v3.168H489.74v-3.168zm-84.213 15.402h3.167v10.57h-3.168zM504.58 329.2h3.166v18.91h-3.167zm-59.835 21.758h3.168v18.91h-3.168zm-42.544 7.527v3.167h-16.8v-3.167zm34.086.497v3.168h-16.8v-3.168zM474.703 337.538h3.167v10.572h-3.167zM474.703 337.538h3.167v10.572h-3.167zM474.703 337.538h3.167v10.572h-3.167zm-90.753 22.31h3.167v10.572h-3.167zm24.584 0h3.167v10.572h-3.167zm-11.6 0h3.166v10.572h-3.167zM467.082 344.936v3.168h-14.2v-3.168zm-53.448 14.59v3.166h-9.003v-3.167z"/></g><g fill="#fff"><path d="M513.488 329.2h46.028v3.166h-46.028zm-44.464 37.595h3.168v3.077h-3.168zm39.74.948v3.167h-9.2v-3.167zm7.543-15.745h3.168v18.91h-3.168zM582.907 344.936v3.168h-17.433v-3.168zm-79.208 15.402h3.167v10.57H503.7zM580.313 329.2h3.168v18.91h-3.167zm-54.828 21.758h3.168v18.91h-3.168zm-42.544 7.527v3.167h-16.8v-3.167zm34.086.497v3.168h-16.8v-3.168zM550.437 337.538h3.167v10.572h-3.167zM550.437 337.538h3.167v10.572h-3.167zM550.437 337.538h3.167v10.572h-3.167zm-85.747 22.31h3.167v10.572h-3.167zm24.584 0h3.167v10.572h-3.167zm-11.6 0h3.166v10.572h-3.167zM542.816 344.936v3.168h-14.2v-3.168zm-48.442 14.59v3.166h-9.003v-3.167z"/></g><g fill="#fff"><path d="M589.663 329.2h46.028v3.166h-46.027zm-39.43 37.595h3.17v3.077h-3.17zm39.74.948v3.167h-9.2v-3.167zm7.544-15.745h3.168v18.91h-3.168zM659.082 344.936v3.168H641.65v-3.168zm-74.173 15.402h3.167v10.57h-3.168zM656.488 329.2h3.168v18.91h-3.168zm-49.793 21.758h3.168v18.91h-3.168zm-42.544 7.527v3.167h-16.8v-3.167zm34.086.497v3.168h-16.8v-3.168zM626.612 337.538h3.167v10.572h-3.168zM626.612 337.538h3.167v10.572h-3.168zM626.612 337.538h3.167v10.572h-3.168zm-80.712 22.31h3.167v10.572H545.9zm24.584 0h3.167v10.572h-3.167zm-11.6 0h3.166v10.572h-3.167zM618.99 344.936v3.168h-14.2v-3.168zm-43.406 14.59v3.166h-9.003v-3.167z"/></g><g fill="#fff"><path d="M-92.413 329.2h46.028v3.166h-46.028zm-84.513 37.595h3.168v3.077h-3.168zm39.74.948v3.167h-9.2v-3.167zm7.543-15.745h3.168v18.91h-3.168zM-22.995 344.936v3.168h-17.432v-3.168zm-119.256 15.402h3.167v10.57h-3.168zM-25.588 329.2h3.167v18.91h-3.168zm-94.877 21.758h3.168v18.91h-3.168zm-42.544 7.527v3.167h-16.8v-3.167zm34.086.497v3.168h-16.8v-3.168zM-55.464 337.538h3.167v10.572h-3.167zM-55.464 337.538h3.167v10.572h-3.167zM-55.464 337.538h3.167v10.572h-3.167zm-125.796 22.31h3.167v10.572h-3.167zm24.584 0h3.167v10.572h-3.167zm-11.6 0h3.166v10.572h-3.167zM-63.085 344.936v3.168h-14.2v-3.168zm-88.49 14.59v3.166h-9.004v-3.167z"/></g><g fill="#fff"><path d="M59.693 134.55h46.028v3.166H59.694zm-74.46 24.73h3.17v3.076h-3.17zm39.74.947v3.167h-9.2v-3.167zm7.544-15.745h3.168v18.91h-3.168zM129.112 150.286v3.168H111.68v-3.168zm-109.203 2.536h3.167v10.57H19.91zM126.518 134.55h3.168v18.91h-3.168zm-84.823 8.892h3.168v18.91h-3.168zm-42.544 7.527v3.166h-16.8v-3.167zm34.086.496v3.168h-16.8v-3.168zM96.642 142.888h3.167v10.572H96.64zM96.642 142.888h3.167v10.572H96.64zM96.642 142.888h3.167v10.572H96.64zm-115.742 9.445h3.167v10.57H-19.1zm24.584 0H8.65v10.57H5.485zm-11.6 0h3.166v10.57h-3.167zM89.02 150.286v3.168h-14.2v-3.168zm-78.436 1.723v3.166H1.58v-3.167z"/></g><g fill="#fff"><path d="M-15.91 134.55h46.028v3.166H-15.91zm-79.456 24.73h3.168v3.076h-3.168zm39.74.947v3.167h-9.2v-3.167zm7.543-15.745h3.168v18.91h-3.168zM53.51 150.286v3.168H36.075v-3.168zm-114.2 2.536h3.167v10.57h-3.168zM50.915 134.55h3.168v18.91h-3.168zm-89.82 8.892h3.168v18.91h-3.168zm-42.544 7.527v3.166h-16.8v-3.167zm34.086.496v3.168h-16.8v-3.168zM21.04 142.888h3.167v10.572H21.04zM21.04 142.888h3.167v10.572H21.04zM21.04 142.888h3.167v10.572H21.04zm-120.74 9.445h3.167v10.57H-99.7zm24.584 0h3.167v10.57h-3.167zm-11.6 0h3.166v10.57h-3.167zM13.42 150.286v3.168H-.784v-3.168zm-83.436 1.723v3.166h-9.003v-3.167z"/></g><g fill="#fff"><path d="M134.663 134.55h46.027v3.166h-46.027zm-69.504 24.73h3.166v3.076H65.16zm39.737.947v3.167h-9.2v-3.167zm7.545-15.745h3.168v18.91h-3.168zM204.08 150.286v3.168h-17.43v-3.168zm-104.247 2.536H103v10.57h-3.167zM201.488 134.55h3.167v18.91h-3.167zm-79.868 8.892h3.168v18.91h-3.168zm-42.544 7.527v3.166h-16.8v-3.167zm34.084.496v3.168h-16.8v-3.168zM171.61 142.888h3.168v10.572h-3.168zM171.61 142.888h3.168v10.572h-3.168zM171.61 142.888h3.168v10.572h-3.168zm-110.785 9.445h3.167v10.57h-3.167zm24.583 0h3.168v10.57h-3.168zm-11.6 0h3.167v10.57h-3.167zM163.99 150.286v3.168h-14.2v-3.168zm-73.482 1.723v3.166h-9.003v-3.167z"/></g><g fill="#fff"><path d="M664.056 134.55h46.027v3.166h-46.027zm-34.512 24.73h3.168v3.076h-3.168zm39.74.947v3.167h-9.2v-3.167zm7.543-15.745h3.168v18.91h-3.168zM733.474 150.286v3.168h-17.432v-3.168zm-69.255 2.536h3.167v10.57h-3.168zM730.88 134.55h3.168v18.91h-3.167zm-44.875 8.892h3.168v18.91h-3.168zm-42.544 7.527v3.166h-16.8v-3.167zm34.086.496v3.168h-16.8v-3.168zM701.004 142.888h3.168v10.572h-3.168zM701.004 142.888h3.168v10.572h-3.168zM701.004 142.888h3.168v10.572h-3.168zm-75.794 9.445h3.167v10.57h-3.167zm24.584 0h3.167v10.57h-3.167zm-11.6 0h3.166v10.57h-3.167zM693.384 150.286v3.168h-14.2v-3.168zm-38.49 1.723v3.166h-9.003v-3.167z"/></g><g fill="#fff"><path d="M210.12 134.55h46.028v3.166H210.12zm-64.516 24.73h3.168v3.076h-3.168zm39.74.947v3.167h-9.2v-3.167zm7.543-15.745h3.168v18.91h-3.168zM279.54 150.286v3.168h-17.434v-3.168zm-99.26 2.536h3.167v10.57h-3.168zM276.945 134.55h3.168v18.91h-3.168zm-74.88 8.892h3.168v18.91h-3.168zm-42.544 7.527v3.166h-16.8v-3.167zm34.086.496v3.168h-16.8v-3.168zM247.07 142.888h3.166v10.572h-3.167zM247.07 142.888h3.166v10.572h-3.167zM247.07 142.888h3.166v10.572h-3.167zm-105.8 9.445h3.167v10.57h-3.167zm24.584 0h3.167v10.57h-3.167zm-11.6 0h3.166v10.57h-3.167zM239.448 150.286v3.168h-14.2v-3.168zm-68.494 1.723v3.166h-9.003v-3.167z"/></g><g fill="#fff"><path d="M285.854 134.55h46.028v3.166h-46.028zm-59.51 24.73h3.168v3.076h-3.168zm39.74.947v3.167h-9.2v-3.167zm7.543-15.745h3.168v18.91h-3.168zM355.273 150.286v3.168H337.84v-3.168zm-94.254 2.536h3.167v10.57h-3.168zM352.68 134.55h3.167v18.91h-3.168zm-69.875 8.892h3.168v18.91h-3.168zm-42.544 7.527v3.166h-16.8v-3.167zm34.086.496v3.168h-16.8v-3.168zM322.803 142.888h3.167v10.572h-3.167zM322.803 142.888h3.167v10.572h-3.167zM322.803 142.888h3.167v10.572h-3.167zm-100.793 9.445h3.167v10.57h-3.167zm24.584 0h3.167v10.57h-3.167zm-11.6 0h3.166v10.57h-3.167zM315.183 150.286v3.168H300.98v-3.168zm-63.49 1.723v3.166h-9.002v-3.167z"/></g><g fill="#fff"><path d="M362.03 134.55h46.027v3.166H362.03zm-54.476 24.73h3.168v3.076h-3.168zm39.74.947v3.167h-9.2v-3.167zm7.543-15.745h3.168v18.91h-3.168zM431.448 150.286v3.168h-17.433v-3.168zm-89.22 2.536h3.17v10.57h-3.17zM428.854 134.55h3.168v18.91h-3.168zm-64.84 8.892h3.17v18.91h-3.17zm-42.543 7.527v3.166h-16.8v-3.167zm34.086.496v3.168h-16.8v-3.168zM398.978 142.888h3.167v10.572h-3.167zM398.978 142.888h3.167v10.572h-3.167zM398.978 142.888h3.167v10.572h-3.167zm-95.758 9.445h3.167v10.57h-3.167zm24.584 0h3.167v10.57h-3.167zm-11.6 0h3.166v10.57h-3.167zM391.358 150.286v3.168h-14.202v-3.168zm-58.454 1.723v3.166H323.9v-3.167z"/></g><g fill="#fff"><path d="M437.754 134.55h46.027v3.166h-46.026zm-49.47 24.73h3.168v3.076h-3.168zm39.74.947v3.167h-9.2v-3.167zm7.543-15.745h3.168v18.91h-3.168zM507.172 150.286v3.168H489.74v-3.168zm-84.213 2.536h3.167v10.57h-3.168zM504.58 134.55h3.166v18.91h-3.167zm-59.835 8.892h3.168v18.91h-3.168zm-42.544 7.527v3.166h-16.8v-3.167zm34.086.496v3.168h-16.8v-3.168zM474.703 142.888h3.167v10.572h-3.167zM474.703 142.888h3.167v10.572h-3.167zM474.703 142.888h3.167v10.572h-3.167zm-90.753 9.445h3.167v10.57h-3.167zm24.584 0h3.167v10.57h-3.167zm-11.6 0h3.166v10.57h-3.167zM467.082 150.286v3.168h-14.2v-3.168zm-53.448 1.723v3.166h-9.003v-3.167z"/></g><g fill="#fff"><path d="M513.488 134.55h46.028v3.166h-46.028zm-44.464 24.73h3.168v3.076h-3.168zm39.74.947v3.167h-9.2v-3.167zm7.543-15.745h3.168v18.91h-3.168zM582.907 150.286v3.168h-17.433v-3.168zm-79.208 2.536h3.167v10.57H503.7zM580.313 134.55h3.168v18.91h-3.167zm-54.828 8.892h3.168v18.91h-3.168zm-42.544 7.527v3.166h-16.8v-3.167zm34.086.496v3.168h-16.8v-3.168zM550.437 142.888h3.167v10.572h-3.167zM550.437 142.888h3.167v10.572h-3.167zM550.437 142.888h3.167v10.572h-3.167zm-85.747 9.445h3.167v10.57h-3.167zm24.584 0h3.167v10.57h-3.167zm-11.6 0h3.166v10.57h-3.167zM542.816 150.286v3.168h-14.2v-3.168zm-48.442 1.723v3.166h-9.003v-3.167z"/></g><g fill="#fff"><path d="M589.663 134.55h46.028v3.166h-46.027zm-39.43 24.73h3.17v3.076h-3.17zm39.74.947v3.167h-9.2v-3.167zm7.544-15.745h3.168v18.91h-3.168zM659.082 150.286v3.168H641.65v-3.168zm-74.173 2.536h3.167v10.57h-3.168zM656.488 134.55h3.168v18.91h-3.168zm-49.793 8.892h3.168v18.91h-3.168zm-42.544 7.527v3.166h-16.8v-3.167zm34.086.496v3.168h-16.8v-3.168zM626.612 142.888h3.167v10.572h-3.168zM626.612 142.888h3.167v10.572h-3.168zM626.612 142.888h3.167v10.572h-3.168zm-80.712 9.445h3.167v10.57H545.9zm24.584 0h3.167v10.57h-3.167zm-11.6 0h3.166v10.57h-3.167zM618.99 150.286v3.168h-14.2v-3.168zm-43.406 1.723v3.166h-9.003v-3.167z"/></g><g fill="#fff"><path d="M-92.413 134.55h46.028v3.166h-46.028zm-84.513 24.73h3.168v3.076h-3.168zm39.74.947v3.167h-9.2v-3.167zm7.543-15.745h3.168v18.91h-3.168zM-22.995 150.286v3.168h-17.432v-3.168zm-119.256 2.536h3.167v10.57h-3.168zM-25.588 134.55h3.167v18.91h-3.168zm-94.877 8.892h3.168v18.91h-3.168zm-42.544 7.527v3.166h-16.8v-3.167zm34.086.496v3.168h-16.8v-3.168zM-55.464 142.888h3.167v10.572h-3.167zM-55.464 142.888h3.167v10.572h-3.167zM-55.464 142.888h3.167v10.572h-3.167zm-125.796 9.445h3.167v10.57h-3.167zm24.584 0h3.167v10.57h-3.167zm-11.6 0h3.166v10.57h-3.167zM-63.085 150.286v3.168h-14.2v-3.168zm-88.49 1.723v3.166h-9.004v-3.167z"/></g><path d="M15.417 318.458h5.673v9.853h-5.673zm66.332 21.05h5.672v9.853H81.75zm-256.163 0h5.673v9.853h-5.673zm58.834 0h5.674v9.853h-5.673zm80.932 0h5.673v9.853h-5.673zm42.558 0h5.673v9.853H7.91zm40.81 0h5.672v9.853H48.72zm78.018 0h5.673v9.853h-5.672zm195.456 0h5.673v9.853h-5.673zm-139.552 0h5.673v9.853h-5.673zm27.497 0h5.672v9.853h-5.673zm40.412 0h5.673v9.853h-5.673zm40.447 0h5.672v9.853H291zm305.615 0h5.672v9.853h-5.673zm-207.59 0h5.674v9.853h-5.674zm23.282 0h5.674v9.853h-5.673zm41.257 0h5.674v9.853h-5.674zm38.932 0h5.674v9.853h-5.674zm41.12 0h5.672v9.853h-5.673zm40.498 0h5.673v9.853h-5.673zm114.762 0h5.673v9.853h-5.674zm-28.954 0h5.673v9.853h-5.673zm-761.16 0h5.673v9.853h-5.673z" fill="#d90000"/><path d="M15.417 152.525h5.673v9.854h-5.673zm66.332 10.082h5.672v9.854H81.75zm-256.163 0h5.673v9.854h-5.673zm58.834 0h5.674v9.854h-5.673zm80.932 0h5.673v9.854h-5.673zm42.558 0h5.673v9.854H7.91zm40.81 0h5.672v9.854H48.72zm78.018 0h5.673v9.854h-5.672zm195.456 0h5.673v9.854h-5.673zm-139.552 0h5.673v9.854h-5.673zm27.497 0h5.672v9.854h-5.673zm40.412 0h5.673v9.854h-5.673zm40.447 0h5.672v9.854H291zm305.615 0h5.672v9.854h-5.673zm-207.59 0h5.674v9.854h-5.674zm23.282 0h5.674v9.854h-5.673zm41.257 0h5.674v9.854h-5.674zm38.932 0h5.674v9.854h-5.674zm41.12 0h5.672v9.854h-5.673zm40.498 0h5.673v9.854h-5.673zm114.762 0h5.673v9.854h-5.674zm-28.954 0h5.673v9.854h-5.673zm-761.16 0h5.673v9.854h-5.673z" fill="#239e3f"/><g fill="#da0000"><path d="M342.432 185.245c7.93 9.717 32.372 63.457-14.754 98.66-22.156 16.673-8.437 17.516-7.782 20.318 35.612-18.916 47.243-44.545 46.973-67.504-.273-22.96-12.444-43.244-24.438-51.472zM347.147 182.747c17.587 9.005 55.86 54.29 14.665 105.378 25.597-5.68 58.138-81.06-14.665-105.378zm-116.332 12.08c-17.587 9.004-55.86 54.29-14.666 105.378-25.597-5.68-58.138-81.06 14.665-105.38zM297.784 185.245c-7.93 9.717-32.373 63.457 14.754 98.66 22.154 16.673 8.436 17.516 7.78 20.318-35.61-18.916-47.242-44.545-46.972-67.504.27-22.96 12.442-43.244 24.437-51.472zM365.318 299.326c-13.94.22-31.51-1.92-44.542-8.692 2.146 4.174 3.93 6.802 6.075 10.975 12.43 1.145 29.58 2.564 38.47-2.284zm-150.205 19.785c13.94.222 31.51-1.92 44.543-8.69-2.147 4.173-3.93 6.8-6.076 10.974-12.43 1.146-29.58 2.565-38.468-2.283zm19.68-130.113c2.823 7.506 10.233 8.597 18.163 4.178 5.78 3.468 14.718 3.686 17.8-3.815 2.344 18.558-17.17 14.168-17.897 10.535-7.266 7.023-20.792 2.967-18.067-10.898zM320.485 311.012l7.33-8.377 1.046-112.727-8.724-7.677-8.723 7.33 1.743 113.422 7.33 8.028z"/></g></g></svg>