<svg xmlns="http://www.w3.org/2000/svg" height="480" width="640" viewBox="0 0 640 480"><defs><clipPath id="a"><path fill-opacity=".67" d="M-84.95 0h682.67v512H-84.95z"/></clipPath></defs><g clip-path="url(#a)" fill-rule="evenodd"><path fill="#be0027" d="M-40.424 0h721.106v480.256H-40.424z"/><path d="M178.552 244.95c12.81-15.58 39.35-.375 61.012-11.593-25.66 1.41-39.65-12.315-59.923-10.392 21.008-12.904 38.892 4.22 62.38-2.663-31.11-2.617-29.76-16.522-58.047-18.497 25.127-10.718 37.554 11.022 62.167 6.077-29.01-6.697-32.873-23.784-54.44-27.4 31.523-4.76 29.468 13.876 60.373 16.152-31.368-13.456-23.147-25.136-49.38-35.384 29.355-.694 27.41 19.65 57.15 24.988-25.46-16.152-22.315-30.893-43.287-42.428 24.88.45 27.31 25.916 52.7 33.806-22.65-17.972-16.693-33.124-36.266-49.173 24.747 5.804 21.144 27.774 46.918 41.79-19.1-21.213-11.772-36.4-28.435-53.764 23.8 7.664 14.76 28.544 39.457 48.395-14.158-23.314-5.417-38.183-19.35-57.853 22.098 11.41 11.398 32.71 31.914 53.99-9.657-23.927.014-38.79-9.856-59.978 18.903 14.124 7.66 36.885 22.908 58.6-5.56-29.942 7.355-34.866 3.336-61.087 14.357 17.625-1.69 35.25 9.333 61.214-1.342-29.524 14.345-36.39 11.625-60.094 14.23 21.24-7.98 39.727 1.31 62.475 2.4-28.01 20.808-35.265 21.094-57.063 11.193 20.01-13.236 34.4-9.27 60.928 8.038-29.262 27.648-32.878 29.962-52.55 6.786 23.147-19.947 33.907-18.383 59.562 7.962-26.016 32.473-29.067 37.484-48.284 3.093 24.488-21.01 28.836-27.798 55.89 12.674-22.08 34.84-23.89 44.82-41.356-.783 24.216-27.994 27.39-36.346 50.064 15.688-19.237 35.354-15.898 51.042-32.955-1.656 21.854-29.353 20.62-44.095 43.245 17.013-15.694 42.62-10.99 55.653-24.505-.633 19.33-34.62 17.877-50.65 35.155 19.77-10.83 44.797-4.468 59.306-14.527-2.65 16.948-38.53 12.987-55.676 26.214 23.647-6.552 41.907 3.574 61.065-3.748-9.325 16.496-41.868 6.054-59.145 16.778 20.523-3.475 42.328 8.958 61.055 4.97-6.155 14.258-41.816-.862-61.055 8.008 22.99-.202 37.898 14.477 59.22 13.507-11.597 12.91-42.95-4.843-61.217-1.81 22.287 4.61 39.313 23.075 56.21 23.965-13.866 10.648-39.792-13.6-60.84-10.52 21.67 5.8 39.88 30.458 52.315 31-13.4 9.156-39.88-21.072-58.025-19.998 22.038 9.96 32.146 35.19 46.616 38.735-17.915 5.748-35.52-27.405-54.77-28.554 22.297 14.064 23.557 35.568 40.725 45.14-18.064 4.417-30.92-32.986-49.958-36.142 18.282 13.44 21.038 42.145 33.16 51.222-18.392.972-25.038-38.19-43.887-43.784 16.15 13.49 12.282 42.754 24.838 55.214-19.16-3.93-16.69-38.025-36.692-49.506 14.37 18.122 7.06 43.942 16.427 58.472-18.638-7.54-10.543-38.053-28.337-55.333 9.706 19.306-.726 41.822 6.93 60.488-17.03-8.304-5.576-44.445-18.626-58.78 6 22.312-5.065 40.775-.606 60.777-17.408-20.19 2.642-40.51-12.457-61.087 4.01 23.616-12.51 40.05-9.91 59.817-13.805-16.124 7.414-41.998-3.31-62.356 2.31 23.22-19.02 43.562-17.555 58.185-11.236-18.73 12.473-40.88 6.125-62.176-1.337 22.11-22.86 34.125-26.912 54.268-7.235-22.22 18.35-38.282 16.142-60.117-7.327 20.772-28.123 29.1-35.45 49.23-6-22.157 24.307-33.923 25.108-57.235-9.367 21.862-34.257 26.663-42.472 43.395-3.067-22.043 31.712-31.898 33.006-52.786-11.196 20.057-38.43 20.87-47.83 36.82-1.425-21.964 35.252-24.684 41.01-47.673-11.145 17.145-41.023 14.92-53.453 28.86 1.96-20.375 41.635-21.636 47.958-39.96-14.748 14.23-42.175 8.333-57.618 19.618 8.595-20.013 45.81-15.77 54.224-30.267-16.475 8.597-45.662.264-60.03 8.86 13.058-18.953 42.026-7.63 58.42-20.683-26.666 3.886-42.685-6.726-61.14-1.813zM413.51 240.232c0 51.403-41.67 93.07-93.07 93.07-51.403 0-93.07-41.668-93.07-93.07 0-51.402 41.67-93.07 93.07-93.07 51.402 0 93.07 41.67 93.07 93.07z" fill="#ff0"/><path d="M401.533 240.416c0 44.69-36.228 80.917-80.916 80.917-44.69 0-80.916-36.228-80.916-80.917s36.23-80.916 80.917-80.916c44.69 0 80.916 36.228 80.916 80.916z" fill="#be0027"/><path d="M390.264 240.585c0 38.374-31.108 69.482-69.48 69.482-38.376 0-69.483-31.11-69.483-69.482 0-38.374 31.11-69.483 69.483-69.483 38.373 0 69.48 31.11 69.48 69.483z" fill="#ff0"/><path d="M261.65 195.057c19.23-.423 43.178 1.33 58.96 13.97 16.753-10.463 36.588-15.3 56.788-13.426l10.34 18.87c-14.996-1.514-29.63.605-46.988 7.62 22.134 17.536 33.2 40.155 32.476 67.67-2.54 3.145-6.532 6.652-9.07 9.796 3.687-26.73-10.403-56.542-30.843-72.205 16.63 24.01 26.55 45.66 23.768 75.472-2.963 1.754-6.47 4.233-9.434 5.987 4.353-26.307-1.813-57.15-21.227-75.11 11.187 16.45 22.375 45.96 15.42 76.015-3.024.908-7.68 3.448-10.703 4.356 7.8-24.612 2.9-55.394-10.16-73.838-12.942 18.567-17.176 46.927-9.798 73.113-3.63-.907-6.352-1.996-9.98-2.903-5.32-28.18 2.058-59.99 14.878-76.56-13.062 7.56-25.4 39.973-21.953 73.114-3.144-1.45-5.564-2.54-8.707-3.992-4.234-24.734 6.953-56.905 23.04-75.47-18.263 11.49-33.08 39.67-30.48 70.028-2.78-2.48-5.382-3.688-8.163-6.168-3.205-26.49 12.094-53.156 30.115-69.122-15.178-6.774-28.18-8.104-46.988-7.802 2.963-6.108 5.745-13.304 8.708-19.412z" fill="#be0027"/></g></svg>