<svg xmlns="http://www.w3.org/2000/svg" height="480" width="640" viewBox="0 0 640 480"><defs><clipPath id="a"><path fill-opacity=".67" d="M-86.325 0h682.67v512h-682.67z"/></clipPath></defs><g clip-path="url(#a)"><path fill-rule="evenodd" fill="#e73e2d" d="M-73.165 0h783.97v287.488h-783.97z"/><path d="M272.563 264.62c-18.23-14.234-52.183-9.42-57.777-48.107 26 20.138 21.28-1.15 60.11 18.037l-2.333 30.07zM277.413 247.022c-12.993-19.133-46.79-24.952-40.26-63.493 18.578 27.134 20.608 5.423 51.69 35.583l-11.43 27.91zM283.322 234.51c-4.69-22.65-33.695-40.947-12.927-74.063 6.793 32.176 16.97 12.89 34.16 52.644l-21.234 21.42zM296.97 222.878c2.49-22.994-19.497-49.312 10.434-74.455-3.413 32.71 12.192 17.478 16.35 60.59l-26.783 13.865zM309.108 213.554c11.685-19.96 2.4-52.972 40.002-63.656-16.505 28.444 3.968 20.937-9.89 61.972l-30.112 1.684zM326.752 216.012c17.408-15.227 19.066-49.48 58.115-47.696-24.67 21.745-2.872 21.115-29.02 55.643l-29.095-7.947zM342.23 224.998c21.11-9.447 32.748-41.706 69.553-28.54-29.965 13.55-8.943 19.343-44.074 44.676l-25.48-16.136zM355.286 239.124c22.916-3.123 43.165-30.8 74.775-7.807-32.566 4.566-14.025 16.044-54.866 30.463l-19.908-22.656zM436.863 243.505l-105.112 2.307 4.414 28.322 100.704-30.63zM421.424 204.87l-97.402 37.386 16.308 31.304 81.098-68.69zM344.114 263.268l50.39-91.492-77.296 71.95 26.905 19.542zM343.063 255.727l16.198-102.683-50.474 91.253 34.277 11.432zM337.013 247.388l-16.916-103.414-18.75 103.864 35.667-.452zM328.262 238.524l-49.05-86.364 18.85 104.98 30.2-18.613zM320.645 237.877l-76.072-64.234 54.09 91.927 21.983-27.693zM217.83 205.32l81.672 67.433 12.557-35.275-94.233-32.16zM298.64 244.677l-95.967-1.35 95.563 31.903.403-30.553zM376.513 261.912c0 31.795-25.774 57.57-57.568 57.57s-57.568-25.775-57.568-57.57 25.774-57.57 57.568-57.57 57.568 25.776 57.568 57.57z" fill-rule="evenodd" stroke="#d8aa3f" stroke-width="1.5617699999999999" fill="#fec74a"/><path fill-rule="evenodd" fill="#005989" d="M-73.953 284.59h787.827v195.666H-73.953z"/><path d="M-74.403 425.852c14.65 6.78 35.636 23.75 58.083 23.734 37.56-.244 38.56-25.724 76.606-24.513 38.145.97 31.245 27.797 82.754 27.663 42.556-.112 56.304-32.516 92.987-28.633 27.168-1.398 38.287 30.685 80.044 31.092 43.31.926 59.213-34.968 86.38-31.997 28.944 0 38.425 28.91 79.03 29.12 51.718.26 60.81-30.09 93.165-28.15 23.028-.485 41.188 22.245 74.934 22.81 26.927.46 49.47-19.898 64.698-27.177l.753-34.543c-15.96 5.935-39.757 25.395-63.554 25.61-34.246 1.252-55.43-22.463-79.227-22.25-28.514.257-39.876 29.345-88.245 29.345-44.19 0-54.327-29.344-82.84-29.344-27.87.214-36.408 31.916-84.657 31.33-39.36-.474-54.695-30.262-82.566-30.05-29.547 0-60.1 28.968-92.816 27.57-45.155-1.91-54.91-27.57-84.458-27.57-22.083 0-45.914 24.047-72.517 24.448-26.455.407-56.177-23.927-58.93-24.447l.377 35.953zm-91.197-40.26c14.65 6.78 35.636 23.75 58.083 23.734 37.56-.244 38.56-25.725 76.605-24.513 38.146.97 31.246 27.797 82.754 27.663 42.557-.112 56.305-32.516 92.988-28.634 27.167-1.397 38.287 30.686 80.043 31.093 43.31.926 59.213-34.97 86.38-31.997 28.944 0 38.425 28.91 79.03 29.118 51.718.26 60.81-30.09 93.165-28.147 23.028-.487 41.188 22.243 74.934 22.808 26.927.46 49.47-19.898 64.7-27.177l.752-34.543c-15.96 5.935-39.758 25.394-63.555 25.608-34.248 1.253-55.43-22.46-79.228-22.247-28.513.256-39.875 29.344-88.244 29.344-44.19 0-54.327-29.344-82.84-29.344-27.87.214-36.41 31.916-84.657 31.33-39.358-.475-54.694-30.263-82.565-30.05-29.547 0-60.1 28.967-92.816 27.57-45.156-1.91-54.913-27.57-84.46-27.57-22.082 0-45.913 24.047-72.516 24.447-26.457.407-56.178-23.926-58.93-24.446l.376 35.953zM-74.403 289.767c14.636 6.78 35.602 23.75 58.03 23.734 37.523-.243 38.523-25.723 76.534-24.512 38.11.97 31.217 27.797 82.677 27.663 42.517-.11 56.252-32.515 92.9-28.632 27.143-1.398 38.252 30.685 79.97 31.092 43.27.926 59.157-34.968 86.3-31.997 28.915 0 38.388 28.91 78.955 29.12 51.67.26 60.753-30.09 93.077-28.15 23.007-.485 41.15 22.245 74.864 22.81 26.902.46 49.424-19.898 64.64-27.177l.75-34.544c-15.945 5.935-39.72 25.395-63.495 25.61-34.215 1.252-55.38-22.463-79.154-22.25-28.486.257-39.838 29.345-88.16 29.345-44.148 0-54.278-29.344-82.765-29.344-27.842.214-36.373 31.916-84.577 31.33-39.322-.474-54.643-30.263-82.49-30.05-29.518 0-60.042 28.968-92.73 27.57-45.112-1.91-54.858-27.57-84.378-27.57-22.062 0-45.87 24.047-72.448 24.448-26.405.413-56.102-23.918-58.85-24.444l.376 35.954z" fill-rule="evenodd" fill="#fff"/><path d="M209.258 71.247c57.263-3.92 46.826-8.812 69.874-12.49 29.044 3.992 32.366 21.577 48.55 32.365 0 0-6.084 20.567-25.99 17.655-2.675-8.25 9.637-10.8-25.79-32.398-20.598-1.227-57.454 3.614-66.644-5.134zm105.078 36.54l-41.252 1.697v10.192c27.824.89 32.84-2.83 41.252-11.89z" fill-rule="evenodd" stroke="#d8aa3f" stroke-width="1.6658879999999998" fill="#ffc84b"/><path stroke-linejoin="round" d="M244.93 101.37c7.19-3.677 10.765-2.177 16.995-2.42 4.286 7.765 8.33 8.493 17.714 9.465 14.315 20.14 34.456 20.383 37.368 20.383 28.067-.73 36.965-20.383 55.812-22.57h19.898c-3.315-5.66-5.904-8.896-13.103-9.22-14.803-.81-33.972-.403-50.715 3.397l-23.538 5.825c-6.876-3.316-23.7-20.95-34.458-20.626-6.31 1.698-6.31 3.882-9.463 6.31-6.065 2.588-12.133 1.347-16.51 9.454z" fill-rule="evenodd" stroke="#d8aa3f" stroke-width="1.5617699999999999" fill="#ffc84b"/><path d="M205.104 98.914a3.174 3.174 0 1 1-6.348 0 3.174 3.174 0 0 1 6.348 0z" fill-rule="evenodd" stroke="#d8aa3f" stroke-width="1.665" fill="#ffc84b" transform="translate(80.93) scale(.938)"/><path d="M292.505 101.135C334.647 50.34 371.45 56.567 419.417 53.09c1.618 5.904 1.052 14.72-21.84 22.566-31.302 4.61-87.357 37.61-87.6 37.61-10.435-.484-17.714-11.403-17.47-12.132z" fill-rule="evenodd" stroke="#d8aa3f" stroke-width="1.6658879999999998" fill="#ffc84b"/><path d="M379.092 68.04l31.08 1.346m-34.466 3.724l22.654 1.847" stroke="#d9a43e" stroke-linecap="round" stroke-width="1.6658879999999998" fill="none"/></g></svg>