<svg xmlns="http://www.w3.org/2000/svg" height="480" width="640" viewBox="0 0 640 480"><defs><clipPath id="a"><path fill-opacity=".67" d="M0 0h682.67v512H0z"/></clipPath></defs><g clip-path="url(#a)" fill-rule="evenodd"><path fill="#ff0" d="M0 0h720.722v120H0z"/><path fill="#fff" d="M0 120h720.722v120H0z"/><path fill="#be0027" d="M0 240h720.722v120H0z"/><path fill="#3b5aa3" d="M0 360h720.722v120H0z"/><path d="M0 0v480l357.994-239.325L0 0z" fill="#239e46"/><path d="M147.384 132.59C67.606 128.55 31.256 192.095 31.34 241.22c-.18 58.096 54.872 106.01 105.76 103.114-27.44-12.975-60.945-49.368-61.253-103.36-.282-48.918 27.653-91.452 71.537-108.383zM146.182 184.742l-11.243-8.8-13.63 4.29 4.888-13.42-8.28-11.635 14.276.495 8.498-11.473 3.933 13.732 13.55 4.543-11.855 7.992zm9.506 61.125l-11.243-8.798-13.63 4.29 4.89-13.424-8.28-11.634 14.275.495 8.5-11.473 3.93 13.733 13.55 4.543-11.854 7.992zm.223 52.545l-11.24-8.8-13.632 4.29 4.89-13.42-8.28-11.635 14.276.495 8.498-11.474 3.933 13.734 13.55 4.543-11.855 7.992zm-.222 53.05l-11.243-8.8-13.63 4.29 4.89-13.422-8.28-11.634 14.275.495 8.5-11.474 3.93 13.735 13.55 4.544-11.854 7.99z" fill="#fff"/></g></svg>