<svg xmlns="http://www.w3.org/2000/svg" height="480" width="640" viewBox="0 0 640 480"><defs><clipPath id="a"><path fill-opacity=".67" d="M-80.11 0h682.67v512H-80.11z"/></clipPath></defs><g fill-rule="evenodd" clip-path="url(#a)"><path fill="#ffe900" d="M-26.06.224h691.914v479.59H-26.06z"/><path d="M-26.427.224l.807 345.728L512.773 0l-539.2.222z" fill="#35a100"/><path d="M666.69 479.815l-1.264-359.488-543.084 359.76 544.35-.265z" fill="#c70000"/><path d="M-26.08 372.02l.46 108.236 117.484-.15 573.83-384.71-.646-94.102L548.96.224-26.08 372.02z"/><path fill="#fff" d="M431.97 146.91l-9.3-39.626 31.286 25.396 35.658-23.108-16.356 38.75 31.333 25.345-41.395-1.446-16.293 38.772-9.225-39.645-41.402-1.388zM70.76 334.148l-9.298-39.626 31.286 25.396L179.92 287.1l-16.356 38.75 31.333 25.345-41.396-1.445-16.292 38.77-9.225-39.645-41.402-1.388z"/></g></svg>