<svg xmlns="http://www.w3.org/2000/svg" height="480" width="640" viewBox="0 0 640 480"><defs><clipPath id="a"><path fill-opacity=".67" d="M5.077.1h682.53V512H5.077z"/></clipPath></defs><g fill-rule="evenodd" clip-path="url(#a)"><path stroke="#000" stroke-width="0.951132" fill="#fff" d="M723.07 479.712H-75.973V.442H723.07z"/><path fill="#3e5698" d="M723.07 392.994H-75.973v86.724H723.07z"/><path fill="#c60000" d="M723.07 372.902H-75.973v-265.65H723.07z"/><path fill="#3e5698" d="M723.07.446H-75.973V87.17H723.07z"/><path d="M303.39 240.1c0 59.516-49.816 107.763-111.266 107.763S80.86 299.615 80.86 240.1c0-59.516 49.816-107.762 111.264-107.762 61.45 0 111.265 48.246 111.265 107.762z" fill="#fff"/><path fill="#c40000" d="M160.168 253.698l-53.523-38.1 66.65-.27 21.233-62.253 19.852 62.046 66.652-.38-54.384 38.623 19.956 62.018-53.464-38.172-54.318 38.706z"/></g></svg>