<svg xmlns="http://www.w3.org/2000/svg" height="480" width="640" viewBox="0 0 640 480"><defs><clipPath id="a"><path fill-opacity=".67" d="M-95.808-.44h682.67v512h-682.67z"/></clipPath></defs><g fill-rule="evenodd" clip-path="url(#a)"><path fill="#fff" d="M662.572 480.255h-684.9V0h684.9zM326.075 240.56c0 58.284-47.25 105.532-105.532 105.532-58.284 0-105.53-47.25-105.53-105.532 0-58.285 47.247-105.532 105.53-105.532 58.285 0 105.532 47.25 105.532 105.532z"/><path d="M458.464 246.684c0 76.052-61.002 137.7-136.255 137.7s-136.256-61.647-136.256-137.7 61.002-137.702 136.255-137.702 136.253 61.65 136.253 137.702z" fill="#c70000"/><path d="M43.467 119.013l78.473-90.77 18.592 16.072-78.473 90.77zm-67.184 29.645l78.473-90.77L73.348 73.96l-78.474 90.77zM43.467 119.013l78.473-90.77 18.592 16.072-78.473 90.77zM43.467 119.013l78.473-90.77 18.592 16.072-78.473 90.77zm-40.934 52.338l78.473-90.77 18.59 16.075-78.472 90.77zM43.467 119.013l78.473-90.77 18.592 16.072-78.473 90.77zM43.467 119.013l78.473-90.77 18.592 16.072-78.473 90.77zm384.4-83.373l77.854 91.3-18.7 15.946-77.855-91.3zm-20.706 38.556l77.857 91.3-18.7 15.946-77.856-91.3z"/><path d="M481.482 125.344l73.73-63.61 13.732 15.903-78.788 70.836-8.674-23.13z" fill="#fff"/><path d="M572.166 349.36l-75.43 89.888-18.494-15.383 75.43-89.887zM379.022 95.563l77.856 91.3-18.7 15.946-77.856-91.3zm97.718 300.59l-75.43 89.888-18.493-15.382 75.43-89.887zm-44.873-21.802l-75.43 89.888-18.494-15.383 75.432-89.887z"/><path d="M187.935 222.418c4.307 34.68 10.596 73.328 63.97 77.343 20.006 1.2 58.923-4.76 72.284-59.272 17.528-52.367 70.325-67.423 106.255-39.033 20.372 13.288 26.008 34.393 27.468 50.237-1.63 50.88-30.836 94.925-68.308 114.567-43.083 25.607-102.767 26.14-155.052-12.654-23.562-22.11-56.485-62.865-46.618-131.19z" fill="#3d5897"/><path d="M498.704 348.025l73.852 63.466-13.686 15.945-81.753-67.397 21.587-12.013z" fill="#fff"/><path d="M88.05 335.463l77.856 91.3-18.7 15.946-77.857-91.3z"/><path d="M74.636 410.552l73.728-63.61 13.734 15.903-78.79 70.837-8.672-23.13z" fill="#fff"/><path d="M113.9 313.42l77.857 91.298-18.7 15.946-77.857-91.3zm-140.48 64.834l77.857 91.3-18.7 15.945-77.857-91.3z"/></g></svg>