<svg xmlns="http://www.w3.org/2000/svg" height="480" width="640" viewBox="0 0 640 480"><path fill="#006" d="M0 0h640v480H0z"/><path fill-rule="evenodd" fill="#006" d="M0 0h400v200H0z"/><path fill="#fff" d="M0 0v27.09l334.41 215.208h42.095v-27.09L42.093.002H0zm376.505 0v27.09L42.093 242.296H0v-27.09L334.41 0h42.095zM156.877 0v242.297h62.75V0h-62.75zM0 80.766v80.765h376.505V80.767H0z"/><path fill="#c00" d="M0 96.92v48.46h376.505V96.92H0zM169.427 0v242.297h37.65V0h-37.65zM0 242.297l125.502-80.766h28.062L28.062 242.298H0zM0 0l125.502 80.766H97.44L0 18.06V0zm222.94 80.766L348.444 0h28.062L251.003 80.766H222.94zm153.565 161.53L251.003 161.53h28.062l97.44 62.708v18.06z"/><path d="M448.33 179.14c-1.01.61-3.028 2.44-5.048 1.83-2.02-.61-6.562-8.54-11.61-7.32-5.05 1.22-8.078 3.05-10.097 3.05-2.02 0-7.573 1.83-7.573 6.712s.505 8.543 1.515 8.543c1.01 0 2.524-3.05 2.524-3.05s.506 6.1 4.04 6.1 11.106.61 11.61 2.442c.506 1.83-3.533 6.102-2.523 9.763 1.01 3.66 5.553 9.763 5.553 9.763s-6.563 4.88-6.563 7.933 1.01 6.102 1.01 6.102l-29.28 1.22s-2.02 86.647-1.01 93.36c1.01 6.71 3.533 23.186 3.533 23.186s-6.562-2.134-12.116 3.358c-5.553 5.493-24.988 14.948-25.493 19.22-.504 4.27-2.27 7.933-.25 10.983 2.018 3.05 9.123 11.34 7.066 10.985-6.777-1.17-9.3-10.798-13.882-14.34-4.504-3.476-13.378-2.745-14.387.914-1.01 3.662-.505 9.763 0 10.984.504 1.22 6.057 20.747 7.572 25.018s17.415 10.677 24.483 10.068c13.377.304 19.435-5.796 19.94-5.184.505.608 28.78 29.768 86.83 29.898 45.188.1 79.258-29.29 79.258-28.678 0 .61 18.68 6.1 25.242 4.272 6.563-1.834 16.155-6.105 18.174-10.376 2.02-4.27 7.573-26.24 8.078-29.897.505-3.664 0-7.935-4.544-9.156s-7.067-.916-9.59.304-3.283 4.58-7.07 10.68c-2.018 1.833-7.32 6.713-5.804 5.492s4.795-10.372 5.3-13.426c.505-3.05 2.02-8.542-1.514-11.593-3.534-3.05-8.947-4.296-15.145-8.845-5.886-4.034-10.6-10.68-14.135-10.68-3.534 0-7.573-1.83-7.068-1.83.505 0 4.552-8.864 3.542-18.015-1.01-9.155.496-96.7-.008-96.7-.505 0-25.242 1.83-25.242.61s2.02-9.763 0-15.255c-2.02-5.49-10.6-9.153-8.077-10.373 2.523-1.22 13.63-4.27 13.124-9.153-.505-4.883-7.572-4.272-10.6-6.103-3.03-1.83-12.117-10.373-13.127-10.373-1.01 0 26.25-16.475 24.232-16.475-2.02 0-12.62-3.05-16.155-1.22 0-3.052 14.64-12.205 12.116-13.426-2.523-1.22-14.135-2.44-11.106-3.05 3.03-.61 4.04-7.933 3.534-7.933-.505 0-13.125 1.83-13.125 1.83s-3.03-4.27-4.04-4.27c-1.01 0-5.552 2.44-5.552 2.44l-2.523-6.71-5.553 3.66-2.524-3.05s-4.544 1.22-4.544 0c.19-.045-.523-3.065-1.236-3.065-.715 0-5.712 3.883-5.89 3.667-.18-.215-5.712-7.982-5.712-7.766 0 .216-3.927 14.67-4.105 14.67-.178 0-3.927.43-4.105.647-.18.216-19.99-11.434-19.81-11.218.177.216 5.174 11.218 5.174 11.218s-4.283 2.373-4.283 2.59c0 .215.713 4.96.713 4.96l-13.21-4.53s4.998 10.14 4.64 10.14c-.356 0-9.816.43-9.637.43.178 0 4.462 8.414 4.462 8.414l-1.606 4.962s14.217 10.032 13.207 10.643zm84.307 212.348c1.262 1.83 8.077 10.372 7.067 10.372-1.01 0-17.92 11.29-24.737 13.426-6.815 2.134-29.027 6.1-27.765 5.796 1.262-.304 19.946-10.535 27.52-15.414 7.57-4.88 17.914-13.57 17.914-14.18zm-105.513-.308c-1.01 1.22-5.806 10.68-5.806 10.68s13.883 9.763 24.232 13.425c10.35 3.66 28.018 4.88 27.008 4.575-1.01-.304-22.212-9.763-28.27-14.643-6.058-4.883-16.912-14.038-17.165-14.038z" fill-rule="evenodd" fill="#fff"/><g fill-rule="evenodd" stroke="#6d6666" fill="#fec500"><path d="M438.212 165.228s8.834 6.407 10.853 7.932 8.582 8.238 9.087 7.933c.505-.305 4.038-3.66 4.038-3.66s-7.32-7.018-11.863-8.544-12.115-3.052-12.115-3.662zM436.95 158.21c.757 0 14.64 8.544 18.93 12.815s6.058 9.763 6.563 9.763c.505 0 7.068-1.22 6.815-1.22-.252 0-3.03-10.983-9.34-14.34-6.31-3.356-22.716-7.017-22.968-7.017zM502.322 136.14c-.252 0-2.776 9.153-3.534 11.898-.757 2.746-2.02 8.543-2.02 8.543s-11.105 1.22-10.6-.304c.505-1.526 16.91-20.136 16.154-20.136zM439.473 147.227s13.126 10.678 17.67 16.78c4.542 6.102 9.086 16.78 9.338 16.78.254 0 12.37-3.05 12.37-2.746s-14.136-17.084-20.95-22.27-18.174-7.933-18.427-8.543zM453.104 144.378s6.563 12.203 7.825 16.475c1.26 4.27 5.047 15.255 5.047 15.255h10.35s-5.05-13.73-10.602-20.442-12.37-10.678-12.62-11.288zM456.635 137.665c.252.915 9.59 11.593 11.863 18.61 2.272 7.018 4.04 15.866 4.04 15.866l9.085-2.745s-8.077-18-13.125-22.883c-5.048-4.88-11.358-8.237-11.863-8.847zM532.107 166.45s-18.93 2.44-25.745 4.575-10.6 10.07-10.6 10.07 8.833 3.965 9.338 3.355 5.805-7.017 11.61-9.458c5.806-2.44 15.902-8.238 15.397-8.543zM531.35 151.498c-.506.306-15.65 15.255-20.446 20.136-4.796 4.882-9.34 10.07-9.844 10.374-.505.305-9.844-1.526-9.34-2.136.506-.61 13.883-13.73 22.718-19.526 8.834-5.797 16.154-8.237 16.91-8.848zM527.564 140.818c-1.515 2.136-16.407 16.78-20.445 21.967s-10.602 14.34-10.602 14.34-7.825-4.272-7.32-6.102c.505-1.83 11.106-12.51 18.678-18.61 7.572-6.103 20.445-10.984 19.688-11.595zM512.42 139.598c-.253.305-9.087 11.593-10.854 14.644-1.767 3.05-7.068 16.475-7.068 16.475s-7.824-8.237-7.824-8.542 9.844-12.814 15.65-17.696 10.348-3.967 10.096-4.882zM490.537 156.267c0 2.145-1.44 3.883-3.213 3.883s-3.213-1.738-3.213-3.883 1.44-3.883 3.214-3.883 3.213 1.738 3.213 3.883zm80.98-392.857c0 1.907-1.44 3.452-3.214 3.452s-3.213-1.545-3.213-3.452 1.438-3.452 3.213-3.452 3.213 1.546 3.213 3.452zm.224 4.895c0 1.906-1.756 3.452-3.925 3.452-2.17 0-3.927-1.546-3.927-3.452s1.758-3.452 3.927-3.452c2.17 0 3.926 1.546 3.926 3.452zM493.036 164.683c0 3.694-1.998 6.688-4.462 6.688-2.465 0-4.462-2.994-4.462-6.687 0-3.694 1.997-6.688 4.462-6.688 2.464 0 4.462 2.995 4.462 6.688zm68.058-383.558c0 2.86-1.997 5.178-4.462 5.178-2.464 0-4.462-2.318-4.462-5.178s1.998-5.177 4.462-5.177c2.465 0 4.462 2.318 4.462 5.177zM474.83 169c0 2.5-1.518 4.53-3.39 4.53s-3.392-2.03-3.392-4.53c0-2.503 1.518-4.532 3.39-4.532 1.874 0 3.393 2.03 3.393 4.53zm64.087-376.894c0 2.978-2.318 5.393-5.176 5.393s-5.175-2.416-5.175-5.394c0-2.98 2.317-5.393 5.176-5.393 2.86 0 5.177 2.414 5.177 5.393zm43.91-8.503c0 1.787-1.837 3.236-4.104 3.236s-4.105-1.45-4.105-3.237 1.838-3.236 4.105-3.236 4.105 1.45 4.105 3.236zM488.038 167.92c0 2.62-2.558 4.745-5.712 4.745s-5.71-2.125-5.71-4.746c0-2.622 2.556-4.747 5.71-4.747s5.712 2.125 5.712 4.746zm83.547-369.878c0 3.218-2.398 5.825-5.355 5.825s-5.354-2.608-5.354-5.825 2.397-5.824 5.354-5.824c2.958 0 5.355 2.607 5.355 5.824zm3.766 12.748c0 2.145-1.358 3.883-3.033 3.883s-3.035-1.738-3.035-3.883 1.36-3.884 3.035-3.884 3.034 1.74 3.034 3.884zM494.82 174.175c0 2.74-2.078 4.962-4.64 4.962-2.564 0-4.642-2.22-4.642-4.962s2.078-4.962 4.64-4.962c2.564 0 4.64 2.222 4.64 4.962zm69.585-367.9c0 2.383-1.838 4.314-4.105 4.314-2.267 0-4.104-1.933-4.104-4.315 0-2.383 1.838-4.315 4.104-4.315 2.268 0 4.105 1.932 4.105 4.315zM487.325 175.25c0 2.623-1.917 4.748-4.283 4.748-2.366 0-4.284-2.125-4.284-4.747 0-2.62 1.918-4.745 4.284-4.745 2.366 0 4.283 2.125 4.283 4.746zm48.74-394.337c1.072 0 8.568 3.02 8.568 3.02s-9.28 4.315-7.854 3.884 10.352-1.726 9.637-1.726c-.713 0-7.853 8.2-5.71 7.767 2.14-.43 6.425-5.61 6.78-5.61.358 0 4.642 8.2 5 7.768.356-.432 0-8.198.356-8.198.357 0 8.924 5.178 8.21 4.746-.714-.432-5.71-6.472-5.355-6.472.357 0 11.78 1.295 11.066.864-.714-.43-7.496-4.315-7.496-4.315s4.998-5.61 3.927-5.61-9.28 5.61-8.567 5.178c.714-.432 8.924-11.65 8.924-11.65l-8.21 4.746s1.427-6.903.713-6.472c-.713.432-6.425 9.06-6.782 9.06s-1.785-8.628-1.785-8.628.357 9.492-1.784 9.923c-2.142.432-9.638 2.158-9.638 1.726z"/></g><g fill-rule="evenodd"><path d="M445.51 216.536c.177.863 5.89 16.396 14.635 15.964s12.315-3.02 11.958-3.236c-.357-.216-4.105-2.804-6.247-8.414-2.142-5.61-2.5-7.982-2.5-7.982l-17.847 3.668zm31.234-6.04s6.425 15.316 9.28 17.473c2.857 2.157 9.46 3.883 12.316 3.667 2.856-.216 6.247 0 6.247 0s-2.855-1.51-5.176-9.924-3.033-11.218-3.033-11.218h-19.633zm39.266 5.608s-1.25 11.218 0 14.023c1.25 2.805 7.496 7.982 7.496 7.982s7.496-1.08 7.675-7.983c.18-6.904-2.498-13.376-2.498-13.376l-12.672-.646z" fill="#00389b"/><path d="M288.94 21.015s1.163 4.65 0 8.14-11.046 12.79-11.046 20.347c0 7.558 11.627 30.812 47.09 31.394 35.464.58 80.23-19.185 79.648-19.767-.58-.58-84.88-56.975-86.04-56.394-1.16.582-29.65 17.44-29.65 16.28zM523.23 61.13s7.557 20.347 10.464 22.673c2.907 2.325 4.07 6.976 4.65 6.976s48.836 10.463 48.836 10.463 4.65-13.37-2.325-23.836c-6.977-10.465-33.138-37.79-33.138-37.79l-28.49 21.512zm33.14-25c1.162 0 12.79 9.883 22.092 4.65 9.3-5.23 24.417-19.184 24.417-19.184s-12.79 4.07-22.093 3.488c-9.302-.58-23.836 11.627-24.417 11.046zM287.2 23.34s-3.488-9.883-12.79-10.465c-9.302-.58-26.162 1.163-31.975-3.488-5.814-4.65-7.558-15.697-10.465-15.116-2.907.582-10.465 0-11.046 0s-3.488-9.3 4.65-13.952 15.117-.582 19.767-4.07c4.652-3.488 11.63-5.814 20.93-6.395 9.303-.58 24.418 11.628 31.395 14.534 6.976 2.907 22.092 6.395 27.905 3.488 5.814-2.907 38.37-15.697 49.998-16.278 11.627-.58 36.045-1.162 45.347-.58s45.928 5.23 56.974 10.464c11.045 5.233 69.763 25.58 77.902 30.23 8.14 4.653 26.162 11.63 26.162 11.63s-31.976 31.393-47.672 36.625c-15.697 5.232-65.695 13.372-95.345 11.627-29.65-1.744-52.904-4.65-75.578-16.278-22.68-11.626-47.1-22.672-48.26-28.486-1.16-5.813-.58-13.37-.58-13.37l-27.325 9.882zM251.15-14.45c-1.163.582-6.976 2.908-5.814 4.07 1.163 1.163 3.49 4.65 10.465 4.07 6.978-.58 14.535-4.65 14.535-4.65s-8.72-4.07-19.185-3.49z" stroke="#000" stroke-width="1.497" fill="#005120" transform="matrix(.307 0 0 .371 350.733 188.675)"/><path d="M250.57-13.286v6.395s8.14 2.324 8.14.58c0-1.744.58-5.813-1.164-5.813s-6.395-.582-6.976-1.163z" stroke="#000" stroke-width="1.497" transform="matrix(.307 0 0 .371 350.733 188.675)"/><path d="M331.95-8.453c2.056-3.7 0-8.632 11.922-14.388 11.92-5.756 32.68-4.11 32.68-4.11s-5.96 4.52-6.165 9.248c-.205 4.727.41 6.783.41 6.783s-11.304-3.7-19.937-1.438-18.704 4.522-18.91 3.905zm53.45-20.143c-1.233.617-10.277 10.688-9.25 13.772 1.028 3.083 13.155 10.483 17.06 9.866 3.906-.616 21.788-9.25 22.816-13.566 1.028-4.316 1.85-10.072.41-11.305-1.438-1.232-30.83 1.646-31.036 1.234zm39.26-1.644c-2.26 2.26-1.44 13.155-.617 14.388.822 1.233 15.005 15.416 18.088 16.238 3.084.822 25.9-1.44 27.75-3.905s7.4-12.95 5.755-15.415c-1.645-2.467-6.578-5.756-21.788-9.044s-24.254-2.877-29.187-2.26zm58.16 13.77c3.7 1.85 25.282 12.334 38.026 20.76 12.743 8.428 17.882 18.09 21.582 18.91 3.7.823 18.704-8.22 19.32-10.687.618-2.467-18.292-15.62-31.036-21.582-12.744-5.96-47.892-6.782-47.892-7.4zm-4.52 8.84c-1.85 1.644 23.02 45.014 27.748 46.453 4.728 1.438 33.093-8.428 32.682-11.716-.41-3.288-7.81-9.866-25.28-19.526C495.98-2.08 481.8-8.45 478.3-7.63zM447.47 8.196c-3.905 2.26-10.07 41.11-6.166 42.96 3.905 1.85 52.003-4.728 53.853-9.044 1.85-4.317-19.733-38.643-26.105-38.643-6.37 0-17.882 1.644-21.582 4.727zm-49.74-8.22c-5.14 4.726-4.11 40.902-1.85 43.163 2.26 2.26 30.83 9.66 33.914 6.987 3.084-2.672 7.195-43.37 4.317-46.453-2.877-3.083-10.893-10.483-17.06-11.1-6.166-.615-16.443 5.96-19.32 7.4zm-64.54-.618c-4.728 3.7-4.933 13.36.205 15.005 5.14 1.644 17.882 7.194 29.804 12.333 11.92 5.14 18.704 11.305 22.198 11.1 3.494-.207 6.783-36.382 3.083-38.438-3.7-2.055-14.593-3.7-24.87-3.29-10.277.412-25.282 1.44-30.42 3.29z" stroke="#000007" stroke-width="1.497" fill="#001707" transform="matrix(.307 0 0 .371 350.733 188.675)"/></g><path d="M387.976 359.2c2.59-2.52 6.616-8.68 12.08-8.96 5.467-.28 11.22 4.76 11.22 4.76s5.753 23.528 5.466 23.528c-.288 0-9.493 6.722-9.78 6.722-.288 0-4.028-9.243-7.48-8.404-3.45.84-3.164 13.445-3.74 12.605-.574-.84-15.244-18.205-14.67-18.765.577-.56 7.193-10.642 6.905-11.483zm151.89-3.08c1.726-.28 9.493-6.163 14.958-5.882 5.466.28 8.63 2.8 11.506 5.32 2.876 2.522 6.33 8.963 6.33 8.963s-6.905 19.047-7.48 19.047-3.452 1.68-4.028.28-2.3-5.882-5.753-6.442c-3.452-.56-4.316 6.16-4.316 6.16l-11.217-27.446z" fill-rule="evenodd" fill-opacity=".996" fill="#d40f0f"/><path d="M543.604 362.007c0 1.682 10.643 28.01 27.903 33.05 17.258 5.04 22.724-4.76 24.737-8.122 2.013-3.36 9.205-3.08 9.205-3.08s-1.726 24.647-4.604 27.727c-2.876 3.08-5.178 9.803-21.286 10.082-16.107.28-30.778-15.123-35.667-19.605-4.892-4.483-11.22-16.245-13.81-21.568-2.587-5.32 13.81-17.924 13.52-18.485zm-187.556 52.367c.288 0 7.767 8.123 18.697 7.282 10.93-.84 29.63-7.282 38.258-18.485 8.63-11.2 12.944-23.246 12.944-23.246s-12.656-22.406-12.944-22.406c-.288 0-1.438 7.282-3.74 12.043-2.3 4.763-8.63 18.206-19.272 22.41-10.643 4.2-10.643 5.88-14.957 5.32-4.315-.56-15.533-7.282-15.533-7.563 0-.28-5.465 13.165-5.465 13.165s-1.15 8.682 2.013 11.483zM387.782 358.423c-.814 0-21.154 11.09-20.34 15.844.813 4.753 34.985 72.09 108.206 72.88 73.223.794 117.975-60.998 114.72-71.296-3.255-10.297-26.035-22.18-26.035-22.18s5.694 4.753 4.88 11.09c-.813 6.338-26.035 61-89.496 59.416-63.46-1.585-93.565-49.908-93.565-55.453 0-5.545 3.255-8.715 1.628-10.3z" fill-rule="evenodd" fill-opacity=".996" fill="#fddc59"/><path d="M586.17 407.38c1.728-1.4 12.37-30.53 18.41-29.688 6.043.84 4.03 9.522 3.454 11.763-.575 2.24-6.616 22.407-6.616 22.407s.288-4.762-3.74-5.882c-4.026-1.12-10.643 1.96-11.506 1.4zm-230.122 7.29c0-1.582-4.882-7.128.813-8.713 5.697-1.583 13.02 1.585 13.02 1.585s-4.07-11.883-8.95-21.39c-4.882-9.505-6.51-7.92-10.577-6.337-4.068 1.585-3.97 5.778-1.528 12.115 2.44 6.338 7.223 24.326 7.223 22.74z" fill-rule="evenodd" fill-opacity=".996" fill="#d40f0f"/><path fill="#fdc400" fill-rule="evenodd" d="M423.176 360.347l7.063-23.923-19.617-15.038 24.568-.567 8.013-23.61 8.123 23.57 24.567.454-19.55 15.13 7.17 23.887-20.2-14.215z"/><path d="M555.637 235.833v92.04c.18 44.983-45.69 84.374-76.147 92.04-30.46-7.666-76.328-47.057-76.147-92.036v-92.04h152.294z" fill-rule="evenodd" fill="#fff"/><path d="M177.16 325.98l.42 160.73s2.387-3.288 35.013-1.284c32.627 2.004 35.433 35.433 70.867 35.433 35.433 0 35.433-35.434 70.866-35.434s35.433 35.433 70.866 35.433 35.433-35.434 70.866-35.434 35.433 35.433 72.87 37.46c33.43-2.027 33.43-37.46 69.062-39.464l35.233 2.004v-159.45h-496.06z" fill-rule="evenodd" fill-opacity=".996" transform="matrix(.307 0 0 .358 348.952 119.039)" stroke="#000" stroke-width="1.497" fill="#d40f0f"/><path d="M403.34 312.006v19.043h10.88c10.015.717 10.877 12.694 21.755 12.694s10.878-12.695 21.756-12.695 10.88 12.694 21.758 12.694 10.878-12.695 21.756-12.695 10.263 11.968 21.756 12.694c10.263-.726 10.817-11.977 21.757-12.695h10.878v-19.044h-10.878c-10.88 0-10.88 12.695-21.757 12.695-10.878 0-10.878-12.694-21.756-12.694S490.366 324.7 479.488 324.7c-10.88 0-10.88-12.695-21.757-12.695S446.854 324.7 435.976 324.7s-10.878-12.695-21.756-12.695h-10.88zm3.283 38.082l7.596 19.043c10.016.72 10.877 12.696 21.756 12.696 10.878 0 10.878-12.695 21.756-12.695s10.878 12.696 21.756 12.696 10.88-12.695 21.757-12.695S511.508 381.1 523 381.827c10.264-.726 10.565-11.977 21.505-12.695l7.85-19.336-7.598.294c-10.878 0-10.878 12.695-21.756 12.696-10.877 0-10.877-12.696-21.755-12.696s-10.878 12.695-21.757 12.695c-10.878 0-10.878-12.695-21.756-12.695s-10.878 12.695-21.756 12.695-10.878-12.695-21.757-12.695h-7.597zm72.867 69.823c10.88 0 35.803-19.042 35.548-19.042.253 0-2.914-12.695-13.792-12.695s-10.878 12.695-21.757 12.695c-10.88 0-10.88-12.695-21.757-12.695s-13.655 12.695-13.68 12.695c-.504 0 24.558 19.043 35.435 19.043z" fill-rule="evenodd" fill-opacity=".996" fill="#0062bb"/><path d="M90.85 117.57c.82 0 8.22 1.233 13.564.822 5.344-.41 7.4-2.467 7.4-2.878v-1.233h6.988s1.233 5.756.41 6.167-2.877 2.056-3.288 2.056 0-2.878-.822-2.056-1.233 2.056-1.233 2.056-.823-1.234-1.234-1.234-1.233 1.233-1.233 1.233 0-1.234-.412-1.234c-.41 0-2.465 2.055-2.465 2.055l-2.055-1.645s-1.234 2.056-1.645 2.056-2.877-1.644-2.877-1.644l-4.11 2.466s0-3.7-.823-3.29c-.822.412-5.344.412-5.344.412s-1.233 2.467-1.644 2.467-2.055-2.055-1.644-2.055 1.233-1.234.822-1.645c-.41-.41-2.466 0-2.466-.41s-.822-2.88-.41-2.88 2.054.413 2.054.413v-2.467h2.055l.412 2.467zM98.248 94.136c-.41 0-3.29 3.29-2.878 6.988.41 3.7 7.4 9.044 7.4 9.044s3.7-1.644 4.933 0 1.233 6.577.822 6.577-5.344 1.234-5.344.41c0-.82 0-1.643-.41-1.643s-4.933.41-4.933.41l.41-1.643-4.11-.823 1.645-1.645s-6.578-2.877-6.167-2.877 2.878-1.644 2.878-1.644L87.56 104h2.878s-4.11-3.288-3.7-3.288c.41 0 2.466.41 2.466.41l-1.233-3.287h1.234l-1.233-2.467 2.056-.822L91.26 96.6l-.41-4.932 2.876.412v4.11s1.233-2.466 1.233-2.877c0-.41 3.7 1.644 3.288.822z" fill-rule="evenodd" fill-opacity=".996" transform="matrix(1.5 0 0 1.305 286.934 126.302)" stroke="#000" stroke-width=".701" fill="#fdc400"/><path d="M529.965 282.453c-.77.67-3.085 2.146-3.085 2.146s5.244-.403 5.09-.403-1.85-1.342-2.005-1.744zm4.47 2.545c-.306.403-1.232 4.562-.615 4.293.616-.267 3.083-3.353 3.083-3.353l-2.467-.94zm7.084.536c.77.67 4.316 3.755 3.853 3.084-.462-.67-.925-3.488-1.233-3.62-.31-.135-2.314.803-2.62.536zm-62.136-4.426c-.462.135-4.317 2.684-4.317 2.684s6.477-1.074 6.167-1.074c-.307 0-2.004-1.206-1.85-1.61zm4.006 3.225c-.616.536-2.62 4.292-1.85 4.16.772-.136 4.164-2.55 4.164-2.55l-2.313-1.61zm-2.475-5.235c-.462-.134-3.702-1.476-3.547-1.476s4.318-.94 4.318-.94l-.77 2.416zm-61.057-1.736l-4.626-3.22 5.86 1.61-1.234 1.61zm-4.01 2.14c-.616 0-6.476 3.22-6.322 3.22s8.173.134 8.02 0c-.155-.133-1.39-2.95-1.697-3.22zm3.7 4.7c-.616.27-5.242 3.354-4.934 3.354.31 0 6.94.134 6.94 0s-1.85-3.22-2.005-3.354zm-.616-33.41s-1.696-3.756-1.542-3.756c.154 0 4.318 2.95 4.318 2.95l-2.776.806zm4.626-4.696c0-.134.463-2.414.463-2.414s4.164 2.817 4.01 2.817c-.154 0-4.164 0-4.472-.404zm6.477 1.744c0-.134.463-3.488.463-3.488s3.855 4.562 3.547 4.696c-.31.134-3.7-.67-4.01-1.208z" fill-rule="evenodd" fill-opacity=".996"/><path d="M137.26 110.86c0 .206 4.316 3.7 4.42 4.522.1.822-7.812 1.028-7.812 1.028s-2.26-1.747-2.98-1.645c-.72.103-1.028 1.85-1.028 1.85l1.85 1.028-3.494.205 1.028 1.953 2.672-.205-.617 1.85s1.643 1.234 1.952 1.028c.308-.205 1.336-2.055 2.158-2.364.822-.31 2.57-.31 2.57-.31s-1.337 2.262-.72 2.262c.616 0 3.39-2.364 3.39-2.364s.618 2.158.72 2.158c.103 0 2.056-2.466 2.056-2.466s0 1.953.308 1.953 3.186-2.467 3.186-2.467 2.26 2.878 2.57 2.672c.308-.205.616-3.083.924-3.083s2.26-.308 2.26-.41-1.232-1.132-1.438-2.57c-.205-1.44.206-4.83.103-4.83s-13.875.513-14.08.205zM115.37 104.6h40.286c4.11 0 7.81-1.644 7.81-4.11 0-2.467-6.577-2.878-9.043-2.056-2.467.822-13.155 5.755-17.677 5.344s-8.632-3.29-9.043-6.166c-.412-2.878 2.055-5.344 6.577-5.344s10.277 1.644 11.51 1.233 4.11-3.7 5.344-4.11c1.233-.41 4.933-.822 4.933-.822l-1.644 1.233 5.344-1.232s-4.11 4.522-8.222 5.755c-4.11 1.234-12.743.822-16.032.822s-4.933-.41-4.522 2.056c.412 2.467 2.88 4.112 4.934 3.7 2.056-.41 8.222-2.466 8.222-2.466L142.5 97.2l7.4-.41s-.41-1.233 0-1.233 4.112.41 4.112.41-2.467-1.233-2.056-1.233 2.056 0 5.344.412c3.29.41 10.277 1.644 9.866 4.932-.41 3.29-2.877 6.166-5.755 6.166s-5.343-.822-5.343.412c0 1.233 3.29 2.055 5.344 2.055s4.523-1.643 4.934-1.643 1.233 2.466 1.644 2.466 2.878-.822 2.878-.822l-1.644 4.523 2.877.822s-1.645 1.644-1.234 1.644 2.877 0 2.877.41-3.288 2.878-3.288 3.29 2.466 1.643 2.466 1.643-1.643 2.467-2.054 2.056-2.056-2.468-2.056-2.468-.41 1.645-1.233 1.645-2.466-.41-2.466-.41 1.234-2.468.823-2.468-2.467 1.643-2.467 1.232l-1.232-1.236s3.288-1.336 3.288-3.29c0-1.95-1.336-3.904-7.296-4.212-5.96-.31-6.064 1.438-10.483 1.233-4.42-.206-4.42-1.953-7.708-1.953-3.288 0-13.463 4.11-18.19 4.008-4.727-.102-10.688-.41-10.483-.616.206-.206 3.906-9.66 4.008-9.966z" fill-rule="evenodd" fill-opacity=".996" transform="matrix(1.5 0 0 1.305 285.91 126.597)" stroke="#000" stroke-width=".701" fill="#fdc400"/><path d="M106.88 102.46c-.41.206-4.008.72-4.214 4.522-.205 3.803.31 3.803.72 3.597.41-.206 1.233-3.495 1.233-3.495s-1.234 4.522.102 5.55a9.298 9.298 0 0 0 2.775 1.438l.513-3.597s-1.027 3.495 1.44 4.728c2.466 1.233 3.39.308 3.185-.617-.205-.925-.925-3.288-.925-3.288s1.953 2.157 2.056 2.362c.102.206 1.027 1.85 3.494 1.13 2.466-.72.72-2.363.72-2.363l-2.98-2.46s3.082 3.184 4.418 2.054-1.028-3.597-.925-3.494 1.953 3.494 2.672 1.336-1.13-2.775-1.747-4.83c-.617-2.056-1.13-2.26-.514-3.495.617-1.232.72-3.595.72-3.595s2.57.616 2.363-1.542c-.205-2.158-2.775-2.672-3.288-2.775-.515-.103-.413-2.26-.618-2.158-.206.103-1.85 1.336-1.85 1.336s-1.44-3.392-1.747-3.186-1.953 1.953-3.186 2.055c-1.234.103-1.954 1.85-1.954 1.85s-4.316-2.055-4.213 1.336c.103 3.393 2.57 2.57 2.57 2.673s-.412 4.728-.823 4.933z" fill-rule="evenodd" fill-opacity=".996" transform="matrix(1.5 0 0 1.305 286.934 126.302)" stroke="#000" stroke-width=".701" fill="#fdc400"/><path d="M450.874 253.257c.742-.227 1.833-1.174 3.098-1.06s3.29 1.085 2.288 1.615c-1.005.53-1.745.758-2.88.49-1.133-.266-2.005-.836-2.506-1.045zm12.578-.134c-.742-.227-1.833-1.175-3.098-1.06s-3.29 1.085-2.287 1.615c1.004.53 1.745.757 2.88.49 1.132-.266 2.004-.836 2.505-1.045z" fill-rule="evenodd" fill-opacity=".996"/><path d="M110.99 103.17c.103.514.41 4.83.616 4.522.206-.308 1.748-4.42 1.645-4.42s-2.157.104-2.26-.102z" fill-rule="evenodd" fill-opacity=".996" transform="matrix(1.5 0 0 1.305 287.143 126.366)" stroke="#000" stroke-width=".421" fill="#000039"/><path d="M109.96 103.17c.05-1.215.822-1.13 2.467-.925 1.644.206 2.466 1.028 2.363 1.234-.102.204-1.438.718-2.57.615-1.335-.41-2.297.09-2.26-.925z" transform="matrix(1.5 0 0 1.305 287.143 126.556)" stroke="#000" stroke-width=".842" fill="none"/><path d="M112.43 100.08l-.206 1.953m7.096-7.19s1.336.618 1.13 1.234c-.205.617-1.13.925-1.13.925m-11.2-2.672c-.308.103-.72.308-.925 1.13-.205.823.925 1.337.925 1.337" transform="matrix(1.5 0 0 1.305 287.143 126.556)" stroke="#000" stroke-width="1.497" fill="none"/><path d="M111.19 136.13s-1.454 1.454 1.017 1.454.727-1.308.727-1.308" transform="matrix(1.5 0 0 1.305 287.361 77.606)" stroke="#000" stroke-width="1.497" fill="none"/><path fill="#fdc400" fill-rule="evenodd" d="M462.348 403.76l6.41-21.062-17.8-13.24 22.293-.498 7.272-20.784 7.37 20.75 22.294.4-17.74 13.32 6.506 21.03-18.33-12.516z"/><path fill="#003017" fill-rule="evenodd" fill-opacity=".996" d="M465.383 398.115l5.34-16.73-14.832-10.518 18.578-.396 6.06-16.51 6.14 16.483 18.58.318-14.784 10.583 5.42 16.705-15.274-9.942z"/><path fill="#fdc400" fill-rule="evenodd" d="M425.66 361.105l6.34-19.917-17.606-12.52 22.052-.472 7.193-19.655 7.29 19.623 22.053.378-17.548 12.598 6.435 19.887-18.132-11.836z"/><path fill="#003017" fill-rule="evenodd" fill-opacity=".996" d="M428.673 355.764l5.283-15.822-14.673-9.946 18.377-.374 5.994-15.614 6.076 15.588 18.377.3-14.623 10.007 5.363 15.798-15.11-9.402z"/><path fill="#fdc400" fill-rule="evenodd" d="M499.57 361.105l6.423-19.917-17.835-12.52 22.337-.472 7.285-19.655 7.385 19.623 22.337.378-17.774 12.598 6.518 19.887-18.366-11.836z"/><path fill="#003017" fill-rule="evenodd" fill-opacity=".996" d="M502.618 355.764l5.352-15.822-14.862-9.946 18.614-.374 6.07-15.614 6.154 15.588 18.614.3-14.81 10.007 5.43 15.798-15.304-9.402z"/><path d="M373.272 372.554c8.026 34.543 41.902 60.18 87.528 66.243 58.605 7.787 114.514-21.906 124.795-66.277" fill="none"/><path d="M373.128 377.9l11.006-6.22 1.036 2.264-4.317 2.44 1.43 3.12 4.315-2.44 1.036 2.264-11.006 6.218-1.036-2.263 4.988-2.818-1.428-3.12-4.988 2.817-1.036-2.263m4.607 9.63l10.276-7.608 3.517 5.865-1.708 1.264-2.25-3.75-2.376 1.758 2.094 3.492-1.628 1.205-2.094-3.492-2.83 2.094 2.304 3.84-1.735 1.285-3.57-5.954m7.16 11.046l9.065-9.315 1.552 1.862-3.555 3.654 2.14 2.57 3.554-3.653 1.553 1.864-9.065 9.315-1.55-1.864 4.107-4.222-2.14-2.57-4.108 4.222-1.55-1.864m11.836 5.516l1.47 1.434 2.674-5.05-4.144 3.616m-5.75 1.72l10.232-8.277 2.32 2.26-6.03 12.373-1.863-1.815 1.588-3.038-1.99-1.938-2.49 2.157-1.768-1.72m8.93 8.295l6.097-9.238-2.135-1.74 1.205-1.824 6.122 4.99-1.204 1.825-2.134-1.74-6.097 9.24-1.856-1.513m5.01 4.003l6.43-11.71 1.95 1.322-2.52 4.593 2.69 1.824 2.52-4.593 1.95 1.323-6.43 11.71-1.95-1.322 2.914-5.308-2.69-1.824-2.915 5.308-1.95-1.322m12.09 7.652l5.19-12.448 5.856 3.014-.85 2.037-3.767-1.94-1.228 2.943 3.557 1.83-.83 1.99-3.557-1.832-2.285 5.48-2.088-1.074m11.453-1.89c-.72 2.11-1.065 3.486-1.033 4.128.04.64.358 1.085.958 1.338.59.25 1.083.152 1.48-.29.403-.446.97-1.735 1.698-3.868s1.075-3.516 1.04-4.153c-.033-.637-.347-1.08-.942-1.332-.594-.25-1.095-.15-1.5.3-.406.453-.973 1.744-1.7 3.877m-2.198-.927c.465-1.36.893-2.42 1.285-3.183.395-.768.784-1.306 1.17-1.613.533-.442 1.076-.69 1.626-.744.55-.054 1.204.08 1.964.4s1.33.703 1.71 1.15c.38.445.64 1.03.78 1.757.1.526.066 1.217-.1 2.074-.163.86-.475 1.966-.938 3.32-.46 1.35-.888 2.408-1.282 3.176-.392.762-.78 1.304-1.164 1.625-.54.44-1.083.686-1.633.74-.55.054-1.205-.08-1.965-.4s-1.33-.703-1.708-1.15c-.38-.445-.637-1.03-.773-1.754-.105-.513-.076-1.2.086-2.06.164-.864.478-1.976.943-3.337m10.62-2.914l2.205.73-2.374 8.86c-.27 1.015-.345 1.74-.223 2.177.13.433.478.744 1.047.932.564.185 1.002.132 1.315-.16.317-.292.614-.953.89-1.984l2.366-8.828 2.176.72-2.432 9.076c-.237.882-.456 1.513-.658 1.892a2.88 2.88 0 0 1-.732.92 2.867 2.867 0 0 1-1.54.625c-.583.055-1.233-.036-1.95-.273-1.353-.448-2.22-1.088-2.605-1.922-.38-.837-.35-2.067.084-3.69l2.432-9.076m5.906 16.177l2.696-13.388 2.308.573 1.252 10.143 1.823-9.38 2.12.53-2.695 13.386-2.292-.57-1.272-10.166-1.826 9.396-2.112-.525m12.07.682l1.006.174c.512.09.877.11 1.094.064a.966.966 0 0 0 .55-.337c.26-.314.48-.77.656-1.364.177-.6.36-1.575.55-2.925.185-1.313.267-2.28.246-2.895-.02-.617-.137-1.1-.347-1.45a1.086 1.086 0 0 0-.47-.406c-.198-.1-.518-.19-.96-.267l-.976-.17-1.35 9.576m-2.506 1.61l1.91-13.555 3.652.636c.745.13 1.326.304 1.745.52.425.22.757.51.997.878.363.538.58 1.177.655 1.917.08.735.015 1.848-.195 3.338-.27 1.925-.523 3.276-.757 4.053-.233.77-.535 1.41-.904 1.916-.358.51-.804.83-1.337.967-.528.13-1.406.088-2.637-.126l-3.13-.545m9.55 1.57l1.19-13.656 6.31.677-.196 2.27-4.038-.432-.276 3.157 3.76.403-.19 2.164-3.758-.404-.326 3.76 4.133.444-.2 2.305-6.408-.687m10.43-1.106l1.018.04c.518.022.882-.005 1.093-.08a1 1 0 0 0 .51-.408c.226-.347.394-.828.505-1.44.112-.62.19-1.613.234-2.98.043-1.328.02-2.298-.066-2.907-.087-.61-.254-1.075-.5-1.394a1.048 1.048 0 0 0-.51-.34c-.207-.075-.535-.12-.983-.14l-.986-.04-.315 9.688m-2.317 1.93l.444-13.71 3.694.15c.753.03 1.35.124 1.788.284.444.16.805.407 1.083.74.418.485.703 1.09.856 1.816.16.72.213 1.833.165 3.34-.064 1.947-.17 3.322-.32 4.124-.147.796-.378 1.47-.69 2.023-.3.553-.71.932-1.224 1.137-.51.2-1.386.275-2.63.225l-3.166-.127m13.754.18l-.49-13.71 2.3-.1.49 13.708-2.3.102m6.14-.36l-.843-11.42-2.638.24-.166-2.254 7.567-.69.167 2.256-2.637.24.844 11.418-2.294.21m8.1-14.71l2.268-.438 1.426 9.11c.163 1.042.387 1.728.672 2.06.29.323.726.43 1.31.315.58-.11.95-.375 1.114-.792.168-.42.17-1.157.003-2.216l-1.42-9.076 2.236-.43 1.46 9.33c.142.905.2 1.58.17 2.02-.025.43-.12.826-.287 1.184a3.267 3.267 0 0 1-1.128 1.32c-.5.34-1.12.58-1.856.72-1.39.27-2.426.126-3.104-.43-.674-.563-1.142-1.68-1.403-3.346l-1.46-9.33m12.285 3.48l.935-.254c.696-.19 1.15-.47 1.366-.847.212-.38.24-.94.08-1.672-.164-.737-.406-1.213-.727-1.425-.318-.22-.838-.232-1.56-.037l-.965.262.87 3.973m-.514 8.08l-2.922-13.33 3.88-1.05c1.183-.32 2.1-.257 2.748.19.648.45 1.12 1.343 1.412 2.68.29 1.317.226 2.373-.188 3.17-.41.79-1.184 1.338-2.32 1.646l-1.63.44 1.24 5.65-2.22.602m8.817-9.66c.615 2.152 1.114 3.47 1.5 3.95.386.474.886.603 1.497.388.6-.212.934-.628.998-1.25.067-.627-.21-2.028-.83-4.202s-1.122-3.5-1.504-3.974c-.382-.476-.876-.607-1.483-.394-.606.214-.942.638-1.008 1.272-.067.634.21 2.037.83 4.21m-2.238.79c-.396-1.387-.653-2.514-.772-3.382-.12-.873-.115-1.563.015-2.07.17-.715.458-1.283.86-1.705.4-.422.988-.77 1.762-1.042.775-.273 1.435-.366 1.982-.278.545.088 1.077.368 1.593.84.372.343.733.907 1.08 1.694.354.784.727 1.868 1.122 3.25.392 1.375.65 2.5.77 3.373.118.868.117 1.56-.005 2.076-.177.716-.466 1.285-.867 1.706-.4.422-.99.77-1.763 1.042-.775.273-1.435.366-1.982.278-.546-.088-1.075-.37-1.586-.843-.37-.33-.73-.89-1.084-1.674-.354-.79-.73-1.88-1.126-3.268m11.286 3.136l-4.594-12.735 2.196-.977 6.197 7.576-3.273-8.88 2.017-.897 4.595 12.734-2.18.97-6.226-7.583 3.278 8.896-2.01.895m14.3-7.024l-4.816-10.13-2.34 1.374-.95-2 6.712-3.942.95 2-2.338 1.374 4.817 10.13-2.034 1.194m5.434-3.24l-6.593-11.6 1.933-1.356 2.586 4.55 2.663-1.87-2.586-4.55 1.932-1.355 6.592 11.6-1.932 1.355-2.988-5.257-2.664 1.87 2.988 5.258-1.932 1.355m8.236-5.932l-7.44-10.946 5.06-4.247 1.237 1.82-3.238 2.716 1.72 2.53 3.013-2.528 1.18 1.735-3.014 2.53 2.047 3.013 3.315-2.78 1.256 1.847-5.138 4.31m6.352-11.77l1.64-1.793.558.63c.532.6.962.94 1.29 1.014.328.067.658-.08.99-.443.347-.38.524-.764.53-1.154.01-.395-.152-.783-.49-1.164-.258-.294-.542-.475-.85-.545-.314-.074-.826-.048-1.538.08l-1.425.257c-1.22.23-2.09.273-2.61.125-.516-.152-1.018-.503-1.505-1.054-.726-.822-1.077-1.705-1.05-2.65.026-.944.424-1.837 1.194-2.678.816-.89 1.66-1.325 2.534-1.304s1.72.496 2.54 1.424c.082.093.144.167.185.222.045.05.082.098.112.14l-1.555 1.698-.23-.26c-.47-.53-.882-.823-1.24-.882-.36-.058-.718.11-1.076.5-.263.287-.394.6-.393.94 0 .333.136.65.406.957.362.41 1.102.496 2.22.26a.103.103 0 0 1 .028-.006l1.505-.307c1.063-.23 1.897-.257 2.5-.083.6.17 1.188.58 1.765 1.233.787.89 1.165 1.826 1.135 2.808-.03.983-.47 1.938-1.32 2.866-.886.967-1.77 1.433-2.654 1.4-.88-.04-1.783-.58-2.704-1.62-.098-.11-.25-.3-.46-.572l-.034-.038m9.554-3.854l-9.463-8.81 4.073-5.402 1.573 1.465-2.607 3.454 2.188 2.037 2.427-3.216 1.5 1.397-2.426 3.217 2.606 2.426 2.668-3.537 1.598 1.487-4.136 5.483m2.404-12.282l1.093-1.803-4.847-2.306 3.754 4.11m2.264 6.12l-8.687-10.23 1.725-2.843 11.81 5.08-1.385 2.283-2.914-1.365-1.48 2.438 2.243 2.473-1.312 2.164m1.465-11.156l1.05-2.275.707.403c.675.385 1.18.556 1.51.512.33-.052.603-.307.816-.767.222-.48.28-.907.177-1.28-.102-.38-.366-.69-.794-.934-.328-.187-.65-.26-.963-.218-.318.04-.797.243-1.436.612l-1.28.742c-1.092.646-1.906.99-2.442 1.03-.533.037-1.11-.12-1.727-.474-.922-.526-1.505-1.242-1.747-2.148-.24-.906-.116-1.893.377-2.96.523-1.13 1.2-1.84 2.036-2.124.835-.284 1.773-.13 2.814.464.105.06.184.11.24.147.056.032.104.063.145.093l-.996 2.155-.293-.166c-.594-.34-1.07-.475-1.427-.405-.356.07-.65.354-.88.85-.168.365-.203.708-.106 1.03.095.316.314.57.656.766.46.264 1.19.088 2.182-.527a.08.08 0 0 1 .025-.016l1.342-.816c.945-.59 1.73-.906 2.35-.952.618-.048 1.293.137 2.025.554 1 .57 1.622 1.327 1.87 2.27.25.943.103 2.004-.442 3.182-.566 1.226-1.274 1.977-2.123 2.254-.846.27-1.854.073-3.024-.594a11.54 11.54 0 0 1-.598-.382l-.042-.024"/></svg>