<svg xmlns="http://www.w3.org/2000/svg" height="480" width="640" viewBox="0 0 640 480"><defs><clipPath id="a"><path fill-opacity=".67" d="M-85.333 0h682.67v512h-682.67z"/></clipPath></defs><g clip-path="url(#a)"><g fill-rule="evenodd"><path fill="#f00" d="M-40.064 360.185h720.36V480.25h-720.36zm-87.936-336.377h720.36v120.065H-128z"/><path fill="#fff" d="M-40.064 120.065h720.36v240.12h-720.36z"/></g><path d="M316.47 121.893c-7.326 14.626-12.21 14.626-24.42 24.38-4.883 4.874-12.21 7.312-2.442 12.19-9.767 4.874-14.65 7.313-19.535 17.063l2.44 2.438s9.283-4.55 9.77-2.438c1.622 1.95-12.217 9.428-14.004 10.565-1.787 1.138-10.418 6.5-10.418 6.5-12.21 9.753-19.536 7.314-26.862 21.94l24.42-2.435c4.884 17.064-12.21 19.5-24.42 26.815l-19.536 12.19c4.886 17.065 19.536 7.313 31.746 2.438l2.443 2.438v4.875l-24.42 12.19s-28.828 16.495-29.303 17.066c-.197.883 0 4.875 0 4.875 9.767 2.44 24.42 4.878 34.188 0 12.21-4.874 14.65-9.75 29.303-9.75-17.093 12.188-29.302 17.065-48.84 19.502v9.752c14.653 0 24.42 0 36.63-2.438l31.747-9.75c7.326 0 14.65 7.312 12.21 14.625-7.326 26.817-36.63 21.942-46.4 43.882l39.074-14.627c9.768-4.875 19.536-9.75 31.746-7.312 14.65 4.874 14.65 14.627 34.188 19.5l-4.883-12.187c4.884 2.437 9.768 2.437 14.65 4.875 12.212 4.88 14.654 9.753 29.304 7.315-12.21-14.627-14.65-12.19-24.42-21.94-9.766-14.627-14.65-36.567 0-39.006l17.096 4.876c17.093 2.437 17.093-2.438 41.513 7.313 14.652 4.874 19.536 12.188 36.63 7.312-7.325-17.064-34.188-29.254-51.28-34.13 19.534-12.19 14.65 4.876 41.512-2.44v-4.873c-19.535-14.628-26.86-26.818-53.724-26.818l41.516-4.876v-4.876s-40.943-10.74-41.895-11.122c.286-1.238 1.288-3.158 4.006-4.22 7.776 5.035 31.29 4.448 32.624 4.354-.687-6-11.828-10.952-21.595-15.827 0 0-41.826-25.78-42.033-28.06.83-6.534 17.178 1.037 34.706 6.118-4.883-9.75-14.652-14.626-24.42-17.064l14.652-2.438c-9.767-21.94-34.188-19.503-48.838-29.254-9.77-7.314-9.77-12.19-24.42-19.503z" fill="#007900"/><path stroke-linejoin="round" d="M290.074 284.28c1.813-5.81 4.2-10.95-6.675-15.903-10.875-4.95 5.434 19.805 6.674 15.903zm-53.235 7.168c-2.193.285-3.34 8.287 1.046 10.477 4.867.76.86-10.38-1.047-10.477zm13.54-1.622c-2.29.668-2.384 11.905 5.63 9.906 8.012-1.998-.097-10.856-5.63-9.906zm15.623-28.91c1.716-2.76-.095-14.092-6.965-9.332-6.867 4.762 4.77 10.095 6.965 9.333zm-14.003-11.333c2.1-.762 2.29-7.713-3.718-5.904-6.008 1.81 2.1 7.332 3.718 5.903zm-14.525 2.135s-4.198-5.81-7.44-4.572c-4.103 3.905 7.726 4.666 7.44 4.572zm-47.41 18.745c1.786.162 15.033-2.185 19.61-7.326 4.58-5.143-23.568 2.2-23.568 2.296 0 .094 2.66 4.543 3.96 5.03zm129.286-31.565c.684-1.215-7.05-6.728-11.645-4.555-1.183 4.07 11.608 5.39 11.646 4.555zm-17.29-15.272c1.433-2.094-3.336-10.665-12.875-5.904-9.54 4.762 10.014 9.238 12.876 5.904zm-31.867-5.912s2.383-7.714 8.108-6.19c6.488 4.952-7.822 6.476-8.107 6.19zm-7.62-6.14c-.86-2.19-6.87-.857-13.737 3.62-6.87 4.475 15.833 1.332 13.736-3.62zm17.177-21.142s6.12-2.74 7.917 0c2.576 4.095-8.012.096-7.917 0zm-3.97-4.055c-1.24-2.476-8.01-2.71-7.838.868-1.135 2.804 8.8 2.28 7.837-.868zm-16.474-.168c-.667-1.43-10.3.027-13.162 5.808 4.596 2.235 15.263-2.19 13.162-5.81zm-21.674 5.91s-12.672 7.747-13.45 13.427c.385 4.905 15.738-8.857 15.738-8.857s1.336-5.428-2.288-4.57zm-15.385-6.654c.354-1.576 6.26-5.227 6.772-4.953.478 1.59-4.825 5.89-6.773 4.953zm3.078 29.147c.285-2.286-15.072-2.097-9.252 4.95 4.846 5.91 10.303-3.903 9.252-4.95zm-13.71 12.07c-.802-1.546-1.954-5.665-4.057-6.044-1.714-.098-10.948 1.808-11.655 3.37-.38 1.238 3.823 8.85 5.255 9.04 1.622.667 10.17-5.607 10.456-6.368zm81.93 52.36c.475-1.618 16.17-7.04 21.587-1.853 6.39 8.76-21.97 4.617-21.588 1.853zm48.604 13.67c3.438-5.82-10.56-12.72-16.502-6.07 2.03 7.99 13.72 10.88 16.5 6.07z" fill-rule="evenodd" stroke="#fff" stroke-linecap="round" stroke-width="3.0194219999999996" fill="#fff"/></g></svg>