<svg xmlns="http://www.w3.org/2000/svg" height="480" width="640" viewBox="0 0 640 480"><defs><clipPath id="a"><path fill-opacity=".67" d="M0 0h682.67v512H0z"/></clipPath></defs><g clip-path="url(#a)" fill-rule="evenodd"><path fill="#fff" d="M0 .08h719.878v479.924H0z"/><path fill="#006" d="M0 0h218.194v218.203H0z"/><path fill="#c00" d="M0 435.816h719.897v44.18H0zM0 436.34h719.897v43.664H0zm0-58.013h719.897v43.322H0zm0-93.238h718.088v43.78H0zM218.128 11.675H719.85v43.588H218.128zm14.542 156.93h501.722v43.87H232.67zm0-75.28h501.722v43.588H232.67z"/><path d="M155.953 166.378l-47.54-29.044-47.31 29.335 17.594-47.673-47.224-29.432 58.426-.41 18.12-47.523 18.51 47.413 58.425.063-46.983 29.712 17.985 47.56z" fill="#fff"/></g></svg>