<svg xmlns="http://www.w3.org/2000/svg" height="480" width="640" viewBox="0 0 640 480"><path d="M0 0h640v480H0z" fill="#fff"/><path d="M0 336h640v144H0z" fill="#009543"/><path d="M0 0h640v144H0z" fill="#00209f"/><path d="M319.622 152.91c-2.736.06-5.404 3.088-5.404 3.088l.236 32.375-10.22 10.707h8.272l-.07 18.563-48.945 65.91-7.234-2.5-12.648 26.976s31.28 19.584 76.682 19.05c49.828-.592 76.902-19.955 76.902-19.955l-13.07-26.63-6.4 2.783-49.572-65.568-.068-19.116h8.272l-11.26-10.576.068-32.255s-2.804-2.912-5.54-2.853z" stroke="#000" stroke-width="1.601"/><path d="M336.688 230.416h-33.845s-12.285-25.883-10.293-43.978c2.028-18.425 12.557-27.14 26.557-27.296 16.552-.184 25.227 8.112 27.848 26.56 2.597 18.277-10.27 44.712-10.27 44.712z" stroke="#000" stroke-width="8" fill="none"/><path d="M260.46 292.112c-.553.736-4.61 8.85-4.61 8.85l7.008-1.474-2.397-7.376zm4.058 10.512l-7.376 2.397 8.852 3.505-1.476-5.9zm3.32-10.328l3.69 10.88 9.035-2.58-2.398-5.166-10.328-3.136zm5.717 14.754l1.29 4.425 11.99 2.952-4.797-10.144-8.483 2.767zm13.277-9.22l4.243 10.143 9.037-3.504-2.952-4.428-10.326-2.213zm5.902 13.83l1.476 3.873 14.016 2.03-5.9-9.222-9.59 3.32zm13.463-10.88l5.165 9.036 13.092-4.795-1.475-3.503-16.783-.736zm7.56 12.356l2.768 4.795 16.23-.552-6.088-9.037-12.91 4.796zm17.153-11.987l4.426 7.56 10.328-4.98-2.768-4.058-11.986 1.477zm16.967 5.714l-10.328 5.165 2.765 4.424 13.832-2.212-6.272-7.376zm3.32-7.93l5.347 6.64 8.67-6.824-2.953-3.136-11.063 3.32zm15.86 3.504l-8.3 6.272 2.214 3.872 11.435-2.95-5.35-7.194zm11.434-13.094l2.028 2.952-5.716 8.483-5.9-7.562 9.59-3.872zm3.873 7.378l3.504 7.008-7.008 2.398-.554-3.32 4.057-6.086z" fill="#fff"/></svg>