<svg xmlns="http://www.w3.org/2000/svg" height="480" width="640" viewBox="0 0 640 480"><defs><clipPath id="a"><path fill-opacity=".67" d="M0 0h640v480H0z"/></clipPath></defs><g clip-path="url(#a)"><path fill-rule="evenodd" fill="#0071bc" d="M-160 0h960v480h-960z"/><path d="M369.927 365.66s15.223-16.1 29.86-13.026c4.392-16.98 20.932-18.297 20.932-18.297s-1.61-18.736 19.614-22.834c.585-12.735 13.467-23.274 13.467-23.274s-2.634-19.76 10.833-24.3c-8.198-15.66 2.78-27.08 2.634-27.37-.146-.294-13.905-24.74-1.61-31.765-13.027-10.978-8.782-23.42-8.782-23.42s-14.2-3.66-9.076-20.64c-11.71-2.05-14.053-20.93-14.053-20.93s-18.004 3.658-20.2-12.005c-11.856 1.903-13.174-9.806-13.32-9.806-.146 0-23.567 6.294-28.25-11.418-9.075 4.684-13.028-3.66-13.028-3.66s-13.028 6.44-20.786-6c-15.516 9.66-24.152-.44-24.152-.44s-20.346 13.467-27.08 3.074c-12.003 12.15-22.688 6.88-22.688 6.88s-9.075 16.1-23.713 12.002c-3.365 14.93-20.2 15.223-20.2 15.223s1.758 13.174-18.442 16.687c-2.634 15.516-13.173 18.15-13.173 18.15s1.024 15.078-8.49 19.907c3.366 8.49-5.416 18.882-5.416 18.882s9.367 11.71-3.368 24.884c12.296 3.22 3.367 24.445 3.367 24.445s16.98 7.612 6.293 21.664c12.15 3.953 8.343 13.613 8.49 19.322 7.758 3.513 14.637 1.757 11.27 17.42 23.86 2.634 12.59 15.808 12.59 15.808s11.123.44 6.733 9.222c20.346-.44 23.273 15.223 23.273 15.223s18.882-4.978 21.37 2.34c2.49 7.32-8.196 56.648-8.196 56.648s-15.955 0-27.812-12.734c-27.81-.732-21.663-19.03-22.103-19.03-.44 0-9.223 3.368-13.76-11.855-18.59 3.805-18.005-11.857-18.15-12.003-.147-.147-8.344-3.806-5.27-11.564-19.175 1.756-17.71-16.98-17.71-16.98-4.198-1.707-5.76-5.61-5.125-9.514-2.488-.88-19.468-1.17-10.685-23.567-16.248-9.807-6.148-21.078-6.148-21.078s-22.396-11.563-5.123-24.883c-12.883-19.03 1.023-28.543 1.023-28.543s-17.858-18.152.293-31.033c-2.927-27.52 13.467-34.106 13.467-34.106s-8.636-22.394 14.784-31.763c1.463-22.688 17.858-23.273 17.858-23.273s.44-18.005 26.2-16.248c4.978-16.1 22.543-12.88 22.543-12.88s5.416-19.47 29.275-10.1c12.15-23.714 30.154-11.565 30.154-11.565s11.417-7.464 17.126-5.122c7.25-12.457 22.68-.483 32.66 1.928 3.615-1.406 16.522-11.15 26.476 1.146 13.173-8.636 24.444 6.88 24.444 6.88s18.15-9.22 26.64 11.856c38.498-3.513 32.935 21.664 32.935 21.664s30.3-6.88 23.712 23.273c27.52 1.903 24.738 20.054 24.738 20.054s17.418 13.173 9.806 25.03c15.516.73 9.807 15.66 9.807 15.66s11.856 4.54 2.05 22.983c22.687 18.15 4.39 36.155 4.244 36.01-.146-.148 12.15 14.636 1.025 31.616 3.367 26.932-10.246 33.812-10.246 33.812s3.513 17.42-11.71 22.396c-.293 20.492-19.615 22.98-19.615 22.98s5.125 8.903-14.05 18.27c-.757 13.713-20.786 14.813-20.786 14.813s-1.903 25.177-27.373 18.444c-6.18 20.2-36.007 14.198-36.592 13.905-.586-.294-5.71-43.328-5.71-43.475z" fill-rule="evenodd" stroke="#000" stroke-width="1.857" fill="#fff"/><path stroke-linejoin="round" d="M184.94 124.083c.074 0 6.455 5.534 5.264 13.875-1.192 8.34-6.01 19.935-5.04 28.573.59 3.464.367 9.67.367 9.67s-5.783-8.22-5.858-17.008 6.264-17.13 6.264-23.61-1.145-11.648-.996-11.5zm-3.168 2.49s-8.373 7.992-9.45 15.76c-.798 4.004-1.107 22.662-1.2 30.943-.19 2.54-1.24 12.57-1.465 16.218-.224 3.65 6.16-6.23 6.524-14.272-.2-8.325-.2-25.86.647-28.496.753-3.387.59-7.13 1.754-10.528 1.54-4.715 3.267-9.552 3.192-9.626z" fill-rule="evenodd" stroke="#000" stroke-width="1.857" fill="#217900"/><g fill-rule="evenodd" stroke="#ef8a10" fill="#ffd200"><path d="M365.965 100.453s10.856-5.008 13.96-14.335-9.396-9.416-11.047-6.45c-1.65 2.963 1.408 10.344.62 12.295-.788 1.952-5.204 6.662-3.533 8.49zM269.745 103.855s7.048-9.657 5.22-19.316c-1.827-9.658-12.79-3.655-12.79-.26 0 3.392 6.265 8.35 6.526 10.44.26 2.087-1.304 8.352 1.045 9.135zM250.69 109.6s7.05-9.66 5.22-19.317c-1.826-9.658-12.79-3.655-12.79-.26 0 3.392 6.266 8.35 6.527 10.44.26 2.088-1.305 8.352 1.044 9.135zm-21.14 6.524s7.047-9.658 5.22-19.316c-1.828-9.658-12.79-3.655-12.79-.26 0 3.392 6.264 8.35 6.525 10.44.26 2.088-1.305 8.352 1.044 9.135zM214.672 131s7.047-9.656 5.22-19.315c-1.827-9.657-12.79-3.654-12.79-.26 0 3.392 6.264 8.352 6.526 10.44.26 2.088-1.306 8.353 1.044 9.136zM199.01 145.36s7.048-9.658 5.22-19.316c-1.826-9.658-12.79-3.655-12.79-.26 0 3.392 6.265 8.35 6.526 10.44.26 2.088-1.305 8.352 1.045 9.135zM235.018 61.727s-9.385 7.406-10.222 17.2c-.837 9.793 11.336 6.96 12.248 3.69.913-3.268-3.787-9.73-3.477-11.81.31-2.082 3.504-7.695 1.45-9.08zm31.322-9.66s-9.385 7.408-10.222 17.2c-.837 9.794 11.336 6.96 12.25 3.69.91-3.267-3.79-9.73-3.48-11.81.31-2.08 3.505-7.693 1.452-9.08zm-116.723 84.556s1.982 11.79 10.167 17.233c8.185 5.442 11.552-6.595 9.125-8.966s-10.353-1.357-12.03-2.63c-1.675-1.272-5.06-6.77-7.263-5.637zm-15.643 40.033s.097 11.956 7.32 18.622c7.224 6.665 12.45-4.69 10.426-7.414s-10.01-2.973-11.463-4.494c-1.454-1.522-3.93-7.485-6.283-6.714zm36.09 44.725s-4.267-11.168-13.364-14.89c-9.097-3.723-10.026 8.74-7.18 10.588 2.848 1.847 10.417-.71 12.31.207 1.895.918 6.3 5.64 8.234 4.096zm-7.497-19.327s7.234-9.52 5.595-19.21c-1.64-9.692-12.716-3.903-12.782-.51-.066 3.392 6.1 8.472 6.32 10.565.22 2.093-1.467 8.326.867 9.154zM388.15 110.11s10.856-5.008 13.96-14.334-9.396-9.417-11.048-6.452c-1.65 2.964 1.41 10.345.62 12.297-.788 1.95-5.204 6.662-3.533 8.49zm32.825 16.374s6.386-10.107 3.917-19.622c-2.47-9.514-13.006-2.79-12.78.595.228 3.386 6.81 7.915 7.21 9.98.4 2.067-.743 8.422 1.653 9.047zm89.606 93.026s-4.28-11.162-13.383-14.873c-9.102-3.71-10.014 8.755-7.165 10.598 2.85 1.843 10.416-.724 12.31.19 1.896.916 6.306 5.633 8.24 4.085zm-43.816 6.933s.248-11.953 7.555-18.528c7.306-6.574 12.387 4.845 10.33 7.545-2.057 2.698-10.045 2.846-11.52 4.35-1.472 1.5-4.023 7.433-6.366 6.632zm-7.05-126.76s-11.176-4.244-20.008.07c-8.832 4.314-.145 13.3 3.128 12.404 3.272-.897 6.4-8.248 8.345-9.052 1.945-.803 8.4-.948 8.535-3.42zM434.14 78.28s-11.178-4.246-20.01.068c-8.83 4.315-.145 13.3 3.128 12.405 3.273-.897 6.4-8.25 8.346-9.052 1.945-.803 8.4-.947 8.535-3.42zM396 57.87s-9.474 7.29-10.432 17.072c-.957 9.783 11.25 7.098 12.202 3.84.953-3.256-3.667-9.774-3.332-11.852.336-2.077 3.598-7.65 1.563-9.06zm-24.84-5.976s-4.32 11.148-.066 20.008c4.254 8.86 13.3.236 12.425-3.043-.876-3.28-8.206-6.458-8.997-8.408-.79-1.95-.89-8.407-3.363-8.558zM300.715 94.85s7.728-9.12 6.605-18.885c-1.123-9.765-12.49-4.572-12.737-1.187-.246 3.384 5.643 8.784 5.752 10.886.11 2.1-1.907 8.236.38 9.187z"/></g><path d="M342.775 114.432s18.526 1.166 19.433 11.79-4.405 17.1-4.405 17.1 2.332 22.93-15.805 29.667c-19.433 2.33-49.877.518-49.877.518s-8.94 2.202-12.565-16.324c-3.628-18.525-4.664-31.61-4.664-31.61s1.815-10.365 14.9-11.012c13.084-.648 52.856.13 52.986-.13z" fill-rule="evenodd" stroke="#000" stroke-width="1.857" fill="#8c8a8c"/><path d="M357.674 143.193s-9.976 12.437-8.94 17.49" stroke="#000" stroke-linecap="round" stroke-width="1.857" fill="none"/><path d="M344.333 172.337c2.462 2.073 4.793 4.405 5.312 12.05l1.036 15.286 12.956 116.595 11.4 84.34.778 13.084s-2.72 9.586-10.364 10.363c-5.57 11.66-35.756 15.028-38.736 14.9-2.72-.13-12.308-4.147-18.138-3.63-5.83.52-15.935 4.406-20.47 3.758-4.533-.647-14.767-4.145-16.58-11.53-12.697-4.016-14.77-13.732-14.77-13.732l13.733-97.553 13.342-123.33s1.555-16.453 8.162-18.915c6.866-.648 42.363.648 52.338-1.684z" fill-rule="evenodd" stroke="#000" stroke-width="1.857" fill="#8c8a8c"/><path d="M274.375 341.147l-2.72 86.28m86.54-74.88l7.645 71.124" stroke="#000" stroke-width="1.857" fill="none"/><path d="M136.572 296.312l-.284.995m358.684-4.12l.284.996" stroke="#000" stroke-width=".968" fill="none"/><path stroke-linejoin="round" d="M126.965 179.83s5.675 7.86 6.694 12.37c1.018 4.512 2.91 13.39 5.384 17.028 2.474 3.638 16.59 23.868 17.32 32.308.144 5.53-5.823 14.99-14.7 15.136-5.53-.146-19.793-3.784-20.376-16.01-.582-12.225 4.366-12.515 4.95-19.937.58-7.423.726-40.75.726-40.896z" stroke="#6b18b5" stroke-width="1.857" fill="none"/><path stroke-linejoin="round" d="M224.466 72.814s-5.876.42-10.4 2.872c-3.505 2.16-9.443 5.27-13.592 11.024-10.554 8.227-26.43 12.066-31.438 18.9-2.997 4.65-2.813 15.834 4.697 20.57 4.8 2.75 18.878 7.05 25.726-3.094 6.848-10.144 2.77-12.963 6.13-19.608 5.54-15.23 18.8-30.54 18.877-30.664zm142.546-14.846s-4.39-3.93-9.298-5.474c-3.99-1.015-10.638-.573-17.516-1.248-13.25-1.86-26.913-11.442-35.306-10.285-5.425 1.082-13.33 8.994-11.51 17.684 1.365 5.36 7.36 16.203 19.412 14.068 12.05-2.136 11.947-4.765 19.056-6.974 17.34-9.724 35.02-7.738 35.162-7.77zm141.36 137.396c.99-2.26-.83-6.512-2.126-11.492-1.256-3.922-3.132-10.01-7.72-15.42-5.452-12.22-4.517-28.977-9.95-35.48-3.793-4.026-14.693-6.533-21.094-.38-3.822 4-11.377 16.632-3.175 25.716 8.202 9.084 11.776 5.663 17.42 10.518 13.454 9.038 20.043 24.88 26.646 26.537zm-4.82 106.752c1.838-2.544 5.127-7.446 4.736-11.53-.31-3.233 1.482-13.037 1.678-17.315 1.216-13.325 9.557-24.14 7.29-35.72-1.343-5.365-9.204-13.02-17.795-10.782-5.288 1.623-17.064 8.103-14.35 20.036 2.718 11.934 6.574 11.736 9.124 18.73 7.32 14.46 2.636 31.637 9.318 36.58z" stroke="#6b18b5" stroke-width=".968" fill="none"/><path d="M405.485 386.834s-2.26 4.344 6.777 8.167m11.298-18.417s10.078-2.433 16.855 0m13.203-25.376c0 .174-1.39 4.518 6.603 10.773m-.867-22.06s5.908 4.344 15.812 4.17m-75.415 8.51s.348 11.467-5.56 16.854m25.367-34.582s9.73 2.433 17.724-1.564m44.664-15.284s2.085 2.954 12.86 2.433m-54.91-9.212c.348.174 12.685 4.17 20.505.522m4.166-47.785s.52-.695 4.344 12.685m5.21-50.392s-.52 7.124-6.255 10.252m42.92-39.45s-8.34 6.778-6.778 9.558m-34.75-14.42s4.343 7.297-2.78 12.336m-18.246-43.613s7.473-.347 10.775 6.082m-24.845-27.282h5.734m23.976-26.063c0 .173 1.563 1.563-1.39 4.517m-51.956-3.822s3.996 6.256 3.3 13.902m19.813-35.102c1.738-.174 7.646-2.78 7.646-2.78m-33.36-22.07c-.175 0-2.26 7.82 1.563 10.6m-11.128 25.024c0 8.34 6.603 6.255 2.085 14.248m-18.246-21.2c-.173 0-10.425 7.993-10.425 9.383M355.437 92.65s4.344 4.343 3.302 10.25m-15.982-13.727s-2.26 6.603-5.213 8.34m-17.9-10.078c-.174.348-3.65 7.82-6.082 9.21M288.02 87.61c.174 0 3.475 6.95-.87 11.99m-6.43-47.96c.172.173.694 5.386-2.608 9.904m-28.67 1.912c0 .173 1.39 5.908-7.82 7.82m-9.898 45.174c.174.348 8.862 1.738 8.862 1.738m-30.583 18.426c.174-.174 10.6-3.3 10.6-3.3m-27.457 16.328c.348 0 7.298 1.216 9.036.347m-13.9 6.083s2.26 1.216.347 12.858m-34.235-43.438l4.17 6.256M140.15 157.64c0-.175 4.17 6.254 9.73 7.47m23.112 25.198c.173 0 6.776-1.39 7.82-2.085m-10.78 25.712c.175 0-.173-4.344 5.214-7.298m-12.34 18.072c0 .172 5.04 6.428 8.514 7.297m-11.465 4.693c.522-.173 5.908-4.865 12.164-4.518m-13.905 20.678s.174 5.388 16.16 3.998m-14.594 14.94c0-.175 4.693-10.774 14.25-14.77m-1.386 28.328s1.39-4.518 9.382-7.646m-.523 25.538s5.734-4.692 7.82-5.387m-.693 19.294s3.475 3.65 12.163-2.606m-54.048 5.556c1.043-.174 13.727-3.127 18.072 3.476m-13.024 6.95s13.38-1.738 15.117-.348m32.667 3.132s-1.737 3.65 14.77-2.432m5.733 9.038c-2.954 5.04.695 9.035-3.128 11.294m-47.093-4.35c.52-.347 6.08-2.26 5.212-10.252m-.175 22.244c.696-.174 9.905-4.17 11.817-2.085m6.258 13.73s1.217-8.167 3.823-9.036m10.075 21.367s7.646-.173 10.948-2.605m3.82-25.015c.174.173 7.124 3.822 21.894.173m-16.333 33.01s2.084 10.6 1.91 13.032" stroke="#000" stroke-width="1.857" fill="none"/><g fill-rule="evenodd" stroke="#000" stroke-width="1.483" fill="#de2010"><path d="M494.063 225.41c-.434-3.497-2.12-6.568-4.418-8.058-2.3-1.49-4.865-1.168-6.725.84s-2.74 5.402-2.3 8.898c.434 3.496 2.12 6.567 4.418 8.057 2.3 1.49 4.863 1.168 6.725-.84s2.74-5.402 2.3-8.898zM492.626 207.757c-.434-3.496-2.12-6.567-4.418-8.057-2.3-1.49-4.865-1.168-6.725.84s-2.74 5.402-2.3 8.898c.434 3.496 2.12 6.567 4.418 8.057 2.3 1.49 4.864 1.168 6.726-.84s2.74-5.402 2.3-8.898zM489.04 188.904c-.74-3.445-2.688-6.356-5.11-7.638-2.422-1.28-4.948-.736-6.624 1.428s-2.255 5.62-1.51 9.064c.74 3.445 2.688 6.356 5.11 7.638 2.42 1.28 4.946.737 6.624-1.428s2.255-5.62 1.51-9.064zM482.503 169.198c-1.593-3.143-4.218-5.46-6.886-6.084-2.67-.62-4.973.55-6.042 3.07s-.748 6.01.85 9.15c1.594 3.143 4.22 5.46 6.888 6.084 2.667.62 4.97-.55 6.042-3.07s.747-6.01-.852-9.15zM475.525 153.393c-1.593-3.143-4.218-5.46-6.886-6.084-2.67-.622-4.974.55-6.043 3.07s-.748 6.01.85 9.15c1.594 3.142 4.22 5.46 6.888 6.083 2.667.62 4.97-.55 6.042-3.07s.747-6.01-.852-9.15zM465.594 137.498c-1.853-2.996-4.665-5.083-7.377-5.478-2.71-.393-4.908.97-5.76 3.57s-.236 6.053 1.623 9.045c1.854 2.997 4.666 5.084 7.377 5.48 2.71.392 4.907-.97 5.76-3.572s.236-6.052-1.623-9.045zM454.552 122.177c-2.135-2.803-5.136-4.608-7.873-4.74-2.738-.128-4.792 1.44-5.39 4.112s.352 6.045 2.49 8.844c2.136 2.803 5.137 4.61 7.874 4.74 2.735.13 4.79-1.438 5.388-4.11s-.35-6.048-2.49-8.847zM441.38 107.897c-2.518-2.464-5.75-3.816-8.476-3.55-2.727.27-4.533 2.12-4.736 4.85s1.224 5.932 3.746 8.39c2.52 2.465 5.75 3.817 8.476 3.55 2.726-.27 4.532-2.118 4.736-4.85s-1.224-5.93-3.746-8.39zM426.54 94.76c-2.733-2.22-6.074-3.27-8.765-2.752-2.69.52-4.32 2.526-4.27 5.263s1.765 5.795 4.503 8.012c2.734 2.222 6.076 3.27 8.766 2.754 2.69-.518 4.318-2.525 4.27-5.264s-1.764-5.794-4.503-8.01zM410.832 84.276c-3.065-1.737-6.534-2.217-9.102-1.26-2.567.958-3.84 3.208-3.336 5.9s2.7 5.42 5.77 7.15c3.064 1.74 6.534 2.218 9.1 1.26 2.567-.956 3.84-3.205 3.338-5.898s-2.702-5.42-5.77-7.152zM393.247 74.95c-3.21-1.45-6.71-1.61-9.18-.425-2.468 1.188-3.53 3.544-2.785 6.178s3.184 5.153 6.397 6.598c3.21 1.452 6.708 1.613 9.178.427 2.468-1.187 3.53-3.543 2.785-6.178s-3.183-5.154-6.396-6.6zM375.994 68.005c-3.3-1.233-6.802-1.16-9.187.19-2.384 1.35-3.286 3.773-2.365 6.35s3.522 4.93 6.825 6.155c3.3 1.232 6.802 1.16 9.186-.19 2.384-1.35 3.286-3.77 2.366-6.35s-3.523-4.93-6.826-6.155zM358.465 62.516c-3.385-.977-6.87-.636-9.145.89-2.274 1.53-2.988 4.014-1.874 6.514s3.888 4.644 7.275 5.615c3.385.977 6.87.637 9.146-.89 2.273-1.528 2.988-4.012 1.874-6.514s-3.888-4.643-7.275-5.614zM339.173 59.226c-3.495-.444-6.887.43-8.9 2.288-2.01 1.86-2.334 4.426-.848 6.724s4.557 3.99 8.052 4.428c3.495.444 6.887-.43 8.9-2.288 2.01-1.86 2.334-4.424.848-6.724s-4.557-3.99-8.052-4.428zM320.126 58.153c-3.52-.144-6.825 1.014-8.672 3.038-1.845 2.027-1.95 4.61-.272 6.773s4.88 3.588 8.4 3.726c3.52.144 6.826-1.015 8.672-3.04 1.846-2.023 1.95-4.606.272-6.77s-4.88-3.59-8.4-3.727zM302.68 58.77c-3.52-.143-6.825 1.015-8.672 3.04-1.845 2.025-1.95 4.608-.272 6.77s4.88 3.59 8.4 3.727c3.52.145 6.826-1.014 8.672-3.038 1.846-2.025 1.95-4.608.272-6.773s-4.88-3.588-8.4-3.726zM282.218 61.196c-3.435.782-6.322 2.766-7.574 5.202-1.25 2.438-.675 4.958 1.51 6.607s5.65 2.185 9.083 1.397c3.435-.782 6.32-2.766 7.574-5.203 1.252-2.437.676-4.956-1.51-6.607s-5.648-2.185-9.082-1.397zM263.618 65.845c-3.36 1.063-6.072 3.278-7.12 5.81-1.045 2.533-.263 4.996 2.05 6.46s5.81 1.71 9.167.642c3.36-1.062 6.072-3.277 7.12-5.81 1.045-2.53.263-4.994-2.05-6.46s-5.81-1.71-9.167-.642zM246.647 73.125c-3.21 1.455-5.638 3.978-6.377 6.616-.736 2.64.334 4.993 2.805 6.17s5.972 1.008 9.178-.453c3.21-1.455 5.64-3.977 6.377-6.616.737-2.637-.333-4.99-2.805-6.17s-5.972-1.006-9.178.455zM229.71 81.805c-3.072 1.724-5.277 4.444-5.788 7.136-.508 2.694.758 4.947 3.32 5.91s6.038.493 9.107-1.236c3.072-1.724 5.278-4.444 5.788-7.136.51-2.69-.757-4.944-3.32-5.908s-6.037-.494-9.107 1.235zM213.695 92.663c-2.867 2.048-4.764 4.992-4.98 7.723-.212 2.732 1.292 4.834 3.944 5.512s6.053-.165 8.917-2.217c2.867-2.046 4.764-4.99 4.98-7.722.213-2.73-1.29-4.832-3.944-5.512s-6.055.165-8.918 2.217zM198.875 103.897c-2.684 2.283-4.325 5.377-4.308 8.117.02 2.74 1.695 4.707 4.395 5.158s6.02-.676 8.7-2.964c2.682-2.282 4.323-5.376 4.306-8.116-.018-2.74-1.694-4.706-4.395-5.16s-6.02.678-8.698 2.965zM185.787 117.567c-2.513 2.47-3.928 5.673-3.715 8.405.216 2.73 2.03 4.573 4.754 4.83s5.955-1.106 8.464-3.58c2.513-2.47 3.928-5.673 3.715-8.404-.215-2.73-2.028-4.573-4.755-4.83s-5.954 1.106-8.463 3.58zM174.525 132.762c-2.298 2.67-3.44 5.98-3 8.685.445 2.704 2.406 4.388 5.143 4.416s5.84-1.6 8.134-4.276c2.298-2.67 3.44-5.982 2.998-8.686-.442-2.702-2.403-4.386-5.14-4.414s-5.843 1.6-8.135 4.276zM164.226 148.312c-2 2.9-2.782 6.315-2.055 8.956.73 2.642 2.86 4.107 5.584 3.842s5.637-2.215 7.632-5.12c2-2.9 2.782-6.313 2.055-8.955-.727-2.64-2.857-4.105-5.583-3.842s-5.637 2.215-7.63 5.12zM155.65 165.958c-1.472 3.2-1.656 6.698-.486 9.176 1.172 2.476 3.52 3.554 6.16 2.825s5.173-3.15 6.64-6.354c1.47-3.2 1.655-6.7.485-9.176-1.172-2.476-3.52-3.554-6.16-2.826s-5.174 3.15-6.64 6.354zM148.854 184.378c-1.176 3.32-1.042 6.82.348 9.182 1.39 2.36 3.83 3.22 6.39 2.256s4.867-3.606 6.036-6.93c1.176-3.32 1.042-6.82-.348-9.182-1.39-2.36-3.827-3.22-6.39-2.255s-4.867 3.605-6.036 6.928zM142.948 219.288c-.33 2.812.655 5.507 2.58 7.07 1.926 1.562 4.5 1.753 6.748.502s3.838-3.756 4.16-6.57c.33-2.81-.655-5.505-2.58-7.07-1.925-1.56-4.498-1.752-6.748-.5s-3.838 3.756-4.16 6.568zM144.53 202.994c-.787 3.435-.253 6.896 1.4 9.082 1.653 2.184 4.173 2.76 6.607 1.506s4.42-4.14 5.2-7.577c.786-3.434.25-6.895-1.4-9.08-1.653-2.186-4.173-2.76-6.61-1.508s-4.418 4.142-5.198 7.577z"/></g><path d="M480.012 194.65c2.146-2.297 4.143-2.946 6.67-2.11-.892-6.06-2.81-8.115-5.146-7.385-2.336.73-3.393 3.845-1.524 9.496zm3.28 18.284c2.314-2.13 4.354-2.626 6.81-1.6-.432-6.11-2.19-8.305-4.574-7.754-2.384.552-3.673 3.58-2.235 9.354zm-7.762-34.984c1.493-2.766 3.26-3.902 5.915-3.733-2.4-5.635-4.778-7.137-6.852-5.838-2.074 1.3-2.305 4.58.938 9.57zm-8.136-16.638c1.492-2.767 3.258-3.903 5.914-3.734-2.4-5.635-4.777-7.137-6.852-5.838-2.074 1.3-2.305 4.58.938 9.572zm-19.52-30.494c1.028-2.97 2.59-4.375 5.238-4.635-3.275-5.176-5.863-6.277-7.7-4.66s-1.54 4.89 2.462 9.295zm-12.757-13.288c.915-3.008 2.42-4.47 5.058-4.83-3.468-5.05-6.095-6.05-7.87-4.367-1.778 1.684-1.355 4.947 2.812 9.197zm-26.83-22.635c-.056-3.143.927-5 3.325-6.154-4.855-3.734-7.663-3.877-8.834-1.73-1.17 2.15.236 5.125 5.51 7.885zm13.96 10.465c.49-3.105 1.778-4.762 4.34-5.484-4.136-4.52-6.876-5.147-8.4-3.234-1.527 1.914-.657 5.087 4.06 8.718zM392.36 86.106c-.38-3.12.406-5.067 2.672-6.463-5.214-3.215-8.022-3.068-8.965-.81-.944 2.26.762 5.072 6.292 7.273zm-16.274-7.104c-.822-3.035-.323-5.074 1.72-6.78-5.62-2.435-8.378-1.888-8.99.482-.61 2.37 1.482 4.91 7.27 6.298zm-17.535-5.433c-1.076-2.955-.75-5.03 1.14-6.902-5.807-1.95-8.51-1.172-8.916 1.24-.408 2.415 1.89 4.768 7.776 5.66zm-17.223-3.336c-1.286-2.868-1.112-4.96.638-6.965-5.932-1.527-8.57-.555-8.802 1.882-.232 2.436 2.23 4.617 8.165 5.082zm-18.24-1.398c-1.577-2.72-1.62-4.818-.087-6.993-6.06-.902-8.582.338-8.56 2.785.022 2.447 2.698 4.362 8.648 4.208zm-35.714 2.69c-2.186-2.258-2.735-4.285-1.772-6.766-6.097.585-8.247 2.397-7.635 4.767.61 2.37 3.67 3.582 9.406 2zm17.58-2.314c-1.86-2.534-2.13-4.616-.84-6.943-6.12-.247-8.496 1.258-8.21 3.69.284 2.43 3.15 4.044 9.05 3.252zm-34.828 6.04c-2.488-1.92-3.32-3.85-2.723-6.442-5.95 1.454-7.82 3.555-6.874 5.813.946 2.257 4.147 3.02 9.598.63zm-33.026 15.185c-2.808-1.413-3.992-3.147-3.9-5.806-5.564 2.56-6.998 4.978-5.64 7.014 1.356 2.037 4.643 2.176 9.54-1.207zm15.926-8.135c-2.616-1.744-3.58-3.608-3.165-6.237-5.835 1.864-7.552 4.09-6.452 6.277 1.1 2.186 4.346 2.723 9.618-.04zm-45.548 28.76c-3.04-.798-4.56-2.247-5.024-4.867-4.91 3.662-5.808 6.326-4.057 8.035 1.75 1.71 4.995 1.16 9.08-3.17zm14.132-11.567c-2.97-1.033-4.37-2.596-4.627-5.245-5.182 3.267-6.286 5.852-4.673 7.693 1.612 1.84 4.89 1.548 9.3-2.448zm-26.69 23.935c-3.1-.518-4.746-1.822-5.445-4.39-4.557 4.094-5.21 6.83-3.31 8.37 1.9 1.544 5.08.702 8.755-3.98zm-11.252 14.603c-3.135-.234-4.892-1.384-5.822-3.878-4.166 4.49-4.567 7.273-2.535 8.637 2.032 1.364 5.123.237 8.356-4.76zm-9.417 14.933c-3.133.25-5.045-.618-6.346-2.94-3.43 5.075-3.4 7.886-1.183 8.923 2.217 1.036 5.1-.55 7.53-5.984zm-8.267 15.95c-3.075.655-5.083.043-6.674-2.09-2.742 5.477-2.348 8.26-.015 9 2.333.74 4.984-1.207 6.69-6.91zm-6.614 16.37c-2.932 1.133-5.012.847-6.92-1.007-1.84 5.84-1.01 8.527 1.41 8.89 2.42.36 4.73-1.983 5.51-7.883zm-4.43 18.232c-2.85 1.326-4.944 1.18-6.972-.542-1.444 5.952-.437 8.577 2.003 8.775 2.44.2 4.586-2.293 4.97-8.232zm-1.8 15.186c-2.684 1.42-4.775 1.59-6.968.515-.798 4.85.48 6.767 2.918 6.594 2.438-.173 4.3-2.412 4.05-7.11zm306.985-72.22c1.073-2.956 2.655-4.337 5.307-4.557-3.196-5.225-5.766-6.364-7.63-4.777-1.862 1.587-1.612 4.868 2.323 9.332zm25.168 84.986c2.313-2.13 4.352-2.626 6.808-1.6-.43-6.11-2.19-8.305-4.573-7.753-2.384.55-3.673 3.578-2.235 9.353z" fill-rule="evenodd" fill="#ffe300"/><path stroke-linejoin="round" d="M461.32 132.01c-.075 0-6.926 6.852-5.735 15.192 1.192 8.34 6.48 18.618 5.51 27.257-.967 8.638-2.53 14.372-2.53 14.372s8.042-9.16 8.117-17.948c.074-8.788-5.51-20.33-5.51-26.81s.297-12.212.148-12.063zm12.73 27.996s-5.36 3.947-4.84 13.033c.52 9.084 9.905 25.766 9.905 25.766s6.85 14.075 6.628 17.724c-.224 3.65 1.266-3.5.596-11.543s-11.023-25.767-11.023-25.767-2.234-3.65-2.01-9.68c.223-6.033.818-9.46.744-9.534z" fill-rule="evenodd" stroke="#000" stroke-width="1.857" fill="#217900"/><path d="M312.926 47.43c0-1.88-2.114-3.405-4.724-3.405s-4.724 1.525-4.723 3.405c-.002 1.88 2.113 3.405 4.722 3.405s4.725-1.524 4.724-3.405zm2.02 7.92c0-1.804-2.178-3.266-4.864-3.266-2.685 0-4.862 1.462-4.862 3.265s2.177 3.264 4.862 3.264c2.686 0 4.863-1.46 4.863-3.265zm6.04-9.378s-5.56 4.168-3.266 5.835c2.292 1.667 8.614-3.612 8.614-3.612l-5.35-2.223zM484.32 141.4c.002-1.184-.554-2.28-1.457-2.873a2.616 2.616 0 0 0-2.918 0c-.902.593-1.458 1.69-1.456 2.873-.003 1.185.553 2.28 1.455 2.874a2.616 2.616 0 0 0 2.918 0c.903-.593 1.46-1.69 1.457-2.874zm-2.123-7.945c0-1.976-1.365-3.578-3.048-3.578s-3.05 1.602-3.05 3.578 1.365 3.578 3.05 3.578 3.047-1.602 3.047-3.578zm1.462 16.16c0-1.024-.535-1.855-1.194-1.855s-1.193.83-1.193 1.856.534 1.855 1.193 1.855 1.193-.83 1.193-1.854zm4.898-14.445c0-1.172-.534-2.12-1.193-2.12-.658 0-1.192.948-1.192 2.12s.534 2.12 1.192 2.12c.66 0 1.193-.95 1.193-2.12zm-13.384 1.462c0-.952-.534-1.723-1.193-1.723s-1.192.77-1.192 1.722c0 .95.534 1.722 1.193 1.722s1.194-.77 1.194-1.722zm2.123 11.4c0-1.538-1.127-2.784-2.518-2.784s-2.52 1.246-2.52 2.784c0 1.537 1.128 2.784 2.52 2.784s2.518-1.247 2.517-2.784zm-6.63-5.04c0-1.316-.95-2.384-2.12-2.384-1.173 0-2.12 1.068-2.12 2.385s.947 2.385 2.12 2.385c1.17 0 2.12-1.068 2.12-2.385zm-1.054-6.76c0-.71-.353-1.37-.927-1.725a1.75 1.75 0 0 0-1.857 0c-.575.356-.93 1.013-.928 1.724 0 .712.353 1.37.927 1.725a1.75 1.75 0 0 0 1.856 0c.574-.356.928-1.013.927-1.724zm30.206 34.365c-2.738-3.613-7.12-5.135-9.79-3.4-2.668 1.735-2.612 6.07.125 9.682s7.12 5.134 9.79 3.4c2.667-1.736 2.61-6.07-.126-9.683zm7.78 66.652c.53-4.434-1.633-8.338-4.83-8.72-3.198-.384-6.22 2.9-6.75 7.333-.53 4.433 1.63 8.337 4.83 8.72 3.196.382 6.22-2.9 6.75-7.334zm1.644 38.794c.91-4.37-.906-8.447-4.06-9.104-3.15-.657-6.446 2.353-7.357 6.724-.91 4.37.906 8.447 4.058 9.104 3.153.657 6.447-2.353 7.36-6.724zm7.475-36.315c0-1.758-1.188-3.18-2.65-3.18s-2.652 1.422-2.652 3.18c0 1.755 1.187 3.18 2.65 3.18s2.65-1.425 2.65-3.18zm-6.493 7.29l-5.433 6.164s-5.102.132-4.837 1.79c.265 1.655 7.023 6.625 6.957 8.613-.066 1.988 4.506-.464 4.506-.464s3.644-11.066 3.644-11.132c0-.065-.2-7.686-2.186-7.553-1.988.133-2.527 2.444-2.65 2.585zm-357.39-2.435a2.586 2.586 0 1 0-5.172 0 2.586 2.586 0 0 0 5.172 0zm2.437-7.902c0-1.508-1.158-2.73-2.586-2.73s-2.586 1.222-2.586 2.73 1.157 2.73 2.586 2.73c1.428 0 2.586-1.222 2.586-2.73zm-21.234-37.577c-.97-2.174-2.99-3.386-4.512-2.707-1.52.68-1.968 2.99-1 5.165.97 2.173 2.99 3.385 4.513 2.706 1.522-.678 1.97-2.99 1-5.164zm6.413 23.41c-1.332-2.818-4.106-4.39-6.197-3.51s-2.705 3.88-1.372 6.696 4.107 4.388 6.197 3.508 2.706-3.877 1.373-6.694zm6.867 17.17c.43-3.52-1.027-6.752-3.257-7.22-2.23-.47-4.39 2.003-4.82 5.522-.432 3.52 1.026 6.752 3.256 7.22 2.23.47 4.388-2.004 4.82-5.523zm-11.018 2.506c1.38-3.266.863-6.775-1.153-7.837s-4.77.725-6.15 3.99-.863 6.776 1.153 7.837 4.77-.724 6.15-3.99zM131.28 234.812c0-1.666-1.285-3.017-2.872-3.017s-2.874 1.35-2.874 3.017 1.287 3.017 2.874 3.017 2.873-1.35 2.873-3.018zm-2.296-7.467c0-1.507-1.158-2.73-2.586-2.73-1.43 0-2.586 1.223-2.586 2.73 0 1.508 1.157 2.73 2.586 2.73s2.586-1.222 2.586-2.73zm2.445-14.367c0-2.54-1.127-4.598-2.515-4.598-1.39 0-2.514 2.06-2.514 4.598 0 2.54 1.126 4.597 2.515 4.597s2.514-2.058 2.514-4.597zm7.735-1.106c.335-2.516-.51-4.705-1.885-4.888-1.377-.184-2.764 1.708-3.1 4.225-.334 2.516.51 4.705 1.887 4.888 1.376.183 2.763-1.71 3.098-4.226zm55.12-109.978c1.026-3.564-.03-7.147-2.36-8-2.327-.856-5.046 1.34-6.07 4.905-1.025 3.564.032 7.146 2.36 8 2.33.855 5.047-1.342 6.07-4.906zm-10.468 15.862c3.07-2.613 4.383-6.227 2.93-8.07-1.452-1.846-5.12-1.222-8.19 1.39s-4.382 6.228-2.93 8.073c1.453 1.843 5.12 1.22 8.19-1.394zm-6.11-8.804c3.038-2.244 4.335-5.346 2.9-6.93s-5.064-1.047-8.1 1.196c-3.037 2.244-4.334 5.346-2.898 6.93s5.062 1.047 8.1-1.196zm23.55-15.485c2.048-1.566 2.923-3.73 1.954-4.835-.968-1.105-3.413-.73-5.46.834s-2.923 3.73-1.955 4.835c.97 1.106 3.414.732 5.462-.833zM188.978 108.47c1.4-2.163 1.494-4.496.21-5.21-1.284-.713-3.46.462-4.86 2.626s-1.495 4.497-.21 5.21c1.283.714 3.46-.46 4.86-2.625zm17.718-9.272c2.202-1.856 3.06-4.314 1.916-5.49-1.143-1.178-3.856-.627-6.058 1.23s-3.06 4.313-1.916 5.49c1.143 1.177 3.856.626 6.058-1.23zm-32.016 21.63c2.06-.103 3.612-1.128 3.47-2.29-.14-1.163-1.925-2.022-3.983-1.92-2.06.104-3.613 1.13-3.47 2.29.14 1.164 1.924 2.023 3.983 1.92zm38.76-33.125c1.4-2.164 1.495-4.497.21-5.21-1.284-.714-3.46.462-4.86 2.626s-1.495 4.496-.21 5.21c1.284.713 3.46-.463 4.86-2.627z" fill-rule="evenodd" fill="#6b18b5"/><path d="M446.83 153.375s6.386-10.108 3.917-19.62c-2.47-9.516-13.006-2.792-12.78.594.228 3.384 6.81 7.914 7.21 9.98.4 2.066-.744 8.422 1.653 9.045z" fill-rule="evenodd" stroke="#ef8a10" stroke-width=".968" fill="#ffd200"/><path stroke-linejoin="round" d="M324.883 69.303s23.012.894 23.16 15.788c-.074 2.31 0 5.065-.818 11.692 4.542-2.457 7.596-9.31 7-13.702.074-15.118-20.554-25.47-29.342-13.778zM310.29 68.633s18.542-3.873 18.69 11.02c.15 14.895-5.882 17.278-5.882 17.278s14.224-3.052 14.298-18.17c.075-15.117-18.32-21.82-27.107-10.127z" fill-rule="evenodd" stroke="#000" stroke-width="2.322" fill="#217900"/><path stroke-linejoin="round" d="M373.282 389.952s86.796-24.518 113.005-131.04C471.07 368.25 376.1 402.914 376.1 402.914l-2.818-12.963z" fill-rule="evenodd" stroke="#000" stroke-width="2.477" fill="#f7df73"/><path d="M382.186 396.584c2.682 0 9.32-7.343 13.132-8.19 3.812-.847 4.236-4.66-.142-4.8-4.377-.142-8.19 4.942-8.19 4.942s-3.812 3.247-7.766 3.67c-3.953.425-1.412 5.367 2.966 4.378z" fill-rule="evenodd" fill="#8c1800"/><path d="M432.167 359.298s-9.037 5.225-7.766 6.496c1.272 1.27 9.32-4.942 9.46-5.084.143-.14 3.39-4.094-1.693-1.412z" fill-rule="evenodd" stroke="#8c1800" stroke-width="2.477" fill="#8c1800"/><path d="M400.678 383.036s-2.683-.988 4.236-3.67c6.92-2.684 6.496-5.79 8.755-7.06 2.26-1.27 7.06-4.66 8.047-2.684s-5.083 5.93-6.495 6.354c-1.412.424-8.33 6.778-10.308 7.343-1.977.564-3.39.28-4.236-.284z" fill-rule="evenodd" fill="#8c1800"/><path d="M445.582 346.035c-5.93 6.636-5.93 6.495-5.93 6.495" stroke="#8c1800" stroke-linecap="round" stroke-width="3.019" fill="none"/><path d="M454.485 335.16l-5.648 6.92" stroke="#8c1800" stroke-linecap="round" stroke-width="2.786" fill="none"/><path d="M463.373 321.044l-6.355 10.166" stroke="#8c1800" stroke-linecap="round" stroke-width="2.554" fill="none"/><path d="M470.856 306.644l-5.224 10.45m8.616-18.084l-1.695 3.67" stroke="#8c1800" stroke-linecap="round" stroke-width="2.322" fill="none"/><path d="M478.056 288.987l-1.412 4.377" stroke="#8c1800" stroke-linecap="round" stroke-width="1.393" fill="none"/><path stroke-linejoin="round" d="M160.26 215.97s51.958-14.677 67.647-78.444c-9.11 65.454-65.96 86.204-65.96 86.204l-1.687-7.76z" fill-rule="evenodd" stroke="#000" stroke-width="1.483" fill="#f7df73" transform="matrix(-1.655 0 0 1.701 524.795 20.382)"/><path d="M250.697 394.416c-2.658 0-9.234-7.475-13.012-8.337-3.778-.863-4.197-4.745.14-4.89 4.337-.142 8.115 5.033 8.115 5.033s3.778 3.306 7.695 3.737c3.918.432 1.4 5.462-2.938 4.456z" fill-rule="evenodd" fill="#8c1800"/><path d="M195.51 197.62s-5.41 3.127-4.65 3.888c.76.76 5.58-2.958 5.664-3.043.085-.084 2.03-2.45-1.014-.845z" fill-rule="evenodd" stroke="#8c1800" stroke-width="1.483" fill="#8c1800" transform="matrix(-1.655 0 0 1.701 524.795 20.382)"/><path d="M232.373 380.624s2.66-1.006-4.197-3.737-6.436-5.894-8.675-7.188c-2.238-1.294-6.995-4.744-7.974-2.73s5.037 6.036 6.436 6.467c1.4.43 8.255 6.9 10.214 7.475 1.96.575 3.358.287 4.197-.288z" fill-rule="evenodd" fill="#8c1800"/><path d="M203.54 189.68c-3.55 3.973-3.55 3.888-3.55 3.888" stroke="#8c1800" stroke-linecap="round" stroke-width="1.807" transform="matrix(-1.655 0 0 1.701 524.795 20.382)" fill="none"/><path d="M208.87 183.17l-3.38 4.142" stroke="#8c1800" stroke-linecap="round" stroke-width="1.668" transform="matrix(-1.655 0 0 1.701 524.795 20.382)" fill="none"/><path d="M214.19 174.72l-3.804 6.086" stroke="#8c1800" stroke-linecap="round" stroke-width="1.529" transform="matrix(-1.655 0 0 1.701 524.795 20.382)" fill="none"/><path d="M218.67 166.1l-3.127 6.255m5.157-10.825l-1.014 2.198" stroke="#8c1800" stroke-linecap="round" stroke-width="1.39" transform="matrix(-1.655 0 0 1.701 524.795 20.382)" fill="none"/><path d="M222.98 155.53l-.845 2.62" stroke="#8c1800" stroke-linecap="round" stroke-width=".834" transform="matrix(-1.655 0 0 1.701 524.795 20.382)" fill="none"/><path stroke-linejoin="round" d="M490.42 239.302c.427 6.682 6.967 13.08 4.408 24.738-3.27 13.22-14.786 44.64-12.795 50.186-3.412-4.692-2.844-9.1-3.128-15.64-.285-6.54 9.525-30.85 10.378-39.096 0-7.392.71-17.486 1.137-20.188zM490.42 239.442s10.663 13.506 10.094 24.17c-.568 10.662-6.54 23.172-4.55 28.717-3.41-4.693-4.264-7.68-4.55-14.218-.283-6.54 5.26-13.79 4.124-20.9-1.137-7.108-5.26-17.77-5.118-17.77zm-349.297 2.985c-.426 6.682-5.402 12.652-2.843 24.31 3.27 13.222 14.928 30 13.08 49.192 3.412-4.693 4.407-9.953 4.69-16.493.286-6.54-12.937-28.576-13.79-36.822 0-7.392-.71-17.486-1.137-20.188zM141.123 242.575s-10.378 13.08-9.81 23.742c.142 7.11 13.222 36.822 11.232 42.367 3.412-4.69 4.407-4.123 4.264-11.23-3.84-18.2-10.664-29.857-9.526-36.966 1.137-7.108 3.98-17.913 3.84-17.913z" fill-rule="evenodd" stroke="#000" stroke-width="2.322" fill="#217900"/><path stroke-linejoin="round" fill="#fff" stroke-dashoffset="1" stroke="#000" stroke-linecap="square" stroke-width="1.935065" d="M318.438 122.958l25.834 79.513 83.592.004-67.626 49.145 25.828 79.514-67.627-49.12-67.63 49.13 25.828-79.51-67.626-49.142h83.592z"/></g></svg>