<svg xmlns="http://www.w3.org/2000/svg" height="480" width="640" viewBox="0 0 640 480"><g fill-rule="evenodd"><path fill="#f41408" d="M0 0h639.998v480H0z"/><path fill="#21873b" d="M0 319.997h639.998V480H0z"/><path d="M0 0h639.998v160.003H0z"/><path d="M220.48 141.06c22.307-49.262 84.5-72.826 138.83-52.597 27.36 10.188 46.74 27.754 57.986 52.56l-196.81.037zm-25.97 6.365c-23.45-1.577-48.377-6.456-52.444-7.798-4.066-1.343-4.223-3.585-3.722-5.303.5-1.717 3.096-3.667 6.127-2.94 5.683 1.363 28.79 6.905 50.035 16.044zm124.63-85.91c-4.21-20.98-5.27-44.08-4.86-47.986.41-3.907 2.764-4.61 4.723-4.6 1.96.007 4.693 1.795 4.68 4.637-.027 5.33-.132 27.003-4.544 47.948zm11.54.486c-2.21-21.23-1.087-44.325-.31-48.185.78-3.86 3.19-4.376 5.142-4.216 1.952.16 4.507 2.152 4.224 4.983-.53 5.308-2.682 26.893-9.057 47.418zm10.46 1.286c-.277-21.322 2.94-44.256 4.065-48.046 1.126-3.79 3.576-4.123 5.506-3.818 1.93.305 4.296 2.483 3.758 5.283-1.01 5.25-5.113 26.6-13.33 46.58zm11.01 2.233c1.792-21.263 7.22-43.85 8.71-47.537 1.49-3.684 3.963-3.82 5.855-3.364 1.894.457 4.04 2.815 3.23 5.56-1.514 5.15-7.673 26.09-17.796 45.34zM363 68.652c3.866-21.034 11.485-43.097 13.33-46.647 1.843-3.55 4.32-3.488 6.16-2.88 1.84.61 3.747 3.13 2.674 5.8-2.01 5.007-10.2 25.37-22.16 43.726zm10.11 3.83c5.835-20.656 15.506-42.047 17.678-45.442 2.172-3.393 4.634-3.14 6.41-2.39 1.777.75 3.438 3.408 2.117 5.986-2.478 4.833-12.552 24.486-26.206 41.848zm9.95 4.724c7.807-20.113 19.506-40.655 21.998-43.863 2.49-3.21 4.92-2.76 6.617-1.873 1.697.888 3.095 3.67 1.53 6.13-2.935 4.62-14.868 23.397-30.146 39.608zm9.41 5.468c9.71-19.42 23.34-38.958 26.13-41.958 2.79-3 5.166-2.36 6.77-1.343 1.607 1.018 2.733 3.9.937 6.228-3.367 4.368-17.06 22.132-33.838 37.074zm8.86 6.2c11.543-18.577 27-36.963 30.07-39.73 3.067-2.768 5.373-1.943 6.874-.802 1.502 1.14 2.345 4.1.332 6.278-3.775 4.086-19.126 20.698-37.277 34.255zm8.25 6.89c13.29-17.59 30.463-34.68 33.786-37.192 3.324-2.514 5.54-1.51 6.926-.254 1.386 1.255 1.94 4.27-.275 6.28-4.154 3.77-21.05 19.1-40.44 31.166zm7.58 7.545c14.942-16.466 33.7-32.123 37.254-34.362 3.554-2.24 5.665-1.062 6.924.3 1.26 1.36 1.52 4.407-.88 6.234-4.505 3.424-22.816 17.352-43.3 27.828zm6.52 7.735c16.41-15.274 36.548-29.45 40.296-31.413 3.748-1.96 5.743-.63 6.872.823 1.13 1.452 1.108 4.508-1.454 6.146-4.803 3.072-24.338 15.56-45.715 24.445zm5.9 8.388c17.79-13.944 39.192-26.508 43.112-28.172 3.92-1.663 5.782-.18 6.77 1.354.987 1.534.678 4.578-2.03 6.01-5.075 2.688-25.715 13.615-47.853 20.808zm5.47 9.557c19.137-12.39 41.73-23.103 45.803-24.43 4.073-1.328 5.775.304 6.602 1.915.827 1.61.208 4.615-2.633 5.814-5.33 2.25-26.996 11.396-49.773 16.7zm4.18 9.23c20.24-10.855 43.762-19.77 47.945-20.777 4.183-1.006 5.725.753 6.396 2.422.673 1.67-.228 4.614-3.172 5.588-5.522 1.827-27.974 9.255-51.17 12.768zm3.36 9.786c21.215-9.197 45.513-16.198 49.778-16.867 4.265-.668 5.63 1.207 6.136 2.923.507 1.716-.676 4.578-3.704 5.313-5.678 1.378-28.765 6.984-52.21 8.63zM307.85 61.912c-6.33-20.538-9.745-43.448-9.734-47.373.01-3.925 2.283-4.82 4.234-4.977 1.952-.157 4.856 1.394 5.132 4.225.518 5.31 2.624 26.898.367 48.123zm-11.1 1.3c-8.284-19.957-13.89-42.51-14.257-46.42-.367-3.91 1.81-4.982 3.74-5.293 1.93-.31 4.97 1.004 5.52 3.802 1.025 5.248 5.202 26.587 4.996 47.91zm-11.03 2.2c-10.19-19.217-17.97-41.234-18.72-45.1-.747-3.866 1.32-5.108 3.21-5.57 1.89-.465 5.05.6 5.867 3.345 1.532 5.146 7.766 26.07 9.633 47.325zm-10.4 2.947c-11.95-18.366-21.76-39.704-22.86-43.5-1.106-3.793.835-5.19 2.676-5.796 1.84-.608 5.088.212 6.16 2.883 2.01 5.008 10.18 25.376 14.03 46.412zm-10.16 3.77c-13.65-17.368-25.44-37.866-26.9-41.56-1.46-3.696.342-5.238 2.12-5.986 1.776-.748 5.09-.184 6.408 2.395 2.475 4.833 12.54 24.49 18.362 45.15zm-10.27 4.804c-15.314-16.183-29.09-35.636-30.91-39.196-1.82-3.56-.18-5.243 1.515-6.133 1.696-.89 5.05-.6 6.622 1.86 2.944 4.613 14.92 23.37 22.773 43.47zm-9.35 5.372c-16.8-14.924-32.37-33.226-34.53-36.63-2.154-3.404-.678-5.21.926-6.23 1.605-1.02 4.975-.99 6.774 1.337 3.372 4.364 17.09 22.113 26.826 41.524zm-8.76 5.976c-18.14-13.57-35.383-30.6-37.848-33.825-2.465-3.226-1.165-5.14.337-6.278 1.502-1.14 4.863-1.375 6.874.805 3.77 4.088 19.108 20.71 30.635 39.297zm-8.51 6.948c-19.4-12.053-38.25-27.62-41.02-30.634-2.773-3.014-1.666-5.024-.282-6.28 1.385-1.258 4.71-1.762 6.926.247 4.158 3.766 21.068 19.083 34.377 36.663zm-7.35 7.128c-20.448-10.533-40.67-24.614-43.71-27.406-3.04-2.792-2.124-4.88-.86-6.237 1.263-1.358 4.53-2.112 6.924-.28 4.492 3.438 22.758 17.416 37.645 33.922zm-7.04 8.142c-21.4-8.842-42.92-21.237-46.224-23.772-3.303-2.536-2.594-4.69-1.47-6.143 1.127-1.454 4.306-2.47 6.87-.837 4.812 3.062 24.377 15.51 40.823 30.753zm-6.31 8.824c-22.192-7.056-44.86-17.638-48.4-19.893-3.543-2.254-3.05-4.456-2.075-5.996s4.04-2.812 6.76-1.396c5.095 2.655 25.818 13.453 43.715 27.287zm-5.24 8.968c-22.786-5.275-46.384-14.025-50.13-15.992-3.744-1.967-3.466-4.2-2.642-5.81.825-1.613 3.756-3.12 6.6-1.926 5.33 2.243 27.014 11.362 46.17 23.728zm-4.2 8.986c-23.193-3.524-47.517-10.45-51.43-12.126-3.915-1.675-3.844-3.922-3.17-5.59.67-1.67 3.453-3.395 6.397-2.42 5.52 1.83 27.97 9.27 48.202 20.136zM194.51 147.425c-23.45-1.577-48.377-6.456-52.444-7.798-4.066-1.343-4.223-3.585-3.722-5.303.5-1.717 3.096-3.667 6.127-2.94 5.683 1.363 28.79 6.905 50.035 16.044z" fill="#f31509"/><path d="M129.386 141.522h381.23v12.562h-381.23z"/></g></svg>