<svg xmlns="http://www.w3.org/2000/svg" height="480" width="640" viewBox="0 0 640 480"><defs><clipPath id="a"><path fill-opacity=".67" d="M0 0h682.67v512H0z"/></clipPath></defs><g clip-path="url(#a)"><path fill-rule="evenodd" fill="#009a00" d="M0 0h720v150H0z"/><path fill-rule="evenodd" fill="#fff" d="M0 149.963h720v15.016H0z"/><path fill-rule="evenodd" d="M0 164.98h720v150H0z"/><path fill-rule="evenodd" fill="#fff" d="M0 314.98h720V330H0z"/><path fill-rule="evenodd" fill="#ffca00" d="M0 330h720v150H0z"/><path d="M0 0v480l315.02-240L0 0z" fill-rule="evenodd" fill="#f00"/><path fill="#ffca00" fill-rule="evenodd" d="M186.124 312.156l-48.028-35.16-47.966 35.168 18.6-56.54-48.27-34.75 59.524.22 18.128-56.647 18.184 56.68 59.477-.27-48.287 34.81z"/><path stroke-linejoin="round" d="M96.41 272.723h34.598c2.784 3.123 8.994 4.397 14.91-.037 10.844-5.938 31.824.037 31.824.037l4.13-4.39-10.07-33.048-3.614-3.872s-7.745-4.648-22.463-3.1c-14.717 1.55-19.882-.515-19.882-.515s-12.91 1.55-16.523 3.357c-.397.32-4.132 4.13-4.132 4.13l-8.778 37.438z" fill-rule="evenodd" stroke="#000" stroke-linecap="round" stroke-width="1.034614" fill="#fff"/><path stroke-linejoin="round" d="M103.382 264.205s33.048-4.13 42.602 8.52c-5.396 3.692-10.147 3.997-15.235.26.81-1.35 11.878-12.91 40.02-9.038" stroke="#000" stroke-linecap="round" stroke-width="1.034614" fill="none"/><path d="M138.752 231.157l-.256 36.405m29.69-35.893l6.197 28.918" stroke="#000" stroke-width="NaN" fill="none"/><path stroke-linejoin="round" d="M109.66 231.216l-3.438 14.91" stroke="#000" stroke-linecap="round" stroke-width="1.034614" fill="none"/><path stroke-linejoin="round" d="M73.94 276.694l8.136 9.54c.955.57 1.804.533 2.652 0l12.06-14.47 5.063-6.272c.786-.928 1.036-1.965.967-2.893l9.68-8.605c.793.055 1.265.144 2.057.198-.936-.242-1.622-.698-.886-1.723l2.17-1.688 1.688 2.17s-2.41 3.135-2.652 3.135h-2.653l-5.064 4.583 2.215 1.957 3.333 9.136 4.1-2.895-2.652-9.405 5.79-6.27-2.172-3.376 1.447-1.93s20.033 12.612 27.75 9.236c.21.075.467-8.995.467-8.995s-20.74-2.17-21.223-6.27c-.484-4.1 4.582-4.582 4.582-4.582l-2.172-3.135.483-1.688 3.618 4.583 8.2-6.994 48.235 54.987c2.633-1.068 3.195-1.712 3.377-4.34-.07-.066-47.27-54.264-47.27-54.264l3.618-3.86c.712-.802.962-1.143.963-2.41l5.548-4.823c1.67.572 2.733 1.572 3.618 2.893l15.25-12.925c.402.404 1.622.805 2.45.353l25.21-24.202-27.475 19.41-.968-.724c0-.805.998-1.003 0-2.412-1.067-1.28-2.653 1.205-2.893 1.205-.242 0-3.978-1.32-4.796-2.992l-.27 4.44-6.993 6.512-5.306-.242-7.718 7.476-.965 2.895 1.206 2.413s-4.1 3.617-4.1 3.375c0-.24-.828-1.065-.864-1.17l3.517-3.17.482-2.17-1.172-1.833c-.357.258-4.857 4.968-5.098 4.485-.405-.447-13.025-14.71-13.025-14.71l.722-2.653-8.2-8.924c-2.99-1.03-7.716-1.205-8.68 5.306-.752 1.53-6.995.24-6.995.24l-3.377.725-19.052 27.01 10.612 12.78 21.705-27.492.645-7.79 4.553 5.094c1.52.195 2.966.213 4.342-.482l12.86 14.353-2.142 2.09c.724.804 1.222 1.317 1.946 2.12.723-.48 1.413-1.06 2.136-1.543.242.323.643.934.885 1.256-1.077.586-1.832 1.367-2.91 1.953-1.725-1.126-3.39-2.524-3.262-4.752l-7.236 6.03-.24 1.206-21.465 17.846-1.93.242-.482 5.546 13.988-11.575v-1.69l1.447 1.206 10.853-8.682s.723.965.482.965-9.647 8.68-9.647 8.68l-.24.966-1.69 1.446-.965-.724-13.02 11.576H99.19l-7.233 7.236c-1.866.162-3.483.36-5.065 1.447l-12.96 11.444z" fill-rule="evenodd" stroke="#000" stroke-linecap="round" stroke-width="1.034614"/></g></svg>