<svg xmlns="http://www.w3.org/2000/svg" height="480" width="640" viewBox="0 0 640 480"><defs><clipPath id="a"><path fill-opacity=".67" d="M0 0h640v480H0z"/></clipPath></defs><g fill-rule="evenodd" clip-path="url(#a)"><path fill="#fff" d="M0 0h640v480H0z"/><path d="M-26.374.224l.803 345.543L512.534 0-26.378.222z" fill="#3662a2"/><path d="M666.37 479.56l-1.262-359.298-542.793 359.57 544.06-.266z" fill="#38a100"/><path d="M-26.028 371.822L-25.57 480l117.42-.15L665.376 95.344l-.646-94.05L548.703.224-26.03 371.82z" fill="#c70000"/><path fill="#ffe700" d="M219.556 171.927l-21.733-13.122-12.575 22.103-12.235-22.246-21.93 12.883.536-25.406-25.414.197 13.167-21.76-22.082-12.53 22.27-12.278-12.836-21.908 25.405.487-.15-25.41 21.733 13.124 12.575-22.106 12.235 22.246 21.93-12.88-.536 25.407 25.41-.2-13.165 21.76 22.08 12.532-22.27 12.278 12.84 21.906-25.405-.488z"/><path d="M232.384 112.437c0 25.544-20.87 46.252-46.613 46.252s-46.613-20.71-46.613-46.253 20.87-46.253 46.614-46.253 46.614 20.708 46.614 46.253z" fill="#3662a2"/><path d="M222.267 112.437c0 20.156-16.34 36.496-36.496 36.496s-36.496-16.34-36.496-36.496 16.34-36.497 36.497-36.497 36.497 16.34 36.497 36.497z" fill="#ffe700"/></g></svg>