<svg xmlns="http://www.w3.org/2000/svg" height="480" width="640" viewBox="0 0 640 480"><defs><clipPath id="a"><path fill-opacity=".67" d="M0-15.957h512v512H0z"/></clipPath></defs><path fill="#fff" d="M0 0h640v480H0z"/><g fill-rule="evenodd" clip-path="url(#a)"><path d="M6.135 474.15l355.3-.01L128.88 238.306l241.313.283L6.153 6.073 6.136 474.15z" stroke="#000063" stroke-width="12.975354" fill="#ce0000"/><path fill="#fff" d="M169.53 348.703l-25.312 8.382 19.802 18.63-26.675-1.713 10.99 24.606-23.966-11.528.493 26.824-17.62-19.605-10.077 24.98-8.582-24.688-19.103 19.312 1.747-26.015-25.217 10.718 11.82-23.373-27.516.48 20.102-17.185-25.603-9.827 25.314-8.37-19.813-18.63 26.673 1.702L46.01 298.81l23.966 11.53-.495-26.837 17.624 19.605 10.062-24.97 8.594 24.69 19.103-19.324-1.757 26.014 25.228-10.706-11.82 23.372 27.505-.48-20.103 17.186zm-19.2-166.128l-10.628 7.867 5.238 4.328c12.72-9.832 21.772-18.818 28.846-33.73 1.66 19.904-16.586 64.585-64.468 65.08-51.246-.044-69.028-47.452-67.05-65.92 9.414 17.08 15.16 25.41 29.937 34.3l4.52-4.15-10.008-8.34 12.885-3.35-6.932-11.668 13.5.985-1.697-13.588 11.834 6.924 3.703-12.648 8.503 10.187 7.964-9.658 4.338 13.123 11.06-7.694-1.42 13.345 13.257-1.557-6.215 12.338 12.834 3.825z"/></g></svg>