<svg xmlns="http://www.w3.org/2000/svg" height="480" width="640" viewBox="0 0 640 480"><defs><clipPath id="a"><path fill-opacity=".67" d="M0 0h496.06v372.05H0z"/></clipPath></defs><g clip-path="url(#a)"><path fill-rule="evenodd" fill="#fff" d="M.017 0h644.52v320.1H.016z"/><path d="M.017 0L-.01 24.025l153.806 79.028 57.878 1.678L.014 0z" fill="#c00"/><path d="M65.87 0l186.472 97.398V0H65.882z" fill="#006"/><path fill="#c00" d="M277.212 0v124.34H.026v71.05h277.186v124.34h85.29V195.39H639.69v-71.05H362.5V0h-85.29z"/><path d="M387.37 0v91.775L569.79.712 387.37 0z" fill="#006"/><path d="M393.137 101.78l51.298-.413L643.745.71l-52.885.863L393.137 101.78z" fill="#c00"/><path d="M.017 216.108v68.09l127.936-67.373-127.936-.723z" fill="#006"/><path d="M492.663 218.92l-53.332-.413L640.37 318.6l-1.322-22.9-146.386-76.78zm-553.506 52.13l188.51-98.97-49.517.335-188.95 98.494" fill="#c00"/><path d="M642.39 28.12l-152.243 75.496 150.218.562v112.498H512.43l126.752 68.678 1.86 34.938-67.702-.81-185.298-90.964v91.774H252.997v-91.774L79.18 320.044l-78.5.248v319.725h1279.35V.555L643.74 0M.694 36.088L.018 102.49l134.684 1.688-134-68.09z" fill="#006"/><g fill-rule="evenodd" fill="#ffd900"><path d="M640.017 0h640.016v640.017H640.017zM0 320.008h675.407v320.01H0z"/></g><g fill-rule="evenodd"><path d="M375.32 161.65c0 30.472-24.706 55.177-55.18 55.177-30.473 0-55.178-24.703-55.178-55.178s24.703-55.18 55.178-55.18c30.474 0 55.178 24.705 55.178 55.18z" fill="#000067"/><path fill="#fff40d" d="M309.892 147.496l10.612-31.73 10.61 31.728 34.43-.023-27.872 19.58 10.665 31.713-27.838-19.625-27.84 19.62 10.67-31.708-27.868-19.588zm121.954-27.982l5.258-14.852 5.26 14.852 17.064-.01-13.815 9.166 5.286 14.847-13.798-9.19-13.796 9.188 5.287-14.845-13.81-9.17zM158.962 227.542l5.26-14.853 5.26 14.853 17.063-.01-13.814 9.165 5.285 14.848-13.798-9.19-13.796 9.187 5.288-14.845-13.81-9.17zm41.987-240.352l5.26-14.853 5.258 14.853 17.064-.01-13.815 9.165 5.286 14.848-13.797-9.188-13.796 9.186 5.287-14.845-13.81-9.17zM56.814 190.478l5.26-14.853L67.33 142l17.063-.01-13.813 9.165 5.285 14.848-13.797-9.19-13.797 9.188 5.29-14.845-13.813-9.17z"/></g></g></svg>