<svg xmlns="http://www.w3.org/2000/svg" height="480" width="640" viewBox="0 0 640 480"><defs><clipPath id="a"><path fill-opacity=".67" d="M0 0h640v480H0z"/></clipPath></defs><g clip-path="url(#a)"><path fill-rule="evenodd" fill="#ef2d29" d="M-3.3-21.61h702.27v553.02H-3.3z"/><path fill-rule="evenodd" fill="#009025" d="M174.57 317.33h535.76v207.56H174.57z"/><path fill-rule="evenodd" fill="#fff" d="M174.57-35.415h564.88v190.08H174.57z"/><g stroke-width=".983" stroke="#ef2d28"><g fill-rule="evenodd" transform="matrix(.198 0 0 .177 111.26 -13.444)" fill="#fff"><rect rx="11.298" ry="11.851" height="85.039" width="138.19" y="467.72" x="17.717"/><rect rx="10.719" ry="10.864" height="77.953" width="131.1" y="471.26" x="21.26"/><path d="M82.22 492.52l6.62.26.302 3.36 5.418 3.105 4.214-3.88 5.117 3.104-4.814 3.36 1.203 4.657 6.02-.26v6.208l-4.817-.26-2.408 3.88 5.418 4.397-4.214 3.62-4.516-3.878-6.622 1.552.3 5.69-7.223.517-.904-5.43-6.02-2.847-3.31 3.88-5.118-2.845 3.01-4.396-3.613-2.845H61.15l-.302-8.018 5.117.517 3.613-4.656-4.214-3.62 5.418-4.14 3.912 3.363 6.623-1.034.903-3.363z"/><ellipse transform="matrix(.658 0 0 .702 38.845 209.62)" cx="68.944" rx="11.049" cy="426.78" ry="9.944"/><path d="M38.976 474.8l-10.63 10.63m17.717-10.63l-10.63 10.63M53.15 474.8l-10.63 10.63m17.716-10.63l-10.63 10.63m17.716-10.63l-10.63 10.63M74.41 474.8l-10.63 10.63m17.716-10.63l-10.63 10.63m17.716-10.63l-10.63 10.63M95.67 474.8l-10.63 10.63m17.715-10.63l-10.63 10.63m17.717-10.63l-10.63 10.63m17.717-10.63l-10.63 10.63M88.58 474.8l-10.63 10.63m46.063-10.63l-10.63 10.63m17.717-10.63l-10.63 10.63m17.717-10.63l-10.63 10.63m17.716-10.63l-10.63 10.63m-.002-10.63l10.63 10.63m-17.71-10.63l10.63 10.63m-17.72-10.63l10.63 10.63m-17.72-10.63l10.63 10.63m-17.71-10.63l10.63 10.63m-17.72-10.63l10.63 10.63m-17.72-10.63l10.63 10.63m-17.71-10.63l10.63 10.63m-17.72-10.63l10.63 10.63m-17.72-10.63l10.63 10.63m-17.71-10.63l10.63 10.63m-17.72-10.63l10.63 10.63m17.72-10.63l10.63 10.63M49.607 474.8l10.63 10.63M42.52 474.8l10.63 10.63M35.434 474.8l10.63 10.63M28.347 474.8l10.63 10.63M38.976 535.036l-10.63 10.63m17.717-10.63l-10.63 10.63m17.716-10.63l-10.63 10.63m17.716-10.63l-10.63 10.63m17.716-10.63l-10.63 10.63m17.717-10.63l-10.63 10.63m17.716-10.63l-10.63 10.63m17.716-10.63l-10.63 10.63m17.717-10.63l-10.63 10.63m17.715-10.63l-10.63 10.63m17.717-10.63l-10.63 10.63m17.717-10.63l-10.63 10.63m-17.718-10.63l-10.63 10.63m46.063-10.63l-10.63 10.63m17.717-10.63l-10.63 10.63m17.717-10.63l-10.63 10.63m17.716-10.63l-10.63 10.63m-.002-10.63l10.63 10.63m-17.71-10.63l10.63 10.63m-17.72-10.63l10.63 10.63m-17.72-10.63l10.63 10.63m-17.71-10.63l10.63 10.63m-17.72-10.63l10.63 10.63m-17.72-10.63l10.63 10.63m-17.71-10.63l10.63 10.63m-17.72-10.63l10.63 10.63m-17.72-10.63l10.63 10.63m-17.71-10.63l10.63 10.63m-17.72-10.63l10.63 10.63m17.72-10.63l10.63 10.63m-46.067-10.63l10.63 10.63m-17.717-10.63l10.63 10.63m-17.716-10.63l10.63 10.63m-17.717-10.63l10.63 10.63"/></g><g fill-rule="evenodd" fill="#fff" transform="matrix(.198 0 0 .177 19.131 -14.073)"><rect rx="11.298" ry="11.851" height="85.039" width="138.19" y="467.72" x="17.717"/><rect rx="10.719" ry="10.864" height="77.953" width="131.1" y="471.26" x="21.26"/><path d="M82.22 492.52l6.62.26.302 3.36 5.418 3.105 4.214-3.88 5.117 3.104-4.814 3.36 1.203 4.657 6.02-.26v6.208l-4.817-.26-2.408 3.88 5.418 4.397-4.214 3.62-4.516-3.878-6.622 1.552.3 5.69-7.223.517-.904-5.43-6.02-2.847-3.31 3.88-5.118-2.845 3.01-4.396-3.613-2.845H61.15l-.302-8.018 5.117.517 3.613-4.656-4.214-3.62 5.418-4.14 3.912 3.363 6.623-1.034.903-3.363z"/><ellipse transform="matrix(.658 0 0 .702 38.845 209.62)" cx="68.944" rx="11.049" cy="426.78" ry="9.944"/><path d="M38.976 474.8l-10.63 10.63m17.717-10.63l-10.63 10.63M53.15 474.8l-10.63 10.63m17.716-10.63l-10.63 10.63m17.716-10.63l-10.63 10.63M74.41 474.8l-10.63 10.63m17.716-10.63l-10.63 10.63m17.716-10.63l-10.63 10.63M95.67 474.8l-10.63 10.63m17.715-10.63l-10.63 10.63m17.717-10.63l-10.63 10.63m17.717-10.63l-10.63 10.63M88.58 474.8l-10.63 10.63m46.063-10.63l-10.63 10.63m17.717-10.63l-10.63 10.63m17.717-10.63l-10.63 10.63m17.716-10.63l-10.63 10.63m-.002-10.63l10.63 10.63m-17.71-10.63l10.63 10.63m-17.72-10.63l10.63 10.63m-17.72-10.63l10.63 10.63m-17.71-10.63l10.63 10.63m-17.72-10.63l10.63 10.63m-17.72-10.63l10.63 10.63m-17.71-10.63l10.63 10.63m-17.72-10.63l10.63 10.63m-17.72-10.63l10.63 10.63m-17.71-10.63l10.63 10.63m-17.72-10.63l10.63 10.63m17.72-10.63l10.63 10.63M49.607 474.8l10.63 10.63M42.52 474.8l10.63 10.63M35.434 474.8l10.63 10.63M28.347 474.8l10.63 10.63M38.976 535.036l-10.63 10.63m17.717-10.63l-10.63 10.63m17.716-10.63l-10.63 10.63m17.716-10.63l-10.63 10.63m17.716-10.63l-10.63 10.63m17.717-10.63l-10.63 10.63m17.716-10.63l-10.63 10.63m17.716-10.63l-10.63 10.63m17.717-10.63l-10.63 10.63m17.715-10.63l-10.63 10.63m17.717-10.63l-10.63 10.63m17.717-10.63l-10.63 10.63m-17.718-10.63l-10.63 10.63m46.063-10.63l-10.63 10.63m17.717-10.63l-10.63 10.63m17.717-10.63l-10.63 10.63m17.716-10.63l-10.63 10.63m-.002-10.63l10.63 10.63m-17.71-10.63l10.63 10.63m-17.72-10.63l10.63 10.63m-17.72-10.63l10.63 10.63m-17.71-10.63l10.63 10.63m-17.72-10.63l10.63 10.63m-17.72-10.63l10.63 10.63m-17.71-10.63l10.63 10.63m-17.72-10.63l10.63 10.63m-17.72-10.63l10.63 10.63m-17.71-10.63l10.63 10.63m-17.72-10.63l10.63 10.63m17.72-10.63l10.63 10.63m-46.067-10.63l10.63 10.63m-17.717-10.63l10.63 10.63m-17.716-10.63l10.63 10.63m-17.717-10.63l10.63 10.63"/></g><path d="M65.672 100.552c-34.127 33.462-48.684 37.694-41.852 40.39s28.808-14.57 51.675-37.51 36.872-43.354 30.04-46.05-3.568 7.582-39.865 43.172zM36.942 124.874l11.956 3.143c-11.252 10.69-23.91 15.09-27.428 13.203-3.516-1.886 6.33-6.287 15.472-16.346zM36.94 126.135l9.847 2.515c-10.96 10.277-21.803 13.203-24.608 11.946-2.822-1.258 5.854-4.788 14.76-14.46z" fill-rule="evenodd" fill="#fff"/><path d="M73.666 99.095c-.026.158-.104.878-.174 1.164 0 .395-.04.698-.088 1.008-.11.27-.092.52-.436.62-.237.327-.386.412-.7.544-.213.164-.536.328-.873.465-.35.133-.667.15-1.048.078-.306-.19-.532-.385-.787-.543-.06-.245-.114-.61-.174-.854.094.25.16.654.174 1.01-.033.386-.176.555-.35.852M70.435 104.293l-.087-.078c.208.185.123.097-.35-.155-.338-.154-.7-.237-1.135-.31H67.64c-.476 0-.796.063-1.136.155-.246.22-.614.343-.873.543-.266.16-.38.35-.524.62-.237.212-.39.538-.61.7-.1.356-.3.343-.438.62.412.028.742.078.96.31.364.167-.304-.163-.436-.31-.286-.077-.36-.155-.786-.155-.398-.113-.64.09-1.048.155-.24.122-.305.155-.612.155M65.718 108.174c-.178.01-.99.142-1.31 0-.357-.086-.57-.253-.787-.543-.106-.21 0 .373 0 .622-.038.457-.19.46-.435.776-.254.144-.52.347-.787.465-.22.17-.49.283-.786.388-.265.113-.575.226-.786.39-.292.184-.264.406-.437.697.032.38.1.595.348.776.104.262.335.522.525.698.216.358.455.526-.088.622-.298.114-.465.025-.786 0M60.214 113.605c-.215-.05-.977-.275-1.31-.388H57.68c-.474.032-.564.156-.96.31-.257.232-.433.393-.787.543-.188.215-.553.58-.7.854-.103.264-.174.623-.174 1.008.005.453.14.53.174.93.098.335.257.64.524.932.037.1.064.123.175.156" fill="none"/><path d="M538.13 817.98c.374 0 1.2 2.018 2.5 3.75 2.828 2.906 3.192 3.125 7.5 3.125 3.884-.143 3.522-1.532 6.25-2.5 1.29-2.008 2.896-3.6 4.375-6.25 1.006-1.634 1.89-4.13 3.125-5.625 1.14-1.854 2.563-3.254 3.75-5 1.172-.502 1.618-.984 3.126-1.25-3.6.578-3.915 1.867-6.25 3.75-1.095 1.78-2.182 3.633-3.126 5.625-.36 2.673-1.21 4.78-1.25 8.125 0 3.457.017 5.872 1.25 8.75 1.473 1.545 2.563 3.143 4.375 4.376 1.44 1.405 3.244 3.336 4.376 5 1.96 1.206 3.386 2.19 5.626 3.75 1.884 1.102 3.915 2.234 6.875 2.5 3.67-.262 4.756-1.297 7.5-2.5 2.33-1.713 4.164-2.838 6.25-4.375 1.63-1.14 3.29-3.402 4.376-5 3.382-.845 5.53-.507 7.5 1.25a16.536 16.536 0 0 1 4.375 4.376c1.02.51 2.73 1.99 3.75 2.5" transform="matrix(-.099 0 0 .098 109.457 38.807)" fill="none"/><path d="M49.22 121.496c.1.04.46.29.618.382.1.322.256.498.308.84.084.332.078.697.078 1.07-.085.39-.25.68-.386.994-.244.165-.366.285-.694.46-.308.04-.61.075-1.003.075-.234.078-.69.116-.924 0-.343-.046-.6-.184-.848-.305-.285-.16-.46-.31-.77-.46-.152-.22-.387-.422-.618-.687-.192-.257-.333-.402-.463-.688.114.327.287.612.386.918.175.325.277.44.308.84.11.32.078.705.078 1.07-.034.25-.05.714-.154.918v.23" fill="none"/><path d="M541.26 799.23v.625c0-1.687.04-.83-.625 2.5-1.18 1.462-3.944 1.868-6.25 1.25-2.022-1.67-1.96-2.935-5.625-3.75-3.542.253-4.892 1.28-6.875 2.5-2.354 1.177-3.438 1.77-5 4.375-.776 2.12-1.21 3.555 1.25 4.375 1.954 1.386 4.277 2.15 6.875 2.5 2.887 0 4.968-.34 6.25 1.25 1.983 2.055 1.875 3.277 1.875 6.875.667 1.112.8 4.394 1.25 5.625 1.736.823 2.755 1.25 5.625 1.25.674-1.93 1.423-5.42 1.875-7.5.49-2.248.64-5.38 1.875-6.875a16.58 16.58 0 0 1 4.375-4.375c.766-1.073 2.223-1.965 3.75-2.5-2.452 1.25-2.8 2.603-3.125 5.625 2.155 1.078 2.73 1.833 6.25 1.875 3.46-.29 4.295-1.17 5.625-3.125.242 3.136 1.243 4.186 1.875 6.875 1.286 1.89 1.832 3.828 3.125 6.25-.55 3.012-1.737 3.163-1.875 6.875-.81 2.435-.723 4.783-2.5 6.25-.792.97-1.384 1.16-3.125 1.25 3.618 0 5.727-.39 8.125-1.874 1.854-1.14 3.255-2.563 5-3.75 2.213-1.603 4.948-3.085 7.5-3.75 2.888 0 4.97-.34 6.25 1.25 1.77 1.264 2.96 3.446 3.75 6.25.58 3.244.8 5.404-.624 7.5-1.057 2.408-1.297 3.346 0 6.25 1.452 2.033 3.617 2.272 6.875 3.125 2.38-.127 4.67-.67 6.25-1.25" transform="matrix(-.198 0 0 .177 145.247 -13.446)" fill="none"/><g fill-rule="evenodd" transform="matrix(-.198 0 0 .177 145.247 -13.446)"><path d="M204.754 472.255C128.464 324.545 77.826 198.83 91.73 191.65c13.9-7.18 87.1 106.87 163.395 254.59l-50.37 26.015zM209.8 469.657C136.202 327.16 85.493 206.84 96.616 201.097c11.122-5.745 79.88 105.24 153.482 247.747" fill="#fff"/><path d="M222.454 395.328c8.945 16.66 18.442 35.706 27.64 53.52l-40.297 20.812c-9.2-17.813-19.233-36.58-27.64-53.52l40.297-20.812zM219.032 401.08c8.945 16.66 15.19 29.41 24.39 47.223l-30.224 15.61c-9.2-17.813-15.982-30.286-24.39-47.224l30.224-15.61zM197.108 420.382l20.15-10.406 17.885 34.63-20.15 10.406zm345.022-108.572l38.034 24.224m-20.146 10.41l2.262-45.037m-111.203-165.89l20.148-10.407" fill="#fff"/><ellipse fill="#ef0000" transform="matrix(1.605 .454 -.362 1.579 -734.9 -170.85)" cx="545.67" rx="3.543" cy="92.126" ry="3.543"/></g><path d="M98.706 99.925c34.127 33.462 48.684 37.694 41.852 40.39s-28.808-14.57-51.675-37.51-36.872-43.354-30.04-46.05 3.568 7.582 39.865 43.172zM127.436 124.247l-11.956 3.143c11.252 10.69 23.91 15.09 27.428 13.203 3.516-1.886-6.33-6.287-15.472-16.346zM127.438 125.507l-9.846 2.515c10.96 10.277 21.803 13.203 24.608 11.946 2.82-1.258-5.855-4.788-14.76-14.46z" fill-rule="evenodd" fill="#fff"/><path d="M90.71 98.468c.027.158.105.878.175 1.164 0 .396.04.7.088 1.01.11.27.092.52.436.62.236.326.385.41.698.543.214.164.537.328.874.465.35.133.667.15 1.048.078.306-.19.532-.385.787-.543.06-.245.114-.61.174-.854-.093.252-.16.655-.173 1.01.033.387.176.556.35.853M93.943 103.666l.087-.078c-.208.185-.123.097.35-.155.338-.154.7-.237 1.135-.31h1.223c.476 0 .796.063 1.136.155.246.22.614.343.873.543.267.162.38.352.525.622.237.21.39.537.61.698.1.357.3.344.438.62-.412.03-.742.08-.96.31-.364.168.304-.162.436-.31.286-.076.36-.154.786-.154.398-.113.64.09 1.048.155.24.123.305.156.612.156M98.66 107.547c.18.01.99.142 1.31 0 .358-.086.57-.253.788-.543.107-.21 0 .372 0 .62.04.458.19.462.436.777.254.145.52.348.787.466.22.17.492.283.787.388.265.112.575.225.786.388.292.185.264.407.437.698-.033.38-.102.595-.35.776-.103.262-.334.522-.524.698-.216.357-.455.525.088.62.298.115.465.026.786 0M104.164 112.977c.215-.05.977-.275 1.31-.388h1.224c.474.03.564.155.96.31.257.23.433.392.787.542.188.215.553.58.7.854.103.264.174.623.174 1.008-.007.453-.14.53-.176.93-.098.335-.257.64-.524.932-.037.1-.064.123-.175.156" fill="none"/><path d="M538.13 817.98c.374 0 1.2 2.018 2.5 3.75 2.828 2.906 3.192 3.125 7.5 3.125 3.884-.143 3.522-1.532 6.25-2.5 1.29-2.008 2.896-3.6 4.375-6.25 1.006-1.634 1.89-4.13 3.125-5.625 1.14-1.854 2.563-3.254 3.75-5 1.172-.502 1.618-.984 3.126-1.25-3.6.578-3.915 1.867-6.25 3.75-1.095 1.78-2.182 3.633-3.126 5.625-.36 2.673-1.21 4.78-1.25 8.125 0 3.457.017 5.872 1.25 8.75 1.473 1.545 2.563 3.143 4.375 4.376 1.44 1.405 3.244 3.336 4.376 5 1.96 1.206 3.386 2.19 5.626 3.75 1.884 1.102 3.915 2.234 6.875 2.5 3.67-.262 4.756-1.297 7.5-2.5 2.33-1.713 4.164-2.838 6.25-4.375 1.63-1.14 3.29-3.402 4.376-5 3.382-.845 5.53-.507 7.5 1.25a16.536 16.536 0 0 1 4.375 4.376c1.02.51 2.73 1.99 3.75 2.5" transform="matrix(.099 0 0 .098 54.92 38.18)" fill="none"/><path d="M115.158 120.868c-.1.04-.46.29-.617.382-.098.322-.255.498-.307.84-.084.332-.078.697-.078 1.07.085.39.25.68.386.994.245.165.367.285.695.46.308.04.61.075 1.003.075.235.077.692.115.925 0 .343-.047.6-.185.848-.306.286-.16.46-.31.772-.46.15-.22.386-.422.617-.687.19-.257.332-.402.462-.688-.114.326-.287.61-.386.917-.175.325-.277.44-.308.84-.108.32-.077.705-.077 1.07.035.25.052.714.155.918v.23" fill="none"/><path d="M541.26 799.23v.625c0-1.687.04-.83-.625 2.5-1.18 1.462-3.944 1.868-6.25 1.25-2.022-1.67-1.96-2.935-5.625-3.75-3.542.253-4.892 1.28-6.875 2.5-2.354 1.177-3.438 1.77-5 4.375-.776 2.12-1.21 3.555 1.25 4.375 1.954 1.386 4.277 2.15 6.875 2.5 2.887 0 4.968-.34 6.25 1.25 1.983 2.055 1.875 3.277 1.875 6.875.667 1.112.8 4.394 1.25 5.625 1.736.823 2.755 1.25 5.625 1.25.674-1.93 1.423-5.42 1.875-7.5.49-2.248.64-5.38 1.875-6.875a16.58 16.58 0 0 1 4.375-4.375c.766-1.073 2.223-1.965 3.75-2.5-2.452 1.25-2.8 2.603-3.125 5.625 2.155 1.078 2.73 1.833 6.25 1.875 3.46-.29 4.295-1.17 5.625-3.125.242 3.136 1.243 4.186 1.875 6.875 1.286 1.89 1.832 3.828 3.125 6.25-.55 3.012-1.737 3.163-1.875 6.875-.81 2.435-.723 4.783-2.5 6.25-.792.97-1.384 1.16-3.125 1.25 3.618 0 5.727-.39 8.125-1.874 1.854-1.14 3.255-2.563 5-3.75 2.213-1.603 4.948-3.085 7.5-3.75 2.888 0 4.97-.34 6.25 1.25 1.77 1.264 2.96 3.446 3.75 6.25.58 3.244.8 5.404-.624 7.5-1.057 2.408-1.297 3.346 0 6.25 1.452 2.033 3.617 2.272 6.875 3.125 2.38-.127 4.67-.67 6.25-1.25" transform="matrix(.198 0 0 .177 19.131 -14.073)" fill="none"/><g fill-rule="evenodd" transform="matrix(.198 0 0 .177 19.131 -14.073)"><path d="M204.754 472.255C128.464 324.545 77.826 198.83 91.73 191.65c13.9-7.18 87.1 106.87 163.395 254.59l-50.37 26.015zM209.8 469.657C136.202 327.16 85.493 206.84 96.616 201.097c11.122-5.745 79.88 105.24 153.482 247.747" fill="#fff"/><path d="M222.454 395.328c8.945 16.66 18.442 35.706 27.64 53.52l-40.297 20.812c-9.2-17.813-19.233-36.58-27.64-53.52l40.297-20.812zM219.032 401.08c8.945 16.66 15.19 29.41 24.39 47.223l-30.224 15.61c-9.2-17.813-15.982-30.286-24.39-47.224l30.224-15.61zM197.108 420.382l20.15-10.406 17.885 34.63-20.15 10.406zm345.022-108.572l38.034 24.224m-20.146 10.41l2.262-45.037m-111.203-165.89l20.148-10.407" fill="#fff"/><ellipse fill="#ef0000" transform="matrix(1.605 .454 -.362 1.579 -734.9 -170.85)" cx="545.67" rx="3.543" cy="92.126" ry="3.543"/></g><g fill-rule="evenodd" fill="#fff" transform="matrix(.198 0 0 .177 19.131 -14.073)"><path d="M265.73 396.85c0 124.02.654 170.76-7.493 177.17-7.72 6.857-222.82 0-222.82 35.433S212.57 680.32 265.73 680.32c70.863 0 106.294-35.434 106.294-106.3V396.85H265.73zM265.75 432.283V450c35.433 5.906 70.866 5.906 106.3 0v-17.717c-35.433 5.906-70.866 5.906-106.3 0zM265.75 396.85v17.717c35.433 5.906 70.866 5.906 106.3 0V396.85c-35.433 5.906-70.866 5.906-106.3 0zM265.75 414.567v17.717c35.433 5.906 70.866 5.906 106.3 0v-17.717c-35.433 5.906-70.866 5.906-106.3 0zM265.75 450v17.717c35.433 5.906 70.866 5.906 106.3 0V450c-35.433 5.906-70.866 5.906-106.3 0z"/><ellipse transform="matrix(.545 0 0 .144 130.46 394.32)" cx="256.89" rx="8.858" cy="210.83" ry="26.575"/><ellipse transform="matrix(.545 0 0 .144 130.46 391.13)" cx="292.32" rx="8.858" cy="246.26" ry="26.575"/><ellipse transform="matrix(.545 0 0 .144 130.46 390.49)" cx="327.76" rx="8.858" cy="263.98" ry="26.575"/><ellipse transform="matrix(.545 0 0 .144 130.46 390.49)" cx="363.19" rx="8.858" cy="263.98" ry="26.575"/><ellipse transform="matrix(.545 0 0 .144 130.46 391.13)" cx="398.62" rx="8.858" cy="246.26" ry="26.575"/><ellipse transform="matrix(.545 0 0 .144 130.46 394.32)" cx="434.06" rx="8.858" cy="210.83" ry="26.575"/><path d="M265.75 485.43l106.3 95.67m-95.67-95.67l95.67 85.04m-81.5-81.49l81.496 70.866M301.18 488.98l70.866 60.237M311.81 488.98l60.236 49.607M322.44 488.98l49.606 38.977M333.07 488.98l38.976 28.347M343.7 488.98l28.346 21.26m-17.716-21.26l17.716 14.174m-7.086-14.174l7.086 7.087m-106.296-.007l106.3 95.67m0-106.3l-116.93 106.3m106.3-106.3l-102.76 92.126m88.59-88.576l-81.496 70.866m70.866-70.866l-70.866 60.237m60.236-60.237l-60.236 49.607m49.606-49.607l-49.606 38.977m38.976-38.977l-38.976 28.347M294.1 488.98l-28.346 21.26m17.716-21.26l-17.716 14.174m7.086-14.174l-7.086 7.087m106.296-.007l-116.93 106.3m116.93-95.67l-116.93 106.3m116.93-95.67l-116.93 106.3m116.93-95.67l-116.93 106.3m116.93-95.67l-116.93 106.3m116.93-95.67l-116.93 106.3m116.93-95.67l-116.93 106.3m116.93-95.67l-116.93 106.3m116.93-95.67l-109.84 99.21m109.84-88.58l-99.212 88.583M368.5 605.9l-77.953 70.866m74.413-56.686l-63.78 56.693m56.69-38.983l-31.89 28.346M265.75 506.69l102.76 92.126m-102.763-81.49l102.76 92.127m-102.76-81.496l99.213 88.583m-99.213-77.953l99.213 88.583m-99.207-77.957l95.67 85.04m-99.22-77.95l95.67 85.04m-95.67-74.41l88.584 77.953m-92.124-70.873l88.583 77.953m-92.132-70.863l85.04 74.41m-85.04-63.783l81.495 70.865m-81.497-60.235l70.866 63.78"/><path d="M265.75 467.716v17.717c35.433 5.906 70.866 5.906 106.3 0v-17.717c-35.433 5.906-70.866 5.906-106.3 0zM255.114 612.99l63.78 56.692m-63.78-46.062l56.693 49.606m-56.694-38.976l49.606 42.52m-49.606-31.89l35.434 31.89m-35.434-21.26l28.347 24.804m-28.347-14.174l17.716 14.173"/><ellipse transform="matrix(.545 0 0 .144 130.46 447.47)" cx="256.89" rx="8.858" cy="210.83" ry="26.575"/><ellipse transform="matrix(.545 0 0 .144 130.46 444.28)" cx="292.32" rx="8.858" cy="246.26" ry="26.575"/><ellipse transform="matrix(.545 0 0 .144 130.46 443.64)" cx="327.76" rx="8.858" cy="263.98" ry="26.575"/><ellipse transform="matrix(.545 0 0 .144 130.46 443.64)" cx="363.19" rx="8.858" cy="263.98" ry="26.575"/><ellipse transform="matrix(.545 0 0 .144 130.46 444.28)" cx="398.62" rx="8.858" cy="246.26" ry="26.575"/><ellipse transform="matrix(.545 0 0 .144 130.46 447.47)" cx="434.06" rx="8.858" cy="210.83" ry="26.575"/><path d="M113.39 651.97l127.55-74.41m-134.637 70.867l120.47-70.87M102.76 641.34l109.84-63.78M99.217 634.255l95.67-56.693m-102.76 49.6l88.583-49.606m-85.043 38.983l60.236-35.433m-63.776 28.35l46.063-28.346m-46.066 17.71l31.89-17.718m0 74.407l120.47-70.86m-109.837 74.407l113.38-67.32M145.28 662.6l106.3-63.78m-95.67 67.324l88.583-53.15m-74.41 53.142l77.952-46.063m-67.322 49.607l67.323-38.976m-56.7 42.523l53.15-31.89m-38.976 31.896l42.52-24.803m-28.35 28.347l28.347-17.717m-14.164 17.713l17.717-10.63"/><path d="M258.664 574.02h-17.717c-5.906 35.433-5.906 70.866 0 106.3h17.717c-5.906-35.433-5.906-70.866 0-106.3zM49.61 623.624l42.52-35.433M49.61 598.8l42.52 42.52"/><path d="M113.388 581.1l-21.26 3.544c-4.725 22.44-4.725 41.338 0 63.777l21.26 7.088c-4.725-22.44-4.725-51.97 0-74.41zM371.917 403.94v-17.866c-15.927.15-26.544-10.48-26.545-21.26l-53.088.15c0 10.63-10.618 21.26-26.545 21.26v17.715h106.177zM296.09 343.7h45.506v21.26H296.09zm3.79-21.26h37.922v21.26H299.88zm0-21.26h37.922v21.26H299.88zm3.79-28.35h30.337v28.346H303.67zM302.36 248.03h32.953v24.803H302.36z"/><ellipse transform="matrix(1.033 0 0 1 75.354 63.779)" cx="237.4" rx="42.52" cy="161.22" ry="33.661"/><path d="M342.627 223.23c0 9.29 10.984 24.802 10.984 24.802-7.95 6.093-20.824 10.63-32.95 10.63s-27.226-2.528-32.95-10.63c0 0 10.982-15.512 10.982-24.803s-10.983-21.26-10.983-21.26c7.95-6.094 20.824-10.63 32.95-10.63 12.126 0 25 4.536 32.95 10.63 0 0-10.983 11.968-10.983 21.26zM335.312 223.23c0 9.29 10.984 28.345 10.984 28.345-7.953 6.093-13.504 7.087-25.63 7.087s-19.903 1.015-25.628-7.087c0 0 10.984-19.055 10.984-28.346s-10.984-24.804-10.984-24.804c7.952-6.093 13.502-7.087 25.63-7.087 12.124 0 17.675.993 25.628 7.086 0 0-10.984 15.512-10.984 24.803z"/><ellipse transform="matrix(1.033 0 0 1 75.354 60.236)" cx="194.88" rx="10.63" cy="166.54" ry="10.63"/><ellipse transform="matrix(1.033 0 0 1 163.23 60.236)" cx="194.88" rx="10.63" cy="166.54" ry="10.63"/><ellipse transform="matrix(1.033 0 0 1 119.29 60.236)" cx="194.88" rx="10.63" cy="166.54" ry="10.63"/><ellipse transform="matrix(1.033 0 0 1 119.29 24.803)" cx="194.88" rx="10.63" cy="166.54" ry="10.63"/><ellipse transform="matrix(1.07 0 0 1 79.931 226.77)" cx="194.88" rx="10.63" cy="166.54" ry="10.63"/><ellipse transform="matrix(1.07 0 0 1 140.61 226.77)" cx="194.88" rx="10.63" cy="166.54" ry="10.63"/><path d="M292.287 364.96h53.09l-26.545 31.89-26.545-31.89z"/><ellipse transform="matrix(1.427 0 0 1.333 40.745 167.72)" cx="194.88" rx="10.63" cy="166.54" ry="10.63"/></g><g fill-rule="evenodd" transform="matrix(.198 0 0 .177 18.78 -19.095)" fill="#fff"><rect rx="4.349" ry="3.687" height="21.26" width="81.496" y="524.41" x="262.2"/><path d="M368.51 506.69c-9.814 0-17.716 8.26-17.716 18.52v16.11c0 10.26 7.902 18.52 17.716 18.52 9.815 0 17.717-8.26 17.717-18.52v-16.11c0-10.26-7.902-18.52-17.717-18.52zm0 7.087c-5.888 0-10.63 6.608-10.63 14.816v9.345c0 8.208 4.742 14.816 10.63 14.816 5.89 0 10.63-6.608 10.63-14.816v-9.345c0-8.208-4.74-14.816-10.63-14.816zm-92.13-3.537c-5.888 0-10.63 6.608-10.63 14.816v16.432c0 8.208 4.742 14.816 10.63 14.816 5.89 0 10.63-6.608 10.63-14.816v-16.432c0-8.208-4.74-14.816-10.63-14.816zm0-7.087c-9.814 0-17.716 8.26-17.716 18.52v23.197c0 10.26 7.902 18.52 17.716 18.52 9.815 0 17.717-8.26 17.717-18.52v-23.198c0-10.26-7.902-18.52-17.717-18.52zM248.03 517.32c-5.888 0-10.63 6.608-10.63 14.816V536c0 8.208 4.74 14.816 10.63 14.816 5.888 0 10.63-6.608 10.63-14.816v-3.864c0-8.208-4.74-14.816-10.63-14.816zm0-7.087c-9.814 0-17.716 8.26-17.716 18.52v10.63c0 10.26 7.9 18.52 17.715 18.52 9.814 0 17.716-8.26 17.716-18.52v-10.63c0-10.26-7.9-18.52-17.716-18.52zM205.52 507.518c-10.598 0-19.134 7.385-19.134 16.56v18.363c0 9.174 8.536 16.56 19.134 16.56 10.6 0 19.134-7.386 19.134-16.56v-18.363c0-9.174-8.534-16.56-19.134-16.56zM751.18-40.638c-17.665 0-31.89 9.23-31.89 20.696v25.926c0 11.467 14.225 20.698 31.89 20.698 17.667 0 31.89-9.23 31.89-20.698v-25.926c0-11.466-14.223-20.696-31.89-20.696zM435.83 511.058c-10.598 0-19.134 7.385-19.134 16.56v18.363c0 9.174 8.536 16.56 19.134 16.56 10.6 0 19.134-7.386 19.134-16.56v-18.363c0-9.174-8.534-16.56-19.134-16.56zm42.52-281.578c-17.665 0-31.89 9.23-31.89 20.696v25.926c0 11.467 14.225 20.698 31.89 20.698 17.667 0 31.89-9.23 31.89-20.698v-25.926c0-11.466-14.223-20.696-31.89-20.696z"/><rect rx="2.269" ry="3.687" height="21.26" width="42.52" y="524.41" x="375.59"/><rect rx="1.324" ry="4.916" height="28.346" width="24.803" y="520.87" x="336.61"/><rect rx="1.324" ry="4.916" height="28.346" width="24.803" y="520.87" x="219.69"/><rect rx="2.647" ry="6.145" height="35.433" width="49.606" y="517.32" x="141.73"/><rect rx="2.458" ry="6.145" height="35.433" width="46.063" y="520.87" x="450"/></g></g></g></svg>