<svg xmlns="http://www.w3.org/2000/svg" height="480" width="640" viewBox="0 0 640 480"><defs><clipPath id="a"><path fill-opacity=".67" d="M-52.334 0h682.67v512h-682.67z"/></clipPath></defs><g fill-rule="evenodd" clip-path="url(#a)"><path fill="#0c590b" d="M-40.047 0h720.384v480.256H-40.047z"/><path fill="#fff" d="M-40.047 0h180.584v480.256H-40.047z"/><g fill="#fff"><path d="M427.735 211.425l-29.232-6.15-15.373 25.614-3.185-29.704-29.11-6.707 27.263-12.208-2.618-29.757 20.036 22.157 27.492-11.685-14.88 25.902 19.607 22.535zM438.76 287.11c-25.95 57.18-94.06 82.156-151.403 55.594-57.35-26.57-82.335-94.672-55.765-152.023 13.55-29.25 35.728-49.35 67.032-60.32-3.6 3.043-7.164 6.202-11.07 10.23-40.436 41.733-39.385 108.426 2.346 148.86 41.732 40.437 108.425 39.387 148.86-2.345z"/></g></g></svg>