<svg xmlns="http://www.w3.org/2000/svg" height="480" width="640" viewBox="0 0 640 480"><defs><clipPath id="a"><path d="M-15-7.5h30v15h-30z"/></clipPath></defs><path d="M0 0h640v480H0z" fill="#00247d"/><g clip-path="url(#a)" transform="matrix(21.333 0 0 21.333 320 160)"><circle r="20" fill="#00247d"/><path d="M-20-10l40 20m-40 0l40-20" stroke="#fff" stroke-width="3"/><path d="M-20-10l40 20m-40 0l40-20" stroke="#cf142b" stroke-width="2"/><path d="M0 0l20 10h-3L-3 0m3 0l20-10h3L3 0M0 0l-20 10h-3L-3 0m3 0l-20-10h3L3 0" fill="#fff"/><path d="M-20 0h40M0-10v20" stroke="#fff" stroke-width="5"/><path d="M-20 0h40M0-10v20" stroke="#cf142b" stroke-width="3"/></g><path d="M409.94 310.38c-9.172 7.764-17.92 19.113-20.052 29.353-6.037 28.843-14.06 35.264-26.453 29.056 0 15.487 13.59 16.682 19.54 7.637 0 14.506 5.27 27.114 17.153 37.866 5.013 4.523 5.973 1.43 3.584-3.562-2.39-5.013-2.39-21.205-7.147-30.506 7.616 5.483 18.816 2.39 17.856-12.63-9.77 5.718-19.476 5.505-20.48-8.106-1.193-15.957 5.036-39.104 16-49.11zm-11.583-114.753c.64-5.718-.576-11.606-4.757-15.275-8.085-7.125-16-4.757-21.888.96-8.81-4.757-13.504 12.14-23.51 9.28 1.665 5.483 4.29 7.85 9.302 5.952-5.248 4.757 0 10.475-6.187 16.213 11.18 3.563 17.152-2.624 16.662-13.354 4.287 3.818 10.964 3.584 14.527-.704-5.952-1.92-5.974-7.105-3.563-11.927 3.563-7.146 20.352-6.87 19.413 8.854z" fill="#f7e017" stroke="#000" stroke-width=".63"/><path d="M424.213 278.507c-12.63 6.656-35.754 3.797-37.888-12.63-2.133-16.426 13.824-23.83 18.112-25.962 6.678-3.35 11.904 2.602 9.77 9.514a10.816 10.816 0 0 0 5.462-16.214c9.77.725 18.837-6.656 22.634-17.13-3.413 3.263-12.757 1.066-20.46.554 2.39-2.624 2.348-7.7 1.644-10.325-8.107 8.32-19.776 4.523-35.264 28.587 2.39-8.32 6.912-25.024 9.536-35.968a27.093 27.093 0 0 0 .597-3.307c.94-15.723-15.83-16-19.413-8.853 3.925 4.416 1.877 9.578.47 17.386-1.665 9.302-5.25 30.742-8.32 37.888-.96-11.2-8.363-11.904-9.793-17.386-2.132 1.43-3.327 5.248-2.857 7.85-2.624-2.858-11.67.725-14.998-3.562-3.584 7.146 2.134 14.293 8.107 17.386-3.477.235-4.31 4.416-8.107 4.416 5.12 5.952 10.347 8.32 16.427 8.81 6.08.492 10.603 2.73 14.293 10.134 5.974 11.904 28.65 19.627 50.048 8.81z" fill="#337321" stroke="#000" stroke-width=".63"/><path d="M455.66 263.957c-7.148 19.776-26.69 33.856-35.52 35.99-15 3.626-45.59 18.496-53.804 26.133" fill="#f7e017" stroke="#000" stroke-width=".63"/><path d="M409.94 310.38c-11.305 9.6-17.193 33.15-16 49.13.32 4.437 1.58 7.445 3.457 9.28.854-9.046 7.147-32.427 23.232-42.88 13.567-8.81 34.773-28.587 42.645-51.222-1.43-4.053-3.82-6.912-8.342-9.77-7.786 21.375-28.693 31.615-45.013 45.44z" fill="#337321" stroke="#000" stroke-width=".63"/><path d="M448.405 254.805c-4.053 6.06-13.226 14.4-22.037 17.75 1.9-2.155 2.496-4.907 2.603-7.168-11.2 4.31-33.578 3.84-42.645.49a58.176 58.176 0 0 0 57.664-17.15c1.92 2.132 3.562 4.052 4.415 6.08z" fill="#316d3a" stroke="#000" stroke-width=".63"/><path d="M362.73 304.704c-18.197 17.067-6.186 31.936.96 35.264-1.92 11.904 9.302 10.475 9.046 20.48 4.544-2.624 5.74-9.515 5.013-14.997 5.717 6.187 20.266-.724 23.338 10.71 1.92-12.63-7.85-25.26-20.01-24.064 5.013-4.523 2.133-11.904-2.603-13.803-.96 9.28-11.435 9.28-15.488 6.422-4.054-2.86-7.403-12.16-.256-20.01z" fill="#337321" stroke="#000" stroke-width=".63"/><path d="M402.176 413.1c-1.984 1.13-1.835 3.69-.597 5.353 2.495 3.328-1.75 10.88 6.313 12.502 2.39.49 4.224-.98 5.12-3.69 2.518-7.51-5.482-8.32-6.186-11.905-.726-3.584-2.987-3.22-4.65-2.26zM408.96 427.157c-2.667 1.238-5.013 2.987-3.925 11.542.426 3.56.213 12.16-2.86 12.287 1.9.94 5.953 1.962 7.617-.256 1.6 2.69 5.248 1.92 6.677-1.43 1.898 1.56 4.522-1.065 4.522-3.327 1.664 1.067 4.992-.47 4.16-5.59 2.027.705 4.65-.724 5.61-2.026-2.986-.597-10.495-4.65-12.287-7.872-1.77-3.2-6.422-4.757-9.515-3.328z" fill="#f7e017" stroke="#000" stroke-width=".63"/><path d="M367.68 186.22c1.216-1.793 2.56-3.457 4.053-4.908m41.28 36.437c2.134-1.195 5.312-1.345 8.854-1.11m-12.054 234.09c-.853-1.173-1.13-6.186-.554-9.215m7.21 7.808" stroke-width=".64" stroke="#000" fill="none"/><path d="M534.997 304.94c29.312 24.532 31.21 44.073 26.688 55.508-2.39-10.71-14.528-27.392-27.157-31.68l.47-23.83z" fill="#f7e017" stroke="#000" stroke-width=".63"/><path d="M482.58 291.136h54.337v64.32c0 54.784-30.506 87.19-61.482 104.34-30.976-17.13-61.462-49.556-61.462-104.34v-64.32h38.123c.064 3.328.363 8.32 4.267 13.333 9.002-.897 19.2-7.617 26.24-13.334z" fill="#337321" stroke="#000" stroke-width=".63"/><path d="M536.896 291.136v64.32c0 16.533-2.773 31.04-7.51 43.69l-53.93-98.986-53.952 98.987" fill="#006ec7" stroke="#000" stroke-width=".63"/><g fill="#f7e017" stroke="#000" stroke-width=".03"><path d="M499.968 429.653c1.43.726 4.053 2.048 5.248 2.518 2.86-5.717 3.35-13.802 2.39-20.97-3.094 7.893-13.59 7.637-16.427 12.395 1.748.874 3.37 2.026 4.777 3.05-3.562 3.563-11.946 9.6-16.704 11.008V386.56c0-3.584-1.194-6.55-1.194-9.536v-10.56c0-2.39-.47-5.845-2.625-5.845-2.155 0-2.603 3.455-2.603 5.844v10.56c0 2.987-1.195 6.42-1.195 9.536v51.093c-2.624-7.616-12.885-5.013-17.642-12.63a13.525 13.525 0 0 1 5.717-.234c-3.563-12.16-13.333-13.1-15.232-16.683 0 5.013-2.133 16.682 1.173 21.696a13.27 13.27 0 0 1 3.243-2.646c4.053 8.81 22.25 8.832 26.54 23.36 3.455-5.333 15.85-11.52 24.532-20.864zM475.435 387.136c4.053 0 16.917-1.323 21.546-1.323 1.217 0 2.22-1.792 2.22-4.032s-1.003-4.052-2.197-4.052c-4.65 0-17.515-1.3-21.547-1.3s-16.94 1.3-21.59 1.3c-1.194 0-2.175 1.813-2.175 4.053s.982 4.055 2.177 4.055c4.65 0 17.514 1.3 21.568 1.3zm-2.603-20.928M453.888 385.813c1.216 0 2.197-1.792 2.197-4.032s-.98-4.052-2.197-4.052M455.68 385.813c1.216 0 2.197-1.792 2.197-4.032s-.98-4.052-2.197-4.052m11.755 8.917c1.472 0 2.645-2.176 2.645-4.864 0-2.687-1.173-4.884-2.645-4.884m2.752 9.984c1.514 0 2.773-2.283 2.773-5.12 0-2.795-1.26-5.077-2.773-5.077m9.152 10.24c1.535 0 2.772-2.304 2.772-5.142 0-2.857-1.237-5.16-2.773-5.16m2.88 10.153c1.513 0 2.772-2.24 2.772-4.992 0-2.772-1.26-4.99-2.773-4.99m12.777 9.13c1.216 0 2.22-1.856 2.22-4.14 0-2.28-1.004-4.116-2.22-4.116m-46.144 49.493a18.133 18.133 0 0 1 5.12-2.133m43.392 2.603l-1.408-1.003m4.01 3.03c3.33-3.563 6.124-7.617 7.638-12.246"/></g><g stroke="#000" stroke-width=".03"><path d="M464.533 336.597c0-1.152.94-1.664 2.07-2.496 1.322-1 1.877-1.492 3.093-1.492h15.637c1.152 0 1.43.3 1.43 1.365v21.27c0 1.066-.278 1.365-1.43 1.365h-20.8v-20.18" fill="#fff"/><path d="M481.472 358.464c2.048 0 1.685-.043 3.115-1.493 1.493-1.493 1.365-1.365 1.365-2.75v-19.436c0-1.003-.235-1.28-1.323-1.28h-14.443c-1.13 0-1.622.427-2.86 1.387-1.044.79-1.92 1.26-1.92 2.347v21.227h16.086z" fill="#e5e5e5"/><path d="M482.987 358.016c0 1.067-.256 1.365-1.43 1.365H465.92c-1.152 0-1.408-.297-1.408-1.364v-21.27c0-1.066.256-1.365 1.408-1.365h15.637c1.174 0 1.43.3 1.43 1.367v21.27z" fill="#fff"/></g><path d="M513.323 278.677c3.05 3.392 4.053 7.958 2.39 12.438h-4.524c1.898-5.718.703-11.18-7.403-11.904-12.096-1.066-26.198 22.4-47.403 25.26-6.187-7.382-5.867-21.462 2.005-28.118-4.054-11.733-12.65-24.62-18.603-30.187" fill="#96877d" stroke="#000" stroke-width=".63"/><path d="M460.46 284.928c-1.047-15.915-7.468-28.97-16.47-37.888 4.266 1.173 13.098 1.173 19.05-3.115 7.872-5.226 28.352-14.4 35.84-10.474a11.69 11.69 0 0 1 .49 6.187c-1.79-4.757-21.546 2.624-27.157 4.907-5.354 2.496-7.744 5.824-5.845 13.333-3.093-2.624-2.027-5.12-5.227-7.04 1.303 3.094 2.37 8.704 2.732 13.227-1.195-3.157-3.328-10.112-7.98-14.144 4.055 7.85 7.575 26.73 5.91 36.736 3.2 0 10.305-3.157 13.142-5.42-2.496 3.585-9.707 6.08-14.336 7.04-2.09 2.497-3.52 8.92-3.413 12.503-.342-4.417 1.045-15.148 3.264-15.852zm52.863-6.25c-3.947-4.395-11.307-6.785-20.736-4.225 1.43-.725 4.544-1.92 7.274-2.39-.36-2.495-2.623-13.226-2.985-15.83l2.624-1.065c1.32 6.4 2.985 13.803 4.052 16.79.853.212 2.752.596 4.416 1.43-.725-2.52-4.78-20.48-4.65-22.4l3.583-1.92c1.43 9.77 3.692 23.956 6.4 29.61z"/><path d="M511.19 291.115c1.898-5.718.703-11.18-7.382-11.904-6.293-.554-13.1 5.547-21.163 11.905h28.544zm-52.65-51.328" stroke-width=".64" fill="#96877d" stroke="#000"/><path d="M458.39 276.352c1.322 3.797 2.175 7.467 2.303 10.73m-13.12-58.24c-2.133 3.137-4.032 6.53-4.65 9.387 4.053 1.322 12.032 2.026 15.616 1.557M439.787 246.165c1.536.256 2.986.555 4.202.875 4.287 1.195 13.098 1.195 19.07-3.093 5.975-4.288 22.145-17.6 40.492-19.05M435.05 242.048c5.718 1.195 17.515 1.792 23.467-2.26 13.824-9.41 27.158-14.892 40.49-15.617" stroke="#000" stroke-width=".63" fill="none"/><path d="M534.997 304.94c20.01 13.823 34.774 27.156 39.083 48.617 4.267 21.44 12.373 27.158 22.4 21.44-2.39 12.374-14.784 13.803-25.26 4.267.96 14.293-4.777 31.467-19.54 37.653-.96-8.576 4.715-15.36 3.093-22.4-.704-3.093-.938-10.24 3.094-13.568-7.85 2.623-20.246-2.39-21.44-14.06 9.066 4.29 20.736 5.014 25.258-6.42 4.523-11.435 2.624-30.977-26.666-55.53zm25.26-111.49c6.186-16.213 22.4-14.527 27.86-7.615 15.98-9.067 18.134 11.434 31.702 7.38-.257 3.798-4.78 7.382-9.772 7.148 5.227 4.757-2.133 11.904 9.045 16.213-9.536 4.757-22.87-.256-26.453-13.355-3.093 6.188-14.293 6.188-18.816 1.196 9.77-2.624 9.067-11.69 3.584-15.253-5.525-3.606-15.253-2.134-17.152 4.266zm-48.32 35.67c4.436 14.336 13.652 27.67 23.55 36.757 11.436 10.475 28.694 7.85 38.358-2.133.214 19.947-20.437 21.483-31.936 15.232-5.057-2.773-9.174-1.3-4.267 3.093 7.36 6.677 23.53 11.626 42.624 15.722 33.365 7.147 21.44 33.6 11.67 33.365 2.815-.06 5.12-2.986 1.066-6.613-28.928-26.027-87.787-15.787-86.827-73.92-6.187 15.253-31.68 9.3-19.776-8.81 3.82 3.093 10.496 3.327 12.373-1.43 1.494-3.712.534-10.155-6.144-15.7 1.087-.09 3.455 0 3.2-2.732.32 1.6 1.77 3.99 5.525 3.2 1.066 1.685 2.197 2.795 3.712 2.197.298-.13 1.194-.577.853-2.283.277 3.157 4.053 4.288 6.016 4.053z" fill="#337321" stroke="#000" stroke-width=".63"/><path d="M541.91 278.976c13.823 9.045 29.44 9.045 43.84-7.616 4.522-5.248 11.67-9.77 16.682-10.24 4.992-.49 4.757-5.248 8.576-6.187-2.39-.725-3.328-3.584-6.912-3.242 8.94-3.093 6.315-10.24 10.73-13.695-3.583 1.322-9.173-4.054-14.293 2.752 1.302-3.115-.49-6.806-1.792-8.235.47 3.584-7.04 4.288-8.468 13.355-.79 5.077-3.563 4.757-4.053-3.094-.343-5.76-3.095-21.696-6.4-29.78-3.35-8.108-4.12-19.222.425-20.908m-33.557 234.283c2.944 1.493 5.46 3.54 3.883 13.077-.64 3.947-.79 13.547 2.667 13.824-2.176.98-6.74 1.92-8.49-.598-1.92 2.923-5.952 1.9-7.403-1.898-2.197 1.642-4.992-1.387-4.907-3.926-1.898 1.13-5.546-.747-4.394-6.42-2.304.703-5.163-1.004-6.187-2.497 3.37-.532 11.925-4.735 14.06-8.255 2.132-3.5 7.38-5.035 10.772-3.307z" fill="#f7e017" stroke="#000" stroke-width=".63"/><path d="M544.725 452.672c.982-1.28 1.536-6.87 1.003-10.283m-8.384 8.426a15.744 15.744 0 0 0 5.056-8.192m-9.963 4.245c1.878-.79 6.635-6.465 7.787-10.22m-12.203 3.777c2.22-.363 9.11-4.48 12.076-9.046" stroke-width=".64" stroke="#000" fill="none"/><path d="M506.176 250.624c-.405 24.427 9.75 36.78 23.808 44.82-5.227-3.135-2.965-13.865-10.005-17.3 1.684-.128 4.287 2.26 8.468 1.3-2.027-4.52-5.355-11.433-13.1-12.372 2.028-.235 6.423.47 9.28-.597-4.052-6.187-14.76-3.222-18.452-15.85zm-2.54-23.21c-.852-.3-1.6-1.153-2.303-2.283-3.754.81-5.205-1.578-5.504-3.2.213 2.774-2.134 2.646-3.243 2.73 6.72 5.548 7.68 12.012 6.186 15.724-1.92 4.757-8.576 4.523-12.373 1.43-.49 10.11 12.608 13.44 17.365.703 0 2.134 2.752 1.92 3.456 4.78 3.415-5.484.855-13.356-3.583-19.884z" fill="#f7e017" stroke="#000" stroke-width=".63"/><path d="M486.997 150.677c-.085-2.133 3.627-4.928 8.64-4.885 6.016.064 10.667 5.547 15.467 5.013 4.8-.533 2.453 2.134 1.43 2.86-1.003.703-1.6 1.79-1.238 3.092.363 1.302-.256 2.176-2.197.96-4.29-2.688-8.6 1.067-14.252-1.024-4.907-1.792-7.744-2.773-7.85-6.016z" fill="#cf142b" stroke="#000" stroke-width=".64"/><path d="M462.464 206.912c-2.39-7.51-11.435-15.723-15.85-17.643l-.235-4.054c2.388-.94 8.105-5.46 10.73-7.98 17.855 8.577 42.154-3.56 53.354-16.19l4.288 2.623-2.133 2.858-2.263-1.195c-2.752 3.328-12.97 12.97-16.085 14.976 4.18 1.066 9.856 1.79 11.435 1.706 10.005-7.147 17.856-13.59 21.674-14.08l3.2 4.31-2.836 2.026-2.26-1.323c-10.732 8.83-22.87 28.117-27.65 40.98-6.655-1.43-30.506-.47-35.37-7.04z" fill="#96877d" stroke="#000" stroke-width=".64"/><path d="M463.403 204.288c-1.6-8.875.96-18.71 5.482-21.675 9.9 6.55 26.816 6.55 36.822-.597" stroke="#000" stroke-width=".64" fill="none"/><path d="M463.403 199.637c7.637-.213 24.192 1.067 28.245 1.664 4.053.6 10.837 2.263 9.877 4.29m-34.602-7.21l2.197-2.2-2.197-2.175-2.176 2.176 2.176 2.2z" stroke="#000" stroke-width=".64" fill="none"/><path d="M472.107 154.027c-2.73-3.84-10.283-5.035-11.904.106-.726 2.262-1.792 4.65-3.584 5.718-1.772 1.067-1.367 4.33-.577 5.718 1.898 3.456.213 6.784 3.925 9.067 0-2.752 4.053-5.61 7.51-6.315 3.455-.725 8.682-3.82 9.386-7.253.725-3.478 1.92-6.336-4.757-7.04z" fill="#337321" stroke="#000" stroke-width=".64"/><path d="M454.933 188.33h.96v6.507c.214.064.427.17.576.3l5.61-3.244.49.854-5.63 3.242a1.707 1.707 0 0 1 0 .64l5.63 3.263-.49.81-5.632-3.242" fill="#96877d" stroke="#000" stroke-width=".64"/><path d="M450.667 215.02c-.704-.855-2.027-3.116-1.92-4.78a6.187 6.187 0 0 1 4.053 1.557c-.107-1.194-.576-3.818-.34-5.013 1.3.49 4.052 2.027 4.99 3.82" fill="#337321" stroke="#000" stroke-width=".64"/><path d="M490.54 151.893c-.044-.853 1.92-2.858 5.417-2.837 4.203.02 8.107 3.115 11.478 2.9 3.37-.212 1.706.855 1.002 1.153-.704.298-1.13.746-.874 1.28.256.533-.192.874-1.536.383-3.008-1.088-6.016.427-9.984-.426-3.414-.726-5.42-1.13-5.504-2.454z" fill="#f7e017"/><g stroke="#000" stroke-width=".186"><path d="M454.357 222.165c-3.562 4.267-7.146 3.563-7.85.832-.726-2.752 1.92-4.053.938-6.442-.938-2.39 1.558-3.456 2.752-2.39 1.195 1.067 4.992-2.368 6.678 1.195 1.664 3.584 2.986 6.08 2.005 7.51-.94 1.43-3.797.725-4.523-.705zm15.36-6.442c-.682-1.558 3.03-4.587 4.928-2.432 1.92 2.134 4.907-2.346 6.57 1.067 1.665 3.392 2.198 5.184 3.03 7.083.854 1.92-4.522 2.923-6.186 1.26.212 1.13-4.63 2.004-5.975-1.196l-2.368-5.78zm24.79 1.962c-.896-1.664 3.456-4.053 5.717-1.002.597-1.26 4.907-1.494 5.184 2.133.3 3.627.427 5.78.533 7.21.108 1.43-2.6 2.73-4.585-.895-3.5.726-5.12-1.237-5.547-3.327-.427-2.09-.81-3.094-1.28-4.118z" fill="#f7e017"/><path d="M456.66 215.317c-.532-1.194 3.052-3.584 5.484-1.792 2.453 1.792 5.824-1.557 7.253 1.664 2.923 6.485 3.115 6.975 2.22 8.213-.897 1.258-4.694.768-5.654-.94-.192 1.174-3.478.982-5.184.044-1.964-1.067-3.35-5.056-4.12-7.19zm25.09.278c-.854-1.835 4.757-3.435 7.19-.214 1.257-1.15 3.988-1.215 5.545 2.305 1.558 3.52 1.792 5.483.64 6.38-.79.64-3.67 1.13-4.63-.47-1.322.832-5.354.106-6.25-2.134-.896-2.28-1.664-4.265-2.496-5.865zm23.7 3.52c-.106-1.664 2.923-2.432 4.054 0 1.13 2.432 4.757.256 5.077 4.288.044.768-.425 3.754-1.556 5.184-1.13 1.43-6.677 0-7.04-3.03" fill="#337321"/><path d="M454.357 222.165c-1.3-1.792-3.093-4.65-5.354-1.557m16.98 1.835" fill="none"/></g></svg>