<svg xmlns="http://www.w3.org/2000/svg" height="480" width="640" viewBox="0 0 640 480"><defs><clipPath id="a"><path fill-opacity=".67" d="M-85.333 0h682.67v512h-682.67z"/></clipPath></defs><g clip-path="url(#a)" fill-rule="evenodd"><path fill="#199d00" d="M-40.064 0H680.32v480.256H-40.064z"/><path d="M141.477 136.132c-.832 11.22-1.83 30.964 7.703 32.99 11.53 1.108 5.172-19.517 9.347-23.256.788-1.848 2.243-1.858 2.363.473v17.493c-.105 5.69 3.635 7.365 6.54 8.54 3.024-.233 5.043-.132 6.227 2.81l1.42 30.26s7.01 2.008 7.345-17.02c.335-11.172-2.232-20.524-.727-22.698.053-2.136 2.78-2.263 4.67-1.222 3.016 2.125 4.358 4.75 9.043 3.7 7.127-1.963 11.41-5.43 11.517-10.902-.417-5.2-1-10.402-3.253-15.603.314-.946-1.376-3.396-1.063-4.343 1.28 2.007 3.23 1.84 3.672 0-1.213-3.997-3.095-7.827-6.147-9.485-2.52-2.222-6.212-1.768-7.564 2.866-.624 5.34 1.926 11.682 5.814 16.854.825 2.02 1.986 5.377 1.476 8.4-2.07 1.18-4.138.69-5.87-1.14 0 0-5.674-4.256-5.674-5.2 1.505-9.64.333-10.733-.5-13.408-.584-3.693-2.336-4.877-3.755-7.4-1.418-1.504-3.338-1.504-4.256 0-2.508 4.348-1.338 13.68.473 17.86 1.31 3.844 3.31 6.257 2.364 6.257-.777 2.17-2.386 1.67-3.556-.838-1.672-5.182-2.007-12.915-2.007-16.396-.5-4.318-1.052-13.526-3.893-15.866-1.734-2.36-4.303-1.21-5.2.946-.187 4.285-.207 8.57.276 12.518 1.948 6.925 2.56 13.015 3.506 20.107.263 9.502-5.493 4.123-5.23-.587 1.327-6.117.983-15.747-.197-18.187-.935-2.44-2.04-3.043-4.313-2.642-1.805-.11-6.45 4.963-7.756 13.378 0 0-1.112 4.332-1.585 8.177-.638 4.345-3.5 7.412-5.506-.612-1.735-5.832-2.8-20.19-5.704-16.827zM172.81 182.17c-10.176 4.973-20.017 9.613-30.026 14.42.366-6.805 14.276-19.09 23.76-19.264 6.174.173 4.623 2.392 6.265 4.844zM167.564 191.577c-15.824 40.79 37.056 46.474 42.965 1.67.556-1.838 2.785-3.676 3.175-.668-1.226 40.566-40.902 43.353-47.644 30.59-1.67-3.007-2.173-9.694-2.34-13.707-1.003-7.967-5.18-4.903-5.85 3.01-.67 4.4-.502 5.63-.502 9.863 2.117 32.04 53.218 18.278 61.52-8.192 4.403-14.656-.724-25.465 1.67-25.41 5.073 5.46 12.148.724 13.71-1.17.67-.948 2.34-1.56 3.51-.335 3.957 2.844 10.924 1.503 12.372-3.51.837-4.905 1.506-9.976 1.673-15.213-3.233 1.004-5.628 1.67-5.85 3.01l-.67 4.345c-.278 1.394-3.067 1.448-3.176-.335-1.226-5.573-6.297-6.297-9.362 2.34-2.063 1.673-5.795 2.008-6.187-.5.5-5.796-1.84-6.576-6.52-3.845-1.504-11.48-3.008-22.456-4.513-33.936 1.95-.057 3.735 1.392 5.52-.837-1.954-6.074-6.076-18.5-8.362-19.393-1.115-1.337-2.064-.5-3.51-.167-2.452.78-4.737 2.898-4.014 7.022 2.897 17.608 4.792 31.038 7.69 48.647.445 2.06-1.282 4.79-3.51 4.51-3.79-2.562-4.735-7.743-11.2-7.522-4.682.056-10.033 5.127-10.7 10.033-.78 3.9-1.06 8.133-.002 11.535 3.29 3.955 7.246 3.567 10.7 2.675 2.843-1.17 5.182-4.012 6.186-3.344.67.837.166 10.196-13.375 17.386-8.19 3.677-14.712 4.514-18.22-2.174-2.175-4.18.165-20.06-5.186-16.382zM234.686 150.108c3.176-1.17 18.224-18.388 18.224-18.388-.78-.67-1.478-1.17-2.26-1.84-.835-.724-.75-1.448 0-2.173 3.735-2.173 2.537-6.938.587-9.11-3.233-1.45-6.047-.976-8.11.083-2.618 2.508-3.23 6.52-1.167 9.027 2.007.947 4.012 2.982 2.673 4.096-6.156 6.575-23.014 17.916-21.063 18.305.417.557 10.783.53 11.116 0zM4.266 230.894c-5.643 8.99-6.134 22.42-3.02 26.425 1.654 1.892 4.373 2.72 6.384 2.13 3.545-1.54 5.097-8.723 4.256-11.35-1.184-1.853-2.116-2.146-3.298-.57-2.495 5.065-3.53 1.59-3.75-1.242-.38-5.368.124-10.312.707-14.227.622-4.013-.01-2.786-1.278-1.166zm235.14-10.37c-5.458-11.745-13.01-23.35-15.414-27.81-2.404-4.46-20.547-30.79-23.218-33.752-5.894-7.004 9.572 2.917-1.956-10.99-4.396-3.77-4.65-4-8.3-7.077-1.84-1.306-6.332-3.69-7.128.263-.4 3.486-.185 5.376.4 8.28.45 1.934 3.27 5.175 4.656 7.053 18.408 24.744 34.73 49.732 50.472 81.15 2.486-1.182 1.942-15.153.488-17.118zM361.015 235.945c-1.073 1.204 2.65 6.355 7.486 6.35 8.09-.938 15.21-5.482 21.804-17.442 1.763-2.79 4.862-8.756 4.952-13.383.617-27.13-1.357-48.244-5.422-67.855-.26-1.91-.103-4.155.22-4.727.525-.626 2.3.003 3.244-1.542 1.382-1.412-3.672-13.104-6.553-17.607-1.023-2.013-1.38-3.356-3.073.235-1.78 2.917-2.977 8.01-2.838 12.766 3.86 26.718 5.045 50.09 7.566 76.806.207 2.584-.174 6.338-1.892 7.836-6.352 6.633-15.522 14.798-25.493 18.563zm47.843 15.454c-5.806 3.355-5.812 7.214-1.118 7.354 8.088-.94 17.646-1.61 24.237-11.564 1.765-2.79 3.86-10.333 3.95-14.96.618-27.13-.353-47.383-4.42-66.992-.258-1.91-1.104-6.307-.78-6.88.523-1.343 3.16.146 4.103-1.4 1.382-1.41-6.827-11.956-9.708-16.46-1.023-2.01-1.38-3.353-3.072.237-1.783 2.918-2.404 8.153-1.692 12.767 4.29 29.01 7.483 50.805 8.14 76.517-.368 2.44-.46 3.756-1.605 6.83-2.53 3.246-5.336 7.303-7.966 9.265-2.63 1.96-8.24 3.832-10.07 5.285zM474.635 209.793c-.066-6.784.096-12.643-.127-17.703-.223-5.06-1.117-9.18-2.87-12.773-1.656-3.85-.627-6.945-1.406-11.048-.777-4.102-.586-10.244-1.76-15.11-.323-1.9-1.31-7.988-1.005-8.57.48-1.36 2.304.04 3.195-1.533 1.335-1.456-4.63-16.89-7.657-21.3-1.088-1.975-3.064-1.298-5.5 1.915-2.26 2.115-1.422 6.937-.56 11.524 5.805 30.29 10.134 57.704 9.19 86.537-.29 2.452 8.56-7.312 8.5-11.94zm-96.8-23.7c-3.65-.066-11.298-7.104-13.53-11.228-.842-2.364-.3-4.672.442-6.024 1.35-.878 3.432-1.865 4.986-.918 0 0 1.613 2.255 1.3 2.542 1.993.955 2.84.405 3.042-.405.136-1.42-.59-2.267-.597-3.83.845-4.24 5.69-4.9 7.517-2.196 1.335 1.648 1.825 5.152 2.028 7.516-.022 1.208-1.98-.21-3.09.082-1.112.29-1.38 1.574-1.465 2.734-.202 3.075-.566 8.01-.633 11.726zm-70.212 42.607c1.006-9.22-.37-25.637-.463-31.076-.37-12.85-2.468-37.672-3.467-41.82-1.125-7.815 3.215.858 2.614-3.685-1.407-7.807-5.737-13.098-10.827-20.247-1.64-2.327-1.585-2.8-4.12.57-2.803 6.36-.383 10.735.342 15.69 3.67 16.138 5.812 30.988 6.81 45.667.996 14.68 1.303 30.553.392 46.014 2.75.108 7.173-4.45 8.72-11.115zM487.064 202.552c-6.438-10.8-16.152-22.5-18.747-26.85-2.595-4.35-24.544-32.67-27.34-35.512-8.03-8.436 3.682-1.374-1.538-7.89-4.416-4.846-5.704-6.368-9.483-9.283-1.894-1.224-3.042-3.563-3.665.422-.248 3.5-.507 7.55-.27 10.5-.014 1.64 1.694 4.722 3.16 6.538 19.468 23.92 40.702 48.34 57.797 79.045 2.43-1.29 1.622-15.07.084-16.97z" fill="#fff"/><path d="M194.99 182.62c-.464.812-1.496 1.864-1.15 2.953.723.98 1.3 1.178 2.505 1.232 1.045 0 2.504.246 2.82-.37.56-.62.988-1.884.52-3.078-1.088-2.72-4.127-1.707-4.696-.738z" fill="#1ba400"/><path d="M412.21 340.063c8.61.317 14.245.393 21.902 1.303 0 0 6.603-.652 8.96-1.008 9.968-.95 10.41 14.235 10.41 14.235-.11 8.906-3.548 9.373-7.937 10.313-2.507.32-3.825-1.5-5.143-3.44-1.654.692-3.902.79-6.626.413-3.588-.226-7.176-.21-10.763-.435-3.81-.336-5.838.397-9.65.06-.785 1.235-1.805 2.943-4.136 2.393-1.94-.215-4.237-5.66-3.56-9.798 1.4-2.968 1.015-2.013.87-3.318-35.2-.897-70.736-2.466-105.264-2.017-27.014.112-53.695 1.233-80.374 2.355-14.237-.225-25.11-2.467-32.62-13.453.672 0 36.318 2.018 46.744 1.345 19.28-.225 36.88-1.793 56.497-2.354 38.675.672 77.013.673 115.684 3.362-3.7-2.53-3.83-8.508 1.862-9.97.484-.333.734 2.973 1.586 2.91 4.555-.34 2.557 5.83 1.556 7.102zM140.863 171.847c-5.86 16.752 3.358 35.076 9.75 33.292 4.61 1.908 7.547-6.864 9.435-16.474 1.29-2.698 2.267-2.985 2.93-1.6-.17 12.78.918 15.612 4.204 19.492 7.33 5.655 13.393.722 13.87.246l5.705-5.707c1.27-1.338 2.962-1.416 4.756-.238 1.744 1.585 1.5 4.322 5.23 6.22 3.144 1.257 9.86.29 11.417-2.416 2.093-3.59 2.596-4.82 3.566-6.182 1.494-1.99 4.043-1.105 4.043-.477-.24 1.11-1.735 2.22-.714 4.218 1.776 1.333 2.187.476 3.24.18 3.717-1.778 6.508-9.866 6.508-9.866.166-3.01-1.52-2.762-2.615-2.142-1.427.872-1.52 1.15-2.948 2.023-1.818.272-5.345 1.477-7.088-1.223-1.78-3.246-1.805-7.776-3.166-11.05 0-.238-2.362-5.156-.163-5.472 1.108.207 3.476.833 3.852-1.16 1.164-1.943-2.49-7.446-4.993-10.225-2.17-2.384-5.18-2.67-8.085-.237-2.035 1.87-1.742 3.962-2.142 5.944-.518 2.275-.407 5.075 1.903 8.085 2.03 4.003 5.735 9.158 4.52 16.407 0 0-2.164 3.425-5.934 2.977-1.572-.342-4.12-1.01-5.48-11.063-1.032-7.61.242-18.256-2.988-23.247-1.166-3.014-2.018-5.925-4.86-.77-.765 2.025-4.043 5.097-1.665 11.415 1.945 4.005 2.737 10.525 1.854 17.78-1.348 2.06-1.647 2.758-3.414 4.82-2.482 2.668-5.176 1.987-7.24.99-1.926-1.3-3.435-1.97-4.315-6.098.16-6.578.525-17.347-.678-19.63-1.772-3.54-4.695-2.26-5.945-1.19-6 5.486-8.964 14.743-10.776 22.114-1.665 5.372-3.436 3.833-4.682 1.665-3.03-2.84-3.236-25.054-6.895-21.4zM274.588 163.306c2.66-1.886 1.417-3.203 5.397.776 4.983 8.52 8.186 19.553 8.667 29.328-.21 2.41 1.487 3.933 2.264 3.41.46-5.656 14.213-13.535 26.823-14.687 1.927-.42.99-4.115 1.304-6-.756-7 3.934-13.373 10.507-13.882 8.948 1.324 11.926 6.1 12.077 13.39-.966 13.998-15.547 16.37-23.74 17.488-1.257.475-1.78 1.055 0 1.74l34.326.156 1.75 1.01c.212.82-.498.137-1.854 2.37-1.355 2.23-3.354 7.376-3.457 10.812-10.227 3.29-20.805 4.73-31.557 6.03-3.735 1.89-5.586 4.405-4.82 7.238 1.258 3.143 9.53 6.28 9.53 6.43 1.572.985 3.43 3.285-.444 7.997-16.743-.736-29.718-7.862-34.21-17.92-1.354-1.05-2.812-.005-3.746 1.355-6.537 8.427-12.97 16.015-24.114 20.044-6.647 1.66-13.45-1.02-16.663-5.373-2.152-2.477-2.07-5.213-2.86-5.805-3.593 1.59-34.505 14.723-30.587 8.605 7.523-8.053 20.548-13.967 32.05-21.915.83-2.663 2.34-11.67 6.883-14.604.263.02-.72 5.29-.62 7.51.05 1.825-.135 2.54.264 2.07.776-.495 14.734-11.462 15.812-14.825 1.36-1.928.408-6.812.408-6.96-2.617-6.747-6.29-7.32-7.65-10.67-1.225-4.454-.67-9.536 1.874-10.952 2.26-2.05 4.937-1.798 7.406.444 2.82 2.525 5.323 7.46 6.047 11.136-.484 1.454-3.69-.966-4.8-.244 1.967 2.038 2.885 4.388 3.596 7.264 1.818 7.7 1.264 10.693-.566 15.672-6.197 13.03-14.116 16.917-21.045 21.744-.185.066-.308 3.306 2.298 5.06.9.942 4.513 1.426 8.763.064 8.212-4.478 16.737-12.727 20.97-21.918 1.228-6.95-.476-14.323-2.284-20.752-2.724-6.283-5.93-15.254-5.93-15.402-.107-3.918.212-5.277 1.93-7.232zM50.442 148.66c3.95 1.884 11.38 1.082 11.065-5.29 0-.562-.144-2.468-.2-2.985-.807-1.877-3.006-1.413-3.505.526-.157.635.28 1.67-.296 1.99-.33.332-1.592.136-1.54-1.624 0-.56-.413-1.163-.662-1.52-.25-.163-.408-.208-.86-.208-.552.022-.542.165-.844.63-.13.47-.305.93-.305 1.465-.07.625-.306.85-.767.942-.515 0-.398.056-.816-.21-.247-.272-.557-.375-.557-.837 0-.48-.11-1.255-.253-1.57-.22-.29-.57-.424-.966-.526-2.158.007-2.308 2.468-2.183 3.402-.16.177-.252 4.592 2.69 5.813zM300.533 176.09c3.95 1.885 13.355.8 11.065-5.288 0-.563-.144-2.47-.2-2.985-.807-1.878-3.006-1.414-3.505.525-.157.635.28 1.67-.296 1.988-.33.333-1.592.137-1.54-1.622 0-.56-.413-1.163-.662-1.52-.25-.163-.408-.208-.86-.208-.552.022-.542.165-.845.628-.128.47-.304.932-.304 1.466-.07.627-.306.85-.767.943-.516 0-.4.056-.817-.21-.247-.27-.557-.374-.557-.837 0-.48-.11-1.255-.253-1.57-.22-.29-.57-.423-.966-.525-2.158.007-2.308 2.47-2.183 3.403-.162.176-.253 4.59 2.69 5.813zm2.113-8.65c3.95 1.886 11.38 1.084 11.065-5.287 0-.563-.143-2.47-.2-2.986-.806-1.878-3.005-1.414-3.504.525-.157.635.28 1.67-.296 1.99-.33.332-1.593.136-1.54-1.624 0-.56-.413-1.163-.662-1.52-.25-.163-.408-.208-.86-.208-.552.022-.543.165-.845.63-.128.47-.305.93-.305 1.465-.07.626-.305.85-.766.943-.515 0-.4.056-.816-.21-.248-.272-.558-.375-.558-.837 0-.48-.108-1.254-.252-1.57-.22-.29-.57-.423-.967-.525-2.158.008-2.308 2.47-2.183 3.403-.163.177-.254 4.592 2.69 5.813zm39.442 49.622c-6.885 7.76-3.85 20.593-2.294 23.36 2.27 4.54 4.098 7.453 8.515 9.7 4.023 2.96 7.158 1.11 8.885-.964 4.05-4.196 4.098-14.91 5.998-17.03 1.334-3.9 4.69-3.235 6.32-1.507 1.578 2.27 3.438 3.735 5.76 4.97 3.774 3.333 8.284 3.94 12.727.905 3.036-1.703 5.01-3.904 6.787-8.272 1.975-5.28.874-29.686.48-44.15-.153-1.135-3.926-19.89-3.926-20.1 0-.21-.498-9.572-.912-11.802-.073-.904-.297-1.164.65-1.05 1.007.847 1.145.9 1.774 1.18 1.015.185 1.923-1.544 1.31-3.134l-9.424-17.384c-.757-.744-1.733-1.562-2.933.21-1.146 1.005-2.367 2.824-2.33 5.162.28 4.12 1.004 8.31 1.282 12.432l3.77 21.153c1.188 15.08 1.486 27.42 2.672 42.5-.167 6.384-2.152 11.95-4.014 12.754 0 0-2.832 1.642-4.732-.172-1.38-.554-6.91-9.215-6.91-9.215-2.828-2.592-4.692-1.85-6.704 0-5.547 5.357-8.057 15.377-11.827 22.29-.972 1.542-3.72 2.862-6.763-.113-7.73-10.56-3.2-25.586-4.162-21.722zm-30.893-84.58c3.54 1.483 6.036 8.652 5.222 12.153-.705 4.33-2.582 9.008-3.932 8.4-1.467-.545 1-4.307-.41-8.252-.783-2.568-5.612-7.26-5.104-8.644-.996-2.9 2.054-4.168 4.225-3.657zM414.444 211.012c.745-8.61-.512-13.86-.735-18.92s-5.725-43.672-6.84-47.5c-1.346-7.24 5.346-.972 4.615-5.183-2.315-5.31-8.078-13.04-9.887-17.65-1.088-1.976-.63-3.733-3.068-.52-2.26 7.388-3.044 13.427-2.18 18.015 5.802 30.288 11.755 55.473 10.81 84.306 2.752.02 5.925-6.297 7.284-12.547zm2.58-66.045c3.226 1.604 5.116 10.59 4.76 13.157-.642 4.69-2.355 9.752-3.584 9.093-1.338-.59.267-6.954-.375-8.933-.713-2.78-5.116-7.86-4.653-9.358-.91-3.138 1.872-4.51 3.85-3.96zm-235.822 58.422c3.086 1.177 4.896 7.78 4.554 9.667-.615 3.444-2.254 7.165-3.43 6.68-1.278-.432.258-5.11-.356-6.563-.26-3.527-4.545-5.353-4.456-6.876-.8-2.8 1.793-3.316 3.688-2.908z" fill="#fff"/><path d="M309.68 204.643c3.982.254 5.974 3.38 2.24 4.69-3.68 1.26-7.216 2.245-7.233 7.564 1.362 7.413-1.867 4.87-3.794 3.862-2.27-1.63-8.637-5.554-9.545-14.024-.136-2.02 1.44-3.723 3.977-3.71 3.823 1.038 9.462 1.114 14.353 1.617z" fill="#1b9d00"/><path d="M152.6 116.678c4.554 1.373 4.823 8.067 4.488 10.023-.607 3.573-2.22 7.43-3.38 6.927-1.26-.448-.05-5.296-.654-6.805-.675-2.118-4.523-5.988-4.087-7.13-.856-2.39 1.767-3.436 3.633-3.014zm14.735 39.266c-3.494 1.89-4.85 7.523-2.673 10.804 2.032 2.89 5.24 1.818 5.668 1.818 3.424.43 5.455-6.418 5.455-6.418s.108-1.925-3.958 1.713c-1.71.322-1.924-.32-2.352-1.284-.356-1.782-.285-3.564.535-5.348.606-1.71-.714-2.46-2.675-1.284zm32.153-32.057c-1.756 1.177-5.25 4.798-5.358 8.97-.106 2.353-.544 2.346.996 3.844 1.113 1.607 2.236 1.462 4.484.285 1.29-.95 1.727-1.582 2.162-3.177.534-2.673-2.827 1.268-3.255-1.707-.75-2.762 1.41-3.894 3.442-6.567.067-1.832.027-3.13-2.472-1.646zm22.846 1.495c-.757 1.672-1.664 10.405-1.513 10.405-.603 2.602 2.724 3.716 4.237.37 2.27-6.13 2.27-8.732 2.42-11.334-.706-3.962-3.377-3.838-5.143.56zm134.517 67.99c.455-.454 18.76-13.463 18.76-13.463 1.865-.656 1.46 6.706.604 6.655.353 1.462-18.052 13.967-19.364 13.463-.907.656-1.815-5.04 0-6.656zm25.487 4.365c3.227 1.604 4.512 11.044 4.155 13.61.115 4.993-3.11 8.996-4.34 8.338-1.337-.59.117-6.198-.525-8.177-.713-2.78-3.453-8.012-2.99-9.51-.91-3.138 1.72-4.813 3.7-4.26zm-107.77 40.646c1.272-1.86 5.205-4.54 5.294-4.54 1.815-.907 3.588.713 3.48.606.302 1.815-1.148 3.504-.693 5.925.396.976.687 2.06 2.475 1.646 2.907-2.285 5.6-2.433 8.505-2.578 2.227.134 2.315 3.905.907 3.933-5.366 1.166-7.77 2.603-11.603 4.065-1.815 1.06-3.372-.284-3.372-.435s-1.06-1.03-.32-3.435c.13-1.928-.645-2.986-2.252-2.767-1.21.655-2.275 1.088-2.88-.303-.238-1.027-.316-1.527.46-2.117zm120.934 7.77c.785 1 1.292 1.923-.062 3.563-1.284 1.176-2.188 1.824-3.472 3-.606 1.034-.994 2.602.86 3.102 3.424.963 11.34-4.172 11.34-4.28 1.283-.96.856-2.78.748-2.78-.75-.856-2.435-.347-3.57-.486-.54 0-2.312-.268-1.468-1.837.703-.975.955-1.573 1.433-2.775.534-1.176.074-1.96-1.852-2.603-1.96-.357-2.744-.178-4.92 0-1.176.25-1.577.776-1.79 2.2.083 2.164 1.398 2.042 2.753 2.897z" fill="#fff"/><path d="M331.494 177.98c-.502.867-2.2.824-3.79-.095s-2.474-2.37-1.972-3.24 2.198-.824 3.79.097 2.474 2.37 1.972 3.237zM121.19 151.235c-.95.232-2.194-.615-2.776-1.894s-.28-2.504.67-2.736 2.193.614 2.775 1.893.284 2.504-.668 2.737z" fill="#259f00"/><path d="M413.215 351.722c8.77.428 17.013.1 25.784.528 1.588 1.35.453 4.667-.606 4.43-2.852-.073-4.495-.143-7.347-.216-.098-2.793-7.23-2.335-7.023.09-3.85.463-7.323-.135-11.174-.277-1.138-1.417-.992-3.97.366-4.555z" fill="#209000"/></g></svg>