<svg xmlns="http://www.w3.org/2000/svg" height="480" width="640" viewBox="0 0 640 480"><defs><clipPath id="a"><path fill-opacity=".67" d="M0 0h682.67v512H0z"/></clipPath></defs><g fill-rule="evenodd" clip-path="url(#a)"><path d="M0 475.472L925.716 0H0v475.472z" fill="#0000d6"/><path d="M960 0L25.472 480H960V0z" fill="#006000"/><path d="M960 0h-51.43L.003 455.025V480H51.43L960 25.875V.005z" fill="#fc0"/><path fill="#fff" d="M66.935 8.554l11.116 32.29 36.066-.025L84.92 60.743 96.09 93.02 66.93 73.044l-29.162 19.97 11.177-32.27-29.192-19.936 36.066.033zm183.66.57l11.114 32.29 36.064-.025-29.196 19.925 11.17 32.274-29.16-19.974-29.162 19.968 11.177-32.27L203.41 41.38l36.067.033zm11.945 135.45l11.115 32.288 36.066-.024-29.196 19.926 11.17 32.274-29.16-19.973-29.16 19.968 11.175-32.27-29.193-19.934 36.066.032zm-89.075-57.906l11.116 32.29 36.067-.025-29.197 19.926 11.172 32.273-29.16-19.973-29.163 19.97 11.176-32.27-29.192-19.936 36.065.034zm-96.06 62.473l11.116 32.29 36.067-.024L95.39 201.33l11.17 32.276-29.16-19.974-29.16 19.97 11.175-32.27-29.19-19.936 36.064.034z"/></g></svg>