<svg xmlns="http://www.w3.org/2000/svg" height="480" width="640" viewBox="0 0 640 480"><defs><clipPath id="a"><path fill-opacity=".67" d="M-15.067 0h682.67v512h-682.67z"/></clipPath></defs><g fill-rule="evenodd" clip-path="url(#a)"><path fill="#fff" d="M-44.03 0h960.51v480.256H-44.03z"/><path fill="#de2918" d="M-44.03 320.168h960.51v160.088H-44.03z"/><path fill="#08399c" d="M-44.03 160.088h960.51v160.09H-44.03z"/><path d="M228.336 87.21c-3.77 57.83-5.93 89.52-14.735 104.185-9.52 15.748-18.782 27.278-55.932 41.16-37.154-13.89-46.412-25.418-55.936-41.167-8.805-14.66-10.965-46.347-14.735-104.175l5.49-1.848c11.053-3.372 19.3-6.082 25.4-7.286 8.734-1.85 16.158-3.94 39.636-4.43 23.477.403 30.938 2.623 39.673 4.472 6.05 1.29 14.65 3.828 25.62 7.264l5.518 1.827z" fill="#de2918"/><path d="M222.924 85.316c-3.566 57.704-6.55 84.13-11.203 96.84-9.028 21.754-23.323 33.682-54.09 45.06-30.765-11.39-45.06-23.32-54.087-45.072-4.654-12.7-7.593-39.06-11.057-96.896 10.818-3.378 19.3-6.02 25.4-7.222 8.736-1.85 16.16-4.028 39.638-4.432 23.477.404 30.988 2.582 39.724 4.43 6.1 1.204 14.757 3.845 25.676 7.282z" fill="#08399c"/><path d="M157.6 102.983l1.477 3.492 6.482.888-4.202 2.533 4.062 2.715-5.908.99-1.797 3.165-2.022-3.26-5.624-.796 3.826-2.775-3.94-2.525 6.224-.954 1.42-3.473z" fill="#fc0"/><path d="M209.492 168.484l-3.593-2.84-2.598-4.272-5.086-4.413-2.65-4.46-5.088-4.55-2.488-4.46-2.704-2.18-1.785-1.72-4.595 4.03-2.504 4.375-3.12 2.83-3.427-2.678-2.592-4.565-9.62-17.088-9.625 17.088-2.592 4.565-3.427 2.677-3.12-2.83-2.505-4.375-4.594-4.03-1.785 1.72-2.704 2.182-2.488 4.458-5.087 4.55-2.65 4.46-5.086 4.412-2.596 4.27-3.584 2.908c1.86 15.84 11.957 28.25 17.46 33.926 6.138 5.96 18.795 13.937 34.273 19.216 15.522-5.167 28.355-13.255 34.494-19.216 5.503-5.677 15.6-18.087 17.472-33.992z" fill="#fff"/><path d="M173.07 78.69l1.475 3.49 6.48.89-4.2 2.532 4.062 2.714-5.907.99-1.797 3.165-2.023-3.258-5.623-.797 3.827-2.775-3.94-2.524 6.224-.954 1.42-3.473zm-34.555 5.147l1.475 3.493 6.482.888-4.2 2.533 4.06 2.715-5.907.99-1.797 3.165-2.022-3.26-5.623-.796 3.827-2.775-3.94-2.525 6.224-.954 1.42-3.473z" fill="#fc0"/><path d="M201.462 190.442l-7.005.022-6.464-.48-7.83-3.842-8.826.053-7.644 3.734-6.03.533-6.028-.534-7.643-3.734-8.827-.054-7.83 3.84-6.464.482-7.092-.098-3.425-5.803.127-.133 10.48 1.733 6.463-.48 7.83-3.84 8.827.052 7.643 3.734 6.03.532 6.028-.533 7.644-3.735 8.826-.053 7.83 3.84 6.465.48 10.2-1.787.134.268-3.418 5.8zm-82.85 21.508l6.934-.48 7.83-3.84 8.826.052 7.643 3.734 6.03.533 6.028-.533 7.643-3.735 8.827-.053 7.83 3.84 7.028.48 4.536-5.59-.153-.127-4.86 1.417-6.463-.48-7.83-3.84-8.826.052-7.643 3.734-6.03.534-6.027-.534-7.644-3.733-8.827-.054-7.83 3.84-6.464.48-4.763-1.2-.057.234 4.26 5.266z" fill="#08399c"/></g></svg>