<svg xmlns="http://www.w3.org/2000/svg" height="480" width="640" viewBox="0 0 640 480"><defs><clipPath id="a"><path fill-opacity=".67" d="M0 0h682.67v512H0z"/></clipPath></defs><g clip-path="url(#a)"><path d="M0 0h720v240H319.997L0 0z" fill-rule="evenodd" fill="#ed2939"/><path d="M0 480h720V240H319.997L0 480z" fill-rule="evenodd" fill="#002395"/><path d="M0 0l319.997 240L0 480V0z" fill-rule="evenodd" fill="#fff"/><path fill="#ff0" d="M161.548 181.095l.098-3.715s-1.995-3.178.32-6.594c0 0-4.92-2.602-3.774-6.678 0 0-4.45-1.137-4.122-6.03 0 0-4.802-.332-5.3-4.42 0 0-4.802.79-6.915-3.193 0 0-4.684.916-6.006-2.368 0 0-4.554 1.578-7.257-2.283 0 0-4.807 1.944-6.823-1.7-1.988 3.63-6.797 1.7-6.797 1.7-2.67 3.847-7.256 2.25-7.256 2.25-1.275 3.297-5.947 2.362-5.947 2.362-2.106 3.984-6.903 3.192-6.903 3.192-.47 4.075-5.265 4.408-5.265 4.408.378 4.905-4.064 6.02-4.064 6.02 1.172 4.073-3.742 6.67-3.742 6.67 2.375 3.433.4 6.586.4 6.586l-.112 3.426 79.476.368"/><path d="M377.17 843.11l.09-3.458s-1.855-2.958.3-6.136c0 0-4.578-2.422-3.513-6.215 0 0-4.14-1.058-3.835-5.612 0 0-4.468-.31-4.93-4.114 0 0-4.47.736-6.435-2.97 0 0-4.358.85-5.588-2.205 0 0-4.238 1.467-6.752-2.126 0 0-4.474 1.808-6.35-1.582-1.85 3.38-6.324 1.582-6.324 1.582-2.484 3.58-6.75 2.094-6.75 2.094-1.188 3.068-5.534 2.198-5.534 2.198-1.96 3.708-6.422 2.97-6.422 2.97-.44 3.794-4.9 4.103-4.9 4.103.352 4.565-3.78 5.6-3.78 5.6 1.09 3.793-3.483 6.21-3.483 6.21 2.21 3.195.372 6.13.372 6.13l-.104 3.19 73.95.34h-.013z" stroke="#000" stroke-width=".289" transform="matrix(1.075 0 0 1.075 -243.946 -725.187)" fill="none"/><path fill="#f00" d="M159.7 176.453c-12.484-1.248-26.858-4.212-37.953 2.035-7.44-4.382-17.796-4.114-26.614-3.257-4.79.858-10.422.858-15.428 1.675l-.784.11c-9.08.604-17.317-2.078-25.208-5.604 2.506 14.22 5.287 28.793 6.654 43.68 2.977 22.05-10.435 40.56-4.933 62.34 3.285 10.45 14.78 16.528 25.3 17.732 10.186.6 20.726 2.27 30.154 4.316 1.792.373 3.918 1.205 5.156 1.74 2.597 1.085 4.5 2.682 6.17 4.39 5.69-5.928 14.032-7.576 22.262-8.446 14.832-1.733 33.118-.79 42.197-14.224v-.76c4.934-7.43 4.28-18.764 2.14-27.183-.144-2.937-.93-5.526-1.354-8.325-9.06-23.927-1.302-50.835 2.597-74.95-4.763 2.603-10.075 3.832-15.374 5.134-4.226.562-8.936.307-13.214.078l-1.772-.478"/><path fill="#80cfe1" d="M178.335 245.123c-.058 1.575.792 2.812 1.1 4.27 1.734 10.46 3.408 24.312-7.36 30.8-11.914 7.575-27.538 4.33-41.323 8.34-2.754.765-6.548 3.297-8.485 5.088-1.243-.816-2.493-2.072-4.096-2.81-11.343-6.03-26.09-4.01-38.893-7.268-6.43-2.034-13.136-7.043-14.766-13.624-4.186-17.266 5.844-31.984 4.66-49.113-.766-13.08-2.965-25.64-5.987-37.903 10.01 4.663 21.596 5.442 32.85 3.206 8.334-1.165 18.037-1.19 25.85 2.334 4.304-1.85 9.34-2.682 13.98-3.192 8.82.857 18.3 2.453 27.38 2.388 6.066-.315 11.574-2.068 16.847-4.403-3.128 20.27-9.133 41.502-1.76 61.888"/><path fill="#fff" d="M160.333 249.163l-.097-19.06h2.348l-29.14-18.82-.053-9.777h2.814l-14.57-10.43-14.498 10.425h2.807l.052 9.772-28.983 18.792 2.316.013.098 19.047 76.9.052"/><path d="M376.04 906.46l-.09-17.74h2.184L351.02 871.21l-.048-9.1h2.618l-13.557-9.71-13.49 9.704h2.61l.05 9.094-26.967 17.49 2.155.01.092 17.728 71.55.05.007-.014z" stroke="#000" stroke-width="1.242" transform="matrix(1.075 0 0 1.075 -243.946 -725.187)" fill="none"/><path fill="#fff" d="M169.297 274.198l.006 5.965-93.876-.105-.04-5.94 93.917.08"/><path d="M384.38 929.76l.006 5.55-87.347-.096-.037-5.528 87.384.074h-.006z" stroke="#000" stroke-width="1.242" transform="matrix(1.075 0 0 1.075 -243.946 -725.187)" fill="none"/><path fill="#fff" d="M81.662 273.844l-.08-20.185 3.802-.01-.21 20.422.23-20.257-5.476-.157v-4.33l83.9.093.04 4.29h-5.176l.097 20.44-.184-20.44h3.853l.085 20.21"/><path d="M302.84 929.43l-.073-18.786 3.536-.007-.194 19.005.212-18.852-5.095-.146v-4.03l78.064.085.037 3.993h-4.815l.09 19.023-.17-19.023h3.586l.08 18.81M319.62 924.8l-.055-13.1h-10.482l.06 13.087 10.477.013M311.94 914.43l.03 7.61h4.797l-.024-7.61h-4.803m58.92 10.41l-.06-13.087-10.447-.012.05 13.1h10.457" stroke="#000" stroke-width="1.242" transform="matrix(1.075 0 0 1.075 -243.946 -725.187)" fill="none"/><path d="M363.18 914.48l.055 7.585h4.79l-.042-7.585h-4.803m7.6-10.97l-.06-13.1h-10.46l.037 13.1h10.488-.006zM363.1 893.16l.03 7.597h4.79l-.005-7.597H363.1m-43.57 10.3l-.073-13.076-10.464-.013.05 13.083h10.487v.007zM311.85 893.11l.024 7.585 4.803.012-.036-7.597h-4.79m26.65 10.37l-.05-13.076-10.47-.012.044 13.087H338.5M330.83 893.13l.024 7.585 4.797.024-.03-7.61h-4.79m22.29 10.38l-.073-13.1-10.464-.013.05 13.087 10.487.025M345.44 893.14l.036 7.61h4.797l-.024-7.61h-4.81" stroke="#000" stroke-width="1.242" transform="matrix(1.075 0 0 1.075 -243.946 -725.187)" fill="none"/><path fill="#fff" d="M138.494 241.673l.125 32.45-32.602-.053-.117-32.422 32.588.025"/><path d="M355.72 899.49l.116 30.2-30.333-.05-.11-30.174 30.32.024h.007zm-30.51 8.62l30.54.024m-26.73 21.546l-.103-21.342m23.223 21.352l-.103-21.33m14.753-21.73l-17.08-12.474-19.194-.024-16.947 12.45 53.22.047m-34.8-22.83l.03 7.61 16.144.01-.03-7.608-16.144-.012M336.37 865.69l.024 3.792h7.415l-.026-3.792h-7.414m3.67-10.55l8.98 6.348-17.892-.023 8.912-6.325" stroke="#000" stroke-width="1.242" transform="matrix(1.075 0 0 1.075 -243.946 -725.187)" fill="none"/><path fill="#fff" d="M160.656 189.4c2.74-.064 3.448 11.29 3.454 16.916 2.355.66 7.575 3.944 9.885 6.913l-26.484-.04c2.28-2.93 7.46-6.227 9.796-6.887 0-5.632.576-16.98 3.35-16.915"/><path d="M376.34 850.84c2.55-.06 3.208 10.507 3.214 15.742 2.19.615 7.05 3.67 9.198 6.434l-24.642-.036c2.118-2.727 6.94-5.795 9.113-6.41 0-5.24.536-15.803 3.117-15.742m-49.53 49.502h2.21l-.646 1.186s1.066 1.37.02 2.94l.577 1.09h-2.13l.58-1.035s-1.09-1.82.047-2.994l-.657-1.186m4.5 0h2.21l-.64 1.186s1.066 1.334.007 2.94l.572 1.09h-2.126l.572-1.035s-1.065-1.82.055-2.994l-.65-1.186m4.92 0h2.204l-.658 1.186s1.078 1.37.018 2.94l.58 1.115-2.114-.023.567-1.036s-1.078-1.806.042-2.994l-.646-1.186h.006zm5.54.02h2.222l-.65 1.2s1.064 1.345.005 2.92l.596 1.11H341.8l.573-1.036s-1.066-1.832.073-2.995l-.67-1.2h-.006zm4.93 0h2.204l-.652 1.2s1.072 1.345.012 2.915l.585 1.114h-2.126l.554-1.036s-1.07-1.82.085-2.995l-.663-1.2m4.9.01l2.204-.012-.652 1.2s1.09 1.345.03 2.92l.555 1.11h-2.13l.57-1.036s-1.064-1.82.074-2.995l-.65-1.187" stroke="#000" stroke-width="1.242" transform="matrix(1.075 0 0 1.075 -243.946 -725.187)" fill="none"/><path fill="#ff0" d="M122.35 315.715c12.21.04 27.224-2.452 34.258-6.088l15.446-1.37.307 18.846c-13.084 7.214-43.296 8.764-49.944 8.71-6.653.054-37.238-1.522-50.383-8.762l.17-18.856 15.48 1.393c7.033 3.618 22.505 6.128 34.7 6.128h-.033"/><path d="M340.7 968.4c11.36.036 25.33-2.283 31.873-5.667l14.372-1.273.286 17.538c-12.174 6.714-40.285 8.157-46.47 8.108-6.19.05-34.65-1.418-46.88-8.156l.16-17.55 14.402 1.296c6.544 3.367 20.94 5.704 32.287 5.704h-.03" stroke="#000" stroke-width=".289" transform="matrix(1.075 0 0 1.075 -243.946 -725.187)" fill="none"/><path fill="#ff0" d="M32.266 235.334l13.61 4.33-4.117 22.03-12.882 2s-2.172-11.582 3.388-28.372"/><path d="M256.88 893.59l12.662 4.03-3.83 20.503-11.985 1.862s-2.02-10.78 3.153-26.407v.012z" stroke="#000" stroke-width=".289" transform="matrix(1.075 0 0 1.075 -243.946 -725.187)" fill="none"/><path fill="#7e7e7e" d="M41.756 261.455l-12.875 2.243 8.146-11.584 4.73 9.34"/><path d="M265.71 917.9l-11.98 2.088 7.58-10.78 4.4 8.692" stroke="#000" stroke-width=".289" transform="matrix(1.075 0 0 1.075 -243.946 -725.187)" fill="none"/><path fill="#ff0" d="M24.13 251.204l13.118.948c.294 11.113 1.64 53.523 52.293 55.825l-1.576 15.43c-61.655.64-66.34-52.02-63.834-72.203"/><path d="M249.31 908.36l12.205.882c.274 10.343 1.528 49.813 48.656 51.956l-1.466 14.36c-57.367.596-61.726-48.413-59.394-67.198zm44.8 70.14l14.384-3.14" stroke="#000" stroke-width=".289" transform="matrix(1.075 0 0 1.075 -243.946 -725.187)" fill="none"/><path fill="#ff0" d="M211.362 235.495l-13.556 4.29 4.3 21.998 12.907 2.073s2.074-11.577-3.65-28.373"/><path d="M423.52 893.74l-12.613 3.993 4 20.472 12.01 1.93s1.93-10.775-3.397-26.407v.012z" stroke="#000" stroke-width=".289" transform="matrix(1.075 0 0 1.075 -243.946 -725.187)" fill="none"/><path fill="#7e7e7e" d="M202.098 261.55l12.908 2.317-8.256-11.59-4.652 9.274"/><path d="M414.9 917.99l12.01 2.155-7.682-10.786-4.328 8.63" stroke="#000" stroke-width=".289" transform="matrix(1.075 0 0 1.075 -243.946 -725.187)" fill="none"/><path fill="#ff0" d="M219.65 251.377l-13.137.896c-.19 11.1-1.16 53.528-51.81 55.778l1.72 15.417c61.642.713 65.883-51.92 63.226-72.098"/><path d="M431.23 908.52l-12.223.835c-.177 10.33-1.077 49.818-48.206 51.912l1.602 14.348c57.355.662 61.3-48.322 58.828-67.1v.004zm-44.19 70.05l-14.42-3.15" stroke="#000" stroke-width=".289" transform="matrix(1.075 0 0 1.075 -243.946 -725.187)" fill="none"/><path fill="#009fc5" d="M121.76 346.666c-.37.237-.87.3-1.45.272l-2.61-.133.223-3.257 2.59.138c.51.035.913.134 1.165.287.523.272.753.775.704 1.472-.034.6-.244.99-.628 1.22m-4.382 5.13l.258-3.97 3.043.21c.984.075 1.716-.183 2.212-.686.516-.49.782-1.13.816-1.856.064-.845-.152-1.535-.655-2.045-.48-.49-1.165-.747-2.023-.83l-4.348-.272-.6 9.348 1.29.084m9.476-7.808l3.182.035c.46.042.824.098 1.09.223.487.23.718.69.718 1.36 0 .63-.182 1.048-.538 1.3-.342.23-.837.333-1.43.333l-3.057-.035.028-3.216m-.05 8.282l.03-3.99 2.986.04c.53 0 .92.043 1.192.175.44.2.656.628.677 1.213l.076 1.57c.02.376.028.607.05.76.04.112.06.23.117.315h1.605l-.028-.203c-.18-.098-.328-.286-.39-.572-.056-.182-.084-.454-.098-.796l-.028-1.248c-.02-.567-.12-.957-.335-1.174a1.673 1.673 0 0 0-.845-.6c.446-.236.78-.508 1.026-.844.23-.37.35-.837.35-1.408 0-1.075-.44-1.808-1.333-2.205-.482-.217-1.096-.33-1.822-.343l-4.487-.042-.035 9.376h1.29m9.962-1.98c-.572-.698-.88-1.57-.95-2.603-.062-1.298.19-2.288.782-2.96.6-.724 1.375-1.072 2.387-1.13 1.02-.054 1.856.274 2.477.915.637.63 1 1.5 1.062 2.59.035 1.045-.146 1.973-.628 2.79-.474.83-1.263 1.297-2.428 1.325-1.215.063-2.122-.223-2.7-.928m-1.536-5.904c-.6.928-.845 2.003-.782 3.3.09 1.403.523 2.56 1.34 3.434.907.872 2.108 1.31 3.587 1.227 1.584-.07 2.777-.67 3.587-1.772.656-.997.97-2.156.9-3.586-.09-1.278-.46-2.318-1.15-3.092-.874-1.04-2.15-1.5-3.88-1.43-1.634.104-2.835.704-3.61 1.918m44.074-13.49c.9-.153 1.682-.11 2.394.133 1.047.327 1.752 1.102 2.19 2.288l-1.29.18c-.28-.64-.677-1.08-1.214-1.325-.523-.23-1.18-.286-1.933-.173a3.01 3.01 0 0 0-2.08 1.276c-.488.753-.635 1.758-.418 3.042.18 1.06.572 1.96 1.214 2.56.592.614 1.464.83 2.602.67.85-.14 1.535-.48 2.017-1.068.5-.557.648-1.402.48-2.49l-3.008.46-.153-1.032 4.186-.642.816 4.96-.83.126-.516-1.144c-.35.517-.698.914-1.005 1.144-.516.405-1.214.663-2.086.79-1.13.173-2.163-.03-3.098-.63-1.026-.76-1.69-1.89-1.94-3.46-.273-1.54-.028-2.86.684-3.9.676-1.004 1.66-1.59 2.986-1.78m9.47-.707l3-1.09c.412-.152.768-.2 1.075-.165.552.04.957.37 1.187 1.024.217.56.217 1.047-.027 1.39-.26.355-.663.613-1.25.83l-2.82 1.01-1.164-3m3 7.752l-1.465-3.76 2.792-1.005c.524-.167.887-.258 1.16-.23.494.063.87.364 1.122.935l.635 1.43c.14.356.25.572.34.67.043.126.134.203.204.286l1.514-.556-.084-.203c-.223 0-.44-.124-.6-.37-.118-.173-.23-.424-.39-.717l-.496-1.173c-.223-.51-.454-.822-.72-1.01a2.395 2.395 0 0 0-.997-.273c.308-.356.53-.712.615-1.13.09-.426.05-.9-.153-1.43-.384-.998-1.09-1.542-2.08-1.612-.523-.042-1.123.07-1.814.313l-4.215 1.5 3.405 8.82 1.235-.455m10.967-4.673l-5.352-7.807 5.876-3.747.65.943-4.817 3.075 1.647 2.386 4.446-2.86.607.915-4.446 2.86 1.816 2.63 4.9-3.132.648.92-5.98 3.818m4.695-13.81l1.534-1.688c.712-.754 1.466-1.096 2.29-.998.823.07 1.66.502 2.553 1.284.245.188.46.432.684.704.392.51.622.957.77 1.403.124.56.097 1.068-.1 1.556-.117.245-.327.53-.64.873l-1.543 1.675-5.548-4.82m8.11 3.675c1.087-1.2 1.324-2.49.69-3.948a6.668 6.668 0 0 0-1.718-2.226c-.984-.874-2.01-1.32-3.09-1.403-1.2-.09-2.22.342-3.107 1.31l-2.617 2.805 7.216 6.294 2.617-2.82m5.598-7.286l-8.304-4.877.677-1.074 8.32 4.85-.685 1.114m3.25-5.676l-8.968-3.587 2.645-6.306 1.088.42-2.156 5.197 2.7 1.06 2.017-4.785 1.034.426-1.996 4.78 3.022 1.228 2.212-5.26 1.09.41-2.695 6.42m4.123-11.014l-9.435-2.086.314-1.458 8.715-2.944-7.655-1.69.28-1.143 9.434 2.03-.3 1.416-8.73 3.007 7.655 1.653-.273 1.214m-.752-11.977l.118-1.186c.545.016 1.005-.07 1.354-.256.684-.37 1.082-1.074 1.186-2.115.042-.488.02-.915-.09-1.32-.203-.78-.642-1.213-1.347-1.283-.523-.056-.9.07-1.173.356-.244.328-.502.802-.697 1.472l-.433 1.235c-.28.81-.537 1.367-.817 1.68-.446.588-1.074.79-1.877.734-.86-.09-1.557-.432-2.052-1.088-.51-.6-.72-1.458-.594-2.52.084-.968.405-1.785.977-2.44.53-.6 1.355-.887 2.41-.776l-.1 1.186c-.515 0-.927.09-1.227.3-.544.3-.844.935-.935 1.863-.077.767.028 1.283.32 1.674.294.328.664.537 1.096.572.46.04.824-.105 1.075-.46.18-.245.397-.775.69-1.633l.426-1.298c.21-.6.46-1.06.753-1.388.523-.544 1.207-.775 2.065-.71 1.047.11 1.794.543 2.177 1.34.377.8.524 1.687.433 2.69-.12 1.138-.488 2.03-1.172 2.63-.684.615-1.536.824-2.568.74m-195.588-.573l.217 1.172c-.524.104-.942.314-1.25.586-.55.516-.74 1.29-.55 2.345.083.446.244.885.446 1.235.42.71.963.997 1.654.885.51-.09.844-.285 1.005-.648.152-.358.264-.9.3-1.6l.062-1.32c.04-.814.132-1.455.314-1.812.286-.642.823-1.04 1.626-1.17.858-.156 1.612.04 2.26.53.657.452 1.09 1.24 1.25 2.286.202.957.112 1.815-.265 2.59-.363.753-1.06 1.213-2.13 1.408l-.21-1.185c.497-.182.867-.357 1.11-.6.42-.468.546-1.145.385-2.072-.125-.755-.384-1.243-.774-1.486-.384-.288-.768-.4-1.187-.33-.466.07-.773.33-.92.747-.09.28-.16.858-.223 1.744l-.063 1.368c-.035.642-.132 1.173-.35 1.536-.34.67-.92 1.08-1.764 1.213-1.068.18-1.892-.063-2.478-.747-.6-.67-.97-1.472-1.158-2.47-.21-1.185-.056-2.106.42-2.845.48-.76 1.24-1.2 2.274-1.347m-.597 12.352l9.227-2.776 2.15 6.495-1.124.354-1.76-5.337-2.804.845 1.625 4.932-1.075.342-1.612-4.946-3.126.934 1.786 5.456-1.102.315-2.185-6.614m4.094 11.267l8.486-4.5.907 1.584-5.834 6.168 8.52-1.458.88 1.57-8.465 4.472-.6-1.04 4.996-2.63c.182-.105.46-.258.866-.474.397-.18.844-.426 1.29-.656l-8.485 1.444-.62-1.102 5.79-6.147-.28.14c-.18.104-.494.258-.92.502a6.98 6.98 0 0 1-.934.5l-4.982 2.673-.614-1.06m15.81 12.507c-.427-.098-.846-.342-1.257-.768l-1.794-1.85 2.415-2.21 1.807 1.842c.35.342.572.676.69.963.17.55 0 1.053-.51 1.527-.46.426-.92.6-1.352.495m-6.818.857l2.96-2.714 2.1 2.128c.676.692 1.367 1.006 2.093.993a2.953 2.953 0 0 0 1.933-.845c.63-.558.93-1.214.93-1.918-.008-.684-.322-1.326-.9-1.926l-3.016-3.077-7.02 6.446.907.914m8.484 7.532l5.087-7.976 6.016 3.656-.628.95-4.94-2.958-1.53 2.414L61.653 330l-.586.914-4.55-2.74-1.73 2.698 5.003 3.008-.6.94-6.086-3.662m15.052-1.535l3.056.97c.433.132.747.3.956.49.39.37.496.9.266 1.54-.19.558-.475.92-.92 1.075-.4.07-.9.07-1.488-.112l-2.882-.92 1.012-3.043m-2.638 7.835l1.27-3.802 2.847.928c.51.133.88.314 1.06.502.35.314.455.78.28 1.36l-.426 1.514c-.098.37-.147.614-.19.726 0 .12 0 .245.022.328l1.5.488.09-.216c-.16-.126-.25-.355-.243-.64.034-.177.083-.455.18-.777l.363-1.215c.147-.53.203-.927.07-1.213-.112-.3-.3-.573-.614-.83.473-.084.885-.23 1.234-.49.328-.285.607-.683.775-1.24.34-1.013.152-1.857-.6-2.5-.378-.333-.916-.62-1.62-.885l-4.27-1.318-2.988 8.894 1.25.384" transform="scale(.938)"/><path fill="#bc715f" d="M73.62 164.69c1.033-2.495 10.617-9.293 42.063-6.315 0 0 5.314 3.245 8.437 2.827 1.78-.23-1.048.11-3.37-1.82-2.37-1.93-2.875-5.89 2.54-5.784 5.386.137 25.554 1.275 25.934 3.087.352 1.833-10.665 2.6-14.762 2.495-4.118-.11-3.64 1.97.458 1.813 12.804-.46 26.78-4.968 41.54 5.47 1.76 1.27-4.45 1.473-9.256-.57 0 0-13.02.675-18.65-.248 0 0-4.326 3.52-9.962 3.174.733 1.825-2.082 8.638-19.8 3.513-2.927.897-13.59 2.683-12.425-.484-2.808 0-7.73.902-8.464-.695-.707-1.57 8.667-3.946 10.31-5.647 0 0-19.828.19-23.585-1.18 0 0-11.697 2.626-11.01.348"/><path fill="#008737" d="M79.974 192.448c.426-.575.596-1.61 1.5-1.584 1.963.524 3.298 4.116 5.713 1.786.858-.19 1.185.976 1.892 1.114.45 1.996 2.054-.407 3.252-.27 2.56-1.138 5.728-1.407 8.76-.844.09 1.957-1.442 4.117-3.366 5.23.04 1.97 1.827 3.233 1.794 5.215-.308.74-.053 1.904-1.173 2.146-1.42-.254-2.82-.404-3.998-1.196-.146-.144-.264-.426-.564-.334-.145.66.89 1.316 1.295 1.99-.712 1.216-1.896.104-2.89.117-.296.7-.015 1.584-.735 2.035-1.257-.04-1.512-1.407-2.284-2.087-.792.857.557 1.368.747 2.048-.484 2.58-.42 5.098-2.998 6.786l-1.73.858c-.47-1.297-.176-3.26-.49-4.615-1.02 1.663-1.82 3.116-3.32 4.522-1.753-.576-2.775-2.643-3.16-4.358-.734-1.996-.314-4.385 1.263-5.83-.537-1.05-2.377-.806-2.638-2.297-2.756-1.794-4.28 3.14-6.062.575-.576-2.395.112-5.373 1.846-7.16-.387-.98-1.67-.725-2.43-1.288-1.734-1.473-4.234-3.03-4.11-5.688 4.746-1.792 10.42-.478 13.87 3.128"/><path fill="#ff0" d="M82.436 192.18c-.11 2.17 1.467.587 2.64 1.903-.918-.36-1.586 1.583-2.482.47l-.563.538c.328.747.963.845.3 1.663-.98.372-1.176-.857-1.635-1.34-.08-.217.15-.623-.21-.768-.555.47-1.138.642-1.904.563-.208-.418-.614-.968-.202-1.29.753-1.014 1.918.367 2.488-.346.09-.628-.46-1.393.255-1.826.492.085 1.12-.182 1.324.433m5.864 1.783c.058.42-.216 1.008.334 1.304.713-.387 1.473-.094 1.885.615-.006.38.11.876-.386 1.06l-1.113-.21c.08-.216-.274-.353-.412-.562-.49-.15-.78.247-1.145.49.275.418.91.647.76 1.185-.656.654-.976-.563-1.696-.256-.49-.19.177-1.21-.595-1.52-.918 0-.31 1.506-1.482.918-.418-.472-.83-1.107-.378-1.636.49-.33 1.322-.244 1.74.182.713-.79.786-3.847 2.495-1.57m-7.32 3.15c.48.687-.105 1.622.504 2.388.956-1.786 1.878.386 3.018.216.347.425.117 1.015.182 1.5-1.407.37-3.102.817-4.346-.31l-.347.4c.74.687 1.44 1.466.85 2.617-1.053.23-2.683.256-3.213-.83-.275-.896.64-1.544-.327-2.265-.7.87-.668 2.036-2.128 1.243-.904-.497-1.172-1.523-.72-2.388.94-1.486 2.59.047 3.613-.68.143-1.276-.328-2.39.844-3.095 1.002-.178 1.466.575 2.075 1.203"/><path fill="#fff" d="M84.985 197.898c-.47 2.173-2.108-.11-2.873-.203 1.02-1.812 1.662.59 2.873.203m5.097 2.365c-1.14.32-.963-1.1-1.525-1.657l.44-.398c.41.497.725 1.395 1.085 2.055"/><path fill="#ff0" d="M88.544 199.822c.328.753-.74 1.356.17 1.904.288-.24.642-.575.793-.713.778.23 1.682.367 2.225 1.14.583 1.597-1.034 1.556-1.95 2.002l-.91-.04c.215-.444-.393-.635-.543-.94-.42-.106-.768.024-1.003.378.202 1.014 1.44 1.806.163 2.71-1.08-.073-2.756.346-2.657-1.146-.406-.844 1.1-2.147-.51-2.2-.53 1.14-1.114 2.24-2.496 1.16l.17-1.623c1.324.038 2.888.267 3.484-1.21.38-1.074-.66-2.063.27-2.913 1.348-.307 2.107.596 2.794 1.492"/><path d="M87.576 202.263c.34.806-.576.858-1.008 1.257-.582.046-.988-.184-1.34-.576-.264-.976.463-1.074 1.02-1.46.647-.268.916.484 1.328.78"/><path fill="#fff" d="M86.78 202.79c-.144.19-.346.13-.562.183l-.203-.975c.43.04.995.177.766.792"/></g></svg>