<svg xmlns="http://www.w3.org/2000/svg" height="480" width="640" viewBox="0 0 640 480"><path d="M640 480V0H0v480h640z" fill="#006"/><path fill-rule="evenodd" fill="#006" d="M0 0h373.68v232.168H0z"/><path d="M0 0v25.957l331.9 206.21h41.78V206.21L41.776 0H0zm373.68 0v25.956L41.776 232.166H0V206.21L331.9 0h41.78zM155.7 0v232.167h62.28V0H155.7zM0 77.39v77.388h373.68v-77.39H0z" fill="#fff"/><path d="M0 92.867V139.3h373.68V92.867H0zM168.155 0v232.167h37.368V0h-37.368zM0 232.167l124.56-77.39h27.85l-124.56 77.39H0zM0 0l124.56 77.39H96.708L0 17.304V0zm221.267 77.39L345.827 0h27.852L249.12 77.39h-27.853zM373.68 232.166l-124.56-77.39h27.852l96.708 60.085v17.305z" fill="#c00"/><path d="M612.54 212.442v79.91c0 65.607-25.77 125.663-102.217 162.17-76.416-36.507-102.19-96.56-102.19-162.17v-79.91H612.58z" fill-opacity=".996" fill="#fff"/><path d="M605.69 220.585v74.535c0 61.192-24.035 117.21-95.34 151.256-71.306-34.048-95.34-90.063-95.34-151.256v-74.535H605.7z" fill-opacity=".996" fill="#fdc300"/><g stroke="#000" stroke-width=".091"><path d="M205.96 52.847a2.085 2.085 0 0 0-1.265-.44c.117-1.296-.824-1.855-1.5-2.09-.677-.236-.913-.5-1.03-1.03-.118-.53-.47-.853-1.09-1.03-.617-.176-1.147-.794-1.382-1.088-.235-.296-.324-.237-.5.263-.177.5-.883 1.442-.236 1.472-.47.382-.735.823-.44 1.412-.325.265-.56.647-.12.794.443.148.56.266.59.384-.397 0-.5.794.44.97-.205.03-.293.677.09.677-.53 0-.972.796-1.648.796-.678 0-1.03.147-1.06.44-.03.295-.383.648-.56.795.5.06.824 0 1.09-.205s.705-.264 1-.03c.294.236.912.354 1.206.295-.647.442-1.118 1.03-1.177 1.59-.06.56-.442 1.205-.884 1.382-.44.176-1.03.647-1.235 1.206.56 1.383 1.353 1.725 2.148 2.09 1.413.646 2.295 1.117 2.884 1.764.588.648.824.177 1.706 1.295.883 1.118 1.707 3.236 2.59 3.59.882.353 2 .117 2.647-1 .648-1.12 1.06-12.417-2.265-14.3z" fill="#ff9e3d" transform="matrix(3.909 0 0 3.909 -339.132 46.653)"/><path d="M471.83 234.848c-3.222 3.452-7.365 6.9-6.674 13.112s1.38 16.333-4.37 19.78c-5.75 3.457-8.51 12.2-1.61 17.257 6.9 5.063 7.13 11.275 8.28 17.026 1.152 5.747 4.143 10.352 8.743 6.44 4.596.69 7.13-1.15 7.13-4.83s.23-5.75 3.678-6.904c3.45-1.15 4.37-2.3 5.98-5.407 1.61-3.104 2.53-4.484 1.61-6.326-.918-1.837-1.265-5.633-.574-8.397.692-2.76-.918-4.253-1.84-5.98-.92-1.722-1.263-3.22-.806-5.52.46-2.3-.688-3.794-2.298-4.947-1.61-1.15-2.303-2.3-1.955-4.144.344-1.838-1.153-2.988-2.877-4.368s-2.99-3.22-2.99-5.98c0-2.76-5.29-9.204-9.43-10.814z" fill="#ff927f"/><path d="M473.12 309.96c7.704-1.956 7.016-14.61 5.867-19.9-1.154-5.29-4.11-12.87-1.842-18.863 3.22-8.51-3.913-16.564-2.07-19.78 1.84-3.227 1.61-4.95 1.378-5.983-.226-1.04-1.954-1.845-2.067.34-.118 2.19-.692 2.99-2.072 4.37s-1.036 4.372 0 7.71c1.036 3.335 3.22 8.398-.23 15.067-3.45 6.67-2.03 9.646-.69 12.77 2.07 4.83 7.018 21.622 1.725 24.27z" fill="#ff9ee1"/><path d="M438.603 237.838c.864 0 2.533-.344 2.533.806m-4.253 4.714c1.036-.746 2.877.118 4.714-.977m-2.877 5.58c1.38 0 3.22-.06 4.945-1.44m-3.225 5.236c1.266 0 3.624-.806 4.198-2.47m-3.846 5.116c2.47-.117 5.75.806 6.207-.058m-6.09 8.225c1.723-1.612 5.808-2.702 6.726-4.372m-2.35-21.278c2.874.918 1.686 2.697 3.105 3.796 2.534 1.954.23 4.144 2.303 4.714 2.068.575 2.033.927 1.493 3.222-.633 2.705 1.955 2.814 1.036 4.6m7.818-1.723c-1.15 0-4.542.116-5.98 3.166m-18.568 30.016c1.325.23 1.986-.524 2.357-1.267.402-.805.574-1.38 1.78-1.434 1.21-.058 3.05-.402 3.453-1.325.403-.918 1.84-.058 3.05-2.47 1.207-2.416 2.012-5.294 5.23-6.33" fill="none"/></g><g stroke="#000" stroke-width=".091"><path d="M527.728 334.97c1.302 1.893-.047 3.938 2.162 4.755 2.587.958.328 4.363 3.38 5.56 2.706 1.067.02 4.32 2.944 5.78 2.615 1.307-.438 4.36 3.053 6.108 3.487 1.743-.657 5.668 1.963 7.193 2.615 1.53-.872 5.454 2.18 6.982 3.054 1.525-1.31 4.578 1.525 6.76 2.834 2.18-.653 5.45 2.18 7.412s-1.738 4.586 1.092 7.416c2.18 2.18-.786 4.316.872 7.635 1.09 2.18-1.092 10.904-7.198 10.033-2.18 3.706-10.683 6.978-13.736 5.887-3.053 2.182-12.864 5.235-17.884.434-5.01 4.8-14.826 1.748-17.88-.434-3.052 1.09-11.554-2.18-13.736-5.887-6.105.87-8.287-7.854-7.196-10.032 1.657-3.318-1.31-5.453.872-7.634 2.83-2.83-1.744-5.45 1.09-7.416s-.653-5.23 2.182-7.412c2.834-2.182-1.53-5.235 1.524-6.764 3.053-1.524-.434-5.45 2.18-6.978 2.62-1.525-1.523-5.45 1.964-7.193 3.49-1.748.437-4.8 3.052-6.107 2.924-1.462.24-4.714 2.944-5.782 3.053-1.196.793-4.6 3.38-5.56 2.245-.828.814-2.927 2.23-4.847 6.492 2.557 26.592 4.39 34.86.094z" fill="#00a728"/><path d="M495.48 346.38c.002.976-.02 1.954-.928 3.162-1.962 2.62.872 3.925-1.31 6.763-2.177 2.83.438 4.574-1.962 6.974-2.396 2.4.438 4.58-1.962 7.196-2.396 2.62.438 4.363-1.962 6.764-2.397 2.396.437 5.015-1.963 7.412-2.396 2.4.438 5.454-2.18 8.288-2.616 2.834.437 5.016-1.744 7.193-2.182 2.185-.22 4.363-1.745 5.892 2.615-1.963 2.615-5.016 4.578-6.545 1.962-1.524-.653-3.706.438-4.797s.22-5.668 2.182-7.85.22-6.544 1.962-8.07.434-6.105 2.615-7.63 0-5.238 1.743-7.197c1.747-1.963 0-5.016 1.747-7.416 1.743-2.4.078-4.574 1.306-6.54.547-.876.547-7.198-.817-3.6zM-62.167-190.32c-1.524 2.834 1.09 3.487-.87 6.325s1.09 5.016-1.092 7.85 1.092 4.36-.87 7.194c-1.963 2.838.87 4.363-.872 6.544-1.748 2.18 1.305 4.363-.872 6.978-2.18 2.62.872 4.582-.876 6.98-1.743 2.4.657 5.014-.87 6.977-1.526 1.963 1.09 4.802-1.092 7.417s.438 4.363-.872 6.106c2.62-.87 1.638-4.472 2.62-5.234.98-.764-.33-5.78 1.196-7.09 1.528-1.305-.982-5.343.437-7.087 2.4-2.944.328-4.906 1.743-7.193 1.42-2.29-.54-5.23.547-6.763 1.853-2.62-.82-4.977.543-6.87 1.963-2.724-.38-4.972.982-6.762 2.07-2.725-.22-5.45.656-6.87.873-1.414 2.288-7.52-.437-8.502zm3.8.353c-1.525 3.8 1.09 5.317.218 8.358-.87 3.042 1.092 5.32-.217 8.613-1.306 3.295 1.747 5.825 0 10.133-1.744 4.308 1.125 5.38 0 9.63-1.306 4.936 2.18 7.555 0 11.043-2.178 3.49 2.497 4.644.218 8.288-1.09 1.744.11 6.216 1.854.872 1.748-5.34-1.305-5.997.22-8.178 1.528-2.182-.544-7.96.11-11.013.655-3.048-1.526-7.192-.11-10.464 1.418-3.273-2.182-6.764-.763-9.598 1.42-2.834-.652-6.325.654-8.612 1.31-2.29-.98-5.345-.434-6.654.543-1.306-.547-6.138-1.747-2.416z" fill-opacity=".996" fill="#fdc300"/><path d="M526.594 337.544c0-24.64-3.487-33.148-16.355-33.148-12.866 0-16.352 8.503-16.352 33.148h32.706z" fill="#ef072d"/><path d="M498.684 335.58c-2.4 2.4.438 4.145-1.962 6.98-2.4 2.834-.22 4.362-2.182 6.978s.872 3.925-1.31 6.763c-2.176 2.835.44 4.575-1.96 6.975-2.398 2.4.436 4.582-1.964 7.198-2.396 2.62.438 4.362-1.962 6.763-2.396 2.396.438 5.016-1.962 7.412-2.397 2.4.437 5.454-2.182 8.288-2.615 2.834.438 5.016-1.743 7.193-2.18 2.185-.22 4.366-1.743 5.89-1.53 1.525-1.744 3.656-1.09 4.583m24.634-74.15c-2.178 2.834 1.09 4.144-.872 6.54-1.963 2.4.872 3.273-.653 6.11s1.09 3.488-.872 6.322 1.092 5.016-1.09 7.85 1.09 4.363-.87 7.198c-1.963 2.834.87 4.362-.873 6.544-1.747 2.18 1.306 4.36-.87 6.978-2.183 2.62.87 4.578-.877 6.978-1.743 2.4.657 5.016-.872 6.98-1.524 1.96 1.09 4.796-1.09 7.415s.437 4.36-.872 6.106c-1.31 1.744-2.342 4.305-1.09 5.016m17.9-77.418c-1.088 4.56 1.527 8.613 0 12.413-1.526 3.8 1.09 5.316.218 8.358-.872 3.04 1.09 5.32-.22 8.612-1.305 3.296 1.748 5.825 0 10.133-1.743 4.31 1.126 5.38 0 9.63-1.305 4.937 2.182 7.556 0 11.043-2.177 3.492 1.967 4.364.22 8.29-1.744 3.924 1.09 5.453-.22 9.378m11.57-81.347c2.4 2.4-.437 4.145 1.964 6.98 2.4 2.834.218 4.362 2.18 6.978s-.87 3.925 1.31 6.763c2.178 2.835-.438 4.575 1.963 6.975 2.397 2.4-.437 4.582 1.963 7.198 2.396 2.62-.438 4.362 1.962 6.763 2.396 2.396-.438 5.016 1.963 7.412 2.396 2.4-.438 5.454 2.18 8.288 2.616 2.834-.437 5.016 1.744 7.193 2.18 2.185.22 4.366 1.744 5.89 1.528 1.525 1.747 3.656 1.09 4.583m-24.634-74.15c2.177 2.834-1.09 4.144.87 6.54 1.964 2.4-.87 3.273.654 6.11 1.53 2.835-1.09 3.488.872 6.322s-1.09 5.016 1.09 7.85-1.09 4.363.872 7.198c1.963 2.834-.87 4.362.872 6.544 1.747 2.18-1.306 4.36.876 6.978 2.177 2.62-.876 4.578.87 6.978 1.745 2.4-.655 5.016.873 6.98 1.526 1.96-1.09 4.796 1.092 7.415s-.438 4.36.87 6.106c1.31 1.744 2.347 4.305 1.092 5.016" fill="none"/><path d="M493.915 337.544c0-24.64 3.487-33.148 16.35-33.148-5.886 0-9.482 4.578-10.463 7.63s-.438 2.835.872 1.64.652 1.414-.434 2.833c-1.09 1.415-2.18 5.45-.657 4.143 1.528-1.31 2.725.22 1.09 2.506s-3.052 7.634-1.418 5.78c1.638-1.856 1.962 1.198.985 2.726-.985 1.525-.876 2.834 0 2.182.87-.657.762 2.505-.11 3.706h-6.215zm-250.628-264.55c0-19.302-2.396-25.08-7.192-27.043-2.717-1.113-2.795-.87-1.497.873s1.098 4.254-.102 2.506c-1.196-1.744-1.595-2.073-2.095-1.307-.5.763 1.396 4.36 2.796 7.632 1.126 2.63.4 3.925-1.298 1.31s-1.696-.247-.207 1.962c1.912 2.834 1.854 11.45 1.854 15.047l7.743-.98z"/><path d="M510.255 341.144c5.124 0 10.734-.915 14.502-2.377 4.472-1.735 4.71-3.26 3.162-5.207-1.09-1.372-3.49-.547-5.778.457-2.29 1.005-8.616 1.642-11.887 1.642-3.268 0-9.593-.638-11.884-1.643-2.286-1.008-4.686-1.83-5.776-.457-1.548 1.947-1.31 3.472 3.162 5.207 3.764 1.462 9.378 2.377 14.5 2.377z" fill="#ef072d"/></g><g fill-rule="evenodd" fill="#b95a1e"><path d="M779.41 912.6s-.12 103.6 0 179.24c.12 75.63 19.822 104.91 54.262 103.59 34.44-1.33 41.108-58.83 34.53-92.08-6.576-33.26-53.24-198.97-53.24-198.97l-35.552 8.222z" transform="matrix(.053 -.034 .032 .056 489.023 284.185)" stroke="#000" stroke-width="6.377"/><path d="M779.41 912.6s-.12 103.6 0 179.24c.12 75.63 19.822 104.91 54.262 103.59 34.44-1.33 41.108-58.83 34.53-92.08-6.576-33.26-53.24-198.97-53.24-198.97l-35.552 8.222z" transform="matrix(.061 -.014 .013 .064 499.988 261.06)" stroke="#000" stroke-width="6.377"/><path d="M779.41 912.6s-.12 103.6 0 179.24c.12 75.63 19.822 104.91 54.262 103.59 34.44-1.33 41.108-58.83 34.53-92.08-6.576-33.26-53.24-198.97-53.24-198.97l-35.552 8.222z" transform="matrix(.062 0 0 .066 509.298 249.353)" stroke="#000" stroke-width="6.377"/><path d="M779.53 255.12c159.57-1.394 177.16-35.432 177.16-35.432s35.43-70.866 17.716-88.584c-17.717-17.716-194.88-17.716-194.88-17.716v141.73z" transform="matrix(.039 0 0 .066 527.683 292.32)" stroke="#000" stroke-width="8.095"/><path d="M779.53 255.12c106.3 0 124.02-35.432 124.02-35.432s35.43-70.866 17.716-88.584c-17.717-17.716-141.73-17.716-141.73-17.716v141.73z" transform="matrix(.062 0 0 .066 509.298 287.673)" stroke="#000" stroke-width="6.377"/><path d="M779.53 255.12c88.583 0 141.73-35.433 141.73-35.433s35.43-70.866 17.716-88.584c-17.72-17.72-159.45-17.71-159.45-17.71v141.73z" transform="matrix(.062 0 0 .066 509.298 283.026)" stroke="#000" stroke-width="6.377"/><path d="M832.68 113.39s70.866-88.583 194.88-177.17c124.01-88.582 213.73-156.72 230.31-141.73 0 17.717-106.3 106.3-194.88 177.17C974.4 42.52 868.1 148.82 868.1 148.82l-35.433-35.433z" transform="matrix(.077 0 0 .066 497.232 249.488)" stroke="#000" stroke-width="5.724"/><path d="M832.68 113.39s70.05-52.025 204.38-124.02c132.23-63.918 318.89-53.15 318.89-35.433-17.71 17.716-177.16 17.716-283.46 70.866-101.48 50.73-204.39 124.01-204.39 124.01l-35.433-35.433z" transform="matrix(.077 0 0 .066 497.87 254.135)" stroke="#000" stroke-width="5.724"/><path d="M832.68 113.39s61.675-35.068 204.38-88.583c141.72-53.15 329.87-17.717 329.87 0-17.7 17.713-170.4 6.944-276.7 35.43-109.99 27.757-222.09 88.583-222.09 88.583l-35.433-35.433z" transform="matrix(.077 0 0 .066 497.93 262.135)" stroke="#000" stroke-width="5.724"/><path d="M832.68 113.39s71.08-70.976 222.47-88.583c152.3-17.72 276.3 88.583 276.3 106.29-17.7 17.72-159.5-77.972-265.7-64.286-112.67 13.655-197.69 82.007-197.69 82.007l-35.433-35.433z" transform="matrix(.077 0 0 .066 498.45 270.253)" stroke="#000" stroke-width="5.724"/><path d="M779.53 255.12c159.57-1.394 159.45-45.508 159.45-45.508s35.43-70.866 17.716-88.584c-17.717-17.716-177.16-7.64-177.16-7.64v141.73z" transform="matrix(.062 0 0 .066 509.298 277.227)" stroke="#000" stroke-width="6.377"/><path d="M779.53 255.12c159.57-1.394 177.16-35.432 177.16-35.432s35.43-70.866 17.716-88.584c-17.717-17.716-194.88-17.716-194.88-17.716v141.73z" transform="matrix(.062 0 0 .066 509.298 272.58)" stroke="#000" stroke-width="6.377"/><path d="M779.53 255.12c159.57-1.394 194.88-35.433 194.88-35.433s35.43-70.866 17.716-88.583c-17.717-17.716-212.6-17.716-212.6-17.716v141.73z" transform="matrix(.062 0 0 .066 509.298 266.774)" stroke="#000" stroke-width="6.377"/><path d="M779.53 255.12c159.57-1.394 212.6-35.433 212.6-35.433s17.714-70.866 0-88.583c-17.717-17.716-212.6-17.716-212.6-17.716v141.73z" transform="matrix(.062 0 0 .066 509.298 260.967)" stroke="#000" stroke-width="6.377"/><path d="M832.68 113.39S946.89 24.807 946.89-46.06c0-70.866-50.35-141.73-64.625-177.17 28.552 0 93.176 106.3 93.176 177.17 0 77.444-107.32 194.88-107.32 194.88l-35.432-35.433zM832.68 113.39s-14.276-53.15-14.276-159.45c0-124.02 63-202.89 85.654-230.32 5.898 27.422-57.102 124.02-57.102 230.32 0 77.444 21.157 194.88 21.157 194.88l-35.433-35.433z" transform="matrix(.077 0 0 .066 495.728 244.706)" stroke="#000" stroke-width="5.724"/><path d="M779.53 255.12c159.57-1.394 212.6-35.433 212.6-35.433s0-70.866-17.716-88.583c-17.717-17.716-194.88-17.716-194.88-17.716v141.73z" transform="matrix(.062 0 0 .066 509.298 255.16)" stroke="#000" stroke-width="6.377"/><path d="M779.53 255.12c159.57-1.394 194.88-35.433 194.88-35.433s0-70.866-17.716-88.583c-17.717-17.716-177.16-17.716-177.16-17.716v141.73z" transform="matrix(.062 0 0 .066 509.298 249.353)" stroke="#000" stroke-width="6.377"/><path d="M318.9 1318.1c55.065-122.32 70.866-336.61 70.866-372.05 0-99.782-32.948-585.11-35.433-779.53s124.02-301.18 248.03-301.18c106.3 0 177.17 70.866 177.17 177.17h-53.15c0-70.866-53.15-124.02-124.02-124.02-106.3 0-187.99 83.74-194.88 248.03-7.605 189.89 21.316 682.94 17.717 814.96s-51.234 249.72-106.3 336.61z" transform="matrix(-.062 0 0 .066 606.204 249.353)" stroke="#fdc301" stroke-width="16.071"/><path d="M779.41 912.6s-.12 103.6 0 179.24c.12 75.63 19.822 104.91 54.262 103.59 34.44-1.33 41.108-58.83 34.53-92.08-6.576-33.26-53.24-198.97-53.24-198.97l-35.552 8.222z" transform="matrix(-.053 -.034 -.032 .056 626.48 284.185)" stroke="#000" stroke-width="6.377"/><path d="M779.53 32.884c124.13.14 177.77 102.39 177.46 100.31l-35.734 33.347c-18.985 17.718-141.73 17.718-140.21 17.627l-1.52-151.29z" transform="matrix(.062 0 0 .066 509.298 249.353)" stroke="#000" stroke-width="6.377"/><path d="M779.41 912.6s-.12 103.6 0 179.24c.12 75.63 19.822 104.91 54.262 103.59 34.44-1.33 41.108-58.83 34.53-92.08-6.576-33.26-53.24-198.97-53.24-198.97l-35.552 8.222z" transform="matrix(-.061 -.014 -.013 .064 615.506 261.06)" stroke="#000" stroke-width="6.377"/><path d="M779.41 912.6s-.12 103.6 0 179.24c.12 75.63 19.822 104.91 54.262 103.59 34.44-1.33 41.108-58.83 34.53-92.08-6.576-33.26-53.24-198.97-53.24-198.97l-35.552 8.222z" transform="matrix(-.062 0 0 .066 606.196 249.353)" stroke="#000" stroke-width="6.377"/><path d="M779.53 255.12c159.57-1.394 177.16-35.432 177.16-35.432s35.43-70.866 17.716-88.584c-17.717-17.716-194.88-17.716-194.88-17.716v141.73z" transform="matrix(-.039 0 0 .066 587.811 292.32)" stroke="#000" stroke-width="8.095"/><path d="M779.53 255.12c106.3 0 124.02-35.432 124.02-35.432s35.43-70.866 17.716-88.584c-17.717-17.716-141.73-17.716-141.73-17.716v141.73z" transform="matrix(-.062 0 0 .066 606.196 287.673)" stroke="#000" stroke-width="6.377"/><path d="M779.53 255.12c88.583 0 141.73-35.433 141.73-35.433s35.43-70.866 17.716-88.584c-17.72-17.72-159.45-17.71-159.45-17.71v141.73z" transform="matrix(-.062 0 0 .066 606.196 283.026)" stroke="#000" stroke-width="6.377"/><path d="M832.68 113.39s70.866-88.583 194.88-177.17c124.01-88.582 213.73-156.72 230.31-141.73 0 17.717-106.3 106.3-194.88 177.17C974.4 42.52 868.1 148.82 868.1 148.82l-35.433-35.433z" transform="matrix(-.077 0 0 .066 618.262 249.488)" stroke="#000" stroke-width="5.724"/><path d="M832.68 113.39s70.05-52.025 204.38-124.02c132.23-63.918 318.89-53.15 318.89-35.433-17.71 17.716-177.16 17.716-283.46 70.866-101.48 50.73-204.39 124.01-204.39 124.01l-35.433-35.433z" transform="matrix(-.077 0 0 .066 617.632 254.135)" stroke="#000" stroke-width="5.724"/><path d="M832.68 113.39s61.675-35.068 204.38-88.583c141.72-53.15 329.87-17.717 329.87 0-17.7 17.713-170.4 6.944-276.7 35.43-109.99 27.757-222.09 88.583-222.09 88.583l-35.433-35.433z" transform="matrix(-.077 0 0 .066 617.573 262.135)" stroke="#000" stroke-width="5.724"/><path d="M832.68 113.39s71.08-70.976 222.47-88.583c152.3-17.72 276.3 88.583 276.3 106.29-17.7 17.72-159.5-77.972-265.7-64.286-112.67 13.655-197.69 82.007-197.69 82.007l-35.433-35.433z" transform="matrix(-.077 0 0 .066 617.052 270.253)" stroke="#000" stroke-width="5.724"/><path d="M779.53 255.12c159.57-1.394 159.45-45.508 159.45-45.508s35.43-70.866 17.716-88.584c-17.717-17.716-177.16-7.64-177.16-7.64v141.73z" transform="matrix(-.062 0 0 .066 606.196 277.227)" stroke="#000" stroke-width="6.377"/><path d="M779.53 255.12c159.57-1.394 177.16-35.432 177.16-35.432s35.43-70.866 17.716-88.584c-17.717-17.716-194.88-17.716-194.88-17.716v141.73z" transform="matrix(-.062 0 0 .066 606.196 272.58)" stroke="#000" stroke-width="6.377"/><path d="M779.53 255.12c159.57-1.394 194.88-35.433 194.88-35.433s35.43-70.866 17.716-88.583c-17.717-17.716-212.6-17.716-212.6-17.716v141.73z" transform="matrix(-.062 0 0 .066 606.196 266.774)" stroke="#000" stroke-width="6.377"/><path d="M779.53 255.12c159.57-1.394 212.6-35.433 212.6-35.433s17.714-70.866 0-88.583c-17.717-17.716-212.6-17.716-212.6-17.716v141.73z" transform="matrix(-.062 0 0 .066 606.196 260.967)" stroke="#000" stroke-width="6.377"/><path d="M832.68 113.39S946.89 24.807 946.89-46.06c0-70.866-50.35-141.73-64.625-177.17 28.552 0 93.176 106.3 93.176 177.17 0 77.444-107.32 194.88-107.32 194.88l-35.432-35.433zM832.68 113.39s-14.276-53.15-14.276-159.45c0-124.02 63-202.89 85.654-230.32 5.898 27.422-57.102 124.02-57.102 230.32 0 77.444 21.157 194.88 21.157 194.88l-35.433-35.433z" transform="matrix(-.077 0 0 .066 619.775 244.706)" stroke="#000" stroke-width="5.724"/><path d="M779.53 255.12c159.57-1.394 212.6-35.433 212.6-35.433s0-70.866-17.716-88.583c-17.717-17.716-194.88-17.716-194.88-17.716v141.73z" transform="matrix(-.062 0 0 .066 606.196 255.16)" stroke="#000" stroke-width="6.377"/><path d="M779.53 255.12c159.57-1.394 194.88-35.433 194.88-35.433s0-70.866-17.716-88.583c-17.717-17.716-177.16-17.716-177.16-17.716v141.73z" transform="matrix(-.062 0 0 .066 606.196 249.353)" stroke="#000" stroke-width="6.377"/><path d="M318.9 1318.1c55.065-122.32 70.866-336.61 70.866-372.05 0-99.782-32.948-585.11-35.433-779.53s124.02-301.18 248.03-301.18c106.3 0 177.17 70.866 177.17 177.17h-53.15c0-70.866-53.15-124.02-124.02-124.02-106.3 0-187.99 83.74-194.88 248.03-7.605 189.89 21.316 682.94 17.717 814.96s-51.234 249.72-106.3 336.61z" transform="matrix(.062 0 0 .066 509.29 249.353)" stroke="#fdc301" stroke-width="16.071"/><path d="M779.53 32.884c124.13.14 177.77 102.39 177.46 100.31l-35.734 33.347c-18.985 17.718-141.73 17.718-140.21 17.627l-1.52-151.29z" transform="matrix(-.062 0 0 .066 606.196 249.353)" stroke="#000" stroke-width="6.377"/></g></svg>