<svg xmlns="http://www.w3.org/2000/svg" height="480" width="640" viewBox="0 0 640 480"><defs><clipPath id="a"><path fill-opacity=".67" d="M0 0h682.67v512H0z"/></clipPath></defs><g clip-path="url(#a)" fill-rule="evenodd"><path fill="#ffe300" d="M0 0h719.653v480H0z"/><path fill="#118600" d="M0 195.13h719.653v96.386H0zM0 26.25h719.653v96.386H0z"/><path fill="#d80000" d="M0 .232h287.353v291.29H0z"/><path d="M126.02 120.403c0-.802 17.657-49.765 17.657-49.765L159.73 119.6s53.78 1.607 53.78.803-42.54 32.108-42.54 32.108 20.065 56.188 19.264 54.583c-.803-1.605-46.556-33.713-46.556-33.713s-46.554 32.108-45.75 32.108c.8 0 17.656-52.976 17.656-52.976l-41.74-31.305 52.175-.803z" fill="#fff"/><path fill="#118600" d="M0 383.616h719.653V480H0z"/></g></svg>