<svg xmlns="http://www.w3.org/2000/svg" xmlns:xlink="http://www.w3.org/1999/xlink" height="480" width="640"><path fill="#060" d="M0 0h640v480H0z"/><path fill="#fff" d="M0 0h640v342.857H0z"/><path fill="#c00" d="M0 0h640v137.143H0z"/><path d="M300.8 233.623a8.57 8.57 0 0 1 15.977 4.046v34.284h6.446V237.67a8.57 8.57 0 0 1 15.977-4.046 20.23 20.23 0 1 0-38.4 0" fill="#f8c300"/><path d="M305.394 224.674a13.714 13.714 0 0 1 14.606 6.55 13.714 13.714 0 0 1 14.606-6.55 14.743 14.743 0 0 0-29.212 0" fill="#fff"/><path d="M316.777 258.26a26.057 26.057 0 0 1-43.78 16.672 27.086 27.086 0 0 1-40.96 11.978c2.503 24.978 39.944 19.878 42.734-4.41 11.764 20.65 37.628 14.737 45.196-10.56z" id="a" fill="#f8c300"/><use transform="matrix(-1 0 0 1 640 0)" xlink:href="#a" width="100%" height="100%" fill="#f8c300"/><path d="M291.776 302.613c-5.224 11.277-15.665 13.214-24.798 4.11 0 0 3.67-2.593 7.602-3.31-.737-3.135.774-7.474 2.904-9.82 2.234 1.526 5.35 4.586 6.144 8.14 5.505-.71 8.148.88 8.148.88z" id="b" fill="#f8c300"/><use transform="rotate(9.37 320 551.314)" xlink:href="#b" width="100%" height="100%" fill="#f8c300"/><use transform="rotate(18.74 320 551.314)" xlink:href="#b" width="100%" height="100%" fill="#f8c300"/><path d="M253.486 327.77a233.143 233.143 0 0 1 133.028 0" stroke="#f8c300" stroke-width="10.971" fill="none"/><path id="c" d="M320 164.57z" fill="#f8c300"/><g id="d" transform="matrix(.686 0 0 .686 320 260.571)" fill="#f8c300"><use height="100%" width="100%" xlink:href="#c" transform="translate(-70 -121.244)"/><use height="100%" width="100%" xlink:href="#c" transform="translate(-121.244 -70)"/><use height="100%" width="100%" xlink:href="#c" transform="translate(-140)"/></g><use height="100%" width="100%" xlink:href="#d" transform="matrix(-1 0 0 1 640 0)" fill="#f8c300"/></svg>