<svg xmlns="http://www.w3.org/2000/svg" height="480" width="640" viewBox="0 0 640 480"><defs><clipPath id="a"><path fill-opacity=".67" d="M-85.333 0h682.67v512h-682.67z"/></clipPath></defs><g fill-rule="evenodd" clip-path="url(#a)"><path fill="#e70013" d="M-40.064 0H680.32v480.256H-40.064z"/><path d="M441.888 239.915c0 66.894-54.23 121.123-121.123 121.123-66.895 0-121.124-54.23-121.124-121.124S253.87 118.79 320.766 118.79c66.895 0 121.124 54.23 121.124 121.125z" fill="#fff"/><path d="M320.766 320.243c-44.34 0-80.326-35.986-80.326-80.326s35.986-80.327 80.326-80.327c11.085 0 23.703 2.55 32.274 8.846-58.747 2.21-73.607 52.037-73.607 72.118s9.5 64.866 73.606 71.48c-7.296 4.702-21.19 8.208-32.274 8.208zM391.52 273.694l-36.48-13.3-24.125 30.407 1.385-38.79-36.382-13.555 37.33-10.668 1.637-38.792 21.686 32.21 37.4-10.428-23.924 30.573z" fill="#e70013"/></g></svg>