<svg xmlns="http://www.w3.org/2000/svg" height="480" width="640" viewBox="0 0 640 480"><defs><clipPath id="a"><path fill-opacity=".67" d="M0 0h682.67v512H0z"/></clipPath></defs><g fill-rule="evenodd" clip-path="url(#a)"><path fill="#de2110" d="M0 0h720v480H0z"/><path fill="#08399c" d="M0 0h361.584v240H0z"/><path fill="#fff" d="M264.467 167.395l-44.374-9.124 9.453 44.307-33.875-30.083-13.97 43.097-14.292-43-33.644 30.345 9.125-44.374-44.307 9.445 30.082-33.866-43.096-13.973 42.988-14.29-30.333-33.648 44.373 9.12-9.443-44.308L167.02 67.13l13.973-43.097 14.29 42.993 33.644-30.338-9.124 44.377 44.306-9.45-30.084 33.873 43.097 13.963-42.99 14.292z"/><path fill="#005387" d="M223.566 163.99l-14.002 7.437-13.66 8.07-15.86-.546-15.862.187-13.462-8.383-13.837-7.757-7.455-13.975-8.092-13.612.538-15.82-.176-15.828 8.405-13.425 7.78-13.796 14-7.437 13.66-8.07 15.86.545 15.87-.18 13.466 8.38 13.824 7.758 7.456 13.97 8.092 13.612-.538 15.82.176 15.827-8.405 13.428z"/><path d="M229.347 120.263c0 26.855-21.77 48.625-48.624 48.625s-48.626-21.77-48.626-48.625 21.77-48.624 48.626-48.624 48.624 21.77 48.624 48.623z" fill="#fff"/></g></svg>