<svg xmlns="http://www.w3.org/2000/svg" height="480" width="640" viewBox="0 0 640 480"><defs><clipPath id="a"><path fill-opacity=".67" d="M-85.333 0h682.67v512h-682.67z"/></clipPath></defs><g clip-path="url(#a)"><path fill-rule="evenodd" fill="#ffe700" d="M-40.064 320.196H680.32v80.03H-40.064z"/><path fill-rule="evenodd" d="M-40.064 240.128H680.32v80.03H-40.064z"/><path fill-rule="evenodd" fill="#de3908" d="M-40.064 160.098H680.32v80.03H-40.064z"/><path fill-rule="evenodd" fill="#ffe700" d="M-40.064 80.066H680.32v80.03H-40.064z"/><path fill-rule="evenodd" d="M-40.064 0H680.32v80.03H-40.064z"/><path d="M394.896 240.125c0 41.294-33.475 74.768-74.768 74.768s-74.768-33.474-74.768-74.768 33.474-74.768 74.768-74.768 74.768 33.475 74.768 74.768z" fill-rule="evenodd" stroke="#000" stroke-width="0.9248679999999999" fill="#fffdff"/><path d="M306.936 182.807l-4.854-8.94c1.873-1.873 5.024-3.32 10.048-3.32 0 .34-.512 9.792-.512 9.792l-4.682 2.468z" fill-rule="evenodd" stroke="#000" stroke-width="0.9248679999999999" fill="#de3108"/><path d="M311.617 180.428l.682-9.877s10.046-.596 15.496 5.96c.085-.083-5.365 7.664-5.365 7.664l-10.813-3.746z" fill-rule="evenodd" stroke="#000" stroke-width="0.9248679999999999" fill="#ffe700"/><path d="M322.604 184.088l4.94-7.663c3.32 3.492 4.682 5.96 5.194 9.708.084.084-7.835 1.958-7.835 1.872s-2.213-3.832-2.298-3.917z" fill-rule="evenodd" stroke="#000" stroke-width="0.9248679999999999" fill="#de3108"/><path stroke-linejoin="round" d="M309.407 310.622s9.28-10.645 27.333-8.345c-2.725-4.427-11.495-3.917-11.495-3.917s-2.725-20.692-.597-21.715 11.155.087 11.155.087c1.19 0 3.236-3.237 1.62-5.28-1.62-2.044-6.388-9.878-4.43-11.41 1.96-1.534 12.603.85 12.603.85l-30.06-38.488s-3.064-14.476 3.067-21.458c7.408-6.13 6.642-12.773 6.387-12.688-1.023-6.727-11.24-11.58-18.138-5.365-4.087 4.94-1.362 8.686-1.362 8.686s-10.73 2.894-11.156 4.767c-.426 1.874 12.092-.34 12.092-.34l-1.192 8.6s-24.354 22.14-5.705 41.3c.17-.086.595-.853.595-.853s6.557 8.09 13.453 9.878c6.472 6.642 5.877 5.62 5.877 5.62s1.276 10.474.084 12.518c-1.618-.512-18.137-1.107-20.608-.17-2.214.68-10.73.255-8.6 14.135 1.618-3.747 3.066-7.068 3.066-7.068s-.256 5.024 1.788 6.812c-.34-5.282 1.958-8.856 1.958-8.856s.426 5.79 1.704 6.64c1.277.853 1.277-9.366 8.345-8.514 7.067.85 12.176.596 12.176.596s2.384 20.01 1.617 21.884c-5.11-1.192-17.286.51-18.053 3.576 7.153-.426 10.475.426 10.475.426s-5.79 5.11-4.003 8.09z" fill-rule="evenodd" stroke="#000" stroke-linecap="round" stroke-width="0.866712"/><path stroke-linejoin="round" d="M312.273 201.435s-17.72 19.532-10.075 34.478c.407-2.085.23-3.394.485-3.31-.426-.254 2.198 1.8 1.998 1.4.057-1.08-.798-3.396-.798-3.396l2.397.6-1.4-2.6 3.397.4s-1.198-3.196-.798-3.196c.398 0 2.795.2 2.795.2-5.04-9.043-.285-16.554 1.998-24.575z" fill-rule="evenodd" stroke="#9ca69c" stroke-linecap="round" stroke-width="0.866712" fill="#9ca69c"/><path d="M318.43 184.68s.938 6.727-2.725 8.686c-.595.426-2.894 1.19-2.554 2.555.427 1.874 1.448 1.533 2.897 1.192 3.83-.68 8.26-8.855 2.383-12.432z" fill-rule="evenodd" stroke="#9ca69c" stroke-width="0.9248679999999999" fill="#9ca69c"/><path d="M247.204 203.063a1.543 1.543 0 1 1-3.087 0 1.543 1.543 0 0 1 3.087 0z" fill-rule="evenodd" fill="#fff" transform="translate(80) scale(.938)"/><path d="M306.17 196.09c-.938.767-5.877 5.876-1.024 7.75 5.025-1.363 3.662-2.3 4.77-3.406.027-2.3-2.5-2.896-3.747-4.343z" fill-rule="evenodd" stroke="#000" stroke-width="0.9248679999999999" fill="#de3108"/><path stroke-linejoin="round" d="M316.896 244.377c-.255 1.107-1.362 5.195.17 8.346 4.26-1.79 6.216-1.278 7.664-.342-3.49-2.808-4.853-4-7.834-8.003z" fill-rule="evenodd" stroke="#9ca69c" stroke-linecap="round" stroke-width="0.866712" fill="#9ca69c"/><path stroke-linejoin="round" d="M324.223 263.707l.255 9.537s3.322.596 4.855 0c1.532-.596-.086-6.642-5.11-9.537z" fill-rule="evenodd" stroke="#fff" stroke-linecap="round" stroke-width="0.866712" fill="#fff"/><path d="M348.318 264.896s-6.13-14.816-21.8-18.563-13.624-20.436-12.346-21.46c.682-1.446 1.192-3.66 5.705-1.53s25.29 12.602 28.27 13.113.427 28.78.17 28.44z" fill-rule="evenodd" stroke="#000" stroke-width="0.9248679999999999" fill="#9ca69c"/><path stroke-linejoin="round" d="M333.417 246.25c-.255.17 20.947 12.517 14.56 23.16 6.047-4 4.088-10.983 4.088-10.983s4.94 12.858-7.068 19.16c1.278 1.106 2.13.85 2.13.85l-2.045 2.045s-.937 1.53 7.154-2.386c-2.215 1.79-2.385 3.066-2.385 3.066s.597 1.703 5.877-2.895c-4.26 4.598-5.195 6.983-5.195 6.897 11.496-1.022 36.53-38.403-7.92-49.474 2.386 2.47 2.045 2.13 2.045 2.13l-11.24 8.43z" fill-rule="evenodd" stroke="#000" stroke-width="0.866712" fill="#de3108"/><path stroke-linejoin="round" d="M334.353 242.59c2.895 2.043 3.916 2.724 4.257 3.747-2.64-.596-5.024-.426-5.024-.426s-5.704-5.45-6.727-5.875c-.767 0-5.195-2.81-5.195-2.81-2.213-1.107-4.257-8.77 3.917-6.557 8.43 4.002 9.622 4.343 9.622 4.343l10.048 3.152 5.79 6.472s-10.302-5.11-11.58-5.195c2.81 2.298 4.427 5.448 4.427 5.448-3.265-.937-6.102-1.787-9.537-2.298z" fill-rule="evenodd" stroke="#000" stroke-linecap="round" stroke-width="0.866712" fill="#fff"/><path d="M294.25 196.858s9.88-2.384 11.07-2.045" stroke="#fff" stroke-linecap="round" stroke-width="0.866712" fill="none"/><path fill-rule="evenodd" fill="#de3908" d="M-40.064 400.226H680.32v80.03H-40.064z"/></g></svg>