<svg xmlns="http://www.w3.org/2000/svg" height="480" width="640" viewBox="0 0 640 480"><defs><clipPath id="a"><path fill-opacity=".67" d="M0 0h682.67v512H0z"/></clipPath></defs><g fill-rule="evenodd" clip-path="url(#a)"><path d="M0 0h912.01v36.923H0zm0 73.847h912.01v36.923H0zm0 78.77h912.01v36.923H0zm0 78.77h912.01v36.923H0zm0 78.77h912.01v36.923H0zm0 78.77h912.01v36.923H0zm0 78.77h912.01v36.923H0z" fill="#bd3d44"/><path d="M0 36.923h912.01v36.924H0zm0 76.31h912.01v36.922H0zm0 78.77h912.01v36.922H0zm0 78.77h912.01v36.922H0zm0 78.77h912.01v36.922H0zm0 78.77h912.01v36.922H0z" fill="#fff"/><path fill="#192f5d" d="M0 0h364.8v258.46H0z"/><g fill="#fff"><path d="M30.4 11.063l3.32 10.214h10.74l-8.69 6.315 3.32 10.215-8.69-6.314-8.69 6.314 3.32-10.215-8.69-6.315h10.74zm62.827.737l3.32 10.215h10.74l-8.69 6.314 3.32 10.214-8.69-6.313-8.69 6.314 3.32-10.215-8.69-6.315h10.74zm64.855 0l3.32 10.215h10.74l-8.69 6.314 3.32 10.214-8.69-6.313-8.69 6.314 3.32-10.215-8.69-6.315h10.742zm64.853 0l3.32 10.215h10.74l-8.69 6.314 3.32 10.214-8.69-6.313-8.69 6.314 3.32-10.215-8.692-6.315h10.742zm64.855 0l3.318 10.215h10.742l-8.69 6.314 3.32 10.214-8.69-6.313-8.69 6.314 3.32-10.215-8.69-6.315h10.74zm64.855 0l3.318 10.215h10.742l-8.69 6.314 3.32 10.214-8.69-6.313-8.69 6.314 3.32-10.215-8.69-6.315h10.74zM60.802 36.91l3.318 10.214h10.742l-8.69 6.313 3.32 10.216-8.69-6.313-8.69 6.313 3.32-10.216-8.69-6.313h10.74zm64.852 2.46l3.32 10.215h10.74l-8.69 6.313 3.32 10.216-8.69-6.313-8.69 6.314 3.32-10.216-8.692-6.313h10.742zm64.855 0l3.317 10.215h10.742l-8.69 6.313 3.318 10.216-8.69-6.313-8.69 6.314 3.32-10.216-8.69-6.313h10.74zm64.854 0l3.318 10.215h10.742l-8.69 6.313 3.32 10.216-8.69-6.313-8.69 6.314 3.32-10.216-8.69-6.313h10.742zm64.852 0l3.32 10.215h10.74l-8.69 6.313 3.32 10.216-8.69-6.313-8.69 6.314 3.32-10.216-8.692-6.313h10.742zM30.4 62.755l3.32 10.215h10.74l-8.69 6.314L39.09 89.5l-8.69-6.314-8.69 6.313 3.32-10.216-8.69-6.314h10.74zm62.827 4.184l3.32 10.214h10.74l-8.69 6.314 3.32 10.215-8.69-6.313-8.69 6.313 3.32-10.215-8.69-6.314h10.74zm64.855 0l3.32 10.214h10.74l-8.69 6.314 3.32 10.215-8.69-6.313-8.69 6.313 3.32-10.215-8.69-6.314h10.742zm64.853 0l3.32 10.214h10.74l-8.69 6.314 3.32 10.215-8.69-6.313-8.69 6.313 3.32-10.215-8.692-6.314h10.742zm64.855 0l3.318 10.214h10.742l-8.69 6.314 3.32 10.215-8.69-6.313-8.69 6.313 3.32-10.215-8.69-6.314h10.74zm64.855 0l3.318 10.214h10.742l-8.69 6.314 3.32 10.215-8.69-6.313-8.69 6.313 3.32-10.215-8.69-6.314h10.74zM60.802 88.6l3.318 10.217h10.742l-8.69 6.313 3.32 10.216-8.69-6.313-8.69 6.313 3.32-10.216-8.69-6.313h10.74zm64.852 5.908l3.32 10.216h10.74l-8.69 6.313 3.32 10.216-8.69-6.313-8.69 6.313 3.32-10.216-8.692-6.313h10.742zm64.855 0l3.317 10.216h10.742l-8.69 6.313 3.318 10.216-8.69-6.313-8.69 6.313 3.32-10.216-8.69-6.313h10.74zm64.854 0l3.318 10.216h10.742l-8.69 6.313 3.32 10.216-8.69-6.313-8.69 6.313 3.32-10.216-8.69-6.313h10.74zm64.852 0l3.32 10.216h10.74l-8.69 6.313 3.32 10.216-8.69-6.313-8.69 6.313 3.32-10.216-8.692-6.313h10.742zM30.4 114.448l3.32 10.215h10.74l-8.69 6.314 3.32 10.215-8.69-6.313-8.69 6.312 3.32-10.215-8.69-6.314h10.74zm62.827 7.63l3.32 10.215h10.74l-8.69 6.314 3.32 10.215-8.69-6.313-8.69 6.312 3.32-10.215-8.69-6.314h10.74zm64.855 0l3.32 10.215h10.74l-8.69 6.314 3.32 10.215-8.69-6.313-8.69 6.312 3.32-10.215-8.69-6.314h10.742zm64.853 0l3.32 10.215h10.74l-8.69 6.314 3.32 10.215-8.69-6.313-8.69 6.312 3.32-10.215-8.692-6.314h10.742zm64.855 0l3.318 10.215h10.742l-8.69 6.314 3.32 10.215-8.69-6.313-8.69 6.312 3.32-10.215-8.69-6.314h10.74zm64.855 0l3.318 10.215h10.742l-8.69 6.314 3.32 10.215-8.69-6.313-8.69 6.312 3.32-10.215-8.69-6.314h10.74zM60.802 140.294l3.318 10.216h10.742l-8.69 6.313 3.32 10.216-8.69-6.314-8.69 6.313 3.32-10.217-8.69-6.313h10.74zM129.707 159l3.32 10.216h10.74l-8.69 6.313 3.32 10.216-8.69-6.313-8.69 6.312 3.32-10.216-8.692-6.313h10.742zm64.855 0l3.317 10.216h10.742l-8.69 6.313 3.318 10.216-8.69-6.313-8.69 6.312 3.32-10.216-8.69-6.313h10.74zm64.854 0l3.318 10.216h10.742l-8.69 6.313 3.32 10.216-8.69-6.313-8.69 6.312 3.32-10.216-8.69-6.313h10.74zm64.852 0l3.32 10.216h10.74l-8.69 6.313 3.32 10.216-8.69-6.313-8.69 6.312 3.32-10.216-8.692-6.313h10.742zM30.4 166.14l3.32 10.216h10.74l-8.69 6.314 3.32 10.215-8.69-6.313-8.69 6.313 3.32-10.215-8.69-6.314h10.74zm62.827 11.077l3.32 10.215h10.74l-8.69 6.314 3.32 10.215-8.69-6.312-8.69 6.313 3.32-10.214-8.69-6.314h10.74zm64.855 0l3.32 10.215h10.74l-8.69 6.314 3.32 10.215-8.69-6.312-8.69 6.313 3.32-10.214-8.69-6.314h10.742zm64.853 0l3.32 10.215h10.74l-8.69 6.314 3.32 10.215-8.69-6.312-8.69 6.313 3.32-10.214-8.692-6.314h10.742zm64.855 0l3.318 10.215h10.742l-8.69 6.314 3.32 10.215-8.69-6.312-8.69 6.313 3.32-10.214-8.69-6.314h10.74zm64.855 0l3.318 10.215h10.742l-8.69 6.314 3.32 10.215-8.69-6.312-8.69 6.313 3.32-10.214-8.69-6.314h10.74zM60.802 191.987l3.318 10.216h10.742l-8.69 6.313 3.32 10.216-8.69-6.313-8.69 6.312 3.32-10.216-8.69-6.313h10.74zm64.852 12.8l3.32 10.215h10.74l-8.69 6.313 3.32 10.216-8.69-6.312-8.69 6.313 3.32-10.215-8.692-6.313h10.742zm64.855 0L193.826 215h10.742l-8.69 6.313 3.318 10.216-8.69-6.312-8.69 6.313 3.32-10.215-8.69-6.313h10.74zm64.854 0L258.682 215h10.742l-8.69 6.313 3.32 10.216-8.69-6.312-8.69 6.313 3.32-10.215-8.69-6.313h10.74zm64.852 0l3.32 10.215h10.74l-8.69 6.313 3.32 10.216-8.69-6.312-8.69 6.313 3.32-10.215-8.692-6.313h10.742zM30.4 217.834l3.32 10.215h10.74l-8.69 6.313 3.32 10.215-8.69-6.313-8.69 6.313 3.32-10.215-8.69-6.314h10.74zm62.827 14.522l3.32 10.215h10.74l-8.69 6.315 3.32 10.215-8.69-6.313-8.69 6.313 3.32-10.215-8.69-6.314h10.74zm64.855 0l3.32 10.215h10.74l-8.69 6.315 3.32 10.215-8.69-6.313-8.69 6.313 3.32-10.215-8.69-6.314h10.742zm64.853 0l3.32 10.215h10.74l-8.69 6.315 3.32 10.215-8.69-6.313-8.69 6.313 3.32-10.215-8.692-6.314h10.742zm64.855 0l3.318 10.215h10.742l-8.69 6.315 3.32 10.215-8.69-6.313-8.69 6.313 3.32-10.215-8.69-6.314h10.74zm64.855 0l3.318 10.215h10.742l-8.69 6.315 3.32 10.215-8.69-6.313-8.69 6.313 3.32-10.215-8.69-6.314h10.74z"/></g></g></svg>