<svg xmlns="http://www.w3.org/2000/svg" xmlns:xlink="http://www.w3.org/1999/xlink" height="480" width="640" viewBox="0 0 640 480"><path fill="#4b92db" fill-rule="evenodd" d="M0 0h640v480H0z"/><g transform="matrix(.6 0 0 .6 -40.65 0)"><path d="M663.853 587.03c-2.694 3.08-6.18 5.956-9.466 8.608-21.233-21.943-46.16-46.262-69.854-46.262-14.69 0-25.27 11.182-37.613 19.072-17.13 10.95-40.626 17.115-60.76 9.08-10.832-4.113-21.324-10.17-29.166-20.01 15.848 10.93 39.58 12.4 57.472 4.977 19.776-8.205 39.904-19.1 62.44-19.1 33.223 0 64.797 22.474 86.947 43.636zM418.31 518.017c21.997 25.04 57.872 16.983 87.235 23.237 4.087.87 7.926 2.227 12.313 1.554-3.49-2.214-8.118-2.463-12.15-3.982-22.783-8.583-26.335-32.967-38.804-49.748 15.926 10.587 29.12 25.082 44.012 38.703 10.364 9.48 23.277 13.538 36.67 16.263-3.218 1.176-7.428.9-10.894 1.758-24.056 5.97-50.727 15.39-76.324 6.94-16.52-5.45-33.71-18.36-42.057-34.723zm-35.257-57.95c13.72 31.063 48.19 33.496 71.11 52.552 4.36 3.623 8.68 6.96 13.467 9.19l.247-.25c-5.29-4.785-11.012-10.488-15.11-16.44-13.1-19.035-8.74-45.05-18.84-65.23 9.177 10.986 17.784 22.3 23.068 34.88 8.503 20.247 11.392 43.343 30.463 58.727-20.64-6.81-44.452-5.454-63.04-17.628-19.536-12.798-37.643-32.997-41.365-55.803zm-14.697-62.846c1.984 27.37 31.12 41.988 45.014 64.485 2.967 4.805 6.02 9.765 10.33 13.645-.672-2.914-3.07-5.496-4.39-8.355-4.455-9.653-6.472-20.823-5.36-32.31 1.354-13.975 7.18-26.953 4.944-41.655 11.975 25.848 8.112 58.162 15.033 86.11 1.53 6.183 5.296 11.594 7.616 17.45-11.766-8.95-27.185-16.896-40.1-27.076-12.49-9.845-23.332-21.384-28.967-36.4-4.06-10.818-5.117-23.723-4.12-35.894zm.814-50.425c1.405-6.108 2.48-12.43 5.138-18.033-5.03 25.818 12.144 44.467 18.008 66.803 2.21 8.417 2.966 17.36 6.37 25.215.317.17.592-.16.788-.414-8.473-23.77 3.948-45.74 16.05-64.477 3.18-4.926 4.71-10.66 6.196-16.46 1.308 10.76-.982 23.218-2.973 34.32-2.563 14.298-7.45 27.697-11.332 41.49-2.557 8.617-1.883 18.34-.57 27.37l-1.235-.984c-9.01-16.632-26.784-29.625-32.152-47.778-4.29-14.508-7.258-31.27-4.288-47.053zm9.502-27.77c0-19.538 7.607-35.475 19.018-50.025.33-.166.567-.498.994-.42-12.56 19.108-1.128 43.228-2.742 64.9l-1.657 22.245c.246.162.246.83.83.574.742-2.48.967-5.12 1.4-7.68 3.023-17.933 18.77-30.415 32.124-43.075a28.528 28.528 0 0 0 6.96-10.342c-1.11 8.933-3.603 18.09-7.613 26.208-10.28 20.81-30.132 37.61-33.703 61.258-1.73-22.666-15.613-39.515-15.613-63.647zm33.112-65.904c6.316-7.003 13.396-12.46 21.824-14.616-16.366 11.253-15.477 31.366-20.488 48.183-1.832 6.15-4.525 11.91-5.957 18.265l.415.332c2.722-7.185 7.394-14.09 13.48-19.834 11.512-10.86 28.82-17.434 34.515-33.32-.26 22.076-19.08 38.858-36.266 51.84-7.71 5.824-14.26 13.642-18.258 21.838.666-6.1.97-11.175.425-17.13-1.764-19.284-2.91-40.903 10.308-55.556zm66.428-37.116c-12.146 10.658-20.25 24.377-29.582 36.71-7.76 10.256-18.41 16.61-27.567 25.218 4.943-10.255 5.856-22.007 12.134-31.93 10.735-16.966 28.478-23.55 45.015-29.997z" fill="#fff" id="a"/><use height="100%" width="100%" xlink:href="#a" transform="matrix(-1 0 0 1 1202.2 0)"/></g><path d="M409.012 262.008l-2.152-1.175a96.903 96.903 0 0 1-17.836 25.385l-12.575-12.575c6.16-6.35 11.126-13.555 14.785-21.343l-2.142-1.17a76.536 76.536 0 0 1-14.355 20.802l-11.392-11.39a60.04 60.04 0 0 0 11.57-17.155l-2.125-1.16a57.924 57.924 0 0 1-11.15 16.612l-12.59-12.59a39.75 39.75 0 0 0 8.045-12.6l-2.126-1.16a37.622 37.622 0 0 1-7.61 12.063l-11.427-11.424a21.203 21.203 0 0 0 5.41-13.06h16.173a37.283 37.283 0 0 1-2.546 12.422l2.128 1.16a39.822 39.822 0 0 0 2.8-13.583h17.83a57.373 57.373 0 0 1-4.935 22.157l2.126 1.16a59.92 59.92 0 0 0 5.19-23.32h16.143a75.765 75.765 0 0 1-7.16 31.06l2.14 1.172c4.69-9.975 7.236-20.908 7.404-32.23h17.828a95.868 95.868 0 0 1-9.607 40.762l2.152 1.175c6.446-13.277 9.868-27.938 9.868-43.13 0-12.92-2.475-25.454-7.18-37.082l-2.208.95c4.43 10.972 6.83 22.772 6.978 34.94h-17.83a78.51 78.51 0 0 0-5.54-27.894l-2.194.94a76.072 76.072 0 0 1 5.35 26.955H380.11a60.013 60.013 0 0 0-4.048-20.574l-2.193.943a57.65 57.65 0 0 1 3.86 19.632H359.9a39.87 39.87 0 0 0-2.416-12.59l-2.193.94a37.46 37.46 0 0 1 2.23 11.65h-16.174a21.2 21.2 0 0 0-5.41-13.06l11.438-11.435a37.312 37.312 0 0 1 7.92 12.848l2.19-.94a39.735 39.735 0 0 0-8.427-13.592l12.607-12.606c5.38 5.6 9.487 12.1 12.21 19.154l2.19-.942a59.88 59.88 0 0 0-12.714-19.897l11.414-11.418c7.07 7.292 12.502 15.752 16.142 24.935l2.193-.94c-3.763-9.457-9.365-18.17-16.65-25.677l12.604-12.61c8.916 9.135 15.793 19.732 20.437 31.24l2.21-.948c-4.907-12.144-12.243-23.297-21.784-32.837-9.575-9.577-20.778-16.93-32.974-21.837l-.878 2.236c11.534 4.644 22.155 11.53 31.305 20.46l-12.607 12.61c-7.38-7.153-15.93-12.697-25.212-16.453l-.87 2.217c8.976 3.64 17.25 9.004 24.4 15.938l-11.416 11.416a59.96 59.96 0 0 0-18.885-12.323l-.873 2.217a57.576 57.576 0 0 1 18.072 11.79l-12.607 12.606a39.837 39.837 0 0 0-11.982-7.795l-.87 2.22a37.417 37.417 0 0 1 11.17 7.26L334.25 202.96a21.198 21.198 0 0 0-13.06-5.41v-16.17a37.365 37.365 0 0 1 13.327 2.885l.87-2.22a39.805 39.805 0 0 0-14.2-3.048v-17.83a57.58 57.58 0 0 1 20.718 4.277l.87-2.217a59.956 59.956 0 0 0-21.588-4.44v-16.153c9.573.146 18.856 2.055 27.49 5.555l.87-2.22c-8.91-3.607-18.483-5.573-28.36-5.72v-17.83c12.143.147 23.922 2.54 34.874 6.95l.878-2.236c-11.588-4.665-24.075-7.124-36.943-7.124a98.25 98.25 0 0 0-44.237 10.486l1.086 2.08c12.89-6.46 27.15-9.977 41.96-10.156v17.832a78.12 78.12 0 0 0-33.67 8.165l1.082 2.074c10.028-4.962 21.097-7.682 32.587-7.857v16.146a59.736 59.736 0 0 0-25.087 6.05l1.09 2.08a57.47 57.47 0 0 1 23.996-5.75v17.83a39.677 39.677 0 0 0-15.718 3.746l1.095 2.092a37.357 37.357 0 0 1 14.622-3.455v16.175a21.32 21.32 0 0 0-7.108 1.642l1.093 2.09a18.978 18.978 0 0 1 7.205-1.41c5.082 0 9.857 1.978 13.45 5.57a18.897 18.897 0 0 1 5.57 13.45c0 10.487-8.53 19.02-19.02 19.02a18.9 18.9 0 0 1-13.45-5.57 18.9 18.9 0 0 1-5.57-13.45c0-5.08 1.98-9.86 5.57-13.45a19.004 19.004 0 0 1 6.245-4.16l-1.093-2.09a21.38 21.38 0 0 0-5.946 3.77l-11.442-11.442a37.466 37.466 0 0 1 9.873-6.692l-1.095-2.092a40.045 40.045 0 0 0-10.452 7.112l-12.62-12.62a57.76 57.76 0 0 1 14.793-10.317l-1.09-2.085a60.383 60.383 0 0 0-15.366 10.734l-11.436-11.436a76.25 76.25 0 0 1 19.303-13.635l-1.083-2.075a79.018 79.018 0 0 0-19.88 14.05l-12.632-12.632a96.57 96.57 0 0 1 24.22-17.258l-1.085-2.08c-19.253 9.675-34.926 25.442-44.47 44.77l2.07 1.118a96.574 96.574 0 0 1 17.58-24.867l12.635 12.634a78.916 78.916 0 0 0-14.485 20.734l2.064 1.115a76.308 76.308 0 0 1 14.078-20.19l11.437 11.434a60.335 60.335 0 0 0-11.25 16.462l2.068 1.116a57.627 57.627 0 0 1 10.847-15.913l12.62 12.62a40.036 40.036 0 0 0-7.72 11.803l2.087 1.128a37.404 37.404 0 0 1 7.303-11.26l11.443 11.44a21.29 21.29 0 0 0-5.413 13.055H282.48a37.448 37.448 0 0 1 2.843-13.235l-2.085-1.127a39.688 39.688 0 0 0-3.14 14.363h-17.83a57.473 57.473 0 0 1 5.22-22.874l-2.068-1.116a59.722 59.722 0 0 0-5.53 23.99h-16.148c.17-11.15 2.727-21.907 7.415-31.7l-2.064-1.113a78.132 78.132 0 0 0-7.73 32.814H223.53c.176-14.563 3.58-28.595 9.833-41.313l-2.072-1.118a98.264 98.264 0 0 0-10.17 43.622 99.21 99.21 0 0 0 3.98 27.87l2.336-.59a96.782 96.782 0 0 1-3.904-26.088h17.83a78.823 78.823 0 0 0 3.373 21.734l2.312-.583a76.43 76.43 0 0 1-3.303-21.15h16.145a60.292 60.292 0 0 0 2.85 17.198l2.316-.584a57.81 57.81 0 0 1-2.784-16.613h17.83a39.935 39.935 0 0 0 2.293 12.248l2.317-.585a37.557 37.557 0 0 1-2.23-11.66h16.175a21.2 21.2 0 0 0 5.41 13.058L292.63 244.58a37.386 37.386 0 0 1-7.918-12.835l-2.317.585a39.72 39.72 0 0 0 8.55 13.934L278.34 258.87a57.467 57.467 0 0 1-13.28-22.17l-2.316.584c2.76 8.632 7.466 16.572 13.914 23.274l-11.417 11.418c-8.537-8.804-14.704-19.307-18.19-30.74l-2.31.584c3.59 11.842 9.97 22.726 18.816 31.84l-12.607 12.607c-11.158-11.432-19.127-25.154-23.51-40.09l-2.334.586c4.595 15.728 13.074 30.143 24.983 42.05 8.063 8.066 17.28 14.56 27.274 19.343l1.183-2.1c-9.457-4.506-18.206-10.58-25.913-18.105l12.606-12.604a78.662 78.662 0 0 0 22.1 15.125l1.177-2.086a76.262 76.262 0 0 1-21.592-14.72l11.417-11.418a59.967 59.967 0 0 0 18.147 12.01l1.173-2.083a57.603 57.603 0 0 1-17.634-11.605l12.607-12.608a39.713 39.713 0 0 0 13.88 8.532l1.19-2.11a37.37 37.37 0 0 1-13.385-8.107l11.437-11.437a21.182 21.182 0 0 0 13.06 5.41v16.176a37.53 37.53 0 0 1-11.11-2.042l-1.193 2.11a39.842 39.842 0 0 0 12.3 2.313v17.828a57.545 57.545 0 0 1-21.15-4.452l-1.174 2.084a59.91 59.91 0 0 0 22.325 4.754v16.146c-10.625-.164-20.885-2.5-30.298-6.77l-1.176 2.086c9.77 4.465 20.434 6.9 31.473 7.066v17.827c-14.162-.17-27.83-3.38-40.268-9.307l-1.184 2.1c13.144 6.29 27.635 9.618 42.64 9.618 15.74 0 30.906-3.677 44.556-10.583l-1.127-2.186a95.844 95.844 0 0 1-42.24 10.36V297.54c12.036-.178 23.62-3.063 34.09-8.328l-1.114-2.158a75.737 75.737 0 0 1-32.974 8.102V279.01c9.03-.173 17.722-2.34 25.595-6.267l-1.105-2.147a57.348 57.348 0 0 1-24.49 6.032V258.8a39.684 39.684 0 0 0 16.327-4.02l-1.1-2.133a37.322 37.322 0 0 1-15.227 3.77v-16.173a21.195 21.195 0 0 0 13.06-5.41l11.426 11.424a37.71 37.71 0 0 1-9.257 6.39l1.1 2.134a39.957 39.957 0 0 0 9.854-6.826l12.587 12.587a57.88 57.88 0 0 1-14.282 10.054l1.106 2.146a60.16 60.16 0 0 0 14.88-10.495l11.39 11.39a76.51 76.51 0 0 1-18.888 13.418l1.113 2.157a78.654 78.654 0 0 0 19.484-13.864l12.576 12.576a96.867 96.867 0 0 1-23.91 17.083l1.126 2.186a99.08 99.08 0 0 0 25.36-18.378 98.958 98.958 0 0 0 19.096-26.788zM325.66 195.994l-.597.024.03.715.6-.028zm-1.472-.952h.797v.607h-.797zm-1.438-.212l.7.105.086-.6-.7-.1zm-.59-.204l-.696-.1.085-.603.693.1zm-5.748-.802h.797v.608h-.8zm-1.737 1.21l.696.1.086-.6-.695-.1zm.07.918l-.8-.204.147-.59.8.204zm-1.425.748l-.1-.608.59-.1.1.61zm-78.598 61.603v-.505h-.5v1.01h.8v1.318h.602l-.103-1.517zm7.483 9.007l-1.095-1.01-.8-1.112-.4-.912-.7-1.822 1.496.706.503 1.417.693.51.7 1.517zm20.645 27.13l-.098-.91-.8-1.216 1.2.205 1.292 1.11.503 1.316-.7.405-.4-.604zm54.06-91.91h-1.097l-.2-2.226.6-.407v-1.113h-3.492l-.1-1.112.5-.304-.797-.304-.6.81-.197.91-.997.203v.506h-.7v1.315l-2.793 2.328-5.584-.2c-.4.91-1.4-.104-1.4-.104-.197-.606-1.592 0-1.592 0 0 1.115-1.895-.505-1.895-.505l-3.49-2.53c-1.996-1.823-4.988.506-5.087 1.01.1 1.42-2.294.305-2.294.305s-1.994-.607-2.294.203c-.3.81-1.598.608-1.598.608l-.2.405-.998.202-.198.607-1.198.203 2.992-.102c.798-.1-.3 1.722-.797 1.62l-1.396.102-.5.505h-1.296l-.596.81-1.894-.1s-1.1.91-.998 1.214c.1.302-.2 1.213-.5 1.213s-.898.91-.698 1.214c.2.304-.598 1.316-.598 1.316l-.2 1.014-.597.2v2.735l-1.2.81v1.214l-1.796 1.923.2 1.62-1.495 1.62.197 1.62-.897.302-.197.708-.4 2.126.998.103c.5-.206.4 1.313 0 1.515-.4.203-1.496.607-.896 1.01.6.408-1.596.306-1.596-.302 0-.606-1.197-1.113-1.496-.91-.298.202-.798-.91-.798-.91-1.096-1.114-4.488.1-4.488.1l-.5 1.62c-1.096.203-1.794 2.024-1.794 2.024-.897.304-1.595 1.417-1.296 1.72.298.305-.5.405-.5.405v2.228l-.498.71.1 2.428c.598 0 .5 1.115.5 1.115-1 .1-.8 1.417-.8 1.417l-2.094.708-.4.607-2.592-.102-.698.71-.7-.71h-4.987l-.197-.505-.998-.204-.1-1.112-1.496.1-.3.608-1.596.1c.1 1.013-1.596 2.532-1.794 2.128-.202-.406-1.298-1.52-.798-1.72.5-.205 1.796-.408 1.796-.408v-.708l-3.692-.1-.397.607-1.498.1v1.62l-.698.2c-.5.304.1 1.42.1 1.42.696.706-.1 1.82-.1 1.82-.6.607.497 1.722.497 1.722.8.2-.498.81-.498.81.197 1.01.797 1.314.797 1.314-.6 1.012.4 1.517.4 1.517l.1 1.723.697.406v1.11l.4.71h1.594l-.1-2.53c-1.396-1.62 1.197-2.025 1.298-1.42.1.61 1.197.913 1.197.913.2 1.52 1.897 2.428 2.395.912.5-1.52.897-.608 1.197.1.3.71 2.192 2.43 2.192 2.43h1.497l.202 1.417c1.695-.1 2.192.103 2.89 2.43.7 2.326 2.594 2.934 2.594 2.934l1.397-.102c0-1.213 1.397.205 1.397.812 0 .605 2.692 2.934 2.692 2.934l2.692.606 2.497 2.027 1.894-.202h.8c.496-1.723 2.89.1 3.09.707.2.608 1.795 1.62 1.993 1.113.2-.505 1.297-.2 1.498 1.316.2 1.52.896 1.216.896 1.216l5.688-.1 1.994-1.724 5.088-.1c2.593-.1.997-3.645.5-3.645-.898-.707.297-3.643.297-3.643l-7.28-6.782c-1.696 0-.2-2.43-.2-2.43 1.296-.81-.3-2.125-.3-2.125.2-1.216-.698-2.633-.698-2.633-1.795-1.215-1.298-3.544-1.298-3.544v-1.62c-1.495-1.414.6-1.62.6-1.62.696-1.21-.5-2.123-.5-2.123l-.1-1.316-1.596-.2-.197-4.76-3.59-5.16c-.7-.205-.2-1.42-.2-1.42.897-.505-.202-1.72-.202-1.72l-.1-2.225 2.096-.204.5-.807h.997l-.1-2.633c.5-1.317 1.696-.61 1.696-.61l1.395.103.798-1.52.198-1.214-1.095-.1c-1.197-.71-.6-3.34-.6-3.34 1.897-2.838 4.09-1.218 4.09-1.218l1.397-.1c2.094 1.416.198 4.048.198 4.048-.398.61-.198 2.532-.198 2.532l.498 3.238-1.296 1.115c-1.098.608-1.098 2.024.1 2.328.796.1.497 2.024-.7.708-1.794 0 1 1.62.2 1.215 1.797.912 1.396-.81 1.396-.81l2.396-1.922c.897-.708 2.494 1.52 2.494 1.823 0 .303 3.99.1 3.99.1 1.095.71 1.494 2.53 1.494 2.53 1.098-1.417 3.39-.1 1.696.71 1.595 1.012 1.595 1.922 1.595 1.922 1.3-.404 1.3.608 1.3.912 0 .303.398-1.52.398-1.52-1.497-1.113 1.994-1.518.998.507l-.6.912 1 .807.1 2.33c2.193-.205 1.594-2.938 1.594-2.938l.997-.2c0-.914.698-.408.698-.408-.697-3.442 1.597-4.048 1.597-4.048 1.297-.304 1.396-3.04 1.396-3.04-.895-.403-.4-1.82.6-.604.997 1.214-.6-2.43-.6-2.43l-.796-.708-1.098-.1-.1-1.115h-1.794l-.3 1.418-.698.202-.2-.405-.3 1.113h-1.794l-.1-1.214 1.097-.302.4-.607.298-1.62h1.298l1.695-.505c.1-1.72.998-1.315.998-1.315l.6.504.897.71.1.605-.6.302-.098.81.298 1.114h.797c.3-1.62 2.395-1.62 2.993-.608l.6-1.418c-1.397-.708-.027-1.822.372-1.316.4.507 1.322-1.316 1.322-1.316s.698.912 0-.303c-.698-1.216.498-1.822.498-1.822-.198-1.215 1.297-1.013 1.297-1.013l.1-1.618-1.397-.103c-.297 1.417-1.495.203-.896-.1.6-.304 1.194-.91 1.194-.91v-1.014l.598-.202.1-1.013h1.497l1.295-.606.3-.506 1.396-.102 1.996-1.823-.197-.81c-1.2 0 0-.91 0-.91l.196-1.515zM276.716 222.57l-1.796-.202.1.708h.5c.796 1.418.1 4.86.1 4.86s-1.197.1-1.398-.507c-.198-.61-.698 1.314-.3 1.62.4.3 1.797 0 1.896 1.112.1 1.113.898-.71.898-.71v-6.883zM276.713 231.178l.6-.105.1-.71-1.5 1.015-.996-.606v2.428l1.598 2.123.597-1.417.202-.91-.7-.3zm.8 6.372v-1.01l-.697.1-.103.81zm-.9 4.862v-.71l-.845.1v.71zm1.177-3.114c.234 0 .422-.19.422-.428s-.188-.43-.422-.43a.426.426 0 0 0-.423.43c0 .237.19.428.423.428z" fill="#fff"/><ellipse cy="240.996" cx="278.485" rx=".423" ry=".429" fill="#fff"/><ellipse cy="229.431" cx="278.508" rx=".423" ry=".429" fill="#fff"/><path fill="#fff" d="M312.423 214.47l-1.1-.1-.197.506h-.498l-.104.81h.602l.1.607-.4.406-.198.503-.8.205-1.795 1.722-.1.806-.497.71-.597 1.518-2.1.1-.4 1.822.298 1.517 1.795.71.202-1.01.597-.305.103-1.012.395-.71.602-.707.197-.81.997-.607 1.198-.205.5-.607.2-1.21.07-.912.43-.61 1.193-.506v-1.923h-.598zm2.79 6.888v-1.417l-.2-1.315-1.496-.708-1.097 1.013-.2 1.416v.91l-.997.204-.2 2.732-.798.305.1 1.012-1.097.3-1.097.305-.197 1.316-.797.507-.402 1.215-.497 2.935s.898 1.72 1.396.91c.5-.808 1.297-.91 1.297-.91l.298-.71 2.693.102c.2-1.115 1.498-.71 1.498-.203s.998.1.998.1l.698-1.112h1.096l.1-1.214.498-.303v-1.823c1.597-.506 1.395-2.024 1.395-2.024l.402-.505-.2-.707c-.8-.305-.4-1.015.098-.812.5.202-.698-.91-.698-.91-.598.506-1.095-.608-1.095-.608h-1.498zm1.595 12.246c-.1 1.214-1.596 1.62-1.596 1.62l-1.097-.304-.598-.506-.1-1.418.897-.1.2.608 2.294.1zm5.388-6.474c.216.883.198-1.42.597-1.316.4.1.1-1.417.1-1.417l-1.795 1.314c.897.105.996 1.016 1.098 1.42zm5.286-5.268c.4.912.3 2.228 1.794 3.24.505.34-.3 1.013-.8.708-.497-.303-1.892-2.53-1.892-2.53v-1.317c.3-.81.725-.493.898-.1zm.298 31.074l.296.506.7-1.11-.596-.207-.696.51zm-2.794-1.92v1.218m14.424-2.684l.8-.506-.32-.51-.795.5zm28.866 21.104l.9.404.097 1.72c1.198 1.215 5.088.203 5.088-.1 0-.305-.2-3.746-.2-3.746l-.5-.506-.097-2.533c.398-1.315-1.896-3.24-2.095-2.832-.2.406-1.496.1-1.496.507 0 .404-.796 2.43-.398 3.138.4.71-.3.71-.398 1.417-.1.71-1.098 1.926-.898 2.534zm-2.196-4.05c-.19.767-.896 1.215-1.295.91-.4-.304.496.505.698.912.198.404.796.404.997 0 .198-.407.1-1.315.3-1.72.198-.406-.6-.507-.7-.102zm-4.638-18.57h.697v1.924h-.7zm10.326-19.488c-.435-.59 1.994-1.62 2.393-.405.4 1.216 0 1.015-.397.914-.4-.102-1.395.302-1.994-.507zm2.144-13.56l-.103.596 1.093.2.108-.596zm-4.498 1.564l.8.506.15.096.15-.086.602-.34.075.187.556-.224-.202-.508-.127-.32-.296.168-.74.42-.65-.41zm5.444-24.448h-1.497s.5.202-.894-1.114c-1.398-1.316-2.294.304-2.294.304l-1.595.202v1.62l-.8.303.102 1.013 1.095-.1s0 1.214.3.708c.3-.507 2.793.1 2.593 1.316-.08.5 2.495 1.82 2.195 3.44 1.298.203 1 1.52 1 1.52l1.693.202.5-1.012.498.1v-.607l-1.098-.303-.198-3.24-.698-.506.2-.81-.798-.304.4-1.316-.7-1.416zm4.386 10.326l-.797-.1-1.798.303-.997 1.925s.498.304.896 1.013c.397.71.6 4.858-.6 5.567-1.195.71.1.303.1.303l-.2 2.227c.3 1.013.798.508 1.097 0 .302-.504.6-.606 1-1.112.4-.507.997-1.418 1.097-2.127.1-.708.598-1.82.298-2.125-.298-.303.3-1.72.3-1.72s.4-.81 0-1.62c-.398-.81.1-1.72.4-2.126l-.8-.405zm1.206 4.13l.102-.81.595.076-.102.81zm-.036 2.797l-.534-.272.3-.607.534.272zm-.87-8.037l-.4-.912s0-.808.2-1.215c.2-.402-.4-.806-.698-.91-.3-.1-.2-.91-.3-1.314-.098-.405-.796-.708-.796-.708s-.2-1.52-.2-1.822c0-.304-.9-.71-.6-1.013.3-.303.5-.708.8-.91.3-.203-.3-1.62.198-1.317.5.304.5.81.7 1.215.198.405-.1 1.823.398 2.127.498.303-.1 1.315.698 1.315.797 0 .3 1.925.3 1.925s-.2 1.416.297 1.518c.5.1.203 2.53.203 2.53l-.798-.505zm-6.48-16.404c.298.405.897.708.897 1.114 0 .405-.197.708.4.81.6.1 1-.102 1.198.404.2.506.2 1.316.1 1.72-.1.406.1 1.013.598 1.013.5 0 .6.102.6.406 0 .305.598-1.113.598-1.113-.5-.404-.9-1.316-.9-1.316s-.497-1.416-.497-1.62c0-.2-.698-.404-.997-.504-.3-.102-.8-1.012-.8-1.012l-1.196.1zm.996-.906c-.3-.406-.6-.71-.998-.91-.398-.204-.697-.406-1.098-.406a.655.655 0 0 1-.598-.91c.2-.508-.3-.71-.3-1.115s.3-.405.8-.1c.5.303.397.403.798.91.398.506.597 1.012.995.91.4-.1.7.912 1.097.608.398-.303.3.71.3.71l-.998.303zm-11.67 11.436c.55.56-2.99.404-2.99 0 0-.405.298-1.82 1.194-1.52.898.305.997-1.82.997-1.82s-.795.1-.097-.304c.698-.405 0-1.013-.3-1.316-.298-.304-.598-.81-.598-.81h1.398c.6-.406.797-2.328.797-2.328 1.195.404 1.793-.406 1.793-.406s.203.608.6 1.115c.4.505-.998.708-.5 1.012.5.304.7 1.214.5 1.517-.2.304-1.298.102-1.298-.303 0-.403-.4.508 0 1.015.398.506-.498 1.214-.698 1.214-.2 0-1.494.202-.4.81 1.098.606 2.297.304 2.297.304s.897-.103 1.196.404c.3.506-.1.608-.598.608s-2.893-.204-2.893-.204-.7.71-.4 1.014zm-6.384.912c.5-.1 1.695-.203 1.895.1.203.304-.696.71-.696.71l-1.197.202c-.4-.507-.498-.91 0-1.012zm12.87-8.502c.797-.405 2.492-.405 2.393-1.012-.1-.608.995-.81.995-.81l.3 1.214.897.608.1 1.113s.3-.202-.797.102c-1.098.302-.398.807-.398.807l-2.395.1-.3-1.01-.797-1.114zm-3.894-5.466c.606 0-.198 2.328 1.396 2.126 1.596-.203.1.708 1.297.81 1.197.1.898-.912 1.296-1.62.403-.708.203-1.114-.495-1.316-.7-.202-.7-.202-.898-1.013-.2-.81-.998-1.013-.998-1.013l-.3-1.213-1.297.807-1.296 1.72c0 1.318.697.71 1.296.71zm2.64 8.554l.3-.607.537.273-.3.607zm-1.044-.964h.6v.708h-.6zm.502-13.488l.1.91-.594.068-.1-.91zm-1.696 9.438h.6v.507h-.6zm-1.57-.01l-.06-.606.998-.1.058.606zm-8.23 9.735l-.55-.24.3-.707.55.24zm-3.13-1.843l-.06-.603 1-.1.06.603zm-17.308-.187l-2.19.1.028.606 2.19-.1zm-3.66.877l-.2-.908.588-.132.198.91zm-.42.63l-.19-.577.3-.1.19.575zm4.99-1.708l-.1.708 1.097.102s.497.406.497.708c0 .304.7.607 1.1.607.397 0 1.494-.81 1.494-.81s.5-1.417.1-1.316c-.4.103-1.197.71-1.295.103-.103-.608-1.3-.304-1.3-.304l-1.595.203zm4.986-1.116c0 .303-.198.708.4.81.6.1 1.696-.404 1.795.202.1.607.1 1.014.898 1.318.797.302 1.297.404 1.895.404.597 0 1.896-.204 1.896-.204s1.41.22 1.695.507c1.098 1.113 1.796 1.417 2.095.91.3-.505-.1-1.618-.198-2.023-.1-.406-1.497-2.33-1.996-1.924-.497.406-.596 0-1.495.303-.898.302-2.793.1-2.892-.305-.1-.405-1.495-.606-1.495-1.012s-.997-.91-.898-.304c.098.606-.7.91-.9.71-.2-.205-.798.605-.798.605zm22.944-12.96l.7-2.226c-.997-.203-.8-1.315-.8-1.315-.098-.912-1.494-1.924-1.994-1.62-.497.303-.3-2.127-.3-2.127s.9-.606 1.298-.303c.4.303-3.39-5.06-4.19-4.555-.797.507-2.59-.506-2.492-1.417.1-.91-3.59-3.948-3.59-3.948s-1.198-.81-1.396-.202c-.2.607-.6 1.013 0 1.315.597.305.497-.505 1.195.203.698.71 1.996 1.62 1.497 2.23-.5.607-1.098.81-1.098.81l.7.81h1.096l.2 1.72s1.196.607 1.496 1.316c.3.708.3 1.113 0 1.52-.3.403-.896 1.112-.798 1.82.1.708.898 1.012.898 1.012l.797.1.6.306v1.316c.796-.204 2.092.91 1.994 1.618-.1.71.196.304 1.193 1.013 1 .71.7.81 1.398 1.318.7.504 1.298.2 1.595-.71zM347.528 165.582c-.1-.406-.3-1.823.3-1.722.597.102.2 0 .897.304.698.305.797-.506.797-.506h1.1l1.394 1.113-.2.914-.997.1c-.5-.81-1.498-.505-1.298.204.2.708-.498 2.024-.896 2.124-.4.103-1.698.103-1.597-.504.1-.607.497-2.024.497-2.024zm-.798-2.736v-.81s-.102-.81-.6-.81c-.496 0-1.394-.606-1.197-1.01.202-.407-1.694-.81-1.694-.81s-1.697-1.62-1.1-1.417c.6.2.3-.71.3-.71s-1.197.2-1.496.1c-.3-.1-.2-1.013-.2-1.013s-1.196-.303-1.196 0c0 .304.398.304.596.91.2.608.1 1.62 1 1.823.898.204 1.095.405 1.197.81.1.406 1.197.507 1.197.507l.797.404 2.393 2.027zm-10.77-10.322l-.297-.81-.8-.202v.91zm-.3-4.252c-1.043-.79 1.395.608 1.395.608.797 0 1.297.607 1.297.91 0 .305 1.097.204 1.097.204l.1-.71-.8-1.012-.697-.505s-1.097-.1-1.097-.405c0-.303-.898 1.214-1.297.91zm18.348.606c-.29.886-.4 2.126-.898 2.126s-.3 1.317-.3 1.317 1.3 0 1.698.103c.398.1.398 1.112.398 1.112 1.497-.1 2.096 1.924 1.895 2.43-.2.506.6.506.6.506s0 1.62-.2 2.025c-.2.406 1.298.71 1.696 1.316.4.61-.2 2.633-.5 2.735-.298.1.798.404.7.91-.102.507.3 0 .398.81.1.81.3 2.53.3 2.53l1.395.103c.2-1.316 2.77-1.366 3.19-1.215 1.697.607 2.995 3.24 2.995 3.846 0 .606-1.098.71-1.098.71l.2 2.933c1.695.506 3.09 2.936 2.893 3.34-.2.406 1.194.305 1.194.305.2-1.823 1.896-1.215 1.994-.607.102.608.4 1.924.4 1.924l.5.91.697.71 1.096-.102.3.61 1.3.202s1.097 1.213 1.196 1.518c.1.303 1.596.202 1.994.303.398.1.997.405 1.096.91.1.508.7 1.317.7 1.317s1.196.305 1.296.71c.1.403.6 1.314.6 1.314l.994.81.1.912 1.098.1.3 1.214 1.793-.1 1-.708c1.296-.708 2.194-1.62 2.294-2.025.1-.406.3-1.923 1.3-1.62.995.304.3-2.228.3-2.228s-1.398-1.012-1.3-1.52c.1-.504-1.395-1.516-1.296-1.922.1-.405-1.296-1.214-1.197-1.62.1-.404-.698-1.518-.698-1.518l-1.498-1.417-.2-.91-1.195-.1-2.393-2.937.1-.81-.7-.1v-1.114l-.696-.406-1.098-.1-2.194-2.43-.2-1.114h-1.096l.2-2.126c.698-.91.298-2.632.298-2.632s-1.398.708-2.094.404c-.7-.302.298-1.012.298-1.012v-.81l-.597-.606s-1.697.203-1.796-.1c-.1-.304-.4-1.62-.4-1.62l-.1-1.722-.697-.302-.1-.61-1.096.102v-1.214l-.6-.202-.597-.304-.1-1.215-2.194-.1-.698-1.013-.798-1.215-2.493-.202-.6-.607-.996-.203-.697-.304-.3.507-1.895.1-.1.608c-.996.506-4.985.1-5.087.404zm10.476-2.628c-.158-.8 1.996-1.518 2.494-.912.5.608 1.895.71 2.095 3.747.07 1.087-1.795-1.113-1.795-1.113l-1.498-.506c-.797-.204-1.197-.708-1.296-1.216zm-29.254 1.237l-.545-.247.4-.91.545.246zm-5.156-9.943l-1.3-1.316v-1.114l-.398-.406-.398-1.416-1.297-.405-1.294.506-1.397.91-1.496.204-.8.91 3.193.303.597 1.014 2.297.202 1.495 1.518c1.3.406 1.597-.202.8-.91zm-.198-4.962c-.22-.89-1.497 1.113-.198 1.517 1.297.405 2.59 0 2.59 0l.3-.61 4.986.103c.402-.406.6-1.013.6-1.013s1.197-.404 1.694-.202c.5.204.102-1.416-.398-1.214-.498.202-1.495.1-1.495.1h-1.796c-.1-.707-1.697-.404-1.797 0-.1.406-.697.507-.697.507l-2.294.205c-.2.608-1.396 1.012-1.497.608zM320 149.664c1.534.487 2.094.126 2.195-.278.1-.406.198-.507.797-.607.598-.104-.1-1.32-.698-1.218-.6.102-1.197-.202-1.296-.708-.102-.506-1.1-1.822-1.198-.81-.1 1.013-.698 1.013-.6 1.722.102.707.4 1.77.8 1.897zm-11.466 1.14c-.072-.358 1.994-.405 2.294-.102.3.304.1.81.997.81s.5.608.4.912c-.1.303-1.097.202-1.2-.1-.097-.305-1.595-.407-1.595-.407s-.797-.608-.896-1.113zm33.922-21.7l-.79.64-.508-.515-.423.427.696.708.195.194.207-.17 1.002-.81zm-5.5-1.84l-.64-.406-.314.516.8.504.154.103.16-.1 1.1-.71-.32-.51zm-3.216 20.823l-.145-.014-.997-.105-.06.606.855.085.62.986.503-.324-.695-1.112zm-32.988 28.223l.102 1.114h1.494c.6 0-.497-.708-.497-.708s-1.196.1-1.097-.406zm1.902.033l.382-.468.6.504-.383.466zm-18.172-18.938l.423-.43.598.608-.424.43zm28.97 130.285l-.996-.505-.268.544.625.313-.206.21.427.43.5-.507.29-.295zm-7.722-7.29l-.38-.466-.603.505-.296.25.317.23.7.506.348-.492-.385-.28zm74.168-19.202c-.132-.516-.714-.728-.78-.75l-.19.578v-.004c.048.018.117.055.186.1l.122.525c-.044.067-.093.13-.132.175l.44.41c.32-.355.438-.7.354-1.034zm.92-1.912l-.973-.07.075-.913.973.153zm23.116-7.892c.426-.27.972-.76.898.38-.076 1.138-.524.76-.898 1.138-.374.38-.598-1.138 0-1.518zm5.076-4.296a.833.833 0 0 1-.018-.14 1.654 1.654 0 0 0-.153-.635l-.537.272c.067.135.08.278.09.416.016.18.036.38.206.51.106.08.24.105.402.074l-.114-.588c.045.007.106.05.12.093zm-1.332.498c.152.615.374 1.222.384 1.247l.56-.214a11.87 11.87 0 0 1-.364-1.184l-.58.15zm-2.178 2.388l-.596-.06c-.047.478.067 1.068.54 1.164l.116-.595c.004 0 .01.004.01.004-.047-.043-.092-.288-.07-.512zm-2.622-12.078a.546.546 0 0 0-.327-.426c-.44-.194-1.187.128-1.553.376l.33.506c.38-.257.877-.38.988-.324a.056.056 0 0 1-.027-.033l.59-.1zm-27.624-32.34c-.4.406-1.296.608-1.296.608l-.3 1.113-.498.405s.1.303 0 1.012c-.1.708-.998 1.114-.998 1.114l-.398.506s-2.405.13-2.693 0c-.896-.405-.297-1.62.3-1.52.6.103-.1-1.72-.1-1.72l.8-.1s.098-1.823.398-1.823c.3 0-.1-.605-.5-.91-.398-.302-.896-1.314-1.297-1.213-.397.1-1.993 0-1.993 0l-.3.607-1.097.202s.093.783-.098 1.013c-.6.707-2.894 2.225-1.898-.305l.3-.606v-.913l-1.794-.1s-.898-.304-.898-.71c0-.405-.1-.91-.1-.91l-2.095-2.328-2.493-.304-.2-.507-1.495-.204c-1.798-.91-3.395-.1-3.095 1.418.3 1.52.797 2.126-.2 2.126-.998 0-1.196-.81-1.196-.81s-.798-.305-.798.1-.3 1.215 0 1.62c.298.404-.4 1.012-.7.708-.297-.304-1.096-1.214-.896-1.517.2-.302-1.398-2.226.2-2.53 1.595-.304-.1-1.215.5-1.416l.795-.406h.8l.5-.405-1.3-.2-.795-.103-1.498-.102c-1.495 1.012-1.793 2.227-1.793 2.227-.8 1.518-2.693-.608-1.995-1.417.696-.81-2.196-.102-2.695.303-.5.407-1.996.205-1.996.205-.3.91-1.695-.1-1.297-.708.4-.608.4-1.013.4-1.013l-.5-.1-.597 1.112c-1.396 0-1.796.81-1.497 1.316.3.506-.4-.1-.6.608-.198.71.1.71.7 1.013.6.304-.3.304.1.81.4.507 1.595 0 .897.71-.698.707-2.096.405-2.096.405-.1.91-1.993.708-2.19.404-.2-.305-1.697-2.127-1.697-2.127l-1.897-.1c-.198-1.418.9-.71 1.297-1.823.4-1.114.6-2.935.6-2.935s-1.597-.1-1.696.404c-.1.507-1.097.81-1.097.81s-.798.303-.498.71c.3.404-.6.605-.6.605s.156.654-.098.91c-.797.812-2.794.102-3.092-.2l-1.197-.507-1.198-.81-1.395.607-.4.405h-1.496l-.1 1.213 2.694.303.2 2.505-1.098-.376h-.698l-.3-.608-.598-.1v2.225l.6.508.5.505.996.102.2 1.214 2.492.1.3.507 1.497.1 2.894 2.936-.2.91-.5.305c.2.71-1.294.304-1.294.304v.608l.695.1.7.405.996-1.72c1.1-.71 1.597.304 1.698.91.1.608-.5.507-.5.507v1.418l.6.2c.998 1.216-.4 1.925-.4 1.925l-.3 1.012c-.3.912-1.396.708-1.396.708l-.396.608-1.2.305 2.37.303c.224-.81.82-1.01 1.12-.606.3.407.3 1.115.3 1.115l.6.1-.1 1.113.6.202v3.24l.697.81c1.198-.506 1.198.303.6.707-.6.403-.2 2.227-.2 2.227l-.5.504v.81l-.598.405v1.112c-.998-.506-2.195-.304-2.495 0-.896-.608-2.79-.405-2.79.102.596.81-.698 1.012-.698 1.012l-.7.81c.5 1.013-.498 1.113-.498 1.113v1.923l-1.198 1.114.1 2.632c0 .71 1.496.81 1.794.404.3-.404 1.498.812 1.498.812h.896l.2-1.823-.6-.305v-2.936l1-1.115c1.196-.405.798 2.633.798 2.937.1 1.113.596 1.012 1.096.81.997-.406.198 1.114-.598 1.01-.798-.1-.3 1.014-.3 1.014l.5.203-.9.708-.795.912-1-.306-1.195-.1-.4-.71-.7-.1-.098 1.416-.498.607-1.197 1.217c1.597 0-.2 1.11-.6 1.11.9.305-.098 1.217-2.392.51v.706l-.8.102.7.808.798.102-.3 1.72c0 1.317-3.29.404-3.59.102l-.1 1.822-.597.1.1 1.216-.1 1.72 1.096-.2v.708l2.694.1 3.89-4.15 2.293-.506c.2-1.013 1.194.203 1.194.203.998-.103 1.198.607 1.198.607l1.297.202c1.095.305.433.41.497.81.1.608.598.405.598.405l.2-1.314.6.1-.6-.708-1.098-.507-1.196-.504c-.8-1.113.2-.91.998-.81h1.297s1.497 2.025 1.497 2.53c0 .51.7.61.7.61l.895-.102.3.708h.897l.3.607h1.796l.1-.91-1.698-.303-.1-1.014-1.195-.303c-.4-1.72.298-2.226.797-1.415l.598.1-.2-1.52.698-.202-.2-2.127-.597-.2v-.71l2.494.103c-.198-1.32.1-1.925.1-1.925h.698l.1.507 3.05.287 2.16-2.476c-.11-.19.215-.305-.022-.547-.3-.304-.7 0-1.2-.304-.497-.3 0-2.023-.1-2.427-.098-.405 1.7-1.014 1.4-.102-.3.913 0 1.318 0 1.318 1.296-1.216 2.393.1 2.294.404-.102.304.697.607 1.194.304.5-.304 1.1.91.9 1.517-.2.607-1.994.507-2.093-.1-.102-.608-.402-.405-.6-.1-.2.303-1.096.504-1.596.2a.476.476 0 0 1-.176-.16l-2.157 2.474.14.015c1.196.71.6 1.62.2 1.824-.4.2-1.098.2-1.098.2l-.2.407-2.592.2-.2 1.014c-1.297-.203-1.795 1.216-1.496 1.923.3.708 0 1.316 0 1.316l1.097.506 1.394-.403c.2-1.014 1.097-1.216 1.896-1.822.797-.607 2.095 1.11 1.695 1.923-.398.81-.398 1.113-.398 1.113l.1.912-.998.404-.798.405-.1.508h-2.693l-.5.505-1.297.104-.4.606-.896.102s-1.497.708-.898 1.518c.6.81-2.494.71-3.194-.405-.198 1.01-1.295.1-1.295.1l-1.096-.304-.1-1.515c-.2-1.014-2.094-1.014-1.993-.304.1.71-3.592.305-3.592.305l-1.195.58-1.1.634-.098.505-1.797.202-.797.406-.3-.608h-.795l-.8 1.114c-2.093.1-4.087 1.316-3.89 1.822.2.505-.795 1.014-.795 1.014l-.9.3-.596.91-1.198.406-.2 2.127-.598.403v.912l-.7.2v.507l-.996.1.597 1.52.8.405c1.395.2.796 1.924.796 1.924l.797.1.4 1.114.796 1.618c.3 1.217 1.197.912 1.596.81.398-.098.796 1.215.796 1.215l3.988.102s-.198.405.5.607c.698.2 5.286.405 5.487.1-.2-.91 2.49-1.113 3.59-.303 1.096.81 2.593.304 2.593.304l1.495 1.82 1 2.228 1.694.506 1.195.304.4 1.72.897.102.3 1.115c1.098.808-.3 2.53-.3 2.53v2.225l.798.406-.1.812 1.298 1.314 1.495.103 3.792 4.047 2.99.91.5 1.62.8-.1.597-.506 2.392-.1 1.197-1.116 1.297-.2 11.07-9.415-.998-.61v-2.225c1.795-1.316 1.894-3.645.2-3.847-1.287-.153-.698-1.52.5-1.72l.696-.303v-.912l2.294-2.124v-1.62l-4.986-4.15c-2.196-.81 0-5.67 1.494-5.568 1.497.1-.1-7.49-.1-7.49l-.798-.405.2-2.43h-1.096l-1.796 2.33-.498 1.617c-.2 2.128-6.384 1.72-6.684 1.417-.3-.304-2.393-1.214-2.393-1.214s-1.596-1.316-1.895-.91c-.3.405-1.695-.508-1.695-.203 0 .304-1.296-.708-1.296-.708l-1.995-.71 1.498-.304-.3-1.213 2.59 1.316c.3.404 1.597.304 1.597.304l.4.507s.798-.103 1.298.505c.498.607 3.09.1 3.09.1l.698.607 1.097.406 3.093.1.1-1.92.598-.61-.1-1.215.7-.606v-1.01l.6-.203.1-2.227.496-.1v-4.86l-1.496-1.418c-.1.507-1.696.507-1.696.507s-.398.707-.698.707c-.298 0 .4.91.2 1.517-.2.607-.998.607-.998.607l-1.497.406-.397.506h-1.596l-.198-1.316 1.792-.507 1-.503.5-1.014c.097-1.01 1.295-.91 1.295-.91s2.294-1.924 2.393-2.834c.102-.912.9-3.443 2.294-3.443h2.594c.997-.407.698-1.723.698-1.723l1.297-.2.2.708s1.797.202 1.995-.102c.2-.3.6-1.01 1.1-.707.497.303 2.093-.71 2.093-.71.1-.708 2.593-.404 2.593-.404l.3-.912s-1.695-2.328-1.994-2.328c-.3 0-1.896-1.418-2.097-.91-1.594-.406-1.495-2.633-1.495-2.633l-.6-1.418c0-.81-1.493-2.53-1.794-2.328-1.496-1.113-.398-2.43 0-2.53.4-.1 1.398-1.52 1.398-1.52l.498-1.417 1.695-.504.2-1.316-.895-.1s.996-1.824 1.496-1.824 3.792 0 4.09-.203c.298-.2.896-1.82.896-2.125 0-.304.8-.405 1.097-.507.3-.1.997-.91 1.196-1.315.2-.408-.496-2.94-.896-2.534zM320 242.058c.15-.15.3.456.6.38.296-.076.447.532.15.532-.3 0-.3.38-.3.532 0 .152 0 .53-.226.76-.224.227-.45.075-.75-.077-.298-.152-.446-.152-.822-.152-.373 0-.075.608-.075.608s-1.57-.074-1.27-.303c.298-.226.597-.303.374-.456-.223-.15 0-.3 0-.605s.75-.152.524-.38c-.223-.228.005-1.11.374-.608l.225-.532c-.225-.228-.074-.304-.523-.454-.45-.15-.077-1.063-.077-1.063l.076-.607c.15-.758 1.643-.836 1.72-.153.072.684 0 1.14 0 1.14l.45.15s-.078.458-.45.458c-.377 0 0 .225-.227.454l.226.377zm-4.938.762c.225-.456.748-2.43 1.347-1.822.595.607.97 0 .97 0s.3.304.15.912c-.15.606-.3 1.214-.676 1.29-.372.076-.672.304-1.12.38-.447.076-.673-.76-.673-.76z"/></svg>