<svg xmlns="http://www.w3.org/2000/svg" height="480" width="640" viewBox="0 0 640 480"><g fill-rule="evenodd"><path d="M0 0h912.01v36.923H0zm0 73.847h912.01v36.923H0zm0 78.77h912.01v36.923H0zm0 78.77h912.01v36.923H0zm0 78.77h912.01v36.923H0zm0 78.77h912.01v36.923H0zm0 78.77h912.01v36.923H0z" fill="#bd3d44"/><path d="M0 36.923h912.01v36.924H0zm0 76.31h912.01v36.922H0zm0 78.77h912.01v36.922H0zm0 78.77h912.01v36.922H0zm0 78.77h912.01v36.922H0zm0 78.77h912.01v36.922H0z" fill="#fff"/><path fill="#192f5d" d="M0 0h364.8v258.46H0z"/><g fill="#fff"><path d="M30.4 11.063l3.32 10.214h10.74l-8.69 6.315 3.32 10.215-8.69-6.314-8.69 6.314 3.32-10.215-8.69-6.315h10.74zm62.827.737l3.32 10.215h10.74l-8.69 6.314 3.32 10.214-8.69-6.313-8.69 6.314 3.32-10.215-8.69-6.315h10.74zm64.855 0l3.32 10.215h10.74l-8.69 6.314 3.32 10.214-8.69-6.313-8.69 6.314 3.32-10.215-8.69-6.315h10.742zm64.853 0l3.32 10.215h10.74l-8.69 6.314 3.32 10.214-8.69-6.313-8.69 6.314 3.32-10.215-8.692-6.315h10.742zm64.855 0l3.318 10.215h10.742l-8.69 6.314 3.32 10.214-8.69-6.313-8.69 6.314 3.32-10.215-8.69-6.315h10.74zm64.855 0l3.318 10.215h10.742l-8.69 6.314 3.32 10.214-8.69-6.313-8.69 6.314 3.32-10.215-8.69-6.315h10.74zM87.148 37.647l3.32 10.215h10.74l-8.69 6.313 3.32 10.216-8.69-6.312-8.69 6.313 3.32-10.215-8.69-6.313h10.74zm42.56 1.723l3.318 10.215h10.74l-8.69 6.313 3.32 10.216-8.69-6.313-8.69 6.314 3.32-10.216-8.69-6.313h10.74zm64.854 0l3.317 10.215h10.742l-8.69 6.313 3.318 10.216-8.69-6.313-8.69 6.314 3.32-10.216-8.69-6.313h10.74zm64.854 0l3.318 10.215h10.742l-8.69 6.313 3.32 10.216-8.69-6.313-8.69 6.314 3.32-10.216-8.69-6.313h10.742zm64.852 0l3.32 10.215h10.74l-8.69 6.313 3.32 10.216-8.69-6.313-8.69 6.314 3.32-10.216-8.692-6.313h10.742zM54.72 65.216l3.32 10.215h10.742l-8.69 6.315 3.32 10.215-8.692-6.313-8.69 6.313 3.32-10.215-8.69-6.314h10.74zm42.56 1.723l3.32 10.214h10.742l-8.69 6.314 3.32 10.215-8.69-6.313-8.69 6.313 3.32-10.215-8.69-6.314h10.74zm64.857 0l3.318 10.214h10.743l-8.69 6.314 3.32 10.215-8.69-6.313-8.69 6.313 3.32-10.215-8.69-6.314h10.74zm64.852 0l3.32 10.214h10.74l-8.69 6.314 3.32 10.215-8.69-6.313-8.69 6.313 3.32-10.215-8.692-6.314h10.742zm64.855 0l3.318 10.214h10.742l-8.69 6.314 3.32 10.215-8.69-6.313-8.69 6.313 3.32-10.215-8.69-6.314h10.74zm64.855 0l3.318 10.214h10.742l-8.69 6.314 3.32 10.215-8.69-6.313-8.69 6.313 3.32-10.215-8.69-6.314h10.74zM87.148 92.784L86.415 103h10.74l-8.69 6.314 3.32 10.216-8.69-6.313-8.69 6.313 3.32-10.216-8.69-6.313h10.74zm42.56 1.723l3.318 10.216h10.74l-8.69 6.313 3.32 10.216-8.69-6.313-8.69 6.313 3.32-10.216-8.69-6.313h10.74zm64.854 0l3.317 10.216h10.742l-8.69 6.313 3.318 10.216-8.69-6.313-8.69 6.313 3.32-10.216-8.69-6.313h10.74zm64.854 0l3.318 10.216h10.742l-8.69 6.313 3.32 10.216-8.69-6.313-8.69 6.313 3.32-10.216-8.69-6.313h10.74zm64.852 0l3.32 10.216h10.74l-8.69 6.313 3.32 10.216-8.69-6.313-8.69 6.313 3.32-10.216-8.692-6.313h10.742zM54.72 120.355l3.32 10.215h10.742l-8.69 6.314 3.32 10.215-8.692-6.314-8.69 6.313 3.32-10.216-8.69-6.314h10.74zm42.56 1.723l3.32 10.215h10.742l-8.69 6.314 3.32 10.215-8.69-6.313-8.69 6.312 3.32-10.215-8.69-6.314h10.74zm64.857 0l3.318 10.215h10.743l-8.69 6.314 3.32 10.215-8.69-6.313-8.69 6.312 3.32-10.215-8.69-6.314h10.74zm64.852 0l3.32 10.215h10.74l-8.69 6.314 3.32 10.215-8.69-6.313-8.69 6.312 3.32-10.215-8.692-6.314h10.742zm64.855 0l3.318 10.215h10.742l-8.69 6.314 3.32 10.215-8.69-6.313-8.69 6.312 3.32-10.215-8.69-6.314h10.74zm64.855 0l3.318 10.215h10.742l-8.69 6.314 3.32 10.215-8.69-6.313-8.69 6.312 3.32-10.215-8.69-6.314h10.74zm-269.55 25.846l3.32 10.216h10.74l-8.69 6.313 3.32 10.216-8.69-6.314-8.69 6.313 3.32-10.217-8.69-6.313h10.74zm42.56 1.723l3.318 10.216h10.74l-8.69 6.313 3.32 10.216-8.69-6.313-8.69 6.312 3.32-10.216-8.69-6.313h10.74zm64.854 0l3.317 10.216h10.742l-8.69 6.313 3.318 10.216-8.69-6.313-8.69 6.312 3.32-10.216-8.69-6.313h10.74zm64.854 0l3.318 10.216h10.742l-8.69 6.313 3.32 10.216-8.69-6.313-8.69 6.312 3.32-10.216-8.69-6.313h10.74zm64.852 0l3.32 10.216h10.74l-8.69 6.313 3.32 10.216-8.69-6.313-8.69 6.312 3.32-10.216-8.692-6.313h10.742zM30.4 166.14l3.32 10.216h10.74l-8.69 6.314 3.32 10.215-8.69-6.313-8.69 6.313 3.32-10.215-8.69-6.314h10.74zm62.827 11.077l3.32 10.215h10.74l-8.69 6.314 3.32 10.215-8.69-6.312-8.69 6.313 3.32-10.214-8.69-6.314h10.74zm64.855 0l3.32 10.215h10.74l-8.69 6.314 3.32 10.215-8.69-6.312-8.69 6.313 3.32-10.214-8.69-6.314h10.742zm64.853 0l3.32 10.215h10.74l-8.69 6.314 3.32 10.215-8.69-6.312-8.69 6.313 3.32-10.214-8.692-6.314h10.742zm64.855 0l3.318 10.215h10.742l-8.69 6.314 3.32 10.215-8.69-6.312-8.69 6.313 3.32-10.214-8.69-6.314h10.74zm64.855 0l3.318 10.215h10.742l-8.69 6.314 3.32 10.215-8.69-6.312-8.69 6.313 3.32-10.214-8.69-6.314h10.74zm-269.55 25.846l3.32 10.216h10.74l-8.69 6.312 3.32 10.216-8.69-6.313-8.69 6.313 3.32-10.216-8.69-6.313h10.74zm42.56 1.723l3.318 10.216h10.74l-8.69 6.313 3.32 10.216-8.69-6.312-8.69 6.313 3.32-10.215-8.69-6.313h10.74zm64.854 0l3.317 10.216h10.742l-8.69 6.313 3.318 10.216-8.69-6.312-8.69 6.313 3.32-10.215-8.69-6.313h10.74zm64.854 0l3.318 10.216h10.742l-8.69 6.313 3.32 10.216-8.69-6.312-8.69 6.313 3.32-10.215-8.69-6.313h10.74zm64.852 0l3.32 10.216h10.74l-8.69 6.313 3.32 10.216-8.69-6.312-8.69 6.313 3.32-10.215-8.692-6.313h10.742zM30.4 217.834l3.32 10.215h10.74l-8.69 6.313 3.32 10.215-8.69-6.313-8.69 6.313 3.32-10.215-8.69-6.314h10.74zm62.827 14.522l3.32 10.215h10.74l-8.69 6.315 3.32 10.215-8.69-6.313-8.69 6.313 3.32-10.215-8.69-6.314h10.74zm64.855 0l3.32 10.215h10.74l-8.69 6.315 3.32 10.215-8.69-6.313-8.69 6.313 3.32-10.215-8.69-6.314h10.742zm64.853 0l3.32 10.215h10.74l-8.69 6.315 3.32 10.215-8.69-6.313-8.69 6.313 3.32-10.215-8.692-6.314h10.742zm64.855 0l3.318 10.215h10.742l-8.69 6.315 3.32 10.215-8.69-6.313-8.69 6.313 3.32-10.215-8.69-6.314h10.74zm64.855 0l3.318 10.215h10.742l-8.69 6.315 3.32 10.215-8.69-6.313-8.69 6.313 3.32-10.215-8.69-6.314h10.74z"/></g></g></svg>