<svg xmlns="http://www.w3.org/2000/svg" height="480" width="640" viewBox="0 0 640 480"><g fill-rule="evenodd"><path fill="#fff" d="M320 0h320v480H320z"/><path d="M282.43-735.13c0 .625 55.956 222.85 118.17 300.56 69.375 87.27 113.18 87.333 113.18 87.333l70.866-17.717s-41.496 2.093-123.8-104.21c-83.45-107.78-109.42-285.96-108.17-282.84l-70.24 16.875z" transform="matrix(-.24 0 0 .199 534.09 334.357)" stroke="#000" stroke-width="1.197" fill="#fff"/><path d="M285-727.64c-1.535-9.37 33.898 220.95 140.2 327.24 53.15 53.15 88.583 53.15 88.583 53.15l88.582-17.717s-51.712 3.75-134.02-102.55c-83.45-107.78-108.58-263.25-107.96-263.87l-75.38 3.75zM282.43-735.13c0 .625 55.956 222.85 118.17 300.56 69.375 87.27 113.18 87.333 113.18 87.333l70.866-17.717s-41.496 2.093-123.8-104.21c-83.45-107.78-109.42-285.96-108.17-282.84l-70.24 16.875z" transform="matrix(.24 0 0 .199 381.891 336.17)" stroke="#000" stroke-width="1.197" fill="#fff"/><path d="M285-727.64c-1.535-9.37 33.898 220.95 140.2 327.24 53.15 53.15 88.583 53.15 88.583 53.15l88.582-17.717s-51.712 3.75-134.02-102.55c-83.45-107.78-108.58-263.25-107.96-263.87l-75.38 3.75z" transform="matrix(-.24 0 0 .199 534.09 334.357)" stroke="#000" stroke-width="1.197" fill="#fff"/><path d="M344.54-596.29l9.152 22.14s1.455-9.766 8.526-11.533l7.07-1.768s26.865 49.327 32.17 58.166c5.3 8.838-3.537 16.793-1.77 16.793 1.77 0 26.517-11.49 26.517-11.49s-10.606.882-15.026-6.19-34.82-59.933-34.82-59.933 6.187-2.652 11.49-5.303c5.304-2.652 10.607 7.955 10.607 7.955L385.2-613.97s0 8.84-4.42 10.607c-4.42 1.766-7.956 3.534-7.956 3.534s-3.535-6.187-7.955-13.258c-4.42-7.07 4.42-14.142 4.42-14.142l-22.982 11.49s7.955 4.42 10.607 8.84l5.303 8.838s-3.223 1.768-8.214 3.482c-3.59 1.875-7.696.054-9.464-1.714z" transform="matrix(.24 .004 -.005 .199 380.013 342.305)" stroke="#000" stroke-width="1.197" fill="#fff133"/><g stroke="#000" stroke-width="12.791" fill="#b00"><path d="M410.168 335.486c-.625-.098-.89-.607-.53-1.02s1.345-.725 1.97-.627l3.436.535c.625.097.89.606.53 1.018-.377.43-1.345.726-1.97.63l-3.436-.537zM408.356 336.87c-.613-.11-.86-.632-.492-1.043s1.348-.71 1.96-.6l3.372.61c.613.11.86.632.492 1.043-.384.43-1.347.71-1.96.6l-3.372-.61zM406.432 338.41c-.625-.097-.89-.606-.53-1.018s1.345-.726 1.97-.628l3.436.536c.625.097.89.606.53 1.018-.377.43-1.345.726-1.97.63l-3.436-.537zM430.477 318.212c-.634.04-1.045-.397-.823-.872s1.08-.99 1.713-1.03l3.487-.213c.634-.04 1.045.397.822.872-.232.496-1.08.99-1.712 1.028l-3.487.214zM429.027 319.81c-.627.012-1.013-.446-.772-.917s1.11-.957 1.736-.97l3.45-.075c.627-.013 1.013.445.773.917-.252.492-1.11.956-1.737.97l-3.45.074zM427.59 321.693c-.634.03-1.035-.414-.8-.885s1.1-.97 1.736-1l3.49-.158c.635-.03 1.035.414.802.885-.245.493-1.103.97-1.737 1l-3.49.158zM426.005 322.365c-.627-.02-.977-.498-.7-.955s1.18-.896 1.806-.876l3.448.11c.627.02.977.496.7.954-.288.478-1.178.896-1.805.876l-3.448-.11zM435.593 311.612c-.626.096-1.09-.302-.93-.794s.95-1.08 1.575-1.176l3.44-.524c.625-.095 1.09.302.928.794-.17.515-.948 1.08-1.574 1.176l-3.44.524zM434.486 313.438c-.62.08-1.072-.335-.903-.828s.956-1.066 1.576-1.145l3.41-.434c.62-.078 1.072.336.903.83-.176.515-.956 1.065-1.576 1.144l-3.41.434zM433.346 315.46c-.626.096-1.09-.302-.93-.794s.95-1.08 1.575-1.176l3.44-.524c.626-.095 1.09.302.93.794-.17.515-.95 1.08-1.575 1.176l-3.44.524zM431.905 317.092c-.622.07-1.064-.352-.884-.842s.982-1.05 1.603-1.12l3.418-.38c.623-.068 1.065.353.885.843-.188.513-.98 1.05-1.602 1.12l-3.418.38zM417.663 329.857c-.632-.054-.945-.544-.627-.98s1.27-.814 1.903-.76l3.475.303c.632.055.946.545.627.98-.334.454-1.27.814-1.902.76l-3.477-.303zM415.99 331.352c-.622-.07-.918-.572-.592-1.006s1.274-.8 1.895-.73l3.42.38c.62.07.916.572.59 1.007-.34.453-1.274.8-1.895.73l-3.42-.38zM414.22 333.024c-.63-.054-.944-.544-.626-.98s1.27-.814 1.903-.76l3.476.303c.632.055.946.545.627.98-.334.454-1.27.814-1.902.76l-3.477-.303zM412.093 333.946c-.613-.11-.86-.633-.492-1.044s1.35-.71 1.962-.6l3.37.61c.614.11.86.632.493 1.043-.384.43-1.347.71-1.96.6l-3.372-.61zM424.435 324.173c-.636-.005-1.003-.468-.734-.926s1.175-.912 1.81-.907l3.497.028c.635.005 1.002.468.733.926-.28.48-1.174.91-1.81.906l-3.495-.027zM422.933 325.79c-.627-.02-.977-.5-.7-.956s1.18-.896 1.806-.876l3.446.11c.627.02.977.496.7.954-.288.478-1.178.896-1.805.876l-3.447-.11zM421.104 326.69c-.632-.055-.945-.545-.627-.98s1.27-.815 1.903-.76l3.476.302c.632.055.946.545.627.98-.334.454-1.27.814-1.902.76l-3.476-.303zM419.43 328.184c-.62-.07-.916-.572-.59-1.006s1.274-.8 1.895-.73l3.42.38c.62.07.916.572.59 1.007-.34.453-1.274.8-1.895.73l-3.42-.38zM446.644 289.568c-.59.195-1.14-.118-1.096-.627s.678-1.213 1.27-1.41l3.25-1.075c.59-.195 1.138.118 1.095.628-.045.532-.678 1.213-1.27 1.41l-3.25 1.075zM445.992 290.46c-.605.14-1.11-.228-1.012-.734s.8-1.152 1.406-1.29l3.327-.765c.605-.137 1.11.23 1.013.736-.103.53-.802 1.152-1.407 1.29l-3.328.765zM445.143 292.575c-.608.156-1.124-.193-1.033-.698s.79-1.165 1.4-1.32l3.34-.856c.608-.154 1.125.195 1.033.7-.095.527-.79 1.164-1.398 1.32l-3.342.855zM444.296 294.502c-.605.14-1.11-.23-1.012-.735s.8-1.152 1.406-1.29l3.327-.765c.605-.138 1.11.23 1.013.735-.103.53-.802 1.152-1.407 1.29l-3.327.765zM448.6 283.26c-.59.18-1.13-.152-1.08-.664s.69-1.2 1.28-1.38l3.242-.984c.59-.18 1.13.153 1.08.664-.052.535-.69 1.202-1.278 1.38l-3.243.985zM447.95 285.427c-.592.195-1.14-.118-1.097-.627s.678-1.214 1.27-1.41l3.25-1.076c.59-.195 1.138.118 1.095.628-.045.532-.678 1.213-1.27 1.41l-3.25 1.075zM447.296 287.4c-.59.18-1.13-.152-1.08-.664s.69-1.2 1.278-1.38l3.243-.984c.59-.18 1.13.153 1.08.664-.052.535-.69 1.202-1.278 1.38l-3.244.985zM440 303.976c-.62.114-1.102-.268-.963-.765s.9-1.107 1.52-1.22l3.415-.63c.62-.115 1.102.267.963.764-.146.52-.9 1.108-1.52 1.222l-3.415.63zM438.973 305.84c-.616.097-1.085-.303-.94-.8s.91-1.096 1.525-1.194l3.387-.54c.616-.098 1.086.302.94.8-.154.52-.91 1.095-1.525 1.193l-3.387.54zM437.925 307.89c-.62.114-1.102-.268-.963-.765s.9-1.108 1.52-1.222l3.415-.63c.62-.114 1.102.268.963.765-.146.52-.9 1.108-1.52 1.222l-3.415.63zM436.732 309.59c-.62.08-1.072-.335-.903-.828s.955-1.066 1.575-1.145l3.41-.434c.62-.08 1.073.335.904.828-.177.517-.957 1.067-1.577 1.146l-3.41.434zM443.446 296.616c-.608.156-1.124-.193-1.033-.698s.79-1.165 1.4-1.32l3.34-.856c.608-.155 1.125.194 1.033.698-.095.528-.79 1.165-1.398 1.32l-3.342.856zM443.122 298.01c-.616.1-1.085-.3-.94-.8s.91-1.094 1.525-1.192l3.387-.54c.616-.098 1.086.302.94.8-.154.52-.91 1.095-1.525 1.193l-3.388.54zM442.074 300.062c-.62.114-1.102-.268-.963-.765s.9-1.108 1.52-1.222l3.416-.63c.62-.114 1.102.268.963.765-.147.52-.9 1.108-1.52 1.222l-3.416.63zM441.047 301.925c-.616.098-1.085-.302-.94-.8s.91-1.095 1.525-1.193l3.387-.54c.615-.098 1.085.302.938.8-.153.52-.908 1.095-1.524 1.193l-3.387.54zM452.834 271.384c-.546.272-1.147.035-1.202-.473s.437-1.288.983-1.56l3.003-1.497c.546-.272 1.147-.036 1.202.473.057.53-.437 1.29-.983 1.56l-3.003 1.498zM452.016 273.344c-.586.205-1.14-.1-1.11-.61s.65-1.223 1.238-1.428l3.227-1.124c.588-.205 1.143.1 1.11.61-.032.532-.65 1.223-1.236 1.428l-3.228 1.124zM451.395 275.33c-.585.188-1.132-.137-1.093-.65s.664-1.21 1.25-1.398l3.22-1.033c.586-.19 1.133.135 1.094.647-.04.535-.664 1.212-1.25 1.4l-3.22 1.033zM453.556 264.896c-.548.255-1.144 0-1.192-.512s.45-1.278 1-1.533l3.012-1.402c.547-.256 1.143 0 1.192.512.05.534-.452 1.278-1 1.533l-3.012 1.403zM453.332 267.122c-.546.272-1.147.035-1.202-.473s.437-1.29.983-1.562l3.003-1.497c.546-.27 1.147-.035 1.202.474.057.53-.437 1.29-.983 1.56l-3.003 1.498zM453.057 269.157c-.548.255-1.144 0-1.192-.512s.45-1.278 1-1.533l3.012-1.403c.547-.257 1.143 0 1.192.51.05.535-.453 1.28-1 1.534l-3.013 1.403zM450.8 277.504c-.585.205-1.14-.1-1.108-.61s.65-1.223 1.237-1.428l3.226-1.124c.587-.205 1.142.1 1.11.61-.033.532-.65 1.223-1.237 1.428l-3.23 1.124zM449.94 279.015c-.59.18-1.13-.153-1.08-.665s.688-1.2 1.277-1.38l3.243-.984c.59-.18 1.13.153 1.08.664-.052.535-.69 1.202-1.278 1.38l-3.243.985zM449.29 281.182c-.592.195-1.14-.118-1.097-.627s.678-1.214 1.27-1.41l3.25-1.076c.59-.196 1.138.117 1.095.627-.045.532-.678 1.213-1.27 1.41l-3.25 1.075z"/></g><g stroke="#000" stroke-width="12.791" fill="#b00"><path d="M503.556 329.875c.63-.063.935-.557.608-.987s-1.285-.8-1.916-.736l-3.47.347c-.632.062-.936.556-.61.987.342.45 1.286.798 1.917.735l3.47-.347zM505.256 331.35c.62-.077.906-.584.572-1.014s-1.288-.783-1.908-.706l-3.41.423c-.62.076-.907.584-.572 1.014.35.45 1.288.783 1.908.706l3.41-.423zM507.054 333c.63-.064.935-.558.608-.988s-1.285-.8-1.916-.736l-3.47.347c-.632.063-.936.557-.61.988.342.45 1.286.8 1.917.736l3.47-.347zM484.642 311.52c.63.073 1.074-.34.89-.826s-1-1.047-1.628-1.12l-3.46-.41c-.63-.073-1.075.34-.89.826.192.51.998 1.047 1.627 1.12l3.462.41zM485.967 313.195c.625.048 1.046-.388.842-.872s-1.032-1.016-1.656-1.064l-3.434-.264c-.624-.048-1.045.39-.842.873.213.504 1.03 1.014 1.656 1.062l3.433.263zM487.252 315.152c.63.063 1.065-.356.87-.84s-1.024-1.03-1.655-1.094l-3.47-.35c-.63-.064-1.064.355-.868.84.205.504 1.023 1.03 1.653 1.093l3.47.352zM488.775 315.91c.627.014 1.015-.444.775-.916s-1.106-.958-1.733-.973l-3.45-.08c-.627-.013-1.014.444-.775.916.25.493 1.106.96 1.734.973l3.45.08zM480.057 304.65c.617.13 1.11-.242.99-.742s-.862-1.13-1.48-1.258l-3.39-.712c-.616-.13-1.11.242-.988.742.127.522.86 1.13 1.477 1.258l3.39.71zM481.02 306.533c.613.113 1.096-.275.967-.776s-.87-1.116-1.484-1.23l-3.367-.62c-.612-.114-1.095.275-.966.776.135.524.87 1.116 1.483 1.23l3.368.62zM481.997 308.61c.617.13 1.11-.24.99-.74s-.862-1.13-1.48-1.258l-3.39-.712c-.616-.13-1.11.242-.988.742.127.522.86 1.13 1.477 1.258l3.39.71zM483.31 310.326c.614.103 1.088-.294.947-.793s-.897-1.1-1.512-1.204l-3.38-.566c-.616-.103-1.09.293-.948.793.147.52.897 1.1 1.51 1.204l3.382.566zM496.518 323.845c.635-.02.985-.492.7-.943s-1.202-.883-1.837-.862l-3.49.11c-.636.02-.987.493-.703.944.297.472 1.203.883 1.838.862l3.493-.11zM498.074 325.428c.626-.035.96-.52.668-.972s-1.21-.867-1.834-.832l-3.442.19c-.626.035-.96.52-.668.972.305.472 1.21.868 1.835.833l3.44-.192zM499.705 327.195c.635-.02.985-.492.7-.943s-1.202-.883-1.837-.862l-3.492.11c-.635.02-.986.493-.702.944.297.472 1.203.883 1.838.862l3.493-.11zM501.757 328.227c.62-.077.906-.584.572-1.014s-1.29-.783-1.91-.706l-3.41.423c-.62.076-.906.584-.57 1.014.348.45 1.287.783 1.907.706l3.41-.423zM490.21 317.798c.633.03 1.035-.41.802-.883s-1.1-.974-1.733-1.004l-3.49-.165c-.634-.03-1.035.412-.803.884.243.492 1.1.973 1.733 1.003l3.49.165zM491.572 319.494c.627.015 1.015-.443.775-.915s-1.106-.96-1.733-.974l-3.45-.08c-.627-.014-1.014.443-.775.915.25.494 1.105.96 1.733.974l3.45.08zM493.334 320.495c.635-.02.985-.492.7-.943s-1.202-.883-1.837-.862l-3.492.11c-.635.02-.986.493-.702.944.297.472 1.203.883 1.838.862l3.494-.11zM494.888 322.078c.626-.035.96-.52.668-.972s-1.21-.867-1.834-.832l-3.442.19c-.626.035-.96.52-.668.972.305.472 1.21.868 1.835.833l3.44-.192zM470.758 282.046c.574.228 1.145-.055 1.142-.565s-.58-1.247-1.155-1.475l-3.16-1.25c-.574-.228-1.145.054-1.142.565.004.533.58 1.247 1.156 1.475l3.158 1.25zM471.338 282.974c.592.172 1.126-.166 1.068-.677s-.71-1.193-1.302-1.365l-3.26-.945c-.59-.172-1.125.167-1.067.677.062.534.71 1.193 1.302 1.365l3.258.944zM472.02 285.132c.595.19 1.138-.13 1.086-.64s-.698-1.205-1.292-1.394l-3.268-1.036c-.594-.19-1.137.13-1.085.64.055.53.7 1.205 1.293 1.394l3.268 1.036zM472.714 287.1c.592.17 1.126-.167 1.068-.678s-.71-1.193-1.302-1.365l-3.26-.945c-.59-.172-1.125.167-1.067.677.062.533.71 1.192 1.302 1.364l3.26.945zM469.303 275.645c.574.21 1.14-.09 1.13-.604s-.594-1.235-1.168-1.446l-3.157-1.16c-.574-.21-1.138.09-1.13.604.01.536.594 1.236 1.168 1.447l3.157 1.16zM469.78 277.843c.575.228 1.146-.055 1.143-.565s-.58-1.248-1.155-1.476l-3.16-1.25c-.574-.228-1.145.054-1.142.565.004.533.58 1.247 1.156 1.475l3.16 1.25zM470.28 279.848c.575.21 1.14-.09 1.13-.604s-.593-1.236-1.167-1.447l-3.157-1.16c-.574-.21-1.138.09-1.13.604.01.537.594 1.237 1.168 1.448l3.157 1.16zM476.256 296.792c.61.148 1.12-.207 1.02-.71s-.81-1.156-1.42-1.304l-3.358-.817c-.61-.147-1.12.208-1.02.712.104.526.81 1.155 1.42 1.303l3.358.817zM477.136 298.703c.607.132 1.107-.24 1-.746s-.82-1.142-1.428-1.274l-3.338-.725c-.607-.13-1.107.242-1 .747.11.527.82 1.14 1.428 1.273l3.338.725zM478.02 300.81c.61.15 1.12-.206 1.02-.71s-.81-1.155-1.42-1.303l-3.358-.817c-.61-.148-1.12.207-1.02.71.104.527.81 1.156 1.42 1.304l3.358.817zM479.08 302.57c.613.114 1.096-.274.967-.775s-.87-1.116-1.484-1.23l-3.367-.62c-.612-.114-1.095.275-.966.776.135.525.87 1.117 1.483 1.23l3.368.62zM473.397 289.257c.594.19 1.137-.13 1.085-.64s-.698-1.205-1.292-1.394l-3.268-1.036c-.594-.19-1.137.13-1.085.64.054.53.698 1.205 1.292 1.394l3.267 1.037zM473.61 290.663c.607.132 1.107-.24 1-.746s-.82-1.142-1.428-1.274l-3.338-.725c-.607-.13-1.107.242-1 .747.11.527.82 1.14 1.428 1.273l3.338.725zM474.493 292.772c.61.148 1.12-.207 1.02-.71s-.81-1.156-1.42-1.304l-3.358-.817c-.61-.147-1.12.208-1.02.712.104.526.81 1.155 1.42 1.303l3.358.817zM475.373 294.683c.607.132 1.107-.24 1-.746s-.82-1.142-1.428-1.274l-3.338-.725c-.607-.13-1.107.242-1 .747.11.527.82 1.14 1.428 1.273l3.338.725zM466.007 263.564c.524.3 1.142.098 1.236-.406s-.335-1.31-.86-1.61l-2.88-1.658c-.523-.3-1.14-.098-1.235.407-.098.526.335 1.31.86 1.61l2.88 1.657zM466.674 265.565c.57.236 1.146-.038 1.154-.548s-.554-1.257-1.123-1.493l-3.132-1.3c-.57-.236-1.146.038-1.154.548-.01.533.553 1.257 1.122 1.493l3.132 1.3zM467.13 267.58c.57.22 1.14-.074 1.143-.587s-.567-1.245-1.137-1.465l-3.134-1.208c-.57-.22-1.14.073-1.142.586-.002.537.567 1.246 1.137 1.466l3.133 1.208zM465.795 257.052c.527.285 1.142.062 1.23-.446s-.35-1.3-.877-1.585l-2.896-1.566c-.526-.285-1.14-.062-1.23.446-.09.53.35 1.3.878 1.585l2.895 1.567zM465.844 259.283c.524.3 1.142.098 1.236-.406s-.335-1.31-.86-1.61l-2.88-1.658c-.523-.302-1.14-.1-1.235.406-.098.526.335 1.31.86 1.61l2.88 1.657zM465.96 261.33c.526.286 1.14.063 1.23-.445s-.35-1.3-.878-1.585l-2.896-1.567c-.526-.285-1.14-.062-1.23.446-.09.53.35 1.3.878 1.584l2.895 1.567zM467.56 269.783c.57.236 1.146-.038 1.154-.548s-.554-1.257-1.123-1.493l-3.13-1.3c-.57-.236-1.147.038-1.155.548-.008.533.554 1.257 1.123 1.493l3.132 1.3zM468.3 271.336c.575.21 1.14-.09 1.13-.604s-.593-1.236-1.167-1.447l-3.157-1.16c-.574-.21-1.138.09-1.13.604.01.535.594 1.235 1.168 1.446l3.157 1.16zM468.777 273.534c.574.228 1.145-.055 1.142-.565s-.582-1.25-1.156-1.477l-3.16-1.25c-.574-.228-1.145.054-1.142.565.004.533.58 1.247 1.156 1.475l3.16 1.25z"/></g><path d="M344.54-596.29l9.152 22.14s1.455-9.766 8.526-11.533l7.07-1.768s26.865 49.327 32.17 58.166c5.3 8.838-3.537 16.793-1.77 16.793 1.77 0 26.517-11.49 26.517-11.49s-10.606.882-15.026-6.19-34.82-59.933-34.82-59.933 6.187-2.652 11.49-5.303c5.304-2.652 10.607 7.955 10.607 7.955L385.2-613.97s0 8.84-4.42 10.607c-4.42 1.766-7.956 3.534-7.956 3.534s-3.535-6.187-7.955-13.258c-4.42-7.07 4.42-14.142 4.42-14.142l-22.982 11.49s7.955 4.42 10.607 8.84l5.303 8.838s-3.223 1.768-8.214 3.482c-3.59 1.875-7.696.054-9.464-1.714z" transform="matrix(-.24 .004 .005 .199 535.969 340.492)" stroke="#000" stroke-width="1.197" fill="#fff133"/><g transform="matrix(.144 0 0 .121 423.643 295.291)"><path fill="#c0c0c0" d="M324.546-255.37l-50.11 50.11L449.82-29.874l50.11-50.11z"/><ellipse rx="35.433" ry="35.433" stroke="#000" transform="scale(-1 1) rotate(45 -177.879 -1104.595)" cy="-1428" cx="354.33" stroke-width="1.197" fill="#fff133"/><path d="M-402.046-956.91l37.583 37.582-25.055 25.054-37.583-37.582c-12.53-12.528 12.526-37.583 25.054-25.055z" stroke="#000" stroke-width="1.197" fill="#c0c0c0"/><path d="M-346.606-926.53l-50.11 50.11c-13.798 0-25.35-11.554-25.055-25.056 10.877-25.88 25.027-38.434 50.11-50.11 12.476.73 24.216 10.892 25.054 25.055z" stroke="#000" stroke-width="1.197" fill="#fff133"/><path d="M-351.926-931.85l37.583 37.582-50.11 50.11-37.583-37.583c5.027-20.03 30.082-45.085 50.11-50.11z" stroke="#000" stroke-width="1.197" fill="#c0c0c0"/><path d="M-309.026-888.95l-50.11 50.11c-13.798 0-25.35-11.554-25.055-25.056 10.877-25.88 25.027-38.434 50.11-50.11 12.476.73 24.216 10.892 25.054 25.055z" stroke="#000" stroke-width="1.197" fill="#fff133"/><path d="M-314.356-894.28L28.44-551.478l-50.11 50.11-342.796-342.804c5.027-20.03 30.082-45.085 50.11-50.11z" stroke="#000" stroke-width="1.197" fill="#c0c0c0"/><path d="M48.934-530.97l-50.11 50.11c-13.798 0-25.35-11.554-25.055-25.056 10.877-25.88 25.027-38.434 50.11-50.11 12.476.73 24.216 10.892 25.054 25.055z" stroke="#000" stroke-width="1.197" fill="#fff133"/><path d="M48.944-530.976L274.44-305.48l-50.11 50.11L-1.166-480.866c5.027-20.028 30.082-45.084 50.11-50.11zM186.744-418.23l-75.166 75.165c-13.797 0-25.35-11.553-25.055-25.055 0 0 0-25.055 25.055-50.11s50.11-25.055 50.11-25.055c11.64 1.567 21.415 12.527 25.055 25.055zM186.744-418.23l50.11 75.165-50.11 50.11-75.165-50.11c-2.83-2.443 0-25.055 25.054-50.11s48.98-24.457 50.11-25.056z" stroke="#000" stroke-width="1.197" fill="#c0c0c0"/><path d="M336.61-506.69c0-35.433 0-86.653 17.717-129.98 17.716 43.326 17.716 94.546 17.716 129.98H336.61z" transform="rotate(-135 434.752 18.668) scale(1 -.818)" stroke="#000" stroke-width="1.197" fill="#c0c0c0"/><path d="M318.9-506.69h17.716v-43.326c0-43.327-35.433-64.99-35.433-64.99l17.717 108.32z" transform="rotate(-45 399.396 -194.158) scale(1 .818)" stroke="#000" stroke-width="1.197" fill="#c0c0c0"/><path d="M318.9-506.69h17.716v-43.326c0-43.327-35.433-64.99-35.433-64.99l17.717 108.32z" transform="rotate(-135 434.752 18.668) scale(1 -.818)" stroke="#000" stroke-width="1.197" fill="#c0c0c0"/><path d="M-314.356-894.28l37.583 37.582C-251.718-831.643-164.03-718.9-164.03-718.9s117.296 92.25 142.356 117.31l37.583 37.583C-9.148-589.062-164.03-693.842-164.03-693.842S-71.784-551.48-34.2-513.896l-37.583-37.583c-25.055-25.054-117.305-142.36-117.3-142.365-.005.005-100.223-75.168-125.276-100.22l-50.11-50.11c25.055 25.054 175.382 125.28 175.382 125.28s-100.22-150.338-125.272-175.39z" stroke="#000" stroke-width="1.197" fill="#fff133"/><path d="M299.493-230.317c50.11 75.165 100.22 125.276 112.744 137.8 23.776 23.82 50.11 25.055 50.11 25.055s0-25.056-25.055-50.11c-12.527-12.528-62.638-62.64-137.8-112.745zm-62.64-112.75c87.695 87.695 187.916 137.806 250.552 200.442 50.11 50.11 15.414 88.464 1.443 100.606-13.97 12.142-51.966 50.283-101.664-.385-62.638-62.638-112.746-162.857-200.442-250.552 0-25.055 25.056-50.11 50.11-50.11z" stroke="#000" stroke-width="1.197" fill="#c0c0c0"/><path transform="matrix(-1.249 -1.421 -1.359 1.317 1166.1 -102.64)" stroke="#000" stroke-width="1.197" fill="#c0c0c0" d="M218.28 257.88h22.934v73.043H218.28z"/><g stroke="#000" fill="#c0c0c0"><path d="M-330.51-843.274l-40.654 39.753 40.653 39.75-20.326 19.878-40.654-39.753-81.304 79.505 40.653 39.753-20.33 19.876-40.65-39.753-40.653 39.752 121.958 119.257 81.304-79.505-40.654-39.753-20.326 19.876-20.325-19.877 81.304-79.506 20.325 19.878-20.326 19.875 40.65 39.752 40.654-39.753-20.326-19.877 20.326-19.876 81.304 79.505-20.325 19.874-20.326-19.875-40.653 39.752 40.65 39.75 20.327-19.874 20.328 19.875-81.304 79.505-20.328-19.876 20.328-19.878-40.653-39.75-81.304 79.504 121.958 119.258 40.653-39.754-40.653-39.75 20.326-19.876 40.653 39.75 81.304-79.504-40.653-39.753 20.328-19.877 40.65 39.754 40.654-39.754-284.576-278.276zM-208.564-406.002v39.752l-101.63 99.38v-79.503l20.325-19.877h40.654l40.652-39.752zM-106.925-504.564l-80.75 78.96-.96 39.48 81.71-79.9v-38.54zM-188.234-386.122l-40.652-39.752v-39.753l40.652 39.753v39.752zM-86.603-485.503l-40.652-39.752v-39.753l40.652 39.753v39.752zM-127.255-565.01v39.753l-20.327-19.877 20.327-19.875zM-228.886-465.628v39.752l-20.327-19.877 20.327-19.875zM-45.543-565.01L-86.6-525.255v39.752l41.057-40.965v-38.54zM-289.865-604.758l-40.652-39.752v-39.753l40.652 39.753v39.752zM-208.56-525.26l-40.653-39.752v-39.753l40.652 39.753v39.752zM-188.23-624.638l-60.98-59.63v-39.75l81.305 79.503-20.326 19.877zM-249.213-724.016v39.752l-20.327-19.877 20.327-19.876zM-289.865-604.758l40.652-39.752v-39.753l-40.652 39.753v39.752zM-391.493-624.638l60.98-59.63v-39.75l-81.305 79.503 20.325 19.877zM-330.51-604.764l-81.305 79.505h-40.652l-20.327 19.876v79.506l142.288-139.53v-39.357zM-249.213-366.242L-371.17-485.5h-40.653l121.958 119.258h40.652zM-310.192-346.373L-432.15-465.63l20.33-19.87 121.958 119.258-20.33 19.87zM-310.192-346.373v79.504L-432.15-386.126v-79.504l121.958 119.257zM-411.82-525.25l-121.958-119.257h-40.652l121.958 119.258h40.652zM-472.8-505.38l-121.957-119.258 20.33-19.87 121.958 119.26-20.33 19.868zM-472.8-505.38v79.504l-121.957-119.258v-79.504L-472.8-505.38zM-452.48-644.507l-20.327-19.877v-39.752l40.653 39.752-20.326 19.877zM-350.852-743.885l-20.327-19.877v-39.752l40.654 39.752-20.326 19.877zM-249.216-485.5v-39.752l-20.327 19.875 20.327 19.877zM-208.56-525.26l40.65-39.752-20.325-19.877-20.326 19.878v39.752zM-330.522-684.267l20.326-19.877-20.326-19.875v39.753z"/></g><path transform="matrix(-1.251 -1.419 -1.361 1.315 1166.1 -102.64)" stroke="#000" stroke-width="1.197" fill="#fff133" d="M196.5 254.15h25.197v80.26H196.5z"/><path d="M336.61 166.54c0 14.67 35.433 35.434 35.433-17.716H336.61v17.716zM242.1 24.803c-147.06 0-113.13 164.24-100.37 124.02 9.36-29.503 35.433-70.866 64.935-80.225 40.225-12.76 26.696 9.36 41.364 9.36 14.67 0 1.14-22.12 41.363-9.36 29.503 9.36 55.577 50.722 64.936 80.225 12.76 40.224 53.148-124.02-112.23-124.02zM389.76 166.54c0 78.237-63.496 141.73-141.73 141.73-78.236 0-141.73-63.496-141.73-141.73v-17.716c0-29.116 35.433 124.02 141.73 124.02s141.73-124.77 141.73-124.02v17.716z" transform="matrix(-1.899 0 0 1.887 1166.1 -102.64)" stroke="#000" stroke-width="1.197" fill="#c0c0c0"/><path d="M336.61 166.54c0 14.67 35.433 35.434 35.433-17.716H336.61v17.716z" transform="matrix(1.899 0 0 1.887 224 -100.51)" stroke="#000" stroke-width="1.197" fill="#c0c0c0"/><path d="M389.76 148.82c0 78.236-63.496 141.73-141.73 141.73-78.236 0-141.73-63.496-141.73-141.73 0-78.236 63.496-141.73 141.73-141.73 78.237 0 141.73 63.496 141.73 141.73zm-53.15 0c0 14.67 22.812 3.042 9.36 43.04-9.36 27.826-27.076 45.543-56.58 54.902-40.224 12.76-26.693-9.36-41.363-9.36-14.668 0-1.14 22.12-41.364 9.36-29.502-9.36-47.218-27.076-56.577-56.578-12.76-40.224 9.36-26.695 9.36-41.364 0-14.67-22.12-1.14-9.36-41.364 9.36-29.502 27.075-47.22 56.577-56.578 40.225-12.76 26.696 9.36 41.364 9.36 14.67 0 1.14-22.12 41.364-9.36 29.504 9.36 47.22 27.075 56.58 56.578 12.76 40.224-9.36 26.694-9.36 41.364z" transform="matrix(-1.899 0 0 1.887 1166.1 -102.64)" stroke="#000" stroke-width="1.197" fill="#c0c0c0"/><path d="M126.55 157.68c-20.248 0-1.93 67.6-9.104 51.705s-11.144-33.368-11.144-51.705 3.97-35.81 11.144-51.705c7.175-15.894-11.144 51.705 9.104 51.705z" transform="matrix(-1.662 0 0 1.761 1107.2 -99.519)" stroke="#000" stroke-width="1.197" fill="#c0c0c0"/><path d="M372.05 139.96c0 15.892-2.13 31.632-9.75 44.81-7.966 13.776 9.75-44.81-7.966-44.81 17.716 0 1.687-58.587 7.965-44.81 6.278 13.775 9.75 28.918 9.75 44.81z" transform="matrix(-1.899 0 0 2.032 1166.1 -106.24)" stroke="#000" stroke-width="1.197" fill="#c0c0c0"/><path d="M296.29 263.08c-14.836 6.28-31.144 9.75-48.258 9.75s-33.422-3.47-48.257-9.75c-14.835-6.278 48.257 9.75 48.257-7.966 0 17.717 63.093 1.688 48.258 7.966zM248.03 42.52c0-17.716-63.092-1.688-48.257-7.966s31.143-9.75 48.257-9.75 33.422 3.472 48.258 9.75c14.835 6.278-48.258-9.75-48.258 7.966z" transform="matrix(-1.899 0 0 1.887 1166.1 -102.64)" stroke="#000" stroke-width="1.197" fill="#c0c0c0"/><ellipse rx="18.433" ry="20.109" stroke="#000" transform="matrix(-1.293 -1.382 -1.391 1.284 1257.6 -120.02)" cy="160.86" cx="82.112" stroke-width="1.197" fill="#fff133"/><path d="M276.58 287.67c-9.223 1.89-18.773 2.88-28.552 2.88s-19.33-.99-28.553-2.88l-1.432 6.965c9.686 1.984 19.715 3.025 29.985 3.025s20.3-1.04 29.985-3.025l-1.433-6.965z" transform="matrix(-1.293 -1.382 1.391 -1.284 808.89 712.05)" stroke="#000" stroke-width="1.197" fill="#fff133"/><path d="M276.58 287.67c-9.223 1.89-18.773 2.88-28.552 2.88s-19.33-.99-28.553-2.88l-1.432 6.965c9.686 1.984 19.715 3.025 29.985 3.025s20.3-1.04 29.985-3.025l-1.433-6.965zM267.7 308.51c-9.223 1.89-20.19.927-29.97.927-9.777 0-19.284-2.612-28.508-4.5l8.82-10.304c9.687 1.984 19.716 3.025 29.986 3.025s20.3-1.04 29.985-3.025L267.7 308.51z" transform="matrix(-1.293 -1.382 -1.391 1.284 1223.2 329.88)" stroke="#000" stroke-width="1.197" fill="#fff133"/><path d="M276.58 287.67c-9.223 1.89-18.773 2.88-28.552 2.88s-19.33-.99-28.553-2.88l-1.432 6.965c9.686 1.984 19.715 3.025 29.985 3.025s20.3-1.04 29.985-3.025l-1.433-6.965z" transform="matrix(-1.391 1.284 1.293 1.382 847.44 -345.21)" stroke="#000" stroke-width="1.197" fill="#fff133"/><ellipse rx="18.433" ry="20.109" stroke="#000" transform="matrix(-1.293 -1.382 -1.391 1.284 789.14 314.38)" cy="160.86" cx="82.112" stroke-width="1.197" fill="#fff133"/><path d="M267.59 281.47c-9.223 1.89-17.098 2.943-26.877 2.943s-23.112-.712-32.336-2.6l9.672 12.82c9.685 1.985 19.714 3.026 29.984 3.026s20.3-1.042 29.985-3.026l-10.43-13.164z" transform="matrix(-1.391 1.284 1.293 1.382 850.63 -315.18)" stroke="#000" stroke-width="1.197" fill="#fff133"/><path d="M173.94 271.77l-.838 14.842-3.24 4.493.977-15.087 3.1-4.248zm156.6-6.17l3.562 4.19 1.047 13.615-2.934-2.933-1.676-14.872z" transform="matrix(-1.899 0 0 1.887 1166.1 -102.64)" stroke="#000" stroke-width="1.197" fill="#fff133"/><ellipse rx="18.433" ry="20.109" stroke="#000" transform="matrix(-1.293 -1.382 -1.391 1.284 1237.6 329.88)" cy="160.86" cx="82.112" stroke-width="1.197" fill="#fff133"/></g><path d="M513.78-790.16l35.432-17.714 35.433 17.714s-73.366 35.433-73.366 159.45c-.002 88.58 125.26 106.3 125.26 212.6 0 45.65-34.184 88.582-69.617 88.582s-88.583-17.716-141.73-70.866c35.433 17.716 76.082 37.308 106.3 36.058 19.588-.405 55.025-17.716 55.025-53.15 0-70.865-122.77-106.92-122.77-213.22 0-124.02 50.025-159.45 50.026-159.45zM520.25-790.16l46.683-17.717 10 17.717s-70.65 35.433-70.65 159.45c0 88.58 125.89 106.3 125.89 212.6 0 45.65-26.713 87.362-65.24 88.582-73.403 2.363-90.458-23.966-141.73-70.866 43.15 32.308 105 46.752 129.02 34.183 29.354-15.365 35.024-36.06 35.024-53.775 0-70.866-120.89-104.42-120.89-210.72 0-124.02 51.9-159.45 51.9-159.45zM513.34-789.69c7.004-2.437 35.875-18.186 71.308 17.247 17.717 17.72 17.716 53.15 17.716 70.866l53.15-53.15s-29.066-86.87-107.62-53.59c-11.127 4.9-28.14 14.537-34.55 18.627zM523.8-795.94c8.84-2.87 36.676-6.325 64.596 18.5 17.717 17.72 18.966 42.934 18.966 60.65l40.65-37.932c3.44-3.21-24.832-81.252-99.24-54.034-4.5 1.807-14.78 6.302-24.972 12.816z" transform="matrix(-.24 0 0 .199 534.09 334.357)" stroke="#000" stroke-width="1.197" fill="#fff"/><path d="M344.54-596.29l9.152 22.14s1.455-9.766 8.526-11.533l7.07-1.768s26.865 49.327 32.17 58.166c5.3 8.838-3.537 16.793-1.77 16.793 1.77 0 26.517-11.49 26.517-11.49s-10.606.882-15.026-6.19-34.82-59.933-34.82-59.933 6.187-2.652 11.49-5.303c5.304-2.652 10.607 7.955 10.607 7.955L385.2-613.97s0 8.84-4.42 10.607c-4.42 1.766-7.956 3.534-7.956 3.534s-3.535-6.187-7.955-13.258c-4.42-7.07 4.42-14.142 4.42-14.142l-22.982 11.49s7.955 4.42 10.607 8.84l5.303 8.838s-3.223 1.768-8.214 3.482c-3.59 1.875-7.696.054-9.464-1.714z" transform="matrix(-.195 -.021 -.067 .173 439.546 337.121)" stroke="#000" stroke-width="1.197" fill="#fff133"/><path d="M344.54-596.29l9.152 22.14s1.455-9.766 8.526-11.533l7.07-1.768s26.865 49.327 32.17 58.166c5.3 8.838-3.537 16.793-1.77 16.793 1.77 0 26.517-11.49 26.517-11.49s-10.606.882-15.026-6.19-34.82-59.933-34.82-59.933 6.187-2.652 11.49-5.303c5.304-2.652 10.607 7.955 10.607 7.955L385.2-613.97s0 8.84-4.42 10.607c-4.42 1.766-7.956 3.534-7.956 3.534s-3.535-6.187-7.955-13.258c-4.42-7.07 4.42-14.142 4.42-14.142l-22.982 11.49s7.955 4.42 10.607 8.84l5.303 8.838s-3.223 1.768-8.214 3.482c-3.59 1.875-7.696.054-9.464-1.714z" transform="matrix(.178 .024 .003 -.133 320.605 95.229)" stroke="#000" stroke-width="1.197" fill="#fff133"/><g transform="matrix(.144 0 0 .121 423.643 295.291)"><g transform="rotate(45 478.12 -504.573)"><ellipse rx="35.433" ry="35.433" stroke="#000" transform="translate(124.01 283.46)" cy="-1428" cx="354.33" stroke-width="1.197" fill="#c0c0c0"/><path d="M460.63-1126.77v53.15h35.432v-53.15c0-17.717-35.432-17.717-35.432 0z" stroke="#000" stroke-width="1.197" fill="#fff133"/><path d="M442.91-1066.09h70.866c9.757-9.756 9.757-26.095 0-35.433-25.99-10.607-44.874-9.48-70.866 0-8.307 9.338-9.422 24.826 0 35.433z" stroke="#000" stroke-width="1.197" fill="#c0c0c0"/><path d="M442.91-1073.62v53.15h70.866v-53.15c-17.717-10.607-53.15-10.607-70.866 0z" stroke="#000" stroke-width="1.197" fill="#fff133"/><path d="M442.91-1012.94h70.866c9.757-9.756 9.757-26.095 0-35.433-25.99-10.607-44.874-9.48-70.866 0-8.307 9.338-9.422 24.826 0 35.433z" stroke="#000" stroke-width="1.197" fill="#c0c0c0"/><path fill="#fff133" d="M442.91-116.93h70.866V131.1H442.91z"/><path d="M442.91-1020.476l.006 484.79h70.867l-.007-484.79c-17.717-10.607-53.15-10.607-70.866 0z" stroke="#000" stroke-width="1.197" fill="#fff133"/><path d="M442.92-506.698h70.866c9.757-9.756 9.757-26.095 0-35.433-25.99-10.608-44.874-9.48-70.866 0-8.307 9.337-9.422 24.825 0 35.432z" stroke="#000" stroke-width="1.197" fill="#c0c0c0"/><path d="M442.92-506.7v318.9h70.866v-318.9c-17.717-10.607-53.15-10.607-70.866 0zM425.19-329.53h106.3c9.757-9.756 9.757-26.095 0-35.433 0 0-17.716-17.716-53.15-17.716s-53.15 17.717-53.15 17.717c-7.12 9.338-6.283 24 0 35.433zM425.19-329.53l17.717 88.583h70.866l17.716-88.583c.273-3.727-17.717-17.716-53.15-17.716s-51.928 17.34-53.15 17.716z" stroke="#000" stroke-width="1.197" fill="#fff133"/><path d="M336.61-506.69c0-35.433 0-86.653 17.717-129.98 17.716 43.326 17.716 94.546 17.716 129.98H336.61z" transform="matrix(1 0 0 .818 124.01 173.44)" stroke="#000" stroke-width="1.197" fill="#fff133"/><path d="M318.9-506.69h17.716v-43.326c0-43.327-35.433-64.99-35.433-64.99l17.717 108.32z" transform="matrix(-1 0 0 .818 832.67 173.44)" stroke="#000" stroke-width="1.197" fill="#fff133"/><path d="M318.9-506.69h17.716v-43.326c0-43.327-35.433-64.99-35.433-64.99l17.717 108.32z" transform="matrix(1 0 0 .818 124.01 173.44)" stroke="#000" stroke-width="1.197" fill="#fff133"/><path d="M478.34-116.93c17.716 88.582 17.716 159.45 17.716 177.16.03 33.655-17.716 53.15-17.716 53.15s-17.717-17.717-17.717-53.15c0-17.716 0-88.583 17.717-177.16zm-35.433-124.02c0 124.02-35.433 230.32-35.433 318.9 0 70.866 51.654 73.453 70.118 72.16 18.464-1.294 72.3-1.19 71.614-72.16 0-88.583-35.433-194.88-35.433-318.9-17.717-17.716-53.15-17.716-70.866 0z" stroke="#000" stroke-width="1.197" fill="#fff133"/><path d="M442.91-1020.476v53.15c0 35.433 17.716 177.16 17.716 177.16s-17.71 148.17-17.71 183.61v53.15c0-35.433 35.427-219.04 35.427-219.04s35.44 165.89 35.44 219.04v-53.15c0-35.433-17.717-183.61-17.724-183.61.006 0 17.716-124.02 17.716-159.45v-70.867c0 35.433-35.426 212.6-35.426 212.6s-35.44-177.17-35.44-212.6z" stroke="#000" stroke-width="1.197" fill="#c0c0c0"/></g><path transform="matrix(1.249 -1.421 1.359 1.317 -662.45 -102.64)" stroke="#000" stroke-width="1.197" fill="#fff133" d="M218.28 257.88h22.934v73.043H218.28z"/><path d="M336.61 166.54c0 14.67 35.433 35.434 35.433-17.716H336.61v17.716zM242.1 24.803c-147.06 0-113.13 164.24-100.37 124.02 9.36-29.503 35.433-70.866 64.935-80.225 40.225-12.76 26.696 9.36 41.364 9.36 14.67 0 1.14-22.12 41.363-9.36 29.503 9.36 55.577 50.722 64.936 80.225 12.76 40.224 53.148-124.02-112.23-124.02zM389.76 166.54c0 78.237-63.496 141.73-141.73 141.73-78.236 0-141.73-63.496-141.73-141.73v-17.716c0-29.116 35.433 124.02 141.73 124.02s141.73-124.77 141.73-124.02v17.716z" transform="matrix(1.899 0 0 1.887 -662.45 -102.64)" stroke="#000" stroke-width="1.197" fill="#fff133"/><ellipse rx="18.433" ry="20.109" stroke="#000" transform="matrix(1.293 -1.382 1.391 1.284 -753.9 -120.02)" cy="160.86" cx="82.112" stroke-width="1.197" fill="#c0c0c0"/><path transform="matrix(1.251 -1.419 1.361 1.315 -662.45 -102.64)" stroke="#000" stroke-width="1.197" fill="#c0c0c0" d="M196.5 254.15h25.197v80.26H196.5z"/><path d="M336.61 166.54c0 14.67 35.433 35.434 35.433-17.716H336.61v17.716z" transform="matrix(-1.899 0 0 1.887 279.67 -100.51)" stroke="#000" stroke-width="1.197" fill="#fff133"/><path d="M389.76 148.82c0 78.236-63.496 141.73-141.73 141.73-78.236 0-141.73-63.496-141.73-141.73 0-78.236 63.496-141.73 141.73-141.73 78.237 0 141.73 63.496 141.73 141.73zm-53.15 0c0 14.67 22.812 3.042 9.36 43.04-9.36 27.826-27.076 45.543-56.58 54.902-40.224 12.76-26.693-9.36-41.363-9.36-14.668 0-1.14 22.12-41.364 9.36-29.502-9.36-47.218-27.076-56.577-56.578-12.76-40.224 9.36-26.695 9.36-41.364 0-14.67-22.12-1.14-9.36-41.364 9.36-29.502 27.075-47.22 56.577-56.578 40.225-12.76 26.696 9.36 41.364 9.36 14.67 0 1.14-22.12 41.364-9.36 29.504 9.36 47.22 27.075 56.58 56.578 12.76 40.224-9.36 26.694-9.36 41.364z" transform="matrix(1.899 0 0 1.887 -662.45 -102.64)" stroke="#000" stroke-width="1.197" fill="#fff133"/><path d="M126.55 157.68c-20.248 0-1.93 67.6-9.104 51.705s-11.144-33.368-11.144-51.705 3.97-35.81 11.144-51.705c7.175-15.894-11.144 51.705 9.104 51.705z" transform="matrix(1.662 0 0 1.761 -603.57 -99.519)" stroke="#000" stroke-width="1.197" fill="#fff133"/><path d="M372.05 139.96c0 15.892-2.13 31.632-9.75 44.81-7.966 13.776 9.75-44.81-7.966-44.81 17.716 0 1.687-58.587 7.965-44.81 6.278 13.775 9.75 28.918 9.75 44.81z" transform="matrix(1.899 0 0 2.032 -662.45 -106.24)" stroke="#000" stroke-width="1.197" fill="#fff133"/><path d="M296.29 263.08c-14.836 6.28-31.144 9.75-48.258 9.75s-33.422-3.47-48.257-9.75c-14.835-6.278 48.257 9.75 48.257-7.966 0 17.717 63.093 1.688 48.258 7.966zM248.03 42.52c0-17.716-63.092-1.688-48.257-7.966s31.143-9.75 48.257-9.75 33.422 3.472 48.258 9.75c14.835 6.278-48.258-9.75-48.258 7.966z" transform="matrix(1.899 0 0 1.887 -662.45 -102.64)" stroke="#000" stroke-width="1.197" fill="#fff133"/><path d="M276.58 287.67c-9.223 1.89-18.773 2.88-28.552 2.88s-19.33-.99-28.553-2.88l-1.432 6.965c9.686 1.984 19.715 3.025 29.985 3.025s20.3-1.04 29.985-3.025l-1.433-6.965z" transform="matrix(1.293 -1.382 -1.391 -1.284 -305.22 712.05)" stroke="#000" stroke-width="1.197" fill="#c0c0c0"/><path d="M276.58 287.67c-9.223 1.89-18.773 2.88-28.552 2.88s-19.33-.99-28.553-2.88l-1.432 6.965c9.686 1.984 19.715 3.025 29.985 3.025s20.3-1.04 29.985-3.025l-1.433-6.965zM267.7 308.51c-9.223 1.89-20.19.927-29.97.927-9.777 0-19.284-2.612-28.508-4.5l8.82-10.304c9.687 1.984 19.716 3.025 29.986 3.025s20.3-1.04 29.985-3.025L267.7 308.51z" transform="matrix(1.293 -1.382 1.391 1.284 -719.56 329.88)" stroke="#000" stroke-width="1.197" fill="#c0c0c0"/><path d="M276.58 287.67c-9.223 1.89-18.773 2.88-28.552 2.88s-19.33-.99-28.553-2.88l-1.432 6.965c9.686 1.984 19.715 3.025 29.985 3.025s20.3-1.04 29.985-3.025l-1.433-6.965z" transform="matrix(1.391 1.284 -1.293 1.382 -343.78 -345.21)" stroke="#000" stroke-width="1.197" fill="#c0c0c0"/><ellipse rx="18.433" ry="20.109" stroke="#000" transform="matrix(1.293 -1.382 1.391 1.284 -285.47 314.38)" cy="160.86" cx="82.112" stroke-width="1.197" fill="#c0c0c0"/><path d="M267.59 281.47c-9.223 1.89-17.098 2.943-26.877 2.943s-23.112-.712-32.336-2.6l9.672 12.82c9.685 1.985 19.714 3.026 29.984 3.026s20.3-1.042 29.985-3.026l-10.43-13.164z" transform="matrix(1.391 1.284 -1.293 1.382 -346.96 -315.18)" stroke="#000" stroke-width="1.197" fill="#c0c0c0"/><path d="M173.94 271.77l-.838 14.842-3.24 4.493.977-15.087 3.1-4.248zm156.6-6.17l3.562 4.19 1.047 13.615-2.934-2.933-1.676-14.872z" transform="matrix(1.899 0 0 1.887 -662.45 -102.64)" stroke="#000" stroke-width="1.197" fill="#c0c0c0"/><ellipse rx="18.433" ry="20.109" stroke="#000" transform="matrix(1.293 -1.382 1.391 1.284 -733.89 329.88)" cy="160.86" cx="82.112" stroke-width="1.197" fill="#c0c0c0"/><g stroke="#000" fill="#fff133"><path d="M834.18-843.274l40.654 39.753-40.653 39.75 20.326 19.878 40.654-39.753 81.304 79.505-40.653 39.753 20.33 19.876 40.65-39.753 40.653 39.752-121.958 119.257-81.304-79.505 40.654-39.753 20.326 19.876 20.325-19.877-81.304-79.506-20.325 19.878 20.326 19.875-40.65 39.752-40.654-39.753 20.326-19.877-20.326-19.876-81.304 79.505 20.325 19.874 20.326-19.875 40.653 39.752-40.65 39.75-20.327-19.874-20.328 19.875 81.304 79.505 20.328-19.876-20.328-19.878 40.653-39.75 81.304 79.504-121.958 119.258-40.653-39.754 40.653-39.75-20.326-19.876-40.653 39.75-81.304-79.504 40.653-39.753-20.328-19.877-40.65 39.754-40.654-39.754L834.19-843.283zM712.234-406.002v39.752l101.63 99.38v-79.503L793.54-366.25h-40.654l-40.652-39.752zM610.595-504.564l80.75 78.96.96 39.48-81.71-79.9v-38.54zM691.904-386.122l40.652-39.752v-39.753l-40.652 39.753v39.752zM590.273-485.503l40.652-39.752v-39.753l-40.652 39.753v39.752zM630.925-565.01v39.753l20.327-19.877-20.327-19.875zM732.556-465.628v39.752l20.327-19.877-20.327-19.875zM549.213-565.01l41.058 39.754v39.752l-41.057-40.965v-38.54zM793.535-604.758l40.652-39.752v-39.753l-40.652 39.753v39.752zM712.23-525.26l40.653-39.752v-39.753l-40.652 39.753v39.752zM691.9-624.638l60.98-59.63v-39.75l-81.305 79.503 20.326 19.877zM752.883-724.016v39.752l20.327-19.877-20.327-19.876zM793.535-604.758l-40.652-39.752v-39.753l40.652 39.753v39.752zM895.163-624.638l-60.98-59.63v-39.75l81.305 79.503-20.325 19.877zM834.18-604.764l81.305 79.505h40.652l20.327 19.876v79.506l-142.288-139.53v-39.357zM752.883-366.242L874.84-485.5h40.653L793.535-366.242h-40.652zM813.862-346.373L935.82-465.63l-20.33-19.87-121.958 119.258 20.33 19.87zM813.862-346.373v79.504L935.82-386.126v-79.504L813.862-346.374zM915.49-525.25l121.958-119.257h40.652L956.142-525.25H915.49zM976.47-505.38l121.957-119.258-20.33-19.87-121.958 119.26 20.33 19.868zM976.47-505.38v79.504l121.957-119.258v-79.504L976.47-505.38zM956.15-644.507l20.327-19.877v-39.752l-40.653 39.752 20.326 19.877zM854.522-743.885l20.327-19.877v-39.752l-40.654 39.752 20.326 19.877zM752.886-485.5v-39.752l20.327 19.875-20.327 19.877zM712.23-525.26l-40.65-39.752 20.325-19.877 20.326 19.878v39.752zM834.192-684.267l-20.326-19.877 20.326-19.875v39.753z"/></g></g><g stroke="#000" stroke-width="17.958" fill="#b00"><path d="M456.64 274.784c-.508-.32-1.135-.137-1.254.363s.27 1.32.78 1.64l2.796 1.753c.508.32 1.136.138 1.254-.363.124-.523-.27-1.32-.78-1.64l-2.796-1.753zM456.623 272.736c-.512-.303-1.137-.1-1.25.403s.287 1.31.8 1.613l2.818 1.664c.513.302 1.138.1 1.25-.403.12-.527-.286-1.31-.8-1.614l-2.817-1.664zM456.684 270.502c-.508-.32-1.135-.137-1.254.363s.27 1.32.78 1.64l2.796 1.753c.508.32 1.136.138 1.254-.363.124-.523-.27-1.32-.78-1.64l-2.796-1.753zM456.666 268.453c-.512-.303-1.137-.1-1.25.403s.287 1.31.8 1.614l2.818 1.664c.512.302 1.137.1 1.25-.403.118-.526-.287-1.31-.8-1.613l-2.818-1.664zM456.55 283.348c-.508-.32-1.135-.137-1.254.363s.27 1.322.78 1.64l2.796 1.754c.508.32 1.136.138 1.254-.363.124-.522-.27-1.32-.78-1.638l-2.796-1.754zM456.534 281.3c-.512-.303-1.137-.1-1.25.403s.287 1.31.8 1.614l2.818 1.664c.512.303 1.137.102 1.25-.402.118-.527-.287-1.31-.8-1.614l-2.818-1.664zM456.595 279.066c-.508-.32-1.135-.137-1.254.363s.272 1.32.78 1.64l2.797 1.752c.508.32 1.136.138 1.254-.363.125-.524-.27-1.32-.778-1.64l-2.797-1.754zM456.578 277.018c-.512-.303-1.137-.1-1.25.403s.287 1.312.8 1.615l2.818 1.664c.512.3 1.137.1 1.25-.404.118-.527-.287-1.31-.8-1.614l-2.818-1.664zM456.816 257.655c-.508-.32-1.135-.137-1.254.363s.27 1.32.78 1.64l2.796 1.753c.508.32 1.136.14 1.254-.362.124-.523-.27-1.32-.78-1.64l-2.796-1.753zM456.8 255.608c-.512-.303-1.137-.1-1.25.403s.287 1.312.8 1.615l2.818 1.664c.512.3 1.137.1 1.25-.404.118-.527-.287-1.31-.8-1.614l-2.818-1.664zM456.86 253.375c-.508-.32-1.135-.137-1.254.363s.27 1.32.78 1.64l2.796 1.753c.508.32 1.136.14 1.254-.362.124-.523-.27-1.32-.78-1.64l-2.796-1.753zM456.844 251.326c-.512-.303-1.137-.1-1.25.403s.287 1.31.8 1.613l2.818 1.664c.512.302 1.137.1 1.25-.403.118-.527-.287-1.31-.8-1.614l-2.818-1.664zM456.728 266.22c-.508-.32-1.135-.137-1.254.363s.27 1.32.78 1.64l2.796 1.753c.508.32 1.136.138 1.254-.363.124-.523-.27-1.32-.78-1.64l-2.796-1.753zM456.71 264.172c-.51-.303-1.136-.1-1.25.403s.288 1.31.8 1.614l2.82 1.663c.51.302 1.136.1 1.25-.403.117-.527-.288-1.31-.8-1.614l-2.82-1.664zM456.772 261.938c-.508-.32-1.135-.137-1.254.363s.27 1.322.78 1.64l2.796 1.754c.508.32 1.136.138 1.254-.363.124-.522-.27-1.32-.78-1.638l-2.796-1.754zM456.756 259.89c-.512-.303-1.137-.1-1.25.403s.287 1.31.8 1.614l2.818 1.664c.512.303 1.137.102 1.25-.402.118-.527-.287-1.31-.8-1.614l-2.818-1.664zM456.285 309.04c-.508-.32-1.135-.137-1.254.363s.272 1.32.78 1.64l2.797 1.753c.508.32 1.136.138 1.254-.363.125-.523-.27-1.32-.778-1.64l-2.797-1.753zM456.27 306.992c-.513-.303-1.138-.1-1.25.403s.286 1.31.8 1.614l2.817 1.663c.512.302 1.137.1 1.25-.403.118-.527-.287-1.31-.8-1.614l-2.818-1.664zM456.33 304.758c-.508-.32-1.135-.137-1.254.363s.27 1.322.78 1.64l2.796 1.754c.508.32 1.136.138 1.254-.363.124-.522-.27-1.32-.78-1.638l-2.796-1.754zM456.313 302.71c-.512-.303-1.137-.1-1.25.403s.287 1.31.8 1.614l2.818 1.664c.513.303 1.138.102 1.25-.402.12-.527-.286-1.31-.8-1.614l-2.817-1.664zM456.197 317.603c-.508-.32-1.135-.137-1.254.363s.27 1.32.78 1.64l2.796 1.753c.507.318 1.135.137 1.253-.364.124-.523-.27-1.32-.78-1.64l-2.796-1.753zM456.18 315.556c-.512-.303-1.137-.1-1.25.403s.287 1.31.8 1.613l2.818 1.664c.512.302 1.137.1 1.25-.403.118-.527-.287-1.31-.8-1.614l-2.818-1.664zM456.24 313.322c-.507-.32-1.134-.137-1.253.363s.27 1.32.78 1.64l2.796 1.753c.508.32 1.136.138 1.254-.363.124-.523-.27-1.32-.78-1.64l-2.796-1.753zM456.224 311.274c-.512-.303-1.137-.1-1.25.403s.287 1.31.8 1.614l2.818 1.665c.512.302 1.137.1 1.25-.403.118-.527-.287-1.31-.8-1.614l-2.818-1.664zM456.462 291.912c-.508-.32-1.135-.137-1.254.363s.27 1.32.78 1.64l2.796 1.753c.508.32 1.136.138 1.254-.363.124-.523-.27-1.32-.78-1.64l-2.796-1.753zM456.446 289.864c-.512-.303-1.137-.1-1.25.403s.287 1.31.8 1.614l2.818 1.665c.512.302 1.137.1 1.25-.403.118-.527-.287-1.31-.8-1.614l-2.818-1.664zM456.507 287.63c-.508-.32-1.135-.137-1.254.363s.27 1.32.78 1.64l2.796 1.753c.507.32 1.135.138 1.253-.363.124-.523-.27-1.32-.78-1.64l-2.796-1.753zM456.49 285.582c-.512-.303-1.137-.1-1.25.403s.287 1.31.8 1.614l2.818 1.663c.512.302 1.137.1 1.25-.403.118-.527-.287-1.31-.8-1.614l-2.818-1.664zM456.374 300.475c-.508-.32-1.135-.137-1.254.363s.27 1.32.78 1.64l2.796 1.753c.508.32 1.136.14 1.254-.362.124-.523-.27-1.32-.78-1.64l-2.796-1.753zM456.357 298.428c-.512-.303-1.137-.1-1.25.403s.287 1.312.8 1.615l2.818 1.664c.512.3 1.137.1 1.25-.404.118-.527-.287-1.31-.8-1.614l-2.818-1.664zM456.418 296.194c-.508-.32-1.135-.137-1.254.363s.27 1.32.78 1.64l2.796 1.753c.508.32 1.136.138 1.254-.363.124-.523-.27-1.32-.78-1.64l-2.796-1.753zM456.4 294.146c-.51-.303-1.136-.1-1.25.403s.288 1.31.8 1.613l2.82 1.664c.51.302 1.136.1 1.25-.403.117-.527-.288-1.31-.8-1.614l-2.82-1.664zM455.93 343.295c-.507-.32-1.134-.137-1.253.363s.27 1.32.78 1.64l2.796 1.753c.508.32 1.136.14 1.254-.362.124-.523-.27-1.32-.78-1.64l-2.796-1.753zM455.915 341.248c-.512-.303-1.137-.1-1.25.403s.287 1.312.8 1.615l2.818 1.664c.512.3 1.137.1 1.25-.404.118-.527-.287-1.31-.8-1.614l-2.818-1.664zM455.976 339.014c-.508-.32-1.135-.137-1.254.363s.27 1.32.78 1.64l2.796 1.753c.508.32 1.136.138 1.254-.363.124-.523-.27-1.32-.78-1.64l-2.796-1.753zM455.96 336.965c-.513-.303-1.138-.1-1.25.403s.286 1.31.8 1.614l2.817 1.664c.512.302 1.137.1 1.25-.403.118-.527-.287-1.31-.8-1.614l-2.818-1.665zM455.826 349.812c-.512-.303-1.137-.1-1.25.403s.287 1.31.8 1.614l2.818 1.663c.512.302 1.137.1 1.25-.403.118-.527-.287-1.31-.8-1.614l-2.818-1.664zM455.887 347.577c-.508-.32-1.135-.137-1.254.363s.27 1.32.78 1.64l2.796 1.753c.507.32 1.135.138 1.253-.363.124-.523-.27-1.32-.78-1.64l-2.796-1.753zM455.87 345.53c-.512-.303-1.137-.1-1.25.403s.287 1.31.8 1.614l2.818 1.664c.512.303 1.137.102 1.25-.402.118-.527-.287-1.31-.8-1.614l-2.818-1.664zM456.108 326.168c-.508-.32-1.135-.137-1.254.363s.27 1.322.78 1.64l2.796 1.754c.508.32 1.136.138 1.254-.363.124-.522-.27-1.32-.78-1.638l-2.796-1.754zM456.092 324.12c-.512-.304-1.137-.102-1.25.402s.287 1.31.8 1.614l2.818 1.664c.512.302 1.137.1 1.25-.403.118-.527-.287-1.31-.8-1.614l-2.818-1.664zM456.153 321.886c-.508-.32-1.135-.137-1.254.363s.27 1.32.778 1.64l2.797 1.752c.508.32 1.136.138 1.254-.363.123-.524-.272-1.32-.78-1.64l-2.797-1.754zM456.136 319.838c-.512-.303-1.137-.1-1.25.403s.287 1.312.8 1.615l2.818 1.664c.512.3 1.137.1 1.25-.404.118-.527-.287-1.31-.8-1.614l-2.818-1.664zM456.02 334.732c-.508-.32-1.135-.137-1.254.363s.27 1.32.78 1.64l2.796 1.753c.508.32 1.136.138 1.254-.363.124-.523-.27-1.32-.78-1.64l-2.796-1.753zM456.003 332.684c-.512-.303-1.137-.1-1.25.403s.287 1.31.8 1.614l2.818 1.665c.513.302 1.138.1 1.25-.403.12-.527-.286-1.31-.8-1.614l-2.817-1.664zM456.064 330.45c-.508-.32-1.135-.137-1.254.363s.27 1.32.78 1.64l2.796 1.753c.508.32 1.136.138 1.254-.363.124-.523-.27-1.32-.78-1.64l-2.796-1.753zM456.047 328.402c-.512-.303-1.137-.1-1.25.403s.287 1.31.8 1.614l2.818 1.663c.512.302 1.137.1 1.25-.403.118-.527-.287-1.31-.8-1.614l-2.818-1.664zM455.71 364.815c-.51-.32-1.136-.137-1.255.363s.27 1.32.78 1.64l2.796 1.753c.51.32 1.137.14 1.255-.362.124-.523-.27-1.32-.78-1.64l-2.796-1.753zM455.692 362.766c-.512-.303-1.137-.1-1.25.403s.287 1.31.8 1.613l2.818 1.664c.512.302 1.137.1 1.25-.403.118-.527-.287-1.31-.8-1.614l-2.818-1.664zM455.753 360.533c-.508-.32-1.135-.137-1.254.363s.27 1.32.778 1.64l2.797 1.753c.508.318 1.136.137 1.254-.364.123-.523-.272-1.32-.78-1.64l-2.797-1.753zM455.736 358.485c-.512-.303-1.137-.1-1.25.403s.287 1.31.8 1.614l2.818 1.664c.512.302 1.137.1 1.25-.403.118-.527-.287-1.31-.8-1.614l-2.818-1.665zM455.604 371.33c-.512-.302-1.137-.1-1.25.404s.287 1.31.8 1.614l2.818 1.664c.512.302 1.137.1 1.25-.403.118-.528-.287-1.312-.8-1.615l-2.818-1.664zM455.665 369.096c-.508-.32-1.135-.137-1.254.363s.272 1.32.78 1.64l2.797 1.752c.508.32 1.136.138 1.254-.363.125-.524-.27-1.32-.778-1.64l-2.797-1.754zM455.648 367.05c-.512-.304-1.137-.102-1.25.402s.287 1.31.8 1.614l2.818 1.664c.512.302 1.137.1 1.25-.403.118-.527-.287-1.31-.8-1.614l-2.818-1.664zM455.797 356.25c-.508-.32-1.135-.137-1.254.363s.27 1.32.78 1.64l2.796 1.753c.507.32 1.135.138 1.253-.363.124-.523-.27-1.32-.78-1.64l-2.796-1.753zM455.78 354.203c-.51-.303-1.136-.1-1.25.403s.288 1.31.8 1.614l2.82 1.664c.51.302 1.136.1 1.25-.403.117-.526-.288-1.31-.8-1.613l-2.82-1.664zM455.842 351.97c-.508-.32-1.135-.138-1.254.362s.27 1.32.78 1.64l2.796 1.753c.508.32 1.136.138 1.254-.363.124-.523-.27-1.32-.78-1.64l-2.796-1.753z"/></g><g stroke="#000" stroke-width="17.958" fill="#b00"><path d="M459.517 275.022c-.513-.315-1.138-.127-1.25.375s.29 1.317.802 1.632l2.82 1.727c.51.314 1.136.127 1.248-.375.117-.524-.29-1.317-.802-1.632l-2.82-1.728zM459.476 272.97c-.516-.296-1.14-.09-1.245.417s.305 1.308.82 1.605l2.84 1.637c.517.297 1.14.09 1.246-.416.11-.528-.304-1.308-.82-1.606l-2.84-1.637zM459.503 270.74c-.513-.315-1.138-.127-1.25.375s.29 1.317.802 1.632l2.82 1.728c.512.314 1.137.127 1.25-.375.116-.524-.29-1.317-.803-1.632l-2.82-1.728zM459.463 268.688c-.516-.297-1.14-.09-1.245.416s.304 1.308.82 1.605l2.84 1.636c.516.298 1.138.09 1.245-.415.11-.527-.304-1.307-.82-1.605l-2.84-1.637zM459.544 283.586c-.513-.315-1.138-.127-1.25.375s.29 1.318.802 1.633l2.82 1.728c.512.315 1.137.128 1.25-.374.116-.524-.29-1.317-.803-1.632l-2.82-1.728zM459.503 281.535c-.516-.297-1.14-.09-1.245.416s.304 1.31.82 1.606l2.84 1.637c.516.298 1.138.09 1.245-.415.11-.528-.304-1.308-.82-1.606l-2.84-1.637zM459.53 279.304c-.513-.315-1.138-.127-1.25.375s.29 1.316.802 1.63l2.82 1.73c.512.313 1.137.126 1.25-.376.116-.524-.29-1.317-.803-1.632l-2.82-1.728zM459.49 277.253c-.516-.297-1.14-.09-1.245.416s.304 1.307.82 1.604l2.84 1.637c.516.3 1.138.09 1.245-.414.11-.528-.304-1.308-.82-1.606l-2.84-1.637zM459.463 257.894c-.513-.315-1.138-.127-1.25.375s.29 1.316.802 1.63l2.82 1.73c.512.313 1.137.126 1.25-.376.116-.524-.29-1.317-.803-1.632l-2.82-1.728zM459.422 255.843c-.516-.297-1.14-.09-1.245.416s.304 1.307.82 1.604l2.84 1.637c.516.3 1.138.09 1.245-.414.11-.528-.304-1.308-.82-1.606l-2.84-1.637zM459.45 253.612c-.513-.315-1.138-.127-1.25.375s.29 1.317.802 1.632l2.82 1.727c.512.314 1.137.127 1.25-.375.116-.524-.29-1.317-.803-1.632l-2.82-1.728zM459.41 251.56c-.517-.297-1.14-.09-1.246.416s.304 1.308.82 1.605l2.84 1.638c.516.298 1.138.09 1.245-.415.11-.528-.305-1.308-.82-1.606l-2.84-1.637zM459.49 266.458c-.513-.315-1.138-.127-1.25.375s.29 1.317.802 1.632l2.82 1.728c.512.314 1.137.127 1.25-.375.116-.524-.29-1.317-.803-1.632l-2.82-1.728zM459.45 264.406c-.517-.297-1.14-.09-1.246.416s.304 1.308.82 1.605l2.84 1.637c.516.298 1.138.09 1.245-.415.11-.53-.305-1.31-.82-1.607l-2.84-1.637zM459.476 262.175c-.513-.315-1.138-.127-1.25.375s.29 1.317.802 1.632l2.82 1.728c.512.314 1.137.127 1.25-.375.116-.524-.29-1.317-.803-1.632l-2.82-1.728zM459.436 260.125c-.516-.297-1.14-.09-1.245.416s.305 1.31.82 1.606l2.84 1.637c.517.298 1.14.09 1.246-.415.11-.528-.304-1.308-.82-1.606l-2.84-1.637zM459.625 309.28c-.513-.315-1.138-.127-1.25.375s.29 1.317.802 1.632l2.82 1.728c.512.314 1.137.127 1.25-.375.116-.524-.29-1.317-.803-1.632l-2.82-1.728zM459.584 307.228c-.516-.297-1.14-.09-1.245.416s.303 1.308.82 1.605l2.838 1.636c.517.298 1.14.09 1.246-.415.11-.527-.304-1.307-.82-1.605l-2.84-1.637zM459.61 304.997c-.512-.315-1.137-.127-1.25.375s.29 1.317.803 1.632l2.82 1.728c.512.314 1.137.127 1.25-.375.116-.524-.29-1.317-.803-1.632l-2.82-1.728zM459.57 302.946c-.515-.297-1.138-.09-1.244.416s.304 1.308.82 1.605l2.84 1.637c.516.298 1.138.09 1.245-.415.112-.53-.303-1.31-.82-1.607l-2.84-1.637zM459.652 317.844c-.513-.315-1.138-.127-1.25.375s.29 1.316.802 1.63l2.82 1.73c.512.313 1.137.126 1.25-.376.116-.524-.29-1.317-.803-1.632l-2.818-1.728zM459.61 315.793c-.515-.297-1.138-.09-1.244.416s.304 1.307.82 1.604l2.84 1.637c.516.3 1.138.09 1.245-.414.112-.528-.303-1.308-.82-1.606l-2.84-1.637zM459.638 313.56c-.513-.314-1.138-.126-1.25.376s.29 1.317.802 1.632l2.82 1.728c.512.314 1.137.127 1.25-.375.116-.523-.29-1.316-.803-1.63l-2.82-1.73zM459.598 311.51c-.516-.296-1.14-.09-1.245.417s.304 1.308.82 1.605l2.84 1.637c.516.297 1.138.09 1.245-.416.11-.528-.304-1.308-.82-1.606l-2.84-1.637zM459.57 292.15c-.513-.314-1.138-.126-1.25.376s.29 1.317.802 1.632l2.82 1.728c.512.314 1.137.127 1.25-.375.116-.523-.29-1.316-.803-1.63l-2.82-1.73zM459.53 290.1c-.516-.297-1.14-.09-1.245.416s.304 1.308.82 1.605l2.84 1.638c.516.298 1.138.09 1.245-.415.11-.528-.304-1.308-.82-1.606l-2.84-1.637zM459.557 287.87c-.513-.316-1.138-.128-1.25.374s.29 1.317.802 1.632l2.82 1.728c.51.314 1.136.127 1.248-.375.117-.525-.29-1.318-.802-1.633l-2.82-1.728zM459.517 285.818c-.516-.297-1.14-.09-1.245.416s.304 1.308.82 1.605l2.84 1.636c.516.298 1.138.09 1.245-.415.11-.527-.304-1.307-.82-1.605l-2.84-1.637zM459.598 300.715c-.513-.315-1.138-.127-1.25.375s.29 1.317.802 1.632l2.82 1.728c.512.314 1.137.127 1.25-.375.116-.524-.29-1.317-.803-1.632l-2.82-1.728zM459.558 298.664c-.516-.297-1.14-.09-1.245.416s.304 1.308.82 1.605l2.84 1.637c.516.298 1.138.09 1.245-.415.11-.528-.304-1.308-.82-1.606l-2.84-1.636zM459.584 296.433c-.513-.315-1.138-.127-1.25.375s.29 1.317.802 1.632l2.82 1.728c.512.314 1.137.127 1.25-.375.116-.524-.29-1.317-.803-1.632l-2.82-1.727zM459.544 294.382c-.516-.297-1.14-.09-1.245.416s.303 1.308.82 1.605l2.838 1.637c.517.298 1.14.09 1.246-.415.11-.528-.304-1.308-.82-1.606l-2.84-1.638zM459.732 343.536c-.513-.315-1.138-.127-1.25.375s.29 1.318.802 1.633l2.82 1.728c.512.315 1.137.128 1.25-.374.116-.524-.29-1.317-.803-1.632l-2.818-1.728zM459.692 341.486c-.516-.297-1.14-.09-1.245.416s.304 1.308.82 1.605l2.84 1.637c.516.298 1.138.09 1.245-.415.11-.53-.304-1.31-.82-1.607l-2.84-1.637zM459.72 339.254c-.514-.315-1.14-.127-1.25.375s.288 1.316.8 1.63l2.82 1.73c.513.313 1.138.126 1.25-.376.117-.524-.29-1.317-.802-1.632l-2.82-1.728zM459.678 337.203c-.516-.297-1.14-.09-1.245.416s.304 1.307.82 1.604l2.84 1.637c.516.3 1.138.09 1.245-.414.11-.528-.304-1.308-.82-1.606l-2.84-1.637zM459.72 350.05c-.517-.298-1.14-.09-1.246.415s.304 1.308.82 1.605l2.84 1.637c.516.298 1.138.09 1.245-.415.11-.528-.305-1.308-.82-1.606l-2.84-1.637zM459.746 347.818c-.513-.315-1.138-.127-1.25.375s.29 1.317.802 1.632l2.82 1.728c.512.314 1.137.127 1.25-.375.116-.524-.29-1.317-.803-1.632l-2.82-1.728zM459.705 345.768c-.516-.297-1.14-.09-1.245.416s.304 1.308.82 1.605l2.84 1.636c.516.298 1.138.09 1.245-.415.11-.527-.304-1.307-.82-1.605l-2.84-1.637zM459.68 326.408c-.514-.315-1.14-.127-1.25.375s.288 1.317.8 1.632l2.82 1.728c.513.314 1.138.127 1.25-.375.117-.524-.29-1.317-.802-1.632l-2.82-1.728zM459.638 324.356c-.516-.297-1.14-.09-1.245.416s.304 1.308.82 1.605l2.84 1.637c.516.298 1.138.09 1.245-.415.11-.53-.304-1.31-.82-1.607l-2.84-1.637zM459.665 322.126c-.513-.315-1.138-.127-1.25.375s.29 1.318.802 1.633l2.82 1.728c.512.315 1.137.128 1.25-.374.116-.524-.29-1.317-.803-1.632l-2.82-1.728zM459.625 320.074c-.516-.297-1.14-.09-1.245.416s.304 1.308.82 1.605l2.84 1.637c.516.298 1.138.09 1.245-.415.11-.528-.304-1.308-.82-1.606l-2.84-1.636zM459.705 334.973c-.513-.315-1.138-.127-1.25.375s.29 1.317.802 1.632l2.82 1.728c.512.314 1.137.127 1.25-.375.116-.524-.29-1.317-.803-1.632l-2.82-1.727zM459.665 332.92c-.516-.296-1.14-.09-1.245.417s.304 1.308.82 1.605l2.84 1.637c.516.297 1.138.09 1.245-.416.11-.528-.304-1.308-.82-1.606l-2.84-1.637zM459.692 330.69c-.513-.315-1.138-.127-1.25.375s.29 1.317.802 1.632l2.82 1.728c.512.314 1.137.127 1.25-.375.116-.524-.29-1.317-.803-1.632l-2.818-1.728zM459.652 328.64c-.516-.298-1.14-.09-1.245.415s.304 1.308.82 1.605l2.84 1.637c.516.298 1.138.09 1.245-.415.11-.528-.304-1.308-.82-1.606l-2.84-1.637zM459.8 365.056c-.513-.315-1.138-.127-1.25.375s.29 1.318.802 1.633l2.82 1.728c.512.315 1.137.128 1.25-.374.116-.524-.29-1.317-.803-1.632l-2.82-1.728zM459.76 363.005c-.516-.297-1.14-.09-1.245.416s.304 1.31.82 1.606l2.84 1.637c.516.298 1.138.09 1.245-.415.11-.528-.304-1.308-.82-1.606l-2.84-1.637zM459.787 360.774c-.513-.315-1.138-.127-1.25.375s.29 1.316.802 1.63l2.82 1.73c.51.313 1.136.126 1.248-.376.117-.524-.29-1.317-.802-1.632l-2.82-1.728zM459.746 358.723c-.516-.297-1.14-.09-1.245.416s.305 1.307.82 1.604l2.84 1.637c.517.3 1.14.09 1.246-.414.11-.528-.304-1.308-.82-1.606l-2.84-1.637zM459.787 371.57c-.516-.298-1.14-.09-1.245.415s.304 1.308.82 1.605l2.84 1.637c.516.298 1.138.09 1.245-.415.11-.528-.304-1.308-.82-1.606l-2.84-1.637zM459.814 369.338c-.513-.315-1.138-.127-1.25.375s.29 1.317.802 1.632l2.82 1.728c.512.314 1.137.127 1.25-.375.116-.524-.29-1.317-.803-1.632l-2.82-1.728zM459.773 367.288c-.516-.297-1.14-.09-1.245.416s.304 1.308.82 1.605l2.84 1.636c.516.298 1.138.09 1.245-.415.11-.527-.304-1.307-.82-1.605l-2.84-1.637zM459.773 356.492c-.513-.315-1.138-.127-1.25.375s.29 1.317.802 1.632l2.82 1.727c.512.314 1.137.127 1.25-.375.116-.524-.29-1.317-.803-1.632l-2.82-1.728zM459.733 354.44c-.516-.296-1.14-.09-1.245.417s.304 1.308.82 1.605l2.84 1.637c.516.297 1.138.09 1.245-.416.11-.528-.304-1.308-.82-1.606l-2.84-1.637zM459.76 352.21c-.513-.315-1.138-.127-1.25.375s.29 1.317.802 1.632l2.82 1.728c.512.314 1.137.127 1.25-.375.116-.524-.29-1.317-.803-1.632l-2.82-1.728z"/></g><g stroke="#000" stroke-width="12.791" fill="#b00"><path d="M469.345 260.93c-.64-.16-1.187.186-1.095.69s.822 1.17 1.46 1.33l3.516.877c.64.16 1.187-.186 1.096-.69-.095-.53-.822-1.17-1.46-1.33l-3.517-.878zM470.34 261.487c-.178-.513-.84-.69-1.326-.356s-.792 1.184-.614 1.697l.978 2.822c.178.512.84.69 1.326.355.507-.35.792-1.183.615-1.696l-.98-2.823zM470.077 261.138c-.466-.382-1.156-.286-1.38.193s.02 1.34.487 1.722l2.565 2.1c.465.383 1.155.286 1.378-.192.233-.5-.02-1.34-.486-1.722l-2.565-2.1zM468.474 262.86c.39-.432.146-.953-.487-1.04s-1.656.256-2.046.69l-2.142 2.38c-.39.434-.147.955.487 1.042.66.092 1.656-.257 2.045-.69l2.144-2.38zM471.062 262.8c.368-.435.1-.953-.54-1.036s-1.643.27-2.01.706l-2.028 2.397c-.37.435-.1.954.538 1.037.667.087 1.644-.27 2.013-.706l2.027-2.397zM457.802 262.943c.41-.42.19-.948-.44-1.055s-1.667.21-2.076.63l-2.25 2.317c-.41.422-.19.95.44 1.056.656.112 1.666-.208 2.075-.63l2.252-2.317zM460.383 262.957c.39-.424.144-.95-.49-1.052s-1.655.222-2.044.647l-2.14 2.334c-.388.425-.143.95.49 1.052.663.106 1.657-.222 2.045-.646l2.138-2.335zM463.195 263.04c.41-.42.19-.948-.44-1.055s-1.667.21-2.076.63l-2.252 2.317c-.41.422-.19.95.44 1.056.657.11 1.667-.21 2.076-.63l2.25-2.318zM465.668 262.863c.368-.436.1-.954-.54-1.037s-1.643.27-2.01.706l-2.028 2.397c-.37.434-.1.953.538 1.036.667.087 1.644-.27 2.013-.706l2.028-2.397zM454.337 262.035c.41-.42.19-.948-.44-1.055s-1.667.21-2.076.63l-2.25 2.317c-.41.422-.19.95.44 1.056.657.11 1.667-.21 2.076-.63l2.25-2.318zM455.574 262.87c.45-.385.284-.93-.33-1.09s-1.676.064-2.125.45l-2.472 2.118c-.45.385-.285.93.328 1.09.642.168 1.677-.065 2.126-.45l2.472-2.118zM452.487 262.353c.594-.246.673-.798.158-1.104s-1.625-.365-2.218-.12l-3.267 1.358c-.594.246-.672.8-.157 1.104.538.32 1.624.364 2.218.118l3.267-1.357z"/></g><g stroke="#000" stroke-width="12.791" fill="#b00"><path d="M504.648 351.248c.516.31.497.865-.038 1.11s-1.586.18-2.102-.13l-2.838-1.708c-.516-.31-.496-.866.04-1.11.558-.256 1.585-.18 2.1.13l2.838 1.708zM506.985 350.648c.498.318.456.878-.085 1.12s-1.58.162-2.078-.157l-2.742-1.75c-.5-.32-.456-.88.084-1.12.565-.25 1.58-.163 2.08.156l2.74 1.752zM509.515 349.93c.516.31.497.864-.038 1.11s-1.586.178-2.102-.132l-2.838-1.707c-.516-.31-.496-.865.04-1.11.558-.255 1.585-.18 2.1.132l2.838 1.707zM511.852 349.33c.498.317.456.877-.085 1.118s-1.58.163-2.078-.156l-2.743-1.752c-.5-.318-.456-.878.084-1.12.566-.25 1.58-.162 2.08.157l2.742 1.752zM522.103 341.57c.615-.1 1.087.297.944.795s-.903 1.098-1.518 1.2l-3.386.552c-.616.1-1.088-.297-.944-.796.15-.52.902-1.096 1.518-1.197l3.385-.554zM520.355 337.848c.406-.41 1.066-.354 1.32.11s.102 1.338-.304 1.747l-2.234 2.25c-.407.41-1.067.355-1.32-.11-.267-.484-.103-1.337.303-1.746l2.235-2.252zM523.14 339.51c.62-.118 1.102.262.966.76s-.893 1.112-1.513 1.23l-3.41.642c-.62.117-1.104-.264-.968-.76.143-.52.893-1.113 1.513-1.23l3.41-.643zM495.022 353.547c.482.347.406.9-.152 1.104s-1.598.066-2.08-.28l-2.65-1.907c-.483-.346-.406-.898.152-1.104.583-.215 1.598-.065 2.08.28l2.65 1.907zM497.41 353.12c.463.353.364.907-.2 1.108s-1.59.05-2.054-.304l-2.553-1.943c-.464-.352-.365-.906.198-1.108.59-.21 1.592-.05 2.056.304l2.553 1.943zM499.99 352.115c.53.295.535.85.01 1.11s-1.577.228-2.106-.067l-2.91-1.62c-.53-.296-.534-.852-.01-1.112.55-.273 1.58-.227 2.108.068l2.91 1.62zM501.998 352.023c.445.37.315.92-.26 1.1s-1.59-.01-2.036-.382l-2.444-2.037c-.444-.37-.314-.92.26-1.1.6-.188 1.592.01 2.037.38l2.443 2.04zM514.382 348.61c.516.31.497.865-.038 1.11s-1.586.18-2.102-.13l-2.838-1.708c-.516-.31-.496-.866.04-1.11.558-.256 1.585-.18 2.1.13l2.838 1.708zM516.718 348.01c.498.318.456.878-.085 1.12s-1.58.162-2.078-.157l-2.742-1.752c-.5-.317-.456-.877.084-1.118.565-.25 1.58-.163 2.08.156l2.74 1.752zM464.03 356.182c.388.42.18.948-.416 1.054s-1.58-.208-1.97-.63l-2.135-2.314c-.39-.42-.182-.948.415-1.055.623-.11 1.58.21 1.97.63l2.135 2.315zM466.474 356.16c.37.424.137.95-.463 1.052s-1.57-.22-1.938-.646l-2.03-2.334c-.368-.425-.136-.95.465-1.053.627-.107 1.57.22 1.94.645l2.027 2.334zM469.143 356.082c.388.42.18.948-.416 1.054s-1.58-.208-1.97-.63l-2.135-2.314c-.39-.42-.18-.948.416-1.055.623-.11 1.58.21 1.97.63l2.135 2.315zM471.59 356.06c.37.426.137.952-.463 1.054s-1.57-.22-1.94-.646l-2.028-2.334c-.37-.425-.138-.95.463-1.053.627-.105 1.57.222 1.94.647l2.027 2.334zM453.8 356.38c.39.42.18.947-.415 1.053s-1.58-.208-1.97-.63l-2.135-2.314c-.39-.422-.18-.95.416-1.056.623-.11 1.58.21 1.97.63l2.135 2.315zM456.247 356.356c.37.425.137.95-.463 1.053s-1.57-.222-1.94-.647l-2.028-2.334c-.37-.426-.137-.952.464-1.054.627-.106 1.57.22 1.94.646l2.027 2.334zM458.915 356.28c.388.42.18.947-.416 1.053s-1.582-.208-1.97-.63l-2.136-2.314c-.39-.422-.18-.95.416-1.056.623-.11 1.58.21 1.97.63l2.135 2.315zM461.36 356.258c.37.425.138.95-.462 1.053s-1.57-.22-1.94-.645l-2.028-2.334c-.37-.424-.137-.95.464-1.052.627-.106 1.57.22 1.94.646l2.027 2.334zM484.692 355.25c.44.384.303.927-.276 1.087s-1.6-.063-2.04-.446l-2.424-2.105c-.44-.383-.303-.926.276-1.087.605-.167 1.6.063 2.04.446l2.424 2.107zM487.238 354.888c.436.377.294.925-.283 1.097s-1.59-.035-2.028-.412l-2.4-2.074c-.435-.378-.293-.926.284-1.097.605-.18 1.592.035 2.03.412l2.398 2.073zM489.864 354.495c.455.37.338.918-.235 1.093s-1.6-.02-2.056-.39l-2.502-2.044c-.455-.37-.338-.918.235-1.093.598-.183 1.6.02 2.055.393l2.502 2.042zM492.426 354.082c.464.354.365.908-.198 1.11s-1.59.05-2.055-.305l-2.553-1.943c-.464-.353-.365-.907.198-1.11.59-.21 1.59-.048 2.055.305l2.553 1.942zM474.257 355.984c.388.42.18.948-.416 1.054s-1.58-.208-1.968-.63l-2.136-2.314c-.39-.42-.18-.948.416-1.055.623-.112 1.58.208 1.97.63l2.135 2.314zM476.782 355.723c.4.403.21.94-.383 1.075s-1.585-.137-1.985-.54l-2.202-2.223c-.4-.404-.21-.94.382-1.075.62-.14 1.584.137 1.985.54l2.202 2.223zM479.525 355.405c.443.38.308.926-.27 1.09s-1.6-.057-2.042-.438l-2.436-2.097c-.443-.38-.308-.925.27-1.088.604-.17 1.6.055 2.042.436l2.435 2.097zM481.85 355.355c.392.41.19.945-.405 1.07s-1.58-.16-1.972-.57l-2.158-2.252c-.392-.41-.19-.944.404-1.07.62-.13 1.58.16 1.972.57l2.157 2.252zM422.744 355.138c.292.473-.025.96-.635.976s-1.512-.442-1.804-.915l-1.606-2.6c-.292-.474.026-.96.635-.977.637-.016 1.51.443 1.803.915l1.606 2.6zM425.154 355.488c.272.473-.068.956-.68.966s-1.498-.453-1.77-.927l-1.497-2.6c-.272-.474.068-.957.68-.967.64-.01 1.498.453 1.77.926l1.497 2.602zM428.017 355.664c.348.445.092.957-.513 1.025s-1.557-.312-1.905-.757l-1.917-2.447c-.348-.445-.092-.958.512-1.025.632-.07 1.558.31 1.906.756l1.917 2.448zM430.458 355.805c.33.447.05.956-.56 1.02s-1.545-.324-1.873-.77l-1.807-2.46c-.328-.447-.048-.957.56-1.02.636-.064 1.545.323 1.874.77l1.806 2.46zM415.05 354.147c.27.473-.07.956-.682.966s-1.497-.453-1.77-.927l-1.496-2.6c-.272-.474.068-.957.68-.967.64-.01 1.498.452 1.77.925l1.497 2.602zM417.69 354.467c.293.473-.024.96-.634.976s-1.51-.442-1.803-.915l-1.606-2.6c-.292-.473.026-.96.635-.976.637-.016 1.51.443 1.803.915l1.606 2.6zM420.102 354.817c.272.473-.068.956-.68.966s-1.498-.453-1.77-.927l-1.497-2.6c-.272-.474.068-.957.68-.967.64-.01 1.498.452 1.77.925l1.497 2.602zM443.34 356.365c.348.445.092.957-.513 1.025s-1.557-.31-1.905-.756l-1.916-2.447c-.348-.445-.092-.958.512-1.025.632-.07 1.558.31 1.906.755l1.916 2.448zM445.78 356.506c.33.447.05.956-.558 1.02s-1.546-.324-1.874-.77l-1.807-2.46c-.327-.447-.047-.957.56-1.02.637-.064 1.546.323 1.875.77l1.806 2.46zM448.687 356.476c.388.42.18.948-.416 1.054s-1.58-.208-1.968-.63l-2.136-2.314c-.39-.42-.18-.948.416-1.055.623-.11 1.58.21 1.97.63l2.135 2.316zM451.132 356.455c.37.425.137.95-.463 1.053s-1.57-.22-1.94-.646l-2.03-2.334c-.368-.425-.136-.95.465-1.053.627-.106 1.57.22 1.94.646l2.027 2.335zM433.125 355.898c.348.445.092.957-.513 1.025s-1.557-.31-1.905-.756l-1.916-2.447c-.347-.445-.09-.958.513-1.025.632-.07 1.558.31 1.906.755l1.915 2.448zM435.566 356.038c.33.447.05.956-.56 1.02s-1.545-.324-1.873-.77l-1.807-2.46c-.328-.447-.048-.957.56-1.02.636-.064 1.545.323 1.874.77l1.806 2.46zM438.233 356.13c.348.446.092.958-.513 1.026s-1.557-.31-1.905-.756l-1.916-2.447c-.35-.445-.093-.958.51-1.025.633-.07 1.56.31 1.907.755l1.916 2.448zM440.674 356.27c.33.448.05.957-.56 1.02s-1.545-.323-1.873-.77l-1.806-2.46c-.328-.446-.048-.956.56-1.018.636-.065 1.545.322 1.874.77l1.806 2.46zM401.355 344.36c-.628.08-1.078-.327-.9-.815s.985-1.057 1.613-1.137l3.455-.44c.628-.08 1.078.328.9.816-.186.51-.984 1.057-1.613 1.137l-3.455.44zM401.82 347.143c-.5.317-1.132.133-1.266-.367s.233-1.32.733-1.636l2.748-1.744c.5-.317 1.132-.134 1.266.367.14.523-.233 1.318-.732 1.636l-2.748 1.743zM403.17 349.546c-.336.452-1 .473-1.327.042s-.32-1.312.016-1.764l1.844-2.485c.336-.453 1-.474 1.327-.043.343.45.32 1.312-.015 1.764l-1.845 2.486zM404.754 351.078c-.133.513-.757.718-1.247.41s-.847-1.13-.713-1.642l.732-2.822c.134-.513.757-.718 1.247-.41.512.322.847 1.13.714 1.642l-.733 2.822zM405.473 338.893c-.626-.033-.96-.518-.67-.97s1.205-.87 1.83-.837l3.442.184c.626.033.962.518.67.97-.302.472-1.205.87-1.83.837l-3.442-.184zM403.85 340.666c-.637-.02-.99-.49-.706-.942s1.2-.885 1.836-.867l3.494.104c.635.02.988.49.705.942-.296.473-1.202.886-1.837.867l-3.494-.104zM402.566 342.37c-.622.065-1.06-.36-.874-.85s.993-1.04 1.616-1.105l3.424-.35c.622-.064 1.06.36.874.85-.193.51-.993 1.042-1.616 1.105l-3.424.35zM406.735 352.775c.035.53-.493.867-1.056.672s-1.163-.92-1.2-1.452l-.194-2.92c-.035-.532.493-.87 1.056-.674.59.205 1.162.922 1.198 1.453l.195 2.922zM409.478 353.48c.155.508-.293.925-.896.833s-1.36-.69-1.516-1.2l-.854-2.796c-.155-.508.293-.925.896-.834.63.096 1.36.69 1.516 1.2l.854 2.796zM412.51 353.78c.292.472-.025.96-.635.975s-1.51-.442-1.803-.915l-1.606-2.6c-.292-.473.026-.96.635-.976.638-.016 1.512.443 1.804.915l1.606 2.6zM517.983 345.9c.616.13.844.65.456 1.044s-1.394.658-2.01.53l-3.392-.703c-.616-.127-.844-.648-.456-1.042.406-.41 1.393-.658 2.01-.53l3.39.703zM518.634 346.344c.595.167.773.708.354 1.083s-1.43.583-2.026.417l-3.274-.914c-.596-.166-.773-.707-.355-1.082.437-.392 1.432-.584 2.027-.418l3.274.914zM522.554 343.523c.625.096.89.605.532 1.017s-1.343.73-1.968.632l-3.437-.53c-.624-.096-.89-.605-.532-1.017.376-.43 1.343-.73 1.968-.633l3.438.53zM520.558 345.168c.59.176.754.72.326 1.088s-1.446.558-2.037.382l-3.248-.97c-.592-.177-.755-.72-.327-1.088.447-.384 1.446-.56 2.037-.382l3.248.97zM509.02 335.505c-.58.22-.69.768-.224 1.096s1.513.437 2.092.218l3.185-1.21c.58-.218.69-.766.224-1.094-.488-.343-1.513-.437-2.092-.217l-3.185 1.208zM506.868 334.53c-.563.23-.653.785-.18 1.11s1.51.422 2.074.192l3.098-1.267c.564-.23.654-.786.18-1.112-.495-.34-1.51-.42-2.073-.19l-3.1 1.266zM504.437 333.198c-.597.182-.76.72-.325 1.078s1.468.534 2.065.352l3.286-.997c.598-.18.76-.72.325-1.077-.455-.374-1.468-.534-2.065-.353l-3.286.998zM515.79 338.717c-.562.23-.652.786-.18 1.112s1.51.42 2.075.19l3.098-1.267c.564-.23.654-.786.18-1.112-.495-.34-1.51-.42-2.073-.19l-3.1 1.267zM513.482 337.6c-.58.22-.69.768-.224 1.096s1.513.436 2.092.217l3.185-1.21c.58-.218.69-.766.224-1.094-.49-.344-1.514-.438-2.093-.218l-3.185 1.208zM511.33 336.623c-.564.23-.654.786-.18 1.112s1.51.42 2.073.19l3.098-1.266c.565-.23.655-.787.18-1.113-.494-.34-1.51-.42-2.072-.19l-3.1 1.266z"/></g><g transform="matrix(.081 0 0 .096 438.435 288.09)"><path d="M212.603-1994.912v53.15h-53.15v35.44h53.15v106.3h35.433v-106.3h53.15v-35.44h-53.15v-53.15h-35.433z" stroke="#000" stroke-width="1.197" fill="#fff133"/><ellipse rx="62.008" ry="57.32" stroke="#000" transform="matrix(.571 0 0 .618 93.645 -678.94)" cy="-1813.5" cx="239.17" stroke-width="1.197" fill="#fff133"/><path d="M602.36-1119.4c0 68.45-10.417 145.68-29.252 205.02-120.08-26.455-268.06-39.682-339.04-39.682-87.586 0-246.15 13.227-345.26 26.455-18.835-59.336-30.538-123.34-30.538-191.79 0-273.81 105.27-390.21 367.5-496.03 233.3 105.82 376.6 222.22 376.6 496.03z" transform="matrix(1.058 0 0 1.339 -5.764 363.72)" stroke="#000" stroke-width="1.197" fill="#fff"/><path d="M566.93-657.28c0-44.007-150.8-79.724-336.61-79.724s-336.61 35.717-336.61 79.724v26.575c0-44.007 150.8-70.866 336.61-70.866s336.61 44.575 336.61 88.582v-44.292z" transform="matrix(1.171 0 0 .745 -32.833 -634.89)" stroke="#000" stroke-width="1.197" fill="#fff133"/><g stroke="#000" stroke-width="1.197" fill="#fff133"><path d="M236.99-1381.568l-62.318 39.577 41.545 26.383-20.772 13.193-41.545-26.384-62.32 39.576 62.32 39.577 41.545-26.384 20.772 13.192v39.578h41.545v-39.578l20.773-13.19 41.546 26.383 62.32-39.577-62.32-39.576-41.545 26.384-20.773-13.193 41.547-26.384-62.32-39.578zM-181.547-1340.023l6.092 39.878 10.4 25.544-14.908 16.074-10.402-25.544-4.51 41.62 35.715 35.012-10.4-25.544 25.31 9.47 15.603 38.315 20.11-3.303-15.602-38.317 14.912-16.074 10.4 25.542 4.51-41.618-35.715-35.014 10.403 25.545-25.312-9.47-10.402-25.544-26.203-36.573zM655.283-1339.405l-23.78 37.11-9.478 25.69-24.963 9.835 9.477-25.69-34.442 35.525 6.01 41.542 9.477-25.688 15.486 15.852-14.214 38.534 20.226 3.01 14.215-38.535 24.964-9.834-9.476 25.688 34.44-35.523-6.01-41.543-9.476 25.69-15.487-15.854 9.478-25.69 3.555-40.118zM-30.97-1285.526c-3.317-13.026 9.772-27.736 26.176-29.42 16.406-1.686 36.127 9.655 39.444 22.68s-9.773 27.73-9.773 27.73l78.883 45.354-32.81 3.37-59.163-34.016-39.266 44.123-32.81 3.37 52.357-58.83s-19.72-11.336-23.037-24.36zM438.984-1292.165c3.173-13.04 22.77-24.468 39.193-22.855 16.423 1.612 29.672 16.264 26.5 29.304s-22.77 24.462-22.77 24.462l53 58.6-32.845-3.226-39.75-43.95-58.788 34.277-32.846-3.224 78.384-45.702s-13.252-14.644-10.078-27.685zM631.665-1163.89c0-32.77-176.813-59.365-394.675-59.365s-394.675 26.596-394.675 59.365v19.788c0-32.77 176.813-52.77 394.675-52.77s394.675 33.194 394.675 65.963v-32.98z"/></g><path d="M566.93-657.28c0-44.007-150.8-79.724-336.61-79.724s-336.61 35.717-336.61 79.724v26.575c0-44.007 150.8-70.866 336.61-70.866s336.61 44.575 336.61 88.582v-44.292z" transform="matrix(1.073 0 0 .745 -9.254 -386.86)" stroke="#000" stroke-width="1.197" fill="#fff133"/><g stroke="#000" stroke-width="1.197" fill="#fff133"><path d="M241.427-1133.538l-58.688 39.577 39.124 26.383-19.562 13.193-39.125-26.384-58.688 39.576 58.687 39.577L202.302-1028l19.562 13.192v39.578h39.125v-39.578l19.562-13.19 39.126 26.383 58.688-39.577-58.688-39.576-39.126 26.384-19.563-13.193 39.126-26.384-58.69-39.578zM8.365-636.353l5.712 39.88 9.78 25.547-14.05 16.07-9.78-25.55-4.27 41.618 33.61 35.025-9.78-25.547 23.83 9.48 14.668 38.32 18.94-3.296-14.67-38.322 14.05-16.068 9.778 25.547 4.27-41.615-33.61-35.026 9.782 25.547-23.83-9.48-9.78-25.546-24.65-36.583zM635.353-1091.375l-22.395 37.11-8.925 25.69-23.51 9.835 8.926-25.69-32.436 35.525 5.66 41.542 8.925-25.688 14.583 15.852-13.387 38.534 19.047 3.01 13.388-38.535 23.51-9.834-8.925 25.688 32.435-35.523-5.66-41.543-8.925 25.69-14.585-15.854 8.925-25.69 3.348-40.118zM-10.918-1037.496c-3.123-13.026 9.204-27.736 24.652-29.42 15.45-1.686 34.022 9.655 37.146 22.68s-9.204 27.73-9.204 27.73l74.288 45.354-30.9 3.37L29.35-1001.8l-36.98 44.123-30.9 3.37 49.307-58.83s-18.57-11.336-21.695-24.36zM431.658-1044.135c2.988-13.04 21.444-24.468 36.91-22.855 15.467 1.612 27.944 16.264 24.956 29.304s-21.442 24.462-21.442 24.462l49.914 58.6-30.933-3.226-37.436-43.95-55.363 34.277-30.933-3.224 73.82-45.702s-12.48-14.644-9.492-27.685zM613.112-915.86c0-32.77-166.513-59.365-371.685-59.365s-371.684 26.596-371.684 59.365v19.788c0-32.77 166.513-52.77 371.684-52.77s371.685 33.194 371.685 65.963v-32.98z"/></g><path d="M566.93-657.28c0-44.007-150.8-79.724-336.61-79.724s-336.61 35.717-336.61 79.724v26.575c0-44.007 150.8-70.866 336.61-70.866s336.61 44.575 336.61 88.582v-44.292z" transform="matrix(1.105 0 0 .745 -16.106 -865.2)" stroke="#000" stroke-width="1.197" fill="#fff133"/><g stroke="#000" stroke-width="1.197" fill="#fff133"><path d="M242.555-1611.225l-57.397 37.332 38.264 24.887-19.132 12.444-38.264-24.887-57.396 37.33 57.396 37.333 38.264-24.887 19.132 12.443v37.33h38.264v-37.33l19.133-12.444 38.263 24.887 57.396-37.332-57.397-37.33-38.264 24.888-19.134-12.444 38.265-24.887-57.395-37.332zM-142.925-1572.032l5.61 37.616 9.58 24.094-13.732 15.163-9.58-24.094-4.153 39.258 32.893 33.025-9.58-24.094 23.312 8.93 14.37 36.143 18.523-3.117-14.37-36.142 13.733-15.16 9.58 24.093 4.153-39.257-32.893-33.027 9.58 24.094-23.312-8.932-9.58-24.094-24.133-34.5zM435.345-529.347l-21.88 35.014-8.718 24.236-22.978 9.284 8.716-24.237-31.695 33.52 5.547 39.19 8.716-24.237 14.26 14.953-13.074 36.354 18.62 2.834 13.075-36.354 22.98-9.283-8.718 24.235 31.695-33.52-5.546-39.188-8.716 24.237-14.262-14.953 8.717-24.236 3.26-37.847zM-4.235-1520.642c-3.054-12.287 9-26.163 24.11-27.752 15.11-1.59 33.273 9.108 36.328 21.395s-9.002 26.157-9.002 26.157l72.655 42.78-30.22 3.18-54.49-32.087-36.165 41.62-30.22 3.18 48.223-55.495s-18.163-10.69-21.218-22.977zM428.59-1526.89c2.922-12.3 20.97-23.08 36.097-21.558 15.126 1.52 27.33 15.34 24.406 27.64s-20.97 23.075-20.97 23.075l48.816 55.273-30.253-3.04-36.612-41.457-54.144 32.332-30.25-3.04 72.192-43.11s-12.205-13.814-9.282-26.114zM606.06-1405.898c0-30.91-162.85-55.997-363.505-55.997s-363.506 25.087-363.506 55.997v18.665c0-30.91 162.848-49.774 363.505-49.774s363.505 31.31 363.505 62.218v-31.108z"/></g><ellipse rx="375.87" ry="120.53" transform="matrix(.966 0 0 .414 12.936 -517.53)" cy="-822.11" cx="234.13" fill="#b90000"/></g><path d="M513.78-790.16l35.432-17.714 35.433 17.714s-73.366 35.433-73.366 159.45c-.002 88.58 125.26 106.3 125.26 212.6 0 45.65-34.184 88.582-69.617 88.582s-88.583-17.716-141.73-70.866c35.433 17.716 76.082 37.308 106.3 36.058 19.588-.405 55.025-17.716 55.025-53.15 0-70.865-122.77-106.92-122.77-213.22 0-124.02 50.025-159.45 50.026-159.45z" transform="matrix(.24 0 0 .199 381.891 336.17)" stroke="#000" stroke-width="1.197" fill="#fff"/><path d="M212.6-453.54c-35.433 0-70.866 35.433-70.866 70.866s35.433 70.866 70.866 70.866h194.88c35.433 0 70.866-35.433 70.866-70.866 0-37.027-35.433-70.866-70.866-70.866H212.6z" transform="matrix(.021 -.001 .009 .022 454.378 384)" stroke="#000" stroke-width="17.958" fill="#b00"/><path d="M520.25-790.16l46.683-17.717 10 17.717s-70.65 35.433-70.65 159.45c0 88.58 125.89 106.3 125.89 212.6 0 45.65-26.713 87.362-65.24 88.582-73.403 2.363-90.458-23.966-141.73-70.866 43.15 32.308 105 46.752 129.02 34.183 29.354-15.365 35.024-36.06 35.024-53.775 0-70.866-120.89-104.42-120.89-210.72 0-124.02 51.9-159.45 51.9-159.45zM513.34-789.69c7.004-2.437 35.875-18.186 71.308 17.247 17.717 17.72 17.716 53.15 17.716 70.866l53.15-53.15s-29.066-86.87-107.62-53.59c-11.127 4.9-28.14 14.537-34.55 18.627zM523.8-795.94c8.84-2.87 36.676-6.325 64.596 18.5 17.717 17.72 18.966 42.934 18.966 60.65l40.65-37.932c3.44-3.21-24.832-81.252-99.24-54.034-4.5 1.807-14.78 6.302-24.972 12.816z" transform="matrix(.24 0 0 .199 381.891 336.17)" stroke="#000" stroke-width="1.197" fill="#fff"/><path d="M344.54-596.29l9.152 22.14s1.455-9.766 8.526-11.533l7.07-1.768s26.865 49.327 32.17 58.166c5.3 8.838-3.537 16.793-1.77 16.793 1.77 0 26.517-11.49 26.517-11.49s-10.606.882-15.026-6.19-34.82-59.933-34.82-59.933 6.187-2.652 11.49-5.303c5.304-2.652 10.607 7.955 10.607 7.955L385.2-613.97s0 8.84-4.42 10.607c-4.42 1.766-7.956 3.534-7.956 3.534s-3.535-6.187-7.955-13.258c-4.42-7.07 4.42-14.142 4.42-14.142l-22.982 11.49s7.955 4.42 10.607 8.84l5.303 8.838s-3.223 1.768-8.214 3.482c-3.59 1.875-7.696.054-9.464-1.714z" transform="matrix(.195 -.021 .067 .173 476.436 338.935)" stroke="#000" stroke-width="1.197" fill="#fff133"/><path d="M344.54-596.29l9.152 22.14s1.455-9.766 8.526-11.533l7.07-1.768s26.865 49.327 32.17 58.166c5.3 8.838-3.537 16.793-1.77 16.793 1.77 0 26.517-11.49 26.517-11.49s-10.606.882-15.026-6.19-34.82-59.933-34.82-59.933 6.187-2.652 11.49-5.303c5.304-2.652 10.607 7.955 10.607 7.955L385.2-613.97s0 8.84-4.42 10.607c-4.42 1.766-7.956 3.534-7.956 3.534s-3.535-6.187-7.955-13.258c-4.42-7.07 4.42-14.142 4.42-14.142l-22.982 11.49s7.955 4.42 10.607 8.84l5.303 8.838s-3.223 1.768-8.214 3.482c-3.59 1.875-7.696.054-9.464-1.714z" transform="matrix(-.178 .024 -.003 -.133 595.381 97.041)" stroke="#000" stroke-width="1.197" fill="#fff133"/><path d="M212.6-453.54c-35.433 0-70.866 35.433-70.866 70.866s35.433 70.866 70.866 70.866h194.88c35.433 0 70.866-35.433 70.866-70.866 0-37.027-35.433-70.866-70.866-70.866H212.6z" transform="matrix(.021 -.001 .009 .022 457.876 383.788)" stroke="#000" stroke-width="17.958" fill="#b00"/><path d="M212.6-453.54c-35.433 0-70.866 35.433-70.866 70.866s35.433 70.866 70.866 70.866h194.88c35.433 0 70.866-35.433 70.866-70.866 0-37.027-35.433-70.866-70.866-70.866H212.6z" transform="matrix(.035 -.001 .016 .022 452.669 386.727)" stroke="#000" stroke-width="17.958" fill="#b00"/><path d="M212.6-453.54c-35.433 0-70.866 35.433-70.866 70.866s35.433 70.866 70.866 70.866h194.88c35.433 0 70.866-35.433 70.866-70.866 0-37.027-35.433-70.866-70.866-70.866H212.6z" transform="matrix(.035 -.001 .016 .022 455.97 386.514)" stroke="#000" stroke-width="17.958" fill="#b00"/><path d="M212.6-453.54c-35.433 0-70.866 35.433-70.866 70.866s35.433 70.866 70.866 70.866h194.88c35.433 0 70.866-35.433 70.866-70.866 0-37.027-35.433-70.866-70.866-70.866H212.6z" transform="matrix(.043 -.001 .02 .022 451.35 389.865)" stroke="#000" stroke-width="17.958" fill="#b00"/><path d="M212.6-453.54c-35.433 0-70.866 35.433-70.866 70.866s35.433 70.866 70.866 70.866h194.88c35.433 0 70.866-35.433 70.866-70.866 0-37.027-35.433-70.866-70.866-70.866H212.6z" transform="matrix(.043 -.001 .02 .022 455.442 389.652)" stroke="#000" stroke-width="17.958" fill="#b00"/><path fill="#ffe000" d="M0 0h320v480H0z"/></g></svg>