<svg xmlns="http://www.w3.org/2000/svg" xmlns:xlink="http://www.w3.org/1999/xlink" height="480" width="640" viewBox="0 0 640 480"><defs><linearGradient id="a"><stop stop-color="#f00" offset="0"/><stop stop-color="#ff0" offset="1"/></linearGradient><linearGradient id="c" y2="107.76" xlink:href="#a" gradientUnits="userSpaceOnUse" y1="111.28" gradientTransform="matrix(.643 0 0 1.453 -94.683 29.21)" x2="92.551" x1="103.08"/><linearGradient id="d" y2="107.76" xlink:href="#a" gradientUnits="userSpaceOnUse" y1="111.28" gradientTransform="matrix(.643 0 0 1.453 -94.666 30.155)" x2="92.551" x1="103.08"/><linearGradient id="e" y2="107.76" xlink:href="#a" gradientUnits="userSpaceOnUse" y1="111.28" gradientTransform="matrix(.643 0 0 1.453 -97.986 31.014)" x2="92.551" x1="103.08"/><linearGradient id="f" y2="107.76" xlink:href="#a" gradientUnits="userSpaceOnUse" y1="111.28" gradientTransform="matrix(.643 0 0 1.453 -94.743 31.932)" x2="92.551" x1="103.08"/><linearGradient id="g" y2="107.76" xlink:href="#a" gradientUnits="userSpaceOnUse" y1="111.28" gradientTransform="matrix(.643 0 0 1.453 -94.75 32.835)" x2="92.551" x1="103.08"/><linearGradient id="h" y2="107.76" xlink:href="#a" gradientUnits="userSpaceOnUse" y1="111.28" gradientTransform="matrix(.643 0 0 1.453 -94.767 33.751)" x2="92.551" x1="103.08"/><linearGradient id="i" y2="107.76" xlink:href="#a" gradientUnits="userSpaceOnUse" y1="111.28" gradientTransform="matrix(.643 0 0 1.453 -98.011 33.736)" x2="92.551" x1="103.08"/><linearGradient id="j" y2="107.76" xlink:href="#a" gradientUnits="userSpaceOnUse" y1="111.28" gradientTransform="matrix(.643 0 0 1.453 -97.981 32.837)" x2="92.551" x1="103.08"/><linearGradient id="k" y2="107.76" xlink:href="#a" gradientUnits="userSpaceOnUse" y1="111.28" gradientTransform="matrix(.643 0 0 1.453 -97.942 31.918)" x2="92.551" x1="103.08"/><linearGradient id="l" y2="107.76" xlink:href="#a" gradientUnits="userSpaceOnUse" y1="111.28" gradientTransform="matrix(.828 0 0 1.873 602.82 148.17)" x2="92.551" x1="103.08"/><linearGradient id="m" y2="107.76" xlink:href="#a" gradientUnits="userSpaceOnUse" y1="111.28" gradientTransform="matrix(.643 0 0 1.453 -97.976 30.11)" x2="92.551" x1="103.08"/><linearGradient id="n" y2="107.76" xlink:href="#a" gradientUnits="userSpaceOnUse" y1="111.28" gradientTransform="matrix(.643 0 0 1.453 -95.336 30.955)" x2="92.551" x1="103.08"/><clipPath id="b"><path fill-opacity=".67" d="M0 0h640v480H0z"/></clipPath></defs><g clip-path="url(#b)"><path fill="#006" d="M0 0h960v480H0z"/><path fill-rule="evenodd" fill="#006" d="M0 0h350.002v175H0z"/><path d="M0 0v19.566L310.87 175H350v-19.565L39.133 0H0zm350.002 0v19.565L39.13 175H0v-19.564L310.87 0H350zM145.834 0v175h58.334V0h-58.334zM0 58.334v58.333h350.002V58.334H0z" fill="#fff"/><path d="M0 70v35h350.002V70H0zM157.5 0v175h35V0h-35zM0 175l116.667-58.333h26.087L26.087 175H0zM0 0l116.667 58.334H90.58L0 13.044V0zm207.248 58.334L323.915 0h26.087L233.334 58.334h-26.086zM350.002 175l-116.668-58.334h26.087l90.58 45.29V175z" fill="#c00"/><path d="M378.474 154.457l219.342-.814-.407 195.333s7.73 29.706-91.968 74.876c35.81-3.663 74.876-41.914 74.876-41.914s15.87-20.347 23.603-8.953c7.732 11.394 15.057 17.09 20.754 21.568 5.697 4.476 10.174 16.685 1.628 25.637-8.546 8.952-21.974 10.173-25.637-.814-5.697 2.85-40.693 45.17-112.31 47.205-72.84-1.22-112.72-47.61-112.72-47.61s-9.766 15.463-23.602 3.255c-13.428-15.87-3.255-26.044-3.255-26.044s11.394-6.51 14.65-10.987c5.29-6.104 6.917-14.243 15.87-14.243 10.58.814 14.65 9.36 14.65 9.36s36.624 38.66 76.096 43.542c-89.12-42.728-92.375-69.18-91.968-75.69l.407-193.7z" fill-rule="evenodd" fill="#fff"/><path d="M383.76 159.743l209.16-1.22v188.003c.407 24.416-40.694 49.24-104.99 80.98-66.323-34.183-104.57-54.94-104.98-81.38l.813-186.373z" fill-rule="evenodd" stroke="#000" stroke-width="1.717" fill="#006129"/><path d="M408.912 366.902l12.346-18.133 12.407 18.17" stroke="#f7c600" stroke-width="1.718" fill="none"/><path d="M423.74 360.115a2.452 2.452 0 1 1-4.905.002 2.452 2.452 0 0 1 4.904-.002zM411.233 380.3l19.14.054s.3-2.484-2-3.994c10.027-1.378 7.423-10.222 15.82-10.723 1.63.25-4.387 3.76-4.387 3.76s-5.062 3.572-2.757 5.388c1.83 1.442 2.63-.877 2.882-2.63.25-1.756 8.145-2.884 7.018-7.896-1.88-4.137-12.908 2.756-12.908 2.756l-7.868-.044c-.49-.883-2.66-4.424-4.898-4.44-2.657.096-4.528 4.484-4.528 4.484h-17.796s-.61 4.566 8.413 5.443c2.032 2.652 3.607 3.393 5.373 4.08-1.178.98-1.51 2.168-1.504 3.76z" fill-rule="evenodd" stroke="#000" stroke-width=".805" fill="#f7c600"/><path d="M412.61 376.41l15.944-.053m-23.244-9.35s1.275 7.458 7.16 9.224" stroke="#000" stroke-width=".805" fill="none"/><path d="M404.325 366.908c.59-2.845 1.668-3.335 2.845-6.965.197-3.532-2.845-3.14-1.96-5.396 1.568-2.453.783-4.808-2.16-6.672.59 3.237-3.827 6.28-3.827 8.928s2.258 2.06 1.963 6.083c.195 2.354-.59 1.766-.785 4.022h3.925z" fill-rule="evenodd" stroke="#000" stroke-width="0.805707" fill="url(#c)"/><path d="M423.542 349.227a2.256 2.256 0 1 1-4.512 0 2.256 2.256 0 0 1 4.512 0z" fill-rule="evenodd" stroke="#000" stroke-width=".805" fill="#f7c600"/><path d="M408.214 329.58l12.346-18.134 12.407 18.172" stroke="#f7c600" stroke-width="1.718" fill="none"/><path d="M423.04 322.793a2.452 2.452 0 1 1-4.903 0 2.452 2.452 0 0 1 4.904 0zM410.535 342.977l19.14.055s.3-2.485-2-3.994c10.027-1.38 7.423-10.222 15.82-10.723 1.63.25-4.387 3.76-4.387 3.76s-5.062 3.572-2.757 5.388c1.83 1.442 2.633-.877 2.884-2.632.25-1.753 8.145-2.88 7.018-7.894-1.88-4.135-12.908 2.757-12.908 2.757l-7.868-.044c-.49-.884-2.66-4.425-4.898-4.44-2.657.096-4.528 4.483-4.528 4.483h-17.796s-.61 4.566 8.413 5.443c2.032 2.653 3.607 3.395 5.372 4.08-1.178.983-1.51 2.17-1.504 3.76z" fill-rule="evenodd" stroke="#000" stroke-width=".805" fill="#f7c600"/><path d="M411.913 339.09l15.943-.056m-23.245-9.348s1.277 7.456 7.163 9.222" stroke="#000" stroke-width=".805" fill="none"/><path d="M403.627 329.586c.59-2.845 1.668-3.335 2.845-6.965.197-3.53-2.845-3.14-1.96-5.395 1.568-2.453.783-4.808-2.16-6.672.59 3.237-3.827 6.28-3.827 8.928s2.258 2.06 1.963 6.084c.195 2.354-.59 1.766-.785 4.022h3.924z" fill-rule="evenodd" stroke="#000" stroke-width="0.805707" fill="url(#d)"/><path d="M422.844 311.904a2.256 2.256 0 1 1-4.512 0 2.256 2.256 0 0 1 4.512 0z" fill-rule="evenodd" stroke="#000" stroke-width=".805" fill="#f7c600"/><path d="M539.38 295.652l12.347-18.134 12.406 18.172" stroke="#f7c600" stroke-width="1.718" fill="none"/><path d="M554.207 288.865a2.452 2.452 0 1 1-4.904.002 2.452 2.452 0 0 1 4.904-.002zM541.7 309.05l19.142.054s.3-2.484-2-3.994c10.027-1.38 7.422-10.222 15.82-10.723 1.628.25-4.388 3.76-4.388 3.76s-5.062 3.572-2.757 5.388c1.83 1.442 2.632-.877 2.883-2.632.25-1.754 8.146-2.882 7.018-7.895-1.88-4.135-12.908 2.757-12.908 2.757l-7.868-.043c-.49-.884-2.66-4.425-4.898-4.44-2.657.096-4.528 4.483-4.528 4.483H529.42s-.61 4.566 8.413 5.443c2.032 2.654 3.607 3.395 5.373 4.082-1.178.98-1.51 2.168-1.504 3.76z" fill-rule="evenodd" stroke="#000" stroke-width=".805" fill="#f7c600"/><path d="M543.08 305.16l15.942-.053m-23.245-9.35s1.276 7.457 7.163 9.223" stroke="#000" stroke-width=".805" fill="none"/><path d="M534.793 295.658c.59-2.845 1.668-3.335 2.845-6.965.197-3.532-2.845-3.14-1.96-5.396 1.568-2.453.783-4.808-2.16-6.672.59 3.237-3.827 6.28-3.827 8.928s2.26 2.06 1.964 6.083c.195 2.354-.59 1.766-.785 4.022h3.923z" fill-rule="evenodd" stroke="#000" stroke-width="0.805707" fill="url(#e)"/><path d="M554.01 277.976a2.256 2.256 0 1 1-4.512.002 2.256 2.256 0 0 1 4.512-.002z" fill-rule="evenodd" stroke="#000" stroke-width=".805" fill="#f7c600"/><path d="M411.273 259.372l12.346-18.134 12.406 18.172" stroke="#f7c600" stroke-width="1.718" fill="none"/><path d="M426.1 252.585a2.452 2.452 0 1 1-4.904 0 2.452 2.452 0 0 1 4.904 0zM413.594 272.77l19.14.053s.3-2.484-2-3.994c10.027-1.38 7.423-10.222 15.82-10.724 1.63.25-4.387 3.76-4.387 3.76s-5.062 3.572-2.757 5.39c1.83 1.44 2.632-.878 2.883-2.633.25-1.754 8.145-2.882 7.018-7.895-1.88-4.136-12.907 2.757-12.907 2.757l-7.868-.044c-.49-.882-2.66-4.423-4.898-4.44-2.657.098-4.528 4.485-4.528 4.485h-17.797s-.61 4.566 8.413 5.443c2.032 2.653 3.606 3.394 5.372 4.08-1.177.982-1.508 2.17-1.503 3.76z" fill-rule="evenodd" stroke="#000" stroke-width=".805" fill="#f7c600"/><path d="M414.972 268.88l15.943-.054m-23.245-9.35s1.276 7.458 7.162 9.224" stroke="#000" stroke-width=".805" fill="none"/><path d="M406.686 259.377c.59-2.845 1.668-3.335 2.845-6.965.198-3.532-2.844-3.14-1.96-5.396 1.57-2.453.784-4.808-2.16-6.672.59 3.237-3.826 6.28-3.826 8.928s2.258 2.06 1.963 6.083c.195 2.354-.59 1.766-.785 4.022h3.924z" fill-rule="evenodd" stroke="#000" stroke-width="0.805707" fill="url(#f)"/><path d="M425.903 241.696a2.256 2.256 0 1 1-4.512 0 2.256 2.256 0 0 1 4.513 0z" fill-rule="evenodd" stroke="#000" stroke-width=".805" fill="#f7c600"/><path d="M411.55 223.713l12.347-18.134 12.406 18.17" stroke="#f7c600" stroke-width="1.718" fill="none"/><path d="M426.377 216.926a2.452 2.452 0 1 1-4.904 0 2.452 2.452 0 0 1 4.904 0zM413.87 237.11l19.142.055s.3-2.485-2-3.994c10.027-1.38 7.422-10.22 15.82-10.722 1.628.25-4.388 3.76-4.388 3.76s-5.062 3.572-2.757 5.388c1.83 1.442 2.632-.877 2.883-2.632.25-1.754 8.146-2.882 7.018-7.895-1.88-4.136-12.908 2.756-12.908 2.756l-7.868-.044c-.49-.883-2.66-4.424-4.898-4.44-2.657.097-4.528 4.484-4.528 4.484H401.59s-.61 4.566 8.413 5.443c2.032 2.652 3.607 3.394 5.373 4.08-1.178.982-1.51 2.17-1.504 3.76z" fill-rule="evenodd" stroke="#000" stroke-width=".805" fill="#f7c600"/><path d="M415.25 233.222l15.942-.055m-23.245-9.35s1.276 7.458 7.163 9.224" stroke="#000" stroke-width=".805" fill="none"/><path d="M406.963 223.72c.59-2.846 1.668-3.336 2.845-6.966.197-3.532-2.845-3.14-1.96-5.396 1.568-2.453.783-4.808-2.16-6.672.59 3.237-3.827 6.28-3.827 8.928s2.26 2.06 1.964 6.083c.195 2.354-.59 1.766-.785 4.022h3.923z" fill-rule="evenodd" stroke="#000" stroke-width="0.805707" fill="url(#g)"/><path d="M426.18 206.037a2.256 2.256 0 1 1-4.512 0 2.256 2.256 0 0 1 4.512 0z" fill-rule="evenodd" stroke="#000" stroke-width=".805" fill="#f7c600"/><path d="M412.228 187.533l12.346-18.134 12.407 18.17" stroke="#f7c600" stroke-width="1.718" fill="none"/><path d="M427.054 180.746a2.452 2.452 0 1 1-4.903 0 2.452 2.452 0 0 1 4.904 0zM414.55 200.93l19.14.054s.3-2.484-2-3.993c10.026-1.38 7.422-10.22 15.818-10.723 1.63.25-4.386 3.76-4.386 3.76s-5.062 3.573-2.757 5.39c1.83 1.44 2.632-.878 2.882-2.633.25-1.754 8.146-2.882 7.018-7.895-1.88-4.136-12.908 2.756-12.908 2.756l-7.868-.044c-.49-.883-2.66-4.424-4.9-4.44-2.656.097-4.527 4.484-4.527 4.484h-17.795s-.61 4.566 8.413 5.443c2.032 2.652 3.607 3.394 5.373 4.08-1.177.982-1.51 2.17-1.504 3.76z" fill-rule="evenodd" stroke="#000" stroke-width=".805" fill="#f7c600"/><path d="M415.927 197.042l15.943-.055m-23.245-9.35s1.275 7.458 7.162 9.224" stroke="#000" stroke-width=".805" fill="none"/><path d="M407.64 187.54c.59-2.846 1.67-3.336 2.846-6.966.197-3.532-2.845-3.14-1.96-5.396 1.568-2.453.783-4.808-2.16-6.672.59 3.237-3.827 6.28-3.827 8.928s2.257 2.06 1.962 6.083c.195 2.354-.59 1.766-.785 4.022h3.924z" fill-rule="evenodd" stroke="#000" stroke-width="0.805707" fill="url(#h)"/><path d="M426.857 169.857a2.256 2.256 0 1 1-4.51 0 2.256 2.256 0 0 1 4.51 0z" fill-rule="evenodd" stroke="#000" stroke-width=".805" fill="#f7c600"/><path d="M540.355 188.122l12.347-18.134 12.406 18.172" stroke="#f7c600" stroke-width="1.718" fill="none"/><path d="M555.182 181.335a2.452 2.452 0 1 1-4.904.002 2.452 2.452 0 0 1 4.904-.002zM542.676 201.52l19.14.054s.3-2.484-1.998-3.994c10.026-1.38 7.42-10.222 15.818-10.723 1.63.25-4.386 3.76-4.386 3.76s-5.063 3.572-2.757 5.388c1.83 1.442 2.63-.877 2.882-2.632.25-1.754 8.146-2.882 7.018-7.895-1.88-4.135-12.908 2.757-12.908 2.757l-7.868-.043c-.49-.884-2.66-4.425-4.898-4.44-2.658.096-4.53 4.483-4.53 4.483h-17.794s-.61 4.566 8.413 5.443c2.03 2.654 3.605 3.395 5.37 4.082-1.176.98-1.508 2.168-1.503 3.76z" fill-rule="evenodd" stroke="#000" stroke-width=".805" fill="#f7c600"/><path d="M544.054 197.63l15.944-.053m-23.245-9.35s1.275 7.457 7.162 9.223" stroke="#000" stroke-width=".805" fill="none"/><path d="M535.768 188.128c.59-2.845 1.668-3.335 2.845-6.965.197-3.532-2.845-3.14-1.96-5.396 1.568-2.453.783-4.808-2.16-6.672.59 3.237-3.827 6.28-3.827 8.928s2.258 2.06 1.963 6.083c.194 2.354-.59 1.766-.786 4.022h3.924z" fill-rule="evenodd" stroke="#000" stroke-width="0.805707" fill="url(#i)"/><path d="M554.985 170.446a2.256 2.256 0 1 1-4.51.002 2.256 2.256 0 0 1 4.51-.002z" fill-rule="evenodd" stroke="#000" stroke-width=".805" fill="#f7c600"/><path d="M539.185 223.638l12.347-18.134 12.406 18.172" stroke="#f7c600" stroke-width="1.718" fill="none"/><path d="M554.012 216.85a2.452 2.452 0 1 1-4.904.002 2.452 2.452 0 0 1 4.904 0zM541.506 237.035l19.14.055s.3-2.485-1.998-3.994c10.026-1.38 7.42-10.222 15.818-10.723 1.63.25-4.387 3.76-4.387 3.76s-5.063 3.572-2.758 5.388c1.83 1.443 2.632-.876 2.883-2.63.25-1.755 8.146-2.883 7.018-7.896-1.88-4.135-12.908 2.757-12.908 2.757l-7.868-.043c-.49-.883-2.66-4.424-4.898-4.44-2.658.097-4.53 4.484-4.53 4.484h-17.795s-.61 4.567 8.413 5.444c2.032 2.653 3.607 3.395 5.373 4.08-1.177.983-1.51 2.17-1.503 3.76z" fill-rule="evenodd" stroke="#000" stroke-width=".805" fill="#f7c600"/><path d="M542.884 233.147l15.943-.055m-23.245-9.348s1.276 7.456 7.163 9.222" stroke="#000" stroke-width=".805" fill="none"/><path d="M534.598 223.644c.59-2.845 1.668-3.335 2.845-6.965.197-3.533-2.845-3.14-1.96-5.397 1.568-2.453.783-4.808-2.16-6.672.59 3.238-3.827 6.28-3.827 8.93s2.258 2.06 1.963 6.082c.194 2.354-.59 1.766-.786 4.022h3.924z" fill-rule="evenodd" stroke="#000" stroke-width="0.805707" fill="url(#j)"/><path d="M553.815 205.962a2.256 2.256 0 1 1-4.512 0 2.256 2.256 0 0 1 4.512 0z" fill-rule="evenodd" stroke="#000" stroke-width=".805" fill="#f7c600"/><path d="M537.615 259.94l12.346-18.134 12.408 18.172" stroke="#f7c600" stroke-width="1.718" fill="none"/><path d="M552.44 253.152a2.452 2.452 0 1 1-4.902.002 2.452 2.452 0 0 1 4.903-.002zM539.936 273.337l19.14.054s.3-2.483-2-3.993c10.027-1.38 7.422-10.222 15.82-10.723 1.63.25-4.387 3.76-4.387 3.76s-5.063 3.572-2.758 5.388c1.83 1.442 2.632-.877 2.882-2.63.25-1.756 8.146-2.884 7.018-7.896-1.88-4.136-12.908 2.757-12.908 2.757l-7.868-.044c-.49-.884-2.66-4.425-4.898-4.44-2.657.095-4.528 4.483-4.528 4.483h-17.795s-.61 4.565 8.413 5.443c2.03 2.653 3.606 3.394 5.372 4.08-1.177.982-1.51 2.17-1.504 3.76z" fill-rule="evenodd" stroke="#000" stroke-width=".805" fill="#f7c600"/><path d="M541.314 269.448l15.943-.054m-23.245-9.35s1.275 7.458 7.162 9.224" stroke="#000" stroke-width=".805" fill="none"/><path d="M533.028 259.945c.59-2.845 1.668-3.335 2.845-6.965.197-3.532-2.845-3.14-1.96-5.396 1.568-2.453.783-4.808-2.16-6.672.59 3.237-3.827 6.28-3.827 8.928s2.258 2.06 1.963 6.083c.194 2.354-.59 1.766-.786 4.022h3.924z" fill-rule="evenodd" stroke="#000" stroke-width="0.805707" fill="url(#k)"/><path d="M552.244 242.263a2.256 2.256 0 1 1-4.51.002 2.256 2.256 0 0 1 4.51-.002z" fill-rule="evenodd" stroke="#000" stroke-width=".805" fill="#f7c600"/><path d="M539.183 367.27l12.346-18.132 12.406 18.17" stroke="#f7c600" stroke-width="1.288" fill="none"/><path d="M554.005 360.496a2.452 2.452 0 1 1-4.903.002 2.452 2.452 0 0 1 4.903-.002zM541.503 380.667l19.14.054s.3-2.483-2-3.993c10.027-1.378 7.423-10.222 15.82-10.723 1.628.25-4.387 3.76-4.387 3.76s-5.063 3.572-2.757 5.39c1.83 1.44 2.63-.878 2.88-2.633.25-1.753 8.147-2.88 7.02-7.894-1.88-4.136-12.91 2.757-12.91 2.757l-7.867-.044c-.49-.884-2.66-4.425-4.898-4.44-2.657.096-4.528 4.483-4.528 4.483H529.22s-.61 4.566 8.413 5.443c2.03 2.653 3.606 3.394 5.372 4.08-1.177.982-1.51 2.17-1.504 3.76z" fill-rule="evenodd" stroke="#000" stroke-width=".805" fill="#f7c600"/><path d="M542.878 376.776l15.943-.054m-23.24-9.338s1.275 7.456 7.162 9.222" stroke="#000" stroke-width=".805" fill="none"/><path d="M534.187 367.116c.588-2.844 1.667-3.334 2.844-6.962.197-3.53-2.843-3.14-1.96-5.394 1.57-2.452.784-4.805-2.158-6.67.59 3.238-3.824 6.278-3.824 8.925 0 2.648 2.255 2.06 1.96 6.08.197 2.354-.587 1.765-.783 4.022h3.922z" fill-rule="evenodd" stroke="#000" stroke-width="0.8043840000000001" fill="url(#l)"/><path d="M553.81 349.605a2.256 2.256 0 1 1-4.51 0 2.256 2.256 0 0 1 4.51 0z" fill-rule="evenodd" stroke="#000" stroke-width=".805" fill="#f7c600"/><path d="M538.99 331.364l12.346-18.134 12.407 18.172" stroke="#f7c600" stroke-width="1.718" fill="none"/><path d="M553.817 324.577a2.452 2.452 0 1 1-4.904.002 2.452 2.452 0 0 1 4.904-.003zM541.31 344.76l19.142.056s.3-2.485-2-3.994c10.026-1.38 7.422-10.222 15.82-10.723 1.628.25-4.388 3.76-4.388 3.76s-5.062 3.57-2.757 5.387c1.83 1.442 2.632-.877 2.883-2.632.25-1.754 8.146-2.882 7.018-7.895-1.88-4.135-12.908 2.757-12.908 2.757l-7.868-.044c-.49-.883-2.66-4.424-4.898-4.44-2.657.097-4.528 4.484-4.528 4.484H529.03s-.61 4.566 8.413 5.443c2.032 2.653 3.607 3.395 5.373 4.082-1.178.98-1.51 2.168-1.504 3.76z" fill-rule="evenodd" stroke="#000" stroke-width=".805" fill="#f7c600"/><path d="M542.69 340.873l15.942-.055m-23.245-9.348s1.276 7.456 7.163 9.222" stroke="#000" stroke-width=".805" fill="none"/><path d="M534.403 331.37c.59-2.846 1.668-3.336 2.845-6.966.197-3.532-2.845-3.14-1.96-5.396 1.568-2.453.783-4.808-2.16-6.672.59 3.237-3.827 6.28-3.827 8.928s2.26 2.06 1.964 6.083c.195 2.354-.59 1.766-.785 4.022h3.923z" fill-rule="evenodd" stroke="#000" stroke-width="0.805707" fill="url(#m)"/><path d="M553.62 313.688a2.256 2.256 0 1 1-4.512.002 2.256 2.256 0 0 1 4.512-.002z" fill-rule="evenodd" stroke="#000" stroke-width=".805" fill="#f7c600"/><path d="M434.677 297.99l12.347-18.134 12.406 18.172" stroke="#f7c600" stroke-width="1.718" fill="none"/><path d="M449.504 291.202a2.452 2.452 0 1 1-4.904.002 2.452 2.452 0 0 1 4.904-.002zM436.998 311.387l19.14.054s.3-2.483-1.998-3.993c10.026-1.38 7.42-10.222 15.818-10.723 1.63.25-4.387 3.76-4.387 3.76s-5.06 3.572-2.756 5.388c1.83 1.442 2.632-.877 2.883-2.63.25-1.756 8.146-2.884 7.018-7.896-1.88-4.136-12.908 2.757-12.908 2.757l-7.868-.044c-.49-.884-2.66-4.425-4.9-4.44-2.656.095-4.527 4.483-4.527 4.483h-17.796s-.61 4.565 8.413 5.443c2.032 2.653 3.607 3.394 5.373 4.08-1.178.982-1.51 2.17-1.504 3.76z" fill-rule="evenodd" stroke="#000" stroke-width=".805" fill="#f7c600"/><path d="M438.376 307.498l15.943-.054m-23.246-9.35s1.276 7.458 7.163 9.224" stroke="#000" stroke-width=".805" fill="none"/><path d="M430.09 297.995c.59-2.845 1.668-3.335 2.845-6.965.197-3.532-2.845-3.14-1.96-5.396 1.568-2.453.783-4.808-2.16-6.672.59 3.237-3.827 6.28-3.827 8.928s2.258 2.06 1.963 6.083c.196 2.354-.588 1.766-.784 4.022h3.924z" fill-rule="evenodd" stroke="#000" stroke-width="0.805707" fill="url(#n)"/><path d="M449.307 280.313a2.256 2.256 0 1 1-4.512.002 2.256 2.256 0 0 1 4.512-.002z" fill-rule="evenodd" stroke="#000" stroke-width=".805" fill="#f7c600"/><g stroke="#000"><path d="M500.74 384.174s4.996 11.516 10.685 4.44 3.608-10.13 3.608-10.13l-12.765-6.936-3.747 7.91 2.22 4.716z" fill-rule="evenodd" fill="#f7c600"/><path d="M511.705 382.653s.833.14 1.526-1.11-1.525-1.804-2.496-3.19l-1.11 2.22 2.08 2.08zm-28.87-3.055l-11.24 6.105s-5.55 1.11-5.966 0c-.417-1.11.138-2.08 3.05-2.22 2.915-.14 10.824-7.354 10.824-7.354l3.33 3.468zm.145-199.664s.277 2.636.416 4.023-2.22 4.302-2.36 4.163-1.248.14-1.11.97 1.805 1.11 1.805 1.11-.693 2.915 0 3.054c.695.14-1.803 3.746 0 4.717 1.805.972 4.857 2.22 6.245 1.944 1.387-.278 0 5.41 0 5.41l-3.885 8.326 21.367-2.22-4.44-7.076s-2.082-1.388-1.527-5.412c.555-4.023-.277-22.2-.277-22.2l-15.262-2.08-.97 5.272zm-3.89 31.635s-6.936 3.19-6.66 11.793c-1.802 8.325-2.774 16.65-2.774 16.65s-8.186 9.295-10.683 12.626c-2.498 3.33-6.244 10.127-7.632 11.93s-6.798 7.77-6.66 9.99c.14 2.22-1.248 12.073 4.164 13.182 1.387.555 5.827-11.377 5.827-11.377s.28-5.134-1.247-6.105 3.33-4.3 3.33-4.3 9.296-6.8 11.377-8.465 7.77-8.048 7.77-8.048l3.19-37.88z" fill-rule="evenodd" fill="#ffc6b5"/><path d="M487 205.048s1.804 4.856 5.828 4.023c4.023-.83 8.74-4.578 8.74-4.578s3.747-.138 4.302.417c.555.554 10.13 9.85 9.852 12.764-.278 2.914-4.44 2.08-5.967 4.023s-4.024 6.8-3.33 10.407 2.775 8.325 2.498 10.13-1.804 2.357-1.804 3.33c0 .97 1.248 2.635 1.248 4.44s-1.665 4.44-1.388 6.242c.278 1.804.417 7.076.417 7.076l-.417 24.42s1.388.834 1.527 2.22c.138 1.39 9.435 41.764 9.435 41.764s-.417 1.25-1.388 1.11 3.746 6.244 3.885 8.048 4.855 15.957 4.717 17.9c-.14 1.942-.833 6.243-1.25 6.382-.415.14 3.053 8.88 2.498 10.267-.555 1.388-6.243 1.25-6.243 1.25l-1.527-.278s.14 1.803-.97 1.942-9.297-.416-9.297-.416-2.36 3.608-3.746 3.47c-1.388-.14-3.192-2.637-3.608-2.22-.416.416 1.25 2.775.832 3.468-.416.694-7.492 2.22-8.88-1.11-1.387-3.33.833-2.497.417-3.19-.417-.695-3.608-2.498-4.58-1.943s2.498 1.387 2.36 2.775c-.14 1.387-3.053 3.468-4.163 3.468s-3.746-5.133-7.63-4.578c-3.886.555-6.384 1.526-6.384 1.526s-4.578 1.942-6.52 1.526c-1.943-.416-2.776-1.942-2.776-2.775 0-.832 1.388-4.44 1.25-5.55s-1.25-2.22-1.25-3.885c0-1.665 3.19-7.354 3.19-7.354l-.137-25.53s-2.914 0-3.053-1.804 4.44-40.376 5.134-42.874c.694-2.498 2.497-11.378 2.497-11.378s-2.08.972-2.22 0 6.245-23.032 6.245-23.032 1.11-10.96 1.11-13.875c0-2.913-.555-6.937-.555-6.937s-5.696-2.412-5.827-6.105c-.52-5.877 5.41-9.158 6.105-11.1l2.775-7.77s3.052-5.273 8.047-6.105z" fill-rule="evenodd" fill="#fff"/><path d="M484.924 381.264s-13.458 7.077-15.4 7.632c-1.944.555-3.193-2.36-1.25-2.914 1.943-.555 4.995-.833 4.995-.833s-4.58-3.608-4.44-3.747c.138-.14 6.243-2.358 6.382-2.358s1.942 3.607 3.19 3.33 4.857-3.053 4.857-3.053 1.942 2.22 1.664 1.942z" fill-rule="evenodd" fill="#f7c600"/><path d="M503.89 385.14c1.272 1.64 1.77 4.487 4.683 2.822s-1.493-4.755-1.493-4.755l-3.19 1.932zm5.316-.278s1.387 1.11 2.636-.14-2.498-3.884-2.498-3.884l-1.803 2.08 1.666 1.944z" fill-rule="evenodd" fill="#ffc6b5"/><path d="M505.04 210.458s-12.35 7.91-12.072 10.684m14.85-9.297s-2.776 3.053-2.915 3.053m6.657.278s-6.105 4.995-5.134 8.186m-23.724-13.597s-1.804 3.746-1.388 4.995c.417 1.25 3.47 5.966 3.885 8.88.416 2.914 0 4.995 0 4.995m-5.685-11.933s.554 4.44 1.387 5.272c.833.833 3.053 4.58 3.33 6.105m-5.828 7.075s3.607 1.804 6.937-5.134m5.403-4.854c-.14 0-2.636 6.8 1.804 9.296s7.77 2.22 9.712 1.527c1.942-.695 4.023-1.944 4.023-1.944m-17.47-.555s.276 9.16 13.735 18.178m-13.18-9.575s-.14 8.048 5.133 11.655m-7.91-21.09s-4.024 11.933-7.215 13.182m5.96-4.44s-.14 8.603-1.25 11.655m-1.105 2.08s2.775 3.47 5.827 3.192c3.053-.277 4.3-3.885 6.383-3.33 2.08.556 4.023 2.22 8.88 1.804m-6.94 3.608s0 7.076 1.25 7.77.693 7.215.693 7.215m-18.87-18.314s-.14 6.66-.972 9.018c-.83 2.358-2.496 6.382-2.22 9.85m-5.272 3.89c.694-.277 3.053-2.358 3.053-2.358m1.246 1.525s-5.966 25.53-4.3 40.793m5.69-39.55s-3.054 19.148-1.666 22.756m.144-23.31c.14 0 11.655.832 11.655.832m1.662-1.52s3.19 1.665 7.63 1.387m-9.02 7.91s-.554 32.745-1.386 39.96m18.46-32.475s3.61 28.722 5.69 31.358M497.965 299.4s2.22 25.39 3.47 27.61m-34.96 8.878s4.3-1.388 8.186-5.55c4.44 5.966 11.24.278 11.24.278s10.544 7.215 15.26-.833c7.216 4.718 10.824-.694 10.824-.694s2.636 4.023 4.58 3.607m-11.524 2.78s5.41 25.392 13.458 32.607m-41.35-35.25s.693 21.23 1.942 36.213m-2.908-12.21s-.694 13.875-1.527 14.847m-6.66 1.394s1.526 5.966 9.158.416c7.63-5.55 7.77 2.082 8.047 2.914.278.832 1.527 6.8 4.44 1.804m6.102-8.19s-1.25 12.35 9.713 3.33c10.96-9.018 12.765-.138 13.042 2.637" fill="none"/><path d="M482.556 179.1s3.053.417 4.718-.554c1.665-.972 3.608-1.388 4.995.555s2.358 1.804 2.358 1.804-2.082 5.134 0 5.69c2.08.554 3.052.554 3.19 1.248.14.694-1.803 2.22-1.248 2.913.555.694 1.527 1.527 1.665 2.082.14.555-1.248 2.913-.832 3.47.416.554 1.665 2.774 2.497 2.774.833 0 .278 3.47 2.775 2.637s2.36-3.053 2.36-3.053 2.635-.416 3.33-2.775c.693-2.36 2.358-2.914 2.358-2.914s3.33-1.804-1.11-4.58c0-19.425-12.765-17.343-12.765-17.343s-1.527-3.47-4.024-3.053c-2.498.417-2.636 3.33-4.44 3.053-1.804-.278-2.22-1.526-2.36-1.387-.138.138-1.664 2.913-1.664 3.607 0 .694-4.856-.97-4.44 2.636s2.775 3.468 2.636 3.19z" fill-rule="evenodd" fill="#9c5100"/><path d="M495.888 174.383s-.972 6.105 5.55 5.55c-.833 3.33 1.665 4.44 1.665 4.44m4.847 3.746c.138 0 2.913 1.803-.14 4.023m-9.29.832s1.387 1.665 2.913 1.25c1.526-.417 4.024 1.525 4.024 1.525s2.08.694 2.36.278m-17.762 2.22s4.718 1.804 7.77-5.688m-16.512-2.22l2.775.138M481.736 193.114h2.498l-2.22.972" fill="none"/><path d="M485.2 185.344c.418 0 1.944-.555 2.22-.138.28.416-1.664.693-2.22.138z" fill="none"/><path d="M515.17 218.31c.14 0 4.58 13.736 5.134 17.205.555 3.47 2.36 17.344 1.665 19.287-.695 1.942-7.77 11.238-8.604 13.597-.832 2.357-5.827 11.376-5.827 11.376s-1.25 8.88-1.805 9.297c-.555.416 1.433 2.596 1.25 3.33-.276.826-4.025 4.717-5.69 4.3-1.665-.415-4.3-2.358-4.44-4.162s.14-7.77 1.388-9.295 7.77-16.927 8.186-17.9c.415-.97 5.965-13.042 6.104-15.122.14-2.082-1.727-6.894-3.69-8.66-4.366-12.853-2.65-20.604 6.326-23.253z" fill-rule="evenodd" fill="#ffc6b5"/><path d="M450.524 277.842l.218 6.08m-5.915-6.53s3.898 6.52 3.573 9.994M497.078 291.014s2.915-.306 2.823 4.56c1.862-6.045 5.647-6.19 5.647-6.19" fill="none"/></g><path d="M487.12 429.95c58.597-1.63 96.442-43.95 96.035-44.357-.407-.407 7.732-11.8 14.243-10.173 6.51 1.627 15.87 20.753 27.264 24.822 5.697 8.953-1.627 17.092-4.07 18.72-2.44 1.627-13.428 6.104-15.056-.407-1.627-6.51-4.883-5.29-4.883-5.29s-52.088 50.867-112.31 48.832c-62.257.41-113.53-48.83-113.53-48.83l-4.477 4.883s-4.883 5.29-7.324 4.883c-2.442-.407-13.023-7.325-13.837-14.243-.813-6.918 6.51-11.394 6.51-11.394s17.907-13.836 19.94-21.16c4.07-4.07 11.8 2.848 11.8 2.848s47.206 54.123 99.7 50.868z" fill-rule="evenodd" stroke="#000" stroke-width="1.717" fill="#f7c600"/><path d="M354.464 398.476s4.842-1.29 6.618.727c1.775 2.017 13.96 13.96 13.96 13.96M365.52 404.122l-4.843 3.632s12.186 2.42 9.442 10.41m250.177-20.098s-2.42-1.29-6.214 1.533c-3.793 2.824-13.397 13.557-13.397 13.557M609.406 403.804l5.245 4.035s-10.974.725-8.553 11.136" stroke="#000" stroke-width="1.717" fill="none"/><path d="M416.495 411.39l-.352.495c-.736-.364-1.576-.43-2.52-.203-.69.18-1.995.83-3.91 1.95l-16.126 9.4-.44-.314 4.06-18.85c.492-2.272.716-3.652.674-4.14-.032-.48-.373-1.013-1.02-1.595l.353-.495 8.692 6.2-.353.494-.294-.21c-.785-.56-1.39-.843-1.815-.85-.3-.013-.542.11-.727.37-.114.16-.215.376-.303.65-.08.265-.257 1.02-.527 2.267l-2.572 11.78 9.315-5.48c1.12-.667 1.846-1.13 2.18-1.39.333-.26.582-.505.748-.737.19-.268.287-.555.29-.862.004-.305-.094-.61-.294-.915-.275-.425-.73-.863-1.362-1.314l.353-.494 5.95 4.244m5.79 28.018l-.29.533-10.218-5.586.292-.533.647.355c.567.31 1.08.46 1.535.446.323.003.64-.122.955-.375.23-.173.615-.75 1.15-1.73l7.03-12.853c.547-1 .835-1.652.866-1.96.03-.307-.067-.642-.293-1.003-.212-.366-.592-.7-1.14-.998l-.648-.355.29-.533 10.218 5.587-.292.534-.648-.354c-.567-.31-1.078-.46-1.534-.446-.324-.003-.647.12-.97.368-.23.173-.615.75-1.15 1.73l-7.03 12.853c-.547 1-.835 1.652-.866 1.96-.022.313.074.652.286 1.017.226.362.614.692 1.16.99l.65.356m37.323-8.754l-2.635 7.395-.572-.205c.03-2.267-.46-4.174-1.468-5.718-1.008-1.544-2.33-2.61-3.97-3.193-1.57-.558-3.03-.58-4.39-.063-1.354.506-2.53 1.47-3.524 2.895a19.392 19.392 0 0 0-2.38 4.627c-.715 2.01-1.106 3.86-1.172 5.544s.3 3.072 1.1 4.158c.81 1.09 1.94 1.894 3.395 2.412.505.18 1.04.312 1.602.397.577.077 1.18.112 1.81.104l1.555-4.363c.294-.825.426-1.377.397-1.654-.025-.288-.183-.594-.475-.92-.28-.32-.674-.57-1.18-.75l-.54-.193.203-.573 10.196 3.632-.203.572c-.792-.224-1.372-.308-1.74-.253-.354.048-.68.228-.977.54-.163.164-.38.627-.652 1.39l-1.554 4.363c-1.554.12-3.11.07-4.672-.147a22.752 22.752 0 0 1-4.668-1.14c-1.99-.708-3.55-1.566-4.68-2.572a13.566 13.566 0 0 1-2.72-3.375c-.685-1.244-1.114-2.518-1.29-3.824-.214-1.68-.007-3.404.62-5.168 1.126-3.156 3.184-5.427 6.177-6.814 2.994-1.386 6.17-1.48 9.534-.283 1.042.37 1.95.788 2.728 1.25.424.245 1.072.743 1.943 1.495.885.745 1.42 1.15 1.606 1.217.29.103.595.095.916-.023.325-.128.695-.45 1.11-.964l.573.204m15.723 25.238l-.09.6-11.514-1.743.09-.6.73.11c.64.096 1.17.06 1.595-.108.304-.11.56-.336.768-.682.158-.24.32-.914.488-2.02l2.195-14.484c.17-1.125.218-1.838.142-2.138-.077-.3-.284-.58-.62-.84-.325-.27-.796-.454-1.413-.547l-.73-.11.09-.6 11.514 1.743-.09.6-.732-.11c-.64-.096-1.17-.06-1.594.108-.305.11-.566.336-.784.68-.16.24-.322.914-.49 2.02l-2.193 14.483c-.17 1.126-.218 1.84-.14 2.138.086.303.292.588.616.86.338.26.815.438 1.432.53l.73.112m29.887-7.26l-.44 7.85-19.748 1.01-.03-.608.737-.038c.644-.033 1.157-.174 1.54-.424.276-.167.48-.44.615-.82.107-.27.132-.96.075-2.077l-.746-14.63c-.058-1.138-.155-1.845-.29-2.123-.134-.28-.393-.512-.775-.7-.373-.2-.87-.285-1.494-.254l-.738.038-.03-.607 11.858-.606.03.607-.967.05c-.646.033-1.16.175-1.54.424-.278.168-.49.442-.634.822-.107.27-.132.96-.075 2.076l.724 14.172c.058 1.137.16 1.86.308 2.17.147.3.416.517.806.65.28.085.943.1 1.993.047l1.854-.093c1.18-.06 2.155-.32 2.92-.774.767-.456 1.41-1.147 1.934-2.072.534-.926 1.013-2.277 1.438-4.053l.673-.034m21.6-3.748l-7.537 2.252-.276 2.345c-.087.78-.063 1.396.072 1.847.177.597.55.966 1.117 1.105.334.083 1.07 0 2.206-.248l.174.583-7.097 2.12-.174-.582c.73-.345 1.267-.847 1.606-1.51.337-.67.624-1.928.862-3.77l2.546-19.308.3-.09 12.92 15.2c1.23 1.44 2.146 2.303 2.747 2.593.453.218 1.013.257 1.68.115l.174.582-10.323 3.084-.174-.582.425-.127c.83-.248 1.377-.537 1.643-.868.182-.237.225-.513.13-.828a2.014 2.014 0 0 0-.267-.555c-.05-.088-.324-.434-.825-1.04l-1.927-2.32m-.882-1.005l-5.375-6.4-1.077 8.328 6.452-1.927m28.46-29l2.855 5.308-.52.28c-.968-1.06-1.782-1.753-2.444-2.08-.667-.34-1.414-.49-2.24-.456-.46.023-1.148.28-2.065.774l-1.46.785 8.135 15.133c.54 1.003.93 1.6 1.17 1.795.25.19.587.294 1.01.316.425.007.918-.14 1.477-.44l.65-.35.29.534L550.984 442l-.288-.535.65-.35c.57-.306.974-.654 1.21-1.043.18-.27.253-.607.22-1.013-.017-.29-.29-.926-.82-1.91l-8.134-15.13-1.418.76c-1.32.71-2.13 1.507-2.428 2.388-.42 1.232-.35 2.63.206 4.197l-.55.296-2.854-5.31 17.618-9.47m13.36-7.92l5.46 7.236.352-.267c1.128-.85 1.678-1.82 1.65-2.912s-.49-2.38-1.393-3.866l.5-.376 7.02 9.31-.497.375c-.87-.933-1.72-1.596-2.548-1.985-.82-.397-1.536-.536-2.146-.418-.618.11-1.35.483-2.198 1.123l3.778 5.008c.74.98 1.23 1.55 1.473 1.708.25.152.544.213.877.18.333-.03.752-.237 1.26-.62l1.06-.8c1.662-1.254 2.7-2.64 3.117-4.16.425-1.53.263-3.244-.487-5.147l.485-.367 3.463 6.254-15.368 11.59-.366-.484.59-.445c.517-.39.863-.794 1.04-1.215.134-.294.15-.635.05-1.025-.063-.282-.43-.87-1.103-1.76l-8.822-11.697c-.607-.803-1-1.28-1.183-1.43a1.572 1.572 0 0 0-1.02-.343c-.516.006-1.063.226-1.64.662l-.59.444-.366-.485 14.882-11.227 3.966 5.258-.498.377c-1.223-1.094-2.277-1.746-3.162-1.956-.877-.216-1.834-.14-2.87.232-.61.212-1.586.826-2.932 1.84l-1.836 1.386"/><path d="M380.537 413.063c72.788 59.04 144.13 60.122 213.933 0" fill="none"/></g></svg>