<svg xmlns="http://www.w3.org/2000/svg" height="480" width="640" viewBox="0 0 640 480"><defs><clipPath id="a"><path fill-opacity=".67" d="M-71.873-.012h682.68v512.01h-682.68z"/></clipPath></defs><g fill-rule="evenodd" clip-path="url(#a)"><path d="M.03 382.154V97.86l211.604 142.075L.03 382.165z"/><path d="M144.416 479.868L381.98 319.975h337.67v159.893H144.416z" fill="#00c"/><path d="M129.143.07L719.63.08V160H381.964S132.308-1.512 129.143.07z" fill="#f00"/><path d="M.03 60.05v37.788L211.633 239.91.03 382.14v37.788L266.55 239.91.03 60.05z" fill="#fc0"/><path d="M.03 60.05V.07H88.94l282.33 191.035h348.356v97.692H371.272L88.942 479.805H.03v-59.877L266.55 239.91.03 60.05z" fill="#093"/><path d="M88.942.07h55.465l237.565 159.92h337.67v31.115H371.284L88.953.07zm-65.93 479.79H78.48L316.043 319.97H653.71v-31.114H305.356L23.025 479.86z" fill="#fff"/></g></svg>