<svg xmlns="http://www.w3.org/2000/svg" height="480" width="640" viewBox="0 0 640 480"><defs><clipPath id="a"><path fill-opacity=".67" d="M-170.67 0H512v512h-682.67z"/></clipPath></defs><g fill-rule="evenodd" clip-path="url(#a)"><path fill="#198a00" d="M-80.128 0h720.384v480.256H-80.128z"/><path fill="#ef7d00" d="M555.714 172.536h84.538v307.692h-84.538z"/><path d="M471.275 172.386h84.448v307.757h-84.448z"/><path fill="#de2010" d="M385.073 172.573h86.235v307.683h-86.235z"/><g stroke="#000" fill="#ef7d00"><path d="M583.61 61.523s31.814-13.595 34.898-16.398c1.4 1.682-12.754 18.78-40.223 25.087 24.946-5.887 46.25-24.386 50.593-23.825 1.262.28.98 18.08-56.2 33.496 39.522-10.373 62.506-29.432 62.227-27.33.28.42-3.925 14.995-38.54 26.35 9.67-2.245 35.878-18.22 35.596-15.138.843 1.262-25.365 34.897-72.73 23.966 37.838 9.81 62.364-13.875 65.867-13.454.7.14-7.007 20.742-54.657 22.003 22.845-2.383 16.256-.142 16.256-.142s-13.454 10.512-29.71 3.365c12.753 3.504 14.153 3.644 14.435 4.765-.84 1.4-11.352 3.504-21.442-1.962 8.128 3.363 15.416 3.924 15.556 5.185-.14.42-5.325 3.365-9.95 1.263-4.624-2.103-47.23-28.31-47.23-28.31l72.594-19.902 2.663.982zm-217.347 74.96c-6.384 0-6.56 5.68-6.56 5.68s-.526.41-.176 3.165c1.055-1.876 1.582-2.462 1.582-2.462.702.118 3.63.996 8.257-2.635-4.217 4.393-1.698 6.034-1.698 6.034s-.997 3.455 2.224 4.16c-.995-1.408-.41-2.637-.41-2.637s4.51-.47 4.218-5.974c.175 4.978 2.87 6.208 2.87 6.208s0 2.754 2.927 2.988c-1.58-1.407-1.23-3.574-1.23-3.574s3.807-2.752.585-7.438c1.932-1.113 3.515-4.216 3.515-4.216s-2.636-1.114-3.865-2.05c-.587-1.23-.06-7.965-.06-7.965l-1.58-8.728-4.51 13.59c.174-1.933.292 5.856-6.092 5.856zM529.794 112.814c.14.14 4.765 5.327 9.25 5.047 1.68-1.402-3.504-4.485-3.504-5.186 1.822 1.682 9.53 8.27 14.435 5.886 1.962-2.802-3.503-2.382-9.53-9.95 4.204 2.803 14.716 8.97 19.62 6.588 2.103-2.243-10.93-9.25-15.276-14.717l-11.212-5.744-15.276 12.473 11.492 5.604zM512.554 70.212s5.185-3.083 25.927-1.542c2.243.28 14.156-4.064 17.94-5.325 6.026-1.122 25.226-5.326 30.412-9.25 3.644-.42-.982 6.727-5.605 8.41-4.906 2.24-22.705 8.408-29.013 7.567 7.57.14 3.365 6.307-9.248 3.364 6.026 3.364 3.784 3.924 3.784 3.924s-10.65.56-13.454-1.822c7.147 2.663 4.204 3.644 4.204 3.644s-7.287.7-10.65-.84c5.184 1.54 2.522 2.522 2.522 2.522s-4.205.7-7.708-.56c-3.504-1.262-8.83-10.09-9.11-10.09zM520.87 115.72l.762 13.707s-.41.704-.762 1.113c-.352.41-9.722-1.465-8.434 5.68 0 2.93.06 3.69 2.05 5.33-.527-1.932-.35-3.28-.35-3.28s2.634 1.582 5.212-2.752c-1.757 4.276-.528 5.798-.118 5.916.41.76-.702 4.217 2.812 4.158-1.347-1.29-.704-3.163-.704-3.163s3.69-.586 2.402-7.263c1.347-1.347 1.875-.058 1.875-.058s.41 3.98 3.63 3.16c1.466.82-.234 2.988-.234 2.988s2.344.058 3.047-1.933c.703-1.99 1.523-5.564-2.343-7.03-.468-1.404 1.523-1.52 1.523-1.52s2.46.82 3.163 2.05c.702 1.228.47-3.222-2.577-3.69-3.75-.12-3.983-.88-3.983-1.055 0-.176-.644-9.957-.938-12.768l-6.032.41zM533.91 127.4c.047-.63-6.394-9.3-4.76-10.422 1.633.336 4.312 4.28 6.48 3-.656-1.538-2.595-.672-4.796-4.608-2.2-4.45-2.522-11.128-10.23-18.415 4.99 7.71 16.31 12.23 16.79 9.983s-9.968-10.75-9.433-12.8c2.08 4.208 12.57 13.584 20.298 12.807.53-1.805-6.33-5.448-8.095-8.85-4.937-3.316-18.15-14.706-18.414-17.346-4.81-7.013-7.81-9.135-9.208-9.943-.54-.636-.676-1.244-.782-1.63-2.984-7.037.97-9.322 3.283-9.66 1.904-.212 2.457.073 3.827-.59-1.622-.635-3.245-1.23-4.866-1.864 2.115 1.552 7.518.186 6.347 4.656 2.37-.903 7.41-6.9-5.712-8.253-4.27-4.9-21.828-7.715-26.224 13.667.35.3.535.546 1.65 1.38-5.547-2.68-20.5-4.753-25.89-5.625-14.563-4.202-29.685-14.326-31.14-13.08-1.944.862 8.8 10.856 8.24 11.077-9.314-5.432-17.824-9.278-25.74-12.78-5.57-2.083-11.15-6.93-11.765-6.008-2.05 4.246 8.93 14.92 10.972 16.176 2.042 1.2 18.106 8.653 17.87 8.746-24.195-10.982-28.252-12.973-29.466-14.24-2.133-.48-7.327-7.493-8.775-7.042-.79.778.8 11.86 12.344 16.836 1.88 1.37 24.748 9.574 24.524 10.217-.057.16-26.19-10.787-27.206-11.178-5.038-1.976-11.22-8.9-12.377-8.123-1.103.708 2.85 8.204 7.942 10.555 2.67 1.178 12.905 6.247 22.128 9.474.59.214-16.578-6.508-24.83-9.957-3.744-2.077-5.505-4.666-6.076-4.11-.844.557 1.36 11.63 27.884 17.88.7.297 9.336-2.047 8.91-1.736-.108.078-8.578 1.922-9.402 1.858-.734-.112-5.375.55-5.46.79-.28.75 1.683 4.715 15.377 3.888 1.75-.106 11.25-3.46 10.452-2.74-.398.362-12.937 4.437-13.892 4.517-.83.117-5.234.578-5.397 1.047-.2.638 3.26 3.46 10.615 3.912 6.51.346 18.884-3.98 18.636-3.7-.248.282-11.927 4.283-12.234 4.527-.422.24-4.7.47-4.85.8-.347.816 6.17 6.912 25.447.407-1.937 2.616-11.28 4.405-11.266 4.876-.043.342 2.06 2.373 5.326 3.1 1.632.362 3.87.288 5.912-.034 3.668-.735 7.535-2.186 12.447-6.726.587 1.425-12.272 7.932-11.67 8.553 2.79 2.585 12.053-.334 12.66-.673.607-.34 17.836-10.055 17.776-11.18.27 1.442-22.21 13.656-21.968 14.158 1.443 2.302 9.122-.122 9.49-.333.365-.21 9.8-5.307 10.058-5.458.258-.15-11.087 6.64-10.077 7.674-.49 4.41 17.72-3.042 19.144-3.97.715-.464-8.745 4.16-8.77 6.355 3.046 5.15 12.8 3.518 14.305 2.385.752-.568-.886 3.826-.358 3.426.183-.082 2.12-2.373 2.867-4.032-.237 1.44-1.307 3.706-1.93 6.307-.625 2.602-.804 5.537-1.66 8.655-.198 1.37 6.01-2.677 5.108-12.354.53 5.035-1.96 14.446-1.31 14.934 1.305.98 4.91-4.687 5.275-8.517 1.07 1.934 3.317 5.973 5.25 6.904-.21-2.927.037-2.793-.833-5.67.5-3.82.572-9.106.694-15.076 5.252 10.062 7.347 14.31 5.88 22.016 1.56.65 4.056-5.378 3.854-8.48 2.007 8.622 10.663 9.915 10.8 9.664zM446.424 63.52s-3.575 2.702-8.024 2.543c1.112 4.448 10.328 1.032 10.328 1.032s-4.45 4.927-7.627 5.72c1.908 1.59 9.93 1.033 11.282.24 1.35-.795 3.733-3.893 3.733-3.893s-8.262 9.532-9.453 9.452c-.16 1.112 8.66.715 10.487-.953 1.826-1.668 6.434-4.13 6.434-4.13s-12.075 8.42-12.63 8.42c4.526 1.192 13.584-1.43 19.383-5.005-8.58 5.72-9.374 6.754-13.743 8.66 3.892.873 5.878 3.495 19.066-2.225 7.548-3.574 11.837-10.09 11.837-10.09-4.687 6.276-12.076 11.6-20.258 16.842-.478.954 8.737 4.846 20.494-7.388M510.297 90.054s.795 3.733 3.972 6.594c3.177 2.86 3.416 5.64 3.416 5.64m-8.975-36.544s1.112 3.338 4.37 5.483c3.337 2.144 8.343 8.897 8.74 10.09.384 1.442 2.302 11.837 2.144 12.948m-35.512-23.357c.238 1.272-4.688 7.707 2.064 15.254-6.117 7.466-6.115 8.42-6.115 8.42s3.415 1.907 9.534-3.336c10.088 12.394 6.726 18.066 6.726 18.066M499.856 100.564s-.928-1.332.728-6.303c1.49 1.8 3.152 2.182 3.88 2.91.726.727 8.343 1.83 8.827 6.922"/><path d="M508.808 53.9c0-.375-1.533-3.666-7.256.448 3.067.187 6.097 1.945 7.256-.45zM563.428 68.95c.282.14 17.1 3.784 22.704 1.963-7.147 9.53-21.442 3.083-21.442 3.083 7.007 2.1 7.288 1.962 9.53 3.924.7 1.822-12.894.98-17.378-1.54 12.473 3.922 12.753 3.642 13.174 5.184.56 2.102-20.462-.56-22.283-3.364 5.605 4.345 8.688 5.185 11.772 7.148-3.784 1.682-10.79 3.363-23.685-5.747 16.957 15.418 32.233 14.437 34.616 17.24-5.886 8.69-28.73-5.185-39.24-12.194-10.512-7.007 22.983 16.96 26.067 16.537-1.542 2.383-12.614.28-13.315-.84M567.775 85.067c-1.96.282-7.847.282-8.688.14M441.498 60.978s12.79 6.753 18.193 6.276c-1.43 1.35-3.575 1.907-3.575 1.907 1.35.557 5.085 2.543 10.726 1.273-1.35 1.35-3.097 2.86-3.097 2.86s4.846 1.827 10.328-1.033c-1.667 2.065-2.62 3.574-2.62 3.574l3.812.24"/></g></g></svg>