<svg xmlns="http://www.w3.org/2000/svg" height="480" width="640" viewBox="0 0 640 480"><defs><clipPath id="a"><path fill-opacity=".67" d="M0 0h682.67v512H0z"/></clipPath></defs><g clip-path="url(#a)"><path fill-rule="evenodd" fill="#319208" d="M0 411.43h960v68.573H0z"/><path fill-rule="evenodd" fill="#de2010" d="M0 274.284h960v68.572H0z"/><path fill-rule="evenodd" fill="#ffd200" d="M0 342.853h960v68.572H0z"/><path fill-rule="evenodd" fill="#de2010" d="M0 137.147h960v68.57H0z"/><path fill-rule="evenodd" fill="#ffd200" d="M0 68.572h960v68.57H0z"/><path fill-rule="evenodd" fill="#319208" d="M0 0h960v68.572H0z"/><path d="M27.085 0v480L349.37 240 27.085 0zM0 0h27.428v480H0zM0 0v480l349.716-240L0 0zM0 205.716h960v68.57H0z" fill-rule="evenodd"/><path d="M0 0v480l322.284-240L0 0z" fill-rule="evenodd" fill="#fff"/><path fill="#d62419" fill-rule="evenodd" d="M123.71 107.496l25.566 84.718 91.317.8-72.677 50.497 27.465 87.082-70.48-53.513-74.34 53.03 29.114-83.57L6.26 192.23l88.487 1.86z"/><path d="M46.914 155.837c1.554-2.8 1.864-4.353 9.95-7.774 10.57-30.78 37.62-18.654 52.544 23.94 13.68 5.908 95.45 66.848 94.208 70.268-.622 3.11-10.883.623-10.883.623s-16.167 69.024-16.477 69.024c-30.16-4.042-77.11-4.665-109.136-4.042.31-5.287-8.705-39.798-8.705-39.798s-7.774-2.487 5.285-28.915c13.992-33.267 16.79-87.368-16.788-83.325z" fill-rule="evenodd" stroke="#000" stroke-width="1.376984" fill="#f7df00"/><path d="M79.55 152.953a3.648 3.648 0 1 1-7.297 0 3.648 3.648 0 0 1 7.296 0zm36.154 30.52s-28.522 16.25-36.813 15.917m126.69 59.694c-1.99-1.66-105.79-6.633-101.484-41.788m16.583 42.45s11.274 6.632 20.89-10.614m-8.29 10.282s7.96 7.296 19.568-8.622M62.644 285.95s7.295.995 8.623-3.317m25.86 46.097c0-.33-7.297-47.094-7.297-47.094 36.04 3.206 73.404 3.428 108.113 9.62" stroke="#000" stroke-width="1.468" fill="none" transform="scale(.938)"/><path d="M87.687 264.794l9.33 10.887 9.646-9.332 8.087 8.71m2.493.317l8.088-7.155 8.712 8.4m1.547-.006l9.02-8.087 6.844 8.088m3.74.318l8.087-5.6 7.156 6.845m5.6-.314l5.91-5.6M86.128 274.746l9.955 11.51 9.954-9.022 8.71 9.333 9.955-8.71 8.4 9.954 10.266-8.71s7.776 9.645 8.71 9.645 10.265-8.088 10.265-8.088l9.022 9.954 12.443-9.953m-96.12 5.29s80.258 3.11 93.323 6.222m-79.944-42.615s76.214 4.045 88.347 8.71" stroke="#000" stroke-width="1.376984" fill="none"/><path d="M91.16 232.218c.664 4.975-5.306 22.22-11.606 28.19-8.624 6.965-7.63 21.557-7.63 21.557.996 5.97 13.93 5.306 15.59 2.322 1.325-13.598 15.917-16.583 15.917-16.583s20.232-5.637 28.855-22.55m-.335 30.176a4.31 4.31 0 1 1-8.624 0 4.31 4.31 0 0 1 8.623 0zm19.237 1.66a4.31 4.31 0 1 1-8.622 0 4.31 4.31 0 0 1 8.622 0z" stroke="#000" stroke-width="1.468" fill="none" transform="scale(.938)"/></g></svg>