<svg xmlns="http://www.w3.org/2000/svg" xmlns:xlink="http://www.w3.org/1999/xlink" height="512" width="512" viewBox="0 0 512 512"><path fill="#d0103a" d="M0 0h512v512H0z"/><path fill="#fedf00" d="M0 0h348.16v512H0z"/><path fill="#0018a8" d="M0 0h163.84v512H0z"/><path d="M240.317 173.302c6.17 0 8.694 5.293 14.863 5.293 3.81 0 6.03-1.244 9.35-3.117 2.316-1.31 3.794-2.01 6.454-2.01 2.723 0 4.393.823 5.786 3.157.787 1.32 1.44 3.906 1.094 5.39-.656 2.81-1.06 4.034-2.182 6.63-.534 1.25-1.038 1.996-1.038 3.363 0 3.274 4.456 4.4 7.486 4.446.66.01 6.216.102 9.634-3.36-1.855-.08-3.93-1.516-3.93-3.37 0-2.1 1.475-3.52 3.474-4.127.38-.108 1.027.227 1.37.047.49-.254.26-.804.695-1.147.995-.796 1.642-1.293 2.918-1.293.834 0 1.32.117 1.99.597.354.255.484.568.918.568.914 0 1.366-.58 2.28-.58.742 0 1.194.1 1.845.436.543.28.53 1.202 1.146 1.202.307 0 1.934-.663 2.784-.663 1.764 0 2.706.64 3.846 1.978.307.36.504 1.095.816 1.095.63 0 2.082.405 2.986 1.31.39.39.562.573.86 1.044.21.333.528 1.15.896 1.292.43.167.792.135 1.36.498 1.292.83 2.287 2.387 2.24 3.897-.015.506-.247 1.212-.384 1.694-1.506 5.266-5.09 6.937-8.708 11.46-1.54 1.927-2.752 3.465-2.752 5.935 0 .597.735 1.69 1.06 2.188-.198-1.16.332-2.586 1.56-2.653 1.68-.09 2.977 1.186 3.203 2.85.045.39-.1 1.062-.265 1.46.905-.597 2.097-1 3.183-1.128a9.9 9.9 0 0 1 1.525-.066c2.686.066 5.65 1.577 7.448 3.105 5.504 4.677 6.17 11.518 5.87 13.418-.67 4.222-.25 11.862-11.04 14.908 1.995.84 3.353 2.34 3.353 4.187 0 2.008-1.536 3.727-3.544 3.727-1.15 0-1.945-.282-2.75-1.087-2.244 2.244-2.68 4.533-2.68 7.708 0 1.9.363 3.024 1.16 4.74.84 1.82 1.447 2.888 2.967 4.2.805-1.212 1.656-2.1 3.112-2.1 1.41 0 2.606.454 3.185 1.738.17.39.017.706.216 1.086.253.49.678.597.94 1.086.408.75.01 1.392.362 2.17.227.507.724.58.94 1.085.345.78.436 1.312.436 2.172 0 2.406-2.19 4.125-4.596 4.125-.724 0-1.122-.29-1.846-.217 1.375 1.375 2.425 1.972 3.474 3.62 1.52 2.378 1.9 4.07 2.244 6.874.063.523.072.84.072 1.374 0 3.6-.56 5.753-2.17 8.974-1.54 3.084-2.85 4.794-5.646 6.802-4.36 3.14-7.536 4.044-12.81 5.066-3.384.652-5.32.94-8.758 1.158-4.397.28-6.903.29-11.29.58-5.755.388-9.744 1.202-13.824 5.283 1.927 1.41 3.256 2.794 3.256 5.173 0 2.443-1.51 4.19-3.835 4.958-.543.182-.94.02-1.448.29-.606.317-.58 1.014-1.158 1.375-1.024.652-1.82.797-3.04.797-2.155 0-3.62-.507-5.14-2.027-1.765 1.466-2.36 2.787-4.343 3.908-.652.363-.986.87-1.737.87-1.184 0-1.727-.75-2.677-1.45-1.51-1.1-2.316-1.834-3.547-3.254-1.8 1.076-2.904 1.954-4.993 1.954-1.285 0-2.1-.18-3.185-.87-.57-.352-.66-.876-1.23-1.23-.597-.37-1.095-.234-1.737-.506-2.414-1.04-3.98-2.832-3.98-5.464 0-2.307 1.458-3.772 3.547-4.74-4.008-4.008-7.952-4.705-13.607-5.067-4.37-.28-6.858-.29-11.22-.58-3.464-.234-5.39-.587-8.83-1.157-2.595-.425-4.133-.56-6.513-1.664-8.187-3.818-13.407-9.056-14.475-18.022-.09-.77-.072-1.212-.072-1.99 0-4.668 1.836-7.518 5.138-10.82-.85-.2-1.42.08-2.243-.217-2.063-.75-3.547-2.18-3.547-4.38 0-.813.037-1.356.435-2.062.28-.496.814-.596.94-1.157.163-.742-.054-1.266.29-1.954.226-.46.65-.55.868-1.013.717-1.484 1.613-2.678 3.26-2.678 1.41 0 2.315.74 3.04 1.953 1.374-.633 1.754-1.665 2.532-2.967 1.295-2.162 1.883-3.673 1.883-6.188 0-1.756-.172-2.788-.724-4.452-.4-1.194-.56-2.01-1.447-2.895-.805.806-1.602 1.086-2.75 1.086-2.3 0-4.054-1.972-4.054-4.27 0-1.71.84-2.976 2.39-3.69-1.24-1.068-2.318-1.16-3.693-2.027-2.09-1.32-2.823-2.714-4.198-4.777-.897-1.348-1.13-2.29-1.593-3.836-.552-1.864-.87-2.976-.87-4.92 0-.508.01-.806.073-1.304.515-3.926 1.22-6.387 3.69-9.48 1.466-1.838 2.46-2.97 4.633-3.91 1.845-.796 2.95-1.375 4.957-1.375.606 0 .96 0 1.557.072.922.117 1.51.2 2.315.65.308.173.87.69.87.327 0-.417-.218-.635-.218-1.05 0-1.665 1.194-3.185 2.86-3.185 1.202 0 1.69 1.058 2.28 2.1.38-.635.578-1.07.578-1.81 0-2.75-1.475-4.153-3.185-6.297-3.727-4.66-8.396-6.84-8.396-12.81 0-1.783.86-2.995 2.39-3.91.444-.26 1.04 0 1.474-.276.37-.237.33-.716.564-1.096.37-.588.7-.84 1.215-1.293.85-.74 1.597-.52 2.538-1.17.47-.325.58-.75.944-1.183 1.05-1.266 1.992-1.878 3.647-1.878.834 0 1.3.004 2.07.31.262.1.752.495.816.42.165-.2.615-.676 1.148-.93.697-.334.98-.464 1.758-.464.887 0 1.468.496 2.355.496.325 0 .4-.325.663-.497.787-.535 1.24-.836 2.2-.836.922 0 1.43.303 2.21.8.732.46.838 1.08 1.59 1.515.415.244.767.135 1.23.29 2.062.687 3.618 2.062 3.618 4.233 0 1.176-.28 2.018-1.158 2.787-.697.615-1.357.506-2.244.796 2.877 2.3 5.38 2.87 9.053 2.87 3.365 0 7.48-1.377 7.48-4.74 0-1.568-.866-2.41-1.48-3.847-1.105-2.56-1.703-4.066-1.703-6.853 0-2.207.24-3.546 1.525-5.338 1.322-1.845 2.935-2.276 5.206-2.276z" fill="#c7b37f"/><g stroke="#703d29" fill="none"><path d="M217.902 191.212c.22.835.897 1.618 1.956 1.95.637.198 2.11.118 3.065-1.116.774-1 .715-2.24.426-3.224-.19-.637-.704-1.252-1.383-1.776l-4.064 4.125v.043zM320.824 252.897c-.955-2.308-3.423-1.274-3.575 0-.35 2.935 2.22 3.822 4.05 3.344.908-.235 1.57-.806 1.996-1.55.478-.84.623-1.935.312-2.982a3.92 3.92 0 0 0-.68-1.32 3.978 3.978 0 0 0-1.023-.97c-.704-.45-1.472-.493-2.675-.493-4.458 0-8.36 5.268-9.67 10.74-.43 1.803-1.024 5.822-.202 9.634.876 4.06 2.63 6.87 4.69 9.002 1.114 1.155 2.634 2.183 4.602 3.296.607.343 2.212 1.055 3.327 1.374 1.143.327 2.2.28 3.152.072 2.64-.573 3.87-3.03 2.54-5.544-1.09-2.06-4.3-3.185-5.814-.558a2.6 2.6 0 0 0-.322 1.235c.008.7.3 1.545.8 1.863 1.15.732 2.988.525 2.903-1.505M307.04 283.172c.896-1.053 2.95-2.632 5.297-2.92 2.383-.293 4.454.4 6.568 1.538 4.126 2.22 6.427 4.605 7.96 9.032.39 1.124.713 2.82.668 4.62-.07 2.868-.8 6.005-1.583 7.52-.682 1.324-2.468 7.166-12.26 11.198-5.714 2.352-14.49 2.895-20.54 3.134-8.323.328-16.002.636-20.46 6.13M309.12 292.582c-.24-.875-.018-1.715.677-2.667.928-1.272 2.906-1.71 4.697-.716.6.33 1.35.77 2.03 1.67.257.34.69.89.916 1.274.542.927.765 1.685.872 1.99 1.968 5.595-1.16 11.66-5.25 14.09-3.18 1.89-6.968 2.733-11.505 3.265-2.04.24-3.204.223-5.255.32-1.65.074-3.076.047-4.418.03-1.105-.013-2.153-.01-3.224-.032-1.75-.042-3.56-.083-5.773.078-2.33.17-4.082.23-6.05.558-1.286.214-2.794.42-4.374.775-.474.107-.955.194-1.438.34-.325.097-.646.197-.963.294-2.853.87-5.625 1.93-7.812 3.338-.676.435-1.44.87-1.985 1.387-.34.32-.754.642-1.087.97-1.53 1.506-3.097 3.137-3.463 5.345-.067.407-.067.834-.067 1.283 0 1.432 1.166 3.383 4.31 4.02m4.422-136.094c.66 1.19 1.02 1.914.638 3.145-.433 1.392-1.422 2.227-2.826 2.227-3.184 0-5.058-3.77-3.622-6.17 2.547-4.26 7.444-1.867 11.982.243-.22-1.092-.6-1.447-.562-2.8.1-3.36 2.592-4.886 3.587-7.99.593-1.85.828-3.456-.525-4.77-1.182-1.146-2.55-1.13-4.093-.525-3.083 1.208-6.784 4.68-13.298 4.775-6.515-.096-10.247-3.567-13.328-4.775-1.542-.604-2.91-.62-4.092.525-1.354 1.314-1.118 2.92-.525 4.77.995 3.105 3.487 4.63 3.586 7.99.04 1.353-.342 1.708-.56 2.8 4.537-2.11 9.624-4.716 11.98-.242 1.314 2.493-.437 6.17-3.622 6.17-1.402 0-2.39-.895-2.825-2.23-.39-1.188 0-2.228.637-3.144M251.648 191.892c1.23.94 2.1 2.1 1.954 3.98-.157 2.042-.65 2.534-2.243 3.62m1.916-3.038c-.072 1.23-.58 2.027-1.81 2.533"/><path d="M221.39 186.62l.556.397.597.637.398.796.2.677.04.876-.04.597-.2.676-.396.478-.478.517-.676.36-.877.2-.756.12-.796-.36-.715-.517-.438-.636-.318-.797v-.32l3.9-3.7z" fill="#c7b37f" stroke="none"/><path d="M220.165 189.732c-.245-1.322-1.79-1.593-2.388-.812-.922 1.202-.25 3.203 1.626 3.79.637.198 2.11.12 3.065-1.115.774-1 .715-2.24.426-3.224-.187-.635-.7-1.19-1.382-1.71-2.176-1.656-5.692-1.274-6.846 1.51-1.49 3.597 1.75 6.29 4.737 8.32 3.758 2.558 8.04 3.02 11.265 2.987 7.325-.08 12.897-3.582 16.52-5.572.844-.464 1.713-.37 2.15.16.492.595.484 1.557-.2 2.188M198.45 288.947l-1.63.597-1.673 1.274-.716.995-.914 1.592-.398 1.195-.318 1.473-.16 1.114m15.206-8.08l-.12 1.432-.238.993-.716 1.712-1.115 1.473-1.194.954-.876.438-1.234.28M255.795 327.286c-.297 1.325-1.538 2.84-4.24 3.388l-.524.108M323.374 284.964c1.71 1.594 2.91 3.535 3.834 6.2.39 1.124.712 2.82.667 4.618-.07 2.87-.8 6.006-1.583 7.523-.682 1.323-2.468 7.165-12.26 11.196-5.714 2.355-14.49 2.897-20.54 3.136-8.204.324-15.78.628-20.266 5.896M309.99 290.278c.61-.83 2.825-1.88 4.617-.885.59.327 1.288.742 1.9 1.66M321.285 283.028c.4.154.8.293 1.15.393 1.144.33 2.22.355 3.152.075 2.264-.68 3.718-2.795 2.54-5.545-.274-.638-.797-1.25-1.39-1.707M192.225 223.81c-1.52.942-2.653 1.164-3.836 2.534-1.18 2.33-1.64 3.583-2.1 5.452m36.88-41.352c0 1.375-1.013 2.243-2.388 2.533M317.69 217.615c3.784-.077 14.777 2.888 14.855 15.81.077 12.76-7.876 14.845-11.063 15.695M318.684 217.615c6.525-.283 13.257 4.52 13.554 16.505.23 9.364-6.41 13.61-9.596 14.46M315.05 262.738l.1-1.28.426-2.036.603-1.582.676-1.307.88-1.055m6.227-2.718l-.1 1.253-.358.856-.557.814-.637.478-.973.358-.856.06-.636-.1m-11.45-42.25l.28-1.352.595-1.254.774-1.254 1.333-1.712 1.055-1.174 1.712-1.732 1.473-1.493.935-1.076 1.234-1.493 1.095-1.65.658-1.354.357-1.752.11-2.172-.2-.63m-9.82 102.54l1.294-.257.973-.518.538-.537.38-.617.26-.995.02-.697m-126.6-9.72l.955.08 1.234-.1 1.232-.437m4-29.238l-.16 1.114-.257.496-.378.477-.517.398-.578.26-.756.12-.517.04m7.92-12.495l-.28 1.73-.337.758-.697.955-.935.717-.954.477-1.85.458m12.237-31.806l-.358 1.035-.438.754-.597.836-.836.757-.995.478-.838.2-.518-.04m.304-4.958l.02.796M203.428 243.246a5.484 5.484 0 0 1-1.672 1.04m120.414 35.86c.07.074.3.11.38.16 1.134.676 3.367-.168 2.71-1.92M318.228 255.683c.806 1.052 2.324 1.325 3.524 1.012.908-.237 1.57-.808 1.995-1.552.48-.84.623-1.936.313-2.982a3.925 3.925 0 0 0-.68-1.32c-.34-.45-.763-.927-1.09-1.14-.088-.058-.174-.135-.266-.198m5.14 27.214a3.15 3.15 0 0 0 .052-.576c0-.927-.388-1.776-1.03-2.348-.218-.196-.43-.5-.695-.632m.383.376c-.038-1.49-1.258-2.558-2.77-2.823m-3.34 2.27c-.346-.284-.72-.525-1.044-.865-1.96-2.05-3.434-5.08-3.454-8.54-.02-3.313 1.314-6.686 2.866-8m-45.2 67.72l1.433-1.314.995-.757 1.87-1.154 1.753-.836 1.234-.318 2.468-.56 2.866-.438m-23.606 15.492c-1.035 1.593-3.503 3.98-6.09 4.936-2.588-.955-5.056-3.343-6.09-4.936M251.535 330.102c-.324 1.202-.914 2.368-1.775 3.303M251.79 328.433l-.357 1.75m-1.87 3.344l-.755.756-1.354.757-1.552.477m-4.514-142.263c.194-.605.392-1.06.363-2.055-.097-3.363-2.59-4.887-3.584-7.99-.593-1.85-.83-3.458.525-4.77 1.18-1.148 2.55-1.13 4.093-.526 3.08 1.207 6.814 4.678 13.33 4.774-6.516-.097-10.25-3.568-13.33-4.775-1.542-.605-3.038-.782-4.22.365-1.353 1.314-.99 3.08-.397 4.93.995 3.104 3.36 4.628 3.46 7.99.028.994-.234 1.45-.428 2.054M256.092 182.46c6.41-.337 11.902-4.643 13.674-4.994 1.58-.314 2.462-.172 3.62.88-1.158-1.052-2.478-1.02-3.978-.432-3.08 1.208-6.782 4.68-13.297 4.775m63.68 90.308c-2.667-1.91-4.952-5.558-4.976-9.868-.018-3.315 1.314-6.687 2.866-8m-55.96 78.06c-1.036 1.59-3.504 3.98-6.09 4.935-2.59-.955-5.057-3.344-6.09-4.936M245.335 194.94c.667-.37 1.285-.72 1.856-1.035.846-.463 1.86-.366 2.297.162.492.596.568 1.63-.116 2.26M235.766 199.42c4.397-.92 7.98-2.888 10.688-4.403m25.816 131.347c.365.248.598.764.598.764.1.24.23.467.267.68.207 1.217-.592 1.976-1.578 2.09-1.356.16-2.374-.647-2.807-1.622m-33.21-129.082c4.397-.918 7.98-2.887 10.688-4.402m78.062 85.523c-.835.322-1.293.278-2.333-.183-.427-.19-.915-.483-1.488-.81-2.04-1.156-4.46-2.98-6.73-7.24a15.05 15.05 0 0 1-1.367-3.58c-.217-.888-.367-1.766-.4-2.668-.055-1.536.11-3.14.494-4.977.633-3.034 1.395-4.68 3.264-7.245.92-1.26 1.713-2.03 3.425-2.07M204.2 220.1c1.424 1.208 2.11 2.705 2.11 4.576 0 2.48-2.073 6.528-7.168 7.96-1.953.55-3.885.108-5.054-.603M205.036 228.495c.915.637 1.273 1.352 1.273 2.596 0 .854-.553 1.96-1.49 3.006-1.535 1.713-4.138 3.17-7.023 3.205-1.565.02-3.19-.307-4.824-1.4-1.747-1.17-2.667-2.746-3.065-4.3M204.954 233.836c1.037.953 1.355 2.146 1.355 3.65 0 2.196-.894 3.89-2.945 5.686-.46.402-.976.778-1.553 1.116m103.545-17.66v2.824m-.225-3.522v3.98m.225-12.597v5.215m-.225-6.368v7.127m-1.522 65.568c-.987 1.964-1.777 2.995-3.343 4.538-1.58 1.557-2.674 2.27-4.657 3.264-1.93.968-3.148 1.276-5.255 1.752-2.105.473-3.337.577-5.493.674-1.977.09-3.1.007-5.074-.13-2.113-.146-3.285-.44-5.395-.626-1.743-.154-2.727-.295-4.477-.29-1.798.004-2.83.015-4.6.33-1.65.29-2.586.524-4.14 1.153-2.148.87-4.577 2.39-5.094 3.066-.518-.676-2.946-2.194-5.096-3.065-1.553-.63-2.49-.86-4.14-1.153-1.77-.315-2.8-.326-4.6-.33-1.75-.006-2.733.136-4.476.29-2.11.184-3.282.48-5.395.625-1.975.137-3.096.22-5.074.13-2.154-.097-3.386-.2-5.49-.676-2.108-.478-3.323-.787-5.256-1.753-1.984-.992-3.077-1.707-4.657-3.264-.17-.17-.332-.33-.486-.49m33.736 42.7l1.433-.178m24.217-1.885l1.446-.137 1.378-.552.966-.585 1.31-1.55.274-.585.206-1.344.07-.62m37.528-109.356c.62-2.113-.137-4.343-2.185-4.283m-105.562 37.25c-.518 1.756-1.635 2.955-2.877 3.735m2.914-37.372c-.51 1.48-1.448 2.536-2.93 3.205-1.478.667-3.19.044-4.103-.662M195.046 225.894c1.225.642 2.468-.298 2.213-1.892-.12-.746-.926-1.69-2.015-1.758M200.125 293.304c.264.25.32.57.677.637.538.1.956.3 1.493-.416.662-.883.306-2.257-.383-3.122-.737-.924-2.874-1.742-4.665-.747-.6.333-1.35.77-2.03 1.672-.257.34-.692.89-.916 1.274-.54.927-.763 1.685-.87 1.99-1.64 4.658.307 9.556 3.32 12.54M272.174 326.262c.327.34.517.637.517.637.103.237.185.464.22.677.208 1.218-.59 1.977-1.577 2.09-1.356.16-2.263-.64-2.697-1.615M311.552 187.807c2.677.326 5.01 2.88 5.01 5.628 0 3.542-1.194 4.862-3.06 7.396-1.996 2.714-8.518 7.685-8.518 13.337 0 3.423.955 5.613 3.423 6.727 1.592.72 3.452-.06 4.3-.824 2.07-1.872 1.242-5.153-.916-5.545-2.625-.478-3.12 3.658-.555 3.383m14.26 55.25c-.237-1.42-1.44-2.5-2.893-2.5-1.62 0-2.933 1.345-2.933 3.005 0 .813.313 1.55.825 2.092M307.092 220.1c-1.423 1.208-2.11 2.705-2.11 4.576 0 2.48 2.074 6.528 7.17 7.96 1.952.55 3.818.5 4.986-.212m-124.826-8.27c-1.217.406-2.738 1.166-3.865 2.762-.95 1.346-1.505 3.218-1.848 4.856-.15.717-.33 2.986.127 5.33.34 1.73 1.054 3.342 1.844 4.51.285.417.54.7.83.988.266.265.643.5.91.703m51.21 73.635c3.88 1.72 6.723 3.008 9.134 6.815.756 1.194.956 2.906.956 3.9 0 2.15-.876 4.58-2.668 6.09-1.662 1.405-3.304 1.832-5.334 1.633-1.54-.15-2.985-1.273-3.224-2.07m-37.18-90.004c2.19 1.712 3.104 3.373 3.104 6.01 0 3.026-1.473 4.897-3.185 5.972M201.21 253.138c3.265 4.06 4.997 6.47 5.096 11.305.093 4.538-1.353 7.643-4.06 10.907M263.798 199.46c.593-.39 1.03-1.013 1.278-1.784.386-1.19.394-2.206-.243-3.12.786 1.027.858 1.895.637 3.143-.14.793-.647 1.21-1.278 1.782m41.165 68.928v12.924h.034c0 .01-.003 1.223-.106 1.99-.07.504-.14.958-.22 1.384M305.132 267.167v13.938h.034c0 .01-.005 1.223-.108 1.99-.11.8-.224 1.478-.374 2.112m.448-34.357v11.623m.225-10.707v9.453m0-21.476v7.087m-.225-7.92v8.736m.225-15.146v2.748m-.225-3.308v3.983m-1.475 52.154c-.085.18-.175.364-.27.555-.99 1.964-1.78 2.995-3.345 4.538-1.58 1.557-2.675 2.27-4.657 3.264-1.932.968-3.148 1.276-5.255 1.752-2.106.475-3.337.58-5.493.676-1.978.09-3.1.006-5.074-.13-2.113-.146-3.285-.44-5.395-.626-1.743-.153-2.727-.294-4.477-.29-1.796.005-2.826.016-4.597.33-1.65.292-2.587.525-4.14 1.154-2.15.87-4.578 2.388-5.095 3.065-.518-.677-2.946-2.194-5.096-3.065-1.552-.63-2.488-.862-4.14-1.154-1.77-.314-2.8-.325-4.598-.33-1.75-.005-2.734.137-4.477.29-2.11.185-3.282.48-5.395.626-1.975.136-3.096.22-5.074.13-2.156-.097-3.388-.2-5.493-.676-2.107-.478-3.322-.786-5.255-1.752-1.984-.992-3.077-1.707-4.657-3.264-.826-.815-1.437-1.488-1.974-2.23m-1.613-2.55c.34 2.53-.723 5.016-1.804 6.16-.676.717-2.15 2.086-3.98 2.11-3.026.04-3.93-2.04-4.112-2.547M204.493 287.078a8.23 8.23 0 0 1 1.48 2.03c.757 1.433.524 3.83-.075 4.937a3.73 3.73 0 0 1-.243.383m-16.195 14.41c1.8 1.888 4.52 3.94 8.7 5.66 5.714 2.352 14.49 2.894 20.54 3.133 8.046.32 15.46.65 19.973 5.633m13.89-3.258c1.33 1.31 2.688 2.71 3.26 4.505m-5.875 9.16a6.91 6.91 0 0 1-.554.528c-1.662 1.403-3.304 1.83-5.334 1.632-1.54-.15-3.025-1.305-3.423-2.06m-4.282-2.327c.074.102.152.2.234.295.964 1.126 2.49 1.83 4.082 1.963m21.498-.06c-1.035 1.592-3.504 3.98-6.09 4.936-2.588-.956-5.056-3.344-6.09-4.936l-.243-.372m12.463.362c.185.2.383.39.593.567 1.662 1.404 3.304 1.83 5.334 1.632 1.54-.153 2.762-1.18 3.256-2.07 0 0 .277-.3.354-.584M271.232 333.307l-.594.956-.904.75-1.37.567-1.24.052M274.447 324.21c.733.56 1.452 1.41 1.843 2.32.25.584.367 1.227.403 1.893a4.684 4.684 0 0 1-1.138 3.315c-1.023 1.19-2.618 1.912-4.315 1.98a4.386 4.386 0 0 1-.376 0m.148-.228c-1.624.066-3.074-.63-4.144-1.727m50.942-54.295c-1.268-1.167-2.58-2.785-3.845-5.16a15.042 15.042 0 0 1-1.368-3.58c-.217-.888-.367-1.766-.4-2.667-.054-1.535.11-3.14.494-4.976.635-3.033 1.765-5.38 3.267-7.245.51-.636 1.103-1.43 1.664-1.786M316.52 191.4c2.03.16 3.91 2.346 3.887 4.488-.036 3.112-1.08 4.398-3.528 7.447-2.11 2.627-8.44 7.245-8.28 11.663.028.785.45 1.596.923 2.248m-2.53 2.77c.45.445.994.81 1.642 1.104 1.158.523 2.458.254 3.407-.227m-16.94-34.576c.68.463 1.374 1.173 1.75 2.08 1.49 3.594-1.752 6.29-4.737 8.32-2.14 1.454-4.452 2.232-6.64 2.625M291.68 193.244c-.723-.007-1.583-.213-2.518-1.198-.215-.226-.467-.526-.566-.795m-11.886 3.924c-.378-.19-.784-.465-1.056-.77-.71-.793-1.183-1.868-.636-3.508.506-1.517 2.942-5.773 3.062-8.718.182-4.5-1.55-7.156-4.256-8.192M277.852 181.17l-.106 1.693-.458 1.728-.88 2.364-.67 1.516-.706 1.515-.352 1.057-.14.776.105.74m30.41 101.022c.14.34.477.67.477.67.518.863 2.53 2.383 4.36 2.407 3.025.04 3.744-2.078 3.82-2.548.383-2.31-.406-2.94-1.59-3.59 0 0-.698-.364-1.534-.224M189.558 283.48c-1.068.272-2.07.28-2.948.016-2.265-.68-4.1-2.85-3.164-5.545m10.71-25.457c.226.227.3.567.334.855.35 2.935-2.222 3.79-4.053 3.312-.907-.237-1.988-1.08-2.412-1.823a3.765 3.765 0 0 1-.493-1.843m17.648-18.934c.457.422.776.89.988 1.412m-.908-6.812c.426.295.73.67.935 1.045M206.29 232.417c-.247.61-.674 1.268-1.244 1.904-1.535 1.715-4.138 3.17-7.023 3.207-1.565.02-3.19-.308-4.824-1.4-1.75-1.17-2.89-2.83-3.267-4.463M204.344 220.227c.886.753 1.567 1.713 1.894 2.71M206.264 226.59c-.708 2.343-2.82 5.24-6.898 6.272-1.947.493-4.455-.124-5.31-.852M192.03 226.043c.214 2.11 1.626 3.69 4.302 3.74 3.763.072 6.05-5.412 2.707-9.263M183.562 244.424c.55.69 1.197 1.31 1.86 1.862 1.34 1.116 2.923 2.1 4.746 2.638m4.222.394c3.364-.404 5.26-2.91 4.884-5.842-.286-2.234-2.336-3.95-3.73-4.05M199.88 214.487c1.46-.054 2.288 1.27 2.275 2.388M199.537 194.463a9.19 9.19 0 0 0 4.024 4.658m115.344 24.772c1.376 1.884.475 5.598-3.266 5.668-1.46.028-2.78-.782-3.552-2.01M305.357 199.296v12.64M195.005 225.864c1.155.835 2.637-.576 2.064-2.074-.39-1.01-1.827-2.102-3.817-.75-2.198 1.496-1.592 6.21 2.627 6.29 3.764.07 6.052-5.413 2.708-9.263-3.217-3.704-9.076-2.838-12.897.203-1.624 1.293-4.696 4.682-5.65 9.3-.298 1.437-.49 2.617-.468 4.06.016.95.104 2.015.39 3.343.574 2.683 1.518 4.65 2.46 6.014.36.523.69.958 1.042 1.31.655.656.85 1.003 1.512 1.553 2.163 1.8 4.95 3.21 8.36 3.065 3.74-.16 5.89-2.786 5.493-5.89-.387-3.01-3.426-4.51-5.415-3.106-1.353.953-1.835 3.912.557 4.615 1.354.4 2.548-1.313 1.593-2.308m103.648-57.56c2.16-1.172 3.824-.955 5.055.754 1.338 1.858 1.53 4.33 1.234 5.777-.438 2.15-1.06 3.042-2.768 4.602M304.425 185.626c2.468-1.632 5.14-.94 6.608 1.234 1.075 1.592 1.35 2.924 1.274 4.896-.13 3.38-2.245 6.058-4.578 7.364M316.047 191.32c2.03.158 3.662 1.996 3.662 4.14 0 3.064-.857 4.394-3.305 7.443-2.11 2.627-8.44 7.245-8.28 11.663.06 1.67 1.47 3.245 2.684 3.333M316.288 225.864c-1.154.835-2.627-.514-1.99-1.947.44-.99 1.75-2.23 3.742-.876 2.198 1.497 1.592 6.21-2.628 6.29-3.763.07-6.306-5.27-2.707-9.262 3.286-3.643 9.378-2.93 13.2.11 1.625 1.293 4.896 4.846 5.598 9.51.85 5.64.74 12.58-5.088 16.855-2.343 1.718-5.59 2.5-8.456 2.374-3.743-.164-5.893-2.787-5.495-5.892.386-3.01 3.285-4.284 5.414-3.105 2.21 1.224 1.824 4.334-.558 4.617-1.4.166-2.548-1.314-1.593-2.31M314.296 223.918c.62-2.793 3.013-3.053 4.945-3.024 5.274.077 8.92 6.33 8.98 12.38.077 7.64-3.243 12.14-8.827 12.378-1.445.062-3.935-.625-3.977-2.388M317.542 222.67c5.56 1.234 7.51 6.243 7.51 11.023 0 3.9-.385 9.227-7.973 11.1M326.712 276.265a3.125 3.125 0 1 0-5.01 1.874M315.56 271.53c1.047 1.55 2.313 3.278 4.988 4.73m-1.004 8.438c-2.62-1.72-7.597-3.974-12.095-1.755-1.67.823-2.79 1.84-3.42 3.502-1.136 2.99.134 6.284 1.43 7.653.674.717 2.15 2.086 3.98 2.11 3.023.04 3.743-2.077 3.82-2.547.36-2.19-.916-3.064-1.593-3.302-.52-.184-2.207-.137-2.566 1.057-.12.398-.14 1.092.18 1.61M272.38 326.738c.835 1.712-.116 2.572-1.275 2.707-1.71.2-2.627-1.155-2.747-2.39-.193-2 1.493-3.813 3.504-3.78 1.81.03 3.284 1.197 3.975 2.804.25.582.367 1.224.403 1.89a4.682 4.682 0 0 1-1.138 3.315c-1.023 1.19-2.618 1.912-4.315 1.98-3.38.136-6.01-3.025-6.01-6.25 0-6.17 9.15-9.534 12.777-10.4 4.458-1.064 7.17-1.462 14.33-1.86 2.866-.16 4.965-.078 8.12-.406 2.825-.293 4.3-.43 7.206-1.108 3.626-.844 7.006-2.348 10.03-5.095 2.33-2.115 3.663-3.622 4.742-6.528.93-2.508 1.358-7.474-1-11.147-2.082-3.246-4.975-4.932-8.28-5.41-2.983-.43-5.6.857-7.164 3.818-.756 1.434-.523 3.83.076 4.937.517.956 1.995 2.365 3.825 2.39 3.023.04 3.742-2.08 3.82-2.55.36-2.188-.916-3.064-1.593-3.303-.52-.183-2.208-.136-2.566 1.058-.12.398-.14 1.092.18 1.61M269.773 316.938c-3.88 1.72-6.723 3.008-9.134 6.815-.758 1.194-.957 2.906-.957 3.9 0 2.15.876 4.58 2.667 6.09 1.663 1.405 3.305 1.832 5.335 1.633 1.54-.15 2.986-1.273 3.224-2.07M308.086 243.302c-1.815.606-3.105 3.373-3.105 6.01 0 3.026 1.475 4.897 3.186 5.972M310.077 253.138c-3.264 4.06-4.996 6.47-5.095 11.305-.093 4.538 1.354 7.643 4.06 10.907M292.68 185.64l.28-.414c1.353-1.99 3.743-2.514 5.493-1.194 2.11 1.593 2.643 4.302 2.07 7.165-.358 1.792-1.573 3.284-3.238 4.363M212.08 184.668c-2.07-.955-3.773-.77-5.055.753-1.473 1.753-1.53 4.33-1.234 5.777.44 2.15 1.06 3.042 2.77 4.602M206.863 185.626c-2.468-1.632-5.14-.94-6.608 1.234-1.074 1.592-1.35 2.924-1.273 4.896.13 3.38 2.244 6.058 4.577 7.364M199.74 187.807c-2.675.326-4.812 2.595-4.812 5.34 0 3.544.873 4.977 2.863 7.684 1.997 2.715 8.52 7.685 8.52 13.337 0 3.423-.955 5.613-3.423 6.727-1.59.72-3.452-.06-4.3-.824-2.07-1.872-1.24-5.153.916-5.545 2.628-.478 3.12 3.658.558 3.383M195.24 191.32c-2.03.158-4.027 1.905-4.027 4.048 0 3.065 1.22 4.486 3.67 7.534 2.11 2.628 8.07 7.154 7.91 11.573-.06 1.67-1.183 3.713-2.297 3.474M190.464 252.897c.955-2.308 3.423-1.274 3.575 0 .35 2.935-2.224 3.822-4.055 3.344-.907-.235-1.57-.806-1.994-1.55-.48-.84-.622-1.935-.312-2.982.14-.474.34-.874.678-1.32a3.98 3.98 0 0 1 1.024-.97c.704-.45 1.47-.493 2.674-.493 4.46 0 8.36 5.268 9.67 10.74.43 1.803 1.025 5.822.203 9.634-.877 4.06-2.632 6.87-4.69 9.002-1.116 1.155-2.636 2.183-4.604 3.296-.607.343-2.212 1.055-3.326 1.374-1.145.327-2.22.352-3.153.072-2.264-.68-3.718-2.795-2.54-5.544.918-2.14 4.3-3.185 5.812-.558.128.223.327.71.32 1.235-.007.7-.298 1.545-.798 1.863-1.15.732-2.99.525-2.904-1.505M187.003 280.315c.836.322 1.293.278 2.333-.183.427-.19.916-.483 1.488-.81 2.038-1.156 4.46-2.98 6.728-7.24a15.1 15.1 0 0 0 1.368-3.58c.216-.888.366-1.766.4-2.668.054-1.536-.11-3.14-.495-4.977-.633-3.034-1.395-4.68-3.264-7.245-.917-1.26-1.71-2.03-3.42-2.07m-7.56 24.723a3.125 3.125 0 1 1 5.012 1.874M185.795 273.157c.235-1.418 1.44-2.498 2.89-2.498 1.62 0 2.934 1.343 2.934 3.003a3.04 3.04 0 0 1-.828 2.092M191.498 272.998c2.667-1.91 4.952-5.558 4.976-9.868.018-3.315-1.314-6.687-2.866-8M195.732 271.53c-1.046 1.55-2.312 3.278-4.987 4.73M203.68 282.947c-.743-1.746-2.218-2.553-4.62-2.81-2.386-.254-4.453.402-6.567 1.54-4.127 2.22-6.428 4.605-7.96 9.032-.39 1.122-.714 2.816-.67 4.616.073 2.87.8 6.006 1.584 7.523.683 1.32 2.468 7.164 12.26 11.195 5.715 2.353 14.49 2.895 20.54 3.134 8.324.327 16.003.636 20.46 6.13M191.744 284.698c2.62-1.72 7.597-3.974 12.095-1.755 1.667.823 2.785 1.84 3.416 3.502 1.137 2.99-.134 6.284-1.427 7.653-.678.717-2.15 2.086-3.98 2.11-3.027.04-3.746-2.077-3.823-2.547-.36-2.19.915-3.064 1.592-3.302.52-.184 2.207-.137 2.565 1.057.12.398.14 1.092-.178 1.61M202.168 292.582c.24-.875.116-1.795-.676-2.667-.796-.875-2.906-1.71-4.698-.716-.6.33-1.35.77-2.03 1.67-.257.34-.69.89-.915 1.274-.544.927-.767 1.685-.874 1.99-1.97 5.595 1.235 11.536 5.25 14.09 3.504 2.23 7.086 2.867 11.505 3.265 2.046.184 3.204.223 5.255.32 1.65.074 3.077.047 4.42.03 1.104-.013 2.152-.01 3.223-.032 1.748-.042 3.557-.083 5.77.078 2.33.17 4.083.23 6.052.558 1.286.214 2.794.42 4.374.775.474.107.955.194 1.438.34.325.097.645.197.963.294 2.853.87 5.625 1.93 7.812 3.338.675.435 1.453.856 1.984 1.387.408.406.755.642 1.088.97 1.532 1.506 3.097 3.137 3.464 5.345.067.407.067.834.067 1.283 0 1.432-1.166 3.383-4.31 4.02M238.91 326.738c-.837 1.712.114 2.572 1.273 2.707 1.712.2 2.627-1.155 2.747-2.39.194-2-1.493-3.813-3.503-3.78-1.81.03-3.284 1.197-3.976 2.804-.25.582-.365 1.224-.4 1.89a4.683 4.683 0 0 0 1.137 3.315c1.023 1.19 2.618 1.912 4.316 1.98 3.38.136 6.01-3.025 6.01-6.25 0-6.17-9.15-9.534-12.778-10.4-4.458-1.064-7.17-1.462-14.33-1.86-2.866-.16-4.965-.078-8.12-.406-2.824-.293-4.3-.43-7.206-1.108-3.627-.844-7.007-2.348-10.03-5.095-2.33-2.115-3.664-3.622-4.743-6.528-.93-2.508-1.358-7.474 1-11.147 2.082-3.246 4.975-4.932 8.28-5.41 2.984-.43 5.6.857 7.165 3.818.757 1.434.524 3.83-.075 4.937-.518.956-1.996 2.365-3.826 2.39-3.025.04-3.744-2.08-3.82-2.55-.36-2.188.914-3.064 1.59-3.303.52-.183 2.21-.136 2.567 1.058.12.398.14 1.092-.177 1.61M218.61 185.64a97.004 97.004 0 0 0-.282-.414c-1.353-1.99-3.743-2.514-5.493-1.194-2.11 1.593-2.642 4.302-2.07 7.165.358 1.792 1.574 3.284 3.238 4.363M293.396 191.677c-3.224 3.503-6.448 4.622-11.265 4.777-1.502.05-4.377-.477-6.05-1.668-1.073-.765-2.27-2.074-1.512-4.343.506-1.516 2.943-5.77 3.062-8.717.18-4.5-1.55-6.967-4.257-7.922-5.004-1.766-10.376 3.18-13.613 4.26-1.693.563-2.555.63-4.1.636-1.546-.006-2.44-.073-4.13-.637-3.24-1.08-8.61-6.025-13.615-4.26-2.707.956-4.438 3.422-4.256 7.923.117 2.945 2.554 7.2 3.06 8.717.756 2.27-.44 3.578-1.513 4.343-1.672 1.19-4.547 1.717-6.05 1.668-4.817-.155-8.042-1.274-11.266-4.777M237.865 315.53c.638.25.155-.15 4.196 1.64 3.88 1.72 6.634 3.226 9.045 7.033.757 1.194.955 2.906.955 3.9 0 .643-.078 1.31-.235 1.968M238.126 332.83a6.41 6.41 0 0 0 2.602.66c3.38.136 6.01-3.025 6.01-6.25 0-2.234-1.217-4.117-2.92-5.63M238.858 326.733c-.816 1.82.347 2.803 1.506 2.938 1.71.2 2.675-1.153 2.794-2.387.13-1.342-.586-2.647-1.678-3.32M312.08 187.837c2.57 0 4.81 2.86 4.81 5.795 0 3.382-1.8 5.452-3.117 7.017-1.06 1.26-2.21 2.385-3.575 3.76M309.033 185.13c.874.403 1.64 1.088 2.225 1.954 1.075 1.593 1.348 2.925 1.274 4.896-.128 3.38-2.56 5.72-4.734 7.148m-3.818-13.998c.177.15.348.323.512.518 1.473 1.752 1.587 4.34 1.234 5.776-.53 2.157-1.243 3.087-2.994 4.377m-4.052-11.557c2.11 1.592 2.737 4.346 2.038 7.182-.5 2.025-1.773 3.24-3.36 4.207m8.9 32.863c.252.74.67.998 1.194 1.548 1.14 1.195 2.814 2.224 4.927 2.818 1.95.55 3.71.138 5.05-.7M187.03 275.39c.992-.018 1.98.65 2.628 1.775a2.6 2.6 0 0 1 .322 1.234c-.008.7-.315 1.45-.815 1.766-1.15.732-3.19.417-3.106-1.613M193.193 249.037c3.944.736 7.74 5.493 8.984 10.683.43 1.802 1.024 5.822.202 9.633-.877 4.06-2.63 6.87-4.69 9.003-.49.506-1.056.987-1.703 1.462l-.84.57m-6.342-9.708c1.62 0 3.038 1.55 3.038 3.21 0 .814-.315 1.55-.827 2.092M187.71 272.563c1.687 0 3.293 1.626 3.293 3.352a3.12 3.12 0 0 1-1.185 2.45M203.182 255.59c1.55 2.08 2.573 3.872 3.05 6.18m-.055 6.79a13.815 13.815 0 0 1-1.16 3.236c-.65 1.296-1.787 2.738-2.842 3.714M203.428 243.466c1.494 1.168 2.395 2.377 2.816 3.824M206.285 239.575c-.393 1.362-1.283 2.393-2.696 3.683m-7.325-13.744l1.725-.454 1.02-.77.66-.932.566-1.452.227-1.18M192.773 223.442c-.544.136-1.234.338-1.958.682-.97.462-1.998 1.18-2.82 2.343-.95 1.346-1.503 3.22-1.846 4.856-.15.717-.33 2.986.127 5.33.338 1.73 1.053 3.342 1.844 4.51.284.417.54.78.83 1.068 1.036 1.037 1.99 1.674 3.583 1.355M202.435 215.85c-.28 1.026-.832 2.3-2.445 2.16M196.54 222.822c-1.547-1.513-4.826-1.907-8.087.155-.42.265-.838.606-1.253.952-.45.37-.807.8-1.153 1.27-.376.507-.837 1.37-1.116 1.945-.383.79-.542 1.31-.753 2.12-.596 2.28-.593 4.4-.523 5.005.09.776.164 1.488.29 2.142.433 2.24 1.095 3.81 1.78 4.944.72 1.195 2.512 3.938 6.174 4.3 1.44.142 3.897-.518 3.977-2.39M291.01 189.655c.245-1.322 1.838-1.577 2.437-.796.92 1.2.312 3.265-1.563 3.85-.637.2-2.11.12-3.065-1.113-.776-1-.717-2.24-.428-3.224.187-.638.7-1.193 1.382-1.712 2.176-1.655 5.692-1.273 6.846 1.513 1.49 3.595-1.75 6.29-4.736 8.32-3.758 2.556-8.04 3.02-11.265 2.985-7.327-.08-12.9-3.583-16.52-5.573-.846-.464-1.715-.37-2.15.16-.495.595-.487 1.557.197 2.188M292.485 188.416c.776.036.984.34 1.222.65.922 1.2.248 3.267-1.626 3.852m14.27 41.235c-2.79 3.037-.224 8.25 1.862 9.43.722.56 1.03.264 1.608.602"/><path d="M306.5 228.347c-.917.637-1.24 1.352-1.275 2.596-.03 1.04.15 2.195 1.128 3.21 1.52 1.584 4.498 2.962 7.383 3 1.565.018 3.19-.31 4.824-1.402 1.747-1.167 2.667-2.745 3.065-4.297m-16.688 49.43c0 .01-.005 1.223-.108 1.99-.305 2.234-.66 3.52-1.674 5.534-.99 1.963-1.778 2.994-3.344 4.538-1.58 1.557-2.675 2.27-4.658 3.264-1.93.966-3.147 1.273-5.254 1.75-2.105.475-3.336.58-5.492.676-1.978.09-3.1.006-5.074-.13-2.113-.147-3.285-.44-5.396-.626-1.742-.152-2.727-.293-4.476-.29-1.798.006-2.83.017-4.6.33-1.65.293-2.586.525-4.14 1.155-2.15.87-4.577 2.388-5.095 3.065-.517-.677-2.946-2.195-5.095-3.065-1.553-.63-2.49-.862-4.14-1.155-1.77-.313-2.8-.324-4.6-.33-1.75-.004-2.733.138-4.476.29-2.11.186-3.282.48-5.395.627-1.973.136-3.095.22-5.072.13-2.156-.098-3.388-.2-5.493-.677-2.107-.476-3.324-.783-5.255-1.75-1.984-.995-3.08-1.708-4.658-3.265-1.566-1.544-2.356-2.575-3.344-4.538-1.013-2.014-1.37-3.3-1.672-5.534-.104-.767-.108-1.98-.108-1.99v-81.418h98.585v81.418h.035z"/><g fill="#c7b37f" stroke="#c7b37f"><path d="M198.354 292.516a2 2 0 1 1 4 0 2 2 0 0 1-4 0zM186.07 278.38c0-.99.634-1.792 1.414-1.792.78 0 1.413.802 1.413 1.792s-.632 1.79-1.413 1.79c-.78 0-1.413-.8-1.413-1.79z"/><path d="M193.05 242.872c0-.812.61-1.47 1.364-1.47.754 0 1.364.658 1.364 1.47 0 .813-.61 1.47-1.364 1.47-.753 0-1.364-.657-1.364-1.47zm24.504-52.505c-.086-.815.403-1.535 1.093-1.607.69-.072 1.32.53 1.405 1.345.086.815-.403 1.535-1.093 1.607-.69.072-1.32-.53-1.407-1.345z" stroke="none"/></g><g stroke="#c7b37f" stroke-width=".505" stroke-linecap="round"><path d="M191.447 251.156a1.79 1.79 0 0 0-.677.466c-.21.222-.254.303-.418.665-.12.265-.15.572-.195.95m3.773 21.4c.278-.337.446-.518.713-.864.222-.287.354-.446.55-.752.175-.274.254-.442.41-.73.218-.407.327-.644.537-1.056m-1.012 11.15c-.473.217-.753.313-1.214.557-.35.187-.54.305-.876.515a13.92 13.92 0 0 0-.995.67c-.393.287-.595.475-.975.78m11.972-30.313c-.257-.264-.396-.418-.658-.677-.274-.27-.423-.43-.717-.676-.285-.24-.466-.35-.764-.576M203.35 243.953c-.38.17-.58.303-.974.434-.453.15-.76.226-1.198.246M189.952 230.748c.13.464.16.74.334 1.19.22.565.405.86.74 1.366.35.525.57.816 1.02 1.258.396.388.647.583 1.11.887.44.287.727.387 1.19.635m-.79-4.687c.39.208.59.365.996.534.368.153.586.217.975.306.526.12.834.15 1.373.163.584.016.757 0 1.493-.117m5.737-32.526c-.64-.373-1.03-.536-1.637-.956-.618-.425-.96-.686-1.497-1.212-.387-.378-.605-.6-.927-1.035-.29-.388-.4-.643-.655-1.055m6-3.64c.2.534.257.86.513 1.372.347.694.616 1.058 1.138 1.632.725.795 1.338 1.02 2.194 1.672m1.162-4.734c.198.48.26.778.51 1.234.22.404.373.62.664.975.37.453.613.69 1.075 1.053.54.422.92.547 1.506.896"/></g><path d="M266.64 185.298c-.042-1.356-1.378-1.497-1.89-1.497-1.477 0-1.877.923-3.72 1.913-2.31 1.24-3.305 1.516-5.358 1.535-2.053-.02-3.075-.295-5.385-1.535-1.843-.99-2.153-1.882-3.63-1.882-.802 0-1.838.694-1.8 1.964 0 0-.014.41.05.69.022.104.15.07.19.163-.02-.616.106-.935.41-1.348.39-.53 1.036-.673 1.3-.673 1.477 0 2.024.948 3.867 1.937 2.31 1.24 3.304 1.516 5.358 1.535 2.053-.02 3.075-.295 5.385-1.536 1.843-.99 2.373-2.016 3.85-2.016.512 0 .874.33 1.04.853.105.32.046.536.073.663.013.062.09.056.106.123.05-.24.17-.324.153-.887z" fill="#703d29"/></g><g fill="#703d29"><path d="M211.517 299.223c.415-.447.73-.278.806-.484.057-.154-.066-.17-.235-.233-.226-.084-.465-.133-.69-.217-.234-.086-.446-.206-.68-.294-.096-.036-.32-.15-.383.02-.117.313.82.286.506 1.128-.052.143-.185.45-.65.96l-2.12 2.307c-.05.055-.128.17-.176.15-.048-.02-.042-.16-.043-.23l.03-3.272c.004-.62.057-1.08.158-1.35.14-.375.573-.06.663-.302.058-.152.015-.158-.243-.255-.13-.047-.376-.1-.89-.29-.275-.103-.535-.24-.8-.34-.122-.046-.345-.21-.425.004-.023.063.062.156.083.174.297.213.372.353.38.753l.057 5.96c.005.43.052.55.132.58.09.03.15-.007.325-.207l4.2-4.558zM213.99 300.145c.273-.866.785-.344.883-.654.034-.107 0-.14-.247-.216-.467-.147-.774-.204-1.07-.297-.286-.09-.595-.228-.914-.328-.074-.025-.27-.117-.32.04-.1.317.907.354.646 1.183l-1.38 4.373c-.272.865-.788.442-.888.76-.015.047-.02.116.055.14.214.066.578.14.93.252.64.202.932.334 1.235.43.19.06.274.046.306-.054.09-.292-.96-.162-.606-1.283l1.37-4.345zm2.96.875c.163-.55.418-.474.723-.383.833.246 1.093 1.06.828 1.958-.16.54-.36 1.04-1.613.668-.247-.073-.552-.164-.484-.393l.548-1.85zm-2.27 3.94c-.342 1.155-.92.655-1.007.948-.054.183.127.207.217.233.413.125.836.21 1.28.34.347.104.56.207.7.25.188.055.27.02.295-.063.098-.33-.83-.196-.54-1.176l.47-1.584c.095-.32.065-.4.502-.27.412.122.536.25.606.708l.264 1.652c.098.607.19 1.262.842 1.455.33.1.93.06 1.015-.225.022-.074-.01-.143-.085-.165-.082-.026-.18.004-.263-.02-.066-.02-.222-.066-.253-.234-.252-1.33-.56-2.866-.543-2.92.03-.092.293-.104.594-.244.304-.15.644-.417.817-1.003.126-.423.344-1.763-1.46-2.298-.554-.164-1.125-.293-1.677-.457-.52-.154-.575-.21-.954-.322-.1-.03-.196-.008-.223.084-.098.33.9.257.597 1.282l-1.193 4.03zm6.74 1.974c-.266 1.105-1.103.433-1.19.795-.05.202.095.227.245.263.335.08.62.11 1.18.244.56.134.827.238 1.16.318.244.058.404.126.457-.097.063-.26-1.072-.248-.797-1.39l1.008-4.2c.107-.445.2-.472.544-.39l.71.17c.97.195.456 1.162.79 1.242.218.052.213-.332.223-.448l.113-.876c.014-.095.045-.225-.08-.255-.778-.186-1.347-.283-2.567-.576-1.22-.293-1.772-.465-2.55-.65-.125-.032-.156.098-.187.19l-.43 1.193c-.046.116-.145.308.03.35.377.09.418-1.186 1.363-.96l.702.17c.343.08.415.148.308.594l-1.034 4.31zm10.158-2.59c.33-.513.668-.4.71-.618.028-.16-.095-.153-.273-.186-.237-.044-.48-.05-.717-.094-.245-.046-.475-.127-.72-.172-.1-.02-.34-.093-.374.086-.06.328.857.14.693 1.022-.028.15-.106.476-.476 1.058l-1.685 2.64c-.038.062-.096.187-.147.178-.05-.01-.068-.15-.08-.22l-.54-3.227c-.105-.61-.133-1.072-.08-1.354.072-.395.553-.16.6-.413.03-.16-.014-.158-.284-.21-.136-.024-.388-.03-.93-.132-.286-.052-.567-.143-.846-.195-.126-.023-.375-.147-.416.078-.012.066.088.143.112.157.33.157.428.282.504.675l1.09 5.857c.08.423.148.532.232.548.093.018.146-.03.284-.258l3.346-5.22zm.476 5.38c.004.233-.017.307.186.4.47.204.866.503 1.383.59 1.11.185 2.03-.523 2.238-1.757.2-1.197-.29-1.696-1.123-2.29-1.043-.746-1.49-.947-1.384-1.578.106-.633.547-.927 1.107-.834 1.458.244 1.29 2.018 1.486 2.05.187.032.23-.077.25-.287l.117-1.28c.02-.22.07-.356-.06-.377-.11-.018-.346.097-.456.078-.255-.04-.55-.47-1.245-.585-.992-.166-1.803.512-1.984 1.596-.165.99.273 1.44.943 1.92 1.255.9 1.77 1.11 1.635 1.91-.127.755-.71 1.12-1.372 1.01-.942-.156-1.324-1.1-1.444-2.05-.014-.13-.017-.217-.153-.24-.212-.035-.173.252-.17.39l.048 1.333zm12.656-3.568c.276-.544.624-.47.64-.688.014-.162-.11-.143-.29-.157-.24-.017-.482.003-.722-.016-.248-.02-.485-.077-.734-.097-.102-.008-.35-.056-.363.125-.024.334.87.05.8.945-.013.153-.057.485-.364 1.103l-1.402 2.802c-.03.065-.076.195-.127.19-.052-.004-.084-.14-.105-.208l-.87-3.154c-.17-.598-.246-1.054-.224-1.34.032-.4.535-.217.555-.474.014-.162-.03-.155-.304-.177-.138-.01-.39.007-.938-.036-.293-.023-.58-.084-.864-.107-.128-.01-.388-.107-.406.122-.006.065.102.13.126.143.344.124.456.238.573.62l1.698 5.71c.122.413.2.515.286.522.094.007.142-.047.256-.287l2.78-5.54zM246.067 310.784c-.008.974-.832.795-.835 1.177 0 .165.17.118.265.12.232 0 .465-.035.74-.033.3.006.593.044 1.014.048.114 0 .328.012.33-.122.003-.45-1.103.19-1.087-1.643l.03-3.25c0-.084.017-.15.07-.15.042 0 .093.048.152.125l4.092 5.003c.06.077.102.135.223.136.102 0 .103-.076.104-.286l.047-5.36c.01-1 .74-.766.74-1.052 0-.03.003-.125-.16-.126-.077 0-.38.035-.92.03-.594-.006-.843-.045-.98-.046-.112 0-.14.094-.14.16-.002.316 1.048.153 1.04 1.022l-.027 3.18c-.002.24-.02.355-.072.354-.05 0-.153-.116-.263-.25l-3.42-4.243c-.153-.183-.05-.25-.324-.25-.456-.007-.68.03-.903.03-.164 0-.32-.042-.482-.044-.103 0-.147.075-.148.16-.004.46.965-.153.95 1.68l-.033 3.63zm8.325-4.3c.008-.908.65-.56.653-.884 0-.114-.042-.134-.3-.136-.49-.005-.8.03-1.11.03-.3 0-.635-.045-.97-.048-.078 0-.292-.03-.294.13 0 .336.925.077.918.946l.008 4.585c-.008.907-.625.654-.628.988 0 .048.016.115.094.115.224.006.594-.032.964-.03.67.006.988.047 1.306.05.198 0 .276-.035.277-.14 0-.306-.965.125-.955-1.05l.04-4.556zm3.605 4.438c.01 1.137-.966.687-.962 1.06.002.21.147.2.302.197.344-.007.627-.045 1.203-.05.576-.005.86.03 1.204.027.25 0 .422.026.42-.204-.003-.267-1.1.02-1.11-1.156l-.038-4.317c-.004-.458.08-.506.434-.51l.73-.005c.99-.047.723 1.016 1.067 1.013.223 0 .125-.374.107-.488l-.102-.878c-.01-.096-.01-.23-.14-.228-.8.007-1.375.05-2.63.06-1.255.01-1.83-.022-2.63-.014-.13 0-.13.134-.137.23l-.126 1.262c-.018.125-.068.335.113.334.387-.006.118-1.253 1.09-1.26l.72-.01c.354-.004.44.045.444.504l.04 4.432zm5.007-1.807c-.154.012-.273.03-.28-.064-.01-.13.032-.24.066-.36l.527-1.735c.034-.11.068-.12.085-.122.043-.005.017 0 .075.07l.838 1.67c.052.11.112.21.122.344.007.095-.113.095-.267.107l-1.166.092zm1.472.402c.223-.018.273.074.614.794.115.25.188.42.205.628.046.58-.57.524-.55.8.01.134.12.106.275.094.25-.02.563-.082.94-.11.566-.046.8-.026 1.11-.05.23-.018.31-.006.296-.168-.025-.314-.458.094-.786-.56l-2.773-5.647c-.134-.277-.152-.295-.23-.29-.11.01-.14.195-.187.352l-1.87 5.943c-.172.55-.613.528-.596.747.01.124.145.094.265.085.247-.02.492-.077.75-.098.274-.02.534-.005.81-.025.18-.015.45.03.433-.17-.02-.256-.934-.03-.988-.717-.018-.228.076-.57.12-.766.15-.645.326-.697.472-.71l1.688-.133zm6.644-3.96c-.087-.654-.054-.668.977-.804 1.646-.216 1.127.98 1.527.927.196-.026.113-.333.088-.455l-.158-.933c-.01-.086-.083-.172-.194-.158-.75.1-1.333.214-1.938.294-1.305.172-1.923.214-2.273.26-.12.016-.18.1-.168.186.05.38.973-.05 1.085.802l.584 4.432c.153 1.155-.562.73-.505 1.165.008.057.065.097.176.083.47-.062.823-.147 1.087-.182.375-.05.695-.053 1.02-.095.212-.03.396-.016.37-.206-.032-.255-.964.108-1.103-.943l-.184-1.4c-.07-.55-.12-.66.272-.71l.63-.084c.887-.116.78.92 1.053.883.205-.028.11-.36.084-.484l-.284-1.678c-.042-.256-.133-.224-.193-.217-.17.024-.08.898-.814.995l-.538.07c-.367.05-.375-.017-.43-.425l-.174-1.325zm3.143 2.17c.353 1.907 1.73 2.964 3.43 2.65 2.695-.5 2.784-2.898 2.54-4.213-.368-1.99-1.852-2.97-3.497-2.645-2.017.39-2.854 2.15-2.473 4.206zm.94-.728c-.252-1.364-.07-2.738 1.354-3.03 1.087-.22 2.32.676 2.705 2.752.29 1.56.05 2.906-1.4 3.203-1.508.31-2.404-1.555-2.658-2.927zm6.667-3.328c-.132-.557.127-.62.436-.694.844-.202 1.478.373 1.696 1.283.132.55.206 1.08-1.064 1.387-.25.06-.56.135-.616-.097l-.45-1.878zm.006 4.548c.28 1.17-.47 1.026-.398 1.323.044.186.213.116.305.094.418-.1.827-.238 1.28-.346.35-.082.584-.1.726-.134.19-.046.244-.118.224-.2-.08-.335-.816.244-1.055-.75l-.387-1.607c-.078-.326-.144-.38.3-.485.417-.1.588-.053.878.31l1.056 1.298c.388.477.797.998 1.457.84.334-.08.837-.418.768-.706-.017-.074-.08-.118-.156-.1-.083.02-.154.096-.237.117-.067.015-.226.054-.337-.077-.882-1.026-1.916-2.202-1.93-2.258-.02-.094.2-.236.392-.507.19-.282.35-.683.206-1.278-.102-.427-.584-1.697-2.415-1.257-.56.134-1.12.308-1.68.442-.526.126-.602.105-.987.197-.1.024-.172.09-.15.184.08.336.91-.227 1.16.814l.98 4.087zm6.897-1.542c.285 1.1-.77.9-.677 1.26.052.204.19.158.34.12.334-.087.6-.195 1.157-.34.558-.143.842-.177 1.175-.264.24-.062.415-.077.357-.3-.067-.258-1.063.286-1.357-.852l-1.08-4.18c-.116-.444-.044-.512.297-.6l.707-.183c.948-.287.947.81 1.28.723.216-.056.032-.393-.014-.5l-.31-.827c-.034-.09-.067-.22-.192-.188-.774.2-1.322.38-2.537.695-1.218.314-1.785.422-2.56.622-.124.032-.09.162-.075.256l.183 1.256c.013.125.016.34.19.296.375-.097-.188-1.244.753-1.487l.7-.18c.34-.09.436-.064.55.38l1.11 4.29zm4.397-5.868c-.24-.874.472-.715.385-1.028-.03-.11-.077-.117-.326-.05-.474.132-.76.252-1.06.334-.29.08-.623.134-.946.223-.075.02-.29.05-.246.205.088.322.953-.195 1.185.643l1.225 4.417c.243.875-.42.8-.33 1.123.012.046.047.106.12.085.216-.06.562-.195.92-.294.645-.18.962-.227 1.268-.31.19-.055.255-.113.227-.214-.082-.295-.892.386-1.206-.746l-1.22-4.39zm1.834 2.135c.615 1.84 2.125 2.694 3.764 2.146 2.6-.87 2.356-3.254 1.93-4.523-.64-1.92-2.247-2.682-3.83-2.132-1.943.67-2.528 2.527-1.864 4.51zm.83-.852c-.44-1.313-.45-2.7.92-3.188 1.045-.37 2.39.348 3.06 2.35.504 1.504.453 2.87-.94 3.367-1.45.515-2.597-1.206-3.04-2.53zm6.103-4.333c-.21-.534.038-.632.334-.75.81-.317 1.517.164 1.86 1.035.206.525.354 1.04-.862 1.52-.24.095-.535.21-.623-.012l-.707-1.795zm.637 4.5c.44 1.12-.323 1.083-.21 1.368.07.177.227.085.315.05.4-.158.784-.35 1.216-.52.336-.133.566-.183.702-.237.183-.07.226-.15.194-.23-.126-.32-.774.358-1.15-.593l-.604-1.538c-.123-.31-.196-.355.228-.52.4-.16.576-.136.914.182l1.225 1.14c.45.42.928.878 1.56.63.32-.127.77-.53.662-.806-.03-.07-.098-.106-.17-.077-.08.03-.14.115-.22.146-.063.026-.215.086-.343-.028-1.017-.893-2.205-1.914-2.226-1.967-.034-.09.167-.26.318-.556.148-.305.25-.725.027-1.294-.162-.41-.815-1.6-2.567-.91-.536.21-1.066.46-1.602.672-.504.198-.582.188-.95.333-.096.038-.158.114-.123.203.127.32.87-.353 1.26.643l1.54 3.91z"/></g><g fill="#fedf00" transform="matrix(.512 0 0 .512 0 76.8)"><path d="M412.66 249.25h82.18v82.023h-82.18z" fill="#d52b1e"/><path id="a" d="M451.2 313.83s-.048 2.93-.855 5.287c-.933 2.72-.94 2.72-1.796 4.043-1.154 1.78-2.56 3.082-3.81 3.887-1.96 1.258-3.95 1.888-5.95 1.71-5.49-.486-8.038-6.44-9.283-11.273-1.32-5.13-5.073-7.923-7.463-6.064-1.4 1.09-1.48 2.914-.31 4.665 1.243 1.866 4.098 2.8 4.098 2.8l-2.933 3.73s-6.303-.82-7.536-7.392c-.466-2.488.742-7.134 4.89-8.522 5.298-1.772 8.687 2.006 10.32 5.193 2.245 4.384 3.21 12.434 9.43 11.19 3.383-.677 4.975-5.598 4.975-7.852l2.466-2.643 3.654 1.167.1.078z" fill="#fff"/><use height="100%" width="100%" xlink:href="#a" transform="matrix(-1 0 0 1 907.52 0)"/><path d="M461.12 278.95l10.76-11.643s1.624-1.31 1.61-3.4l-2.22.344-.496-1.14-.11-1.147 2.98-.63c.05-.484.008-.85.093-1.384.08-.495.19-.76.31-1.245l-3.264.218c.166-.57.128-.875.31-1.406.155-.447.198-.618.504-1.103.606-.09 1.158-.228 1.907-.304.728-.074 1.143-.04 1.873-.086 1.78-3.32 9.19-6.373 14.454-.904 3.81 3.958 2.99 11.22-1.95 13.14-2.797 1.087-5.052.444-6.86-1.11l1.97-3.867c2.72 1.625 4.976-.396 4.82-2.495-.196-2.654-1.92-4.297-4.353-4.51-2.254-.197-3.872 1.093-4.898 3.11-.627 1.23-.337 2.134-.545 3.5-.226 1.482-.1 2.31-.537 3.81-.32 1.087-1.155 2.433-2.37 3.59l-11.03 11.936-42.94 46.445-3.228-2.985 43.21-46.737z"/><path d="M429.51 283.04s2.7 13.372 11.874 33.43c4.665-1.71 7.42-2.798 12.362-2.798 4.943 0 7.697.933 12.362 2.8 9.174-20.06 11.874-33.432 11.874-33.432l-24.236-31.177-24.236 31.177z" fill="#fff"/><path d="M456.12 262.41l16.82 21.637s-2.243 10.52-9.078 26.354c-2.646-.6-4.916-1.126-7.733-1.317l-.01-46.67zm-4.74 0l-16.82 21.637s2.243 10.52 9.078 26.354c2.646-.6 4.916-1.126 7.733-1.317l.01-46.67z"/></g><g fill="#d52b1e"><path d="M257.843 204.416h42.076v41.996H257.84z" fill="#fedf00"/><path d="M263.736 204.416h6.274v41.996h-6.274zm12.022 0h6.274v41.996h-6.274zm12.022 0h6.273v41.996h-6.273z"/></g><g fill="#d52b1e" stroke="#d52b1e" stroke-width=".513"><path d="M211.44 282.834c.12.756.39 2.054 1.108 3.384.756 1.194.477 1.16 2.19 3.072.842.94 2.157 1.746 3.188 2.3 1.034.56 1.8.832 3.502 1.28 3.337.875 5.68.93 8.486.817 2.19-.087 3.863-.357 5.248-.543 1.975-.266 3.446-.424 5.692-.518a32.348 32.348 0 0 1 3.145 0c1.23.068 2.446.26 3.74.518 2.786.557 5.613 1.632 5.613 1.632l.006-43.856-42.083-.01v29.973s.086 1.464.163 1.95z" fill="#fedf00" stroke="none"/><path d="M216.325 290.524l1.972 1.148 2.703.972-.003-41.742h-4.673zm23.378 1.9l.006-41.523h-4.684v42.19s3.204-.41 4.676-.507zm9.34-41.518h-4.667v41.667a30.94 30.94 0 0 1 4.675.86l-.007-42.528zm-18.683 0v42.665c-.047.007-3.125.163-4.698 0v-42.656z"/></g><g transform="matrix(.512 0 0 .512 0 76.8)"><path d="M585.48 402.39c-.233 1.477-.76 4.012-2.163 6.608-1.477 2.333-.932 2.27-4.275 6-1.646 1.838-4.214 3.412-6.228 4.496-2.02 1.09-3.516 1.623-6.84 2.495-6.52 1.71-11.092 1.816-16.575 1.597-4.28-.17-7.546-.698-10.25-1.062-3.86-.518-6.73-.827-11.12-1.01-2.132-.09-4.15-.11-6.14 0-2.407.132-4.783.505-7.31 1.01-5.44 1.09-11.033 3.188-11.033 3.188l.057-85.655 82.193-.024v58.543s-.168 2.86-.318 3.81z" fill="#fedf00"/><g id="b"><path d="M524.62 346.91s-.366.175-.594.28c-.298.33-.447.52-.78.814-.444.39-.77.503-1.25.843-.23.164-.42.216-.595.438-.25.32-.077.63-.25 1-.184.405-.367.597-.654.938-.366.434-.65.61-1.063 1-.418.395-.587.726-1.093 1-.135.072-.2.142-.345.187-.216.067-.35-.01-.563.062-.388.134-.51.563-.78.72.11.217.106.37.218.593.158.323.705 1.215.812 1.437.21.305.27.7.532.78.537.17.858.155 1.312.126.792.182 1.28.158 2.03.47.614.253.864.574 1.47.843.474.21.772.34 1.28.44.388.073.61.13 1 .093.25-.024.378-.12.626-.156.05-.01.08 0 .125 0l-.03.375c-.006 0 .004.03 0 .032v.062h.062l2.06.906a1.72 1.72 0 0 0-.187.375c-.098.32-.114.69-.063.844.63 1.888 1.16 3.068 1.47 3.188.615.236.806.865 1.156 1.5-.123.132-.227.2-.344.312-.614.59-1.152 1.008-1.656 1.812-.745 1.188-1.248 1.203-.312 2.78.55.926.814 1.1 1.53 2.407.363.657.563 1.17.782 1.967.207.752.278 1.19.313 1.97l.966.374.657-.656.625-1.187.03-.906c-.24-.202-.308-.473-.25-.78.07-.37.514-.29.72-.626.282-.46-.333-.734-.658-1.093-.605-.67-1.43-.832-1.625-1.843-.052-.273.078-.427.375-.72.856-.84 1.13-.972 1.97-1.81.24.14.61.192.968.124.28-.052.53.126 1.406.376.61.173.873.086 1.22.03l.374-.093c.05.21.11.415.125.687.053 1.062-.155 2.996.156 3.5.13.214.186.333.28.564.1.24.215.396.22.656.01.696.047 1.14 0 1.875-.044.69-.103 1.042-.22 1.75-.073.45-.164.714-.436 1.062-.283.364-.595.418-.97.688l-.092 1 1.125.47 1.28.31.688-.28c0-.254.04-.4.156-.625.13-.247.233-.44.47-.53.363-.144.76.128.906-.095.16-.242.06-.338.032-.75-.047-.662-.185-.99-.283-1.657-.164-1.11-.21-1.686-.156-2.75.03-.616.04-.956.156-1.562.172-.883.486-1.31.688-2.188.225-.977.265-1.606.375-2.468 3.17.452 5.806.397 9.343-.375.17-.037.75-.25.75-.25.8.69 1.706 1.264 2.718 1.625-.005.1-.014.845 0 .968.038.288-.04.482.126.72.106.15.197.24.375.28.264.06.456.023.658-.156.225-.2.183-.454.25-.75.03-.14.006-.564 0-.687.365.055.49.062.874.062.357 0 .53.014.875-.03.004.08.02.368.03.467.027.245-.076.435.03.657.112.23.25.36.5.408a.66.66 0 0 0 .532-.094c.295-.185.263-.498.312-.844.015-.11.01-.693 0-.782.212-.067.827-.292 1.03-.375a5.12 5.12 0 0 1-.093.812c-.07.376-.12.58-.25.938-.207.568-.44.856-.75 1.375-.377.634-.573.985-1.03 1.562-.213.266-.36.386-.564.657-.257.337-.343.566-.595.906-.323.438-.51.724-.937 1.062-.693.55-1.15.11-2.093.844l-.22 1.03 1.438.53 1.282.25.437-.25c-.01-.3.033-.513.22-.75.213-.27.44-.35.78-.406.362-.06.748.034 1.032-.218.35-.31.35-.914.624-1.47.86-1.723 1.62-2.562 3-3.905.613-.596 1.138-.757 1.657-1.437.247-.322.52-.47.53-.875.01-.284-.142-.416-.217-.688-.104-.377-.187-1-.187-1 1.52.744.97.646 1.25 1.406.224.615-.034 1.04.06 1.687.112.756.467 1.114.532 1.875.078.905-.143 1.42-.312 2.313-.15.786-.13 1.278-.47 2-.32.69-.57 1.078-1.155 1.563-.21.175-.37.25-.593.407l-.124 1.03 1.125.376 1.626.437.375-.343c.164-.655-.055-1.617.406-1.688.406-.062.693 0 .782-.312.035-.132.057-.326.092-.625.22-1.886.422-3.646.625-4.5.23-.968.215-1.178.407-1.907.175-.664-.086-.282.406-1.687.734-2.096-.208-2.374-1.063-3.655-.462-.693-.622-.944-.687-1.5-.097-.817.164-1.495.125-2.75-.04-1.32-.023-2.16 0-2.875.115-.053.222-.12.344-.188 1.17-.642 1.635-.836 2.374-2.47a3.43 3.43 0 0 0 .313-1.467c-.005-.332-.065-.652-.094-1.032-.03-.4-.19-.637-.313-.937-.13-.318-.325-.56-.563-.844-.772-.924-1.78-1.132-2.718-1.47-1.485-.53-2.506-.433-4.126-.56-1.673-.133-2.607-.16-4.282-.063-2.006.114-3.128.52-5.125.75-1.915.222-2.977.37-4.906.406-2.26.042-4.42-.46-5.78-.344-2.45.21-2.493.762-6.188 1.063a66.916 66.916 0 0 1-3.844.187l-2.158-.687c.857-.306 1.067-.488 1.47-1.03.27-.367.232-.68.562-1.064.266-.31.443-.62.78-.97a2.2 2.2 0 0 0-.937-.435c-.363-.076-.573-.042-.937 0-.494.056-.772.124-1.22.344-.358.176-.623.356-.843.592 0 0-1.285-.828-2.187-1.218-1.12-.485-1.6-.712-3-.907zm1.97 11.906h.06c-.01.01-.018.022-.03.03l-.03-.03z" fill="#d52b1e"/><g stroke="#fedf00" stroke-width=".987" stroke-linecap="round" fill="none"><path d="M568.77 359.52l-.763.244c-.867.402-1.578.418-2.6.496-2.644.202-4.272-1.057-6.998-.847-1.406.108-2.027 1.19-3.46 1.548a9.247 9.247 0 0 1-1.703.284l.512-1.034s-1.285.26-2.116.263a7.55 7.55 0 0 1-1.523-.13l1.02-.95s-.815-.133-1.295-.336a3.918 3.918 0 0 1-1.06-.63 20.484 20.484 0 0 0 1.69-.353c1.556-.385 2.04-1.147 3.89-1.325 1.15-.113 3.032-.048 7.643.715 3.035.502 4.38.267 5.535-.258.76-.345 1.01-1.01 1.103-1.788.092-.777-.404-1.405-.874-1.81-.123-.107-.444-.336-1.113-.364"/><path d="M524.8 350.61c-.53-.066-.884.01-1.34.29-.48.298-.54.7-.888 1.145.445.1.7.36 1.142.253.347-.084.527-.238.76-.507.317-.362.433-.675.43-1.155l-.104-.024z" fill="#fcd900"/><path d="M536.04 363.79s.264.48.407.8c.248.554.376.878.524 1.467.2.8.116 1.284.243 2.098.022.143.05.263.076.376l-.05 1.13m6.8-6.95s-.22.812-.354 1.333c-.352 1.353-.676 2.087-.944 3.46-.045.23-.078.442-.103.644m-10.86-3.977c.79.176.544 3.36 1.79 4.09M560.12 369.78l.384-.25a8.154 8.154 0 0 0 2.686-1.79M552.38 368.02h.007c3.533-.883 5.885-2.648 7.58-2.87M555.97 363.61c.3-.01.585-.033.83-.068 1.467-.21 1.703.687 2.725 1.258 1.857 1.04 2.098 2.307 4.3 3.356.116.055.223.107.32.155l.848.43"/><path d="M517.7 354.53c.268.067.432.08.707.054.332-.03.484-.238.817-.25.27-.01.462-.03.684.126.14.1.2.19.28.342.087.166.163.282.124.466-.06.284-.324.418-.614.42-.237 0-.434-.062-.544-.272a.467.467 0 0 1-.04-.39c-.283.108-.49.112-.776.017a1.04 1.04 0 0 1-.638-.513z" fill="#fcd900"/></g><path d="M525.13 364.17c-.797-.237-1.966-.826-1.966-.826.323-.25.587-.265.863-.555.39-.41.373-.79.593-1.32.215-.52.184-.955.67-1.344.29-.23.763-.27 1.12-.165.352.114.758.4.847.767.137.56-.16.886-.246 1.454-.084.57-.29.895-.193 1.46.066.376.227.52.354.908 0 0-1.263-.15-2.04-.38zm-.99.95a.628.628 0 1 1 .64.618.627.627 0 0 1-.64-.618zm-1.76-16.51s-.09-.06-.144-.104c-.383-.31-.42-.653-.6-1.11-.173-.434-.258-.69-.316-1.154-.05-.406 0-.64 0-1.048 0-.37.04-.578 0-.944-.04-.375-.03-.612-.21-.944-.097-.18-.394-.337-.314-.42.094-.096.257-.02.42 0 .4.05.63.166.943.42.375.306.524.57.67 1.05.166.547.25.897.407 1.467.083.295.13.47.284.734.16.275.32.383.525.63l-.01.022c-.3.325-.445.537-.778.832-.305.27-.56.403-.846.573l-.032-.01zm3.6 10.64l2.23 1.03c1.15-.634 2.474-1.923 3.497-3.918.88-1.718 1.02-2.65 1.364-4.313l-1.787-.583-.357.073c-.552 1.724-.693 2.705-1.618 4.193-.802 1.29-1.718 2.305-2.65 3.034l-.677.483zm4.94 18.12c.36-.493.513-.81.922-1.264.456-.505.8-.702 1.312-1.15.155.015.335-.012.48.07-.027.546-.055.95-.18 1.542-.1.48-.186.746-.346 1.21-.135.388-.16.64-.39.98-.154.225-.29.315-.476.517-.51-.742-1.33-1.297-1.322-1.906zm33.01 1.85c.573.21.92.27 1.47.538.61.3.894.576 1.466.944.027.154.104.32.063.483-.533.122-.93.207-1.53.25a8.39 8.39 0 0 1-1.26 0c-.41-.022-.66.025-1.05-.104-.26-.084-.383-.19-.63-.312.574-.696.88-1.637 1.47-1.797zm-9.76-2.04c.573.21.92.27 1.468.538.61.3.896.576 1.468.944.027.154.104.32.063.482-.533.123-.93.208-1.533.252-.49.036-.768.027-1.258 0-.41-.023-.66.024-1.05-.105-.26-.084-.383-.19-.63-.312.574-.696.88-1.637 1.47-1.797zm-17.34 2.13c.573.21.92.27 1.47.538.61.3.894.576 1.467.944.026.154.103.32.063.483-.532.122-.928.207-1.53.25-.49.037-.77.028-1.26 0-.41-.02-.658.025-1.048-.104-.26-.084-.384-.19-.63-.312.573-.696.88-1.637 1.468-1.797zm-8.98-29.8c-.613-.278-1.05-1.045-.66-1.594.155-.22.412-.174.565-.395.19-.27.142-.506.136-.837-.005-.377-.14-.573-.207-.944-.072-.406-.14-.637-.136-1.05.005-.627-.038-1.075.345-1.572.246-.317.662-.592.826-.612.147.136-.057.502-.033.822.036.462.13.717.288 1.153.203.564.48.81.704 1.364.208.516.4.808.42 1.363.015.457-.025.736-.21 1.154-.165.37-.3.58-.61.84-.27.225-.458.325-.796.42a1.15 1.15 0 0 1-.627-.11z" fill="#0065bd"/></g><use height="100%" width="100%" xlink:href="#b" y="36.591"/></g><path d="M211.282 204.416h42.076v41.996h-42.076zm46.56 0h42.077v41.996H257.84zm-46.402 78.418c.12.756.39 2.054 1.108 3.384.756 1.194.477 1.16 2.19 3.072.842.94 2.157 1.746 3.188 2.3 1.034.56 1.8.832 3.502 1.28 3.337.875 5.68.93 8.486.817 2.19-.087 3.863-.357 5.248-.543 1.975-.266 3.446-.424 5.692-.518a32.348 32.348 0 0 1 3.145 0c1.23.068 2.446.26 3.74.518 2.786.557 5.613 1.632 5.613 1.632l.006-43.856-42.083-.01v29.973s.086 1.464.163 1.95zm88.326-.01c-.12.756-.39 2.054-1.107 3.383-.76 1.194-.48 1.162-2.19 3.073-.844.94-2.16 1.746-3.19 2.3-1.035.558-1.8.832-3.503 1.28-3.337.874-5.68.93-8.486.817-2.19-.088-3.86-.357-5.246-.543-1.975-.266-3.446-.424-5.693-.518a32.43 32.43 0 0 0-3.144 0c-1.23.068-2.448.26-3.74.518-2.788.557-5.65 1.632-5.65 1.632l.03-43.856 42.082-.012v29.974s-.088 1.465-.164 1.95z" stroke-width=".408" stroke="#703d29" fill="none"/></svg>