<svg xmlns="http://www.w3.org/2000/svg" height="512" width="512" viewBox="0 0 512 512"><defs><clipPath id="a"><path fill="#25ff01" d="M108.95 47.6h464.86v464.86H108.95z"/></clipPath></defs><g clip-path="url(#a)" fill-rule="evenodd"><path fill="#fff" d="M-120-.02h762.993v511.305H-120z"/><path d="M-118.315.597h760.603v216.016h-760.603z"/><path fill="#0061ff" d="M21.247 203.137h504.83v113.788H21.248z"/><path d="M642.476 1.73v510.06H261.893L642.476 1.73zM-18.58 96.65v510.06h380.58L-68.633 49.19z" fill="#e20000"/><path d="M440.167 203.247l-76.283-19.355 64.897-48.96-79.698 11.386 40.988-69.45-70.59 40.99 12.525-80.84-47.82 63.76L264.83 26.77l-21.632 76.284-47.82-64.897 13.664 83.114-70.59-43.264 40.987 69.45-77.423-12.523 63.76 47.82-79.7 20.494H440.17z" fill="#ffd600"/></g></svg>