<svg xmlns="http://www.w3.org/2000/svg" height="512" width="512" viewBox="0 0 512 512"><defs><clipPath id="a"><path fill="#808080" d="M496.06 15.937h496.06v496.06H496.06z"/></clipPath></defs><g clip-path="url(#a)"><path fill="#006" d="M-512-.003H511.878V511.93H-512z"/><path d="M-512 255.967L511.878 511.934V0L-512 255.967z" fill-rule="evenodd" fill="#bd1021"/><path d="M511.878 27.422v457.084L-402.298 255.96 511.878 27.41z" fill-rule="evenodd" fill="#fff"/><g stroke="#000"><path d="M339.903 313.367s-6.392-5.232 1.163-13.658c-4.068-3.487-.29-10.17-.29-10.17s-6.975-2.614.29-13.363c-5.23-3.488-2.906-11.334-2.906-11.334s-17.142-6.39-.87-12.49c-13.366 5.81-25.86-7.847-25.86-7.847l-19.468.582c-3.302-16.172-28.968-2.126-9.887-48.515-4.94-.873-10.46-2.325-15.98 1.742-5.52 4.066-21.21 12.784-30.508 4.066s6.1-21.208 6.392-21.498c.288-.29 20.63-10.75 23.533-17.723-.29-5.233-6.682-9.3-.872-20.63 6.683-10.752 47.648-20.922 66.255-24.407 9.006-4.07 13.074-11.914 13.074-11.914l2.032 7.554s41.26-12.204 43.292-18.015.873 5.23.873 5.23c16.27-1.454 36.9-15.398 39.804-9.008 13.658-2.615 39.81-14.237 39.81-14.237s9.005-.288 2.613 9.588c4.068 6.393-1.162 11.913-1.452 11.913-.29 0 1.743 6.39-3.487 9.878 1.744 5.522-3.196 9.88-3.196 9.88s2.326 6.682-6.973 10.168c.872 5.81-5.23 6.973-5.23 6.973s.872 6.103-3.196 8.718c0 4.648-4.648 6.973-4.648 6.973s2.905 1.742-1.162 4.647c-4.066 2.906-46.198 28.765-46.198 28.475 0-.29 30.798 5.52 32.83 6.682s25.28 16.564 25.28 16.564l-23.536 29.054s-26.148-2.905-27.31-1.453 5.52 2.033 6.972 4.358c1.455 2.324 3.777 7.846 8.426 7.265 4.648-.583-8.717 8.425-17.433 9.298 0 3.195 11.04 3.485 13.945.87 2.907-2.615-6.973 7.556-8.135 9.008s13.075-2.036 13.075-2.036-2.325 9.588-14.817 12.495c4.937 8.135 2.903 13.364 2.613 13.364s-8.136-8.135-15.69-6.682c2.033 7.845 8.136 15.11 9.88 16.272 1.743 1.162-13.656.87-15.69-3.49s-3.777 10.462 1.744 15.112c-6.392.288-11.913-3.49-11.913-3.49s-3.776 8.716-1.16 13.076c2.614 4.358-9.01-8.718-9.01-8.718l-22.08 9.298-4.94-8.426z" fill-rule="evenodd" fill="#9c3900"/><path d="M169.244 296.068c.516 0 32.077-.518 46.567-8.796 7.245 11.383 17.075 19.143 17.075 19.143l4.657-16.555s11.383.516 12.418 3.104c-1.552 3.103-2.07 7.243-2.07 7.243s7.76.52 8.277 1.552c.52 1.035-2.068 9.83-2.068 9.83l33.113 7.76s2.588-12.934 5.175-11.383c2.587 1.554 13.97 17.593 30.01 18.628s17.074-13.453 17.074-13.453l3.623 2.07s6.724-14.488 7.76-14.488 2.586 2.07 11.383 2.07c2.586 3.104 3.622 10.347 3.622 10.347s-9.832 9.833-6.728 17.594 3.622 5.69 3.622 5.69l71.404 17.075s3.623 5.69-2.587 8.795c0 .516-71.92-16.557-71.92-16.557s-6.728 7.76-11.9 6.207-1.55 3.104-1.55 3.104l77.607 6.212s5.694 7.245 1.554 9.314c-5.173.516-83.82-5.175-83.82-5.175s-4.656 9.833-9.83 1.555c-3.622 5.69-7.762-1.553-7.762-1.553s-6.726 5.176-7.76-.516c-5.693 4.14-9.315-2.587-9.315-2.587l-33.114-2.07-2.07 3.103s5.69 1.552-3.105 5.176c-8.796 3.62 52.775 2.068 54.328 2.584 1.552.52-4.14 5.175-4.14 5.175s31.563 2.07 37.254-4.657c5.692-6.73-2.07 8.795-2.07 8.795s24.837-1.034 24.837-2.07-.52 7.76-17.592 6.727c10.347 6.727 23.282 10.865 23.282 10.865s-12.935 3.106-27.94-.516c2.587 6.727 13.97 12.935 13.97 12.935s-8.276 7.244-26.903-10.35c5.175 9.314 1.035 12.937.517 11.9-.516-1.034-9.312-13.97-30.01-18.626 12.936 8.28 7.244 11.902 7.244 11.902s-6.725-11.9-17.59 0c-4.14-10.865-20.18-17.074-39.84-18.11-6.21-7.243-9.833-5.173-24.32-9.313-8.278-9.312-20.18-19.66-20.18-19.66s.52-13.973 14.488-12.418c1.552 4.656 1.552 3.104 1.552 3.104s15.524-5.694 20.18 2.068c6.727-11.9 16.04-1.78 17.592 2.36 4.458.652 26.904 1.26 26.904 1.26s-2.586-4.655-1.034-4.137c1.552.517 13.97-4.655 13.453-6.21-.518-1.552-1.035-6.725 1.034-6.208 2.07.516-17.593-2.587-28.458 5.692-3.623-3.624-1.036-13.455-1.036-13.455l-32.078-6.726-1.552 8.278s-9.314 1.553-8.796-.516c.518-2.072-2.07 7.242-2.07 7.242s-12.417-3.104-12.417-3.622 3.622-18.628 3.622-18.11c0 .52-10.35 1.035-24.836 11.9-4.14-12.934-36.737-30.01-36.737-30.525z" fill-rule="evenodd" fill="#ffc221"/><path d="M247.89 300.73l-6.726 30.012m12.934-18.63l-2.07 9.83m35.186-2.068l-3.104 9.313m60.54 53.805c-.516 0-16.557 2.07-18.628 1.552-2.068-.516 25.354 8.28 25.354 11.9m-35.702-9.818s-16.04-10.347-18.625-9.313c-2.588 1.035 16.038-.516 17.59-2.07m-32.083-.52s-16.556.516-18.108-1.035 16.038 11.383 19.143 10.35m-33.116-16.57c-.516 0-11.383-4.137-16.04-5.174 4.14 4.14 7.245 9.832 17.592 11.9m2.587-13.444c-.518-1.035-20.697-7.245-20.697-10.35 4.658 1.554 11.383 3.624 17.593 2.07m110.21-15.524l-2.07 9.312" fill="none"/><path d="M209.6 253.642s-21.73 18.625 0 29.49c1.036-7.243 2.588-8.275 2.588-8.275s18.11 6.724 28.975-9.315c-4.658-6.726-12.936-4.138-12.936-4.138s-17.076 0-18.628-7.76z" fill-rule="evenodd" fill="#ffc221"/><path d="M227.712 261.925l-15.005 12.935m61.217 76.903s3.46 3.814.354 8.47m72.443-4.652l-5.69.52m-40.877-3.63l10.348 1.55m17.486-28.16s.29 10.46-8.425 10.17c-8.715-.29-5.81.29-5.81.29M334.678 324.113s3.486 1.162 2.615 3.777c-.872 2.615.87 10.17-9.3 17.434-10.75 2.324-9.586-9.006-9.586-9.006M338.453 327.31s6.392-3.776 7.263 2.326c.87 6.1-5.23 17.433-9.587 19.177-4.362 1.742-9.3-.292-8.72-3.196m18.888-15.687s5.812-4.65 7.554 1.454c1.744 6.1-4.648 19.757-7.265 20.047m7.84-20.05s2.904-1.45 4.937.29m-14.236 20.63c-1.16.288-6.1.58-7.844-3.197m-18.297-6.974c-.29 0-6.102.29-6.102.29m28.47 22.67l-.58-9.59-2.323-3.196-4.07 4.068s-.582 9.588-2.324 10.46m2.323-10.758c-.288-.58-3.195-6.1-3.195-6.1l-4.94 6.1s-.58 8.717-2.324 9.59m2.32-9.886c0-.29-2.033-5.81-2.033-5.81s-5.81 3.196-6.393 5.52c-.58 2.323-.872 8.716-2.324 9.3m2.327-10.46s.582-5.23-1.162-5.23-9.588 7.263-9.88 13.655" fill="none"/><path d="M210.315 253.798s2.905-2.906 3.777-6.392c.873-3.49-1.162-7.266 2.326-10.46 3.488-3.197 49.393-22.664 53.17-26.44 3.778-3.778 10.752-11.914 11.624-13.657.87-1.745 3.486 8.715-4.36 13.363 8.428-2.324 13.948-4.938 17.434-3.777-3.488 4.94-12.783 13.076-17.14 13.076 10.168-3.777 19.464-6.974 22.08-4.94 2.614 2.034-12.494 12.204-18.596 12.784 10.17-2.614 23.826-6.682 25.568-2.324-5.52 1.744-3.777 3.194-15.108 9.587-1.452 1.163-8.716 1.452-8.716 1.452 8.716-.872 20.63-4.358 21.79 2.033-6.972 2.615-9.587 6.103-15.397 7.554-5.812 1.455-19.178 4.07-27.313 7.265-8.136 3.196-20.05 12.493-20.05 12.493s-25.858.87-25.858.58c0-.29-4.94-11.912-5.23-12.202z" fill-rule="evenodd" fill="#fff"/><path d="M222.518 251.77s.29-5.81 2.906-7.844c2.614-2.035 15.69-6.977 18.596-11.334 2.905-4.358-4.36 7.554-3.197 10.75m-13.075-.293s6.392 2.326 4.94 7.265" fill="none"/><path d="M724.13 254.694a4.646 4.646 0 1 1-9.29.003 4.646 4.646 0 0 1 9.29-.004z" fill="none" transform="translate(-512 -16.45) scale(1.032)"/><path d="M432.01 236.077l50.265 9.588s5.52-6.392 2.615-9.877c7.555-1.744 5.52-11.623 5.52-11.623s8.716-3.777 1.453-12.494c4.94-4.94-1.163-8.716-1.163-8.716s2.034-8.715-4.358-9.587c1.744-6.972-11.042-9.298-11.042-9.298s-26.44 7.264-45.034 7.845c6.1 6.1-2.327 9.878-2.327 9.878s4.94 3.488 3.488 6.392c-1.456 2.906.87 6.102-5.522 8.136 8.426 3.778-.872 10.17-.872 10.17s9.3 6.39 6.975 9.586z" fill-rule="evenodd" fill="#fff"/><path d="M427.065 225.33s44.456 5.23 46.49 5.23 9.878 2.616 11.33 5.232M429.39 222.71l61.887 1.452m-61.59-2.903s58.688-3.487 62.758-9.588m-61.027-3.198s58.983-6.39 59.565-5.52m-61.593-1.743s57.24-9.006 57.82-7.553M266.1 164.312s18.015 19.758 16.27 33.122M281.21 186.975s5.81 8.425 8.136 9.298 22.663 2.033 23.826 10.75c1.162 5.52-4.358 3.776-3.486 7.843 1.452 5.232 15.108 11.913 29.928 4.07m-13.656 4.07s12.203 18.015 30.217-1.452m-9.3 7.846s14.818 7.846 27.022-12.493M358.2 231.133s7.264 6.102 22.375-2.033m20.926-8.136s22.372 4.648 23.826 6.1m-15.402-11.03c.29 0 15.69.58 15.69.58m-25.283-9.302s26.73-1.744 30.218 3.777m-41.84-12.203s37.483 1.452 39.227 3.486m-30.802 34.86s6.392-1.743 7.265-.87m-21.788 16.56s8.427 7.265 19.18 4.07m-14.53 8.143s9.586 4.358 20.92 1.742m-17.723 5.512s9.587 6.392 15.98 5.23m-20.333-1.44s6.682 4.94 6.972 7.554m-16.268-1.75s2.033 10.458 9.298 14.235m-14.242-9.59s-3.196 13.657 4.94 22.084M363.44 297.38c0 .288-.58 6.39-.29 6.972m-52.01-59.85l15.69-.874s5.81-2.324 1.742-6.1m2.035 3.494c.29 0 14.818 1.162 18.597 5.52 3.775 4.358 8.424 13.074 11.04 14.528 2.614 1.452 3.195-.582 3.195-.582m-6.395-2.323s-7.843 13.365-1.742 17.433m-2.624-2.616s-6.973 9.298-1.453 13.946m-1.45-1.17s-5.52 9.01 1.164 15.108m-3.6-38.998c-.374.375-6.75 4.874-9 3.75m2.253 10.492s2.624 2.623 4.874 2.25m-4.563 11.384l4.186 2.872m-3.623 7.566l3.622 2.186M275.84 157.68s7.638 3.975 13.75 0c6.11-3.972 35.442-18.94 43.08-21.386 7.638-2.446 11.917-16.5 13.445-22.61m-5.804 16.5l42.778-12.53s7.028-5.803 7.332-16.496m-3.063 11.61s42.776-4.278 42.776-20.167m-6.716 11s44.915-12.22 49.193-16.804M298.14 167.46s27.192-14.057 31.47-15.585c4.276-1.527 14.052-13.746-.613-13.746M311.28 172.958c.307 0 22.305-14.36 29.637-16.192 3.973-5.5 1.834-11.306-4.888-10.083M342.75 153.097c.61-.304 11.915-.61 7.943 8.25-5.804 4.278-30.86 16.805-30.86 16.805m17.11-34.525l47.67-15.89s3.97-8.25-1.834-9.47m39.722-14.36c0 .304 6.112 3.666 2.446 9.165-6.723 3.973-38.498 11.61-38.498 11.61m84.324-25.664l-44.913 12.53m41.547-2.447L428.3 121.02m35.755-2.14l-34.525 10.388m28.102-.61c-.918 0-25.666 7.636-25.666 7.636m20.173.002l-15.89 6.416m11.917 2.14c-.612 0-13.75 5.804-13.75 5.804m9.777 1.22l-12.22 5.806m-8.866 7.335s1.527.61 1.223 2.444m-32.084 14.358s5.195 1.834.305 6.722c-2.443 3.362-9.47 2.446-13.747 8.556m46.756-83.717s6.418 1.526 1.526 9.776c-12.833 4.888-38.803 12.833-38.803 12.833s-1.22 2.137-4.582 3.972c-3.36 1.832-40.33 12.22-40.33 12.22m84.33-29.333s7.028 3.056 0 8.25c-7.944 4.582-35.748 13.138-35.748 13.138s-.306 2.445-1.528 3.36c-1.222.917-37.885 13.138-37.885 13.138M429.53 131.1s7.334 2.137.92 8.248c-7.64 4.582-32.084 12.833-32.084 12.833s-2.443 3.056-6.416 4.28c-3.97 1.22-29.33 11.61-29.33 11.61m68.742-28.72c2.14.915 7.944 1.832.918 7.332-8.25 3.666-28.415 11.61-28.415 11.61l-1.834 3.362-32.08 13.75m63.243-27.805s3.055 3.665-3.666 7.943c-7.334 3.973-23.22 10.083-23.22 10.083m23.224-9.474s3.362 2.14-.915 5.195c-4.89 2.446-24.138 12.53-24.138 12.53l-12.53 8.246M385.527 128.043c0 .306 5.194 4.582 3.36 9.472 4.585 3.362 3.667 7.028 3.667 7.028s6.416 3.667 5.5 8.86c6.417 1.528 6.11 5.196 6.11 5.196l-2.138 3.36s6.416-.306.916 7.943c3.362 1.833 1.834 3.974 1.834 3.974m-1.84-3.67c-.917 0-22.302 7.945-27.803 12.834M351.312 160.737s6.416-.305 5.5 6.722c7.334-2.447 5.806 4.58 5.806 4.58s8.555-3.36 7.028 7.334c5.498-1.222 4.582 4.278 4.582 4.278s4.89-.306 4.89 2.446c3.36-3.057 7.026-1.53 7.026-1.53s2.444-3.36 5.804-2.444m-34.832-14.97c0 .61-28.72 16.498-28.72 16.498m34.214-11.306l-21.693 13.444m29.03-6.722c0 .306-18.943 11.305-18.943 11.305m23.226-7.028s-13.444 11-16.5 10.39m21.078-7.03s-7.64 5.807-14.056 8.557m22-10.998s2.444 3.054-12.832 10.998" fill="none"/></g></g></svg>