<svg xmlns="http://www.w3.org/2000/svg" height="512" width="512" viewBox="0 0 512 512"><defs><clipPath id="a"><path fill-opacity=".67" d="M0 0h512v512H0z"/></clipPath></defs><g fill-rule="evenodd" clip-path="url(#a)"><path fill="#009" d="M0 0h512v512H0z"/><path d="M77 .006l436.91 436.91V.006H77z" fill="#fc0"/><path fill="#FFF" d="M461.41 470.395l-26.123-19.086-26.85 18.993 10.152-31.164-26.42-19.247 32.73.066 10.178-31.118 10.055 31.156 32.74.094-26.195 19.365 9.732 30.938zm76.714 10.447l-32.74-.094-10.055-31.156-10.178 31.117-32.73-.067 26.418 19.246-10.15 31.163 26.848-18.994 26.123 19.085-9.73-30.938 26.194-19.365zm-146.32-101.26L418 360.217l-32.74-.094-10.056-31.156-10.177 31.117-32.73-.066 26.418 19.246-10.15 31.164 26.848-18.994 26.123 19.086-9.732-30.938zm-60.333-60.416l26.196-19.367-32.74-.093-10.055-31.156-10.176 31.118-32.73-.066 26.418 19.244-10.15 31.166 26.848-18.996 26.123 19.088-9.732-30.938zM271.805 259.5L298 240.132l-32.74-.093-10.056-31.157L245.03 240l-32.733-.066 26.418 19.246-10.15 31.166 26.848-18.996 26.123 19.088-9.732-30.938zm-60.417-60.25l26.195-19.368-32.74-.093-10.055-31.157-10.177 31.117-32.73-.066 26.418 19.245-10.15 31.165 26.848-18.996 26.123 19.087-9.733-30.938zM151.72 139.33l26.195-19.367-32.74-.093-10.055-31.156-10.177 31.117-32.73-.066 26.418 19.245-10.15 31.166 26.85-18.996 26.122 19.088-9.732-30.938zm-60-60l26.195-19.367-32.74-.093L75.12 28.716 64.945 59.833l-32.73-.066L58.63 79.012 48.48 110.177 75.33 91.18l26.122 19.09L91.72 79.33zm-60-60L57.915-.035l-32.74-.093L15.12-31.284 4.945-.167l-32.73-.066L-1.37 19.012-11.52 50.177 15.33 31.18 41.45 50.27 31.72 19.33z"/></g></svg>