<svg xmlns="http://www.w3.org/2000/svg" xmlns:xlink="http://www.w3.org/1999/xlink" height="512" width="512" viewBox="0 0 512 512"><path fill="#00267f" d="M0-.2h512V512H0z"/><path fill="#ffc726" d="M170.667-.2h170.667V512H170.667z"/><path id="a" d="M256 173.312c-5.547 15.125-11.2 30.87-23.296 42.923 3.755-1.238 10.325-2.347 14.55-2.24v63.616l-17.963 2.668c-.64-.064-.852-1.066-.852-2.432-1.728-19.754-6.4-36.352-11.776-53.525-.383-2.346-7.188-11.306-1.94-9.727.64.085 7.66 2.944 6.55 1.58-9.558-9.9-23.53-17.025-37.1-19.137-1.194-.3-1.898.298-.83 1.685 18.004 27.713 33.065 60.417 32.937 99.22 6.997 0 23.957-4.136 30.975-4.136v44.885h8.854l2.025-125.356z"/><use height="100%" width="100%" xlink:href="#a" transform="matrix(-1 0 0 1 512 0)"/></svg>