<svg xmlns="http://www.w3.org/2000/svg" height="512" width="512" viewBox="0 0 512 512"><defs><clipPath id="a"><path fill="#808080" d="M60.84 337h175v175h-175z"/></clipPath></defs><g clip-path="url(#a)" fill-rule="evenodd"><path d="M-178 .092l428.835 256.025L-178 512.142zm1035.67 336.908L428.834 593.025 857.67 849.05z" fill="#00cf00"/><path d="M-178 .092l428.835 256.025L679.67.092zm178 848.958l428.835-256.025L857.67 849.05z" fill="#f00"/><path d="M679.67.092h-79.91L-178 464.448v47.71h79.91L679.67 47.8zM398.914 256.105c0 81.776-66.292 148.068-148.068 148.068S102.78 337.88 102.78 256.105s66.29-148.067 148.066-148.067 148.068 66.29 148.068 148.067zM-178 .092V47.8l777.76 464.357h79.91v-47.71L-98.09.093z" fill="#fff"/><path stroke="#00de00" stroke-width="NaN" fill="#f00" d="M279.986 200.26l-19.253.322-9.948 16.444-9.92-16.474-19.223-.41 9.305-16.824-9.247-16.877 19.224-.33 9.978-16.46 9.92 16.495 19.223.41-9.334 16.82zm-187.96 316.806l-19.254.322-9.948 16.444-9.92-16.473-19.223-.41 9.305-16.825-9.246-16.878 19.223-.33 9.978-16.462 9.92 16.497 19.224.41-9.334 16.818zm173.033-73.496l-19.254.322-9.95 16.444-9.918-16.473-19.224-.41 9.305-16.825-9.247-16.877 19.224-.33 9.977-16.46 9.92 16.496 19.223.41-9.334 16.818z"/></g></svg>