<svg xmlns="http://www.w3.org/2000/svg" xmlns:xlink="http://www.w3.org/1999/xlink" height="512" width="512" viewBox="0 0 512 512"><path fill="#f7e017" d="M0 0h512v512H0z"/><path d="M0 35.556V263.11l512 106.667v-120.89z" fill="#fff"/><path d="M0 156.444V263.11l512 213.334V369.778z"/><g transform="translate(-256) scale(.711)" fill="#cf1126"><path d="M695.74 569.72c-19.36-2.57-37.11-8.73-49.44-17.17-2.39-1.64-4.64-2.98-4.99-2.98-.36 0-.65 1.82-.65 4.07 0 6.37-2.56 9.58-9 11.25-6.16 1.6-15.56-1.63-23.18-7.95-7.89-6.55-17-11.55-24.71-13.55-6.35-1.66-14.78-1.39-20.87.65-2.83.95-6.05 2.29-7.17 2.98-1.11.69-2.36 1.25-2.76 1.25-1.08 0-.93-6.85.2-9.04 1.49-2.87 5.16-5.7 9.44-7.26 2.16-.79 3.93-1.8 3.93-2.25 0-.45-.73-2.1-1.62-3.65-2.9-5.08-1.71-10 3.35-13.87 5.18-3.96 13.95-4.64 21.7-1.69 1.95.74 3.77 1.35 4.04 1.35 1.02 0 .4-1.43-2.41-5.52-3.24-4.74-3.88-7.08-3.48-12.72.52-7.14 6.34-12.98 13.47-13.5 5.82-.42 9.44 1.54 18.03 9.72 25.65 24.46 53.54 37.94 86.07 41.59 8.21.92 24.73.43 34.42-1.03 29.27-4.41 58.76-19.13 81.79-40.82 6.38-6.01 9.45-7.6 14.68-7.62 4.55-.02 7.74 1.45 11 5.05 2.97 3.3 3.98 6.43 3.66 11.44-.21 3.21-.73 4.79-2.64 7.9-2.82 4.59-2.34 5.01 3.24 2.85 7.54-2.94 16.83-1.58 21.84 3.18 4.41 4.19 4.83 8.38 1.4 14.06-1.25 2.08-2.27 4.03-2.27 4.34 0 .57.95.84 5.53 1.58 5.99.96 9.42 5.41 9.42 12.21 0 2.04-.25 3.7-.56 3.7-.3 0-2.57-.83-5.04-1.85-6.98-2.88-10.95-3.62-19.11-3.57-6.21.04-8.35.33-12.68 1.74-6.63 2.17-13.72 6.35-19.5 11.5-6.37 5.68-10.38 7.47-16.58 7.42-5.76-.06-9.7-1.73-11.78-5.02-1.11-1.76-1.27-2.83-1-6.81.18-2.59.14-4.71-.07-4.71-.22 0-2.46 1.42-4.99 3.17-6.64 4.56-10.87 6.82-18.47 9.83-23.18 9.17-56.63 13.14-82.24 9.75zM706.34 525.17c-38.58-3.703-75.494-23.798-97.94-55.657-24.37-33.235-32.05-77.117-24.61-117.24 3.954-18.267 11.93-36.546 25.544-49.554-10.85 23.002-14.516 49.368-8.73 74.29 8.99 49.752 51.036 91.87 101.34 99.155 19.9 5.76 40.487-.324 59.496-6.493 41.935-14.78 73.88-54.583 77.777-99.08 3.336-24.077-.36-49.113-11.207-70.915 6.183 3.27 13.987 16.087 18.59 24.707 16.002 31.003 16.733 68.155 7.312 101.24-12.78 42.097-44.965 78.978-87.51 92.382-19.31 6.308-39.843 8.23-60.06 7.167z"/><g id="a"><path d="M512.02 469.9c-2.528-.396-5.316 2.092-4.363 4.697 1.823 2.633 4.964 3.92 7.798 5.18 6.792 2.722 14.18 3.782 21.47 3.605-2.512-.006.864.026 1.803 0 5.774.017 11.516-1.024 16.944-2.98 3.018-1.062 6.864-2.025 8.1-5.363 1.207-2.176-.98-4.348-3.185-3.912-3.072.67-5.944 2.064-8.99 2.857-6.572 1.854-13.494 2.57-20.303 2.012-4.98-.608-9.804-2.2-14.41-4.143-1.597-.705-3.096-1.733-4.865-1.954zM514.83 459.52c-2.556-.38-4.758 2.56-3.692 4.908 1.965 2.848 5.267 4.365 8.356 5.7 5.37 2.147 11.204 3.046 16.975 2.874-2.192-.006.752.026 1.564 0a37.592 37.592 0 0 0 14.325-2.832c2.773-1.078 6.17-2.124 7.324-5.177.896-1.677.212-4.116-1.9-4.247-1.93-.096-3.593 1.132-5.378 1.683-6.485 2.68-13.622 3.817-20.614 3.213-4.357-.56-8.52-2.168-12.47-4.03-1.485-.718-2.82-1.836-4.49-2.093zM518.28 449.57c-2.19-.263-3.698 2.21-3.33 4.182.328 1.733 1.884 2.898 3.17 3.96 5.33 3.898 12.083 5.558 18.626 5.34-2.54-.01 3.41.042 1.595-.007 4.145-.017 8.24-1.03 11.967-2.825 2.49-1.082 5.41-2.336 6.25-5.177.4-1.324.652-3.227-.84-3.97-1.565-.874-3.118.47-4.54 1.016-4.79 2.436-10.125 3.792-15.507 3.767-4.65.157-9.033-1.8-13.068-3.907-1.464-.746-2.67-2.043-4.32-2.38zM481.53 302.7c-3.257 3.26-.77 9.27-.946 13.543 1.688 13.158 3.785 26.484 8.697 38.87 6.016 12.102 18.79 18.573 26.534 29.268 2.767 5.156 1.785 11.356 2.368 16.995.458 15.366.316 30.743.047 46.11 6.938 3.483 14.473 6.987 22.455 5.648 4.73-1.13 13.512-1.832 14.496-6.543-.382-26.5-.63-53.01-.982-79.506-2.69-8.12-10.95-12.32-17.13-17.515a155.468 155.468 0 0 1-14.187-16.1c-2.62-4.417-12.867-6.01-9.16 1.677 2.173 6.654 7.72 11.61 9.11 18.602.302 3.83 4.876 10.878.972 13.113-2.484-4.222-6.082-7.815-10.682-9.958-4.432-3.304-11.76-4.68-13.36-10.517-1.174-8.28-5.414-15.782-10.886-21.986 1.41-7.436.005-16.737-6.423-21.49l-.92-.212zM491.44 304.19c-2.963.478-2.862 4.254-1.49 6.24 1.457 4.287 1.854 8.944 1.065 13.408 5.267 6.166 9.347 13.543 10.576 21.64.03 3.044 3.234 4.05 5.31 5.555 4.87 3.102 10.348 5.35 14.686 9.233.913.976 1.602 2.027.957.035-.677-2.546-1.026-5.357-3.02-7.284-2.736-2.94-6.15-5.563-10.134-6.46-.333-4.114-2.293-7.893-4.103-11.532-2.006-3.48-4.102-7.206-7.54-9.462.138-6.098.038-12.495-2.586-18.122-.77-1.446-1.902-3.163-3.72-3.25zM499.73 306.62c-2.064.613-1.67 3.16-1.016 4.716.99 4.316 1.144 8.774 1.063 13.184 3.79 3 6.163 7.35 8.322 11.587 1.352 2.83 2.635 5.75 3.154 8.865 3.076 1.018 5.768 2.946 8.17 5.077-.95-2.883-3.075-5.114-4.503-7.745-1.55-2.737-3.032-5.592-3.69-8.693-2.957-3.157-4.586-7.63-3.94-11.952.133-4.776-1.41-9.71-4.606-13.31-.805-.793-1.766-1.67-2.954-1.73zM509.16 307.97c-1.122.198-1.805 1.266-2.406 2.137-.233.873.837 1.812 1.008 2.76a21.77 21.77 0 0 1 1.416 10.426c-.086 2.502.81 4.946 2.084 7.065.368-1.563 1.816-2.687 3.386-2.84.57-.1 1.41.188 1.078-.683-.4-4.786-1.128-9.598-2.8-14.12-.65-1.614-1.385-3.314-2.784-4.42-.284-.2-.623-.374-.982-.325z"/></g><use height="100%" width="100%" xlink:href="#a" transform="matrix(-1 0 0 1 1440 0)"/><path d="M715.67 475.98c-13.493-1.285-25.667-11.12-29.83-24 .225-2.22 2.988 1.24 4.293 1.474 2.45 1.36 5.1 2.48 7.92 2.654 3.558 1.53 5.757 5.035 9.152 6.863 1.577 1.23 7.155 3.64 6.12-.263-1.308-2.04-2.207-4.625-1.082-6.962 1.892-4.15 4.802-7.763 7.73-11.226 2.153-.72 3.595 3.526 5.134 4.956 2.13 3.28 4.7 7.28 3.447 11.352-1.22 1.51-2.02 6.047 1.24 4.522 4.023-1.77 7.317-4.742 10.652-7.517 2.92-2.04 6.654-2.183 9.713-3.97 1.416-.36 4.37-3.195 4.985-1.623-1.676 4.488-4.482 8.507-7.482 12.21-4.86 5.55-11.432 9.726-18.786 10.903-4.346.796-8.806.964-13.207.628zM731.53 460.22c.297-2.708-.32-5.473-1.703-7.935-2.123-4.326-5.12-8.166-8.046-11.96-2.756-1.616-4.286 3.657-6.12 5.17-2.856 4.277-6.442 8.657-6.616 14.036-1.607 2.503-4.604-2.04-5.896-3.534-2.468-3.49-4.336-7.62-4.03-11.987-.292-7.037 1.057-14.042 3.62-20.582 1.935-5.583 5.076-11.006 4.757-17.105.224-4.59-.708-9.658-4.426-12.745-3.54-2.776 2.29-3.368 4.142-1.928 3.168.212 4.882 5.448 7.777 4.152 1.152-2.735 1.38-5.997 3.76-8.13 2.332-3.196 4.77 1.356 5.57 3.488 1.647 1.873-.093 6.507 2.582 6.628 3.206-2.247 5.492-6.022 9.59-6.844 1.664-.95 4.505-.127 2.313 1.785-3.034 2.843-5.626 6.4-6.18 10.63-.927 5.307.4 10.69 2.714 15.47 4.445 9.39 7.884 19.996 5.635 30.444-1.043 4.644-4.198 8.645-8.032 11.34-.484.293-1.25.273-1.413-.394zM726.73 389.63c-1.456-2.624-3.224-5.21-5.673-6.995-2.38-.005-3.85 3-5.468 4.573-1.135 2.11-2.513 5.638-5.306 2.88-4.444-2.594-5.23-8.276-5.202-12.96-.28-7.59 2.777-14.673 5.492-21.586 1.728-4.328 1.302-9.2.248-13.634-1.327-5.092-5.414-8.623-8.56-12.595.214-1.536 4.235-.697 5.748-.405 3.36.852 5.367 3.825 7.87 5.926 1.782-.54 1.055-4.14 1.884-5.833.062-2.38 3.233-5.52 4.54-2.11 1.96 2.167-.06 6.464 2.47 7.814 2.41-.893 3.6-3.53 5.866-4.72 2.23-1.52 5.378-1.69 7.778-.497.845 2.213-2.64 4.055-3.65 5.977-4.05 5.006-5.475 11.91-3.74 18.112 1.377 4.865 3.814 9.406 4.655 14.434 1.013 5.653.98 11.59-.484 17.16-.875 3.38-3.803 5.64-6.826 7.044-.746-.694-1.14-1.714-1.644-2.583zM711.61 326.89c-3.36-2.46-4.47-4.81-4.47-9.46 0-2.38.44-3.67 2.01-5.83 2.31-3.2 1.89-4.21-1.38-3.27-5.26 1.51-7.77.13-7.95-4.35-.08-2.19.38-3.12 3.33-6.66 2.36-2.84 3.22-4.33 2.75-4.8-.46-.46-3.25 1.96-8.98 7.79-4.57 4.65-9.71 9.4-11.42 10.56-9.84 6.64-19.24 7.67-23.53 2.56-2.2-2.61-2.08-4.08.46-5.66 1.17-.72 3.14-2.38 4.39-3.69 2.95-3.07 11.74-9.41 16.1-11.61 3.54-1.79 4.38-3 2.08-3-2.98 0-12.54 6.22-19.79 12.88-2.13 1.97-5.2 4.16-6.81 4.87-3.62 1.6-10.73 2.19-13.89 1.15-2.23-.74-6.3-4.58-6.3-5.95 0-.36.93-1.16 2.06-1.77 1.13-.6 3.16-2.07 4.5-3.24 5.8-5.09 16.79-10.33 25.51-12.16 2.77-.58 1.75-1.98-1.34-1.84-5.99.26-17.88 5.83-24.98 11.69-8.32 6.86-20.87 6.21-24.91-1.29-.7-1.29-1.11-2.5-.91-2.69.19-.19 2.66-.93 5.49-1.65 3.06-.77 9.12-3.28 14.91-6.17 9.11-4.54 11.81-5.51 18.08-6.52 2.82-.45 2.97-1.83.23-2.15-3.53-.42-8.94 1.35-18.5 6.05-12.28 6.04-15.72 7.08-22.19 6.7-5.9-.36-9.23-1.87-14.02-6.4-3.13-2.97-7.57-10.51-6.7-11.38.21-.21 1.65 0 3.2.45 1.72.51 6.65.85 12.59.86 8.31.02 10.52-.2 14.95-1.48 7.41-2.14 17.26-7.15 24-12.18 12.89-9.64 23.4-13.51 36.8-13.57 12.37-.05 20.24 2.81 27.21 9.88 2.36 2.39 4.37 3.94 4.7 3.61.31-.31.65-4.49.75-9.29 0 0 3.64-.35 4.41.67 0 7.79.09 8.4 1.22 8.4.74 0 1.53-.76 2.02-1.94 1.06-2.55 4.98-6.04 9.17-8.16 9.05-4.59 24.71-4.73 37.29-.34 5.3 1.86 11.18 5.18 16.78 9.5 5.62 4.32 17.11 10.1 23.9 12.03 6.87 1.95 18.98 2.44 25.19 1.03 2.56-.58 4.96-1.06 5.34-1.06 2.29 0-1.61 7.63-6.19 12.1-8.37 8.18-19.26 8.14-34.58-.12-9.55-5.14-20.97-7.95-20.97-5.15 0 .58.6.97 1.49.97 3.32 0 9.73 2.23 18.67 6.47 9.67 4.6 15.1 6.54 18.32 6.54 2.34 0 2.41 1.45.23 4.65-2.31 3.41-6.23 5.1-11.77 5.09-5.29-.02-8.23-1.18-12.96-5.11-7.91-6.58-27.62-13.92-26.86-10 .15.78 1.1 1.26 3.13 1.57 6.86 1.05 14.91 4.89 23.15 11.06 2.54 1.91 5.18 3.79 5.85 4.19 1.13.66 1.15.86.26 2.53-1.48 2.76-5.21 4.9-9.25 5.32-5.23.54-9.78-1.02-14.49-4.96-9.94-8.32-19.31-14.34-22.31-14.34-2.45 0-1.35 1.35 2.97 3.64 5.68 3.01 11.52 7.08 15.82 11.03 2.03 1.88 4.32 3.74 5.08 4.15 1.8.96 1.73 2.37-.25 4.96-2.02 2.64-5.36 3.8-9.69 3.34-8.64-.91-15.38-5.08-25.97-16.07-4.14-4.29-7.83-7.8-8.21-7.8-1.41 0-.58 1.91 2.15 4.97 3.38 3.78 4.03 5.91 2.75 8.98-1.13 2.72-3.01 3.35-6.87 2.31-3.95-1.07-4.57-.1-1.98 3.12 3.86 4.81 3.29 10.7-1.44 14.75-1.47 1.25-3.01 2.28-3.43 2.28-.41 0-1.45-1.07-2.32-2.38-3.04-4.62-5.71-4.59-8.67.08-1.03 1.63-1.9 2.95-1.93 2.94-.04-.01-1.43-1.01-3.08-2.23zM726.67 233.03l-5.13 4.06-4.6-3.47v27.74l9.73.12zM694.89 204.25c-1.02 13.11-4.35 22.26-8.98 32.35l11.1-10.29 7.72 9.17 8.36-9.33 8.53 7.88 8.2-8.2 8.52 9.97 7.4-8.2 12.54 9c-4.55-10.09-10.71-18.64-9.94-32.84-12.15 9.03-41.02 10.66-53.45.49zM716.95 197.56c-4.46.08-9.16.14-13.39.97-2.93.58-5.59 1.53-7.81 3.1.36 8.53 41 12.09 51.9.16-2.29-1.67-5.09-2.66-8.17-3.26-4.07-.79-8.57-.87-12.84-.94 0 2.34.02 4.69.02 7.04l-9.71-.03v-7.04zM724.9 153.97l-6.31.05v49.38l6.44.03zM724.89 155.24l-2.41 23.64 24.32 11.88-12.31-16.46 16.81-5.45zm-2.71-6.16c-3.69 0-6.42 1.38-6.42 3.02 0 1.64 2.73 3.03 6.42 3.03s6.4-1.39 6.4-3.03-2.71-3.02-6.4-3.02z"/></g><g fill="#f7e017"><path d="M249.636 400.94c2.837-.94 4.45-2.66 5.61-5.975.576-1.65.967-3.363.868-3.81-.242-1.06-1.465-1.004-2.816.12-.925.775-1.038 1.166-.775 2.745.675 3.982-.74 4.97-8.278 5.78-.746.08-2.908-.05-4.814-.284-3.583-.448-4.863-.092-3.562.99.392.326 1.387.767 2.212.973 2.012.52 9.4.17 11.556-.54zm15.623-.663c.425-.39 1.89-1.066 3.256-1.507 1.82-.583 2.76-1.21 3.527-2.354 2.21-3.292 1.8-6.13-1.45-9.956-1.765-2.076-2.547-2.02-3.955.285-1.216 1.99-1.187 2.12.562 2.574.917.234 1.8.91 2.283 1.74 1.905 3.3 1.344 5.34-1.48 5.363-2.56.02-3.263.384-3.953 2.04-.363.86-.654 1.78-.654 2.04 0 .7.967.578 1.863-.226zm-5.128-3.726c.483-1.307.654-3.66.597-8.46-.037-3.656-.18-6.757-.32-6.9-.428-.426-2.533.933-2.81 1.807-.142.455.092 1.508.52 2.333.653 1.273.74 2.46.54 7.445-.256 6.3.156 7.36 1.472 3.776zM248.1 393.55c.256-1.173.583-3.577.732-5.333.15-1.757.512-3.975.796-4.935.726-2.46-.007-3.108-1.948-1.728l-1.444 1.03.3 3.535c.276 3.185-.228 9.123-.96 11.427-.2.61.084.455.888-.484.647-.754 1.387-2.34 1.636-3.513zm-10.674 1.714c2.596-2.172 2.298-5.88 2.873-8.903-.06-2.008 1.28-4.416.415-6.174-2.426.444-3.92 2.742-2.68 5.03.104 2.66.01 5.553-1.357 7.904-1.116 1.537-4.652 1.154-4.49-1.025.888-3.275-3.037-1.68-4.57-.822-1.184.824-3.684.885-2.815-1.18-.574-2.75-4.11-1.03-6.032-1.04-1.813-.034-.15-3.677-2.753-3.038-4.84-.38-10.182.043-14.372-2.88-2.452-1.18-2.088-4.13-.81-6.037 1.523-2.606 1.96-5.866 4.38-7.89 2.394-2.296-2.26-1.326-3.31-.552-2.333 1.278-.165 4.567-2.076 6.392-1.117 1.893-2.586 4.506-5.17 4.146-3.726-.705-5.874-4.17-8.546-6.494-2.288-.457-1 3.713.18 4.59 2.338 1.75 5.07 3.026 7.888 3.782 2.804-.45 2.895 3.224 5.294 3.8 4.4 2.05 9.303 2.664 14.103 2.914 1.884.158.824 3.515 3.303 2.852 1.385.36 4.514-.516 4.67 1.094-2.1 2.493 2.016 2.437 3.54 1.99 1.95-.297 4.44-1.043 4.956 1.63 1.627 1.717 4.615 1.463 6.598.482.278-.162.54-.352.777-.57zM194.93 373.74c.79-1.004 1.97-3.03 2.624-4.51.647-1.486 1.62-3.17 2.154-3.747 1.252-1.35.555-2.183-1.464-1.735-1.067.234-1.5.625-1.68 1.55-.603 3.015-1.7 6.1-2.672 7.538-1.764 2.602-1.807 2.71-1.08 2.71.376 0 1.33-.81 2.118-1.807zm-26.638-16.698c-1.992 0-2.077 1.258-.136 1.934.94.327 1.736 1.116 2.376 2.404 1.89 3.76 3 4.43 8.02 4.864l3.222.29.157 1.957c.08 1.08.335 1.978.584 1.978.25 0 1.493-.54 2.752-1.18 2.36-1.196 4.6-3.983 4.6-5.71 0-1.13-1.884-2.355-3.598-2.355-.76 0-2.21.612-3.356 1.444-3.584 2.595-7.417 2.07-9.515-1.31-1.72-2.786-3.52-4.315-5.105-4.315zm17.393 6.933c.953 0 1.188.704.67 2.048-.357.925-1.516.953-1.864.043-.412-1.074.164-2.09 1.195-2.09zm134.912-4.373c-1.3.05-1.685.334-2.51 1.557-1.35 2.004-1.486 6.35-.242 7.885.775.953.89.975 2.532.292 2.29-.96 2.674-.925 2.667.306-.015 3.143-4.523 9.2-9.245 12.423-1.274.867-2.41 1.834-2.532 2.154-.342.896 1.408.697 3.555-.398 2.93-1.493 6.777-5.418 8.356-8.512 1.25-2.467 1.428-3.306 1.577-7.623.135-3.975.03-5.14-.647-6.464-.754-1.486-.995-1.62-2.887-1.62-.227 0-.434-.008-.626 0zm.157 2.773c.98 0 1.152.22 1.266 1.63.1 1.165-.107 1.876-.754 2.46-.882.795-.953.79-1.735-.4-1.094-1.677-.42-3.69 1.224-3.69zm-21.59 30.35c4.16-2.048 6.614-4.352 8.192-7.687.747-1.586 1.36-3.08 1.36-3.335 0-.576-2.05-1.53-3.28-1.53-1.223 0-1.472-.845-.945-3.185.513-2.282-.106-5.14-1.11-5.14-.36 0-1 .532-1.428 1.18-.654 1.002-.69 1.43-.206 2.887.71 2.16.15 3.776-1.785 5.155-.916.654-1.42 1.408-1.42 2.14 0 .62.077 1.124.17 1.124.1 0 1.11-.526 2.246-1.16l2.077-1.158 1.223.96c.668.526 1.223 1.387 1.223 1.913 0 2.53-7.22 6.783-12.175 7.18-2.638.214-3.086.122-4.004-.79-.745-.745-.96-1.37-.774-2.252l.57-2.73c.454-2.206-.492-1.907-2.127.667-1.345 2.127-1.743 4.395-.99 5.59.62.974 4.73 1.905 7.638 1.728 1.827-.107 3.634-.62 5.546-1.558zm27.762-15.488c2.617-2.61 3.726-5.788 3.74-10.702l.008-3.69 2.162-1.025c2.808-1.336 5.468-3.996 5.468-5.475 0-1.522-.676-1.444-1.9.213-.888 1.202-2.075 1.927-6.42 3.926-1.095.504-1.166.775-1.415 5.368-.293 5.298-1.01 7.282-3.97 10.902-1.812 2.204-1.876 2.496-.618 2.496.52 0 1.842-.903 2.944-2.013zm-28.5-2.957c.248-.762-1.196-1.302-1.82-.684-.265.264-.336.72-.158 1.01.412.662 1.72.44 1.977-.327zm39.302-10.177c.256-.76-1.195-1.3-1.813-.683-.27.27-.342.726-.164 1.017.414.662 1.722.44 1.978-.334zm-47.303-27.548c-1.017.484-1.544 1.58-2.25 2.42-.51.345-.102.668.19.994 1.795 1.93 2.554 4.54 3.406 6.974.838 2.873 1.89 5.958 1.017 8.952-.345 1.146-1.246 2.333-2.593 1.952-2.155-.134-4.276-.706-6.437-.683-1.923.1-3.41 1.85-5.377 1.66-1.256.082-1.203-2.573-2.37-1.863-.58 1.385-.294 2.93-.363 4.394.218.21.83.026 1.195.088h3.872c.273 1.337.24 2.87 1.2 3.933 1.344.478 2.856.065 4.132-.457 1.37-.637 1.553-2.284 1.94-3.567.41-1.378 2.216-1.017 3.282-1.558 2.606-.76 4.314-3.47 4.16-6.134-.167-4.07-1.72-7.896-2.897-11.748-.592-1.696-1.002-3.466-1.69-5.123-.08-.143-.246-.263-.415-.235zm-6.45 23.267c1.448-.094 2.077 1.685 1.77 2.866-.54 1.603-2.513.575-2.912-.58-.732-1.033-.28-2.422 1.142-2.286zM230.357 346.468c-.647-.015-1.372.227-2.09.732-3.776 2.645-4.743 5.774-2.176 6.997 1.885.903 1.41 1.963-1.557 3.45-4.245 2.118-7.993 1.855-15.11-1.09-1.75-.724-2.205-.447-1.8 1.153.39 1.572 1.828 2.432 5.397 3.243 3.84.882 8.484.597 11.47-.69 1.458-.626 3.186-1.94 4.644-3.527l2.31-2.54 2.69.336c3.313.405 3.377.44 3.377 2.026 0 1.26.072 1.287 3.116 1.572 1.714.163 3.968.313 5.02.313 1.344.007 2.105.24 2.553.867.596.832.952.875 5.96.427 4.677-.427 5.595-.39 7.707.327 1.5.512 3.15.718 4.4.583 3.585-.405 8.528-3.335 9.246-5.49.085-.263 1.387-.725 2.887-1.024 3.62-.725 3.776-1.514.398-1.934-1.465-.186-3.662-.72-4.885-1.203-1.23-.483-2.91-.89-3.733-.89-1.82 0-3.535 1.14-3.535 2.313 0 .768.27.846 2.425.625 2.027-.206 2.617-.092 3.684.754.704.554 1.173 1.208 1.024 1.443-.477.775-4.708 2.702-6.578 3-1.252.2-2.26.065-3.243-.44-1.642-.854-4.06-.982-4.515-.25-.192.32-.71.115-1.422-.554l-1.11-1.046L254.4 357c-2.553 1.06-3.492 1.016-3.492-.2 0-.555-.746-.62-4.508-.377-4.146.27-4.58.2-5.355-.668-.718-.797-.732-1.074-.22-1.892.47-.754.47-1.08.02-1.53-.447-.447-1.03-.44-2.665 0-4.125 1.103-5.29.485-5.29-2.737 0-1.934-1.11-3.107-2.533-3.128zm-1.024 2.958c.22 0 .406.135.69.42.363.362.555.995.398 1.4-.37.96-2.118.925-2.488-.042-.177-.47.05-.996.576-1.38.37-.27.605-.405.825-.398zM221.938 352.427c2.51-1.593 2.453-1.472 2.816-5.895.25-3.122.206-3.357-.64-3.357-1.23 0-1.87 1.35-1.87 3.925 0 1.65-.256 2.39-1.138 3.264-2.09 2.09-7.282 1.138-7.936-1.457-.22-.89.064-1.693 1.152-3.236 2.268-3.22 1.756-4.01-1.024-1.563-1.913 1.67-2.254 1.72-1.892.277.334-1.33-.362-1.856-1.92-1.465-.796.2-1.23.696-1.422 1.663-.185.946-.62 1.472-1.372 1.657-1.26.32-3.407-.875-3.407-1.892 0-.753 3.215-4.68 7.34-8.96 1.556-1.62 2.83-3.128 2.83-3.356 0-.228-.833-.412-1.85-.412-1.486 0-1.85.163-1.85.853 0 .47-2.075 3.193-4.62 6.06-5.306 5.972-5.747 7.216-3.123 8.81 2.112 1.293 4.822 1.194 6.948-.25l1.72-1.173v2.126c0 2.717.54 3.69 2.675 4.822 2.68 1.415 5.923 1.244 8.583-.44zm111.332-36.914c-1.968 1.175-.43 3.643-.13 5.283-.804 2.237-3.678 2.84-5.773 3.255-2.968.492-5.07 2.975-6.2 5.613-.612 1.713-2.09 4.37-3.698 1.76-1.4-1.416-3.97-2.54-5.624-.885-1.256 1.196-1.575 2.956-2.043 4.553-.742-1.227-1.074-3.055-2.646-3.443-2.508.353-1.602 3.516-.422 4.82 1.072 1.52 2.102 3.526 1.05 5.33-.926 2.17-4.13 3.635-6.013 1.78-1.758-.93-.582-4.243-2.314-4.425-.856.618-.926 4.086-2.297 2.206-.988-1.606-.463-3.806-1.673-5.25-1.43.176-2.58 2.64-2.104 3.96 1.908 2.573 2.692 5.8 3.436 8.866.462 1.228-.07 3.717 1.08 4.203.796-1.976.056-4.217.683-6.212 1.86-.234 3.932.616 5.885.164 2.793-.364 4.952-2.72 5.932-5.23.296-1.89-.056-3.804-.108-5.702 2.206.34 4.5.334 6.622 1.05 1.053 1.616-.334 3.876-.625 5.64-1.11 3.593-3.923 6.2-6.66 8.602-1.146.678-1.3 2.474.39 1.506 3.68-1.573 6.422-4.905 8-8.51 1.15-2.776.226-5.866.977-8.704 1.11-2.13 3.784-1.68 5.763-1.674 2.047-.078 3.794-2.464 3.11-4.453-.65-2.31 1.792-3.42 3.46-4.247 2.214-1.116 3.91-3.384 3.74-5.943-.09-1.31-.027-3.792-1.8-3.91zm-7.845 13.333c2.37.63-.43 5.157-1.69 2.29-.387-1.095.535-2.33 1.69-2.29zm-11 3.243c3.084-.18 1.976 4.323-.63 2.278-1.352-.68-.904-2.363.63-2.28zm-111.687 17.407c.085-.448-.142-.768-.548-.768-.86 0-1.38.753-.974 1.407.42.675 1.344.29 1.522-.64zm36.152-4.04c0-.66-.248-.91-.803-.803-1.21.228-1.344 1.764-.156 1.764.662 0 .96-.3.96-.96zm-44.735-21.702c-1.443-.297-2.35.924-2.845 2.09-1.08 1.812-2.397 3.667-4.333 4.627-1.392.387-2.91-.142-4.11-.86-1.434-.713-1.108-2.437-1.722-3.627-1.036-.814-2.874.35-2.833 1.615-.114 1.697 1.473 2.677 2.79 3.333 1.12.686 2.744 1.067 3.19 2.455-.03 1.18.445 2.53 1.88 2.074 1.608-.026 2.024 1.93 1.376 3.106-.66 1.323-1.107 2.874-.79 4.348.767.647 1.55-1.088 2.107-1.583L190 339.82c2.843.155 5.684.517 8.534.416 2.027-.037 3.753-1.288 5.042-2.755 1.823-1.905 3.32-4.145 5.403-5.79 1.48-.36.684-3.152-.864-2.346-1.394.523-1.833 2.1-2.8 3.103-1.645 1.993-3.324 4.015-5.4 5.577-1.51.627-3.25.353-4.802 0-.647-.566 1.287-1.027 1.556-1.657.89-.89 1.948-1.733 2.464-2.902-.494-1.077-2.003-1.164-3.067-1.186-2.62.314-4.623 2.514-7.27 2.72-2.01.07-.963-2.105-.058-2.847 1.77-2.104 3.686-4.086 5.536-6.12.525-.633 2.424-1.232 1.21-2.12-.425-.153-.885-.153-1.33-.16zm1.29 10.644c1.32.743-.845 1.96-1.757 1.793-1.196.36-1.217-.86-.155-1.104.598-.312 1.23-.636 1.91-.69zm-4.068 2.777c.752-.014 2.33.708.848 1.17-1.03.8-2.195-.812-.848-1.17zM223.396 339.015c0-1.003-1.8-.86-2 .157-.127.654.08.81.92.69.596-.086 1.08-.463 1.08-.847zm79.68-7.055c.184-.96-1.152-1.6-1.856-.895-.704.704-.057 2.04.896 1.856.44-.084.874-.52.96-.96zm-124.004-9.763c1.252-1.073 1.266-1.145.725-3.505-.768-3.307-.718-3.663.54-3.976 1.594-.405 5.64 1.764 6.536 3.5.697 1.343.675 1.436-.505 2.53-1.273 1.174-1.266 2.546.007 2.546 1.053 0 3.96-2.752 3.96-3.74 0-1.372-3.227-4.615-5.78-5.803-1.58-.74-3.158-1.08-4.985-1.09-3.27 0-3.712.705-2.83 4.51 1.038 4.458-.37 5.063-3.96 1.7-2.668-2.497-3.72-5.092-3.706-9.18.007-4.39 1.685-6.558 5.468-7.07 2.51-.334 2.446-.924-.135-1.308-3.77-.57-6.955 1.948-8.163 6.443-1.344 4.985 1.735 11.057 7.182 14.186 2.85 1.637 3.99 1.687 5.646.257zm148.508-5.468c.306-.307.555-.997.555-1.53s.52-1.678 1.152-2.54c.64-.86 1.16-1.74 1.16-1.954 0-.875-1.444-.846-2.582.057-1.166.91-2.04.93-2.04.042 0-.22.554-.675 1.236-1.01 1.694-.824 1.836-1.642.407-2.296-1.835-.833-3.677.69-3.87 3.2-.12 1.677.015 1.97 1.31 2.73 1.18.696 1.4 1.066 1.2 2.062-.34 1.728.378 2.332 1.473 1.237zm13.96-1.58c1.024-.917 1.856-1.962 1.856-2.31 0-.35.88-1.274 1.962-2.05 3.065-2.203 3.74-4.43 2.368-7.85-.533-1.344-2.21-3.2-5.86-6.485-2.8-2.53-5.382-4.6-5.717-4.6-.996 0-.818 3.66.19 3.98 1.82.585 2.924 1.33 5.79 3.913 3.328 3.008 4.864 5.816 4.025 7.38-.804 1.516-1.87 1.046-4.807-2.104-1.544-1.657-3.072-3.008-3.385-3.008-.342.007-.583.604-.583 1.444 0 1.052.56 2.055 2.083 3.747 2.482 2.76 2.724 4.416.86 5.88-.668.527-1.358.96-1.528.96-.164 0-.71-.824-1.21-1.827-1.037-2.104-7.388-8.81-8.34-8.81-.434 0-.648.54-.648 1.607 0 1.287.256 1.742 1.28 2.268 1.26.655 4.374 3.79 7.503 7.574.896 1.08 1.777 1.954 1.97 1.96.184 0 1.173-.752 2.19-1.67zm6.23-17.827c-.414-1.33-8.933-10.098-9.807-10.098-.455 0-.598.54-.49 1.934.12 1.692.305 1.983 1.47 2.29.726.19 2.973 1.954 4.986 3.91 2.004 1.956 3.768 3.442 3.91 3.292.142-.142.114-.74-.07-1.33zm-50.88 98.687a1.266 1.16 0 1 1-2.534 0 1.266 1.16 0 1 1 2.533 0zm4.472-1.493a1.266 1.16 0 1 1-2.533 0 1.266 1.16 0 1 1 2.532 0z"/></g></svg>