<svg xmlns="http://www.w3.org/2000/svg" height="512" width="512" viewBox="0 0 512 512"><path fill="#ffd520" d="M0 0h512v512H0z"/><path d="M0 512h512V0z" fill="#ff4e12"/><g stroke="#000" stroke-width=".521"><g fill="#fff"><path d="M281.885 162.5c-3.89-1.382-6.403.628-6.276 5.65.122 5.023 2.76 7.91 6.652 6.027l-.377-11.677zM285.3 153.093c-3.24-2.558-6.262-1.462-7.757 3.335-1.495 4.796.075 8.38 4.365 7.845l3.393-11.18zM290.7 143.99c-2.793-3.045-5.952-2.448-8.198 2.048-2.242 4.495-1.267 8.282 3.055 8.443l5.142-10.49zm-3.543 44.25c-4.77 1.758-5.274 8.287-2.258 12.305 3.01 4.018 8.537 4.77 11.55 0l-9.29-12.308zM281.635 174.426c-4.52-1.507-8.593 4.565-9.292 10.045-.878 6.907-10.673 9.166-5.272 19.59 1.13-6.656 5.526-10.297 9.04-10.548 3.517-.252 8.79-1.005 11.05-5.274l-5.525-13.812zm14.313 26.87c-5.275 1.256-6.03 8.288-2.262 13.31 3.224 4.3 13.31 3.265 13.06-1.004l-10.798-12.305zm14.945 42.316c.25-4.52-7.03-6.278-10.547-5.4-3.516.88-10.234-.125-11.803-3.892-1.255 3.014.565 6.278 5.65 7.91 3.85 1.237 3.768 4.02 2.637 5.275 2.89.502 11.427.502 14.063-3.893zM306.75 214.736c-5.147-2.26-8.2 1.183-10.17 4.52-2.888 4.897-11.802-1.38-14.815 5.15 4.08-1.76 8.235 1.99 10.17 3.263 5.524 3.64 16.197 2.51 17.705-6.028l-2.89-6.906zM309.762 220.758c-5.148 3.892-7.157 8.538-7.03 11.677.127 3.14 4.52 10.045 9.292 10.422 2.763-5.65 4.144-17.58-2.262-22.1zm-21.34 24.234c0-1.883 2.762-2.636 4.643-2.01 1.885.63 4.77 2.513 3.767 4.52l-8.41-2.51zm-28.385-10.296c-.5-2.26 3.14-6.152 8.037-4.018 4.894 2.135 5.525 6.28 3.513 7.91l-11.55-3.89zM271.963 238.838c-.377-1.256 3.15-3.764 9.168-2.26 6.027 1.507 7.505 5.387 7.284 8.413l-16.45-6.152zm-12.55-4.142c3.14-2.385 1.95-6.907-.88-8.287-5.15-2.512-3.264-9.04-6.53-10.297-3.263-1.256-6.403-3.516-6.53-5.776-1.63 3.14-.627 6.027 1.635 8.036 2.26 2.01-1.758 10.17 1.128 12.306l11.177 4.017zm-67.306-1.755c-2.637-4.142-8.916-3.39-11.552-.5-2.637 2.887-2.26 7.156.25 9.04l11.3-8.54zm15.07-6.153c-1.005-5.524-7.66-6.152-11.3-4.77-3.642 1.38-6.154 6.905-3.768 10.923l15.067-6.153zM217.223 226.03c2.385-4.645-2.26-11.55-7.534-12.556-4.404-.837-9.607-.816-11.3-5.148-1.07 3.767 1.757 6.153 5.02 8.288 3.265 2.134-.627 7.66 4.647 10.798l9.166-1.38zM216.724 226.194c-1.1-3.328 1.13-7.755 5.64-7.445 4.513.31 7.083 3.588 5.094 7.686l-10.735-.242zM226.762 226.444c-.62-3.45 2.208-7.52 6.63-6.58 4.424.94 6.507 4.548 3.966 8.327l-10.596-1.746zM236.738 228.027c-.448-3.476 2.58-7.4 6.952-6.24 4.37 1.16 6.273 4.867 3.543 8.513l-10.495-2.273zm-75.768 57.525c-8.414 0-10.468 2.003-11.678 10.673-1.507 10.798 13.184 12.054 11.677-10.673zM164.737 274.25c-12.933-4.897-19.964 15.57-32.772 11.93 4.583 7.28 15.692.012 19.84.752 7.03 1.256 22.223-1.38 12.932-12.682zm-8.417 28.002c-6.403-2.888-13.31 6.906-12.054 11.175 1.595 5.423 16.198 1.005 12.054-11.175zm-29.88 42.19c3.515 1 7.783 3.013 7.03 9.792-.753 6.78-13.56 20.592-25.112 21.346-11.552.754-15.696 14.69-25.615 10.797 9.29-1.755 9.29-12.304 16.574-15.567-5.274-1.885-8.036 10.046-14.816 10.046-6.78 0-10.044 10.796-18.33 10.042-8.29-.75-9.16 13.146-25.74 13.312-12.683.124-28.378 14.94-34.03 8.538 12.307-1.758 17.272-8.577 24.61-16.074 11.805-12.05 25.115-6.653 29.635-17.326a30.86 30.86 0 0 1-17.83 5.275c-7.723-.16-16.198 12.304-24.862 6.78 5.023-.628 8.288-2.763 13.56-8.288 5.4-5.66 13.326-2.002 19.59-7.784 9.793-9.04 18.206-1.507 27.623-12.807-2.637-1.255-8.288-.377-13.56 2.385-5.275 2.763-12.055-1.885-18.082 1.38.753-7.406 14.816-3.168 23.606-8.286 9.92-5.776 18.144-4.082 25.992-3.39-10.924-.062-15.193-10.423-30.26-7.41-6.572 1.316-11.803-9.04-18.333-3.767.187-3.89 7.03-7.03 14.063-3.263 7.03 3.767 9.865-3.296 23.857 5.525 5.775 3.64 15.695-2.262 21.973 1.632-.816-2.387-4.395-3.895-8.6-3.58 2.636-5.398 19.65-4.71 27.058.693zM137.616 336.276c-5.525-4.27-13.184.88-18.458-1.13 0 3.514 1.758 8.79 7.534 10.798 1.758-1.255 9.668-8.16 10.924-9.668zM146.282 324.1c-8.664-4.395-10.17 6.53-16.95 4.27.25 3.14 2.762 7.03 8.286 7.91l8.665-12.18zM151.43 314.178c-12.808-5.022-14.44 7.283-21.973 4.897 1.758 4.27 12.556 6.53 18.08 5.023l3.893-9.92zm17.573-53.866c-3.39-4.772-10.547-.88-11.677 4.77-1.13 5.65 1.632 13.562 6.404 11.804l5.273-16.574zM177.67 245.242c-5.902-1.38-12.683-.753-11.93 5.023-2.26 1.004-2.887 8.413 3.265 10.044l8.664-15.07zM181.56 241.35c-5.775-6.78-12.216-6.623-15.82-3.767-6.654 5.273-13.12 2.26-13.31 7.534 4.02-3.077 7.534.627 10.8-.503 3.264-1.13 5.65 5.148 14.69 2.512l3.64-5.776zm-13.937 101.337c.88 1.632 6.278 2.386 8.915-.377 3.495-3.663-.377-13.813-5.902-14.566-5.524-.754-6.026 11.427-3.013 14.943zM161.344 342.937c7.91 2.886 11.3-3.643 7.03-7.786-1.13 1.383-5.273 6.405-7.03 7.787zM131.712 353.732c-1.507 4.52-9.293 5.275-18.082 19.338-8.79 14.062-17.202 8.16-19.337 17.83 10.548-8.54 18.83-2.868 25.113-11.3 9.543-12.81 17.4-10.97 21.095-19.59 5.274-12.304 28.378-12.054 29.633-31.39-7.785-1.507-32.395 19.336-38.42 25.11zM329.855 163.88c10.045 3.265 10.296 16.323 21.846 20.592 11.555 4.27 12.686 14.565 22.1 12.054-8.788-2.385-8.16-12.556-17.326-15.068-10.75-2.945-14.817-19.337-23.357-21.847m42.82 72.45c1.758 4.018 1.508 11.175-4.77 13.06 3.39 2.133 8.41.124 11.172-4.52-4.144 9.164-1.38 17.452 5.147 19.084-3.14-6.403 3.894-9.417 1.635-13.56 4.144 1.757 7.784 7.408 7.657 10.923 5.4-6.027-4.018-14.063-2.26-19.713l-18.583-5.273zm-65.044 64.537c-6.152-5.4-8.778 1.412-11.804-.942-2.825-2.197-6.59-2.51-8.035-.314 5.275.19 2.698 4.27 12.932 5.275-10.235.69-8.35 12.117-15.194 11.552 7.283 6.906 11.05-6.153 16.952-4.018-1.758.5 2.762 4.645-.377 10.17 5.086-.126 7.156-7.158 7.787-10.8l-2.262-10.923zm-135.486 58.64c-2.26-1.88-8.79-2.762-11.3-1.254-2.512 1.505-1.633 1.882 1.38 2.135 3.014.25 6.906 5.125.377 5.398-3.013.124-2.008 7.407-8.287 7.91 2.574 3.14 9.92 1.067 12.556-2.384-.502 2.824 3.265 5.398 1.758 8.788 4.647.504 1.947-9.416 9.293-8.915-3.013.377-1.758 7.157 3.516 5.398-3.14 1.508-1.508 5.148 2.008 4.27-2.26.755-3.014 3.64.125 5.276 3.014-4.145-.376-18.96-11.426-26.62zM448.89 216.694c9.61 0 17.4-7.792 17.4-17.403 0-9.61-7.79-17.4-17.4-17.4-9.613 0-17.404 7.79-17.404 17.4s7.79 17.404 17.404 17.404zM357.98 237.715c5.276-5.023 13.314-7.534 18.835-3.767 5.525 3.767 23.86 8.287 32.9 2.01 9.038-6.28 13.31-9.544 17.326-8.79 3.017 4.52 6.657 6.654 11.177 7.03 1.382 1.508 6.28 2.763 9.042 2.386 4.016 1.005 8.914-.25 12.804-4.52 6.03.88 11.678-3.64 13.813-10.42 6.402-.755 6.78-7.912 2.762-12.683-3.768-.753-.878-13.435-14.567-10.923 5.778 3.515 1.38 10.547 6.155 13.812-3.266 0-7.472 1.38-8.476 6.277 1.254-3.39-.19-5.65-1.07-6.403.127-2.888-6.275-9.983-12.304-7.41 4.332.943 1.885 7.912 5.025 10.548-2.262.126-4.648 1.256-6.03 3.265-1.63-2.888-7.406-5.9-10.922-6.153 0-1.004-.188-3.013-.626-4.017-1.57-3.014-2.89-6.592-2.262-11.175-3.013 3.264-5.525 7.785-7.03 11.05-4.77-3.266-16.575 1.506-22.1 2.76-5.525 1.257-24.108-1.756-28.378-6.277-4.268-4.52-12.555-7.283-20.34-9.542-10.704-3.107-10.8-14.817-22.603-22.853-.25 14.566 21.85 60.773 26.872 65.795zM234.93 348.71c9.29 0 16.824-7.535 16.824-16.827 0-9.29-7.533-16.824-16.825-16.824-9.293 0-16.827 7.532-16.827 16.823 0 9.293 7.533 16.826 16.826 16.826zM194.743 335.776c3.39 4.395 9.166 4.145 11.552 3.768 2.01 5.272 8.412 5.148 11.175 8.034 2.763 2.89 12.178 2.64 14.94 1.004-2.508-.25-5.774-1.755-8.913-4.394-3.79-3.18-2.01-9.542-5.022-11.802 2.26-2.51 2.636-6.655 2.134-8.287 2.385-1.383 4.143-3.643 4.394-4.773 4.144-.25 7.784-2.385 9.292-4.018 2.135 2.01 7.533-.628 10.423 2.762.626-8.288-7.284-12.682-12.56-9.92-2.134-1.13-7.784-.376-8.788 1.13-1.758-.753-6.655 1.758-8.915 3.39 2.51-1.38 2.888-5.524 1.883-7.03 2.135-.88 4.52-3.768 4.77-5.902 3.015.502 7.534-1.507 9.543-1.005-3.263-4.27-8.662-5.776-14.187-5.4-5.714.315-8.16 4.333-8.915 8.665-3.39 2.01-4.52 8.79-3.263 11.175-1.947-.062-3.768 1.82-4.52 2.888-2.638-1.13-6.405-1.946-9.104-1.946m1.194-6.842c-1.13-3.264.367-6.203 1.13-8.79 1.946-6.59.754-8.286-5.148-7.407-.503 3.14 2.51 13.436 4.017 16.198zM187.528 291.45c1.507 1.506 6.844 2.197 7.41-2.575.647-5.477-1.57-7.597-6.342-5.462-.377 1.256-.817 6.404-1.068 8.036zM188.66 283.228c2.008.816 6.34 2.448 8.726-2.198 2-3.896-.628-6.906-4.77-6.655-1.006 1.13-3.015 5.15-3.957 8.853zM192.364 274c.502 1.507 5.65 6.53 9.417 2.888 3.768-3.64 3.768-9.04-1.882-11.05-1.507.25-6.027 5.526-7.534 8.162zM199.89 265.842c1.13 3.14 4.647 8.538 11.176 6.027 6.53-2.513 3.767-10.674.754-12.307-1.758.126-8.915 3.39-11.93 6.28zM211.825 259.563c-.502 2.762 0 10.296 8.915 10.17 8.914-.125 6.405-10.547 4.144-12.054-3.642 0-9.794.124-13.06 1.882zM225.257 258.05c-1.005 2.134-3.268 16.184 14.19 12.305 2.257-.502 8.16-13.436-14.19-12.305zM234.796 259.305c-1.755 1.758 2.763 15.947 14.567 13.56 11.803-2.385 1.885-15.82-14.567-13.56zM244.843 261.443c-1.882 3.892.945 15.443 15.508 15.443 13.2 0-.69-15.192-15.507-15.443zM256.27 264.836c-.946 2.157-2.103 14.405 15.067 15.443 12.43.753 9.418-16.826-15.067-15.444zM274.732 269.983c-2.132 3.768-4.394 13.185 14.44 13.938 12.068.484 4.648-13.685-14.44-13.937zM290.426 272.87c-2.763 3.767-.728 11.156 6.275 12.556 8.793 1.758 10.047-6.53 4.02-10.547-6.027-4.02-10.294-2.01-10.294-2.01zM298.967 274.624c-2.01 3.516-.764 12.055 12.554 12.055 2.764 0 13.314-10.8-12.553-12.056zM195.882 438.37c10.787 0 19.533-8.747 19.533-19.533 0-10.79-8.746-19.536-19.533-19.536-10.788 0-19.533 8.747-19.533 19.537 0 10.786 8.744 19.533 19.532 19.533zM339.144 154.34c-1.508 1.508-4.644 6.028-5.274 7.786-6.53 19.588 10.9 34.22 21.095 55.247 8.038 16.574 7.033 42.692-5.525 59.266-4.296 5.668-3.012 7.28-8.537 13.057-2.12 2.216-4.52 5.023-3.767 13.06 3.516-1.257 8.538 2.008 9.542 4.77 2.512-1.255 6.028-.753 7.283.754 4.268-2.008 7.785-1.004 11.55 3.015 3.267-.503 6.784 0 10.047 3.515 1.758-3.515 5.274-4.77 7.783-4.018-.25-4.52 4.27-7.784 8.288-6.027-1.255-6.027 4.27-10.547 9.545-8.79 4.518-3.515 13.56-3.766 18.08 1.507-8.037-2.26-7.784 6.28-14.566 5.525 1.758 5.023-2.763 7.91-7.28 9.543 2.886-1.38 6.025-3.014 7.03-1.256 2.512-2.197 7.533-1.38 8.79-.25 3.325-1.068 6.53-.252 8.035 3.766 4.52 2.762 7.533 9.794 4.27 15.068-1.004-5.525-4.77-5.274-6.28-7.534-3.515 1.256-7.032 1.256-8.036-1.005-2.008 2.01-8.788 3.767-11.8.753-1.132 4.52-5.025 8.287-9.546 8.287 1.258 3.516-2.26 9.544-5.02 12.557 4.27 2.258 3.01 7.283 2.007 10.296 6.53 1.004 1.004 6.78 12.305 10.546-5.522 1.757-16.322 0-17.83-6.78-5.525-.25-9.292-5.776-9.038-11.555-4.27-4.017-4.898-9.792 1.004-13.81-5.025 1.507-7.787-6.53-15.07-3.264-3.62 1.625-13.182-1.13-13.056-4.52-1.508 2.51-10.673 1.508-11.93-2.762-3.014 1.633-10.046-1.13-9.92-5.273-3.894 1.758-9.165-1.382-8.915-5.4-3.64-.502-4.017-3.766-3.766-6.53-3.266-1.506-2.385-4.645-1.13-8.41-2.26-2.512-1.255-6.028.503-9.293-2.512-2.51-2.008-5.525-1.257-9.04-12.055-1.005-27.155-3.912-61.776-14.565-52.234-16.072-66.298 21.596-54.746 45.202 13.328 27.236-1.507 33.15 3.014 53.49 4.77 1.005 7.282 5.02 7.03 9.293 2.826.123 4.835 2.76 3.83 7.784 2.386-.44 5.463.25 7.47 2.258 1.76-3.263 7.536-4.017 10.55-.25 6.527-.504 9.793 4.77 9.543 11.3 3.514 6.28 2.26 13.94-1.507 18.834.377-2.636 0-6.403-.124-8.66-.235-4.158-6.03-5.026-5.4-8.416-3.015.25-5.903-1.38-6.907-3.64-1.758 1.505-4.27 2.008-6.404 1.254 3.39 1.508 6.026 7.534 5.02 11.55 1.76 3.016 1.383 8.54-.752 10.927-1.005 4.894-4.77 6.652-9.668 4.517 2.762-1.755 3.767-4.894 3.64-7.533-1.757-1.506-2.636-4.395-2.76-6.154-4.898.754-11.68-3.39-12.93-5.027-10.787 0-19.533 8.745-19.533 19.535-.502-4.02-5.583-7.98-4.956-11.37-3.012-9.29 1.257-17.955 13.562-19.71-1.506-3.517 3.767-7.16 1.758-11.177-2.566-5.132-7.282-11.804-14.314-19.588 4.27-7.283 3.014-17.076.503-23.103-3.608-8.655-7.033-6.53-19.84 7.533-20.873 22.918-48.72 16.575-73.33 31.642-6.54 4.004-13.058 5.525-6.027-1.505 7.032-7.033 25.615-14.062 37.67-20.09 22.572-11.288 41.686-30.136 49.22-66.8 17.703-86.16 82.867-57.76 124.05-41.687 38.666 15.09 31.643-19.086 12.055-39.678-23.543-24.75-18.834-44.198-7.784-59.768 19.838-2.762 57.886 4.144 50.226 10.8zM409.087 365.994c11.87 0 21.492-9.62 21.492-21.49s-9.625-21.492-21.493-21.492c-11.87 0-21.492 9.623-21.492 21.493s9.623 21.49 21.492 21.49z"/></g><g fill="none"><path d="M327.093 155.34c-4.77 21.094-.754 30.637 6.28 39.928 14.53 19.205 26.116 63.033 9.54 91.658M352.202 262.2c2.008-.754 5.775-3.14 6.655-7.283m-5.15-1.883c.627-3.64 6.276-5.21 6.402-9.102m-6.278-5.094c-.377-3.767 5.65-7.157 4.77-10.924m-8.03-2.632c-.504-2.135 5.02-6.153 3.516-9.543m-7.658-3.64c-1.13-2.386 2.635-5.148 1.004-7.66m-7.034-2.894c-.377-1.632 1.947-5.21.692-7.344m-6.722-5.08c.5-.63 2.513-2.136 1.694-4.02m-5.835-5.084c.815-.44 3.262-1.193 2.95-3.013M204.54 416.764c-5.023-1.76-11.3.754-12.556 5.024m3.766 3.89c.627-4.266 7.157-6.15 9.165-4.143-4.143-2.258-6.152 5.776-2.51 6.03m33.78-101.203c-3.013 1.507-3.89 7.03 0 11.176m4.515-9.92c-2.13 1.758-2.008 7.03 1.132 8.287-2.636-1.883 0-5.148 1.885-5.274 1.88-.124 3.136 2.136.877 4.396m172.526 5.017c-7.03-1.882-12.68 6.28-6.278 13.563-.124-7.033 4.898-11.678 11.05-10.424m-2.83 4.864c-1.728 0-2.7 1.352-2.7 2.668 0 1.38 1.193 2.7 3.14 2.7 1.257 0 2.262-1.442 2.262-2.573m22.096-156.953c1.13 4.27 7.032 6.027 11.676 5.022m0-2.76c-3.64.125-6.653-3.266-6.403-6.154 0 2.135 4.898 3.14 6.403 1.758M206.295 339.544c-1.004-2.512 3.014-5.024 3.14-7.41.125-2.385 4.52-4.268 9.04.252m-2.134-26.74c-.877.376-1.63.878-2.384 1.13m11.05 12.55c-1.066.064-3.263-.062-4.457-.88m.066 5.654c-.88.44-2.826 1.193-3.956 1.444m-39.116 74.395c-.126 2.26 2.135 5.524 3.39 6.53m6.407-11.93c-1.255 1.883-2.008 5.15-1.255 7.408m19.96.128c-2.26-1.508-.753-5.4-1.004-7.91-.25-2.513 2.638-6.53 8.288-3.14m-28.374-3.263c2.26-.377 4.646-.253 6.153.374m22.473-7.534c-1.004 1.38-1.255 2.89-1.38 3.893m11.926-4.143c-1.758 0-3.265 1.255-4.018 2.512m-20.342-66.8c2.01.69 7.22 3.893 7.41 7.22m13.94-23.545c-6.153-.125-8.54-6.403-3.893-6.403m14.945 14.812c-2.386 1.003-1.255 5.147 2.135 7.156m-16.83 32.272c-1.194-1.505.376-5.9 4.27-4.583m4.894 50.415c.25-3.828 5.086-6.09 7.033-1.758m-24.863 12.678c-.315-4.205 1.82-5.586 3.703-5.837 1.884-.25 4.584 1.317 5.84 4.08m-46.96 4.9c.25-2.51 2.386-5.147 4.646-4.77m225.134-106.73c-1.635 1.193-2.7 6.53 3.513 7.032m-13.053 1.76c0 .626.816 1.505 1.32 1.882m28.313 8.163c-1.632-1.255-5.84 3.83-2.01 7.534M381.334 357c-.94-3.578 2.387-4.52 5.526-3.767m-13.56-21.598c1.882-1.256 3.767-2.637 6.153-3.265m-7.16 17.07c0-3.012 1.506-5.52 2.887-6.275m8.16-28.372c-.25 3.64 1.257 7.157 2.388 9.04m27.5-8.79c-1.823.565-3.454 1.255-4.143 2.762m2.13 7.534c.882-.755 1.886-1.634 2.325-2.26m45.14-107.362c0 3.515-4.395 5.4-7.28 3.138m16.826-3.014c1.944 1.507 8.66.064 7.092-3.83M460.06 232.06c-1.382-.25-3.767-1.758-4.77-3.013m18.583-7.407c-2.258.5-3.766 0-4.897-.503m-30.764 13.06c1.254 0 4.267-.502 6.34-1.57m-10.107-20.652c-1.632-.188-2.828.126-3.767.753m29.07 5.393c-.44 1.57-1.57 4.02-2.95 5.087M430.178 223.652c3.14-1.382 7.033 9.29 14.566 5.524m.628-11.055c-1.004 1.383-1.63 3.517-1.758 5.4M295.2 201.804c1.003-.126 2.762-.502 3.14-1.758M165.99 318.702c3.768 2.135 6.405 5.776 4.772 11.175m167.873-139.625c1.13.753 5.402.753 7.787-.125m3.016 2.637c-.126 1.758.377 8.412-3.012 9.793m1.257-.878c3.14 1.004 9.42.627 11.427-5.15m-4.4 4.892c1.633 2.51 2.133 7.408-2.76 10.044m4.017-5.895c3.64 1.257 12.053 1.382 11.172-5.775m-2.882 5.776c2.513 3.517 13.563 7.66 11.804.378m-21.974 9.787c4.266 1.004 10.295-1.884 7.783-9.417m12.05 3.77c.63 2.887 14.69 5.9 12.81-.628m-2.637 3.77c2.64 6.028 16.575 5.525 12.18-2.51m-2.26 6.27c2.764 3.39 15.07 1.382 10.174-6.78m-.134 6.656c7.66 5.775 16.575-2.512 6.906-8.54m4.396 6.66c6.783 5.4 15.07-4.395 9.168-7.157m-62.786 4.894c2.136.628 6.657.376 7.66-3.516m-1.692 2.634c-.25 5.714 9.357 7.91 11.804 1.32m-3.2 3.578c1.758 3.768 10.17 5.274 11.55-.125m-1.38 2.513c1.382 3.767 8.665 3.39 10.673-.503m-2.64 2.515c2.26 4.897 11.55 4.897 13.687-2.26m-1.627 3.134c3.64 2.26 11.427 1.38 10.797-5.65m-1.507 5.026c5.398 4.395 13.06.125 9.292-7.283m-.377 13.055c2.89-.503 4.394-6.278 1.382-7.785m-68.306 8.79c6.026-3.264 7.157-8.79 3.013-14.187m2.134 8.665c3.767 2.26 10.924-.125 12.18-5.65m-7.032 6.275c2.132 2.762 2.51 6.152-.253 9.29m2.007-5.773c6.653-4.143 14.94 3.516 8.79 8.162m-1.13-8.537c1.508-.377 4.144-3.14 4.394-6.278m-1.382 9.164c2.762-2.89 21.6 3.013 9.67 9.04m-.88-16.95c3.64 1.38 5.525 6.53 0 8.287m4.774 4.27c4.017-4.143 16.575-1.506 12.054 3.768m-3.014-5.405c2.26-7.66 15.695-2.888 11.3.25m-14.06-7.91c.376 1.507.5 5.274-2.01 7.283m13.31-8.788c.5 1.255.378 3.64-.753 5.148m9.286-5.023c.754 1.38 2.01 4.017-.754 6.152M312.78 165.51c.124 7.157 2.636 11.93 12.305 7.41m-9.294 1.13c-4.77 6.405.628 13.31 10.047 6.405m-24.74-3.268c6.53 7.03 18.206 1.883 10.672-8.79m7.913 14.82c-1.257 6.905 4.394 8.287 9.04 5.147m-33.4-10.046c1.19 6.943 8.29 12.43 15.195 8.162m-6.653 1.385c0 9.92 13.686 11.05 16.825.754m-4.9 6.273c4.395 9.04 13.937 5.4 17.077-.125m-26.747-14.313c1.757 4.395 5.274 9.292 13.435 5.65m-38.544-7.787c1.132 3.64 7.66 8.036 15.195 3.013m-10.553 1.637c-4.02 5.9 4.017 11.426 13.686 2.637m-8.912 4.648c1.63 8.288 4.894 14.942 16.698 4.27m-5.904 4.263c4.27 5.274 10.8 8.538 16.953-.376M322.694 200.29c-.377 6.28.878 9.418 5.775 9.166 3.86-.197 7.533-3.264 9.67-6.53m-10.547 6.537c-.127 7.158 5.52 12.808 16.07 5.525m-11.68 2.884c-2.008 5.4 4.018 14.188 15.82 9.668M307 203.56c-.75 6.905 5.652 11.55 15.948 2.636m-10.924 5.022c.377 5.65 6.78 12.43 16.198 2.637m-11.682 4.524c-.754 9.667 8.16 12.43 15.694 5.02m-29.126-12.182c2.01.126 3.64-1.632 4.645-2.888m-.378 9.916c1.758.377 4.774-1.256 5.778-3.264m-1.38 14.69c2.01 2.136 8.79.63 9.667-2.26m-2.13 2.136c3.766 8.79 13.81 8.413 17.952-1.506m-1.885 3.518c1.882 5.15 6.656 8.413 14.44 6.655m-10.673-1.38c-4.394 7.156 1.382 15.57 11.174 7.28m-8.787 3.39c-.5 4.52 3.644 9.667 9.293 10.295m-27.88-23.478c-1.507 10.17 5.776 15.068 14.944 9.668m-25.614-4.77c2.386 1.884 6.656 2.135 10.673.628m4.896 5.9c-2.262 8.54 6.53 14.692 14.063 5.15m-26.24-10.297c.128 4.396 4.4 9.167 11.805 7.786m20.715 8.79c-5.025 3.39-6.03 9.417 1.004 13.31m-13.314-15.073c.254 5.148 2.64 8.036 8.288 8.538m-15.69-11.173c-7.534 6.906-.127 14.942 8.788 8.162m-3.515 2.133c-2.512 7.91 6.906 12.682 11.927 4.646m-27.496-21.472c-2.763 7.785.754 12.933 7.156 12.43m-17.078-13.935c.377 4.646 4.394 6.278 8.915 5.273m-6.028-.375c-3.39 6.53 1.76 10.046 8.54 7.535m20.593 14.563c-1.13 4.144-.503 7.158 5.65 8.54m-5.275-2.635c-7.41 3.39-8.037 10.548-2.262 15.193m-3.705-23.164c-3.89 3.515-3.14 9.604 1.13 11.99m-34.085-34.907c-4.27 4.207-.19 15.82 9.226 9.48m15.258 5.208c-5.78 4.77-3.14 13.435 6.402 11.05m-15.95-14.693c-3.012 8.54-.123 11.552 6.657 11.677M295.45 246.373c-5.15 3.892-3.768 9.417-1.506 11.928 2.26 2.513 6.526 1.383 7.908-1.882m-17.206-13.43c-5.775 7.408 0 16.197 8.164 13.56m22.732 8.412c-5.902 2.135-10.404 7.494-6.783 12.18 2.134 2.763 11.426 3.14 14.06-7.534m-17.957-11.556c-3.39 4.897-2.262 9.543 4.017 11.928m-4.39-2.756c-3.644 2.01-6.03 4.395-5.15 8.79m-3.01-16.45c-1.38 5.902.25 9.544 3.89 11.3m-4.015-4.272c-5.65-.376-8.537 2.01-6.656 7.534m.5-6.153c-5.524-2.008-6.405-6.78-4.02-11.802m-.752 7.412c-6.03.25-8.665 3.264-8.665 7.408M277.11 240.094c-4.393 1.883-5.774 7.785-4.143 11.05 1.635 3.264 6.783 3.515 9.923 1.38m-18.08-17.07c-4.017 4.52.628 13.31 7.788 11.174m-18.083-14.693c-3.767 5.274.377 14.064 10.045 11.552m.5 24.484c-1.004-6.277 5.525-10.42 13.563-2.26m-3.89-12.676c-2.386 2.135-3.514 5.525-3.14 8.288m-27.374-32.398c-4.145 7.032.88 13.436 9.794 10.924m13.433 6.525c-5.902 5.9-3.894 11.803.5 15.193m-4.267-8.282c-8.915.125-9.416 10.42-2.132 13.686m-4.647-23.982c-3.64 2.51-4.77 9.417 1.51 12.18m-1.758 3.264c-3.767-1.758-8.288.376-7.91 4.77m2.255-4.645c-3.39-8.037-13.31-6.655-12.428 1.632m15.188-11.555c-2.132.377-6.403 1.632-8.034 4.897m.632-13.937c-4.017 4.52-.88 9.92 2.385 11.05m-14.31-23.733c-.754 5.4 1.38 8.036 8.16 7.534m-5.78-.623c-2.64 6.53.876 9.417 7.656 9.04m-6.152-1.006c-4.017 4.77-1.255 9.92 2.636 12.054m-4.516-6.024c-7.156-.88-8.287 7.408-5.902 11.3M230.654 226.288c-4.393 1.883-6.904 7.408-4.518 10.798 2.386 3.39 7.157 2.26 9.793.502m-8.286 1c-3.64 5.525-.377 9.67 3.516 11.3M213.58 225.656c-2.887 3.014-1.13 9.167 5.902 9.292 5.66.102 8.538-5.273 6.78-9.04m-7.783 9.038c-2.26 5.023-.88 10.422 7.658 9.542m3.642 7.914c-5.273-2.385-12.305 0-9.29 6.28m-.756-15.195c-2.134 3.013-1.38 7.283 1.005 9.92m-1.38-1.887c-3.516.63-6.906 2.512-4.772 8.037m-.508-4.518c-4.52-1.382-10.297 1.882-6.78 6.528m-.748-4.392c-3.892-.628-8.537 3.515-4.77 7.66m-1.51-3.393c-3.514.88-7.658 4.897-4.017 8.036m21.725-27.748c-5.023 2.26-5.526 7.91-3.14 12.054m-2.14-22.475c-7.535 2.89-7.41 12.934.878 16.073m-3.516-2.266c-4.52 2.637-5.4 7.66-2.385 10.924m-5.524-28.496c-3.014 1.004-2.762 10.296 5.274 10.045m-13.557-6.91c-6.028 4.017 1.255 14.188 11.05 6.905m-5.403 2.51c-.88 4.143.25 8.663 6.906 9.166m-6.532-3.636c-4.77 1.758-5.65 11.552 3.015 12.305m-18.2-21.22c-6.153 5.65 5.022 10.546 9.166 2.385m-17.706 7.028c-3.014 3.642 7.533 13.185 12.18-2.762m1.126-.247c.25 3.766 2.512 6.026 7.157 6.278m-.12 3.644c-7.41 1.13-9.795 10.422-1.508 12.43m-12.183-13.686c-.25 3.516 3.39 6.404 7.534 5.776m3.77 7.656c-6.78 1.507-7.66 10.296-1.633 9.794m-3.14 8.16c-5.652-1.693-5.778-8.412-.755-10.922M184.705 277.26c-4.77 2.89-2.888 9.795-.377 10.8 2.51 1.004 4.52-.252 4.772-2.386m-.378 9.667c.502 3.266-11.615 2.01-5.4-8.16m-.068 8.73c-4.08 6.404 2.574 11.615 6.78 6.154m-6.21 1.57c-1.633 5.147 4.582 8.852 8.6 4.833m-22.164-53.054c-2.26 4.646 9.04 6.404 9.793-3.14m-12.93 10.05c-2.26 9.04 14.817 7.158 10.422-4.52m.374 6.027c2.384 1.38 9.542 1.506 11.3-6.153m-5.147 6.402c.502 2.384 2.637 5.272 4.645 6.15m-12.804-3.764c-.753 4.897 4.143 8.915 9.794 8.538m-8.92-3.764c-2.762 3.766-3.642 11.05 5.023 11.55m-18.204-10.295c-1.382 3.893 6.78 7.91 11.55 1.507m-14.062 8.407c-.69 2.95 6.655 6.905 10.798-5.65m-3.263 6.405c1.757 3.14 7.66 5.65 11.3-.502m-5.904 3.77c-1.506 4.395 2.637 8.54 7.66 7.283m-17.074-8.29c-1.005 6.28 6.278 9.92 10.798 6.656m-15.572-3.893c-2.134 8.035 8.162 11.05 12.054 5.02m-2.632 2.39c.378 4.52 7.41 8.41 12.934 4.645m-25.49-.88c-.503 2.01 7.91 4.02 9.164-3.013m-4.267 4.77c2.01 5.147 8.79 6.403 12.683.125m-2.26 2.51c.878 4.772 7.03 7.408 12.43 4.144m2.257 1.887c-1.382 6.404 5.273 11.552 9.416 8.036m-20.087-9.167c-2.01 7.032 6.78 11.05 11.676 7.157m-22.223-10.675c-.502 6.53 4.646 10.422 10.547 7.533m-21.724-6.9c-1.758 4.27 7.534 7.785 11.928 4.144m-17.708 7.532c2.386 2.763 10.673 0 11.426-6.152m-2.253 4.514c3.012 3.516 10.17 5.4 13.058-2.134m-2.514 3.897c-.125 5.4 9.544 9.293 12.682-.627m11.358 1.947c-.88 2.636 1.193 6.842 5.525 7.344m-13.498-8.974c-.627 3.013 3.768 7.218 8.414 5.524m.884 1.253c-1.255 3.265-.19 7.973 4.206 7.91m-3.77-1.817c-3.264 2.76-1.883 7.66 2.827 7.848m-4.52-3.208c-4.645 3.138-3.012 10.044 3.14 9.67M178.3 321.463c0 6.78 8.413 7.785 10.046 1.507m-3.267 4.016c-1.257 4.018 2.008 7.91 7.156 6.78m-6.15 41.69c1.13 1.634 5.775-1.13 4.52-3.89-1.256-2.764-6.177-1.262-5.65 1.63m4.514-2.764c.628-5.525-5.9-6.403-7.533-1.632m2.385-2.76c1.633-2.762-3.892-6.53-6.152-2.512m2.01-1.638c1.507-4.02-4.77-5.775-5.273-2.135m-1.38-5.275c.754-2.008 7.785-.753 4.772 3.39m5.398 5.027c2.763-2.512-1.883-7.66-4.77-5.775m23.35 13.434c-2.198.25-4.458 1.694-2.826 6.34 1.132 3.225 5.965 3.39 6.655 1.444M199.08 372.88c-2.135-1.38-6.78.943-4.646 5.464 1.607 3.403 5.65 2.01 6.278.25m-13.628.753c1.066 1.882 6.402 1.07 7.345-1.004m-3.704-5.213c1.13-.754 3.202.186 3.64 1.128m-4.014-32.078c-3.64 2.386-1.38 9.67 4.27 7.784m-5.402-1.88c-2.887 2.26-.25 9.293 5.15 6.657m-4.268-.002c-2.01 2.01-.063 7.595 5.15 6.53m-5.906-3.768c-1.13-.504-4.082-.127-5.338 1.754m2.077-27.183c-2.762 2.638-1.444 8.038 3.704 8.477m-4.71-2.953c-3.957 1.946-3.957 9.792 3.954 10.107m-4.267-1.253c-2.197 1.758-1.13 8.538 4.52 7.657m-2.703-.247c-.816.815-.942 2.89-.25 3.767m-2.26-6.34c-2.01.06-4.647 1.507-5.338 3.577m-3.64-7.282c.752-2.01 6.97-1.882 7.407 4.02m.626-7.03c-.88.187-2.575 1.003-3.014 2.7m.314-21.093c-2.7 2.448-4.018 10.17 4.206 11.676m-9.666 4.268c0-2.074 5.588-3.832 7.534-.754m-11.114-10.486c.816 1.57 4.708 3.705 7.094 1.947m-27.31-14.248c-.127 3.642 2.887 6.906 7.03 6.404 4.144-.5 5.023-4.143 3.767-6.53m-3.138 6.656c-2.762 3.39.628 8.162 3.767 6.78m-.625-9.166c1.633-.63 7.032-1.382 8.665 1.13m-26.12-.125c-1.257 1.884 6.53 3.767 9.165.126m-2.637 1.88c-.252 2.51 1.004 6.78 7.408 5.023M159.464 334.645c1.004-2.134-3.767-5.65-7.408-1.758-3.642 3.893.502 8.288 2.762 6.78m-12.054-13.43c-1.883 3.265 5.4 9.23 9.543 3.705M137.928 331.884c-2.637 2.7.628 7.66 4.584 6.152 3.955-1.506 3.578-5.65 2.637-6.716M132.843 336.907c-2.135 1.946-.064 6.528 2.887 6.528 2.95 0 4.772-2.32 4.206-5.27m4.895-1.632c-.376 2.888 3.893 4.896 6.656 2.2m.13-5.28c.378-.63.065-1.697-.563-2.2m-22.79 9.547c-2.447 1.946 2.827 7.345 6.154 2.385m12.74-3.454c-1.57 1.506.94 5.46 3.45 4.268m-12.047-1.506c.377 2.698 5.65 4.706 8.978.566m-6.092 2.133c-.816 1.697.817 4.398 2.825 4.02m47.15 11.495c-1.945 3.83 4.27 8.288 8.79 3.64m-4.273 2.07c-.942 2.07.188 4.96 1.883 6.025m-7.78-1.696c.44-1.885 3.14-3.644 5.588-2.763m-8.856-2.197c.376-1.693 2.636-3.39 4.332-2.948m143.516-75.403c-8.914.126-5.148 14.44 2.513 11.552m-5.4-1c-1.757 2.89 1.633 7.473 5.4 4.773m-1 .563c-2.64 4.395 6.78 11.112 10.547 4.206m-3.012 2.635c.124 4.145 12.178 6.78 10.423-1.506m-1.132 4.518c2.886 4.897 13.686 5.4 12.555-1.883m-2.383 5.025c2.26 3.265 12.808 5.274 12.43-1.507m-55.253-39.8c1.505 3.89 6.653 5.272 12.305 3.012m-15.565-.252c3.516 2.26-1.632 12.556-7.03 8.412m7.03-2.008c3.893 1.883 8.664.502 10.046-5.023m-2.386 4.265c.377 2.888 4.52 5.148 9.92 4.018m-19.592-1c5.024 4.27-2.26 13.06-5.525 9.04m7.412-5.78c2.386 1.76 8.538.754 9.165-3.89m-2.76 3.89c.503 3.014 2.89 4.144 6.278 4.27m-14.063-.127c2.51 3.516 8.788 4.52 11.55-.126m-2.768 2.637c-.25 3.39 3.517 6.153 7.41 5.4m-21.09 2.135c3.262 1.632 6.78-4.52 4.016-8.79m-.25 15.318c3.894.252 4.395-5.65.755-8.915m8.16 14.313c3.267-.753 2.26-7.91-5.65-8.538m15.565 13.82c3.14-.88.627-8.79-8.034-8.288m19.968 11.048c2.132-3.264-4.898-8.79-10.673-5.9m16.57 10.416c3.894 1.13 6.53-9.165-5.775-7.533m12.935 7.533c3.394-.878 5.78-7.03-4.14-5.022m11.676 5.53c3.012 1.506 4.394-7.283-4.775-4.897m-45.83-22.482c3.766 2.135 9.668-.376 9.164-5.148m-1.505 4.15c1.257 2.26.753 6.655-1.633 7.785m2.006-2.512c2.513 1.004 5.902.126 7.91-3.892m-3.51 3.892c.75 1.758 1.004 5.274-.63 7.032m1.26-4.022c2.764 1.507 6.027-.502 7.408-3.39m-1.758 2.51c2.008 1.255 3.766 7.156.377 9.543m1.884-2.758c2.385.126 5.902.126 8.16-2.888m-1.632 1.633c2.135.627 4.644 4.143 3.767 7.282m.124-1.136c2.39-.25 6.53-1.884 7.66-4.772m-1.13 1.886c2.01 1.13 3.392 3.515 3.14 6.278m-.005-2.012c2.384-.125 4.52-1.38 5.146-4.018m-.624 1.764c1.76.628 3.894 2.637 4.02 5.023m-.252-1.513c1.758-.25 3.013-1.38 4.144-3.14m4.77-.245c2.263 2.26-.75 9.794-5.397 8.413m-42.82-160.598c-4.65 2.762-17.834 1.883-11.305-9.04m12.56 1.63c-9.165 3.64-20.47-3.39-8.665-11.05m-3.137-2.507c-7.66 0-12.808 12.305-2.51 16.574m-27.247-11.427c-2.008 3.892 5.148 8.16 10.046 4.27 3.792-3.016 3.512-11.176 1.253-14.315m-15.192 19.335c-2.51 8.287 15.95 8.79 13.06-4.395m-14.065 16.703c.627 6.28 17.706 4.27 12.178-8.412m2.01-3.52c1.38 1.883 5.148 5.147 11.55 4.52m-8.54-13.436c.566 2.26 4.395 4.018 9.293 2.323m-180.62 188.722c-4.33 3.078 2.325 7.91 4.772 2.574m-8.164-.186c-4.33 3.074 2.324 7.907 4.772 2.57m-8.352-.246c-4.333 3.078 2.322 7.91 4.77 2.574m-8.537-.437c-4.144 2.197.69 7.596 4.896 2.825m-8.976-.75c-4.144 2.194.69 7.595 4.897 2.824m16.14-9.298c-.064 3.2 6.027 4.52 8.223-.253m-4.393 3.21c-1.884 2.385 1.57 5.336 3.453 4.267m-11.557-4.712c-.19 2.7 5.084 4.27 7.66 1.32m-4.767 1.512c-1.695 2.196 1.632 5.147 3.767 4.266m-10.17-4.65c.187 2.136 3.2 4.583 6.466 3.202m-4.524-.315c-1.256 1.13-.628 3.77 1.13 4.586m-7.66-4.774c-.5 1.946 2.827 5.4 6.217 3.14m-5.53-.878c-2.01 1.57-1.76 3.955.815 4.267m-5.644-4.517c-.25 1.316 1.446 3.452 3.58 3.2m-14.32-3.325c-2.008 1.066 3.14 6.53 6.34 1.443m-11.3.812c-2.51 1.195 3.704 7.22 6.467 1.07m9.796-1.32c-1.947.44-3.202 3.266-1.57 4.394m-4.772-3.388c-.25 1.13 2.136 3.013 4.083 2.324m-5.712-1.817c-1.882 1.194-.878 4.52 1.32 4.018m-8.035-1.825c-1.758 1.316-.565 3.955 1.884 3.328m1.313-3.514c.064.69 1.633 1.758 2.952 1.32m-12.24-2.45c-2.198.94-2.073 6.466 5.336 3.453m-10.297-1.256c-3.077 1.508-2.072 5.652 4.646 1.697m.563.317c-.816.627-1.694 3.39 1.38 2.32m-7.027-1.01c-1.255 1.13-.44 3.455 2.324 2.574m-8.79-2.19c-2.26 1.32 2.7 3.077 6.027-.44m-4.522 2.07c-1.005 1.004-1.005 3.955 1.632 2.89m-8.036-1.697c-1.505 1.13 1.068 2.64 5.777.565m-3.896 1.065c-1.757 1.443-1.57 3.263 1.005 2.698m-6.215-1.878c-1.945 1.758.88 2.95 4.27 1.505m-4.207.445c-3.328 1.505-1.883 4.267.188 3.2m110.94 6.402c-.772 1.66 1.758 3.013 4.143 2.636 2.292-.36 4.484-2.25 2.763-4.895m.12 3.265c2.26 1.758 6.28-.25 6.28-2.89"/></g><g fill="#fff"><path d="M331.984 116.667c-10.046-5.023-30.888-14.315-36.79-6.78 5.398-2.26 21.22.125 34.278 12.18l2.512-5.4zM338.076 116.137c-11.616-13.53-18.457-10.502-26.81-15.163-7.845-4.38-20.34-5.274-22.762 1.69 11.463-5.582 21.986 3.003 28.45 4.04 8.88 1.427 13.89 8.29 16.488 11.448l4.634-2.015zm43.758-1.732c-6.03-13.812-18.918-10.205-24.612-16.072-8.285-8.538-29.253-16.448-37.918-10.547 19.084-1.005 27.212 13.155 37.417 18.08 7.284 3.517 15.068 11.05 25.114 8.54zM359.237 112.9c-10.296-12.808-26.12-24.11-33.4-19.84 9.542.502 12.555 7.157 19.338 11.427 6.78 4.27 3.766 10.42 14.062 8.413zm-48.976 22.604c-10.8-4.018-31.892-6.027-41.687 6.278 16.325 2.763 40.934 1.256 41.688-6.278zM308.256 140.278c-10.8-5.023-19.233 1.992-29.383 1.004-19.335-1.884-33.147-.754-34.905 8.538 11.05-9.92 29.634-1.758 37.167-3.766 7.534-2.01 35.41-.252 44.197 3.515-4.52-5.525-11.55-7.032-17.076-9.292zm33.9-28.76c-2.51-8.286-2.386-17.075 10.045-16.448-3.14-3.892-14.69-5.9-16.574 8.665-13.686-10.045-28.63-11.803-31.39-3.14 7.03-6.026 17.954-1.632 31.012 13.185 1.13-.628 4.144-1.883 6.907-2.26zM323.326 122.946c-7.784-5.022-18.333-13.184.127-16.45-7.91-4.268-19.464-2.384-18.207 12.18-21.096-8.538-36.244-5.656-39.43 2.763-3.515 9.29 9.547 14.44 11.805 8.538-2.385 1.004-10.546-1.758-6.28-7.032 4.272-5.273 26.15-1.314 46.964 9.544 5.775 3.013 25.614 2.51 5.02-9.544zM317.796 136.76c-6.006-12.263-25.49-1.13-29.416-13.01-5.366 17.404 27.706 7.774 29.416 13.01zm123.934 13.307c4.085 2.03 7.618-1.162 1.368-3.665 4.09 2.03 7.654-1.086 1.404-3.59 4.09 2.03 7.654-1.086 1.404-3.59-1.667 1.678-4.053 7.83-4.176 10.844zm2.13-23.603c9.04-9.543-.752-12.808 10.295-22.6 9.042-8.014 1.726-13.355 10.3-19.59 2.762-2.008 8.787-6.026 9.29-10.044 3.64 9.04-11.302 10.296-10.298 24.86.64 9.275-5.63 8.465-8.034 24.11-.504 3.264-2.762 10.547-11.554 3.264zM447.884 130.73c5.02-10.798 10.787-10.59 13.56-14.816 5.273-8.036 16.447 1.382 25.866-5.776-1.632 10.17-14.313 6.53-19.838 13.06-5.525 6.528-10.046 9.542-19.588 7.533zM449.14 134.248c8.79-7.032 15.268-2.34 21.346-6.027 15.318-9.29 21.473 1.884 35.158-2.51-3.643 8.79-23.858 1.256-32.646 7.785-8.79 6.53-39.68 12.807-23.858.753zm-25.615 50.1c-.127-4.02-3.894-9.167-9.17-9.794-5.27-.628-7.532-6.153-11.55-6.404-4.016-.25-6.655-8.287-12.18-8.162-5.525.126-7.784 7.283 5.148 13.812 12.935 6.53 27.248 14.064 27.752 10.548zM407.2 187.74c-5.526.252-6.28 8.288-11.55 8.54 7.28 3.892 12.554-1.76 16.32-6.78l-4.77-1.76zM411.723 188.74c-4.77 4.017-6.152 12.43.754 14.815-4.144-5.713 7.283-8.288 3.767-13.56l-4.52-1.257zM416.49 188.996c-3.768 7.283 5.9 8.16 3.39 13.687 5.524-1.256 6.404-11.677 1.38-14.44l-4.77.753zM379.572 173.42c9.04-.502 17.31 4.39 22.854 12.305 3.516 5.022 15.317 7.03 19.337 3.013 4.017-4.018 1.76-12.556-8.287-9.793-2.512-4.27-9.795-2.763-13.31-6.28-3.516-3.514-17.078-13.56-20.594.755zM413.478 178.95c-2.385.502-3.14 4.646-1.635 6.78m6.783-4.27c.754 1.257.25 3.015-.127 3.894m-24.608-11.552c4.645.25 5.525 3.642 10.547 4.897"/><path d="M390.82 162.375c16.045 4.018 28.775 7.534 36.67 12.054 7.894 4.52 20.117 5.775 30.812 2.762 10.696-3.014 31.32-5.776 30.303 7.533 5.607-6.655-1.527-13.812-15.788-15.068.256-6.53-6.73-12.43-11.756-8.538 4.65-.63 8.66 8.035-.506 11.55 1.78-6.53-4.712-12.43-11.46-9.542 4.33 1.255 8.708 8.515-.978 11.3-6.113 1.76-15.025-.502-21.645-4.52-6.62-4.018-43.8-18.583-35.65-7.533zM431.31 155.846c-5.022 2.26-1.76 7.534-9.543 10.547-7.787 3.014-13.185 9.92-11.427 15.82 5.275-11.55 14.567-11.05 17.83-15.57 3.266-4.52 8.037-11.173 3.14-10.797zM432.69 156.595c-.25 9.166-7.466 5.827-4.648 18.71.88 4.017 2.512 10.546-.25 17.076 8.1-5.9 2.89-18.3 6.53-22.977 1.757-2.26 4.016-5.776 4.897-8.79-1.886 5.274-1.76 15.07 3.39 17.58-4.145-9.795 11.175-17.83.626-29.13-1.505 2.76-6.28 7.66-10.547 7.533zm-25.616-9.165c1.258 1.884 2.513 6.655 1.382 9.292 2.512-1.506 6.155-5.4 7.283-8.036 5.147.753 7.155 7.157 2.26 9.92 3.014 0 8.162 0 11.048-3.39-3.513-3.893-14.436-9.92-21.973-7.786zM328.973 129.42c-.812-.74-2.184-1.444-4.644-1.95-7.603-1.56-3.677-8.41 2.794-8.35 13.81-15.068 21.564-3.453 38.39-8.224 5.888-1.67 9.93-1.176 13.14.212 7.532-5.023 16.37-3.62 22.775 2.282.71-1.132 1.666-1.996 3.01-2.368 5.897-1.64 10.668 3.39 12.3 9.92 4.6-.852 9.85 1.425 13.305 4.564 4.784-2.457 8.08-2.567 9.292-.04 4.27-2.01 9.802-3.27 12.564 3.51 2.764 6.78-6.528 4.773-8.036 19.087-.93 8.83-10.797 12.305-18.583 7.032-12.454-8.437-24.61-9.795-30.637 3.013-6.025 12.808-10.748 20.25-25.363 16.072-5.272-1.507-12.054.502-16.322 6.278-4.27 5.776-10.8.377-18.583 1.005 9.792-1.507 6.042-3.97 14.566-4.52 7.785-.503 5.777-7.785 10.798-8.79-19.588 5.023-18.834-2.26-34.905 2.762 7.03-9.04 18.08-4.018 23.605-9.29-14.566-.252-21.08-9.768-27.625-5.777-10.296 6.278-5.778 24.153-32.646 22.6-13.06-.752-21.346 1.006-29.13 8.79 13.563-28.125 32.01-12.673 40.934-21.595 5.276-5.274 9.293-9.293 12.055-14.315.972-1.768 2.288-2.778 3.932-3.17-22.35-7.03-8.833-17.984 13.017-18.737zM439.327 125.465c.342.707.517 1.623.517 2.756 0 5.525-8.287 5.777-8.788 13.94-.263 4.268-.754 6.653-3.643 6.15-2.886-.5-5.4-5.02-2.636-10.295"/><path d="M333.115 121.19c-2.08-1.46-4.16-2.054-6.026-2.072m51.514-8.05c6.65 2.877 9.893 9.784 19.553 10.123 9.298.327 15.07 13.813 30.637 5.023.423-.238.835-.46 1.235-.666m-28.603-12.156c-1.388 2.208-1.703 5.288-1.323 7.99m-29.066 20.403c-11.8 0-14.816 6.027-14.816 11.803 0 5.776 5.525 13.31 15.32 13.31 9.792 0 15.068-6.027 15.068-12.557s-6.03-12.557-15.572-12.557zM373.168 166.642c-.25-3.265-6.152-2.763-5.902-5.274.25-2.512 3.266-3.516 3.266-7.032s5.272-3.767 7.03-1.004c1.758 2.762 7.033 8.16 8.164 5.4m-8.16-5.397c-2.76 2.762-4.016 8.412-.376 12.807m4.144-8.54c-.877 1.883-1.127 4.77-.123 6.53"/><path d="M428.228 148.374c9.23.753 10.8-9.418 3.893-10.045m-15.25-17.39c-3.2-4.08-10.545-5.46-10.672 3.204" fill="none"/><path d="M405.32 134c-3.14-7.786-11.177-8.917-15.448-5.024-3.552 3.24-3.64 11.677 4.02 13.435 2.636-3.137 7.784-7.28 11.428-8.41zm-3.456-4.9c-4.52-4.018-11.177 3.58-5.148 10.547m-80.846 8.477c3.025-.718 7.448.763 14.23 3.953 4.27 2.01 17.08 6.278 25.114 2.01-8.288 3.012-14.563-9.544-20.842-8.037-6.28 1.507-17.768 3.83-22.6-.754 11.8.754 18.147-8.596 31.638-.502 3.77 2.26 8.54 3.767 12.81 3.516-11.05-13.31-25.615-4.772-27.123-15.57 6.656 7.157 22.916-1.632 31.203 11.803m-28.815-9.796c-1.554-1.933-.852-3.86-2.52-5.386"/></g><path d="M416.87 120.94c-2.76-2.95-8.787-.627-7.094 5.338 1.32-2.762 4.144-5.085 7.095-5.337zm-17.073 16.085c1.9-1.38 3.864-2.514 5.52-3.028-.905-2.234-2.208-3.92-3.713-5.097-1.436-.992-5.564 4.56-1.807 8.125z" stroke="none"/><path d="M392.38 126.838c-4.52-3.013-8.665-2.762-10.046-.25-3.263-.126-5.964 2.26-6.09 7.03m6.97 2.01c-5.398-3.703-12.808-2.322-12.304 5.965m-3.265 4.707c2.636-2.135 6.403-3.642 9.293.125m31.018-8.285c-1.004 1.38-1.758 3.516-.127 6.78-2.01-2.636-7.03-2.636-12.433 4.395m24.485-11.55c-6.53.754-6.402 5.023-1.13 6.907m-45.327-22.857c-5.525-1.13-9.54 2.135-1.88 4.897m12.425-8.664c-7.786-1.884-10.925.125-7.41 1.883m-15.07 29.388c-.25 2.762 1.256 6.404 5.777 2.26m-4.263 6.023c0 .755-.126 1.633-.63 2.26m-17.458-39.05c-4.77-1.382-5.648-5.777-.123-5.4m-1.507 15.57c-5.275-1.758-5.275-6.906-.88-6.404m10.677 3.768c-6.152-1.507-6.403-5.777-1.755-5.15m2.504-7.908c-3.263-.25-8.288 3.39.126 5.525m9.046 1.762c-7.66-1.13-7.533 2.01-3.016 4.018m8.788-11.304c-5.902-1.13-7.91 2.386-3.893 3.893m-14.686 17.83c-1.446-1.193-2.636-6.907 4.267-5.21m10.046 3.454c-4.644-1.255-9.04 3.265-4.77 5.902m10.916-11.3c-4.894-.88-9.038.503-6.402 2.26" fill="none"/><path d="M416.606 120.94c-2.76.513-5.232 2.134-6.835 5.336" fill="#fff"/></g></svg>