<svg xmlns="http://www.w3.org/2000/svg" height="512" width="512" viewBox="0 0 512 512"><defs><clipPath id="a"><path fill-opacity=".67" d="M0 0h496.06v496.06H0z"/></clipPath></defs><g fill-rule="evenodd" clip-path="url(#a)"><path fill="#b20000" d="M0 0h1023.878v340.075H0z"/><path fill="#429f00" d="M0 340.075h1023.878v171.87H0z"/><path fill="#fff" d="M0 0h113.355v511.934H0z"/><g fill="#b20000"><path d="M5.397 8.67h5.398v8.68H5.397zm16.028-.268H37.62v8.68H21.424zm4.89-8.68h5.398V8.4h-5.398zm26.83.268h5.396v8.68h-5.396zm20.748 8.68h16.194v8.68H73.893zm4.74-8.95h5.397V8.4h-5.397zM16.2 17.348h10.797v8.68h-10.8zm15.692-.538h10.795v8.68H31.892zm37.28 0h10.794v8.68H69.172zm15.02 0H94.99v8.68H84.192zM7.61 25.49H18.91v8.676H8.112zm29.34-.27h10.795v8.677H37.452zm26.158 0h10.797v8.677H63.61zm26.143 0h10.796v8.677H89.752zM98.88 7.864h5.397v8.68h-5.397zm-97.5 26.57h10.796v8.678H2.22zm40.794-.806h10.796v8.677H43.012zm52.82 0h10.796v8.677H95.83zM6.103 59.658h10.796v8.678H7.778zm8.087 7.87h10.798v8.677h-10.8zm21.42-8.947h10.794v8.68H37.283zm-6.062 8.95h10.795v8.675H31.223zm-10.635 8.406h16.194v8.677H20.588zM26.985 86.764h5.397v8.68h-5.397zm36.96-28.72h10.797v8.678H63.945zm4.222 9.485h10.795v8.675H68.167zm21.418-8.95h10.797v8.68H89.585zm-6.062 8.95H94.32v8.675H83.524zm-10.634 8.406h16.193v8.677H72.89zM80.976 86.764h5.397v8.68h-5.397zM48.96 72.708h5.397v8.677H51.47zm-53.14.27h5.4v8.676h-5.4zm109.625 0h5.398v8.676h-5.398zM20.29 119.05h5.398v8.677h-5.398zM21.593 130.15h16.194v8.677H21.593zm-6.063 4.64h26.99v8.678H15.53zm64.944-17.62h5.397v8.676h-5.396zM75.567 130.15H91.76v8.677H75.568zm-7.734 4.64h26.99v8.678h-26.99zm5.558 43.117h26.992v8.677h-26.99zm-10.95-36.053h37.784v8.68H62.44zm-53.658 1.076h37.786v8.68H8.783zm7.083 43.385H32.06v8.677H15.864zm-5.577-10.022h26.99v8.677H10.29zM86.2 159.477h26.992v8.677H86.033zm-7.735 26.57h16.194v8.676H78.298zM21.593 199.565h5.397v8.68h-5.397zm64.106-6.188h5.396v8.68H85.7zM-4.683 158.67H24.32v8.677H-2.675zm51.26 18.43H64.78v8.677H48.586zm3.887 8.14h5.398v8.676h-5.398zm-16.36-26.3H73.9v8.676H36.112zM58.702 30.398H69v8.677H58.2zM48.587 43.38h16.195v8.677H48.587zm-6.915 7.332H52.47v8.68H41.67zm16.362-.27H68.83v8.68H58.035zm-59.87-8.676H8.96v8.677H-1.835zm7.233 8.946h10.797v8.68H5.4zm97-8.946h10.796v8.677h-10.797zm-8.407 8.946h10.797v8.68H93.99zM-2.84 128.266H2.39v8.678H-3.01zm110.963-2.42h5.398v8.676h-5.398zm-62.716 69.414h16.194v8.68H45.24zM43.18 208.243h10.796v8.677H43.18zm14.854-6.457H68.83v8.677H58.035zm-22.088 8.677H46.74v8.677H35.946zm27.664-.27h10.797v8.678H63.61zM32.394 225.595H43.19v8.68H32.393zm36.778-6.995h10.794v8.68H69.172zm-44.363 8.68h10.796v8.676H24.81zm49.92-.27h10.797v8.677H74.73zM16.2 242.95h16.194v8.677H16.198zm64.274-7.533h16.194v8.677H80.474zM91.76 234.274h10.798v8.677H91.76zm2.565-15.943h10.796v8.68H94.325zM102.563 216.92h10.797v8.677h-10.797zM4.43 220.822h10.797v8.677H7.61zm-2.547-9.217H15.86v8.68H5.065zM.005 216.92h10.797v8.677H.005zm21.587 27.98h5.398v8.678h-5.398zm64.107-1.075h5.396v8.677H85.7zm-34.397-26.032H56.7v8.68h-5.397zm-15.19 26.84h5.397v8.676h-5.397zm32.89-.808h5.4v8.677h-5.4zm-17.198 0h5.397v8.677h-5.397zm-53.474 0h5.4v8.677h-5.4zm109.625 0h5.398v8.677h-5.398zM47.286 122.347h5.398v8.677h-5.397zM26.985 43.11h5.398v8.678H25.31zm54.83 2.69h5.397v8.678H80.14zM44.4 102.775H62.27v8.678H46.077zM37.787 112.796H53.98v8.68H37.788zM43.18 121.474h5.396v8.677H43.18zM29.716 96.585H41.85v8.68H31.056zM37.787 95.442H53.98v8.678H37.788zM43.18 86.764h5.396v8.68H43.18zm14.854 5.988h16.194v8.677H58.034zM64.782 86.764h5.397v8.68H64.78zm3.385 14.664h10.795v8.68H68.167zM59.373 112.796h16.194v8.68H59.373zM64.782 121.474h5.397v8.677H64.78zM82.35 96.585h10.797v8.68H84.36zM91.76 95.442h16.195v8.678H91.76zM102.563 104.118h10.797v8.68h-10.797zM91.76 112.796h16.195v8.68H91.76zM97.17 121.474h5.397v8.677H97.17zM91.144 79.23h5.397v8.68h-5.397zm-97.165 18.43H7.79v8.68H-3.01zM5.397 95.442h16.196v8.678H5.397zM16.2 104.118h10.797v8.68h-10.8zM5.397 112.796h16.196v8.68H5.397zM10.79 121.474h5.398v8.677H10.79zm-.334-38.476h5.397v8.68h-5.397zm-5.393 70.492h21.592v8.678H5.063zm27.164-2.152h21.59v8.677h-21.59zm26.142 0h21.59v8.677H58.37zm26.157 0h21.593v8.677H84.527zM39.664 168.69h26.992v8.68h-26.99zm-36.442-.537h26.99v8.68H4.06zm76.75 0h26.99v8.68H80.81zm24.637 34.71h5.397v8.676h-5.397zM-4.18 200.71h5.397v8.677h-5.397zm8.74 295.02h5.397v-8.678H5.397zm16.027-9.15H37.62v-8.676H21.424zM26.985 511.93h5.397v-8.676h-5.397zm26.16-15.873h5.396v-8.677h-5.396zm20.748-8.67h16.194v-8.676H73.893zM80.976 511.93h5.397v-8.676h-5.397zm-67.288-33.223h10.798v-8.677h-10.8zm18.204.538h10.795v-8.677H31.892zm37.28 0h10.794v-8.677H69.172zm15.02 0H94.99v-8.677H84.192zm-49.083-8.68h10.793v-8.678H35.11zm28.5.268h10.797v-8.677H63.61zm26.143 0h10.796v-8.677H89.752zm9.965 17.362h5.397v-8.677h-5.397zm-97.5-26.57h10.796v-8.676H2.22zM43.18 477.23h10.796v-8.676H43.18zm52.65-14.797h10.798v-8.677H95.83zm-88.052-26.03h10.796v-8.68H7.778zm8.087-7.875h10.798v-8.677h-10.8zm21.42 8.95h10.794V428.8H37.283zm-6.062-8.95h10.795v-8.677H31.223zm-10.635-8.412h16.194v-8.677H20.588zM26.985 425.17h5.397v-8.68h-5.397zm36.96 12.847h10.797v-8.68H63.945zm4.222-9.49h10.795v-8.676H68.167zm21.418 8.952h10.797v-8.68H89.585zm-6.062-8.952H94.32v-8.677H83.524zm-10.634-8.412h16.193v-8.677H72.89zM80.976 425.17h5.397v-8.68h-5.397zM48.96 407.47h5.397v-8.677H51.47zm-53.14-.27h5.4v-8.676h-5.4zm109.625 0h5.398v-8.676h-5.398zm-84.318-43.38h5.398v-8.678h-5.398zM21.593 381.788h16.194v-8.68H21.593zm-6.063-20.52h26.99v-8.677H15.53zm64.944 17.62h5.397v-8.68h-5.396zM75.567 381.788H91.76v-8.68H75.568zm-7.734-20.52h26.99v-8.677h-26.99zm5.558-43.11h26.992v-8.68h-26.99zm-10.95 36.044h37.784v-8.68H62.44zM9.115 352.05h37.786v-8.68H8.783zm7.083-43.38H32.06v-8.682H15.864zm-5.577 10.025h26.99v-8.678H10.29zM86.2 336.584h26.992v-8.68H86.033zm-7.735-26.57h16.194v-8.678H78.298zM-2.34 337.93h26.992v-8.68H-2.507zm51.092-18.158h16.196v-8.68H48.586zm3.888-8.143h5.398v-8.678h-5.398zm-16.36 26.3H73.9v-8.678H36.112zm22.087 129.35H69v-8.678H58.2zm-11.454-12.72H62.94v-8.675H46.747zm-5.074-8.41H52.47v-8.678H41.67zm16.362.27H68.83v-8.68H58.035zm-59.87 8.68H8.96v-8.677H-1.835zm7.233-8.95h10.797v-8.678H5.4zm97 8.95h10.796v-8.677h-10.797zm-8.407-8.95h10.797v-8.678H93.99zM-2.84 367.8H2.39v-8.68H-3.01zm110.963 2.42h5.398v-8.68h-5.398zm-68.124-78.094H50.63v-8.68H39.83zm18.204 2.422H68.83v-8.68H58.035zm-22.088-8.68H46.74v-8.68H35.946zm27.664.268h10.797v-8.68H63.61zm-33.224-8.68H41.18v-8.68H30.386zm38.786.268h10.794v-8.68H69.172zM26.985 277.664h10.797v-8.68H26.985zm47.745-8.61h10.797v-8.68H74.73zm-60.874-8.68H30.05v-8.68H13.856zm66.618.268h16.194v-8.68H80.474zm8.776 8.68h10.797v-8.678H89.25zM97.17 286.333h10.797v-8.68H97.17zm2.38-.198h10.797v-8.68H99.55zm-91.94-17.62h10.797v-8.678H7.61zM5.397 286.333h10.797v-8.68H5.4zm-5.56-.198h10.798v-8.68H-.162zm21.755-34.978h5.398v-8.677h-5.398zm31.72 27.104h5.397v-8.678h-5.4zm-1.005 94.65h5.397v-8.68h-5.397zm-26.996 83.8h5.398v-8.676H25.31zm54.83-2.69h5.397v-8.676H80.14zM44.4 393.29H62.27v-8.677H46.077zm-9.796-6.8h16.194v-8.675H36.28zm5.727-8.41h5.398v-8.678h-5.398zm-10.95 17.63H41.85v-8.676H31.056zM37.787 416.487H53.98v-8.677H37.788zm4.22-4.233h5.398v-8.677h-5.398zm16.027-8.95h16.194v-8.677H58.034zm4.907 8.95h5.398v-8.677H62.94zM70.176 407.82H80.97v-8.68H70.177zm-12.98-21.33h16.195v-8.675H57.198zm5.745-8.41h5.398v-8.678H62.94zm21.42 17.63h10.797v-8.676H84.36zM91.76 416.487h16.195v-8.677H91.76zM102.563 407.82h10.797v-8.68h-10.797zM85.4 373.843h16.195v-8.675H88.58zm5.745-8.41h5.397v-8.678h-5.397zm-.168 34.98h5.397v-8.676h-5.397zM-3.008 393.56H7.79v-8.677H-3.01zM5.397 416.487h16.196v-8.677H5.397zM16.2 407.82h10.797v-8.68h-10.8zm-11.305-21.33H21.09v-8.675H4.895zm5.728-8.41h5.398v-8.678h-5.397zm-.167 34.98h5.397v-8.676h-5.397zm-5.393-70.487h21.592v-8.677H5.063zm27.164 2.152h21.59v-8.677h-21.59zm26.142 0h21.59v-8.677H58.37zm26.157 0h21.593v-8.677H84.527zm-44.026-17.36h26.992v-8.68h-26.99zm-36.442.537h26.99v-8.68H4.06zm76.75 0h26.99v-8.68H80.81zm24.637-34.7h5.397v-8.68h-5.397zM-4.18 295.354h5.397v-8.68h-5.397zm51.928-43.39h5.398v8.68h-5.398zm9.28 1.345h5.398v8.68h-5.398zm-.334-17.354h5.397v8.676H57.53zm-10.786.537h5.397v8.677h-5.397zM9.618 469.697H20.08v8.68H9.285zm76.75-172.13h5.397v-8.68h-5.397zm-67.12 5.11h5.398V294h-5.398zm29-8.672H64.11v8.676H47.914z"/></g></g></svg>