<svg xmlns="http://www.w3.org/2000/svg" xmlns:xlink="http://www.w3.org/1999/xlink" height="512" width="512" viewBox="0 0 512 512"><defs><radialGradient id="a"><stop offset="0" stop-color="#ffef5d"/><stop offset="1" stop-color="#ea5700"/></radialGradient><radialGradient id="b"><stop offset="0" stop-color="#952d1a"/><stop offset="1" stop-color="#570a00"/></radialGradient><radialGradient xlink:href="#a" id="c" gradientTransform="scale(1.226 .816)" cx="247.075" cy="238.328" fx="247.075" fy="238.328" r="35.95" gradientUnits="userSpaceOnUse"/><radialGradient xlink:href="#a" id="d" gradientTransform="scale(.936 1.068)" cx="321.991" cy="152.954" fx="321.991" fy="152.954" r="10.578" gradientUnits="userSpaceOnUse"/><radialGradient xlink:href="#b" id="e" gradientTransform="scale(1.224 .817)" cx="364.21" cy="237.789" fx="364.21" fy="237.789" r="36.034" gradientUnits="userSpaceOnUse"/><radialGradient xlink:href="#b" id="f" gradientTransform="scale(.956 1.046)" cx="468.154" cy="156.129" fx="468.154" fy="156.129" r="10.739" gradientUnits="userSpaceOnUse"/></defs><path fill="#ce1126" d="M0 0h512v512H0z"/><path fill="#003f87" d="M0 36.57h512v438.857H0z"/><circle cx="256" cy="256" r="201.143" fill="#fff"/><circle r="166.719" cy="254.976" cx="256" stroke="#552300" stroke-width="4.201" fill="none"/><path d="M236.74 78.07c15.077-16.176 28.71 2.51 28.347 11.267-.364 8.756-15.572 28.074-29.334 12.527 14.257 3.65 18.517-12.29 25.728-12.448-7.21.16-10.156-15.626-24.74-11.344zM79.79 204.923c-7.928-20.585 14.996-24.43 22.74-20.225 7.75 4.204 18.455 26.297-1.686 31.65 9.615-11.066-2.892-21.923.16-28.407-3.052 6.485-18.615 2.11-21.214 16.984zm338.29-20.357c20.65 8.094 8.034 27.47-.323 30.304-8.356 2.834-32.006-4.243-22.386-22.604 1.733 14.51 18.25 12.685 21.008 19.3-2.76-6.616 11-15.055 1.7-27zm-270.03 218.01c-22.094-2.197-15.28-24.254-8.02-29.242 7.26-4.988 31.96-4.582 27.75 15.686-5.655-13.49-21.042-7.262-25.514-12.878 4.47 5.615-6.446 17.46 5.784 26.433zm223.293-15.965c.316 22.035-22.54 17.827-28.362 11.238-5.82-6.59-8.224-30.99 12.546-29.147-12.86 7.113-4.875 21.576-9.988 26.623 5.114-5.047 18.215 4.37 25.805-8.71zM95.887 163.063c-2.014-21.946 21.1-19.486 27.41-13.357 6.312 6.128 10.59 30.273-10.26 30.013 12.277-8.067 3.198-21.882 7.907-27.303-4.71 5.422-18.496-2.97-25.057 10.648zm23.675 205.875c-21.895-3.673-13.594-25.222-6.012-29.714 7.583-4.49 32.2-2.43 26.618 17.51-4.723-13.84-20.5-8.656-24.58-14.56 4.08 5.905-7.617 16.992 3.974 26.763zm173.015-289.96c19.884-9.807 25.94 12.467 22.467 20.525-3.472 8.057-24.603 20.756-31.905 1.37 12.02 8.438 21.71-4.962 28.506-2.568-6.797-2.394-3.903-18.188-19.07-19.326zm42.312 335.22c-9.858 19.747-28.257 5.645-30.403-2.856-2.145-8.5 6.943-31.296 24.572-20.242-14.715.496-14.265 16.984-21.136 19.157 6.87-2.174 14.194 12.138 26.965 3.942zm96.552-190.576c16.708 14.518-1.746 28.553-10.573 28.43-8.83-.12-28.704-14.68-13.42-28.76-3.287 14.244 12.886 18.038 13.242 25.187-.358-7.15 15.46-10.504 10.75-24.856zM150.938 107.56c4.985-21.473 26.172-11.98 30.243-4.2 4.07 7.777.544 32.04-19.183 25.337 14.2-3.863 9.918-19.8 16.095-23.49-6.178 3.69-16.64-8.553-27.153 2.354zm-65.67 184.004c-19.456-10.622-4.47-28.26 4.18-30.022 8.65-1.763 31.21 8.226 19.324 25.23.132-14.607-16.485-14.87-18.38-21.776 1.895 6.906-12.827 13.552-5.124 26.568zm281.12-170.24c21.976-3.16 20.725 19.877 14.892 26.457-5.833 6.58-29.9 12.1-30.743-8.578 8.767 11.74 22.185 2.01 27.89 6.39-5.702-4.38 2.01-18.49-12.04-24.268zm-125 314c-20.274 8.99-25.404-13.513-21.6-21.423 3.802-7.907 25.442-19.734 31.934-.067-11.662-8.92-21.897 4.072-28.59 1.405 6.693 2.667 3.15 18.328 18.256 20.084zM423.29 312.4c9.155 20.076-13.495 25.274-21.482 21.54-7.987-3.737-20.007-25.156-.22-31.693-8.933 11.613 4.207 21.71 1.55 28.363 2.657-6.655 18.456-3.21 20.153-18.21zM76.452 247.736c-12.737-18.052 8.555-27.315 17.1-25.107 8.546 2.206 24.35 21.05 6.122 31.105 6.615-13.054-8.18-20.565-6.807-27.592-1.373 7.025-17.54 6.54-16.416 21.593zM196.23 421.97c-20.84 7.612-24.427-15.187-20.094-22.82 4.334-7.637 26.727-17.984 31.867 2.072-11.028-9.682-22.122 2.595-28.62-.516 6.496 3.11 1.893 18.497 16.846 21.263zm-6.012-334.992c12.348-18.317 28.754-1.972 29.774 6.732 1.02 8.705-10.96 30.144-27.002 16.922 14.656 1.395 16.357-15.01 23.453-16.284-7.097 1.272-12.493-13.86-26.225-7.37zm213.514 268.985c1.333 21.997-21.695 18.83-27.81 12.51-6.12-6.318-9.647-30.584 11.188-29.684-12.523 7.685-3.877 21.772-8.752 27.045 4.876-5.273 18.396 3.538 25.375-9.872zm-5.662-207.4c21.767 4.36 12.78 25.638 5.057 29.886-7.723 4.25-32.26 1.412-26.044-18.344 4.276 13.983 20.212 9.3 24.1 15.33-3.887-6.03 8.16-16.74-3.113-26.874zm-275.66-15.504c.21-22.038 22.96-17.29 28.62-10.566 5.66 6.727 7.48 31.176-13.24 28.842 13.03-6.806 5.39-21.453 10.623-26.38-5.232 4.927-18.103-4.794-26.004 8.103zM94.883 331.683c-19.81-9.956-5.44-28.09 3.145-30.145 8.584-2.054 31.472 7.164 20.18 24.562-.372-14.606-16.988-14.304-19.117-21.144 2.13 6.84-12.355 13.98-4.21 26.726zM332.8 97.08c20.774-7.78 24.55 14.985 20.284 22.656-4.268 7.672-26.574 18.205-31.883-1.81 11.11 9.59 22.103-2.777 28.624.28-6.523-3.058-2.05-18.483-17.024-21.125zm-44.093 335.775c-16.156 15.15-28.47-4.4-27.507-13.112.964-8.715 17.463-26.99 30.124-10.568-13.973-4.582-19.318 11.046-26.524 10.726 7.206.32 9.062 16.265 23.906 12.955zm141.557-168.53c15.158 16.106-4.62 28.234-13.39 27.236-8.773-.995-27.077-17.46-10.447-29.95-4.71 13.846 10.998 19.23 10.63 26.378.37-7.15 16.445-8.915 13.207-23.663z" fill="#007f00"/><path d="M235.756 101.864c14.254 3.65 17.827-12.098 25.036-12.256-4.208 5.027-15.186 17.84-25.036 12.256zm.983-23.794c15.077-16.176 28.71 2.51 28.347 11.267-12.237-21.333-16.067-18.043-28.344-11.266zM100.843 216.34c9.615-11.065-3.023-21.224.028-27.71 2.677 5.973 9.38 21.423-.028 27.71zM79.79 204.923c-7.928-20.585 14.996-24.43 22.74-20.225-24.693 1.433-23.418 6.298-22.74 20.225zm315.587-12.657c1.732 14.51 17.817 12.117 20.576 18.73-6.246-2.075-22.256-7.597-20.576-18.73zm22.702-7.7c20.65 8.094 8.034 27.47-.323 30.304 15.605-19.047 11.13-21.397.322-30.304zM167.78 389.028c-5.653-13.49-20.47-6.835-24.942-12.45 6.578.306 23.5 1.286 24.942 12.45zm-19.732 13.547c-22.094-2.196-15.28-24.253-8.02-29.24-9.78 22.546-4.826 23.596 8.02 29.24zM355.523 368.7c-12.86 7.113-4.51 20.966-9.623 26.013-.444-6.52-1.39-23.315 9.623-26.012zm15.82 17.91c.316 22.035-22.54 17.827-28.362 11.238 23.69 7.076 24.177 2.072 28.363-11.237zM113.04 179.713c12.277-8.067 2.88-21.245 7.59-26.666.945 6.47 3.182 23.142-7.59 26.666zm-17.153-16.65c-2.014-21.946 21.1-19.486 27.41-13.357-24.163-5.256-24.262-.23-27.41 13.357zm44.278 193.668c-4.722-13.838-19.96-8.19-24.04-14.09 6.542.743 23.358 2.855 24.04 14.09zm-20.603 12.207c-21.895-3.673-13.594-25.222-6.012-29.714-11.29 21.843-6.422 23.222 6.012 29.714zm163.584-268.065c12.02 8.438 20.998-5.024 27.795-2.63-5.732 3.216-20.585 11.32-27.794 2.63zm9.43-21.894c19.885-9.808 25.942 12.466 22.468 20.524-3.808-24.256-8.565-22.53-22.467-20.524zm36.486 312.118c-14.713.496-13.66 16.607-20.53 18.778 2.606-6.002 9.492-21.37 20.53-18.778zm5.827 23.102c-9.858 19.746-28.257 5.644-30.403-2.857 17.82 17.03 20.554 12.802 30.402 2.858zm72.56-190.905c-3.288 14.243 12.672 17.36 13.028 24.508-5.178-4.038-18.383-14.584-13.028-24.507zm23.992.328c16.708 14.518-1.746 28.553-10.573 28.43 21.15-12.724 17.732-16.433 10.572-28.43zm-269.445-94.924c14.2-3.862 9.417-19.29 15.595-22.983-1.137 6.438-4.253 22.972-15.595 22.983zm-11.06-21.135c4.986-21.473 26.173-11.98 30.244-4.2-21.304-12.477-22.98-7.734-30.242 4.2zM108.77 286.77c.13-14.61-16.132-14.253-18.023-21.16 5.93 2.84 21.11 10.328 18.022 21.16zm-23.502 4.794c-19.456-10.622-4.47-28.26 4.18-30.022-17.907 16.937-13.767 19.83-4.18 30.022zm265.268-152.36c8.767 11.738 21.53 1.73 27.234 6.107-6.46 1.28-23.12 4.38-27.234-6.107zm15.85-17.88c21.978-3.16 20.727 19.877 14.894 26.457 4.01-24.224-1.052-24.056-14.893-26.456zM251.72 413.84c-11.662-8.92-21.19 4.164-27.88 1.493 5.863-2.977 21.037-10.47 27.88-1.494zm-10.332 21.483c-20.274 8.99-25.404-13.512-21.6-21.422 2.802 24.392 7.627 22.86 21.6 21.423zm160.194-133.07c-8.932 11.617 4.298 21.01 1.64 27.663-3.03-5.803-10.653-20.827-1.64-27.662zm21.708 10.15c9.155 20.075-13.495 25.273-21.482 21.538 24.566-2.898 22.998-7.678 21.483-21.54zM99.676 253.736c6.615-13.054-8.135-19.857-6.763-26.883 4.057 5.147 14.348 18.514 6.763 26.883zm-23.224-6c-12.737-18.053 8.555-27.316 17.1-25.108-23.6 7.352-21.17 11.762-17.1 25.106zm131.543 153.487c-11.03-9.682-21.423 2.733-27.917-.376 6.05-2.58 21.7-9.04 27.917.376zM196.23 421.97c-20.84 7.612-24.427-15.187-20.094-22.82 1.136 24.522 6.053 23.32 20.093 22.82zm-3.237-311.337c14.656 1.396 15.706-14.714 22.803-15.988-3.365 5.62-12.196 19.976-22.803 15.988zm-2.775-23.655c12.348-18.317 28.754-1.972 29.774 6.732-15.45-19.172-18.715-15.33-29.774-6.732zM387.103 338.79c-12.523 7.686-3.54 21.146-8.416 26.42-.744-6.494-2.463-23.228 8.416-26.42zm16.63 17.173c1.332 21.997-21.696 18.83-27.812 12.51 23.99 5.994 24.246.976 27.812-12.51zm-26.655-195.86c4.276 13.98 19.688 8.816 23.575 14.844-6.514-.95-23.254-3.59-23.575-14.845zm20.992-11.54c21.767 4.36 12.78 25.638 5.057 29.886 11.99-21.475 7.165-23.007-5.057-29.888zm-260.27 2.764c13.028-6.806 5.01-20.852 10.242-25.777.288 6.53.83 23.342-10.242 25.777zm-15.39-18.268c.21-22.038 22.96-17.29 28.62-10.566-23.51-7.632-24.117-2.642-28.62 10.565zm-4.2 193.043c-.372-14.606-16.61-13.7-18.742-20.537 6.025 2.637 21.452 9.607 18.743 20.537zm-23.326 5.58c-19.81-9.955-5.44-28.09 3.145-30.144-17.316 17.53-13.078 20.283-3.146 30.144zm226.314-213.76c11.108 9.59 21.398-2.91 27.92.148-6.03 2.63-21.625 9.22-27.92-.146zM332.8 97.082c20.774-7.78 24.55 14.985 20.284 22.656-1.343-24.514-6.248-23.27-20.284-22.655zm-41.472 312.1c-13.972-4.582-18.618 10.9-25.82 10.58 4.54-4.74 16.377-16.802 25.82-10.58zm-2.62 23.675c-16.157 15.15-28.47-4.4-27.508-13.112 10.75 22.094 14.793 19.064 27.507 13.112zm117.718-171.243c-4.708 13.844 10.856 18.532 10.487 25.68-4.744-4.533-16.818-16.34-10.487-25.68zm23.838 2.713c15.158 16.106-4.62 28.234-13.39 27.236 22.332-10.558 19.304-14.587 13.39-27.235z" fill="#005800"/><g fill="#730000" stroke="#000" stroke-width=".509"><path d="M286.986 128.348s.625-1.46 1.772-.624c1.042.83 1.352 4.48 1.352 4.48l-1.667.83c0 .002.94-1.35-1.457-4.686zm-9.472 32.717s.833-1.145-.312-3.65l1.667-.52s.623 1.98-.21 4.17h-1.146m28.856-5.735l-3.957 2.4 1.98.937 4.792-2.814-2.814-.522m-53.032 15.524c-1.044.835-1.147 2.294-1.772 3.126-.518.833-2.083 1.978-2.186 3.23-.208 1.25-.31 2.082.21 3.75.62 1.666 3.226 9.065 2.185 14.693-1.147 5.624-.727 8.02-.31 8.856.413.833 1.666 3.123 2.395 3.123 1.667-.207.938-.728 1.56-1.77 1.564-2.71 0-23.652-.728-29.487-.52-4.48-2.606-8.545-2.81-8.96-.208-.523-.624-1.876-.94-2.71-1.56-3.753-3.436-6.98-3.436-14.8 0 0-5.106 1.15-9.48-8.75-2.29-5-5.626-4.48-9.583-6.146l1.77-1.15s3.335 1.67 5.002 1.67c1.667 0 1.147-3.335 1.147-3.335l1.667-1.67v7.298c0 3.334 4.582 7.918 7.29 9.273 1.668.83 3.856-2.607 3.336-5.94s0-7.813 0-7.813l2.292 1.353s-.834 1.458-.625 2.292c.31.835 1.456-.833 2.29-1.668 0 0 .207.21 1.042.21 0 0-1.667 2.81-2.5 4.272-.83 1.355-.83 6.67-.83 8.65 0 1.98.73 6.562.73 8.02 0 1.046 1.976 5.315 3.542 7.922.52 1.04 1.77 3.75 1.77 3.75 1.25 1.98 1.352 3.333 2.083 5.002.416.832 1.147 3.23 1.667 7.4.21 1.04.416 5 .732 7.602.31 2.5 2.395.523 4.892-1.25 2.5-1.875 2.5-6.355 2.5-6.355s1.98-1.667 1.668-.73c-.21 1.044 1.043 2.085 1.043 2.085-1.56 3.54-.623 3.125.938 3.02 1.563-.21 6.98-4.27 6.98-4.27.73-.21 3.96-.21 3.438 0-.625.312-1.46 1.875-1.46 1.875l3.543-.418c-1.25.938-5.94 3.647-6.977 4.272-1.147.73-6.77 3.442-9.167 4.377-2.396 1.04-7.085 3.334-7.293 5.73-.105 2.398.31 8.857 0 10.94-.21 2.083-1.043 11.36-1.043 11.36h-11.148s2.19-8.13-.105-10.316c-2.187-2.292-7.293-8.962-10.626-11.256-3.334-2.186 2.187-.517 2.187-.517V194.4l5.104 6.15s8.855-7.814 0-18.442c-2.81-3.334-5.625-8.44-7.81-8.962-2.293-.625-3.44-1.146-7.295 0-3.96 1.145-13.44 1.145-17.398-5.108l3.335-.52 2.81-1.146s-1.145 3.96 6.772 3.96c7.814 0 8.96 0 8.334-7.294l2.292-1.146 1.668 1.67s-1.147 3.958-.52 5.624c.52 1.666 3.334 2.814 5.52 4.48.94.73 1.668.835 2.293.835.938-.104 1.146-.104 2.396-1.355 1.876-2.084 1.458-1.98 3.334-3.644 0 0 .938-1.46 1.147-1.67l1.147 3.024h-.006zM255.007 165.335c.414-.414 1.25-1.98 1.98-3.334 1.25-2.083 2.71-3.333 4.374-5.94 1.562-2.395 2.19-5.936 1.562-8.436l1.458.833.107 3.96s1.98-1.67 2.814-2.085l.832.415s-6.25 6.462-12.085 16.88l-1.042-2.29.002-.002zm-54.795-21.668c.834 1.455 1.67 4.272 4.168 6.46l1.667-.52s-3.854-4.48-3.854-6.46l-1.98.52m9.79-2.51s.52 5.316-.833 7.295l1.666-.83s1.146-3.647.833-5.628l-1.668-.832v-.004zm54.906-16.772s-.316 7.5 1.145 12.087l1.978-.623s-.31-1.36 1.354-1.985c1.668-.52 5.626-2.186 7.604-3.855l-.622-1.665s-3.02 2.396-4.48 3.02c-1.353.522-2.187 1.146-3.334.835-1.147-.313-2.498-2.19-1.667-6.462l-1.978-1.353m22.076 35.01s-.52 5.314-.207 7.608l1.77.418s-.414-6.355.73-6.876l-2.294-1.148m7.926 3.963s-1.98 3.437-4.27 3.75l3.646-.73s1.044-.52 2.605-2.187l-1.98-.834"/></g><g fill="#289400" stroke="#030" stroke-width=".509"><path d="M263.035 147.62l1.353.83 1.458.21s1.56 1.46 3.334 2.812c1.353 1.15 1.353-.207 1.353-.207l.83 3.334h1.148s-.312 2.187-.312 3.334l1.98-1.67 2.292 1.98s1.667-1.456 2.5-1.456c.83 0 1.144-.832 1.144-.832h.107c-5.522-2.607-7.916-5.314-6.25-8.128 2.71-4.688 7.19-1.668 8.646-1.04l20.21 10.834s1.354-.833.416-1.67c-1.043-.83-1.46-2.915-1.147-3.748.314-.833 2.605 2.603 3.75 2.916 1.147.313 3.75.73 3.75.73l-.105-1.042s3.334 2.29 3.334 3.44c0 0 2.397-1.25 1.56-1.98-.83-.73 3.65 1.77 3.96 3.127l.937-1.046c-.104 0 .314-3.335 1.46-4.897 1.043-1.56 2.188-1.98 2.188-1.98s1.043-1.772 2.082-1.772c0 0-1.043-.726-1.46-1.56-.52-.836-1.77-1.25-1.77-1.25s1.562-1.146 1.98-1.668c.417-.623.835-.732.835-.732s-2.4-1.978-4.066-2.288c0 0-.105-2.712-2.188-2.92h.938s-1.563-2.916-3.022-3.02c0 0 .938-1.04 1.772-1.145 0 0-1.772-2.292-4.166-1.458l1.562-.624s-1.146-1.25-4.686-.625c0 0 .31-1.457-1.25-2.605 0 0-1.354.103-1.354 1.145 0 0-1.25-1.145-2.812-1.145-1.563 0 .52 1.668.52 1.668s-2.083-1.355-3.334-.938c0 0 .52-2.396-.833-3.648 0 0-1.56.834-1.98 1.876l-.416-1.042s-2.083 2.502-2.5 1.773c-.31-.416-.622-2.186-.622-2.186l-1.248 1.876.207-2.607s-1.458.834-2.604 3.54c0 0-1.46 1.356-1.46 2.604 0 0-1.145-1.352-2.188 0-.938 1.458 0 1.15 0 1.15s-.416.516-1.458.726l.21.83s-1.354-.726-2.396-.413l.52 1.25s-2.708.21-2.81-1.978c0 0-2.293-1.148-2.606.104l-1.667 1.04s-.52-1.04-1.46-1.25c-1.043-.31-.208 1.354-.208 1.354s-.312-1.25-1.563-1.876c-1.248-.518-.208 1.15-.208 1.15s-1.668-1.357-.832-2.398c0 0-1.563 1.46-.834 2.814l-1.042.728s-.52-.52-.418-.938c.107-.417-1.77 1.25-1.77 1.25s-1.146-2.708 0-2.708c.104 0-1.98-.104-2.29 2.294 0 0-1.355.103-2.606.517-1.354.418.938 1.356.938 1.356s-1.98-.418-3.126.21l.73.937s-.73-.73-2.5-.107c-1.877.52.415.834.415.834s-1.876-.416-2.813 0c-.938.418.312 1.146.312 1.146s-3.437-1.042-3.958-.727c-.52.31 1.146 1.98 1.146 1.98s-2.083.52-2.498 2.084l1.875.727s-.833.416-1.253 1.25c-.412.835 1.252.416 1.252.416s-2.29 1.67-2.29 2.917c0 0 1.664.52 2.914-.728s.416-.833.416-.833l.105.832s2.397-1.04 2.397-1.665c0-.52-.416.832-.416.832l2.397-1.25 1.56 1.042v-.002h.002zM261.048 115.118l-.52-2.292 5.312.623.937-2.187s2.5 1.145 3.334 1.975c0 0 4.896-1.248 6.357-.727l-.625 2.295s4.478.31 5.938.83c1.354.52-.623 1.67-.623 1.67s5.103.623 7.293 1.98c2.29 1.35 2.29 2.5 1.146 2.81l2.81 4.48s-4.478.52-5.31 1.665c-.835 1.145-1.668-1.145-1.668-1.145l-.834 3.125s-2.812-1.46-3.958-2.5c0 0-1.352 1.668-.52 2.5l-5.105-3.334s-2.188-.31-2.188 1.67c0 0-2.497-2.815-3.124-3.65l-2.814.835s-.83-1.144-1.874-1.46c-1.147-.205-.313 1.46-.313 1.46l-1.667-1.98-1.666-1.975s-1.46 1.976-2.605 1.976c-1.046 0-1.046-1.352-.835-2.29.312-.834-3.334-1.04-3.646 0 0 0-1.045-4.168 2.81-5.313l3.96-1.042v.003zm-20.203 14.275l-1.77 1.668-1.044-.52-2.082 2.29-.417-1.25-1.145 1.875-1.77-.624-.834 1.355-1.56-.313s-1.354 1.25-2.19 1.562c-.83.21 0-1.873 0-1.873s-1.25 2.084-2.187 2.084c-.83 0-.52-.938-.52-.938s-.52 1.35-1.56 1.562c-.94.104-.523-1.042-.523-1.042l-1.668 1.25v-1.043l-.73-.31s.417-1.877 1.148-2.293c.73-.418-.73-1.665-.73-1.665l.73-.834s-2.085-.52-2.085-.103c0 0 1.043-2.81 2.5-3.336l.105-3.123s1.46-1.248 2.813-1.356c1.457-.207-.416-2.395-.416-2.395l3.333-1.975.416-2.397 5.104.413 1.042-2.186 4.064 1.04 3.437-1.77 2.5 2.916 3.75.314s-.105 2.603-.105 3.335c0 0 4.478 1.352 5 1.77 0 0-.833 2.71-.833 3.23 0 0 3.127-.834 4.065-.625 0 0 .313 2.92.415 3.647 0 0 5.312 1.67 5.626 2.607 0 0-1.146.727-1.77 1.665 0 0 .623 3.23.623 4.27l-.416.625s-1.563-1.458-2.813-1.666l-1.044 2.29-1.873-1.25-1.146.105s-.937-1.146-1.667-1.146l-.106-1.043-1.458.938s-2.29-1.147-2.29-1.876c0-.625.103-1.67.103-1.67l-2.396 1.67s-.52-1.25-.415-1.773c.105-.52-.937 1.252-.937 1.252s-1.25-2.19-1.147-2.608l-.313 1.773s-2.5-.83-2.81-2.5v-.002zM207.503 139.602s4.377 2.19 4.377 3.232c0 0 1.147-2.294.52-3.128l1.668 1.15s.518-2.084-.105-2.71c-.52-.52 3.748-2.29 4.686.52 0 0 2.605-2.707-2.397-5 0 0-.414-1.666 2.605-1.25 0 0-.207-1.042-.937-1.458h2.918s-1.77-1.46-4.376-1.876c-2.498-.417-.938-.728-1.042-1.253-.21-.52 0-2.397 0-2.397s-1.458-.52-2.605.104l.416-.522s-2.71-.727-3.75-.103c0 0-1.56-.625-1.352-2.294 0 0-1.563-.103-2.29 1.562 0 0-1.46 1.67-3.437 1.67-.415 0-1.875-.836-1.875-.836l-1.252 2.918-1.978-.104.624 1.145s-3.022-.83-3.96 0c0 0 1.147 1.773.832 3.022 0 0-2.397.417-2.917.834-.625.412.833.726.833.726s-2.71.834-3.336 1.67l1.045.83-1.25 1.67 1.042.206s-1.77.522-2.708.834c-.938.31 1.666.52 1.666.52l-1.25 1.145 1.98.31s-1.56 4.17-1.666 6.15c0 0 2.397-2.917 3.02-3.123l-1.874 3.125s3.543-1.145 3.856-1.67c.31-.623.624-1.144.624-1.144l.105 1.77s1.354-1.875 1.562-2.605c.105-.727 2.187.73 2.187.73v-1.044s1.876.623 2.5.73c.73.103.832-.313.832-.313l1.77-.208-.313 1.454s1.25-.832 1.563-1.666c.21-.835.832 0 .832 0l.832-3.334h1.77l.006.008zM193.23 154.4l1.666 3.437c-1.354.103-3.334 1.665-3.334 1.665.31 5.732-1.145 5.418-1.145 5.418.413 1.043-.265 2.975-.265 2.975l8.286-4.953.104-.52 9.794-4.588.31.52 2.814-1.56 1.98 5.207-1.98 1.147c.106 1.77 2.188 4.9 2.188 4.9l2.605-.624 2.813-1.046s.106 1.563.106 1.046c0-.42 3.02-1.458 3.02-1.458l1.353 1.354c1.045-.105 2.917-2.61 2.917-2.61l2.188.837s.73-1.25.73-2.187c0-.834 2.708-.834 2.708-.834l1.876 1.353 2.396-1.978s.73 1.458 1.667 1.665c1.043.104 3.646 2.082 3.646 1.67 0-.417 1.147-2.71 1.147-2.71l4.374 1.77c-.623-1.98-2.08-4.375-2.08-4.375s2.08-1.665 1.665-2.083c-.416-.418-1.667 0-1.667 0l1.248-2.5h-1.665l.52-.624-2.71-1.145 1.458-2.917c-.625-.73-7.812-2.19-7.812-2.19l1.668-1.562s-.834-1.247-1.667-1.247c-.833 0-5.21.104-5.417-.31-.106-.418-1.876-1.984-1.876-1.984l-2.71 1.982-1.353-.417-2.397.938s0 1.352-.314.414c-.31-.835-2.498-3.02-2.498-3.02-.416.726-3.23 4.06-3.23 4.06s-.415 1.774-1.353.52c-1.043-1.247-3.23-2.602-3.543-1.56-.313 1.148-2.29 2.187-2.71 1.876-.415-.315-2.71-.104-2.918.52-.104.728-2.605 2.604-2.605 2.604-1.562-.728-4.064-.31-4.064-.31s-.73 1.145-.832 2.083l-5.102 1.35h.004zm47.093 42.198v-2.19l2.498 1.67 1.46-1.67 1.876 1.874 1.146-1.874v3.023l2.813-2.497 1.665.727v-2.396s1.982-3.337 1.147-3.96l1.667-.52s-2.814-2.813-3.647-3.336c-.832-.622-1.98-.622-1.98-.622s-2.187-2.192-3.645-2.814c-1.354-.52-2.19.622-2.19.622s-.832-1.665-2.29-1.98c-1.352-.31-1.352 1.147-1.352 1.147s-1.044-1.04-2.397-1.562c-1.354-.622-.417 1.25-.417 1.25l-4.793-1.457.623 1.458-4.478-1.142.52 1.666-3.126-.524-.208 1.357-4.48.832.834 1.458-2.813-1.146v1.98l-3.125 1.144 1.146 1.045s-4.166 1.98-5.002 2.603c-.83.52 1.67 1.665 1.67 1.665l-4.48-.625 1.667 1.46-3.96 3.648 2.814 1.98-1.667 2.5 4.166.83 1.667 2.816 3.438-.625v3.125l5-3.958s3.65 3.23 3.96 2.292c.208-.834.208-3.648.208-3.648h1.77v-2.81l1.354 1.144 2.292-3.337 3.02 4.17 2.29-5.313 3.334.52h.007zm20.418-12.606l-.52-4.792-1.456 1.458.62-4.48-2.287-.418.83-4.374-1.665-.836.414-2.083 1.668-1.248 3.02-2.92 6.978.108.833-2.293 5.002.834c.832.937 3.436-1.877 3.436-1.877h1.043l1.147 2.185s3.646-.52 5.312.625l-1.98 2.71 3.646.31 2.5.525 2.605-.835 3.335-.21.833 1.354h3.126l-1.044 1.25 4.063 1.875-.833.834s2.29.834 3.958.834h.833s.832 1.977-.315 2.81c0 0 1.147 2.814 3.648 3.337 2.5.52 2.5.52 2.813 1.144.314.523 0 3.337-2.812 3.337v2.814s-2.188 1.98-2.5 2.81l-1.667-1.144s-1.456 1.67-1.456 2.814c0 0-3.648-4.795-5.002-5.005-1.46-.31-1.147 2.71-1.147 2.71l-3.957-3.333-.52 2.29-3.334-2.81-1.98 1.35-3.544-3.644-3.437.418 1.352-1.773h-4.166l-.83-3.644-.625 3.02-2.5-1.667-3.23 3.54s-.414-.417-.937-2.083c-.52-1.668-1.98 1.978-1.98 1.978l-1.146-2.603-1.354 2.603s-1.147-1.978-2.29-2.603c-1.044-.52-2.188 3.124-2.5 4.793l.003.004zm.626 10.937l.208-1.666 5.937-2.294 5.003-1.876 2.498-1.145 1.147 1.977 1.46-2.81 2.29 2.915 1.25-1.563 1.98 1.457h1.666l.312 2.192s4.168.31 4.48-.52c.312-.836.83 2.81.83 2.81l3.96.52.832 4.48s1.977 4.17 1.354 5.835c-.52 1.772-2.19-2.187-2.19-2.187s-.31 3.125-.622 3.96c-.208.83-5.313-.835-5.313-.835l-2.187 4.168s-2.29-3.333-3.333-3.333c-1.147 0-1.147 3.334-1.147 3.334s-3.334-3.96-4.793-5.627c-1.354-1.665-1.667 1.668-1.667 1.668s-2.188-3.646-2.188-4.687c0-1.145-1.98-2.293-1.98-2.293s-3.44 3.96-5.94 5.003c0 0 .313-2.5-.52-3.334-.832-.836-3.334 1.664-3.334 1.664s-1.77-3.855 0-7.814h.01z"/></g><g stroke="#004b00" stroke-width=".509" fill="none"><path d="M288.87 132.823l.522 2.084s1.874-.418 3.126-.312c0 0-.312 1.666-.73 2.396 0 0 2.5-.415 3.647.312l-.52 1.248 2.916 1.252-2.707 2.187s4.373 1.56 5.21 2.813c0 0-2.813 1.978-3.23 1.876-.416-.212-.105.83.624 1.767l-2.397-.103s.938 2.19.832 3.02c-.104.834-3.958.624-3.958.624m14.996-5.618s.73-4.167-.414-5.21c0 0 2.708 2.294 4.478 2.397 1.876.107-.105-3.438-.105-3.438s2.604 1.353 3.854 1.665c1.25.21-.938-2.604-.938-2.604s.73-1.355 2.812-.103m-48.436-16.566s.102-.937-.316-1.457c-2.498-3.438 2.607 2.606 3.647 2.814m4.79-.004s1.666 1.248 2.5 1.248-.52-3.333-.938-3.748c-.416-.417 3.02 1.353 4.272 1.563 1.25.31 1.457-2.084 1.457-2.084s3.855.625 4.69 1.147m-26.78-.725s-.31-2.187-.413-3.125m-25.83 13.55c-.21-.418 1.045-2.294.52-3.128 0 0 .73.626 1.46.73.624.104.413-2.398.413-2.398l.834.31s2.188-1.04 1.77-1.875c-.417-.83 1.46 1.25 1.46 1.25s1.25-1.25 1.25-1.77c0-.525 1.456 1.248 1.456 1.248s1.562-.313 1.562-1.248c0-.938 1.98.31 1.98.31s.83-1.144.73-1.876m-21.043 10.423s.936-2.187-.106-3.645m-25.207 10.516c.104-1.04.622-3.855.104-4.272-.52-.413 1.044.417 2.292.73m9.89-.41c-1.25-1.253-1.98-1.877-3.956-1.877m-17.19 8.85c.314-.727.834-2.5.52-3.54m26.668 55.22l1.354-2.813 1.667 3.96 1.144-2.5.416.833 2.5-2.71 2.71 4.064m43.446-17.607l1.77-3.54 2.4 1.25 1.146-3.44 2.497 1.564 1.457-3.23 2.813.73.207-2.292s1.98 1.145 2.5 1.978c.623.836 0-2.81 0-2.81l2.29 1.04s1.668-1.668-.622-2.606M281.16 173.988l2.5 3.647 2.08-2.396 1.877 4.06 2.396-1.457 3.437 1.98 1.56-1.25 3.75 2.71 1.564-3.23 3.334 1.043 2.186-3.75m-90.005-9.796s1.458-2.504.937-3.65c-.626-1.145 3.02 1.98 3.02 1.98s.832-2.5.312-3.645c-.627-1.145 4.167 3.334 4.167 3.334s.834-3.855 0-4.69c-.834-.834 4.584 1.148 4.584 1.148s2.19-.624 1.355-1.772c-.834-1.146 3.644 1.666 3.644 1.666s1.04-2.81 0-3.856c-1.147-1.144 3.333 1.355 3.333 1.355l-1.666-3.02 3.646.207-.312-3.334m32.295 48.13l2.396-1.145 2.085 2.084 2.292-3.646 2.812 2.708.415-2.708 3.02 1.252.626-1.67 3.334 1.774.312-2.502 1.666.522.314-1.668"/></g><path d="M216.668 317.983a74.49 74.49 0 0 1-6.356-13.856l45.11-39.7 45.112 39.593c-1.563 4.583-3.648 9.483-6.563 14.173l-.36.576c-.83-.31-3.39-1.307-3.39-1.307s-1.46 1.355-2.603 1.458c-1.563.21-2.917-1.35-2.917-1.35s-1.98 1.665-3.96 1.35c-1.98-.205-2.813-1.457-2.813-1.457s-2.083 1.668-3.542 1.355c-1.354-.316-2.292-1.254-2.292-1.254s-1.25 1.566-3.02 1.254c-1.667-.316-3.23-1.254-3.23-1.254s-2.6 1.144-4.27 1.354c-1.665.315-3.126-1.46-3.126-1.46s-2.187 1.46-3.02 1.46c-.833 0-3.958-1.46-3.958-1.46s-3.23 1.044-4.376 1.044c-1.043 0-4.27-1.353-4.27-1.353s-3.022.83-4.374.83c-1.46 0-3.542-.83-3.542-.83s-2.497 1.145-3.855.83c-1.458-.31-2.605-.83-2.605-.83s-2.708 1.145-4.48.83c-1.667-.31-3.646-1.453-3.646-1.453s-.313.83-3.54 1.454h-.108" fill="#9dd7ff"/><path d="M255.427 218.788v45.635l-45.11 39.91c-4.375-12.712-4.688-24.068-4.688-28.964v-56.58h49.797" fill="#fff" stroke="#000" stroke-width=".729"/><path d="M255.427 218.788v45.635l45.005 39.91c4.374-12.712 4.687-24.068 4.687-28.964v-56.58h-49.693" fill="#ffd83c" stroke="#000" stroke-width=".729"/><g stroke="#000" stroke-width=".509"><path d="M226.324 308.5c3.392 1.84 2.243 1.26 9.273 3.748 5.73 1.984 12.396 2.918 22.084 2.918 8.478 0 13.25-.672 15.935-1.413 2.784-.8 3.444-1.922 3.444-1.922l-6.98 7.087s-28.05 1.514-33.13-1.77c-1.977-1.044-6.25-4.48-10.625-8.648z" fill="#730000"/><path d="M267.48 295.27s8.96 5.104 0 14.9m-40.316-1.147l12.918-12.3-1.458 16.465m6.767 1.456V287.14m22.09 27.504v-29.172m-11.152 29.695v-31.36" fill="none"/><path d="M245.39 288.604l-5.833 1.876 5.834.625v-2.5m10.938-4.28l-6.145 2.293 6.145.207v-2.5m11.15 1.668l-6.145 2.294 6.146.31v-2.607.003zm3.646 13.24c-.312-1.25 3.648-1.145 3.648-1.145s1.147 4.166 0 6.77l-3.333-.624s.31-2.81-.316-5z" fill="#ff0018"/><g fill="#fff"><path d="M229.14 307.354l10.94-10.63-.52 6.357s-5.626 3.646-5.626 6.252l-4.794-1.978m5.827 2.19s1.147-3.333 4.27-5l-.31 6.67-3.958-1.67h-.003zm15.74-18.44s4.477-.626 7.812 0c0 0-.522 4.48 0 5.31 0 0-6.148-1.458-8.647.833 0 0-.834-4.167.833-6.144zm-9.483 1.146s4.48-.625 7.812 0c0 0-.832 5.003-.313 5.835 0 0-5.002-2.814-7.5-.524 0 0-1.667-3.434 0-5.31zM240.906 298.076s4.48-.52 7.814 0c0 0-.52 4.48 0 5.316 0 0-5.834-1.356-8.336.83 0 .002-1.146-4.165.522-6.146zm8.96-.83s6.46-.83 9.792-.31c0 0-1.354 3.647.314 6.146 0 0-6.98-1.875-9.586.31 0 0-2.186-4.166-.52-6.145zm-9.472 6.984l8.645.624s-.833 6.356-.313 7.19c0 0-6.98-1.67-8.337.622 0 0-2.292-5.833 0-8.44h.003v.004zm9.79 0s7.497-.522 10.938 0c0 0-1.982 4.796.21 8.96 0 0-9.796-2.81-11.15-.522 0 0-2.29-5.834 0-8.438h.002zm11.458-13.127s4.478-.625 7.813 0c0 0-.52 4.48 0 5.312 0 0-6.146-1.46-8.644.832 0 0-.835-4.167.832-6.144zm0 6.144s4.478-.52 7.813 0c0 0-.52 4.48 0 5.313 0 0-6.146-1.353-8.644.835 0 0-.835-4.17.832-6.148zm.522 6.46s4.478-.62 7.916 0c0 0-1.146 6.98-.624 7.815 0 0-5.1-2.396-7.5-.31 0 0-1.457-5.52.208-7.504zM271.432 304.23s1.456 5.312 3.332 5.94l-2.5 3.02s-3.02-2.188-3.333-4.685c0 0 1.98-2.295 2.5-4.275z"/></g></g><g stroke="#000" stroke-width=".61"><path d="M293.765 318.607c-7.187 11.984-18.96 23.234-38.336 30.214-19.69-7.08-31.67-18.854-38.757-30.735l.106-.104c3.227-.627 3.54-1.458 3.54-1.458s1.98 1.146 3.647 1.46c1.77.31 4.48-.835 4.48-.835s1.145.522 2.603.834c1.354.31 3.856-.833 3.856-.833s2.082.834 3.54.834c1.354 0 4.376-.833 4.376-.833s3.23 1.352 4.27 1.352c1.147 0 4.375-1.044 4.375-1.044s3.126 1.46 3.96 1.46c.83 0 3.02-1.46 3.02-1.46s1.456 1.77 3.124 1.46c1.668-.207 4.27-1.352 4.27-1.352s1.563.938 3.23 1.25c1.77.314 3.022-1.25 3.022-1.25s.938.938 2.292 1.25c1.458.314 3.54-1.355 3.54-1.355s.833 1.25 2.815 1.458c1.98.313 3.958-1.352 3.958-1.352s1.35 1.562 2.916 1.352c1.147-.105 2.603-1.46 2.603-1.46s2.605.833 3.542 1.15" fill="#006ac8" stroke="none"/><path d="M291.994 321.32c-1.562.107-1.77-.937-1.77-.937s-2.082 1.773-4.063 1.46c-2.082-.31-3.02-1.667-3.02-1.667s-2.19 1.772-3.647 1.458c-1.458-.208-2.498-1.25-2.498-1.25s-1.354 1.564-3.126 1.25c-1.77-.208-3.336-1.25-3.336-1.25s-2.812 1.148-4.585 1.46c-1.77.313-3.23-1.668-3.23-1.668s-4.063 1.356-4.895 1.356c-.938 0-3.857-1.356-3.857-1.356s-1.978 1.252-3.124 1.252c-1.25 0-4.583-1.46-4.583-1.46s-3.127.836-4.585.836c-1.46 0-3.646-.836-3.646-.836s-2.71 1.146-4.168.836a14.294 14.294 0 0 1-2.605-.836s-2.917 1.146-4.688.836c-1.77-.315-3.856-1.458-3.856-1.458s-.31.726-3.75 1.458h-.104" fill="none"/><path d="M227.297 325.57s-.29.682-3.008 1.28c-.06-.004-.737.16-.737.16.25-.045.454-.08.672-.127-.096.036-.31.114-.768.256 3.072 4.437 7.674 8.465 12.47 11.696 4.795 3.23 10.306 7.087 19.69 9.84 9.866-3.853 12.5-5.32 18.947-9.637 6.448-4.71 9.808-7.645 13.404-12.478-2.816 1.6-2.41 1.618-3.872 1.408-1.458-.31-2.528-1.376-2.528-1.376s-1.33 1.586-3.104 1.376c-1.77-.31-3.328-1.376-3.328-1.376s-2.314 1.575-4.608 1.472c-1.77-.106-3.232-1.664-3.232-1.664s-4.064 1.344-4.896 1.344c-.938 0-3.84-1.344-3.84-1.344s-1.99 1.248-3.136 1.248c-1.25 0-4.576-1.472-4.576-1.472s-3.118.832-4.576.832c-1.46 0-3.648-.832-3.648-.832s-2.598 1.145-4.16.832c-1.46-.31-2.624-.832-2.624-.832s-2.902 1.145-4.672.832c-1.77-.31-3.872-1.44-3.872-1.44z" fill="#5ac800"/><path d="M255.62 348.682c10.193-4.242 12.034-5.396 18.2-9.166-1.077.03-4.204-.98-3.072-1.302 0 0-1.254 1.13-2.503 1.13-1.147 0-4.48-1.455-4.48-1.455s-3.124.83-4.583.83c-1.46 0-3.647-.83-3.647-.83s-2.71 1.142-4.168.83c-1.46-.31-2.605-.83-2.605-.83s-3.02 1.142-4.686.83c-1.77-.31-3.856-1.458-3.856-1.458s-2.564 1.36-4.174 1.516c4.925 3.607 10.11 7.128 19.575 9.904z" fill="#ffd800"/></g><g stroke="#000" stroke-width=".509"><path d="M248.71 265.564c2.024-1.648 3.186-3.235 2.51-4.467-.76-1.057-1.95.662-3.29.26 0 0-2.025-1.253-2.577-2.15-1.18-1.312-2.7-2.492-3.573-3.62-.927-1.045-4.414-5.654-9.72-10.96-1.526-.996-1.177-4.762-2.27-5.932-.093-.815-10.607-11.223-14.36-14.988-1.515-1.116-2.315-1.84-4.98.577-2.105 1.898-2.86 3.857-.1 6.222l13.676 12.436c1.997 1.94 4.788 2.295 5.958 3.3l13.902 14.216c1.75 1.513 2.59 2.585 1.6 3.878-1.098 2.127.077 2.414.327 2.478.16.09 1.142.086 1.797-.42l1.1-.83z" fill="#b34b00"/><path d="M214.036 228.27l14.293 14.123" fill="none"/><path d="M233.39 234.72c.22-.424.705-1.507 1.216-2.69.2-.466 4.045-6.597 5.962-6.778 0 0 11.958 8.7 11.967 8.814.04.47-5.187 8.287-5.64 7.693-.003 0-14.01-5.88-13.505-7.04z" fill="#fff"/><path d="M241.01 236.77c-1.64-1.273-4.345-2.513-6.53-3.97l-.98 2.05c.79.883 10.738 5.51 12.373 6.4 0 0-1.896-2.174-4.864-4.48z" fill="#ccb8c8" stroke="none"/><path d="M234.476 232.54c1.28.896 3.712 2.432 5.248 3.328 2.944 2.048 4.807 4.304 6.912 5.504" fill="none"/><path d="M210.248 269.804l27.225-33.694c.51-.467 3.034-.493 3.376 2.117l-25.784 35.14s-2.937-.29-4.818-3.563z" fill="#782121"/><path d="M301.507 270.172c-.938.732-2.533.922-2.533.922-1.77-2.084-3.232-4.272-5.73-6.98l-27.193-33.447 2.813-2.708 24.48 28.65c.73.73 5.005 5.21 9.068 10.52.003.004.357 2.083-.903 3.042z" fill="#730000"/><path d="M275.323 234.936l-4.377-5.21s-3.333.416-3.956 2.19c0 0-2.398 3.96-8.753 4.376 0 0 1.77 7.396 9.168 11.355 0 0 2.71-7.607 5.313-8.962 0 0 2.707-1.98 2.605-3.75z" fill="#fff"/><path d="M264.387 258.068c-.624-.21-1.25 0-2.19.522-.83.522-1.873.31-1.77-.73.105-.94 0-.833 1.147-1.562 1.668-.938 3.855-1.043 5.21-.522l-2.397 2.292m29.685-29.593c-.21-.727-.414-1.455.313-2.393.73-.834.73-2.294-1.044-1.565-1.77.73-2.394 2.71-.935 5.73l1.665-1.772h.002z" fill="#730000"/><path d="M263.762 258.693L294.6 228.06l7.602 8.128s-1.56-.627-2.187-.21c-.52.416.624 1.98.624 1.98s-1.46-.52-2.084-.105c-.73.414 0 2.187 0 2.187s-1.25-.938-1.876-.522c-.52.417 0 2.395 0 2.395s-1.667-.52-2.08-.105c-.42.418 0 2.19 0 2.19s-1.67-.834-2.502 0c-.83.83.416 1.98.416 1.98s-2.083-.834-2.917.415c-.832 1.25.105 2.396.105 2.396s-1.666-.833-2.082-.42c-.417.42 0 2.397 0 2.397s-1.458-.833-2.396.21c-.938 1.147.104 2.085.104 2.085s-1.352-.835-2.084-.42c-.73.42.208 2.395.208 2.395s-1.352-.938-2.29 0c-.938 1.046 0 2.084 0 2.084s-1.147-1.04-2.292 0c-1.043 1.15 0 2.294 0 2.294s-1.665-.833-2.29 0c-.73.83.207 1.98.207 1.98s-1.248-.73-2.082-.315c-.83.417 0 2.293 0 2.293s-1.25-1.356-1.77-.624c-.625.727.104 2.5.104 2.5s-1.148-1.357-1.77-.625c-.73.624.414 2.188.414 2.188s-2.083-.938-1.562-.938z" fill="#fff"/><path d="M292.823 230.564l-2.396 2.396.52 8.232s.52-2.396 1.25-.73c0 0 .21-1.98.73-1.666-.42-.21-.105-8.232-.104-8.232m-4.475 4.475l-1.77 1.664.623 8.232s.524-3.125 1.25-.624c0 0-.104-2.083-.104-2.814.002.52.002-6.46.002-6.46M269.7 253.49l-1.666 1.77.418 5.003s.52-3.23 1.25-.73c0 0-.21-2.08-.21-2.813 0 .52.21-3.23.21-3.23" fill="#7e4b7e" stroke="none"/><g stroke="#7e4b7e" stroke-width=".916" fill="none"><path d="M267.612 232.858c1.147 1.145 4.377 5.31 4.377 5.31m-2.914-3.017c-.206.628-.62 2.398-1.56 3.335m2.072-2.924c-.104.417-.104 1.772-1.56 3.128m2.082-2.492c-.208.727-.312 1.25-.83 1.772m1.148-1.148c0 .52-.31.625-.415.938m-3.435-2.924c-.416.415-3.44 2.394-5.105 3.02m4.265-1.874c-.416.42-2.29 1.877-3.334 2.295m3.027-1.045c-.623.42-1.666 1.458-2.5 1.772m1.876-.522c-.415.52-1.042.937-1.56 1.25M246.723 239.626c.34-.627.932-1.86 1.707-2.987.982-1.43 1.404-1.673 1.92-2.177"/></g></g><path d="M146.145 323.615c1.563.728 0-5.107.52-7.294.624-2.29 5.103 5.627 7.293 6.67 2.292 1.146 16.25-5.523 16.25-5.523l3.335-6.25 1.772 5.104s3.853-4.48 5-6.145c1.146-1.666 0 3.335-1.147 5-1.147 1.67 3.334 2.294 2.812 5.628-.52 3.335 4.48-2.293 4.48-2.293l12.918 1.146s2.186-7.815 5.625-12.295l1.042 5.005 5.313-5.417c5.938 15.63 18.44 32.613 44.068 41.885 24.065-8.752 36.462-24.278 42.918-39.075l7.19 7.4s5.626-1.67 6.667-2.29c1.146-.523 13.23 4.272 13.23 4.272s2.19.833 3.335 1.67c1.145.83.312-3.65.312-3.65s6.147 1.145 5.625 4.48c0 0 1.353-3.124 2.5-3.645 1.147-.52 3.853 2.814 4.48 3.96.52 1.043 13.752 2.71 15.626 3.854 0 0 1.46 1.67 1.46 2.813 0 0 2.814-.313 5.002-.313 0 0-1.667.83-1.667 2.604 0 1.668-.834 3.024-2.5 3.854-1.668.836 0 1.458 2.187 1.67 2.292.31 0 3.125-4.48 4.795 0 0-1.042 2.497.834 3.33 0 0-3.856.315-4.48-.832 0 0-1.352 2.605-1.352 3.96 0 0-4.166-1.355-5.312-1.98 0 0-1.668 1.666-.522 2.5 0 0-7.604-.83-9.064-3.645 0 0-2.71.832-2.188 1.77 0 0-5.313-3.645-6.98-3.645l-1.145 1.872s-3.645-2.187-4.792-2.187c-1.044 0-.21 1.666-.21 1.666l-5.1-3.125-1.98 3.126s-4.168-1.98-5.313-2.81c-1.044-.833-1.352 1.666-2.188 1.977 0 0-1.667-2.29-3.958-1.977 0 0-.834 2.81-.52 3.646 0 0-6.46-1.354-7.606-1.67-1.147-.31-.52 1.356 0 2.504 0 0-4.793-1.355-5.835-2.19l-.313 2.19s-3.957-.315-4.79-1.148l-2.5 3.436h-3.648l-.833 3.02s-6.978-1.975-7.605-.83c-.52 1.144.313 2.81.313 2.81l-6.146-.83-.52 2.5s-7.085-2.19-8.752-1.15c0 0-2.188 2.294-3.647 2.815-1.35.624 0-.834 0-.834l-2.186-3.02s-2.5 1.353-3.958.833c-1.353-.628-5.834 2.186-7.294 1.35 0 0 0-1.98-1.144-2.5-1.044-.52-3.02-.52-3.857.835 0 0-.83-1.147-2.29-3.335-1.353-2.292-3.334.208-3.334.208l-.313-2.71-3.855-.313c-2.292-.312-2.812-2.294-2.812-2.294s-5.938.626-6.772.316l1.457-1.357s-8.124 1.67-9.79 1.046c-1.772-.52 1.876-2.815 1.876-2.815s-7.503-1.872-8.96-2.187c-1.354-.312-9.48 1.35-10.628 1.35-1.146 0-1.667-1.876-1.667-1.876s-1.98 1.67-3.647 2.192c0 0-1.354-3.334-.52-3.648 0 0-5.31 1.458-5.625 2.814 0 0-1.354-2.187-1.147-3.125 0 0-2.5 3.96-3.645 4.79-1.147.836-.21-1.978-.21-1.978s-3.122 3.957-4.27 4.272v-2.815s-8.96 4.793-11.46 4.17c0 0 0-1.983.834-2.5l-5.627-.314c-1.352-.207-3.02-.83-4.478-1.145-1.354-.21 1.98-1.666 4.27-1.043 0 0-6.25-2.29-8.126-1.148 0 0-.835-2.29 2.497-3.125 0 0-4.272-4.168-6.773-3.856 0 0 2.814-1.666 5.106-.835 0 0-2.605-7.084-4.272-7.917 0 0 5.94-1.043 7.605-.206l.002-.002z" fill="#289400" stroke="#060" stroke-width=".521"/><path d="M137.492 201.39l75.842-39.282c.364-2.03-.79-3.625-1.978-5.21-21.69 10.637-41.427 23.544-65.528 31.363-1.354.524-13.335 5.524-19.482 12.923-1.948 1.954-2.092 4.838-2.092 4.838s.15 3.31.845 4.203c0 0 .18.908 1.312 1.634-.013 0 .7.35 1.194.173.55.104 1.447.097 2.698-2.094 1.25-2.086 5.314-6.877 7.188-8.546z" fill="#730000" stroke="#000" stroke-width=".521"/><path d="M198.543 162.53l9.792-4.69s3.335 2.5 3.022 5.314c0 0 .73 6.458 8.752 10.938 0 0-6.775 8.44-18.65 9.17 0 0 1.363-11.137-1.136-14.37 0 0-.416.4-.235-.152.354-1.084-.242-4.8-1.763-5.62-.185-.1.12-.404.216-.59z" fill="#fff" stroke="#000" stroke-width=".521"/><path d="M210.002 163.88c-2.083.834-8.855 4.375-8.855 4.375m5.63-2.295c-.106 1.04-.73 3.542 0 5.313m-.943-4.996c0 .52-.832 2.396.106 4.898m-1.14-4.375c-.21 1.045-.416 1.668 0 2.816m-.84-2.192c-.208.624 0 .938 0 1.353m6.144-1.67c.312.83 3.126 5.208 4.793 6.98m-4.373-5.004c.315.833 1.876 3.855 3.022 5.003m-3.226-3.232c.415 1.043 1.25 2.92 2.082 3.96m-2.082-1.87c.208.834.624 1.875 1.25 2.606" stroke="#7e4b7e" stroke-width=".814" fill="none"/><g stroke="#000" stroke-width=".509"><path d="M279.777 158.167l27.86 13.642c5.582 2.712 7.59.206 10.74 1.575l54.982 28.007c4.715 2.06 7.356 2.72 6.68 5.16-.117 3.877 1.83 3.935 2.364 3.976.385.104 2.243-.17 3.02-1.2.58-.672.602-.74.602-.74.623-.624.51-.68.704-.958 2.312-3.327 3.593-6.21 1.173-8.094-2.766-1.297-3.085 1.645-5.998 1.335 0 0-5.21-1.98-7.085-3.333-3.455-1.88-8.278-4.112-9.375-5.336-3.51-.657-29.934-15.52-44.904-22.98-1.605-1.344-2.48-6.314-5.634-7.977-.926-1.343-21.19-10.595-31.788-15.892-3.906-1.46-6.092-2.458-8.906 2.335-2.456 4.7-1.86 7.265 5.565 10.482z" fill="#b34b00"/><path d="M282.132 152.33l31.19 15.573" fill="none"/></g><g fill="#ffa54b" stroke="#000" stroke-width=".509"><path d="M189.164 169.083c-.208.625-.73.208-.73.418-.414 2.187-.312 3.332-.832 4.583-.73 1.458-3.334 2.814-3.23 2.71-2.083.622-4.582 3.126-8.644.832-.21-.103-.416-.313-.625-.52 0 0 1.144 4.27-3.02 6.353-1.46.73-16.15 8.442-16.15 8.442s-1.562 2.814-.52 6.668c.105.625.312 1.145-.313 1.563-.938.728-2.71 2.815-3.75 6.15 0 0-3.126-1.357-3.126-3.335 0-1.98 1.25-3.022 1.563-4.484.31-1.35 1.143-4.79.73-5.833-.417-1.146-2.293-1.563-3.022-1.98-.625-.417-1.46.416-1.354 1.354.107 1.043.834.833 1.668 1.043 0 0-.938 1.98-.832 3.437l-9.48 4.898s1.25 1.665 1.666 2.396c.414.73 1.352 10.42 4.166 15.005 2.813 4.583 3.75 3.333 4.376 3.957.52.52 1.353 1.353 2.083 1.98.73.52 3.957.83 4.584-.937.73-1.67 1.25-2.71 3.23-4.274 1.98-1.56 6.04-5.52 6.04-7.294 0 0 2.398 6.877 2.084 12.608 0 0 8.75 1.773 16.565 1.98 7.815.106 11.772-1.562 11.772-1.562s1.043-6.563.623-7.814c0 0 1.25 4.272 2.188 5.73 1.044 1.77 2.187 5.415 4.48 5.625 2.187.102 4.063-2.187 4.27-3.125v-6.877h8.855c0-.104 3.96 1.458 5.208 1.25 1.25-.106 1.98-1.25.832-1.668l-.414-.31c1.143 0 2.604.727 2.604.727h4.373c.107-.104 0-.418-.104-.52-.313-1.252-2.605-2.294-4.27-3.02-1.668-.625-3.542-1.357-4.794-1.46-1.978-.21-3.334-.103-6.355.418-.832.104-3.957.415-5.938 1.353-.522.313-1.044.416-.833-.938.313-1.46.21-8.023-1.352-10.837-1.147-1.978-1.042-3.648-.834-5.313.108-1.67.21-7.398 0-9.066-.312-1.666-2.604-3.96-6.768-4.48-3.96-.523-7.294-3.752-7.5-6.356-.313-2.603.417-7.396.833-9.48" fill="url(#c)"/><g fill="none"><path d="M171.46 157.317c-.73 3.33-.73 6.25-.625 9.48.104 2.186 1.145 4.686 2.083 6.875.623 1.46 1.46 3.126 2.812 3.96 3.647 2.396 7.085-.208 9.064-1.04.938-.317 2.397-1.666 2.813-2.502.52-1.248.31-2.186.832-4.582-.107.102.83-.418.728-.418.938-1.563.73-2.083 1.25-3.127.52-1.043-.624-2.188-1.876-1.978.624-1.98 1.043-4.17.415-6.045-.207-.623.522-2.29-.623-1.876-4.69 1.876-10.21 1.46-15.21 1.46-.416 0-.73-.835-1.353-.727-.105 0-.208.31-.313.517" fill="url(#d)"/><path d="M171.04 159.078c-.52-.415-.626-1.35 0-3.334.728-1.975 0-2.083 1.145-3.228 1.146-1.147.833-1.67 1.562-1.98.73-.21 2.918-.21 3.648-.52.623-.314 1.56-.73 3.017-.937 1.563-.316 4.69-.212 6.147.622 1.562.83 2.605 2.918 3.543 3.646 1.044.727 1.67 3.75 1.46 8.13-.315 4.373-1.147 3.54-1.147 3.54s-1.25-2.083-2.292-.316c0 0 0-1.665.21-2.916.104-1.248-.626-3.54.104-5.105 0 0-5.94 1.877-8.962 1.772-3.124-.207-7.497-.938-7.706-1.665l-.73 2.29" fill="#000"/><path d="M174.06 155.443c-.313-.624-1.876-2.918-.624-3.646 1.147-.627.416 2.81 1.98 3.54 0 0-.52 1.563-1.35.105h-.006z" fill="#fff" stroke="#fff" stroke-width="1.024"/><path d="M177.5 163.983c-.52 1.774-.73 2.19-.938 3.232m10.84 1.663c.21.625.414.31.936.415m.416-4.06c.52-.624 1.25-.31.832 1.252M171.46 161.485c.937.31 1.875.622 2.813 1.044 1.562.624.624 2.913.208 4.373-.207.73-1.042 1.98-.622 2.607.52.83 1.146.31 2.084.413 0-.31.623-.52.832-.52.73-.103 1.147.52 1.666.315.625-.316.522-1.254.314-1.773m-.107-4.586c.104-.414 1.042-.832 1.563-.938 2.187-.415 3.75-.73 5.522.523m-5.836 11.35c-1.77.418-3.646.727-5.312-.21m-.002-.824c.832-.417 1.147-.835 2.188-.315 0-.103 1.147-.414 1.147-.414.83 0 1.354.312 2.187.832m-5.625.308c.937-.313 3.438-.313 5.523.105"/><path d="M171.356 163.983c.73-.102 1.563-.938 3.23.314 1.147.73-1.876 1.46-1.354 1.355-1.352.207-1.77-.52-1.872-1.148 0-.207-.21-.52 0-.52h-.004zm129.524-3.014c.73-1.46 1.876-1.146 2.918-.836 1.043.313.73.107 1.668.628-1.147.207-.834.31-1.668.727-.938.416-1.77.623-2.398.21-.21-.21-.73-.52-.73-.938 0 .103.106.207.21.207z" fill="#fff"/><path d="M172.81 165.233c.416 0 .73-.416.73-.834 0-.52-.314-.94-.73-.94-.52 0-.83.42-.83.94 0 .417.31.833.83.833zm129.808-3.668c.414 0 .73-.413.73-.938 0-.52-.418-.83-.834-.83-.415 0-.73.31-.73.83 0 .526.418.938.834.938z" fill="#000"/></g><g id="g"><g fill="none"><path d="M226.15 218.788c-.622-.73-1.042-1.045-1.874-1.356l-2.084-1.04c-.73-.418-1.77-.52-2.397-.938m.416 2.71c-.312-.21-.52-.312-.83-.523-.314-.102-.73-.102-1.045-.207-.104 0-.104-.21-.208-.21-.937-.103-1.875-.52-2.498-1.352m-64.283-9.585c.936.727 3.228 2.294 3.437 5.314.21 1.56 1.043 3.124 1.043 3.124m-13.44-8.02c.522 1.77.625 7.604 6.147 13.753m-5.102-21.883c-.418 1.146-.938 2.188.207 3.022m14.793 10.945c1.147-2.605 4.688-2.397 4.688-4.895M163.645 212.224c-.313-2.917-.938-4.582-.414-8.855.21-1.253.415-6.042 0-8.337 0 0 1.67 8.02-3.75 9.588m35.213 12.816c0-4.065.938-6.358.938-6.358 1.25-5.727-1.145-7.916-.207-9.375.832-1.25 2.084-3.856.417-9.066 0 0 2.915 10.736-4.585 10.736-7.604 0-7.292-2.814-7.292-2.814M163.226 195.03c0 2.187 0 8.65 9.272 8.65 2.812 0 5.835-1.98 7.5-3.333m2.294-2.817c-.313-1.98-.313-4.48-.313-7.086m-13.962-3.533c2.5-.315 4.48-.624 9.17-.624m.312-6.472c.52 2.294-.31 5.94 3.96 6.46m4.478-7.29c-.625 1.67-.625 3.335-.834 4.48m.21 2.822c1.77 0 5.104-1.148 9.27-.313m1.46 23.333c.833 1.67 1.043 3.855 3.647 6.356m-32.502-11.67c.21 1.355-1.77 5.834-.313 9.483 1.354 3.645 1.147 7.814-1.147 11.355m6.775-19.477c-.832 1.665-2.292 3.334-2.605 4.792m6.762-1.67c0 1.044-2.81 8.96-4.792 11.148 0 0 3.647 1.46 3.124 6.773m7.505-21.565c0 1.356-.21 1.67.938 2.5m2.503 0c1.352 1.666 5.624 6.67 4.686 9.48m-7.502-6.665c.313 1.043.313 6.46-.625 9.17m-2.18-.21c-1.148 0-2.813.834-3.126 2.813m8.953-3.13c1.145-.314 3.435 1.665 3.435 7.294m16.05-10.52c-2.186.625-3.124 1.774-2.497 1.146-1.146.938-2.188 1.563-2.188 1.563"/></g><path d="M168.745 202.742c.623 0 1.145-.418 1.145-.938 0-.42-.52-.836-1.145-.836-.52 0-1.045.415-1.045.836 0 .517.52.938 1.045.938zm144.7-4.435c.522 0 1.044-.414 1.044-.938 0-.518-.52-.83-1.046-.83-.62 0-1.144.312-1.144.83 0 .523.522.937 1.144.937z" fill="#000"/><path d="M159.273 245.565c1.25-8.127 5.105-14.9 5.208-15.525 0 0 3.96.835 10.835 1.458 6.77.727 8.647.418 11.772.207 3.02-.31 6.978-.83 6.978-.83s1.25 2.498 1.354 5c.31 5.312 2.29 28.34 2.497 34.487 0 0 .833 3.647.833 12.607 0 9.796 2.71 29.694 2.71 40.325l-2.71.522s-14.792 1.146-14.792-.833c0-2.186-.833-27.716 1.353-43.137 0 0-.52-3.02-1.352-5.628-.833-2.502-4.48-10.316-4.48-11.98 0 0-5.832 16.458-6.146 19.276-.31 2.604-1.146 39.278-1.667 42.304 0 0-8.438 6.46-9.584 7.086-1.144.52-9.27-3.44-9.48-4.48-.313-1.145.834-13.547 4.688-33.973 1.46-7.294.625-8.642.625-10.624 0-1.98.106-28.134 1.354-36.263l.006-.002z" fill="#fff"/><path d="M173.332 281.518c-.623 2.294-1.667 4.48-3.644 5.942m-2.817-54.92c-.31 1.354-2.29 7.5-7.292 11.148m14.584-10c-1.147 3.647-5.625 23.237-6.46 46.47m-.31 7.3c-.208 2.186-1.352 18.444-1.666 21.253m-.83 3.13c-.522 1.143-2.813 10.623-2.813 19.065m33.02-36.78c-.21 1.978-1.044 16.043 3.646 28.65m-18.956-88.043c-.312 2.29-.833 17.088-.833 18.233 0 1.144 1.668 2.813 2.5 3.127 0 0-1.666.52-1.978 6.147m-4.173-13.234c-.317 1.77-1.982 8.752-3.128 11.566m13.438-26.045s5.002 1.042 5.313 0c0 0 1.667 30.22 3.96 46.992m-11.454-43.143c0 1.98-.624 16.88-.624 16.88m2.497 2.187s1.978 2.81 1.46 4.163m-18.233-28.75c1.668.52 3.126.832 3.126.832m5.312 1.666c-.314.834-.625 4.69-.625 4.69m8.96 39.803c.625.832 1.46 1.98.834 4.48" fill="none"/><path d="M163.748 229.837s0-3.334 1.25-5.003c0 0 3.54.73 8.54 1.25 5.105.52 9.167.94 12.92.52 3.75-.415 7.605-1.353 7.605-1.353s1.042 4.9.52 5.63c0 0-4.065.833-8.543 1.04-4.584.31-12.187-.418-14.79-.832-3.44-.418-6.463-1.044-7.502-1.25z" fill="#9b5f00"/><path d="M166.973 230.246l.623-5 1.043.103-.208 5.21-1.46-.314m22.61-4.167l.107 5.627 1.25-.21-.105-5.733-1.252.315m-16.046 0l-.415 5.417h.73l.73-5.418h-1.045" fill="#fff"/><path d="M155.412 328.51c-.312 1.353-.83 3.23-1.042 5.627 0 .52-.52 3.334 1.042 3.437 1.147.105 1.46-2.917 1.46-2.917s-1.044 3.334.312 3.75c1.876.414 2.083-3.646 2.083-3.646-.21 1.147-1.46 4.065.313 4.374 1.875.315 2.395-3.96 2.395-3.96s-1.56 4.275.313 4.378c1.77.103 1.77-4.17 1.77-4.17s-.938 5.108 1.563 4.69c1.353-.207 1.668-1.98 1.98-3.02.416-1.562 1.354-3.54.21-6.772-.832-2.397-.52-3.022-.52-3.022s-2.92 2.19-5.21 3.648c-1.043.623-6.67-2.397-6.67-2.397zm151.78-12.185c-.52-.314-.415 1.876-.623 2.914-.106 1.045.208 3.334 3.75 3.128 3.436-.315 6.876-1.043 9.064-.522 2.188.625 5.416.728 7.19.728 1.77 0 2.917-.206 3.748-.52.73-.31 2.292.417 3.02.417.73 0 1.876-1.145 1.772-1.875-.105-1.356-1.353-1.356-3.127-1.458-1.667-.208-3.958-.523-5.102-.938-1.147-.42-3.23-1.565-5.835-2.085 0 0-5 .21-6.04.21-1.043 0-7.19.31-7.817 0z"/></g><g fill="none"><path d="M133.847 194.406c-.52.314-1.147-2.083.416-3.02 0 0 .416-1.98 2.084-2.19 0 0 1.352-1.875 3.335-1.664 0 0 2.288-1.56 3.124-1.355.832.104 2.917 2.187 3.02 2.918.21.728 0 1.98-.522 2.5-.624.623-1.043-.104-1.146-.937 0 0 .416 1.56-.833 2.186-1.248.73-1.146.21-1.248-.625 0 0-.315 1.668-1.147 1.875-.833.312-1.354-.418-1.98-.418 0 0 1.042.836.313 1.46-.73.52-1.563.31-2.085-.104-.52-.52-1.147-1.876-3.335-.625l.004-.002z" fill="#ffb366"/><path d="M144.056 190.556c-.522-1.668-2.188-3.127-4.166-2.916m2.292 4.473c-.313-.418-.417-.836-.73-1.25-.937-1.564-2.916-1.458-4.583-1.876m2.496 4.692c-.623-.416-.832-1.252-1.46-1.56-1.04-.42-2.082-.94-3.332-.732"/></g></g><g transform="translate(-128) scale(1.024)" stroke="#000" stroke-width=".509"><path d="M439.14 165.12c.712-.306.51.61.61.916.306 1.32.306 2.748.813 3.967.608 1.12.812 1.526 1.83 2.035 1.627.916 6.407 3.562 9.767 1.424a3.11 3.11 0 0 0 .712-.508s-1.22 4.172 2.95 6.207c1.32.71 15.668 8.242 15.668 8.242s1.525 2.748.61 6.512c-.205.61-.406 1.118.203 1.526 1.02.71 2.644 2.748 3.766 6.004 0 0 2.946-1.324 2.946-3.256 0-1.934-1.22-2.95-1.525-4.375-.2-1.324-1.016-4.682-.607-5.698.405-1.118 2.135-1.526 2.847-1.936.714-.41 1.526.405 1.322 1.32-.102 1.02-.812.817-1.628 1.02 0 0 1.02 1.93.814 3.355l9.358 4.783s-1.22 1.63-1.628 2.34c-.51.715-1.425 10.175-4.17 14.653-2.75 4.478-3.664 3.257-4.172 3.867-.61.508-1.424 1.324-2.137 1.934-.61.51-3.765.815-4.477-.915-.712-1.628-1.22-2.647-3.153-4.174-1.934-1.523-5.9-5.39-5.9-7.122 0 0-2.34 6.72-2.035 12.313 0 0-8.443 1.732-16.176 1.937-7.632.102-11.498-1.528-11.498-1.528s-1.018-6.41-.61-7.632c0 0-1.22 4.172-2.033 5.596-1.12 1.727-2.237 5.29-4.376 5.493-2.236.104-3.968-2.135-4.27-3.05v-6.717h-8.647c0-.1-3.766 1.424-5.087 1.223-1.22-.105-1.832-1.223-.813-1.63l.407-.304c-1.12 0-2.544.71-2.544.71h-4.272c0-.102.103-.41.103-.51.308-1.218 2.546-2.24 4.273-2.95 1.628-.608 3.356-1.323 4.578-1.423 1.934-.203 3.257-.1 6.207.408.812.1 3.967.408 5.798 1.322.508.304 1.118.405.813-.915-.305-1.426-1.22-5.598.307-8.346 1.018-1.933.916-3.56.813-5.19-.204-1.728-1.118-5.597-1.118-7.324 0-5.7 4.375-8.04 8.24-9.262 4.272-1.32 7.12-2.748 6.92-5.288-.104-2.646.608-7.02.202-9.058" fill="url(#e)"/><g fill="none"><path d="M456.34 153.63c.916 3.356 1.12 4.17 1.12 5.29 0 1.22-.51 1.425-.104 2.75.713 2.44-.712 5.087-2.44 7.936-.814 1.32-1.425 3.052-2.747 3.866-3.357 2.135-7.428-.408-9.564-1.327-1.117-.505-1.73-1.32-2.033-2.135-.407-1.22-.51-2.34-.813-3.967 0-.306.103-1.22-.61-.916-1.22-1.424-1.017-2.034-1.523-3.05-.51-1.022.916-2.14 2.034-1.935-.61-1.933-.915-4.072-.305-5.904.204-.608-.508-2.235.51-1.832 4.577 1.832 9.97 1.426 14.854 1.426.403 0 .71-.812 1.32-.71.097 0 .2.305.3.508" fill="url(#f)"/><path d="M456.75 155.35c.508-.406.204-2.34-.306-4.375-.203-1.017-1.018-1.424-2.136-2.542-1.12-1.122-1.525-1.122-2.236-1.424-.61-.207-2.034-.207-2.746-.51-.61-.307-2.238-.104-3.766.102-2.036.304-3.153.202-4.68 1.018-1.525.814-2.745 1.73-3.255 3.256-.406 1.118-1.12 2.542-.814 6.817.205 4.272 1.02 3.458 1.02 3.458s1.12-1.627 1.832-.61c0 0-.103-2.24-.305-3.56-.103-1.222 0-2.748.51-4.58 0 0 4.678 1.732 9.053 1.732 3.053 0 7.02-.306 7.123-1.017l.71 2.235h-.003z" fill="#000"/><path d="M450.44 160.14c.61 1.732.104 1.222.408 2.34m-10.278 2.03c0 .812-.61.61-1.02.61M456.85 158.82c-.916-.713-2.645-.204-3.46.102-1.525.71-.712 2.24-.204 3.664.204.71 1.02 1.727.51 2.44-.406.813-.712.41-1.628.51.104-.307-.812 0-1.117 0-.61-.1-.915.404-1.425.203-.608-.305-.508-1.22-.306-1.73m.1-4.48c0-.403-1.32-.81-2.745-.915-2.238-.102-2.442.104-4.172 1.322m11.497 8.953c-.405-.608-1.018-.916-2.137-.405 0-.204-1.524-.406-1.524-.406-.813 0-1.322.302-2.137.71m5.587.61c-.916-.61-3.256-.2-5.596-.2m.206.81c1.73.512 3.46.816 5.188 0"/><path d="M456.44 160.14c-.712-.1-1.018-.916-3.153.306-1.12.61 1.832 1.426 1.425 1.324 1.22.202 1.628-.508 1.73-1.122-.002-.203.202-.508-.002-.508zm-8.34.81c0-.816-1.83-1.12-2.847-.816-1.02.306-.61.105-1.526.613 1.02.203.712.303 1.526.71.914.408 1.12.814 2.34.206.305-.105.71-.508.812-.916-.1.1-.202.203-.305.203z" fill="#fff"/><path d="M455.12 161.36a.802.802 0 0 1-.813-.814c0-.508.307-.916.813-.916.405 0 .712.408.712.916 0 .408-.307.814-.712.814zm-8.75.2c-.406 0-.712-.403-.712-.916 0-.508.403-.81.812-.81.41 0 .712.302.712.81 0 .514-.303.916-.812.916z" fill="#000"/></g><use height="100%" width="100%" xlink:href="#g" transform="matrix(-1 0 0 1 748.816 0)" fill="#730000"/><g fill="none"><path d="M491.64 193.51c.508.206 1.934-2.033.508-3.05 0 0-.508-1.933-2.136-2.035 0 0-1.322-1.933-3.257-1.63 0 0-2.136-1.524-2.948-1.42-.916.2-2.95 2.236-3.053 2.95-.102.608 0 1.83.508 2.44.61.51 1.02-.104 1.12-1.02 0 0-.406 1.53.812 2.24 1.22.71 1.12.1 1.22-.71 0 0 .307 1.626 1.12 1.932.813.303 1.322-.408 1.935-.408 0 0-1.02.814-.306 1.323.713.61 1.525.303 2.035-.104.61-.405.305-1.728 2.44-.51z" fill="#730000"/><path d="M482.49 189.75c.506-1.73 2.235-3.153 4.067-2.85m-2.137 4.38c.203-.41.305-.816.61-1.224.915-1.524 2.948-1.524 4.576-1.832m-2.546 4.476c.61-.408.814-1.118 1.426-1.42 1.018-.513 2.136-.917 3.256-.715"/><path d="M482.31 186.77c-.896.716-1.837 1.798-1.906 2.28-.103.61-.008 1.828.5 2.44.55.46.95-.018 1.095-.782-.06.463-.072 1.465.843 2 1.22.71 1.118.095 1.22-.72 0 0 .31 1.636 1.124 1.94.813.305 1.325-.407 1.938-.407 0 0-1.026.805-.312 1.313.712.61 1.522.31 2.03-.094.61-.41.3-1.723 2.44-.5.266.105.803-.453 1.03-1.157l-7.688-5.53-2.315-.783z" fill="#730000" stroke="none"/><path d="M480.68 188.19c-1.502 2.582.5 4.132 1.164 2.62-.193 2.385 1.606 2.29 2.285 1.537.657 2.512 1.83 1.395 2.908 1.164-1.223 2.29 1.48 1.61 2.12 1.082.924-1.362 1.356-.277 2.036-.416l1.164-1.247m-7.978-5.7c-1.686.896-2.512 2.137-2.535 3.7m4.865-2.2c-1.687.896-2.512 2.137-2.535 3.7m5.405-1.75c-1.687.897-1.765 1.722-2.493 2.826"/></g></g><path d="M169.062 331.428l-.21-4.792 1.98 1.668.522-3.648c.833-.21 2.188 1.46 2.188 1.46l-.21-3.65 3.022 3.336s-.208-2.814.832-4.482c0 0 2.29 1.98 2.29 4.272 0 1.985 1.98-2.814 1.98-2.814.522 1.67 1.668 5.315 1.668 5.315l1.353-1.98 1.147 4.167 2.5-3.648 1.977 4.275 4.48-.315.523 2.498 1.98-2.186 2.604 1.666s2.188-.624 3.334-.624 2.5 1.46 2.5 1.46.834-1.46 1.67-1.984c.83-.518 1.98.835 2.29 1.67l1.667-3.022s2.188 2.188 2.5 3.02c0 0 .31-2.498.832-3.334.52-.833 1.352.314 1.98 1.355l1.352-4.48s1.46.31 2.5 1.98c1.143 1.667 1.143-2.498 1.143-2.498s2.5 3.334 3.126 5.625c0 0-17.25 5.923-29.415 4.304-14.318-1.906-26.113-4.614-26.113-4.614m118.252-.52s.832-2.293 1.98-3.44c0 0 2.188 2.606 2.188 3.44 0 0 .623-.313 1.77-1.148l1.668 1.666 1.98-1.352 1.877 1.665 3.437-1.458 1.354 1.457 5.312-.62 1.98.83 1.875-2.396 1.772 1.877 2.812-2.814s1.353 1.145 1.666 1.98c0 0 2.292-1.143 2.813-1.98 0 0 2.186-.833 2.497.52 0 0 1.354-1.04 1.252-2.185-.106-1.145 1.56-.315 2.082 1.144 0 0 .623-2.29 2.29-2.5 0 0 1.144 1.35.832 3.858 0 0 2.5-1.984 3.646-2.192 0 0 .52 2.814-.312 5.318 0 0 2.604-4.274 3.126-2.814.21.83.834 3.646.21 5.624l2.29-1.46.832 2.815 2.5-.52s-14.79 2.265-28.724.936c-13.934-1.33-27.01-6.25-27.008-6.25m-10.302 10.342c.677-.418-4.655 10.965-17.582 11.57-17.984.843-33.36-8.13-33.36-8.13s1.877-3.125 3.02-3.96c0 0 2.5 1.982 3.335 4.48 0 0 .314-1.666 1.147-3.124 0 0 3.125 1.456 3.647 3.438 0 0 1.145-1.98 1.98-2.5.83-.627 1.666 2.186 1.666 3.856 0 0 1.978-2.087 3.125-2.19 0 0 2.19 1.04 2.814 4.69 0 0 2.084-1.98 2.812-1.67 0 0 2.5 1.67 1.874 3.96-.31 1.252 2.5-1.456 5.94-2.29l3.02 2.29s2.812-3.75 3.647-5.003c0 0 2.29.836 2.29 2.192 0 0 1.045-3.962 1.877-4.377.832-.52 1.978 1.25 1.978 2.398 0 0 .314-3.023 1.98-3.648 0 0 1.668 1.145 1.668 2.294-.003-.002 1.767-3.44 3.122-4.276z" fill="#5ac800"/><path d="M169.062 331.428l-.21-4.792 1.98 1.668.522-3.648c.833-.208 2.188 1.46 2.188 1.46l-.21-3.646 3.022 3.334s-.208-2.814.832-4.48c0 0 2.29 1.98 2.29 4.272 0 1.983 1.98-2.814 1.98-2.814.522 1.67 1.668 5.316 1.668 5.316l1.353-1.983 1.146 4.167 2.5-3.645 1.978 4.272 4.48-.316.523 2.502 1.98-2.188 2.604 1.668s2.186-.624 3.333-.624c1.147 0 2.5 1.456 2.5 1.456s.832-1.456 1.668-1.977c.83-.52 1.98.832 2.29 1.666l1.667-3.02s2.188 2.188 2.5 3.02c0 0 .312-2.498.833-3.334.522-.832 1.353.314 1.98 1.356l1.353-4.48s1.46.31 2.5 1.98c1.146 1.664 1.146-2.504 1.146-2.504s2.5 3.336 3.128 5.627m62.72-.834s.83-2.29 1.98-3.437c0 0 2.186 2.605 2.186 3.436 0 0 .625-.313 1.772-1.144l1.667 1.665 1.98-1.352 1.874 1.666 3.44-1.457 1.35 1.458 5.312-.62 1.98.83 1.875-2.393 1.773 1.872 2.812-2.81s1.354 1.14 1.667 1.977c0 0 2.292-1.145 2.813-1.978 0 0 2.186-.835 2.497.516 0 0 1.354-1.04 1.25-2.186-.105-1.145 1.562-.31 2.083 1.15 0 0 .624-2.295 2.292-2.505 0 0 1.145 1.355.832 3.857 0 0 2.5-1.98 3.645-2.19 0 0 .52 2.812-.31 5.315 0 0 2.604-4.272 3.124-2.813.208.83.833 3.647.208 5.625l2.292-1.46.832 2.814 2.5-.522m-117.056 8.488s1.876-3.125 3.02-3.96c0 0 2.5 1.98 3.334 4.48 0 0 .316-1.666 1.147-3.124 0 0 3.126 1.454 3.647 3.438 0 0 1.146-1.98 1.98-2.5.833-.628 1.667 2.186 1.667 3.854 0 0 1.98-2.085 3.127-2.19 0 0 2.188 1.043 2.812 4.69 0 0 2.084-1.98 2.81-1.67 0 0 2.5 1.67 1.876 3.96-.312 1.252 2.5-1.454 5.94-2.29l3.02 2.29s2.81-3.75 3.646-5c0 0 2.29.833 2.29 2.19 0 0 1.045-3.962 1.877-4.376.83-.52 1.977 1.25 1.977 2.396 0 0 .314-3.02 1.982-3.647 0 0 1.666 1.146 1.666 2.294 0 0 1.77-3.437 3.125-4.275" stroke="#060" stroke-width=".509" fill="none"/><g fill="#fff"><path d="M255.427 386.028c23.44.21 37.298-8.337 44.903-13.443 17.813-11.98 21.564-12.397 24.482-12.19 3.335.315 8.228 1.46 8.438 4.38.313 4.48-6.98 6.457-11.148 6.457-4.27 0-15.42-2.814-15.42-2.814l-2.918 1.982c1.98.938 24.797 8.542 29.172 1.355 4.477-7.293 8.96-19.07 8.96-19.07s-5-8.96-16.15-8.96c-11.25 0-22.19 7.088-29.482 12.397-7.294 5.314-16.46 12.607-40.84 12.607-24.38 0-33.65-7.294-40.94-12.608-7.293-5.313-18.233-12.397-29.38-12.397-11.25 0-16.252 8.96-16.252 8.96s4.48 11.777 8.96 19.07c4.374 7.187 27.192-.417 29.168-1.355l-2.812-1.982s-11.25 2.814-15.42 2.814c-4.27 0-11.563-1.98-11.25-6.46.21-2.917 5.104-4.064 8.44-4.38 2.915-.204 6.666.214 24.48 12.193 7.61 5.106 21.465 13.338 45.01 13.443M217.713 358.41s0-1.984-.316-4.898c-.416-3.75-2.603-4.69-4.373-4.168-1.145.412-3.437 3.23-3.437 3.23v.106a33.14 33.14 0 0 0-3.23-1.982c.834-.937 5.626-3.854 6.772-3.854 1.043 0 15.42 5.834 20 9.792 1.147 1.045 1.98 7.504 1.354 9.585-7.71-1.98-12.71-4.894-16.774-7.71v-.103m-6.88 14.595s-3.125 3.124-3.227 8.856c-.107 6.77 4.792 7.086 8.02 6.98 3.856-.107 6.98-2.292 6.877-9.482 0 0-6.356-2.71-11.67-6.356m82.208-14.59s.106-1.984.418-4.898c.413-3.75 2.498-4.69 4.27-4.168 1.146.412 3.436 3.23 3.436 3.23v.106a32.985 32.985 0 0 1 3.228-1.982c-.83-.937-5.623-3.854-6.666-3.854-1.145 0-15.52 5.834-20.105 9.792-1.046 1.045-1.877 7.504-1.355 9.585 7.814-1.98 12.71-4.894 16.773-7.71v-.103m6.872 14.595s3.125 3.124 3.23 8.856c.208 6.77-4.796 7.086-8.022 6.98-3.857-.107-6.876-2.292-6.876-9.482 0 0 6.356-2.71 11.67-6.356"/></g><path d="M204.063 368.415s-11.15 2.814-15.315 2.814c-4.27 0-11.564-1.978-11.25-6.46.208-2.92 5.104-4.063 8.438-4.375 2.5-.212 5.73.103 18.127 8.02m102.625 0s11.146 2.814 15.42 2.814c4.167 0 11.46-1.978 11.146-6.46-.207-2.92-5.103-4.063-8.437-4.375-2.503-.212-5.732.103-18.13 8.02m-88.974-9.902c-1.146-.834-2.292-1.67-3.337-2.5-1.56-1.148-3.125-2.19-4.793-3.334 0 0 2.292-2.92 3.438-3.233 1.77-.623 3.958.31 4.374 4.062.314 2.918.314 5.004.314 5.004m-7.604 29.387c1.983 1.15 4.168 1.046 5.524.94 3.855-.105 6.98-2.292 6.876-9.48 0 0 4.79 2.395 12.604 4.27 0 0 1.252 1.563 1.46 4.687.314 2.608-1.46 5.418-3.54 5.212 0 0-10.94-1.98-17.606-3.125-3.856-.728-5.314-2.502-5.314-2.502m82.93-29.39c1.145-.834 2.292-1.67 3.436-2.5 1.46-1.148 3.02-2.19 4.688-3.334 0 0-2.29-2.92-3.436-3.233-1.77-.623-3.855.31-4.27 4.062-.315 2.915-.418 5.003-.418 5.003m7.598 29.388c-1.98 1.15-4.168 1.046-5.522.94-3.856-.105-6.876-2.292-6.876-9.48 0 0-4.794 2.395-12.502 4.27 0 0-1.354 1.563-1.563 4.687-.21 2.608 1.563 5.418 3.542 5.212 0 0 11.042-1.98 17.606-3.125 3.856-.728 5.313-2.502 5.313-2.502" fill="#69f"/><g stroke="#000" stroke-width=".712" fill="none"><path d="M255.427 386.028c23.442.207 37.298-8.34 44.903-13.443 17.813-11.98 21.564-12.396 24.48-12.19 3.336.313 8.233 1.46 8.44 4.376.313 4.48-6.98 6.46-11.15 6.46-4.27 0-15.418-2.81-15.418-2.81l-2.917 1.98c1.98.94 24.794 8.545 29.17 1.353 4.48-7.293 8.957-19.066 8.957-19.066s-5-8.964-16.148-8.964c-11.25 0-22.19 7.088-29.483 12.4-7.29 5.314-16.457 12.608-40.838 12.608-24.378 0-33.647-7.293-40.94-12.606-7.292-5.313-18.233-12.4-29.38-12.4-11.25 0-16.25 8.963-16.25 8.963s4.478 11.773 8.96 19.066c4.375 7.19 27.192-.414 29.17-1.352l-2.81-1.98s-11.255 2.81-15.42 2.81c-4.272 0-11.564-1.975-11.252-6.46.21-2.917 5.104-4.06 8.44-4.374 2.914-.207 6.664.21 24.48 12.19 7.607 5.107 21.463 13.34 45.007 13.442zM204.063 368.415s-11.15 2.814-15.313 2.814c-4.272 0-11.564-1.98-11.253-6.46.21-2.92 5.105-4.066 8.44-4.375 2.496-.212 5.73.103 18.126 8.02zm102.615 0s11.148 2.814 15.42 2.814c4.166 0 11.46-1.98 11.146-6.46-.208-2.92-5.102-4.066-8.435-4.375-2.5-.212-5.734.104-18.128 8.02h-.004zm-88.965-9.902c-1.147-.834-2.292-1.67-3.337-2.5-1.56-1.148-3.124-2.19-4.79-3.334 0 0 2.29-2.92 3.436-3.233 1.77-.623 3.957.31 4.373 4.066.318 2.912.318 5 .318 5zM217.713 358.41s0-1.982-.316-4.898c-.413-3.75-2.603-4.69-4.373-4.168-1.147.417-3.44 3.23-3.44 3.23v.106a34.006 34.006 0 0 0-3.23-1.982c.835-.937 5.627-3.854 6.774-3.854 1.045 0 15.42 5.834 20.002 9.795 1.147 1.042 1.98 7.5 1.354 9.585-7.71-1.983-12.71-4.9-16.776-7.71m-6.877 14.487s-3.123 3.124-3.226 8.856c-.106 6.767 4.79 7.084 8.02 6.98 3.856-.107 6.978-2.292 6.88-9.486 0 0-6.357-2.71-11.67-6.356l-.003.006zM213.443 374.56s-2.498 2.603-2.916 6.875c-.21 3.335 1.98 5.208 4.792 5 3.957-.206 5.522-5.624 3.646-8.646l-5.523-3.23"/><path d="M210.104 387.9c1.98 1.147 4.166 1.044 5.522.94 3.855-.107 6.977-2.294 6.878-9.483 0 0 4.79 2.396 12.605 4.272 0 0 1.25 1.56 1.457 4.69.314 2.603-1.458 5.417-3.54 5.207 0 0-10.94-1.98-17.606-3.124-3.858-.732-5.316-2.502-5.316-2.502zm82.934-29.387c1.147-.834 2.292-1.67 3.438-2.5 1.46-1.148 3.02-2.19 4.688-3.334 0 0-2.29-2.92-3.438-3.233-1.77-.623-3.855.31-4.27 4.066-.313 2.915-.416 5-.416 5h-.002zM293.038 358.41s.106-1.982.418-4.898c.415-3.75 2.498-4.69 4.27-4.168 1.147.417 3.436 3.23 3.436 3.23v.106a34.006 34.006 0 0 1 3.23-1.982c-.833-.937-5.625-3.854-6.668-3.854-1.146 0-15.52 5.834-20.105 9.795-1.046 1.042-1.877 7.5-1.355 9.585 7.814-1.983 12.71-4.9 16.773-7.71m6.872 14.487s3.125 3.124 3.23 8.856c.208 6.767-4.796 7.084-8.024 6.98-3.855-.107-6.874-2.292-6.874-9.486 0 0 6.354-2.71 11.667-6.356v.006zM297.308 374.56s2.5 2.603 2.918 6.875c.314 3.335-1.982 5.208-4.794 5-3.958-.206-5.416-5.624-3.646-8.646l5.522-3.23"/><path d="M300.636 387.9c-1.98 1.147-4.168 1.044-5.522.94-3.855-.107-6.874-2.294-6.874-9.483 0 0-4.795 2.396-12.5 4.272 0 0-1.355 1.56-1.564 4.69-.208 2.603 1.563 5.417 3.542 5.207 0 0 11.044-1.98 17.605-3.124 3.856-.732 5.313-2.502 5.313-2.502z"/></g><path d="M234.28 385.505s3.44 2.504-.73 5.628m-9.58-7.297l10.52 4.586m-8.76-2.19l7.707 3.332m-4.993-5.308l5.834 2.608m42.294-1.36s-3.543 2.505.625 5.63m9.584-7.298l-10.52 4.586m8.852-2.19l-7.707 3.332m4.902-5.308l-5.73 2.608" stroke="#fff" stroke-width=".712" fill="none"/><path d="M193.085 353.454c.15.242.245.495.292.754.04.264.03.56-.03.885-.15.775-.564 1.354-1.235 1.754-.676.397-1.45.506-2.308.343a3.926 3.926 0 0 1-1.16-.412 4.638 4.638 0 0 1-.946-.634c-.115.135-.235.265-.356.402-.167-.03-.334-.064-.5-.096.16-1.008.32-2.018.487-3.025.163.03.333.064.505.1.032.39.096.744.18 1.072.076.33.212.638.392.946.17.283.387.528.654.726.262.198.587.337.97.408.29.057.547.066.78.03.227-.033.426-.102.58-.215a1.4 1.4 0 0 0 .393-.426c.098-.168.17-.368.216-.615a1.824 1.824 0 0 0-.116-1.038c-.138-.345-.402-.628-.766-.86-.246-.156-.54-.34-.866-.536-.327-.2-.607-.37-.84-.54-.456-.318-.796-.677-1-1.1-.21-.41-.263-.908-.152-1.49a2.18 2.18 0 0 1 .386-.892 2.44 2.44 0 0 1 .737-.662c.283-.176.602-.282.957-.346.353-.055.71-.05 1.068.018a3.1 3.1 0 0 1 1.068.396c.297.187.57.38.804.6.112-.12.226-.245.337-.37l.503.098c-.17.973-.336 1.95-.505 2.923-.17-.034-.338-.065-.51-.098-.027-.352-.07-.69-.122-1.018a3.794 3.794 0 0 0-.295-.915 2.073 2.073 0 0 0-.55-.7c-.226-.194-.534-.322-.914-.395a1.47 1.47 0 0 0-1.088.187c-.325.204-.527.476-.596.84-.07.376-.04.708.095.994.13.288.352.54.664.766.277.206.557.382.833.546.273.163.532.326.787.5.23.153.455.32.66.504.198.18.372.378.505.59m12.78 1.792a3.847 3.847 0 0 0-.496-.186 1.5 1.5 0 0 0-.594-.09c-.174.014-.356.142-.55.377-.195.238-.4.55-.61.932-.625 1.133-1.253 2.267-1.878 3.403-.24.432-.538.758-.9.978-.36.223-.745.35-1.155.39a3.49 3.49 0 0 1-1.167-.08 4.44 4.44 0 0 1-1.01-.39c-.473-.263-.87-.555-1.172-.885-.305-.336-.533-.67-.663-1.022a2.374 2.374 0 0 1-.164-1.036c.022-.34.116-.654.278-.946.85-1.543 1.703-3.086 2.554-4.63a.964.964 0 0 0 .115-.36c.002-.106-.046-.236-.132-.38a1.597 1.597 0 0 0-.286-.326c-.132-.106-.234-.192-.327-.25l.215-.393c1.104.61 2.202 1.218 3.305 1.823-.07.13-.145.263-.216.39a3.312 3.312 0 0 0-.418-.164c-.175-.064-.31-.1-.397-.112-.15-.024-.277 0-.374.084a.937.937 0 0 0-.25.298c-.795 1.44-1.593 2.883-2.388 4.326-.114.21-.213.443-.287.696a1.91 1.91 0 0 0-.083.796c.03.286.142.552.32.818.18.266.49.52.924.76.405.225.79.353 1.138.38.345.02.657-.022.933-.143a2.12 2.12 0 0 0 .665-.446c.182-.182.335-.384.456-.602l1.77-3.212c.228-.41.384-.76.465-1.054.085-.294.088-.504.02-.653-.074-.166-.22-.336-.41-.508a3.806 3.806 0 0 0-.474-.377l.215-.39 3.245 1.79c-.07.133-.142.263-.215.393m4.598 7.957c.138.284.22.597.224.927.006.334-.09.678-.294 1.035-.206.358-.463.625-.778.8a2.31 2.31 0 0 1-1 .297 3.132 3.132 0 0 1-1.052-.096 4.3 4.3 0 0 1-1.046-.426c-1.24-.714-2.48-1.43-3.718-2.142l.223-.388c.093.046.228.102.414.174.185.075.322.115.412.128a.575.575 0 0 0 .363-.068.76.76 0 0 0 .26-.285c1.068-1.857 2.137-3.716 3.206-5.57.07-.127.112-.246.127-.364.01-.117-.03-.24-.12-.375a1.79 1.79 0 0 0-.3-.34c-.123-.106-.22-.192-.313-.25.073-.13.15-.26.224-.387l3.624 2.088c.28.162.534.343.76.544.223.204.41.44.566.71.143.254.228.534.236.83.01.3-.066.61-.247.92-.155.27-.347.482-.57.636-.22.16-.467.26-.737.31a2.647 2.647 0 0 1-.792.03 3.546 3.546 0 0 1-.848-.176c-.01.017-.02.033-.028.05.212.16.432.356.662.6.23.25.413.51.54.79zm-.668-1.94c.23-.08.422-.192.582-.348.155-.156.312-.357.46-.615.243-.425.317-.828.223-1.21-.092-.383-.4-.715-.908-1.007-.116-.066-.267-.152-.447-.25a20.412 20.412 0 0 0-.453-.242l-1.72 2.983.698.4c.306.177.585.288.844.336.262.044.5.035.72-.047zm-.652 2.915c.263-.455.32-.92.183-1.395-.14-.478-.503-.878-1.086-1.215-.236-.136-.438-.25-.598-.338-.164-.088-.288-.15-.372-.195l-1.573 2.732a.662.662 0 0 0-.02.68c.12.224.35.432.688.625.545.317 1.06.406 1.534.256.474-.155.885-.53 1.243-1.15zm20.172 4.605a3.685 3.685 0 0 0-.51-.135 1.524 1.524 0 0 0-.6-.03c-.17.03-.34.178-.51.432a6.258 6.258 0 0 0-.514.988l-1.53 3.574c-.194.453-.46.807-.795 1.063a2.743 2.743 0 0 1-1.112.502 3.44 3.44 0 0 1-1.17.034 4.374 4.374 0 0 1-1.044-.287c-.498-.212-.92-.465-1.256-.764-.336-.305-.595-.615-.762-.95a2.374 2.374 0 0 1-.266-1.015 2.22 2.22 0 0 1 .178-.97l2.082-4.86a.963.963 0 0 0 .08-.37c-.008-.103-.066-.23-.168-.364a1.704 1.704 0 0 0-.32-.294c-.14-.093-.25-.17-.35-.22.06-.135.118-.274.176-.407l3.47 1.485c-.06.136-.117.274-.177.408a3.68 3.68 0 0 0-.433-.123 2.462 2.462 0 0 0-.406-.07c-.153-.01-.276.025-.364.12a1.008 1.008 0 0 0-.22.32c-.648 1.515-1.298 3.028-1.944 4.544-.095.22-.17.46-.22.717a1.91 1.91 0 0 0-.002.804c.06.28.196.534.4.78.207.247.538.47.996.664.428.185.823.273 1.173.265.343-.013.65-.084.913-.234.244-.144.46-.31.62-.51.16-.196.295-.413.394-.643l1.443-3.372c.186-.43.306-.794.36-1.094.052-.3.036-.51-.048-.65-.094-.16-.25-.314-.46-.465a3.97 3.97 0 0 0-.507-.327l.175-.408c1.133.486 2.27.97 3.405 1.458-.062.132-.12.27-.178.405m9.8 11.51l-3.846-1.112.124-.43c.142.035.323.073.55.113.222.034.385.046.48.028a.864.864 0 0 0 .358-.186.76.76 0 0 0 .193-.344l1.807-6.25a1.47 1.47 0 0 0-.094-.024c-1.68 2.163-3.403 4.295-5.087 6.46-.1-.027-.2-.06-.304-.087-.205-2.765-.464-5.526-.67-8.288a.76.76 0 0 0-.078-.023c-.493 1.707-.99 3.415-1.48 5.128-.146.493-.22.874-.23 1.16-.017.276.03.487.125.64.065.11.23.24.49.403.26.16.433.25.517.28l-.125.43-3.515-1.013.125-.432c.19.034.395.063.61.076.214.018.387 0 .526-.063.174-.075.32-.212.447-.436.12-.217.26-.6.416-1.147l1.27-4.396c.074-.254.103-.468.09-.648a1.012 1.012 0 0 0-.15-.473 1.31 1.31 0 0 0-.398-.376 2.175 2.175 0 0 0-.522-.25l.124-.427 2.963.856c.195 2.39.443 4.78.635 7.174 1.217-1.6 2.468-3.177 3.687-4.78.136-.176.267-.36.383-.567a3.02 3.02 0 0 0 .213-.407c.945.274 1.894.547 2.837.822-.04.142-.083.285-.124.428a4.114 4.114 0 0 0-.45-.07 2.566 2.566 0 0 0-.417-.023.47.47 0 0 0-.352.162 1 1 0 0 0-.18.347c-.596 2.066-1.193 4.128-1.79 6.194a.844.844 0 0 0-.03.378c.022.11.09.22.21.335.062.064.182.137.36.224.18.092.32.15.43.19-.042.137-.084.282-.126.426m9.308-2.826c.236.21.434.466.567.77.13.306.182.66.13 1.066a2.15 2.15 0 0 1-.407 1.042c-.22.282-.49.496-.805.66-.31.163-.647.263-1.01.32a4.245 4.245 0 0 1-1.13.01c-1.42-.178-2.837-.357-4.256-.534.02-.15.036-.297.056-.444.103.007.25.007.45 0 .197-.002.343-.018.43-.042a.557.557 0 0 0 .31-.203.77.77 0 0 0 .13-.363c.268-2.124.533-4.25.8-6.376.02-.145.007-.273-.02-.383a.607.607 0 0 0-.258-.3 1.772 1.772 0 0 0-.406-.196c-.156-.05-.278-.093-.385-.11.018-.15.035-.296.055-.445 1.382.174 2.766.35 4.15.523.32.04.62.11.915.21.282.102.546.243.79.436a1.8 1.8 0 0 1 .543.67c.124.274.168.587.123.946-.04.31-.133.58-.274.806a1.85 1.85 0 0 1-.56.574c-.217.146-.46.25-.72.334-.27.09-.55.14-.85.166l-.008.056c.256.065.533.16.843.296.303.14.573.31.795.515zm-1.366-1.53c.182-.162.318-.342.406-.546.083-.202.147-.447.184-.745.063-.487-.025-.882-.262-1.2-.234-.32-.642-.504-1.227-.578a29.08 29.08 0 0 0-.505-.06l-.52-.048c-.142 1.14-.283 2.277-.428 3.415.27.032.534.065.8.1.346.044.65.038.91-.018a1.38 1.38 0 0 0 .642-.32zm.527 2.942c.064-.526-.062-.975-.37-1.36-.314-.387-.804-.615-1.47-.7-.274-.033-.5-.062-.684-.08-.19-.02-.326-.03-.423-.037l-.394 3.13a.667.667 0 0 0 .247.634c.197.16.49.263.876.31.627.08 1.132-.034 1.51-.358.382-.33.618-.834.707-1.54zm12.196 2.816h-2.446c-.53-.845-1.03-1.554-1.457-2.17-.437-.612-.917-1.228-1.425-1.882h-.927v2.835c0 .145.027.277.07.382.046.114.148.2.302.26.074.03.21.055.4.082.194.024.355.038.488.045v.447h-3.83v-.448c.1-.008.248-.025.447-.046.193-.02.326-.052.403-.08a.546.546 0 0 0 .278-.24c.062-.108.084-.24.084-.405v-6.465c0-.142-.02-.277-.062-.392-.046-.11-.144-.2-.302-.256a2.375 2.375 0 0 0-.415-.107c-.172-.028-.312-.053-.433-.057v-.448h4.183c.382 0 .74.035 1.08.113.337.084.638.204.91.38.263.17.48.38.633.654.157.27.238.598.238.982 0 .35-.054.65-.16.915a1.9 1.9 0 0 1-.473.685c-.188.187-.423.332-.69.468a5.637 5.637 0 0 1-.885.34c.44.588.822 1.072 1.117 1.472.29.4.663.88 1.085 1.455a2.694 2.694 0 0 0 .96.853c.107.06.25.096.414.124.167.03.307.046.415.053v.446zm-3.36-6.662c0-.54-.164-.965-.47-1.29-.31-.32-.76-.475-1.335-.475h-1.088v3.83h.838c.586 0 1.083-.176 1.468-.554.384-.377.587-.874.587-1.512zm13.793 5.996c-1.252.097-2.502.19-3.757.286l-.034-.448c.33-.044.602-.107.822-.19.21-.08.314-.163.307-.256-.002-.038-.015-.08-.023-.138a.495.495 0 0 0-.05-.142c-.294-.65-.605-1.292-.902-1.94l-3.173.24c-.097.303-.176.56-.228.79-.058.226-.114.43-.157.617-.042.185-.07.33-.08.447-.01.116-.02.208-.013.278.013.168.155.282.43.36.276.074.58.1.92.094l.033.448-3.403.258-.034-.45c.11-.013.245-.047.408-.103a1.36 1.36 0 0 0 .396-.192c.163-.127.283-.252.368-.39.087-.126.162-.3.234-.53.36-1.152.785-2.442 1.217-3.882.43-1.437.843-2.715 1.18-3.836l.51-.037c1.18 2.496 2.41 4.964 3.595 7.457.075.16.16.284.246.382.09.096.207.185.36.267.102.054.232.093.394.118.162.032.292.042.4.038.014.154.025.305.035.454zm-3.91-3.37c-.535-1.118-1.095-2.228-1.634-3.35-.353 1.19-.733 2.37-1.088 3.556l2.72-.207zm16.76-7.054c-.15.04-.307.082-.455.124-.177-.3-.45-.587-.82-.883-.37-.292-.69-.42-.95-.39-.135.02-.29.045-.462.085-.18.044-.377.092-.602.152l-1.466.398.94 3.465 1.002-.273c.302-.082.538-.174.687-.288.145-.106.27-.243.35-.402.057-.116.098-.277.113-.485.018-.203.01-.416-.027-.64l.46-.125c.31 1.136.617 2.267.92 3.396-.15.04-.305.083-.46.127a3.056 3.056 0 0 0-.29-.576c-.14-.203-.262-.347-.37-.425a.932.932 0 0 0-.543-.19 2.438 2.438 0 0 0-.703.108l-1.003.273.806 2.972a.774.774 0 0 0 .182.336c.08.092.194.146.35.178.07.016.214.01.427-.01.213-.012.38-.04.485-.063l.117.432-3.79 1.028c-.038-.143-.08-.29-.117-.433.123-.04.285-.1.483-.176.196-.076.327-.13.382-.177a.543.543 0 0 0 .206-.306.862.862 0 0 0-.018-.4c-.564-2.072-1.127-4.15-1.69-6.225a1.172 1.172 0 0 0-.163-.34c-.073-.088-.193-.142-.354-.172a2.59 2.59 0 0 0-.48-.018 2.518 2.518 0 0 0-.47.05l-.118-.434 6.857-1.86c.192.724.39 1.448.584 2.168m10.097-.768c.333.825.657 1.654.988 2.478-2.13 1.03-4.254 2.054-6.378 3.08a75.845 75.845 0 0 0-.196-.404c.09-.05.214-.128.384-.235.16-.1.27-.185.323-.246a.54.54 0 0 0 .152-.34.828.828 0 0 0-.1-.396l-2.786-5.766a.997.997 0 0 0-.228-.31c-.09-.076-.217-.113-.38-.107a1.7 1.7 0 0 0-.436.04c-.182.033-.324.07-.43.115l-.193-.404 3.442-1.662.195.405c-.11.058-.237.14-.386.254-.157.118-.27.208-.327.274a.438.438 0 0 0-.154.36.848.848 0 0 0 .096.388l2.612 5.41c.12.245.222.434.317.558.095.13.204.212.332.24.116.03.27.01.455-.063a6.04 6.04 0 0 0 .747-.32c.142-.066.283-.145.437-.224.152-.08.288-.17.414-.255.125-.09.23-.185.327-.278a.628.628 0 0 0 .176-.27c.07-.25.135-.598.17-1.06.032-.45.047-.804.02-1.064.137-.063.273-.13.408-.195m4.773-8.858c.55.158 1.08.418 1.563.804.49.398.918.888 1.277 1.496a5.27 5.27 0 0 1 .686 1.838c.1.615.063 1.202-.072 1.765a4.182 4.182 0 0 1-.714 1.504c-.336.458-.76.832-1.275 1.134-.543.32-1.1.523-1.682.586-.583.064-1.14.03-1.68-.14a4.317 4.317 0 0 1-1.533-.818 5.36 5.36 0 0 1-1.23-1.438 5.3 5.3 0 0 1-.696-1.854 4.643 4.643 0 0 1 .063-1.755 4.23 4.23 0 0 1 .728-1.52c.34-.462.76-.832 1.26-1.127a4.256 4.256 0 0 1 1.633-.576 4.1 4.1 0 0 1 1.67.103zm2.403 5.947a4.195 4.195 0 0 0-.21-1.387 7.355 7.355 0 0 0-.683-1.472 7.694 7.694 0 0 0-1.013-1.366 4.19 4.19 0 0 0-1.13-.852 2.55 2.55 0 0 0-1.186-.272c-.4.002-.806.127-1.197.358-.436.258-.755.575-.94.96-.186.385-.29.8-.284 1.244.01.428.086.877.25 1.357.165.483.384.957.663 1.43.306.517.636.96.972 1.325.34.363.717.644 1.11.852.39.206.78.294 1.19.3.405 0 .82-.116 1.238-.363.39-.23.695-.536.9-.9a2.53 2.53 0 0 0 .32-1.213zm11.236-6.1l-1.994 1.414c-.918-.38-1.738-.67-2.44-.925-.713-.252-1.465-.47-2.248-.71l-.76.536 1.64 2.314c.082.116.185.204.277.272.106.065.237.073.395.036a1.87 1.87 0 0 0 .377-.166c.173-.09.307-.172.42-.246l.26.366c-1.042.74-2.084 1.476-3.125 2.214-.086-.118-.174-.244-.26-.364.08-.064.19-.16.34-.294a1.67 1.67 0 0 0 .28-.302.52.52 0 0 0 .085-.354.794.794 0 0 0-.16-.376c-1.248-1.758-2.495-3.52-3.74-5.276a1.125 1.125 0 0 0-.277-.28c-.1-.067-.23-.083-.39-.037a3.275 3.275 0 0 0-.79.357c-.085-.12-.173-.246-.26-.365 1.137-.807 2.273-1.61 3.41-2.42.313-.22.628-.397.947-.53a2.9 2.9 0 0 1 .963-.22c.316-.016.61.038.89.166.29.13.543.354.764.666.203.284.337.56.398.838.07.278.073.55.017.833-.046.26-.153.51-.294.778a5.18 5.18 0 0 1-.53.79c.704.227 1.294.4 1.767.555.464.16 1.05.334 1.725.56a2.67 2.67 0 0 0 1.276.14c.123-.013.256-.066.41-.137.155-.07.278-.142.367-.2l.26.37zm-6.59-3.492c-.312-.442-.695-.694-1.13-.78-.44-.078-.895.05-1.365.384l-.888.627 2.217 3.13c.23-.162.456-.323.686-.487.48-.34.78-.773.872-1.3.096-.534-.024-1.058-.392-1.575zm14.055-2.14c.25.842.5 1.687.753 2.528l-7.056 2.617a29.36 29.36 0 0 1-.156-.42c.12-.05.277-.124.46-.23.19-.1.312-.167.362-.22a.625.625 0 0 0 .183-.33.787.787 0 0 0-.06-.388l-2.235-6.03a1.04 1.04 0 0 0-.194-.322c-.082-.08-.206-.12-.367-.14-.125-.01-.286 0-.48.027a2.353 2.353 0 0 0-.464.09c-.053-.138-.107-.28-.156-.42l6.576-2.44.75 2.022c-.152.057-.305.11-.45.167-.188-.276-.486-.522-.87-.763-.396-.244-.714-.33-.967-.273a4.56 4.56 0 0 0-.452.13c-.18.06-.372.125-.595.207l-1.334.494c.41 1.11.825 2.222 1.234 3.33l.96-.356c.304-.112.522-.222.646-.338a.935.935 0 0 0 .264-.418c.05-.148.063-.326.057-.546a3.068 3.068 0 0 0-.08-.583c.15-.055.3-.11.45-.167l1.22 3.288c-.152.058-.305.113-.45.167a3.383 3.383 0 0 0-.35-.558c-.15-.18-.277-.308-.393-.375a.927.927 0 0 0-.53-.142c-.182.008-.396.063-.654.16-.322.12-.642.237-.96.356l.933 2.52c.094.25.187.437.278.574.09.137.2.212.33.25.13.04.292.03.477-.013.188-.05.45-.13.78-.253.13-.05.302-.112.52-.193.217-.08.398-.15.536-.23.143-.074.296-.16.442-.26.145-.108.242-.2.278-.297.114-.258.205-.62.26-1.076.056-.457.09-.786.072-.983.145-.056.285-.108.432-.162m7.578-6.205c.45.36.834.805 1.125 1.352.296.556.496 1.175.588 1.876a5.193 5.193 0 0 1-.09 1.96 4.415 4.415 0 0 1-.754 1.596 4.13 4.13 0 0 1-1.246 1.102c-.49.29-1.025.466-1.613.544-.63.084-1.22.05-1.775-.12-.56-.168-1.065-.416-1.494-.784-.428-.36-.8-.8-1.087-1.352a5.19 5.19 0 0 1-.576-1.806c-.095-.722-.063-1.38.087-1.98.15-.592.413-1.12.752-1.59a4.243 4.243 0 0 1 2.867-1.658 4.334 4.334 0 0 1 1.725.11 4.15 4.15 0 0 1 1.49.75zm-.116 6.412a4.21 4.21 0 0 0 .353-1.36c.04-.49.02-1.03-.058-1.62a7.45 7.45 0 0 0-.398-1.653c-.184-.49-.423-.9-.7-1.228a2.584 2.584 0 0 0-.986-.713c-.37-.156-.79-.2-1.24-.14-.507.065-.924.232-1.247.517-.32.278-.58.62-.748 1.032a4.42 4.42 0 0 0-.295 1.343 7.422 7.422 0 0 0 .044 1.574c.08.596.21 1.13.38 1.6.164.47.407.873.688 1.216.273.346.597.577.973.745.373.16.804.214 1.285.15.448-.06.845-.223 1.175-.475a2.54 2.54 0 0 0 .774-.99z" stroke="#000" stroke-width=".7"/><path d="M305.12 218.788v56.576c0 11.252-1.56 56.058-49.693 73.46-48.235-17.402-49.798-62.204-49.798-73.46v-56.576h99.49" stroke="#000" stroke-width="1.042" fill="none"/></svg>