<svg xmlns="http://www.w3.org/2000/svg" xmlns:xlink="http://www.w3.org/1999/xlink" height="512" width="512" viewBox="0 0 512 512"><defs><path d="M0-360l69.42 215.845 212.04-80.3-125.473 188.85 194.986 115.71-225.88 19.65 31.104 224.593L0 160l-156.198 164.35 31.105-224.592-225.88-19.65 194.985-115.71-125.47-188.854 212.037 80.3z" id="a"/><path d="M0-210L54.86-75.508l144.862 10.614L88.765 28.842l34.67 141.052L0 93.334l-123.435 76.56 34.67-141.052-110.957-93.736L-54.86-75.508z" id="b"/></defs><path fill="#008000" d="M0 0h512v512H0z"/><circle cx="268.22" cy="250.446" r="61.243" fill="#ffe000"/><circle cx="287.316" cy="250.446" r="50.394" fill="#008000"/><circle cx="75.159" cy="189.203" r="64.159" fill="#ffe000"/><path d="M70.732 237.58h16.02s.724-1.47-.16-2.204c-.885-.734-4.33-.896-3.4-3.493 1.914-5.34 2.18-3.694 3.383-16.376 1.2-12.683 1.78-32.575 1.78-32.575H86.04s.446 6.185-.89 14.24c-1.334 8.055-1.735 8.767-3.203 14.952-1.47 6.186-1.69 6.72-3.026 10.325-1.333 3.602-1.467 3.78-3.56 7.12-2.09 3.335-1.333 2.09-2.49 4.092-.58 1-1.29.734-1.68 1.463-.39.728-.457 2.453-.457 2.453z" fill="#802000" stroke="#7b3100" stroke-width="1.361"/><path d="M82.957 142.46c.134 2.488-.117 5.783-1.148 8.463-1.048 2.988-2.185 5.965-2.128 9.06-1.663.564-3.376-3.598-4.976-1.15 1.203 3.385 3.98 6.064 5.883 9.112.32.946 3.057 3.414 1.473 3.988-3.998-1.37-4.967-6.434-7.447-9.51-2.88-5.177-8.25-8.836-14.232-9.09-2.247.06-9.552-.556-7.652 3.292 2.8 1.903 6.25 3.144 9.014 5.28 2.06.193 5.792 3.63 5.574 4.93-3.62-1.467-5.316-3.225-9.22-4.77-5.287-2.04-12.6-.812-15.528 4.436-.546 1.368-1.352 5.35.365 5.73 2.005-3.13 4.874-6.63 9.125-5.69 3.34.26-3.726 6.22-1.024 5.02.857-.38 2.834-1.678 4.206-1.814 1.372-.135 2.138.892 3.178 1.034 2.082.283 2.655 1.155 2.462 1.663-.227.6-.89.088-3.005.76-1.06.334-1.61 1.264-2.847 1.69-1.234.425-3.8.455-4.76.078-3.357-1.456-8.86-1.202-9.906 3.004 0 1.85-1.647-.205-2.407.594-.57 2.02-.717 4.09-3.71 3.908-1.818 1.906-3.68 3.88-5.986 5.236 1.354 3.11 6.72-3.12 6.468-.493-2.345 3.197 1.207 3.87 2.762 1.41 2.63-2.78 5.887-6.163 9.81-3.363 1.87 1.76 2.956-.93 4.31-.786.85 2.186 1.923.108 2.89-.51 1.584-.2 1.14 1.978 3.02.638 3.75-2.482 8.364-.397 12.027-2.81 3.9-1.778.55 1.43-.527 2.683-1.713 3.324-.227 7.686-3.943 9.75-1.494 3.96 1.762 9.18-1.56 12.11-.482 1.837 4.273 1.627 5.607 2.38 2.338.094-.1-5.35 2.22-6.08 3.11 1.926 2.965-3.444 2.323-5.1.3-3.765.514-7.882 2.385-11.292 1.99-4.18 3.83 1.702 1.603 3.357-1.264 3.843-3.106 8.653-.23 12.227.83.187 1.51 2.196 2.583 2.813 1.075.618 2.54-.156 2.81-1.984 1.375-5.504.682-11.423 2.647-16.776 1.388-1.66 3.302-.268 4.162 1.257 2.754 3.2 4.69 7.197 8.026 9.833 3.036 1.42 5.722 3.57 7.12 6.696-.017 2.41 6.852 2.78 4.8.1-1.97-2.61-.67-5.22 1.324-6.956 1.067.263.752-1.65-.086-.893-1.34-.316-1.427-2.77.437-1.604 3.14 1.014-.242-2.272-1.377-2.373-2.655-1.646-5.706-3.54-7.01-6.4 3.455.036 7.043 1.9 10.575.743 2.83-1.454 5.702.122 6.69 2.617 2.19-.35 1.256-2.544 0-3.275 1.6-.66 2.708-2.03.768-3.238-1.025-1.338 1.374-3.62-1.575-3.525.097-2.253-.79-4.314-3.246-5.093-2.46-2.083-9.68 3.07-9.47-1.626-.727-2.556 2.933-.342 3.956-1.617 1.055-2.696-5.037-2.433-3.027-4.52 1.313-.847 7.475-2.06 2.643-2.966-2.412.663-4.482.172-6.38-1.022-1.73 2.894-6.668-1.57-5.788 3.573-.676 1.938-5.09 6.974-6.286 3.116 1.016-3.023 6.247-4.012 4.625-8.09-.25-2.544-2.36.444-3.353.254-.504-1.584 1.522-3.452 2.934-3.828 2.802 2.155 2.887-2.72 5.552-2.322 1.945-.432-.628-1.267-1.17-1.633.532-1.423 3.52-2.15.59-3.387-2.584-1.918-4.5 1.908-6.63 2.112-2.046-2.31 1.857-3.42 2.934-4.636.058-.907-2.276-.274-1.574-1.064.61-1.09 4.743-1.17 2.807-2.807-2.914-1-6.674-.75-9.47.544-1.762.57-2.28 4.554-3.8 4.39-.713-1.774.233-5.272-2.21-5.785zm13.78 38.915c2.22-.376.047 3.372-1.02 3.317.094-1.347-3.212-1.217-1.16-2.39a6.685 6.685 0 0 1 2.18-.927z" fill="#008000"/><g transform="translate(-25.746 103.463) scale(.058)" fill="#ffe000"><use height="100%" width="100%" xlink:href="#a" x="7560" y="4200"/><use height="100%" width="100%" xlink:href="#a" x="6300" y="2205"/><use height="100%" width="100%" xlink:href="#a" x="7560" y="840"/><use height="100%" width="100%" xlink:href="#a" x="8680" y="1869"/><use height="100%" width="100%" xlink:href="#b" x="8064" y="2730"/></g></svg>