<svg xmlns="http://www.w3.org/2000/svg" xmlns:xlink="http://www.w3.org/1999/xlink" height="512" width="512" viewBox="0 0 512 512"><path fill="#0021ad" d="M0 0h512v512H0z"/><path d="M0 0h512v512z" fill="#1c8a42"/><circle cx="256" cy="256" r="61.658" fill="#ffc639"/><path d="M218.344 228.304c4.218 5.787 10.61 15.49 15.75 12.957 4.012.015 6.083.297 6.627 2.967 9.463 1.61 25.365-2.38 35.26-15.268 0 0 .83.11.543-4.79.055-2.133 2.918-1.707 2.986-1.01.4 1.06.33 1.85.866 1.877 1.218-.406 2.883-3.138 4.28-4.872.38-.764.172-1.57.262-2.532.736-1.81 2.573-1.418 2.958-.468.35.612.358 1.08.702 1.693 1.865 1.245 5.23.082 5.49.082.33-1.522 1.31-1.377 1.31-1.377 1.244-.275.755-.165 1.574.26-.72 8.197 1.61 8.56 1.42 12.765.08 4.693-1.42 6.028-1.42 7.817.476 2.188 7.398 2.264 4.962 4.114-2.14 1.14.007 3.28-3.213 4.113-9.372 4.755-11.17 8.835-11.17 8.835s-2.35 4.444-2.612 4.444c-1.57 2.966-3.558 1.35-4.666 2.794-.55 1.817-1.168 5.842-.067 7.934.55 2.876-.07 4.445-.757 7.32-.62 6-3 6.91-3.276 9.015-1.1 2.25.234 12.82-.812 12.82-6.976.137-12.323-1.336-15.082-1.886 2.69-11.595 1.644-21.778 1.644-22.824-.688-8.292-12.42-6.275-14.216-7.376-1.486-.316-2.422-1.527-2.945-2.05-1.66-.18-2.277-.557-3.936-.73-.825.414-.33.84-2.174 1.412-4.68.564-6.744-4.08-6.744-4.08.227-1.563-10.52.316-16.363-1.04-2.395 1.335-3.44 5.285-5.402 5.753-.053 1.224-3.225-1.005-3.865-2.21-.13-3.502 3.055-5.05 3.055-5.05 2.532-1.782 4.032-2.07 5.25-3.303.612-3.048.302-5.305 1.603-7.596 1.1-1.748 2.725-.93 3.826-1.714 1.18-.784 1.683-5.917.59-7.32 0 0-4.735-4.274-4.996-4.535-1.54-4.417 1.803-7.266 2.76-6.943z" fill="#1c8a42"/><path d="M452.254 63.723c-2.793-11.055-27.798-34.865-46.59-50.016-4.486-3.056-7.41-1.236-6.825 3.122 2.337 3.9 4.092 8.19 6.43 12.092.655 2.6 1.887 4.422 2.54 7.022 0 0 .193 4.487.585 4.877 5.85 6.44 6.633 11.9 6.633 11.9 3.378 6.504 6.37 11.25 12.29 16.583 6.632 4.163 1.753 17.1 1.946 23.994 0 4.355-3.117 3.84-5.85 3.316-21.522-19.768-42.852-19.83-61.644-25.555-7.35-.78-7.48 2.73-5.07 4.678 13.135 14.05 25.485 23.608 41.744 31.603l8.196 5.08c3.117 2.6 6.24 5.2 9.358 7.8 7.218 4.68 7.81 8.973 7.81 9.36.192 8.78-4.494 15.605-5.856 18.336-2.463 9.31-7.41 10.927-7.41 10.927-40.192 27.118-61.26 34.136-126.417 25.748-.977-.515-7.217.524 0 3.125 16.583 5.525 57.318 14.388 96.727-4.273 9.46-6.633 15.792-4.46 22.645-8.43 11.256-6.942 27.33-15.584 30.254-16.554 8.78-4.687 33.36-9.95 39.02-14.637 6.498-.522 13.24-1.375 13.695-6.962 2.133-1.383 5.257-.372 7.576-4.927 5.155-.893 4.288-2.737 4.288-2.737-1.3-3.64-6.116-5.14-9.557-7.803-5.077-1.693-8.586-2.216-12.295-.392-1.17.523-2.34 1.04-3.51 1.562 0 0-5.462-.785-5.462-1.17-12.138-.668-10.955-40.893-15.248-57.67z" fill="#ffc639"/><path d="M542.467 217.777a3.005 1.878 15.947 1 1-5.73-1.8 3.005 1.878 15.947 0 1 5.73 1.8z" fill="#1c8a42"/><g transform="translate(-11.826 182.362) scale(.683)" fill="#fff"><path id="a" d="M188.16 190.94l-12.75-11.936-12.905 11.77 1.383-17.405-17.25-2.755 14.476-9.774-8.606-15.196 16.668 5.22 6.518-16.205 6.31 16.286 16.734-5.007-8.8 15.085 14.348 9.96-17.283 2.53 1.158 17.424z"/><path d="M233.39 335.53l-13.752-9.167-13.39 9.664 4.71-15.568-13.58-9.417 16.666-.446 4.988-15.496 5.595 15.3 16.667-.155-13.21 9.902 5.307 15.382z"/><use height="100%" width="100%" xlink:href="#a" x="2.522" y="269.061"/><use height="100%" width="100%" xlink:href="#a" x="-112.066" y="123.223"/><use height="100%" width="100%" xlink:href="#a" x="108.427" y="85.027"/></g></svg>