<svg xmlns="http://www.w3.org/2000/svg" xmlns:xlink="http://www.w3.org/1999/xlink" height="512" width="512" viewBox="0 0 512 512"><path fill="#fff" d="M0 0h512v512H0z"/><path id="a" d="M243.03 425.173a.87.87 0 0 1-.297-.21l-.106-.1c-.277-.252-.735-.7-1.35-1.4-1.137-1.292-2.662-3.182-4.003-4.852-2.658-3.31-4.854-6.166-5.268-6.703l-.677-.88-6.63-2.045-4.84-2.255 2.587-2.906 8.88 3.8 6.63 1.36 12.256 9.017-.01.007c-.025.02-1.783 1.483-3.53 3.07-.78.71-1.76 1.62-2.455 2.376-.32.347-.602.693-.794.972a2.18 2.18 0 0 0-.216.402l.762-.474.825.642-1.68.157-.076.015zm-45.517-13.67c-5.784 0-11.496-1.6-16.978-4.75l-.006-.004v-.008s.717-1.366 2.456-2.64c1.657-1.217 4.644-2.67 9.472-2.69h.1c5.717 0 12.715 1.944 20.797 5.778-.273.182-6.618 4.314-15.843 4.314l.01.01zm-25.063-5.555c-1.07 0-2.03-.405-2.705-1.138-.554-.602-.95-1.404-1.213-2.456-.43-1.722-.312-3.434-.3-3.598a3.71 3.71 0 0 1 1.333-.302l.096-.002c2.144 0 3.833 1.858 4.557 3.7.41 1.048.49 1.928.234 2.618s-1.06 1.17-1.996 1.17zm44.1-5.112c-14.813-2.115-21.09-7.47-23.75-11.59-2.836-4.394-2.254-8.46-2.248-8.5l.002-.012.01-.003c.005 0 .906-.24 2.27-.25 3.94 0 14.02 1.985 23.72 20.347l.006.012-.017-.01zm-30.36-2.935c-6.33 0-11.147-1.09-14.322-3.244-1.824-1.238-2.717-2.597-3.145-3.52a5.768 5.768 0 0 1-.507-1.727c.167-.077 2.758-1.228 6.626-1.41.327-.014.656-.023 1.002-.024 4.89 0 12.33 1.596 20.178 9.2l.007.006-.01.002c-3.586.47-6.897.716-9.84.716zm-30.644-1.176c-6.673 0-15.84-2.038-21.558-7.754l-.006-.007.017-.004c.06-.017 6.263-1.59 13.244-1.76.417-.01.836-.018 1.26-.018 6.256 0 11.044 1.214 14.234 3.606 1.113.834 1.72 1.61 1.858 2.373.114.638-.222 1.324-.9 1.836-1.438 1.085-4.005 1.663-7.634 1.72l-.512.018zm-21.624-11.093a2.736 2.736 0 0 1-2.115-.995c-.432-.524-.732-1.208-.946-2.152-.354-1.577-.247-3.12-.246-3.135v-.016c.31-.145.66-.224 1.04-.233.99 0 1.74.536 2.21.987a5.942 5.942 0 0 1 1.44 2.257c.312.88.363 1.614.155 2.248-.17.504-.75 1.033-1.537 1.033zm49.946-1.126c-1.07 0-2.03-.404-2.705-1.137-.554-.602-.95-1.405-1.214-2.456-.43-1.72-.313-3.434-.3-3.597a3.71 3.71 0 0 1 1.332-.303l.095-.002c2.143 0 3.832 1.858 4.555 3.7.41 1.047.49 1.928.234 2.618-.256.7-1.067 1.17-1.997 1.17zm-24.33-1.006c-13.428-.473-20.397-4.29-23.878-7.41-1.96-1.756-3.05-3.497-3.62-4.648-.535-1.088-.738-1.92-.773-2.08l.017-.008c.002 0 1.27-.454 3.316-.495l.314-.003c4.528 0 13.748 1.903 24.62 14.638v.01zm14.585-1.357c-10.804-1.644-16.925-6.282-20.158-9.885-3.388-3.776-4.403-7.293-4.448-7.457.02-.006 1.34-.35 3.328-.4a16.2 16.2 0 0 1 .92 0c5.433.12 15.303 2.58 20.355 17.737h.01zm-55.467-5.19c-3.54 0-6.975-.407-10.208-1.215-5.656-1.415-8.083-3.575-9.123-5.138-.59-.888-.804-1.666-.88-2.163a3.642 3.642 0 0 1-.026-.915l.025-.01c.014-.004 3.754-1.055 8.93-1.134a37.36 37.36 0 0 1 7.927.703c8.99 1.797 13.652 8.583 13.697 8.652l.003.008-.01.002c-.052.01-4.336 1.21-10.343 1.21zm25.08-9.11c-1.083 0-2.044-.396-2.707-1.114-.548-.59-.944-1.402-1.214-2.48-.432-1.72-.312-3.416-.3-3.573a3.71 3.71 0 0 1 1.333-.302h.095c2.138 0 3.83 1.86 4.556 3.7.4 1.015.47 1.885.208 2.59-.265.717-1.042 1.178-1.972 1.178zm-18.86-2.587c-.08-.02-5.1-1.31-10.21-4.458-4.732-2.913-10.52-8.064-11.225-16.07v-.003l.014-.002s.44-.106 1.09-.13c.09-.004.186-.006.286-.006 1.412 0 4.305.398 7.804 3.058 4.454 3.397 8.568 9.32 12.245 17.622zm12.314-.452c-.03-.012-3.608-1.444-8.08-5.19-4.166-3.493-10.023-9.78-14.264-19.91.002 0 .974-.52 2.463-.612a3.71 3.71 0 0 1 .26-.007c.127 0 .26.005.394.008 2.057.058 5.19.913 8.665 4.662 3.99 4.306 7.55 11.383 10.583 21.035l.01.027-.026-.01zm-31.906-.93c-4.114 0-5.522-2.23-5.936-3.19-.68-1.578-.475-3.15-.473-3.164l.002-.017a9.065 9.065 0 0 1 2.046-.27h.14c3.243 0 5.802 1.646 6.9 3.278.217.323.884 1.445.332 2.322-.444.69-1.45 1.04-3.012 1.04zm-9.113-11.494c-2.296 0-5.81-.14-9.505-.812-3.665-.666-5.742-3.782-6.838-6.277-1.194-2.718-1.53-5.31-1.534-5.337h.01c11.334.332 16.687 3.644 19.182 6.363 2.575 2.807 2.728 5.722 2.735 5.906h-.008c-.017 0-1.613.153-4.045.153zm11.803-11.793a45.616 45.616 0 0 1-2.588-3.607c-1.342-2.087-2.584-4.264-2.584-6.046 0-1.72-.403-5.347-.645-7.355-.305-2.548-.614-4.728-.64-4.913l.01.003c.29.105 7.09 2.657 7.09 9.038 0 6.39-.63 12.812-.635 12.876l-.002.01h-.01zm-8.815-.605c-.07 0-.142-.006-.213-.018-2.01-.337-5.543-1.874-9.45-4.113-4.336-2.486-7.857-5.15-9.915-7.5-1.876-2.145-2.99-5.51-3.312-10.008-.227-3.19.046-5.85.075-6.114a3.532 3.532 0 0 1 1.122-.174c1.505.025 3.112.702 5.28 2.196 1.69 1.164 3.555 2.748 5.54 4.705a84.457 84.457 0 0 1 6.142 6.802l.028.034c.226.405 2.165 3.9 3.675 7.303.96 2.16 1.508 3.718 1.727 4.903.126.675.162 1.118-.003 1.52-.07.166-.2.32-.33.382a.924.924 0 0 1-.374.076z" fill="#435125"/><use height="100%" width="100%" xlink:href="#a" transform="matrix(-1 0 0 1 462.66 0)"/><path d="M468.335 81.473l-2.01.8-.787.314-2.436-.134-2.28 1.095-4.045 2.764-.18.128-1.507.393-1.4-.604-.795.36-.274 1.64-.755 1.175-.932.655-3.228.33-2.722 1.405-3.542-.948-1.644.644-3.498 3.15-1.787.85-.624-.037-2.37-.122-1 .33-1.497 1.444-2.83.22-.88.61-1.38 2.782-1.497 1.542-.856.18-.928-.338-.698.122-.315 1.78-.676.746-1.894.65-1.513 1.262-1.328.682-1.778-.045h-.41l-1.77.978-3.333.292-1.385 1.322-.307.28-.647.39-1.058.633-.26.157-1.275-.227-1.493.59-.606-.928-1.033.62-1.367.06-1.705-.76-1.298-.578-.95.137-.33 1.656-.035.176-.998 1.328-1.864 1.13-.253.33-2.12 2.737-4.03 4.24-3.408 1.73-3.532 1.074-2.472 2.03-6.484 3.216L357.79 135l-2.094.67-3.004.48-5.357 1.974-4.727 1.426-.263.08-.935.283-6.664 2.017-3.102-.328-1.838.667-4.782-.53-3.326.063-2.105.438-3.957 1.9-6.68 3.21-2.206 2.02-3.436 1.79-4.024 1.275.01-1.69-.023-.072-1.397.44-1.007.32-3.264.503h-1.818l-1.127-.328-.175.058-6.67 2.198-7.44.72-3.723 1.193-2.782-.046-1.74.52-3.408.416-1.22-.327-.274-.076-10.026.435-4.584-.518-2.188.497-3.666-1.234-5.35-.62-1.25-.375-2.814-.834-1.272.733-.952.1-2.276-.824-.82-.022-1.878.68-1.083-.278-1.004-.8-2.355-.35-1.435-1.207-8.023 1.062-2.178-.64-7.3-2.127-1.16.058-1.45 1.085-2.173.793-1.888.49-2.57.09-2.985-.782-3.078-1.492-1.137-.27-2.538.256-.776.07-4.666-2.5-6.01-3.76-4.076-1.958-1.53-.248-.207.727.76 2.394.26 2.368-.078 2.187-.043 1.355.38 1.216 1.472 1.63.613 1.64.45 4.51-.006 4.574-.716 7.297-.24 1.11-.855 3.78-.78 3.473-3.026 9.245-.83 1.146-2.04 1.392-4.626 3.148-3.405 1.963-1.08.447-2.763.208-1.722-.09-2.144-1.16-2.104-.542-2.76-1.984-3.067-.635-3.364-1.944-.876-1.052-1.83-.17-2.54-.763.002-.004-.933-.28-.645-.186-3.24-.09-3.02-1.394-1.592-.384-2.173-.11-2.275 1.058v-.003l-1.154.537-1.456-.58-1.055.066-1.194 1.805-.18.28-.82.436-1.025-.014-.8-.022-.868.38-1.167.505v.002l-1.03.45-.503.218-.01-.01-.31.063-.55.096-.682.13-1.203-.703-.64-.377-1.073-.22-.58.42-.112 1.962-.528 1.176-1.673 1.48-1.7 1.498-1.185 1.746-3.136 7.16-1.966 2.888-.61.673-2.056 2.267-1.823 1.414-4.2 3.255-3.974 1.487-3.424.7-1.664.005-3.154-.42-2.835-.87-3.115-1.948-3.416-2.745-4.944-4.886-.7-.42-.146-.098-1.557-.996-1.156.03-.454.745-.246 1.077-.21.956-.566 5.433.042.316.298 2.238 3.755 5.248 1.16 2.788.19.318.773 1.302.59.992.06.1 1.282 3.83-.903 2.163.456 1.447-1.14.885-.21 1.25 3.372 4.227.736 1.863-.82 2.585-1.312 1.426-.366.39.185 1.092 1.55 1.395 2.637 2.348 1.405 3.487 1.07.935 1.24-.264.692.528 1.048-.018 1.03 1.03.668.324 1.055.525.834 1.084.184 3.338 1.556 4.147.024 2.247.008.32.968 1.662.304 1.31-.516 3.474 1.233 1.114 1.337-.273.864.137 1.388 1.156 1.68 2.56 1.643-.24 1.042.503 5.036 4.55 1.143.58.064.035.822.412 1.02 1.03 1.585-1.05.177-.018 1.722-.153.755.51 1.455.98 1.905-.025 4.134 1.267 1.807.463 3.637 2.26 1.546.955.913.743 1.216.99 2.426 1.046 2.082.5 1.13.268.848.327.02-.05.013.002-.02.053 4.51 1.726 2.44.57 2.26.833 1.645.6 1.206.02 1.708-1.436 1.653-.096 1.374.343 1.34-.224 2.12-1.307.414-.614 1.503-.717 5.074-.63 1.482.482 3.806-1.656 2.55.71 2.258-.8 4.93 1.093 1.312.923 1.465 1.678.18.007 1.63.03-.68 1.138 2.152 2.26 1.944 2.94.13.387 1.415 4.15 1.05 1.47.736 2.052.036 1.338-1.144.872-.188.498-.064.184.232.56.43-.238.823-.454.995-.155 1.763.188 1.164.123 1.84-.912 1.217-.605 1.956.842 2.15-.024.903.402 2.555 1.16 1.304.122.48-.317.308-.73-.158-.85-.978-1.13-2.16-2.506-.884-1.29-.673-1.865-.21-2.385-.148-1.608.268-2.114.58-.754.427-1.68h.007l.11-.44 1.2-1.59 3.176-2.044 3.413-3.056 2.697-1.78 2.782-1.204.073-.338.31.125 7.076-2.406.116-.012 3.15-.55 21.265 1.5.79-.24.003-.004.708-1.99.383-.366.253-.24 2.338-1.03 1.093-.156 3.035.75 1.242.306 1.99-1.115 1.412.024 2.915-1.592 1.803.045.685-.274 3.508-2.522 3.38-.967.88-.468.31-.17 3.463-1.83 2.2-1.69 1.9-1.01 2.08-.536 5.445-.384 1.095-1.825 2.342-.31 1.414-1.597 1.618-.658 1.16-1.67.972-1.4 1.358-.787 4.352-.274 5.158.64.682-.414 1.166-4.16 1.22-.78 3.286-4.79.01-1.745.004-1.458.54-2.076-.367-3.746.436-3.794 2.044-4.82 1.8-1.946 2.902-1.963 1.476-.642 2.09-.35v-.006l.308-.052.532-.09 7.196-.1c.1-.074 2.618-.036 2.618-.036l2.4-.032 6.07 1.08.43.075 2.054.664 2.367 1.84 2.505 2.45.47.455 1.624.684.49.213 1.34-.214 1.91-.995 1.44-1.218 1.964-1.072.047-.07 1.105-1.66.034-.035.024.006.002-.01-.02-.005.437-.66 3.794-1.48 4.463-.26.5-.27.28-.15 1.18-1.384 1.105-.01 2.675.967 1.88-.373 1.494.597 1.16-.137 2.19-.26 2.35 1.655 1.37.175 4.827 2.824.25.04.13.025.277.044.573-.17.852-.246.11-.032.11.148.547.774.753.108.89-1.19-.354-.538-.134-.197-1.725-.35-1.55-2.647 1.476-1.588-2.313-2.838-.384-.472-.13-.2-.8-1.214-4.05-6.173-5.276-4.21-.002.002-1.847-1.48-.01-.01-.647-.506-2.818-2.866-2.012-2.67-.264-.575-.416-.906-1.206-2.628-2.1-1.62-1.713-1.87-.083-.11-3.532-4.8-.58-.804-.835-.483-1.763-.012-.166-.166-.1-.103.06-.062.846-.84.943-.238.406-.93-1.8-5.208-.01-.182-.135-1.664 1.466-7.556.19-.92 2.5-5.085 1.546-1.27 1.69-3.32 1.447-2.124 1.386-1.35.242-.142 2.504-1.515 2.104-.297 2.003-.28 3.5 1.078 3.328-.065.65-.07 1.51-.174 2.485-.782 1.172-.724.61-.932 1.268-4.256.408-1.354.782-1.47 4.528-5.214 3.423-3.165 7.696-5.644 3.766-2.252 1.924-1.15 17.174-7.634 4.463-4.524 2.324-2.353 4.114-2.76 4.814-1.972 4.142-3.28.904-1.136 1.14-3.672.95-.23.858-1.855.244-.526 3.38-2.382.382-.19L456 94.953l1.91.262 1.02-1.53 3.82-.64.704-.12.942-.47.802-1.365v-.27l.11-3.647.815-.986.445-2.403.42-.554.437-.577 1.082-.76-.188-.454z" fill="#d47600"/></svg>