<svg xmlns="http://www.w3.org/2000/svg" height="512" width="512" viewBox="0 0 512 512"><defs><clipPath id="a"><path fill-opacity=".67" d="M0 0h512v512H0z"/></clipPath></defs><g fill-rule="evenodd" clip-path="url(#a)"><path fill="#be0027" d="M-48 0h591.45v512H-48z"/><path d="M-48 512l591.45-.32-.03-255.68L-48 512z" fill="#b4d7f4"/><path d="M-48 0l591.45.32-.03 255.68L-48 0z" fill="#239e46"/><path d="M148.76 351.44c-8.705 2.404-13.695 9.157-13.568 15.53l42.847-.173c.383-6.847-5.25-13.18-13.825-15.673 41.95-.867 78.396-16.58 85.018-26.663-6.554-2.842-14.13 1.735-19.533.68 12.826-5.926 51.252-30.797 45.005-57.46-4.856 14.81-19.567 27.063-25.833 30.353 14.354-21.796 33.954-44.487 16.95-62.06.858 10.185-6.473 21.394-9.71 22.236 8.326-23.03 16.27-51.945-1.77-71.006 2.37 6.89 1.413 26.324-1.85 27.197-1.004-15.66-3.676-48.597-20.17-48.13 5.24 4.664 7.532 17.39 7.648 30.246-3.76-8.806-8.03-15.437-17.166-21.94-7.39-14.174-20.54-25.918-33.692-34.33 1.476 10.316 2.698 18.456 17.103 29.156-7.51-.466-15.02-14.704-23.046-15.1-6.387-.307-11.397 5.786-21.83 2.28 1.155 3.444 6.023 4.97 7.05 7.517-2.235 1.542-7.54-.24-11.95-2.54 6.067 8.264 15.47 13.124 23.45 11.484 9.49-1.825 19.666-.86 29.372 4.663-2.48 1.273-12.127 1.265-18.32.49 5.63 5.698 9.404 9.475 19.19 9.412 8.74-.058 13.323-4.664 15.568-1.81 5.483 6.495 9.173 12.99 13.76 20.636-10.13 1.12-7.077-11.457-18.36-17.89-6.338 13.12 7.292 28.674 16.57 35.14.124 9.86 1.566 18.112 5.75 25.62 2.82 5.294 6.464 10.712 5.09 22.66-5.555-4.046-10.982-17.69-8.985-28.52-6.952 1.897-9.67 14.12-6.393 20.275 2.447 4.685 4.08 13.65 1.258 17.658-2.75 3.734-3.04 3.316-3.003 11.33.098 4.796-2.58 10.466-6.944 14.42.91-3.378 1.95-9.19.94-12.825-3.448 5.85-12.1 11.905-14.825 18.194-2.676 6.305-3.354 17.224-16.302 19.743-16.658 3.305-22.407 6.192-33.125 10.578-1.19-8.14 2.37-25.118 9.18-24.15 6.647 1.183 26.8-6.944 19.59-23.92-1.424 5.35-6.174 10.572-11.31 10.803 5.55-7.196 15.45-14.65 10.63-26.71-2.68 5.128-6.897 11.28-13.29 14.74 6.853-13.13.796-17.06-7.34-6.244-3.075 4.173-4.93 12.535-6.885 23.156-3.196-8.636-2.985-20.007-6.773-29.24-3.956-9.984 5.252-12.62 9.586-11.82 10.61 2.834 28.343 2.833 27.025-14.697-4.582 5.93-12.618 7.76-21.297 5.627 9.747-7.118 17.442-20.505 6.58-27.494-.36 7.412-6.097 15.722-13.755 19.55-1.79-6.255-1.79-12.892-.254-20.168-4.277 4.5-7.4 13.866-9.883 24.512-.187-10.523 1.804-18.106 3.28-23.767 2.238-8.27 7.8-2.89 16.315-2.28 8.2.466 19.49-4.066 17.333-15.185-2.8 4.4-8.547 6.11-14.42 5.646 7.07-4.283 19.388-11.893 12.633-23.6-2.838 4.433-3.757 8.226-11.97 9.586 2.15-4.948 2.508-11.944 8.883-14.716-11.372-2.264-17.883 5.198-21.193 16.887-1.342-8.103-2.94-11.086-3.257-17.014 6.147-6.828 6.79-20.184-6.517-23.17-.79 6.89-.557 8.53.957 14.14-6.247-3.71-15.052-5.76-20.914-.51 3.972 4.285 10.12 8.06 19.594 3.384-2.238 7.323-8.06 6.07-16.058 3.277 4.89 9.185 11.06 10.816 17.867 9.758 3.565 9.4 3.722 16.54-6.696 30.23.483-8.506-.122-14.844-6.88-21.722-5.792-5.672-10.5.243-1.45 12.853-5.49-4.044-11.704-12.25-13.575-20.456-1.81 10.137-.18 22.084 5.432 28.782-2.655 2.836-5.673-.3-10.137-7.24 1.69 22.205 11.162 26.49 23.894 21.54.363 12.188.363 23.473 1.087 38.196-7.423-10.68-16.834-18.645-22.085-20.636-1.628 5.974 4.528 13.756 7.967 18.1-5.25-1.085-16.654-9.774-16.654-9.774-1.147 9.896 11.647 19.068 19.913 23.17-9.713-.422-14-4.102-20.274-10.137.122 27.456 29.748 22.688 35.3 18.464.724 13.516 1.756 29.14 2.48 42.66-8.375-1.463-7.717-3.98-14.883-4.645-19.89-.775-35.668-23.876-40.893-40.87-1.5 2.797-.31 5.723-1.68 9.16-3.23-8.342-7.356-19.115-12.89-24.128 1.41 4.863 1.56 9.804 1.07 18.892-1.9-5.89-3.666-7.695-3.793-14.607.122-5.307 5.12-9.223 4.844-16.687-.204-5.448-5.175-17.26-5.906-26.403-2.407 9.41-3.917 19.33-7.604 25.158 1.832-10.05 1.245-16.984 4.344-23.75 3.58-7.12 6.624-13.475 4.24-20.662-2.286 2.775-1.5 5.297-7.242 12.04-1.247-7.333 7.426-19.07 15.842-23.79 5.936-3.127 13.418-14.314 8.545-21.98-5.583 4.008-8.09 9.425-15.975 18.68 5.624-21.987 20.24-27.74 37.736-27.815 3.87-.018 11.678-1.416 13.868-6.54-4.93 1.905-10.762 2.147-15.95 1.11 3.776-5.546 11.73-4.825 19.14-4.858 5.813-.028 14.888-.817 18.557-9.095-7.09 3.072-18.15 3.71-25.113 1.535 11.074-5.738 28.42-6.356 37.316-13.885-10.14-7.568-35.514 1.763-51.54 12.755 4.478-4.096 11.558-11.362 15.464-17.228-8.766-4.203-30.933 20.355-38.57 34.947-7.253 4.095-10.155 10.516-12.97 14.997 3.864-13.06 4.273-22.535 7.498-33.29-24.863 8.56-14.53 54.498-19.937 65.488.636-12.134.12-27.722-4.875-35.76-7.658 5.842-8.276 40.23-1.086 68.857-2.597-7.66-7.497-14.812-9.07-24.136-11.333 20.67 6.645 45.06 21.68 64.323-11.32-5.895-22.51-18.575-29.86-29.204 2.03 36.997 40.665 44.685 46.664 53.78-8.14-3.79-23.705-11.29-30.31-3.433 10.752 2.482 19.328 5.35 26.238 9.88 10.027 12.52 29.014 17.996 62.082 19.378z" fill="#f3e295"/></g></svg>