<svg xmlns="http://www.w3.org/2000/svg" height="512" width="512" viewBox="0 0 512 512"><path d="M0 0v512.078h511.99V426.88h.012V.085H321.955V0H0z" fill="#68bfe5"/><path d="M310.243 254.06v136.357c0 44.6 80.58 71.08 80.58 71.08s80.583-26.483 80.583-71.08V254.06z" fill="#fff"/><path d="M379.655 301.97v61.396h-69.412v22.34h69.412v71.538l11.17 4.253 11.17-4.253v-71.54h69.41v-22.338h-69.41V301.97zM310.243 254.06h161.163v52.657H310.243z" fill="#d21034"/><g fill="#fff" stroke="#000" stroke-width=".805" transform="translate(-207.55 158.36) scale(.665)"><ellipse ry="10.962" rx="13.623" cy="192.212" cx="798.23"/><ellipse ry="6.123" rx="12.114" cy="186.525" cx="798.23"/><ellipse ry="6.123" rx="12.114" cy="198.769" cx="798.23"/><ellipse ry="6.123" rx="12.114" cy="192.213" cx="798.23"/></g><path d="M467.416 296.272l-1.32-3.64s-3.612-1.474-3.887-3.393c-.644-5.116-2.47-7.034-5.207-7.765-2.742-.73-4.566.458-4.566.458-.825 1.188-4.937 1.188-7.22 1.277-2.283.094-2.322-.99-2.322-.99-1.774.01-2.52-1.292-2.52-1.292-1.16-2.32-2.025-3.186-2.598-3.48 2.963.044 5.194-1.323 8.54-4.833 3.652-3.837 6.26-2.353 6.26-2.353-1.774 3.583.59 3.266.59 3.266 4.84-2.464.637-8.677-.824-8.403-1.46.273-1.878-.71-1.878-.71.045 1.115-1.622 1.56-1.622 1.56 1.25-7.098-2.985-8.98-2.985-8.98-.64.64-1.007 1.917-1.007 1.917-1.185 4.294-5.113 3.655-9.5 1.553-4.384-2.1-16.076 2.194-19.728 3.655-3.657 1.46-10.324 3.746-16.353.365-6.028-3.382-7.493-2.742-9.867-2.1-2.377.637-6.574 1.645-8.126.82-1.555-.82-3.326-.872-3.326-.872.424-.236-.237-1.228-.237-1.228-1.826-2.465.238-3.977.238-3.977s-3.4.958-2.047 6.76l.622.87s.455 1.827 1.463 2.376l-.037.4s.86-.4 1.13.787c.28 1.188 1.557.092 2.106-.91 0 0-.916 5.297 5.663 6.575 0 0-.736-.822-.46-1.37.272-.55-.82-1.01-.73-1.828.09-.82-1.64-1.186-.274-1.828 1.368-.64 2.01-1.92 4.933-.184 2.92 1.736 5.207 1.372 5.207 1.372s-1.782-3.658-.8-3.655c.982 0 5.4 5.47 7.576 5.2 2.175-.267 6.377-2.734 8.48-1.82 0 0 .18-1.097 8.217-2.468 8.04-1.37 17.955-5.376 21.674-1.866 0 0 .435 2.78 1.985 3.51 0 0-.278 5.755-10.23 2.556l-3.61-.95s-.554-1.747-19.483 3.12c0 0-1.113.39-1.844.94-.733.545-1.74-.276-5.484 1.093-3.743 1.372-17.722 5.94-26.305 4.294l-.012.023c-1.89-.565-3.662-.273-3.733-.57-.093-.367 1.006.09 1.006.09-.64-.73-.914-.79-.914-.79-7.217-.792-5.94-4.052-5.94-4.052l.367 1.006c1.186-1.55-.46-5.205-.46-5.205l-.07.012a3.776 3.776 0 0 0-.068-.333l.597-.412c3.47-2.924 7.49-3.472 7.49-3.472-2.376-2.92-7.402-1.368-7.402-1.368.093-3.562-1.368-7.674-1.368-7.674-4.935.548-7.764 4.658-7.764 4.658-.183-3.653-4.843-5.753-4.843-5.753 1.734 2.1.64 7.124.64 7.124l.183.092c-.29-.01-.458 0-.458 0l-.103 1.076-.17-.072s-1.735.638-3.744 5.206c0 0-.202 1.08-.98 2.053-.006-.127.008-.24-.01-.372 0 0-2.242 2.94-7.43 0 0 0-7.045-4.18-9.52-4.025-2.478.154-4.106 1.315-3.948 2.012 0 0-5.655-.465-7.588 2.785 0 0-4.258 1.55-.62 5.033 0 0 .49 1.514 1.548 2.326 0 0-.15-3.18.62-2.245 0 0 .2.313.58.533.102.446.444 1.685 1.2 2.316l.545-.173c.083-.792.255-1.794.43-2.216l.18.023c-.023.024-.046.037-.07.058l1.007 1.548 1.16-.62c.544-.078 1.24.466 1.24.466l1.316-1.085c-.008-.012-.016-.014-.024-.027 1.296.217 1.65-2.296 1.65-2.296 1.165.306 2.254-.037 3.18-.598.566 2.083 5.18 4.318 5.18 4.318l.2-.017c-.39.25-.623.438-.623.438 2.1 1.464 6.03 1.098 6.03 1.098-1.644.64-1.414 3.68-1.414 3.68-.96.396-1.055 1.344-1.055 1.344 3.198 1.275 5.382.22 5.382.22.176 1.04-.083 1.15-.083 1.15-1.278 2.74-1.826 5.39-1.826 5.39.028.01.06.017.088.027-.04.073-.088.142-.12.216 0 0-5.572 1.935-8.05 4.645 0 0-.232-.774-.93-.774-.696 0-2.864-1.78-3.87-2.09-1.005-.308-2.477.31-2.865-.152-.35-.423-.192-3.594-.862-4.106l.013.003-.697-1.934c-.464 1.005-2.4.772-2.4.772a21.9 21.9 0 0 0-.794.578c-.387.02-.83-.112-.83-.112-.2.04-.397.598-.54 1.14a12.04 12.04 0 0 0-.236.177v-.543c-.385.31-1.16-.154-1.47-.154-.152 0-.34.443-.492.9-.788.145-1.83.184-1.83.184-.31.155-.08 2.555-.08 2.555-2.244 1.24-1.16 3.096-1.16 3.096 1.238 6.04 11.534 3.33 12.31 4.105.77.775 2.553.927 3.483.927.927 0 2.087 2.246 3.405 2.478 1.317.233 0-1.78 6.105-3.238 6.103-1.46 8.137-3.962 8.137-3.962 1.912-.368 2.444-2.692 2.587-3.63.017.433.07.91.138 1.456.275 2.102-1.177 2.867-1.177 2.867l5.29-1.587c2.1-.548 1.826-2.377 1.826-2.377 2.01 5.756 5.664 6.12 5.664 6.12.73-2.192.64-2.832.64-2.832l1.644-.09c.067-1.238-1.027-2.144-1.66-2.565l2.573 1.56 1.003-.183c0 .913 1.37 1.734 1.37 1.734l.185-1.184c1.188 1.552 3.38 1.004 3.38 1.004a7.34 7.34 0 0 0-.194-.853c4.68 2.89 12.16-.79 12.16-.79 2.008.455 2.282-.733 2.282-.733 2.283.273 2.813-1.287 2.813-1.287 5.374-.465 9.157-4.286 9.157-4.286 2.646-.182 2.732-2.074 2.732-2.074s2.654.523 5.213-2.675c5.935-8.492 14.813-4.07 14.813-4.07l-5.133.325c-13.426-.09-7.86 9.04-7.86 9.04l.828-.087c1.278.273 5.66 3.745 4.045 6.33-.025.046-.06.087-.09.13-2.737 3.746-7.807.172-9.25-2.99-1.465-3.196-4.39-2.464-4.39-2.464s-7.58 1.28-4.474 7.307l.114.004c.057 1.472.98 3.148 3.684 4.814 1.52 2.148 6.512 2.373 10.18 1.578 1.706-.373 10.71-4.245 10.71-4.245.66-1.96 2.9-1.508 4.91-4.34 2.008-2.83-2.834-3.837-3.93-5.39-1.097-1.553.276-1.278.276-1.278 4.383 2.375 4.748-5.207 4.748-5.207.458 4.383 4.293 5.57 4.293 5.57 2.378-2.37.644-7.214.644-7.214 5.664 10.14 9.094 8.526 9.094 8.526-3.05-1.888-1.514-4.415-1.514-4.415 2.737 10.78 13.977 1.372 13.977 1.372-.547 1.55.003 2.464 1.007 3.47s2.19 1.46 1.646 3.29c-.55 1.825-5.753 1.46-5.753 1.46s-5.12-.272-4.66 4.02c.27 1.004 3.65 1.37 4.93 1.097 0 0-.527.113 1.364.366.633.082 1.398.095 2.177.07 2.18-.067 4.502-.437 4.502-.437 2.92-.64 2.465-1.647 2.465-1.647 4.472-.825 4.93-3.84 4.93-3.84z" fill="#ffd100" stroke="#000" stroke-width=".798"/><path d="M318.99 277.566c.002-.004.24-.564.69-.63.348-.053.77.205 1.216.747l.244-.184c-.01-.02-1.206-1.76-.73-2.99.213-.547.74-.923 1.567-1.11l-.067-.3c-.932.214-1.532.652-1.785 1.3a2.09 2.09 0 0 0-.134.757c0 .6.212 1.21.43 1.677-.27-.17-.534-.24-.787-.202-.46.07-.682.4-.804.615zm140.98 23.925c-3.052.486-7.532.754-7.888-.17-.062-.164-.073-.823 2.425-2.45l-.29-.447c-2.085 1.358-2.925 2.34-2.634 3.09.64 1.66 7.18.712 8.486.503zm-58.375 1.763c-.696-1.064-.383-2.522.93-4.337l-.433-.312c-1.458 2.007-1.776 3.673-.945 4.943zM397.473 298.66c.067 1.84 1.367 3.55 3.856 5.073l.28-.456c-2.33-1.425-3.54-2.985-3.603-4.636-.092-2.534 2.586-4.49 2.612-4.51l-.313-.434c-.12.085-2.938 2.138-2.834 4.963zm52.052.684c-.837 1.236-.557 2.733-.546 2.796l.523-.103c-.004-.015-.247-1.347.468-2.396.43-.63 1.12-1.04 2.06-1.218l-.096-.525c-1.087.206-1.895.692-2.41 1.447zM330.27 275.967l-.166-.04-.023.17c-.003.016-.236 1.637-.972 2.078-.206.123-.428.136-.684.043l-1.248-.76c-.25-.22-.463-.38-.823-.275a1.8 1.8 0 0 1-.343-1.323c.09-.732.6-1.437 1.522-2.095l-.175-.25c-1 .715-1.554 1.49-1.652 2.314-.11.95.44 1.6.464 1.626l.073.086.1-.047c.28-.123.36-.05.63.19l1.348.82c.343.125.66.102.946-.07.76-.455 1.028-1.78 1.09-2.15 3.242.697 5.852-3.244 5.965-3.414l-.26-.167c-.02.042-2.684 4.08-5.79 3.264zM322.497 275.362c-.162.657-.05 1.302.324 1.917.36.582.71.892 1.08.94.448.063.806-.27 1.122-.56.23-.216.448-.416.628-.403l.278.193.24-.19-.497-.308c-.312-.023-.576.22-.856.483-.28.257-.568.528-.874.485-.266-.036-.553-.307-.858-.802-.33-.54-.43-1.11-.29-1.682.35-1.447 2.08-2.51 2.098-2.52l-.157-.26c-.077.044-1.856 1.135-2.236 2.706zm-4.462 20.65c.155-.56.585-1.035 1.276-1.42-.135.014.678.677 1.377.602l.453-.245c.185.16 1.394 1.26 1.394 2.653 0 .294-.054.594-.186.9l.284.12c.884-2.095-1.34-3.953-1.36-3.973l-.082-.064-.137.09-.397.214c-.57.06-1.315-.544-1.32-.55-.94.41-1.42.952-1.597 1.596zm10.325-5.344c-.667.056-2.527.41-3.134 1.377-.22.35-.252.735-.093 1.152l.245.65c.58 1.557 1.18 3.167 1.836 3.53l.15-.265c-.558-.31-1.165-1.937-1.7-3.372l-.243-.65c-.124-.328-.103-.617.064-.883.498-.79 2.17-1.173 2.902-1.234.426-.034.565 1.538.65 2.478l.304-.027c-.122-1.385-.25-2.816-.98-2.755zM323.26 292.197c-.39.35-.31.876-.306.9.003.143.177 4.033 2.024 4.837l.12-.28c-1.67-.73-1.84-4.55-1.84-4.588 0-.024-.056-.41.21-.643.28-.25.837-.268 1.61-.056l.08-.293c-.89-.246-1.53-.205-1.897.123zM321.8 292.516c-.818.57-.785 2.192-.784 2.26l.305-.005c0-.016-.03-1.53.653-2.003.255-.176.59-.183.998-.02l.115-.28c-.51-.21-.943-.19-1.286.05z"/><g transform="translate(-207.55 158.36) scale(.665)"><path d="M862.33 169.49c.022.038 1.31 2.945 1.31 5.305 0 .42-.198.717-.29 1.08-.053-.134-.5-1.365-.5-1.365l-.39.987c-.018.055-.526 1.384.38 2.883 1.2 1.977 4.188 3.243 8.885 3.758h-.002c0 .004.06.055.066.065-.196.026-.342.08-.386.122l-.19.16.026.4c.122.488.678.512 1.784.554.187.01.49.054.705.065.274.077.556.153.556.153l-.094-.108c1.07.074 2.274.338 3.58.826-.288.076-.994.252-.994.252l1.162.458c.088.035 8.648 3.474 12.19 6.303-1.005.87-5.3 4.08-12.735 2.246l-1.246-.306.844.965c.052.058 4.896 5.614 5.9 8.983-1.687.017-8.185-.042-10.455-1.97l-.59.534c.03.05 3.116 4.576 3.805 8.105-.884.116-3 .203-4.252-1.433l-.577-.75-.313 2.036c-.605-.456-1.367-1.137-1.367-1.867v-.48l-1.833.333-3.765-2.283a7.975 7.975 0 0 0-.605-.365c-.004-.004-.035-.022-.035-.022l-.027-.016-.39.706s.45.267.578.348c.806.525 2.186 1.67 2.325 3.188-.595.035-2.448.136-2.448.136l.046.426v.067c0 .253-.08 1.305-.847 3.68-1.158-.276-5.37-1.744-7.858-8.874l-.775.192c.004.02.013.114.013.265 0 .65-.23 2.28-2.465 2.86-.013.004-4.15 1.248-6.452 1.937.43-.616.824-1.46.824-2.685 0-.26-.017-.54-.05-.837-.14-1.036-.225-1.9-.225-2.62 0-1.5.37-2.394 1.406-3.03l-.36-.716c-.098.038-9.62 3.82-14.34 2.25.216-.922 1.016-4.162 2.628-7.616l-.208.198c.31-.132.625-.615.364-2.166l-.086-.528-.484.233c-.03.015-3.052 1.363-7.417-.236.09-.358.32-1 1.235-1.38l.268-.108-.026-.293c0-.01-.01-.213-.01-.53 0-1.18.184-3.94 1.88-4.603l-.18-.777c-.055.007-5.16.415-8.257-1.307.812-.56 2.52-1.592 4.505-1.878l.318-.045.022-.318c.004-.017.01-.11.01-.26 0-.404-.155-1.22-.51-2.04 1.178.327 2.59.624 3.09.248l.17-.128-.145-3.1-.803.04.123 2.562c-.504.027-1.788-.23-3.035-.626l-1.234-.392.795 1.024c.645.83.727 1.858.737 2.33-2.79.52-4.976 2.252-5.07 2.33l-.41.338.435.303c2.4 1.67 6.153 1.816 8.08 1.774-1.136 1.28-1.328 3.42-1.328 4.492 0 .22.007.278.01.386-1.362.736-1.567 2.118-1.576 2.182l-.03.3.283.116c4.125 1.644 6.94.85 7.897.497.007.128.035.302.035.393 0 .378-.07.494-.07.494-2.026 4.248-2.875 8.286-2.885 8.324l-.066.334.313.124c3.828 1.53 10.705-.56 13.75-1.634-.4.69-.632 1.464-.632 2.43 0 .808.098 1.717.233 2.73.035.257.05.494.05.724 0 2.28-1.54 3.142-1.615 3.18l.306.74 7.954-2.388c1.84-.478 2.53-1.565 2.824-2.49 3.14 7.445 8.066 8.116 8.285 8.14l.32.028.1-.302c.766-2.287.943-3.45.978-4.01a439.55 439.55 0 0 0 2.463-.13l.02-.362c.004-.063.004-.123.004-.182 0-.658-.205-1.24-.49-1.764.498.3 1.377.834 1.377.834l1.318-.24c.344 1.33 1.923 2.374 2.127 2.5l.51.306s.19-1.212.268-1.74c1.965 1.758 4.753 1.235 4.885 1.202l.352-.09-.052-.357c-.4-2.687-2.204-5.885-3.265-7.595 3.49 1.587 9.85 1.47 10.163 1.46l.475-.015-.093-.465c-.564-2.825-4.094-7.272-5.57-9.04 8.2 1.54 12.606-2.714 12.795-2.907l.288-.306-.317-.278c-2.757-2.402-9.112-5.19-11.665-6.257l.894-.226-.883-.493c-2.135-1.2-4.398-1.35-5.928-1.415l-.007-.012c-.97-1.11-1.465-1.29-1.59-1.316-5.546-.612-7.58-2.166-8.317-3.366-.062-.1-.03-.166-.077-.262.12-.16.244-.318.244-.318.535-.697.726-1.63.726-2.617 0-2.546-1.294-5.456-1.367-5.624l-.74.334zM836.8 167.86c-.017.08-.608 3.12-3.196 4.543-1.947 1.07-4.52.982-7.64-.266l-.35-.14.037.376c.01.078.214 1.864 1.898 3.172 1.402 1.092 3.408 1.475 5.922 1.2-.84.998-3.544 4.452-3.544 7.802 0 .177.01.354.028.528.344.247 4.58 1.395 6.544-1.116.07 1.076.38 4.52 1.724 5.87.737.732.91 1.803.91 2.66 0 .77-.146 1.366-.146 1.378l-.152.613.51-.37c.164-.12 4.058-2.972 5.303-6.708-.004.01.623-.937 1.825-1.325-.025.163-.046.33-.046.563 0 1.444.633 4.064 4.836 5.67l.345.133-.03-.367a7.135 7.135 0 0 1-.03-.726c0-1.055.147-2.993 1.15-3.997.663-.66.86-1.404.86-2.05 0-.506-.11-.917-.225-1.22.85.216 2.855.863 3.672 2.39 1.186 2.224 5.338.455 5.516.38l-.143-.436c-.017.004-1.746.39-2.837-.358-.48-.33-.768-.838-.87-1.51l-.19-2.31c-.043-1.048-.188-1.713-.714-2.272.55-.05 1.652-.03 2.118 1 .734 1.617 3.25 1.774 3.356 1.783l.86.046-.722-.468c-.024-.014-2.198-1.456-1.822-3.336l.313-1.376c.594-2.48 1.584-6.632.778-9.18l-.438.14c.2.635.282 1.39.282 2.195 0 2.26-.64 4.945-1.072 6.74l-.316 1.394a2.608 2.608 0 0 0-.052.538c0 1.217.79 2.146 1.405 2.705-.74-.16-1.766-.512-2.15-1.37-.606-1.326-2.23-1.387-3.005-1.23l-.542.11.462.306c.73.487.75 1.054.802 2.293l.195 2.358c.114.804.472 1.42 1.06 1.824.514.35 1.116.4 1.665.44-1.233.32-2.924.522-3.53-.62-1.146-2.132-4.293-2.702-4.425-2.727l-.48-.082.24.42c.026.047.358.653.358 1.423 0 .547-.167 1.172-.733 1.736-1.116 1.126-1.287 3.167-1.287 4.296 0 .22.01.252.015.387-3.595-1.512-4.23-3.75-4.23-5.017 0-.54.103-.898.117-.945l.105-.354-.365.062c-1.746.288-2.472 1.71-2.503 1.77-1 2.99-3.71 5.36-4.69 6.148a6.88 6.88 0 0 0 .065-.895c0-.936-.202-2.127-1.05-2.977-1.43-1.43-1.624-5.973-1.624-6.02l-.03-.82-.4.713c-1.582 2.833-6.2 1.472-6.245 1.46-.195-3.58 3.866-8.16 3.908-8.206l.426-.472-.626.092c-2.652.384-4.712.03-6.123-1.06a4.63 4.63 0 0 1-1.644-2.5c3.076 1.147 5.656 1.21 7.642.114 2.774-1.534 3.383-4.675 3.407-4.807 2.913-6.606 5.458-7.65 5.486-7.656l-.16-.43c-.115.04-2.74 1.073-5.768 7.95zM843.45 158.07l-.194.007-2.364 3.24.702.07c12.83 1.248 19.613 8.988 19.68 9.068l.295.344 2.325-2.528-.17-.26c-6.506-10.244-20.136-9.947-20.275-9.942zm.22.804c1.585.004 13.27.365 19.19 9.33-.29.314-.936 1.02-1.28 1.398-1.388-1.438-7.963-7.582-19.238-8.906a631.23 631.23 0 0 1 1.328-1.822zM841.6 164.84c-1.096 1.495-2.114 3.707-2.114 4.742 0 .198.038.354.122.453.007.01.046.013.06.03-1.337 1.196-2.132 3.195-2.132 5.455 0 1.243.22 2.538.68 3.773l.258.695c1.26 3.424 2.344 6.384 7.788 4.64 5.244-1.674 5.45-2.01 6.77-4.188l.345-.564c.72-1.17 1.506-1.404 2.343-1.652 1-.3 2.034-.608 2.942-2.4l.883-1.324c.953-1.313 2.142-2.94 2.285-5.023l-.46-.03c-.132 1.95-1.28 3.517-2.197 4.78l-.922 1.387c-.82 1.616-1.714 1.884-2.663 2.167-.883.264-1.79.535-2.604 1.854l-.348.566c-1.27 2.096-1.43 2.366-6.512 3.994-5.027 1.606-5.946-.9-7.218-4.364l-.257-.702c-1.433-3.818-.313-7.67 1.55-9.05l.64-.474-.887.1c-.01-.038-.02-.07-.02-.13 0-.625.682-2.612 2.038-4.465 1.158-1.58 3.89-3.143 3.92-3.158l-.23-.4c-.115.07-2.845 1.63-4.058 3.288zM839.16 178.65c.9.624 2.166.58 3.692 0 .007.544.13 1.7 1.078 2.538 1.116.988 2.965 1.178 5.5.574l-.108-.446c-2.375.567-4.09.407-5.087-.47-1.072-.944-.922-2.45-.918-2.462l.042-.394-.366.155c-1.537.662-2.74.702-3.575.125-1.496-1.04-1.384-3.755-1.38-3.786l-.46-.022c-.002.124-.128 3.002 1.58 4.188zM842.07 174.99c-.656.156-.827.706-.827 1.13 0 .102.01.197.024.28.115 1.18 1.398 1.968 2.563 2.305 1.133.328 2.528.35 3.077-.356.22-.283.38-.79-.1-1.61-1.75-2.978-4.58-1.812-4.737-1.75zm1.888 3.27c-1.02-.29-2.142-.952-2.232-1.932-.022-.094-.132-.752.448-.89l.046-.015c.104-.047 2.61-1.136 4.19 1.55.28.48.327.845.132 1.093-.338.44-1.454.526-2.584.195zm-1.934-3.253c.004-.004.046-.018.046-.018l-.046.017zm1.626 5.973c-.295 2.514-.115 2.574.066 2.63l.16.05.18-.212 1.456-1.92-1.828-.866-.034.318zm.42.376l.738.348c-.198.253-.566.744-.845 1.11.007-.378.053-.912.108-1.458zm-4.21-2.396l-.097 2.376 1.995-2.413-1.887-.21-.01.247zm.45.266l.55.06-.584.706c.02-.37.027-.575.033-.766zM838.53 178.2c.017.03 1.484 2.9 1.745 3.947.167.665 1.015 1.422 2.027 1.797 1.008.38 1.953.318 2.66-.174l1.324-1.1c.44-.426.588-.545.945-.484l.078-.453c-.6-.1-.894.18-1.34.603l-1.27 1.058c-.78.546-1.738.313-2.238.12-.946-.35-1.63-1.028-1.742-1.48-.275-1.094-1.72-3.92-1.78-4.04l-.408.206zm1.91-8.6c-1.62.748-2.305 2.713-2.333 2.796l.435.15c.007-.018.654-1.87 2.092-2.53.702-.32 1.488-.31 2.344.026l.17-.425c-.973-.393-1.884-.396-2.708-.017zm10.89 5.16c.128.096 3.188 2.414 1.43 5.243l.39.243c1.984-3.188-1.514-5.83-1.545-5.858l-.275.372zm-9.2.45s-.476 1.73 1.957 2.34c0 0-2.288-.02-2.433-.61-.154-.59.013-1.9.476-1.73zm7.44 2.07c0 .15-.122.274-.27.274a.275.275 0 0 1-.272-.274c0-.148.124-.27.27-.27.15 0 .272.122.272.27zm.27 1.08c0 .15-.122.275-.27.275a.272.272 0 0 1-.27-.275.27.27 0 0 1 .27-.27c.148 0 .27.125.27.27z"/><circle r=".27" cy="177.825" cx="848.01"/><path d="M848.75 179.45a.27.27 0 1 1-.54 0c0-.15.124-.275.27-.275.148 0 .27.123.27.275zm-7.1-7.32a.273.273 0 0 1-.546 0c0-.146.125-.27.27-.27.155 0 .276.124.276.27z"/><circle r=".27" cy="173.22" cx="841.65"/><circle r=".27" cy="172.68" cx="840.09"/><path d="M840.83 174.3a.276.276 0 0 1-.275.27.273.273 0 0 1 0-.545.278.278 0 0 1 .275.275zm4.74-9.55s3.518 2.165.132 6.228c0 0 1.666-1.237 1.836-3.362.178-2.123-1.207-3.816-1.968-2.866zm13.5 5.84c-1.133.582-2.764-.496-3.58-1.514-.814-1.02-2.5-1.28-3.55.58-1.048 1.864-2.56 2.562-2.56 2.562s1.477-.872 2.998-2.503c1.512-1.627 2.385-.32 3.87.466 1.484.787 1.717.96 2.763.553l.06-.143zM858.78 170.86c-.463.348-1.312.64-2.212-.09-.9-.727-1.658-1.715-2.792-1.134-1.138.584-3.293 2.212-3.293 2.212s3.495-2.417 4.165-1.892c.668.526 2.243 1.805 3.202 1.43.96-.383.93-.526.93-.526zM856.1 172.34c-1.105-.844-2.212.99-3.143.76-.93-.237-1.69-1.78-1.69-1.78s.877 1.632 2.097 1.253c1.224-.377 2.07-1.135 2.824-.555.757.585-.088.322-.088.322zM854.37 172.57c-2.183.226-2.4-1.813-2.4-1.834 0 0 .69 1.78 2.62 1.457l-.22.377zM854.3 171.18c.143.552.112.803-.473.803-.588 0-.987-.196-.987-.766 0-.57 1.374-.392 1.46-.037zm-7.84-3.03c0 .38-.313.685-.7.685-.386 0-.462-.26-.462-.636s.076-.73.462-.73c.387 0 .7.306.7.68zM844.05 165.71s3.74.04 1.888 4.72c0 0 1.425-2.33.53-4.006-.896-1.674-2.304-1.252-2.304-1.252s-.343.317-.114.538zM843.94 167.58c-.01.938.616 1.907 1.856 2.876l.286-.36c-1.123-.876-1.69-1.72-1.682-2.506.007-.786.612-1.253.62-1.26l-.276-.37c-.032.026-.79.604-.804 1.62zM844.77 168.37c.16.54.577.946 1.244 1.212l.17-.425c-.527-.21-.855-.518-.972-.913-.237-.796.403-1.724.41-1.732l-.372-.267c-.036.048-.78 1.12-.48 2.125zm5.13 2.6s.696 1.512-.32 3.143c-1.02 1.63-.992 1.544-.992 1.544s1.224-2.24.76-3.175c-.463-.93.552-1.512.552-1.512zm14.55 15.79c3.842.724 12.51 7.52 12.6 7.59l.498-.636c-.365-.282-8.915-6.985-12.948-7.744l-.15.79zm3.41 9.59c.257 3.41 3.967 5.528 4.127 5.614l.392-.7c-.04-.018-3.49-1.996-3.72-4.975l-.8.06zm-9.21.71c0 3.824 3.584 8.45 3.738 8.647l.632-.497c-.034-.043-3.567-4.602-3.567-8.15h-.803zm-12.15.43c.632 1.262.566 1.902.403 2.215-.19.353-.58.407-.594.41l.093.8c.295-.034.887-.24 1.2-.815.383-.7.253-1.7-.383-2.964l-.72.354z"/></g><g fill="#fff" stroke="#000" stroke-width=".36"><path d="M318.926 277.124s.155 1.702 1.47 2.712c0 0-.154-1.86.234-2.633 0 0-.696-.774-1.704-.08zm2.627 1.084s.31 1.546 1.24 2.244l.544-.154s.232-1.938.54-2.17c.31-.23-1.314.698-2.324.08zM323.88 278.128l1.006 1.55 1.16-.62-.232-1.857s-.695-.156-1.934.928zM328.6 278.44l-1.316 1.085s-.696-.543-1.24-.465l.234-1.704s.93-.696 2.322 1.085zm-9.368 16.024s-.23-2.4.08-2.555c0 0 .926.31 1.314-.08 0 0 .542 1.937.387 2.71-.154.774-1.083.467-1.78-.076zm5.964-2.48s-.077-2.013.31-2.247c0 0 1.934.233 2.4-.772l.696 1.935s-2.168-.233-3.406 1.084zM323.108 292.37s.386-2.09.775-2.167c0 0 1.006.308 1.316-.08l-.078 2.557s.077-1.085-2.014-.31zm-2.247.312s.465-1.858.776-1.858c.31 0 1.085.464 1.47.155v1.392s-1.705-.386-1.935 1.935l-.31-1.625z"/></g><g fill="#00a651" stroke="#000" stroke-width=".78"><path d="M351.04 331.224s5.26 4.887 3.885 9.147c0 0 3.382-7.267-.25-9.398-3.636-2.13-3.76-.497-3.636.252z"/><path d="M344.397 335.978s-1.376 1.883.125 3.26c0 0-1.627 2.378-.372 4.386 0 0-1.005 2.13-.753 4.386 0 0-.88 3.507 1 5.14 0 0 2.007 1.002 2.885.124 0 0 1.753-2.63.624-5.39 0 0 1.253-2.255-.124-5.137 0 0 .376-1.63-.752-3.507 0 0 .752-1.255.124-2.256 0 0-2.505-2.634-2.757-1.006z" fill="#964b36"/><path d="M345.9 329.84s-6.265-12.026-10.65-12.53c-4.388-.502-4.637-4.76-4.637-4.76s.5 2.004 4.01 2.004 10.276 4.886 11.027 8.645c.75 3.758 1.505 3.26 1.505 3.26l-1.255 3.38zM345.9 328.964s2.256-15.163 12.157-15.415c9.897-.253 6.642.75 9.02-.88 0 0-6.638 3.512-10.776 4.01-4.132.503-7.517 8.52-7.39 10.027.123 1.502-2.256 4.386-3.384 3.385-1.128-1.003.374-1.13.374-1.13zM348.154 334.608s2.254-6.015 6.14-4.008c0 0-3.01-5.767-8.397-.754 0 0 2.382 3.257 2.256 4.762zm-7.52-6.023s3.26 13.41-1.754 17.543c0 0 .124-6.888-2.883-11.024-3.005-4.138 3.007-8.646 4.637-6.52zM341.013 330.97s5.89 5.642 6.268 7.52c.377 1.88 1.754-5.637-1.002-7.766-2.757-2.133-5.764-2.508-5.764-2.508l.5 2.755z"/><path d="M330.15 345.75s.533 2.368 1.986 2.826c0 0 .075 1.76 1.374 2.293 0 0-.69 1.45.46 2.367 0 0-.23 2.903.84 3.516 0 0 2.6-.153 3.513-.918 0 0 .536-1.907-.914-3.82 0 0 .226-1.834-1.226-2.826 0 0 .46-2.45-1.375-3.364 0 0-.305-1.988-1.454-2.98 0 0-2.214 3.132-3.207 2.905z" fill="#964b36"/><path d="M333.048 342.846s-7.716-2.827-11.995 1.223c0 0 6.57.916 7.41 2.215.84 1.297 4.89-2.138 4.585-3.44zM330.68 347.66s-.61-.534-1.373-1.07c-.764-.534-7.257-2.292-8.177 3.973 0 0-2.37-6.188 1.07-7.03 3.44-.842 6.19 1.147 8.48 4.127m-5.078-12.806s2.378 5.137 3.257 5.39c.876.248 1.5-.625 1.5-.625s-3.13-4.638-4.76-4.766zm-1.756-7.892s-2.006-6.64-4.385-4.886c-2.38 1.754-1.754 6.514-1.754 6.514s-4.762-4.884-2.006-8.77c2.76-3.885 8.146.376 8.146 7.142z"/><path d="M329.238 340.62s0 1.252.878 1.626c.878.377 2.506 1 2.506.252 0-.75-1.252-3.634-1.756-3.257-.502.378-1.376.373-1.628 1.38z" fill="#964b36"/><path d="M327.736 332.853s-.25-5.763 3.506-7.896c0 0 .754.13 1.13-.998 0 0-3.01 7.264-2.132 10.898l-.124.502"/><path d="M328.487 325.832s6.766-14.037 15.038-9.15c0 0-8.646 1.755-11.778 7.896l-3.134 4.632-.125-3.38zM324.85 330.97s-2.006-9.396-3.258-10.647c-1.254-1.254-3.385-2.632-5.89-.503 0 0 4.386-3.886 9.022-.626 4.635 3.258 3.633 8.396 3.633 8.396l-.5 6.517-3.133-2.883"/><path d="M332.117 342.12s-8.27-15.658-13.657-4.507c0 0-1.006 2.88.122 4.006 0 0-3.008-2.255-1.63-7.768 1.378-5.51 10.525-3.007 13.16 1.505 2.63 4.51 3.383 6.768 3.007 7.016-.38.252-1.003-.252-1.003-.252zm23.31 4.516s6.017-12.407 9.524-6.77c0 0 1 2.757-.503 3.887 0 0-2.378-2.882-4.508.627-2.13 3.507-1.254 3.26-1.254 3.26s-2.256.625-3.26-1.005zM364.443 343.75s3.257 1.752 2.133 5.26c0 0 4.383-8.393-1.63-9.146 0 0 1.13 2.633-.503 3.886zm.38-8.517s7.895 2.254 8.145 5.64c0 0 1.38-6.518-3.133-8.523 0 0-5.39.88-5.013 2.883zM368.332 324.828c3.385-6.64 7.645 2.13 7.645 2.13s1.502-6.89-2.756-8.146c-4.262-1.252-7.017 14.66-7.017 14.66l-5.014 1.13s1.38-13.908 8.896-15.163l.876.125"/><path d="M362.315 328.837s-4.76-9.773-8.02-10.775c-3.258-1.002 1.758-2.506 3.762-.627 2.002 1.878 5.76 4.26 5.386 9.273l-1.128 2.13zm-4.887 13.41s1.378-6.638 5.137-8.645c3.758-2.006 7.268-1.252 7.268-1.252s-4.512 1-5.262 3.26c-.752 2.253-2.005 2.377-2.005 2.377l-5.137 4.26z"/><path d="M355.427 346.636s-2.13 4.01-1.63 4.635c0 0-2.254 3.258-1.378 4.888 0 0 2.256 1.754 3.26 1 0 0 2.627-3.63 1.876-5.637 0 0 1.754-2.378 1.13-3.88 0 0-2.63.124-3.26-1.004z" fill="#964b36"/><path d="M344.404 339.475c.14.072 1.406.686 2.258.402l.608-.52-.478-.238c-.312.62-1.69.108-2.15-.12l-.238.475zm-.206 3.89l-.104.524c.108.02 2.65.512 3.863-.565l-.356-.398c-1.012.9-3.377.445-3.402.437zm-.645 4.427l-.314.433c.03.023 2.984 2.127 4.875-.17l-.414-.34c-1.57 1.906-4.042.154-4.147.077zm-11.476.638l.11.287c.107-.044 2.61-1.05 2.77-2.88l-.304-.028c-.143 1.642-2.552 2.61-2.576 2.62zm1.416 2.288l.022.305c.097-.008 2.41-.18 2.812-1.796l-.298-.077c-.35 1.4-2.514 1.565-2.537 1.568zm.48 2.367l-.018.307c.11.004 2.7.14 3.58-1.295l-.262-.162c-.785 1.28-3.275 1.152-3.3 1.15zm19.632-1.623c.047.05 1.163 1.152 2.467 1.103.638-.023 1.204-.317 1.682-.866l-.404-.352c-.377.434-.814.665-1.295.683-1.068.04-2.064-.935-2.074-.947l-.375.38z" fill="#000" stroke="none"/></g><g fill="#964b36" stroke="#000" stroke-width=".279"><path d="M431.42 360.624a1.104 1.104 0 0 0-.404.268l.405-.268zm9.216-2.307c-.09-.23-.148-.132-.266-.234-.168-.138-.266-.582-.414-.748-.088-.1-.19-.003-.284-.028-.215-.474-.47-.973-.696-1.43a.397.397 0 0 0 .063-.213 7.61 7.61 0 0 0-.115-.4c-.064-.102-.167-.042-.23-.2-.07-.156-.015-.466-.04-.65-.02-.155-.08-.24-.07-.46.01-.188.11-.408.1-.574-.005-.104-.128-.337-.164-.425-.148-.358-.272-.696-.29-1.138-.02-.4.062-.644.09-.992.04-.415-.18-.617-.18-1 0-.294.125-.625.16-.888.05-.36.053-.883.023-1.253-.027-.353-.127-.566-.072-.963.015-.097.06-.175.073-.31-.003-.1-.003-.193-.003-.288v-.57c0-.185.02-.394.003-.574-.016-.15-.104-.305-.104-.423 0-.203.13-.3.1-.576-.017-.2-.046-.246-.09-.42-.09-.327-.03-.658-.083-1.01-.025-.167-.08-.22-.095-.413-.022-.227.047-.305.07-.465.023-.16.047-.37.025-.54-.025-.202-.122-.346-.095-.567l-.074 2.514c-.062-2.195-.15-4.226-.15-4.226l-3.336-1.567s-.283 6.126-.21 6.978c.066.856.352 6.7.21 7.412-.144.712-.495 4.274-.495 4.274s-1.632 1.14-2.27 2.42c-.64 1.284-.497 1.71-.712 1.71l1.585-.246-1.18.79a.72.72 0 0 1 .735.113c.027.022.203.173.226.173.063 0 .15-.16.225-.187.246-.083.453.378.686.343.126-.02.297-.15.4-.284.084-.114.116-.312.205-.388.08-.07.28.01.365.01.233 0 .47.008.702 0 .31-.008.562-.445.848-.692.267-.225.463-.304.748-.287.312.023.594.315.91.333.24.012.408.04.602-.21.134-.176.23-.437.356-.62l.788-.122c.156.065.316.136.45.132.2-.01.41-.035.61-.003.075.01.225.188.287.144.043-.034.115-.274.158-.346-.018-.097-.047-.337-.082-.417zM433.887 360.51c.202 0 .386-.045.555.103l.08.154a.173.173 0 0 0 .166.023c.113.077.136.12.26.15.116.024.243-.006.36-.004.145.005.216.055.352.11.238.098.395.006.6-.143.24-.175.327-.04.556.18.17.163.136.148.29.036a1.72 1.72 0 0 1 .077-.15c.077-.03.155-.052.233-.067.128-.06.255-.052.375-.098.128-.05.22-.19.355-.165.115.023.248.117.358.153a.747.747 0 0 1 .24.122c.16-.328.51-.426.736-.584.232-.16.45.035.706.037.137 0 .192-.08.29-.11.108-.04.232.017.337-.026.11-.04.13-.148.253-.16.227-.03.48.34.706.41.127.042.715.174.628-.26-.083-.41-.452-.126-.53-.414-.043-.165.043-.398-.008-.583-.044-.168-.23-.363-.34-.4-.14-.043-.22.102-.338-.01-.097-.09-.134-.43-.22-.563-.113.083-.184.16-.334.13-.172-.042-.155-.1-.282-.263-.278-.347-.438.21-.694.12-.194-.06-.375-.55-.527-.75-.082-.107-.31-.45-.428-.375-.2.13-.02.504-.123.67-.074.116-.337-.002-.432.016-.15.033-.178.072-.287.252-.22.363-.347.652-.688.61-.162-.018-.284-.182-.442-.122-.17.064-.264.245-.45.266a.977.977 0 0 1-.42-.035c-.13-.06-.274-.3-.392-.37a.153.153 0 0 0-.16-.03c-.014-.006-.19-.11-.194-.11-.206-.06-.19-.052-.273.22-.05.168-.068.342-.13.5-.06.135-.19.3-.268.39-.144.156-.213.115-.4.17-.15.05-.35.283-.43-.018-.12-.453.333-1.13-.17-1.012-.133.03-.212.055-.293.25-.09.224-.018.37-.058.615-.053.31-.643.83-.527 1.11.08.197.343-.107.415-.058.12.083.085.28.17.412.18.272.708-.424.738-.047m-2.14-2.71c-.003-.038-.01-.075-.013-.116-.14-.025-.3-.175-.43-.178-.122-.008-.36.29-.444.433-.257.428-.186 1.01-.62 1.002-.107-.003-.356-.075-.45-.01-.163.116-.06.458-.06.69 0 .22.1 0-.017.286-.035.08-.14.104-.17.21-.087.37.223.253.36.25.35-.004.7-.004 1.047 0 .21.003.337-.07.533-.147.13-.044.405-.042.514-.158a2.21 2.21 0 0 0 .184-.406c.03-.145-.026-.318.01-.438.054-.21.242-.13.276-.414.09-.696-.653-.175-.536-.86"/></g><g stroke="#000" stroke-width=".519"><path d="M440.164 338.724c0 .9-.617 1.627-1.382 1.627-.756 0-1.378-.725-1.378-1.626 0-.9.622-1.63 1.378-1.63.764 0 1.382.73 1.382 1.63zm-4.508-2.008c0 .9-.618 1.627-1.38 1.627-.76 0-1.38-.728-1.38-1.627 0-.9.62-1.63 1.38-1.63.762 0 1.38.73 1.38 1.63zM438.036 337.34c0 .902-.617 1.628-1.378 1.628-.762 0-1.378-.726-1.378-1.627 0-.9.616-1.63 1.378-1.63.76 0 1.378.73 1.378 1.63zM435.73 338.83c0 .902-.62 1.632-1.38 1.632-.76 0-1.38-.73-1.38-1.632 0-.9.618-1.628 1.38-1.628.76 0 1.38.728 1.38 1.628zM437.87 340.073c0 .9-.622 1.632-1.38 1.632-.76 0-1.38-.733-1.38-1.632 0-.9.62-1.627 1.38-1.627.758 0 1.38.728 1.38 1.627z"/></g><path d="M438.535 322.302s13.907-19.42 28.82.754c0 0 .125 2.006-1.253 4.135l-.377-1.627-.877.25-.25-1.003-1.632-.124.505-2.13-1.756 1.377.252-1.505-2.005 2.01.253-4.264-2.132 3.634.25-2.504-.75 1.125-.452-1.46-.674 1.46-1.005-.75v1l-1.753-1.503-.626 2.005-.876-2.13-.25 1.503-.88-1.754-.123 1.88-2.884-1.253.627 1.755-1.376-1 .25 1-1.877-.375.123 1.127-2.005-.377.377 1.002-2.758-.375 1 1.128-.28.458s15.067-4.967 16.07 13.828l-2.758 1.378.752-1.5-.753-.504-2.255-1.752.627-2.383-.75.252-.128-1.38-.375.25-.88-1.377-.25.502-.626-1.63-.627 1.13-.377-2.76-1 1.758-.128-1.003-.377.626-1.252-1.505-.373 1.004-.504-.75-.374.875-1.38-1.256v1.006l-.875-.754-.38.502-2.126-1.128-.13 1-1.124-1-.377 1s13.66 7.772 9.398 20.428l-.754 1.628-.247-4.258-1.253 2.253.87-4.885-.87.876-.13-1.877-1.123 1.878-.38-2.128-.498.626-.755-3.26-.627 1.38-1-3.633-.75 1.503-.504-3.13-.5 1.88-1.506-2.76-.248 1.126-.876-2.254-.504.754s-2.506-.127-3.257-.754c-.752-.623-2.883 3.76-2.883 3.76l.25-2.63-.875 1.75v-1.75l-1.63 5.26-.376-3.758-.876 3.257-.377-1-.25 1.38-.502-.505-.437 1.48-.818-.6v2.002l-.75-1.003-.627 3.008-.375-1.25v1.376l-.626-.75-.63 3.01-.875-1.254-.123 2.127.373 1.633-1-.502.376 2.63s-3.886-7.266.753-14.285c4.633-7.013 10.9-8.895 10.9-8.895l-.63-.624-.124-.628-3.76 1.88.128-1.132-1.003.878-.25-1.252-.63 1.128-.12-.502-.88 1.38-.504-2.006-.624 2.383-.592-1.667-1.288 3.543v-2.63l-1.003 2.76-.375-3.01-.75 3.508v-3.133l-1.13 3.133-.752-3.006-.502 2.88-.75-2.253-.755 3.38-1.125-3.007-.627 4.512-.75-1.757-.126 3.26-.875-2.005.874 4.26-1.128-1.63.377 2.63-1.628-2.88.125 3.386-.88-1.13-.376 1.25s-.373-13.03 8.52-15.538c8.9-2.505 14.664.754 14.664.754l-3.382-2.756.375-.88h-1.25l.5-1.002-2.63.127.75-1.003-2.006.25v-.625l-1.253 1 .503-1.126-1.755 1.126-.106-1.666-.897 1.42-.497-1.506-4.013 4.008 1.128-4.134-.75.88-.126-.88-1.128 1.756-.252-1.254-.502 1.502-.377-1.752-.875 1.752-.88-1.626-.373 2.13-.63-1.13-.75 1.63-1-1.004-.128 1.004-2.005-.878.5 1.505-1.504-1.252-.377 2.005-.875-1.003-.627 2.508-.626-2.382-.626 1.88s7.836-20.136 27.66-7c0 0 2.16 2.112 2.662 3.616.502 1.504.127.252.127.252l-.378-13.91.752 6.016.5-2.13-.124 3.132 2.002-4.387s-2.378 7.27-1.503 9.9c0 0 .88-8.394 3.89-9.398l-2.76 6.013.877-.126-.627 1.255h.752l-.91 1.988-.47 1.02.5 1 .758-.758z" fill="#00a651" stroke="#000" stroke-width=".519"/><path d="M436.474 330.473l.395.356c.052-.056 1.29-1.377 3.372.38l.345-.41c-2.488-2.103-4.102-.346-4.113-.327zm-.605-6.822l-.083.483.967-.412c-.155.277-.664 1.163-.664 1.163l1.44-.48c-.628.824-1.787 2.34-1.787 2.34l.426.328 2.842-3.724-1.766.59c.184-.32.758-1.333.758-1.333l-1.528.657c.1-.618.316-1.91.316-1.91l-.53-.09-.393 2.39zM433.216 323.804s.35.777.615 1.356c-.113-.047-.98-.394-.98-.394l2.89 5.115.372-.473-.582 1.5.5.195 1.245-3.207-.46-.26-1.003 1.285c-.27-.48-1.27-2.252-1.746-3.09l.803.323-.8-1.764 1.083.676v-1.906h-.534v.943l-1.77-1.105.366.806zm-1.822 6.423l.213.49c.783-.335 1.428-.39 1.918-.158.574.275.747.866.75.87l.514-.14c-.008-.032-.235-.828-1.027-1.21-.633-.304-1.43-.255-2.37.147zm2.245 5.418l-.44-2.802.53-.083.44 2.802zm3.847-.46l-.713-2.14.508-.17.714 2.14zm1.413 1.58l-.536-2.137.52-.13.536 2.138z"/><path d="M331.924 401.06s-2.35-1.066-3.42-.285c-1.068.785-.922 1.923-1.85 1.85 0 0 3.56.785 4.343-.142.783-.923.927-1.21.927-1.21m.433.772s-1.547 2.067-1.012 3.278c.533 1.21 1.677 1.315 1.406 2.204 0 0 1.53-3.307.797-4.272-.735-.96-.98-1.16-.98-1.16m-2.817-5.775s-2.467.766-2.743 2.058c-.283 1.294.584 2.052-.154 2.614 0 0 3.18-1.782 3.15-2.996-.03-1.212-.11-1.518-.11-1.518m1.307.694s1.17-2.305.433-3.403c-.735-1.107-1.883-1.012-1.77-1.93 0 0-.94 3.52-.048 4.344.892.818 1.172.976 1.172.976m-2.207-.826s.056-2.577-1.085-3.25c-1.14-.675-2.134-.095-2.432-.976 0 0 .682 3.583 1.843 3.94 1.16.35 1.48.37 1.48.37m4.41 4.21s2.703-.928 2.92 1.994c.212 2.92-.145 1.923-.145 1.923s-1.423-3.133-2.99-3.632l.215-.284z" stroke-width=".519" fill="#00a651" stroke="#000"/><path d="M332.31 402.092c0 .062.283 2.27.283 2.27l.38-.05-.286-2.208c.01.003.925-4.854.925-4.854l-.377-.07-.925 4.912zM329.85 401.374l-.126.36c1.293.455 3.1-.967 3.174-1.027l-.24-.297c-.016.01-1.713 1.352-2.808.964zm3.39-2.85l-6.052-3.062.24-.477 6.053 3.062zM328.852 397.836l-.377-.377 1.21-1.21.378.377zm2.118-.588l-1.28-2.78.484-.222 1.28 2.78zm1.792 3.4l.034.535c1.646-.11 2.048.955 2.05.967l.526-.11c-.062-.305-.72-1.518-2.61-1.39z"/><path d="M360.527 401.88c2.017-1.13 2.422-5.092 2.422-5.092-.484 1.457-4.197 2.91-4.197 2.91 2.744-1.7 6.052-9.365 6.052-9.365-.888 2.745-8.07 5.004-12.673 7.587-4.603 2.58-2.18 10.01-2.18 10.01-1.29-.888-3.794-4.84-4.276-8.316-.488-3.47-1.86-4.84-5.008-5.245-3.15-.405-5.005 3.145-5.005 3.145l-4.68 2.425 4.76.16s3.394 1.132 3.394 3.795c0 2.666-2.987 13.32 1.934 19.296 3.427 4.153 16.068 6.54 16.068 6.54M351.245 410.11s.97-4.764 4.117-4.602c3.148.16 4.036-3.55 5.893-4.117 1.856-.563 11.463-3.145 12.513-7.75 0 0-.888 7.59-9.686 11.385 0 0 7.102-2.342 7.91-3.876 0 0-3.15 6.78-10.818 7.83 0 0 7.185-.565 8.235-2.5 0 0-3.23 4.276-8.557 4.843 0 0 4.923 2.017 6.216.32 0 0-2.666 3.15-5.977 3.39l.89.243s-3.148 3.714-6.62 1.21c-3.47-2.503-3.553.65-3.553.65M358.412 417.29s4.055 6.783 4.46 10.415c0 0 7.75 8.558 10.656 9.04 0 0-1.373.563-3.877-1.533 0 0 2.1 2.18 2.505 2.26.402.084-1.696-.16-2.02-.728 0 0 .89 1.295 1.453 1.456l-.564-.16s-1.05-.163-1.535-.567c-.486-.403-.163 1.047-.163 1.047s-1.21-.323-1.613-.726c-.404-.402.162.89.162.89l-1.05-.243-.725.484s-.08.485-.568.08c-.48-.4-1.37 0-1.37 0s-.65.568-.97.163c-.32-.403-1.544 1.553-1.544 1.553l-5.083-12.27" fill="#fff" stroke="#000" stroke-width=".665"/><path d="M363.236 439.548l-6.424-12.228.674-.354 6.425 12.228zm5.613-.824l-10.992-12.306.57-.51 10.992 12.306zm2.506-1.085l-12.542-11.69.52-.56 12.543 11.69z"/><g transform="translate(-207.55 158.36) scale(.665)"><path d="M823.44 360.84s-1.23-2.204-2.303-1.376c-1.07.825-1.685.976-1.87.92 0 0 1.076.058 1.687-.523.613-.585 1.656-.215 2.486.98zm-6.66-1.01s.676 1.398.685 1.422c-.068.004-.763 2.257-.763 2.257l.553.17.75-2.454c-.013-.213-.703-1.642-.703-1.642l-.522.246zM823.16 360.5s-.918 1.075-2.176.766l-1.252-.306s1.066.06 1.776.093c.7.03 1.618-.337 1.652-.553zM822.86 360.72s-1.132-1.195-1.9-.858c0 0 1.35-.43 2.116.73l-.216.128zM822.67 360.5s-1.286.887-2.7-.09l-.085-.066.183-.06c0 .002 1.778.736 2.602.216z"/><circle r=".383" cy="360.284" cx="821.573"/></g><path d="M339.37 420.448s-.66 1.22-.315 1.954c.35.734 1.922 1.114 2.13 2.092.21.98.736.978 1.47.842.734-.14.873-.176.873-.176s-3.075-1.644-3.88-4.295l-.277-.417z"/><g fill="#964b36" stroke="#000" stroke-width=".48"><path d="M438.754 395.616s5.597-7.38 10.56-5.44c4.963 1.94 8.188 2.872 8.188 2.872s.094 4.97-2.545 4.97c-2.633 0-5.157-4.964-7.557-3.49-2.404 1.474-4.378 3.49-4.533 4.187-.155.697-6.357.853-4.112-3.1zM417.512 431.2s-1.548 1.624-.85 2.015c.7.386 2.092-.082 2.092-.622 0-.546-.928-1.55-1.242-1.394zM416.275 432.748s-2.866-1.632-5.115 2.245c-2.252 3.876-4.11 10.157-5.428 11.01-1.317.852 12.793-6.202 12.948-9.147 0 0 .93-3.8-.543-3.725-1.473.083-1.55.238-1.862-.382zM416.66 433.214s-2.944.693-3.564 4.878c-.62 4.19-4.73 6.36-4.962 6.513m49.376-51.555s-4.48 1.558-3.706 4.66"/></g><path d="M423.097 402.125s.154-10.622 8.832-10.157c1.643.152.86 2.092.86 2.092s1.876-1.315 2.734.774c0 0 2.737-1.24 3.048 1.476 0 0 2.97-.387 2.58 2.015 0 0 2.032-.464 1.956 1.24 0 0 2.344-.93 2.108 1.474 0 0 2.58-1.707 2.192 1.393 0 0 2.658-1.858 3.592 1.242.938 3.1-2.656 9.69-6.174 11.395" fill="#fff200" stroke="#000" stroke-width=".319"/><path d="M447.21 402.77c.013.083 1.17 8.31-3.494 11.32l.164.26c4.834-3.12 3.645-11.54 3.634-11.625l-.303.045zm-5.617 9.01l.216.218c2.953-2.875 3.59-10.622 3.61-10.95l-.3-.025c-.008.08-.65 7.96-3.527 10.755zm-2.76-1.843l.306.025c.38-4.784 4.118-10.256 4.158-10.312l-.252-.17c-.04.053-3.824 5.592-4.212 10.457zm-2.166-1.397l.304.03c.533-5.77 4.345-10.102 4.382-10.143l-.226-.205c-.04.043-3.917 4.447-4.46 10.32zm-3.026-1.927l.306.01c.303-6.813 4.774-10.158 4.818-10.19l-.18-.248c-.044.034-4.633 3.458-4.943 10.428zm-2.79-1.696l.306-.01c-.223-6.2 4.545-9.914 4.594-9.952l-.185-.242c-.05.04-4.943 3.843-4.716 10.204zm-5.034-2.267l.302.038c.83-6.714 6.806-8.46 6.866-8.477l-.083-.293c-.06.016-6.23 1.814-7.084 8.733z"/><path d="M417.977 414.997s-1.47-9.85 4.42-12.947c0 0 1.09-.233 1.706 1.163 0 0 3.103-1.317 3.18 1.315 0 0 1.55-1.24 1.938.465 0 0 3.335-.696 2.715 1.784 0 0 2.79-.775 2.557 1.626 0 0 2.792-1.007 2.325 1.086 0 0 2.944-.696 2.25 1.706 0 0 3.644-.386 2.56 2.17 0 0 2.712-.696 2.09 1.397 0 0 3.567.622 1.937 2.87-1.627 2.245-5.737 5.656-9.764 7.13M414.8 424.916s-2.405-8.214 2.173-10.31c0 0 .848-.235 1.003.62 0 0 1.01-1.32 1.787-.154 0 0 2.323-1.086 2.87.62 0 0 1.547-1.32 2.324.616 0 0 1.473-.617 1.473.93 0 0 2.015-.852 2.015 1.01 0 0 1.935-.775 1.55 1.317 0 0 2.946.464 2.093 1.86 0 0 2.64.696 1.628 1.784 0 0 2.867-.31 1.317 1.626 0 0 2.17-.695.932 1.71-1.242 2.4-5.116 5.036-7.83 5.346" fill="#00a651" stroke="#000" stroke-width=".319"/><path d="M417.665 431.425s-5.116-4.96-2.71-6.433c0 0 1.08.307 1.47 1.394 0 0 1.24-1.782 1.94.077 0 0 1.862-.62 1.862.624l1.47 1.085s1.708-.156 1.4.93c0 0 1.86-.234 1.78.775 0 0 1.63.076 1.475 1.16 0 0 2.788.465 1.55 1.863 0 0-4.885 1.006-8.295-.388 0 0-1.787-.622-1.942-1.087z" fill="#00a651" stroke="#000" stroke-width=".319"/><path d="M435.21 423.228l.11.284c3.03-1.168 8.296-8.354 8.52-8.66l-.247-.182c-.055.077-5.434 7.422-8.382 8.557zm-1.72-1.31l.147.265c2.638-1.47 7.89-8.427 8.11-8.723l-.242-.185c-.053.075-5.435 7.204-8.017 8.642zm-1.497-.612l.197.234c2.785-2.312 6.842-9.95 7.015-10.274l-.27-.143c-.04.078-4.202 7.91-6.942 10.183zm-1.37-1.762l.303.042c.53-3.86 5.953-9.937 6.005-9.997l-.225-.205c-.224.252-5.54 6.207-6.082 10.16zm-10.857-4.694l.305-.027c-.454-5.453 4.11-11.46 4.157-11.52l-.242-.184c-.05.058-4.684 6.156-4.22 11.73zm2.872.48l.303-.054c-.754-4.373 4.41-10.59 4.463-10.65l-.234-.2c-.218.26-5.31 6.386-4.532 10.903zm4.415 1.608l.305-.01c-.15-4.99 4.64-9.993 4.688-10.044l-.22-.213c-.048.05-4.93 5.148-4.773 10.268zm-10.532 9.042l.288-.107c-1.74-4.61 1.28-10.517 1.31-10.574l-.275-.143c-.03.06-3.11 6.083-1.322 10.823zm2.01.3l.29-.095c-1.516-4.698 1.054-10.993 1.08-11.055l-.283-.118c-.024.062-2.636 6.464-1.088 11.267zm8.31 4.693l.104.29c4.947-1.78 8.182-6.29 8.213-6.334l-.25-.18c-.03.045-3.207 4.48-8.067 6.223zm-1.017-1.077l.124.28c3.945-1.78 7.624-6.746 7.66-6.797l-.246-.18c-.037.05-3.666 4.95-7.537 6.696zm-.958-.372l.18.248c3.085-2.236 7.05-7.966 7.09-8.025l-.25-.17c-.04.058-3.974 5.742-7.02 7.946zm-4.946-2.88l.302-.043c-.682-4.928 2.508-10.775 2.543-10.833l-.268-.148c-.035.06-3.274 5.994-2.578 11.025zm2.146 1.337l.206.228c3.183-2.874 4.268-10.62 4.312-10.947l-.304-.04c-.01.078-1.112 7.964-4.214 10.76zM424.247 428.9l.18.246c4.492-3.25 5.71-9.49 5.72-9.55l-.298-.058c-.013.06-1.21 6.18-5.603 9.36zm.52-13.45c0 .29.013.58.04.875-.005-.025-3.408 11.025-3.408 11.025l.29.09 3.417-11.086c-.527-5.36 4.186-11.21 4.233-11.266l-.236-.19c-.047.05-4.338 5.38-4.338 10.55zM428.33 418.148c-.045.155-1.083 7.724-5.165 10.517l.173.252c4.198-2.872 5.218-10.335 5.26-10.65 1.81-2.156 5.986-9.716 6.03-9.792l-.27-.148c-.042.076-4.2 7.613-6.03 9.82zm-12.055 8.27c.03.16.713 3.92 1.494 5.247l.262-.154c-.755-1.28-1.446-5.105-1.454-5.145l-.303.054zm1.935.047c.033 1.873.042 4.945-.062 5.217l.284.112c.157-.393.097-4.51.085-5.33l-.307.002zM418.383 431.83l.278.125c1.31-2.852 1.715-4.82 1.72-4.838l-.3-.06c-.005.016-.4 1.956-1.697 4.774zM418.675 431.917l.155.264c2.432-1.412 2.996-3.87 3.016-3.973l-.298-.067c-.007.025-.56 2.435-2.873 3.777zM419.128 432.13l.03.302c2.383-.237 4.006-3.132 4.075-3.254l-.27-.148c-.014.03-1.613 2.877-3.835 3.1zM419.367 432.283l.018.305c3.826-.236 5.548-2.522 5.617-2.62l-.247-.18c-.016.02-1.713 2.27-5.388 2.495zM419.64 432.363l-.063.298c.206.048 5.08 1.08 6.75-1.46l-.256-.166c-1.55 2.365-6.383 1.338-6.43 1.33z"/><path d="M310.243 254.06v136.357c0 44.6 80.58 71.08 80.58 71.08s80.583-26.483 80.583-71.08V254.06z" stroke="#000" stroke-width="2.792" fill="none"/><path d="M0 0v209.756h312.477V0H0z" fill="#002868"/><path style="line-height:normal;text-indent:0;text-align:start;text-decoration-line:none;text-decoration-style:solid;text-decoration-color:#000;text-transform:none;block-progression:tb;isolation:auto;mix-blend-mode:normal" d="M0 0v23.452l121.304 81.425L0 186.304v23.452h34.936L156.24 128.33l121.303 81.426h34.934v-23.452l-121.302-81.427 121.302-81.425V0h-34.934L156.24 81.427 34.936 0H0z" color="#000" font-weight="400" font-family="sans-serif" overflow="visible" fill="#fff"/><path d="M0 0v15.635l132.95 89.244L0 194.12v15.635h23.29l132.95-89.244 132.95 89.244h23.29V194.12l-132.95-89.242 132.95-89.243V0h-23.29L156.24 89.242 23.29 0H0z" style="line-height:normal;text-indent:0;text-align:start;text-decoration-line:none;text-decoration-style:solid;text-decoration-color:#000;text-transform:none;block-progression:tb;isolation:auto;mix-blend-mode:normal" color="#000" font-weight="400" font-family="sans-serif" overflow="visible" fill="#ce1126"/><path style="line-height:normal;text-indent:0;text-align:start;text-decoration-line:none;text-decoration-style:solid;text-decoration-color:#000;text-transform:none;block-progression:tb;isolation:auto;mix-blend-mode:normal" d="M130.2 0v69.92H0v69.917h130.2v69.92h52.08v-69.92h130.197V69.92h-130.2V0h-52.08z" color="#000" font-weight="400" font-family="sans-serif" overflow="visible" fill="#fff"/><path style="line-height:normal;text-indent:0;text-align:start;text-decoration-line:none;text-decoration-style:solid;text-decoration-color:#000;text-transform:none;block-progression:tb;isolation:auto;mix-blend-mode:normal" d="M140.614 0v83.902H0v41.952h140.614v83.902h31.25v-83.902h140.613V83.902H171.863V0h-31.25z" color="#000" font-weight="400" font-family="sans-serif" overflow="visible" fill="#ce1126"/></svg>