<svg xmlns="http://www.w3.org/2000/svg" height="512" width="512" viewBox="0 0 512 512"><defs><clipPath id="a"><path fill-opacity=".67" d="M244.16 0h496.06v496.06H244.16z"/></clipPath></defs><g fill-rule="evenodd" clip-path="url(#a)"><path fill="#6797d6" d="M-252 0H771.878v511.934H-252z"/><path fill="#fff" d="M272.096 87.152l40.118-.027-32.477 22.164 12.425 35.898-32.436-22.217-32.438 22.213 12.432-35.893-32.47-22.175 40.117.037 12.364-35.917m12.366 374.585l40.118.027-32.477-22.165 12.425-35.9L259.726 390l-32.438-22.213 12.432 35.893-32.47 22.176 40.117-.037 12.364 35.915m-154.575-224.27l38.357-11.754-24.578 30.69 22.38 30.7-37.517-11.763-24.525 30.723 1.393-37.96-37.534-11.713 38.376-11.693 1.324-37.96m331.378 30.73l-38.36-11.753 24.58 30.69-22.38 30.7 37.516-11.763 24.526 30.722-1.395-37.96 37.534-11.714-38.375-11.693-1.324-37.96"/></g></svg>