<svg xmlns="http://www.w3.org/2000/svg" xmlns:xlink="http://www.w3.org/1999/xlink" height="512" width="512" viewBox="0 0 512 512"><rect height="512" width="512" rx="0" ry="0" fill="#fff" fill-rule="evenodd"/><rect id="a" y="204.8" ry="0" rx="0" height="102.4" width="512" fill="#c00" fill-rule="evenodd"/><use xlink:href="#a" height="300" width="600" transform="matrix(0 1 -.938 0 496 0)"/><path d="M291.205 156.384c3.08-5.142 1.24-8.462-3.42-9.488 0 0-14.867 5.084-30.924 5.642-16.055.558-35.13-4.308-35.13-4.308-3.422 2.29-2.587 7.724-.89 11.116 0 0 16.808 5.957 35.943 5.372 12.153-.37 23.67-3.68 30.13-5.872 3.712-1.26 4.294-2.404 4.292-2.462z" fill="#ebeae3" fill-rule="evenodd" stroke="#000" stroke-width=".539"/><path d="M320 389.552l-30.857-64.106-70.946 5.33L258.285 272l-40.088-58.776 70.946 5.33L320 154.448l30.857 64.106 70.946-5.33L381.715 272l40.088 58.776-70.946-5.33z" transform="matrix(1 0 0 1.067 -64 -34.133)" fill="#fff" stroke="#161111" stroke-width="1.6"/><path d="M255.54 130.376c38.763 6.816 37.378 8.747 37.378 8.747l10.117-32.26s1.065-6.362-1.704-10.224-10.542-1.705-10.542-1.705-1.065-5.225-4.472-6.475c-3.408-1.25-16.08 4.885-20.02 6.248-3.94 1.363-5.965 2.726-11.502 2.613-5.538-.113-15.442-5.34-17.252-6.36-1.81-1.023-4.473-2.045-6.922-1.93-2.45.112-5.005.793-6.283 2.61-1.278 1.818-1.278 4.09-1.278 4.09s-2.025-1.363-5.22-1.363c-3.194 0-5.005.455-6.496 2.272-1.49 1.817-3.407 6.93-3.407 6.93l3.62 8.745.213 12.04 7.56 12.723 36.21-6.702z" fill="#b02320" fill-rule="evenodd" stroke="#000" stroke-width="1.347"/><path d="M291.674 148.602s1.952 2.483 1.877 3.364c-.074.88-.9 1.68-.9 1.68s.6.64.45 1.603c-.15.96-1.35 1.04-1.35 1.04s.224.88-.526 1.28-3.83 1.12-3.83 1.12-15.013-4.562-31.077-4.562c-16.065 0-34.983 5.525-34.983 5.525s-1.95-.72-2.026-2.082c-.075-1.36.225-2.32.225-2.32s-1.07.117-1.35-.882c-.397-1.398.15-2.483.15-2.483s-.746.256.074-1.6c.6-1.362 1.5-1.843 1.5-1.843s16.816-6.406 35.96-6.486c19.142-.08 35.807 6.486 35.807 6.646z" fill="#ebeae3" fill-rule="evenodd" stroke="#000" stroke-width=".539"/><path d="M212.23 108.262s-.642-2.325.768-4.376c1.41-2.052 3.974-1.915 4.744-1.505.77.41.64 1.37 1.666 1.642 1.026.274 1.795-.547 1.795-.547" stroke="#000" stroke-width="1.185" fill="none"/><path d="M305.824 113.705l-5.822 12.85-2.29.427s-1.395-.895-5.38-.6c-2.85.215-3.693.986-3.693.986l5.18-12.807s.402 2.753 1.002 4.37c.763 2.056 3.654 3.983 3.654 3.983s.4-2.46-.36-5.44c-.844-3.297-2.81-7.75-2.81-7.75l10.52 3.982z" fill="#fc0" fill-opacity=".941" fill-rule="evenodd" stroke="#000" stroke-width="1.239"/><path fill="#121116" stroke="#121116" stroke-width="1.208" stroke-linejoin="round" d="M252.492 73.77h6.516v29.542h-6.516z"/><path d="M212.56 128.25l4.185 9.552s17.81-7.405 38.833-7.267c31.534.208 40.49 6.956 40.49 6.956l4.67-11.834-3.503 2.18-3.602 2.388-4.087 1.66-4.964-.415-4.38-3.426-2.238-4.984-3.7 3.634-6.52 1.557-6.423-1.764-5.644-7.578s-4.205 8.424-9.54 8.928c-7.687.727-12.164-3.945-12.164-3.945s-2.86 6.853-7.592 8.1c-7.494 1.97-13.723-3.74-13.82-3.74z" fill="#f6ca1f" fill-rule="evenodd" stroke="#000" stroke-width="1.023"/><path d="M430.628 247.41c0 3.607-2.88 6.533-6.44 6.54-3.558.007-6.45-2.907-6.465-6.515-.014-3.607 2.856-6.545 6.415-6.566 3.558-.022 6.462 2.88 6.49 6.49" fill="#eee" stroke="#1e1e1e" stroke-linejoin="round" transform="matrix(.522 0 0 .556 59.851 -67.617)"/><path d="M279.512 71.89s2.72-.05 2.997-1.23c.275-1.18-.186-2.703-.186-2.703s1.29 1.524.922 2.704c-.368 1.18-.73 1.486-1.66 1.722-.63.16-1.566-.098-2.074-.492z" fill="#a3afb8" fill-rule="evenodd"/><path d="M430.628 247.41c0 3.607-2.88 6.533-6.44 6.54-3.558.007-6.45-2.907-6.465-6.515-.014-3.607 2.856-6.545 6.415-6.566 3.558-.022 6.462 2.88 6.49 6.49" fill="#eee" stroke="#1e1e1e" stroke-linejoin="round" transform="matrix(.522 0 0 .556 51.676 -63.54)"/><path d="M271.337 75.967s2.72-.05 2.997-1.23c.276-1.18-.185-2.703-.185-2.703s1.29 1.524.92 2.704c-.367 1.18-.73 1.485-1.66 1.72-.628.16-1.565-.097-2.073-.49z" fill="#a3afb8" fill-rule="evenodd"/><path d="M430.628 247.41c0 3.607-2.88 6.533-6.44 6.54-3.558.007-6.45-2.907-6.465-6.515-.014-3.607 2.856-6.545 6.415-6.566 3.558-.022 6.462 2.88 6.49 6.49" fill="#eee" stroke="#1e1e1e" stroke-linejoin="round" transform="matrix(.522 0 0 .556 69.343 -70.008)"/><path d="M289.004 69.5s2.72-.05 2.997-1.23c.277-1.18-.184-2.704-.184-2.704s1.29 1.524.922 2.704c-.368 1.18-.73 1.485-1.66 1.72-.63.16-1.566-.097-2.074-.49z" fill="#a3afb8" fill-rule="evenodd"/><path d="M430.628 247.41c0 3.607-2.88 6.533-6.44 6.54-3.558.007-6.45-2.907-6.465-6.515-.014-3.607 2.856-6.545 6.415-6.566 3.558-.022 6.462 2.88 6.49 6.49" fill="#eee" stroke="#1e1e1e" stroke-linejoin="round" transform="matrix(.522 0 0 .556 80.035 -67.713)"/><path d="M299.696 71.794s2.72-.05 2.997-1.23c.276-1.18-.185-2.703-.185-2.703s1.29 1.525.922 2.705c-.368 1.18-.73 1.485-1.66 1.72-.63.16-1.566-.097-2.074-.49z" fill="#a3afb8" fill-rule="evenodd"/><path d="M430.628 247.41c0 3.607-2.88 6.533-6.44 6.54-3.558.007-6.45-2.907-6.465-6.515-.014-3.607 2.856-6.545 6.415-6.566 3.558-.022 6.462 2.88 6.49 6.49" fill="#eee" stroke="#1e1e1e" stroke-linejoin="round" transform="matrix(.522 0 0 .556 88.184 -60.55)"/><path d="M307.845 78.957s2.72-.05 2.997-1.23c.276-1.18-.185-2.703-.185-2.703s1.29 1.524.922 2.704c-.37 1.18-.73 1.485-1.66 1.72-.63.16-1.567-.097-2.075-.49z" fill="#a3afb8" fill-rule="evenodd"/><path d="M430.628 247.41c0 3.607-2.88 6.533-6.44 6.54-3.558.007-6.45-2.907-6.465-6.515-.014-3.607 2.856-6.545 6.415-6.566 3.558-.022 6.462 2.88 6.49 6.49" fill="#eee" stroke="#1e1e1e" stroke-linejoin="round" transform="matrix(.522 0 0 .556 91.705 -48.798)"/><path d="M311.366 90.71s2.72-.05 2.997-1.23c.276-1.18-.185-2.704-.185-2.704s1.29 1.524.922 2.704c-.368 1.18-.73 1.485-1.66 1.72-.63.16-1.566-.097-2.074-.49z" fill="#a3afb8" fill-rule="evenodd"/><path d="M430.628 247.41c0 3.607-2.88 6.533-6.44 6.54-3.558.007-6.45-2.907-6.465-6.515-.014-3.607 2.856-6.545 6.415-6.566 3.558-.022 6.462 2.88 6.49 6.49" fill="#eee" stroke="#1e1e1e" stroke-linejoin="round" transform="matrix(.522 0 0 .556 90.401 -36.906)"/><path d="M310.062 102.6s2.72-.048 2.997-1.228c.275-1.18-.186-2.704-.186-2.704s1.29 1.524.922 2.704c-.368 1.18-.73 1.485-1.66 1.72-.63.16-1.566-.097-2.074-.49z" fill="#a3afb8" fill-rule="evenodd"/><path d="M430.628 247.41c0 3.607-2.88 6.533-6.44 6.54-3.558.007-6.45-2.907-6.465-6.515-.014-3.607 2.856-6.545 6.415-6.566 3.558-.022 6.462 2.88 6.49 6.49" fill="#eee" stroke="#1e1e1e" stroke-linejoin="round" transform="matrix(.522 0 0 .556 85.446 -26.475)"/><path d="M305.107 113.032s2.72-.05 2.997-1.23c.276-1.18-.185-2.703-.185-2.703s1.29 1.523.92 2.703c-.367 1.18-.73 1.485-1.66 1.72-.628.16-1.565-.097-2.073-.49z" fill="#a3afb8" fill-rule="evenodd"/><path d="M430.628 247.41c0 3.607-2.88 6.533-6.44 6.54-3.558.007-6.45-2.907-6.465-6.515-.014-3.607 2.856-6.545 6.415-6.566 3.558-.022 6.462 2.88 6.49 6.49" fill="#eee" stroke="#1e1e1e" stroke-linejoin="round" transform="matrix(.522 0 0 .556 43.722 -60.41)"/><path d="M263.383 79.097s2.72-.05 2.997-1.23c.276-1.18-.185-2.703-.185-2.703s1.29 1.524.922 2.704c-.368 1.18-.73 1.485-1.66 1.72-.63.16-1.566-.097-2.074-.49z" fill="#a3afb8" fill-rule="evenodd"/><path d="M430.628 247.41c0 3.607-2.88 6.533-6.44 6.54-3.558.007-6.45-2.907-6.465-6.515-.014-3.607 2.856-6.545 6.415-6.566 3.558-.022 6.462 2.88 6.49 6.49" fill="#eee" stroke="#1e1e1e" stroke-linejoin="round" transform="matrix(.436 0 0 .465 70.33 -38.804)"/><path d="M254.028 77.86s2.274-.04 2.506-1.027c.23-.987-.155-2.262-.155-2.262s1.08 1.276.77 2.263c-.308.987-.61 1.242-1.387 1.44-.527.133-1.31-.083-1.735-.412z" fill="#a3afb8" fill-rule="evenodd"/><path d="M430.628 247.41c0 3.607-2.88 6.533-6.44 6.54-3.558.007-6.45-2.907-6.465-6.515-.014-3.607 2.856-6.545 6.415-6.566 3.558-.022 6.462 2.88 6.49 6.49" fill="#eee" stroke="#1e1e1e" stroke-linejoin="round" transform="matrix(.436 0 0 .465 70.363 -35.023)"/><path d="M254.06 81.642s2.275-.04 2.507-1.028c.23-.987-.155-2.262-.155-2.262s1.08 1.275.77 2.262c-.307.987-.61 1.242-1.386 1.44-.527.133-1.31-.083-1.735-.412z" fill="#a3afb8" fill-rule="evenodd"/><path d="M430.628 247.41c0 3.607-2.88 6.533-6.44 6.54-3.558.007-6.45-2.907-6.465-6.515-.014-3.607 2.856-6.545 6.415-6.566 3.558-.022 6.462 2.88 6.49 6.49" fill="#eee" stroke="#1e1e1e" stroke-linejoin="round" transform="matrix(.436 0 0 .465 70.558 -29.46)"/><path d="M254.256 87.205s2.274-.04 2.506-1.028c.23-.987-.155-2.262-.155-2.262s1.08 1.275.77 2.262c-.307.987-.61 1.242-1.386 1.44-.526.133-1.31-.083-1.734-.412z" fill="#a3afb8" fill-rule="evenodd"/><path d="M430.628 247.41c0 3.607-2.88 6.533-6.44 6.54-3.558.007-6.45-2.907-6.465-6.515-.014-3.607 2.856-6.545 6.415-6.566 3.558-.022 6.462 2.88 6.49 6.49" fill="#eee" stroke="#1e1e1e" stroke-linejoin="round" transform="matrix(.472 0 0 .503 55.552 -32.923)"/><path d="M254.21 93.246s2.46-.044 2.71-1.112c.25-1.067-.167-2.446-.167-2.446s1.167 1.38.834 2.446c-.334 1.068-.66 1.343-1.5 1.557-.57.145-1.42-.09-1.877-.444z" fill="#a3afb8" fill-rule="evenodd"/><path d="M430.628 247.41c0 3.607-2.88 6.533-6.44 6.54-3.558.007-6.45-2.907-6.465-6.515-.014-3.607 2.856-6.545 6.415-6.566 3.558-.022 6.462 2.88 6.49 6.49" fill="#eee" stroke="#1e1e1e" stroke-linejoin="round" transform="matrix(.522 0 0 .556 34.4 -38.158)"/><path d="M254.06 101.35s2.72-.05 2.998-1.23c.276-1.18-.185-2.704-.185-2.704s1.29 1.524.922 2.704c-.368 1.18-.73 1.485-1.66 1.72-.63.16-1.566-.097-2.074-.49z" fill="#a3afb8" fill-rule="evenodd"/><path d="M430.628 247.41c0 3.607-2.88 6.533-6.44 6.54-3.558.007-6.45-2.907-6.465-6.515-.014-3.607 2.856-6.545 6.415-6.566 3.558-.022 6.462 2.88 6.49 6.49" fill="#eee" stroke="#1e1e1e" stroke-linejoin="round" transform="matrix(.49 0 0 .522 47.727 -13.514)"/><path d="M254.025 117.507s2.554-.046 2.814-1.154c.26-1.108-.174-2.54-.174-2.54s1.212 1.432.866 2.54c-.347 1.108-.687 1.395-1.56 1.616-.59.15-1.47-.093-1.947-.463z" fill="#a3afb8" fill-rule="evenodd"/><path d="M430.628 247.41c0 3.607-2.88 6.533-6.44 6.54-3.558.007-6.45-2.907-6.465-6.515-.014-3.607 2.856-6.545 6.415-6.566 3.558-.022 6.462 2.88 6.49 6.49" fill="#eee" stroke="#1e1e1e" stroke-linejoin="round" transform="matrix(.522 0 0 .556 24.956 -60.507)"/><path d="M244.617 79s2.72-.05 2.997-1.23c.276-1.18-.185-2.703-.185-2.703s1.29 1.524.92 2.704c-.367 1.18-.73 1.486-1.66 1.722-.628.16-1.565-.098-2.073-.492z" fill="#a3afb8" fill-rule="evenodd"/><path d="M430.628 247.41c0 3.607-2.88 6.533-6.44 6.54-3.558.007-6.45-2.907-6.465-6.515-.014-3.607 2.856-6.545 6.415-6.566 3.558-.022 6.462 2.88 6.49 6.49" fill="#eee" stroke="#1e1e1e" stroke-linejoin="round" transform="matrix(.522 0 0 .556 16.613 -64.017)"/><path d="M236.274 75.49s2.72-.05 2.997-1.23c.277-1.18-.184-2.703-.184-2.703s1.29 1.524.922 2.704c-.368 1.18-.73 1.486-1.66 1.722-.63.16-1.566-.098-2.074-.492z" fill="#a3afb8" fill-rule="evenodd"/><path d="M430.628 247.41c0 3.607-2.88 6.533-6.44 6.54-3.558.007-6.45-2.907-6.465-6.515-.014-3.607 2.856-6.545 6.415-6.566 3.558-.022 6.462 2.88 6.49 6.49" fill="#eee" stroke="#1e1e1e" stroke-linejoin="round" transform="matrix(.522 0 0 .556 8.622 -68.028)"/><path d="M228.283 71.48s2.72-.05 2.997-1.23c.276-1.18-.185-2.704-.185-2.704s1.29 1.524.922 2.704c-.368 1.18-.73 1.485-1.66 1.72-.63.16-1.566-.097-2.074-.49z" fill="#a3afb8" fill-rule="evenodd"/><path d="M430.628 247.41c0 3.607-2.88 6.533-6.44 6.54-3.558.007-6.45-2.907-6.465-6.515-.014-3.607 2.856-6.545 6.415-6.566 3.558-.022 6.462 2.88 6.49 6.49" fill="#eee" stroke="#1e1e1e" stroke-linejoin="round" transform="matrix(.522 0 0 .556 -.544 -70.16)"/><path d="M219.117 69.347s2.72-.05 2.997-1.23c.276-1.18-.185-2.703-.185-2.703s1.29 1.524.92 2.704c-.367 1.18-.73 1.485-1.66 1.72-.628.16-1.565-.097-2.073-.49z" fill="#a3afb8" fill-rule="evenodd"/><path d="M430.628 247.41c0 3.607-2.88 6.533-6.44 6.54-3.558.007-6.45-2.907-6.465-6.515-.014-3.607 2.856-6.545 6.415-6.566 3.558-.022 6.462 2.88 6.49 6.49" fill="#eee" stroke="#1e1e1e" stroke-linejoin="round" transform="matrix(.522 0 0 .556 -11.355 -67.402)"/><path d="M208.306 72.105s2.72-.05 2.997-1.23c.276-1.18-.185-2.703-.185-2.703s1.29 1.524.922 2.704c-.368 1.18-.73 1.485-1.66 1.72-.63.16-1.566-.097-2.074-.49z" fill="#a3afb8" fill-rule="evenodd"/><path d="M430.628 247.41c0 3.607-2.88 6.533-6.44 6.54-3.558.007-6.45-2.907-6.465-6.515-.014-3.607 2.856-6.545 6.415-6.566 3.558-.022 6.462 2.88 6.49 6.49" fill="#eee" stroke="#1e1e1e" stroke-linejoin="round" transform="matrix(.522 0 0 .556 -18.994 -59.254)"/><path d="M200.667 80.253s2.72-.05 2.997-1.23c.276-1.18-.185-2.703-.185-2.703s1.29 1.524.92 2.704c-.367 1.18-.73 1.485-1.66 1.72-.628.16-1.565-.097-2.073-.49z" fill="#a3afb8" fill-rule="evenodd"/><path d="M430.628 247.41c0 3.607-2.88 6.533-6.44 6.54-3.558.007-6.45-2.907-6.465-6.515-.014-3.607 2.856-6.545 6.415-6.566 3.558-.022 6.462 2.88 6.49 6.49" fill="#eee" stroke="#1e1e1e" stroke-linejoin="round" transform="matrix(.522 0 0 .556 -22.166 -47.847)"/><path d="M197.495 91.66s2.72-.05 2.997-1.23c.276-1.18-.185-2.703-.185-2.703s1.29 1.524.922 2.704c-.37 1.18-.73 1.486-1.66 1.722-.63.16-1.567-.098-2.075-.492z" fill="#a3afb8" fill-rule="evenodd"/><path d="M430.628 247.41c0 3.607-2.88 6.533-6.44 6.54-3.558.007-6.45-2.907-6.465-6.515-.014-3.607 2.856-6.545 6.415-6.566 3.558-.022 6.462 2.88 6.49 6.49" fill="#eee" stroke="#1e1e1e" stroke-linejoin="round" transform="matrix(.522 0 0 .556 -20.756 -35.94)"/><path d="M198.905 103.567s2.72-.05 2.997-1.23c.276-1.18-.185-2.703-.185-2.703s1.29 1.524.922 2.704c-.37 1.18-.73 1.485-1.66 1.72-.63.16-1.567-.097-2.075-.49z" fill="#a3afb8" fill-rule="evenodd"/><path d="M430.628 247.41c0 3.607-2.88 6.533-6.44 6.54-3.558.007-6.45-2.907-6.465-6.515-.014-3.607 2.856-6.545 6.415-6.566 3.558-.022 6.462 2.88 6.49 6.49" fill="#eee" stroke="#1e1e1e" stroke-linejoin="round" transform="matrix(.522 0 0 .556 -15.586 -25.16)"/><path d="M204.075 114.347s2.72-.05 2.997-1.23c.276-1.18-.185-2.703-.185-2.703s1.29 1.524.922 2.704c-.37 1.18-.73 1.485-1.66 1.72-.63.16-1.567-.097-2.075-.49z" fill="#a3afb8" fill-rule="evenodd"/><path d="M430.628 247.41c0 3.607-2.88 6.533-6.44 6.54-3.558.007-6.45-2.907-6.465-6.515-.014-3.607 2.856-6.545 6.415-6.566 3.558-.022 6.462 2.88 6.49 6.49" fill="#eee" stroke="#1e1e1e" stroke-linejoin="round" transform="matrix(.316 -.09 .135 .537 45.39 32)"/><path d="M212.318 128.724s1.636-.52 1.517-1.707c-.118-1.187-.767-2.58-.767-2.58s1.15 1.25 1.214 2.453c.063 1.204-.082 1.56-.587 1.95-.343.263-.974.176-1.377-.116z" fill="#a3afb8" fill-rule="evenodd"/><path d="M430.628 247.41c0 3.607-2.88 6.533-6.44 6.54-3.558.007-6.45-2.907-6.465-6.515-.014-3.607 2.856-6.545 6.415-6.566 3.558-.022 6.462 2.88 6.49 6.49" fill="#eee" stroke="#1e1e1e" stroke-linejoin="round" transform="matrix(.318 .084 -.125 .54 195.933 -42.884)"/><path d="M298.342 127.777s1.667.388 2.1-.713c.435-1.102.496-2.656.496-2.656s.444 1.687-.046 2.774-.778 1.325-1.397 1.405c-.42.054-.932-.347-1.153-.81z" fill="#a3afb8" fill-rule="evenodd"/><path d="M252.722 57.4l.243 6.078s-6.757.633-7.033 1.293c-1.313 3.14 1.576 7.374 1.576 7.374s2.272-1.81 8.003-1.81c5.458 0 8.247 1.422 8.247 1.422s1.455-2.458 1.455-4.268c0-1.81-.606-3.622-.606-3.622s-2.79-.388-3.638-.388h-2.425l-.243-6.208-5.578.13z" fill="#b3a192" fill-rule="evenodd" stroke="#000" stroke-width="1.208"/><path d="M262.36 66.83c0 .682-.54 1.235-1.208 1.236-.667.002-1.21-.55-1.21-1.23a1.223 1.223 0 0 1 1.2-1.242c.667-.004 1.212.545 1.217 1.226m2.784.672c0 .71-.563 1.29-1.26 1.29-.695.002-1.26-.573-1.264-1.284-.003-.712.56-1.29 1.255-1.296.695-.004 1.263.57 1.27 1.28m-5.575-.7c0 .683-.54 1.236-1.207 1.237-.666 0-1.21-.55-1.21-1.23a1.223 1.223 0 0 1 1.2-1.243c.667-.004 1.212.544 1.217 1.226m-5.59.077c0 .71-.56 1.285-1.255 1.286-.694.002-1.258-.57-1.26-1.28-.004-.71.556-1.288 1.25-1.292.694-.005 1.26.566 1.266 1.276m-3.102.23c0 .71-.56 1.286-1.255 1.287-.694.002-1.26-.572-1.26-1.28-.004-.71.555-1.288 1.25-1.293.693-.004 1.26.567 1.265 1.276m5.695-3.71c0 .597-.474 1.083-1.06 1.084a1.074 1.074 0 0 1-1.063-1.08 1.074 1.074 0 0 1 1.055-1.09 1.073 1.073 0 0 1 1.068 1.076m0-5.035c0 .598-.474 1.084-1.06 1.085a1.074 1.074 0 0 1-1.063-1.08 1.074 1.074 0 0 1 1.055-1.09 1.073 1.073 0 0 1 1.068 1.076m0 2.724c0 .6-.474 1.085-1.06 1.086a1.074 1.074 0 0 1-1.063-1.08 1.074 1.074 0 0 1 1.055-1.09 1.073 1.073 0 0 1 1.068 1.076m-8.84 6.96c0 .684-.54 1.24-1.21 1.24-.67.003-1.215-.55-1.218-1.235-.003-.685.538-1.242 1.207-1.246.67-.004 1.217.547 1.222 1.23" fill="#f0ddcb" stroke="#121116" stroke-width=".616" stroke-linejoin="round"/><path d="M256.845 66.518c0 .75-.595 1.356-1.33 1.358a1.346 1.346 0 0 1-1.337-1.353 1.346 1.346 0 0 1 1.325-1.363 1.346 1.346 0 0 1 1.342 1.347" fill="#916c68" stroke="#4d3126" stroke-width=".616" stroke-linejoin="round"/><path d="M430.628 247.41c0 3.607-2.88 6.533-6.44 6.54-3.558.007-6.45-2.907-6.465-6.515-.014-3.607 2.856-6.545 6.415-6.566 3.558-.022 6.462 2.88 6.49 6.49" transform="matrix(.386 0 0 .412 91.842 -53.386)" fill="#eee" stroke="#1e1e1e" stroke-width="3.031" stroke-linejoin="round"/><path d="M254.412 49.862s2.013-.036 2.218-.91c.204-.873-.137-2-.137-2s.955 1.127.683 2c-.273.874-.54 1.1-1.23 1.274-.465.12-1.16-.073-1.534-.364z" fill="#a3afb8" fill-rule="evenodd"/><path d="M215.967 138.81s2.222 2.213 2.815 4.19c.592 1.974 1.48 7.268 1.48 7.268s23.26-6.874 34.667-6.32c11.406.552 37.7 6.715 37.7 6.715s.445-3.003.964-6.163c.518-3.16 2.666-6.637 2.666-6.637s-25.11-8.375-40.96-7.585c-15.852.79-23.778 2.607-27.333 3.793-3.556 1.186-12.222 4.82-12 4.74z" fill="#fc0" fill-rule="evenodd" stroke="#000" stroke-width=".539"/><path d="M250.66 38.45h10.005s-2.47 1.823-2.97 3.558c-.433 1.493-.304 3.945-.304 3.945s2.73 0 3.94-1.1c1.214-1.1 3.76-3.04 3.76-3.04v13.58s-2.455-2.53-3.94-3.36c-1.785-1-3.577-1.36-3.577-1.36s0 2.2.848 3.493c.85 1.293 4.245 6.208 4.245 6.208l-14.308.582s3.394-3.817 4.79-6.596c.91-1.81.545-3.687.545-3.687s-2.425 0-3.637.906c-1.213.904-3.335 3.62-3.335 3.62V42.137s.91 2.522 2.91 3.492c2 .97 3.88.452 3.88.452s.39-2.6-.424-4.204c-.838-1.654-2.607-3.492-2.425-3.427z" fill="#fc0" fill-rule="evenodd" stroke="#000" stroke-width="1.208"/><path d="M249.877 81.545s-7.116-.09-13.204-3.933c-6.088-3.84-12.228-7.864-21.264-5.578-1.85.468-8.66 3.658-11.66 13.992-2.107 7.252.342 16.005 2.485 19.938 2.144 3.933 5.6 7.92 5.6 7.92l3.676-2.657s-9.36-8.464-8.246-19.44c1.115-10.974 6.26-13.534 6.26-13.534s6.344-5.305 14.832-.275c8.49 5.03 16.805 7.317 16.805 7.317s7.804 2.012 8.49 1.92c.686-.09-3.944-5.76-3.773-5.67z" fill="#fc0" fill-rule="evenodd" stroke="#121116" stroke-width="1.208"/><path d="M210.515 122.71l-3.78-7.93 11.343-4.728s-2.738 3.895-3.39 6.676c-.796 3.398-.522 6.26-.522 6.26s1.043-.836 2.347-3.06c.99-1.69 2.608-7.79 2.608-7.79l5.086 17.386c.04.046-2.614-2.79-4.48-3.125-2.103-.38-4.647.342-4.647.342l-3 .974-1.565-5.007z" fill="#fc0" fill-rule="evenodd" stroke="#000" stroke-width="1.239"/><path d="M262.703 81.402s7.117-.09 13.204-3.933c6.088-3.84 12.228-7.865 21.264-5.58 1.85.47 8.66 3.66 11.66 13.993 2.107 7.252-.34 16.005-2.485 19.938-2.143 3.934-3.6 6.247-3.6 6.247l-4.42-1.692s8.106-7.755 6.99-18.73c-1.113-10.975-6.258-13.535-6.258-13.535s-6.345-5.305-14.833-.275c-8.488 5.03-16.805 7.317-16.805 7.317s-7.804 2.012-8.49 1.92c-.685-.09 3.945-5.76 3.773-5.67z" fill="#fc0" fill-rule="evenodd" stroke="#121116" stroke-width="1.208"/><path fill="#fc0" stroke="#121116" stroke-width="1.208" stroke-linejoin="round" d="M259.028 73.89h2.97v29.554h-2.97zm-10.004-.13h3.516v29.555h-3.516zM265.212 66.906c0 5.243-4.33 9.496-9.68 9.506-5.35.01-9.7-4.225-9.72-9.468-.022-5.243 4.292-9.513 9.642-9.544 5.35-.03 9.715 4.188 9.758 9.43"/><path d="M246.907 103.197l16.68-.147s-1.955 1.245-3.637 4.43c-1.682 3.186-1.442 5.2-1.442 5.2s2.54-.037 4.325-1.428c1.785-1.392 3.776-3.99 3.776-3.99l-.07 16.4s-1.2-2.086-3.192-3.33c-1.99-1.245-4.805-1.245-4.805-1.245h-5.698s-2.605.164-3.776.988c-1.65 1.163-3.708 3.405-3.708 3.405l-.274-15.487s.823 2.71 3.5 3.808c2.678 1.1 4.188.953 4.188.953s0-3.478-1.373-5.272-4.496-4.21-4.496-4.283z" fill="#fc0" fill-rule="evenodd" stroke="#000" stroke-width="1.023"/><path d="M256.2 116.076s2.442 6.075 5.28 8.756c1.652 1.56 6.62 2.736 8.864 2.124 5.047-1.374 8.515-5.68 8.515-5.68s-.18 4.717 2.978 7.317c3.16 2.6 5.687 3.274 8.304 2.504 2.618-.77 10.02-6.644 10.02-6.644l1.535 1.444s-4.245 4.398-8.707 6.732c-2.297 1.2-9.27.533-11.527-1.393-2.257-1.926-3.597-6.592-3.597-6.592s-1.39 3-4.368 4.06c-2.98 1.058-7.073 1.012-10.874-.172-2.558-.798-5.88-4.562-6.513-5.813-.63-1.252-.45-1.926-.45-1.926s-1.875 5.73-5.777 7.295c-3.686 1.475-7.887 1.487-11.457.392-3.608-1.107-3.89-3.26-3.89-3.26s-.27 6.067-8.123 7.8c-7.854 1.734-14.082-4.43-14.082-4.43l1.084-1.732s4.423 5.296 11.193 4.814c6.77-.48 9.027-9.725 9.027-9.725s2.98 4.814 10.923 4.91c7.943.096 10.2-10.977 10.2-10.977l1.444.193z" fill="#f6ca1f" fill-rule="evenodd" stroke="#000" stroke-width=".97"/><g fill="#fc0" stroke="#000" stroke-width="2.2"><path d="M236.628 119.608s.06-2.95.653-3.835c.844-1.257 1.99-1.308 2.575-1.133.722.215 1.47.915 1.348 2.963-.122 2.048-.653 3.05-.08 3.835.57.785.652 1.308 1.755 1.133 1.104-.173 1.594-.565 1.35-1.655-.246-1.09-.573.088-.777-.827-.204-.916 1.068-4.87.86-7.322-.206-2.397-1.064-4.314-2.78-4.794-1.612-.45-2.983-.436-4.494.74-1.45 1.13-3.31 4.838-3.31 4.838l-.04 7.932 3.023-.174-.082-1.7zM230.995 121.743s-1.156-2.68-2.032-3.24c-1.242-.794-2.313-.353-2.784.056-.582.503-1.008 1.464-.13 3.29.877 1.826 1.74 2.52 1.507 3.482-.23.963-.11 1.477-1.187 1.786s-1.673.158-1.855-.945c-.183-1.104.557-.163.402-1.09-.155-.926-2.798-4.01-3.523-6.35-.708-2.285-.638-4.408.757-5.577 1.312-1.1 2.574-1.668 4.4-1.23 1.75.417 4.842 3.028 4.842 3.028l3.002 7.257-2.838 1.126-.56-1.593zM230.418 98.254s-2.942 5.273-2.288 9.326c.653 4.053 4.575 12.77 4.575 12.77l.04 1.176 2.117-.245-.482-1.192s1.057-10.435.41-13.728c-.483-2.45-4.332-8.062-4.372-8.106zm100.942 223.796s1.47 1.877 3.228 2.79c1.92.997 2.71 1.004 3.472.392.56-.45.368-2.353-.285-2.876-.654-.523-1.395-.258-1.512.26-.196.877-.464.82-1.062.48-.872-.493-2.9-1.83-2.9-1.83l-.94.784zm2.033 19.68s-.62 2.355-1.87 3.957c-1.368 1.75-2.085 2.102-3.016 1.878-.683-.164-1.24-1.985-.846-2.748.396-.763 1.175-.846 1.48-.423.517.712.738.542 1.153-.028.606-.832 1.942-2.94 1.942-2.94l1.158.305z" fill-rule="evenodd"/><path d="M238.44 120.93c.11.69-1.836 1.61-4.347 2.06-2.51.452-4.64.262-4.758-.424-.117-.686 1.82-1.608 4.33-2.06 2.51-.455 4.646-.27 4.775.415"/></g><g fill="#fc0" stroke="#000" stroke-width="2.2"><path d="M281.634 120.795s1.026-2.74 1.873-3.347c1.203-.862 2.293-.48 2.783-.098.605.47 1.077 1.407.29 3.28-.79 1.87-1.616 2.612-1.338 3.56.277.95.182 1.47 1.272 1.72 1.09.248 1.68.064 1.807-1.048.13-1.112-.563-.132-.454-1.066.11-.933 2.6-4.16 3.21-6.535.598-2.32.425-4.437-1.025-5.528-1.36-1.026-2.65-1.524-4.45-.988-1.73.515-4.69 3.293-4.69 3.293l-2.647 7.412 2.89.967.48-1.622zM275.658 120.688s-.202-2.942-.838-3.794c-.903-1.21-2.05-1.197-2.626-.99-.71.255-1.424.995-1.203 3.034.223 2.038.8 3.01.268 3.825-.533.815-.59 1.34-1.7 1.228s-1.618-.477-1.426-1.578c.192-1.102.576.055.735-.87.16-.925-1.3-4.803-1.21-7.265.087-2.405.85-4.367 2.54-4.94 1.59-.54 2.96-.6 4.526.492 1.502 1.046 3.54 4.648 3.54 4.648l.424 7.92-3.028-.01-.002-1.7zM282.84 98.473s-4.49 3.838-5.21 7.878c-.72 4.04.087 13.672.087 13.672l-.348 1.117 2.06.562-.058-1.3s4.42-9.375 4.896-12.702c.353-2.473-1.405-9.17-1.43-9.226zm40.284 223.802s.76 2.307 2.106 3.82c1.47 1.652 2.207 1.954 3.123 1.666.67-.21 1.118-2.065.678-2.8-.44-.734-1.22-.763-1.5-.32-.472.746-.704.592-1.153.05-.655-.788-2.115-2.798-2.115-2.798l-1.138.383zm10.274 18.577s-1.354 1.974-3.053 3.005c-1.856 1.128-2.643 1.19-3.442.63-.585-.408-.51-2.322.112-2.89.62-.566 1.377-.352 1.524.158.25.86.512.784 1.088.405.842-.552 2.785-2.026 2.785-2.026l.984.718z" fill-rule="evenodd"/><path d="M282.902 122.71c-.125.686-2.25.82-4.75.304-2.5-.517-4.43-1.492-4.315-2.178.115-.686 2.233-.825 4.733-.31 2.5.514 4.44 1.487 4.334 2.176"/></g><path d="M215.09 138.53s.487 2.18 1.655 1.037c1.167-1.142 17.227-7.89 39.904-7.89 22.676 0 37.567 6.644 38.443 7.06.876.415 1.266.934 2.044 0 .78-.935-.778-2.388-.778-2.388s-15.768-7.164-40.392-7.06c-24.624.103-40.586 7.578-40.586 7.578s-1.07.83-.292 1.66z" fill="#cca715" fill-rule="evenodd" stroke="#000" stroke-width=".539"/><path d="M243.846 148.59s.724-2.145 1.987-2.558c1.007-.33 2.598.728 2.598.728s-1.915-.188-2.515.175c-.54.33-.705 1.304-.705 1.304s.41-.778 1.88-.703c1.47.075 1.635.075 1.635.075s-2.492.2-3.068.966c-.576.765 2.35 1.116 2.35 1.116s-4.48.025-5.066-.263c-.587-.288-.963-1.266-1.963-.965-1 .3-2.022 1.254-2.022 1.254s1.14-2.045 1.858-2.057c.717-.013 1.14-.05 1.787.263s1.246.665 1.246.665zm-16.75 3.87s.34-2.25 1.51-2.905c.933-.523 2.68.202 2.68.202s-1.917.193-2.443.67c-.475.43-.467 1.42-.467 1.42s.27-.846 1.727-1.06c1.457-.218 1.62-.25 1.62-.25s-2.416.69-2.85 1.554c-.433.867 2.505.634 2.505.634s-4.398.908-5.025.74c-.628-.167-1.167-1.054-2.097-.56-.93.492-1.77 1.63-1.77 1.63s.766-2.233 1.47-2.387c.702-.154 1.11-.274 1.8-.094.69.18 1.34.408 1.34.408zm30.876-4.663s.84-2.097 2.123-2.43c1.024-.267 2.554.886 2.554.886s-1.904-.306-2.52.02c-.56.294-.777 1.258-.777 1.258s.453-.75 1.916-.584c1.462.166 1.626.176 1.626.176s-2.5.047-3.115.775c-.616.728 2.287 1.26 2.287 1.26s-4.473-.252-5.044-.577c-.57-.324-.894-1.324-1.908-1.085-1.014.24-2.086 1.127-2.086 1.127s1.25-1.97 1.965-1.938c.716.03 1.14.02 1.77.373.628.353 1.207.74 1.207.74zm14.144 1.707s1.062-1.978 2.374-2.15c1.045-.138 2.44 1.198 2.44 1.198s-1.857-.54-2.507-.294c-.587.223-.907 1.153-.907 1.153s.532-.688 1.967-.34c1.435.346 1.597.376 1.597.376s-2.487-.265-3.18.382c-.69.646 2.134 1.535 2.134 1.535s-4.415-.807-4.947-1.2c-.532-.393-.742-1.426-1.776-1.315-1.032.11-2.195.86-2.195.86s1.457-1.802 2.165-1.68c.71.12 1.13.16 1.717.59.586.43 1.12.886 1.12.886zm14.044 2.674s.99-1.506 2.055-1.542c.85-.03 1.88 1.154 1.88 1.154s-1.456-.58-1.995-.432c-.487.133-.808.855-.808.855s.475-.512 1.604-.12c1.13.39 1.257.427 1.257.427s-1.98-.407-2.58.058c-.6.465 1.608 1.4 1.608 1.4s-3.49-.993-3.892-1.35c-.4-.358-.5-1.204-1.336-1.196-.838.01-1.824.52-1.824.52s1.294-1.334 1.855-1.182c.56.152.898.22 1.34.61.44.39.837.798.837.798z" fill-rule="evenodd"/><path d="M241.022 138.37c.338 1.788-1.634 3.717-4.402 4.31-2.768.59-5.283-.38-5.617-2.17-.338-1.786 1.633-3.715 4.4-4.307 2.77-.59 5.285.38 5.62 2.167z" fill="#0f6545" stroke="#000" stroke-width=".719" stroke-linejoin="round"/><path d="M234.753 138.078c.08.434-.347.89-.956 1.02-.61.13-1.17-.115-1.25-.548-.082-.433.346-.89.955-1.02.61-.13 1.17.115 1.25.548z" fill="#cecfc1"/><path d="M280.14 140.533c-.51 1.74-3.108 2.42-5.802 1.518-2.693-.9-4.46-3.043-3.947-4.782.51-1.74 3.11-2.42 5.803-1.518 2.693.902 4.46 3.044 3.947 4.783z" fill="#0f6545" stroke="#000" stroke-width=".719" stroke-linejoin="round"/><path d="M274.776 137.06c-.124.42-.705.602-1.298.403-.593-.198-.973-.7-.85-1.122.125-.42.706-.602 1.3-.403.592.198.972.7.848 1.123z" fill="#cecfc1"/><path fill="#1f2d86" stroke="#000" stroke-width="1.023" stroke-linejoin="round" d="M250.603 134.34h10.14v5.452h-10.14z"/><path d="M254.877 135.502c0 .246-.432.446-.964.446s-.963-.2-.963-.446c0-.247.43-.447.963-.447s.964.2.964.447z" fill="#707c8b"/><path d="M221.944 139.792l1.676 5.274-3.1 1.787s-1.425 1.073-2.85.27c-1.424-.806-2.264-3.215-1.508-4.203 1.5-1.958 5.782-3.217 5.782-3.128z" fill="#9f1209" fill-rule="evenodd" stroke="#000" stroke-width=".539"/><path d="M219.347 143.546c0 .89-.638 1.61-1.425 1.61s-1.425-.72-1.425-1.61c0-.89.638-1.61 1.425-1.61s1.425.72 1.425 1.61z" fill="#8f322f"/><path d="M218 142.916c.043.284-.02.565-.164.736-.145.17-.35.207-.538.094-.19-.114-.33-.358-.374-.642-.044-.284.018-.565.163-.736.144-.17.35-.207.538-.094.188.113.33.358.374.642z" fill="#e2a494"/><path d="M289.88 140.478l-1.665 4.697 3.947 2.206s1.745.83 2.846-.2c.94-.88 1.155-2.92.403-3.952-.71-.976-5.584-2.778-5.53-2.75z" fill="#9f1209" fill-rule="evenodd" stroke="#000" stroke-width=".539"/><path d="M294.605 144.245c0 .577-.565 1.045-1.262 1.045-.696 0-1.26-.468-1.26-1.045 0-.578.564-1.046 1.26-1.046.697 0 1.262.467 1.262 1.045z" fill="#aa675d"/><path d="M293.397 144.087c0 .277-.112.532-.295.67a.473.473 0 0 1-.59 0c-.184-.138-.297-.393-.296-.67 0-.276.112-.532.295-.67a.473.473 0 0 1 .592 0c.183.138.295.394.295.67z" fill="#e2a494"/><path d="M264.55 134.806a.72.72 0 0 1-.713.727.72.72 0 0 1-.714-.727.72.72 0 0 1 .714-.727.72.72 0 0 1 .713.726zm4.315.265a.72.72 0 0 1-.714.728.72.72 0 0 1-.712-.727.72.72 0 0 1 .713-.725.72.72 0 0 1 .715.726zm-2.187 1.79a.905.905 0 0 1-.897.913.905.905 0 0 1-.896-.914c0-.505.4-.914.897-.914s.9.41.898.913zm2.082 3.002a.72.72 0 0 1-.714.727.72.72 0 0 1-.713-.728.72.72 0 0 1 .713-.727.72.72 0 0 1 .714.727zm-4.164-.572a.72.72 0 0 1-.713.726.72.72 0 0 1-.714-.726.72.72 0 0 1 .713-.727.72.72 0 0 1 .713.727zM243.73 135.59a.745.745 0 0 1-.543.88.696.696 0 0 1-.85-.537.745.745 0 0 1 .543-.88.696.696 0 0 1 .85.537zm4.258-.78a.745.745 0 0 1-.54.88.696.696 0 0 1-.85-.537.745.745 0 0 1 .54-.88.696.696 0 0 1 .85.537zm-1.752 2.268a.937.937 0 0 1-.68 1.106.875.875 0 0 1-1.068-.675.937.937 0 0 1 .68-1.107.875.875 0 0 1 1.068.675zm2.664 2.424a.745.745 0 0 1-.542.88.696.696 0 0 1-.85-.536.745.745 0 0 1 .542-.88.696.696 0 0 1 .85.536zm-4.18.444a.745.745 0 0 1-.54.88.696.696 0 0 1-.85-.536.745.745 0 0 1 .542-.88.696.696 0 0 1 .85.536zM225.54 139.777a.76.76 0 0 1-.418.953.683.683 0 0 1-.912-.402.76.76 0 0 1 .42-.953.683.683 0 0 1 .91.402zm4.113-1.418a.76.76 0 0 1-.42.952.683.683 0 0 1-.91-.402.76.76 0 0 1 .418-.953.683.683 0 0 1 .913.402zm-1.432 2.51a.954.954 0 0 1-.525 1.198.86.86 0 0 1-1.146-.506.954.954 0 0 1 .525-1.198.86.86 0 0 1 1.146.506zm2.96 1.995a.76.76 0 0 1-.418.953.683.683 0 0 1-.912-.402.76.76 0 0 1 .42-.953.683.683 0 0 1 .91.402zm-4.075 1.074a.76.76 0 0 1-.42.952.683.683 0 0 1-.91-.402.76.76 0 0 1 .418-.953.683.683 0 0 1 .912.402zM283.283 137.667a.748.748 0 0 1-.92.566.804.804 0 0 1-.573-.956.748.748 0 0 1 .92-.566.804.804 0 0 1 .573.957zm4.452 1.458a.748.748 0 0 1-.922.565.804.804 0 0 1-.572-.956.748.748 0 0 1 .923-.565.804.804 0 0 1 .572.955zm-2.718 1.272a.94.94 0 0 1-1.158.71 1.01 1.01 0 0 1-.72-1.2.94.94 0 0 1 1.158-.71c.518.135.84.673.72 1.2zm1.457 3.713a.748.748 0 0 1-.922.565.804.804 0 0 1-.572-.956.748.748 0 0 1 .922-.567.804.804 0 0 1 .572.956zm-4.22-1.74a.748.748 0 0 1-.92.567.804.804 0 0 1-.574-.956.748.748 0 0 1 .922-.564.804.804 0 0 1 .572.955z" fill="#f5d8bc"/><path d="M291.973 94.86s-2.05 2.05-4.487 2.05c-2.436 0-3.846-1.093-4.615-1.64-.77-.547.257-2.188.257-2.188" stroke="#000" stroke-width="1.239" fill="none"/><path d="M248.896 98.962s-3.718-.683-5.257-1.23c-1.54-.547-1.154-1.64-2.95-1.505-1.794.137-3.59 1.505-3.205 3.42.385 1.914 1.667 2.187 2.95 1.777 1.28-.41.897-2.735-.77-2.598-1.667.136-.256 1.64-.256 1.64" stroke="#000" stroke-width="1.131" fill="none"/><path d="M223.255 95.954s1.025 1.64 3.718 1.367c2.692-.272 3.718-1.776 3.846-2.46.127-.684 0-1.915-.514-2.462-.513-.547-2.308-.82-2.308-.82" stroke="#000" stroke-width="1.077" fill="none"/><g stroke="#161111"><path d="M311.993 169c1.555-1.53 4.054-3.222 5.442-6.904 1.3-3.446 1.93-9.77 3.116-12.976 1.55-5.495 4.672-10.853.957-10.486-3.538.35-4.682 3.767-6.022 6.268-.62.932-2.052 2.927-2.322 4.06-.055-1.902-1.016-7.453-1.213-13.035-.183-5.213-.035-10.64-.174-12.664-.17-2.673-.153-5.185-.78-7.16-.293-.92-1.646-1.807-2.34-1.768-1.425.01-2.288 1.25-2.48 2.416-.14.92-.1.585-.194 1.775-.12 1.506.028 3.446-.08 5.15-.117 1.837.123 3.878.023 5.587-.202 3.446-.45 6.604-.553 7.25 0-1.278-.584-7.315-.78-13.045a419.48 419.48 0 0 1-.163-6.313c-.03-1.615.04-3.33-.135-4.586-.295-2.14-.987-3.114-2.54-3.114-1.046 0-2.545.762-3.024 3.142-.258 1.282-.27 2.854-.226 4.568.04 1.594.125 3.31.1 5.036-.098 6.528-.214 13.446-.48 15.484-.043-.67-.696-4.085-.872-8.658a804.67 804.67 0 0 0-.264-6.052c-.116-2.485-.106-4.337-.168-5.995-.018-1.002-.416-3.883-2.343-3.71-1.01-.124-2.083.58-2.514 3.308-.24 1.518-.234 4.133-.274 6.147-.077 3.825-.242 7.174-.06 10.58.116 2.124.098 3.762.122 4.81.026.277-.542-1.786-.83-4.59-.28-2.744-.528-6.235-.506-5.43 0-1.417-.068-3.525-.196-5.265-.1-1.36-.037-2.86-1.512-2.74-1.496.123-2.414.628-2.724 3.19-.2 1.66-.255 5.246-.3 6.547.162 3.307-.722 11.02-1.122 13.21-.11 1.555-.723 3.576-.982 5.742-.558 4.66-.027 10.12.59 12.912 1.227 4.41 4.43 6.39 4.268 9.382-.16 2.992 0 8.27 0 10.63 0 2.364 2.052 2.49 6.3 1.576 6.947-1.496 10.743 1.496 16.48-.71-.73-6.535.69-10.465.652-12.827zm-4.053-15.444c1.437-3.966 3.252-5.524 5.003-6.39" fill="#c00" transform="matrix(1.6 0 0 1.707 -224 0)"/><path d="M243.432 255.093c3.46-1.458 7.056-2.514 10.573-3.796 4.304-1.297 8.47-3.152 12.912-3.886 2.14-.463 4.29-.914 6.473-1.07m-36.13 44.87c.482-.342.95.2 1.415.3.65.216 1.335.43 2.02.305 1.353-.024 2.705-.026 4.055.005 1.604-.063 2.932-.124 4.22-1.092m10.043.655c.464.406.992.726 1.55.96.858.406 1.797.457 7.367-.02 3.456.234 6.513-2.947 7.376-3.807" fill="none"/></g></svg>