<svg xmlns="http://www.w3.org/2000/svg" height="512" width="512" viewBox="0 0 512 512"><path fill="#00ab39" d="M0 256h512v256H0z"/><path fill="#fff" d="M0 0h512v256H0z"/><g stroke="#000" stroke-width="1.171"><path d="M339.46 113.214c-.007.013-.012.028-.02.04.022-.01.04-.028.062-.04h-.04zm-.02.04c-33.988 18.795-64.41 38.35-94.317 63.272-14.352 12.537-10.3 22.53-10.856 33.79.462 7.56-1.634 14.59-6.283 18.827-10.637 2.15-21.284 4.315-31.92 6.466-1.02-2.946-2.03-5.885-3.05-8.826.973-4.515 4.706-6.735 12.565-3.904.617-5.804-4.053-8.167-9.517-10.185-1.877-1.46-4.208-2.583-3.904-7.604-.92-11.362 17.315.815 17.484.815.17 0-.607-11.468-8.986-13.764-4.57-1.616-6.503-6.435-4.76-10.002 3.656-7.292 10.537.57 15.8.854-.2-4.76-1.554-8.152-5.653-11.994-2.207-1.358-7.627-2.38-7.767-4.656-.115-3.092 5.08-4.414 12.22-3.558-1.49-4.333-6.29-7.136-12.89-9.17l-3.905-6.79c-1.848-3.423-2.677-3.515 1.607-10.003 3.848-2.49 8.96-6.01 12.81-8.5l-4.25-.507c.565-4.64.63-6.2 1.707-13.907-4.13 5.642-9.288 4.633-13.928 6.953 0 0-13.228 2.35-17.486 7.97-.17 0-33.262-1.688-33.262-1.688-7.052.983-13.076 2.982-14.252 9.84-16.13 1.63-33.02.19-45.32 15.616 8.374-.396 15.704-2.39 25.11-1.18 0 0 8.016.152 9.678 8.64.17.34 2.726.347 2.726.347 1.02.792 2.03 1.587 3.05 2.38.395-1.076.783-2.16 1.18-3.234l2.723 1.87c.28-1.19.57-2.37.853-3.557.906.622 1.798 1.248 2.704 1.87.057-1.414.127-2.835.183-4.25 1.188.85 2.37 1.694 3.558 2.542v-5.59s13.137-.032 17.14 8.315c.17.168-36.867 6.806-72.645 3.74 3.452-1.698 6.898-3.406 10.35-5.104-13.045-2.652-25.31-5.05-36.82-14.09 4.343 16.355 26.792 35.565 31.39 35.48 0 .17-4.41-7.97-4.41-7.97 12.956.565 25.916 1.12 38.872 1.687 1.415 4.3.79 9.12 4.25 12.91 0 0-2.147 7.108 2.622 10.003.17.34 5.693-14.415 5.693-14.415s1.69 3.97 3.395 6.61c2.47-12.692 16.286-14.76 16.286-14.76s2.888 6.62 2.888 6.79c-4.317.625-9.688 9.425-6.79 14.252-2.896.056-8.037 8.58-6.446 13.237-2.434 2.42-8.496 5.65-6.954 15.796-4.77 1.023-7.596 9.753-6.12 19.01-7.383 6.873-5.57 19.49 1.018 24.6-2.735 2.434-4.42 4.305-4.412 7.3-2.6-.966-4.997-.16-6.12 1.545-3.187-3.267-7.763-6.127-11.02-3.07-.843-3.865-5.876-8.116-11.385-7.624.322-4.075-1.793-9.12-7.625-10.877 0 0-1.18-19.1-6.974-25.294-.567-3.465.333-5.82 5.104-8.66 4.764-2.542 5.777-4.513 5.43-11.712 1.877-4.812 3.304-9.717-2.543-13.052.176 5.723-1.58 8.48-3.903 11.02-2.776-.404-3.745 2.835-5.612 4.25-2.613-3.523 5.512-8.978-.508-16.814-.34-.34-4.203-10.23-13.744-10.003 4.535 2.655 6.454 7.124 6.445 11.71-3.01 8.488-4.538 15.047-1.526 24.784-3.964-5.94-6.212-17.23-9.495-19.194-2.878-.56-4.283-7.365-15.453-5.428 4.82 1.296 6.348 4.975 7.645 8.315-2.955 1.525-1.488 5.544.67 8.317-.41 6.516 3.494 10.322 9.332 12.748-.962 8.882-1.926 17.75-2.887 26.633-2.32-.294-5.888 8.736-7.3 9.008-2.27 1.413-6.232 5.212-1.686 6.283-1.35 4.875-2.605 7.814-9.86 8.825 0 0 7.667 4.548 14.026-3.233 6.814-.172 4.573-8.298 7.868-11.875 0-.17 1.87-1.344 4.594-8.498 1.192 6.387 7.748 25.95 22.568 35.66 12.92 13.83 23.536 26.89 23.422 45.32 5.042-4.69 8.053-12.118 10.37-19.194 7.01-2.44 17.04-3.37 25.982-2.968-1.534 3.227-3.25 6.324-1.037 8.417-6.24 2.143-7.608 6.673-5.102 11.202-6.58 4.468-7.01 7.34-7.116 14.76-12.17 15.606-19.68 15.087-31.737 11.04-3.958-2.324-10.086-5.67-12.91-3.903-5.207-3.47-12.694-3.986-13.926 3.903 3.91-3.238 6.24-2.614 9.353.51-.625 1.584-1.15 3.162 1.18 4.065-1.02 1.132-2.03 2.265-3.05 3.395-5.604-.86-13.138-.813-15.106 7.3 2.878-2.385 9.264-2.945 14.414-.67.964.338 1.927.675 2.89 1.015.112 1.3.232 2.602.344 3.903 0 0-7.633-1.178-9.677 11.203 7.156-7.613 12.218-5.61 12.218-5.61 2.758 4.036 12.91 3.428 20.21-3.213 10.255-5.733 13.244 2.505 19.864-2.888 5.487-4.093 11.98-1.37 16.447 3.396 5.15 1.932 10.54 3.523 14.78 0 0 0 5.18-3.305 10.35 2.034.056-6.02-4.21-9.218-10.004-9.332l-1.708-1.708c-5.432-1.132-11.535-.673-16.285-3.395 2.24-8.502 5.502-16.204 11.874-22.752 7.864-8.43 13.654-12.264 23.584-25.17-.382 7.294 5.208 15.404 8.154 22.812 0 0 5.93-9.47 6.79-17.16.17 0 7.432-3.78 10.532-6.994 6.542 4.058 17.206-3.25 24.093-9.29 4.243 1.606 7.467 1.49 12.4 0-3.96 8.06 2.29 15.537 12.22 18.663.918 7.116 8.106 8.606 19.01 8.66.46 4.188 6.953 4.758 6.953 4.758-4.104 1.913-6.243 3.83-6.1 8.153-4.205.03-7.39 1.088-8.498 5.938-5.775.1-11.66.542-16.63 3.395-5.32-.825-11.79-3.03-15.96-7.3-2.152-1.81-2.69-4.42-6.446-5.427-2.382-2.815-5.23-2.186-6.12.508-2.462-1.922-11.693-2.815-13.237 5.937 4.31-3.153 8.174-4.355 10.877-.507-1.472 2.67 3.59 4.2 7.97 5.265 3.108.193 8.62 3.024 10.35 7.808-4.008 1.215-10.082.815-14.09-2.216-3.563-2.983-8.375-2.627-11.02-.672-3.67-2.34-12.408 2.077-12.747 9.15 3.68-3.374 7.03-5.005 10.368-2.868-1.66.394-1.03.556-.853 1.525 2.83 1.64 5.65 3.28 8.48 4.92-4.16 1.097-8.072 2.757-6.263 10.51 0 0 3.388-6.698 11.02-4.228.17-.17 1.05 2.393 3.232.672 3.302-3.76 10.853-5.443 17.485-6.1 5.322-.638 10.635-2.205 15.27.832 4.124-2.123 8.717-3.55 13.417-.163 5.545 1.753 9.594 8.217 16.63 5.265 3.5-2.422 7.802-2.545 12.22 2.378.054-6.208-4.598-8.29-11.202-9.677-1.528-.907-3.047-1.82-4.574-2.724-4.243-.624-8.504.128-12.747-1.87 22.207-5.742 37.775-18.127 48.734-35.805 3.508 1.245 7.003 2.476 10.51 3.72 2.49.16 2.68 1.025 7.808 2.563.193-7.555-3.05-15.34-16.63-16.122l-17.83-6.79c-3.786-3.992-5.497-12.46-.672-17.485 4.722-4.205 5.546-3.702 8.66-8.825 3.79-.344 7.36 3.56 10.858 3.56 1.66 4.935 11.24 9.298 17.323 7.806 3.812 3.375 11.065 5.25 19.01 2.54 4.51 3.948 10.383 5.596 17.302 2.542 1.837 1.838 5.714 3.298 10.186 2.38.34 0 2.26 4.906 7.137 6.627-2.126 2.067-.82 11.038 1.362 14.252-1.49 3.45-1.958 7.13-.69 10.695-4.92 3.162-5.92 5.514-3.723 10.857-6.44 10.35-14.145 11.532-21.388 8.336-2.605-1.64-5.205-3.3-7.81-4.94-2.77-2.717-5.542-5.417-8.314-8.133-1.412-1.326-4.333-1.742-4.94 1.18 0 0-10.67-2.38-11.53 6.627 4.424-4.307 10.696-.515 10.696-.346 0 .17-1.494 1.188-.345 2.91.258-.215 7.79 2.81 14.496 5.693 3.643 1.38 4.444 1.812 6.038 2.663-1.746-.8-3.81-1.706-6.037-2.663-4.083-1.548-8.06-2.784-9.23-2.48-3.8-.356-7.83-.827-9.678 2.032-4.085 1.728-10.464 3.112-10.187 10.695 2.757-4.517 6.54-4.326 11.365-3.905-.114.34-.212.677-.326 1.016 5.237 2.388 4.243-.647 9.128-1.095 4.084-.375 9.872 1.087 12.93 2.114-3.846 1.13-9.078.656-11.547 3.395-.452.905-2.037.535-1.34 2.704 0 0-7.505-.195-9.516 10.184 7.63-4.885 13.412-4.737 13.58-4.737.17 0 2.38.508 2.38.508s9.163-6.12 9.332-6.12c.17 0 8.873-3.853 12.89.51 3.506 1.722 7.256 1.832 10.877-.346 7.136-3.105 13.814-3.32 20.374 1.036l5.936 3.557c.848-.565 1.693-1.142 2.542-1.708 0 0 6.72-1.898 11.65 4.087-2.038-10.353-9.434-10.693-9.434-10.693-.567-.51-1.143-1.017-1.708-1.526-3.508-1.358-7.003-2.73-10.51-4.087-1.533-3.79-5.38-6.808-1.547-11.365 3.917-19.47 8.6-34.092 1.017-53.817 7.072 3.055 12.364 12.502 21.226 9.17 0-7.922-29.162-22.963-51.438-35.052 36.494-1.866 80.355-28.806 63.494-63.046 2.66-8.26 5.31-16.523 7.97-24.784 3.754 7.562 11.355 13.326 18.176 15.777-5.622-10.732-8.848-43.545-5.61-66.2-14.707 18.167-30.946 34.29-48.207 50.667 8.49 1.984 15.91.588 24.114-.427-2.32 4.753-4.573 9.52-6.892 14.273-22.428-13.135-48.76-3.278-48.958 14.252.767 20.442 26.042 23.347 40.622 16.224-2.89 18.637-45.725 11.77-45.725 11.77-15.22-5.246-29.675-4.347-45.663-4.23 3.32-10.22 21.768-19.29 35.822-15.287-19.677-22.06 2.78-49.45 29.866-57.884-29.523-9.737-4.103-32.243 17.993-48.37 0 0-63.54 26.74-69.33 26.656-18.075-1.358-13.148-22.75-6.264-34.26zm-199.43 25.68c1.48.007 3.218.15 4.595.487 2.865.7 6.352 1.1 6.303 1.954-1.326 2.22-4.585 4.898-7.787 4.737-3.2-.16-5.05-2.08-6.117-6.89.327-.18 1.53-.294 3.01-.286zm267.46 75.388c4.165-.058 9.156 1.705 14.028 6.87-2.343 6.75-22.67 10.214-24.032.225-.41-3.02 3.914-7.013 10.003-7.095z" fill="#d21034"/><path d="M161 197.908l3.08 4.483m-.14.143s0 6.024 1.262 6.165m-2.802 3.222c.14.14 3.223 5.324 3.223 5.324m-8.828 1.4c.14 0 3.924 4.344 3.924 4.344m3.284-3.37c0 .14 3.58 6.874 3.86 6.874m-8.547-2.243s1.26 8.125 2.38 7.845m-7.677 7.045l3.616 5.426m3.083-11.21s1.96 7.707 3.5 7.006m1.54-11.632c.14.14 3.645 5.188 4.625 4.487m-.84 1.96l3.362 6.727m-8.967-1.542c.14.28 2.803 7.988 2.803 7.988m-9.247-3.924s2.522 8.547 4.764 7.145m-5.745 4.207s.14 4.483 2.382 4.763m1.542-7.006c0 .14 2.24 3.223 2.24 3.223m4.162-8.555l1.862 2.95m4.063-8.407l2.803 3.502m-15.804-43.68c.14 3.784 6.14-1.33 8.522-4.555m-11.072 17.69s6.585-4.623 11.63-11.63m-13.732 22.7c4.624-1.26 13.13-11.55 14.812-17.015M154.133 237c1.262.56 17.154-10.886 17.575-19.293m-17.995 28.12c0-.14 14.528-3.704 20.553-19.677m-21.333 31.767s23.198-13.91 24.46-24.14m156.645 47.5s-1.496 12.004-13.546 13.826m17.33 7.61c.14-.14 11.488-12.61 8.546-16.393m17.795 4.343s-.14 8.688-7.286 14.713m21.437-12.19s.28 10.508-4.203 14.712m17.235-8.407s-5.027 9.843-6.848 10.824m6.63 6.62s6.615 1.647 8.716-2.697m-7 16.97s6.114 1.104 8.916-4.78m-9.574 15.8s4.95 4.158 8.312-1.306m-79.34-79.66s-.56 21.3 29.423 25.64c33.49 9.25 49.32 4.345 51.283 41.896-1.26 14.292-3.037 30.434-13.405 24.268m-99.1-72.184s4.765 8.545 10.51 7.985c7.565-2.242 10.367 2.382 10.367 2.382m-41.333-1.822s12.612 6.165 23.4-3.783m-21.998-5.044c1.12 14.712-16.954 23.12-24.1 21.718m24.957 34.658c.14 0 9.79-5.794 7.83-9.858m-27.042 1.262c.28-.28 16.253-1.822 19.196-7.567m-26.622-15.972c0-.14 22.67.064 24.212 4.266m5.914-17.716s-22.14 37.83 18.775 37.83m-42.174-38.39s-4.765 14.152-11.49 18.915m-12.05-23.82s8.22 15.908-.046 23.754m-21.39-19.27c.14.28 2.662 22.56-2.943 28.864m-7.705-28.162s.84 14.15-3.36 19.196c-4.206 5.044.983 15.52.983 15.52m-51.072 6.804s3.01 5.28 7.213 3.456m-2.103-14.99s6.726 2.94 8.968 1.82m-1.68-25.64s-9.95 2.8-6.166 14.57c5.743 4.625 11.35 3.924 11.35 3.924m-24.8 31.526c-.14 0 1.12 9.248 7.564 2.242 4.484-9.387 18.636-35.87 21.86-44.977m6.583-4.344s-6.865-5.325-6.584 2.1c-.142 4.625 2.1 5.746 2.1 5.746.28 3.364 3.224 8.127 5.605 3.784.982-4.204-.7-6.025-.7-6.025m3.924-7.567c-6.165-.42-9.528 13.172 2.382 4.626m4.063-9.25s-1.54 2.103-3.924-.14c-1.26-2.24-5.744 10.09 2.102 10.51 1.4-3.645 5.745-4.625 5.745-4.625m3.644-11.63s-3.504 1.68-4.765 1.4c-4.204.982-3.364 10.79 1.96 10.23 1.82-2.102 3.783-5.044 3.783-5.044m-34.02-19.407c-.14 0-13.904 21.644 7.674 27.39m167.016-59.97s-8.407 7.146-.56 18.635c-26.063-.42-40.073 11.63-41.194 19.756-33.208-2.382-27.183 7.427-37.973 10.65-14.43-12.05-35.59-5.325-34.188 6.724-9.67-13.59-24.52-7.005-26.34-3.643-1.823 3.363-1.123-16.673-1.123-16.673s-9.668 4.345-16.394 12.33c.14-5.323 0-14.01 0-16.813-8.08 1.634-15.88 1.726-24.24 1.54m-21.857-6.166s12.048 6.726 26.9-2.38m-27.882-21.86s9.388 8.407 27.043 5.745m-21.157-25.08s2.1 6.864 22.28 7.285m-15.447-23.165s7.6 9.292 17.827 7.89m-11.35-21.156s2.943 5.044 14.153 5.884m-7.568-20.596s5.886 6.445 12.612 5.324m22.4-57.707s2.607-2.608 6.95-1.305m-8.83 15.056s-8.11-.29-7.53-3.473c.58-3.62 8.543-6.225 8.543-6.225s10.567-6.804 12.16-9.12m-47.775 37.06l10.28 19.69 4.92-7.383 2.608 5.065 4.198-7.383 7.24 4.633-2.75-8.976 6.08-.435s-1.594-4.343-7.095-5.212c1.448-1.158 6.515-4.488 6.515-4.488s-2.895-3.33-7.383-3.475c1.447-1.59 3.474-5.5 3.33-5.5-.145 0-4.49-1.013-4.49-1.013s10.28 3.33 18.243-1.303m-19.68-15.92c.143.146-.58 4.055-2.753 6.37m-36.916 4.49s6.36-1.75 11.118-.76c4.715.97 11.034 2.64 11.034 2.64s7.528-1.012 9.99-2.75m-47.92 5.068s-.87 3.04-1.158 5.067c0 1.446-4.634 3.33-4.634 3.33m8.687-14.625s4.053 5.067 4.197 7.962c.145 2.896-3.04 5.068-3.04 5.068m-42.997 21.57l-4.2-6.803 3.765-1.303m76.25 101.96c-3.36-4.342 2.523-71.04 14.993-88.41-4.343 31.387 10.09 63.47 13.73 63.333m-66.62-81.97s5.674 2.172 17.444-7.146m15.9 22.56l8.443.105m253.403-52.38s-140.655 65.724-142.704 69.205c23.75-7.167 124.48-23.956 126.94-22.522-5.94 1.433-128.17 29.482-133.902 36.24 30.506-1.025 94.39 9.826 104.416 20.268-21.703-4.914-86.61-14.537-106.465-10.238 14.538 3.482 70.227 39.516 70.227 45.25-8.393-7.986-75.345-35.626-78.006-32.964 15.355 9.214 37.06 43.405 37.058 51.8-4.503-7.166-43.2-48.73-45.45-46.067 4.094 5.733 12.208 54.795 8.06 57.07 0-5.94-15.022-48.88-16.25-50.11-3.072.82-22.22 52.393-18.426 57.188-2.457-17.196.408-53.09 5.117-51.66-8.393 1.23-35.183 36.553-32.317 42.08.82-8.803 2.017-14.642 17.167-43.92-16.788 1.02-51.593 22.93-57.532 30.71 4.71-13.92 34.192-37.467 47.09-39.105m60.713-51.233c14.868-8.25 60.807-25.085 91.45-37.438m-120.303 81.833s10.134-.144 20.27-27.65c9.985-37.638 89.177-79.622 90.77-87.442M94.015 266.773s-2.352 5.012-5.247 6.46m16.606 1.135s-3.142 6.103-3.866 9m14.736-6.015s2.637 8.33.465 12.24m-30.735-33.867c-7.962 4.49 4.53 32.852 42.316 35.603m-6.08-15.348s-1.013 5.067 6.08 15.2c-2.026 11.293 8.586 20.167 12.785 21.615M119.17 174.212c0-.145 1.157-3.04 1.157-3.04l1.29 3.347 2.078-.055 1.37-3.356 1.127 3.367h2.065l1.273-3.74 1.924 3.54 1.634.084 1.287-4.312 2.652 3.09.964-.374.826-4.315 2.62 3.02.752-.443 1.215-4.252 2.177 3.162 1.095-.358 1.017-3.574 2.023 3.284m-32.876 5.303l15.79-.235c5.025-.075 13.3-7.04 22.566-4.867m-71.644 38.89s2.605 5.647 6.225 2.46m-12.305 1.305s-5.068 13.61 1.013 16.793m-8.253-31.85s0 3.185 6.66-1.737M49.52 268.6s5.357 1.594 4.488 5.648m-2.464-68.19s3.33 1.593 6.515-3.33m28.81 159.978c5.21-.29 6.33 2.063 11.073 2.063 5.463.165 10.785-2.065 17.735-3.947m44.733 12.595c-.144 0-2.46 4.92-.433 7.382m-73.838-6.95s8.252-6.803 12.595-2.604c4.2 1.448 6.514 1.158 6.514 1.158m-14.763-17.95s2.027 5.21-4.778 4.487m-2.028 7.53s4.343 2.752-.58 6.37m3.186 4.923s5.937.87 2.462 5.646m189.266-41.714s16.12 1.668 16.86 2.872c1.854-1.947 16.248-13.606-1.447-15.273-2.963 12.137-15.135 12.585-15.413 12.4zm-5.743 8.06c6.02 4.816 3.554 7.703 22.454-4.988m-31.07 11.01s8.892 9.54 15.377-2.04m-32.33 5.466l-12.045 6.3m-21.68 8.894s7.32-6.3 10.747-2.965c3.428 3.335 17.972-2.87 17.972-2.87m-23.25-21.493s2.502 5.002-2.317 5.65m-7.225 10.007s2.538 4.703-2.373 6m8.024 6.785s7.595.37 4.91 6.113m66.145-7.133s-4.17 3.52-1.112 7.505M346.11 349.2s4.818 2.317-.926 6.3m-4.817 8.338s3.613 3.8 1.204 6.948m8.896 7.597s5.002 1.39 4.447 5.558m65.587-9.26s-4.17 3.055-1.946 7.04m-72.308-128.8c10.007-1.205 24.365 21.03 31.684 25.383m43.767-56.88s5.068 4.425.61 15.098m8.785-32.116c1.41 1.097 6.857 4.004 10.455 10.732m3.456-44.02c0 .093-7.04 18.993-7.04 18.993m14.914-19.92s-1.39 16.86-3.427 20.29m-27.948 30.72c-2.342 6.75-22.667 10.2-24.03.213-.694-5.085 12.038-12.93 24.03-.212z" fill="none"/><path d="M139.854 138.988l7.82 1.447s-5.503 7.384-7.82-1.447z"/></g></svg>