<svg xmlns="http://www.w3.org/2000/svg" height="512" width="512" viewBox="0 0 512 512"><defs><clipPath id="a"><path fill-opacity=".67" d="M250 0h500v500H250z"/></clipPath></defs><g clip-path="url(#a)"><path fill="#006" d="M-256 0H768.02v512.01H-256z"/><path d="M-256 0v57.245l909.535 454.768H768.02V454.77L-141.515.002H-256zm1280.02 0v57.242L114.485 512.01H0v-57.24L909.535 0h114.485zM170.675 0v512.01h170.67V0h-170.67zM236 170.67v170.67h1024.02V170.67H-10z" fill="#fff"/><path d="M-256 204.804v102.402H768.02V204.804H-256zM716.81-9.6v512.01h102.4V-4.8h-102.4zM-21.6 516.81l341.34-170.67h76.324L65.524 512.01H-10.8zM10.8-24l341.34 170.67h-76.324L0 26.164V-12zm606.356 182.67L947.696 0h76.324L682.68 170.67h-76.324zm403.453 337.34L668.47 337.34h76.323l265.016 132.51v38.16z" fill="#c00"/></g></svg>