<svg xmlns="http://www.w3.org/2000/svg" height="512" width="512" viewBox="0 0 512 512"><path d="M0 0h512v512H0z" fill="#fff"/><path d="M205 0h102v512H205zM0 205h512v102H0z" fill="#f00"/><path style="mix-blend-mode:multiply" d="M114.12 397.877c1.098-18.024 4.254-33.378 4.254-33.378s-10.545 1.08-15.873 1.08c-5.252 0-15.872-1.08-15.872-1.08s3.153 15.353 4.25 33.377c-18.023-1.095-33.377-4.25-33.377-4.25s1.08 7.934 1.08 15.872-1.08 15.872-1.08 15.872 15.355-3.156 33.38-4.25c-1.1 18.023-4.252 33.377-4.252 33.377s7.935-1.08 15.87-1.08c7.938 0 15.876 1.08 15.876 1.08s-3.156-15.355-4.254-33.38c18.027 1.096 33.38 4.252 33.38 4.252s-1.08-10.545-1.08-15.873c0-5.254 1.08-15.874 1.08-15.874s-15.353 3.156-33.38 4.25zm307-306.997c1.095-18.024 4.25-33.378 4.25-33.378s-10.544 1.08-15.872 1.08c-5.253 0-15.873-1.08-15.873-1.08s3.156 15.354 4.25 33.378c-18.023-1.098-33.377-4.25-33.377-4.25s1.08 7.934 1.08 15.87c0 7.937-1.08 15.875-1.08 15.875s15.354-3.156 33.378-4.254c-1.095 18.028-4.25 33.38-4.25 33.38s7.934-1.08 15.872-1.08 15.873 1.08 15.873 1.08-3.155-15.352-4.25-33.38c18.024 1.1 33.378 4.255 33.378 4.255s-1.08-10.545-1.08-15.873c0-5.253 1.08-15.873 1.08-15.873s-15.354 3.152-33.378 4.25zm-307 0c1.097-18.024 4.253-33.378 4.253-33.378s-10.545 1.08-15.873 1.08c-5.253 0-15.873-1.08-15.873-1.08s3.153 15.354 4.25 33.378C72.854 89.782 57.5 86.63 57.5 86.63s1.08 7.934 1.08 15.87c0 7.937-1.08 15.875-1.08 15.875s15.354-3.156 33.378-4.254c-1.098 18.028-4.25 33.38-4.25 33.38s7.934-1.08 15.87-1.08c7.937 0 15.875 1.08 15.875 1.08s-3.156-15.352-4.254-33.38c18.026 1.1 33.38 4.255 33.38 4.255s-1.08-10.545-1.08-15.873c0-5.253 1.08-15.873 1.08-15.873s-15.354 3.152-33.38 4.25zm307 306.997c1.095-18.024 4.25-33.378 4.25-33.378s-10.544 1.08-15.872 1.08c-5.253 0-15.873-1.08-15.873-1.08s3.156 15.353 4.25 33.377c-18.023-1.095-33.377-4.25-33.377-4.25s1.08 7.934 1.08 15.872-1.08 15.872-1.08 15.872 15.354-3.156 33.378-4.25c-1.095 18.023-4.25 33.377-4.25 33.377s7.934-1.08 15.872-1.08 15.873 1.08 15.873 1.08-3.155-15.355-4.25-33.38c18.024 1.096 33.378 4.252 33.378 4.252s-1.08-10.545-1.08-15.873c0-5.254 1.08-15.874 1.08-15.874s-15.354 3.156-33.378 4.25z" fill="#f00" fill-rule="evenodd"/></svg>