<svg xmlns="http://www.w3.org/2000/svg" height="512" width="512" viewBox="0 0 512 512"><path fill="#e32118" d="M0 0h512v512H0z"/><path fill="#fff" d="M0 0h512v341.333H0z"/><path fill="#3e9a00" d="M0 0h512v170.667H0z"/><path d="M0 0v512l160-256z" fill="#0073ce"/><g stroke="#000"><path d="M215 204.544h81.708v85.59c0 28.8-37.547 6.613-40.747 21.973-5.546-15.787-40.746 7.04-40.746-23.68 0-29.867-.213-83.883-.213-83.883z" fill="#fff"/><path d="M261.72 298.453s-1.066 1.067-2.986.214c-1.92-.854-2.133-54.827-2.133-54.827 4.268-4.693 7.68-6.187 7.68-6.187l2.56 2.134c-9.6 4.906-8.746 11.946-7.892 24.106.213 4.48.213 10.24 1.28 15.787 1.493 7.04 4.48 13.013 4.693 17.493.214 2.774-3.2 1.28-3.2 1.28zM255.108 236.373h3.84c-3.2 30.934-.427 49.28-.427 58.24 0 2.987 1.708 4.054 1.494 4.054-3.84 4.266-5.76-.214-5.76-.214z" fill="#73452b"/><path d="M249.134 298.453c-3.626 1.707-4.053-1.706-3.84-2.133 7.894-16 11.307-51.2 4.054-55.04l.426-3.413c2.774.853 5.334 4.48 5.334 4.48 1.066 39.466 0 55.68-.64 56.32-3.84 4.053-5.334-.64-5.547-1.067" fill="#a36629"/><path d="M248.92 297.813c-.64-3.413 5.548-12.16 5.12-21.333m5.334 7.467c1.92 5.333 2.774 10.026 2.347 14.506" fill="none"/><path d="M267.694 221.867c1.28-1.494 1.28-1.494 3.627-1.494.428-3.2 5.76-3.2 6.188.854 4.266-.854 5.12 1.706 3.413 4.266 4.054-1.066 7.68 0 6.614 4.694 7.254 1.92 4.48 7.04 1.28 8.106-.426 3.2-3.413 4.267-7.466 2.987-5.12 3.627-8.107 2.347-10.454-1.28-5.76.853-6.186-.427-8.746-3.627-4.48 1.92-5.334 1.92-9.174-.426-.213 2.986-1.28 2.133-3.2 1.92.214 3.84-1.28 5.546-4.693 4.266 2.56 5.334-4.052 7.68-7.252 3.2-2.987.214-3.2-.64-4.694-1.706-1.28 4.266-5.973 3.626-6.826 1.28-5.974-.854-5.334-4.054-.427-4.267.428-3.413 3.414-2.773 5.334-2.347.214-2.133 1.494-1.706 2.56-1.28-.64-1.493-.213-2.346 1.707-2.773-2.772-3.627-1.066-4.907 1.708-6.187-1.494-3.413 1.066-3.2 2.986-3.413-.213-3.627.854-4.267 4.694-4.693-.427-1.28.213-2.347 2.346-2.347-1.28-3.627.427-4.46 4.267-3.84.64-5.27 11.948-2.773 11.094 4.48 3.2.427 4.267 1.067 5.12 3.627z" fill="#009a3b"/><path d="M244.868 219.947c.853.426 1.92 0 2.133 2.346 1.708-2.986 3.84-1.28 3.84 2.134m11.734-6.187c-.853 1.28-4.053 1.28-3.626 4.693-1.067-1.493-3.2-1.92-4.054-.426m12.8-.64c0 .853-.213 3.413-1.066 4.693m14.293-1.067c.214.214-2.986 0-4.48 1.067m12.374 11.733c-.853-.426-2.56-1.493-3.84.214 0-.854 0-3.2-2.346-3.2m-1.28 5.973c0-2.133-.427-2.773-.854-3.413m-6.186.426c-1.707-1.28-3.414.64-3.414 1.707m-8.96-3.627c0-.853-.64-2.56.854-3.2m-25.174 12.16c.427-2.133 1.92-2.133 1.707-3.2-.212-1.706-2.132-3.2-4.48-.853m4.48.853c1.28-.426 2.56-.213 2.988.427m-6.614-8.32c.854-.853 2.987-.64 4.267 0m0-5.12c1.068 0 2.988-.427 3.628 1.493 2.346-3.626 4.053-3.2 4.48-2.346m4.266-.427c1.707-.64 4.694 1.067 6.4 4.053.854-2.346 2.134-1.92 3.414-2.133m8.106 2.133c2.774-1.28 4.48 1.28 5.334 2.347 1.28-1.707 2.346-1.707 3.626-1.707m-34.773 4.48c.64-1.066 2.134-1.28 3.2-.64-.212-1.92 1.068-2.773 1.92-2.346" fill="none"/><path d="M253.188 192.555l-4.694.213-2.346 4.203-2.56-4.01-4.694.192 2.134-4.224-2.56-4.01 4.906-.214 2.134-4.203 2.56 4.012 4.693-.192-2.132 4.224zm-20.054 1.557l-4.693 1.152-1.28 4.544-3.412-3.413-4.48 1.11 1.28-4.545-3.2-3.456 4.48-1.13 1.28-4.566 3.413 3.413 4.694-1.108-1.493 4.565zm-19.413 3.99l-4.266 2.11-.213 4.737-4.052-2.603-4.267 2.09.428-4.736-4.054-2.623 4.267-2.133.428-4.736 3.84 2.603 4.266-2.09-.213 4.736zm45.654-5.547l4.694.213 2.133 4.203 2.56-4.01 4.694.192-2.133-4.224 2.56-4.01-4.692-.214-2.347-4.203-2.56 4.012-4.692-.192 2.133 4.224zm20.054 1.557l4.48 1.152 1.28 4.544 3.413-3.413 4.48 1.11-1.28-4.545 3.414-3.456-4.693-1.13-1.28-4.566-3.412 3.413-4.48-1.108 1.28 4.565zm19.2 3.99l4.266 2.11.214 4.737 4.053-2.603 4.268 2.09-.214-4.736 3.84-2.623-4.266-2.133-.214-4.736-4.053 2.603-4.266-2.09.427 4.736z" fill="#ffd700"/><g fill="#fff"><path d="M304.388 288.427l5.333 7.68 4.908-7.254-3.414-6.186zm-33.92 22.4l.426 7.68s2.134 0 4.054-.64c1.706-.64 3.2-1.92 3.2-1.92l-.214-4.054zm-28.587 0l-.426 7.466s-1.92 0-3.84-.426c-1.706-.427-3.2-1.494-3.2-1.494l-2.133-5.12zm-34.346-22.4l-5.546 7.68-5.974-9.814 4.48-4.693zM234.2 326.187c0 7.253 43.948 7.253 43.948 0v-10.24c0 5.333-43.947 4.266-43.947 0zM194.948 302.507c3.84 19.626 39.253 20.053 39.253 20.053v-6.613c-.852-2.56.64-3.414 6.4-4.267 2.348-.213 1.28-3.627 1.28-3.627s-15.36 2.774-26.24-1.493c-14.72-5.973-16.852-17.493-16.852-17.493s-1.067 8.96-3.84 13.44zm122.24 0c-3.627 19.626-39.04 20.053-39.04 20.053v-6.613c.64-2.56-.854-3.414-6.614-4.267-2.346-.213-1.066-3.627-1.066-3.627s15.36 2.774 26.24-1.493c14.506-5.973 16.213-17.493 16.213-17.493s1.494 8.96 4.268 13.44zM197.72 295.04c-9.812-5.333-2.132-10.88-1.28-26.667 1.494 9.6 12.374 13.654 11.094 19.84-4.48.214-6.613-6.613-8.746.854l-1.067 5.973zm116.694 0c9.814-5.547 1.707-10.88.854-26.667-1.494 9.6-12.16 13.654-10.88 19.84 4.266.214 6.4-6.613 8.533.854l1.494 5.76z"/></g><path d="M203.694 302.293l1.067.854-2.346 2.56c-.94 1.024-1.166 1.702-.514 2.326.81.774 1.38.505 2.22-.406l2.56-2.774.854.854-2.557 2.984c-1.39 1.62-2.678 1.25-3.76.24-.94-.88-1.48-2.155-.096-3.723l2.583-2.9zm4.267 3.627l1.068.64-.214 5.12 2.347-3.627 1.068.64-3.414 5.547-1.28-.64.214-5.12-2.347 3.627-1.066-.64zm1.92 8.96l2.988-5.973 1.066.64-2.773 5.76zm4.694-5.12l-2.355 6.182 2.354.858c2.196.8 3.226-.166 3.924-2.022.704-1.888.396-3.277-1.8-4.16l-2.124-.858zm.845 1.498c2.207.768 2.342 1.606 1.74 3.123-.582 1.44-1.126 2.004-3.226.922l1.485-4.044zm6.194.85l-3.84 5.76 1.485.434.857-1.498 2.56.64.217 1.498 1.485.205-1.486-6.823-1.28-.217zm.423 1.496l.422 2.56-1.703-.217 1.28-2.343zm3.225-.943l-.23 6.613 2.51.05c2.335.043 2.998-1.2 3.055-3.182.058-2.015-.684-3.232-3.05-3.352l-2.285-.127zm1.28 1.148c2.34.01 2.74.756 2.658 2.39-.078 1.55-.417 2.257-2.75 1.912l.093-4.302zm21.1 8.112v6.822h1.497v-2.56s1.28.077 2.34-.204c.84-.218 1.42-.756 1.44-2.08.02-1.3-.735-1.978-2.04-1.978h-3.243zm1.497 1.062l1.503.02c1.254 0 1.017 1.9.038 1.9h-1.54v-1.92zm6.18-1.062l-2.777 6.822h1.498l.64-1.702h2.78l.64 1.702h1.483l-2.773-6.826h-1.493zm.64 1.498l1.063 2.56h-1.92l.858-2.56zm3.628 4.05l3.626-4.48h-3.2v-1.068h5.12v1.067l-3.84 4.48h3.84v1.28h-5.546zm21.546-13.228l1.28-.213.64 3.84c.228 1.365-.396 2.296-1.368 2.655-1.107.408-2.52.035-2.685-1.802l1.068-.213c.248 1.1.69 1.194 1.202 1.022.406-.138.616-.778.504-1.45zm2.134-.384l1.263-.24.585 3.196c.25 1.367.68 1.95 1.568 1.794 1.104-.193 1.225-.81.99-2.03l-.785-3.408 1.292-.195.858 3.546c.5 2.073-.582 2.895-2.037 3.167-1.266.237-2.613-.085-3.054-2.13zm6.613 2.944l1.068-.427c.523.94 1.34.892 1.974.61.882-.39.983-1.16.547-1.42-.623-.372-2.107.156-2.906-.136-.956-.348-1.366-.886-1.318-1.713.06-.995.935-1.543 1.887-1.838 1.066-.33 2.118-.214 2.8 1.084l-1.28.427c-.415-.7-.95-.668-1.427-.444-.398.19-1.02.542-.688 1.11.273.466 1.84.164 2.667.198.854.036 1.544.606 1.66 1.427.16 1.146-.264 1.766-1.588 2.282-1.635.637-3.11-.077-3.396-1.16zm5.76-5.333l-1.706.853-.426-1.067 4.693-1.92.428.854-1.707.853 1.92 4.693-1.066.64zm2.774-2.347l1.067-.64 2.988 5.547-1.067.64zm7.254.427l1.28-.427c.602 1.265-.302 3.566-2.512 3.52-3.235-.07-3.585-3.634-3.077-4.81.854-1.973 3.247-1.935 4.308-.843l-1.067.853c-.675-.868-2.178-.32-2.28.477-.165 1.303.41 2.515 1.573 3.09.988.487 2.51-.738 1.775-1.86zm-.64-4.48l1.066-.854 3.84 5.12-1.066.854zm4.053-3.2l-1.06.857 2.34 6.4 1.063-1.062-.64-1.28 1.92-1.715 1.28.64 1.076-.845-5.98-2.995zm.423 1.497l2.138 1.063-1.28 1.28-.857-2.343z" stroke="none"/></g></svg>