<svg xmlns="http://www.w3.org/2000/svg" height="512" width="512" viewBox="0 0 512 512"><defs><clipPath id="a"><path fill-opacity=".67" d="M164.85 0h744.09v744.09H164.85z"/></clipPath></defs><g clip-path="url(#a)"><path fill-rule="evenodd" fill="#ba0000" d="M630.67 520.866h-744.1V.003h744.1z"/><path d="M248.03 252.096s-52.514-22.61-44.978-81.2c7.294-28.203 20.18-47.41 43.52-57.862 10.94-3.405 22.124-4.864 33.55-5.836-3 2.836-5.51 5.673-6.807 9.24-2.513 6.4-.65 12.56 2.674 18.72 4.213 7.132 6.723 14.506 7.535 24.068 1.54 13.453-4.214 26.42-14.83 34.28-6.728 5.188-14.668 6.97-21.153 12.886-5.023 4.944-8.103 9.888-9.237 18.477-.163 16.37 4.295 18.64 9.725 27.23z" fill-rule="evenodd" fill="#fff"/><path d="M238.062 167.326v-.243" fill-rule="evenodd" stroke="#000" stroke-width="2.1889" fill="#ba0000"/><path d="M241.38 246.013c-20.426-18.074-18.64-63.532-3.08-78.687" stroke="#ba0000" stroke-width="2.1889" fill="none"/><path fill-rule="evenodd" fill="#ba0000" d="M237.9 156.145l6.726-1.516.8-6.56 3.346 5.62 6.726-1.525-4.66 4.99 3.356 5.613-6.226-2.535-4.652 4.995.812-6.556"/><path d="M252.493 248.22s6.23-56.836 64.456-66.798c29.102-1.29 51.24 5.402 68.074 24.654 6.46 9.462 11.133 19.73 15.41 30.368-3.59-2.036-7.037-3.606-10.827-3.8-6.857-.527-12.2 3.06-17.115 8.04-5.583 6.12-11.9 10.68-20.804 14.26-12.41 5.412-26.495 3.71-37.122-4.135-6.93-4.914-10.962-11.983-18.518-16.45-6.2-3.354-11.83-4.85-20.373-3.418-15.7 4.64-16.564 9.57-23.184 17.278z" fill-rule="evenodd" fill="#fff"/><path d="M330.622 213.85l.23-.072" fill-rule="evenodd" stroke="#000" stroke-width="2.1889" fill="#ba0000"/><path d="M256.36 240.08c11.296-24.827 55.282-36.44 74.33-26.003" stroke="#ba0000" stroke-width="2.1889" fill="none"/><path fill-rule="evenodd" fill="#ba0000" d="M341.264 210.416l3.42 5.99 6.503-1.157-4.392 4.845 3.43 5.983-6.136-2.993-4.385 4.853.6-6.695-6.14-2.984 6.507-1.146"/><path d="M256.417 252.324s55.87-12.142 83.81 39.904c10.465 27.185 11.15 50.302-1.757 72.38-6.92 9.13-15.172 16.82-23.902 24.257.79-4.052 1.183-7.82.165-11.475-1.678-6.67-6.776-10.596-13.06-13.674-7.575-3.352-13.906-7.89-20.127-15.2-9.074-10.05-11.935-23.944-7.87-36.51 2.458-8.133 7.88-14.2 9.717-22.784 1.21-6.944.84-12.756-3.23-20.404-9.387-13.412-14.334-12.666-23.747-16.497z" fill-rule="evenodd" fill="#fff"/><path d="M313.82 315.49l.14.2" fill-rule="evenodd" stroke="#000" stroke-width="2.1889" fill="#ba0000"/><path d="M265.364 253.406c27.128 2.826 52.11 40.846 48.262 62.224" stroke="#ba0000" stroke-width="2.1889" fill="none"/><path fill-rule="evenodd" fill="#ba0000" d="M320.455 324.492l-4.592 5.145 3.162 5.8-5.99-2.626-4.585 5.153.89-6.768-5.994-2.616 6.54-1.56.88-6.768 3.15 5.807"/><path d="M255.16 258.085s27.343 50.212-14.764 91.644c-23.152 17.678-45.147 24.828-69.96 18.64-10.708-4.08-20.405-9.838-29.993-16.13 4.11-.377 7.837-1.058 11.058-3.062 5.932-3.484 8.268-9.48 9.458-16.376 1.09-8.21 3.668-15.56 8.935-23.584 7.096-11.532 19.628-18.18 32.833-17.807 8.494.076 15.84 3.577 24.594 2.927 7.005-.786 12.48-2.774 18.676-8.83 10.236-12.774 8.13-17.313 9.165-27.423z" fill-rule="evenodd" fill="#fff"/><path d="M210.654 330.918l-.15.19" fill-rule="evenodd" stroke="#000" stroke-width="2.1889" fill="#ba0000"/><path d="M256.633 266.976c4.906 26.83-24.568 61.484-46.166 63.795" stroke="#ba0000" stroke-width="2.1889" fill="none"/><path fill-rule="evenodd" fill="#ba0000" d="M203.88 339.815l-6.23-2.964-4.677 4.665.837-6.487-6.232-2.954 6.746-1.045.826-6.49 3.332 5.84 6.744-1.056-4.688 4.655"/><path d="M248.964 256.997s-38.274 42.473-91.34 16.527c-24.368-15.965-38.42-34.334-40.827-59.794.288-11.454 2.5-22.515 5.245-33.648 1.722 3.75 3.603 7.04 6.564 9.413 5.257 4.435 11.687 4.648 18.587 3.48 8.106-1.702 15.897-1.713 25.214.59 13.234 2.86 23.667 12.473 27.703 25.05 2.75 8.037 1.89 16.13 5.41 24.17 3.07 6.345 6.765 10.848 14.535 14.68 15.45 5.41 19.03 1.917 28.91-.468z" fill-rule="evenodd" fill="#fff"/><path d="M165.482 239.22l-.23-.078" fill-rule="evenodd" stroke="#000" stroke-width="2.1889" fill="#ba0000"/><path d="M241.068 261.341c-23.674 13.543-66.153-2.742-75.51-22.345" stroke="#ba0000" stroke-width="2.1889" fill="none"/><path fill-rule="evenodd" fill="#ba0000" d="M154.84 235.785l.726-6.858-5.954-2.864 6.397-1.365.713-6.86 3.23 6.016 6.394-1.375-4.4 5.08 3.237 6.01-5.95-2.874"/></g></svg>