<svg xmlns="http://www.w3.org/2000/svg" xmlns:xlink="http://www.w3.org/1999/xlink" height="512" width="512" viewBox="0 0 512 512"><path fill="#171796" d="M0 0h512v512H0z"/><path fill="#fff" d="M0 0h512v341.333H0z"/><path fill="#f00" d="M0 0h512v170.667H0zM256.032 388.425c54.742 0 99.528-44.79 99.528-99.53V170.628H156.5v118.27c0 54.74 44.79 99.528 99.53 99.528z"/><path d="M256.032 386.83c53.698 0 97.63-43.935 97.63-97.63V172.542H158.398V289.2c0 53.698 43.935 97.63 97.634 97.63z" fill="#fff"/><g fill="#f00"><path d="M199.608 176.213h-37.572v41.28h37.572zm0 82.56h37.573v-41.28h-37.57zm-37.572 30.197c0 3.748.232 7.446.664 11.083h36.908v-41.28h-37.572v30.196zm112.72-30.198H237.18v41.28h37.576zm0 82.558h37.573v-41.277h-37.575zm37.574 22.582a95.136 95.136 0 0 0 21.45-22.58h-21.45v22.58zM199.61 341.33h37.573v-41.277H199.61zm-21.486 0a95.113 95.113 0 0 0 21.487 22.608V341.33h-21.485zm84.388 41.28a93.406 93.406 0 0 0 12.24-1.67v-39.61h-37.57v39.616a92.865 92.865 0 0 0 12.205 1.663c4.375.27 8.75.253 13.123 0zM349.2 300.053c.433-3.65.666-7.36.666-11.122v-30.154h-37.54v41.28H349.2zm-74.444-41.28h37.573v-41.28h-37.575zm0-82.56h-37.573v41.28h37.573zm75.11 41.28v-41.28H312.33v41.28z"/></g><path d="M351.97 169.417l23.296-52.81-17.75-28.66-29.405 10.887-20.643-23.6-27.205 15.59-24.256-19.867-24.258 19.867-27.204-15.59-20.648 23.597-29.406-10.884-17.754 28.668L160 169.434c29.318-13.27 61.826-20.665 96.006-20.665 34.166 0 66.658 7.386 95.968 20.646z" fill="#fff"/><path d="M184.54 101.164l-.042.05-29.16-10.797-16.32 26.348 6.252 14.212 15.835 35.948a234.315 234.315 0 0 1 36.888-12.76l-13.45-52.998z" fill="#0093dd"/><path d="M182.863 127.22a14.142 14.142 0 0 1 1.635 6.613c0 7.85-6.402 14.253-14.253 14.253-6.918 0-12.71-4.974-13.99-11.528 2.462 4.353 7.135 7.3 12.474 7.3 7.886 0 14.32-6.433 14.32-14.324 0-.79-.064-1.562-.19-2.318z" fill="#fff" stroke="#000" stroke-width=".299"/><path d="M169.8 107.498l-.048.235-.993 5.116 3.923 3.43.18.155-.228.078-4.926 1.7-1.01 5.112-.048.235-.18-.158-3.932-3.417-4.93 1.683-.23.078.048-.237.993-5.115-3.92-3.43-.183-.16.228-.078 4.926-1.696 1.01-5.112.048-.236.18.156 3.932 3.42 4.93-1.683z"/><path d="M163.88 114.763l3.678 3.207 4.603-1.585zm.03-.163l8.284 1.62-3.665-3.204zm-8.89-1.74l8.28 1.62-3.678-3.205zm8.25 1.784l-8.284-1.62 3.665 3.202zm.462-.31l5.545-6.363-4.608 1.574zm-5.955 6.83l5.545-6.36-4.615 1.58zm5.67-6.252l-5.544 6.362 4.608-1.572zm5.956-6.832l-5.545 6.362 4.615-1.583zm-5.993 6.273l-2.737-7.982-.943 4.78zm2.94 8.574l-2.737-7.982-.938 4.787zm-2.58-8.037l2.737 7.984.943-4.777zm-2.94-8.575l2.737 7.985.938-4.79z" fill="#f7db17"/><path d="M232 93.233l-.05.04-26.978-15.46-20.43 23.35 13.45 53a234.432 234.432 0 0 1 38.524-6.435l-4.52-54.495z" fill="#171796"/><path d="M194.654 141.01a247.734 247.734 0 0 1 40.742-6.805l-1.142-13.775a261.917 261.917 0 0 0-43.002 7.18l3.4 13.4zm-6.76-26.637a275.153 275.153 0 0 1 45.23-7.555l-1.12-13.522a288.77 288.77 0 0 0-47.45 7.924l3.34 13.153z" fill="#f00"/><g transform="translate(-256) scale(.003)"><path d="M212105 36890l-23 13-9517-7794-9497 7778 1788 21560c2543-210 5113-322 7709-322 2608 0 5190 113 7744 325l1795-21560z" fill="#0093dd"/><g id="a"><path d="M202545 46585c-18-2-44 10-69 45-186 250-359 469-545 720-195 61-242 180-167 348-261-26-291 193-302 432-250-379-522-482-814-307-11-230-187-338-439-392-180-10-319-65-436-145-60-42-110-64-170-106-126-88-226-5-172 74 267 434 535 868 802 1302-14 80 6 151 88 204 47 133 93 265 140 397-11 38-21 75-32 113-221-105-443-118-664-133-170-8-287-50-361-137-54-63-91-26-92 82-3 534 162 1014 599 1492-231 4-462 11-694 21-79 6-95 39-73 104 126 304 339 579 822 766-208 112-327 285-357 520-9 224-75 382-212 455-60 32-81 65-24 106 253 185 565 193 895 112-157 270-226 553-198 850 208 56 412 15 614-52-29 61-44 175-52 309-7 115-41 229-104 343-32 33-65 84 4 102 336 91 648 52 915-47 0 243 2 487 76 727 18 58 70 102 125 26 155-214 322-396 527-517 31 90 75 168 156 215 96 55 147 170 153 343 0 30-2 60 35 90 149 7 514-380 589-597 206 121 284 246 439 461 55 76 99 29 128-25 62-243 67-481 66-724 267 99 579 138 915 47 69-19 36-70 4-102-62-114-105-250-113-365-9-133-14-226-43-287 202 68 405 108 614 52 29-297-53-579-211-850 330 80 655 73 908-112 57-41 35-74-24-106-136-73-203-231-212-455-30-235-149-409-357-520 483-187 696-463 822-766 22-66 6-99-73-104-231-10-480-24-711-27 437-478 606-961 604-1495-1-108-38-146-92-82-74 87-179 137-348 146-222 15-435 24-656 128-11-38-21-75-32-113 46-132 106-260 153-393 82-53 102-123 88-204 267-434 513-868 781-1302 54-79-46-162-171-74-60 42-110 64-170 106-117 80-257 134-437 145-251 54-417 167-428 397-293-175-564-73-814 307-11-239-41-457-302-432 75-168 17-291-178-352-186-250-458-470-644-720-31-35-51-47-69-45z"/><g fill="#f7db17"><path d="M205075 47978c-51-26-124 17-162 95s-33 170 19 196c40 20 84-6 119-56l22-36c2-3 4-6 5-9 38-78 49-163-2-188zm-5008 0c52-26 124 17 162 95s39 165-13 191-103-24-141-102-60-158-9-184zm4539 905c-32 0-59 27-59 59s26 59 59 59 59-26 59-59c0-32-26-59-59-59zm-4032 0c-32 0-59 26-59 59 0 32 26 59 59 59s59-26 59-59-26-59-59-59zm4294-304c-754-91-1506-133-2260-133s-1509 41-2269 115c-26 8-21 90 14 86 756-73 1507-113 2256-113 743 0 1485 40 2228 129 39 4 54-80 32-84zM200319 48495c768-75 1530-117 2289-116 754 0 1507 42 2261 133l111-184c-32 10-62 9-90-5-76-38-92-161-36-274 56-114 164-175 240-138 39 19 62 62 68 114l446-739c-204 130-328 214-581 252-281 41-409 139-368 307 38 156-57 133-201 54-314-171-541 71-652 353-73 186-159 181-168-13-4-70 0-131-7-200-21-223-89-286-216-224-161 78-175 25-137-58 28-60 86-128 66-221-9-67-66-92-151-98-182-244-467-483-649-727-182 244-374 483-556 727-86 5-142 30-152 98-20 93 52 157 80 217 38 82 23 135-137 57-127-61-186-3-207 220-7 69-10 139-13 209-9 194-95 199-168 13-111-282-352-524-667-353-145 79-203 102-182-54 23-172-107-266-388-307-253-37-377-122-581-252l419 682c12-25 29-45 53-57 76-38 184 24 240 138 56 113 40 237-36 274-10 5-21 8-32 10l100 163zm4389 911c-7 3-7 4-24 11-46 19-80 66-134 124-57 60-128 125-211 188-12 10-25 19-44-6s-7-35 6-44c80-62 149-124 204-182 30-32 56-63 77-92-95-11-190-21-284-30-79 24-157 55-222 95-59 35-107 77-137 125-8 14-16 27-44 11-27-16-19-30-11-44 35-58 91-107 158-147 33-20 69-38 106-54-107-9-214-18-321-25-22 13-42 29-61 47-20 19-39 42-56 67-9 13-18 26-44 8s-18-31-8-44c19-29 41-54 64-77l9-9c-80-5-161-10-241-14-2 2-5 5-8 7-21 18-40 38-55 59s-28 43-38 67c-6 15-12 29-41 18-29-12-23-26-17-41 12-29 27-55 45-81 8-11 18-22 27-33-115-5-230-9-344-12-4 5-9 8-14 11-25 15-47 32-66 51s-35 40-48 63c-8 14-16 28-43 12-28-16-20-29-12-43 16-28 35-54 59-77 7-7 14-13 21-19-122-2-244-4-365-4-120 0-240 1-360 3 8 7 15 13 22 20 23 23 42 49 59 77 8 14 16 27-12 43s-35 2-44-12c-13-23-29-44-48-63s-41-36-66-51c-6-3-12-7-15-12-115 2-230 6-345 11 11 11 20 23 29 35 19 25 33 52 45 81 6 15 12 29-17 41s-35-3-41-18c-9-24-22-46-38-67-15-21-34-41-55-59-4-3-7-6-10-10-81 4-162 8-243 13 4 4 9 8 13 12 24 23 45 48 64 77 9 13 18 26-8 44s-35 5-44-8c-18-26-36-48-56-67s-41-35-64-49c-1-1-3-2-5-3-110 7-220 14-330 23 43 18 85 38 122 61 67 40 124 89 158 147 8 14 16 27-11 44-27 16-35 3-44-11-29-48-78-90-137-125-72-44-159-77-246-102h-2c-90 7-179 15-268 24 22 33 51 68 86 106 55 58 124 120 204 182 13 9 25 19 6 44s-32 15-44 6c-83-64-155-128-211-188-37-38-99-111-135-140-196-90-354-127-575-147-153-14-318-9-458-79 36 85 75 164 126 229 53 68 120 121 209 147 8 2 21 16 22 25 28 157 84 286 169 386 52 60 114 110 188 149-75-81-132-166-172-251-67-142-90-286-77-420 1-16 3-32 34-29 32 3 30 19 29 35-11 123 9 256 72 387 56 118 159 237 291 346 24 19 0 63-29 55-154-44-290-123-383-231-89-104-149-237-180-397-94-32-165-90-222-164-47-60-85-131-118-205 28 428 182 801 456 1137 61 75 165 182 255 216 92 35 95 100-20 101-34 1-69 1-105 1 84 31 164 66 233 105 127 73 217 162 224 273 1 16 2 32-29 34-32 2-33-14-34-29-6-86-82-160-192-223-113-65-259-117-402-160-154 0-312-1-459 3 39 28 80 57 131 84 82 44 188 86 343 122 89 21 166 52 233 91 71 42 130 93 177 150 10 12 20 25-5 45s-34 8-45-5c-42-52-95-98-159-135-61-36-133-64-216-84-161-38-272-81-358-128-75-40-131-82-184-123 180 393 450 573 835 689 23 7 43 13 61 19 3 1 6 1 9 2 86 21 175 40 266 55 92 15 166 28 261 37 16 1 32 3 29 34-3 32-19 30-34 29-99-9-174-22-266-38-58-10-115-21-171-33-26 6-64 9-107 12-232 14-420 225-435 494 0 5 0 11-1 16 88-80 179-157 273-212 117-68 239-103 364-69 15 4 31 8 22 39-8 31-23 27-39 22-106-28-212 3-316 63-108 63-213 158-315 253-24 147-82 285-205 377 61 34 104 65 163 45 86-39 172-78 261-108 91-31 184-52 282-57 16-1 32-1 33 31s-14 32-31 33c-91 4-179 24-264 53-75 26-149 58-222 91 221 47 460-1 667-79 60-22 105-42 133-41 51-30 112-53 172-79 66-28 132-51 182-57 16-2 32-4 35 28 4 32-12 33-28 35-112 13-127 21-222 79 0 21-66 57-126 96-36 24-70 52-87 67-95 86-144 181-188 287-29 70-52 145-68 224 55-108 121-211 201-303 94-108 208-201 345-265 14-7 29-13 42 15 13 29-1 35-15 42-129 60-236 147-324 250-90 103-161 222-219 345-31 64-8 1-42 86 110-122 212-224 323-307 132-100 283-157 418-133 15 3 31 6 26 37s-21 28-37 26c-116-21-250 32-369 121-121 92-244 223-366 361 184 26 366-26 542-85 91-30 183-135 239-152 19-24 38-46 57-67 33-37 67-71 102-100 12-10 24-20 45 4s8 34-4 45c-33 28-65 60-96 94-32 35-62 73-92 113-6 8-13 17-24 16-60 70-151 162-172 240-57 210-25 370-122 576 71-38 128-81 175-134 53-60 94-135 128-230 37-104 95-195 167-270 75-77 165-136 261-172 15-5 30-11 41 19s-4 35-19 41c-87 32-169 86-238 157-66 68-119 151-153 247-37 102-81 183-141 250-44 50-95 91-156 127 52-3 78-10 121-7 79-6 211-66 279-119 66-51 116-120 154-206 6-15 13-29 42-16s23 27 16 42c-42 96-99 174-173 231-56 43-121 75-196 93 161-5 311-42 467-100 65-24 87-168 127-208 32-58 66-112 105-158 47-56 101-101 164-127 15-6 29-12 41 18 12 29-3 35-17 41-52 21-98 60-139 108-36 42-68 93-98 147 10 73-51 228-53 305-7 205-2 409 53 612 53-71 107-134 162-192 0-5 0-10 1-15 18-106 33-219 40-332 7-112 7-223-6-329-2-16-4-32 27-35 32-4 34 12 35 28 14 111 14 226 7 340-6 90-16 180-30 269 54-51 53-51 77-103 37-80 59-159 67-237 9-80 5-157-13-230-4-15-7-31 24-38s35 8 38 24c19 80 25 165 14 252-8 65-24 132-49 199 56-42 114-82 178-122-4-75-5-153-3-227 2-68 7-134 18-190 4-20 7-40 47-33s37 27 33 48c-9 50-14 111-16 177-2 78 0 162 4 243 5 82 49 185 125 230 103 62 158 163 186 274 16-145 17-280 3-400-17-143-55-267-114-368-8-14-16-27 12-44 27-16 35-2 43 12 63 110 104 241 122 393 17 146 13 310-13 488 102-82 381-258 352-594-7-27-16-52-28-75-7-14-14-28 14-42s35 0 42 14c17 33 30 69 39 110 5 24 8 49 11 76 13-7 45-43 51-39 24 16 58 38 80 54-21-60-35-120-42-178-10-87-5-172 14-252 4-15 7-31 38-24s27 23 24 38c-18 73-22 151-13 230 9 77 31 157 67 237 4 8 8 16 5 25 24 21 47 42 70 65-13-84-22-170-28-255-8-115-7-230 7-341 2-16 4-32 35-28s29 20 27 35c-13 106-13 217-6 329 7 113 22 225 40 332 1 2 1 5 1 7 54 59 95 120 152 196 55-203 73-407 66-612-2-76-69-227-65-302-30-55-63-107-100-151-41-49-87-87-139-108-15-6-29-12-18-41 12-29 27-24 41-18 62 26 117 71 164 127 38 45 72 98 103 154 57 7 78 179 143 212 154 57 298 94 453 100-75-19-140-50-195-93-74-57-131-135-173-231-6-15-13-29 16-42s35 2 42 16c38 86 88 156 154 206 85 66 289 124 400 127-61-37-113-78-157-128-59-67-104-148-141-250-34-95-87-179-153-247-68-71-150-124-238-157-15-6-29-11-19-41 11-29 26-24 41-19 96 36 186 94 261 172 72 74 130 166 167 270 34 95 75 169 128 230 47 54 105 98 177 135-98-207-66-367-122-577-35-129-232-277-193-320 45-51 133 88 248 127 175 59 357 111 540 85-122-138-244-269-366-361-119-90-237-140-352-120-16 3-31 6-37-26-5-31 10-34 26-37 135-24 269 32 401 132 111 84 201 175 311 298-18-47 0-14-30-77-59-123-130-241-220-345-89-102-196-189-324-250-14-7-28-13-15-42 13-28 28-22 42-15 137 65 251 157 345 265 81 93 147 198 203 307-15-81-39-157-68-227-44-106-93-201-188-287-62-56-209-140-208-179-29-15-33-11-63-24-61-26-121-46-164-52-16-2-32-4-28-35 4-32 19-30 35-28 50 6 115 28 182 56 33 14 66 43 98 60 53 4 139 47 208 74 206 78 446 126 666 79-73-33-147-65-223-91-85-29-172-49-264-53-16-1-32-1-31-33s17-31 33-31c98 4 191 26 282 57 89 30 175 69 261 108 59 27 101-7 163-45-123-92-181-230-205-376l-2-2c-102-95-207-190-315-253-104-60-210-91-316-63-15 4-31 8-39-22-8-31 7-35 22-39 125-33 247 1 364 69 94 55 186 132 274 213 0-6-1-11-1-17-15-270-203-480-435-494-78-5-189 21-186-32 4-59 97-44 234-86 385-116 655-296 836-690-54 41-110 83-186 124-86 47-198 91-358 128-82 19-154 48-216 84-64 38-117 84-159 135-10 12-20 25-45 5s-14-32-5-45c47-57 106-108 177-150 67-39 145-70 233-91 155-36 261-78 343-122 51-27 92-55 131-84-148-4-305-3-459-3-143 44-289 96-402 160-110 63-186 136-192 223-1 16-2 32-34 29-32-2-31-18-29-34 8-111 97-200 224-273 69-39 149-74 233-105-35 0-70 0-104-1-116-2-112-66-20-101 90-34 190-141 251-216 271-334 412-714 456-1130-33 72-69 140-115 198-57 73-128 131-222 164-31 160-91 293-180 397-92 108-216 185-369 230-29 8-52-35-29-55 132-109 221-226 278-344 62-131 83-264 72-387-1-16-3-32 29-35 31-3 33 13 34 29 12 134-10 278-78 420-40 85-97 170-172 251 73-39 136-89 187-149 85-100 141-229 170-386 1-8 14-22 22-25 89-27 155-79 209-147 51-65 90-143 126-228-140 69-304 64-457 78-213 19-369 68-554 152zM204649 49231c-680-88-1359-113-2041-114-684 0-1369 40-2058 112-20 6-15 33-14 46 2 28 37 35 121 27 643-60 1285-93 1932-93 674 0 1351 21 2038 102 33 9 77-85 22-81z"/><path d="M200570 49160c683-71 1362-110 2038-110 675 0 1349 40 2025 127l31-127c-17 9-37 15-58 15-67 0-123-55-123-123s55-123 123-123c51 0 94 31 113 75l60-170c-724-84-1446-122-2171-122-729 0-1459 38-2193 107l58 164c22-32 59-54 101-54 68 0 123 55 123 123s-55 123-123 123c-12 0-25-2-36-6l33 94-2 7zm3067-416c-68 0-123 55-123 123s55 123 123 123 123-55 123-123-55-123-123-123zm0 64c-33 0-59 27-59 59s26 59 59 59c32 0 59-27 59-59s-26-59-59-59zm-1082-91c-67 0-123 55-123 123s55 123 123 123 123-55 123-123-55-123-123-123zm0 64c-32 0-59 26-59 59s26 59 59 59 59-26 59-59c0-32-26-59-59-59zm-1064-40c-68 0-123 55-123 123s55 123 123 123c67 0 123-55 123-123s-55-123-123-123zm0 64c-33 0-59 26-59 59s26 59 59 59c32 0 59-26 59-59 0-32-26-59-59-59z" fill-rule="evenodd"/></g><path d="M202601 47974c-14-68-49-129-100-175-51-47-116-78-187-88-33-4-39-58-7-68 60-20 114-67 157-133 45-69 79-157 95-256 5-34 64-35 69-1 15 84 51 153 97 208 55 66 125 112 193 138 31 12 25 63-8 68-59 9-105 42-141 87-50 62-81 145-100 221-8 33-62 31-69-2zm33-118c20-52 47-103 81-146 28-34 60-64 99-84-51-30-100-70-143-120-28-34-53-73-73-116-19 59-45 112-75 158-31 47-67 86-108 116 50 19 95 47 134 82 34 31 63 68 85 110zm799 5115l-515 206c-17 7-35 14-48-21-14-34 4-41 21-48l515-206c17-7 35-14 48 21 14 34-4 41-21 48zm59-326l-604 328c-16 9-33 18-51-15s-1-42 15-51l604-328c16-9 33-18 51 15s1 42-15 51zm-1826-65l604 328c16 9 33 18 15 51s-34 24-51 15l-604-328c-16-9-33-18-15-51s34-24 51-15zm51 322l515 206c18 7 35 14 21 48-14 35-31 28-49 21l-515-206c-17-7-34-14-21-48 14-35 31-28 48-21zm224 434c137 33 261 48 358 31 88-16 155-60 191-146v-493c-107-1-212-15-303-41-109-31-170-98-201-178-41-107-27-235-4-329 5-18 9-36 45-27s32 27 27 45c-20 82-33 194 1 284 23 60 69 110 152 133 91 25 198 38 307 38 107 0 214-13 304-40 82-24 148-69 192-123s65-117 57-176c-5-36-24-62-49-80-34-24-82-35-128-37-47-2-94 7-142 16-25 5-50 9-77 13-19 2-37 5-42-32s14-40 32-42c23-3 48-8 73-12 52-10 105-20 159-18 60 2 121 18 168 51 42 29 72 72 80 131 11 80-16 163-73 233-53 65-131 119-229 147-83 24-178 38-274 42v483c3 5 3 11 2 16 37 82 102 125 188 141 97 18 221 2 358-31 18-5 36-9 45 27 8 37-9 41-28 45-146 35-279 51-388 32-92-17-165-58-215-132-49 74-124 115-215 132-109 20-242 4-388-32-18-4-37-8-28-45 8-36 27-32 45-27zm356 210l402-9c19 0 38-1 38 37 1 38-18 38-37 38l-402 9c-19 0-37 1-38-37s18-38 37-38zm593-3082c151-125 293-227 423-297 133-72 254-111 359-106 19 1 37 1 36 39-1 37-20 37-39 36-92-4-200 32-322 97-125 67-263 166-410 289-14 12-29 24-53-5s-9-41 5-53zm-605 56c-141-130-298-240-445-314-139-71-268-108-363-100-19 2-37 4-40-34-4-37 15-39 34-40 110-10 252 31 404 107 152 77 315 191 461 325 14 13 28 25 2 53-25 27-39 15-53 2zm-213 1004c37-83 83-155 136-219 53-63 112-119 174-170 14-12 29-24 52 5 24 29 9 41-5 53-59 48-114 101-164 160-49 59-91 125-125 201-8 17-15 34-49 19s-27-32-19-49zm371-1734c49 66 88 139 114 223 26 82 40 175 39 279 5 80 6 165-7 249-13 86-42 170-97 246-43 60-101 97-165 113-53 13-109 10-164-7 29 100 51 208 6 308-8 18-33 27-51 18-43-22-86-43-128-62s-84-36-127-51l-1-1c-95-37-173-73-236-112-65-39-115-80-150-124l1 2c-44-49-72-106-88-170-14-55-20-114-22-174-72-39-138-78-194-116-64-43-118-87-161-131-13-14-26-27 1-53s40-12 53 1c39 40 89 80 150 121 60 40 128 81 204 121 124 13 247 51 370 109 106 50 211 115 317 192 13 7 19 16 27 20 8 6 16 13 25 19 51 22 104 28 152 16 47-11 90-39 122-84 48-66 72-139 84-214 12-77 11-157 6-234v-2c1-97-12-183-35-258-24-76-58-142-102-201-11-15-22-30 7-52s41-7 52 7zm-375 1047c-104-77-207-141-311-190-105-49-210-83-314-98 2 48 8 93 18 135 13 52 35 99 71 138l1 1c30 37 73 72 130 107 60 36 134 71 225 106l-1-1c45 16 89 34 133 54 31 14 61 28 93 44 19-83-10-179-37-267-2-8-5-15-9-29zm776-1003c-44 59-79 125-102 201-24 76-36 161-35 258v2c-5 77-6 158 6 234 12 75 37 148 84 214 32 45 75 72 122 84 48 12 101 6 152-16 8-6 17-13 25-19 6-4 13-12 27-20 105-77 211-143 317-192 123-58 246-95 370-109 75-40 144-80 204-121s111-81 149-121c13-13 26-27 53-1s14 39 0 53c-43 44-97 88-161 131-57 38-122 77-194 116-2 61-8 119-22 174-16 63-44 121-88 170l1-2c-35 44-85 85-150 124-63 38-141 75-237 112l-1 1c-43 15-85 32-127 51-43 19-85 40-128 62-18 9-43 0-51-18-45-100-23-208 6-308-55 18-111 20-164 7-64-15-122-53-165-113-55-76-84-160-97-246-13-85-12-169-7-249-1-104 13-196 39-279 26-84 65-158 114-223 11-15 22-30 52-7 30 22 19 37 7 52zm940 715c-105 15-209 49-314 98-104 49-207 113-311 190-4 13-6 21-8 29-27 88-56 184-37 267 31-15 62-30 93-44 44-20 87-38 133-54l-1 1c91-35 165-70 225-106 58-34 100-70 131-107l1-1c35-39 57-86 71-138 11-42 16-87 19-135z"/><path d="M203459 50602c-119 0-216 97-216 216s97 217 216 217 216-97 216-217c0-119-97-216-216-216zm0 69c-81 0-147 66-147 147s66 147 147 147 147-66 147-147-66-147-147-147zm0 60c-48 0-87 39-87 87s39 87 87 87 87-39 87-87-39-87-87-87zm-1697-124c119 0 217 97 217 216s-97 217-217 217c-119 0-216-97-216-217 0-119 97-216 216-216zm0 69c81 0 147 66 147 147s-66 147-147 147-147-66-147-147 66-147 147-147zm0 60c48 0 87 39 87 87s-39 87-87 87-87-39-87-87 39-87 87-87z" fill-rule="evenodd"/></g><use height="100%" width="100%" xlink:href="#a" transform="rotate(-2.173 -55532.79 156275.842)"/><use height="100%" width="100%" xlink:href="#a" transform="rotate(2.18 459865.852 156275.76)"/></g><path d="M328.126 101.29l-.063.02-20.493-23.42-26.944 15.442-4.544 54.546a234.548 234.548 0 0 1 38.56 6.455l13.482-53.042z" fill="#171796"/><path d="M285.94 104.648c.937-.227 1.86-.275 2.756.274.393.162.69.37.87.635.416-.322.838-.623 1.276-.88.615-.456 1.242-.858 1.918-1.084.966-.49 1.93-.78 2.896-.87 1.023-.175 2.05-.185 3.072-.124.852.05 1.677.284 2.464.737.713.354 1.424.71 2.138 1.065.754.42 1.508.8 2.262 1.118.956.378 2.03.505 3.177.548.56.02 1.112.02 1.653-.124.438-.117.71.162.228.458-3.54 2.173-6.317.24-8.685-.625a17.183 17.183 0 0 1 2.277 1.814c.9.87 1.908 1.75 3.69 2.56 1.08.493 2.256.88 3.766.893a9.454 9.454 0 0 0 1.66-.114c.3-.05.43-.02.434.135.005.107-.023.32-.202.438-.914.612-1.774.774-2.733.835-1.828.116-3.78-.483-5.567-1.442-1.43-.77-2.393-1.705-3.532-2.545-1.135-.837-2.116-1.302-3.17-1.525-1.04-.222-2.167-.197-3.116.096.284.057.524.19.67.36.49.29 1.116.416 2.025.52.472.055.325.38-.404.773-.437.565-1.007.868-1.763.795-1.042.69-1.414.273-1.763-.18a3.124 3.124 0 0 1-.25.838.644.644 0 0 1-.016.455c.168.26.25.51.193.785a.658.658 0 0 0 .233.42c.217.198.356.425.384.704.002.183.103.335.25.472.213.175.428.33.64.59.63.228.92.71 1.025 1.336.474.154.672.5.765.908.27.114.52.25.66.49.972.004 1.92.004 2.81.097.83.09 1.51.61 2.117 1.282.41.063.824.083 1.25-.013.437-.193.9-.34 1.404-.383.833-.07 1.668-.115 2.46.075.54.13.96.415 1.305.804.496.563 1.26.49 1.913.21.885-.378 1.622-.365 2.527.032.387-.15.775-.22 1.162-.18.33-.36.683-.447 1.044-.457.59-.02 1.02.07.907.827-.03.205-.152.402-.306.473-.27.584-.786.756-1.44.7-.07.403-.236.702-.5.894.3.927.013 1.3-.675 1.287-.144.268-.36.435-.726.382a1.474 1.474 0 0 1-.93.55c.04.24.142.354.314.615.467.708-.236.994-.88 1.004.166.47.186.936.128 1.404.655.397.744.814.14 1.227.442.774.27 1.343-.56 1.758-.013.433-.056.868-.344 1.11-.198.168-.48.198-.294.512.337.555.263 1.26-.235 1.28-.107-.01-.203.004-.21.173 0 .06-.05.117-.15.175-.597.32-1.157.688-1.67 1.11-.076.05-.15.087-.228.018-.374.815-1.073 1.642-1.844 2.475-.12.614-.466 1.03-1.04 1.244-.04.19-.162.3-.342.35.322.356.443.7.132 1.04-.382.416-.886.824-1.39.953-1.07.273-1.74.222-2.17-.187-.38-.363-.23-.636.01-.75-.66.053-.794-.296-.776-.762.038-.233.116-.202.35-.195.358.01.682-.184 1.02-.296a2 2 0 0 1 .517-.577c.12-.748.59-1.163 1.234-1.41.518-.196 1.014-.697 1.495-1.345l.89-1.53a1.32 1.32 0 0 1-.27-.812 1.578 1.578 0 0 1-.596-.552c-.465-.03-.658-.24-.726-.532a1.105 1.105 0 0 1-.35-.045c-.227.146-.457.275-.743.263a7.36 7.36 0 0 1-1.163.97c-.14.386-.415.54-.75.588-.957.114-1.53 1.306-2.055 1.79-.213.158-.344.437-.438.77-.047.628-.155 1.12-.5 1.13-.308-.014-.356-.047-.366-.08a1.266 1.266 0 0 0-.404.018c.258.285.3.64.06.955-.237.31-.578.405-.907.428-.682.045-1.233-.016-1.744-.223-.49-.2-.548-.49-.533-.774-.35-.167-.422-.334-.384-.5.048-.21.243-.32.488-.252.214-.1.426-.17.64-.21.616-.665 1.25-1.237 1.95-1.502a3.2 3.2 0 0 1 .725-.656c.08-.597.473-1.067.954-1.505a2.16 2.16 0 0 1 .234-.647c-.026-.13.01-.19.012-.31-.195-.363-.312-.798-.167-1.16a1.402 1.402 0 0 1-.055-.576c-1.147.683-1.5.45-1.633-.104-.42.35-.812.516-1.093.01-.408.12-.818.258-1.225.096-.266.103-.534.196-.84.217a3.26 3.26 0 0 1-.516.735c-.014.516-.194 1.032-.525 1.548a9.79 9.79 0 0 1-.744 1.653c.006.177-.02.355-.113.534.09.635-.124.944-.473 1.1a2.57 2.57 0 0 1-.446.77l-.028.253c.14.374.162.746-.218 1.12-.306.193-.632.395-.956.555-.382.187-.736.098-1.058-.018-.564-.202-.52-.4-.447-.592a.688.688 0 0 1-.556-.008c-.137-.086-.223-.174-.36-.263-.12-.22-.164-.42.132-.577.372-.164.625-.286.92-.587.1-.227.23-.4.41-.445.178-.415.396-.696.692-.772.217-.513.45-1.08.726-1.57.096-.15.167-.304.12-.474-.004-.14.006-.27.123-.35.066-.056.182-.106.035-.185a1.453 1.453 0 0 1 .175-1.232c.298-.45.632-1.538.316-2.072-.06-.297-.117-.64-.08-.92-.108-.005-.19.01-.298-.065-.243-.15-.445-.008-.63.263-.134.34-.268.638-.402.638-.127.876-.557 1.556-1.005 1.73-.103.403-.17.805-.113 1.208.045.437 0 .736-.203.786-.223.055-.43.184-.56.54-.035.1-.076.218-.078.36.308.32.215.716-.08 1.01-.67.657-1.5.56-2.377.303-.635-.25-.79-.516-.726-.787-.9-.076-.72-.766.025-.974.802-.225 1.452-.74 1.986-1.472.05-.87.25-1.463.717-1.556.046-.534.213-1.015.438-1.47.235-.412.38-.865.296-1.417-.497-.31-.52-.633-.06-.96.15-.09.134-.18-.053-.273-.303-.03-.266-.32-.245-.595-.012-.14-.085-.215-.22-.217-.672-.1-.505-.375-.217-.673.12-.137.202-.34.076-.42-.104-.066-.175-.296-.197-.498-.413-.312-.236-.63 0-.937-.233-.197-.342-.485-.375-.822-.766-.033-1.052-.422-.637-.99.175-.24.4-.47.674-.69.177-.286.346-.572.263-.857-.22-.56.483-.982 1.085-1.417a.94.94 0 0 1-.13-.44c-.34-.324-.254-.63.12-.916a1.15 1.15 0 0 1-.138-.446c-.843.167-.838-.336-.446-1.146-.488-.28-.35-.778.534-1.537.013-.174.046-.31.096-.402a2.04 2.04 0 0 0-1.067.325c-.337.22-.67.192-1.007.053a1.597 1.597 0 0 0-.445-.437.664.664 0 0 1-.236-.673c-.99.056-1.18-.678-.586-1.11.332-.264.575-.54.666-.84.268-.68.837-1.144 1.39-1.62 0-.195.044-.39.105-.587-.245-.164-.504-.283-.787-.306-.1-.253-.29-.526-.612-.68-.185-.112-.246-.215-.132-.466-.526-.47-.394-.755-.26-1.026z"/><g fill="#f7db17"><path d="M303.935 130.196c-.06.005-.12.01-.188.008a9.02 9.02 0 0 1-.845.744c-.245-.284-.61.028-.253.2-.06.043-.123.086-.184.126-.116.31-.222.44-.567.493a1.766 1.766 0 0 0-.16.03 3.152 3.152 0 0 1 .015-.38c.015-.156.04-.305.074-.452.004-.027.01-.053-.04-.065-.055-.013-.063.015-.068.043-.033.15-.06.306-.078.463-.015.14-.02.28-.015.422-.87.278-1.37 1.182-1.96 1.824-.258.22-.387.524-.48.843-.05.17-.07.946-.243.96h-.266c-.092-.143-.22-.146-.38-.01-.36-.01-.745-.012-1.066.04-.22.237.385.148.706.346.148.09.21.265.153.508-.296.706-1.948.478-2.497.187-.256-.134-.266-.29-.256-.51.114 0 .23-.006.347-.024.197-.027.392-.085.584-.194.055-.03.11-.06.05-.17-.06-.108-.116-.078-.17-.047-.16.092-.33.14-.495.163-.172.025-.35.025-.52.018-.014 0-.03-.002-.042 0-.096-.055-.17-.12-.13-.18.042-.054.2.006.23.016.257-.12.48-.194.755-.248.582-.622 1.174-1.206 1.976-1.528.24-.29.5-.517.815-.724.11-.694.447-1.063.95-1.523.06-.286.132-.49.273-.742-.03-.157-.007-.26 0-.42-.192-.364-.306-.68-.154-1.09-.094-.294-.08-.494-.046-.767a.372.372 0 0 0-.003-.154 6.643 6.643 0 0 1 .907-.613c-.023.273-.013.56.04.858l-.002.002c-.086.094-.16.185-.21.28a.566.566 0 0 0-.08.297c0 .028 0 .056.057.053.057 0 .057-.027.054-.055a.46.46 0 0 1 .066-.24 1.26 1.26 0 0 1 .195-.256.112.112 0 0 0 .02-.028c.266-.008.526-.15.787-.36.235-.19.47-.44.703-.7-.002.38-.005.76-.01 1.138a2.5 2.5 0 0 0-.574.752c-.012.025-.025.048.023.073.05.026.064 0 .074-.025.14-.276.316-.504.52-.693h.01c.057 0 .057-.027.057-.055v-.002c.035-.03.073-.06.11-.09.26-.2.553-.35.87-.472-.05.335-.072.66-.014.975.063.344.225.668.554.95.005.006.013.01.02.01zM287.41 120.572c.042-.078.15-.18.186-.172l.02-.005c.12-.223.243-.43.372-.617a4.25 4.25 0 0 1 .53-.64c.02-.02.042-.038.08 0 .038.04.017.058 0 .078a4.175 4.175 0 0 0-.52.623 6.214 6.214 0 0 0-.363.605c.038.05.055.13.035.184.038.346.084.54.238.74a.216.216 0 0 1 .053-.035c.065-.154.15-.29.258-.412.13-.147.29-.27.483-.375.13-.11.24-.22.325-.337a1.54 1.54 0 0 0 .202-.35c.01-.023.02-.05.073-.03.05.02.04.05.03.075a1.7 1.7 0 0 1-.215.374 2.134 2.134 0 0 1-.35.357s-.007.005-.01.005c-.18.1-.333.215-.455.352a1.33 1.33 0 0 0-.225.35c.08.057.116.216.04.318-.23.33-.503.526-.073.81a.678.678 0 0 0 .202.546c.1.102.09.464-.154.725-.228.23-.053.17.182.197.018.005.036.013.053.018v-.003a2.72 2.72 0 0 1 .3-.455c.108-.137.227-.266.348-.387.17-.167.304-.35.4-.534.093-.18.15-.364.16-.54.002-.03.002-.057.06-.05.056 0 .053.03.05.056-.012.192-.07.39-.172.587a2.25 2.25 0 0 1-.417.56c-.12.118-.233.24-.34.376a2.775 2.775 0 0 0-.285.437c.283.172.192.48.235.764.056.01.104.02.147.04a23.88 23.88 0 0 0 .177-.277l.262-.417c.013-.023.03-.048.074-.018.048.03.033.052.017.075l-.262.417c-.056.09-.112.175-.168.264l-.007.012c.174.142.187.4-.028.597-.423.32-.304.418.09.67.052.373.054.67-.027.987.003.008.003.018.005.028.01.104.018.21.026.314l.025.316c.002.028.005.056-.05.06-.056.006-.06-.022-.06-.05l-.027-.316c-.003-.028-.006-.053-.006-.08-.02.047-.04.098-.066.15-.283.62-.576 1.127-.64 1.822-.68.162-.58.833-.617 1.425-.536.723-1.16 1.303-2.02 1.59-.163.054-.556.15-.594.355-.005.074.264.233.436.14.475-.456.713-.203.167.263-.044.087-.01.186.085.27.493.442 1.715.586 2.272.235.412-.258.627-.542.268-.934.023-.556.24-1.1.827-1.257.068-.127.048-.362.018-.49-.055-.484.02-.914.14-1.38.02-.058.063-.106.16-.13.222-.047.65-.692.784-1.312.033-.133.053-.272.078-.41.035-.216.12-.254.228-.128.103-.14.1-.223.164-.382.228-.33.557-.596.94-.41a3.24 3.24 0 0 1-.186-.887c-.028-.37.008-.75.122-1.1.015-.054.032-.104.116-.09l.33-.788c.113-.263.224-.53.335-.792.01-.025.023-.05.073-.03.05.02.04.048.03.073l-.333.792c-.113.263-.222.523-.333.784.048.035.033.08.018.127-.1.314-.134.663-.11 1.004.026.37.117.727.254 1.018.01.027.026.055.02.083.183.106.18.132.173.374-.005.19.02.376.066.604.36.668-.016 1.786-.368 2.345-.17.27-.215.58-.144.89.216.21.075.43-.118.574-.015.05 0 .11.003.16.02.217-.058.4-.172.58-.295.533-.523 1.102-.76 1.66-.43.12-.518.37-.69.773-.25.07-.276.144-.383.374a2.89 2.89 0 0 1-.933.634c-.306.14-.01.273.205.42.194.144.45-.17.61-.408.173-.263.35-.184.236.02-.126.226-.217.55-.23.72-.066.18.628.32.747.326.422.02.953-.393 1.285-.603.275-.28.232-.527.11-.868l.003-.023a2.103 2.103 0 0 1-.51-.05 3.664 3.664 0 0 1-.595-.2c-.025-.01-.05-.02-.03-.072.02-.052.048-.042.073-.032.197.08.387.15.58.19.16.035.323.053.498.048l.028-.266c.22-.27.372-.536.49-.86.468-.22.47-.448.408-.95a.947.947 0 0 0 .12-.55c.307-.55.56-1.11.77-1.705.37-.49.547-.954.504-1.54.033-.226.116-.355.283-.348.122-.17.23-.344.33-.54.02.004.04.007.06.007a.09.09 0 0 1 0-.04 1.8 1.8 0 0 1 .11-.353.852.852 0 0 1 .153-.24.98.98 0 0 0 .076-.486 1.178 1.178 0 0 0-.166-.473.525.525 0 0 1-.124-.196c-.02-.08-.006-.157.072-.235.02-.02.04-.04.08 0 .037.04.02.06 0 .077-.047.043-.054.083-.042.124.015.05.056.105.104.16l.005.01c.097.17.162.344.18.524.02.18-.007.364-.088.55 0 .002-.01.014-.01.017a.77.77 0 0 0-.14.216c-.04.094-.076.202-.103.33-.004.006-.004.014-.006.02.26 0 .49-.082.74-.206l.016-.014c.127-.1.262-.256.373-.458.093-.17.17-.377.212-.615.005-.028.01-.053.066-.045.055.01.05.038.048.063a2.158 2.158 0 0 1-.225.65c-.086.16-.188.29-.29.39.406.123.758.004 1.142-.115-.055-.54-.048-.953.01-1.277.064-.352.182-.6.332-.787.017-.022.033-.042.078-.01.043.036.028.056.01.08-.14.174-.25.407-.308.74-.056.307-.066.7-.013 1.222.005 0 .013 0 .02-.004.162.276.248.476.58.26.12-.08.248-.16.35-.267.037-.04.024-.063.054-.096.317-.337.635-.65.952-.93.317-.28.636-.52.955-.715.023-.016.048-.03.076.017.03.048.007.06-.016.076-.314.19-.627.43-.94.703-.272.238-.542.5-.813.784.016.048.024.13.03.257.03.375.097.6.63.395.3-.114.33-.126.606-.29.134-.082.248-.15.326-.168.176-.136.348-.265.522-.382.17-.114.342-.217.51-.308.03-.203.075-.4.14-.59.165-.486.44-.936.787-1.36l.018-.016a2.61 2.61 0 0 0 .71-.552c.19-.21.333-.445.44-.7.01-.026.02-.05.072-.03.05.02.04.047.03.072a2.64 2.64 0 0 1-.456.732c-.195.217-.435.41-.734.57-.336.416-.604.85-.76 1.32-.057.164-.1.33-.125.505.01.003.02.013.03.033.026.05 0 .064-.022.074a.072.072 0 0 0-.023.012c-.033.274-.026.562.025.86.235-.007.473-.14.714-.333.253-.206.514-.492.772-.783.002-.007.002-.012.01-.017.063-.21.144-.39.25-.538a1.02 1.02 0 0 1 .425-.35c.026-.01.05-.022.074.03.02.052-.002.062-.03.075a.92.92 0 0 0-.38.31c-.1.143-.18.32-.24.522-.002.393-.007.79-.01 1.182.013-.01.028-.02.04-.033a3.61 3.61 0 0 1 .988-.524c.036-.016.08.02.072.06-.056.355-.086.706-.028 1.03.056.304.192.587.466.84a2.968 2.968 0 0 1 .498-.658 4.33 4.33 0 0 1 .334-.304c.082-.074.163-.15.24-.226.083-.073.164-.15.245-.225.02-.02.04-.038.08.003.037.04.016.06-.004.078l-.24.225-.244.226-.002.002a3.322 3.322 0 0 0-.3.267l.014.31c.002.055.002.11.005.166.233.064.372.067.61.06.078.47.12.543.526.553a3.464 3.464 0 0 1 .014-.488 2.1 2.1 0 0 1 .122-.526c.01-.026.02-.05.07-.033.054.02.043.045.033.07-.06.158-.097.324-.117.5a3.31 3.31 0 0 0-.015.477h.033c.163.334.355.5.7.648a1.84 1.84 0 0 0 .21-.455c.05-.17.07-.34.06-.51 0-.027 0-.055.053-.057.055-.002.058.024.06.05a1.51 1.51 0 0 1-.065.548 2.024 2.024 0 0 1-.266.54c-.01.016-.02.032-.037.032.015.194.048.34.116.485.05-.108.104-.217.165-.318a1.83 1.83 0 0 1 .296-.395c.02-.02.04-.038.08 0 .037.038.02.058 0 .078a1.85 1.85 0 0 0-.28.372 4.66 4.66 0 0 0-.194.387c.038.064.086.13.142.206-.648 1.11-1.34 2.65-2.62 3.155-.66.26-.947.598-1.08 1.304a2.27 2.27 0 0 0-.586.655c-.43.143-.814.36-1.28.34 0 .3.1.43.4.433.575-.288.704-.34.755-.3.07.06-.08.472-.557.806-.073.045-.07.073-.028.15.402.63 1.457.403 2.024.254.405-.106 1.136-.587 1.34-.992.077-.187-.1-.427-.277-.625-.81.124-.656-.652.04-.33.235-.07.265-.072.33-.333.62-.24.878-.5 1.02-1.166.624-.674 1.252-1.367 1.702-2.174.125-.152.198-.42.163-.56.11-.13.172-.298.212-.45.04-.162.066-.32.06-.483 0-.027 0-.055.054-.057.056-.003.056.025.058.053a1.88 1.88 0 0 1-.063.514 4.12 4.12 0 0 1-.13.394c.042.102.062.17.15.145.542-.436 1.088-.74 1.673-1.104.04-.247.2-.37.445-.38.1.003.134-.027.17-.118.136-.343-.036-.578-.2-.86-.152-.424.12-.525.39-.727.283-.21.262-.766.273-1.087h.002c-.01-.053-.02-.11-.033-.165a2.8 2.8 0 0 0-.096-.34c-.01-.026-.02-.054.032-.072.054-.018.062.008.072.035.043.125.076.24.1.356l.03.134c.27-.14.553-.3.66-.602.093-.334-.09-.65-.25-.934a10.213 10.213 0 0 1-.635.273c-.028.01-.053.02-.073-.03-.02-.052.005-.064.03-.072a10.91 10.91 0 0 0 .734-.324c.12-.08.245-.166.334-.28.195-.28-.33-.533-.51-.647v-.023c-.262-.24-.522-.483-.786-.724-.02-.018-.04-.04-.002-.08s.058-.022.078-.002l.73.668c.04-.412.045-.807-.084-1.217-.042-.132-.09-.26-.136-.39a1.192 1.192 0 0 1-.51-.425 1.107 1.107 0 0 1-.17-.53c-.003-.027-.003-.055.053-.06.056-.002.056.026.06.053a.976.976 0 0 0 .15.476c.094.143.235.27.44.373.22.114.683.056.95-.073.373-.21-.112-.635-.226-.885-.08-.18-.1-.365-.135-.557.033-.005.066-.013.1-.018a1.066 1.066 0 0 0-.148-.157.643.643 0 0 0-.2-.12c-.025-.01-.053-.02-.033-.072.018-.052.046-.042.07-.032a.76.76 0 0 1 .236.142c.07.06.136.134.2.22a1.64 1.64 0 0 0 .108-.02c.367-.074.57-.28.792-.542a3.84 3.84 0 0 0-.4-.412c-.15-.133-.3-.26-.455-.384-.02-.017-.043-.035-.008-.078.036-.043.056-.025.08-.008.156.127.312.256.46.39.148.137.29.28.42.438.012.015.024.03.014.05.34.03.394-.038.564-.34a1.634 1.634 0 0 0-.202-.436 2.67 2.67 0 0 0-.336-.413c-.02-.02-.038-.04 0-.08.04-.037.06-.017.08 0 .13.137.252.282.348.43.096.148.17.3.215.464.156 0 .325.01.46-.07.293-.177.045-.804-.03-1.047.004-.002.006-.005.01-.01a2.948 2.948 0 0 0-.116-.073c-.068-.043-.14-.086-.207-.132-.023-.015-.046-.03-.018-.076.03-.048.052-.033.075-.018l.207.13.153.097.068-.052c.216-.172.292-.4.358-.638.1-.364.123-.202.548-.265.458-.07.705-.12.976-.657.143-.07.216-.132.242-.306.045-.316.02-.478-.342-.506-.506-.04-.815.062-1.156.396.045.068.09.14.136.207.016.022.03.045-.015.077s-.06.01-.077-.014c-.044-.066-.087-.13-.13-.197-.46-.047-.83.027-1.26.19a2.095 2.095 0 0 0-.13-.054c.092.12.163.237.216.35.073.163.11.317.116.464 0 .028.002.056-.053.058-.056.003-.056-.025-.06-.053a1.106 1.106 0 0 0-.105-.42 1.966 1.966 0 0 0-.32-.474v-.003a2.797 2.797 0 0 0-1.026-.187c.055.056.113.11.17.164l.216.213c.02.02.04.038 0 .078-.038.04-.058.02-.078 0a8.744 8.744 0 0 1-.218-.21 14.575 14.575 0 0 1-.237-.237 2.99 2.99 0 0 0-.91.236 3.055 3.055 0 0 1-.62.19c.153.145.282.31.383.497.107.193.188.406.24.64.006.03.013.054-.04.067-.053.012-.06-.015-.066-.04-.05-.226-.13-.43-.23-.613a2.02 2.02 0 0 0-.377-.485c-.015-.012-.028-.028-.023-.048a1.9 1.9 0 0 1-.56.003l.224.372c.013.025.023.05-.025.073-.05.023-.064 0-.074-.025l-.207-.435a1.544 1.544 0 0 1-.507-.2c.053.2.093.415.124.642.04.3.066.623.073.962 0 .027.002.054-.054.054s-.056-.027-.056-.053a8.38 8.38 0 0 0-.07-.947 5.017 5.017 0 0 0-.16-.76 1.774 1.774 0 0 1-.228-.212 2.242 2.242 0 0 0-.607-.472 1.013 1.013 0 0 1-.223.777c-.017.023-.032.044-.078.01-.043-.035-.028-.055-.01-.078a.903.903 0 0 0 .187-.77 3.34 3.34 0 0 0-1.12-.27c.105.14.206.278.3.422.104.166.2.335.286.51a.87.87 0 0 1 .288.455c.046.17.056.352.064.537 0 .028.002.055-.054.058-.055.003-.055-.025-.058-.053a2.227 2.227 0 0 0-.058-.51.763.763 0 0 0-.258-.41.095.095 0 0 1-.016-.016 6.335 6.335 0 0 0-.286-.51 4.922 4.922 0 0 0-.352-.484l-.005-.006a5.335 5.335 0 0 0-.4-.007c.023.03.046.06.066.093.048.08.08.165.09.264.003.027.006.055-.05.06-.055.005-.058-.022-.06-.05a.532.532 0 0 0-.076-.218.72.72 0 0 0-.12-.147c-.28.007-.554.03-.82.052.278.357.5.727.673 1.106.192.423.32.858.395 1.308.005.03.01.057-.046.064-.053.01-.058-.018-.063-.046a5.15 5.15 0 0 0-.39-1.28 5.467 5.467 0 0 0-.705-1.14h-.04a3.67 3.67 0 0 0-.64.125 2.094 2.094 0 0 1 .485.41c.016.02.034.04-.01.076-.042.035-.06.015-.077-.008a1.68 1.68 0 0 0-.223-.223 2.565 2.565 0 0 0-.32-.218 5.1 5.1 0 0 0-.328.118c-.06.023-.12.046-.18.064.188.134.367.28.54.445.207.2.402.424.576.685.016.022.03.045-.015.076-.045.03-.06.007-.078-.016a4.052 4.052 0 0 0-.56-.668 4.983 4.983 0 0 0-.602-.488 2.74 2.74 0 0 1-.688.056c.142.28.266.564.36.85.1.31.172.62.194.936 0 .027.003.055-.05.06-.058.005-.06-.023-.063-.05a3.77 3.77 0 0 0-.19-.912c-.1-.3-.232-.597-.382-.89-.14-.01-.28-.028-.422-.046.08.258.152.524.212.795.07.318.13.645.172.976.003.028.005.056-.048.063-.056.008-.06-.02-.064-.048-.04-.328-.1-.652-.17-.966a9.906 9.906 0 0 0-.235-.865c-.4-.433-.84-.855-1.383-1.08a1.82 1.82 0 0 1 .4 1.2c0 .025-.002.053-.055.05-.055 0-.055-.03-.053-.055a1.744 1.744 0 0 0-.13-.713 1.79 1.79 0 0 0-.375-.563 2.085 2.085 0 0 0-.382-.076 16.68 16.68 0 0 0-1.068-.07c.273.248.488.476.468.75-.002.03-.005.057-.06.05-.056-.003-.054-.03-.05-.06.017-.254-.236-.484-.533-.747-.21-.008-.426-.01-.64-.013.118.12.22.24.3.358.11.162.19.324.228.485v.008c.022.253.083.473.194.655.11.18.266.32.48.417.026.014.052.024.03.075-.024.05-.05.04-.074.027a1.168 1.168 0 0 1-.53-.46 1.606 1.606 0 0 1-.21-.693 1.34 1.34 0 0 0-.21-.446c-.095-.14-.22-.28-.366-.422l-.71-.002c.098.28.166.57.214.863.056.36.08.727.09 1.1 0 .027 0 .055-.057.055s-.058-.028-.058-.053a7.625 7.625 0 0 0-.086-1.083 4.91 4.91 0 0 0-.222-.882h-.066a1.07 1.07 0 0 0-.522-.468c-.003.026-.005.05-.013.074a.644.644 0 0 1-.1.227c-.016.024-.034.047-.08.017-.045-.03-.03-.054-.015-.076a.528.528 0 0 0 .096-.288l-.113-.048c-.113-.475-.22-.673-.6-.835-.002.13-.01.268-.034.407-.03.172-.086.346-.19.513-.015.023-.03.048-.076.018-.048-.03-.033-.052-.018-.075a1.3 1.3 0 0 0 .175-.473 2.51 2.51 0 0 0 .032-.434l-.067-.022c-.1-.666-.223-1.038-.913-1.3a1.9 1.9 0 0 1 .005.262c-.008.15-.036.3-.097.458-.01.025-.02.053-.07.033-.05-.02-.04-.046-.032-.07.055-.146.08-.288.088-.427a2.03 2.03 0 0 0-.02-.39c-.147-.168-.357-.327-.536-.504a2.53 2.53 0 0 1-.096.732c-.084.295-.22.594-.413.89-.015.023-.03.048-.076.018-.048-.03-.033-.054-.017-.076a3.27 3.27 0 0 0 .4-.86c.078-.274.106-.55.085-.825a1.11 1.11 0 0 1-.19-.28l-.015.036-.08.182c-.013.025-.023.05-.074.03-.05-.022-.04-.048-.03-.073.028-.06.053-.122.08-.182l.064-.146c-.005-.03-.01-.06-.013-.094-.023-.212-.136-.377-.29-.516l-.003-.002a1.582 1.582 0 0 1-.267.51c-.018.02-.033.04-.08.008-.042-.035-.024-.055-.01-.078.077-.096.135-.192.18-.286.04-.08.066-.163.087-.246-.07-.083-.12-.17-.16-.262a.85.85 0 0 1-.108.182c-.053.07-.12.14-.207.21-.02.017-.043.035-.078-.008-.036-.043-.013-.06.007-.078.08-.064.14-.127.187-.19a.693.693 0 0 0 .106-.187c.036-.1.048-.035.015-.194.06-.314-.057-.5-.224-.762a.076.076 0 0 1 .01-.02.952.952 0 0 0-.336.09c-.15.064-.315.163-.487.282-.023.015-.046.03-.076-.015-.033-.045-.01-.06.015-.075.18-.12.35-.222.504-.29a.96.96 0 0 1 .425-.1.394.394 0 0 0 .014-.242c-.506.188-.905.276-1.227.296a1.75 1.75 0 0 1-.81-.124c-.024-.012-.05-.022-.027-.073.02-.05.047-.04.072-.03.2.086.44.136.76.116.316-.02.705-.107 1.206-.294-.002-.005-.002-.01-.005-.015.09-.202.165-.4.215-.597a1.82 1.82 0 0 1-.534.04h-.035c-.03 0-.058-.002-.058-.055 0-.055.03-.055.056-.055h.034c.188.002.375.007.56-.054.012-.066.022-.13.032-.198.028-.22.286-.273.468-.076.152.162.29.334.44.405.304.145.646.016.89-.18l-.224-.075c-.028-.008-.053-.018-.035-.07.017-.052.043-.044.068-.034.097.03.193.06.29.094a.874.874 0 0 0 .066-.07c.628.054 1.035-.077 1.437-.482a7.394 7.394 0 0 1-.95-.033c-.305-.036-.555-.097-.74-.188-.025-.013-.05-.026-.025-.074.024-.05.05-.038.072-.025.172.085.413.143.704.176a7.45 7.45 0 0 0 1.042.03h.005l.11-.13c.17-.07.344-.15.47-.29-.73-.08-1.427-.223-2.082-.565-.17-.19-.438-.296-.723-.37-.532-.065-1.002.067-1.435.292-.114-.106-.202-.202-.314-.306-.167-.02-.324-.11-.49-.13-.223-.024-.456.02-.68-.006-.026 0-.054-.004-.047-.06.005-.055.033-.053.06-.048.224.026.456-.017.68.008.214.025.42.12.634.144.72-.27 1.313-.42 1.827-.397a6.064 6.064 0 0 1 1.845-.232l-.023-.02c-.073-.073-.038-.11 0-.147.337-.34.415-.654.307-.937-.113-.295-.416-.57-.84-.824-.45.05-.882-.07-1.36-.018-.3.032-.592.097-.88.193.24.086.45.228.62.43.214.25.366.593.447 1.023.01.05.018.103-.083.12-.1.02-.112-.032-.122-.082-.073-.393-.21-.7-.4-.926-.2-.286-.657-.398-.8-.456-.48.048-.95.1-1.36.208-.31.078-.58.187-.787.35.31-.067.63-.054.908.085.266.13.49.38.633.782.018.047.033.097-.066.13-.098.033-.115-.015-.13-.066-.12-.346-.307-.554-.527-.662-.437-.218-1.34-.028-1.723.255a4.515 4.515 0 0 0-.665.633c-.04.048-.084.093-.177.012-.094-.083-.053-.13-.01-.174.23-.26.463-.49.703-.668.235-.172.475-.296.723-.354.253-.28.628-.45 1.06-.562.423-.11.906-.165 1.397-.213-.145-.29-.33-.465-.543-.56-.227-.1-.488-.115-.77-.087-.59.202-1.115.518-1.618.875.044 0 .09 0 .132.003.15.01.283-.012.407.036.047.018.1.035.063.134-.043.118-.37.045-.484.037-.13-.008-.27.003-.428.04-.023.006-.048.013-.07.006-.616.38-1.056.764-1.567 1.196l-.086.03c-.456-.02-.77.044-.957.186-.17.13-.183.33-.15.605-.078.256-.177.537-.202.835-.533.458-1.127.916-1.403 1.584-.06.194-.165.366-.294.52.11.02.198.05.266.104a.42.42 0 0 1 .067.066 2.46 2.46 0 0 1 .058-.336c.038-.156.094-.3.167-.417.016-.023.03-.046.076-.015.047.03.032.053.017.076-.068.103-.12.238-.154.384a2.65 2.65 0 0 0-.07.544c-.003.056-.104.06-.11.005a.306.306 0 0 0-.12-.213.556.556 0 0 0-.29-.09 3.357 3.357 0 0 1-.37.338c-.106.086-.207.18-.23.32-.015.242.283.285.567.303.645.037.13.404.486.726.172.12.33.258.452.427.246.09.398.07.565-.006.034-.438-.004-.66.188-.66h.02a.82.82 0 0 1 .192-.413c.018-.02.036-.042.08-.007.042.036.024.056.006.08a.862.862 0 0 0-.13.216.8.8 0 0 0-.044.18c.033.067.025.196.023.427.366-.18.7-.226 1.075-.243.7-.82 1-.613.384-.016-.035.07-.068.13-.098.188a1.502 1.502 0 0 0-.198.642c-.18.157-1.06.88-.73 1.15.23-.034.374-.024.285.148-.11.23-.438.71-.33.972.042.096.183.086.323.053l.03-.027a6.37 6.37 0 0 0 .7-.653c.226-.246.436-.527.605-.848.025-.046.048-.09.114-.074a9.68 9.68 0 0 1 .24-.756c.094-.26.2-.524.314-.787a.056.056 0 0 1 .096-.01c.096.14.19.24.283.306a.42.42 0 0 0 .248.09c.08 0 .165-.027.248-.083.09-.063.182-.16.276-.29.014-.024.032-.046.077-.013.046.032.03.053.013.078a1.24 1.24 0 0 1-.305.317.522.522 0 0 1-.31.103.538.538 0 0 1-.312-.11 1.21 1.21 0 0 1-.253-.256c-.1.23-.19.46-.273.69a10.02 10.02 0 0 0-.246.77c.06.048.035.093.01.14a4.416 4.416 0 0 1-.64.897c-.192.214-.397.4-.597.57.028.188.076.365.162.547.382-.33.738-.662 1.052-1.006a6.38 6.38 0 0 0 .802-1.075c.014-.024.027-.05.075-.02.048.026.033.052.02.074a6.05 6.05 0 0 1-.374.565c.026.037.006.052-.014.07-.04.032-.064.164-.074.333-.014.23 0 .515.027.72 0 .028.006.056-.05.064-.056.007-.06-.02-.064-.048a4.468 4.468 0 0 1-.028-.743c.003-.06.01-.116.018-.167-.083.1-.17.198-.258.296-.32.352-.683.69-1.073 1.025-.002.004-.007.006-.01.01.01.02.023.04.036.06-.34.245-.614.33-.235.66.127-.09.253-.183.38-.274l.405-.29c.02-.016.044-.033.077.012.033.046.01.06-.013.08l-.407.29c-.13.093-.26.187-.392.28a.665.665 0 0 0 .096.387.564.564 0 0 1 .086-.007c.283-.205.566-.413.85-.618.022-.017.045-.032.078.013.033.046.01.06-.012.08l-.824.598a.762.762 0 0 1-.1.128c-.277.2-1.25.8-1.145 1.214v.002c.234-.066.466-.147.69-.26.23-.12.455-.28.667-.497.02-.02.038-.038.078 0 .038.038.02.058 0 .08a2.73 2.73 0 0 1-.693.512v.01c-.002.037-.002.075-.005.113-.002.04-.002.077-.005.115-.002.028-.002.056-.058.053-.056 0-.053-.03-.053-.057l.006-.114c.002-.02.002-.044.002-.064-.197.09-.397.16-.6.215.084.393-.12.73-.33 1.066-.12.096-1.09.883-.686 1.118.11.054.23.08.35.092zM287.85 106.887c-.204-.12-.464-.27-.717-.32a1.54 1.54 0 0 0-.54-.6c-.186-.122-.186-.112-.115-.246.212-.02.3-.08.303-.137.113.002.21.018.29.046.094.03.165.08.216.15.017.02.033.043.078.01.046-.035.028-.058.01-.08a.58.58 0 0 0-.268-.188 1.092 1.092 0 0 0-.395-.05c-.01 0-.02 0-.032.006a.793.793 0 0 0-.354-.058c-.144-.137-.265-.296-.207-.494.007.008.02.01.033.013.112.032.22.065.31.11a.603.603 0 0 1 .212.14c.018.02.038.04.08.002.04-.038.022-.058.004-.08a.794.794 0 0 0-.248-.168 1.903 1.903 0 0 0-.24-.09c.834-.168 1.58-.156 2.327.287.392.16.577.35.79.638l-.213.18c-.488-.013-.848.055-1.073.227-.204.152-.245.425-.25.698z"/></g><path d="M304.446 129.99c-.165.103-.3.173-.468.2a.077.077 0 0 0 .02-.02c.11-.204.235-.384.377-.545l.055-.064.008.205.008.23zm2.092 4.48c-.11.166-.248.318-.402.457a4.26 4.26 0 0 1-.51.388c-.022.015-.047.03-.077-.016-.033-.047-.01-.06.013-.078.177-.116.344-.242.496-.377.15-.134.28-.278.383-.437.015-.024.03-.047.08-.016.044.03.03.053.014.076zm1.384-1.65l-.21.32c-.015.024-.03.047-.08.016-.044-.03-.03-.053-.014-.075l.21-.32c.015-.023.03-.045.08-.015.044.03.03.053.014.078zm-.754-.106c-.036.16-.094.31-.195.45-.1.14-.25.263-.465.362-.026.012-.05.023-.074-.028-.023-.05.003-.063.028-.073.197-.09.33-.203.423-.327.093-.124.144-.263.177-.41.005-.027.012-.053.065-.04.054.013.048.038.04.066zm1.356-1.654a.998.998 0 0 0-.147.19c-.04.07-.078.146-.106.232-.01.025-.016.053-.07.035-.052-.018-.044-.046-.034-.07a1.213 1.213 0 0 1 .278-.464c.02-.02.038-.038.078 0s.022.058 0 .08zm1.108.108c-.048.157-.094.316-.152.473-.058.164-.13.323-.22.483-.015.022-.028.048-.076.02s-.035-.053-.02-.076c.09-.154.154-.31.213-.46.055-.155.1-.312.15-.47.006-.026.014-.052.067-.036.053.016.046.04.038.07zm-.502-6.485c.343.506.42 1.028.43 1.55.04-.188.082-.38.135-.57 0-.003.008-.018.008-.018.144-.203.235-.405.28-.605.046-.2.046-.402.01-.602-.004-.028-.01-.053.046-.063.052-.01.06.018.064.045.038.215.038.433-.01.648a1.792 1.792 0 0 1-.29.638 14.13 14.13 0 0 0-.23 1.06l-.01.065c-.01.056-.113.048-.113-.01 0-.04 0-.076.004-.117.008-.66.015-1.323-.412-1.95-.016-.023-.033-.046.015-.08.045-.03.063-.006.078.017zm-.844 1.087c-.005.042-.007.085-.013.125-.002.043-.007.086-.01.13-.002.027-.005.055-.06.05-.056-.005-.053-.033-.05-.06.002-.044.007-.087.01-.127.002-.043.007-.086.012-.13.002-.027.005-.055.06-.05.056.005.054.033.05.06zm-.236 1.47c.087.282.153.568.2.86.034.2.054.404.064.61a1.05 1.05 0 0 1 .076-.108 1.26 1.26 0 0 1 .357-.296c.022-.015.048-.027.076.02.027.05.005.064-.02.077a1.118 1.118 0 0 0-.325.27.75.75 0 0 0-.156.344c-.01.056-.112.046-.112-.01.003-.303-.023-.6-.068-.888a6.302 6.302 0 0 0-.195-.847c-.007-.028-.018-.053.036-.068.053-.015.06.01.068.035zm1.175.528a3.804 3.804 0 0 1 .068 1.27c-.002.027-.008.055-.063.048-.056-.008-.05-.036-.048-.064.023-.19.03-.387.02-.594a3.846 3.846 0 0 0-.086-.638c-.005-.028-.013-.053.043-.065.05-.013.06.015.064.043zm1.007-.188c.038.208.058.41.048.605-.01.197-.048.385-.13.567a1.27 1.27 0 0 0-.037.622c.035.213.116.425.212.64.013.025.023.05-.028.074-.05.022-.063-.003-.073-.028a2.71 2.71 0 0 1-.223-.666 1.385 1.385 0 0 1 .045-.68l.003-.005a1.45 1.45 0 0 0 .12-.53 2.32 2.32 0 0 0-.05-.58c-.004-.028-.01-.054.046-.064.056-.01.06.018.066.046zm.485-1.67c-.025.104-.05.21-.078.317l-.08.316c-.005.028-.013.053-.066.04-.053-.012-.048-.04-.04-.068.025-.104.05-.21.078-.316.025-.106.05-.21.078-.318.01-.028.014-.053.07-.04.053.012.048.04.04.068zm-.497-2.772c.03.096.057.192.088.288.007.028.015.053-.038.068-.053.018-.06-.01-.07-.035l-.087-.29c-.01-.028-.018-.054.035-.07.053-.014.06.01.07.037zm.255-2.108c.002.132.002.263-.008.827a.826.826 0 0 0-.25.408 1.46 1.46 0 0 0-.008.625c.003.028.01.055-.048.065-.055.01-.06-.017-.065-.045a1.52 1.52 0 0 1 .01-.673.92.92 0 0 1 .283-.46l-.022-.352c-.002-.132-.002-.263-.005-.392 0-.028 0-.056.056-.056.054 0 .054.028.054.056zm-2.093-.734c.324.213.602.448.795.727.195.28.306.602.293.98a.057.057 0 0 1-.078.05c-.182-.08-.367-.158-.55-.236.122.787.092 1.414-.08 1.895a1.71 1.71 0 0 1-1 1.052.055.055 0 0 1-.073-.068c.092-.298.147-.597.17-.896.023-.298.01-.597-.04-.893-.005-.027-.01-.055.045-.063.056-.01.06.018.063.046.05.306.065.614.04.92a4.1 4.1 0 0 1-.142.805c.392-.192.67-.5.828-.938.172-.484.197-1.126.06-1.94-.007-.044.038-.08.076-.062l.564.243a1.468 1.468 0 0 0-.273-.832c-.184-.266-.45-.49-.763-.696-.024-.015-.047-.03-.016-.078.03-.046.054-.03.077-.016zm5.478-1.076l-.046.107-.043.11c-.01.025-.02.05-.07.03-.05-.02-.04-.046-.03-.07.016-.037.03-.075.047-.11.015-.035.027-.073.043-.11.01-.024.02-.05.07-.03.05.02.04.046.03.072zm-1.288-.03a.78.78 0 0 1 .263.173c.07.068.124.15.17.238.012.027.025.05-.023.075-.05.025-.063 0-.074-.023a.832.832 0 0 0-.15-.21.632.632 0 0 0-.227-.145c-.023-.01-.05-.02-.03-.07.02-.052.048-.042.073-.032zm-1.912.55c.138.154.23.334.278.54.048.2.055.42.03.66-.003.027-.005.055-.06.05-.056-.005-.054-.033-.05-.06a1.872 1.872 0 0 0-.027-.626 1.103 1.103 0 0 0-.25-.488c-.018-.02-.04-.04.004-.08.04-.037.06-.014.08.006zm-6.465.622l-.023.218a6.966 6.966 0 0 0-.02.217c-.002.028-.005.056-.06.05-.056-.004-.054-.032-.05-.06.01-.073.017-.146.022-.217l.022-.218c.003-.028.005-.056.06-.05.057.005.054.032.052.06zm1.2-.632c.03.103.06.207.093.31l.028.095c.007.027.015.053-.038.068-.053.015-.06-.01-.068-.038l-.028-.094a14.53 14.53 0 0 0-.094-.31c-.007-.024-.015-.052.038-.067.053-.015.06.01.068.038zm2.46 1.652c.01.045.02.09.02.134a1 1 0 0 1 0 .134c0 .028-.004.056-.06.05-.055-.004-.053-.032-.05-.06a.893.893 0 0 0 0-.117.59.59 0 0 0-.02-.116c-.01-.028-.015-.053.038-.068.053-.017.06.01.068.04zm.845-1.872a.36.36 0 0 1 .102.167.25.25 0 0 1-.025.18c-.013.025-.028.05-.076.022-.046-.027-.033-.053-.02-.078a.15.15 0 0 0 .014-.104.267.267 0 0 0-.07-.117c-.02-.02-.038-.037 0-.077.038-.038.058-.02.078 0zm-5.87.296c0 .13.022.258.065.374.043.12.11.23.207.334.13.147.195.29.23.438.036.144.038.286.046.425 0 .028.002.055-.053.058-.056.002-.056-.025-.058-.053a2.18 2.18 0 0 0-.04-.405.92.92 0 0 0-.206-.392 1.126 1.126 0 0 1-.23-.37 1.202 1.202 0 0 1-.07-.414c0-.026 0-.054.057-.054.055 0 .055.028.055.056zm2.377 1.6c.132.244.205.484.233.727.03.24.015.486-.028.742-.048.296.015.584.177.855.147.253.383.493.686.716a3.052 3.052 0 0 1-.136-.96 1.79 1.79 0 0 1 .383-1.047 1.5 1.5 0 0 0 .232-.44c.054-.15.08-.3.102-.447.002-.028.007-.056.06-.048.056.005.05.033.048.06-.02.157-.05.314-.103.47a1.624 1.624 0 0 1-.25.47c-.24.313-.345.642-.36.983-.015.346.06.705.177 1.075.013.048-.045.088-.085.063-.382-.258-.673-.542-.853-.843a1.34 1.34 0 0 1-.19-.928c.04-.246.053-.48.026-.71a1.93 1.93 0 0 0-.222-.69c-.012-.022-.027-.047.023-.073.05-.027.063-.002.076.023zm-.954 1.458c0 .264-.073.527-.205.79-.103.207-.24.412-.402.617a3.22 3.22 0 0 0 .253-.104 2.36 2.36 0 0 0 .744-.53c.104-.108.208-.232.314-.378.014-.023.032-.046.078-.013.045.033.027.056.012.078a3.83 3.83 0 0 1-.324.39 2.65 2.65 0 0 1-.288.258 26.134 26.134 0 0 1 .073.365c.004.028.012.053-.044.066-.053.014-.06-.014-.065-.042-.017-.078-.027-.137-.04-.195-.007-.04-.015-.08-.025-.12a2.523 2.523 0 0 1-.395.224c-.152.07-.3.124-.45.18-.048.017-.094-.048-.06-.09a3.89 3.89 0 0 0 .515-.753c.124-.248.195-.493.195-.74 0-.026 0-.054.056-.054.055 0 .055.027.055.054zm-1.16-.094v.25c0 .03 0 .057-.057.057-.055 0-.055-.028-.055-.056v-.25c0-.026 0-.054.057-.054s.056.028.056.056zM302.363 121.35c.152.37.193.717.135 1.04-.056.325-.21.626-.44.91l-.008.007c-.22.19-.385.418-.506.673a2.79 2.79 0 0 0-.195.552c.06-.084.12-.162.193-.236.144-.146.316-.26.544-.323.232-.13.453-.27.657-.43.208-.162.4-.34.577-.54.02-.02.04-.04.08-.005.04.036.02.056.005.08-.182.204-.38.386-.592.55a5.12 5.12 0 0 1-.678.443l-.013.007a1.095 1.095 0 0 0-.5.296c-.135.134-.24.3-.345.473-.028.046-.11.016-.1-.038.055-.313.138-.61.264-.877.128-.27.3-.505.533-.705.217-.27.362-.552.415-.855.052-.305.014-.63-.13-.983-.01-.025-.02-.05.03-.073.05-.02.063.005.073.03zm2.36 3.784c-.035.1.04.195.188.387l.103.133c.2.266.274.567.28.883.004.31-.055.63-.115.942-.01.053-.1.05-.11-.003a1.91 1.91 0 0 0-.41-.918 3.663 3.663 0 0 0-.844-.74c-.023-.014-.045-.03-.015-.078.03-.046.052-.03.075-.016.344.23.642.48.868.764.172.215.3.448.377.704.037-.22.064-.44.062-.652a1.367 1.367 0 0 0-.256-.817 3.588 3.588 0 0 0-.098-.128c-.175-.225-.258-.334-.205-.49.01-.026.017-.054.07-.037.054.018.044.046.036.07zm1.007-.066c.04.043.084.086.125.132l.124.13c.02.02.036.042-.005.08-.04.038-.06.017-.078-.003-.04-.043-.084-.086-.124-.132-.04-.043-.084-.086-.124-.13-.02-.02-.04-.042 0-.08.04-.037.06-.017.08.003zm1.235.397c-.078.248-.154.494-.23.742-.078.247-.154.493-.233.74-.007.03-.015.054-.068.036-.053-.015-.045-.043-.035-.068l.23-.74c.076-.25.152-.495.23-.743.008-.027.016-.053.07-.038.052.018.045.043.034.07zm.7 4.142a.258.258 0 0 0 0 .185c.01.025.02.053-.034.07-.05.02-.06-.005-.07-.033a.37.37 0 0 1 0-.267c.01-.028.02-.053.07-.033.055.02.045.046.035.072zm-.735-1.217c-.033.13-.068.26-.1.39l-.102.392c-.008.028-.016.053-.07.04-.052-.015-.047-.04-.04-.068.034-.132.07-.26.102-.392.033-.13.068-.26.1-.39.01-.028.014-.053.07-.04.053.012.048.04.04.068zm-1.057-.005l.096.096c.02.02.036.04 0 .08-.043.038-.063.02-.08 0l-.097-.096c-.02-.02-.038-.038 0-.078.04-.038.06-.02.08 0zm-1.243-.595c-.025.074-.05.147-.078.22-.025.074-.05.147-.08.22-.01.026-.016.054-.07.033-.05-.017-.042-.045-.032-.07.025-.074.05-.147.078-.22.025-.074.05-.147.08-.22.01-.028.016-.054.07-.036.053.018.042.045.035.07zm-1.778 1.88a.74.74 0 0 0-.147.238 1.34 1.34 0 0 0-.066.268c-.007.028-.01.056-.065.046-.056-.01-.05-.036-.046-.064.017-.098.037-.194.073-.288a.82.82 0 0 1 .167-.273c.018-.02.04-.04.08-.003.04.038.022.058.002.08zm-5.092 4.987a.708.708 0 0 1-.107.17 1.277 1.277 0 0 1-.17.164c-.02.02-.043.037-.078-.01-.036-.04-.013-.06.007-.077a.872.872 0 0 0 .246-.29c.012-.026.022-.05.073-.03.053.022.04.047.03.072zm.798-.423a.376.376 0 0 1-.108.144.654.654 0 0 1-.173.1c-.027.01-.053.02-.07-.034-.02-.053.007-.063.033-.07a.455.455 0 0 0 .14-.08.305.305 0 0 0 .077-.103c.01-.023.023-.05.073-.026.05.023.038.048.028.074zm1.058-.644a.514.514 0 0 1-.066.09.56.56 0 0 1-.114.09c-.023.016-.048.032-.076-.016-.028-.05-.005-.064.02-.076a.407.407 0 0 0 .145-.142c.015-.023.028-.048.076-.018.05.028.035.05.02.076zm1.59-4.14c-.05.15-.085.296-.097.443-.015.146-.008.293.023.437.005.028.012.054-.04.066-.054.013-.06-.015-.066-.043a1.492 1.492 0 0 1-.028-.473c.014-.157.05-.314.102-.468.01-.028.018-.053.07-.035.054.017.044.045.037.07zm1.084-11.013a.93.93 0 0 1-.096.367c-.058.12-.142.24-.25.36-.018.02-.04.04-.08.002s-.022-.06-.002-.08c.102-.11.18-.222.233-.33a.82.82 0 0 0 .084-.324c0-.028 0-.056.056-.053.056 0 .053.03.053.056zm-1.106-.977c.097.167.155.337.188.506.033.167.04.337.03.504 0 .028-.003.055-.058.053-.056-.003-.053-.03-.053-.058a1.88 1.88 0 0 0-.026-.476 1.562 1.562 0 0 0-.175-.475c-.013-.023-.03-.048.02-.076.05-.03.063-.003.075.02zm-1.464 1.817a1.613 1.613 0 0 1-.433-.445.697.697 0 0 1-.1-.466c.004-.028.01-.053.062-.045.054.01.05.037.044.065a.59.59 0 0 0 .086.392c.082.137.216.273.403.412.023.014.045.032.012.08-.032.043-.055.026-.078.01zm1.62 2.755v.24c0 .028 0 .056-.054.056-.056 0-.056-.028-.056-.056v-.24c0-.028 0-.056.056-.056.055 0 .055.028.055.056zm-2.07-2.087c.326.308.52.68.624 1.093.066.255.094.526.1.81 0 0 .006-.003.01-.003.148-.05.262-.182.34-.392.084-.223.127-.532.135-.924 0-.004.003-.027.005-.03.117-.19.187-.38.235-.57.05-.19.072-.386.09-.58.005-.05.07-.07.1-.03.19.27.358.548.487.846.13.3.215.615.248.96.002.027.005.055-.05.06-.056.005-.06-.023-.06-.05a3.1 3.1 0 0 0-.24-.924 4.13 4.13 0 0 0-.386-.7 3.092 3.092 0 0 1-.078.444 2.07 2.07 0 0 1-.24.59c-.008.4-.054.716-.14.946-.09.246-.227.397-.407.458-.018.006-.033.01-.048.004-.003.136-.01.275-.02.417-.003.03-.005.058-.06.053-.057-.005-.054-.033-.052-.06.038-.462.028-.9-.073-1.294a2.11 2.11 0 0 0-.595-1.04c-.02-.018-.04-.04-.002-.08s.058-.02.078-.002zm1.214 5.195l-.07.437c-.02.144-.044.29-.067.435-.003.028-.008.055-.063.045-.053-.007-.05-.035-.046-.063l.07-.435c.02-.15.044-.293.067-.44.005-.028.007-.053.063-.045.053.01.05.035.046.063zm-2.334.988c.02.11.04.22.062.332.005.027.01.053-.046.063-.053.01-.06-.018-.066-.046l-.06-.33c-.005-.03-.01-.054.045-.064.053-.01.06.017.063.045zm2.017-2.678c-.027.22-.083.434-.17.64a2.37 2.37 0 0 1-.37.593v.003c-.2.218-.297.443-.327.678-.03.235.002.48.068.73.007.03.013.054-.04.07-.054.012-.06-.013-.07-.04a2.018 2.018 0 0 1-.07-.773c.033-.253.14-.5.354-.736a2.204 2.204 0 0 0 .514-1.175c.003-.028.008-.056.06-.048.056.008.05.036.05.064zm-.527-.783c.04.213.006.423-.082.635-.09.205-.23.412-.413.617l-.005.003c-.19.16-.324.334-.43.514a4.385 4.385 0 0 0-.263.564c-.01.027-.02.05-.073.03-.05-.02-.04-.044-.03-.07.078-.194.16-.39.27-.58.11-.19.253-.37.45-.54a2.24 2.24 0 0 0 .39-.582 1 1 0 0 0 .076-.57c-.005-.028-.01-.053.045-.066.053-.01.06.018.066.046zm-2.572 1.223c.06.424-.005.788-.164 1.107-.157.32-.408.592-.714.838-.02.017-.043.035-.078-.01-.036-.044-.013-.06.01-.08.293-.234.534-.497.683-.798.15-.3.213-.643.154-1.045-.004-.028-.01-.056.046-.064.056-.007.06.02.064.05zm-3.286 1.818c.033.066.063.132.093.197.036.07.07.14.1.21.014.026.024.05-.024.074-.05.02-.06 0-.07-.027-.034-.07-.07-.14-.1-.21l-.096-.195c-.013-.027-.023-.052.025-.075.05-.022.063 0 .073.026zm-1.302.025c-.004.25.016.5.077.737.063.237.165.468.332.688l.003.01c.083.17.13.34.164.51.023.127.038.254.046.38.16-.17.28-.34.37-.52.1-.208.153-.423.158-.646 0-.028 0-.056.057-.053.056 0 .056.026.053.054a1.673 1.673 0 0 1-.168.69c-.11.223-.27.436-.48.64-.03.033-.09.01-.092-.037a3.47 3.47 0 0 0-.05-.49 1.94 1.94 0 0 0-.153-.477 2.07 2.07 0 0 1-.346-.723 2.885 2.885 0 0 1-.082-.766c0-.026 0-.054.056-.054s.056.028.056.056zm.176 4.45a2.807 2.807 0 0 1 .192-.816c.01-.026.02-.05.07-.03.052.02.04.045.032.07a2.695 2.695 0 0 0-.185.782c-.002.026-.002.053-.06.05-.056-.004-.054-.03-.05-.06zm-.152 1.24l.068-.493c.003-.028.008-.056.064-.048.055.008.05.035.048.063l-.07.494c0 .025-.006.053-.062.046-.056-.008-.05-.036-.048-.064zm-.854 2.077c.082-.08.16-.177.234-.283a4.64 4.64 0 0 0 .218-.352c.012-.025.028-.048.076-.022.048.028.035.05.02.076a4.1 4.1 0 0 1-.223.36 2.1 2.1 0 0 1-.248.3c-.02.02-.04.036-.078 0-.04-.04-.02-.06 0-.08zm-1.23-6.97v.205c0 .028 0 .056-.056.056s-.056-.026-.056-.054v-.205c0-.026 0-.054.056-.054.055 0 .055.028.055.055zm-2.085 4.802c-.003-.05-.005-.1-.01-.15l-.01-.156c0-.028-.003-.055.052-.058.056-.003.06.023.06.053l.01.154c0 .05.004.1.01.152 0 .028 0 .055-.054.058-.056.002-.058-.023-.058-.053zm5.235-8.542c-.107.368-.19.75-.183 1.076.005.317.094.58.32.726.267.172.383.43.495.68l.02.046c.033-.123.06-.255.073-.387a1.72 1.72 0 0 0-.005-.46c-.005-.026-.01-.054.046-.064.053-.01.06.018.063.046.023.153.023.322.006.492-.02.19-.064.382-.12.55-.015.044-.08.05-.1.006a6.347 6.347 0 0 1-.084-.182c-.104-.235-.213-.478-.453-.633-.264-.17-.368-.465-.375-.817-.005-.34.078-.73.187-1.108.007-.028.015-.053.068-.038.054.015.047.04.04.068zm-.368-1.398c.036.286.026.55-.022.815a4.277 4.277 0 0 1-.248.812 2.573 2.573 0 0 0-.178 1.065c.018.362.112.72.28 1.063.01.024.024.05-.027.072-.05.026-.063 0-.073-.025a2.708 2.708 0 0 1-.106-2.22c.11-.276.195-.534.24-.79.048-.253.058-.506.023-.78 0-.027-.006-.055.05-.062.053-.008.058.02.063.048zm-2.432 3.46a.845.845 0 0 0-.062.5c.03.17.103.343.207.516.015.022.028.048-.018.075-.048.028-.063.005-.075-.02a1.605 1.605 0 0 1-.22-.55.935.935 0 0 1 .07-.566c.013-.025.023-.05.074-.027.05.022.038.048.027.073zm-1.06-.38c.02.1.024.217.014.333-.01.1-.036.2-.076.288v.003a.424.424 0 0 0-.04.28c.02.1.07.198.138.3.015.022.03.045-.015.078-.043.033-.06.01-.076-.016a.91.91 0 0 1-.157-.34.517.517 0 0 1 .05-.353.812.812 0 0 0 .066-.25 1.18 1.18 0 0 0-.01-.3c-.005-.03-.01-.057.046-.065.054-.01.06.018.062.046zm6.2-9.18a2.474 2.474 0 0 0 .333 1.566c.016.023.028.048-.02.076-.048.028-.06.003-.076-.02-.14-.243-.245-.5-.306-.772a2.487 2.487 0 0 1-.04-.86c.004-.028.007-.056.06-.048.058.005.055.033.05.06zm-.777.752c.144.255.268.53.36.832.095.3.158.632.18 1 .004.027.004.055-.052.057-.054.003-.054-.025-.056-.053a4.024 4.024 0 0 0-.526-1.78c-.013-.026-.028-.05.02-.077.048-.028.063-.002.076.02zm-3.85.118c-.373.53-.535.96-.565 1.33-.03.37.068.68.215.965l.002.008c.102.293.147.584.14.878-.006.29-.066.584-.17.875-.01.028-.018.053-.07.033-.054-.016-.044-.044-.034-.07.104-.28.16-.56.167-.84a2.4 2.4 0 0 0-.132-.834c-.154-.3-.258-.63-.225-1.02.032-.39.2-.84.583-1.386.016-.024.033-.046.08-.016.044.033.03.056.012.078zm3.59-1.522a.784.784 0 0 1-.057.488c-.065.15-.18.29-.35.425a.865.865 0 0 0-.317.518c-.05.217-.04.468.013.75.005.027.01.054-.046.064-.053.01-.06-.017-.066-.045-.052-.297-.062-.56-.01-.79a.974.974 0 0 1 .36-.58c.152-.124.253-.253.314-.384a.677.677 0 0 0 .048-.42c-.005-.028-.012-.053.043-.066.053-.01.06.017.066.042zm-3.803.326c.073.235.075.465.007.695a1.673 1.673 0 0 1-.41.675l-.005.006c-.2.168-.32.38-.397.615a3.08 3.08 0 0 0-.12.787c-.004.03-.004.057-.06.054-.055-.002-.053-.03-.053-.058.015-.286.046-.562.127-.815a1.4 1.4 0 0 1 .425-.66c.195-.21.322-.42.385-.63a1.08 1.08 0 0 0-.007-.63c-.007-.03-.017-.055.036-.07.05-.015.06.01.066.038zm2.175.114a.814.814 0 0 0 0 .248.552.552 0 0 0 .094.227c.013.023.03.046-.017.08-.046.03-.06.01-.08-.017a.67.67 0 0 1-.11-.27.872.872 0 0 1 0-.28c.003-.03.008-.057.063-.05.056.008.05.036.048.064zm-.103-.572a.91.91 0 0 0-.46.427c-.107.2-.17.458-.19.775.012.015.02.027.02.038.106.144.18.316.225.508.05.21.068.448.06.706 0 .028-.002.056-.058.053-.057-.003-.055-.03-.055-.056a2.59 2.59 0 0 0-.058-.68 1.305 1.305 0 0 0-.192-.447c-.413.384-.615.81-.628 1.272-.015.483.175 1.01.54 1.57.014.024.03.05-.016.08s-.06.005-.075-.018c-.377-.582-.572-1.128-.557-1.634.015-.5.232-.954.68-1.364v-.004c.018-.346.086-.63.205-.852.12-.225.29-.385.516-.478.025-.01.05-.02.073.03.02.05-.005.063-.03.073zm-.618-.8c-.005.046-.01.08-.012.12-.028.262-.056.558-.256.738a.887.887 0 0 0-.233.34c-.05.128-.076.267-.093.414-.003.028-.005.056-.06.048-.057-.005-.052-.033-.05-.063a1.82 1.82 0 0 1 .102-.443.983.983 0 0 1 .26-.382c.168-.15.198-.425.22-.665.006-.046.01-.09.013-.122.003-.028.008-.056.064-.048.053.008.05.035.046.063zm6.044 6.45c.066.136.12.28.155.422.035.144.053.293.045.448 0 .027-.002.055-.058.053-.056 0-.053-.03-.053-.056a1.53 1.53 0 0 0-.04-.418 2.075 2.075 0 0 0-.15-.4c-.012-.025-.023-.05.028-.073.05-.023.06 0 .073.025zm.018 1.982c.048.23.05.46.01.694a2.43 2.43 0 0 1-.253.71l-.255.6c-.013.026-.023.05-.074.03-.05-.02-.04-.047-.03-.072.086-.2.17-.403.256-.603l.002-.007c.124-.23.205-.455.245-.678a1.7 1.7 0 0 0-.01-.652c-.005-.028-.01-.056.043-.066.053-.013.06.015.066.043zm-1.26-1.846c.362.402.597.827.71 1.275.112.446.1.916-.037 1.407-.01.028-.017.053-.07.038-.053-.015-.046-.04-.038-.068.13-.473.144-.924.035-1.354-.108-.43-.336-.84-.685-1.23-.018-.02-.036-.04.005-.078.04-.038.06-.015.078.005zm-.11 2.226a5.687 5.687 0 0 1-.927 1.412 2.69 2.69 0 0 0-.575 1.002c-.016.05-.112.033-.107-.02a1.54 1.54 0 0 0-.055-.5 1.992 1.992 0 0 0-.223-.505c-.202-.3-.288-.6-.273-.897.017-.3.136-.595.35-.89a2.77 2.77 0 0 0 .267-.626c.06-.207.09-.417.1-.627 0-.027 0-.055.057-.052.058.002.055.03.055.058a2.785 2.785 0 0 1-.384 1.305l-.002.007c-.2.28-.314.56-.33.835-.014.28.07.555.257.834l.002.002c.106.177.185.354.235.534.024.083.042.167.052.25a2.83 2.83 0 0 1 .5-.777 5.41 5.41 0 0 0 .908-1.385c.014-.025.024-.05.075-.028.05.022.038.048.027.073zm-3.303-1.062a3.08 3.08 0 0 0 .074.776c.055.24.146.466.273.673.015.023.028.048-.018.076-.048.03-.06.005-.076-.017a2.406 2.406 0 0 1-.286-.704 3.196 3.196 0 0 1-.076-.804c0-.028.003-.056.056-.053.056.002.056.03.053.055zm-1.88 1.007v.322c0 .03 0 .057-.055.057-.056 0-.056-.028-.056-.056v-.323c0-.028 0-.056.056-.056.055 0 .055.026.055.054zm.623-1.718a1.535 1.535 0 0 1-.37 1.058c-.017.02-.035.042-.078.004-.043-.037-.023-.057-.005-.08a1.37 1.37 0 0 0 .268-.47 1.46 1.46 0 0 0 .075-.514c0-.028-.002-.056.054-.056.054 0 .054.03.054.054zm-1.693 3.333c-.303-.755-.377-1.355-.3-1.843a2.1 2.1 0 0 1 .6-1.174c.2-.205.376-.407.49-.66.113-.253.167-.557.126-.967-.004-.028-.007-.055.05-.06.054-.006.054.022.06.05.04.43-.016.752-.137 1.022-.12.268-.3.48-.51.693a1.998 1.998 0 0 0-.57 1.116c-.074.47 0 1.052.295 1.788.01.026.02.05-.03.07-.05.02-.064-.004-.074-.03zm-.976-1.24a.77.77 0 0 0-.048.366c.01.12.056.245.132.37.015.022.03.047-.018.075-.048.033-.06.007-.076-.015a1.006 1.006 0 0 1-.15-.415.886.886 0 0 1 .055-.42c.01-.024.02-.05.07-.032.054.02.042.046.034.07zm4.803-3.41c.198.28.315.57.338.874.022.304-.046.617-.218.944-.013.022-.025.048-.073.022-.05-.025-.036-.05-.023-.073.162-.306.228-.6.205-.883a1.61 1.61 0 0 0-.32-.82c-.02-.022-.034-.045.012-.078.045-.033.06-.01.078.013zm1.5-1.175a2.564 2.564 0 0 1 .075 1.783c-.015.05-.106.04-.11-.015a1.905 1.905 0 0 0-.17-.75 1.626 1.626 0 0 0-.46-.57c-.02-.018-.042-.036-.007-.08.036-.042.056-.024.08-.006.214.172.376.374.487.61.068.143.12.3.15.467.032-.184.047-.37.04-.554a2.4 2.4 0 0 0-.187-.845c-.01-.025-.02-.05.03-.073.05-.02.063.005.073.03zm.89-1.217c.197.195.336.453.422.77.083.315.114.685.1 1.107v.003c-.022.18-.03.354-.01.516.02.16.064.306.148.437.015.025.03.05-.015.08-.048.03-.064.006-.08-.017a1.133 1.133 0 0 1-.163-.486 2.434 2.434 0 0 1 .007-.54 3.755 3.755 0 0 0-.095-1.07c-.08-.3-.21-.54-.392-.722-.02-.02-.04-.038 0-.08.037-.04.058-.02.078 0zm-2.364-.235c-.13.156-.207.34-.245.546-.036.205-.03.433.007.68.005.03.01.054-.045.064-.053.01-.058-.017-.063-.045a2.16 2.16 0 0 1-.006-.72c.04-.225.13-.425.268-.6.018-.02.036-.042.08-.007.042.035.024.056.006.08zm-4.632 3.12c-.02.46-.154.834-.37 1.143-.214.306-.508.55-.855.75-.024.016-.05.03-.077-.02-.028-.047-.005-.06.02-.075.33-.193.615-.426.82-.72.204-.29.33-.644.35-1.082 0-.028.004-.056.06-.053.055.002.053.03.053.058zm-.12-1.595c.026.172.016.34-.022.506a2.32 2.32 0 0 1-.187.5c-.013.024-.025.047-.073.024-.05-.025-.038-.05-.026-.074.08-.16.145-.318.18-.473a1.25 1.25 0 0 0 .023-.463c-.005-.028-.01-.056.046-.063.056-.008.06.02.063.048zm3.138-.23v.157l.053.814.005.072c.003.028.003.055-.05.06h-.018c-.007.01-.02.016-.045.016-.056 0-.056-.03-.056-.057v-.9l-.013-.22c-.003-.03-.005-.055.05-.06.056 0 .06.023.06.05v.02c.014.01.014.027.014.044zm.758-1.398c-.224.27-.312.53-.317.786-.006.255.073.51.19.764.262.422.348.842.32 1.265-.025.42-.164.837-.35 1.255-.01.025-.02.05-.072.027-.05-.022-.036-.048-.026-.073.182-.405.314-.812.34-1.217a1.973 1.973 0 0 0-.307-1.204l-.002-.005c-.124-.268-.208-.54-.203-.817.006-.28.105-.563.343-.854.017-.02.035-.043.078-.007.044.034.026.054.01.077zm-4.866-8.677c.366-.28.726-.44 1.103-.48.374-.038.76.043 1.18.24.14-.002.28-.002.42-.005.14-.003.284-.005.426-.005.028 0 .056 0 .056.056 0 .053-.03.053-.058.053-.144.003-.286.005-.427.005l-.385.004c0 .003-.004.005-.007.008-.45.397-.834.615-1.176.686a1.13 1.13 0 0 1-.93-.203c-.03-.02-.057-.04-.02-.096.04-.057.07-.04.097-.02.248.173.517.244.825.18.297-.062.636-.247 1.033-.583-.364-.16-.698-.223-1.02-.19-.35.035-.688.187-1.034.453-.03.02-.057.04-.098-.013-.04-.056-.015-.076.013-.096zM290.18 107.81a.28.28 0 0 1 0 .557.28.28 0 0 1-.277-.278c0-.156.124-.28.278-.28zm1.917 1.683c.2-.103.354-.215.483-.33a2.3 2.3 0 0 0 .314-.345c.015-.023.033-.046.078-.013.046.033.028.056.013.08-.09.123-.198.247-.33.365a2.44 2.44 0 0 1-.505.342c-.025.013-.05.025-.074-.023-.025-.05-.002-.065.023-.075zm3.95-1.633a.557.557 0 0 1 .31 0c.1.03.2.085.296.166.02.018.043.035.008.078-.034.043-.054.026-.077.008a.71.71 0 0 0-.258-.142.494.494 0 0 0-.25-.002c-.028.007-.053.015-.068-.04-.016-.054.012-.06.037-.07zm-2.26.09a.91.91 0 0 1 .407-.455c.182-.097.412-.137.693-.112.028.003.056.005.05.06-.004.057-.032.054-.06.052-.26-.023-.47.012-.632.098a.777.777 0 0 0-.357.403c-.01.025-.023.05-.073.027-.05-.022-.04-.048-.028-.073zm.258.37a.452.452 0 0 1 .124-.256.59.59 0 0 1 .284-.157c.027-.008.053-.015.068.038.015.053-.013.06-.038.068a.475.475 0 0 0-.233.127.37.37 0 0 0-.092.197c-.006.028-.01.053-.065.046-.053-.008-.05-.036-.045-.064zm-3.76 1.25c-.06.095-.116.194-.157.3a.878.878 0 0 0-.05.355c.002.027.005.055-.05.058-.057.002-.06-.023-.062-.05-.01-.15.016-.282.056-.4.04-.117.1-.223.167-.324.013-.025.03-.05.074-.02.048.03.033.053.018.076zm1.078.482v.167c0 .026 0 .054-.056.054-.055 0-.055-.028-.055-.056v-.168c0-.027 0-.055.055-.055.056 0 .056.028.056.055zm-.7-1.204c.11.04.22.06.33.063.11 0 .226-.013.337-.04.028-.003.053-.01.066.04.013.056-.015.063-.04.07a1.517 1.517 0 0 1-.365.044 1.062 1.062 0 0 1-.367-.07c-.028-.01-.053-.02-.033-.072.02-.052.044-.04.07-.032zm.692-2.02a.34.34 0 0 0-.222.067.403.403 0 0 0-.14.202c-.007.028-.015.054-.068.038-.053-.015-.045-.043-.038-.068a.525.525 0 0 1 .18-.258.46.46 0 0 1 .29-.093c.03 0 .057.002.057.056 0 .055-.028.055-.056.055zm-1.12.112a.85.85 0 0 0-.2.117.272.272 0 0 0-.09.12c-.01.03-.017.055-.07.037-.053-.018-.043-.043-.035-.07a.393.393 0 0 1 .124-.173.92.92 0 0 1 .23-.132c.025-.01.05-.02.07.03.024.05-.002.063-.03.074zm-.69.02a.875.875 0 0 0-.176.158.716.716 0 0 0-.116.194c-.01.026-.017.054-.07.033-.05-.017-.043-.045-.033-.07a.787.787 0 0 1 .13-.228.96.96 0 0 1 .2-.18c.02-.015.045-.03.078.015.032.046.01.06-.016.08zm-.89.712a1.817 1.817 0 0 0-.404.417c-.013.02-.03.044-.076.01-.046-.032-.028-.055-.013-.08a2.187 2.187 0 0 1 .43-.44c.02-.016.044-.03.077.01.033.048.01.063-.013.08zm.09.978c-.054.06-.107.117-.16.173l-.16.172c-.02.02-.04.04-.08.002-.04-.037-.023-.058-.003-.078l.16-.174.16-.172c.02-.02.04-.04.08-.003.04.04.023.06.002.08zm-.9.26v.346c0 .027 0 .055-.054.055s-.054-.026-.054-.053v-.345c0-.026 0-.054.056-.054s.056.028.056.055zm1.152 1.514l-.053.565c-.002.015-.002.033-.005.05-.004.03-.007.056-.06.05-.058-.004-.056-.032-.053-.06.002-.017.002-.035.005-.053l.053-.564c.003-.028.005-.055.06-.05.056.005.054.033.05.06zm-.675-.5a22.1 22.1 0 0 1-.013.366c0 .028-.004.056-.06.053-.056-.002-.053-.03-.053-.055.002-.124.008-.246.013-.37 0-.027.003-.055.06-.053.054.003.052.03.052.058zm-.628-4.792a.778.778 0 0 1 .498.498c.01.028.02.053-.035.07-.053.02-.06-.01-.07-.035a.693.693 0 0 0-.167-.27.743.743 0 0 0-.266-.162c-.025-.01-.05-.02-.033-.07.02-.054.048-.044.073-.034zm5.51 7.185c.107.24.165.48.168.718.005.24-.043.48-.144.72-.01.027-.02.052-.07.032-.052-.02-.042-.048-.032-.074.094-.225.14-.45.134-.675a1.685 1.685 0 0 0-.156-.676c-.013-.025-.023-.05.027-.073.053-.025.066 0 .076.026zm-1.794 2.077c.077-.27.19-.506.322-.72.132-.216.28-.41.43-.603.172-.22.286-.464.347-.712.064-.268.066-.546.02-.81-.007-.027-.01-.052.044-.063.053-.01.06.018.063.046.05.28.048.57-.02.856a1.97 1.97 0 0 1-.367.757c-.146.19-.292.382-.422.592a2.793 2.793 0 0 0-.31.693c-.008.028-.016.053-.07.038-.052-.015-.045-.04-.037-.07zm-2.31-.61c.037-.1.092-.19.168-.268a.963.963 0 0 1 .28-.197c.026-.015.052-.025.074.023.023.05 0 .063-.028.073a.848.848 0 0 0-.25.175.61.61 0 0 0-.144.23c-.01.026-.02.054-.07.034-.052-.018-.044-.045-.034-.07zm-.45-.162c.087-.11.173-.215.272-.306.1-.093.215-.172.346-.225.025-.01.05-.02.07.03.02.055-.004.066-.032.073-.12.048-.22.12-.31.203-.095.086-.178.19-.26.293-.017.022-.032.045-.078.01-.045-.034-.027-.056-.01-.08zm2.394-2.372a.718.718 0 0 0 .276.065.88.88 0 0 0 .258-.033c.028-.008.053-.015.068.038.016.053-.012.06-.038.068a.847.847 0 0 1-.607-.038c-.024-.012-.05-.022-.027-.073.023-.05.048-.038.074-.028zm-1.19-.155c.026-.033.054-.063.082-.096l.01-.015c.018-.02.038-.04.08-.005.04.04.02.06.004.08l-.01.012a2.942 2.942 0 0 1-.086.096c-.018.02-.036.04-.08.005-.04-.035-.022-.058-.004-.078zm25.764 7.433c.053.058.1.12.14.185.037.065.068.134.093.207.01.028.02.053-.034.068-.053.018-.06-.01-.07-.035a.81.81 0 0 0-.084-.185.85.85 0 0 0-.123-.164c-.02-.02-.04-.04.002-.08.04-.037.06-.016.078.004zm-28.604 13.424c.12.11.248.213.387.284.14.068.29.11.46.11.03 0 .058 0 .058.056s-.028.056-.056.056a1.14 1.14 0 0 1-.51-.124 1.88 1.88 0 0 1-.412-.298c-.02-.018-.04-.038-.003-.08.038-.04.06-.022.08 0z"/><g fill="#f00"><path d="M308.605 106.323a8.777 8.777 0 0 0 1.768-.083c-.556.402-1.267.673-2.034.8a.822.822 0 0 0 .287-.363.455.455 0 0 0-.023-.354zm-1.515-.157c.412.07.84.117 1.262.145l.018.03c.068.093.088.184.058.273-.036.1-.132.207-.29.316-.042.03-.085.06-.024.143a6.01 6.01 0 0 1-1.295.023.19.19 0 0 0 .04-.036c.155-.162.254-.33.28-.504a.67.67 0 0 0-.052-.387zm-11.198-3.218c.713-.093 1.44-.116 2.178-.098.243.098.423.242.534.432.12.213.164.49.114.838-.008.05-.015.103.088.116.104.015.112-.038.117-.09.055-.393.005-.715-.14-.968a1.117 1.117 0 0 0-.273-.313c.066.002.132.005.198.01.85.045 1.51.288 2.25.655a.145.145 0 0 1 .016.02c.157.165.21.334.185.51-.03.184-.14.383-.318.588-.033.04-.068.08.013.147.078.068.113.028.146-.013.2-.235.333-.468.366-.695a.743.743 0 0 0-.038-.372c.62.308 1.254.604 1.868.928.013.008.026.013.038.02a.12.12 0 0 0 .01.04c.05.176.03.325-.055.454-.094.134-.263.25-.51.34-.047.02-.095.037-.06.136.036.096.086.078.135.06.288-.11.49-.248.607-.42a.674.674 0 0 0 .114-.483c.407.22.814.448 1.232.648v.002c.075.147.087.28.03.4-.062.13-.203.25-.428.362-.046.023-.094.045-.05.14.047.093.095.07.14.047.27-.136.443-.29.524-.46a.58.58 0 0 0 .046-.37c.144.06.29.122.44.18a8.75 8.75 0 0 0 1.41.372.498.498 0 0 1 .12.402c-.025.13-.103.26-.23.393-.035.038-.07.073.003.146.013.013.023.02.033.028-1.58-.16-2.988-.917-4.46-1.486-.175-.07-.352-.134-.527-.203-.544-.204-1.093-.482-1.64-.705a.17.17 0 0 0-.07-.035l-.11-.035c-.024-.01-.05-.017-.07-.027 0 .002.005.005.01.007a9.05 9.05 0 0 0-1.515-.354 6.525 6.525 0 0 0-1.736-.016l-.097-.015c.05-.31.01-.585-.144-.823-.11-.17-.274-.32-.5-.443zM293.303 103.644a9.274 9.274 0 0 1 2.214-.643c.344.14.572.306.7.503.125.195.155.423.112.686a4.48 4.48 0 0 0-1.964.24c-.168-.35-.393-.565-.656-.68a1.327 1.327 0 0 0-.407-.108zm7.962 4.028a10.05 10.05 0 0 0-.597-.357 7.388 7.388 0 0 0-3.243-.918l.028-.026c.402-.41.49-.795.354-1.156-.106-.28-.352-.542-.69-.777.38-.02.73.002 1.125.058a8.736 8.736 0 0 1 1.935.53c.162.356.208.667.137.93-.073.276-.28.506-.615.696-.047.026-.093.05-.04.14.05.093.094.068.14.04.387-.217.624-.49.713-.825.068-.258.048-.546-.066-.867.445.2.848.437 1.13.698.365.253.727.508 1.08.777.004.45-.128.706-.345.84-.23.14-.56.156-.934.12-.05-.007-.104-.012-.115.092v.005zM303.43 109.3c-.657-.513-1.3-1.05-1.99-1.512.382.03.724 0 .982-.154.25-.155.415-.423.442-.86.413.318.81.655 1.187 1.017.19.18.38.358.576.533 0 .002.003.005.003.01.044.162.06.3.047.418a.49.49 0 0 1-.12.28.584.584 0 0 1-.29.166c-.185.053-.425.063-.72.03-.05-.005-.1-.01-.112.08zM305.7 110.796a12.284 12.284 0 0 1-.655-.362c-.503-.298-.976-.64-1.44-.996.284.022.522.007.714-.046a.8.8 0 0 0 .39-.225.688.688 0 0 0 .17-.4.984.984 0 0 0-.003-.227c.453.387.93.746 1.442 1.06.27.164.54.318.806.463a.21.21 0 0 0 .003.055c.032.208-.085.34-.297.423-.248.1-.617.14-1.04.166-.048.003-.094.005-.1.086zM308.124 111.748a12.69 12.69 0 0 1-2.193-.835c.39-.028.735-.074.983-.172.28-.11.443-.282.433-.557.45.227.9.425 1.36.586.08.18.085.326.01.45-.092.152-.292.28-.54.387-.048.02-.096.043-.053.137v.002zM313.174 111.234c.066-.01.47-.116.26.038-1.487.974-3.374.97-5.153.514.278-.124.503-.274.617-.46.086-.14.1-.3.06-.474a9.44 9.44 0 0 0 1.734.392.402.402 0 0 1-.093.27c-.094.117-.253.23-.514.345-.048.02-.096.04-.053.135.04.096.088.073.136.053.293-.13.483-.267.594-.406a.58.58 0 0 0 .14-.377 9.58 9.58 0 0 0 2.277-.036zm-10.287 25.626c-.11.117-.205.246-.296.398-.43.144-.813.36-1.28.34 0 .3.1.43.4.434.576-.29.705-.342.756-.3.07.06-.08.472-.557.806-.074.045-.07.073-.03.15.403.63 1.458.404 2.025.255.405-.107 1.136-.587 1.34-.992.077-.183-.1-.426-.277-.623-.448.068-.602-.14-.532-.283-.473-.167-1-.203-1.548-.183zm-16.174-5.098c-.33.27-.696.48-1.123.623-.162.053-.555.15-.593.354-.005.07.264.23.436.137.475-.455.713-.202.167.263-.043.09-.008.188.086.272.493.443 1.715.587 2.272.235.412-.258.627-.54.268-.933.002-.09.012-.175.028-.263l-.68-.067-.418-.243-.443-.378zm10.647 3.704c-.04.005-.084.01-.125.018-.22.238.385.15.706.347.15.09.21.265.154.508-.296.706-1.948.478-2.497.187-.256-.134-.266-.29-.256-.51.115 0 .23-.006.348-.024.197-.027.392-.085.584-.194.054-.03.11-.063.05-.17-.06-.108-.117-.078-.17-.047a1.38 1.38 0 0 1-.496.163c-.172.025-.35.025-.52.018h-.042c-.096-.055-.17-.12-.13-.18.042-.054.2.006.23.016.257-.12.48-.194.755-.248l.11-.116c.503.044.984.12 1.303.236zm-7.64-.432c-.1.06-.136.146-.21.306a2.89 2.89 0 0 1-.933.632c-.306.14-.01.274.205.42.195.145.45-.17.61-.407.175-.263.352-.185.238.02-.127.225-.218.55-.23.72-.066.18.627.32.746.325.423.02.954-.392 1.285-.602.278-.28.235-.526.114-.868l.002-.023a2.103 2.103 0 0 1-.508-.05 3.664 3.664 0 0 1-.597-.198c-.025-.01-.05-.02-.03-.075.013-.033.028-.04.046-.038l-.73-.167zm2.96-28.16c.115-.004.23-.01.345.003.215.026.42.12.635.145.72-.27 1.313-.42 1.827-.398a6.064 6.064 0 0 1 1.844-.232l-.02-.02c-.074-.074-.038-.112 0-.147.336-.342.414-.656.306-.94-.112-.293-.415-.568-.838-.82-.45.05-.883-.072-1.36-.02-.3.034-.593.1-.88.196.24.088.45.23.62.43.213.25.365.594.446 1.024.01.05.018.1-.083.12-.1.022-.11-.03-.12-.082-.074-.39-.21-.7-.4-.925-.2-.286-.658-.397-.8-.455-.48.048-.95.1-1.36.207-.31.077-.58.186-.788.35.31-.068.63-.055.91.084.265.132.49.38.632.782.018.048.033.1-.066.132-.1.032-.116-.016-.13-.066-.12-.347-.308-.554-.528-.663-.437-.22-1.34-.03-1.723.254a4.515 4.515 0 0 0-.665.633c-.023.028-.048.053-.078.056.82.056 1.644.1 2.282.355zm-2.433-.462c-.017-.046.013-.08.04-.112.23-.26.464-.49.704-.667.235-.172.475-.296.723-.355.253-.28.628-.45 1.063-.56.422-.11.905-.166 1.394-.214-.145-.29-.33-.465-.543-.56-.227-.1-.49-.115-.77-.088-.59.203-1.115.52-1.618.876.044 0 .09 0 .132.002.15.01.283-.012.407.036.05.018.1.035.063.134-.043.12-.37.045-.484.038a1.42 1.42 0 0 0-.428.04c-.025.005-.048.013-.07.005-.53.327-.93.658-1.357 1.02.324.114.577.248.74.405z"/></g><path d="M351.443 167.066l22.142-50.188-16.333-26.372-29.128 10.785-13.482 53.044a234.2 234.2 0 0 1 36.798 12.736z" fill="#0093dd"/><path d="M323.206 120.643a268.71 268.71 0 0 1 42.263 14.63l-8.546 19.37a247.61 247.61 0 0 0-38.936-13.474z" fill="#fff"/><path d="M358.3 151.532l5.707-12.936a265.337 265.337 0 0 0-41.692-14.43L318.95 137.4a251.82 251.82 0 0 1 39.547 13.686l-.198.445z" fill="#f00"/><path d="M326.424 134.244c.382-.24.79-.182 1.2-.116.33-.124.712-.167 1.127-.152a2.07 2.07 0 0 1 .617-.207c.124-.098.13-.2.018-.313a.663.663 0 0 1-.17-.377c-.657-.382-.9-.963-1.15-1.54-.375-.1-.55-.225-.59-.367a35.578 35.578 0 0 1-.542-.056c-.852.094-1.072-.182-1.376-.407-.253-.084-.473-.223-.615-.488-.092-.12-.186-.236-.28-.355-.232-.296-.162-.688.19-.665.248.028.493.028.72-.07.267-.12.664-.117.965-.092.357-.02.582-.25.93-.574-.004-.14-.004-.276-.007-.415-.055-.147.016-.213.213-.193.464.015.74.233.927.542.54.092.964.35 1.25.803.716.003 1.2.273 1.257.54.043.194-.167.416-.49.654.002.048.004.1.004.147.194.167.32.334.386.498.402.156.787.363 1.146.667 1.024-.12 2.752.624 5.087 2.114 1.514.27 2.984.69 4.396 1.3l.893.028c2.532-.374 4.986-.086 7.263 1.655.86.103 1.633.374 2.38.683.553.227 1.117.316 1.686.37.92.088 1.854.315 2.78.746 1.04.232 2.01.56 2.613 1.287.428.517.324.993-.22 1.19-.33.694-.984.724-1.965.382-.676.124-1.42-.417-2.095-.926-.94-.3-1.802-.843-2.654-1.42-.444-.33-.89-.54-1.327-.635-.342-.073-.648-.12-.853 0-.1.06-.088.096 0 .17.238.2.405.498.458.857.048.316-.002.68.016 1.067.02.406.266.702.676.955.28.172.615.354 1.098.423.23.045.296.18.288.354.13.617.248 1.24.474 1.8.063.158.184.234.366.368.625.45.3.954-.268 1.063-.498.44-.928.737-1.44.853-.407.137-.574-.03-.71-.23a.516.516 0 0 1-.473-.263c-.498-.367-.073-1.004 1.12-.73.024-.14.125-.183.227-.18-.07-.31-.112-.653.022-.975-.107-.068-.198-.154-.352-.205-.43-.136-.838-.334-1.16-.635-.61-.574-1.563-1.055-2.48-1.538-.76-.038-1.324-.387-1.92-.683-.267-.003-.535-.008-.803-.01-.237-.08-.43.002-.57.172-.238.287-.514.24-.84.2-.375-.042-.754-.014-1.13-.02-.184.047-.366.105-.566.107-.422-.023-.834-.028-1.115.208-.234.245-.467.227-.7.136-.174-.08-.3-.166-.374-.257-.294-.06-.483-.134-.547-.222-.494-.14-.633-.28-.61-.417-.655-.157-.344-.673.08-.69.5-.02.96.075 1.45.144.413.116.92.048 1.258-.256.217-.196.298-.366.564-.512-.848-.056-1.472-.205-1.933-.496-1.24-.783-2.23-.973-3.02-.31-.21.12-.376.167-.6.08a1.135 1.135 0 0 0-.624-.03c-.448.102-.89.046-1.338-.116a4.36 4.36 0 0 1-1.963.066c-.553.29-.958.324-1.216.1a9.125 9.125 0 0 1-.69-.424c-.354-.053-.505-.14-.52-.258-.45-.05-.507-.215-.504-.395-.186-.215-.115-.38.072-.518.334-.14.68-.19 1.065.007.23.11.4.215.54.324.254-.03.474 0 .667.07.14-.222.544-.232.984-.206.22-.147.483-.25.82-.28-.01-.054-.02-.107-.028-.158-.443-.116-.67-.438-.89-.762-.68-.012-1.17-.298-1.655-.597-.4.033-.72-.098-1.032-.286-.253.02-.534.03-.8-.04a2.728 2.728 0 0 1-1.494 0c-.332.03-.597-.002-.87-.027-.312.356-.66.42-1.043.237-.21-.266-.51-.44-.885-.54-.286-.093-.375-.217-.426-.35-.35-.216-.28-.43.06-.59.25-.122.567-.145 1.05.093.154.058.33.1.526.114z"/><path d="M343.107 139.33c-.033-.06-.104-.205-.36-.06-.792-.042-1.677-.03-2.343-.424-.693-.407-1.406-.832-2.173-.802a1.93 1.93 0 0 1 .84-.45c.44-.116.964-.124 1.54-.03.81.13 1.523.288 2.075.496.53.2.906.447 1.07.766a.433.433 0 0 0 .046.05c.213.137.398.277.55.423.12.107.22.22.306.342-.25.023-.51.005-.762-.045a3.07 3.07 0 0 1-.79-.273z" fill="#fff"/><path d="M344.928 101.104l.046.238.996 5.16-3.964 3.457-.182.157.23.08 4.97 1.72 1.008 5.16.05.238.18-.16 3.973-3.443 4.976 1.706.233.077-.046-.238-.997-5.165 3.964-3.456.182-.16-.23-.078-4.97-1.72-1.01-5.162-.047-.238-.184.16-3.975 3.446-4.973-1.708z"/><path d="M342.5 109.9l3.703-3.228 4.658 1.604zm8.978-1.743l3.717-3.23 4.642 1.606zm8.392-1.46l-3.704 3.23-4.657-1.605zm-8.98 1.746l-3.715 3.23-4.643-1.605zm-5.436-6.863l4.648 1.593.94 4.835zm6.002 6.9l4.655 1.605.933 4.825zm5.46 6.54l-4.648-1.593-.94-4.834zm-6.002-6.903l-4.655-1.6-.933-4.826zm3.226-8.142l.944 4.823-3.717 3.23zm-2.978 8.648l.94 4.835-3.713 3.22zm-2.932 8l-.944-4.822 3.717-3.23zm2.978-8.648l-.94-4.834 3.712-3.217z" fill="#f7db17"/></svg>