<svg xmlns="http://www.w3.org/2000/svg" height="512" width="512" viewBox="0 0 512 512"><defs><clipPath id="a"><path fill-opacity=".67" d="M185.98 0h496.06v496.06H185.98z"/></clipPath></defs><g clip-path="url(#a)" fill-rule="evenodd"><path fill="#fff" d="M-191.96 0h895.89v511.934h-895.89z"/><path fill="#da0000" d="M-191.96 343.79h895.89v168.144h-895.89z"/><g fill="#fff"><path d="M-21.654 350.916H27.41v3.376h-49.064zm193.995 6h3.377v3.28h-3.376zm41.65-.63v3.376h-9.805v-3.375zm3.976-16.77h3.376v20.156h-3.376zM52.343 367.69v3.377H33.76v-3.376zm149.774-19.287h3.376v11.27h-3.376zM49.58 350.916h3.376v20.157H49.58zm176.028-10.88h3.378v20.156h-3.377zm-44.53 8.022v3.375H163.17v-3.375zm40.682-.25v3.377h-17.907v-3.376zM17.732 359.805h3.377v11.27H17.73zM17.732 359.805h3.377v11.27H17.73zM17.732 359.805h3.377v11.27H17.73zm146.164-11.157h3.375v11.27h-3.374zm30.02 0h3.377v11.27h-3.377zm-15.162 0h3.376v11.27h-3.376zM9.61 367.69v3.377H-5.53v-3.376zm186.716-20.152v3.375h-9.597v-3.375z"/></g><g fill="#fff"><path d="M-102.238 350.916h49.064v3.376h-49.064zm196.494 6h3.376v3.28h-3.375zm41.648-.63v3.376H126.1v-3.375zm3.977-16.77h3.377v20.156h-3.376zM-28.24 367.69v3.377h-18.583v-3.376zm152.272-19.287h3.376v11.27h-3.376zM-31.004 350.916h3.377v20.157h-3.377zm178.528-10.88h3.377v20.156h-3.376zm-44.532 8.022v3.375H85.086v-3.375zm40.683-.25v3.377h-17.907v-3.376zM-62.852 359.805h3.377v11.27h-3.377zM-62.852 359.805h3.377v11.27h-3.377zM-62.852 359.805h3.377v11.27h-3.377zm148.663-11.157h3.376v11.27h-3.374zm30.02 0h3.378v11.27h-3.377zm-15.162 0h3.377v11.27h-3.376zM-70.975 367.69v3.377h-15.137v-3.376zm189.216-20.152v3.375h-9.596v-3.375z"/></g><g fill="#fff"><path d="M58.264 350.916h49.064v3.376H58.264zm191.517 6h3.377v3.28h-3.376zm41.65-.63v3.376h-9.805v-3.375zm3.976-16.77h3.376v20.156h-3.376zM132.26 367.69v3.377h-18.58v-3.376zm147.297-19.287h3.376v11.27h-3.376zM129.498 350.916h3.376v20.157h-3.376zm173.55-10.88h3.378v20.156h-3.377zm-44.53 8.022v3.375H240.61v-3.375zm40.682-.25v3.377h-17.907v-3.376zM97.65 359.805h3.377v11.27H97.65zM97.65 359.805h3.377v11.27H97.65zM97.65 359.805h3.377v11.27H97.65zm143.686-11.157h3.375v11.27h-3.374zm30.02 0h3.377v11.27h-3.377zm-15.162 0h3.376v11.27h-3.376zM89.527 367.69v3.377H74.39v-3.376zM457 336.138v3.375h-9.598v-3.375z"/></g><g fill="#fff"><path d="M622.572 350.916h49.064v3.376h-49.064zm174.02 6h3.375v3.28h-3.376zm41.647-.63v3.376h-9.805v-3.375zm3.976-16.77h3.376v20.156h-3.376zM696.57 367.69v3.377h-18.583v-3.376zm129.797-19.287h3.376v11.27h-3.376zM693.806 350.916h3.376v20.157h-3.376zm156.052-10.88h3.378v20.156h-3.377zm-44.53 8.022v3.375H787.42v-3.375zm40.682-.25v3.377h-17.907v-3.376zM661.958 359.805h3.377v11.27h-3.377zM661.958 359.805h3.377v11.27h-3.377zM661.958 359.805h3.377v11.27h-3.377zm126.188-11.157h3.375v11.27h-3.374zm30.02 0h3.377v11.27h-3.377zm-15.162 0h3.376v11.27h-3.376zM653.835 367.69v3.377h-15.138v-3.376zm166.74-20.152v3.375h-9.596v-3.375z"/></g><g fill="#fff"><path d="M138.698 350.916h49.064v3.376h-49.064zm189.023 6h3.377v3.28h-3.376zm41.65-.63v3.376h-9.805v-3.375zm3.976-16.77h3.376v20.156h-3.376zM212.695 367.69v3.377h-18.582v-3.376zm144.802-19.287h3.376v11.27h-3.376zM209.932 350.916h3.376v20.157h-3.376zm171.056-10.88h3.378v20.156h-3.377zm-44.53 8.022v3.375H318.55v-3.375zm40.682-.25v3.377h-17.907v-3.376zM178.084 359.805h3.377v11.27h-3.376zM178.084 359.805h3.377v11.27h-3.376zM178.084 359.805h3.377v11.27h-3.376zm141.192-11.157h3.375v11.27h-3.374zm30.02 0h3.377v11.27h-3.377zm-15.162 0h3.376v11.27h-3.376zM169.96 367.69v3.377h-15.137v-3.376zm181.746-20.152v3.375h-9.597v-3.375z"/></g><g fill="#fff"><path d="M219.42 350.916h49.065v3.376H219.42zm186.52 6h3.377v3.28h-3.376zm41.65-.63v3.376h-9.805v-3.375zm3.976-16.77h3.376v20.156h-3.376zM293.418 367.69v3.377h-18.582v-3.376zm142.3-19.287h3.375v11.27h-3.376zM290.655 350.916h3.377v20.157h-3.377zm168.553-10.88h3.378v20.156h-3.377zm-44.53 8.022v3.375H396.77v-3.375zm40.682-.25v3.377h-17.907v-3.376zM258.807 359.805h3.377v11.27h-3.377zM258.807 359.805h3.377v11.27h-3.377zM258.807 359.805h3.377v11.27h-3.377zm138.69-11.157h3.374v11.27h-3.374zm30.02 0h3.376v11.27h-3.377zm-15.163 0h3.376v11.27h-3.376zM250.684 367.69v3.377h-15.138v-3.376zm179.242-20.152v3.375h-9.597v-3.375z"/></g><path fill="#239f40" d="M-191.96 0h895.89v168.144h-895.89z"/><g fill="#fff"><path d="M300.62 350.916h49.063v3.376H300.62zm184 6h3.377v3.28h-3.376zm41.65-.63v3.376h-9.805v-3.375zm3.976-16.77h3.376v20.156h-3.376zM374.616 367.69v3.377h-18.582v-3.376zm139.78-19.287h3.377v11.27h-3.376zM371.853 350.916h3.376v20.157h-3.377zm166.035-10.88h3.378v20.156h-3.377zm-44.53 8.022v3.375H475.45v-3.375zm40.682-.25v3.377h-17.907v-3.376zM340.005 359.805h3.377v11.27h-3.377zM340.005 359.805h3.377v11.27h-3.377zM340.005 359.805h3.377v11.27h-3.377zm136.17-11.157h3.376v11.27h-3.374zm30.02 0h3.378v11.27h-3.377zm-15.16 0h3.375v11.27h-3.376zM331.882 367.69v3.377h-15.138v-3.376zm176.724-20.152v3.375h-9.597v-3.375z"/></g><g fill="#fff"><path d="M381.352 350.916h49.064v3.376h-49.064zm181.5 6h3.375v3.28h-3.376zm41.647-.63v3.376h-9.805v-3.375zm3.976-16.77h3.376v20.156h-3.376zM455.35 367.69v3.377h-18.583v-3.376zm137.277-19.287h3.376v11.27h-3.376zM452.586 350.916h3.377v20.157h-3.377zm163.532-10.88h3.378v20.156h-3.377zm-44.53 8.022v3.375H553.68v-3.375zm40.682-.25v3.377h-17.907v-3.376zM420.738 359.805h3.377v11.27h-3.377zM420.738 359.805h3.377v11.27h-3.377zM420.738 359.805h3.377v11.27h-3.377zm133.668-11.157h3.375v11.27h-3.374zm30.02 0h3.377v11.27h-3.377zm-15.162 0h3.376v11.27h-3.376zM412.616 367.69v3.377h-15.14v-3.376zm174.22-20.152v3.375h-9.597v-3.375z"/></g><g fill="#fff"><path d="M462.075 350.916h49.065v3.376h-49.065zm178.996 6h3.377v3.28h-3.376zm41.65-.63v3.376h-9.805v-3.375zm3.976-16.77h3.376v20.156h-3.376zM536.073 367.69v3.377H517.49v-3.376zm134.774-19.287h3.376v11.27h-3.376zM533.31 350.916h3.376v20.157h-3.377zm161.028-10.88h3.378v20.156h-3.378zm-44.53 8.022v3.375H631.9v-3.375zm40.682-.25v3.377h-17.907v-3.376zM501.46 359.805h3.378v11.27h-3.377zM501.46 359.805h3.378v11.27h-3.377zM501.46 359.805h3.378v11.27h-3.377zm131.166-11.157H636v11.27h-3.374zm30.02 0h3.377v11.27h-3.377zm-15.162 0h3.376v11.27h-3.376zM493.34 367.69v3.377H478.2v-3.376zm171.716-20.152v3.375h-9.597v-3.375z"/></g><g fill="#fff"><path d="M543.273 350.916h49.064v3.376h-49.064zm176.478 6h3.377v3.28h-3.376zm41.65-.63v3.376h-9.805v-3.375zm3.976-16.77h3.376v20.156h-3.376zM617.27 367.69v3.377h-18.582v-3.376zm132.257-19.287h3.376v11.27h-3.376zM614.507 350.916h3.376v20.157h-3.376zm158.51-10.88h3.38v20.156h-3.378zm-44.53 8.022v3.375H710.58v-3.375zm40.683-.25v3.377h-17.907v-3.376zM582.66 359.805h3.376v11.27h-3.377zM582.66 359.805h3.376v11.27h-3.377zM582.66 359.805h3.376v11.27h-3.377zm128.646-11.157h3.375v11.27h-3.374zm30.02 0h3.377v11.27h-3.377zm-15.162 0h3.376v11.27h-3.376zM574.536 367.69v3.377h-15.138v-3.376zm169.2-20.152v3.375h-9.597v-3.375z"/></g><g fill="#fff"><path d="M-183.787 350.916h49.064v3.376h-49.065zm199.022 6h3.375v3.28h-3.375zm41.648-.63v3.376H47.08v-3.375zm3.977-16.77h3.376v20.156H60.86zM-109.79 367.69v3.377h-18.582v-3.376zm154.8-19.287h3.377v11.27H45.01zM-112.554 350.916h3.377v20.157h-3.377zM258 329.155h3.377v20.156h-3.377zm-44.532 8.022v3.375H6.065v-3.375zm40.684-.25v3.377H46.747v-3.376zM-144.4 359.805h3.375v11.27h-3.376zM-144.4 359.805h3.375v11.27h-3.376zM-144.4 359.805h3.375v11.27h-3.376zm151.19-11.157h3.375v11.27H6.79zm30.02 0h3.377v11.27H36.81zm-15.162 0h3.376v11.27h-3.376zM-152.524 367.69v3.377h-15.138v-3.376zm191.744-20.152v3.375h-9.597v-3.375z"/></g><g fill="#fff"><path d="M-21.654 143.422H27.41v3.376h-49.064zM359.02 151.41h3.377v3.28h-3.376zm41.65-.63v3.376h-9.805v-3.375zm3.976-16.77h3.376v20.156h-3.376zM52.343 160.197v3.376H33.76v-3.376zm149.774-12.854h3.376v11.27h-3.376zM49.58 143.422h3.376v20.157H49.58zm176.028-4.447h3.378v20.157h-3.377zm-44.53 8.023v3.375H163.17v-3.375zm40.682-.25v3.377h-17.907v-3.376zM17.732 152.31h3.377v11.27H17.73zM17.732 152.31h3.377v11.27H17.73zM17.732 152.31h3.377v11.27H17.73zm146.164-4.722h3.375v11.27h-3.374zm30.02 0h3.377v11.27h-3.377zm-15.162 0h3.376v11.27h-3.376zM9.61 160.197v3.376H-5.53v-3.376zm186.716-13.72v3.376h-9.597v-3.375z"/></g><g fill="#fff"><path d="M-102.238 143.422h49.064v3.376h-49.064zm196.494 12.434h3.376v3.28h-3.375zm41.648-.63v3.376H126.1v-3.375zm3.977-16.77h3.377v20.156h-3.376zM-28.24 160.197v3.376h-18.583v-3.376zm152.272-12.854h3.376v11.27h-3.376zM-31.004 143.422h3.377v20.157h-3.377zm178.528-4.447h3.377v20.157h-3.376zm-44.532 8.023v3.375H85.086v-3.375zm40.683-.25v3.377h-17.907v-3.376zM-62.852 152.31h3.377v11.27h-3.377zM-62.852 152.31h3.377v11.27h-3.377zM-62.852 152.31h3.377v11.27h-3.377zm148.663-4.722h3.376v11.27h-3.374zm30.02 0h3.378v11.27h-3.377zm-15.162 0h3.377v11.27h-3.376zM-70.975 160.197v3.376h-15.137v-3.376zm189.216-13.72v3.376h-9.596v-3.375z"/></g><g fill="#fff"><path d="M58.264 143.422h49.064v3.376H58.264zm191.517 12.434h3.377v3.28h-3.376zm41.65-.63v3.376h-9.805v-3.375zm3.976-16.77h3.376v20.156h-3.376zM132.26 160.197v3.376h-18.58v-3.376zm147.297-12.854h3.376v11.27h-3.376zM129.498 143.422h3.376v20.157h-3.376zm173.55-4.447h3.378v20.157h-3.377zm-44.53 8.023v3.375H240.61v-3.375zm40.682-.25v3.377h-17.907v-3.376zM97.65 152.31h3.377v11.27H97.65zM97.65 152.31h3.377v11.27H97.65zM97.65 152.31h3.377v11.27H97.65zm143.686-4.722h3.375v11.27h-3.374zm30.02 0h3.377v11.27h-3.377zm-15.162 0h3.376v11.27h-3.376zM89.527 160.197v3.376H74.39v-3.376zM457 141.51v3.376h-9.598v-3.375z"/></g><g fill="#fff"><path d="M622.572 143.422h49.064v3.376h-49.064zm174.02 12.434h3.375v3.28h-3.376zm41.647-.63v3.376h-9.805v-3.375zm3.976-16.77h3.376v20.156h-3.376zM696.57 160.197v3.376h-18.583v-3.376zm129.797-12.854h3.376v11.27h-3.376zM693.806 143.422h3.376v20.157h-3.376zm156.052-4.447h3.378v20.157h-3.377zm-44.53 8.023v3.375H787.42v-3.375zm40.682-.25v3.377h-17.907v-3.376zM661.958 152.31h3.377v11.27h-3.377zM661.958 152.31h3.377v11.27h-3.377zM661.958 152.31h3.377v11.27h-3.377zm126.188-4.722h3.375v11.27h-3.374zm30.02 0h3.377v11.27h-3.377zm-15.162 0h3.376v11.27h-3.376zM653.835 160.197v3.376h-15.138v-3.376zm166.74-13.72v3.376h-9.596v-3.375z"/></g><g fill="#fff"><path d="M138.698 143.422h49.064v3.376h-49.064zm189.023 12.434h3.377v3.28h-3.376zm41.65-.63v3.376h-9.805v-3.375zm3.976-16.77h3.376v20.156h-3.376zM212.695 160.197v3.376h-18.582v-3.376zm144.802-12.854h3.376v11.27h-3.376zM209.932 143.422h3.376v20.157h-3.376zm171.056-4.447h3.378v20.157h-3.377zm-44.53 8.023v3.375H318.55v-3.375zm40.682-.25v3.377h-17.907v-3.376zM178.084 152.31h3.377v11.27h-3.376zM178.084 152.31h3.377v11.27h-3.376zM178.084 152.31h3.377v11.27h-3.376zm141.192-4.722h3.375v11.27h-3.374zm30.02 0h3.377v11.27h-3.377zm-15.162 0h3.376v11.27h-3.376zM169.96 160.197v3.376h-15.137v-3.376zm181.746-13.72v3.376h-9.597v-3.375z"/></g><g fill="#fff"><path d="M219.42 143.422h49.065v3.376H219.42zm186.52 12.434h3.377v3.28h-3.376zm41.65-.63v3.376h-9.805v-3.375zm3.976-16.77h3.376v20.156h-3.376zM293.418 160.197v3.376h-18.582v-3.376zm142.3-12.854h3.375v11.27h-3.376zM290.655 143.422h3.377v20.157h-3.377zm168.553-4.447h3.378v20.157h-3.377zm-44.53 8.023v3.375H396.77v-3.375zm40.682-.25v3.377h-17.907v-3.376zM258.807 152.31h3.377v11.27h-3.377zM258.807 152.31h3.377v11.27h-3.377zM258.807 152.31h3.377v11.27h-3.377zm138.69-4.722h3.374v11.27h-3.374zm30.02 0h3.376v11.27h-3.377zm-15.163 0h3.376v11.27h-3.376zM250.684 160.197v3.376h-15.138v-3.376zm179.242-13.72v3.376h-9.597v-3.375z"/></g><g fill="#fff"><path d="M300.62 143.422h49.063v3.376H300.62zm184 12.434h3.377v3.28h-3.376zm41.65-.63v3.376h-9.805v-3.375zm3.976-16.77h3.376v20.156h-3.376zM374.616 160.197v3.376h-18.582v-3.376zm139.78-12.854h3.377v11.27h-3.376zM371.853 143.422h3.376v20.157h-3.377zm166.035-4.447h3.378v20.157h-3.377zm-44.53 8.023v3.375H475.45v-3.375zm40.682-.25v3.377h-17.907v-3.376zM340.005 152.31h3.377v11.27h-3.377zM340.005 152.31h3.377v11.27h-3.377zM340.005 152.31h3.377v11.27h-3.377zm136.17-4.722h3.376v11.27h-3.374zm30.02 0h3.378v11.27h-3.377zm-15.16 0h3.375v11.27h-3.376zM331.882 160.197v3.376h-15.138v-3.376zm176.724-13.72v3.376h-9.597v-3.375z"/></g><g fill="#fff"><path d="M381.352 143.422h49.064v3.376h-49.064zm181.5 12.434h3.375v3.28h-3.376zm41.647-.63v3.376h-9.805v-3.375zm3.976-16.77h3.376v20.156h-3.376zM455.35 160.197v3.376h-18.583v-3.376zm137.277-12.854h3.376v11.27h-3.376zM452.586 143.422h3.377v20.157h-3.377zm163.532-4.447h3.378v20.157h-3.377zm-44.53 8.023v3.375H553.68v-3.375zm40.682-.25v3.377h-17.907v-3.376zM420.738 152.31h3.377v11.27h-3.377zM420.738 152.31h3.377v11.27h-3.377zM420.738 152.31h3.377v11.27h-3.377zm133.668-4.722h3.375v11.27h-3.374zm30.02 0h3.377v11.27h-3.377zm-15.162 0h3.376v11.27h-3.376zM412.616 160.197v3.376h-15.14v-3.376zm174.22-13.72v3.376h-9.597v-3.375z"/></g><g fill="#fff"><path d="M462.075 143.422h49.065v3.376h-49.065zM812.75 151.41h3.377v3.28h-3.376zm41.65-.63v3.376h-9.805v-3.375zm3.976-16.77h3.376v20.156h-3.376zM536.073 160.197v3.376H517.49v-3.376zm134.774-12.854h3.376v11.27h-3.376zM533.31 143.422h3.376v20.157h-3.377zm161.028-4.447h3.378v20.157h-3.378zm-44.53 8.023v3.375H631.9v-3.375zm40.682-.25v3.377h-17.907v-3.376zM501.46 152.31h3.378v11.27h-3.377zM501.46 152.31h3.378v11.27h-3.377zM501.46 152.31h3.378v11.27h-3.377zm131.166-4.722H636v11.27h-3.374zm30.02 0h3.377v11.27h-3.377zm-15.162 0h3.376v11.27h-3.376zM493.34 160.197v3.376H478.2v-3.376zm171.716-13.72v3.376h-9.597v-3.375z"/></g><g fill="#fff"><path d="M543.273 143.422h49.064v3.376h-49.064zm176.478 12.434h3.377v3.28h-3.376zm41.65-.63v3.376h-9.805v-3.375zm3.976-16.77h3.376v20.156h-3.376zM617.27 160.197v3.376h-18.582v-3.376zm132.257-12.854h3.376v11.27h-3.376zM614.507 143.422h3.376v20.157h-3.376zm158.51-4.447h3.38v20.157h-3.378zm-44.53 8.023v3.375H710.58v-3.375zm40.683-.25v3.377h-17.907v-3.376zM582.66 152.31h3.376v11.27h-3.377zM582.66 152.31h3.376v11.27h-3.377zM582.66 152.31h3.376v11.27h-3.377zm128.646-4.722h3.375v11.27h-3.374zm30.02 0h3.377v11.27h-3.377zm-15.162 0h3.376v11.27h-3.376zM574.536 160.197v3.376h-15.138v-3.376zm169.2-13.72v3.376h-9.597v-3.375z"/></g><g fill="#fff"><path d="M-183.787 143.422h49.064v3.376h-49.065zm199.022 12.434h3.375v3.28h-3.375zm41.648-.63v3.376H47.08v-3.375zm3.977-16.77h3.376v20.156H60.86zM-109.79 160.197v3.376h-18.582v-3.376zm154.8-12.854h3.377v11.27H45.01zM-112.554 143.422h3.377v20.157h-3.377zM258 134.528h3.377v20.157h-3.377zm-44.532 8.023v3.375H6.065v-3.375zm40.684-.25v3.377H46.747v-3.376zM-144.4 152.31h3.375v11.27h-3.376zM-144.4 152.31h3.375v11.27h-3.376zM-144.4 152.31h3.375v11.27h-3.376zm151.19-4.722h3.375v11.27H6.79zm30.02 0h3.377v11.27H36.81zm-15.162 0h3.376v11.27h-3.376zM-152.524 160.197v3.376h-15.138v-3.376zm191.744-13.72v3.376h-9.597v-3.375z"/></g><path d="M-68.842 339.466h6.047v10.504h-6.047zm348.66-10.526h6.047v10.504h-6.048zm-288.656 0h6.047v10.504H-8.84zm90.263 0h6.048v10.504h-6.048zm78.36 0h6.05v10.504h-6.05zm37.514 0h6.046v10.504H197.3zm39.615 0h6.047v10.504h-6.047zm79.2 0h6.048v10.504h-6.048zm200.54 0h6.048v10.504h-6.047zm-168.476 0h6.047v10.504h-6.048zm45.06 0h6.047v10.504h-6.048zm39.192 0h6.047v10.504h-6.048zm39.19 0h6.048v10.504h-6.048zm321.857 0h6.046v10.504h-6.047zm-252.666 0h6.048v10.504h-6.048zm48.38 0h6.048v10.504h-6.047zm40.014 0h6.048v10.504h-6.048zm37.492 0h6.048v10.504H666.7zm40.068 0h6.047v10.504h-6.047zm39.164 0h6.048v10.504h-6.048zm118.408 0h6.048v10.504h-6.048zm-42.484 0h6.047v10.504h-6.047zm-807.628 0h6.048v10.504h-6.048z" fill="#d90000"/><path d="M-68.842 162.592h6.047v10.503h-6.047zm348.66-5.042h6.047v10.504h-6.048zm-288.656 0h6.047v10.504H-8.84zm90.263 0h6.048v10.504h-6.048zm78.36 0h6.05v10.504h-6.05zm37.514 0h6.046v10.504H197.3zm39.615 0h6.047v10.504h-6.047zm79.2 0h6.048v10.504h-6.048zm200.54 0h6.048v10.504h-6.047zm-168.476 0h6.047v10.504h-6.048zm45.06 0h6.047v10.504h-6.048zm39.192 0h6.047v10.504h-6.048zm39.19 0h6.048v10.504h-6.048zm321.857 0h6.046v10.504h-6.047zm-252.666 0h6.048v10.504h-6.048zm48.38 0h6.048v10.504h-6.047zm40.014 0h6.048v10.504h-6.048zm37.492 0h6.048v10.504H666.7zm40.068 0h6.047v10.504h-6.047zm39.164 0h6.048v10.504h-6.048zm118.408 0h6.048v10.504h-6.048zm-42.484 0h6.047v10.504h-6.047zm-807.628 0h6.048v10.504h-6.048z" fill="#239e3f"/><g fill="#da0000"><path d="M279.746 197.484c8.452 10.36 34.508 67.645-15.73 105.17-23.615 17.775-8.992 18.673-8.293 21.66 37.962-20.164 50.36-47.485 50.072-71.958-.29-24.474-13.264-46.098-26.05-54.868zM284.77 194.82c18.75 9.6 59.55 57.874 15.635 112.334 27.285-6.056 61.975-86.408-15.634-112.333zm119.604-6.04c-18.748 9.6-59.548 57.874-15.634 112.333-27.285-6.056-61.975-86.408 15.634-112.333zM232.15 197.484c-8.452 10.36-34.508 67.645 15.728 105.17 23.617 17.775 8.993 18.673 8.295 21.66-37.963-20.164-50.36-47.485-50.073-71.958.29-24.474 13.264-46.098 26.05-54.868zM304.142 319.094c-14.86.236-33.59-2.047-47.482-9.266 2.288 4.45 4.19 7.25 6.477 11.7 13.248 1.222 31.53 2.734 41.005-2.434zm81.612-9.894c14.86.235 33.59-2.047 47.483-9.266-2.288 4.45-4.19 7.25-6.477 11.7-13.25 1.22-31.532 2.733-41.006-2.434zm30.2-138.7c3.01 8 10.908 9.163 19.363 4.452 6.16 3.697 15.688 3.93 18.974-4.066 2.5 19.783-18.303 15.102-19.078 11.23-7.744 7.487-22.162 3.162-19.258-11.617zM256.35 331.55l7.812-8.928 1.117-120.166-9.3-8.185-9.302 7.813 1.86 120.91 7.812 8.556z"/></g></g></svg>