<svg xmlns="http://www.w3.org/2000/svg" height="512" width="512" viewBox="0 0 512 512"><defs><clipPath id="a"><path fill-opacity=".67" d="M161.78 5.753h491.68v491.68H161.78z"/></clipPath></defs><g clip-path="url(#a)"><path fill-rule="evenodd" fill="#e73e2d" d="M-164.282-.002h835.527v306.397h-835.527z"/><path d="M204.176 281.994c-19.43-15.167-55.616-10.037-61.575-51.268 27.708 21.462 22.678-1.226 64.06 19.223l-2.484 32.044zM209.343 263.256c-13.847-20.392-49.866-26.594-42.908-67.668 19.8 28.92 21.963 5.78 55.09 37.924l-12.182 29.744zM215.645 249.934c-4.998-24.137-35.91-43.64-13.776-78.933 7.238 34.292 18.084 13.74 36.406 56.107l-22.63 22.827zM230.165 237.546c2.653-24.507-20.778-52.558 11.122-79.354-3.638 34.86 12.994 18.628 17.425 64.576l-28.547 14.778zM243.087 227.6c12.454-21.273 2.56-56.458 42.633-67.844-17.59 30.314 4.23 22.314-10.54 66.048l-32.094 1.796zM261.954 230.216c18.553-16.23 20.32-52.735 61.938-50.834-26.292 23.177-3.06 22.504-30.93 59.303l-31.008-8.47zM278.49 239.773c22.5-10.068 34.904-44.447 74.128-30.414-31.935 14.437-9.53 20.612-46.972 47.61l-27.155-17.198zM292.31 254.853c24.423-3.33 46.003-32.826 79.694-8.32-34.71 4.866-14.95 17.098-58.476 32.465l-21.218-24.145zM379.31 259.532l-112.03 2.46 4.703 30.183 107.327-32.643zM362.838 218.333l-103.81 39.847 17.38 33.362 86.43-73.21zM280.425 280.552l53.706-97.507-82.38 76.678 28.675 20.83z" fill-rule="evenodd" stroke="#d8aa3f" stroke-width="1.664559" fill="#fec74a"/><path d="M381.86 573.24l-13.513-82.602-15.405 82.535 28.918.067z" fill-rule="evenodd" transform="matrix(1.264 .418 -.415 1.256 34.91 -607.47)" stroke="#d8aa3f" stroke-width="1.254" fill="#fec74a"/><path d="M272.862 263.63l-18.03-110.21-19.982 110.693 38.012-.482z" fill-rule="evenodd" stroke="#d8aa3f" stroke-width="1.664559" fill="#fec74a"/><path d="M378.51 569.67l-10.16-79.033-17.917 83.552 28.077-4.52z" fill-rule="evenodd" transform="matrix(1.227 -.509 .504 1.23 -487.984 -253.968)" stroke="#d8aa3f" stroke-width="1.253" fill="#fec74a"/><path d="M255.436 253.518l-81.078-68.458 57.65 97.972 23.427-29.514zM145.845 218.825l87.042 71.87 13.383-37.596-100.426-34.275zM231.96 260.79l-102.276-1.435 101.846 34 .43-32.564zM314.997 279.18c0 33.886-27.47 61.357-61.357 61.357s-61.36-27.47-61.36-61.358 27.473-61.36 61.36-61.36 61.357 27.473 61.357 61.36z" fill-rule="evenodd" stroke="#d8aa3f" stroke-width="1.664559" fill="#fec74a"/><path fill-rule="evenodd" fill="#005989" d="M-165.123 303.3h839.65v208.544h-839.65z"/><path d="M-165.602 453.83c15.612 7.226 37.98 25.31 61.902 25.295 40.03-.26 41.096-27.415 81.644-26.125 40.654 1.035 33.3 29.625 88.195 29.482 45.355-.118 60.007-34.653 99.102-30.515 28.954-1.49 40.804 32.702 85.307 33.136 46.157.987 63.105-37.268 92.06-34.1 30.846 0 40.952 30.81 84.227 31.03 55.118.28 64.81-32.066 99.29-29.996 24.545-.518 43.898 23.706 79.863 24.31 28.7.488 52.724-21.207 68.954-28.966l.803-36.814c-17.01 6.326-42.373 27.065-67.735 27.293-36.498 1.335-59.076-23.94-84.438-23.71-30.388.272-42.497 31.273-94.046 31.273-47.095 0-57.9-31.274-88.288-31.274-29.703.226-38.803 34.013-90.226 33.387-41.947-.505-58.29-32.25-87.995-32.023-31.49 0-64.052 30.87-98.92 29.38-48.126-2.034-58.523-29.38-90.012-29.38-23.534 0-48.934 25.626-77.285 26.053-28.197.434-59.873-25.5-62.807-26.053l.402 38.316zm168.357-85.03c15.612 7.225 37.98 25.31 61.902 25.295 40.03-.26 41.096-27.416 81.644-26.125 40.655 1.034 33.3 29.624 88.196 29.48 45.357-.117 60.008-34.652 99.103-30.514 28.953-1.49 40.803 32.702 85.306 33.136 46.158.987 63.106-37.268 92.062-34.1 30.845 0 40.95 30.81 84.226 31.03 55.118.28 64.81-32.066 99.29-29.996 24.545-.518 43.898 23.706 79.863 24.31 28.7.488 52.724-21.207 68.954-28.966l.804-36.815c-17.01 6.327-42.373 27.065-67.735 27.293-36.5 1.336-59.077-23.937-84.44-23.71-30.386.273-42.496 31.274-94.045 31.274-47.095 0-57.9-31.273-88.288-31.273-29.703.225-38.803 34.012-90.225 33.387-41.948-.505-58.29-32.252-87.996-32.024-31.49 0-64.05 30.87-98.92 29.38-48.125-2.034-58.522-29.38-90.01-29.38-23.535 0-48.935 25.627-77.286 26.053-28.197.434-59.873-25.5-62.807-26.053l.402 38.316zM-165.603 308.798c15.598 7.226 37.944 25.31 61.846 25.295 39.99-.26 41.056-27.415 81.566-26.125 40.615 1.035 33.27 29.625 88.113 29.48 45.312-.116 59.95-34.65 99.01-30.513 28.926-1.49 40.766 32.702 85.227 33.136 46.115.988 63.048-37.267 91.975-34.1 30.818 0 40.914 30.81 84.148 31.032 55.067.28 64.75-32.067 99.2-29.998 24.52-.517 43.854 23.707 79.787 24.31 28.67.49 52.675-21.206 68.89-28.965l.8-36.816c-16.994 6.326-42.333 27.065-67.672 27.293-36.463 1.336-59.02-23.938-84.358-23.71-30.36.273-42.457 31.274-93.96 31.274-47.05 0-57.844-31.273-88.204-31.273-29.675.227-38.766 34.014-90.14 33.388-41.908-.505-58.238-32.25-87.913-32.023-31.46 0-63.993 30.87-98.828 29.38-48.08-2.034-58.468-29.38-89.93-29.38-23.51 0-48.886 25.626-77.21 26.053-28.17.434-59.818-25.5-62.75-26.053l.403 38.316z" fill-rule="evenodd" fill="#fff"/><path d="M136.714 75.91c61.028-4.18 49.905-9.39 74.47-13.312 30.953 4.256 34.492 22.996 51.74 34.494 0 0-6.483 21.918-27.697 18.816-2.853-8.793 10.27-11.51-27.488-34.53-21.952-1.304-61.23 3.854-71.026-5.47zm345.663 36.72l-43.963 1.812v10.862c29.654.948 34.998-3.017 43.963-12.673z" fill-rule="evenodd" stroke="#d8aa3f" stroke-width="NaN" fill="#ffc84b"/><path stroke-linejoin="round" d="M174.732 108.015c7.663-3.92 11.474-2.32 18.112-2.578 4.57 8.276 8.88 9.05 18.88 10.087 15.257 21.464 36.722 21.722 39.825 21.722 29.912-.776 39.394-21.723 59.48-24.05h21.205c-3.534-6.034-6.292-9.484-13.965-9.828-15.775-.862-36.204-.43-54.048 3.62l-25.085 6.207c-7.33-3.534-25.258-22.326-36.724-21.982-6.724 1.81-6.724 4.138-10.085 6.724-6.466 2.76-12.932 1.437-17.596 10.078z" fill-rule="evenodd" stroke="#d8aa3f" stroke-width="1.664559" fill="#ffc84b"/><path d="M358.735 100.737a3.048 3.048 0 1 1-6.096 0 3.048 3.048 0 0 1 6.095 0z" fill-rule="evenodd" stroke="#d8aa3f" stroke-width="1.599" fill="#ffc84b" transform="translate(-168.47 -5.991) scale(1.041)"/><path d="M225.43 107.762c44.91-54.135 84.132-47.5 135.254-51.205 1.724 6.294 1.12 15.69-23.275 24.052-33.36 4.912-93.102 40.082-93.36 40.082-11.122-.516-18.88-12.153-18.62-12.93z" fill-rule="evenodd" stroke="#d8aa3f" stroke-width="NaN" fill="#ffc84b"/><path d="M317.698 72.487l33.124 1.435m-36.72 3.97l24.145 1.97" stroke="#d9a43e" stroke-linecap="round" stroke-width="NaN" fill="none"/></g></svg>