<svg xmlns="http://www.w3.org/2000/svg" height="512" width="512" viewBox="0 0 512 512"><defs><clipPath id="a"><path fill-opacity=".67" d="M0 0h416.25v416.25H0z"/></clipPath></defs><g clip-path="url(#a)" fill-rule="evenodd"><path fill="#ff0" d="M0 0h768.75v127.994H0z"/><path fill="#fff" d="M0 127.994h768.75v127.994H0z"/><path fill="#be0027" d="M0 255.988h768.75V383.98H0z"/><path fill="#3b5aa3" d="M0 383.994h768.75v127.993H0z"/><path d="M0 0v511.973l381.853-255.266L0 0z" fill="#239e46"/><path d="M157.206 141.425C72.11 137.108 33.346 204.893 33.43 257.29c-.194 61.97 58.527 113.075 112.805 110-29.267-13.85-65.006-52.668-65.334-110.257-.3-52.18 29.493-97.55 76.308-115.608zM155.927 197.058l-11.992-9.385-14.54 4.576 5.216-14.318-8.83-12.41 15.227.528 9.065-12.238 4.195 14.65 14.452 4.845-12.645 8.524zm-29.412 15.214l-11.992-9.385-14.54 4.576 5.216-14.317-8.832-12.41 15.227.528 9.066-12.24 4.195 14.65 14.452 4.847-12.644 8.525zm.303 42.838l-11.993-9.385-14.538 4.575 5.215-14.317-8.832-12.41 15.228.528 9.065-12.237 4.194 14.65 14.453 4.845-12.645 8.524zm-.303 43.257l-11.992-9.385-14.54 4.576 5.216-14.317-8.832-12.41 15.227.53 9.066-12.24 4.195 14.65 14.452 4.846-12.644 8.524z" fill="#fff"/></g></svg>