<svg xmlns="http://www.w3.org/2000/svg" height="512" width="512" viewBox="0 0 512 512"><defs><clipPath id="a"><path fill-opacity=".67" d="M151.69-.347h745.12v745.12H151.69z"/></clipPath></defs><g fill-rule="evenodd" clip-path="url(#a)"><path fill="#ffe900" d="M-107.87.24h737.493v511.19H-107.87z"/><path d="M-108.24.24l.855 368.513L466.487 0l-574.724.24z" fill="#35a100"/><path d="M630.517 511.43l-1.306-383.175L50.33 511.717l580.187-.288z" fill="#c70000"/><path d="M-107.87 396.535l.485 115.36 125.227-.164 611.636-410.055-.687-100.302L505.036.24l-612.928 396.295z"/><path fill="#fff" d="M457.77 185.102l-44.124-1.54-17.367 41.325-9.834-42.257-44.13-1.478 38.047-24.57-9.91-42.236 33.347 27.07 38.007-24.632-17.434 41.303zm85.08 262.867l-44.123-1.54-17.367 41.324-9.833-42.257-44.13-1.48 38.046-24.57-9.91-42.235 33.347 27.07 38.007-24.632-17.434 41.303z"/></g></svg>