<svg xmlns="http://www.w3.org/2000/svg" height="512" width="512" viewBox="0 0 512 512"><defs><clipPath id="a"><path fill-opacity=".67" d="M92.213 7.828h593.6v485.5h-593.6z"/></clipPath></defs><g fill-rule="evenodd" clip-path="url(#a)"><path stroke="#000" stroke-width="1.063" fill="#fff" d="M991.81 492.88H4.18V8.38h987.63z" transform="matrix(.863 0 0 1.055 -79.537 -8.255)"/><path fill="#3e5698" d="M776.395 419.242H-75.93v92.494h852.325z"/><path fill="#c60000" d="M776.395 397.814H-75.93v-283.32h852.325z"/><path fill="#3e5698" d="M776.395.58H-75.93v92.494h852.325z"/><path d="M328.738 256.18c0 63.475-53.137 114.93-118.682 114.93-65.548 0-118.683-51.457-118.683-114.93 0-63.478 53.137-114.933 118.683-114.933 65.547 0 118.682 51.457 118.682 114.932z" fill="#fff"/><path fill="#c40000" d="M268.126 336.466l-57.024-40.712-57.935 41.28 22.766-66.354-57.086-40.635 71.09-.29 22.645-66.393 21.174 66.174 71.09-.407-58.004 41.193z"/></g></svg>