<svg xmlns="http://www.w3.org/2000/svg" height="512" width="512" viewBox="0 0 512 512"><defs><clipPath id="a"><path fill-opacity=".67" d="M0 0h512v512H0z"/></clipPath></defs><g fill-rule="evenodd" clip-path="url(#a)"><path fill="#fff" d="M610.61 511.56h-730.17v-512h730.17zM251.87 256.02a112.507 112.507 0 1 1-225.013 0 112.507 112.507 0 1 1 225.014 0z"/><path d="M393.01 262.55a145.262 146.803 0 1 1-290.522 0 145.262 146.803 0 1 1 290.523 0z" fill="#c70000"/><path d="M-49.417 126.44l83.66-96.77 19.82 17.135-83.66 96.77zm27.4 23.687l83.66-96.77 19.82 17.135-83.66 96.77zM-49.417 126.44l83.66-96.77 19.82 17.135-83.66 96.77zM-49.417 126.44l83.66-96.77 19.82 17.135-83.66 96.77zm55.384 47.88l83.66-96.77 19.82 17.136-83.66 96.77zM-49.417 126.44l83.66-96.77 19.82 17.135-83.66 96.77zM-49.417 126.44l83.66-96.77 19.82 17.135-83.66 96.77zm508.83-96.802l83.002 97.335-19.937 17-83.002-97.334zM403.707 77.14l83.002 97.336-19.937 17-83.002-97.334z"/><path d="M417.55 133.19l78.602-67.814 14.64 16.953-83.995 75.518-9.247-24.66z" fill="#fff"/><path d="M514.228 372.013l-80.416 95.83-19.716-16.4 80.417-95.83zM431.853 53.14l83.002 97.334-19.936 17-83.003-97.333zm109.622 341.536l-80.417 95.83-19.715-16.4 80.417-95.83zm-55.085-45.82l-80.417 95.83-19.715-16.4 80.416-95.828z"/><path d="M104.6 236.68c4.592 36.974 11.297 78.175 68.2 82.455 21.327 1.278 62.816-5.074 77.06-63.19 18.688-55.83 74.975-71.88 113.28-41.613 21.718 14.166 27.727 36.666 29.283 53.557-1.74 54.242-32.874 101.2-72.823 122.14-45.93 27.3-109.56 27.87-165.3-13.49-25.12-23.57-60.22-67.02-49.7-139.86z" fill="#3d5897"/><path d="M435.91 370.59l78.734 67.66-14.59 16.998-87.157-71.85 23.013-12.808z" fill="#fff"/><path d="M-1.887 357.197l83.002 97.335-19.937 17-83.002-97.334z"/><path d="M-16.188 437.25l78.602-67.814 14.64 16.953-83.995 75.518-9.248-24.66z" fill="#fff"/><path d="M25.672 333.696l83.003 97.334-19.937 17-83.002-97.334zM-30.033 381.2l83.002 97.333-19.937 17L-49.97 398.2z"/></g></svg>