<svg xmlns="http://www.w3.org/2000/svg" height="512" width="512" viewBox="0 0 512 512"><g fill-rule="evenodd"><path fill="#6fdcff" d="M0 0h512v512H0z"/><g fill="#ffe400"><path d="M42.99 497.93c3.468 3.395 2.326 9.107 11.973 8.372 14.726 0 15.15-9.008 15.15-15.298 0-6.28-21.942-15.065-22.952-24.306-1.024-9.252 5.065-11.835 10.16-11.835 5.064 0 8.62 2.96 8.62 5.544s-2.53 3.33-6.09 3.33 1.524-1.85-1.52-3.33-5.08 2.216-5.08 4.443c0 2.216 7.612 2.95 12.69 1.29 1.026 4.99 1.524 5.368-5.59 13.863 5.093-3.33 5.577-4.064 11.183-2.215-5.592-4.81-1.405-14.608-1.215-17.102s-1.07-5.456-3.352-6.937c-4.07-3.697-12.955-3.864-18.283-1.48-7.758 3.46-8.14 13.67-6.104 17.01l21.502 22.047c1.523 2.594 2.05 9.797-7.085 10.165-9.646.735-12.954-12.414-14.667-16.79-2.298 4.776-4.86 17.96-14.506 17.224-9.15-.367-10.905-7.57-9.383-10.165l22.09-22.48c2.02-3.34 1.64-13.55-6.12-17.01-5.327-2.384-14.198-2.217-18.267 1.48-2.284 1.48-3.557 4.442-3.367 6.936s4.377 12.292-1.215 17.102c5.607-1.85 6.105-1.114 11.184 2.215-7.114-8.495-6.6-8.873-5.59-13.862 5.08 1.66 12.705.926 12.705-1.29 0-2.227-2.05-5.923-5.096-4.443-3.03 1.48 2.035 3.33-1.507 3.33-3.572 0-6.104-.746-6.104-3.33s3.557-5.544 8.636-5.544 11.168 2.583 10.143 11.835c-1.01 9.24-23.523 19.33-23.523 25.608 0 6.29 1.566 13.996 16.292 13.996 9.647.735 10.788-4.977 14.287-8.373zM41.818 365.99c3.47-3.395 6.324-13.46 15.97-12.725 14.726 0 20.303 8.14 20.303 14.43 0 6.28-29.95 57.685-30.96 66.926-1.023 9.253 5.066 11.837 10.16 11.837 5.065 0 8.622-2.962 8.622-5.545s-2.532-3.33-6.09-3.33 1.523 1.85-1.522 3.33-5.08-2.216-5.08-4.443c0-2.216 7.613-2.95 12.692-1.292 1.025-4.988 1.522-5.367-5.592-13.862 5.094 3.33 5.577 4.064 11.184 2.216-5.592 4.81-1.405 14.607-1.215 17.1s-1.07 5.457-3.353 6.938c-4.07 3.696-12.955 3.863-18.283 1.48-7.758-3.462-8.14-13.672-6.104-17.012l28.94-62.495c1.52-2.594-2.533-11.1-11.667-11.468-9.647-.735-12.955 9.375-14.668 13.75l13.145-.957s.513 2.026 0 3.34c-6.792.445-13.145 1.68-13.145 1.68l-.497 6.66h6.484l-.512 2.95s-5.475-.368-5.972 0c-.513.367-1.025 6.67-1.025 6.67s-1.01.367-2.108.367c-1.112 0-2.122-.368-2.122-.368s-.513-6.302-1.01-6.67c-.513-.367-5.987 0-5.987 0l-.498-2.95h6.485l-.513-6.658s-6.353-1.237-13.145-1.682c-.497-1.314 0-3.34 0-3.34l13.145.957c-1.712-4.375-5.02-14.485-14.652-13.75-9.15.367-13.204 8.874-11.68 11.468L40.5 432.038c2.02 3.34 1.64 13.55-6.118 17.013-5.328 2.383-14.2 2.216-18.268-1.48-2.284-1.48-3.557-4.443-3.367-6.937s4.377-12.29-1.215-17.1c5.606 1.847 6.104 1.112 11.183-2.217-7.114 8.495-6.6 8.874-5.59 13.862 5.078-1.66 12.704-.924 12.704 1.29 0 2.228-2.05 5.925-5.095 4.444-3.03-1.48 2.035-3.33-1.507-3.33-3.572 0-6.104.747-6.104 3.33s3.557 5.545 8.636 5.545 11.17-2.584 10.144-11.836c-1.01-9.24-30.96-60.646-30.96-66.925 0-6.29 5.578-14.43 20.304-14.43 9.646-.735 13.07 9.33 16.57 12.726zM41.818 340.517c3.47 3.395 6.323 13.46 15.97 12.726 14.726 0 20.303-8.14 20.303-14.43 0-6.28-29.95-57.685-30.96-66.926-1.023-9.253 5.066-11.836 10.16-11.836 5.065 0 8.62 2.963 8.62 5.546s-2.53 3.33-6.088 3.33 1.523-1.85-1.522-3.33-5.08 2.216-5.08 4.442c0 2.216 7.613 2.95 12.692 1.292 1.025 4.988 1.522 5.366-5.592 13.862 5.094-3.33 5.577-4.064 11.184-2.216-5.592-4.81-1.406-14.608-1.215-17.102s-1.07-5.455-3.353-6.936c-4.07-3.697-12.955-3.864-18.283-1.48-7.758 3.462-8.14 13.67-6.104 17.012l28.94 62.495c1.52 2.594-2.533 11.1-11.668 11.468-9.646.735-12.954-9.375-14.667-13.75l13.145.957s.512-2.027 0-3.34c-6.792-.446-13.145-1.682-13.145-1.682l-.497-6.658h6.484l-.512-2.95s-5.475.367-5.972 0c-.513-.368-1.025-6.67-1.025-6.67s-1.01-.367-2.108-.367c-1.112 0-2.123.368-2.123.368s-.512 6.302-1.01 6.67c-.512.367-5.986 0-5.986 0l-.498 2.95h6.484l-.512 6.658s-6.353 1.236-13.145 1.682c-.497 1.313 0 3.34 0 3.34l13.145-.958c-1.713 4.376-5.02 14.486-14.653 13.75-9.148-.367-13.203-8.873-11.68-11.467L40.5 274.47c2.02-3.34 1.64-13.55-6.118-17.013-5.33-2.383-14.2-2.216-18.27 1.48-2.282 1.482-3.556 4.443-3.365 6.937s4.376 12.292-1.215 17.102c5.606-1.848 6.104-1.113 11.183 2.216-7.114-8.496-6.602-8.874-5.592-13.862 5.08 1.66 12.706.924 12.706-1.292 0-2.226-2.05-5.923-5.095-4.442-3.03 1.48 2.035 3.33-1.508 3.33-3.57 0-6.104-.747-6.104-3.33s3.557-5.545 8.637-5.545 11.17 2.584 10.144 11.837c-1.01 9.24-30.96 60.646-30.96 66.926 0 6.29 5.578 14.43 20.304 14.43 9.646.735 13.07-9.33 16.57-12.726zM41.818 171.146c3.47-3.396 6.324-13.46 15.97-12.726 14.726 0 20.303 8.14 20.303 14.43 0 6.28-29.95 57.685-30.96 66.926-1.023 9.252 5.066 11.836 10.16 11.836 5.065 0 8.622-2.962 8.622-5.545s-2.532-3.33-6.09-3.33 1.523 1.85-1.522 3.33-5.08-2.216-5.08-4.443c0-2.215 7.613-2.95 12.692-1.29 1.025-4.99 1.522-5.368-5.592-13.863 5.094 3.33 5.577 4.065 11.184 2.217-5.592 4.81-1.405 14.607-1.215 17.1s-1.07 5.457-3.353 6.938c-4.07 3.696-12.955 3.863-18.283 1.48-7.758-3.462-8.14-13.672-6.104-17.012l28.94-62.495c1.52-2.594-2.533-11.1-11.667-11.468-9.647-.735-12.955 9.375-14.668 13.75l13.145-.957s.513 2.026 0 3.34c-6.792.445-13.145 1.68-13.145 1.68l-.497 6.66h6.484l-.512 2.95s-5.475-.368-5.972 0c-.513.367-1.025 6.67-1.025 6.67s-1.01.367-2.108.367c-1.112 0-2.122-.368-2.122-.368s-.513-6.302-1.01-6.67c-.513-.367-5.987 0-5.987 0l-.498-2.95h6.485l-.513-6.658s-6.353-1.236-13.145-1.68c-.497-1.315 0-3.34 0-3.34l13.145.956c-1.712-4.375-5.02-14.485-14.652-13.75-9.15.367-13.204 8.874-11.68 11.468L40.5 237.193c2.02 3.34 1.64 13.55-6.118 17.013-5.328 2.382-14.2 2.215-18.268-1.48-2.284-1.48-3.557-4.444-3.367-6.938s4.377-12.29-1.215-17.1c5.606 1.847 6.104 1.112 11.183-2.217-7.114 8.496-6.6 8.875-5.59 13.863 5.078-1.66 12.704-.924 12.704 1.29 0 2.228-2.05 5.925-5.095 4.444-3.03-1.48 2.035-3.33-1.507-3.33-3.572 0-6.104.747-6.104 3.33s3.557 5.545 8.636 5.545 11.17-2.584 10.144-11.836c-1.01-9.24-30.96-60.647-30.96-66.926 0-6.29 5.578-14.43 20.304-14.43 9.646-.735 13.07 9.33 16.57 12.726zM41.818 145.672c3.47 3.395 6.323 13.46 15.97 12.726 14.726 0 20.303-8.14 20.303-14.43 0-6.28-29.95-57.685-30.96-66.926-1.023-9.253 5.066-11.836 10.16-11.836 5.065 0 8.62 2.962 8.62 5.545s-2.53 3.33-6.088 3.33 1.523-1.848-1.522-3.33-5.08 2.217-5.08 4.443c0 2.216 7.613 2.95 12.692 1.292 1.025 4.988 1.522 5.366-5.592 13.862 5.094-3.33 5.577-4.064 11.184-2.216-5.592-4.81-1.406-14.607-1.215-17.1s-1.07-5.456-3.353-6.937c-4.07-3.697-12.955-3.864-18.283-1.48-7.758 3.462-8.14 13.67-6.104 17.012l28.94 62.495c1.52 2.594-2.533 11.1-11.668 11.468-9.646.735-12.954-9.375-14.667-13.75l13.145.957s.512-2.027 0-3.34c-6.792-.446-13.145-1.682-13.145-1.682l-.497-6.658h6.484l-.512-2.95s-5.475.367-5.972 0c-.513-.368-1.025-6.67-1.025-6.67s-1.01-.367-2.108-.367c-1.112 0-2.123.368-2.123.368s-.512 6.3-1.01 6.67c-.512.366-5.986 0-5.986 0l-.498 2.95h6.484l-.512 6.657s-6.353 1.236-13.145 1.682c-.497 1.313 0 3.34 0 3.34l13.145-.958c-1.713 4.376-5.02 14.486-14.653 13.75-9.148-.367-13.203-8.873-11.68-11.467L40.5 79.625c2.02-3.34 1.64-13.55-6.118-17.013-5.33-2.383-14.2-2.216-18.27 1.48-2.282 1.482-3.556 4.443-3.365 6.937s4.376 12.29-1.215 17.1c5.606-1.847 6.104-1.112 11.183 2.217-7.114-8.496-6.602-8.874-5.592-13.862 5.08 1.66 12.706.924 12.706-1.292 0-2.226-2.05-5.923-5.095-4.442-3.03 1.48 2.035 3.33-1.508 3.33-3.57 0-6.104-.746-6.104-3.33s3.557-5.544 8.637-5.544 11.17 2.583 10.144 11.836c-1.01 9.24-30.96 60.646-30.96 66.926 0 6.29 5.578 14.43 20.304 14.43 9.646.735 13.07-9.33 16.57-12.726zM42.988 13.71c3.47-3.394 2.328-9.106 11.974-8.37 14.726 0 15.15 9.006 15.15 15.297 0 6.28-21.942 15.064-22.952 24.305-1.024 9.253 5.065 11.836 10.16 11.836 5.064 0 8.62-2.962 8.62-5.545s-2.532-3.33-6.09-3.33 1.524 1.85-1.52 3.33-5.08-2.216-5.08-4.443c0-2.215 7.61-2.95 12.69-1.29 1.025-4.99 1.523-5.368-5.59-13.863 5.093 3.33 5.576 4.064 11.182 2.216-5.59 4.81-1.405 14.608-1.214 17.102s-1.07 5.455-3.353 6.936c-4.07 3.698-12.954 3.865-18.282 1.48-7.76-3.46-8.14-13.67-6.104-17.01L64.08 20.313c1.522-2.594 2.05-9.798-7.085-10.166-9.646-.734-12.955 12.415-14.667 16.79-2.298-4.776-4.86-17.96-14.507-17.224-9.148.368-10.905 7.57-9.383 10.166l22.09 22.48c2.02 3.34 1.64 13.55-6.12 17.012-5.328 2.383-14.198 2.216-18.268-1.48-2.283-1.482-3.557-4.443-3.366-6.937s4.376-12.292-1.215-17.102c5.607 1.848 6.105 1.113 11.184-2.216-7.114 8.495-6.602 8.874-5.592 13.862 5.08-1.66 12.706-.925 12.706 1.29 0 2.227-2.05 5.924-5.094 4.443-3.03-1.48 2.035-3.33-1.508-3.33-3.57 0-6.104.747-6.104 3.33s3.557 5.545 8.637 5.545 11.168-2.583 10.143-11.836c-1.01-9.24-23.523-19.328-23.523-25.608 0-6.29 1.566-13.995 16.292-13.995 9.646-.736 10.788 4.976 14.286 8.37z"/></g><g fill="#ffe400" transform="translate(-220 40)"><rect rx="85.12" ry="80.648" height="161.3" width="170.24" y="104.45" x="425.9"/><path d="M506.94 56.355c-.708-.007-4.534 26.842-6.013 32.876-1.325 13.43 18.07 12.94 14.897-.53l-8.88-32.345zm6.83 259.855c.706.053 6.49-26.48 8.408-32.4 2.306-13.31-17.078-14.1-14.9-.45l6.492 32.85zm-135.6-131.6c-.06.67 27.915 6.277 34.156 8.123 14.037 2.25 14.962-16.113.547-14.115l-34.703 5.992zm271.72 3.19c.03-.67-28.166-5.274-34.483-6.896-14.123-1.745-14.234 16.638.08 14.125l34.403-7.23zm-243.1-88.16c-.482.493 17.893 21.25 21.605 26.35 9.588 9.97 22.265-3.946 9.616-10.794l-31.22-15.56zm211.16 171c.435-.53-19.772-19.698-23.937-24.472-10.465-9.145-21.82 5.76-8.59 11.543l32.528 12.93zM448.97 70.62c-.644.28 7.966 26.113 9.34 32.17 4.84 12.685 22.167 4.414 13.24-6.493L448.97 70.62zm123.01 232.34c.663-.237-6.032-26.575-6.96-32.708-3.897-12.973-21.79-5.862-13.682 5.606l20.642 27.1zm30.18-214.358c-.51-.465-22.71 16.61-28.152 20.045-10.676 8.923 3.807 21.156 11.236 9.282L602.16 88.6zM419.24 282.33c.476.497 23.874-15.076 29.553-18.145 11.304-8.2-2.247-21.355-10.528-10L419.24 282.33zm-35.09-144.17c-.29.612 24.124 14.715 29.362 18.422 12.45 6.543 19.765-10.482 5.47-13.14l-34.832-5.282zm253.92 98.44c.335-.59-22.987-16.266-27.94-20.31-11.94-7.346-20.487 9.157-6.42 12.75l34.36 7.56zm-80.7-172.88c-.657-.252-14.57 23.415-18.275 28.52-6.412 12.042 11.83 18.3 14.072 4.662l4.204-33.183zm-93.85 244.25c.637.294 16.252-22.4 20.322-27.25 7.28-11.59-10.46-19.035-13.696-5.577l-6.626 32.826zm-77.48-69.29c.257.625 27.986-5.986 34.45-6.926 13.65-3.825 5.964-20.703-6.057-12.906L386.04 238.68zm252.09-102.57c-.21-.64-28.357 4.13-34.873 4.643-13.9 2.917-7.468 20.26 5.096 13.273l29.777-17.916zM534.62 58.12c-.692-.142-10.14 25.428-12.87 31.057-4.15 12.903 14.954 16.12 14.705 2.318L534.62 58.12zm-48.47 255.85c.68.187 11.98-24.7 15.115-30.136 5.085-12.6-13.736-17.064-14.5-3.28l-.615 33.416zm-9.77-253.33c-.692.143 1.918 27.12 1.9 33.316 1.88 13.37 20.668 8.783 14.395-3.675l-16.29-29.64zm68.01 251.82c.7-.098.075-27.183.546-33.362-.895-13.462-19.974-10.12-14.628 2.72l14.082 30.64zM428.16 83.092c-.58.384 12.765 24.345 15.26 30.07 7.154 11.66 22.642.59 11.8-8.63l-27.06-21.44zM593.02 290.86c.607-.345-10.95-25.126-13.02-31.002-6.282-12.104-22.544-2.077-12.403 7.834l25.423 23.168zM393 116.64c-.397.556 21.128 18.39 25.624 22.888 11.09 8.456 21.36-7.142 7.75-12.065L393 116.64zm234.19 139.62c.436-.53-19.73-19.736-23.885-24.52-10.445-9.164-21.832 5.72-8.615 11.527l32.5 12.992zm-249.62-97.73c-.18.65 26.336 10.784 32.143 13.63 13.41 4.53 17.693-13.4 3.13-13.81l-35.273.18zm267.47 57.82c.23-.635-25.482-12.49-31.067-15.712-13.045-5.4-18.632 12.204-4.135 13.57l35.202 2.143zm-268.34-6.39c.098.665 28.69.262 35.207.752 14.214-.753 10.823-18.853-2.767-13.88L376.7 209.96zm270.21-44.99c-.05-.67-28.6-2.15-35.067-3.067-14.235-.184-12.178 18.095 1.743 14.027l33.324-10.96zm-245.73 98.46c.395.557 25.926-11.64 32.015-13.9 12.438-6.56 1.04-21.437-8.89-11.337L401.18 263.43zm222.3-152.33c-.353-.582-26.717 9.907-32.956 11.76-12.89 5.726-2.61 21.317 8.037 11.895l24.92-23.654zM442.83 298.77c.597.362 18.872-20.474 23.505-24.846 8.643-10.718-8.072-20.052-12.925-7.037l-10.58 31.883zM582.54 75.063c-.57-.4-20.327 19.183-25.27 23.24-9.406 10.123 6.584 20.534 12.38 7.87l12.89-31.11z"/><g transform="matrix(2.182 0 0 2.063 -405.01 -272.56)"><path d="M360.137 247.89c.625 2.5.78 16.56 14.844 30 14.063 13.436 37.97 16.405 37.97 16.405s.156 1.875-1.563 2.03c-1.72.158-9.844-1.56-13.906-2.81-4.062-1.25-7.655-3.44-8.124-3.282-.47.156-1.25 1.562-2.5 1.406s-7.03-6.25-9.53-7.814c-2.5-1.562-10.94-10.78-13.75-15.312-2.814-4.53-3.44-7.5-4.376-7.5-.938 0-4.22 2.187-4.22 2.187s-2.968-4.53-5.624-11.718c-2.656-7.187-2.344-11.406-1.72-11.718.626-.313.626 5.312 2.657 10.468 2.032 5.157 4.844 6.72 4.844 6.72s-1.875-2.657-3.28-9.376-1.876-13.125-.94-15.156c.94-2.03 1.876-2.656 2.033-2.5.156.156-1.72 3.125-.47 10.78s4.845 14.22 5.626 13.907c.78-.312-.47-1.875-1.094-6.406s.625-7.343 1.72-7.655c.468-.47 1.25 5 1.405 7.344zm-9.845 12.81c-2.656-2.5-6.875-11.25-7.812-10.782-.938.47 6.875 12.97 7.03 14.063.157 1.094 1.876 4.532.626 4.063s-10.625-10.312-9.53-8.437 8.124 10.468 7.655 10.937-5.78-4.688-5.936-4.062c-.157.626 5.312 5.782 5.156 6.407s-3.438-3.28-3.438-2.5 3.438 4.687 3.438 5.312-2.97-2.813-2.03-.938c.936 1.875 3.592 3.594 3.436 4.22s-2.187-.783-2.187-.47c0 .312 3.905 1.72 4.842 2.812.938 1.094 7.344 8.438 12.188 12.188s18.594 10.156 19.53 10.156c.94 0 2.345-2.03 2.032-2.812-.312-.782-13.75-5.313-17.5-8.75-3.75-3.438-12.968-11.563-13.75-12.032-.78-.468-2.812-.312-2.812-.78s2.656.312 2.5 0c-.156-.313-3.75-1.876-3.594-2.188.156-.313 2.5.625 2.5.312 0-.312-4.22-2.656-4.062-3.125.156-.47 3.125 1.406 3.125 1.094 0-.313-4.064-3.125-3.908-3.594.157-.47 3.125 2.188 2.97 1.563s-2.345-3.907-2.345-4.375c0-.468 3.594 3.438 3.907 2.657.312-.78-1.25-7.188-1.094-7.344s2.645 1.422 3.114.484c.468-.937-1.837-2.24-4.052-4.078zm46.108 49.2c-1.893.25-2.747-.393-1.672-1.934 1.488-.11 5.45-1.38 6.85-1.96s2.893-1.416 4.136-2.534c1.24-1.22 1.903.782 1.282 1.82-.515.73-2.838 2.043-4.545 2.738-2.478.825-4.61 1.967-6.05 1.87zm12.487-5.13c-1.25-1.408-.156-2.345 1.72-3.44 2.81-1.56 2.03-3.592 5.624-5.31 1.564-.94 23.907-10 31.25-14.845s27.814-20.313 33.282-30.938c5.47-10.625 2.813-11.406 3.594-11.875.78-.468 1.563 1.563 1.406 3.907-.156 2.342-1.875 9.374-1.406 10s8.28-5.47 11.406-12.97 5.625-15.313 7.188-15.313c1.562 0-2.656 12.813-5.313 17.813-2.656 5-5.78 7.5-5 8.594.782 1.093 8.594-5.47 11.25-10.313 2.657-4.843 5.157-9.218 5.625-8.28.47.937-2.5 11.25-6.718 16.094-4.22 4.843-9.22 8.28-8.438 9.062.78.782 6.406 1.563 12.344-2.5 5.937-4.062 6.562-10 7.344-9.687.78.31-.782 8.436-6.407 13.436s-13.28 5.47-12.968 6.563c.31 1.093 16.25-4.532 15.936-3.282-.312 1.25-20.625 9.218-20.782 10 0 .625 3.44.78 8.907-.47 5.47-1.25 10.627-5.467 11.408-4.53.155 1.406-3.907 4.844-10.157 6.406-6.25 1.563-9.374 3.75-9.53 4.22-.156.467 11.094-1.408 11.094-.783s-14.688 3.44-14.844 4.22c-.156.782 14.062-2.812 13.75-2.03-.313.78-19.22 6.405-19.063 6.718.157.312 15.782-3.438 15.47-2.813-.313.625-26.407 7.97-26.563 8.438-.157.468 22.968-5.157 22.812-4.688s-12.03 3.437-12.03 3.75c0 .312 9.53-1.562 9.374-1.094-.156.47-24.063 6.564-24.532 7.5-.468.94 12.344-2.5 12.188-.78s-27.656 11.094-27.813 9.375c-.156-1.72 16.72-6.094 16.563-6.562-.156-.47-9.687 1.093-9.844.156-.156-.94 6.25-2.97 5.782-3.44-.47-.467-5.313 1.407-4.844.314.47-1.094 9.53-5.313 9.375-5.625-.156-.314-3.28 1.092-2.97 0 .314-1.095 19.688-6.72 19.376-7.345-.312-.625-8.905 1.406-9.686 1.562-.313-.624 12.03-5.156 11.718-5.937-.312-.78-6.562 2.656-6.874 1.72-.313-.94 10.78-5.314 10.156-5.94s-5.78 1.72-6.406 1.095 10.468-8.437 8.75-8.594c-1.72-.155-3.75 2.346-4.063.783.313-2.032 8.75-5.313 6.875-6.875-2.97-.938-13.125.625-17.344 3.125s-18.125 16.406-21.563 18.593c-3.437 2.188-15 7.032-17.187 7.97-3.438 1.25-4.063 3.124-7.5 4.843-6.25 1.718-6.25 3.593-9.22 4.686-1.092.313-12.342 5.78-12.5 5.313zm-15.78 7.027c-1.875.938-3.593 3.438-2.5 4.375.625 1.25 2.5-2.656 4.062-2.5 1.562.156 3.75.157 7.968.47 4.22.312 6.406-.938 8.75-.782s7.657-1.25 10.157-1.25 2.968.312 3.28-.782c.313-1.093-7.812-.312-11.406-.468-3.594-.156-8.126.78-10.782.78-2.5-.155-6.875-.937-9.53.157z"/><rect rx="1.719" ry="1.484" height="2.969" width="3.438" y="309.14" x="401.7"/><path d="M445.02 307.73c1.718-.312 6.307 1.25 9.478 2.032 5.828 2.188 16.603 1.094 16.603 2.188s-.67 2.5-3.24 2.656-8.76-.937-8.588-.937 4.972 2.186 3.6 2.81-5.486-1.25-6.17-.78 3.77 1.406 3.085 1.72c-.686.31-3.782-.47-4.81-.313-1.03.155.867 1.25-.334 1.718-1.2.47-3.216-.624-4.073-.313-.857.314 1.845 2.032.645 2.188-1.2.156-4.09-.78-5.632-.937-1.543-.156 1.518 1.562.49 1.718-1.03.157-3.827-1.248-4.512-1.248s.055 1.874-.973 1.874c-1.03 0-2.24-1.562-2.753-1.562s.01 1.875-1.018 1.875-1.397-2.032-2.254-1.876c-1.014.157.025 2.656-1.346 2.5-1.37-.157-1.553-2.656-2.58-2.5-1.03.156.18 2.5-.848 2.5s-1.195-2.344-2.224-2.5c-1.028-.156-.52 2.187-1.205 2.187s-1.196-2.186-1.54-2.186c-.34 0-.003 2.187-1.204 2.03s-1.194-2.5-1.538-2.343c-.342.158-.348 1.72-1.204 1.72s-.853-1.562-1.195-1.406c-.345.156-1.55 2.187-2.406 1.875-.857-.314.206-1.876-.136-1.876-.343 0-1.406 1.093-2.092.937s.035-1.405-.137-1.405c-.172 0-1.75.78-2.436.78s-2.57 1.095-3.086.157c-.513-.937 1.342-.937 1.684-1.875.344-.937-.998-3.593.373-4.53 1.372-.938 5.658 1.25 12-.313 11.656-3.125 20.652-6.718 21.575-6.563z"/></g></g></g></svg>