<svg xmlns="http://www.w3.org/2000/svg" height="512" width="512" viewBox="0 0 512 512"><defs><clipPath id="a"><path fill-opacity=".67" d="M124.02 0h496.06v496.06H124.02z"/></clipPath></defs><g clip-path="url(#a)"><g fill-rule="evenodd"><path fill="#f00" d="M-128 383.956h767.9v127.988H-128zM128-23.812h767.9v127.99H0z"/><path fill="#fff" d="M-128 127.99h767.9v255.966H-128z"/></g><path d="M252.044 129.93c-7.81 15.59-13.016 15.59-26.03 25.986-5.206 5.197-13.015 7.795-2.604 12.994-10.41 5.196-15.618 7.795-20.824 18.19l2.602 2.598s9.894-4.85 10.413-2.598c1.732 2.077-13.022 10.05-14.926 11.26s-11.104 6.93-11.104 6.93c-13.014 10.395-20.825 7.795-28.634 23.388l26.03-2.598c5.208 18.19-13.014 20.79-26.03 28.585l-20.824 12.993c5.207 18.19 20.824 7.796 33.84 2.598l2.604 2.6v5.197l-26.032 12.994s-30.728 17.582-31.236 18.19c-.21.94 0 5.197 0 5.197 10.412 2.598 26.03 5.198 36.443 0 13.015-5.197 15.618-10.394 31.237-10.394-18.222 12.992-31.236 18.19-52.06 20.788v10.396c15.617 0 26.03 0 39.045-2.6l33.84-10.393c7.81 0 15.618 7.796 13.016 15.592-7.81 28.584-39.047 23.388-49.46 46.776l41.65-15.592c10.412-5.197 20.824-10.394 33.84-7.796 15.618 5.196 15.618 15.593 36.443 20.79l-5.205-12.994c5.206 2.6 10.412 2.6 15.618 5.197 13.016 5.198 15.62 10.395 31.236 7.796-13.015-15.594-15.618-12.994-26.03-23.388-10.413-15.593-15.62-38.98 0-41.58l18.22 5.2c18.222 2.596 18.222-2.6 44.252 7.794 15.62 5.198 20.826 12.993 39.047 7.796-7.81-18.19-36.444-31.184-54.665-36.38 20.824-12.995 15.617 5.196 44.25-2.6v-5.197c-20.822-15.592-28.633-28.585-57.267-28.585l44.254-5.198v-5.197s-43.644-11.45-44.66-11.857c.305-1.32 1.372-3.365 4.27-4.496 8.288 5.365 33.353 4.74 34.777 4.638-.734-6.394-12.61-11.674-23.022-16.87 0 0-44.584-27.48-44.806-29.912.885-6.965 18.312 1.106 36.997 6.523-5.208-10.393-15.62-15.59-26.033-18.19l15.62-2.598c-10.413-23.388-36.444-20.79-52.062-31.184-10.413-7.795-10.413-12.993-26.03-20.79z" fill="#007900"/><path stroke-linejoin="round" d="M223.922 303.026c1.932-6.193 4.476-11.673-7.115-16.95-11.593-5.28 5.793 21.11 7.115 16.95zm130.814-21.78c-2.337.304-3.56 8.834 1.116 11.167 5.188.81.918-11.065-1.116-11.167zm13.104-.524c-2.442.712-2.543 12.69 6 10.558 8.54-2.13-.105-11.572-6-10.558zm15.34-30.736c1.828-2.944-.102-15.023-7.426-9.948-7.32 5.076 5.085 10.76 7.425 9.948zm-16.455-9.087c2.238-.814 2.442-8.223-3.964-6.294-6.403 1.928 2.24 7.816 3.965 6.293zm-13.943 3.25s-4.474-6.19-7.932-4.872c-4.372 4.162 8.237 4.974 7.932 4.873zm-49.14 19.693c1.905.174 16.025-2.328 20.906-7.81 4.88-5.48-25.124 2.347-25.124 2.448s2.834 4.844 4.218 5.363zm142.643-35.567c.728-1.295-7.516-7.17-12.415-4.855-1.26 4.34 12.374 5.748 12.415 4.856zm-32.146-12.88c1.525-2.232-3.558-11.367-13.727-6.292s10.675 9.846 13.726 6.293zm-31.266-4.943s2.54-8.222 8.643-6.598c6.915 5.28-8.34 6.904-8.643 6.598zm-5-6.025c-.916-2.334-7.322-.913-14.642 3.858-7.323 4.77 16.878 1.422 14.642-3.858zm18.896-21.944s6.522-2.92 8.44 0c2.746 4.365-8.54.102-8.44 0zm-6.06-2.162c-1.322-2.64-8.54-2.89-8.354.924-1.21 2.99 9.38 2.433 8.354-.924zm-17.033.098c-.71-1.523-10.98.03-14.03 6.192 4.897 2.382 16.27-2.334 14.03-6.192zm-21.428 6.295s-13.51 8.258-14.34 14.313c.41 5.228 16.778-9.44 16.778-9.44s1.424-5.787-2.44-4.873zm-14.263-7.708c.377-1.68 6.674-5.572 7.218-5.28.51 1.695-5.142 6.28-7.218 5.28zm4.735 31.802c.305-2.438-16.066-2.235-9.862 5.277 5.165 6.3 10.982-4.16 9.862-5.278zm-15.044 9.804c-.854-1.647-2.082-6.037-4.323-6.44-1.827-.104-11.67 1.926-12.424 3.593-.405 1.32 4.076 9.434 5.602 9.637 1.73.71 10.84-5.977 11.146-6.79zm88.78 54.754c.508-1.724 17.237-7.506 23.013-1.976 6.812 9.34-23.417 4.92-23.01 1.976zm43.248 9.23c3.666-6.202-11.256-13.556-17.59-6.468 2.166 8.516 14.627 11.598 17.59 6.47z" fill-rule="evenodd" stroke="#fff" stroke-linecap="round" stroke-width="3.218808" fill="#fff"/></g></svg>