<svg xmlns="http://www.w3.org/2000/svg" height="512" width="512" viewBox="0 0 512 512"><defs><clipPath id="a"><path fill-opacity=".67" d="M0 0h512v512H0z"/></clipPath></defs><g fill-rule="evenodd" clip-path="url(#a)"><path fill="#fff" d="M0 .084h767.87v511.92H0z"/><path fill="#006" d="M0 0h232.74v232.75H0z"/><path fill="#c00" d="M0 464.87h767.89v47.127H0zM0 465.43h767.89v46.574H0zm0-92.91h767.89v46.21H0zm0-93.26h765.96v46.7H0zM232.67.055h535.17V46.55H232.67zm0 186.005h535.17v46.796H232.67zm0-92.7h535.17v46.495H232.67z"/><path d="M166.35 177.47l-50.71-30.98-50.465 31.29 18.77-50.85L33.57 95.536l62.322-.438 19.328-50.69 19.744 50.573 62.32.068-50.114 31.693 19.184 50.733z" fill="#fff"/></g></svg>