<svg xmlns="http://www.w3.org/2000/svg" height="512" width="512" viewBox="0 0 512 512"><path d="M0 0h512v512H0z" fill="#fff"/><path d="M0 358.4h512V512H0z" fill="#009543"/><path d="M0 0h512v153.6H0z" fill="#00209f"/><path d="M257.597 163.104c-2.918.064-5.765 3.294-5.765 3.294l.253 34.533-10.903 11.422h8.824l-.074 19.8-52.208 70.303-7.718-2.667-13.49 28.776s33.364 20.89 81.793 20.32c53.15-.63 82.028-21.284 82.028-21.284l-13.94-28.406-6.827 2.97-52.876-69.94-.074-20.39h8.824l-12.01-11.282.072-34.405s-2.99-3.106-5.91-3.043z" stroke="#000" stroke-width="1.708"/><path d="M275.8 245.777h-36.1s-13.105-27.61-10.98-46.91c2.163-19.653 13.394-28.95 28.328-29.115 17.655-.196 26.91 8.653 29.704 28.33 2.77 19.496-10.953 47.693-10.953 47.693z" stroke="#000" stroke-width="8.534" fill="none"/><path d="M194.49 311.586c-.59.785-4.917 9.44-4.917 9.44l7.475-1.572-2.557-7.868zm4.33 11.213l-7.868 2.556 9.44 3.737-1.573-6.294zm3.54-11.018l3.935 11.606 9.64-2.753-2.56-5.51-11.016-3.344zm6.1 15.738l1.374 4.72 12.788 3.15-5.115-10.82-9.048 2.95zm14.16-9.836l4.527 10.82 9.64-3.737-3.15-4.723-11.015-2.36zm6.297 14.754l1.573 4.13 14.95 2.164-6.294-9.835-10.23 3.54zm14.36-11.607l5.51 9.64 13.964-5.114-1.572-3.738-17.902-.785zm8.065 13.18l2.95 5.117 17.31-.59-6.49-9.64-13.77 5.115zm18.296-12.785l4.72 8.064 11.017-5.31-2.953-4.33-12.784 1.575zm18.097 6.097l-11.016 5.51 2.95 4.72 14.754-2.36-6.69-7.87zm3.54-8.46l5.705 7.084 9.247-7.28-3.15-3.344-11.8 3.54zm16.918 3.74l-8.853 6.69 2.362 4.13 12.196-3.148-5.705-7.673zm12.197-13.968l2.163 3.148-6.098 9.05-6.294-8.067 10.23-4.13zm4.13 7.87l3.738 7.474-7.475 2.56-.59-3.543 4.328-6.492z" fill="#fff"/></svg>