<svg xmlns="http://www.w3.org/2000/svg" height="512" width="512" viewBox="0 0 512 512"><g fill-rule="evenodd"><path fill="#00319c" d="M0 0h170.667v512H0z"/><path fill="#ffde00" d="M170.667 0h170.666v512H170.667z"/><path fill="#de2110" d="M341.333 0H512v512H341.333z"/></g><path d="M173.62 690.94v63.78c0 3.543 0 7.086-3.543 7.086-3.544 0-7.087 7.087-7.087 10.63 0 7.087 3.543 10.63 7.087 10.63h31.89c3.543 0 7.086-3.543 7.086-10.63-.228-3.723-3.543-10.63-7.087-10.63-3.543 0-3.543-3.543-3.543-7.087v-63.78" fill-rule="evenodd" transform="matrix(.467 -.296 .309 .446 -5.143 64.498)" stroke="#000" stroke-width="1pt" fill="#ff1900"/><path d="M177.17 696.26c0 24.46-9.518 44.29-21.26 44.29-11.74 0-21.26-19.83-21.26-44.29s9.518-44.29 21.26-44.29c11.74 0 21.26 19.83 21.26 44.29z" fill-rule="evenodd" transform="matrix(.429 -.345 .361 .41 -29.658 77.262)" stroke="#000" stroke-width="3.125" fill="#a77b3b"/><path d="M173.62 690.94v63.78c0 3.543 0 7.086-3.543 7.086-3.544 0-7.087 7.087-7.087 10.63 0 7.087 3.543 10.63 7.087 10.63h31.89c3.543 0 7.086-3.543 7.086-10.63-.228-3.723-3.543-10.63-7.087-10.63-3.543 0-3.543-3.543-3.543-7.087v-63.78" fill-rule="evenodd" transform="scale(.56 .535) rotate(29.175 488.869 1020.492)" stroke="#000" stroke-width="1pt" fill="#ff1900"/><path d="M421.65 701.58h-28.347c-.937.938-8.998 54.066-17.716 74.41-10.63 24.802-42.465 46.69-42.465 46.69s19.073 6.044 24.748 10.002c1.41-.415 31.835-7.086 35.378-46.063 3.544 38.976-21.205 56.692-21.205 56.692s35.433 10.63 35.433 35.433c0-24.803 35.434-35.433 35.434-35.433s-17.772-17.716-21.315-56.693c7.086 38.976 34.077 45.647 35.488 46.062 5.675-3.958 24.748-10.003 24.748-10.003s-31.834-21.888-42.464-46.69c-8.718-20.344-16.78-73.472-17.716-74.41z" fill-rule="evenodd" transform="matrix(.56 0 0 .535 29.717 -86.339)" stroke="#000" stroke-width="3.125" fill="#a77b3b"/><path d="M336.61 467.7l53.15 17.716c17.716 0 35.433-17.697 35.433-35.414.59-39.414-14.174-53.168-17.717-53.168l7.087-7.087-10.63-10.63s3.554-18.382 38.976-17.698c35.42.684 35.432 17.716 35.432 35.432 0 17.717-17.716 17.717-17.716 53.15 0 17.717 17.716 35.433 35.433 35.433l53.15-17.716v177.16h-212.6V467.7z" fill-rule="evenodd" transform="matrix(.56 0 0 .535 9.84 -55.998)" stroke="#000" stroke-width="3.125" fill="#a77b3b"/><g stroke="#000" fill="none"><path d="M244.008 198.106l1.984 5.69 1.984-5.69 1.985 5.69 3.97-5.69 1.932 6.01 2.036-6.01 2.928 6.01 3.025-6.01 1.986 5.69 1.984-5.69M251.947 177.25l-3.97 20.86m5.958-20.86v20.86m3.966-20.86v20.86m3.972-20.86l1.984 20.86m1.986-20.86l1.985 20.86"/></g><g stroke="#000" stroke-width="3.125"><path d="M178.523 137.427c-19.845 9.482-19.845 28.444-19.845 37.926.7 8.625 0 189.63 0 189.63s1.29-10.715 9.922-18.963l9.923-9.48 9.922-9.483c7.254-6.3 9.923-18.963 9.923-28.445v-132.74s0-9.482-19.845-28.445z" fill-rule="evenodd" fill="#a77b3b"/><path d="M198.372 175.354c-.234 0-9.923-9.482-9.923-9.482l-9.923 9.482-9.923-9.482-9.922 9.482M198.372 184.822c-.234 0-9.923 9.482-9.923 9.482l-9.923-9.482-9.923 9.482-9.922-9.482M198.372 213.28c-.234 0-9.923-9.482-9.923-9.482l-9.923 9.482-9.923-9.482-9.922 9.482M188.33 165.885l.116 161.188M178.523 175.347l.116 160.817M168.6 165.872l.115 180.15" fill="none"/></g><g stroke="#000" stroke-width="3.125"><path d="M337.286 137.427c19.845 9.482 19.845 28.444 19.845 37.926-.7 8.625 0 189.63 0 189.63s-1.29-10.715-9.92-18.963l-9.924-9.48-9.922-9.483c-7.254-6.3-9.923-18.963-9.923-28.445v-132.74s0-9.482 19.846-28.445z" fill-rule="evenodd" fill="#a77b3b"/><path d="M317.437 175.354c.234 0 9.923-9.482 9.923-9.482l9.922 9.482 9.923-9.482 9.922 9.482M317.437 184.822c.234 0 9.923 9.482 9.923 9.482l9.922-9.482 9.923 9.482 9.922-9.482M317.437 213.28c.234 0 9.923-9.482 9.923-9.482l9.922 9.482 9.923-9.482 9.922 9.482M327.48 165.885l-.117 161.188M337.285 175.347l-.116 160.817M347.204 165.872l-.116 180.15" fill="none"/></g><path d="M177.17 696.26c0 24.46-9.518 44.29-21.26 44.29-11.74 0-21.26-19.83-21.26-44.29s9.518-44.29 21.26-44.29c11.74 0 21.26 19.83 21.26 44.29z" fill-rule="evenodd" transform="scale(.56 .535) rotate(22.62 601.103 1227.148)" stroke="#000" stroke-width="3.125" fill="#a77b3b"/><path fill-rule="evenodd" fill="#f00" d="M198.366 203.794h119.07v56.89h-119.07z"/><path d="M198.366 260.684h119.07v28.445c0 18.962-29.766 18.962-59.534 37.925-29.768-18.963-59.536-18.963-59.536-37.926v-28.446z" fill-rule="evenodd" fill="#564dff"/><path d="M336.61 485.43h212.6v159.45c0 35.433-53.15 35.433-106.3 70.866-53.15-35.433-106.3-35.433-106.3-70.866V485.43z" transform="matrix(.56 0 0 .535 9.842 -55.998)" stroke="#ff0" stroke-width="2.5" fill="none"/><path d="M385.59 129.9s-50.618 55.447-50.618 108.6c0 53.15 53.15 70.866 53.15 70.866s-17.718 0-17.718 70.866c0 35.433 53.15 17.717 53.15 35.433 0 17.717-.75 60.578 0 88.583 0 17.716-35.433 0-35.433 17.716 0 8.86 26.576 53.15 53.15 53.15 26.575 0 53.15-44.29 53.15-53.15 0-17.716-35.433 0-35.433-17.716v-88.583c0-17.716 53.15 0 53.15-35.433 0-70.866-17.717-70.866-17.717-70.866s53.15-17.717 53.15-70.866-50.62-108.6-50.62-108.6 28.474 73.163 28.474 108.6c0 17.717-13.287 53.15-48.72 53.15 0 0-8.96-17.717-17.717 0 0 0-10.19-17.717-17.716 0-2.597 6.114-7.206-17.717-17.716 0-4.465 4.696-7.984-17.717-17.717 0-17.716 0-53.148-17.717-53.15-53.15 0-35.433 32.903-108.6 32.903-108.6z" fill-rule="evenodd" transform="matrix(.392 0 0 .251 84.901 174.943)" stroke="#000" stroke-width="3.011" fill="#ff0"/><path d="M382.68 248.03c-3.543 3.543 4.58 61.274 7.087 63.78 3.543 3.542 24.803 3.542 28.346 0 2.525-2.526 0-56.694-3.543-60.237-3.543-3.544-29.384-6.05-31.89-3.543z" fill-rule="evenodd" transform="matrix(.392 0 0 .251 86.397 224.929)" stroke="#000" stroke-width="3.011" fill="#ff0"/><path d="M382.68 248.03c-3.543 3.543 4.58 61.274 7.087 63.78 3.543 3.542 24.803 3.542 28.346 0 2.525-2.526 0-56.694-3.543-60.237-3.543-3.544-29.384-6.05-31.89-3.543z" fill-rule="evenodd" transform="matrix(-.392 0 0 .251 429.412 224.929)" stroke="#000" stroke-width="3.011" fill="#ff0"/><path d="M414.57 228.54c0 8.806-7.14 15.945-15.945 15.945-8.806 0-15.945-7.14-15.945-15.945 0-8.806 7.14-15.945 15.945-15.945 8.806 0 15.945 7.14 15.945 15.945z" fill-rule="evenodd" transform="matrix(.451 0 0 .313 63.903 210.41)" stroke="#000" stroke-width="3.011" fill="#ff0"/><path d="M414.57 228.54c0 8.806-7.14 15.945-15.945 15.945-8.806 0-15.945-7.14-15.945-15.945 0-8.806 7.14-15.945 15.945-15.945 8.806 0 15.945 7.14 15.945 15.945z" fill-rule="evenodd" transform="matrix(.451 0 0 .313 92.642 210.41)" stroke="#000" stroke-width="3.011" fill="#ff0"/><path d="M270.41 311.012c0 1.23-1.556 2.226-3.474 2.226s-3.473-.997-3.473-2.226c0-1.23 1.555-2.226 3.473-2.226s3.473.997 3.473 2.226zm-18.063 0c0 1.23-1.555 2.226-3.473 2.226s-3.473-.997-3.473-2.226c0-1.23 1.556-2.226 3.474-2.226s3.473.997 3.473 2.226z" fill-rule="evenodd"/><path fill-rule="evenodd" transform="matrix(.546 0 0 .522 17.827 -47.302)" stroke="#000" stroke-width="1pt" fill="#ff0" d="M439.37 549.92l-7.78-10.26-12.77 1.75 1.76-12.76-10.26-7.78 10.26-7.79-1.76-12.76 12.77 1.76 7.78-10.27 7.78 10.27 12.77-1.76-1.76 12.76 10.26 7.79-10.26 7.78 1.76 12.76-12.77-1.75z"/><path d="M496.06 591.73l21.26 10.63 21.26-10.63-21.26-10.63-21.26 10.63z" fill-rule="evenodd" transform="matrix(.56 0 0 .535 9.84 -55.998)" stroke="#000" stroke-width="1pt" fill="#ff0"/><path d="M496.06 591.73l21.26 10.63 21.26-10.63-21.26-10.63-21.26 10.63z" fill-rule="evenodd" transform="matrix(.56 0 0 .535 -75.491 -55.998)" stroke="#000" stroke-width="1pt" fill="#ff0"/><path d="M535.04 659.06c-3.543-7.086-14.173-10.63-21.26-10.63-7.086 0-14.173 0-21.26 10.63 0-14.173 10.503-21.26 21.26-21.26 10.757 0 21.26 10.503 21.26 21.26z" fill-rule="evenodd" transform="matrix(.486 -.267 .279 .464 -137.542 131.374)" stroke="#000" stroke-width="1pt" fill="#ff0"/><path d="M386.22 651.97a7.087 7.087 0 1 1-14.173 0 7.087 7.087 0 0 1 14.173 0z" fill-rule="evenodd" transform="matrix(.56 0 0 .535 7.856 -65.48)" stroke="#000" stroke-width="1pt" fill="#ff0"/><path d="M386.22 651.97a7.087 7.087 0 1 1-14.173 0 7.087 7.087 0 0 1 14.173 0z" fill-rule="evenodd" transform="matrix(.56 0 0 .535 3.887 -52.206)" stroke="#000" stroke-width="1pt" fill="#ff0"/><path d="M386.22 651.97a7.087 7.087 0 1 1-14.173 0 7.087 7.087 0 0 1 14.173 0z" fill-rule="evenodd" transform="matrix(.56 0 0 .535 1.903 -59.79)" stroke="#000" stroke-width="1pt" fill="#ff0"/><path d="M386.22 651.97a7.087 7.087 0 1 1-14.173 0 7.087 7.087 0 0 1 14.173 0z" fill-rule="evenodd" transform="matrix(.56 0 0 .535 11.825 -52.206)" stroke="#000" stroke-width="1pt" fill="#ff0"/><path d="M386.22 651.97a7.087 7.087 0 1 1-14.173 0 7.087 7.087 0 0 1 14.173 0z" fill-rule="evenodd" transform="matrix(.56 0 0 .535 13.81 -59.79)" stroke="#000" stroke-width="1pt" fill="#ff0"/><path d="M386.22 651.97a7.087 7.087 0 1 1-14.173 0 7.087 7.087 0 0 1 14.173 0z" fill-rule="evenodd" transform="matrix(.56 0 0 .535 7.856 -57.894)" stroke="#000" stroke-width="1pt" fill="#ff0"/><g fill-rule="evenodd"><path d="M238.726 158.92c-10.016 0-11.34 1.58-15.876 3.162 0-4.36 11.153-9.48 21.17-9.48 0 3.16-2.648 6.32-5.294 6.32z" fill="#da4500"/><path d="M253.934 148.803c0 2.095-1.777 3.793-3.97 3.793s-3.968-1.698-3.968-3.793 1.777-3.793 3.97-3.793 3.968 1.698 3.968 3.793z" fill="#cac9c7"/><path d="M361.42 357.87v10.63h17.717v53.15h10.63V368.5h17.716v-10.63h-17.716v-14.173h-10.63v14.173H361.42z" stroke="#000" stroke-width="1pt" fill="#ff0" transform="matrix(.56 0 0 .535 9.84 -55.998)"/><path d="M244 152.602c-11.684 0-18.52 1.053-23.813 3.16 0-5.815 6.837-12.642 18.52-12.642 2.647 0 5.294 6.32 5.294 9.482z" fill="#da4500"/></g><g fill-rule="evenodd"><path d="M67.323 612.99c-14.173-14.17-16.634-21.36 3.543-10.1l283.75 247.5-3.366 6.968-283.93-244.37z" transform="matrix(.316 .241 -.114 .193 189.696 119.017)" stroke="#000" stroke-width=".875" fill="#008500"/><path d="M182.337 329.63c.625-8.602-15.127-17.91-15.75-17.305-.623.604.958 5.614 3.945 8.224-5.72-2.948-11.712-4.763-11.837-3.483-.467 1.725 8.89 5.844 9.666 7.435.128 1.137-6.87.99-6.743 2.126.127 1.137 19.71 11.032 20.72 3.003zm-15.74-25.06c.626-8.605-15.126-17.912-15.75-17.307-.622.604.96 5.613 3.946 8.224-5.72-2.947-11.712-4.762-11.838-3.483-.466 1.725 8.89 5.845 9.667 7.436.127 1.137-6.87.988-6.744 2.125.127 1.137 19.71 11.032 20.72 3.003zm-12.043-22.757c.625-8.604-15.127-17.91-15.75-17.306-.623.604.958 5.613 3.945 8.224-5.72-2.946-11.713-4.76-11.838-3.482-.467 1.725 8.89 5.845 9.667 7.436.126 1.137-6.873.988-6.746 2.125.128 1.137 19.71 11.032 20.72 3.002zm-11.907-24.656c.625-8.603-15.127-17.91-15.75-17.306-.623.605.958 5.615 3.945 8.225-5.72-2.947-11.712-4.762-11.837-3.482-.467 1.725 8.89 5.844 9.667 7.435.126 1.137-6.872.988-6.745 2.126.127 1.137 19.71 11.032 20.72 3.003zM146.74 256.04c7.622-4.618 6.13-22.258 5.25-22.38-.88-.12-4.164 4.065-4.593 7.912-.908-6.15-2.93-11.836-4.082-11.174-1.73.663.344 10.306-.537 11.847-.883.77-4.906-4.702-5.79-3.93-.882.77 2.386 21.708 9.752 17.725zm11.04 21.646c8.798-1.922 13.554-19.026 12.768-19.42-.786-.395-5.345 2.503-7.094 5.99 1.294-6.084 1.375-12.09.057-11.834-1.862.073-3.276 9.825-4.644 10.996-1.102.446-2.982-5.997-4.084-5.552-1.102.446-5.336 21.225 2.998 19.82zm13.188 22.143c8.024-3.95 8.19-21.646 7.327-21.84-.864-.198-4.528 3.69-5.317 7.484-.326-6.202-1.807-12.04-3.017-11.478-1.785.512-.623 10.294-1.644 11.753-.952.692-4.446-5.104-5.398-4.41-.952.692.34 21.825 8.05 18.488zm14.274 28.908c8.4-3.15 10.44-20.74 9.602-21.02-.84-.278-4.896 3.236-6.082 6.934.332-6.202-.523-12.152-1.787-11.71-1.83.336-1.71 10.18-2.88 11.533-1.02.597-3.883-5.507-4.903-4.91-1.02.598-1.973 21.747 6.05 19.173z" fill="#008f00"/></g><path d="M209.06 775.98c0 7.828-10.312 14.173-23.03 14.173-12.72 0-23.032-6.346-23.032-14.173 0-7.828 10.312-14.173 23.03-14.173 12.72 0 23.032 6.346 23.032 14.173z" fill-rule="evenodd" transform="scale(.56 .535) rotate(29.175 488.869 1020.492)" stroke="#000" stroke-width="1pt" fill="#ff1900"/><g stroke="#000" fill-rule="evenodd" fill="#ff0"><path d="M365.315 236.772l1.052-2.715 2.874.905 1.052-2.714 2.874.905-1.052 2.714 2.874.905-1.052 2.715-2.874-.905-2.63 6.787-2.873-.906 2.63-6.787-2.875-.905zM359.247 260.75l2.874.904-30.5 78.727-2.875-.904zM327.835 337.668l5.747 1.81-8.414 21.718-5.747-1.81zM24.864 924.477l8.62 2.715c5.747 1.81-7.222 14.478-7.222 14.478l-5.747-1.81s-1.398-17.193 4.35-15.383zM369.604 246.5c-.436 1.124-2.075 1.63-3.663 1.13s-2.52-1.816-2.083-2.94 2.075-1.63 3.662-1.13 2.52 1.816 2.084 2.94z"/></g><path d="M209.06 775.98c0 7.828-10.312 14.173-23.03 14.173-12.72 0-23.032-6.346-23.032-14.173 0-7.828 10.312-14.173 23.03-14.173 12.72 0 23.032 6.346 23.032 14.173z" fill-rule="evenodd" transform="matrix(.467 -.296 .309 .446 -5.143 64.498)" stroke="#000" stroke-width="1pt" fill="#ff1900"/></svg>