<svg xmlns="http://www.w3.org/2000/svg" height="512" width="512" viewBox="0 0 512 512"><path fill="#c4272f" d="M0 0h512v512H0z"/><path fill="#015197" d="M170.667 0h170.667v512H170.667z"/><circle cx="85.627" cy="215.251" r="27.996" fill="#f9cf02"/><circle cx="85.627" cy="202.526" r="30.541" fill="#c4272f"/><path d="M72.92 169.458c0 7.018 5.69 12.707 12.707 12.707s12.707-5.69 12.707-12.707c0-5.084-3.177-5.72-3.177-7.625 0-1.906 1.907-4.448-1.906-7.625 1.907 3.177-1.27 3.813-1.27 6.99 0 3.176 1.27 3.176 1.27 5.718a2.542 2.542 0 0 1-5.082 0c0-2.542 2.542-5.083 2.542-8.895 0-3.812-.636-5.082-2.542-8.26-1.906-3.176-5.083-5.718-2.54-8.26-3.814 1.27-1.908 6.354-1.908 9.53 0 3.178-2.54 5.084-2.54 8.897 0 3.812 1.905 4.447 1.905 6.99a2.542 2.542 0 0 1-5.083 0c0-2.543 1.27-2.543 1.27-5.72 0-3.176-3.176-3.812-1.27-6.99-3.812 3.178-1.906 5.72-1.906 7.626 0 1.906-3.177 2.54-3.177 7.625z" fill="#f9cf02" fill-rule="evenodd"/><circle cx="85.627" cy="207.616" r="20.36" fill="#f9cf02"/><path d="M29.635 248.337V370.5h25.45V248.336zm86.532 0V370.5h25.45V248.336zm-55.99 20.36v10.18h50.9v-10.18zm0 71.262v10.18h50.9v-10.18zm0-91.623h50.9l-25.45 15.27zm0 106.892h50.9l-25.45 15.27z" fill="#f9cf02"/><circle cx="85.627" cy="309.418" r="26.978" fill="#f9cf02" stroke="#c4272f" stroke-width="3.054"/><path d="M85.627 282.44a13.49 13.49 0 0 1 0 26.978 13.49 13.49 0 1 0 0 26.978" stroke="#c4272f" stroke-width="3.054" fill="none"/><circle r="5.09" cy="295.929" cx="85.627" fill="#c4272f"/><circle r="5.09" cy="322.907" cx="85.627" fill="#c4272f"/></svg>