<svg xmlns="http://www.w3.org/2000/svg" height="512" width="512" viewBox="0 0 512 512"><defs><clipPath id="a"><path fill-opacity=".67" d="M248.03 0h496.06v496.06H248.03z"/></clipPath></defs><g clip-path="url(#a)"><path fill-rule="evenodd" fill="#0071bc" d="M-256 0H767.878v511.934H-256z"/><path d="M315.14 404.988s18.053-19.094 35.41-15.45c5.208-20.135 24.823-21.697 24.823-21.697s-1.91-22.218 23.26-27.078c.695-15.102 15.97-27.6 15.97-27.6s-3.124-23.433 12.846-28.814c-9.722-18.574 3.297-32.114 3.124-32.46-.173-.347-16.49-29.336-1.91-37.67-15.448-13.017-10.415-27.772-10.415-27.772s-16.84-4.34-10.764-24.476c-13.886-2.43-16.663-24.822-16.663-24.822s-21.352 4.34-23.955-14.235c-14.06 2.257-15.623-11.63-15.796-11.63-.173 0-27.947 7.465-33.502-13.54-10.762 5.556-15.45-4.34-15.45-4.34s-15.448 7.638-24.648-7.115c-18.4 11.455-28.64-.522-28.64-.522s-24.13 15.97-32.114 3.645c-14.234 14.41-26.904 8.16-26.904 8.16s-10.764 19.095-28.122 14.234c-3.992 17.706-23.955 18.053-23.955 18.053s2.084 15.622-21.87 19.788c-3.125 18.4-15.624 21.525-15.624 21.525s1.216 17.88-10.067 23.607c3.992 10.068-6.423 22.392-6.423 22.392s11.11 13.886-3.992 29.508c14.582 3.818 3.993 28.99 3.993 28.99s20.135 9.025 7.464 25.69c14.407 4.686 9.894 16.143 10.07 22.913 9.198 4.167 17.357 2.083 13.365 20.657 28.294 3.125 14.928 18.748 14.928 18.748s13.192.52 7.985 10.936c24.128-.52 27.6 18.054 27.6 18.054s22.392-5.903 25.343 2.777c2.952 8.68-9.72 67.178-9.72 67.178s-18.92 0-32.98-15.102c-32.982-.866-25.69-22.565-26.214-22.565-.52 0-10.935 3.994-16.316-14.06-22.045 4.514-21.352-14.06-21.524-14.233-.174-.173-9.895-4.512-6.25-13.713C54.764 385.027 56.5 362.81 56.5 362.81c-4.975-2.026-6.827-6.655-6.074-11.284-2.952-1.042-23.086-1.39-12.672-27.947-19.268-11.63-7.29-24.996-7.29-24.996s-26.56-13.714-6.076-29.51c-15.275-22.565 1.215-33.848 1.215-33.848s-21.178-21.525.347-36.8c-3.472-32.634 15.97-40.444 15.97-40.444s-10.24-26.56 17.53-37.668c1.737-26.907 21.18-27.6 21.18-27.6s.52-21.352 31.07-19.27c5.904-19.093 26.732-15.274 26.732-15.274s6.424-23.086 34.717-11.978c14.407-28.12 35.758-13.713 35.758-13.713s13.54-8.853 20.31-6.076c8.596-14.773 26.897-.573 38.73 2.286 4.288-1.668 19.594-13.222 31.398 1.36 15.622-10.243 28.99 8.158 28.99 8.158s21.523-10.935 31.592 14.06c45.652-4.166 39.056 25.69 39.056 25.69s35.932-8.16 28.122 27.6c32.632 2.256 29.334 23.782 29.334 23.782s20.657 15.622 11.63 29.682c18.4.867 11.63 18.574 11.63 18.574s14.06 5.38 2.43 27.253c26.905 21.523 5.207 42.874 5.034 42.7-.174-.172 14.408 17.36 1.216 37.496 3.99 31.94-12.15 40.098-12.15 40.098s4.164 20.656-13.888 26.56c-.348 24.3-23.26 27.252-23.26 27.252s6.075 10.556-16.664 21.665c-.898 16.263-24.65 17.566-24.65 17.566s-2.256 29.856-32.46 21.87c-7.33 23.956-42.702 16.84-43.395 16.492-.695-.348-6.77-51.382-6.77-51.555z" fill-rule="evenodd" stroke="#000" stroke-width="1.98144" fill="#fff"/><path stroke-linejoin="round" d="M95.768 118.505c.088 0 7.655 6.563 6.24 16.454-1.412 9.89-7.124 23.64-5.975 33.883.702 4.108.435 11.466.435 11.466s-6.86-9.748-6.947-20.17 7.428-20.315 7.428-28-1.357-13.812-1.18-13.635zm241.336-.723s-9.93 9.478-11.21 18.69c-.943 4.75-1.31 26.875-1.42 36.695-.224 3.013-1.473 14.906-1.738 19.233-.265 4.327 7.305-7.387 7.737-16.925-.237-9.873-.237-30.667.767-33.792.892-4.018.697-8.457 2.08-12.485 1.826-5.592 3.87-11.328 3.784-11.416z" fill-rule="evenodd" stroke="#000" stroke-width="1.98144" fill="#217900"/><g fill-rule="evenodd" stroke="#ef8a10" fill="#ffd200"><path d="M310.44 90.483s12.875-5.94 16.555-17-11.14-11.166-13.1-7.65c-1.958 3.515 1.67 12.268.736 14.58-.933 2.316-6.17 7.902-4.19 10.07zM196.336 94.518s8.358-11.453 6.19-22.908c-2.166-11.452-15.166-4.333-15.166-.31 0 4.026 7.428 9.907 7.738 12.383.31 2.477-1.548 9.905 1.238 10.834zm219.378 3.88s8.36-11.453 6.19-22.907c-2.166-11.452-15.166-4.334-15.166-.31 0 4.026 7.428 9.906 7.738 12.383.31 2.477-1.548 9.905 1.238 10.834zm-24.37 7.526s8.358-11.453 6.19-22.906c-2.167-11.453-15.167-4.335-15.167-.31s7.43 9.905 7.738 12.382c.31 2.477-1.548 9.905 1.24 10.834zm-16.866 17.403s8.357-11.453 6.19-22.906c-2.166-11.452-15.166-4.334-15.166-.31 0 4.026 7.428 9.906 7.738 12.383.31 2.477-1.548 9.905 1.238 10.834zM357 139.258s8.357-11.453 6.19-22.906c-2.167-11.455-15.167-4.336-15.167-.31 0 4.024 7.43 9.904 7.74 12.38.308 2.478-1.55 9.906 1.237 10.835zM155.155 44.558s-11.13 8.783-12.123 20.397c-.993 11.613 13.443 8.253 14.525 4.376 1.082-3.874-4.49-11.537-4.123-14.004.367-2.47 4.154-9.124 1.72-10.768zM678.8 30.34s-11.13 8.783-12.123 20.396c-.993 11.614 13.444 8.253 14.525 4.378 1.083-3.876-4.49-11.538-4.124-14.006.37-2.47 4.155-9.124 1.722-10.768zM294.826 132.704s2.35 13.98 12.057 20.435 13.7-7.82 10.82-10.632-12.275-1.61-14.263-3.117c-1.988-1.51-6.003-8.03-8.614-6.687zm-14.258 44.365s.114 14.178 8.68 22.083c8.566 7.905 14.763-5.56 12.363-8.793s-11.868-3.525-13.592-5.33c-1.724-1.803-4.66-8.874-7.45-7.96zm43.373 51.566s-5.06-13.244-15.848-17.658c-10.788-4.415-11.89 10.366-8.514 12.556 3.377 2.19 12.354-.842 14.6.246 2.246 1.088 7.468 6.688 9.763 4.857zm-10.22-24.564s8.58-11.288 6.637-22.782c-1.943-11.492-15.08-4.628-15.158-.605-.078 4.023 7.234 10.048 7.495 12.53.263 2.48-1.74 9.872 1.028 10.855zM582.942 96.104s12.874-5.94 16.553-17-11.14-11.165-13.1-7.65c-1.958 3.516 1.67 12.268.737 14.583-.935 2.314-6.172 7.9-4.19 10.067zm30.632 22.8s7.573-11.988 4.644-23.27c-2.927-11.282-15.42-3.31-15.153.705.27 4.015 8.076 9.387 8.55 11.836.475 2.45-.882 9.987 1.96 10.727zm105.055 109.714s-5.077-13.237-15.872-17.637c-10.794-4.4-11.875 10.382-8.497 12.567 3.38 2.186 12.352-.858 14.6.226 2.247 1.085 7.476 6.68 9.77 4.844zm-55.257 4.8s.294-14.175 8.96-21.97c8.665-7.797 14.69 5.745 12.25 8.946-2.438 3.2-11.91 3.375-13.66 5.157-1.746 1.782-4.77 8.817-7.55 7.867zm-6.75-150.575s-13.253-5.034-23.725.082c-10.475 5.116-.173 15.772 3.708 14.71 3.88-1.063 7.59-9.782 9.897-10.735 2.306-.954 9.962-1.125 10.122-4.057zm-30.07-20.72s-13.253-5.036-23.725.08c-10.475 5.116-.174 15.773 3.708 14.71 3.88-1.063 7.59-9.782 9.897-10.735 2.306-.953 9.962-1.124 10.122-4.056zm-44.285-23.42s-11.237 8.648-12.372 20.247c-1.135 11.6 13.34 8.417 14.47 4.554 1.13-3.862-4.35-11.592-3.952-14.055.4-2.466 4.266-9.074 1.854-10.748zm-28.056-6.334s-5.124 13.22-.08 23.726c5.046 10.51 15.772.28 14.735-3.61-1.037-3.886-9.73-7.654-10.668-9.968-.937-2.313-1.057-9.97-3.988-10.15zM472.22 83.04s9.164-10.818 7.833-22.398c-1.33-11.58-14.813-5.42-15.104-1.408-.292 4.015 6.692 10.417 6.822 12.91.13 2.493-2.262 9.768.45 10.896z"/></g><path d="M282.94 107.06s21.97 1.383 23.046 13.98-5.223 20.28-5.223 20.28 2.766 27.193-18.743 35.182c-23.045 2.766-59.148.615-59.148.615s-10.602 2.61-14.902-19.357c-4.303-21.97-5.532-37.487-5.532-37.487s2.15-12.29 17.668-13.06c15.517-.767 62.682.154 62.835-.153z" fill-rule="evenodd" stroke="#000" stroke-width="1.98144" fill="#8c8a8c"/><path d="M300.61 141.167s-11.83 14.75-10.602 20.74" stroke="#000" stroke-linecap="round" stroke-width="1.98144" fill="none"/><path d="M284.79 175.73c2.918 2.457 5.683 5.222 6.298 14.287l1.228 18.13 15.363 138.267L321.2 446.43l.92 15.516s-3.225 11.368-12.29 12.29c-6.605 13.827-42.402 17.822-45.935 17.668-3.227-.154-14.596-4.917-21.51-4.302-6.914.614-18.896 5.223-24.273 4.456-5.377-.768-17.514-4.917-19.665-13.674-15.056-4.762-17.514-16.285-17.514-16.285l16.285-115.69 15.824-146.254s1.843-19.51 9.678-22.43c8.143-.768 50.238.77 62.068-1.997z" fill-rule="evenodd" stroke="#000" stroke-width="1.98144" fill="#8c8a8c"/><path d="M201.826 375.916l-3.226 102.32m102.628-88.8l9.064 84.344" stroke="#000" stroke-width="1.98144" fill="none"/><path stroke="#000" d="M38.41 322.748l-.34 1.18m425.358-4.885l.337 1.18" fill="none" stroke-width="1.032"/><path stroke-linejoin="round" d="M27.016 184.614s6.73 9.32 7.94 14.67c1.206 5.35 3.45 15.88 6.384 20.192 2.934 4.314 19.675 28.305 20.538 38.315.173 6.56-6.903 17.777-17.43 17.95-6.56-.173-23.473-4.488-24.163-18.986-.69-14.497 5.176-14.842 5.867-23.644.69-8.802.864-48.324.864-48.497z" stroke="#6b18b5" stroke-width="1.98144" fill="none"/><path stroke-linejoin="round" d="M142.64 57.706s-6.968.498-12.332 3.406c-4.157 2.563-11.2 6.25-16.12 13.073-12.514 9.757-31.342 14.31-37.28 22.414-3.554 5.513-3.337 18.776 5.57 24.392 5.693 3.26 22.387 8.36 30.507-3.67 8.122-12.03 3.287-15.373 7.27-23.252 6.572-18.06 22.296-36.216 22.386-36.364zm412.682-19.395s-5.205-4.66-11.026-6.49c-4.733-1.204-12.615-.68-20.772-1.48-15.715-2.204-31.916-13.57-41.87-12.197-6.432 1.282-15.808 10.664-13.648 20.97 1.618 6.357 8.73 19.216 23.02 16.682 14.29-2.532 14.167-5.65 22.6-8.27 20.562-11.53 41.527-9.175 41.696-9.214zM712.476 202.34c1.173-2.68-.988-7.72-2.522-13.628-1.49-4.652-3.715-11.87-9.156-18.285-6.464-14.493-5.356-34.366-11.8-42.077-4.498-4.775-17.424-7.747-25.015-.45-4.53 4.743-13.49 19.723-3.764 30.496 9.727 10.77 13.966 6.714 20.658 12.47 15.955 10.72 23.77 29.506 31.6 31.47zm-10.915 121.543c2.178-3.016 6.08-8.83 5.616-13.673-.37-3.834 1.756-15.46 1.99-20.533 1.44-15.804 11.332-28.63 8.643-42.36-1.592-6.365-10.914-15.444-21.102-12.788-6.27 1.923-20.236 9.608-17.016 23.76 3.222 14.15 7.794 13.917 10.818 22.21 8.682 17.15 3.127 37.52 11.05 43.382z" stroke="#6b18b5" fill="none" stroke-width="1.032"/><path d="M357.307 430.096s-2.68 5.152 8.036 9.686m13.4-21.843s11.95-2.885 19.987 0m15.657-30.094c0 .207-1.648 5.358 7.83 12.776m-1.03-26.16s7.007 5.15 18.753 4.945m-89.434 10.09s.413 13.6-6.594 19.988m30.083-41.01s11.54 2.885 21.018-1.854m52.966-18.124s2.47 3.503 15.248 2.886m-65.115-10.925c.412.206 15.042 4.945 24.316.62m4.94-56.668s.618-.826 5.152 15.04m6.18-59.758s-.62 8.45-7.42 12.158m50.897-46.78s-9.89 8.035-8.037 11.332m-41.21-17.102s5.15 8.654-3.298 14.63M408 162.21s8.86-.413 12.775 7.212m-29.463-32.352h6.8m28.432-30.908c0 .206 1.855 1.854-1.648 5.357m-61.613-4.533s4.74 7.418 3.915 16.486m23.494-41.627c2.06-.207 9.068-3.297 9.068-3.297m-39.563-26.172c-.207 0-2.68 9.273 1.854 12.57m-13.195 29.674c0 9.89 7.83 7.418 2.473 16.897M329.69 86.377c-.205 0-12.362 9.48-12.362 11.127m-19.37-16.277s5.15 5.15 3.914 12.158m-18.95-16.28s-2.68 7.83-6.183 9.89m-21.23-11.95c-.206.412-4.326 9.27-7.212 10.92m-30.29-10.715c.206 0 4.12 8.244-1.03 14.22m-7.63-56.874c.208.206.826 6.388-3.09 11.745m-34 2.268c0 .207 1.65 7.007-9.27 9.273m-11.74 53.574c.206.413 10.51 2.06 10.51 2.06m-36.27 21.85c.208-.205 12.57-3.914 12.57-3.914m-32.56 19.364c.414 0 8.656 1.443 10.717.413M99.73 156.44s2.68 1.444.413 15.25m-40.6-51.514l4.947 7.418m-21.84 30.704c0-.206 4.946 7.418 11.54 8.86m27.408 29.882c.207 0 8.036-1.65 9.273-2.473M78.09 225.06c.206 0-.207-5.153 6.18-8.656m-14.633 21.43c0 .207 5.976 7.625 10.097 8.655m-13.595 5.566c.617-.207 7.005-5.77 14.423-5.358M64.075 271.22s.206 6.388 19.164 4.74M65.93 293.676c0-.206 5.564-12.776 16.897-17.515m-1.645 33.595s1.648-5.358 11.127-9.067m-.62 30.285s6.8-5.564 9.272-6.388m-.82 22.88s4.12 4.326 14.423-3.092m-64.094 6.59c1.236-.207 16.28-3.71 21.43 4.12m-15.444 8.243s15.866-2.06 17.927-.413m38.74 3.715s-2.062 4.327 17.514-2.884m6.8 10.717c-3.503 5.976.824 10.716-3.71 13.396m-55.847-5.16c.618-.412 7.213-2.68 6.182-12.157m-.207 26.378c.825-.207 11.745-4.946 14.013-2.473m7.423 16.28s1.443-9.685 4.533-10.715m11.948 25.34s9.067-.207 12.982-3.092m4.53-29.665c.207.207 8.45 4.534 25.965.207m-19.37 39.144s2.474 12.57 2.268 15.455" stroke="#000" stroke-width="1.98144" fill="none"/><g fill-rule="evenodd" stroke="#000" stroke-width="1pt" fill="#de2010"><path d="M462.406 238.81c-.515-4.148-2.513-7.79-5.24-9.558-2.728-1.767-5.77-1.387-7.975.994s-3.248 6.406-2.725 10.552c.515 4.146 2.513 7.79 5.24 9.557 2.726 1.766 5.768 1.387 7.975-.995s3.25-6.405 2.726-10.55zM460.702 217.875c-.515-4.147-2.513-7.79-5.24-9.557-2.728-1.767-5.77-1.387-7.975.994s-3.25 6.406-2.726 10.552c.516 4.146 2.514 7.79 5.24 9.557 2.727 1.767 5.77 1.388 7.976-.994s3.25-6.405 2.726-10.55zM456.548 195.478c-.878-4.086-3.19-7.54-6.06-9.06-2.875-1.52-5.872-.875-7.86 1.692s-2.673 6.667-1.788 10.752c.878 4.086 3.19 7.538 6.062 9.06 2.87 1.52 5.868.875 7.858-1.693s2.673-6.668 1.788-10.752zM448.555 171.986c-1.89-3.726-5-6.475-8.165-7.213-3.164-.736-5.896.652-7.164 3.64s-.887 7.128 1.008 10.85c1.89 3.727 5 6.475 8.165 7.214 3.16.737 5.893-.65 7.163-3.64s.887-7.128-1.008-10.85zM440.28 153.243c-1.888-3.726-5-6.475-8.164-7.213-3.164-.736-5.896.652-7.164 3.64s-.887 7.128 1.008 10.85c1.89 3.727 5 6.475 8.165 7.214 3.162.737 5.894-.65 7.164-3.64s.886-7.128-1.01-10.85zM428.564 134.442c-2.2-3.554-5.534-6.03-8.75-6.498-3.215-.466-5.82 1.15-6.83 4.234s-.277 7.178 1.928 10.727c2.198 3.554 5.534 6.03 8.75 6.498 3.213.467 5.818-1.148 6.83-4.234s.277-7.18-1.928-10.728zM415.614 116.31c-2.532-3.325-6.09-5.467-9.338-5.622-3.246-.153-5.683 1.705-6.39 4.874s.416 7.17 2.954 10.49c2.532 3.323 6.09 5.464 9.338 5.62 3.245.154 5.682-1.705 6.39-4.874s-.416-7.17-2.954-10.49zM399.737 99.184c-2.986-2.922-6.817-4.524-10.05-4.206-3.233.32-5.373 2.513-5.613 5.75s1.45 7.036 4.442 9.952c2.986 2.922 6.816 4.524 10.05 4.206 3.23-.32 5.37-2.512 5.613-5.75s-1.452-7.036-4.443-9.952zM382.276 83.805c-3.243-2.635-7.206-3.88-10.397-3.266-3.192.614-5.122 2.994-5.063 6.24s2.093 6.87 5.342 9.5c3.242 2.634 7.205 3.878 10.396 3.266 3.19-.614 5.12-2.994 5.062-6.24s-2.093-6.872-5.342-9.5zM363.713 71.19c-3.634-2.06-7.748-2.626-10.793-1.49-3.044 1.136-4.553 3.804-3.958 6.996s3.2 6.428 6.84 8.48c3.633 2.06 7.747 2.63 10.792 1.494 3.043-1.136 4.553-3.804 3.958-6.997s-3.2-6.43-6.84-8.482zM342.73 60.18c-3.806-1.72-7.955-1.91-10.884-.504-2.927 1.41-4.187 4.204-3.302 7.327s3.776 6.11 7.586 7.823c3.808 1.72 7.956 1.912 10.885.505 2.927-1.407 4.186-4.202 3.302-7.327s-3.776-6.11-7.586-7.823zM322.277 51.938c-3.913-1.46-8.064-1.373-10.892.227-2.826 1.603-3.896 4.475-2.804 7.532s4.175 5.843 8.09 7.297c3.914 1.46 8.066 1.373 10.893-.227 2.826-1.6 3.895-4.474 2.805-7.533s-4.175-5.842-8.09-7.296zM301.68 45.503c-4.014-1.16-8.15-.756-10.847 1.054-2.697 1.814-3.545 4.76-2.224 7.725s4.61 5.51 8.625 6.66c4.015 1.16 8.15.758 10.847-1.053 2.697-1.812 3.545-4.758 2.224-7.726s-4.61-5.51-8.626-6.66zM278.71 41.526c-4.143-.527-8.165.508-10.552 2.713-2.385 2.207-2.77 5.248-1.007 7.975s5.402 4.733 9.547 5.252c4.144.527 8.165-.51 10.552-2.714 2.383-2.205 2.768-5.246 1.006-7.975s-5.4-4.733-9.546-5.252zM255.994 40.313c-4.174-.17-8.092 1.204-10.28 3.605-2.19 2.402-2.31 5.464-.323 8.03s5.787 4.252 9.96 4.415c4.174.17 8.093-1.205 10.282-3.605 2.187-2.4 2.31-5.463.322-8.03s-5.786-4.253-9.96-4.415zM235.303 41.045c-4.174-.17-8.092 1.204-10.28 3.605-2.19 2.402-2.31 5.464-.323 8.03s5.786 4.252 9.96 4.415c4.173.17 8.092-1.205 10.28-3.605 2.188-2.4 2.31-5.463.323-8.03s-5.786-4.253-9.96-4.415zM211.21 44.076c-4.072.926-7.495 3.277-8.98 6.166-1.484 2.89-.802 5.877 1.79 7.833s6.696 2.592 10.767 1.658c4.074-.926 7.497-3.278 8.982-6.166 1.483-2.89.8-5.876-1.79-7.834s-6.697-2.59-10.77-1.657zM188.952 49.396c-3.983 1.26-7.2 3.886-8.44 6.89-1.24 3.003-.312 5.925 2.432 7.66s6.89 2.032 10.87.765c3.983-1.26 7.2-3.885 8.44-6.888 1.24-3.002.313-5.924-2.432-7.662s-6.89-2.03-10.87-.764zM168.84 58.145c-3.804 1.726-6.684 4.717-7.56 7.846-.87 3.13.398 5.92 3.328 7.316s7.082 1.194 10.883-.54c3.805-1.725 6.686-4.716 7.56-7.845.873-3.127-.396-5.916-3.327-7.314s-7.082-1.193-10.883.54zM148.92 68.358c-3.646 2.045-6.262 5.27-6.867 8.464-.603 3.193.898 5.864 3.937 7.005s7.16.585 10.8-1.466c3.643-2.043 6.26-5.27 6.865-8.462.604-3.192-.898-5.864-3.938-7.006s-7.158-.585-10.798 1.466zM129.787 81.153c-3.4 2.428-5.65 5.92-5.903 9.16-.252 3.24 1.532 5.733 4.677 6.538s7.18-.195 10.577-2.63c3.4-2.43 5.65-5.92 5.903-9.16.253-3.24-1.53-5.732-4.678-6.538s-7.18.196-10.575 2.63zM112.323 94.663c-3.183 2.707-5.13 6.376-5.11 9.624.023 3.25 2.01 5.58 5.213 6.116s7.138-.804 10.315-3.517c3.184-2.707 5.13-6.376 5.11-9.625-.02-3.246-2.008-5.578-5.212-6.114s-7.137.804-10.315 3.517zM96.74 110.81c-2.98 2.93-4.66 6.73-4.406 9.968.256 3.24 2.406 5.423 5.638 5.727s7.063-1.314 10.038-4.248c2.98-2.93 4.66-6.73 4.406-9.968-.255-3.24-2.405-5.422-5.64-5.727s-7.062 1.313-10.037 4.248zM83.407 128.704c-2.725 3.168-4.08 7.094-3.557 10.302.526 3.207 2.852 5.204 6.1 5.237s6.927-1.897 9.647-5.07c2.726-3.167 4.08-7.094 3.557-10.3-.524-3.207-2.85-5.204-6.098-5.24s-6.93 1.9-9.65 5.07zM71.213 147.22c-2.37 3.44-3.3 7.49-2.437 10.62.865 3.134 3.39 4.87 6.62 4.558s6.686-2.627 9.05-6.07c2.373-3.44 3.3-7.49 2.44-10.62-.865-3.133-3.39-4.87-6.622-4.558s-6.686 2.626-9.05 6.07zM60.968 168.033c-1.745 3.797-1.964 7.946-.576 10.884 1.39 2.938 4.177 4.217 7.307 3.353s6.134-3.736 7.873-7.536c1.746-3.797 1.964-7.945.576-10.884-1.39-2.937-4.176-4.216-7.308-3.352s-6.135 3.735-7.874 7.535zM52.977 189.992c-1.394 3.94-1.235 8.09.413 10.89 1.65 2.798 4.54 3.818 7.58 2.674s5.768-4.276 7.154-8.216c1.394-3.94 1.235-8.09-.413-10.89-1.648-2.797-4.538-3.817-7.577-2.674s-5.77 4.275-7.156 8.216zM45.868 231.53c-.39 3.333.778 6.528 3.06 8.38 2.286 1.853 5.338 2.08 8.005.594s4.553-4.454 4.935-7.788c.39-3.334-.778-6.53-3.06-8.382-2.284-1.85-5.337-2.078-8.006-.593s-4.552 4.455-4.934 7.79zM47.735 212.218c-.932 4.072-.297 8.175 1.663 10.767 1.962 2.59 4.95 3.27 7.838 1.785s5.24-4.91 6.165-8.984c.933-4.072.298-8.175-1.662-10.766-1.96-2.59-4.95-3.27-7.838-1.785s-5.24 4.91-6.165 8.983z"/></g><path d="M445.688 202.19c2.545-2.725 4.912-3.495 7.908-2.502-1.057-7.186-3.33-9.625-6.1-8.76-2.77.866-4.026 4.56-1.808 11.26zm238.133 15.412c2.744-2.524 5.163-3.114 8.075-1.898-.512-7.245-2.595-9.848-5.423-9.195-2.828.654-4.356 4.244-2.65 11.09zm-9.325-42.158c1.77-3.282 3.863-4.628 7.013-4.428-2.846-6.683-5.666-8.463-8.125-6.923-2.46 1.54-2.735 5.432 1.112 11.352zm-9.364-18.446c1.77-3.282 3.865-4.627 7.014-4.427-2.846-6.682-5.665-8.463-8.125-6.923-2.46 1.54-2.735 5.433 1.11 11.352zm-22.848-35.55c1.22-3.523 3.07-5.187 6.212-5.497-3.885-6.137-6.953-7.442-9.133-5.526s-1.825 5.803 2.922 11.025zm-14.41-14.637c1.085-3.565 2.87-5.3 5.998-5.726-4.114-5.988-7.23-7.176-9.335-5.18-2.106 1.998-1.605 5.867 3.336 10.907zm-31.35-26.352c-.065-3.728 1.102-5.928 3.944-7.297-5.757-4.43-9.086-4.6-10.475-2.05-1.388 2.548.28 6.074 6.533 9.348zm17.54 13.243c.58-3.68 2.11-5.646 5.148-6.504-4.902-5.36-8.153-6.103-9.962-3.834-1.81 2.27-.776 6.032 4.815 10.34zM577.6 70.1c-.45-3.7.48-6.01 3.167-7.665-6.182-3.812-9.513-3.637-10.63-.96-1.12 2.68.904 6.014 7.46 8.625zm-18.2-7.717c-.976-3.6-.382-6.017 2.04-8.04-6.666-2.887-9.936-2.24-10.66.572-.724 2.81 1.756 5.823 8.62 7.468zm-20.197-6.182c-1.276-3.502-.89-5.963 1.352-8.184-6.886-2.31-10.09-1.39-10.573 1.473-.484 2.862 2.243 5.652 9.22 6.71zm-19.778-3.755c-1.527-3.402-1.32-5.883.756-8.26-7.035-1.81-10.164-.657-10.44 2.232-.274 2.89 2.647 5.476 9.684 6.027zm-20.998-1.535c-1.872-3.225-1.923-5.715-.105-8.295-7.185-1.07-10.178.403-10.15 3.304.025 2.903 3.198 5.172 10.254 4.99zm-41.683 3.24c-2.593-2.677-3.244-5.08-2.1-8.023-7.232.695-9.78 2.843-9.055 5.653.724 2.81 4.35 4.248 11.156 2.37zm22.16-2.842c-2.207-3.005-2.526-5.474-.996-8.234-7.258-.292-10.074 1.492-9.735 4.374.337 2.883 3.735 4.798 10.73 3.86zm-41.948 7.248c-2.95-2.278-3.94-4.563-3.23-7.64-7.057 1.725-9.27 4.217-8.15 6.894 1.12 2.678 4.915 3.58 11.38.747zm-37.884 17.786c-3.33-1.676-4.735-3.73-4.624-6.885-6.6 3.035-8.3 5.903-6.69 8.318 1.61 2.415 5.507 2.58 11.314-1.432zm20.1-10.205c-3.102-2.067-4.247-4.28-3.754-7.395-6.92 2.21-8.955 4.85-7.65 7.442 1.303 2.594 5.153 3.23 11.404-.046zm-54.6 34.405c-3.607-.946-5.41-2.663-5.958-5.77-5.822 4.34-6.888 7.5-4.81 9.527 2.077 2.028 5.923 1.376 10.767-3.757zm18.434-14.774c-3.522-1.224-5.183-3.078-5.487-6.22-6.145 3.875-7.455 6.94-5.542 9.124 1.913 2.183 5.8 1.835 11.03-2.903zm-32.17 28.81c-3.678-.614-5.63-2.16-6.46-5.205-5.402 4.854-6.176 8.097-3.923 9.927 2.254 1.83 6.024.83 10.382-4.722zm-12.364 16.437c-3.717-.278-5.8-1.64-6.903-4.598-4.94 5.325-5.417 8.624-3.007 10.24 2.41 1.62 6.075.282 9.91-5.643zm-10.752 17.172c-3.716.294-5.984-.734-7.526-3.488-4.067 6.02-4.033 9.353-1.403 10.582 2.628 1.23 6.046-.652 8.93-7.095zm-9.458 18.367c-3.646.774-6.028.05-7.915-2.48-3.25 6.494-2.783 9.795-.017 10.673 2.766.878 5.91-1.432 7.933-8.194zm-7.54 18.825c-3.477 1.343-5.944 1.004-8.207-1.195-2.182 6.928-1.198 10.113 1.672 10.543 2.87.428 5.61-2.35 6.535-9.348zm-5.01 21.018c-3.38 1.573-5.863 1.4-8.268-.643-1.713 7.06-.517 10.172 2.375 10.407 2.893.235 5.44-2.72 5.894-9.764zm-1.972 17.338c-3.182 1.686-5.662 1.885-8.262.61-.947 5.754.568 8.027 3.46 7.823 2.892-.206 5.1-2.86 4.802-8.43zm364.114-86.204c1.273-3.503 3.148-5.14 6.293-5.402-3.788-6.196-6.837-7.547-9.046-5.666-2.21 1.884-1.913 5.774 2.754 11.068zm18.557 103.44c2.743-2.523 5.163-3.113 8.075-1.897-.512-7.245-2.596-9.848-5.423-9.195-2.828.654-4.356 4.245-2.652 11.092z" fill-rule="evenodd" fill="#ffe300"/><path stroke-linejoin="round" d="M423.52 127.906c-.088 0-8.212 8.125-6.8 18.016 1.413 9.89 7.684 22.078 6.535 32.323-1.147 10.245-3.003 17.044-3.003 17.044s9.54-10.863 9.628-21.284c.087-10.422-6.536-24.11-6.536-31.793s.353-14.483.176-14.307zm250.028 29.233s-6.36 4.68-5.74 15.455c.618 10.774 11.744 30.556 11.744 30.556s8.126 16.693 7.86 21.02c-.264 4.327 1.503-4.15.708-13.69-.795-9.536-13.07-30.555-13.07-30.555s-2.65-4.327-2.385-11.48c.265-7.155.97-11.217.883-11.306z" fill-rule="evenodd" stroke="#000" stroke-width="1.98144" fill="#217900"/><path d="M487.93 26.748c0-2.16-2.43-3.913-5.428-3.913s-5.43 1.752-5.428 3.913c0 2.16 2.43 3.913 5.428 3.913s5.43-1.75 5.428-3.912zm2.32 9.1c0-2.072-2.502-3.752-5.588-3.752-3.086 0-5.588 1.68-5.588 3.752s2.502 3.752 5.588 3.752c3.086 0 5.588-1.68 5.588-3.752zm6.94-10.776s-6.386 4.79-3.752 6.705c2.634 1.916 9.9-4.15 9.9-4.15l-6.148-2.555zM684.88 134.73c.002-1.36-.636-2.62-1.674-3.302a3.006 3.006 0 0 0-3.353 0c-1.037.68-1.675 1.94-1.674 3.302-.003 1.36.636 2.62 1.673 3.302a3.006 3.006 0 0 0 3.353 0c1.038-.68 1.676-1.94 1.674-3.302zm-2.44-9.13c0-2.27-1.568-4.112-3.502-4.112s-3.503 1.84-3.503 4.112 1.568 4.112 3.502 4.112 3.503-1.84 3.503-4.112zm1.68 18.57c0-1.177-.614-2.132-1.37-2.132-.758 0-1.37.955-1.37 2.132s.612 2.132 1.37 2.132c.756 0 1.37-.955 1.37-2.132zm5.63-16.6c0-1.346-.614-2.437-1.37-2.437-.758 0-1.37 1.09-1.37 2.437s.612 2.437 1.37 2.437c.756 0 1.37-1.09 1.37-2.437zm-15.38 1.68c0-1.093-.614-1.98-1.37-1.98-.758 0-1.37.887-1.37 1.98s.612 1.98 1.37 1.98c.756 0 1.37-.887 1.37-1.98zm2.44 13.1c0-1.767-1.295-3.2-2.893-3.2s-2.894 1.433-2.894 3.2c0 1.767 1.295 3.2 2.894 3.2s2.893-1.433 2.893-3.2zm-7.62-5.79c0-1.514-1.09-2.74-2.437-2.74-1.345 0-2.436 1.226-2.436 2.74s1.09 2.74 2.436 2.74c1.346 0 2.437-1.226 2.437-2.74zm-1.21-7.77c0-.817-.405-1.572-1.065-1.98a2.01 2.01 0 0 0-2.134 0c-.66.408-1.065 1.163-1.064 1.98 0 .817.405 1.572 1.065 1.98a2.01 2.01 0 0 0 2.135 0c.66-.408 1.066-1.163 1.065-1.98zm34.71 39.49c-3.146-4.15-8.18-5.9-11.248-3.907-3.066 1.994-3.002 6.975.143 11.126 3.146 4.15 8.18 5.9 11.248 3.906 3.067-1.994 3.002-6.975-.143-11.126zm8.94 76.59c.61-5.094-1.875-9.58-5.55-10.02-3.674-.44-7.147 3.333-7.756 8.428-.61 5.094 1.875 9.58 5.55 10.02 3.674.44 7.146-3.334 7.756-8.428zm1.89 44.58c1.047-5.022-1.04-9.706-4.663-10.46-3.623-.756-7.41 2.703-8.456 7.725-1.046 5.023 1.04 9.706 4.664 10.46 3.623.757 7.41-2.703 8.456-7.725zm8.59-41.73c0-2.018-1.364-3.655-3.046-3.655s-3.045 1.637-3.045 3.655 1.362 3.655 3.044 3.655 3.046-1.637 3.046-3.655zm-7.46 8.38l-6.244 7.08s-5.862.153-5.558 2.057c.305 1.903 8.07 7.614 7.995 9.9-.076 2.283 5.178-.534 5.178-.534s4.188-12.716 4.188-12.792c0-.076-.228-8.832-2.512-8.68-2.285.153-2.904 2.81-3.046 2.97zm-410.68-2.8a2.972 2.972 0 1 0-5.943 0 2.972 2.972 0 0 0 5.943 0zm2.8-9.08c0-1.732-1.33-3.137-2.972-3.137s-2.97 1.405-2.97 3.137 1.33 3.137 2.97 3.137 2.972-1.405 2.972-3.137zm-24.4-43.18c-1.115-2.498-3.435-3.89-5.184-3.11-1.748.78-2.262 3.437-1.148 5.935 1.115 2.498 3.435 3.89 5.184 3.11 1.748-.78 2.262-3.437 1.148-5.935zm7.37 26.9c-1.53-3.237-4.72-5.042-7.12-4.03s-3.11 4.454-1.578 7.692 4.72 5.042 7.12 4.03 3.11-4.455 1.578-7.692zm7.89 19.73c.496-4.044-1.18-7.758-3.743-8.297-2.563-.538-5.042 2.303-5.538 6.347-.497 4.044 1.18 7.758 3.74 8.297 2.564.538 5.044-2.303 5.54-6.347zm-12.66 2.88c1.585-3.753.992-7.785-1.326-9.005s-5.48.833-7.066 4.586-.99 7.786 1.326 9.006 5.48-.833 7.066-4.586z" fill-rule="evenodd" fill="#6b18b5" transform="translate(-256) scale(1.032)"/><path d="M32.134 249.816c0-1.976-1.525-3.578-3.407-3.578s-3.407 1.602-3.407 3.578 1.525 3.578 3.407 3.578 3.407-1.6 3.407-3.578zm244.342-16.6c0-1.788-1.373-3.238-3.068-3.238-1.692 0-3.066 1.45-3.066 3.237s1.373 3.238 3.066 3.238 3.068-1.45 3.068-3.238zm2.984-16.764c0-3.012-1.335-5.452-2.982-5.452-1.647 0-2.98 2.44-2.98 5.452s1.333 5.452 2.98 5.452 2.982-2.44 2.982-5.452zm9.084-.783c.398-2.985-.603-5.58-2.236-5.798-1.63-.217-3.277 2.026-3.674 5.01-.398 2.986.604 5.58 2.236 5.8 1.632.215 3.277-2.028 3.674-5.013zm65.083-130.38c1.215-4.228-.038-8.476-2.8-9.49-2.76-1.013-5.985 1.592-7.2 5.82-1.214 4.226.04 8.474 2.8 9.487 2.76 1.014 5.985-1.59 7.2-5.818zm-14.442 22.853c3.642-3.1 5.197-7.385 3.475-9.572-1.724-2.186-6.07-1.446-9.712 1.653s-5.198 7.385-3.475 9.57c1.722 2.19 6.07 1.45 9.712-1.65zm-6.86-11.024c3.602-2.66 5.14-6.34 3.437-8.218s-6.004-1.243-9.605 1.417c-3.602 2.66-5.14 6.34-3.436 8.217s6.005 1.243 9.605-1.418zm28.15-18.04c2.43-1.857 3.466-4.424 2.318-5.734-1.15-1.31-4.05-.867-6.477.99s-3.466 4.423-2.317 5.733c1.148 1.31 4.048.866 6.476-.99zM100.556 99.99c1.662-2.566 1.772-5.332.25-6.178-1.523-.846-4.105.547-5.765 3.113s-1.77 5.334-.25 6.18c1.524.846 4.106-.548 5.766-3.115zm265.956-14.096c2.61-2.2 3.63-5.117 2.272-6.512-1.356-1.395-4.573-.743-7.184 1.458s-3.63 5.117-2.273 6.512c1.357 1.396 4.573.743 7.185-1.458zm-38.62 25.99c2.442-.12 4.285-1.336 4.116-2.715-.167-1.38-2.282-2.397-4.724-2.275-2.44.12-4.283 1.337-4.116 2.716.168 1.38 2.283 2.397 4.725 2.275zm47.143-40.076c1.662-2.567 1.772-5.332.25-6.18-1.523-.845-4.104.548-5.765 3.115s-1.772 5.333-.25 6.18c1.524.846 4.105-.548 5.765-3.115z" fill-rule="evenodd" fill="#6b18b5"/><path d="M406.338 153.242s7.572-11.987 4.645-23.27c-2.928-11.282-15.424-3.308-15.155.707.268 4.014 8.074 9.385 8.55 11.836.474 2.45-.883 9.987 1.96 10.727z" fill-rule="evenodd" stroke="#ef8a10" fill="#ffd200" stroke-width="1.032"/><path stroke-linejoin="round" d="M261.723 53.542s27.29 1.06 27.466 18.723c-.09 2.738 0 6.005-.972 13.865 5.387-2.915 9.007-11.04 8.3-16.25.09-17.928-24.374-30.204-34.795-16.34zM244.417 52.748s21.99-4.593 22.166 13.07c.177 17.663-6.976 20.488-6.976 20.488s16.868-3.62 16.956-21.548c.087-17.928-21.725-25.875-32.147-12.01z" fill-rule="evenodd" stroke="#000" stroke-width="2.4768" fill="#217900"/><path stroke-linejoin="round" d="M319.118 433.794s102.93-29.076 134.01-155.4C435.082 408.06 322.46 449.167 322.46 449.167l-3.342-15.373z" fill-rule="evenodd" stroke="#000" stroke-width="NaN" fill="#f7df73"/><path d="M329.678 441.66c3.18 0 11.05-8.71 15.572-9.713 4.52-1.005 5.023-5.527-.168-5.694-5.19-.167-9.71 5.86-9.71 5.86s-4.523 3.852-9.212 4.355c-4.688.502-1.673 6.362 3.518 5.19z" fill-rule="evenodd" fill="#8c1800"/><path d="M388.95 397.442s-10.717 6.196-9.21 7.703c1.507 1.506 11.052-5.86 11.22-6.028.166-.167 4.017-4.857-2.01-1.675z" fill-rule="evenodd" stroke="#8c1800" stroke-width="NaN" fill="#8c1800"/><path d="M351.608 425.593s-3.183-1.173 5.022-4.354c8.205-3.183 7.703-6.866 10.382-8.374 2.68-1.507 8.373-5.525 9.545-3.182s-6.028 7.033-7.703 7.536c-1.674.503-9.88 8.037-12.224 8.707-2.343.67-4.018.335-5.022-.334z" fill-rule="evenodd" fill="#8c1800"/><path d="M404.857 381.713c-7.032 7.87-7.032 7.703-7.032 7.703" stroke="#8c1800" stroke-linecap="round" stroke-width="3.218808" fill="none"/><path d="M415.416 368.816l-6.698 8.205" stroke="#8c1800" stroke-linecap="round" stroke-width="2.971128" fill="none"/><path d="M425.956 352.077l-7.537 12.056" stroke="#8c1800" stroke-linecap="round" stroke-width="2.723448" fill="none"/><path d="M434.83 335l-6.196 12.392m10.218-21.445l-2.01 4.354" stroke="#8c1800" stroke-linecap="round" stroke-width="2.475768" fill="none"/><path d="M443.368 314.06l-1.674 5.19" stroke="#8c1800" stroke-linecap="round" stroke-width="1.48608" fill="none"/><path stroke-linejoin="round" d="M160.26 215.97s51.958-14.677 67.647-78.444c-9.11 65.454-65.96 86.204-65.96 86.204l-1.687-7.76z" fill-rule="evenodd" stroke="#000" stroke-width="1pt" fill="#f7df73" transform="matrix(-1.963 0 0 2.017 498.794 -4.472)"/><path d="M173.746 439.09c-3.152 0-10.95-8.866-15.43-9.887-4.48-1.024-4.977-5.627.165-5.797 5.146-.17 9.626 5.966 9.626 5.966s4.478 3.92 9.125 4.432c4.647.512 1.66 6.478-3.484 5.284z" fill-rule="evenodd" fill="#8c1800"/><path d="M195.51 197.62s-5.41 3.127-4.65 3.888c.76.76 5.58-2.958 5.664-3.043.085-.084 2.03-2.45-1.014-.845z" fill-rule="evenodd" stroke="#8c1800" stroke-width="1pt" fill="#8c1800" transform="matrix(-1.963 0 0 2.017 498.794 -4.472)"/><path d="M152.017 422.733s3.152-1.193-4.978-4.432c-8.13-3.238-7.633-6.988-10.29-8.523-2.653-1.533-8.295-5.624-9.456-3.238s5.973 7.16 7.633 7.67c1.66.512 9.79 8.182 12.112 8.865 2.32.68 3.98.34 4.977-.34z" fill-rule="evenodd" fill="#8c1800"/><path d="M203.54 189.68c-3.55 3.973-3.55 3.888-3.55 3.888" stroke="#8c1800" stroke-linecap="round" stroke-width="1.625" transform="matrix(-1.963 0 0 2.017 498.794 -4.472)" fill="none"/><path d="M208.87 183.17l-3.38 4.142" stroke="#8c1800" stroke-linecap="round" stroke-width="1.5" transform="matrix(-1.963 0 0 2.017 498.794 -4.472)" fill="none"/><path d="M214.19 174.72l-3.804 6.086" stroke="#8c1800" stroke-linecap="round" stroke-width="1.375" transform="matrix(-1.963 0 0 2.017 498.794 -4.472)" fill="none"/><path d="M218.67 166.1l-3.127 6.255m5.157-10.825l-1.014 2.198" stroke="#8c1800" stroke-linecap="round" stroke-width="1.25" transform="matrix(-1.963 0 0 2.017 498.794 -4.472)" fill="none"/><path d="M222.98 155.53l-.845 2.62" stroke="#8c1800" stroke-linecap="round" stroke-width=".75" transform="matrix(-1.963 0 0 2.017 498.794 -4.472)" fill="none"/><path stroke-linejoin="round" d="M458.03 255.14c.506 7.925 8.262 15.51 5.228 29.337-3.88 15.68-17.534 52.94-15.174 59.514-4.046-5.562-3.373-10.79-3.71-18.545-.336-7.755 11.296-36.585 12.308-46.363 0-8.767.843-20.737 1.348-23.94zM458.03 255.306s12.646 16.017 11.97 28.662c-.673 12.645-7.755 27.48-5.395 34.056-4.045-5.563-5.056-9.104-5.395-16.86-.336-7.755 6.238-16.354 4.89-24.783-1.35-8.428-6.24-21.074-6.07-21.074zm-180.364-4.376c-.506 7.923-6.407 15.004-3.373 28.83 3.88 15.68 17.703 35.574 15.51 58.335 4.048-5.564 5.228-11.802 5.566-19.558.335-7.755-15.344-33.888-16.355-43.666 0-8.766-.843-20.736-1.35-23.94zM43.806 259.022s-12.307 15.51-11.633 28.156c.168 8.43 15.68 43.666 13.32 50.242 4.044-5.564 5.225-4.89 5.055-13.32-4.55-21.58-12.644-35.405-11.295-43.835 1.35-8.43 4.72-21.242 4.552-21.242z" fill-rule="evenodd" stroke="#000" stroke-width="2.4768" fill="#217900"/><path stroke-linejoin="round" d="M254.107 117.177l30.642 94.295 99.148.004-80.21 58.282 30.633 94.298-80.21-58.25-80.218 58.264 30.636-94.294-80.21-58.28h99.148z" stroke-dashoffset="1" stroke="#000" stroke-linecap="square" stroke-width="2.064708" fill="#fff"/></g></svg>