<svg xmlns="http://www.w3.org/2000/svg" height="512" width="512" viewBox="0 0 512 512"><path fill="#006" d="M0 0h512v512H0z"/><g fill-rule="evenodd"><path d="M281.518 230.94h201.077l-.24 143.974c1.673 57.876-34.176 93.79-100.138 109.982-46.847-11.707-100.86-35.92-100.94-108.34l.24-145.618z" fill="#fff"/><path d="M44.07 22.713h169.3l-.202 120.79c1.408 48.558-28.777 78.69-84.317 92.276-39.436-9.82-84.915-30.13-84.98-90.9l.2-122.17z" stroke="#000" stroke-width="1pt" fill="#00a2bd" transform="matrix(1.135 0 0 1.142 235.95 209.34)"/><path d="M476.638 389.586c-6.99 52.938-47.506 76.068-94.442 88.344-41.546-11.214-86.242-29.118-94.905-88.078l189.353-.266z" fill="#a53d08"/></g><g stroke="#000" fill-rule="evenodd"><path d="M412.75 434.528c.106.107.746 10.616-4.903 17.05 5.01 1.61 8.42-.322 10.017-2.36 1.6-2.037 2.133-4.61 2.133-4.61s1.385-.858 1.598-2.788c.107-2.68-1.066-2.68-2.025-3.217l.213-6.005s-5.755-3.54-7.034 1.93z" fill="#ffc6b5"/><path d="M412.43 449.546l-1.705-1.394" fill="#ff9a08"/></g><path d="M141.64 69.393s.117 5.625-.235 6.21c-.35.587-3.554 2.07-3.554 2.07l2.735 5.82s7.695-1.092 7.734-1.092 3.32-8.71 3.32-8.71-1.72-2.89-1.29-5.898c-2.577-8.165-8.593 1.64-8.71 1.6z" fill-rule="evenodd" stroke="#000" stroke-width="1pt" fill="#ffc6b5" transform="matrix(1.135 0 0 1.142 235.95 209.34)"/><path stroke-linejoin="round" d="M131.45 203.09s4.32 4.32 9.295 3.756c11.268-1.22 14.554-11.267 18.028-11.36s5.634 6.102 8.92 5.35c-2.817-5.163-5.82-16.618-5.352-24.693.47-8.075.47-42.065.47-42.065s-5.633-17.558-8.262-20.47c2.63-2.816 4.413-7.792 4.32-13.238-.095-5.446 0-11.455 0-11.455s1.313-1.502 1.22-5.727c-.094-4.226-7.136-10.328-8.075-10.047-.94.282-9.765 7.888-10.516 9.67-.752 1.786-1.784-6.477-.094-7.23 1.69-.75-3.944-1.22-7.512 3.006-3.567 4.226-2.534 124.69-2.44 124.5z" fill-rule="evenodd" stroke="#000" stroke-width="1.25" fill="#005121" transform="matrix(1.135 0 0 1.142 235.95 209.34)"/><path d="M337.08 260.845l37.506.135-.268-17.387 13.663.134.135 17.253h37.37l.135 13.48-37.505.134-.3 158.957-13.327.086-.17-159.175-37.245.136.008-13.748z" fill-rule="evenodd"/><path d="M122.03 81.96s-2.258-.4-3.984.132 2.656-19.586 2.656-21.246c1.527-.73 9.162-2.125 8.963-7.503-.53-3.253-11.818.2-11.62 4.316-.73 2.057-8.098 23.037-6.638 29.942 2.59 2.058 7.37 1.66 10.623 1.13v-6.773z" fill-rule="evenodd" stroke="#000" stroke-width="1pt" fill="#ffc6b5" transform="matrix(1.135 0 0 1.142 235.95 209.34)"/><path d="M124.22 53.21s-.664 3.72 2.722 4.25" stroke="#000" stroke-linecap="round" stroke-width=".625" transform="matrix(1.135 0 0 1.142 235.95 209.34)" fill="none"/><path d="M129.2 53.144c-.133.066-4.382 2.722-4.382 2.722m4.122-1.062l-2.988 2.19m1.858-4.646l-3.32 1.992" stroke="#000" stroke-width=".375" transform="matrix(1.135 0 0 1.142 235.95 209.34)" fill="none"/><path d="M95.49 163.56l30.14 31.267c10.422-11.455 3.193-54.272-10.515-62.158-1.643 5.07-4.437 11.148-7.407 13.108-6.534 4.453-22.546 9.66-17.194 12.993 1.22-1.69 4.413-3.285 5.915.47 1.783 5.916-6.667 6.292-6.667 6.292s-5.352-.658-6.29-6.104c-.94-5.445 7.97-10.417 8.73-10.797.752-.28 12.395-3.38 14.367-13.708 2.44-10.14 4.976-8.638 5.446-8.826 15.21 1.502 25.163 28.732 25.727 47.886.563 19.154-7.793 31.83-9.296 32.675-1.502.845-36.243-41.22-36.243-41.22l3.286-1.877z" fill-rule="evenodd" stroke="#000" stroke-width="1pt" fill="#ff9a08" transform="matrix(1.135 0 0 1.142 235.95 209.34)"/><path d="M117.46 134.45l.187 56.43m-3.567-55.4l.187 51.267M110.42 142.9l.187 40.75m-3.187-37.84l.188 33.71m-3.388-32.2v28.45m-3.47-26.2v22.534m-3.006-20.754v17.276" stroke="#000" stroke-width="1pt" transform="matrix(1.135 0 0 1.142 235.95 209.34)" fill="none"/><path d="M95.02 167.13l31.08 35.58m1.5-58.02s14.085 30.798 1.033 56.15M91.36 160.65s1.032-2.723 2.346-1.596m-4.788-6.294s-5.634 4.976-2.535 8.17" stroke="#ffdf00" stroke-linecap="round" stroke-width="1.25" transform="matrix(1.135 0 0 1.142 235.95 209.34)" fill="none"/><path d="M141.03 83s.47 4.32-.47 7.604 3.57 12.394 1.878 14.272m.472 8.824l11.83-.094" stroke="#000" stroke-width="1pt" transform="matrix(1.135 0 0 1.142 235.95 209.34)" fill="none"/><path d="M138.59 118.49c.094.187 1.408 6.197 1.032 10.328m2.818-8.168c-.375 1.22-5.258 15.117-5.07 15.68m7.98-21.97c.094.282-.375 8.826-1.69 10.047m7.7-10.707s7.7 17.84 7.606 24.882 2.63 21.314.845 27.605M153.8 138.4s-.564 13.24-6.103 18.403c-5.54 5.165 13.24 19.906 13.24 19.906" stroke="#000" stroke-linecap="round" stroke-width="1pt" transform="matrix(1.135 0 0 1.142 235.95 209.34)" fill="none"/><path d="M153.61 175.86s2.066 18.215 5.54 19.53m-22.53-50.05c.094.188-1.878 12.3-.282 14.272 1.597 1.972 14.836 20.47 14.272 39.624m-3.76-5.726s-.376 11.55-11.08 12.488m7.89-20.088s3.193 12.018-7.7 19.624" stroke="#000" stroke-linecap="round" stroke-width="1.25" transform="matrix(1.135 0 0 1.142 235.95 209.34)" fill="none"/><path d="M147.88 156.89s12.3 12.77 12.864 18.404m-9.294-61.314s2.16 9.107 1.315 10.704" stroke="#000" stroke-linecap="round" stroke-width="1pt" transform="matrix(1.135 0 0 1.142 235.95 209.34)" fill="none"/><path d="M113.51 132.69s-1.317-2.305-1.152-4.857-.412-6.502 7.82-9.713c5.02-5.103 10.618-8.15 13.663-9.712 4.446-2.88 7.328-2.223 9.96-3.21 1.73-1.976 1.647-6.34 3.458-10.207 1.81-3.868 5.02-11.852 8.478-10.617 3.458 1.235.74 11.606-.576 15.228s-2.47 7.41-4.774 9.63c-2.305 2.224-12.758 6.257-14.816 6.998s-11.44 2.88-13.828 6.174c-2.388 3.292-2.223 8.15-8.232 10.29z" fill-rule="evenodd" stroke="#000" stroke-width="1pt" fill="#ffc6b5" transform="matrix(1.135 0 0 1.142 235.95 209.34)"/><path d="M112.85 125.78c.247-.082 4.115-1.317 5.926 2.14" stroke="#000" stroke-width="1pt" transform="matrix(1.135 0 0 1.142 235.95 209.34)" fill="none"/><path stroke-linejoin="round" d="M141.91 55.2s-1.74 2.837-2.222 4.56c-.374 1.29-1.58-.086-2.218 2.71l1.035.18c-.412.823-.546 2.214-.628 2.543-.083.33-.662 1.834-.576 2.964.047.583 1.153 3.128 10.125-.74 8.972-3.87-2.88-14.85-5.515-12.217z" fill-rule="evenodd" stroke="#000" stroke-width="1.25" fill="#ffc6b5" transform="matrix(1.135 0 0 1.142 235.95 209.34)"/><path stroke-linejoin="round" d="M140.9 55.563c.92-.494 7.457-1.07 6.368 11.688 1.257-.164 2.01-.33 2.764.906.754 1.235.67 2.717 2.01 2.717 1.342 0 1.51-.247 1.845-1.235.334-.988 5.53 1.152 6.87-3.457-.233-.896-3.184-2.304-3.52-3.95.755-2.305-.335-9.795-9.885-10.207-4.944-.082-5.948 1.975-6.452 3.54z" fill-rule="evenodd" stroke="#000" stroke-linecap="round" stroke-width="1.261" fill="#c59200" transform="matrix(1.135 0 0 1.142 235.95 209.34)"/><path d="M140.42 58.115c.083.082 2.964.905 3.293 2.305" stroke="#000" stroke-linecap="round" stroke-width="1pt" transform="matrix(1.135 0 0 1.142 235.95 209.34)" fill="none"/><path d="M397.336 279.583c0 .492-.377.892-.843.892s-.842-.4-.842-.892.378-.893.843-.893.843.4.843.893z" fill-rule="evenodd"/><path stroke-linejoin="round" d="M154.38 61.542s-1.055 5.078 3.594 7.07m-7.034-6.445s1.722.078 1.722 1.68c0 1.6-1.414 1.796-1.296 3.086.117 1.29 2.425 1.718 2.503 2.812M143.4 52.792c.078 0 8.243.938 7.774 2.97-.47 2.03-1.758 1.21-1.72 2.967s3.282.703 3.282.703.196-1.485 1.563-1.368.74 1.68 2.616 1.64" stroke="#000" stroke-linecap="round" stroke-width="1.25" transform="matrix(1.135 0 0 1.142 235.95 209.34)" fill="none"/><path d="M138.41 65.458l1.936-.064" stroke="#000" stroke-linecap="round" stroke-width="1.25" transform="matrix(1.135 0 0 1.142 235.95 209.34)" fill="none"/><path d="M143.45 73.696s.72 3.36-2 3.04" stroke="#000" stroke-linecap="round" stroke-width="1pt" transform="matrix(1.135 0 0 1.142 235.95 209.34)" fill="none"/><path d="M0 .063v21.182L255.95 189.52h32.218v-21.182L32.218.064H0zm288.168 0v21.18L32.218 189.52H0v-21.18L255.95.062h32.218zM120.07.063V189.52h48.028V.062H120.07zM0 63.215v63.152h288.168V63.215H0z" fill="#fff"/><path d="M0 75.845v37.892h288.168V75.845H0zM129.676.063V189.52h28.816V.062h-28.816zM0 189.52l96.056-63.153h21.478L21.478 189.52H0zM0 .062l96.056 63.152H74.578L0 14.185V.062zm170.634 63.152L266.69.063h21.478l-96.056 63.152h-21.478zM288.168 189.52l-96.056-63.153h21.478l74.578 49.03v14.122z" fill="#c00"/></svg>