<svg xmlns="http://www.w3.org/2000/svg" height="512" width="512" viewBox="0 0 512 512"><g fill-rule="evenodd"><path fill="#ce0000" d="M256 0h256v511.984H256z"/><path fill="#fff" d="M0 0h256v511.984H0z"/></g><g transform="matrix(.35 0 0 .35 40.728 -25.527)"><path d="M183.107 381.66c0 2.314-2.62 4.19-5.853 4.19-3.232 0-5.852-1.876-5.852-4.19 0-2.313 2.62-4.188 5.852-4.188s5.853 1.875 5.853 4.19z" fill-rule="evenodd" fill="#f1eeee"/><path d="M.06 361.43V467.73h106.302c0 17.713 17.718 35.43 35.436 35.43v106.3h106.296v-106.3c17.718 0 35.436-17.717 35.436-35.43h106.302V361.43H283.53c0-17.713-17.718-35.43-35.436-35.43V219.7H141.798v106.298c-17.718 0-35.436 17.718-35.436 35.43H.06z" fill-rule="evenodd" fill="#c00"/><path d="M3.6 364.97v99.21h106.302c0 17.713 17.712 35.437 35.43 35.437v106.298h99.216V499.617c17.718 0 35.43-17.724 35.43-35.437H386.28v-99.21H279.978c0-17.713-17.712-35.437-35.43-35.437v-106.3h-99.216v106.3c-17.718 0-35.43 17.723-35.43 35.436H3.6z" fill-rule="evenodd" fill="#ffe600"/><path d="M7.04 368.51v92.13h106.296c0 17.712 17.718 35.43 35.436 35.43v106.3h92.124v-106.3c17.718 0 35.436-17.72 35.436-35.43h106.296v-92.132H276.332c0-17.713-17.718-35.43-35.436-35.43V226.78h-92.124v106.298c-17.718 0-35.436 17.718-35.436 35.43H7.04z" fill-rule="evenodd" fill="#707070"/><path d="M10.58 372.05v85.04h106.296c0 17.71 17.718 35.435 35.436 35.435v106.297h85.038V492.525c17.718 0 35.436-17.725 35.436-35.437h106.296v-85.04H272.786c0-17.712-17.718-35.43-35.436-35.43V230.32h-85.038v106.298c-17.718 0-35.436 17.718-35.436 35.43H10.58z" fill-rule="evenodd" fill="#a0a0a0"/><g fill-rule="evenodd"><path d="M153.244 327.833c6.226 6.226 1.18 21.37-11.275 33.824s-27.598 17.5-33.825 11.274c-6.227-6.226-1.18-21.37 11.275-33.823s27.597-17.5 33.824-11.274z" fill="#d0d0d0"/><path d="M145.732 335.344c6.227 6.227 4.544 18.006-3.758 26.308s-20.08 9.985-26.308 3.758c-6.227-6.226-4.544-18.005 3.758-26.308s20.08-9.985 26.308-3.758z" fill="#808080"/><path d="M114.406 354.133l2.505-2.505 10.023 5.01-5.01-10.02 2.504-2.507 10.022 20.045-20.044-10.022zM129.44 339.1l2.507-2.505 15.033 15.033-2.505 2.505z" fill="#d0d0d0"/></g><g fill-rule="evenodd"><path d="M281.617 372.927c-6.226 6.226-21.37 1.18-33.824-11.275s-17.5-27.597-11.274-33.824c6.226-6.227 21.37-1.18 33.823 11.275s17.5 27.597 11.274 33.824z" fill="#d0d0d0"/><path d="M274.106 365.415c-6.227 6.227-18.006 4.544-26.308-3.758s-9.985-20.08-3.758-26.308c6.226-6.228 18.005-4.545 26.308 3.757s9.985 20.08 3.758 26.308z" fill="#808080"/><path d="M255.317 334.09l2.505 2.504-5.01 10.022 10.02-5.01 2.507 2.504-20.045 10.022 10.022-20.043zm15.033 15.034l2.505 2.506-15.033 15.033-2.505-2.505z" fill="#d0d0d0"/></g><g fill-rule="evenodd"><path d="M236.526 501.297c-6.226-6.226-1.18-21.37 11.275-33.824s27.598-17.5 33.825-11.274c6.227 6.226 1.18 21.37-11.275 33.823s-27.597 17.5-33.824 11.274z" fill="#d0d0d0"/><path d="M244.038 493.786c-6.227-6.227-4.544-18.006 3.758-26.308s20.08-9.985 26.308-3.758c6.227 6.226 4.544 18.005-3.758 26.308s-20.08 9.985-26.308 3.758z" fill="#808080"/><path d="M275.364 474.997l-2.505 2.505-10.023-5.01 5.01 10.02-2.504 2.507-10.022-20.045 20.044 10.022zM260.33 490.03l-2.507 2.505-15.033-15.033 2.505-2.505z" fill="#d0d0d0"/></g><g fill-rule="evenodd"><path d="M108.153 456.206c6.226-6.226 21.37-1.18 33.824 11.275s17.5 27.598 11.274 33.825c-6.226 6.227-21.37 1.18-33.823-11.275s-17.5-27.597-11.274-33.824z" fill="#d0d0d0"/><path d="M115.664 463.718c6.227-6.227 18.006-4.544 26.308 3.758s9.985 20.08 3.758 26.308c-6.226 6.227-18.005 4.544-26.308-3.758s-9.985-20.08-3.758-26.308z" fill="#808080"/><path d="M134.453 495.044l-2.505-2.505 5.01-10.023-10.02 5.01-2.507-2.504L144.476 475l-10.022 20.043zM119.42 480.01l-2.505-2.507 15.033-15.033 2.505 2.505z" fill="#d0d0d0"/></g><path d="M269.29 414.57c0 41.095-34.107 74.41-76.18 74.41s-76.182-33.315-76.182-74.41 34.107-74.41 76.18-74.41 76.182 33.315 76.182 74.41z" transform="matrix(.977 0 0 1 6.263 0)" stroke="#707070" stroke-width="1pt" fill="none"/><path d="M269.29 414.57c0 41.095-34.107 74.41-76.18 74.41s-76.182-33.315-76.182-74.41 34.107-74.41 76.18-74.41 76.182 33.315 76.182 74.41z" transform="matrix(.744 0 0 .762 51.172 98.707)" stroke="#707070" stroke-width="1pt" fill="none"/><path d="M170.08 474.8a3.543 3.543 0 1 1-7.087 0 3.543 3.543 0 0 1 7.087 0zm56.693 0a3.543 3.543 0 1 1-7.087 0 3.543 3.543 0 0 1 7.087 0zm-34.25 0v3.696h-4.726c-4.724 0-4.724 3.695 0 3.695h4.725v3.695c.016 3.83 4.123 4.29 4.424.3l.3-3.994h4.725c4.725 0 4.725-3.694 0-3.694h-4.724V474.8c0-3.693-4.724-3.693-4.724 0z" fill-rule="evenodd" fill="#d0d0d0"/><path d="M180.71 162.99v7.087s-3.362 5.423-24.803 7.086-24.803 0-24.803 0c.56 6.18 4.732 17.896 3.543 31.89.835 16.29-4.103 31.042-4.103 31.042.56.848-2.018 1.28-6.527.848 3.543-3.544 3.134-13.795 3.543-28.347.41-14.553-13.527-36.456-10.63-42.52s63.78-7.086 63.78-7.086z" fill-rule="evenodd" transform="matrix(.33 0 0 .296 117.56 374.28)" stroke="#707070" stroke-width="1pt" fill="#d0d0d0"/><path d="M272.84 162.26c20.858-1.077 55.86-.843 55.86-.843s8.252 18.502 7.91 28.723-3.182 18.92-7.078 14.57 1.805-3.53 2.498-14.57c.692-11.04-6.66-22.48-6.66-22.48s-14.963 7.303-37.467 5.83c-22.503-1.475-12.54-10.792-15.063-11.23z" fill-rule="evenodd" transform="matrix(.33 0 0 .296 115.22 366.9)" stroke="#707070" stroke-width="1pt" fill="#d0d0d0"/><path d="M312.21 273.91c20.858-1.077 34.55 2.498 34.55 2.498s8.254 18.502 7.91 28.723-3.18 18.92-7.076 14.57 1.805-3.53 2.498-14.57c.692-11.038-6.66-22.478-6.66-22.478s-14.963 7.302-37.467 5.828c-22.503-1.474-16.084-2.975-18.606-3.413s-3.132 6.958-37.177 7.992c-34.044 1.032-51.407-7.993-51.407-7.993s-3.362 5.423-24.803 7.086-24.803 0-24.803 0c.56 6.18 4.732 17.896 3.543 31.89.835 16.29-4.103 31.042-4.103 31.042.56.848-2.018 1.28-6.527.848 3.543-3.544 3.134-13.795 3.543-28.347.41-14.553-13.527-36.456-10.63-42.52s18.333-.394 21.26-3.543c2.926-3.15-13.75-25.333-10.63-46.063 3.12-20.73 20.792-14.886 42.52-14.173 21.727.712 69.865 7.003 81.496 0 11.632-7.003 6.598-32.93 17.717-49.606 7.085-10.63 17.715-14.172 28.345-14.172 7.087 0 17.717 28.346 17.717 35.433l-3.544 3.544h-3.543v3.543c-8.088.907-9.216-7.732-14.173-14.173-2.13 9.984 7.086 42.52 7.086 63.78 0 17.716-6.622 25.525-7.038 24.276z" fill-rule="evenodd" transform="matrix(.33 0 0 .296 104.56 339.3)" stroke="#707070" stroke-width="1pt" fill="#d0d0d0"/><path d="M209.06 131.1c.294 7.062-27.384 22.895-29.637 29.164s7.036 9.744 4.163 13.32c-2.872 3.58-5.24 2.252-5.828 2.915-.588.663-10.407-24.56-10.407-24.56s25.962-13.085 24.978-18.734-19.17-9.085-22.48-23.312c-3.308-14.227-1.473-41.71-4.162-47.456-2.69-5.747-34.552-11.23-34.58-19.92-.026-8.69 32.75-32.54 36.294-36.085 3.543-3.543 7.087 3.543 3.543 7.087-3.543 3.543-29.206 25.455-29.206 28.998 0 3.543 21.26 7.086 28.347 7.086 7.086 0 10.63-3.543 10.63-7.086.042-3.066-7.087-3.544-7.087-10.63 0-7.087 3.543-10.63 10.63-10.63 3.543 0 10.356 4.537 10.63 10.63.274 6.092-6.305 6.608-7.087 10.63-.78 4.02 7.087 7.086 14.173 7.086 7.087 0 31.282 20.608 34.825 24.152 3.544 3.544 7.087 3.543 3.544 7.087-3.543 3.543-1.468 7.738-5.012 4.195-3.017-3.423-3.543-7.087-3.543-7.087-.306-3.22-26.27-17.715-29.814-14.172-3.543 3.543 0 46.064 0 49.606 0 7.086 7.38 7.062 7.087 17.716z" fill-rule="evenodd" transform="matrix(.33 0 0 .296 116.1 372.43)" stroke="#707070" stroke-width="1pt" fill="#d0d0d0"/><path fill-rule="evenodd" fill="#a7a7a7" d="M170.23 386.9h14.045v14.662H170.23z"/><rect transform="matrix(.554 .832 -.882 .471 0 0)" fill-rule="evenodd" rx="1.27" ry=".57" height="1.139" width="87.553" y="64.582" x="405.61" fill="#808080"/><path d="M180.71 42.52a7.087 7.087 0 1 1-14.173 0 7.087 7.087 0 0 1 14.173 0z" fill-rule="evenodd" transform="matrix(.33 0 0 .296 114.05 362.81)" stroke="#707070" stroke-width="1pt" fill="#d0d0d0"/><path d="M214.7 394.443c0 .867-5.434 1.886-11.705 1.886s-11.704-1.02-11.704-1.887c0-.868 5.434 1.257 11.705 1.257s11.705-2.125 11.705-1.257z" fill-rule="evenodd" fill="#808080"/><path fill-rule="evenodd" fill="#a7a7a7" d="M171.4 401.56h11.704v4.19H171.4z"/><path d="M209.453 391.243c-1.135 2.126-2.212 3.643-2.405 3.388-.194-.253.57-2.183 1.704-4.31 1.135-2.124 2.212-3.64 2.405-3.387.193.255-.57 2.184-1.704 4.31zm2.98 5.497c-1.293 1.134-2.37 1.868-2.406 1.64-.037-.23.982-1.333 2.274-2.467 1.293-1.134 2.37-1.868 2.407-1.64.036.23-.982 1.333-2.275 2.467zM210.927 394.09c.953 1.733 1.58 3.2 1.403 3.276-.178.076-1.095-1.267-2.048-3-.953-1.734-1.58-3.2-1.403-3.277.177-.077 1.094 1.266 2.047 3zm-.91 9.04c0 .29-3.668.524-8.193.524s-8.193-.234-8.193-.524c0-.29 3.67-.523 8.194-.523 4.525 0 8.193.234 8.193.523zm-26.91-1.05c0 .29-2.62.525-5.853.525-3.232 0-5.852-.235-5.852-.524 0-.29 2.62-.523 5.852-.523s5.853.235 5.853.524z" fill-rule="evenodd" fill="#808080"/><path d="M375.49 171.92s8.938 36.133 47.04 36.633 51.215-10.838 35.8-29.972-44.084-13.18-40.38 3.33-10.75 22.02-14.153 10.408c-3.4-11.61-17.045-45.99 7.493-48.29 24.54-2.298 76.51-14.816 89.5 9.16 12.992 23.975-14.674 45.707 6.245 50.786 20.92 5.08 23.893-5.81 59.896-9.094 36.005-3.286 49.743 11.102 62.077 9.094 12.334-2.007 10.59-37.258.832-46.207-9.76-8.95-28.5-10.586-33.304-20.398-4.802-9.813-17.87-1.826-16.65-12.906s18.53 7.625 18.732 1.966c.006-.177 2.858-3.93 3.434-4.878-2.178-.828-3.42.512-5.056 1.948 1.775-2.36 1.665-3.448 2.26-5.378-.31-.727-2.46 2.734-2.825 2.01s2.506-5.63 1.207-3.85c-.45.512-3.872 3.328-3.91 1.388.058-.787 1.79-2.813 1.177-3.912-.493-.914-3.093 1.064-3.428 1.29 1.487-3.31 1.382-3.27-.048-5.72-1.25-2.453-2.16-2.396-4.2.373.85-3.978 1.08-4.82-.97-6.328-1.684-1.52-1.76-2.956-3.855 4.162.798-7.618-1.343-7.95-.454-11.562.528-3.312 3.322-4.71 7.926-3.978 8.945.13 13.728 17.954 16.65 17.9 2.925-.054 6.197-18.882 18.734-11.24 12.537 7.643 14.085 9.202 20.398 13.738 6.313 4.535-4.435 11.457-.833 20.398 3.602 8.94 28.23 38.804 21.23 69.935-6.998 31.13-25.025 36.055-26.64 49.538-1.618 13.483 57.066 7.95 72.016 12.49 14.95 4.536 24.376 23.11 24.978 26.224s-26.226 2.914-26.226 2.914-13.776-11.836-46.624-12.903c-32.847-1.068-45.355-23.11-57.65-25.87s-38.502 4.63-53.15 3.542c-14.65-1.088-29.488-4.944-38.976-7.087-9.49-2.142-56.693 35.433-56.53 44.184-9.84-.62-33.008-2.71-32.053-1.665.954 1.043 4.15-17.038 22.213-20.216 18.06-3.18 35.645-17.573 35.062-27.025-.583-9.45 3.487-41.875 4.995-55.78s8.27-20.617 6.66-27.89c-1.608-7.276-22.243-14.78-42.044-14.57-19.8.207-41.77 2.055-44.96 9.99-3.187 7.933-.78 30.963 3.332 28.307 4.11-2.657-.994-17.712 3.33-20.815 4.324-3.102 15.405-5.843 25.81-6.244 10.404-.4 28.493 14.73 28.307 19.565-.186 4.837 5.82 20.934-2.498 27.06-8.318 6.123-25.332 8.86-41.628 7.492-16.298-1.37-32.787-10.674-38.716-16.65-5.928-5.978-9.574-24.146-9.574-25.395z" fill-rule="evenodd" transform="matrix(.216 0 0 .13 76.265 416.17)" stroke="#808080" stroke-width="1pt" fill="#d0d0d0"/><path d="M209.473 431.552a.94.94 0 1 1-1.88 0 .94.94 0 0 1 1.88 0z" fill-rule="evenodd"/><path d="M253.616 417.966l4.558.982 7.612-5.21-.59 2.736-3.965 2.65c-.74.485-1.47.93-2.19 1.333.45.632.952 1.386 1.5 2.265l2.453 3.974-.565 2.618-4.74-8.117-4.557-.982.486-2.25zm-7.756-33.513l8.816-4.06-2.395-5.202 1.18-.542 5.763 12.51-1.18.545-2.405-5.22-8.816 4.06-.962-2.09zm-13.663-16.616l8.116-7.432 1.594 1.74-.21 12.566 6.374-5.834 1.49 1.626-8.117 7.433-1.593-1.74.213-12.573-6.378 5.84-1.488-1.625zm-35.47-14.325l1.332-10.925 2.28.278-1.173 9.635 8.498 1.036-.157 1.29-10.78-1.314zm-17.446 1.578l-1.97-10.828 2.265-.412 1.737 9.55 8.42-1.53.233 1.277-10.684 1.943zm-32.256 15.904l-.807-1.008 5.743-4.608 2.553 3.19a16.252 16.252 0 0 1-1.922 3.192 16.018 16.018 0 0 1-2.62 2.647c-1.332 1.066-2.69 1.857-4.068 2.372-1.378.505-2.617.64-3.72.4-1.102-.24-1.992-.78-2.668-1.625-.67-.836-1.018-1.835-1.05-2.997-.024-1.172.34-2.348 1.094-3.53.755-1.18 1.808-2.312 3.16-3.395.98-.785 1.946-1.392 2.9-1.822.955-.436 1.802-.656 2.54-.658.74 0 1.456.194 2.153.585l-1.393 1.578c-.554-.275-1.082-.416-1.585-.423-.502-.01-1.095.138-1.774.44a9.15 9.15 0 0 0-2.054 1.267c-.82.655-1.463 1.304-1.934 1.943-.474.636-.793 1.23-.956 1.785-.158.55-.214 1.06-.17 1.53.08.81.37 1.524.865 2.145.613.766 1.33 1.24 2.158 1.426.832.178 1.747.074 2.742-.312.996-.387 1.943-.94 2.837-1.656a11.848 11.848 0 0 0 2.05-2.103c.588-.785.987-1.44 1.198-1.96l-1.28-1.6-3.99 3.194zm-.35 79.128l-8.973 6.372-6.788-9.56 1.06-.752 5.457 7.685 2.777-1.973-4.722-6.65 1.06-.753 4.722 6.65 4.076-2.893 1.332 1.875zm-13.23-14.318c1.277-.36 2.132-1.183 2.563-2.472.426-1.295.408-2.76-.054-4.396-.47-1.664-1.227-2.93-2.27-3.792-1.05-.87-2.253-1.114-3.617-.73-.86.244-1.548.688-2.057 1.332-.518.64-.827 1.453-.927 2.442-.107.984-.006 2.026.306 3.13.44 1.566 1.165 2.82 2.168 3.76.997.934 2.293 1.176 3.887.726zm.624 2.287c-1.758.498-3.344.14-4.757-1.07-1.417-1.21-2.46-2.994-3.124-5.35-.436-1.544-.596-3.003-.48-4.375s.505-2.498 1.16-3.382a4.656 4.656 0 0 1 2.564-1.783c1.074-.303 2.13-.23 3.172.213 1.04.446 1.958 1.235 2.75 2.364.788 1.135 1.388 2.427 1.797 3.88.444 1.574.6 3.05.47 4.424-.133 1.378-.525 2.504-1.18 3.378-.652.874-1.443 1.44-2.372 1.703zm.922-22.338l-11.003-.248.173-7.705c.035-1.55.162-2.725.38-3.526.214-.803.576-1.438 1.087-1.908.512-.47 1.07-.7 1.676-.687.78.017 1.43.432 1.947 1.24.517.812.83 2.052.937 3.72.198-.6.392-1.06.58-1.37a9.76 9.76 0 0 1 1.505-1.878l3.063-2.954-.065 2.892-2.34 2.25c-.677.655-1.194 1.196-1.555 1.623-.36.427-.613.812-.762 1.156a4.602 4.602 0 0 0-.315 1.037c-.042.26-.068.686-.082 1.277l-.06 2.668 4.886.11-.052 2.3zm-6.095-2.438l.11-4.944c.025-1.05-.023-1.873-.146-2.468-.127-.597-.337-1.053-.63-1.367-.3-.316-.626-.477-.98-.485-.52-.012-.956.28-1.305.873-.35.585-.538 1.52-.567 2.808l-.124 5.5 3.64.084zm30.573-48.416l.075-12.87 2.127-1.274 11.756 5.79-2.248 1.346-3.45-1.818-6.237 3.732.075 3.84-2.097 1.254zm1.983-6.453l5.056-3.026-3.12-1.685c-.952-.51-1.695-.953-2.23-1.324.172.718.264 1.48.274 2.285l.02 3.75zm53.156-3.443l11.876-4.965 2 1.458-.73 13.085-2.118-1.543.324-3.888-5.874-4.28-3.505 1.57-1.974-1.438zm6.715-.7l4.763 3.47.328-3.532c.1-1.074.216-1.93.35-2.57-.597.438-1.26.82-1.996 1.147l-3.443 1.486zm29.428 40.974l10.703-2.562 1.795 7.495c.36 1.505.537 2.673.53 3.506-.003.828-.19 1.535-.566 2.122-.376.585-.857.948-1.446 1.09-.76.18-1.492-.055-2.2-.707-.705-.65-1.324-1.77-1.853-3.36-.037.636-.107 1.13-.21 1.48a9.746 9.746 0 0 1-.98 2.195l-2.208 3.637-.673-2.812 1.69-2.77c.487-.807.85-1.464 1.09-1.967.24-.504.385-.943.442-1.314.057-.362.07-.723.04-1.082-.025-.263-.11-.682-.246-1.258l-.62-2.594-4.753 1.137-.535-2.237zm6.515.806l1.15 4.807c.245 1.023.5 1.806.77 2.35.275.545.594.93.96 1.162.367.228.724.3 1.07.218.505-.12.85-.512 1.04-1.174.187-.655.13-1.61-.17-2.863l-1.28-5.348-3.54.847z" fill="#d0d0d0"/></g></svg>