<svg xmlns="http://www.w3.org/2000/svg" height="512" width="512" viewBox="0 0 512 512"><defs><clipPath id="a"><path fill-opacity=".67" d="M179.71 0h708.66v708.66H179.71z"/></clipPath></defs><g fill-rule="evenodd" clip-path="url(#a)"><path fill="#f41408" d="M-129.84 0h767.486v511.653H-129.84z"/><path fill="#21873b" d="M-129.84 341.102h767.486v170.55H-129.84z"/><path d="M-129.84 0h767.486v170.55H-129.84z"/><path d="M159.982 154.535c22.292-54.29 84.448-80.257 138.737-57.965 27.34 11.227 46.707 30.584 57.945 57.925l-196.683.04zm215.48 66.52c-23.435-1.745-48.34-7.118-52.402-8.598-4.065-1.48-4.22-3.95-3.72-5.843.5-1.893 3.094-4.042 6.123-3.242 5.678 1.503 28.768 7.61 50 17.682zm114.56-91.977c-4.205-23.12-5.267-48.576-4.857-52.88.41-4.307 2.763-5.08 4.72-5.07 1.96.008 4.69 1.978 4.677 5.11-.026 5.873-.13 29.758-4.54 52.84zm59.488-35.92c-2.208-23.395-1.085-48.848-.307-53.102.778-4.254 3.188-4.823 5.138-4.646 1.95.176 4.504 2.373 4.22 5.493-.527 5.85-2.678 29.637-9.05 52.256zm14.89 1.624c-.277-23.498 2.938-48.772 4.062-52.947 1.126-4.176 3.574-4.544 5.503-4.208 1.93.336 4.293 2.736 3.755 5.822-1.01 5.785-5.11 29.314-13.32 51.333zm15.03 3.007c1.792-23.432 7.217-48.326 8.705-52.386 1.487-4.06 3.96-4.212 5.85-3.708 1.893.505 4.037 3.103 3.23 6.13-1.515 5.675-7.67 28.752-17.786 49.964zm15.07 4.4c3.866-23.18 11.48-47.494 13.322-51.406 1.843-3.913 4.318-3.844 6.157-3.173 1.84.67 3.743 3.45 2.67 6.392-2.01 5.518-10.19 27.96-22.15 48.188zm14.285 5.55c5.832-22.764 15.496-46.337 17.667-50.077 2.17-3.74 4.63-3.46 6.406-2.635 1.775.825 3.435 3.756 2.115 6.596-2.476 5.325-12.544 26.985-26.19 46.118zm13.835 6.836c7.804-22.167 19.494-44.803 21.984-48.34 2.49-3.535 4.916-3.04 6.612-2.064 1.697.978 3.094 4.043 1.53 6.756-2.933 5.09-14.86 25.783-30.127 43.648zm13.237 8.032c9.705-21.403 23.324-42.935 26.113-46.24 2.788-3.306 5.162-2.602 6.767-1.48 1.604 1.122 2.73 4.296.934 6.864-3.363 4.813-17.047 24.39-33.814 40.856zm12.475 9.15c11.537-20.474 26.983-40.735 30.05-43.785 3.066-3.05 5.37-2.14 6.87-.884 1.5 1.257 2.344 4.518.33 6.92-3.77 4.5-19.11 22.807-37.25 37.747zm11.657 10.223c13.282-19.385 30.442-38.217 33.763-40.986 3.32-2.77 5.536-1.664 6.92-.28 1.386 1.384 1.94 4.706-.273 6.922-4.152 4.154-21.035 21.05-40.412 34.345zm10.74 11.246c14.933-18.146 33.68-35.4 37.23-37.867 3.552-2.47 5.66-1.172 6.92.327 1.257 1.5 1.518 4.858-.882 6.87-4.5 3.775-22.8 19.124-43.27 30.67zm9.43 11.73c16.4-16.833 36.524-32.457 40.27-34.618 3.744-2.163 5.74-.693 6.866.906 1.128 1.6 1.107 4.97-1.452 6.773-4.802 3.385-24.322 17.147-45.685 26.938zm8.405 12.522c17.78-15.367 39.167-29.212 43.084-31.046 3.916-1.833 5.776-.2 6.763 1.492.987 1.69.68 5.044-2.027 6.623-5.072 2.962-25.7 15.003-47.82 22.93zm7.738 14.094c19.125-13.655 41.702-25.46 45.772-26.923 4.07-1.464 5.772.335 6.598 2.11.826 1.775.208 5.086-2.632 6.408-5.323 2.48-26.976 12.56-49.737 18.404zm6.275 14.226c20.226-11.965 43.733-21.79 47.913-22.9 4.18-1.107 5.722.832 6.393 2.67.67 1.84-.23 5.086-3.17 6.16-5.52 2.012-27.957 10.2-51.136 14.07zm4.972 14.694c21.202-10.135 45.483-17.85 49.744-18.587 4.262-.735 5.626 1.332 6.132 3.223.506 1.89-.676 5.045-3.702 5.855-5.673 1.518-28.745 7.697-52.175 9.51zm-133.35-90.73c-6.327-22.633-9.74-47.882-9.728-52.206.01-4.325 2.282-5.312 4.23-5.484 1.952-.173 4.854 1.536 5.13 4.656.518 5.85 2.622 29.642.367 53.033zm-62.94-35.102c-8.277-21.993-13.88-46.847-14.247-51.156-.367-4.31 1.81-5.49 3.737-5.832 1.927-.343 4.968 1.106 5.516 4.19 1.026 5.783 5.2 29.3 4.994 52.8zm-15.3 2.98c-10.183-21.18-17.953-45.444-18.7-49.704-.744-4.26 1.32-5.63 3.21-6.14 1.89-.51 5.046.665 5.863 3.69 1.532 5.67 7.762 28.728 9.627 52.153zm-14.632 4.178c-11.945-20.238-21.747-43.754-22.85-47.935-1.106-4.182.835-5.72 2.674-6.39 1.84-.67 5.085.234 6.156 3.177 2.007 5.52 10.172 27.966 14.02 51.148zm-14.158 5.408c-13.635-19.14-25.415-41.73-26.873-45.803-1.46-4.07.342-5.77 2.118-6.594 1.776-.826 5.086-.203 6.404 2.637 2.473 5.328 12.53 26.992 18.35 49.76zm-14.17 6.897c-15.303-17.835-29.07-39.273-30.89-43.196-1.82-3.923-.18-5.778 1.516-6.76 1.694-.98 5.047-.66 6.616 2.05 2.943 5.085 14.91 25.755 22.758 47.906zm-13.296 7.956C422.92 105.63 407.352 85.462 405.2 81.71c-2.15-3.75-.675-5.74.928-6.864 1.603-1.124 4.972-1.093 6.77 1.472 3.37 4.81 17.077 24.37 26.807 45.76zm-12.35 8.86C409.23 115.987 392 97.22 389.535 93.666c-2.463-3.555-1.164-5.663.337-6.92 1.503-1.255 4.86-1.512 6.87.89 3.77 4.505 19.096 22.824 30.616 43.306zm-11.877 10.192c-19.388-13.28-38.225-30.434-40.995-33.755-2.77-3.32-1.664-5.536-.28-6.92 1.383-1.386 4.705-1.942 6.92.272 4.156 4.15 21.055 21.03 34.355 40.403zm-10.62 10.8c-20.433-11.608-40.64-27.124-43.68-30.202-3.04-3.075-2.122-5.376-.86-6.873 1.264-1.496 4.528-2.328 6.92-.308 4.49 3.788 22.743 19.19 37.62 37.382zm-9.867 12c-21.384-9.744-42.89-23.403-46.192-26.197-3.3-2.794-2.592-5.167-1.467-6.77 1.125-1.602 4.302-2.72 6.867-.922 4.807 3.375 24.358 17.094 40.793 33.89zm-9.014 13.18c-22.177-7.775-44.83-19.437-48.368-21.922-3.54-2.485-3.048-4.913-2.072-6.61.975-1.698 4.038-3.098 6.754-1.537 5.092 2.926 25.802 14.825 43.687 30.07zm-7.66 13.624c-22.77-5.813-46.352-15.457-50.094-17.624-3.742-2.167-3.464-4.628-2.64-6.404.823-1.776 3.753-3.438 6.595-2.12 5.328 2.47 26.995 12.52 46.14 26.15zm-6.21 13.71c-23.178-3.885-47.485-11.518-51.395-13.364-3.91-1.845-3.84-4.32-3.168-6.16.672-1.84 3.452-3.74 6.394-2.665 5.516 2.015 27.95 10.214 48.17 22.19zM134.03 161.552c-23.436-1.744-48.34-7.117-52.403-8.597-4.065-1.48-4.22-3.95-3.72-5.843.5-1.893 3.094-4.043 6.122-3.242 5.677 1.503 28.767 7.61 50 17.682z" fill="#f31509"/><path d="M68.948 155.042h380.97v13.844H68.95z"/></g></svg>