<svg xmlns="http://www.w3.org/2000/svg" xmlns:xlink="http://www.w3.org/1999/xlink" width="512" height="512" viewBox="0 0 512 512"><path d="M0 .05h512v512H0z" fill="#cc0001"/><path d="M0 475.48h512v36.57H0z" fill="#fff" id="a"/><use xlink:href="#a" transform="translate(0 -73.143)" width="100%" height="100%"/><use xlink:href="#a" transform="translate(0 -146.286)" width="100%" height="100%"/><use xlink:href="#a" transform="translate(0 -219.43)" width="100%" height="100%"/><use xlink:href="#a" transform="translate(0 -292.57)" width="100%" height="100%"/><use xlink:href="#a" transform="translate(0 -365.714)" width="100%" height="100%"/><use xlink:href="#a" transform="translate(0 -438.857)" width="100%" height="100%"/><path d="M0 .05h320.077v292.57H0z" fill="#010066"/><g fill="#fc0"><path d="M123.812 51.9c-51.45 0-93.21 41.62-93.21 92.9 0 51.28 41.76 92.903 93.21 92.903 18.59 0 35.908-5.44 50.454-14.798a82.693 82.693 0 0 1-27.025 4.522c-45.622 0-82.65-36.904-82.65-82.375 0-45.472 37.028-82.376 82.65-82.376 10.083 0 19.74 1.8 28.677 5.1-14.877-10.02-32.81-15.877-52.105-15.877zM278.39 193.164l-39.263-20.486 11.61 41.926-26.262-35.07-8.193 42.685-8.058-42.71-26.372 34.99 11.74-41.89-39.327 20.367 29.216-32.774-44.494 1.71 40.903-17.167-40.85-17.29 44.49 1.844-29.112-32.862 39.264 20.486-11.61-41.926 26.262 35.07 8.193-42.685 8.058 42.71 26.372-34.99-11.742 41.89 39.328-20.368-29.215 32.774 44.494-1.71-40.902 17.166 40.848 17.288-44.49-1.842z"/></g></svg>