<svg xmlns="http://www.w3.org/2000/svg" height="512" width="512" viewBox="0 0 512 512"><defs><clipPath id="a"><path fill-opacity=".67" d="M0 0h496.06v496.06H0z"/></clipPath></defs><g clip-path="url(#a)"><path fill-rule="evenodd" fill="#009a00" d="M0 0h767.975v159.996H0z"/><path fill-rule="evenodd" fill="#fff" d="M0 159.955h767.975v16.018H0z"/><path fill-rule="evenodd" d="M0 175.973h767.975V335.97H0z"/><path fill-rule="evenodd" fill="#fff" d="M0 335.97h767.975v16.017H0z"/><path fill-rule="evenodd" fill="#ffca00" d="M0 351.987h767.975v159.997H0z"/><path d="M0 0v511.984l336.01-255.992L0 0z" fill-rule="evenodd" fill="#f00"/><path fill="#ffca00" fill-rule="evenodd" d="M198.525 332.962l-51.227-37.505-51.16 37.514 19.84-60.308-51.49-37.065 63.49.235 19.337-60.42 19.396 60.456 63.44-.29-51.504 37.13z"/><path stroke-linejoin="round" d="M102.833 290.902h36.904c2.97 3.33 9.594 4.69 15.905-.04 11.566-6.334 33.943.04 33.943.04l4.407-4.682-10.74-35.25-3.857-4.132s-8.26-4.957-23.96-3.305c-15.698 1.652-21.205-.55-21.205-.55s-13.77 1.652-17.626 3.58c-.424.343-4.406 4.407-4.406 4.407l-9.365 39.932z" fill-rule="evenodd" stroke="#000" stroke-linecap="round" stroke-width="1.102176" fill="#fff"/><path stroke-linejoin="round" d="M110.27 281.815s35.25-4.405 45.44 9.09c-5.754 3.936-10.82 4.26-16.247.275.863-1.44 12.668-13.77 42.687-9.64" stroke="#000" stroke-linecap="round" stroke-width="1.102176" fill="none"/><path d="M147.998 246.566l-.274 38.83m31.67-38.283l6.61 30.844" stroke="#000" stroke-width="NaN" fill="none"/><path stroke-linejoin="round" d="M116.968 246.626l-3.67 15.908" stroke="#000" stroke-linecap="round" stroke-width="1.102176" fill="none"/><path stroke-linejoin="round" d="M78.866 295.136l8.68 10.176c1.017.608 1.923.568 2.828 0l12.862-15.434 5.402-6.688c.836-.99 1.104-2.097 1.03-3.087l10.326-9.178c.845.06 1.348.155 2.193.212-.998-.258-1.73-.745-.944-1.838l2.315-1.802 1.8 2.315s-2.572 3.344-2.83 3.344h-2.83l-5.4 4.888 2.36 2.087 3.556 9.746 4.373-3.087-2.83-10.03 6.174-6.69-2.314-3.6 1.543-2.06s21.366 13.453 29.6 9.852c.22.08.496-9.594.496-9.594s-22.122-2.315-22.637-6.688c-.516-4.373 4.887-4.887 4.887-4.887l-2.316-3.344.517-1.803 3.858 4.888 8.746-7.46 51.45 58.65c2.807-1.14 3.407-1.826 3.6-4.63-.07-.07-50.418-57.88-50.418-57.88l3.858-4.114c.76-.856 1.028-1.22 1.03-2.572l5.915-5.145c1.78.612 2.914 1.678 3.86 3.085l16.265-13.784c.428.43 1.73.857 2.614.375l26.888-25.815-29.305 20.7-1.032-.77c0-.857 1.063-1.07 0-2.573-1.14-1.366-2.83 1.286-3.086 1.286-.26 0-4.243-1.408-5.117-3.192l-.287 4.735-7.46 6.947-5.66-.258-8.23 7.974-1.03 3.086 1.286 2.574s-4.373 3.858-4.373 3.6c0-.256-.886-1.136-.923-1.25l3.752-3.38.513-2.315-1.252-1.955c-.378.276-5.178 5.3-5.435 4.784-.434-.477-13.894-15.69-13.894-15.69l.772-2.83-8.746-9.52c-3.19-1.1-8.232-1.285-9.26 5.66-.802 1.63-7.46.258-7.46.258l-3.602.77-20.322 28.813 11.32 13.635 23.15-29.328.688-8.307 4.858 5.432c1.62.207 3.162.227 4.63-.515l13.717 15.31-2.284 2.23c.773.856 1.303 1.404 2.075 2.262.772-.515 1.51-1.133 2.28-1.648.26.344.687.996.944 1.34-1.15.625-1.956 1.458-3.105 2.082-1.84-1.198-3.616-2.69-3.48-5.067l-7.717 6.43-.258 1.287-22.894 19.037-2.058.26-.514 5.915 14.92-12.347v-1.802l1.543 1.286 11.575-9.26s.772 1.03.516 1.03c-.258 0-10.29 9.26-10.29 9.26l-.258 1.028-1.8 1.544-1.03-.772-13.89 12.348h-2.06l-7.716 7.718c-1.99.172-3.716.383-5.402 1.542L78.86 295.134z" fill-rule="evenodd" stroke="#000" stroke-linecap="round" stroke-width="1.102176"/></g></svg>