<svg xmlns="http://www.w3.org/2000/svg" height="512" width="512" viewBox="0 0 512 512"><defs><clipPath id="b"><path fill-opacity=".67" d="M0-15.957h512v512H0z"/></clipPath><clipPath id="a"><path fill-opacity=".67" d="M0 0h512v512H0z"/></clipPath></defs><g clip-path="url(#a)"><path style="width:0" fill="#fff" d="M0 0h512v512H0z"/><g fill-rule="evenodd" clip-path="url(#b)"><path d="M6.54 505.497l378.786-.01L137.4 254.067l257.262.302L6.562 6.482 6.54 505.497z" stroke="#000063" stroke-width="12.968" fill="#ce0000"/><path fill="#fff" d="M180.737 371.76l-26.986 8.936 21.11 19.862-28.437-1.827 11.716 26.233-25.55-12.29.526 28.597-18.786-20.9-10.74 26.632-9.15-26.32-20.366 20.588 1.86-27.734-26.883 11.427 12.603-24.918-29.335.513 21.43-18.322-27.295-10.476 26.987-8.923-21.122-19.862 28.436 1.815-11.703-26.22 25.55 12.29-.526-28.61 18.787 20.9 10.73-26.62 9.16 26.32 20.366-20.6-1.873 27.735 26.896-11.414-12.602 24.918 29.322-.513-21.43 18.323zM148.32 155.168l-11.33 8.387 5.584 4.614c13.56-10.482 23.21-20.062 30.753-35.96 1.77 21.22-17.683 68.855-68.73 69.38-54.633-.045-73.59-50.586-71.482-70.275 10.037 18.21 16.16 27.09 31.916 36.57l4.82-4.425-10.67-8.89 13.737-3.573-7.39-12.44 14.39 1.05-1.807-14.486 12.616 7.383 3.948-13.485 9.065 10.86 8.49-10.296 4.624 13.99 11.79-8.204-1.512 14.228 14.133-1.66-6.626 13.154 13.68 4.077z"/></g></g></svg>