<svg xmlns="http://www.w3.org/2000/svg" height="512" width="512" viewBox="0 0 512 512"><defs><clipPath id="a"><path fill-opacity=".67" d="M135.64 0H631.7v496.06H135.64z"/></clipPath></defs><g fill-rule="evenodd" clip-path="url(#a)"><path fill="#002170" d="M-140 0H883.878v511.934H-140z"/><path fill="#ffb20d" d="M-140 234.078H883.878v43.778H-140z"/><path fill="#fff" d="M161.77 437.93l-32.91-32.965-10.604 45.356-12.006-45.007-31.872 33.973 12.106-44.983L41.9 407.8l32.968-32.903-45.36-10.61 45.01-12.01-33.982-31.868 44.983 12.105-13.49-44.587 32.904 32.967 10.612-45.358 12.006 45.01 31.862-33.974-12.097 44.983 44.586-13.497-32.977 32.904 45.358 10.61-45.01 12.01 33.984 31.87-44.984-12.106z"/></g></svg>