<svg xmlns="http://www.w3.org/2000/svg" height="512" width="512" viewBox="0 0 512 512"><defs><clipPath id="a"><path fill-opacity=".67" d="M0 0h496.06v496.06H0z"/></clipPath></defs><g clip-path="url(#a)"><path fill-rule="evenodd" fill="#fff" d="M.013 0H515.6v256.064H.012z"/><path d="M.013 0l-.02 19.22L123.03 82.437l46.3 1.342L.01 0z" fill="#c00"/><path d="M52.693 0l149.17 77.914V0H52.702z" fill="#006"/><path fill="#c00" d="M221.757 0v99.466H.02v56.837h221.737v99.466h68.228v-99.467H511.72V99.466H289.986V0h-68.228z"/><path d="M309.878 0v73.415L455.806.57 309.878 0z" fill="#006"/><path d="M314.49 81.42l41.037-.33L514.967.57l-42.306.688-158.17 80.16z" fill="#c00"/><path d="M.013 172.877v54.47l102.343-53.897-102.343-.578z" fill="#006"/><path d="M394.107 175.127l-42.663-.332 160.822 80.07-1.058-18.318-117.102-61.42zM15.46 245.325l150.8-79.172-39.613.268-151.15 78.79" fill="#c00"/><path d="M513.883 22.495L392.095 82.888l120.167.45v89.993H409.92l101.396 54.94 1.488 27.95-54.158-.648-148.23-72.77v73.417h-108.03v-73.417L63.34 256.02l-62.796.2v255.764h1023.42V.444l-509-.444M.553 28.87l-.54 53.118 107.74 1.35L.562 28.868z" fill="#006"/><g fill-rule="evenodd" fill="#ffd900"><path d="M511.984 0h511.983v511.984H511.984zM0 255.992h540.294v255.992H0z"/></g><g fill-rule="evenodd"><path d="M300.238 129.312c0 24.377-19.763 44.14-44.14 44.14-24.378 0-44.14-19.762-44.14-44.14s19.76-44.14 44.14-44.14c24.377 0 44.14 19.762 44.14 44.14z" fill="#000067"/><path fill="#fff40d" d="M234.114 158.997l8.536-25.365-22.294-15.67 27.543.027 8.488-25.38 8.488 25.38 27.543-.02-22.298 15.662 8.532 25.37-22.27-15.7zm152.99-22.598l4.228-11.876-11.047-7.336 13.65.012 4.206-11.882 4.208 11.882 13.65-.008-11.05 7.332 4.228 11.877-11.037-7.35zm-154.31 88.834l4.23-11.876-11.048-7.335 13.65.012 4.206-11.882 4.207 11.882 13.65-.01-11.05 7.333 4.227 11.878-11.037-7.35zm4.644-175.158l4.23-11.876-11.048-7.335 13.65.012 4.206-11.882 4.207 11.882 13.65-.01-11.05 7.333 4.23 11.878-11.04-7.35zM87.65 144.926l4.232-11.875-11.05-7.336 13.652.01 4.207-11.88 4.208 11.88 13.65-.007-11.05 7.332 4.227 11.877-11.036-7.35z"/></g></g></svg>