<svg xmlns="http://www.w3.org/2000/svg" xmlns:xlink="http://www.w3.org/1999/xlink" height="512" width="512" viewBox="0 0 512 512"><defs><g id="b"><g id="a"><path d="M0-.325v.5l1-.5zM0 0l-.294-.405L.81-.588z"/></g><use xlink:href="#a" transform="scale(-1 1)"/><use xlink:href="#a" transform="rotate(72 0 0)"/><use xlink:href="#a" transform="rotate(-72 0 0)"/><use xlink:href="#a" transform="scale(-1 1) rotate(72)"/></g><clipPath id="c"><path d="M0 0h600v300H0z"/></clipPath><clipPath id="d"><path d="M0 0l300 150H0zm300 0h300L300 150zm0 150h300v150zm0 0v150H0z"/></clipPath></defs><path fill-rule="evenodd" fill="#00247d" d="M.004 0h512v512h-512z"/><g transform="translate(-148.654 134.473) scale(.606)"><use fill="#fff" height="100%" width="100%" xlink:href="#b" transform="matrix(45.4 0 0 45.4 900 120)"/><use fill="#cc142b" height="100%" width="100%" xlink:href="#b" transform="matrix(30 0 0 30 900 120)"/></g><g transform="rotate(82 393.421 127.092) scale(.606)"><use fill="#fff" height="100%" width="100%" xlink:href="#b" transform="rotate(-82 519.022 -457.666) scale(40.4)"/><use fill="#cc142b" height="100%" width="100%" xlink:href="#b" transform="rotate(-82 519.022 -457.666) scale(25)"/></g><g transform="rotate(82 393.421 127.092) scale(.606)"><use fill="#fff" height="100%" width="100%" xlink:href="#b" transform="rotate(-82 668.57 -327.666) scale(45.4)"/><use fill="#cc142b" height="100%" width="100%" xlink:href="#b" transform="rotate(-82 668.57 -327.666) scale(30)"/></g><g transform="translate(-148.654 134.473) scale(.606)"><use fill="#fff" height="100%" width="100%" xlink:href="#b" transform="matrix(50.4 0 0 50.4 900 480)"/><use fill="#cc142b" height="100%" width="100%" xlink:href="#b" transform="matrix(35 0 0 35 900 480)"/></g><path transform="matrix(.52 0 0 .789 .002 0)" d="M0 0l600 300M0 300L600 0" clip-path="url(#c)" stroke="#fff" stroke-width="60"/><path transform="matrix(.52 0 0 .789 .002 0)" d="M0 0l600 300M0 300L600 0" clip-path="url(#d)" stroke="#cc142b" stroke-width="40"/><path style="line-height:normal;text-indent:0;text-align:start;text-decoration-line:none;text-decoration-style:solid;text-decoration-color:#000;text-transform:none;block-progression:tb;isolation:auto;mix-blend-mode:normal" clip-path="url(#c)" d="M125.674-.004v88.05H-.06v60.68h125.733v88.047h60.68v-88.046h125.734V88.045H186.355V-.005h-60.68z" color="#000" font-weight="400" font-family="sans-serif" overflow="visible" fill="#fff"/><path style="line-height:normal;text-indent:0;text-align:start;text-decoration-line:none;text-decoration-style:solid;text-decoration-color:#000;text-transform:none;block-progression:tb;isolation:auto;mix-blend-mode:normal" d="M137.81.002v100.18H-.058v36.408h137.87v100.18h36.408V136.59h137.87v-36.408H174.22V.002H137.81z" color="#000" font-weight="400" font-family="sans-serif" overflow="visible" fill="#cc142b"/></svg>