<svg xmlns="http://www.w3.org/2000/svg" height="512" width="512" viewBox="0 0 512 512"><defs><clipPath id="a"><path fill-opacity=".67" d="M0 0h512v512H0z"/></clipPath></defs><g clip-path="url(#a)"><path fill-rule="evenodd" fill="#ef2d29" d="M-23.298-21.61h554.71v553.02h-554.71z"/><path fill-rule="evenodd" fill="#009025" d="M164.57 341.33h376.55v207.56H164.57z"/><path fill-rule="evenodd" fill="#fff" d="M164.57-19.415h376.55v190.08H164.57z"/><g stroke="#ef2d28"><g fill-rule="evenodd" fill="#fff" transform="matrix(.195 0 0 .174 109.217 -5.34)"><rect rx="11.491" ry="12.053" height="85.039" width="138.19" y="467.72" x="17.717"/><rect rx="10.901" ry="11.049" height="77.953" width="131.1" y="471.26" x="21.26"/><path d="M82.22 492.52l6.62.26.302 3.36 5.418 3.105 4.214-3.88 5.117 3.104-4.814 3.36 1.203 4.657 6.02-.26v6.208l-4.817-.26-2.408 3.88 5.418 4.397-4.214 3.62-4.516-3.878-6.622 1.552.3 5.69-7.223.517-.904-5.43-6.02-2.847-3.31 3.88-5.118-2.845 3.01-4.396-3.613-2.845H61.15l-.302-8.018 5.117.517 3.613-4.656-4.214-3.62 5.418-4.14 3.912 3.363 6.623-1.034.903-3.363z"/><ellipse transform="matrix(.658 0 0 .702 38.845 209.62)" cx="68.944" rx="11.049" cy="426.78" ry="9.944"/><path d="M38.976 474.8l-10.63 10.63m17.717-10.63l-10.63 10.63M53.15 474.8l-10.63 10.63m17.716-10.63l-10.63 10.63m17.716-10.63l-10.63 10.63M74.41 474.8l-10.63 10.63m17.716-10.63l-10.63 10.63m17.716-10.63l-10.63 10.63M95.67 474.8l-10.63 10.63m17.715-10.63l-10.63 10.63m17.717-10.63l-10.63 10.63m17.717-10.63l-10.63 10.63M88.58 474.8l-10.63 10.63m46.063-10.63l-10.63 10.63m17.717-10.63l-10.63 10.63m17.717-10.63l-10.63 10.63m17.716-10.63l-10.63 10.63m-.002-10.63l10.63 10.63m-17.71-10.63l10.63 10.63m-17.72-10.63l10.63 10.63m-17.72-10.63l10.63 10.63m-17.71-10.63l10.63 10.63m-17.72-10.63l10.63 10.63m-17.72-10.63l10.63 10.63m-17.71-10.63l10.63 10.63m-17.72-10.63l10.63 10.63m-17.72-10.63l10.63 10.63m-17.71-10.63l10.63 10.63m-17.72-10.63l10.63 10.63m17.72-10.63l10.63 10.63M49.607 474.8l10.63 10.63M42.52 474.8l10.63 10.63M35.434 474.8l10.63 10.63M28.347 474.8l10.63 10.63M38.976 535.036l-10.63 10.63m17.717-10.63l-10.63 10.63m17.716-10.63l-10.63 10.63m17.716-10.63l-10.63 10.63m17.716-10.63l-10.63 10.63m17.717-10.63l-10.63 10.63m17.716-10.63l-10.63 10.63m17.716-10.63l-10.63 10.63m17.717-10.63l-10.63 10.63m17.715-10.63l-10.63 10.63m17.717-10.63l-10.63 10.63m17.717-10.63l-10.63 10.63m-17.718-10.63l-10.63 10.63m46.063-10.63l-10.63 10.63m17.717-10.63l-10.63 10.63m17.717-10.63l-10.63 10.63m17.716-10.63l-10.63 10.63m-.002-10.63l10.63 10.63m-17.71-10.63l10.63 10.63m-17.72-10.63l10.63 10.63m-17.72-10.63l10.63 10.63m-17.71-10.63l10.63 10.63m-17.72-10.63l10.63 10.63m-17.72-10.63l10.63 10.63m-17.71-10.63l10.63 10.63m-17.72-10.63l10.63 10.63m-17.72-10.63l10.63 10.63m-17.71-10.63l10.63 10.63m-17.72-10.63l10.63 10.63m17.72-10.63l10.63 10.63m-46.067-10.63l10.63 10.63m-17.717-10.63l10.63 10.63m-17.716-10.63l10.63 10.63m-17.717-10.63l10.63 10.63"/></g><g fill-rule="evenodd" fill="#fff" transform="matrix(.195 0 0 .174 18.63 -5.958)"><rect rx="11.491" ry="12.053" height="85.039" width="138.19" y="467.72" x="17.717"/><rect rx="10.901" ry="11.049" height="77.953" width="131.1" y="471.26" x="21.26"/><path d="M82.22 492.52l6.62.26.302 3.36 5.418 3.105 4.214-3.88 5.117 3.104-4.814 3.36 1.203 4.657 6.02-.26v6.208l-4.817-.26-2.408 3.88 5.418 4.397-4.214 3.62-4.516-3.878-6.622 1.552.3 5.69-7.223.517-.904-5.43-6.02-2.847-3.31 3.88-5.118-2.845 3.01-4.396-3.613-2.845H61.15l-.302-8.018 5.117.517 3.613-4.656-4.214-3.62 5.418-4.14 3.912 3.363 6.623-1.034.903-3.363z"/><ellipse transform="matrix(.658 0 0 .702 38.845 209.62)" cx="68.944" rx="11.049" cy="426.78" ry="9.944"/><path d="M38.976 474.8l-10.63 10.63m17.717-10.63l-10.63 10.63M53.15 474.8l-10.63 10.63m17.716-10.63l-10.63 10.63m17.716-10.63l-10.63 10.63M74.41 474.8l-10.63 10.63m17.716-10.63l-10.63 10.63m17.716-10.63l-10.63 10.63M95.67 474.8l-10.63 10.63m17.715-10.63l-10.63 10.63m17.717-10.63l-10.63 10.63m17.717-10.63l-10.63 10.63M88.58 474.8l-10.63 10.63m46.063-10.63l-10.63 10.63m17.717-10.63l-10.63 10.63m17.717-10.63l-10.63 10.63m17.716-10.63l-10.63 10.63m-.002-10.63l10.63 10.63m-17.71-10.63l10.63 10.63m-17.72-10.63l10.63 10.63m-17.72-10.63l10.63 10.63m-17.71-10.63l10.63 10.63m-17.72-10.63l10.63 10.63m-17.72-10.63l10.63 10.63m-17.71-10.63l10.63 10.63m-17.72-10.63l10.63 10.63m-17.72-10.63l10.63 10.63m-17.71-10.63l10.63 10.63m-17.72-10.63l10.63 10.63m17.72-10.63l10.63 10.63M49.607 474.8l10.63 10.63M42.52 474.8l10.63 10.63M35.434 474.8l10.63 10.63M28.347 474.8l10.63 10.63M38.976 535.036l-10.63 10.63m17.717-10.63l-10.63 10.63m17.716-10.63l-10.63 10.63m17.716-10.63l-10.63 10.63m17.716-10.63l-10.63 10.63m17.717-10.63l-10.63 10.63m17.716-10.63l-10.63 10.63m17.716-10.63l-10.63 10.63m17.717-10.63l-10.63 10.63m17.715-10.63l-10.63 10.63m17.717-10.63l-10.63 10.63m17.717-10.63l-10.63 10.63m-17.718-10.63l-10.63 10.63m46.063-10.63l-10.63 10.63m17.717-10.63l-10.63 10.63m17.717-10.63l-10.63 10.63m17.716-10.63l-10.63 10.63m-.002-10.63l10.63 10.63m-17.71-10.63l10.63 10.63m-17.72-10.63l10.63 10.63m-17.72-10.63l10.63 10.63m-17.71-10.63l10.63 10.63m-17.72-10.63l10.63 10.63m-17.72-10.63l10.63 10.63m-17.71-10.63l10.63 10.63m-17.72-10.63l10.63 10.63m-17.72-10.63l10.63 10.63m-17.71-10.63l10.63 10.63m-17.72-10.63l10.63 10.63m17.72-10.63l10.63 10.63m-46.067-10.63l10.63 10.63m-17.717-10.63l10.63 10.63m-17.716-10.63l10.63 10.63m-17.717-10.63l10.63 10.63"/></g><path d="M64.4 106.75c-33.555 32.903-47.868 37.065-41.15 39.716s28.325-14.33 50.81-36.884 36.253-42.63 29.535-45.28-3.508 7.455-39.197 42.45zM36.144 130.665l11.756 3.09c-11.065 10.51-23.51 14.837-26.97 12.983-3.457-1.855 6.224-6.182 15.214-16.073zM36.144 131.9l9.68 2.473C35.05 144.478 24.388 147.355 21.63 146.12c-2.775-1.238 5.757-4.71 14.513-14.22z" fill-rule="evenodd" fill="#fff"/><path d="M72.254 105.315c-.026.155-.103.863-.172 1.144 0 .388-.04.687-.086.99-.11.267-.09.514-.43.612-.232.32-.38.404-.687.534-.21.16-.528.322-.86.457-.343.13-.655.15-1.03.077-.3-.187-.523-.38-.773-.534-.06-.24-.113-.6-.172-.84.092.247.157.643.172.992-.033.38-.174.547-.344.84M69.078 110.426l-.086-.076c.204.18.12.094-.344-.153-.333-.152-.69-.233-1.117-.305h-1.2c-.47 0-.784.062-1.118.153-.242.215-.604.337-.86.534-.26.157-.373.344-.514.61-.234.206-.386.527-.602.685-.096.35-.294.34-.43.61.406.028.73.078.946.306.357.165-.3-.16-.43-.304-.28-.076-.354-.153-.773-.153-.392-.11-.63.09-1.032.153-.234.12-.3.152-.6.152M64.438 114.242c-.175.01-.973.14-1.288 0-.35-.085-.56-.25-.773-.534-.106-.206 0 .366 0 .61-.04.45-.188.454-.43.764-.25.142-.512.34-.773.457-.217.166-.483.278-.773.38-.26.11-.564.222-.772.382-.287.182-.26.4-.43.687.033.372.1.583.344.762.1.258.33.513.515.686.213.35.448.516-.086.61-.292.112-.456.025-.772 0M59.026 119.58c-.21-.047-.96-.27-1.288-.38h-1.203c-.466.03-.555.152-.945.304-.252.228-.424.386-.773.534-.184.212-.543.57-.687.84-.103.26-.172.612-.172.99.006.446.138.522.172.917.096.327.253.627.515.915.037.097.063.12.172.153" fill="none"/><path d="M538.13 817.98c.374 0 1.2 2.018 2.5 3.75 2.828 2.906 3.192 3.125 7.5 3.125 3.884-.143 3.522-1.532 6.25-2.5 1.29-2.008 2.896-3.6 4.375-6.25 1.006-1.634 1.89-4.13 3.125-5.625 1.14-1.854 2.563-3.254 3.75-5 1.172-.502 1.618-.984 3.126-1.25-3.6.578-3.915 1.867-6.25 3.75-1.095 1.78-2.182 3.633-3.126 5.625-.36 2.673-1.21 4.78-1.25 8.125 0 3.457.017 5.872 1.25 8.75 1.473 1.545 2.563 3.143 4.375 4.376 1.44 1.405 3.244 3.336 4.376 5 1.96 1.206 3.386 2.19 5.626 3.75 1.884 1.102 3.915 2.234 6.875 2.5 3.67-.262 4.756-1.297 7.5-2.5 2.33-1.713 4.164-2.838 6.25-4.375 1.63-1.14 3.29-3.402 4.376-5 3.382-.845 5.53-.507 7.5 1.25a16.536 16.536 0 0 1 4.375 4.376c1.02.51 2.73 1.99 3.75 2.5" transform="matrix(-.098 0 0 .096 107.445 46.037)" fill="none"/><path d="M48.214 127.34c.097.04.45.283.606.375.097.316.252.49.304.826.082.327.076.686.076 1.053-.084.384-.245.67-.38.977-.24.162-.36.28-.682.45-.303.042-.6.076-.986.076-.23.077-.68.114-.91 0-.337-.045-.59-.18-.834-.3-.28-.157-.452-.306-.758-.45-.15-.218-.38-.417-.607-.677-.188-.255-.327-.397-.455-.678.112.32.283.6.38.902.172.32.272.433.303.827.106.315.077.693.077 1.053-.034.244-.05.702-.152.902v.225" fill="none"/><path d="M541.26 799.23v.625c0-1.687.04-.83-.625 2.5-1.18 1.462-3.944 1.868-6.25 1.25-2.022-1.67-1.96-2.935-5.625-3.75-3.542.253-4.892 1.28-6.875 2.5-2.354 1.177-3.438 1.77-5 4.375-.776 2.12-1.21 3.555 1.25 4.375 1.954 1.386 4.277 2.15 6.875 2.5 2.887 0 4.968-.34 6.25 1.25 1.983 2.055 1.875 3.277 1.875 6.875.667 1.112.8 4.394 1.25 5.625 1.736.823 2.755 1.25 5.625 1.25.674-1.93 1.423-5.42 1.875-7.5.49-2.248.64-5.38 1.875-6.875a16.58 16.58 0 0 1 4.375-4.375c.766-1.073 2.223-1.965 3.75-2.5-2.452 1.25-2.8 2.603-3.125 5.625 2.155 1.078 2.73 1.833 6.25 1.875 3.46-.29 4.295-1.17 5.625-3.125.242 3.136 1.243 4.186 1.875 6.875 1.286 1.89 1.832 3.828 3.125 6.25-.55 3.012-1.737 3.163-1.875 6.875-.81 2.435-.723 4.783-2.5 6.25-.792.97-1.384 1.16-3.125 1.25 3.618 0 5.727-.39 8.125-1.874 1.854-1.14 3.255-2.563 5-3.75 2.213-1.603 4.948-3.085 7.5-3.75 2.888 0 4.97-.34 6.25 1.25 1.77 1.264 2.96 3.446 3.75 6.25.58 3.244.8 5.404-.624 7.5-1.057 2.408-1.297 3.346 0 6.25 1.452 2.033 3.617 2.272 6.875 3.125 2.38-.127 4.67-.67 6.25-1.25" transform="matrix(-.195 0 0 .174 142.637 -5.34)" fill="none"/><g fill-rule="evenodd" transform="matrix(-.195 0 0 .174 142.637 -5.34)"><path d="M204.754 472.255C128.464 324.545 77.826 198.83 91.73 191.65c13.9-7.18 87.1 106.87 163.395 254.59l-50.37 26.015zM209.8 469.657C136.202 327.16 85.493 206.84 96.616 201.097c11.122-5.745 79.88 105.24 153.482 247.747" fill="#fff"/><path d="M222.454 395.328c8.945 16.66 18.442 35.706 27.64 53.52l-40.297 20.812c-9.2-17.813-19.233-36.58-27.64-53.52l40.297-20.812zM219.032 401.08c8.945 16.66 15.19 29.41 24.39 47.223l-30.224 15.61c-9.2-17.813-15.982-30.286-24.39-47.224l30.224-15.61zM197.108 420.382l20.15-10.406 17.885 34.63-20.15 10.406zm345.022-108.572l38.034 24.224m-20.146 10.41l2.262-45.037m-111.203-165.89l20.148-10.407" fill="#fff"/><ellipse fill="#ef0000" transform="matrix(1.605 .454 -.362 1.579 -734.9 -170.85)" cx="545.67" rx="3.543" cy="92.126" ry="3.543"/></g><path d="M96.867 106.133c33.555 32.903 47.868 37.065 41.15 39.716s-28.325-14.33-50.81-36.885-36.253-42.63-29.535-45.28 3.508 7.455 39.197 42.45zM125.123 130.047l-11.756 3.09c11.065 10.51 23.51 14.837 26.97 12.983 3.457-1.855-6.224-6.182-15.214-16.073zM125.122 131.283l-9.68 2.473c10.776 10.105 21.437 12.982 24.195 11.746 2.774-1.237-5.758-4.708-14.514-14.22z" fill-rule="evenodd" fill="#fff"/><path d="M89.012 104.698c.026.155.103.863.172 1.144 0 .39.04.688.086.992.11.266.09.513.43.61.232.322.38.405.687.535.21.16.527.32.86.456.342.13.654.15 1.03.077.3-.187.522-.38.772-.534.058-.242.112-.6.17-.84-.09.246-.156.642-.17.99.032.382.173.548.343.84M92.19 109.81l.085-.077c-.204.18-.12.094.344-.153.332-.152.688-.233 1.116-.305h1.202c.468 0 .783.062 1.117.153.242.215.604.337.86.534.26.158.373.345.514.61.233.207.385.528.6.686.097.35.295.34.43.61-.405.028-.73.078-.945.306-.357.164.3-.16.43-.305.28-.077.354-.154.773-.154.39-.11.63.09 1.03.153.235.12.3.15.602.15M96.83 113.625c.174.01.972.14 1.287 0 .35-.085.56-.25.773-.534.106-.205 0 .367 0 .612.04.45.188.453.43.763.25.142.512.34.773.457.217.167.483.28.773.382.26.11.565.22.773.38.286.183.26.4.43.688-.034.373-.102.584-.345.763-.1.258-.33.513-.515.686-.213.352-.448.517.086.612.293.11.457.024.773 0M102.24 118.964c.212-.047.96-.27 1.29-.38h1.202c.466.03.555.152.945.304.252.228.424.386.773.534.184.212.543.57.687.84.103.26.172.612.172.99-.007.446-.14.522-.173.917-.096.326-.253.626-.515.914-.037.097-.063.12-.172.153" fill="none"/><path d="M538.13 817.98c.374 0 1.2 2.018 2.5 3.75 2.828 2.906 3.192 3.125 7.5 3.125 3.884-.143 3.522-1.532 6.25-2.5 1.29-2.008 2.896-3.6 4.375-6.25 1.006-1.634 1.89-4.13 3.125-5.625 1.14-1.854 2.563-3.254 3.75-5 1.172-.502 1.618-.984 3.126-1.25-3.6.578-3.915 1.867-6.25 3.75-1.095 1.78-2.182 3.633-3.126 5.625-.36 2.673-1.21 4.78-1.25 8.125 0 3.457.017 5.872 1.25 8.75 1.473 1.545 2.563 3.143 4.375 4.376 1.44 1.405 3.244 3.336 4.376 5 1.96 1.206 3.386 2.19 5.626 3.75 1.884 1.102 3.915 2.234 6.875 2.5 3.67-.262 4.756-1.297 7.5-2.5 2.33-1.713 4.164-2.838 6.25-4.375 1.63-1.14 3.29-3.402 4.376-5 3.382-.845 5.53-.507 7.5 1.25a16.536 16.536 0 0 1 4.375 4.376c1.02.51 2.73 1.99 3.75 2.5" transform="matrix(.098 0 0 .096 53.821 45.42)" fill="none"/><path d="M113.052 126.722c-.097.04-.45.284-.606.376-.097.316-.252.49-.304.826-.082.326-.076.685-.076 1.052.084.384.245.67.38.977.24.162.36.28.682.45.303.042.6.076.986.076.23.076.68.113.91 0 .337-.046.59-.182.834-.3.28-.158.452-.307.758-.452.15-.217.38-.416.607-.676.188-.254.327-.396.455-.677-.112.32-.283.6-.38.902-.172.32-.272.433-.303.827-.105.314-.076.692-.076 1.052.033.244.05.702.15.902v.225" fill="none"/><path d="M541.26 799.23v.625c0-1.687.04-.83-.625 2.5-1.18 1.462-3.944 1.868-6.25 1.25-2.022-1.67-1.96-2.935-5.625-3.75-3.542.253-4.892 1.28-6.875 2.5-2.354 1.177-3.438 1.77-5 4.375-.776 2.12-1.21 3.555 1.25 4.375 1.954 1.386 4.277 2.15 6.875 2.5 2.887 0 4.968-.34 6.25 1.25 1.983 2.055 1.875 3.277 1.875 6.875.667 1.112.8 4.394 1.25 5.625 1.736.823 2.755 1.25 5.625 1.25.674-1.93 1.423-5.42 1.875-7.5.49-2.248.64-5.38 1.875-6.875a16.58 16.58 0 0 1 4.375-4.375c.766-1.073 2.223-1.965 3.75-2.5-2.452 1.25-2.8 2.603-3.125 5.625 2.155 1.078 2.73 1.833 6.25 1.875 3.46-.29 4.295-1.17 5.625-3.125.242 3.136 1.243 4.186 1.875 6.875 1.286 1.89 1.832 3.828 3.125 6.25-.55 3.012-1.737 3.163-1.875 6.875-.81 2.435-.723 4.783-2.5 6.25-.792.97-1.384 1.16-3.125 1.25 3.618 0 5.727-.39 8.125-1.874 1.854-1.14 3.255-2.563 5-3.75 2.213-1.603 4.948-3.085 7.5-3.75 2.888 0 4.97-.34 6.25 1.25 1.77 1.264 2.96 3.446 3.75 6.25.58 3.244.8 5.404-.624 7.5-1.057 2.408-1.297 3.346 0 6.25 1.452 2.033 3.617 2.272 6.875 3.125 2.38-.127 4.67-.67 6.25-1.25" transform="matrix(.195 0 0 .174 18.63 -5.958)" fill="none"/><g fill-rule="evenodd" transform="matrix(.195 0 0 .174 18.63 -5.958)"><path d="M204.754 472.255C128.464 324.545 77.826 198.83 91.73 191.65c13.9-7.18 87.1 106.87 163.395 254.59l-50.37 26.015zM209.8 469.657C136.202 327.16 85.493 206.84 96.616 201.097c11.122-5.745 79.88 105.24 153.482 247.747" fill="#fff"/><path d="M222.454 395.328c8.945 16.66 18.442 35.706 27.64 53.52l-40.297 20.812c-9.2-17.813-19.233-36.58-27.64-53.52l40.297-20.812zM219.032 401.08c8.945 16.66 15.19 29.41 24.39 47.223l-30.224 15.61c-9.2-17.813-15.982-30.286-24.39-47.224l30.224-15.61zM197.108 420.382l20.15-10.406 17.885 34.63-20.15 10.406zm345.022-108.572l38.034 24.224m-20.146 10.41l2.262-45.037m-111.203-165.89l20.148-10.407" fill="#fff"/><ellipse fill="#ef0000" transform="matrix(1.605 .454 -.362 1.579 -734.9 -170.85)" cx="545.67" rx="3.543" cy="92.126" ry="3.543"/></g><g fill-rule="evenodd" fill="#fff" transform="matrix(.195 0 0 .174 18.63 -5.958)"><path d="M265.73 396.85c0 124.02.654 170.76-7.493 177.17-7.72 6.857-222.82 0-222.82 35.433S212.57 680.32 265.73 680.32c70.863 0 106.294-35.434 106.294-106.3V396.85H265.73zM265.75 432.283V450c35.433 5.906 70.866 5.906 106.3 0v-17.717c-35.433 5.906-70.866 5.906-106.3 0zM265.75 396.85v17.717c35.433 5.906 70.866 5.906 106.3 0V396.85c-35.433 5.906-70.866 5.906-106.3 0zM265.75 414.567v17.717c35.433 5.906 70.866 5.906 106.3 0v-17.717c-35.433 5.906-70.866 5.906-106.3 0zM265.75 450v17.717c35.433 5.906 70.866 5.906 106.3 0V450c-35.433 5.906-70.866 5.906-106.3 0z"/><ellipse transform="matrix(.545 0 0 .144 130.46 394.32)" cx="256.89" rx="8.858" cy="210.83" ry="26.575"/><ellipse transform="matrix(.545 0 0 .144 130.46 391.13)" cx="292.32" rx="8.858" cy="246.26" ry="26.575"/><ellipse transform="matrix(.545 0 0 .144 130.46 390.49)" cx="327.76" rx="8.858" cy="263.98" ry="26.575"/><ellipse transform="matrix(.545 0 0 .144 130.46 390.49)" cx="363.19" rx="8.858" cy="263.98" ry="26.575"/><ellipse transform="matrix(.545 0 0 .144 130.46 391.13)" cx="398.62" rx="8.858" cy="246.26" ry="26.575"/><ellipse transform="matrix(.545 0 0 .144 130.46 394.32)" cx="434.06" rx="8.858" cy="210.83" ry="26.575"/><path d="M265.75 485.43l106.3 95.67m-95.67-95.67l95.67 85.04m-81.5-81.49l81.496 70.866M301.18 488.98l70.866 60.237M311.81 488.98l60.236 49.607M322.44 488.98l49.606 38.977M333.07 488.98l38.976 28.347M343.7 488.98l28.346 21.26m-17.716-21.26l17.716 14.174m-7.086-14.174l7.086 7.087m-106.296-.007l106.3 95.67m0-106.3l-116.93 106.3m106.3-106.3l-102.76 92.126m88.59-88.576l-81.496 70.866m70.866-70.866l-70.866 60.237m60.236-60.237l-60.236 49.607m49.606-49.607l-49.606 38.977m38.976-38.977l-38.976 28.347M294.1 488.98l-28.346 21.26m17.716-21.26l-17.716 14.174m7.086-14.174l-7.086 7.087m106.296-.007l-116.93 106.3m116.93-95.67l-116.93 106.3m116.93-95.67l-116.93 106.3m116.93-95.67l-116.93 106.3m116.93-95.67l-116.93 106.3m116.93-95.67l-116.93 106.3m116.93-95.67l-116.93 106.3m116.93-95.67l-116.93 106.3m116.93-95.67l-109.84 99.21m109.84-88.58l-99.212 88.583M368.5 605.9l-77.953 70.866m74.413-56.686l-63.78 56.693m56.69-38.983l-31.89 28.346M265.75 506.69l102.76 92.126m-102.763-81.49l102.76 92.127m-102.76-81.496l99.213 88.583m-99.213-77.953l99.213 88.583m-99.207-77.957l95.67 85.04m-99.22-77.95l95.67 85.04m-95.67-74.41l88.584 77.953m-92.124-70.873l88.583 77.953m-92.132-70.863l85.04 74.41m-85.04-63.783l81.495 70.865m-81.497-60.235l70.866 63.78"/><path d="M265.75 467.716v17.717c35.433 5.906 70.866 5.906 106.3 0v-17.717c-35.433 5.906-70.866 5.906-106.3 0zM255.114 612.99l63.78 56.692m-63.78-46.062l56.693 49.606m-56.694-38.976l49.606 42.52m-49.606-31.89l35.434 31.89m-35.434-21.26l28.347 24.804m-28.347-14.174l17.716 14.173"/><ellipse transform="matrix(.545 0 0 .144 130.46 447.47)" cx="256.89" rx="8.858" cy="210.83" ry="26.575"/><ellipse transform="matrix(.545 0 0 .144 130.46 444.28)" cx="292.32" rx="8.858" cy="246.26" ry="26.575"/><ellipse transform="matrix(.545 0 0 .144 130.46 443.64)" cx="327.76" rx="8.858" cy="263.98" ry="26.575"/><ellipse transform="matrix(.545 0 0 .144 130.46 443.64)" cx="363.19" rx="8.858" cy="263.98" ry="26.575"/><ellipse transform="matrix(.545 0 0 .144 130.46 444.28)" cx="398.62" rx="8.858" cy="246.26" ry="26.575"/><ellipse transform="matrix(.545 0 0 .144 130.46 447.47)" cx="434.06" rx="8.858" cy="210.83" ry="26.575"/><path d="M113.39 651.97l127.55-74.41m-134.637 70.867l120.47-70.87M102.76 641.34l109.84-63.78M99.217 634.255l95.67-56.693m-102.76 49.6l88.583-49.606m-85.043 38.983l60.236-35.433m-63.776 28.35l46.063-28.346m-46.066 17.71l31.89-17.718m0 74.407l120.47-70.86m-109.837 74.407l113.38-67.32M145.28 662.6l106.3-63.78m-95.67 67.324l88.583-53.15m-74.41 53.142l77.952-46.063m-67.322 49.607l67.323-38.976m-56.7 42.523l53.15-31.89m-38.976 31.896l42.52-24.803m-28.35 28.347l28.347-17.717m-14.164 17.713l17.717-10.63"/><path d="M258.664 574.02h-17.717c-5.906 35.433-5.906 70.866 0 106.3h17.717c-5.906-35.433-5.906-70.866 0-106.3zM49.61 623.624l42.52-35.433M49.61 598.8l42.52 42.52"/><path d="M113.388 581.1l-21.26 3.544c-4.725 22.44-4.725 41.338 0 63.777l21.26 7.088c-4.725-22.44-4.725-51.97 0-74.41zM371.917 403.94v-17.866c-15.927.15-26.544-10.48-26.545-21.26l-53.088.15c0 10.63-10.618 21.26-26.545 21.26v17.715h106.177zM296.09 343.7h45.506v21.26H296.09zm3.79-21.26h37.922v21.26H299.88zm0-21.26h37.922v21.26H299.88zm3.79-28.35h30.337v28.346H303.67zM302.36 248.03h32.953v24.803H302.36z"/><ellipse transform="matrix(1.033 0 0 1 75.354 63.779)" cx="237.4" rx="42.52" cy="161.22" ry="33.661"/><path d="M342.627 223.23c0 9.29 10.984 24.802 10.984 24.802-7.95 6.093-20.824 10.63-32.95 10.63s-27.226-2.528-32.95-10.63c0 0 10.982-15.512 10.982-24.803s-10.983-21.26-10.983-21.26c7.95-6.094 20.824-10.63 32.95-10.63 12.126 0 25 4.536 32.95 10.63 0 0-10.983 11.968-10.983 21.26zM335.312 223.23c0 9.29 10.984 28.345 10.984 28.345-7.953 6.093-13.504 7.087-25.63 7.087s-19.903 1.015-25.628-7.087c0 0 10.984-19.055 10.984-28.346s-10.984-24.804-10.984-24.804c7.952-6.093 13.502-7.087 25.63-7.087 12.124 0 17.675.993 25.628 7.086 0 0-10.984 15.512-10.984 24.803z"/><ellipse transform="matrix(1.033 0 0 1 75.354 60.236)" cx="194.88" rx="10.63" cy="166.54" ry="10.63"/><ellipse transform="matrix(1.033 0 0 1 163.23 60.236)" cx="194.88" rx="10.63" cy="166.54" ry="10.63"/><ellipse transform="matrix(1.033 0 0 1 119.29 60.236)" cx="194.88" rx="10.63" cy="166.54" ry="10.63"/><ellipse transform="matrix(1.033 0 0 1 119.29 24.803)" cx="194.88" rx="10.63" cy="166.54" ry="10.63"/><ellipse transform="matrix(1.07 0 0 1 79.931 226.77)" cx="194.88" rx="10.63" cy="166.54" ry="10.63"/><ellipse transform="matrix(1.07 0 0 1 140.61 226.77)" cx="194.88" rx="10.63" cy="166.54" ry="10.63"/><path d="M292.287 364.96h53.09l-26.545 31.89-26.545-31.89z"/><ellipse transform="matrix(1.427 0 0 1.333 40.745 167.72)" cx="194.88" rx="10.63" cy="166.54" ry="10.63"/></g><g fill-rule="evenodd" fill="#fff" transform="matrix(.195 0 0 .174 18.285 -10.895)"><rect rx="4.423" ry="3.75" height="21.26" width="81.496" y="524.41" x="262.2"/><path d="M368.51 506.69c-9.814 0-17.716 8.26-17.716 18.52v16.11c0 10.26 7.902 18.52 17.716 18.52 9.815 0 17.717-8.26 17.717-18.52v-16.11c0-10.26-7.902-18.52-17.717-18.52zm0 7.087c-5.888 0-10.63 6.608-10.63 14.816v9.345c0 8.208 4.742 14.816 10.63 14.816 5.89 0 10.63-6.608 10.63-14.816v-9.345c0-8.208-4.74-14.816-10.63-14.816zm-92.13-3.537c-5.888 0-10.63 6.608-10.63 14.816v16.432c0 8.208 4.742 14.816 10.63 14.816 5.89 0 10.63-6.608 10.63-14.816v-16.432c0-8.208-4.74-14.816-10.63-14.816zm0-7.087c-9.814 0-17.716 8.26-17.716 18.52v23.197c0 10.26 7.902 18.52 17.716 18.52 9.815 0 17.717-8.26 17.717-18.52v-23.198c0-10.26-7.902-18.52-17.717-18.52zM248.03 517.32c-5.888 0-10.63 6.608-10.63 14.816V536c0 8.208 4.74 14.816 10.63 14.816 5.888 0 10.63-6.608 10.63-14.816v-3.864c0-8.208-4.74-14.816-10.63-14.816zm0-7.087c-9.814 0-17.716 8.26-17.716 18.52v10.63c0 10.26 7.9 18.52 17.715 18.52 9.814 0 17.716-8.26 17.716-18.52v-10.63c0-10.26-7.9-18.52-17.716-18.52zM205.52 507.518c-10.598 0-19.134 7.385-19.134 16.56v18.363c0 9.174 8.536 16.56 19.134 16.56 10.6 0 19.134-7.386 19.134-16.56v-18.363c0-9.174-8.534-16.56-19.134-16.56zM751.18-40.638c-17.665 0-31.89 9.23-31.89 20.696v25.926c0 11.467 14.225 20.698 31.89 20.698 17.667 0 31.89-9.23 31.89-20.698v-25.926c0-11.466-14.223-20.696-31.89-20.696zM435.83 511.058c-10.598 0-19.134 7.385-19.134 16.56v18.363c0 9.174 8.536 16.56 19.134 16.56 10.6 0 19.134-7.386 19.134-16.56v-18.363c0-9.174-8.534-16.56-19.134-16.56zm42.52-281.578c-17.665 0-31.89 9.23-31.89 20.696v25.926c0 11.467 14.225 20.698 31.89 20.698 17.667 0 31.89-9.23 31.89-20.698v-25.926c0-11.466-14.223-20.696-31.89-20.696z"/><rect rx="2.308" ry="3.75" height="21.26" width="42.52" y="524.41" x="375.59"/><rect rx="1.346" ry="5" height="28.346" width="24.803" y="520.87" x="336.61"/><rect rx="1.346" ry="5" height="28.346" width="24.803" y="520.87" x="219.69"/><rect rx="2.692" ry="6.25" height="35.433" width="49.606" y="517.32" x="141.73"/><rect rx="2.5" ry="6.25" height="35.433" width="46.063" y="520.87" x="450"/></g></g></g></svg>