<svg xmlns="http://www.w3.org/2000/svg" height="512" width="512" viewBox="0 0 512 512"><defs><clipPath id="a"><path fill-opacity=".67" d="M0 0h512v512H0z"/></clipPath></defs><g clip-path="url(#a)"><path style="width:0" fill="#fff" d="M0 0h512v512H0z"/><path d="M210.43 363.47s11.562-9.374 22.812-9.374 14.375 7.81 22.188 8.436c7.812.625 14.373-7.812 24.062-8.124 9.688-.312 21.875 6.874 21.875 6.874l-42.5 12.814-48.437-10.626zm-24.37-13.75l144.37.625s-12.5-13.437-27.187-13.75c-14.687-.313-10.624 6.25-21.874 7.187-11.25.938-14.065-6.874-24.377-6.562-10.31.312-16.25 6.562-24.06 6.876-7.813.312-17.813-7.814-23.75-7.5-5.94.312-27.188 9.374-27.188 9.374l4.062 3.75zm-18.44-17.19l178.12.627c2.812-4.063-8.75-13.75-19.374-14.688-8.752.31-15 9.06-22.188 9.374-7.188.312-15.312-9.064-23.438-8.75-8.124.313-16.562 8.75-24.687 8.75-8.124 0-14.062-9.064-24.374-9.064s-15 10-22.813 9.376c-7.814-.625-14.688-10-22.188-10-7.5 0-20 11.25-22.5 10.625-2.5-.624 3.123 4.69 3.438 3.75z" fill-rule="evenodd" stroke="#083d9c" stroke-width="2pt" fill="#083d9c"/><path stroke-linejoin="round" d="M236.06 233.47l40.938 10.938V185.97c-18.75.938-34.374-35.624-1.25-38.124-32.5-4.688-36.25 3.75-40 12.812l.312 72.81z" fill-rule="evenodd" stroke="#000" stroke-width="2.5" fill="#f00"/><path d="M210.12 275.97l92.5.312" fill-rule="evenodd" stroke="#083d9c" stroke-linecap="round" stroke-width="5" fill="#083d9c"/><path d="M214.5 253.78l10.938 14.688m-10.938.012l11.876-14.374m-5.616-1.266l-.312 9.062M232 253.78l10.938 14.688M232 268.48l11.876-14.374m-5.616-1.266l-.312 9.062M249.812 253.78l10.938 14.688m-10.938.012l11.876-14.374m-5.616-1.266l-.312 9.062M268.25 253.78l10.937 14.688m-10.938.012l11.875-14.374m-5.616-1.266l-.313 9.062M286.06 253.78L297 268.468m-10.94.012l11.877-14.374m-5.616-1.266l-.31 9.062" stroke="#000" stroke-linecap="round" stroke-width="2" fill="none"/><path d="M147.93 276.91l39.374.313v-24.687l-45-2.186 5.626 26.56zm-1.87-34.06l41.875 4.063-.312-17.5-40.937-16.25-.626 29.686zm8.44-35l32.188 15.624 4.596-4.798s-2.96-2.04-2.813-3.916c.056-1.898 2.978-2.186 3.034-4.246.054-1.9-3.31-2.127-3.346-4.026-.22-2.058 2.592-4.265 2.592-4.265l-29.062-25.312-7.188 30.94zm211.24 69.37h-41.562l-.312-24.062 45.623-3.438-3.75 27.5zm-41.25-29.69l49.376-5.936-10.626-28.437-39.062 16.562.312 17.81zm35.94-42.18l-35.625 18.75c-.52-2.032-.962-3.986-3.436-5.626 0 0 2.185-1.25 2.185-3.438 0-2.186-2.813-2.5-2.813-3.75s2.58-2.342 2.735-5.155c-.312-1.952-2.735-4.685-2.266-5.233l27.658-21.172 11.562 25.626zm-77.18 41.71l17.81-.78.313-7.19-18.123 7.97zm-54.38-.54l-18.75-.546v-7.5l18.75 8.046zm-.08-2.19l-18.672-9.61v-12.5s-2.188.313-1.875-2.187c.103-5.208 13.723 9.506 20.703 14.297l-.156 10zm54.45-1.17l-.076-8.124s16.872-15.233 20.466-18.047c0 3.124-1.952 5.545-1.952 5.545v11.876l-18.438 8.75zm-109.37-68.44c.312.313 18.933 21.01 18.933 21.01.522-1.962 4.816-2.26 9.19-1.948 4.376.312 7.864-.293 7.864 2.833 0 3.124-2.22 2.68-2.22 4.868s3.326 2.005 3.326 4.814c0 2.813-2.412 2.24-2.424 4.416-.008 1.8 2.515 1.896 2.515 1.896l17.734 17.187.077-18.36-36.56-57.343-18.437 20.625zm29.26-21.71c.278.834 24.764 50.642 24.764 50.642s.278-46.747 4.452-49.25l-6.956-12.8-22.26 11.408zm107.68 1.95l-27.65 49.328.035-20.79s2.293-3.496-1.324-3.217c-3.616.28-8.067-.278-8.067-.278l11.13-38.956 25.877 13.913zm28.38 21.14c-.28.556-18.654 19.243-18.654 19.243-.834-2.225-6.39-1.157-11.676-1.157-5.288 0-6.024 1.695-5.744 3.086.557 3.618 2.342.952 2.342 4.292 0 3.338-2.572 2.12-2.802 4.564.256 2.807 4.04 2.114 1.823 4.24l-21.28 20.428.06-19.356 39.51-61.495 16.42 26.155z" fill-rule="evenodd" fill="#ef7d08"/><path stroke-linejoin="round" d="M245.14 286.29c-8.904 14.748-32.708 10.374-38.274.078-1.668-.472-.68-63.52-.68-63.52s-2.66-1.212-2.784-3.15c-.122-1.96 3.617-2.136 3.617-4.642 0-2.504-3.82-1.523-3.895-4.043.016-2.41 4.075-2.078 3.894-4.305-.216-2.51-4.548-2.14-4.73-4.453-.14-1.838 3.097-3.44 3.997-4.267-.582.03-3.01-.036-3.024-.045l-6.818.14c-4.844.005.083 1.056.012 3.85-.044 1.826-2.456 3.04-2.672 4.63-.076 1.63 3.45 2.773 3.496 4.73.04 1.744-3.465 1.863-3.34 3.484.22 2.745 3.106 3.35 3.063 5.01-.044 1.66-3.886 2.293-3.896 3.617.134 2.562.556 64.833.556 64.833 6.122 31.72 41.46 39.79 51.477-1.947zm23.3 0c8.904 14.748 32.707 10.374 38.273.078 1.668-.472.682-63.52.682-63.52s2.66-1.212 2.782-3.15c.122-1.96-3.382-2.136-3.382-4.642 0-2.504 3.584-1.523 3.66-4.043-.016-2.41-3.764-2.233-3.582-4.462.214-2.508 3.156-2.215 3.323-4.53.14-1.992-1.847-3.206-2.747-4.032.58.028 2.85-.037 2.867-.045l6.817.14c4.845.005-.083 1.055-.01 3.85.042 1.826 2.454 3.04 2.67 4.63.077 1.63-3.45 2.773-3.496 4.73-.04 1.744 3.467 1.863 3.34 3.484-.217 2.745-3.105 3.348-3.06 5.01.042 1.66 3.885 2.293 3.894 3.617-.133 2.56-.555 64.833-.555 64.833-6.123 31.72-41.46 39.79-51.477-1.947z" fill-rule="evenodd" stroke="#000" stroke-width="2.5" fill="#f00"/><path d="M236.49 315.3l39.762-.024c.31-.312-8.902-13.732-19.875-12.786-12.223.32-20.527 12.81-19.887 12.81zm126.79-.97h-54.41s7.043-4.162 8.963-8.002c3.52 1.92 2.56 3.84 9.602 4.16 7.04.32 13.76-8 20.484-7.68 6.72.32 15.36 11.842 15.36 11.522zm-214.41 0h54.41s-7.043-4.162-8.963-8.002c-3.52 1.92-2.56 3.84-9.602 4.16-7.04.32-13.76-8-20.484-7.68-6.72.32-15.36 11.842-15.36 11.522zm4.06-17.11l38.75.312s-2.5-5.312-2.813-11.874c-10-3.436-18.125 7.5-25.313 7.812-7.186.312-14.685-7.812-14.685-7.812l4.06 11.562zm206.88 0l-38.75.312s2.5-5.312 2.813-11.874c10-3.436 18.125 7.5 25.313 7.812 7.186.312 14.686-7.812 14.686-7.812l-4.062 11.562zm-113.44.31l19.686-.623s.314-5.938-10-5.938c-10.31 0-9.373 6.874-9.686 6.56zm-11.88-8.43c3.438-1.876 6.562-3.75 8.75-8.126l-13.438.312s-6.247 3.752-9.373 7.814h14.06zm43.44 0c-3.438-1.876-6.56-3.75-8.75-8.126l13.438.312s6.248 3.752 9.373 7.814h-14.06z" fill-rule="evenodd" stroke="#083d9c" stroke-width="2pt" fill="#083d9c"/><path fill-rule="evenodd" fill="#de2010" d="M-128 384h768v128h-768zm0-384h768v128h-768z"/></g></svg>