<svg xmlns="http://www.w3.org/2000/svg" height="512" width="512" viewBox="0 0 512 512"><defs><clipPath id="a"><path fill-opacity=".67" d="M0 0h496.06v496.06H0z"/></clipPath></defs><g fill-rule="evenodd" clip-path="url(#a)"><path d="M0 507.164L987.4 0H0v507.164z" fill="#0000d6"/><path d="M1023.977 0L27.175 511.984h996.802V0z" fill="#006000"/><path d="M1024.01 0H969.14L0 485.343v26.644h54.856L1023.994 27.59V-.002z" fill="#fc0"/><path fill="#fff" d="M40.282 99.21l11.92-34.422-31.136-21.262 38.47.035L71.39 9.12 83.25 43.563l38.47-.026L90.574 64.79l11.917 34.424L71.387 77.91zm189.886-3.087l11.92-34.42-31.136-21.263 38.47.035 11.855-34.44 11.857 34.44 38.47-.025-31.144 21.253 11.917 34.425-31.105-21.303zm-5.945 144.48l11.92-34.42-31.136-21.263 38.47.035 11.856-34.44 11.856 34.44 38.47-.025-31.145 21.253 11.917 34.425-31.105-21.304zm-95.01-75.89l11.922-34.42-31.137-21.262 38.47.036 11.856-34.44 11.856 34.44 38.47-.025-31.144 21.254 11.917 34.425-31.105-21.305zm-93.174 73.618l11.92-34.42-31.136-21.263 38.468.035 11.857-34.44 11.856 34.44 38.47-.025L86.33 203.91l11.918 34.425-31.104-21.304z"/></g></svg>