<svg xmlns="http://www.w3.org/2000/svg" height="512" width="512" viewBox="0 0 512 512"><defs><clipPath id="a"><path fill-opacity=".67" d="M27.682 0h708.66v708.66H27.682z"/></clipPath></defs><g fill-rule="evenodd" clip-path="url(#a)"><path fill="#fff" d="M-20 0h767.486v511.653H-20z"/><path fill="#df0000" d="M-20 0h767.486v255.826H-20z"/><path d="M157.01 42.886c-35.437 8.125-61.767 34.363-69.212 70.037-10.114 48.466 21.457 95.92 70.017 106.05-49.06 13.988-99.76-14.214-113.618-62.822C30.34 107.544 58.542 56.847 107.15 42.988c17.064-4.866 32.774-4.897 49.86-.1zM125.884 117.285l-13.68-9.97 16.925-.146 5.256-16.104 5.363 16.063 16.936.026-13.613 10.064 5.217 16.115-13.785-9.84-13.72 9.933zm94.893 100.653l-13.68-9.97 16.925-.147 5.257-16.102 5.362 16.064 16.937.026-13.614 10.064 5.217 16.115-13.785-9.838-13.72 9.93zm69.49 20.955l-13.68-9.97 16.923-.146 5.257-16.103 5.363 16.063 16.937.027-13.613 10.064 5.218 16.115-13.786-9.84-13.718 9.933zm42.55-55.196l-13.68-9.97 16.924-.147 5.257-16.102 5.363 16.063 16.937.027-13.613 10.064 5.218 16.116-13.785-9.838-13.72 9.93zm-42.156-57.71l-13.678-9.972 16.923-.145 5.257-16.103 5.363 16.063 16.937.027-13.613 10.064 5.216 16.116-13.785-9.84-13.717 9.933z" fill="#fff"/></g></svg>