<svg xmlns="http://www.w3.org/2000/svg" height="512" width="512" viewBox="0 0 512 512"><defs><clipPath id="a"><path fill-opacity=".67" d="M0 0h512v512H0z"/></clipPath></defs><g clip-path="url(#a)"><path fill="#006" d="M1023.99 511.95V-.033H-.008V511.95H1023.99z"/><path d="M-.008 85.267h107.986L-.008 31.077V-.03h61.784l151.058 75.303V-.03h85.06v75.303L448.954-.03h62.316v31.11L402.75 85.266h108.52v85.365H402.75l108.52 54.19v31.12H448.95l-151.057-75.314v75.314h-85.06v-75.314L61.774 255.94H-.007v-31.12l107.986-54.188H-.008V85.267z" fill="#fff"/><path fill="#ce1126" d="M471.07-.034L300.415 85.324h40.85L511.26-.034h-40.19zm40.21 255.974l-170.174-85.31h41.03l129.144 64.973v20.34zM170.967 85.303L-.015-.055V20.33l129.772 64.973h41.21zm-.356 85.3L-.02 255.917h40.83l170.655-85.312H170.61zM-.008 102.975h230.96V-.035h49.984v103.01H511.27v49.986H280.935v102.977h-49.984V152.96H-.008v-49.985z"/><path d="M492.91 276.93c-.23 80.748-12.968 167.74-117.48 209.176C270.91 444.67 258.17 357.678 257.943 276.93H492.91z" stroke-width="4.988496" fill="#8fc5ff" stroke="#fff"/><path fill="#366cc9" d="M375.4 486.116c47.38-18.783 75.898-46.935 92.94-79.62-2.552.1-7.896-.054-10.205-.213-2.57-.168-100.21-9.977-111.774-14.22-10.06-3.687-48.442 3.136-66.357 9.538 16.714 34.768 45.664 64.8 95.396 84.516z" stroke="#000" stroke-width="4.944"/><path fill="#5d3100" d="M302.382 436.032c1.597-.52 4.647-.395 5.85-.178 1.412.257 1.67.386 2.184-1.157s1.67-1.157 2.57-.385 3.21.385 4.108-.9c.9-1.28 1.157-1.152 2.057-.257.9.9 1.286.642 2.186.385.9-.252 2.442-1.28 3.213-2.694s1.922-1.928 2.565-1.157 1.285 1.156 2.185 1.027 1.157.77 1.028 1.923c-.128 1.157.386 1.414 2.57-.38 1.93 1.923 2.567 1.152 2.567-.9 0-2.057-.51-9.636-1.28-10.665s-1.543-3.984-1.67-6.298c-.244-4.366-.26-4.623-5.528-7.322 0-1.543-.386-2.186-4.11-1.93.13-.513-.513-2.055-1.284-2.698s-.9-.9-.514-2.695c1.54.13 3.212-.128 4.112-1.414.895-1.285 3.85-1.028 5.65-.257s4.114.9 7.58.387c1.284-1.03 3.47-2.185 5.783-3.47 2.31-1.286 2.95-1.8 3.08-3.6.33-4.613-1.285-9.893-2.57-12.33-1.28-2.443-1.667-5.528-3.466-9.385-1.96-4.197-1.93-5.265-4.114-7.836-.598-.707-1.286-1.286-1.414-2.695-.13-1.413-.643-3.34-2.18-4.755-3.886-3.565-5.4-15.035-6.94-23.514-.886-4.86-.258-16.315-2.31-18.114-3.47-2.828-5.14-2.314-7.455-3.214-1.67-2.314-2.437-6.936-3.98-11.05-2.44.386-4.112 2.957-5.783 3.856s-1.928.9-1.928 3.214c0 2.31-1.286 5.523-3.594 9.122-2.314 3.594-6.17 2.57-9.378 7.965-7.07-8.61-7.198-11.05-7.712-13.494-.514-2.437-1.67-2.95-5.65-6.422 0-1.028-.515-5.137-.13-7.45-2.956-2.443-5.14-2.057-6.55-.258-1.413 1.8-2.442 4.494-4.627 5.523-1.31 1.665-5.26 5.867-8.493 10.87 2.942 44.715 13.03 89.103 43.37 124.602z" stroke-width="0.618" stroke="#000"/><path d="M492.91 276.93c.088-30.415-1.603-59.946-.832-85.824-39.054-17.477-90.443-21.07-116.65-21.07-26.21 0-77.6 3.593-116.653 21.07.77 25.878-.915 55.41-.83 85.825h234.964z" stroke-width="4.84512" stroke="#fff" fill="#ff0"/><path d="M264.267 312.133c1.285 2.057 3.6 5.592 3.856 7.515.9-1.864 1.607-2.695 1.8-3.85s1.542-3.408 1.028-4.63-.9-2.184.515-1.285c1.41.9 1.137 2.458.83 4.757-.83 6.293-3.465 7.58-3.85 11.82 3.79 8.93.963 12.144 5.072 20.88.642.386 2.358-.302 2.872-.173 2.18-1.543 3.81-.984 6.89-.34 3.085.64 4.756 2.822 4.756 4.75s0 2.442.643 3.6 1.927 2.956 1.67 4.24c-.258 1.28.257 2.053.642 2.696s-.128 2.057-.514 2.956-.257 2.056 1.285 3.984c1.543 1.924 5.137 10.022 5.137 14.773 0 4.757.257 6.942 2.185 7.837 1.928.9 2.57 1.67 2.313 3.728s.9 12.72 1.157 14.392.9 1.285 1.67 2.185c.767.894 1.28 1.922 3.852 1.922s5.053-.34 6.724-.084c2.314 3.214 3.728 7.58 4.242 10.28s.47 6.382 1.37 6.382 1.8.13 1.542-3.214-.514-3.856-1.67-5.522c-1.158-1.67-1.8-2.443-1.158-3.47s.77-2.7.514-3.986-.642-3.21 1.543-.643c2.185 2.57 2.828 3.214 3.47 4.114s.895 2.57.77 4.112c-.127 1.538.125 2.18 1.025 1.41.9-.767 2.056.514 1.542 2.185s.13 2.7 1.67 3.213 2.186.9 2.57 2.057 1.673 1.666 1.673-.643c0-2.313-.9-7.198-1.543-8.736-.642-1.542-1.157-4.885-1.285-6.813s-.514-2.437-1.414-2.823-1.67-1.028-1.8-1.928-.9-1.22-1.477-1.22-1.087-.45-1.408-1.094-.643-.707-1.286-.77-1.67.32-1.993-.708-.77-2.507-1.414-3.342-1.22-1.093-1.285-3.98c-.065-2.893-.13-3.278-1.03-4.307s-2.44-3.723-3.083-4.88c-.638-1.157-1.28-2.313-1.28.13 0 2.436 0 3.722 1.537 4.622 1.542.9 1.928.9 1.285 2.185s0 2.185.257 3.085.77 1.8 0 2.695c-.77.9-1.542.642-1.414-.767.13-1.414-.385-3.085-1.023-4.242-.643-1.156-1.157-1.927-1.928-1.284s-1.415-.13-.9-.643.385-.9 0-1.285-.515-.772.128-1.543.642-1.157.257-2.952c-.386-1.8-3.214-10.793-4.5-12.85s-1.156-3.6.515-1.542 3.085 3.858 3.214 5.524c.128 1.67.514 2.7 1.028 3.342s.9.386 1.157-1.028 1.284-.9-.515-3.595c-1.8-2.7-5.142-7.198-6.427-15.292s-1.8-13.49-3.085-15.672c-1.28-2.185-1.666-2.7-1.795-4.756s0-4.113-.9-5.65c-.9-1.544-1.542-1.8-1.67.513-.13 2.31.128 7.45.77 8.35s.258 3.21.13 4.495-2.15 2.556 2.056 5.142c1.67 1.028 1.41 2.442 1.157 3.342-.256.895-.513.766-1.413-.643-.9-1.413-1.8-2.57-2.7-3.34s-1.027-1.286-.9-3.086.515-3.085 0-3.723c-.513-.642-.77-.128-1.027.896-.257 1.028-.514 3.856-1.028 4.628s-.772.257-1.157-1.414.128-4.238 1.028-7.194 1.414-6.042.643-9.893c-.772-3.857-.386-5.014-3.342-8.222-2.952-3.213-6.293-6.3-7.707-10.28-1.414-3.983-1.67-7.454-3.214-9.253-1.537-1.795-3.722-4.11-5.136-4.752v-5.908c0-1.414-.643-2.314-2.314-2.057s-2.7 1.67-3.722 3.595c-1.027 1.928-1.8 1.028-3.212 4.37s-3.47 5.01-3.47 8.608zM273.56 349.807c1.03.643 2.013 1.073 3.556.302s3.386-2.998 5.442-.812c2.052 2.18 3.21 5.78 3.21 8.607 0 2.824 0 8.094 3.212 11.05 3.214 2.952 4.88 6.037 5.008 9.894.13 3.85 1.542 9.763 1.928 11.306.386 1.537 1.285 3.337 2.314 4.365s1.8 3.986 1.928 7.067c.128 3.085-.386 5.27 0 6.813s0 2.828-1.157 2.056-1.413-1.157-2.056-2.442-1.414-1.028-.77.9 2.57 3.723 4.24 3.723 2.186.257 3.214 1.285c1.023 1.028 1.152 1.543 2.95 1.543s2.058 0 3.73.514 1.67.256 2.57 0 1.794.513 2.437 2.184 2.185 6.294 2.185 7.58 0 2.57.9 3.856.642 2.57-.386 1.8-1.028-.515-1.8-.386-1.285-.257-2.308-.9c-1.028-.643-.386-.514-1.414-2.057s-1.67-2.056-1.67-.9-.13 2.57-.9 1.93-1.158-.644-1.8 0-.9 1.156-1.67-.13-1.672-1.285-2.443-1.542-.772-.258-1.153-1.414c-.386-1.156-1.543-1.413-2.57-1.413s-1.543-.515-1.672-1.286c-.128-.765-.77-1.28-1.285-1.665s-.257-1.286-.386-2.185-.9-.515-1.414-.772-.9-.128-.9-1.414-.513-1.67-.9-2.57c-.38-.9 0-1.8.258-2.824.257-1.028.13-1.67-.638-2.57-.77-.9-.128-1.8-2.185-3.6s-3.085-.257-3.727-4.494c-.643-4.242-1.928-12.978-3.085-14.392s-1.923-2.443-3.08-2.828-1.928-.13-2.056-2.57c-.13-2.44-.9-5.524-2.443-7.066s-2.185-2.057-2.956-2.7-1.028-1.8 0-3.98c1.028-2.185.643-5.142.514-6.556-.128-1.41-.514-3.21-.257-4.75s.13-3.47-.257-4.5-.9-1.286-.257-2.057zm30.948-36.537c-1.74 2.24-3.594 4.114-5.992 5.824-2.397 1.716-5.482 3.085-3.772 5.997 1.716 2.914 3.085 3.26 3.426 5.484.346 2.225.86 4.114 2.57 4.628 1.716.51 2.4.168 2.4 3.768s0 4.968 1.54 6.338 1.37 2.74 2.058 5.997c.682 3.253.682 10.28 2.738 15.075s6.684 13.878 6.17 15.76-1.2 3.255.855 5.48c2.058 2.23 3.427 5.482 3.6 7.366.168 1.89.514 2.57 2.566 1.89 2.056-.688 3.085-1.376 3.772-2.23.682-.856 2.05-.683 3.94.34 1.883 1.03 4.795 2.057 6.506 1.03 1.715-1.03 2.57-2.567 4.113-2.567 2.397-1.717 3.253-5.316 3.767-6.34.514-1.028.173-1.028-.855-2.057s-.516-2.743-.69-4.454c-.167-1.717-.854-4.283-2.91-8.055-2.052-3.767-3.253-8.395-4.623-9.592-1.37-1.2-2.056-4.113-2.23-5.483-.167-1.37-1.71-2.57-2.738-3.6-1.03-1.022-2.058-2.565-3.254-8.562-1.2-5.997-2.056-10.28-2.056-11.307s-.173-1.2-1.202-1.542-1.542-2.057-1.196-2.912c.34-.855-.346-1.71-.687-2.74s0-2.91.687-3.94c.682-1.028.514-3.94-.173-6.338s-1.37-4.454-4.114-4.8c-2.74-.342-3.253-1.024-4.28-3.254-1.03-2.225-2.058-6.165-2.4-7.025-.34-.857-.854-1.03-2.91.686-2.057 1.71-2.74 2.28-2.74 5.483 0 2.056.342 2.738 1.024 3.94.687 1.196.86 1.542 1.374 4.795s3.426 8.395-.346 11.307c-3.767 2.912-3.253 3.6-3.08 5.65.168 2.058-1.028 3.428-1.715.516-.682-2.912 0-4.623 2.056-5.993 2.056-1.374 3.94-3.085 2.57-4.968-1.374-1.884-1.884-6.34-2.057-8.395s-.514-2.744-1.715-1.202z" fill="#cf6200"/><path d="M273.957 356.926c-.094 1.395.217 2.927.326 4.158.128 1.414.514 4.37-.514 6.556-1.03 2.18-.772 3.338 0 3.98.043.035.083.07.122.104 2.096-.702 2.368-3.04 1.805-4.173-.598-1.195-.425-2.654.257-3.85.687-1.202.687-1.884.09-2.744-.604-.855-.604-.855.083-3.253.603-2.11-.92-2.097-2.17-.777zm21.95 33.224c-.386-1.542-1.8-7.455-1.93-11.306-.127-3.857-1.793-6.942-5.007-9.893-2.506-2.31-3.055-6.016-3.174-8.88-1.883-1.15-2.68-.627-2.52 1.514.167 2.31 2.48 3.426 2.14 6.763-.34 3.343-.34 2.487 1.285 4.114s2.226 3.17 1.37 3.857c-.855.683-.944 1.884.258 2.31 1.196.43 1.285 1.715 1.112 2.91-.173 1.203.944 1.46 1.626 2.315.688.855.772 2.912.09 4.114-.688 1.196-.772 3.08.425 2.056 1.2-1.028 1.716-.09 2.655 1.538.816 1.404 1.498.964 2.383.54a10.838 10.838 0 0 1-.712-1.95zm16.71 29.913c-.773 1.542-1.672 1.028-2.444.257s-1.67-.772-1.285-2.186.257-1.67-.77-2.442a7.71 7.71 0 0 0-.357-.247c-.32-.01-.696-.01-1.186-.01-1.8 0-1.928-.514-2.95-1.543a8.638 8.638 0 0 0-.634-.573c-.02.246-.01.572-.01.96 0 1.412 0 1.155-1.413 1.54s-1.157-1.413-1.414-2.57a4.247 4.247 0 0 0-.223-.692c-1.547-.297-3.178-1.93-3.762-3.674-.643-1.928.13-2.185.77-.9s.9 1.67 2.058 2.443 1.542-.515 1.157-2.057c-.124-.495-.154-1.068-.14-1.706-.276-.5-.65-.905-1.146-1.122-2.056-.9-1.414-1.157-1.285-2.828.13-1.666-.257-1.666-1.542-.77-1.286.9-1.414-.13-1.414-2.696 0-2.57-1.67-2.57-2.052-.77-.385 1.8-1.028.64-1.8-1.93s-1.8-3.213-1.927-.77c-.11 2.066-.683 2.56-2.027 1.413.237 1.494.445 2.89.613 3.986.642 4.237 1.67 2.695 3.727 4.494s1.414 2.7 2.185 3.6c.767.9.895 1.542.638 2.57-.257 1.024-.638 1.924-.257 2.824.386.9.9 1.285.9 2.57s.385 1.158.9 1.415c.32.157.736.068 1.038.196.33-.435.632-.97 1.018-1.354 1.542-1.543 3.856.128 4.627 2.056s1.665 2.443 2.822.9.77-1.285 2.057.13 1.798 1.156 1.798 1.156 1.285-.514 2.185.257 1.414.644 3.08-1.8c1.67-2.44-.766-1.67-1.537-.127zm4.547-70.503c.51-3.768.168-7.535 1.71-8.91 1.543-1.37 3.426-4.108 3.253 1.716-.168 5.824-.34 5.483-1.537 6.853-1.202 1.37-2.23 1.71-1.03 3.94 1.198 2.224 1.37 2.397 1.198 5.823-.168 3.427-.168 4.796 1.2 6.512 1.37 1.71 1.71 1.883 2.057 3.767.342 1.884 1.538 4.455 3.08 5.824s3.258 5.31 3.426 8.054c.174 2.74 2.57 3.426 4.797 5.31 2.23 1.884-.51 3.253-2.225 2.398-1.71-.855-1.028 0-2.057 1.196-1.028 1.202-1.37 1.375-2.224-.682s-3.77-3.426-5.14-3.94-2.566-2.744-3.768-4.97c-1.028-1.912-3.065-3.312-4.923-3.455.513 1.444.79 2.576.64 3.115-.513 1.883-1.2 3.253.856 5.478 2.057 2.23 3.426 5.483 3.6 7.367.167 1.888.514 2.57 2.565 1.888 2.058-.687 3.086-1.374 3.773-2.23.682-.855 2.052-.682 3.94.342 1.884 1.028 4.795 2.056 6.506 1.028 1.714-1.028 2.57-2.566 4.112-2.566 2.398-1.717 3.253-5.316 3.767-6.34.513-1.028.172-1.028-.856-2.056s-.514-2.744-.687-4.455c-.168-1.716-.856-4.282-2.912-8.055-2.052-3.767-3.253-8.395-4.622-9.59-1.37-1.203-2.057-4.115-2.23-5.484-.168-1.37-1.71-2.57-2.74-3.6-1.027-1.022-2.055-2.565-3.252-8.562-.938-4.687-1.665-8.32-1.937-10.18-1.23 1.963-2.07 2.443-2.516 1.098-.514-1.538-1.2-2.398-1.883-1.37-.687 1.03-.86-.855-.86-1.71 0-.86-.17-1.03-1.03-1.03-.854 0-.167-1.37-.513-3.94-.34-2.57-.854-2.91-1.195.174-.34 3.08-2.057 4.964-1.37 5.65.683.688.34 2.058-.346 4.115-.683 2.05-.34 3.253.172 4.622s-.34 3.94-.687 6.17c-.34 2.225 1.374 4.45 1.89.683zm-31.294-30.753c-1.27.094-2.14 1.207-1.413 5.098.455 2.408-1.37 1.884-2.052.682-.687-1.196-1.2-3.767-2.57-5.997-1.375-2.225-.688 1.543-.856 3.6-.174 2.056 1.196 2.056 2.397 3.767 1.196 1.715.168 2.402-1.2 2.402s-.684 2.74-.342 4.622-.342 2.23-1.375.687c-1.023-1.543-.34-3.94-.168-6.853.168-2.912.34-2.23-1.542-2.912-1.884-.687-1.543-1.03-.856-2.744.683-1.71 1.37-2.57.515-3.425-.86-.856-.69-1.37.68-1.543 1.37-.168.86-1.196 2.057-1.543 1.202-.34 1.716.173 1.884-2.052.144-1.86.767-3 2.16-2.438.84 2.863 1.934 7.318 2.68 8.647zm17.254 20.173c0 3.6 0 4.968 1.542 6.338s1.37 2.74 2.057 5.997c.682 3.253.682 10.28 2.74 15.075.612 1.428 1.457 3.243 2.322 5.13 1.137-.893 2.126-2.43 2.477-3.247.51-1.2-1.03-3.6-2.23-5.65-1.196-2.058.173-2.745 1.37-5.316 1.2-2.566-.17-2.74-2.052-3.426-1.888-.68-1.888-2.397-2.917-5.136s-.855-3.94-.168-5.483c.682-1.542.168-2.738-1.2-3.084-1.37-.34-1.03-1.37-.515-3.08.514-1.716.855-2.057-1.197-1.543-1.557.386-1.933.677-2.397 1.24.113.496.168 1.183.168 2.186z" fill="#00b800"/><path fill="#5d3100" d="M322.85 346.148c-.19 2.057-.174 3.085-.688 3.768-.51.687-.168 1.715.346 2.744s.855 2.398.34 4.28.342 3.428 1.37 3.94 1.543 0 1.2 2.4c-.345 2.398 1.03 4.968 2.226 5.997 1.2 1.028 2.057 2.74 1.884 3.767-.17 1.03.86 2.057 2.056 2.57 1.2.515 1.028.688 1.028 1.37 0 .688.515.688 1.884 1.03s2.398 1.2 3.94 3.084 3.767 2.912 3.426.856 0-3.427-2.057-4.455c-2.05-1.03-3.594-5.998-4.454-9.425-.854-3.426-3.593-8.05-5.135-8.904-.173-2.402.173-3.6-1.37-4.8-1.542-1.196-2.056-2.74-2.056-3.94 0-1.197-.856-2.74-1.544-3.08-.682-.346-1.028-1.202-1.028-2.23s-1.196-.855-1.37 1.028z"/><path d="M313.753 438.06c3.08-.258 11.434-2.7 12.33-3.472 2.055 1.414 5.654 3.343 7.197 3.343-2.957.643-4.885.258-5.656-.256.386.9 1.414 2.313 2.057 2.442-2.827-.13-6.035-.77-7.064-1.8-2.442 1.03-6.555 1.286-8.863-.257zm5.537 3.856c1.092.32 6.55 1.22 7.257 1.22-1.8 1.538-.257 3.017 2.763 2.76-1.478.192-3.09.75-1.992.964 2.635.514 9.763-1.414 11.177-2.186-2.442 3.15-14.32 6.042-19.206-2.758zm4.894 7.81c1.473-.77 5.136-.513 6.87.323-1.927.706-5.714.706-6.87-.323z" fill="#00d860"/><path d="M329.67 449.628c2.636-.45 10.086 1.35 12.72-.257-.9 2.38-5.59 2.7-7.197 2.187-1.602-.515-3.144-1.157-4.237-1.093.58-.32-.385-.386-1.285-.836z"/><path d="M332.39 453.287c1.992.316 9.12-.578 11.306-1.414 2.31.77 6.872 1.988 7.9 1.86-2.185 1.35-6.363.577-7.707 0-3.857 1.284-7.006 1.67-11.5-.446zM335.8 454.474c2.853.642 5.286.183 8.094-.757.875.376 2.936.836 4.874.742 1.29.735 3.026 1.764 4.696 1.892-1.735.707-8.097 0-9.378-.707-3.213.065-8.74.772-10.084 1.864-.065-.9.52-2.15 1.8-3.036z" fill="#00d860"/><path d="M332.39 439.987c2.225.742 10.278.386 14.386-1.542 1.62-.762 2.625.514.77 1.157-6.678 2.314-11.948 3.213-15.8 1.157-1.52-.812-1.67-1.544.644-.773z"/><path d="M371.84 429.06c-9.892 4.624-16.448 6.038-30.19 1.8-1.28-.395-2.186 0-.772.9 1.414.895 8.992 2.952 10.792 3.08s1.157.965.064 1.286-1.414 1.093.064.514 9.734-.796 13.106.964c1.473.772 1.86.643 1.73.065s.643-.966 1.735-1.094 1.735-.514.9-.836-.965-.514-.322-.835.707-.643-.257-.836-1.606-.45-.706-.9c.9-.446 2.25-.77 3.277-.895.26-.707-.19-2.57.58-3.214z" fill="#00d860"/><path d="M355.378 430.247c5.655.4 16.06-2.185 21.588-7.58 1.923 1.153 4.623 2.44 6.036 2.696s2.7 1.542.515 1.542-5.27-.9-6.68-1.542c-7.326 4.5-15.898 5.977-21.33 5.527-1.538-.128-1.924-.77-.13-.643z"/><path d="M338.668 399.396c1.928 1.35 5.334 3.595 9.764 3.273 2.185 1.735 5.59 3.213 7.134 3.534-2.957 1.222-6.17 2.25-7.006 3.214-1.35-1.285-3.08-1.093-3.53-1.735-1.285 1.028-1.092 1.67-.256 2.185s7.32 1.607 8.928 1.157 2.037.88.707 1.345c-3.47 1.22-10.215.064-12.528-3.66-2.314-3.727-4.306-5.14-10.6-1.734-.706-1.8-.706-2.25-1.927-2.25s-3.47-1.607-1.736-1.543 6.876-.707 11.05-3.787zM340.2 407.653c-1.072.267-4.112 1.928-5.2 2.057-1.092.128-3.02 1.67-1.028 1.735 1.987.064 4.558-2.12 5.972-2.314s1.542-1.8.257-1.477zm6.23 6.527c-.762.133-4.044.9-4.944.835s-1.8.193-1.735.835.322 1.03-1.027.9-2.507.386-2.828.77-.578.773.77.9 2.058.258 3.6-.45 3.02-1.8 4.69-1.863c1.668-.064 3.338-2.25 1.475-1.928z" fill="#00d860"/><path d="M341.832 418.134c1.404.91 8.35 3.278 10.856 3.086s2.037 1.003.13 1.414c-3.92.83-8.707-.876-11.95-3.47-1.606-1.287-.128-1.737.964-1.03z"/><path d="M374.707 421.546c-5.314 1.696-10.727 1.093-12.913.514s-4.177-.707-2.7.707c1.48 1.41 6.235 2.373 8.93 1.666-9.57 2.186-12.078 1.993-14.45 1.607-2.38-.386-6.843-.302-8.736-.128-1.414.128-3.342-.065-4.177-.58s-1.092-1.477 1.414-1.22c2.502.257 2.828-.257.643-.58s-5.206.58-2.25 2.444 9.443-.13 13.556 1.028c4.108 1.157 12.844 1.993 21.134-4.692.425-.34 1.157-1.28-.45-.766zm-26.102-7.812c.193.643.193 1.35 0 1.8s-.193 1.028.643.385 1.35-1.415 2.185-.965 2.956.386 3.915.257c.97-.128 1.285-.32-.124-.9-1.413-.578-2.827-.77-3.6-.706s-1.734-.13-2.376-.386-.836-.13-.643.514zM362.3 416.206c-1.094.065-3.02-.642-4.05-1.092s-2.5-.515-1.41.964c1.09 1.478 5.844 2.314 7.515 1.607s.964-1.48 2.63-.45c1.67 1.028 3.406 1.735 4.627 1.735s1.67 0 .322-.77-1.992-.965-2.12-1.608-.322-1.028.9-.643 2.634 1.092 3.598.578 2.758-1.67 4.365-1.67l.385-.966c-2.313-.192-3.786.515-4.43.772s-1.8.385-3.02.193-2.827-.322-3.213-.643-.386-.58.642-.77 1.35-.9-.064-.644-5.2.128-7.193-.514c-1.993-.638-2.828-.702-3.664-.386-.834.32-.706 1.22.515 1.285s3.985.322 4.95 1.222.835.964-.258.514-3.085-.192-1.028 1.286zM379.058 413.883l-.386.964c2.378-.065 8.162.514 10.02 1.67 1.8-1.413 1.48-1.863 2.764-1.606s2.892.708 3.6.322 1.22-.32 1.99-.193c.768.128 2.438-.193 3.402-.77s2.957-1.35 4.114-1.35 2.565-.26.45-.58c-2.12-.32-5.335.32-6.427.707-1.088.386-4.365.643-6.293.643s-4.558.964-6.744.385-5.205-.192-6.49-.192z" fill="#00d860"/><path d="M408.818 412.745c-3.85 2.828-8.478 3.47-14 3.857-1.607.113-1.113.568.257.707 5.78.577 12.463-1.544 14.643-3.858.632-.667.563-1.775-.9-.707z"/><path d="M382.567 419.32c1.67.065 7.45 1.544 9.314 2.186 1.415-.128 1.8-.45 1.544-.964s-.45-1.092 2.12-.964c2.566.13 8.48.064 9.57.064.9-.385 2.888-1.928 3.788-1.992-2.31.128-11.944.643-13.165.514s-1.864 0-2.635.45-1.22.643-2.185.257-2.7-.9-3.658-.32c-.965.578-2.957.064-4.693.77zM405.11 419.618c.9-.386 2.887-1.93 3.787-1.993 1.67-.128 3.6.58 4.5.707s1.862-.064 1.22-.77-.064-1.93 2.57-1.608c2.63.32 3.98.77 6.55.514s3.728 1.67 8.608-.257c-.386 1.93.514 2.058 1.413 1.672s1.928-.257 3.47.9 10.92 1.286 13.106.9c2.18-.386 3.337.77 1.666 1.285-1.666.515-2.056 1.286-1.666 1.8.38.51.767 1.152-1.285.895-2.058-.257-2.443.386-3.47 1.157s-1.287 1.027-4.114.513c-2.823-.514-3.337-.128-4.88.13s-1.928.256-3.47-.258-4.88-1.03-6.936-.386-3.6 1.284-5.4.77-1.927-.257-.77-1.414 1.414-1.028 3.6-1.285c2.184-.25 3.855-.894 2.313-1.794s-2.057-.77-4.113.257-3.085 1.666-5.394.386c-2.313-1.287-3.47-1.03-5.013-.644s-4.108-.514-6.293-1.478zm7.712 3.856c-2.94.42-3.732-1.473-6.807-1.088-1.028.13-2.764 1.41-.386 1.217 2.372-.193 4.943 1.092 7.257.9s1.285-1.222-.065-1.03zm-3.41 2.225c1.547-.565 4.755.513 6.105.256s2.634.578 1.22 1.028-4.82-.835-6.362-.385-3.08-.13-.964-.9zm-30.7 8.305c2.12.07 9.763-.257 12.784-6.68.232-.494.45-.706 1.413-.064s4.5 2.765 11.113 3.343c1.854.164 3.856 1.093.128.836s-9.634-1.286-11.626-2.508c-3.342 5.266-9.344 5.89-13.813 5.78-2.693-.064-2.05-.77 0-.707zM395.223 425.254c-1.028 1.414-4.563 3.856-6.17 3.985-1.6.127-6.42-.322-7.642-.772s-2.7-.322-.963.9 6.04 2.056 7.77 1.67c1.736-.385 3.728-.964 5.078-.128s3.856 2.437 5.33 2.116c1.477-.316 4.498-.316 5.462.13.964.45 2.635 1.8.128 1.027s-4.562-.13-5.72-.643c1.286 1.8 4.203 4.692 6.684 4.692.578 0 .963 1.03-.258 1.607 1.22.578 4.044 1.027 5.522-.322-.385.514-.192.835.45 1.157s1.414.77.257.9-3.785.45-4.557.128c2.502 1.602 8.993 4.173 15.607 2.887 1.26-.242 1.928-.766-.128-.707-4.242.13-4.494.065-5.265-.38-.77-.455-.643-.836.578-1.222 1.216-.384 4.3-.834 5.587-.834s2.57-.514-.065-.514-5.843 0-7.128-.45-2.25-1.03-.9-1.928 2.762-.643 3.405-1.48c-4.242-.063-9.447-2.313-6.555-4.364.672-.48.45-.515-.643-.643s-4.3-1.028-5.65-1.8-.45-1.414.642-1.607c-2.507.45-7.52-.9-10.857-3.406zm37.67-.1c-2.313 1.736-6.678 2.443-8.542 2.443s-2.12.643-.642.836 3.085.386 3.728.193 1.028-.257 1.987.193c.964.45 3.02.706 4.82.127s4.75-.835 5.972-.77 2.57.127.128-.58c-2.437-.707-6.42-.192-7.385.065s-3.6.064-2.185-.386 2.634-1.157 3.34-1.735c-.513-.128-.834-.256-1.22-.385zm-1.186 4.995c-1.992 1.477-4.88 2.886-7.836 3.015 2.7.964 4.95 3.727 6.68 3.6-.835.513-1.86 1.284-2.95 1.413 1.67.45 4.492-.064 6.806-1.35 3.856 1.093 8.864.386 10.535-1.028-2.506 0-5.52-.9-6.87-2.057 1.22 0 2.372-.77 2.95-1.473-2.886.51-7.835-.9-9.313-2.12zM427.604 438.207c1.092-.128 2.116-.9 2.95-1.414-2.115.707-11.37-.77-14.128-3.213-2.763-2.438-2.763-.58-.835 1.157s5.33 4.37 12.014 3.47zm6.772 5.884c-1.156.644-6.678 1.03-8.478.644s-2.57-.193-2.12.514.642 1.35-.836 1.157-4.113.128-5.2.514c-1.093.385-2.443 1.35-.13.963 2.31-.386 4.43-.835 6.165-.386s7.9.58 9.12.065.387-.514-.192-.514-.835-.386 0-.772 1.48-1.478 1.67-2.185zm-53.44-7.465c-2.314 1.03-10.02 3.086-12.077 3.214-2.57 1.156-4.623 1.8-5.91 1.8.9.77 4.366 1.536 5.78 1.156-.77.766-2.565 1.666-3.21 2.05 2.054-.256 4.496.26 5.524.387-2.7 1.543-6.422 2.057-8.35 1.8.643.9 1.543 1.8 2.7 1.8-2.443.642-5.4.642-6.94.128.64 1.286 1.284 2.058 2.184 2.186-2.057.257-4.628.643-6.808-.643 1.666 2.186 5.394 2.952 10.92 2.314 5.523-.642 10.15-3.085 11.435-4.113-2.313.257-5.398.385-6.94.128 3.084-.77 9.763-3.6 10.92-4.756-1.285 0-2.566-.385-3.47-1.028 1.8.257 8.097-.51 10.025-1.28-2.314-.515-3.727-1.93-4.37-2.83 8.093 2.572 17.1 1.73 21.455.644 1.028-.257 1.152-1.562-.9-1.414-3.6.257-10.534-.77-12.334-1.67 1.672 1.284 3.73 2.056 5.142 2.313-3.34.9-7.964 1.543-14.776-2.185zM365.512 444.882c.643-.386 2.437-1.285 3.208-2.052-1.413.38-4.88-.385-5.78-1.157 1.287 0 3.338-.642 5.91-1.8-4.623-.128-7.837-.128-9.508-1.028s-4.75-.642-5.907-.385-.77 2.185 4.108 1.67c-2.057 1.415-7.58 1.93-9.635 1.415.514 1.666.9 3.337.385 4.237 2.7 1.542 9.764 3.47 13.234 3.214-3.084-1.157-4.755-2.443-2.185-2.7s3.985-.77 6.17-1.414z" fill="#00d860"/><path d="M357.553 453.238c6.15-.515 14.386-.623 20.94-6.17 1.672-1.415 2.794-.94 1.158.514-3.465 3.085-12.076 7.322-20.298 7.45-3.347.055-4.88-1.542-1.8-1.794z"/><path d="M403.627 443.053c-1.542.578-5.848 1.285-7.128 1.092-1.287-.192-3.15-.257-4.18.386s-1.09 1.03.323 1.158 3.213.257 4.113.193c-1.157.643-1.928 1.543-2.185 1.93 2.057-.515 5.844.385 6.936 1.027-.835.257-1.8-.064-2.506-.45 3.47 3.664 13.748 3.664 15.42 3.02-.772.58-1.48 1.158-2.25 1.35 2.892.515 6.23.45 9.506-1.477-1.092.193-4.365-.13-5.2-.193.642-.643 1.6-1.22 2.5-1.478-1.28-.258-5.33-.13-6.292.384.385-.77 1.092-1.735 1.864-2.057-5.077 0-11.242-.064-13.49-1.285 3.597.386 7.582-1.735 9.248-1.735-2.823-.065-5.908-.707-6.68-1.864zm-12.903 2.817c-2.506.515-6.293 1.543-7.32 2.122s-2.12.9.127.9 8.35.257 9.7.45c-3.405-.515-8.028-.643-8.927-.643s-1.928-.065-.257-.58 3.856-1.67 6.678-2.25zm-5.092 5.983c.895 0 4.816 0 6.358-1.35 1.607 1.222 4.69 2.952 6.68 2.952 1.99 0 1.8.514.063.707-1.73.193-5.136-.83-6.872-2.116-2.312.836-4.235.13-6.228-.193zm-29.76 17.305c3.98 1.542 9.25 2.7 13.1 1.414 2.186 1.928 6.684 2.056 9.122 1.542 2.442-.514 4.627-.77 7.326.13 2.694.9 8.22.963 9.764 2.243-1.414.07-4.435 0-5.142.198-.707.188-.32.638.964 1.345-4.365-.257-11.884 1.607-14.193 3.6.83-1.993 3.4-4.693 7.45-4.693-2.313-.83-9.7-.895-12.077.58-.707-.773-1.543-2.053-1.607-2.567-3.916 2.244-11.628-.964-14.708-3.792zm-10.184-7.218c4.74-.678 7.97-2.186 9.383-3.6.837.77 4.302 1.542 8.094.386-.77.578-.836 1.67-.514 2.25-2.507.063-7.262 1.285-8.864 2.12-1.607.83-6.298 1.41-7.836.574-1.542-.83-1.606-1.538-.262-1.73zM362.645 461c-2.507.064-7.262 1.285-8.864 2.12.322.644.515 1.667.58 2.374 4.622-1.67 15.22-2.695 19.27-2.052-1.93.13-5.59 2.116-7.643 2.373 5.007-.385 9.892.643 11.172.964 1.284.32 1.542 1.285.578 2.185s-1.41 1.028.642 1.092c2.057.065 6.298-.192 8.226-2.056-.77-.835-2.763-.514-3.34-1.092 1.35-.45 2.89-1.414 3.47-2.12-3.47-.065-4.757-.13-5.914-.387-1.156-.25-1.992-.577-.578-1.343 1.414-.772 2.057-1.414 2.506-1.93-2.506.708-6.42 1.287-9.7-1.284 1.222.32 4.11.128 5.137-.32-1.092-.58-1.987-1.03-2.887-1.03 2.63-1.285 7.836-2.442 14.258.13 3.213-.258 6.683-.13 9.12.513 1.03-1.028 3.214-3.47 4.37-4.114-7.578.643-21.197-.77-20.94-4.75-2.442 3.208-8.093 5.007-10.535 4.493-.257 1.157.77 2.57 1.67 3.343-2.57.514-6.94.9-8.992.514 1.158 1.157 3.338 2.185 4.624 2.056-2.695 0-4.108.515-6.23.322zM378.365 470.048c2.057.064 6.3-.193 8.227-2.057-.772-.835-2.764-.513-3.342-1.092 1.35-.45 2.892-1.414 3.47-2.12 5.394-.446 10.214-.19 12.522-.896 2.314-.707 8.226-.32 9.383-.643-5.14.83-6.17 1.28-6.427 2.116s1.67 1.542 2.893 1.542c-2.313-.128-5.205 2.314-5.462 3.278-3.08-1.8-4.558.32-4.88 1.028-1.285-.514-5.526-.385-7.712 1.48-2.822-.837-4.686-1.287-7.514-.837 1.735-.385 1.414-1.542-1.157-1.8zm24.67-15.03c1.734-.065 5.52.128 6.87-.065-.9.45-2.05 1.286-2.31 1.67 4.367-.513 10.34-.834 12.074-.577-2.117-.322-4.3 1.028-5.394 1.735s-.45 1.158 1.028 1.35 3.47 1.35.77.965-8.027-.386-9.313-.193-1.99-.45-.127-.707 3.144-.9 4.044-1.414c-1.543.387-4.494.387-5.394.13s-1.478-.772-.45-1.03.322-.64-.77-.513-3.857 1.286-5.4 2.764c1.672-1.734 3.15-3.277 4.37-4.113z" fill="#00d860"/><path d="M383.457 457.934c2.12 2.38 4.623 3.728 8.607 3.857.836.026 2.393 1.148.386 1.222-5.4.193-8.093-1.093-10.47-4.563-.49-.713.414-1.707 1.477-.516zm32.183-44.94c2.838 1.34 8.543 2.505 12.977 2.312.77-.034 2.324.79.38.965-5.007.45-9.506-.252-13.678-2.57-1.158-.643-.772-1.222.32-.707z"/><path d="M418.507 412.943c4.366-.128 7.643-.064 8.993 1.22 2.5-.77 7-1.22 8.028-1.027s2.185-.257-.193-.836c-2.377-.573-7.9-.766-9.635-.445-1.735.317-7.133.51-8.928.317.77.128 1.28.257 1.735.77zm16.957 1.73c2.057-1.092 7.964-.064 9.764-.835-1.286 1.543 4.113 1.67 8.8.45-1.8 1.157-5.65 1.35-7.322 2.057s-2.57.193-3.856-.386-4.558-1.736-7.386-1.286zM454.052 414.278c-4.687 1.22-10.085 1.093-8.8-.45-1.8.77-7.707-.257-9.763.836 2.12-1.286 3.726-.257 5.264-2.893.964.2 3.213.328 3.984-.7 1.35.32 3.728.9 4.435 1.6.707.708 1.794-.192.894-1.28 2.12-.77.777.915 5.72-.32 1.028-.258 3.535-.708 4.37-.77-1.67 1.348-3.663 2.82-6.105 3.98z" fill="#00d860"/><path d="M362.842 392.722c-.084-9.72-1.023-91.08-1.023-109.888 0-4.5-2.314-3.6-2.314 0v109.374c1.062.192 2.496.385 3.336.514zm46.26 155.677l4.014 115.993-.702.93-2.328.034L407.55 548.4h1.552zm5.302 190.313c-.326-11.812-1.81-66.49-2.383-93.444-.073-3.595-2.213-2.967-2.18.128.234 21.71 1.524 82.428 1.76 93.38.842 0 2.29-.085 2.804-.065z" stroke-width="0.618" stroke="#000" fill="#ff0"/><path fill="#fff" d="M378.86 296.213l-34.175-.514c-1.923 6.935 6.683 6.807 9.897 5.007 3.722 2.828 6.55 2.57 8.607.257 2.955 2.443 6.677 1.8 8.22.257 4.113 3.086 8.35 0 7.45-5.007zm.31 365.662l-34.946-.128c-6.036 5.78 1.8 8.608 8.484 4.623.9 1.928 5.007 3.085 8.22 1.542 2.957 2.314 6.68.643 8.608-1.285 3.6 1.67 7.835 2.185 9.635-4.752zm-3.04 8.128l-33.66-.257c-.642 6.037 6.17 5.265 8.864 3.728 2.57 3.98 8.226 3.08 10.41.766 3.21 2.185 6.166 1.67 7.837-.386 3.728 3.214 6.808-.895 6.55-3.85zm2.47 4.42l-37.64-.643c-2.056 6.423 3.723 7.58 6.422 6.037.9 3.728 5.908 2.442 7.193-.257 1.928 1.928 4.37.9 5.527-.386.514 3.47 4.88 3.6 8.22.643 6.808 4.756 13.235-.77 10.28-5.394zm32.03-26.43l-31.348-.258c1.414 6.422 4.494 8.093 9.506 4.365 3.728 3.857 9.893 2.443 11.435.514 6.807 5.528 10.535-.9 10.406-4.622zm-29.833-14.28l-30.32-.9c.515 7.708 7.836 7.45 11.564 4.108 2.828 3.6 7.836 2.572 9.636 0 3.856 3.858 10.15 1.544 9.12-3.207zm6.567-7.06h-32.632c.385 5.394 7.578 8.48 13.105 3.343 1.538 6.165 7.45 4.237 10.02 1.794 3.723 4.756 12.33-.638 9.507-5.137zm-5.122 2.873l-29.162.385c-.514 4.753 6.42 6.81 8.992 2.953 1.414 2.442 6.293 2.185 7.707-.13 2.313 3.6 5.14 1.158 6.035 0 3.342 2.444 6.94 1.287 6.427-3.207zm35.698 23.724l-35.717-.386c-.13 3.723 3.727 5.266 6.036 3.723 0 3.6 5.012 4.756 8.225 1.928 2.185 3.085 8.607 3.985 11.178-.257 5.264 4.37 10.92 1.286 10.277-5.008zm-27.744 20.84l-34.947-.13c.256 4.88 5.907 6.55 9.12 3.98.77 4.113 5.142 4.37 7.707 2.314 3.085 3.47 8.226 3.728 11.05-.13 4.24 1.544 7.454-2.055 7.07-6.035zm-1.435 2.962l-27.624-.386c0 4.885 5.784 5.528 8.355 2.957 2.695 3.214 6.808 3.214 9.122.643 3.722 3.213 9.378 2.314 10.15-3.214z" stroke-width="0.618" stroke="#000"/><path d="M401.897 393.86c-14.9.256-30.062.256-40.34-1.287s-13.516-2.986-20.555-7.193c-10.535-6.294-13.106-7.837-28.006-16.573-2.284-1.34-4.76.322-1.542 2.438 15.028 9.893 20.723 13.56 27.877 18.248 7.45 4.88 12.256 9.216 16.83 14.388 5.91 6.685 10.276 6.814 12.976 5.785s6.94-2.442 11.177-1.414c4.242 1.03 9.892 1.158 12.85.644 2.698 2.442 8.862 1.928 12.333 1.157 3.465-.77 6.036-1.156 8.478-.642s6.165.13 8.607-.257 8.865-1.027 13.364-.385c4.493.643 9.12.257 12.077-.642 2.952-.9 8.35-.643 10.15-.13 2.566-1.927 3.85-4.37 4.494-6.935 3.02-.386 4.024-.762 4.69-2.507 1.222-3.213 2.374-6.362 2.765-7.77h1.215l.385-2.894-2.5-2.892.9-5.522 2.693-.643c.128-1.672-.643-4.243-1.157-5.272-16.185.643-32.054 1.157-43.42 1.414-1.285 1.03-2.7 3.728-2.956 5.4-6.936 1.15-11.05 1.666-12.848 2.05s-2.803.53-4.237 2.444c-2.314 3.085-4.5 6.68-6.298 8.993zM453.904 374.23c.786-2.723 2.887-10.06 6.693-23.93.638-2.312-1.606-3.227-2.437-.256-4.528 16.192-6.24 22.264-6.812 24.286.87-.015 2.116-.11 2.556-.1z" stroke-width="0.618" stroke="#000"/><path d="M396.85 654.96c-1.105.57-1.638.792-2.144.597-.466-.18-1.15-.28-1.552-.083a.523.523 0 0 1-.02.135 493.286 493.286 0 0 1-1.05 3.767c.82.29 2.228.328 2.557-.025.338-.364 1.26-.286 1.73-.26.298-.39.415-.87.337-1.105s-.052-.65.065-.974.273-1.378.078-2.053z" transform="matrix(4.944 0 0 4.944 -1482.9 -2891.1)" stroke-width=".125" stroke="#000" fill="#fff"/><path d="M371.69 645.58c-1.222 3.534-5.458 11.46-8.014 14.014m1.964 1.156c2.9-2.244 10.236-9.528 11.483-12.594m-7.013 4.364c-.337 2.677-1.11 7.452-1.526 9.973m2.656-4.013c-.987.962-2.387 2.64-3.427 3.55m12.727-8.89c-.83.805-1.78 1.744-2.61 1.978m3.09-1.848c.73.78 1.77 1.66 2.628 1.893m-3.198-6.203c-.753.65-1.87 1.413-2.884 1.7m3.314-1.55c.65.546 1.342 1.342 2.173 1.706m-5.333-4.876c.805-.234 2.004-.858 2.628-1.507m.362-.123c.705.805 2.056 1.455 2.732 1.637m-5.562-3.247c.83-.182 1.86-.624 2.407-1.404m.313-.216c.7.598 1.933 1.462 2.738 1.54m3.192.79c-.45.468-1.556 1.31-2.257 1.296m2.717-1.336c.325.52 1.144 1.316 1.612 1.38m-4.802 5.92c.91-.312 2.183-1.056 2.82-1.823m.5.063c.266.48 1.28 1.565 1.852 1.786m-4.092 5.254c.416-.09 1.547-.652 1.858-1.315m.522-.365c.43.533 1.48 1.507 2.13 1.74m-18.81.86c1.273-.403 3.846-1.965 5.12-3.447m-2.44 1.877c1.065.753 2.303 1.507 3.25 1.676m-6.17-4.456c.702-.3 1.624-.81 2.34-1.55m.54-.1c.286.402 2.388 1.686 3.284 1.7m-3.824-5.85c-.546.44-1.858 1.234-2.495 1.403m2.995-1.373c.728.506 2.167 1.4 3.154 1.4m-3.654-5.49c-.585.662-1.572 1.685-2.39 1.92m2.86-1.77c.455.728 1.673 1.712 2.466 1.842m8.054 2.528c1.822 3.36 5.2 7.465 8.618 9.622M378.2 643.46c2.767 3.976 8.2 12.695 13.367 15.914m.953-3.404a18.428 18.428 0 0 1-4.795 4.607m4.485-3.507c-1.74-2.78-2.64-6.295-3.943-10.924M374.15 658.51l2.144 5.9m-2.544-6.04l1.896 6.017m-2.306-6.297l1.76 6.262m-1.94-6.162l1.36 6.128m-.05-.218h1.7m-.22-.64h-1.602m1.422-.5h-1.546m1.366-.5h-1.475m1.275-.54h-1.404m-.096-.48h1.332m-1.432-.44h1.264m-1.374-.48h1.202m-1.292-.43h1.134m-1.234-.44h1.078m-1.168-.41h1.02m-1.12-.38h.99m-1.05-.32h.923m-2.593.01l-1.208 4.932m1.558-5.022l-1.037 5.21m1.317-5.4l-.84 5.55m1.2-5.66l-.61 5.803m.73-.333h-1.923m1.923-.53h-2.225m2.225-.55h-2.095m2.095-.52h-1.965m1.965-.53h-1.838m1.838-.59h-1.692m1.692-.51h-1.57m1.57-.52h-1.436m1.436-.5h-1.316m1.316-.44h-1.212m1.212-.35h-1.12m1.12 5.5v-5.88m6.47-1.94l-4.03 8.08m4.28-8.21l-3.43 8.254m3.68-8.344l-2.72 8.383m2.89-8.233l-2.116 8.238m.096-.378h-2.534m2.734-.74h-2.36m2.47-.6h-2.17m2.38-.65h-2.053m2.153-.52h-1.897m2.077-.6h-1.787m1.967-.7h-1.618m1.758-.53h-1.488m1.638-.61h-1.348m1.458-.41h-1.247m1.347-.39h-1.143m1.243-.4h-1.053m1.143-.35h-.968m1.058-.35h-.887m.987-.36h-.8m.88-.33h-.72m3.34-.12l1.763 5.58m-1.423-5.46l2.14 5.355M383 656.53l2.505 5.237m.605-.447l-2.763-4.888m2.763 4.878h-2.192m1.812-.66h-2.02m1.65-.66h-1.85m1.47-.67h-1.688m1.318-.66h-1.53m1.15-.66h-1.36m.99-.66h-1.194m.814-.67h-1.032m3.292.16l-1.725 5.173m2.245-5.403l-1.6 5.303m.74-.123l1.174-4.992m.306.172l-.988 4.75m-1.672-.3h1.73m-1.51-.65h1.65m-1.44-.64h1.572m-1.362-.64h1.49m-1.27-.65h1.41m-1.19-.64h1.33m-1.12-.64h1.248m-1.038-.65h1.027m.923.11l.846 3.547m-.536-3.717l1.17 3.697m-.77-3.707l1.275 3.702m-.755-3.502l1.277 3.477m-.117-.307h-1.638m1.448-.52h-1.556m1.366-.52h-1.49m1.3-.52h-1.43m1.23-.52h-1.358m1.168-.52h-1.284m1.094-.52h-1.218" transform="matrix(4.944 0 0 4.944 -1482.9 -2891.1)" stroke-width=".125" stroke="#000" fill="none"/><path d="M357.948 402.956c3.985-2.566 10.792-2.052 14.263.514 4.114-2.31 11.564-1.67 15.034 1.414 5.265-3.594 9.764-4.108 14.9-.642 3.985-2.824 10.15-3.08 14.905.257 4.62-2.187 9.763-3.98 14.256.77-2.694-1.928-8.478-3.6-14.257.9-4.5-4.5-12.335-2.828-14.906.257-3.342-3.985-10.406-4.628-14.648.257-4.622-3.856-11.558-3.985-15.285-1.028-2.956-2.314-7.32-4.238-14.262-2.7z" fill="#00b800"/><path d="M428.147 397.468c-20.427 3.53-64.944 1.028-74.707-1.414-3.357-.84-2.442-2.057.385-1.414 11.252 2.556 35.263 2.57 48.497 1.928 2.57-3.406 6.615-9.186 7.836-10.793s1.76-1.755 4.306-2.185c4.558-.77 7.163-1.187 11.113-1.864.064.514.064 1.157.064 1.543-.32.256-.642.706-.9.834 0 2.635.515 9.058 1.03 11.372.514-.065 1.156-.257 1.478-.322.9-.257 1.794 2.057.9 2.314zM461.616 398.457c.736-.02 2.274-.054 2.7-.064.834-.02 2.006-.594 2.52-1.88s2.106-6.036 2.684-8.028l-2.056-3.1c.45-2.556 1.028-6.022 1.092-6.73 1.03-.385 2.116-.77 2.63-.963.13-.58-.123-2.15-.642-2.665-8.8.336-35.134 1.25-39.954 1.315-1.157 0-1.676-.05-2.116 1.607-2.442 9.12.934 21.92 10.15 29.293.642.514 1.452.084.38-.9-1.538-1.414-3.916-4.307-5.522-7.164 1.8-.03 5.447-.09 6.54-.135.524 2.16 2.165 6.72 2.487 7.49s1.11.88.735-.27c-.885-2.7-1.35-5.776-1.735-7.254 1.67-.04 4.82-.01 6.748-.118.094 2.442.35 5.715.415 6.615s.836.964.85-.064c.02-1.028.04-5.374.025-6.655 2.175-.06 4.954-.153 5.982-.153-.143 1.39-.41 5.883-.51 6.595-.147 1.05.4 1.543.658.065s.772-4.935.915-6.685c.87-.025 3.16-.118 4.123-.143-.094 1.37-1.38 5.532-1.765 6.625s.238 1.127.673.094c.455-1.058 1.864-5.236 1.993-6.73z" fill="#cf6200"/><path d="M432.448 397.42c-.707-1.415-2.892-6.443-3.084-10.102 1.863-.035 6.525-.124 8.774-.173.332 2.76 1.182 8.7 1.632 10.11-2.63.065-5.843.15-7.322.164zm7.218-10.334c.242 2.106 1.345 9.34 1.523 10.174 1.907-.113 6.326-.128 7.093-.192-.08-1.93-.39-9.162-.425-10.19-1.998.054-7.188.183-8.192.208zm-9.936-8.95c-.357 1.85-.42 5.8-.322 7.486 2.25.045 7.786-.09 8.552-.153-.187-1.92-.49-5.39-.682-7.556-1.834.08-6.328.188-7.55.223zm9.194-.246c.065 1.8.465 6.2.594 7.544 1.943-.054 6.698-.153 8.305-.207-.084-1.647-.346-6.952-.376-7.595-2.58.07-6.886.233-8.523.257zm10.184-.297c.08 1.67.292 6.388.228 7.61 2.06-.056 6-.095 7.222-.194.094-1.677.366-6.468.238-7.69-2.314.09-6.002.214-7.688.273zm9.097-.346c0 1.414-.178 6.383-.243 7.732 2.042-.08 6.68-.243 7.885-.273.322-1.656.964-5.957 1.157-7.772-1.928.065-7.39.272-8.8.312zm7.96 9.146c-2.636.084-6.873.198-8.307.252-.222 3.254-.627 8.875-.82 10.16 2.318-.05 7.005-.197 8.033-.227.772-1.542 2.443-6.358 2.83-7.836-.58-.9-1.03-1.414-1.736-2.35zm-16.76.445c0 1.157.203 9.44.252 10.146 1.508-.05 5.423-.104 6.002-.17.29-3.222.73-9.397.81-10.17-2.67.076-5.29.155-7.065.194zm-34.11-1.978l-3.348.594c-1.542 2.492-7.257 10.2-7.964 11.1 3.98-.114 10.204-.233 11.702-.376-.11-2.067-.386-10.294-.39-11.317zm1.482-.296c.08 2.635.33 9.656.396 11.52 1.972-.114 5.606-.35 7.084-.48-.34-3.312-.964-11.223-1.093-12.187-1.656.302-4.91.875-6.387 1.147z"/><path d="M382.27 356.828c.45.005.51.39-.004.385l-37.957-.47c-.515-.004-.446-.39.004-.385l37.957.47zm24.88 269.696c.45.015.504.4-.01.385l-30.072-.826c-.515-.015-.44-.4.01-.386l30.07.826zm-55.558 32.958c.45.005.51.39-.005.385l-33.656-.247c-.513 0-.444-.386 0-.386l33.662.248zm26.307-28.795c.45 0 .513.386 0 .386l-35.205-.183c-.514 0-.445-.386.005-.38l35.2.177zm-3.212.178c.45.005.504.396-.005.386l-34.205-.513c-.514-.01-.445-.396.005-.386l34.205.515z" stroke-width="0.618" stroke="#000"/><path fill="#fff" d="M414.355 285.93c.45-.006.52.38.005.385l-29.355.282c-.514.005-.455-.38-.005-.386l29.355-.28z" stroke-width="0.618" stroke="#000"/><path d="M416.184 302.344c.45 0 .514.385 0 .385h-32.44c-.514 0-.45-.386 0-.386h32.44zm-.197 366.952c.45 0 .514.385 0 .385h-34.96c-.515 0-.45-.384 0-.384h34.96zm-24.903-47.876c.45.005.51.39-.005.386l-35.718-.35c-.514-.006-.445-.392.005-.387l35.717.35zm-33.417 74.68c.45.004.51.39-.005.385l-31.422-.208c-.514-.005-.445-.39.005-.385l31.422.207zm57.043-36.728c.45.005.51.39-.005.386l-27.62-.366c-.514-.005-.44-.39.01-.386l27.615.366z" stroke-width="0.618" stroke="#000"/><path d="M395.26 657.05c.157-.35.18-1.15.09-1.455a1.106 1.106 0 0 1-.648-.04 2.973 2.973 0 0 0-.34-.106c-.023.4-.17 1.425-.35 1.82-.313.09-.946-.014-1.306-.127l-.262.942a3.45 3.45 0 0 0 1.452-.01c-.035.602-.114 1.15-.44 1.527.532.012 1.007-.066 1.18-.252a.403.403 0 0 1 .054-.048c.245-.41.252-.944.31-1.304.182.013.416-.04.52-.143s.273-.156.442-.143c.154.012.394-.02.7-.143.007-.185.043-.385.106-.56.034-.094.07-.252.102-.443-.387.185-1.25.494-1.61.483z" transform="matrix(4.944 0 0 4.944 -1482.9 -2891.1)" stroke-width=".125" stroke="#000" fill="#ef072d"/><path d="M348.506 190.063c-3.91.114-12.423.193-14.213 1.197-1.784 1.008-2.57 1.453.56 2.012s8.423 2.047 11.325 3.836c2.902 1.785 5.334 4.95 4.533 9.463-2.397 13.563 4.692 26.606 14.965 31.525.994.475 1.23.836 1.01 2.68s-.896 4.92-1.455 5.7c-.558.786-.835 2.072.95 1.454-1.227 2.293-3.965 6.876-4.8 8.048-8.212-1.004-14.91.114-15.53 8.716-.058.84.23 2.18 1.51.06 1.284-2.126 2.738-4.14 6.253-4.697-2.067 3.184-2.734 6.036-2.398 7.88.33 1.845.836 2.962 1.73.614.895-2.343 2.54-4.538 4.3-5.868.67-.5 1.12-.613.614.84s.222 4.584 1.23 5.647c1.004 1.057 1.508.612 1.226-1.12-.277-1.734.16-5.358 2.29-6.485 3.07-1.617 5.694-.78 6.925 1.344 1.227 2.12 2.29.108.95-2.295s-2.738-4.078-4.973-4.247c1.958-3.465 4.247-7.658 4.75-8.494.5-.84 1.286-1.23 1.954-.726.673.504 1.118.445 1.79-.95.668-1.4 1.84-5.532 3.515-7.208.84-.227 2.18-.56 2.68-1.01 2.18 3.185 4.132 6.71 4.637 7.492.5.78 1.063 1.117.558 2.74s-2.234 6.762-2.51 7.88c-6.092.222-8.88.33-10.837 3.742-.856 1.488.504 2.067 1.957 1.286 1.45-.78 3.515-1.454 4.578-1.286 1.058.168 1.557.712.5 1.23-3.738 1.845-6.076 4.19-5.918 7.432.054 1.172.54 1.755 1.453.168 1.286-2.234 3.63-4.47 6.476-5.087-.17 2.74.45 6.763 2.12 7.604 1.676.837 1.795-.014 1.172-1.62-1.004-2.572.04-5.157 1.285-6.542 2.625-2.907 8.602 1.118 9.72 2.126 1.116 1.004 2.135 1.424 1.507-1.176-.84-3.46-5.754-5.474-9.942-6.032 1.172-5.646 4.3-17.048 5.977-20.958 2.456 1.34 4.374-2.195 8.487-.673 6.92 2.57 17.308 9.053 19.098 10.506 1.784 1.455 2.457 1.12 3.35.338.89-.78 2.458 0 3.684.222 1.23.223 2.347.56.78-2.57-1.562-3.13-5.358-8.608-11.726-12.855 3.797.336 8.938.336 8.938-.668 0-1.008-5.922-2.907-8.38-3.13 2.35-.558 5.923-1.903 7.594-3.8.994-1.124-.198-1.386-3.683-1.455-10.723-.223-16.08-.138-21.668-3.352-8.933-5.142-14.044-10.556-18.43-12.855-2.343-1.23-3.77-4.07-4.676-6.52-2.903-7.828-2.76-11.348-9.572-13.92s-14.648.58-18.222 3.818z" stroke-width="0.618" stroke="#000"/><path d="M370.55 623.56c-.35-.013-1.04-.096-1.61-.04-.13.014-.287.08.025.118s1.156.246 1.455.35.17.26-.09.195-.357.03-.144.182c1.105.78 1.222 1.08.936 3.755.208.143.377.247.56.338s.13.22-.066.17-.377.064-.065.13.455.207.157.194c-.3-.013-.65.247-.065.182.584-.065.818.208.13.22-.69.014-.43.235-.065.235.65 0 .454.18.286.18-.17 0-.247.222.182.183.428-.04.597-.052.753-.026s.22.155-.013.17c-.234.01-.22.18.13.18s.497.106.182.17c-.13.025-.31.09.065.142.65.09.676.246.468.272s-.234.143.065.17c.298.025.558.116.312.18-.247.066-.377.21-.066.235.313.026.573.143.34.22s-.287.222.012.21.416.155.208.27c-.208.118-.35.196-.48-.01-.13-.21-.208-.274-.247-.118-.04.154-.13.05-.234-.183s-.287-.3-.235-.117-.182.208-.403.117c.82.83 2.027 1.585 3.95.805.164-.066.195 0 .325.273s.494.87.624 1.092.234.022.3-.195c.26-.858.454-1.495.532-1.728.078-.234.442-.468.325.35.286-.195 1.553-.38 2.534-.013 1.08.404 2.163 1.03 2.717 1.444a.624.624 0 0 0 .493.143c.26-.026.325-.065-.17-.52-.492-.455-.284-.676.027-.455.312.22.48.09.247-.182s-.792-.805-.974-.935-.208-.182-.624-.208-1.3-.026-1.56-.026-.337.027.235.235c.572.207 1.742.96 2.002 1.143s.442.598-.13.234-2.365-1.48-3.56-1.897c-2.73.182-4.886.546-6.497-1.22-.772-.847-.806-2.782.493-3.588-.26-.22-.22-.35-.117-.403s.144-.104.04-.234c-.103-.13-.09-.246 0-.298-.285-.156-.415-.338-.402-.533-.35-.08-.507-.495-.975-.365s-.702.026-.844-.09c-.145-.118-.26-.17-.52-.144s-.47-.077-.482-.207.22-.193.572-.04c.74.326 1.338.482 1.793-.13.455-.61-.13-1.18-1-1.35-.87-.17-1.508.468-1.833.767z" transform="matrix(4.944 0 0 4.944 -1482.9 -2891.1)" stroke-width=".125" stroke="#000" fill="#fff"/><path d="M370.555 190.706c-1.296-1.404-3.6-2.7-4.75-3.085-1.158-.385-1.287.772-.644 1.35-.513.772-.706 2.636.194 3.15s.91 1.246.064 1.666c-1.285.643-.85 4.054 1.088 3.085.642-.32 1.157-.192 1.028.323s.13 1.156.707 1.285.515.964.387 1.285.064.45.706.515.707 1.606-.45 2.12c1.414 0 1.8-.256 2.186.9.384 1.152 1.927 1.41 1.927 2.824s-.257 1.67-1.928 1.414-2.315.257-2.83.9-.642 1.285.644 1.35 1.542.642.257 1.22-3.4.193-3.722 1.414c-.32 1.217 0 1.795.96 1.345.963-.445 2.955-1.28 3.727-1.73s1.478-.514 2.12.514.13 2.18-.964 1.284c-1.09-.9-1.605-.07-2.248.445s-1.607.835-2.635.835c-1.023 0-1.73.133-1.602 2.442.386 6.942 5.78 12.08 15.672 11.95s14.776-.257 16.254-.064c-3.276-1.8-5.333-2.764-6.49-2.635s-2.12.32-1.606-.58-.065-.9-.58-1.284-1.15-.9-2.18.193-3.47 2.313-4.69 2.57-2.7.193-1.543-.964 3.73-1.542 4.5-2.056.77-.83.77-1.217-.192-1.478 1.286-.642c2.952 1.67 7.58 4.172 8.8 4.108s2.057-.578.964-1.285-1.414-1.73-1.093-2.115.515-.772 2.443.32c1.923 1.09 5.072 2.503 6.23 3.017s2.698.32.32-1.414c-2.378-1.73-9.764-6.615-11.82-8.158s-1.157.322-.964.9-1.414 1.285-2.25.578-1.413-1.478-.257-2.12 1.413-.708-.322-2.25c-1.73-1.538-2.244-1.41-1.86-.13.387 1.287.515 2.7-1.284 1.994s-2.7-1.543-1.543-2.25c1.158-.702 2.636-1.087.708-2.694s-1.35 0-1.8.9-1.927.9-2.763.192-1.22-1.414-.642-1.992.514-.9 1.35-.45 2.12.193.578-1.157-2.12-.77-1.8 0-.898 2.122-2.82.322c-.916-.85-.9-1.992.063-2.185.96-.193 1.053-.692.38-1.67-3.915-5.716-2.308-10.344-6.228-14.58z" stroke-width="0.618" stroke="#000" fill="#fff"/><path d="M371.197 191.497c-.336.504-.46.484-1.082.9-.767.51-.94 1.967.346 1.794.89-.117 1.41-.646 1.76-1.076a11.137 11.137 0 0 0-1.023-1.617zm-4.004-3.214c-.99.96-1.162 1.39-.658 1.39.6 0 .34.084-.09.77-.424.688.86 1.03 1.376.515s.6-.687.856 0c.208.56 1.053.03 1.587-.51-.875-.845-2.052-1.626-3.07-2.165zm-1.78 5.537c-1.285.643-.85 4.055 1.088 3.086.643-.322 1.158-.193 1.03.32-.07.273-.026.585.118.83a5.956 5.956 0 0 0 2.13-1.536c1.202-1.37.084-1.285-1.71-1.285-1.8 0-2.314-.34-.603-1.37 1.532-.92.534-1.557-1.587-1.26.306.434.153.91-.465 1.216zm7.367 7.565c-.945-1.028-.347-1.542.68-2.057.253-.123.426-.28.55-.47-.292-1.132-.524-2.22-.83-3.277-.54.154-1.167 1.355-1.345 1.95-.257.854-.514 1.37-1.37 1.11-.76-.226-1.522.63-1.68 1.544.118.05.3.084.543.108.356.035.534.52.426 1.034 2.318-.074 2.714 1.528 3.11 2.625.43 1.203.943 1.03 1.285.347.34-.687-.43-1.884-1.37-2.912z" fill="#cf6200"/><path d="M373.422 214.833c-.42.95-.43.855-1.8.94-1.37.088-3.094.32-3.85 1.117-.41.425-2.78.54-2.784 1.582-.01 1.048 0 1.928 1.028 1.992 1.024.065 1.152.193.77.964-.39.772-.64 2.057 1.153 2.186 1.8.128 3.084-.45 3.534.573.45 1.03-.035 2.67.32 3.278s1.573 1 3.457 1.582c1.257.39 5.998.613 7.456.445 1.453-.173.91-1.043-.55-1.17-1.452-.13-2.525-.343-2.866-1.41-.34-1.073-.643-1.632.173-2.527.81-.9 1.626-1.587 1.157-3.085-.475-1.498-1.246-3.258-2.957-3.728-1.715-.47-1.17-2.813-2.872-3.04-.64-.085-1.195-.085-1.37.3z" fill="#ff0"/><path d="M365.117 228.775c1.473.13 2.758.58 1.542.9-1.222.322-1.865 1.03-.327 1.157 1.542.13 2.827.707 1.67 1.093s-1.413 1.092.065 1.028 2.056.77 1.028 1.345c-1.028.578-1.735.964-2.378-.06-.637-1.028-1.023-1.35-1.216-.578-.193.767-.643.257-1.157-.9s-1.414-1.478-1.156-.578-.9 1.028-1.994.578c1.078 1.093 2.29 2.156 3.668 3.056 1.577-.54 3.318-.1 3.91-.04.643.065 2.636.514 3.728 1.093s1.8-.45 1.35-1.608c-.45-1.152-.514-.766-1.093-.128-.58.642-.708-.258-.643-1.602.054-1.137-.707-.836-.964-.13s-.836-.45-.514-1.156-.066-.964-.644-.77-.643 0-.707-1.287-.644-1.093-.837-.58-.706-.192-1.478-1.22c-.672-.9-1.448-.37-2.793.163.168.1.475.183.935.222z" fill="#cf6200"/><path d="M380.738 236.735c-7.02 2.848-12.082 1.583-15.893-.944 1.577-.538 3.35-.078 3.945-.02.642.066 2.635.516 3.727 1.094s1.8-.45 1.35-1.607c.964 1.22 1.67 2.057 2.823 1.993 1.156-.065 3.084-.257 4.048-.515zM365.76 204.4c-.43-1.453-.856-1.8-1.627-1.71-.77.084-1.113-.09-1.973-.43-.855-.34-1.967.084-2.14 1.627s-1.113 2.314-2.398 3.253c-1.285.944-2.056 1.716-2.056 3.258s-.342 1.968-1.197 3.085c-.38.495-.92 1.058-1.425 1.652.554.346 1.073.647 1.617.914.9.45.643 1.092-.32.835s-1.865.32-.323.643 2.244 1.028.77.964c-1.478-.065-3.213 1.22-.32.9 2.886-.322 4.043 1.028.642 1.092-3.406.064-2.12 1.157-.322 1.157 3.21 0 2.245.9 1.414.9-.835 0-1.22 1.094.9.9.03-.004.054-.01.09-.01.306-.316.533-.71.7-1.21.342-1.03.683-4.03 1.885-4.885 1.195-.856 1.8-2.057 1.8-2.912s1.793-4.623 2.994-5.567 1.715-2.996 1.285-4.455z" fill="#ff0"/><path d="M363.238 204.45c-1.216-.81-2.398-.34-2.398 1.202s-.77 1.968-1.8 2.482c-1.022.514-1.967 1.8-2.14 3-.168 1.197.173 1.97-.682 2.913-.86.94-.944 1.71-.34 2.225.597.514.597.603.854 1.37.257.77 1.71-.085 1.71-.94s.347-.855 1.286-1.37c.944-.514 2.487-3 2.14-3.683-.34-.688-1.196-1.286-.083-2.23 1.112-.94 2.313-1.03 2.313-1.968 0-.945.34-1.286.682-1.627.346-.346-.77-.86-1.542-1.375z" fill="#cf6200"/><path d="M363.238 203.214c-.8-.31-1.28 1.37-.168 1.627s1.285-1.2.168-1.626zm-.198 2.176c-.85.104-1.8 1.22-.385 1.028s1.992-1.22.385-1.028zm-1.68 2.076c-.876.44-.708 1.607.578.772s1.606-1.864-.58-.772zm-1.385 1.78c-.88.435-.707 1.602.58.772 1.284-.836 1.605-1.864-.58-.772zM358.196 210.087c-.876.44-.322 1.607.964.77s1.22-1.863-.964-.77zm1.087 1.087c-.875.44-.32 1.607.964.772s1.22-1.864-.964-.772zM357.75 211.62c-.874.44-.32 1.606.965.77s1.22-1.863-.964-.77zm.99 1.235c-.88.44-.322 1.607.958.772 1.286-.836 1.22-1.864-.96-.772zM357.256 213.597c-.875.435-.32 1.602.964.766s1.22-1.86-.964-.766zM357.355 214.734c-.875.44-.32 1.607.964.77s1.22-1.862-.965-.77z"/><path d="M356.663 225.562c-.885.113-1.453 1.374-.34 1.63s1.37.342 1.37 1.198.344 2.057 1.54 2.14c1.202.09 2.23-1.285 1.202-1.71-1.028-.43-1.973-.77-2.057-1.716-.084-.94-1.028-1.626-1.715-1.542z" fill="#cf6200"/><path d="M388.203 218.195c.158.198.356.415.584.608.835.707 2.442 0 2.25-.578s-1.094-2.443.963-.9 9.442 6.427 11.82 8.158c2.378 1.735.835 1.928-.32 1.414s-4.307-1.93-6.23-3.016c-1.928-1.092-2.12-.706-2.442-.32-.272.32-.055 1.097.652 1.755-1.147.168-3.01-.084-3.544-1.306-.643-1.48-2.185-3.28-3.278-4.693-.405-.524-.524-.85-.455-1.122z" fill="#ff0"/><path d="M451.926 428.665c-1.602 1.093-3.722 3.02-2.313 5.716.168-.09.326-.192.49-.286 6.282-7.604 11.66-15.6 16.27-23.905.053-.287.102-.56.137-.797-1.8 1.543-4.627 3.08-5.784 3.466.77 2.056-2.823 4.755-4.75 5.527.77 1.285.513 3.213-1.158 3.6.386 1.15-.9 1.15-2.442 1.794s-2.314 1.158-2.823 1.93c.83-.45 1.988-.837 2.63-.644s.77 1.157-.385 1.414-1.923.9-2.314 1.414c1.67-.643 4.05-.32 2.442.77z" fill="#00d860"/><path d="M375.745 215.822c-1.898-1.656-2.378-.643-1.606.386s.19 1.542-1.48 1.8-4.177.578-5.205.578-2.245 1.414.193 1.285c2.442-.127 6.555-.963 7.647-1.413s1.988-1.285.45-2.635zm3.933 415.505c-1.567-1.41-2.12-1.028-1.736 0s-.32 1.22-1.344 1.543c-1.028.32-5.077 1.67-6.812 1.864s-2.12 1.414.45 1.35 7.514-2.122 8.092-2.507.77-1.157 1.414-.772 1.22-.32-.064-1.478zm-1.772 1.777c-1.137.677-3.98 1.923-5.136 2.244s-2.12 1.607.32 1.414c2.44-.193 5.33-2.442 6.102-2.887.77-.45 1.157-.77 1.8-.707s1.8-.836-.322-1.993-3.406-.578-2.378.322.257 1.22-.386 1.607z" stroke-width="0.618" stroke="#000"/><path d="M360.618 190.508c-3.14-2.062-6.723 2.26-3.253 4.628 3.04 2.076 6.254-2.655 3.253-4.628z"/><path d="M356.712 192.387l.93.064c-.193.96.77 2.41 2.25 2.053-1.187.9-3.5-.13-3.18-2.116zm12.162 46.82c.95.277 4.246.614 5.363.668-.558 1.177-1.062 1.958-1.4 2.798-.335.836-.498.895-.557-.39-.055-1.29-.78-2.126-1.45-.786-.67 1.344-1.007 1.844-1.34 2.402-.335.56-.84.786-.67-.614s.113-2.852.054-4.08z" fill="#fff"/><path d="M492.91 276.93c-.23 80.748-12.968 167.74-117.48 209.176C270.91 444.67 258.17 357.678 257.943 276.93H492.91zm-93.24 363.84c.09-30.416-1.602-59.947-.83-85.825-39.055-17.477-90.444-21.07-116.65-21.07-26.21 0-77.6 3.593-116.654 21.07.77 25.878-.914 55.41-.83 85.825H399.67z" stroke="#000" stroke-width="1.236" fill="none"/></g></svg>