<svg xmlns="http://www.w3.org/2000/svg" height="512" width="512" viewBox="0 0 512 512"><defs><clipPath id="a"><path fill-opacity=".67" d="M60.224 0h497.33v497.33H60.224z"/></clipPath></defs><g fill-rule="evenodd" clip-path="url(#a)"><path fill="#fff" d="M-62 0H962.5v512.25H-62z"/><path fill="#de2918" d="M-62 341.497H962.5V512.25H-62z"/><path fill="#08399c" d="M-62 170.753H962.5v170.754H-62z"/><path d="M228.5 93.023c-4.02 61.682-6.324 95.483-15.718 111.117-10.154 16.797-20.033 29.095-59.657 43.904-39.624-14.81-49.504-27.107-59.66-43.904C84.076 188.5 81.77 154.7 77.75 93.023l5.857-1.972c11.788-3.594 20.583-6.486 27.09-7.77 9.317-1.972 17.236-4.202 42.276-4.724 25.043.43 33 2.8 42.318 4.77 6.452 1.377 15.625 4.084 27.326 7.75l5.886 1.947z" fill="#de2918"/><path d="M222.728 91.004c-3.804 61.55-6.985 89.736-11.948 103.288-9.63 23.206-24.88 35.927-57.693 48.062-32.814-12.135-48.06-24.857-57.69-48.06-4.965-13.553-8.1-41.66-11.794-103.35 11.54-3.606 20.585-6.422 27.092-7.706 9.317-1.973 17.236-4.296 42.276-4.727 25.043.432 33.054 2.755 42.37 4.728 6.508 1.284 15.742 4.1 27.39 7.767z" fill="#08399c"/><path d="M153.054 109.84l1.574 3.726 6.913.947-4.48 2.702 4.333 2.894-6.3 1.056-1.918 3.375-2.156-3.475-5.998-.85 4.082-2.96-4.203-2.69 6.64-1.02 1.514-3.704z" fill="#fc0"/><path d="M208.413 179.708l-3.833-3.03-2.77-4.556-5.424-4.706-2.828-4.755-5.425-4.854-2.654-4.754-2.885-2.33-1.905-1.83-4.9 4.296-2.67 4.667-3.33 3.018-3.656-2.857-2.765-4.868-10.264-18.226-10.265 18.226-2.763 4.868-3.657 2.857-3.328-3.018-2.672-4.667-4.9-4.297-1.905 1.833-2.884 2.33-2.653 4.753-5.425 4.855-2.827 4.756-5.425 4.706-2.77 4.557-3.822 3.1c1.984 16.893 12.754 30.13 18.622 36.185 6.548 6.358 20.048 14.865 36.557 20.496 16.556-5.51 30.244-14.137 36.79-20.495 5.87-6.055 16.64-19.292 18.636-36.257z" fill="#fff"/><path d="M169.558 83.93l1.573 3.725 6.915.948-4.48 2.7 4.33 2.897-6.298 1.055-1.918 3.375-2.157-3.476-5.998-.85 4.082-2.96-4.202-2.692 6.638-1.018 1.514-3.703zm22.26-2.502l1.575 3.726 6.913.947-4.48 2.702 4.332 2.896-6.3 1.056-1.917 3.374-2.155-3.475-5.998-.85 4.082-2.96-4.203-2.692 6.638-1.017 1.514-3.704z" fill="#fc0"/><path d="M199.846 203.13l-7.473.023-6.895-.513-8.35-4.096-9.415.056-8.153 3.983-6.43.57-6.43-.57-8.153-3.983-9.414-.056-8.35 4.096-6.896.513-7.565-.104-3.655-6.19.136-.142 11.178 1.848 6.895-.512 8.352-4.097 9.414.057 8.153 3.983 6.43.568 6.43-.568 8.153-3.983 9.415-.057 8.352 4.097 6.895.512 10.88-1.907.143.285-3.644 6.185zm-32.142 3.6l7.396-.514 8.353-4.096 9.413.057 8.152 3.983 6.43.568 6.43-.568 8.153-3.983 9.416-.057 8.35 4.096 7.498.513 4.837-5.964-.162-.133-5.183 1.51-6.894-.513-8.352-4.097-9.413.057-8.152 3.983-6.43.57-6.43-.57-8.153-3.983-9.414-.057-8.352 4.097-6.895.513-5.08-1.28-.062.25 4.546 5.616z" fill="#08399c"/></g></svg>