<svg xmlns="http://www.w3.org/2000/svg" height="512" width="512" viewBox="0 0 512 512"><defs><clipPath id="a"><path fill-opacity=".67" d="M0 0h450v450H0z"/></clipPath></defs><g clip-path="url(#a)"><path d="M0 0h768.015v256.005H341.34L0 0z" fill-rule="evenodd" fill="#ed2939"/><path d="M0 512.01h768.015V256.005H341.34L0 512.01z" fill-rule="evenodd" fill="#002395"/><path d="M0 0l341.34 256.005L0 512.01V0z" fill-rule="evenodd" fill="#fff"/><path fill="#ff0" d="M172.285 193.254l.104-3.964s-2.128-3.39.34-7.033c0 0-5.247-2.776-4.025-7.123 0 0-4.745-1.214-4.396-6.434 0 0-5.124-.356-5.654-4.716 0 0-5.122.843-7.376-3.405 0 0-4.995.975-6.406-2.527 0 0-4.856 1.682-7.738-2.435 0 0-5.13 2.07-7.28-1.815-2.12 3.873-7.25 1.814-7.25 1.814-2.846 4.103-7.738 2.4-7.738 2.4-1.36 3.516-6.343 2.52-6.343 2.52-2.247 4.25-7.362 3.404-7.362 3.404-.502 4.35-5.617 4.705-5.617 4.705.405 5.232-4.333 6.42-4.333 6.42 1.248 4.346-3.993 7.115-3.993 7.115 2.534 3.664.427 7.027.427 7.027l-.12 3.656 84.77.39"/><path d="M172.16 193.07l.103-3.964s-2.127-3.39.343-7.032c0 0-5.247-2.775-4.026-7.122 0 0-4.745-1.214-4.395-6.433 0 0-5.12-.356-5.65-4.715 0 0-5.12.843-7.374-3.405 0 0-4.994.976-6.403-2.526 0 0-4.856 1.683-7.737-2.435 0 0-5.127 2.07-7.277-1.814-2.12 3.872-7.247 1.813-7.247 1.813-2.847 4.102-7.736 2.4-7.736 2.4-1.36 3.515-6.342 2.518-6.342 2.518-2.246 4.25-7.36 3.403-7.36 3.403-.502 4.35-5.615 4.703-5.615 4.703.404 5.233-4.332 6.42-4.332 6.42 1.25 4.346-3.99 7.115-3.99 7.115 2.533 3.662.426 7.025.426 7.025l-.12 3.655 84.747.39h-.014z" stroke="#000" stroke-width="0.310566" fill="none"/><path fill="#f00" d="M170.313 188.302c-13.315-1.332-28.647-4.494-40.48 2.17-7.935-4.675-18.982-4.388-28.388-3.473-5.107.912-11.116.912-16.454 1.785l-.836.117c-9.686.643-18.47-2.22-26.887-5.98 2.672 15.17 5.637 30.716 7.096 46.597 3.175 23.52-11.13 43.266-5.26 66.5 3.5 11.152 15.762 17.633 26.983 18.917 10.866.642 22.107 2.422 32.163 4.605 1.91.398 4.178 1.286 5.497 1.856 2.77 1.158 4.802 2.86 6.58 4.683 6.072-6.322 14.97-8.08 23.747-9.008 15.82-1.85 35.323-.843 45.01-15.175v-.81c5.26-7.926 4.562-20.017 2.28-28.998-.153-3.133-.99-5.897-1.445-8.883-9.665-25.524-1.39-54.228 2.77-79.955-5.08 2.776-10.745 4.088-16.398 5.477-4.508.6-9.53.328-14.095.082l-1.89-.508"/><path fill="#80cfe1" d="M190.19 261.557c-.062 1.68.844 3 1.172 4.556 1.85 11.157 3.636 25.935-7.85 32.858-12.708 8.08-29.372 4.62-44.075 8.896-2.937.817-6.985 3.517-9.05 5.428-1.326-.87-2.66-2.212-4.37-3-12.098-6.432-27.827-4.277-41.483-7.752-6.86-2.17-14.012-7.514-15.75-14.534-4.465-18.42 6.232-34.12 4.97-52.392-.818-13.955-3.163-27.352-6.386-40.434 10.677 4.974 23.035 5.805 35.037 3.42 8.89-1.244 19.24-1.27 27.572 2.49 4.59-1.976 9.964-2.862 14.912-3.406 9.406.915 19.516 2.617 29.203 2.547 6.47-.335 12.345-2.206 17.97-4.696-3.337 21.624-9.743 44.273-1.88 66.02"/><path fill="#fff" d="M170.99 265.867l-.106-20.332h2.505l-31.08-20.074-.058-10.43h3.002l-15.54-11.128-15.464 11.12h2.992l.057 10.425-30.915 20.048 2.47.012.105 20.32 82.022.055"/><path d="M170.864 265.668l-.104-20.33h2.504l-31.072-20.07-.056-10.427h3L129.6 203.714l-15.46 11.12h2.992l.058 10.423L86.284 245.3l2.47.012.104 20.315 81.998.057.007-.016z" stroke="#000" stroke-width="1.3339439999999998" fill="none"/><path fill="#fff" d="M180.55 292.574l.006 6.362-100.128-.11-.042-6.336 100.17.084"/><path d="M180.42 292.37l.008 6.36-100.1-.11-.04-6.335 100.142.085h-.007z" stroke="#000" stroke-width="1.3339439999999998" fill="none"/><path fill="#fff" d="M87.077 292.196l-.083-21.533 4.054-.008-.223 21.783.243-21.607-5.84-.167v-4.62l89.488.1.04 4.576h-5.518l.104 21.804-.196-21.805h4.11l.092 21.558"/><path d="M86.977 291.992l-.084-21.53 4.052-.007-.222 21.78.244-21.605-5.84-.167v-4.618l89.462.097.04 4.577h-5.517l.104 21.8-.195-21.8h4.11l.09 21.554M106.207 286.686l-.064-15.013H94.13l.07 14.998 12.007.016M97.405 274.802l.035 8.72h5.497l-.028-8.72h-5.505m67.523 11.93l-.07-14.998-11.97-.014.055 15.012h11.985" stroke="#000" stroke-width="1.3339439999999998" fill="none"/><path d="M156.126 274.86l.063 8.69h5.49l-.05-8.69h-5.504m8.71-12.573l-.07-15.013H152.78l.042 15.013h12.02-.007zM156.035 250.426l.034 8.707h5.49l-.007-8.707h-5.518m-49.932 11.804l-.083-14.985-11.992-.015.056 14.992h12.02v.008zM97.302 250.37l.028 8.69 5.504.015-.04-8.706H97.3m30.54 11.883l-.055-14.985-12-.014.05 14.998h12.006M119.053 250.392l.028 8.692 5.498.028-.034-8.72h-5.49m25.544 11.895l-.084-15.013-11.992-.014.056 14.998 12.02.028M135.796 250.403l.04 8.72h5.5l-.03-8.72h-5.51" stroke="#000" stroke-width="1.3339439999999998" fill="none"/><path fill="#fff" d="M147.696 257.878l.132 34.615-34.772-.057-.125-34.585 34.76.028"/><path d="M147.577 257.68l.133 34.61-34.762-.058-.126-34.58 34.748.03h.007zm173.18 651.69l34.997.026m-30.632 24.692l-.118-24.458m26.613 24.47l-.118-24.444m16.906-24.904l-19.575-14.295-21.994-.027-19.42 14.266 60.99.055m-39.88-26.16l.034 8.72 18.5.013-.034-8.72-18.5-.014M125.402 218.946l.028 4.345h8.497l-.03-4.344h-8.495m4.206-12.09l10.29 7.274-20.503-.026 10.213-7.25" stroke="#000" stroke-width="1.3339439999999998" fill="none"/><path fill="#fff" d="M171.333 202.114c2.924-.07 3.678 12.044 3.685 18.045 2.512.704 8.08 4.206 10.544 7.374l-28.25-.042c2.43-3.126 7.957-6.643 10.448-7.347 0-6.008.614-18.114 3.572-18.043"/><path d="M171.208 201.928c2.922-.07 3.676 12.04 3.683 18.04 2.512.705 8.08 4.207 10.542 7.373l-28.24-.04c2.427-3.125 7.953-6.64 10.444-7.346 0-6.006.614-18.11 3.572-18.04m-56.762 56.73h2.533l-.74 1.358s1.22 1.57.02 3.37l.663 1.25h-2.44l.66-1.187s-1.248-2.086.056-3.433l-.754-1.36m5.157 0h2.533l-.734 1.36s1.222 1.53.01 3.37l.654 1.25h-2.435l.656-1.187s-1.22-2.086.063-3.433l-.747-1.36m5.64 0h2.524l-.754 1.36s1.236 1.57.02 3.37l.664 1.277-2.42-.028.65-1.187s-1.237-2.07.047-3.433l-.74-1.36h.008zm217.336 641.71h2.545l-.746 1.376s1.22 1.54.006 3.348l.683 1.27h-2.457l.657-1.187s-1.222-2.1.084-3.433l-.768-1.374h-.007zm4.84-.002h2.526l-.748 1.375s1.23 1.542.014 3.34l.67 1.277h-2.435l.635-1.186s-1.227-2.085.098-3.432l-.76-1.374m5.615.01l2.526-.012-.746 1.374s1.25 1.542.034 3.348l.636 1.27h-2.442l.656-1.186s-1.22-2.086.083-3.432l-.745-1.36" stroke="#000" stroke-width="1.3339439999999998" fill="none"/><path fill="#ff0" d="M130.477 336.864c13.02.042 29.037-2.617 36.537-6.495l16.476-1.46.327 20.102c-13.956 7.695-46.18 9.35-53.272 9.294-7.095.055-39.718-1.626-53.738-9.35l.182-20.116 16.51 1.486c7.5 3.86 24.004 6.538 37.01 6.538h-.033"/><path d="M130.364 336.65c13.018.043 29.027-2.615 36.527-6.493l16.47-1.46.33 20.1c-13.954 7.694-46.17 9.348-53.256 9.29-7.096.058-39.71-1.624-53.724-9.345l.18-20.113 16.507 1.485c7.5 3.858 23.997 6.536 37 6.536h-.034" stroke="#000" stroke-width="0.310566" fill="none"/><path fill="#ff0" d="M34.392 251.116l14.515 4.62-4.39 23.5-13.74 2.134s-2.316-12.358 3.615-30.27"/><path d="M34.306 250.92l14.51 4.618-4.387 23.496-13.737 2.134s-2.316-12.355 3.613-30.263v.014z" stroke="#000" stroke-width="0.310566" fill="none"/><path fill="#7e7e7e" d="M44.514 278.98l-13.733 2.393 8.69-12.356 5.044 9.962"/><path d="M44.426 278.778l-13.73 2.393 8.686-12.354 5.044 9.962" stroke="#000" stroke-width="0.310566" fill="none"/><path fill="#ff0" d="M25.714 268.045l13.99 1.01c.315 11.856 1.753 57.098 55.777 59.553l-1.68 16.46c-65.762.683-70.76-55.49-68.087-77.023"/><path d="M25.63 267.846l13.988 1.01c.314 11.853 1.75 57.086 55.76 59.542l-1.68 16.456c-65.744.683-70.74-55.48-68.067-77.008zm275.02 720.894l16.485-3.6" stroke="#000" stroke-width="0.310566" fill="none"/><path fill="#ff0" d="M225.416 251.288l-14.458 4.577 4.586 23.465 13.767 2.21s2.212-12.348-3.894-30.266"/><path d="M225.276 251.09l-14.455 4.577 4.585 23.46 13.764 2.213s2.21-12.348-3.894-30.263v.014z" stroke="#000" stroke-width="0.310566" fill="none"/><path fill="#7e7e7e" d="M215.536 279.083l13.767 2.47-8.806-12.363-4.96 9.893"/><path d="M215.397 278.882l13.764 2.47-8.803-12.362-4.96 9.892" stroke="#000" stroke-width="0.310566" fill="none"/><path fill="#ff0" d="M234.255 268.228l-14.01.956c-.204 11.84-1.237 57.103-55.262 59.504l1.836 16.445c65.746.76 70.27-55.388 67.436-76.91"/><path d="M234.112 268.03l-14.008.956c-.203 11.838-1.234 57.09-55.244 59.49l1.835 16.444c65.73.758 70.25-55.377 67.417-76.898v.006zm146.476 720.767l-16.525-3.61" stroke="#000" stroke-width="0.310566" fill="none"/><path fill="#009fc5" d="M106.988 304.77c-.325.21-.767.264-1.276.24l-2.293-.117.195-2.863 2.275.122c.448.03.804.117 1.024.25.46.24.663.682.62 1.295-.03.527-.215.87-.552 1.073m-3.852 4.508l.227-3.49 2.674.185c.866.067 1.51-.16 1.945-.602.454-.43.687-.992.718-1.63.055-.742-.135-1.35-.577-1.797-.423-.43-1.024-.656-1.778-.73l-3.82-.238-.528 8.217 1.134.074m8.327-6.863l2.798.03c.405.037.724.086.957.197.43.202.63.607.63 1.195 0 .553-.16.92-.47 1.142-.3.2-.737.293-1.258.293l-2.686-.03.025-2.827m-.043 7.28l.025-3.51 2.625.038c.466 0 .81.038 1.048.154.387.178.577.553.595 1.067l.068 1.38c.018.332.024.535.043.67.036.097.055.202.104.276h1.41l-.024-.18c-.16-.084-.288-.25-.344-.5-.05-.16-.073-.4-.085-.7l-.025-1.098c-.018-.497-.104-.84-.294-1.03a1.47 1.47 0 0 0-.742-.528c.392-.208.687-.447.9-.742.204-.325.308-.736.308-1.238 0-.944-.387-1.59-1.172-1.938-.423-.19-.962-.29-1.6-.3l-3.944-.038-.03 8.242h1.134m8.754-1.742c-.503-.613-.773-1.38-.834-2.287-.055-1.14.166-2.012.687-2.6.526-.64 1.207-.945 2.096-.994.896-.05 1.632.24 2.178.803.558.552.877 1.32.932 2.276.03.92-.13 1.735-.552 2.452-.417.73-1.11 1.14-2.134 1.165-1.068.055-1.865-.196-2.374-.816m-1.35-5.188c-.527.815-.74 1.76-.686 2.9.08 1.233.46 2.25 1.177 3.018.798.766 1.853 1.152 3.153 1.08 1.392-.063 2.44-.59 3.152-1.558.577-.877.853-1.896.79-3.153-.08-1.122-.403-2.036-1.01-2.717-.767-.913-1.89-1.318-3.41-1.256-1.436.09-2.49.618-3.17 1.686m38.732-11.858c.79-.135 1.478-.097 2.104.117.92.288 1.54.97 1.926 2.01l-1.135.16c-.246-.563-.596-.95-1.068-1.164-.46-.2-1.037-.25-1.7-.152a2.645 2.645 0 0 0-1.827 1.122c-.43.662-.558 1.545-.368 2.673.16.933.503 1.723 1.068 2.25.52.54 1.288.73 2.287.59.748-.123 1.35-.423 1.773-.94.44-.49.57-1.23.423-2.188l-2.643.405-.135-.907 3.68-.565.717 4.36-.73.11-.454-1.005c-.306.454-.613.804-.883 1.005-.454.357-1.067.584-1.834.694-.993.153-1.9-.025-2.723-.552-.9-.67-1.484-1.662-1.705-3.042-.24-1.355-.024-2.514.6-3.428.596-.883 1.46-1.398 2.626-1.564m8.322-.622l2.637-.957c.362-.134.675-.178.945-.147.484.037.84.325 1.043.9.19.49.19.92-.024 1.222-.227.312-.583.54-1.098.73l-2.477.89-1.024-2.638m2.638 6.813l-1.288-3.305 2.453-.884c.46-.147.778-.227 1.017-.202.435.055.767.32.987.822l.558 1.257c.123.313.22.503.3.59.038.11.117.177.18.25l1.33-.49-.074-.178c-.196 0-.386-.11-.527-.326-.104-.15-.202-.372-.343-.63l-.435-1.03c-.197-.448-.4-.723-.632-.89a2.104 2.104 0 0 0-.877-.238c.27-.314.466-.626.54-.994.08-.374.043-.79-.135-1.257-.338-.876-.957-1.354-1.828-1.415-.46-.037-.987.06-1.594.275l-3.705 1.32 2.994 7.75 1.086-.4m9.638-4.106l-4.704-6.863 5.164-3.292.57.828-4.232 2.704 1.448 2.097 3.906-2.514.534.803-3.907 2.515 1.595 2.313 4.305-2.754.57.81-5.256 3.354m4.128-12.14l1.35-1.483c.625-.662 1.287-.962 2.01-.876.725.06 1.46.44 2.246 1.128.215.166.405.38.6.62.344.447.547.84.676 1.232.11.49.085.94-.086 1.368-.105.214-.29.466-.565.767l-1.356 1.47-4.876-4.237m7.127 3.23c.957-1.053 1.165-2.188.607-3.47a5.86 5.86 0 0 0-1.51-1.956c-.863-.767-1.765-1.16-2.716-1.232-1.054-.08-1.95.3-2.73 1.152l-2.3 2.465 6.343 5.532 2.3-2.477m4.918-6.406L187 273.416l.595-.944 7.31 4.263-.6.98m2.855-4.988l-7.882-3.153 2.325-5.544.957.368-1.896 4.57 2.374.932 1.772-4.208.908.375-1.754 4.2 2.656 1.08 1.944-4.624.956.362-2.367 5.643m3.623-9.68l-8.292-1.835.276-1.282 7.66-2.588-6.727-1.484.245-1.005 8.292 1.785-.264 1.244-7.672 2.643 6.728 1.454-.24 1.067m-.66-10.528l.104-1.042c.478.013.883-.062 1.19-.226.6-.326.95-.945 1.042-1.86.037-.428.018-.803-.08-1.158-.178-.686-.564-1.067-1.183-1.13-.46-.048-.792.063-1.03.315-.215.288-.442.704-.614 1.294l-.38 1.084c-.245.71-.472 1.2-.717 1.477-.392.517-.944.695-1.65.646-.754-.08-1.367-.38-1.803-.957-.448-.528-.63-1.282-.52-2.215.072-.852.355-1.57.858-2.146.466-.528 1.19-.78 2.115-.682l-.085 1.042c-.454 0-.816.08-1.08.264-.478.264-.742.822-.822 1.637-.067.676.025 1.13.282 1.474.258.288.583.47.963.502.406.037.725-.092.946-.404.16-.215.35-.682.607-1.436l.374-1.14c.184-.528.405-.932.662-1.22.46-.48 1.06-.68 1.815-.626.92.098 1.576.48 1.913 1.178.33.705.46 1.484.38 2.367-.104 1-.43 1.784-1.03 2.312-.6.54-1.35.723-2.257.65m-171.888-.504l.19 1.03c-.46.09-.828.276-1.098.515-.484.453-.65 1.134-.484 2.06.073.392.214.78.392 1.086.368.625.846.876 1.454.778.447-.08.742-.25.883-.57.134-.313.232-.79.262-1.404l.056-1.16c.036-.717.116-1.28.276-1.594.25-.564.723-.914 1.43-1.03.753-.135 1.415.037 1.986.466.576.4.957 1.092 1.098 2.01.177.842.098 1.596-.233 2.276-.32.663-.933 1.067-1.87 1.24l-.185-1.043c.435-.16.76-.313.975-.527.368-.412.48-1.006.337-1.82-.11-.664-.337-1.094-.68-1.308-.338-.252-.675-.35-1.043-.288-.41.062-.68.288-.81.656-.08.245-.14.754-.197 1.533l-.055 1.2c-.03.565-.116 1.03-.307 1.35-.3.59-.81.95-1.55 1.067-.94.16-1.662-.055-2.177-.656-.528-.588-.853-1.293-1.018-2.17-.184-1.043-.05-1.852.368-2.502.423-.668 1.09-1.054 2-1.183m-.525 10.857l8.108-2.44 1.89 5.708-.99.313-1.544-4.69-2.466.74 1.43 4.336-.945.3-1.416-4.347-2.747.82 1.57 4.796-.97.276-1.92-5.814m3.598 9.903l7.457-3.955.798 1.392-5.128 5.42 7.49-1.28.772 1.38-7.44 3.93-.527-.914 4.39-2.31c.16-.094.406-.23.76-.418.35-.16.744-.375 1.136-.577l-7.458 1.27-.545-.97 5.09-5.402-.245.124c-.16.09-.436.227-.81.44a6.133 6.133 0 0 1-.822.442l-4.38 2.35-.54-.932M45.2 283.766c-.374-.085-.742-.3-1.104-.675l-1.576-1.624 2.122-1.944 1.588 1.62c.307.3.503.594.608.846.147.484 0 .926-.448 1.342-.405.374-.81.528-1.19.436m-5.992.754l2.6-2.385 1.847 1.87c.595.607 1.202.883 1.84.87a2.595 2.595 0 0 0 1.698-.74c.553-.492.817-1.068.817-1.687-.006-.602-.282-1.165-.79-1.693l-2.65-2.705-6.17 5.667.797.803m7.455 6.62l4.47-7.01 5.286 3.214-.55.835-4.344-2.6-1.343 2.12 3.992 2.422-.515.804-4-2.41-1.52 2.373 4.397 2.642-.527.828-5.348-3.22m13.227-1.35l2.687.853c.38.116.656.263.84.43.343.324.435.79.233 1.354-.166.49-.417.81-.81.945-.35.06-.79.06-1.306-.1l-2.532-.808.89-2.674m-2.32 6.887l1.117-3.342 2.503.815c.447.117.772.277.932.442.306.276.398.687.245 1.196l-.374 1.33c-.085.325-.128.54-.165.638 0 .105 0 .215.02.288l1.317.43.08-.19c-.14-.11-.22-.313-.215-.564.03-.154.074-.4.16-.682l.32-1.067c.128-.465.177-.814.06-1.065a1.683 1.683 0 0 0-.54-.73c.418-.074.78-.203 1.086-.43.288-.25.534-.6.68-1.09.3-.89.136-1.632-.527-2.197-.33-.293-.803-.545-1.423-.778l-3.753-1.16-2.625 7.82 1.098.337" transform="scale(1.138)"/><path fill="#bc715f" d="M78.47 175.69c1.104-2.66 11.322-9.91 44.85-6.735 0 0 5.667 3.462 8.996 3.016 1.9-.244-1.117.118-3.595-1.94-2.525-2.058-3.062-6.28 2.71-6.168 5.743.147 27.247 1.36 27.652 3.293.376 1.954-11.37 2.77-15.738 2.658-4.39-.117-3.88 2.102.49 1.935 13.65-.49 28.55-5.298 44.29 5.833 1.876 1.356-4.747 1.572-9.87-.606 0 0-13.884.72-19.884-.264 0 0-4.614 3.753-10.623 3.384.78 1.946-2.22 9.212-21.113 3.746-3.12.958-14.49 2.863-13.246-.515-2.995 0-8.244.964-9.024-.74-.755-1.675 9.24-4.208 10.993-6.022 0 0-21.142.203-25.148-1.256 0 0-12.473 2.798-11.74.37"/><path fill="#008737" d="M85.248 205.29c.453-.613.633-1.715 1.597-1.687 2.094.558 3.517 4.39 6.093 1.905.914-.203 1.263 1.04 2.017 1.187.48 2.128 2.192-.433 3.468-.287 2.73-1.214 6.108-1.5 9.34-.9.097 2.086-1.536 4.39-3.588 5.576.042 2.1 1.947 3.448 1.912 5.562-.328.788-.056 2.03-1.25 2.288-1.513-.272-3.008-.432-4.264-1.277-.154-.153-.28-.454-.6-.356-.153.707.95 1.404 1.382 2.123-.76 1.298-2.024.112-3.084.126-.314.745-.014 1.687-.782 2.17-1.34-.043-1.612-1.5-2.435-2.227-.845.914.592 1.46.796 2.185-.52 2.748-.448 5.435-3.2 7.236l-1.84.914c-.504-1.38-.19-3.475-.524-4.92-1.09 1.772-1.94 3.324-3.54 4.822-1.87-.614-2.958-2.818-3.37-4.647-.78-2.128-.335-4.676 1.347-6.218-.572-1.117-2.533-.858-2.812-2.45-2.938-1.91-4.564 3.35-6.463.615-.614-2.555.12-5.73 1.97-7.636-.413-1.046-1.78-.774-2.59-1.373-1.85-1.57-4.517-3.23-4.384-6.065 5.06-1.912 11.112-.51 14.79 3.336"/><path fill="#ff0" d="M87.872 205.005c-.12 2.316 1.563.627 2.813 2.03-.978-.384-1.69 1.69-2.645.502l-.6.574c.35.795 1.026.9.32 1.772-1.047.4-1.256-.913-1.744-1.43-.084-.23.16-.663-.223-.817-.593.502-1.215.683-2.032.6-.222-.446-.654-1.033-.215-1.374.802-1.08 2.045.39 2.652-.37.098-.67-.49-1.485.273-1.947.523.09 1.192-.193 1.41.462m6.252 1.903c.064.447-.23 1.074.356 1.388.76-.412 1.57-.098 2.01.657-.007.404.12.934-.41 1.13l-1.188-.222c.084-.23-.294-.377-.44-.6-.523-.16-.83.265-1.22.523.292.447.97.69.81 1.264-.7.697-1.04-.6-1.81-.273-.523-.202.19-1.29-.634-1.62-.977 0-.328 1.606-1.578.98-.446-.504-.886-1.18-.404-1.746.524-.35 1.41-.26 1.855.194.762-.842.838-4.103 2.66-1.674m-7.804 3.36c.51.732-.112 1.73.538 2.546 1.018-1.905 2.003.412 3.217.23.37.454.126 1.082.197 1.6-1.5.397-3.31.87-4.635-.33l-.37.425c.788.733 1.536 1.563.908 2.79-1.124.246-2.862.274-3.428-.884-.292-.956.684-1.647-.348-2.415-.748.928-.712 2.172-2.27 1.327-.962-.53-1.248-1.626-.766-2.547 1.005-1.584 2.763.05 3.852-.726.154-1.36-.35-2.547.9-3.3 1.07-.19 1.564.613 2.212 1.283"/><path fill="#fff" d="M90.59 211.104c-.503 2.317-2.248-.12-3.064-.217 1.09-1.932 1.773.63 3.063.217m5.434 2.52c-1.214.343-1.026-1.17-1.627-1.765l.47-.426c.438.53.773 1.487 1.157 2.19"/><path fill="#ff0" d="M94.385 213.155c.35.803-.79 1.446.182 2.032.307-.26.682-.615.844-.762.832.246 1.795.392 2.374 1.215.62 1.703-1.104 1.66-2.08 2.136l-.97-.042c.23-.475-.42-.678-.58-1.004-.447-.112-.816.027-1.068.404.216 1.08 1.536 1.925.175 2.89-1.15-.077-2.937.37-2.832-1.223-.433-.898 1.172-2.288-.545-2.343-.566 1.215-1.186 2.386-2.66 1.236l.182-1.73c1.41.04 3.08.284 3.714-1.292.403-1.144-.707-2.197.284-3.106 1.44-.327 2.248.637 2.98 1.59"/><path d="M93.352 215.758c.365.86-.614.915-1.074 1.34-.62.05-1.054-.195-1.43-.614-.28-1.04.495-1.145 1.088-1.556.69-.286.977.516 1.416.83"/><path fill="#fff" d="M92.505 216.32c-.154.203-.37.14-.6.195l-.217-1.04c.46.042 1.06.19.817.845"/></g></svg>