<svg xmlns="http://www.w3.org/2000/svg" height="512" width="512" viewBox="0 0 512 512"><defs><clipPath id="a"><path fill-opacity=".67" d="M124.02 0h496.06v496.06H124.02z"/></clipPath></defs><g clip-path="url(#a)" transform="translate(-128) scale(1.032)"><path fill-rule="evenodd" fill="#3e5eb9" d="M0 0h744.09v496.06H0z"/><path fill-rule="evenodd" fill="#ffd900" d="M0 88.583h744.09v318.9H0z"/><path fill-rule="evenodd" fill="#b10c0c" d="M0 124.02h744.09v248.03H0z"/><rect fill-rule="evenodd" rx="5.238" ry="5.315" height="10.63" width="602.36" stroke="#000" y="242.72" x="74.178" stroke-width="1.339" fill="#ffd900"/><g stroke="#000" transform="translate(-609.45 -24.803)"><path d="M1220.658 216.145l-30.118 10.63 30.118 10.63 30.118-10.63-30.118-10.63z" fill-rule="evenodd" fill="#fff"/><rect fill-rule="evenodd" rx="3.851" ry="3.543" height="7.087" width="442.91" y="223.23" x="761.81" fill="#ffd900"/><path d="M1194.088 230.314c1.77 0 3.545-1.772 3.545-3.543s-1.775-3.543-3.545-3.543M1190.588 230.314c1.77 0 3.545-1.772 3.545-3.543s-1.775-3.543-3.545-3.543M1186.988 230.315c1.77 0 3.545-1.772 3.545-3.543s-1.775-3.544-3.545-3.544" fill="none"/></g><g stroke="#000" transform="translate(-637.8 -3.543)"><path d="M1220.658 216.145l-30.118 10.63 30.118 10.63 30.118-10.63-30.118-10.63z" fill-rule="evenodd" fill="#fff"/><rect fill-rule="evenodd" rx="3.851" ry="3.543" height="7.087" width="442.91" y="223.23" x="761.81" fill="#ffd900"/><path d="M1194.088 230.314c1.77 0 3.545-1.772 3.545-3.543s-1.775-3.543-3.545-3.543M1190.588 230.314c1.77 0 3.545-1.772 3.545-3.543s-1.775-3.543-3.545-3.543M1186.988 230.315c1.77 0 3.545-1.772 3.545-3.543s-1.775-3.544-3.545-3.544" fill="none"/></g><g fill-rule="evenodd"><path d="M338.07-.416c-5.57 12.442 4.275-4.138 28.3 16.69 4.45 3.87 8.34 14.09 8.34 21.178-1.13-.975-1.968-3.145-3.213-4.553-1.743 2.252 1.664 12.576 2.162 17.456-3.757-2.71-3.395-3.993-4.643-7.324.25 4.026-.645 15.116.85 19.386-2.96-1.09-2.765-4.163-4.31-4.78 1.05 4.834-.917 10.094-.395 15.528-1.73-2.208-3.573-3.937-4.376-4.83-.135 2.59-3.327 9.39-3.4 11.836-1.468-1.143-1.866-2.926-2.11-4.126-1.825 2.955-8.31 13.872-8.725 17.202-4.995-5.69-17.792-19.545-19.458-26.9-1.473 4.176-3.604 5.584-7.817 8.632-1.665-11.656-7.89-24.756-4.56-34.747-2.36 1.804-4.303 3.608-6.66 5.828C310.287 29.18 321.68 9.388 338.07-.415z" transform="matrix(.963 0 0 .747 308.454 244.121)" stroke="#000" fill="#3d5da7"/><path d="M614.14 289.852c2.23-4.454 4.282-5.868 5.722-8.735 2.544-5.04 2.907-9.053 5.123-8.465 2.217.588 2.214 2.653-.657 7.61-2.87 4.957-4.236 6.016-10.187 9.59zm15.076 10.61c-.286-3.392.698-4.808.518-6.993-.306-3.844-1.878-6.48.166-6.67 2.043-.187 3 1.124 3.005 4.997.006 3.873-.593 4.89-3.69 8.664zm11.437 6.65c-.893-4.735-.225-6.835-.796-9.885-.995-5.368-2.962-8.9-1.07-9.392 1.895-.49 3.038 1.245 3.755 6.688.718 5.443.34 6.94-1.89 12.59zm11.89-33.178c-2.792-2.12-4.422-2.262-6.223-3.625-3.173-2.39-4.778-4.95-5.798-3.678-1.02 1.27-.296 2.658 3.028 4.863 3.324 2.205 4.45 2.38 8.994 2.44zm-1.968 15.722c-1.472-3.057-3.02-3.832-3.973-5.8-1.683-3.455-1.686-6.445-3.51-5.68-1.827.768-1.974 2.333-.02 5.678 1.95 3.345 2.973 3.95 7.503 5.802z" fill="#a70000"/></g><g fill-rule="evenodd"><path d="M329.6 20.703c-.272-2.662.253-2.98-1.258-4.99 2.2.998 2.284 3.65 4.96 1.768.982-.55 1.41-.568.216-3.525 2.79.14 11.927 3.535 13.39 3.614 3.842.19 10.855-4.374 15.723 1.24 4.673 5.116 3.113 10.427 3.113 17.514-1.877-.975-.973-1.455-2.965-3.99 1.494 6.196-.08 17.365-.08 23.935-.767-1.585-.654-.897-1.404-2.538-1.992 5.997-4.38 7.23-4.38 14.318-.72-2.78-.025-2.19-.825-3.653-1.937 4.552-14.926 8.443-9.92 13.033-4.52-2.87-6.5-2.57-8.55-5.15-.88.617-1.583 1.785-2.403 3.386-7.943-3.96-5.103-12.5-11.326-18.206-1.076 2.393-.585 2.045-1.75 5.94-1.26-5.41-1.603-8.845-3.02-12.82-1.223 2.203-1.113 1.36-3.333 4.69-.918-6.588-2.413-8.143-1.822-12.502-2.36 1.804-.815 1.073-3.173 3.293 2.234-16.88 11.884-29.35 18.808-25.357z" transform="matrix(1.102 0 0 1.017 -262.973 231.719)" stroke="#000" fill="#3d5da7"/><path d="M89.418 280.784c2.255-5.526 4.287-7.262 5.744-10.82 2.573-6.252 2.992-11.25 5.154-10.49 2.162.764 2.127 3.34-.765 9.484-2.89 6.144-4.245 7.446-10.132 11.826zm8.54 13.826c.903-4.954 2.33-6.76 2.916-9.95 1.04-5.61.46-9.787 2.47-9.568 2.008.22 2.463 2.338 1.126 7.92-1.337 5.58-2.26 6.902-6.513 11.6zm10.21 9.613c.255-4.804 1.38-6.68 1.55-9.772.304-5.44-.744-9.337 1.172-9.36 1.916-.02 2.6 1.936 2.012 7.384-.587 5.447-1.297 6.807-4.734 11.75zm21.93-31.41c-4.193-4.178-6.728-4.958-9.432-7.644-4.765-4.72-7.068-9.15-8.764-7.58-1.696 1.57-.676 3.924 4.34 8.415 5.017 4.49 6.762 5.143 13.856 6.807zm-2.55 16.147c-2.732-4.195-4.736-5.282-6.5-7.98-3.11-4.743-4.177-8.82-5.94-7.81-1.764 1.01-1.37 3.14 2 7.737 3.37 4.596 4.726 5.44 10.44 8.052z" fill="#a70000"/></g><g fill-rule="evenodd"><path d="M637.8 230.32c-53.15 59.05-124.02 177.16-265.75 177.16-124.02 0-212.6-118.11-265.75-177.16 53.15-59.06 141.73-177.17 265.75-177.17 141.73 0 212.6 118.11 265.75 177.17z" transform="matrix(.667 0 0 .6 124.02 109.84)" stroke="#000" stroke-width="1.976" fill="#fff"/><path d="M359.688 178.708c9.427 10.603 1.555 14.877 11.533 15.573 10.524.774 4.56 11.204 13.41 11.567 6.19.27-.617 24.99 5.34 33.148 6.068 8.504 11.15 2.492 11.257 8.636.105 6.355-16.516 5.714-16.807 25.288-.487 11.28-14.026 12.003-14.672 19.26-.803 6.828 26.672 10.66 26.306 16.772-.377 6.093-29.667 5.14-30.943 12.088-.653 6.24 40.24 11.356 43.53 29.407-6.103 1.996-23.464 3.875-36.586 3.885-82.674.066-141.734-70.866-177.168-106.296 35.434-35.436 94.487-106.302 177.168-106.302 0 0-24.542 22.424-12.366 36.976z"/><path d="M261.03 210.24h8.59v28.346h-8.59zm0 47.244h8.59v28.346h-8.59zm17.178-47.244h8.59v28.346h-8.59zm0 47.244h8.59v28.346h-8.59zm17.178-47.244h8.59v28.346h-8.59zm0 47.244h8.59v28.346h-8.59zm17.183-47.244h8.59v28.346h-8.59zm0 47.244h8.59v28.346h-8.59zm17.177-47.244h8.59v28.346h-8.59zm0 47.244h8.59v28.346h-8.59zm17.178-47.244h8.59v28.346h-8.59zm0 47.244h8.59v28.346h-8.59z" fill="#fff"/><path d="M390.95 210.24h8.59v28.346h-8.59zm0 47.244h8.59v28.346h-8.59zm17.178-47.244h8.59v28.346h-8.59zm0 47.244h8.59v28.346h-8.59zm17.178-47.244h8.59v28.346h-8.59zm0 47.244h8.59v28.346h-8.59zm17.183-47.244h8.59v28.346h-8.59zm0 47.244h8.59v28.346h-8.59zm17.177-47.244h8.59v28.346h-8.59zm0 47.244h8.59v28.346h-8.59zm17.178-47.244h8.59v28.346h-8.59zm0 47.244h8.59v28.346h-8.59z"/></g><g fill-rule="evenodd"><path d="M338.07-.416c-5.57 12.442 9.754-4.138 33.778 16.69 4.452 3.87 10.833 19.16 10.833 26.246-5.114-1.257-14.172-7.087-14.172-7.087s10.63 12.295 10.63 26.468c-3.756-2.71-5.635-2.303-6.883-5.633 0 4.588 3.34 7.512 3.34 14.6-2.71-2.5-5.006-4.164-7.3-5.626 3.543 7.087-6.457 20.835-1.452 25.424-8.752-1.462-17.707-7.92-21.25-15.006-1.878 1.462-2.082 3.756-2.155 6.203.276.265-13.322-11.655-12.073-16.234-1.824 2.955-2.08 4.58-2.497 7.91-4.996-5.69-9.574-11.38-11.24-18.734-2.22 3.33-2.36 3.33-4.58 6.66-1.664-11.655-1.664-11.24 1.666-21.23-2.36 1.804-4.302 3.608-6.66 5.828 2.234-16.88 13.628-36.674 30.016-46.477z" transform="matrix(.881 0 0 .763 16.874 160.923)" stroke="#000" fill="#3d5da7"/><path d="M302.65 206.99c.785-6.54 2.496-9.005 3.006-13.218.912-7.41-.17-12.824 2.456-12.687 2.626.137 3.382 2.87 2.084 10.263s-2.392 9.19-7.546 15.643zm13.705 11.98c-.532-5.52.487-7.87.15-11.425-.584-6.256-2.516-10.494-.228-10.883 2.29-.39 3.446 1.71 3.693 8.025.247 6.316-.365 8-3.615 14.282zm21.395 9.77c-2.327-4.775-4.326-6.2-5.828-9.274-2.654-5.402-3.207-9.814-5.253-9.014-2.048.8-1.935 3.08 1.02 8.37 2.955 5.288 4.29 6.366 10.06 9.918zm7.395-42.772c-5.925-3.12-8.97-3.16-12.788-5.163-6.724-3.514-10.638-7.484-12.027-5.3-1.39 2.186.464 4.36 7.397 7.554 6.932 3.194 9.062 3.345 17.418 2.908zm2.175 17.862c-4.315-3.59-6.867-4.118-9.65-6.426-4.9-4.052-7.34-8.03-8.98-6.418-1.636 1.613-.543 3.744 4.603 7.56 5.145 3.818 6.905 4.292 14.027 5.284z" fill="#a70000"/></g></g></svg>