<svg xmlns="http://www.w3.org/2000/svg" height="512" width="512" viewBox="0 0 512 512"><defs><clipPath id="a"><path fill-opacity=".67" d="M0 0h512v512H0z"/></clipPath></defs><g clip-path="url(#a)"><path fill="#006" d="M1024 512V0H0v512h1024z"/><path fill-rule="evenodd" fill="#006" d="M0 0h512v256H0z"/><path fill="#fff" d="M0 0v28.622L454.757 256h57.24v-28.62L57.242 0H0zm511.998 0v28.62L57.24 256H0v-28.62L454.757 0h57.24zM213.332 0v256h85.333V0h-85.333zM0 85.333v85.333h511.998V85.333H0z"/><path fill="#c00" d="M0 102.4v51.2h511.998v-51.2H0zM230.4 0v256h51.2V0h-51.2zM0 256l170.666-85.334h38.16L38.162 256H0zM0 0l170.666 85.333h-38.16L0 19.08V0zm303.17 85.333L473.838 0h38.16L341.333 85.333h-38.16zM512 256l-170.666-85.334h38.16l132.506 66.253V256z"/><path fill-opacity=".996" fill="#fff" d="M493.562 140.875V257.36c0 95.634-37.564 183.177-149 236.39-111.39-53.213-148.96-140.753-148.96-236.39V140.876h298.014z"/><path fill-opacity=".996" fill="#fdc300" d="M483.578 152.746v108.648c0 89.2-35.036 170.854-138.975 220.484-103.943-49.63-138.976-131.284-138.976-220.484V152.746h277.965z"/><g stroke="#000" stroke-width=".063"><path d="M205.96 52.847a2.085 2.085 0 0 0-1.265-.44c.117-1.296-.824-1.855-1.5-2.09-.677-.236-.913-.5-1.03-1.03-.118-.53-.47-.853-1.09-1.03-.617-.176-1.147-.794-1.382-1.088-.235-.296-.324-.237-.5.263-.177.5-.883 1.442-.236 1.472-.47.382-.735.823-.44 1.412-.325.265-.56.647-.12.794.443.148.56.266.59.384-.397 0-.5.794.44.97-.205.03-.293.677.09.677-.53 0-.972.796-1.648.796-.678 0-1.03.147-1.06.44-.03.295-.383.648-.56.795.5.06.824 0 1.09-.205s.705-.264 1-.03c.294.236.912.354 1.206.295-.647.442-1.118 1.03-1.177 1.59-.06.56-.442 1.205-.884 1.382-.44.176-1.03.647-1.235 1.206.56 1.383 1.353 1.725 2.148 2.09 1.413.646 2.295 1.117 2.884 1.764.588.648.824.177 1.706 1.295.883 1.118 1.707 3.236 2.59 3.59.882.353 2 .117 2.647-1 .648-1.12 1.06-12.417-2.265-14.3z" fill="#ff9e3d" transform="matrix(5.698 0 0 5.699 -893.676 -100.793)"/><path d="M288.43 173.537c-4.694 5.032-10.734 10.058-9.725 19.113s2.01 23.81-6.37 28.836c-8.383 5.037-12.405 17.78-2.348 25.154 10.057 7.38 10.393 16.435 12.068 24.817 1.68 8.378 6.04 15.09 12.746 9.386 6.702 1.01 10.395-1.675 10.395-7.038s.336-8.382 5.36-10.064c5.033-1.674 6.372-3.35 8.72-7.88 2.347-4.525 3.686-6.536 2.347-9.22-1.34-2.68-1.846-8.212-.838-12.24 1.01-4.024-1.34-6.2-2.683-8.72-1.338-2.508-1.84-4.69-1.173-8.047.672-3.35-1.003-5.527-3.35-7.21-2.348-1.674-3.357-3.35-2.85-6.04.502-2.678-1.68-4.353-4.193-6.365s-4.36-4.695-4.36-8.72c0-4.022-7.71-13.413-13.743-15.76z" fill="#ff927f"/><path d="M290.31 283.026c11.232-2.85 10.23-21.296 8.554-29.007-1.68-7.71-5.988-18.76-2.684-27.497 4.696-12.406-5.703-24.145-3.02-28.835 2.684-4.702 2.348-7.215 2.012-8.72-.33-1.515-2.85-2.69-3.014.497-.17 3.19-1.01 4.36-3.02 6.37s-1.51 6.372 0 11.24c1.51 4.86 4.695 12.24-.337 21.96-5.024 9.723-2.956 14.06-1 18.613 3.013 7.044 10.227 31.52 2.51 35.378z" fill="#ff9ee1"/><path d="M239.998 177.896c1.26 0 3.692-.5 3.692 1.174m-6.2 6.873c1.51-1.09 4.195.17 6.873-1.425m-4.194 8.132c2.01 0 4.694-.085 7.207-2.097m-4.7 7.63c1.845 0 5.28-1.173 6.12-3.6m-5.608 7.46c3.6-.172 8.38 1.173 9.047-.087m-8.877 11.99c2.513-2.348 8.467-3.938 9.806-6.37m-3.424-31.02c4.188 1.34 2.455 3.933 4.524 5.534 3.692 2.85.336 6.04 3.356 6.873 3.014.838 2.963 1.35 2.177 4.696-.924 3.942 2.848 4.102 1.51 6.706m11.395-2.513c-1.676 0-6.62.17-8.718 4.616m-27.066 43.754c1.933.336 2.896-.764 3.437-1.847.587-1.174.838-2.01 2.598-2.09 1.76-.087 4.445-.588 5.032-1.933.587-1.34 2.683-.086 4.444-3.602 1.762-3.52 2.936-7.716 7.625-9.226" fill="none"/></g><g stroke="#000" stroke-width=".063"><path d="M369.912 319.486c1.898 2.758-.068 5.74 3.15 6.93 3.774 1.396.48 6.36 4.93 8.103 3.943 1.555.03 6.296 4.29 8.428 3.813 1.903-.637 6.354 4.45 8.9 5.084 2.543-.956 8.264 2.86 10.487 3.813 2.228-1.27 7.95 3.18 10.178 4.45 2.222-1.908 6.673 2.223 9.853 4.13 3.18-.95 7.944 3.18 10.804s-2.536 6.685 1.59 10.81c3.18 3.18-1.146 6.292 1.27 11.13 1.59 3.174-1.59 15.894-10.49 14.623-3.18 5.403-15.573 10.172-20.023 8.582-4.45 3.18-18.752 7.63-26.068.633-7.305 6.998-21.613 2.547-26.063-.633-4.45 1.59-16.842-3.18-20.022-8.582-8.9 1.27-12.08-11.45-10.49-14.623 2.416-4.838-1.908-7.95 1.27-11.13 4.126-4.125-2.54-7.943 1.59-10.81s-.95-7.625 3.18-10.804c4.13-3.18-2.228-7.63 2.222-9.86 4.45-2.222-.632-7.943 3.18-10.17 3.818-2.224-2.222-7.945 2.86-10.487 5.09-2.548.64-7 4.45-8.902 4.263-2.132.348-6.873 4.29-8.43 4.45-1.743 1.158-6.706 4.93-8.102 3.27-1.208 1.185-4.27 3.248-7.067 9.464 3.726 38.763 6.4 50.814.136z" fill="#00a728"/><path d="M322.904 336.115c.006 1.425-.03 2.85-1.35 4.61-2.86 3.818 1.27 5.722-1.91 9.86-3.173 4.125.64 6.666-2.86 10.165-3.493 3.5.64 6.68-2.86 10.492-3.493 3.818.638 6.36-2.86 9.858-3.493 3.494.638 7.312-2.86 10.805-3.494 3.5.637 7.95-3.18 12.08-3.812 4.133.638 7.313-2.542 10.487-3.18 3.186-.32 6.36-2.54 8.588 3.81-2.86 3.81-7.31 6.67-9.54 2.862-2.222-.95-5.402.64-6.992s.32-8.263 3.18-11.443.318-9.54 2.86-11.762.632-8.9 3.81-11.124 0-7.637 2.543-10.492c2.547-2.86 0-7.312 2.547-10.81 2.54-3.5.114-6.668 1.903-9.535.798-1.276.798-10.49-1.19-5.248zM113.29-178.807c-2.222 4.132 1.59 5.083-1.27 9.22s1.59 7.312-1.59 11.443 1.59 6.355-1.27 10.486c-2.862 4.136 1.27 6.36-1.272 9.54-2.547 3.18 1.903 6.358-1.27 10.17-3.18 3.82 1.27 6.68-1.277 10.173-2.54 3.5.957 7.312-1.27 10.172-2.223 2.86 1.59 6.998-1.59 10.81s.638 6.36-1.27 8.902c3.817-1.27 2.386-6.52 3.817-7.63 1.43-1.112-.48-8.423 1.743-10.332 2.228-1.904-1.43-7.79.638-10.332 3.5-4.29.48-7.152 2.542-10.486 2.068-3.34-.787-7.624.797-9.858 2.7-3.82-1.196-7.256.792-10.014 2.86-3.972-.552-7.25 1.43-9.86 3.02-3.97-.318-7.943.958-10.01 1.27-2.064 3.333-10.966-.638-12.396zm4.8.196c-2.222 5.54 1.59 7.75.32 12.183s1.59 7.755-.32 12.554c-1.902 4.804 2.548 8.49 0 14.77-2.54 6.28 1.642 7.842 0 14.036-1.902 7.198 3.18 11.016 0 16.1-3.173 5.088 3.642 6.77.32 12.08-1.59 2.542.16 9.06 2.7 1.27 2.548-7.783-1.903-8.74.32-11.92 2.228-3.18-.792-11.603.16-16.054.956-4.445-2.223-10.485-.16-15.255 2.068-4.77-3.18-9.858-1.11-13.99 2.067-4.13-.953-9.22.95-12.554 1.91-3.34-1.43-7.79-.632-9.7.792-1.902-.798-8.946-2.547-3.52z" fill-opacity=".996" fill="#fdc300"/><path d="M368.26 323.236c0-35.92-5.083-48.32-23.84-48.32-18.752 0-23.835 12.395-23.835 48.32h47.675z" fill="#ef072d"/><path d="M327.576 320.375c-3.498 3.5.64 6.04-2.86 10.172-3.5 4.132-.32 6.36-3.18 10.172s1.27 5.72-1.908 9.858c-3.174 4.132.638 6.668-2.86 10.167-3.494 3.5.637 6.68-2.86 10.49-3.494 3.82.637 6.36-2.862 9.86-3.492 3.493.64 7.31-2.86 10.805-3.493 3.5.638 7.95-3.18 12.08-3.81 4.132.64 7.312-2.54 10.486-3.18 3.186-.32 6.366-2.542 8.588-2.228 2.223-2.54 5.33-1.59 6.68m35.91-108.088c-3.175 4.13 1.59 6.04-1.272 9.534-2.86 3.5 1.27 4.77-.95 8.907s1.59 5.083-1.272 9.215 1.59 7.31-1.59 11.443 1.59 6.36-1.27 10.49c-2.86 4.133 1.27 6.36-1.27 9.54-2.548 3.18 1.902 6.355-1.272 10.173-3.18 3.818 1.27 6.673-1.276 10.172-2.54 3.5.957 7.31-1.27 10.172-2.223 2.86 1.59 6.992-1.59 10.81s.638 6.355-1.27 8.902c-1.91 2.542-3.414 6.274-1.59 7.31m26.09-112.85c-1.584 6.645 2.228 12.554 0 18.093-2.222 5.54 1.59 7.75.32 12.184-1.27 4.435 1.59 7.757-.32 12.555-1.903 4.804 2.547 8.492 0 14.772-2.54 6.28 1.64 7.84 0 14.035-1.903 7.198 3.18 11.016 0 16.1-3.173 5.088 2.867 6.36.32 12.08-2.542 5.722 1.59 7.95-.32 13.672m16.867-118.58c3.497 3.5-.64 6.042 2.86 10.173 3.497 4.132.318 6.36 3.178 10.172s-1.27 5.72 1.91 9.858c3.173 4.132-.64 6.668 2.86 10.167 3.492 3.5-.64 6.68 2.86 10.49 3.493 3.82-.638 6.36 2.86 9.86 3.493 3.493-.638 7.31 2.86 10.805 3.494 3.5-.637 7.95 3.18 12.08 3.812 4.132-.638 7.312 2.542 10.486 3.18 3.186.32 6.366 2.54 8.588 2.23 2.223 2.548 5.33 1.59 6.68m-35.908-108.088c3.174 4.13-1.59 6.04 1.27 9.534 2.86 3.5-1.27 4.77.952 8.907 2.228 4.13-1.59 5.083 1.27 9.215s-1.59 7.31 1.59 11.443-1.59 6.36 1.27 10.49c2.862 4.133-1.27 6.36 1.272 9.54 2.547 3.18-1.903 6.355 1.276 10.173 3.174 3.818-1.276 6.673 1.27 10.172 2.542 3.5-.956 7.31 1.27 10.172 2.224 2.86-1.588 6.992 1.59 10.81s-.637 6.355 1.272 8.902c1.91 2.542 3.42 6.274 1.59 7.31" fill="none"/><path d="M320.625 323.236c0-35.92 5.082-48.32 23.835-48.32-8.582 0-13.824 6.674-15.254 11.124s-.638 4.132 1.27 2.388.952 2.063-.632 4.132c-1.59 2.063-3.18 7.944-.957 6.04 2.228-1.91 3.97.32 1.59 3.653s-4.45 11.13-2.07 8.43c2.39-2.708 2.862 1.742 1.437 3.97-1.436 2.223-1.276 4.132 0 3.18 1.27-.957 1.11 3.653-.16 5.403h-9.06zm-63.526-250.89c0-28.135-3.494-36.558-10.486-39.42-3.96-1.623-4.074-1.27-2.182 1.272s1.6 6.2-.148 3.653c-1.744-2.54-2.325-3.02-3.054-1.903-.73 1.112 2.034 6.355 4.074 11.124 1.64 3.837.58 5.723-1.892 1.91s-2.473-.36-.302 2.86c2.786 4.133 2.7 16.693 2.7 21.935l11.29-1.43z"/><path d="M344.442 328.484c7.47 0 15.647-1.333 21.14-3.464 6.52-2.53 6.866-4.753 4.61-7.59-1.59-2-5.09-.8-8.422.666-3.34 1.464-12.558 2.393-17.328 2.393-4.763 0-13.982-.93-17.322-2.394-3.333-1.47-6.83-2.667-8.42-.667-2.258 2.837-1.91 5.06 4.61 7.59 5.486 2.13 13.668 3.464 21.132 3.464z" fill="#ef072d"/></g><g fill-rule="evenodd" fill="#b95a1e"><path d="M779.41 912.6s-.12 103.6 0 179.24c.12 75.63 19.822 104.91 54.262 103.59 34.44-1.33 41.108-58.83 34.53-92.08-6.576-33.26-53.24-198.97-53.24-198.97l-35.552 8.222z" transform="matrix(.077 -.05 .047 .081 313.513 245.455)" stroke="#000" stroke-width="4.375"/><path d="M779.41 912.6s-.12 103.6 0 179.24c.12 75.63 19.822 104.91 54.262 103.59 34.44-1.33 41.108-58.83 34.53-92.08-6.576-33.26-53.24-198.97-53.24-198.97l-35.552 8.222z" transform="matrix(.089 -.02 .019 .093 329.497 211.744)" stroke="#000" stroke-width="4.375"/><path d="M779.41 912.6s-.12 103.6 0 179.24c.12 75.63 19.822 104.91 54.262 103.59 34.44-1.33 41.108-58.83 34.53-92.08-6.576-33.26-53.24-198.97-53.24-198.97l-35.552 8.222z" transform="matrix(.091 0 0 .096 343.068 194.68)" stroke="#000" stroke-width="4.375"/><path d="M779.53 255.12c159.57-1.394 177.16-35.432 177.16-35.432s35.43-70.866 17.716-88.584c-17.717-17.716-194.88-17.716-194.88-17.716v141.73z" transform="matrix(.056 0 0 .096 369.867 257.313)" stroke="#000" stroke-width="5.554"/><path d="M779.53 255.12c106.3 0 124.02-35.432 124.02-35.432s35.43-70.866 17.716-88.584c-17.717-17.716-141.73-17.716-141.73-17.716v141.73z" transform="matrix(.091 0 0 .096 343.068 250.539)" stroke="#000" stroke-width="4.375"/><path d="M779.53 255.12c88.583 0 141.73-35.433 141.73-35.433s35.43-70.866 17.716-88.584c-17.72-17.72-159.45-17.71-159.45-17.71v141.73z" transform="matrix(.091 0 0 .096 343.068 243.765)" stroke="#000" stroke-width="4.375"/><path d="M832.68 113.39s70.866-88.583 194.88-177.17c124.01-88.582 213.73-156.72 230.31-141.73 0 17.717-106.3 106.3-194.88 177.17C974.4 42.52 868.1 148.82 868.1 148.82l-35.433-35.433z" transform="matrix(.112 0 0 .096 325.48 194.877)" stroke="#000" stroke-width="3.927"/><path d="M832.68 113.39s70.05-52.025 204.38-124.02c132.23-63.918 318.89-53.15 318.89-35.433-17.71 17.716-177.16 17.716-283.46 70.866-101.48 50.73-204.39 124.01-204.39 124.01l-35.433-35.433z" transform="matrix(.112 0 0 .096 326.41 201.65)" stroke="#000" stroke-width="3.927"/><path d="M832.68 113.39s61.675-35.068 204.38-88.583c141.72-53.15 329.87-17.717 329.87 0-17.7 17.713-170.4 6.944-276.7 35.43-109.99 27.757-222.09 88.583-222.09 88.583l-35.433-35.433z" transform="matrix(.112 0 0 .096 326.496 213.312)" stroke="#000" stroke-width="3.927"/><path d="M832.68 113.39s71.08-70.976 222.47-88.583c152.3-17.72 276.3 88.583 276.3 106.29-17.7 17.72-159.5-77.972-265.7-64.286-112.67 13.655-197.69 82.007-197.69 82.007l-35.433-35.433z" transform="matrix(.112 0 0 .096 327.255 225.145)" stroke="#000" stroke-width="3.927"/><path d="M779.53 255.12c159.57-1.394 159.45-45.508 159.45-45.508s35.43-70.866 17.716-88.584c-17.717-17.716-177.16-7.64-177.16-7.64v141.73z" transform="matrix(.091 0 0 .096 343.068 235.313)" stroke="#000" stroke-width="4.375"/><path d="M779.53 255.12c159.57-1.394 177.16-35.432 177.16-35.432s35.43-70.866 17.716-88.584c-17.717-17.716-194.88-17.716-194.88-17.716v141.73z" transform="matrix(.091 0 0 .096 343.068 228.539)" stroke="#000" stroke-width="4.375"/><path d="M779.53 255.12c159.57-1.394 194.88-35.433 194.88-35.433s35.43-70.866 17.716-88.583c-17.717-17.716-212.6-17.716-212.6-17.716v141.73z" transform="matrix(.091 0 0 .096 343.068 220.074)" stroke="#000" stroke-width="4.375"/><path d="M779.53 255.12c159.57-1.394 212.6-35.433 212.6-35.433s17.714-70.866 0-88.583c-17.717-17.716-212.6-17.716-212.6-17.716v141.73z" transform="matrix(.091 0 0 .096 343.068 211.61)" stroke="#000" stroke-width="4.375"/><path d="M832.68 113.39S946.89 24.807 946.89-46.06c0-70.866-50.35-141.73-64.625-177.17 28.552 0 93.176 106.3 93.176 177.17 0 77.444-107.32 194.88-107.32 194.88l-35.432-35.433zM832.68 113.39s-14.276-53.15-14.276-159.45c0-124.02 63-202.89 85.654-230.32 5.898 27.422-57.102 124.02-57.102 230.32 0 77.444 21.157 194.88 21.157 194.88l-35.433-35.433z" transform="matrix(.112 0 0 .096 323.287 187.907)" stroke="#000" stroke-width="3.927"/><path d="M779.53 255.12c159.57-1.394 212.6-35.433 212.6-35.433s0-70.866-17.716-88.583c-17.717-17.716-194.88-17.716-194.88-17.716v141.73z" transform="matrix(.091 0 0 .096 343.068 203.145)" stroke="#000" stroke-width="4.375"/><path d="M779.53 255.12c159.57-1.394 194.88-35.433 194.88-35.433s0-70.866-17.716-88.583c-17.717-17.716-177.16-17.716-177.16-17.716v141.73z" transform="matrix(.091 0 0 .096 343.068 194.68)" stroke="#000" stroke-width="4.375"/><path d="M318.9 1318.1c55.065-122.32 70.866-336.61 70.866-372.05 0-99.782-32.948-585.11-35.433-779.53s124.02-301.18 248.03-301.18c106.3 0 177.17 70.866 177.17 177.17h-53.15c0-70.866-53.15-124.02-124.02-124.02-106.3 0-187.99 83.74-194.88 248.03-7.605 189.89 21.316 682.94 17.717 814.96s-51.234 249.72-106.3 336.61z" transform="matrix(-.091 0 0 .096 484.326 194.68)" stroke="#fdc301" stroke-width="11.026"/><path d="M779.41 912.6s-.12 103.6 0 179.24c.12 75.63 19.822 104.91 54.262 103.59 34.44-1.33 41.108-58.83 34.53-92.08-6.576-33.26-53.24-198.97-53.24-198.97l-35.552 8.222z" transform="matrix(-.077 -.05 -.047 .081 513.881 245.455)" stroke="#000" stroke-width="4.375"/><path d="M779.53 32.884c124.13.14 177.77 102.39 177.46 100.31l-35.734 33.347c-18.985 17.718-141.73 17.718-140.21 17.627l-1.52-151.29z" transform="matrix(.091 0 0 .096 343.068 194.68)" stroke="#000" stroke-width="4.375"/><path d="M779.41 912.6s-.12 103.6 0 179.24c.12 75.63 19.822 104.91 54.262 103.59 34.44-1.33 41.108-58.83 34.53-92.08-6.576-33.26-53.24-198.97-53.24-198.97l-35.552 8.222z" transform="matrix(-.089 -.02 -.019 .093 497.885 211.744)" stroke="#000" stroke-width="4.375"/><path d="M779.41 912.6s-.12 103.6 0 179.24c.12 75.63 19.822 104.91 54.262 103.59 34.44-1.33 41.108-58.83 34.53-92.08-6.576-33.26-53.24-198.97-53.24-198.97l-35.552 8.222z" transform="matrix(-.091 0 0 .096 484.314 194.68)" stroke="#000" stroke-width="4.375"/><path d="M779.53 255.12c159.57-1.394 177.16-35.432 177.16-35.432s35.43-70.866 17.716-88.584c-17.717-17.716-194.88-17.716-194.88-17.716v141.73z" transform="matrix(-.056 0 0 .096 457.515 257.313)" stroke="#000" stroke-width="5.554"/><path d="M779.53 255.12c106.3 0 124.02-35.432 124.02-35.432s35.43-70.866 17.716-88.584c-17.717-17.716-141.73-17.716-141.73-17.716v141.73z" transform="matrix(-.091 0 0 .096 484.314 250.539)" stroke="#000" stroke-width="4.375"/><path d="M779.53 255.12c88.583 0 141.73-35.433 141.73-35.433s35.43-70.866 17.716-88.584c-17.72-17.72-159.45-17.71-159.45-17.71v141.73z" transform="matrix(-.091 0 0 .096 484.314 243.765)" stroke="#000" stroke-width="4.375"/><path d="M832.68 113.39s70.866-88.583 194.88-177.17c124.01-88.582 213.73-156.72 230.31-141.73 0 17.717-106.3 106.3-194.88 177.17C974.4 42.52 868.1 148.82 868.1 148.82l-35.433-35.433z" transform="matrix(-.112 0 0 .096 501.903 194.877)" stroke="#000" stroke-width="3.927"/><path d="M832.68 113.39s70.05-52.025 204.38-124.02c132.23-63.918 318.89-53.15 318.89-35.433-17.71 17.716-177.16 17.716-283.46 70.866-101.48 50.73-204.39 124.01-204.39 124.01l-35.433-35.433z" transform="matrix(-.112 0 0 .096 500.984 201.65)" stroke="#000" stroke-width="3.927"/><path d="M832.68 113.39s61.675-35.068 204.38-88.583c141.72-53.15 329.87-17.717 329.87 0-17.7 17.713-170.4 6.944-276.7 35.43-109.99 27.757-222.09 88.583-222.09 88.583l-35.433-35.433z" transform="matrix(-.112 0 0 .096 500.898 213.312)" stroke="#000" stroke-width="3.927"/><path d="M832.68 113.39s71.08-70.976 222.47-88.583c152.3-17.72 276.3 88.583 276.3 106.29-17.7 17.72-159.5-77.972-265.7-64.286-112.67 13.655-197.69 82.007-197.69 82.007l-35.433-35.433z" transform="matrix(-.112 0 0 .096 500.139 225.145)" stroke="#000" stroke-width="3.927"/><path d="M779.53 255.12c159.57-1.394 159.45-45.508 159.45-45.508s35.43-70.866 17.716-88.584c-17.717-17.716-177.16-7.64-177.16-7.64v141.73z" transform="matrix(-.091 0 0 .096 484.314 235.313)" stroke="#000" stroke-width="4.375"/><path d="M779.53 255.12c159.57-1.394 177.16-35.432 177.16-35.432s35.43-70.866 17.716-88.584c-17.717-17.716-194.88-17.716-194.88-17.716v141.73z" transform="matrix(-.091 0 0 .096 484.314 228.539)" stroke="#000" stroke-width="4.375"/><path d="M779.53 255.12c159.57-1.394 194.88-35.433 194.88-35.433s35.43-70.866 17.716-88.583c-17.717-17.716-212.6-17.716-212.6-17.716v141.73z" transform="matrix(-.091 0 0 .096 484.314 220.074)" stroke="#000" stroke-width="4.375"/><path d="M779.53 255.12c159.57-1.394 212.6-35.433 212.6-35.433s17.714-70.866 0-88.583c-17.717-17.716-212.6-17.716-212.6-17.716v141.73z" transform="matrix(-.091 0 0 .096 484.314 211.61)" stroke="#000" stroke-width="4.375"/><path d="M832.68 113.39S946.89 24.807 946.89-46.06c0-70.866-50.35-141.73-64.625-177.17 28.552 0 93.176 106.3 93.176 177.17 0 77.444-107.32 194.88-107.32 194.88l-35.432-35.433zM832.68 113.39s-14.276-53.15-14.276-159.45c0-124.02 63-202.89 85.654-230.32 5.898 27.422-57.102 124.02-57.102 230.32 0 77.444 21.157 194.88 21.157 194.88l-35.433-35.433z" transform="matrix(-.112 0 0 .096 504.107 187.907)" stroke="#000" stroke-width="3.927"/><path d="M779.53 255.12c159.57-1.394 212.6-35.433 212.6-35.433s0-70.866-17.716-88.583c-17.717-17.716-194.88-17.716-194.88-17.716v141.73z" transform="matrix(-.091 0 0 .096 484.314 203.145)" stroke="#000" stroke-width="4.375"/><path d="M779.53 255.12c159.57-1.394 194.88-35.433 194.88-35.433s0-70.866-17.716-88.583c-17.717-17.716-177.16-17.716-177.16-17.716v141.73z" transform="matrix(-.091 0 0 .096 484.314 194.68)" stroke="#000" stroke-width="4.375"/><path d="M318.9 1318.1c55.065-122.32 70.866-336.61 70.866-372.05 0-99.782-32.948-585.11-35.433-779.53s124.02-301.18 248.03-301.18c106.3 0 177.17 70.866 177.17 177.17h-53.15c0-70.866-53.15-124.02-124.02-124.02-106.3 0-187.99 83.74-194.88 248.03-7.605 189.89 21.316 682.94 17.717 814.96s-51.234 249.72-106.3 336.61z" transform="matrix(.091 0 0 .096 343.055 194.68)" stroke="#fdc301" stroke-width="11.026"/><path d="M779.53 32.884c124.13.14 177.77 102.39 177.46 100.31l-35.734 33.347c-18.985 17.718-141.73 17.718-140.21 17.627l-1.52-151.29z" transform="matrix(-.091 0 0 .096 484.314 194.68)" stroke="#000" stroke-width="4.375"/></g></g></svg>