<svg xmlns="http://www.w3.org/2000/svg" height="512" width="512" viewBox="0 0 512 512"><defs><clipPath id="a"><path fill-opacity=".67" d="M0-.24h496.3v496.3H0z"/></clipPath></defs><g clip-path="url(#a)" fill-rule="evenodd"><path fill="#ffe300" d="M0 0h767.9v512.18H0z"/><path fill="#118600" d="M0 208.217h767.9v102.85H0zM0-13.146h767.9V96.4H0z"/><path fill="#d80000" d="M0 .248h306.628v310.818H0z"/><path d="M134.47 128.474c0-.857 18.843-53.103 18.843-53.103l17.13 52.247s57.385 1.714 57.385.857-45.394 34.26-45.394 34.26 21.412 59.955 20.556 58.242c-.856-1.713-49.677-35.973-49.677-35.973s-49.676 34.26-48.82 34.26 18.842-56.53 18.842-56.53L78.798 129.33l55.673-.856z" fill="#fff"/><path fill="#118600" d="M0 409.333h767.9v102.85H0z"/></g></svg>