<svg xmlns="http://www.w3.org/2000/svg" height="512" width="512" viewBox="0 0 512 512"><defs><clipPath id="a"><path fill-opacity=".67" d="M0 0h496.06v496.06H0z"/></clipPath></defs><g fill-rule="evenodd" clip-path="url(#a)"><path fill="#28ae66" d="M0 0h767.975v511.984H0z"/><g fill="#fff"><path d="M263.306 137.493c27.9 13.454 61.12-.063 73.14-18.635 12.322-17.333 13.835-46.438-7.47-73.14 33.07 27.424 40.38 58.512 23.928 84.112-21.945 29.254-70.627 28.407-89.598 7.663zM306.452 78.626l1.583-5.542-4.5-3.452 5.61-.168 1.802-5.474 1.89 5.44 5.613.073-4.444 3.528 1.666 5.52-4.633-3.26zm-37.243 32.297l1.582-5.543-4.5-3.452 5.61-.167 1.802-5.474 1.89 5.442 5.613.07-4.444 3.53 1.666 5.518-4.634-3.26zm2.688-28.5l1.583-5.543-4.5-3.453 5.612-.167 1.8-5.474 1.89 5.44 5.614.072-4.444 3.53 1.666 5.518-4.634-3.262zm-.057-26.583l1.584-5.543-4.5-3.453 5.61-.166 1.802-5.474 1.89 5.44 5.613.072-4.445 3.528 1.666 5.52-4.632-3.262zm-30.797 35.602l1.583-5.543-4.5-3.453 5.61-.167 1.802-5.474 1.89 5.44 5.613.072-4.443 3.53 1.666 5.517-4.633-3.26z"/></g><path fill="#ca3745" d="M47.542 0H212.11v511.984H47.542z"/><g fill="#faae29"><path d="M47.543 133.48v-3.656l6.802-9.143-1.37-1.827 4.113-5.486-1.37-1.828-2.744 3.656-1.372-1.83 9.602-12.798 1.37 1.83-1.37 1.827 2.826 3.694 6.773-9.18-6.887-8.898-2.712 3.41 1.37 1.83-1.37 1.83-9.6-12.8 1.372-1.83 2.742 3.658 1.37-1.83-4.113-5.485 1.372-1.83-6.803-9.14v-3.658l9.545 12.8-1.372 1.828 4.114 5.486-2.743 3.658 2.742 3.656 4.114-5.484L73.6 98.958l-9.655 12.58-4.114-5.485-2.742 3.657 2.743 3.657-4.113 5.487 1.37 1.827-9.544 12.8zM47.542 87.77l1.37 3.657v5.485h4.115l2.743 1.83-2.743 1.827h-4.114v5.484l-1.372 3.658V87.77z"/></g><g fill="#faae29"><path d="M47.543 221.25v-3.658l6.802-9.142-1.37-1.83 4.113-5.484-1.37-1.828-2.744 3.657-1.372-1.83 9.602-12.797 1.37 1.827-1.37 1.83 2.826 3.694 6.773-9.18-6.887-8.898-2.712 3.41 1.37 1.83-1.37 1.83-9.6-12.8 1.372-1.83 2.742 3.658 1.37-1.83-4.113-5.485 1.372-1.83-6.803-9.14v-3.658l9.545 12.8-1.372 1.828 4.114 5.486-2.743 3.658 2.742 3.656 4.114-5.484 9.654 13.016-9.654 12.583-4.114-5.487-2.743 3.657 2.742 3.657-4.114 5.485 1.37 1.83-9.544 12.798zM47.542 175.54l1.37 3.655v5.486h4.115l2.743 1.83-2.743 1.828h-4.114v5.485l-1.372 3.658v-21.94z"/></g><g fill="#faae29"><path d="M47.544 309.02v-3.657l6.802-9.143-1.37-1.83 4.113-5.485-1.372-1.827-2.743 3.656-1.372-1.83 9.6-12.797 1.37 1.83-1.37 1.828 2.827 3.694 6.773-9.18-6.887-8.898-2.712 3.41 1.37 1.83-1.37 1.83-9.6-12.8 1.372-1.83 2.742 3.657 1.37-1.83-4.113-5.485 1.372-1.828-6.803-9.142v-3.658l9.545 12.8-1.372 1.828 4.114 5.486-2.743 3.657 2.742 3.658 4.114-5.486 9.654 13.017-9.654 12.582-4.114-5.487-2.743 3.657 2.742 3.656-4.114 5.486 1.37 1.83-9.544 12.8zM47.543 263.308l1.37 3.657v5.486h4.115l2.743 1.83-2.742 1.827h-4.114v5.486l-1.372 3.658V263.31z"/></g><g fill="#faae29"><path d="M47.544 391.3v-3.657l6.802-9.143-1.37-1.83 4.113-5.485-1.372-1.827-2.743 3.656-1.372-1.83 9.6-12.798 1.37 1.83-1.37 1.828 2.827 3.694 6.773-9.18-6.887-8.897-2.712 3.412 1.37 1.83-1.37 1.828-9.6-12.8 1.372-1.83 2.742 3.658 1.37-1.828-4.113-5.486 1.372-1.83-6.803-9.14v-3.658l9.545 12.8-1.372 1.828 4.114 5.486-2.743 3.656 2.742 3.657 4.114-5.485 9.654 13.018-9.654 12.582-4.114-5.486-2.743 3.657 2.742 3.655-4.114 5.486 1.37 1.83-9.544 12.8zM47.543 345.588l1.37 3.657v5.486h4.115l2.743 1.83-2.742 1.827h-4.114v5.486l-1.372 3.658V345.59z"/></g><g fill="#faae29"><path d="M212.107 133.48v-3.656l-6.804-9.143 1.372-1.827-4.114-5.486 1.372-1.828 2.743 3.656 1.372-1.83-9.6-12.798-1.372 1.83 1.37 1.827-2.826 3.694-6.774-9.18 6.888-8.898 2.712 3.41-1.37 1.83 1.37 1.83 9.6-12.8-1.372-1.83-2.742 3.658-1.37-1.83 4.113-5.485-1.373-1.83 6.804-9.14v-3.658l-9.545 12.8 1.372 1.828-4.114 5.486 2.743 3.658-2.742 3.656-4.114-5.484-9.655 13.018 9.654 12.58 4.114-5.485 2.743 3.657-2.742 3.657 4.114 5.487-1.37 1.827 9.544 12.8zM212.107 87.77l-1.372 3.657v5.485h-4.114l-2.74 1.83 2.74 1.827h4.115v5.484l1.373 3.658V87.77z"/></g><g fill="#faae29"><path d="M212.56 221.25v-3.656l-6.803-9.143 1.372-1.828-4.115-5.485 1.37-1.828 2.744 3.656 1.37-1.83-9.6-12.798-1.37 1.828 1.37 1.828-2.827 3.695-6.772-9.18 6.888-8.898 2.712 3.41-1.37 1.83 1.37 1.83 9.6-12.8-1.372-1.83-2.742 3.658-1.37-1.83 4.113-5.485-1.374-1.83 6.804-9.14v-3.658l-9.545 12.8 1.37 1.828-4.113 5.486 2.743 3.658-2.743 3.656-4.114-5.484-9.654 13.018 9.654 12.58 4.114-5.485 2.743 3.658-2.743 3.658 4.114 5.485-1.37 1.828 9.544 12.8zM212.56 175.54l-1.37 3.656v5.486h-4.115l-2.742 1.83 2.742 1.827h4.114v5.484l1.372 3.658V175.54z"/></g><g fill="#faae29"><path d="M212.107 309.02v-3.657l-6.804-9.143 1.372-1.83-4.114-5.485 1.372-1.827 2.743 3.656 1.372-1.83-9.6-12.798-1.372 1.83 1.37 1.828-2.826 3.694-6.774-9.18 6.888-8.897 2.712 3.412-1.37 1.83 1.37 1.828 9.6-12.8-1.372-1.83-2.742 3.658-1.37-1.828 4.113-5.486-1.373-1.828 6.804-9.142v-3.658l-9.545 12.8 1.372 1.828-4.114 5.486 2.743 3.656-2.742 3.658-4.114-5.486-9.655 13.018 9.654 12.582 4.114-5.486 2.743 3.657-2.742 3.655 4.114 5.486-1.37 1.83 9.544 12.8zM212.107 263.308l-1.372 3.657v5.486h-4.114l-2.74 1.83 2.74 1.827h4.115v5.486l1.373 3.658V263.31z"/></g><g fill="#faae29"><path d="M212.107 391.3v-3.657l-6.804-9.143 1.372-1.83-4.114-5.485 1.372-1.827 2.743 3.656 1.372-1.83-9.6-12.798-1.372 1.83 1.37 1.828-2.826 3.694-6.774-9.18 6.888-8.897 2.712 3.412-1.37 1.83 1.37 1.828 9.6-12.8-1.372-1.83-2.742 3.658-1.37-1.828 4.113-5.486-1.373-1.83 6.804-9.14v-3.658l-9.545 12.8 1.372 1.828-4.114 5.486 2.743 3.656-2.742 3.657-4.114-5.485-9.655 13.018 9.654 12.582 4.114-5.486 2.743 3.657-2.742 3.655 4.114 5.486-1.37 1.83 9.544 12.8zM212.107 345.588l-1.372 3.657v5.486h-4.114l-2.74 1.83 2.74 1.827h4.115v5.486l1.373 3.658V345.59z"/></g><path d="M47.546 34.74v-3.656l6.802-9.143-1.37-1.827 4.113-5.486-1.37-1.828-2.743 3.656-1.372-1.83 9.6-12.798 1.37 1.828-1.37 1.83 2.828 3.693L70.805 0h2.797l-9.654 12.798-4.114-5.486-2.743 3.657 2.744 3.656-4.114 5.486 1.37 1.828-9.544 12.8zm-1.48-35.82h8.23L51.552.748H47.44v5.486L46.065 9.89V-1.08zM212.103 34.74v-3.656L205.3 21.94l1.372-1.827-4.114-5.486 1.37-1.828 2.744 3.656 1.37-1.83-9.598-12.798-1.373 1.828 1.374 1.83-2.828 3.693L188.843 0h-2.797l9.655 12.8 4.115-5.487 2.743 3.657-2.743 3.657 4.114 5.486-1.372 1.828 9.545 12.8zM198.91-2.16h-8.228L200.02.748h4.114v5.486l1.373 3.657V-1.08zM116.122 504.693s5.903-10.367 20.782-13.507c14.88-3.142 17.476 6.91 25.978 6.91 8.502 0 21.963-6.91 21.963-6.91s-13.46 13.193-23.852 12.878c-10.39-.313-13.933-6.91-24.56-5.967-10.628.942-20.31 6.91-20.31 6.596zM144.845 504.693s-5.904-10.367-20.782-13.507c-14.88-3.142-17.477 6.91-25.978 6.91-8.503 0-21.963-6.91-21.963-6.91s13.46 13.193 23.85 12.878c10.393-.313 13.935-6.91 24.562-5.967 10.628.942 20.31 6.91 20.31 6.596z" fill="#faae29"/><g fill="#faae29"><path d="M96.193 487.543c-1.31-2.742-4.585-14.708-2.84-16.205 2.62-.997 9.607 11.22 8.953 22.19-4.585 2.493-20.086-.997-19.868-4.24 1.092-4.487 9.826-2.99 13.755-1.744zM86.824 477.085c-.856-3.045-2.208-15.655-.268-16.637 2.718-.255 7.662 13.62 5.324 24.175-4.872 1.176-19.5-6.505-18.785-9.617 1.764-4.09 10.077-.222 13.73 2.08zM79.213 465.384c-.58-3.158-.8-15.894 1.213-16.563 2.722.18 6.396 14.74 3.135 24.848-4.942.398-18.78-9.544-17.795-12.52 2.115-3.783 10.025 1.373 13.448 4.235zM73.21 452.922c-.206-3.24 1.057-15.867 3.125-16.11 2.668.736 4.605 15.88.208 25.192-4.93-.627-17.446-13.31-16.125-16.046 2.53-3.3 9.744 3.43 12.792 6.964zM69.036 439.868c.145-3.245 2.756-15.5 4.827-15.346 2.56 1.242 2.848 16.6-2.508 24.973-4.81-1.566-15.83-16.514-14.228-18.968 2.858-2.78 9.273 5.26 11.91 9.34zM70.2 425.015c-.354 12.997-2.716 13.15-7.028 3.542-1.91-3.63-2.145-18.704-.425-19.265 2.486-.052 7.386 10.697 7.454 15.723z"/></g><g fill="#faae29"><path d="M164.034 488.912c1.31-2.742 4.584-14.71 2.838-16.205-2.62-.997-9.606 11.22-8.95 22.19 4.583 2.492 20.084-.998 19.867-4.24-1.093-4.487-9.827-2.99-13.756-1.745zM173.402 478.453c.857-3.044 2.21-15.654.268-16.638-2.717-.254-7.662 13.623-5.323 24.176 4.87 1.178 19.498-6.503 18.784-9.615-1.763-4.09-10.075-.223-13.728 2.078zM181.014 466.752c.58-3.158.8-15.894-1.214-16.562-2.722.177-6.396 14.738-3.134 24.846 4.942.4 18.782-9.543 17.795-12.52-2.114-3.783-10.024 1.374-13.446 4.236zM187.017 454.29c.206-3.24-1.057-15.866-3.126-16.11-2.667.737-4.604 15.88-.206 25.193 4.928-.628 17.445-13.31 16.124-16.046-2.528-3.3-9.744 3.428-12.79 6.963zM191.19 441.236c-.144-3.245-2.755-15.5-4.827-15.345-2.56 1.24-2.847 16.6 2.508 24.974 4.81-1.566 15.833-16.514 14.23-18.968-2.858-2.782-9.274 5.258-11.91 9.34zM190.025 426.383c.355 12.997 2.718 13.15 7.03 3.542 1.91-3.63 2.144-18.703.425-19.265-2.486-.05-7.387 10.698-7.455 15.723z"/></g><g transform="matrix(1 0 0 1.265 188.257 -77.027)"><path d="M-3.543 290.55h-5.315v3.543h-5.315v3.543h-21.26l-3.543 3.544 1.77 1.77h8.86l1.77-1.77h-8.857l1.772-1.772h12.4l-5.314 5.315h-12.402l-3.544-1.772-3.543 1.772h-12.402l-5.315-5.316 12.402.002 1.77 1.772-8.857-.002 1.772 1.773h8.858l1.772-1.77-3.544-3.544h-19.488v-3.543h-5.315v-3.543h-5.315v-15.945h5.315v-3.543h5.315v-3.543h19.488l3.544-3.545-1.772-1.77h-8.858l-1.772 1.772 8.858-.002-1.77 1.772-12.403.002 5.315-5.318h12.402l3.543 1.772 3.544-1.772h12.402l5.315 5.315h-12.4l-1.773-1.772h8.858l-1.772-1.77h-8.858l-1.77 1.77 3.542 3.544h21.26v3.542h5.315v3.543h5.315v15.945z" transform="matrix(1.488 0 0 1.24 3.502 -39.474)" stroke="#000" stroke-width=".125" fill="#ca3745"/><path d="M375.59 499.67v24.803h10.63v7.02h10.63v7.086h35.432l14.174 10.63 14.173-10.63h38.975v-7.02l10.63-.068v-7.087h10.63v-24.803h-10.63v-7.086l-10.63.068v-7.155H460.63l-14.174-10.63-14.174 10.63H396.85v7.154h-10.63v7.086h-10.63z" transform="matrix(.744 0 0 .62 -392.03 -6.521)" stroke="#faae29" stroke-width="1pt" fill="#28ae66"/><path d="M-75.6 296.644l-15.822 10.984v-10.984H-75.6zm31.63 0l15.822 10.985v-10.986H-43.97zm-31.63 28.564l-15.822-10.984v10.984H-75.6zm31.635 0l15.82-10.985v10.985h-15.82zm5.276-21.975l-5.272 4.394h10.547l-5.274-4.394zm-42.187 0l-5.273 4.394h10.547l-5.274-4.394zm0 15.39l-5.273-4.395h10.547l-5.274 4.394zm42.19 0l-5.273-4.395h10.547l-5.274 4.394z" fill="#ca3745"/><path d="M-59.787 329.602l-5.273-4.394h10.547l-5.274 4.394zm0-21.97l-5.273-4.394h10.547l-5.274 4.394zm0-15.383l-5.273 4.393h10.547l-5.274-4.394zm0 21.967l-5.273 4.394h10.547l-5.274-4.393z" fill="#faae29"/><path transform="matrix(.744 0 0 .62 -392.03 -6.521)" stroke="#000" stroke-width=".125" fill="#faae29" d="M467.72 506.69h14.173v3.543H467.72z"/><path transform="matrix(.744 0 0 .62 -392.03 -6.521)" stroke="#000" stroke-width=".125" fill="#c00" d="M414.57 510.24h7.087v3.543h-7.087zm56.69 0h7.087v3.543h-7.087z"/><path transform="matrix(.744 0 0 .62 -392.03 -6.521)" stroke="#000" stroke-width=".125" fill="#900" d="M439.37 488.98h14.173v3.543H439.37zm0 7.08h14.173v3.543H439.37zM435.83 492.52h21.26v3.543h-21.26zm3.54 31.89h14.173v3.543H439.37zm0 7.09h14.173v3.543H439.37zM435.83 527.95h21.26v3.543h-21.26z"/><path transform="matrix(.744 0 0 .62 -392.03 -6.521)" stroke="#000" stroke-width=".125" fill="#faae29" d="M467.72 513.78h14.173v3.543H467.72zm-56.7-7.09h14.173v3.543H411.02zm0 7.09h14.173v3.543H411.02zM407.48 510.24h7.087v3.543h-7.087zm14.17 0h7.087v3.543h-7.087zm42.52 0h7.087v3.543h-7.087zm14.18 0h7.087v3.543h-7.087z"/><ellipse fill="#fff" transform="matrix(.744 0 0 .62 -374.14 -38.912)" cx="413.68" rx=".886" cy="581.99" ry=".886"/><ellipse fill="#fff" transform="matrix(.744 0 0 .62 -367.57 -38.912)" cx="413.68" rx=".886" cy="581.99" ry=".886"/><ellipse fill="#fff" transform="matrix(.744 0 0 .62 -361 -38.958)" cx="413.68" rx=".886" cy="581.99" ry=".886"/><ellipse fill="#fff" transform="matrix(.744 0 0 .62 -371.51 -41.102)" cx="413.68" rx=".886" cy="581.99" ry=".886"/><ellipse fill="#fff" transform="matrix(.744 0 0 .62 -363.68 -41.148)" cx="413.68" rx=".886" cy="581.99" ry=".886"/><ellipse fill="#fff" transform="matrix(.744 0 0 .62 -371.57 -36.768)" cx="413.68" rx=".886" cy="581.99" ry=".886"/><ellipse fill="#fff" transform="matrix(.744 0 0 .62 -363.68 -36.677)" cx="413.68" rx=".886" cy="581.99" ry=".886"/><ellipse fill="#fff" transform="matrix(.744 0 0 .62 -353.17 -49.999)" cx="413.68" rx=".886" cy="581.99" ry=".886"/><ellipse fill="#fff" transform="matrix(.744 0 0 .62 -346.59 -49.999)" cx="413.68" rx=".886" cy="581.99" ry=".886"/><ellipse fill="#fff" transform="matrix(.744 0 0 .62 -340.02 -50.045)" cx="413.68" rx=".886" cy="581.99" ry=".886"/><ellipse fill="#fff" transform="matrix(.744 0 0 .62 -350.54 -52.189)" cx="413.68" rx=".886" cy="581.99" ry=".886"/><ellipse fill="#fff" transform="matrix(.744 0 0 .62 -342.71 -52.235)" cx="413.68" rx=".886" cy="581.99" ry=".886"/><ellipse fill="#fff" transform="matrix(.744 0 0 .62 -350.59 -47.855)" cx="413.68" rx=".886" cy="581.99" ry=".886"/><ellipse fill="#fff" transform="matrix(.744 0 0 .62 -342.71 -47.764)" cx="413.68" rx=".886" cy="581.99" ry=".886"/><ellipse fill="#fff" transform="matrix(.744 0 0 .62 -374.2 -60.904)" cx="413.68" rx=".886" cy="581.99" ry=".886"/><ellipse fill="#fff" transform="matrix(.744 0 0 .62 -367.62 -60.904)" cx="413.68" rx=".886" cy="581.99" ry=".886"/><ellipse fill="#fff" transform="matrix(.744 0 0 .62 -361.05 -60.949)" cx="413.68" rx=".886" cy="581.99" ry=".886"/><ellipse fill="#fff" transform="matrix(.744 0 0 .62 -371.57 -63.094)" cx="413.68" rx=".886" cy="581.99" ry=".886"/><ellipse fill="#fff" transform="matrix(.744 0 0 .62 -363.74 -63.139)" cx="413.68" rx=".886" cy="581.99" ry=".886"/><ellipse fill="#fff" transform="matrix(.744 0 0 .62 -371.62 -58.759)" cx="413.68" rx=".886" cy="581.99" ry=".886"/><ellipse fill="#fff" transform="matrix(.744 0 0 .62 -363.74 -58.668)" cx="413.68" rx=".886" cy="581.99" ry=".886"/><ellipse fill="#fff" transform="matrix(.744 0 0 .62 -395.28 -49.817)" cx="413.68" rx=".886" cy="581.99" ry=".886"/><ellipse fill="#fff" transform="matrix(.744 0 0 .62 -388.71 -49.817)" cx="413.68" rx=".886" cy="581.99" ry=".886"/><ellipse fill="#fff" transform="matrix(.744 0 0 .62 -382.14 -49.862)" cx="413.68" rx=".886" cy="581.99" ry=".886"/><ellipse fill="#fff" transform="matrix(.744 0 0 .62 -392.65 -52.007)" cx="413.68" rx=".886" cy="581.99" ry=".886"/><ellipse fill="#fff" transform="matrix(.744 0 0 .62 -384.82 -52.052)" cx="413.68" rx=".886" cy="581.99" ry=".886"/><ellipse fill="#fff" transform="matrix(.744 0 0 .62 -392.71 -47.672)" cx="413.68" rx=".886" cy="581.99" ry=".886"/><ellipse fill="#fff" transform="matrix(.744 0 0 .62 -384.82 -47.581)" cx="413.68" rx=".886" cy="581.99" ry=".886"/></g><path d="M138.895 255.754l4.535-2.124 4.535 2.124h-9.07zm-17.924-7.954l4.536-2.124 4.535 2.124h-9.07zm-13.18 0l4.535-2.124 4.534 2.124h-9.07zm27.63-48.87l4.536 2.126 4.535-2.126h-9.07zm-14.45 1.52l4.536 2.126 4.535-2.126h-9.07zm-13.18 0l4.535 2.126 4.535-2.126h-9.07z" fill="#fff"/><path d="M135.114 262.133l-5.29 4.25-5.29-4.25-5.29 4.25-5.29-4.25v2.124l3.526 2.126-1.765 2.125v2.126h1.765l1.763-2.126 1.764 2.126h1.763v-2.126l-1.765-2.124 3.528-2.126 3.528 2.126-1.763 2.124v2.126h1.764l1.764-2.126 1.764 2.126h1.763v-2.126l-1.763-2.124 3.527-2.126 3.528 2.125-1.764 2.125v2.126h1.765l1.763-2.126 1.763 2.126h1.763v-2.126l-1.764-2.126 3.525-2.125v-2.124l-5.29 4.25-5.29-4.25zm-4.2-69.79l-5.292-4.25-5.29 4.25-5.29-4.25-5.29 4.25v-2.123l3.527-2.126-1.766-2.124v-2.126h1.765l1.76 2.126 1.765-2.126h1.764v2.126l-1.766 2.124 3.528 2.125 3.528-2.127-1.764-2.123v-2.126h1.764l1.762 2.126 1.764-2.126h1.764v2.126l-1.765 2.124 3.528 2.125 3.528-2.125-1.763-2.126v-2.126h1.765l1.763 2.126 1.762-2.126h1.764v2.126l-1.763 2.125 3.527 2.126v2.124l-5.29-4.25-5.29 4.25zm40.07 37.342l5.67-4.604-5.67-4.605 5.67-4.603-5.67-4.605h2.833l2.837 3.07 2.833-1.535h2.834v1.534l-2.833 1.535 2.834 1.536v1.535h-2.833l-2.833-1.534-2.836 3.07 2.836 3.07 2.833-1.535h2.834v1.536l-2.833 1.535 2.834 1.535v1.535h-2.833l-2.833-1.535-2.836 3.07 2.834 3.07 2.835-1.536h2.834v1.535l-2.833 1.535 2.834 1.534v1.535h-2.833l-2.835-1.536-2.835 3.07h-2.833l5.668-4.604-5.668-4.605zm-91.963-1.102l-5.67-4.604 5.67-4.606-5.67-4.604 5.67-4.605h-2.833l-2.836 3.07-2.832-1.535h-2.834v1.535l2.834 1.534-2.834 1.534v1.535h2.834l2.833-1.536 2.836 3.07-2.835 3.07-2.832-1.535h-2.834v1.534l2.834 1.535-2.834 1.534v1.534h2.834l2.833-1.534 2.836 3.07-2.833 3.07-2.835-1.536h-2.834v1.535l2.834 1.535-2.834 1.534v1.536h2.834l2.835-1.536 2.834 3.07h2.834l-5.667-4.604 5.668-4.605z" fill="#28ae66"/><path transform="matrix(1.28 0 0 1.199 211.43 -5.633)" stroke="#000" stroke-width=".25" fill="#28ae66" d="M-26.575 214.37h1.772v1.772h-1.772zM-28.346 216.14h1.772v1.772h-1.772zm-8.86 8.86h1.773v1.772h-1.772zm1.773-1.77h1.772v1.772h-1.773zm-58.465 0h1.772v1.772h-1.772zm-8.862-8.86h1.772v1.772h-1.772zm1.78 1.77h1.772v1.772h-1.772zm0-38.97h1.772v1.772h-1.772zm-1.78 1.77h1.772v1.772h-1.772zm10.634-10.63h1.772v1.772h-1.772zM-93.898 170.08h1.772v1.772h-1.772zm56.693-1.77h1.772v1.772h-1.772zm1.772 1.77h1.772v1.772h-1.773zm7.087 7.09h1.772v1.772h-1.772zM-26.575 178.94h1.772v1.772h-1.772zM-92.125 225h1.77v1.772h-1.77z"/><path d="M122.908 231.314h-6.684v-4.178l4.455.002v-3.915h4.456v-3.597h4.456v4.496c-3.69 0-6.684 3.044-6.684 7.192z" fill="#fff"/><path d="M136.273 231.314h6.684v-4.178l-4.455.002v-3.915h-4.457v-3.597h-4.456v4.496c3.69 0 6.683 3.044 6.683 7.192z" fill="#faae29"/><path d="M136.273 231.314h6.684v4.177h-4.455v3.915h-4.457v3.597h-4.456v-4.496c3.69 0 6.683-3.045 6.683-7.193z" fill="#fff"/><path d="M122.908 231.314h-6.684v4.177h4.455v3.915h4.456v3.597h4.456v-4.496c-3.69 0-6.684-3.045-6.684-7.193z" fill="#faae29"/><path d="M136.272 231.317h-6.684v-7.193c3.69 0 6.684 3.223 6.684 7.193z" fill="#28ae66"/><path d="M136.272 231.31h-6.684v7.194c3.69 0 6.684-3.223 6.684-7.194z" fill="#ca3745"/><path d="M122.91 231.31h6.683v7.194c-3.69 0-6.684-3.223-6.684-7.194z" fill="#28ae66"/><path d="M122.91 231.317h6.683v-7.193c-3.69 0-6.684 3.223-6.684 7.193z" fill="#ca3745"/><path d="M136.627 257.875l-6.8-4.25-6.804 4.25-6.8-4.25-6.803 4.25v-2.124l4.533-2.125-2.267-2.125v-2.126h2.267l2.268 2.126 2.268-2.126h2.268v2.126l-2.268 2.124 4.535 2.126 4.535-2.126-2.267-2.124v-2.126h2.268l2.267 2.126 2.267-2.126h2.268v2.126l-2.268 2.124 4.535 2.126 4.535-2.124-2.267-2.126v-2.126h2.267l2.268 2.126 2.266-2.126h2.268v2.126l-2.268 2.126 4.535 2.125v2.125l-6.8-4.25-6.803 4.25zm-4.25-61.14l-6.8 4.253-6.803-4.252-6.802 4.252-6.8-4.252v2.125l4.532 2.127-2.268 2.125v2.125h2.268l2.267-2.126 2.27 2.127h2.266v-2.126l-2.267-2.123 4.534-2.126 4.535 2.127-2.27 2.125v2.125h2.27l2.265-2.126 2.268 2.127h2.267v-2.126l-2.267-2.123 4.535-2.126 4.535 2.127-2.267 2.125v2.125h2.267l2.268-2.126 2.267 2.127h2.268v-2.126l-2.268-2.124 4.535-2.126v-2.124l-6.8 4.25-6.804-4.25zm24.936 33.522l-3.402-5.312 3.403-5.313-3.402-5.313 3.403-5.314h-1.7l-1.703 3.542-1.7-1.77h-1.7v1.77l1.7 1.77-1.7 1.772v1.77h1.7l1.7-1.77 1.702 3.542-1.7 3.542-1.7-1.77h-1.702v1.77l1.7 1.77-1.7 1.772v1.77h1.7l1.7-1.77 1.702 3.54-1.7 3.544-1.7-1.77h-1.702v1.77l1.7 1.77-1.7 1.772v1.77h1.7l1.702-1.77 1.7 3.542h1.7l-3.4-5.314 3.4-5.313z" fill="#28ae66"/><path d="M-100.98 177.17l-7.087 7.086v26.575l7.087 7.088h31.89l7.086-7.087v-26.574l-7.087-7.086h-31.89zm-1.772-5.316l-17.717 17.716v15.945l17.718 17.717h35.433l17.717-17.717V189.57l-17.716-17.716h-35.432z" transform="matrix(1.28 0 0 1.199 238.637 -5.632)" stroke="#000" stroke-width=".4" fill="#28ae66"/><path d="M-93.898 147.05l3.543 5.315 3.544-5.315H-93.9z" transform="matrix(1.024 0 0 .8 215.057 140.282)" stroke="#000" stroke-width=".25" fill="#faae29"/><path d="M-93.898 147.05l3.543 5.315 3.544-5.315H-93.9z" transform="matrix(1.024 0 0 -.8 215.057 322.313)" stroke="#000" stroke-width=".25" fill="#faae29"/><path d="M-93.898 147.05l3.543 5.315 3.544-5.315H-93.9z" transform="matrix(1.024 0 0 -.8 229.567 322.313)" stroke="#000" stroke-width=".25" fill="#faae29"/><path d="M-93.898 147.05l3.543 5.315 3.544-5.315H-93.9z" transform="matrix(1.024 0 0 .8 229.567 140.282)" stroke="#000" stroke-width=".25" fill="#faae29"/><path d="M-93.898 147.05l3.543 5.315 3.544-5.315H-93.9z" transform="matrix(1.024 0 0 -.8 207.802 322.313)" stroke="#000" stroke-width=".25" fill="#ca3745"/><path d="M-93.898 147.05l3.543 5.315 3.544-5.315H-93.9z" transform="matrix(1.024 0 0 -.8 222.312 322.313)" stroke="#000" stroke-width=".25" fill="#ca3745"/><path d="M-93.898 147.05l3.543 5.315 3.544-5.315H-93.9z" transform="matrix(1.024 0 0 -.8 236.822 322.313)" stroke="#000" stroke-width=".25" fill="#ca3745"/><path d="M-104.53 180.71l3.544-3.544h-3.544v3.544z" transform="matrix(1.92 0 0 -1.799 303.233 576.572)" stroke="#000" stroke-width=".25" fill="#ca3745"/><path d="M98.084 236.625l3.4-5.312-3.4-5.313 3.4-5.312-3.4-5.314h1.7l1.702 3.543 1.7-1.77h1.7v1.77l-1.7 1.77 1.7 1.77v1.772h-1.7l-1.7-1.772L99.783 226l1.7 3.542 1.7-1.77h1.702v1.77l-1.7 1.77 1.7 1.772v1.77h-1.7l-1.7-1.77-1.702 3.54 1.7 3.545 1.7-1.772h1.702v1.77l-1.7 1.77 1.7 1.772v1.77h-1.7l-1.702-1.77-1.7 3.542h-1.7l3.4-5.313-3.4-5.315z" fill="#28ae66"/><path d="M-76.18 154.13h7.086l1.77 1.772-1.77 1.77h-7.087v-3.542z" transform="matrix(1.28 0 0 1.079 261.308 59.175)" stroke="#000" stroke-width=".25" fill="#ca3745"/><path d="M-99.213 180.71l-3.543 3.544v26.575l3.543 3.542h-5.316l.002-33.662h5.315z" transform="matrix(1.28 0 0 1.199 229.567 -5.632)" stroke="#000" stroke-width=".375" fill="#ca3745"/><path d="M-93.898 147.05l3.543 5.315 3.544-5.315H-93.9z" transform="matrix(1.024 0 0 .8 207.802 140.282)" stroke="#000" stroke-width=".25" fill="#ca3745"/><path d="M-93.898 147.05l3.543 5.315 3.544-5.315H-93.9z" transform="matrix(1.024 0 0 .8 222.312 140.282)" stroke="#000" stroke-width=".25" fill="#ca3745"/><path d="M-93.898 147.05l3.543 5.315 3.544-5.315H-93.9z" transform="matrix(1.024 0 0 .8 236.822 140.282)" stroke="#000" stroke-width=".25" fill="#ca3745"/><path d="M-99.212 180.71l-3.544 3.544v26.575l3.544 3.542h-5.315V180.71h5.315z" transform="matrix(-1.28 0 0 1.199 30.062 -5.632)" stroke="#000" stroke-width=".375" fill="#ca3745"/><path d="M-104.53 180.71l3.544-3.544h-3.544v3.544z" transform="matrix(-1.92 0 0 -1.799 -43.612 576.572)" stroke="#000" stroke-width=".25" fill="#ca3745"/><path d="M-104.53 180.71l3.544-3.544h-3.544v3.544z" transform="matrix(-1.92 0 0 1.799 -43.612 -113.982)" stroke="#000" stroke-width=".25" fill="#ca3745"/><path d="M-104.53 180.71l3.544-3.544h-3.544v3.544z" transform="matrix(1.92 0 0 1.799 303.233 -113.982)" stroke="#000" stroke-width=".25" fill="#ca3745"/><path d="M-100.98 177.17l-7.087 7.086v26.575l7.087 7.088h31.89l7.086-7.087v-26.574l-7.087-7.086h-31.89zm0-1.773l-8.86 8.858v26.575l8.86 8.858h31.89l8.857-8.858v-26.575l-8.86-8.858h-31.888z" transform="matrix(1.28 0 0 1.199 238.637 -5.632)" stroke="#000" stroke-width=".4" fill="#28ae66"/><path d="M-76.18 154.13h7.086l1.77 1.772-1.77 1.77h-7.087v-3.542z" transform="matrix(1.28 0 0 1.079 261.307 62.986)" stroke="#000" stroke-width=".25" fill="#faae29"/><path d="M-76.18 154.13h7.086l1.77 1.772-1.77 1.77h-7.087v-3.542z" transform="matrix(1.28 0 0 1.079 261.308 66.824)" stroke="#000" stroke-width=".25" fill="#ca3745"/><path d="M-76.18 154.13h7.086l1.77 1.772-1.77 1.77h-7.087v-3.542z" transform="matrix(1.28 0 0 1.079 261.308 70.635)" stroke="#000" stroke-width=".25" fill="#faae29"/><path d="M-76.18 154.13h7.086l1.77 1.772-1.77 1.77h-7.087v-3.542z" transform="matrix(1.28 0 0 1.079 261.308 55.336)" stroke="#000" stroke-width=".25" fill="#faae29"/><path d="M-76.18 154.13h7.086l1.77 1.772-1.77 1.77h-7.087v-3.542z" transform="matrix(-1.28 0 0 1.079 -1.682 59.175)" stroke="#000" stroke-width=".25" fill="#ca3745"/><path d="M-76.18 154.13h7.086l1.77 1.772-1.77 1.77h-7.087v-3.542z" transform="matrix(-1.28 0 0 1.079 -1.682 62.987)" stroke="#000" stroke-width=".25" fill="#faae29"/><path d="M-76.18 154.13h7.086l1.77 1.772-1.77 1.77h-7.087v-3.542z" transform="matrix(-1.28 0 0 1.079 -1.682 66.824)" stroke="#000" stroke-width=".25" fill="#ca3745"/><path d="M-76.18 154.13h7.086l1.77 1.772-1.77 1.77h-7.087v-3.542z" transform="matrix(-1.28 0 0 1.079 -1.682 70.636)" stroke="#000" stroke-width=".25" fill="#faae29"/><path d="M-76.18 154.13h7.086l1.77 1.772-1.77 1.77h-7.087v-3.542z" transform="matrix(-1.28 0 0 1.079 -1.682 55.337)" stroke="#000" stroke-width=".25" fill="#faae29"/><path d="M-100.98 178.94v37.205h8.858v8.858h56.693v-8.858h8.86V178.94h-8.86v-8.858H-92.12v8.858h-8.858zm1.77 1.772v33.66h8.86v8.86h53.15v-8.86h8.858v-33.66H-37.2v-8.86h-53.15v8.86h-8.86z" transform="matrix(1.28 0 0 1.199 211.43 -5.633)" stroke="#000" stroke-width=".25" fill="#970000"/><path d="M-28.347 69.094l-5.315-7.087v-5.315l-5.315-5.314h-10.63l-8.858-5.315H-86.81l-8.86 5.315h-10.63l-5.315 5.315v5.315l-5.315 7.086v14.173l5.315 7.087v5.315l5.315 5.314h10.63l8.86 5.315h28.345l8.858-5.317h10.63l5.315-5.314v-5.316l5.315-7.087V69.093z" transform="matrix(1.28 0 0 1.154 222.763 -36.673)" stroke="#000" stroke-width=".25" fill="#ca3745"/><path d="M75.427 51.198v6.13l6.8 8.175v6.13l6.804 6.132h13.604l11.338 6.13h15.87V51.198H75.427z" fill="#faae29"/><path d="M110.69 65.497l-8.28 5.257h-4.95l1.65 1.75-3.297 3.504 1.648 1.75 4.948-1.75 1.65 1.75.76-4.68 9.132-5.54-3.26-2.04zM101.626 61.41l-8.282 5.256h-4.947l1.65 1.752-3.298 3.503 1.647 1.752 4.947-1.75 1.65 1.75.76-4.68 9.132-5.54-3.26-2.04zm-7.7-10.08l-8.282 5.256h-4.947l1.65 1.752-3.298 3.503 1.647 1.752 4.947-1.75 1.65 1.75.76-4.68 9.133-5.54-3.26-2.04z" fill="#ca3745"/><path d="M184.224 51.198v-6.13l-6.802-8.175v-6.13l-6.8-6.13h-13.606L145.68 18.5h-15.873V51.2h54.417z" fill="#faae29"/><path d="M129.83 83.894h-4.2l-4.87-4.087h-7.724l-4.2-2.043 2.1-2.044 4.2 2.044h4.197l4.2-6.13 6.297 2.042v4.088h-6.298l6.298 6.13z" fill="#ca3745"/><path d="M75.427 51.198v-6.13l6.8-8.175v-6.13l6.804-6.13h13.604l11.338-6.132h15.87V51.2H75.427z" fill="#fff"/><path d="M129.83 18.498h-4.2l-4.87 4.087h-7.724l-4.2 2.044 2.1 2.043 4.2-2.044h4.197l4.2 6.13 6.297-2.044V24.63h-6.298l6.298-6.132zM129.826 18.498h4.2l4.87 4.087h7.725l4.2 2.044-2.1 2.043-4.198-2.044h-4.2l-4.197 6.13-6.3-2.044V24.63h6.3l-6.3-6.132z" fill="#ca3745"/><path d="M184.224 51.198v6.13l-6.802 8.175v6.13l-6.8 6.132h-13.606l-11.337 6.13h-15.873V51.198h54.417z" fill="#fff"/><path d="M129.826 83.894h4.2l4.87-4.087h7.725l4.2-2.043-2.1-2.044-4.198 2.044h-4.2l-4.197-6.13-6.3 2.042v4.088h6.3l-6.3 6.13zM93.55 35.76l-8.282-5.254H84.36l1.65-1.752-3.3-3.504 1.65-1.75 4.946 1.75 1.65-1.75.76 4.68 9.132 5.54-3.26 2.04zm48.212-2.748l8.282-5.255h4.947l-1.65-1.75 3.297-3.505-1.648-1.75-4.948 1.75-1.65-1.75-.76 4.68-9.133 5.54 3.26 2.04zM110.69 36.894l-8.28-5.255h-4.95l1.65-1.75-3.297-3.505 1.648-1.752 4.948 1.752 1.65-1.752.76 4.68 9.132 5.54-3.26 2.04zM90.203 46.86l-8.283-5.255h-4.947l1.65-1.75-3.298-3.505 1.648-1.75 4.947 1.75 1.65-1.75.76 4.68 9.133 5.54-3.26 2.04z" fill="#ca3745"/><path d="M79.453 51.21h2.1l2.1 2.042 2.1-2.043 44.085-.002v28.61h-2.1l2.1 2.045v2.044l-6.298-6.13V75.73h2.1v2.044h2.1v-2.044l-17.047-9.027h-14.36V57.85l-6.382-4.6h-4.198l-2.1 2.045 2.1 2.043h-2.1l-4.2-6.13z" fill="#fff"/><path d="M79.453 51.188h2.1l2.1-2.044 2.1 2.044 44.085.002V22.578h-2.1l2.1-2.043V18.49l-6.298 6.132v2.043h2.1v-2.043h2.1v2.043l-17.047 9.025h-14.36v8.856l-6.382 4.598h-4.198l-2.1-2.043 2.1-2.043h-2.1l-4.2 6.13z" fill="#faae29"/><path d="M89.025 51.187h40.81V75.71L111.7 65.492H98.095v-8.174l-9.07-6.13z" fill="#28ae66"/><path d="M158.025 40.977l8.282-5.254h4.947l-1.65-1.75 3.3-3.505-1.65-1.752-4.947 1.752-1.65-1.752-.76 4.68-9.133 5.54 3.262 2.04zm-.376 6.904l8.28-5.254h4.948l-1.65-1.75 3.298-3.505-1.648-1.75-4.947 1.75-1.65-1.75-.76 4.68-9.132 5.54 3.26 2.04z" fill="#ca3745"/><path d="M180.197 51.188h-2.1l-2.1-2.044-2.098 2.044-44.088.002V22.578h2.1l-2.1-2.043V18.49l6.298 6.132v2.043h-2.1v-2.043h-2.098v2.043l17.046 9.026h14.36v8.858l6.383 4.598h4.2l2.098-2.044-2.1-2.044h2.1l4.2 6.13z" fill="#fff"/><path d="M170.627 51.21h-40.813V26.687l18.14 10.218h13.602v8.174l9.07 6.13z" fill="#28ae66"/><path d="M148.96 65.497l8.282 5.257h4.947l-1.65 1.75 3.298 3.504-1.65 1.75-4.946-1.75-1.65 1.75-.76-4.68-9.133-5.54 3.26-2.04zM158.025 61.41l8.282 5.256h4.947l-1.65 1.752 3.3 3.503-1.65 1.752-4.947-1.75-1.65 1.75-.76-4.68-9.133-5.54 3.262-2.04zm-.376-10.08l8.28 5.256h4.948l-1.65 1.752 3.298 3.503-1.648 1.752-4.947-1.75-1.65 1.75-.76-4.68-9.132-5.54 3.26-2.04z" fill="#ca3745"/><path d="M180.197 51.21h-2.1l-2.1 2.042-2.098-2.043-44.088-.002v28.61h2.1l-2.1 2.045v2.044l6.298-6.13V75.73h-2.1v2.044h-2.098v-2.044l17.046-9.026h14.36V57.85l6.383-4.598h4.2l2.098 2.044-2.1 2.043h2.1l4.2-6.13z" fill="#faae29"/><path d="M170.627 51.187h-40.813V75.71l18.14-10.218h13.602v-8.174l9.07-6.13zM89.025 51.21h40.81V26.687L111.7 36.905H98.095v8.174l-9.07 6.13zM134.305 51.198l11.388-6.13h6.802l-2.268-2.044 4.534-4.087-2.265-2.044-6.802 2.044-2.267-2.044-1.048 5.46-12.556 6.464 4.483 2.38zm-13.137-1.603l-11.387 6.13h-6.8l2.266 2.045-4.534 4.087 2.267 2.044 6.8-2.043 2.27 2.044 1.046-5.46 12.557-6.464-4.485-2.38z" fill="#ca3745"/><path d="M125.345 51.198l-11.387-6.13h-6.8l2.265-2.044-4.534-4.087 2.266-2.044 6.8 2.044 2.27-2.044 1.047 5.46 12.557 6.464-4.485 2.38zm5.062-1.603l11.388 6.13h6.8l-2.266 2.045 4.533 4.087-2.267 2.044-6.8-2.043-2.27 2.044-1.046-5.46-12.557-6.464 4.484-2.38z" fill="#28ae66"/><path d="M116.223 51.2l13.603-10.218L143.43 51.2l-13.603 10.217L116.224 51.2z" fill="#fff"/><path d="M85.742 55.28l2.1 2.045-2.1 2.043h-2.1l-6.297-8.174h2.1l4.197 6.13h2.1l-2.1-2.043 2.1-2.042h4.198v2.043h-4.198zM85.742 47.11l2.1-2.044-2.1-2.044h-2.1l-6.297 8.174h2.1l4.197-6.13h2.1l-2.1 2.043 2.1 2.043h4.198V47.11h-4.198zm85.504 6.706l-2.1 2.044 2.1 2.043h2.1l6.297-8.174h-2.1l-4.197 6.13h-2.1l2.1-2.044-2.1-2.043h-4.198v2.043h4.198zM173.913 47.11l-2.1-2.044 2.1-2.044h2.1l6.297 8.174h-2.1l-4.198-6.13h-2.1l2.1 2.043-2.1 2.043h-4.198V47.11h4.2zM116.91 40.09h4.198v16.348h-4.198zM121.43 47.11h16.793v8.173H121.43z" fill="#ca3745"/><path d="M333.07 170.08l-10.63 5.315v8.858l10.63 5.315h10.63l10.63-5.315v-8.858l-10.63-5.315h-10.63z" transform="matrix(3.554 0 0 3.846 -1073.053 -292.206)" stroke="#000" stroke-width=".066" fill="#28ae66"/><path d="M87.17 396.27h2.284v-4.19h4.572v4.19h2.285v-9.777h-2.284v4.19h-4.572v-4.19H87.17v9.778zm55.19 20.27h2.284v-4.19h4.572v4.19h2.285v-9.778h-2.284v4.19h-4.572v-4.19h-2.285v9.778zm-38.37-49.905h2.286v-4.19h4.572v4.19h2.285v-9.778h-2.285v4.19h-4.572v-4.19h-2.285v9.778zm34.66 1.52h2.286v-4.19h4.572v4.19h2.285v-9.777h-2.285v4.19h-4.572v-4.19h-2.285v9.778zm20.28 16.298h2.286v-4.19h4.572v4.19h2.286v-9.778h-2.286v4.19h-4.572v-4.19h-2.285v9.778zm-.662 15.79h2.285v-4.19h4.572v4.19h2.285v-9.778h-2.285v4.19h-4.572v-4.19h-2.285v9.778z" fill="#c00"/><path d="M129.827 435.39v-35.856h54.856v16.297l-36.57 19.56h-18.286zm-4.037-85.257v35.855H70.934V369.69l36.57-19.56h18.286z" fill="#faae29"/><path d="M129.827 363.674v35.855h54.856v-16.3l-36.57-19.557h-18.286zm-4.037 60.404v-35.855H70.933v16.297l36.57 19.558h18.286z" fill="#fff"/><path d="M-177.16 368.5h21.26l-21.26-10.63v10.63zm24.803-1.772v17.717h-33.662v-14.173h-7.085l-8.858-5.315v-12.402l5.314-5.315h-7.085v17.717h-1.772v-19.49h17.717l35.433 21.26z" transform="matrix(1.032 0 0 .92 341.901 45.868)" stroke="#000" stroke-width=".125" fill="#faae29"/><path d="M111.51 388.116v22.815h5.485l12.8 6.52 12.802-6.52h5.484v-22.814h-5.483l-12.8-6.52-12.802 6.52h-5.485z" fill="#ca3745"/><path d="M-177.16 368.5h21.26l-21.26-10.63v10.63zm24.803-1.772v17.717h-33.662v-14.173h-7.085l-8.858-5.315v-12.402l5.314-5.315h-7.085v17.717h-1.772v-19.49h17.717l35.433 21.26z" transform="matrix(-1.032 0 0 -.92 -82.271 753.117)" stroke="#000" stroke-width=".125" fill="#faae29"/><path d="M-177.16 368.5h21.26l-21.26-10.63v10.63zm24.803-1.772v17.717h-33.662v-14.173h-7.085l-8.858-5.315v-12.402l5.314-5.315h-7.085v17.717h-1.772v-19.49h17.717l35.433 21.26z" transform="matrix(-1.032 0 0 .92 -82.271 45.868)" stroke="#000" stroke-width=".125" fill="#fff"/><path d="M-177.16 368.5h21.26l-21.26-10.63v10.63zm24.803-1.772v17.717h-33.662v-14.173h-7.085l-8.858-5.315v-12.402l5.314-5.315h-7.085v17.717h-1.772v-19.49h17.717l35.433 21.26z" transform="matrix(1.032 0 0 -.92 341.902 753.117)" stroke="#000" stroke-width=".125" fill="#fff"/><path d="M85.95 412.578h2.286v-4.89h4.572v4.89h2.286V401.17h-2.286v4.89h-4.572v-4.89H85.95v11.408zm19.26 3.465h2.285v-4.888h4.572v4.89h2.285v-11.41h-2.285v4.89h-4.572v-4.89h-2.285v11.41zM81.914 372.65h2.285v4.89h4.573v-4.89h2.285v11.41h-2.285v-4.89H84.88v4.89h-2.284v-11.41zm22.614-14.98h2.285v4.89h4.572v-4.89h2.285v11.408h-2.285v-4.89h-4.572v4.89h-2.285v-11.41zm34.07 59.183h2.284v-4.887h4.572v4.89h2.285v-11.41h-2.284v4.89h-4.572v-4.89h-2.285v11.41zm20.86-32.797h2.286v-4.89h4.572v4.89h2.285v-11.408h-2.285v4.89h-4.572v-4.89h-2.286v11.408zM142.634 428.875h2.285v-4.888h4.57v4.89h2.286v-11.41h-2.285v4.89h-4.57v-4.89h-2.286v11.41zM142.634 428.875h2.285v-4.888h4.57v4.89h2.286v-11.41h-2.285v4.89h-4.57v-4.89h-2.286v11.41zm17.506-29.646h2.286v-4.89h4.572v4.89h2.285v-11.408h-2.285v4.89h-4.572v-4.89h-2.286v11.408zm-22.624-30.457h2.285v-4.888h4.573v4.89h2.285v-11.41h-2.285v4.89H139.8v-4.89h-2.284v11.41z" fill="#ca3745"/><path d="M131.658 399.532l7.314-5.944h3.657v2.972h-3.658v1.486h5.485v-5.943h-5.485v-4.457h-7.314v4.456h1.83v-2.972h3.655v2.972l-7.313 5.943-7.315-5.942v-2.97h3.657v2.97h1.83v-4.457h-7.315v4.457H115.2v5.944h5.487v-1.486h-3.658v-2.972h3.657L128 399.53l-7.313 5.943h-3.657v-2.97h3.657v-1.487h-5.485v5.943h5.485v4.456H128v-4.457h-1.827v2.972h-3.657v-2.973l7.313-5.943 7.314 5.944v2.972h-3.656v-2.97h-1.83v4.455h7.314v-4.456h5.486v-5.943h-5.486v1.487h3.658v2.97h-3.658l-7.314-5.942z" fill="#fff"/><g transform="matrix(1.032 0 0 .959 204.78 18.153)"><path d="M-122.352 134.285l3.43-3.73h20.573l15.43-16.784h20.575l15.43 16.785h20.575l3.43 3.73-3.43 3.73h-20.574l-15.43 16.783H-82.92l-15.43-16.784h-20.574l-3.43-3.73z" fill="#ca3745"/><path d="M372.05 391.54l1.903-1.95h22.834l17.126-19.488h19.03l17.125 19.49h22.835l1.903 1.948-1.903 1.948h-22.835l-15.223 17.54H412.01l-15.223-17.54h-22.834l-1.903-1.948z" transform="matrix(.931 0 0 .909 -466.86 -221.29)" stroke="#000" stroke-width=".272" fill="#ca3745"/><path d="M-64.07 136.148l6.857 7.458-3.428 3.73-1.716-1.865h-1.714v1.866l1.714 1.865h3.43l3.428-3.73v-3.73l-6.857-7.457 6.857-7.46v-3.73l-3.43-3.73h-3.427l-1.715 1.865v1.865h1.715l1.714-1.865 3.427 3.73-6.857 7.46-6.86-7.46 6.86-7.46v-1.863h-1.715l-6.857 7.458-6.86-7.46h-1.714v1.865l6.86 7.46-6.86 7.46-6.858-7.46 3.43-3.73 1.714 1.865h1.714v-1.865l-1.714-1.864h-3.43l-3.43 3.73v3.73l6.86 7.46-6.86 7.46v3.728l3.43 3.73h3.43l1.714-1.865v-1.865h-1.714l-1.715 1.865-3.43-3.73 6.86-7.46 6.857 7.46-6.858 7.46v1.864h1.714l6.86-7.46 6.857 7.46h1.714v-1.864l-6.86-7.46 6.86-7.458zm-8.573-9.325l-6.86 7.46 6.86 7.46 6.858-7.46-6.858-7.46zm-10.274 27.967v14.918l1.715-1.865 1.715 1.865 1.714-1.865 1.714 1.865 1.716-1.865 1.714 1.865 1.715-1.865 1.715 1.865 1.714-1.865 1.715 1.865 1.712-1.865 1.715 1.865V154.79h-20.574zm20.564-41V98.872l-1.715 1.865-1.715-1.865-1.714 1.865-1.714-1.865-1.716 1.865-1.714-1.865-1.715 1.865-1.715-1.865-1.714 1.865-1.715-1.865-1.712 1.865-1.715-1.865v14.918h20.574zm29.148 16.79v-14.918l-1.715 1.865-1.713-1.865-1.715 1.865-1.715-1.865-1.714 1.865-1.715-1.865-1.714 1.865-1.714-1.865v14.918h13.715zm-65.15 0v-14.918l-1.715 1.865-1.713-1.865-1.715 1.865-1.715-1.865-1.714 1.865-1.715-1.865-1.714 1.865-1.714-1.865v14.918h13.715zm65.15 7.43v14.918l-1.715-1.865-1.713 1.865-1.715-1.865-1.715 1.865-1.714-1.865-1.715 1.865-1.714-1.865-1.714 1.865V138.01h13.715zm-65.15 0v14.918l-1.715-1.865-1.713 1.865-1.715-1.865-1.715 1.865-1.714-1.865-1.715 1.865-1.714-1.865-1.714 1.865V138.01h13.715z" fill="#faae29"/><path d="M-62.347 154.79v9.324l1.714-1.866 1.715 1.866 1.714-1.866 1.714 1.866 1.715-1.866 1.714 1.866 1.714-1.866 1.714 1.866 1.715-1.866v-24.242l-15.43 16.784zm-20.586 0v9.325l-1.715-1.866-1.715 1.865-1.714-1.866-1.714 1.865-1.716-1.866-1.714 1.865-1.715-1.866-1.714 1.865-1.714-1.866v-24.244l15.43 16.784zm0-41v-9.324l-1.714 1.866-1.715-1.866-1.714 1.866-1.714-1.866-1.715 1.866-1.714-1.866-1.714 1.866-1.714-1.866-1.715 1.866v24.242l15.43-16.784zm20.586 0v-9.324l1.714 1.866 1.715-1.866 1.714 1.866 1.714-1.866 1.715 1.866 1.714-1.866 1.714 1.866 1.714-1.866 1.715 1.866v24.242l-15.43-16.784zm-49.73 35.416l-1.716-1.865-1.713 1.866-1.714-1.865-1.715 1.866-1.715-1.865-1.715 1.866-1.713-1.865-1.715 1.866v-29.838l1.714 1.866 1.715-1.866 1.715 1.866 1.714-1.866 1.715 1.866 1.713-1.866 1.714 1.866 1.715-1.866v11.19h-6.857l-3.43 3.73 3.43 3.73h6.857v11.188zm78.875 0l1.715-1.865 1.713 1.866 1.714-1.865 1.715 1.866 1.715-1.865 1.715 1.866 1.713-1.865 1.715 1.866v-29.838l-1.714 1.866-1.715-1.866-1.715 1.866-1.714-1.866-1.715 1.866-1.713-1.866-1.714 1.866-1.715-1.866v11.19h6.857l3.43 3.73-3.43 3.73h-6.857v11.188z" fill="#28ae66"/><path d="M-91.36 155.978s-1.428 1.474-1.428 2.21c-.028.687 1.524 2.227 2.143 2.21.81.017 2.143-1.473 2.143-2.21 0-.736-1.43-2.21-1.43-2.21v-2.948s3.104 5.068 3.104 2.857c0-1.586-3.103-4.33-3.103-4.33h-1.43s-3.103 3.213-3.103 4.33c0 2.21 3.103-2.857 3.103-2.857v2.948z" fill="#fff"/><path d="M-73.497 161.67s-1.715 2.062-1.715 3.094c-.034.962 1.83 3.118 2.572 3.095.97.022 2.572-2.064 2.572-3.096s-1.715-3.095-1.715-3.095v-4.128s3.037 6.75 3.037 3.656c0-2-3.037-5.72-3.037-5.72h-1.714s-3.506 4.656-3.037 5.72c0 3.095 3.037-3.656 3.037-3.656v4.127z" fill="#ca3745"/><ellipse fill="#28ae66" transform="matrix(.968 0 0 1.053 -482.4 -277.85)" cx="403.94" rx="3.543" cy="391.54" ry="1.772"/><ellipse fill="#28ae66" transform="matrix(.968 0 0 1.053 -463.54 -277.85)" cx="403.94" rx="3.543" cy="391.54" ry="1.772"/><ellipse fill="#28ae66" transform="matrix(.968 0 0 1.053 -444.69 -277.85)" cx="403.94" rx="3.543" cy="391.54" ry="1.772"/><path d="M-91.72 112.76s-1.428-1.474-1.428-2.21c-.028-.688 1.524-2.228 2.143-2.21.81-.018 2.143 1.472 2.143 2.21 0 .736-1.43 2.21-1.43 2.21v2.948s3.104-5.068 3.104-2.857c0 1.587-3.103 4.33-3.103 4.33h-1.43s-3.103-3.212-3.103-4.33c0-2.21 3.103 2.858 3.103 2.858v-2.948z" fill="#fff"/><path d="M-73.857 107.062s-1.715-2.063-1.715-3.095c-.034-.962 1.83-3.118 2.572-3.095.97-.023 2.572 2.063 2.572 3.095s-1.715 3.095-1.715 3.095v4.127s3.037-6.752 3.037-3.657c0 2-3.037 5.72-3.037 5.72h-1.714s-3.506-4.656-3.037-5.72c0-3.095 3.037 3.656 3.037 3.656v-4.128z" fill="#ca3745"/><path d="M-54.86 155.978s-1.428 1.474-1.428 2.21c-.028.687 1.524 2.227 2.143 2.21.81.017 2.143-1.473 2.143-2.21 0-.736-1.43-2.21-1.43-2.21v-2.948s3.104 5.068 3.104 2.857c0-1.586-3.103-4.33-3.103-4.33h-1.43s-3.103 3.213-3.103 4.33c0 2.21 3.103-2.857 3.103-2.857v2.948zm-.36-43.218s-1.428-1.474-1.428-2.21c-.028-.688 1.524-2.228 2.143-2.21.81-.018 2.143 1.472 2.143 2.21 0 .736-1.43 2.21-1.43 2.21v2.948s3.104-5.068 3.104-2.857c0 1.587-3.103 4.33-3.103 4.33h-1.43s-3.103-3.212-3.103-4.33c0-2.21 3.103 2.858 3.103 2.858v-2.948z" fill="#fff"/><path d="M-106.273 145.593s-1.9 1.383-1.9 2.074c-.037.644 2.026 2.09 2.85 2.074 1.076.016 2.85-1.382 2.85-2.073 0-.69-1.9-2.074-1.9-2.074v-2.765s3.364 4.523 3.364 2.45c0-1.342-3.364-3.833-3.364-3.833h-1.9s-3.882 3.12-3.363 3.832c0 2.074 3.364-2.45 3.364-2.45v2.766zm-.4-21.122s-1.9-1.382-1.9-2.073c-.037-.644 2.026-2.09 2.85-2.074 1.076-.015 2.85 1.383 2.85 2.074 0 .69-1.9 2.074-1.9 2.074v2.766s3.364-4.524 3.364-2.45c0 1.342-3.364 3.833-3.364 3.833h-1.9s-3.882-3.12-3.363-3.833c0-2.074 3.364 2.45 3.364 2.45v-2.766zm66.25 20.68s-1.9 1.384-1.9 2.075c-.037.644 2.026 2.09 2.85 2.074 1.076.014 2.85-1.384 2.85-2.075 0-.69-1.9-2.074-1.9-2.074v-2.764s3.364 4.523 3.364 2.45c0-1.342-3.364-3.833-3.364-3.833h-1.9s-3.882 3.12-3.363 3.832c0 2.074 3.364-2.45 3.364-2.45v2.766zm-.4-21.12s-1.9-1.382-1.9-2.073c-.037-.644 2.026-2.09 2.85-2.074 1.076-.015 2.85 1.383 2.85 2.074 0 .69-1.9 2.074-1.9 2.074v2.766s3.364-4.524 3.364-2.45c0 1.342-3.364 3.833-3.364 3.833h-1.9s-3.882-3.12-3.363-3.833c0-2.074 3.364 2.45 3.364 2.45v-2.766z" fill="#ca3745"/><path d="M-120.285 145.363c-.615-1.277-.453-1.86-.453-2.597-.028-.687 1.716-2.025 2.336-2.01.81-.015 2.143 1.475 2.143 2.21 0 .738.035 1.375-.297 2.645l-.893-2.153c-1.084 3.056-1.143 3.127-1.787-.074l-1.048 1.98zm.06-21.433c-.615 1.278-.453 1.862-.453 2.598-.028.687 1.716 2.025 2.336 2.01.81.015 2.143-1.475 2.143-2.21 0-.738.035-1.375-.297-2.645l-.893 2.154c-1.084-3.056-1.143-3.127-1.787.074l-1.048-1.98zm92.42 21.163c-.615-1.277-.453-1.86-.453-2.597-.028-.687 1.716-2.025 2.336-2.01.81-.015 2.143 1.475 2.143 2.21 0 .738.035 1.375-.297 2.645l-.893-2.153c-1.084 3.056-1.143 3.127-1.787-.074l-1.048 1.98zm.05-21.438c-.615 1.277-.453 1.86-.453 2.597-.028.687 1.716 2.025 2.336 2.01.81.015 2.143-1.475 2.143-2.21 0-.738.035-1.375-.297-2.645l-.893 2.154c-1.084-3.055-1.143-3.126-1.787.075l-1.048-1.98z" fill="#fff"/><path d="M-83.27 170.073v-5.315h-15.944v-10.63h-14.173v-3.543h-12.402v-31.89h12.403v-3.542h14.173v-10.63h15.944v-5.315h21.26v5.315h15.945v10.63h14.173v3.543h12.402v31.89h-12.402v3.542h-14.173v10.63H-62.01v5.315h-21.26zm196.658 8.86v-5.316H97.444v-10.63H83.27v-3.543h-12.4v-35.432h12.4v-3.544h14.174v-10.63h15.945v-5.315h24.802v5.315h15.945v10.63h14.173v3.544h12.402v35.432H168.31v3.543h-14.173v10.63h-15.945v5.315h-24.804z" stroke="#000" stroke-width=".125" fill="#ca3745"/></g></g></svg>