<svg xmlns="http://www.w3.org/2000/svg" height="512" width="512" viewBox="0 0 512 512"><defs><clipPath id="a"><path fill-opacity=".67" d="M124.02 0h496.06v496.06H124.02z"/></clipPath></defs><g fill-rule="evenodd" clip-path="url(#a)"><path fill="#e70013" d="M-128 0h767.9v511.934H-128z"/><path d="M385.74 255.74c0 71.307-57.807 129.112-129.114 129.112s-129.11-57.806-129.11-129.113 57.804-129.114 129.11-129.114S385.74 184.433 385.74 255.74z" fill="#fff"/><path d="M256.632 341.367c-47.265 0-85.624-38.36-85.624-85.624 0-47.266 38.36-85.625 85.624-85.625 11.816 0 25.266 2.718 34.402 9.428-62.622 2.357-78.462 55.47-78.462 76.876s10.127 69.145 78.46 76.196c-7.775 5.012-22.584 8.75-34.4 8.75zM332.066 291.757l-38.886-14.18-25.718 32.415 1.476-41.352-38.782-14.448 39.794-11.373 1.744-41.353 23.116 34.335 39.867-11.115-25.5 32.59z" fill="#e70013"/></g></svg>