<svg xmlns="http://www.w3.org/2000/svg" height="512" width="512" viewBox="0 0 512 512"><defs><clipPath id="a"><path fill-opacity=".67" d="M0 0h496.06v496.06H0z"/></clipPath></defs><g fill-rule="evenodd" clip-path="url(#a)"><path fill="#de2110" d="M0 0h767.975v511.984H0z"/><path fill="#08399c" d="M0 0h385.685v255.992H0z"/><path fill="#fff" d="M282.098 178.554l-47.332-9.732 10.083 47.26-36.135-32.09-14.903 45.97-15.244-45.865-35.886 32.366 9.732-47.332-47.26 10.075 32.088-36.124-45.968-14.902 45.856-15.245-32.356-35.89 47.332 9.73-10.074-47.26 36.124 32.092 14.903-45.97 15.244 45.86 35.886-32.362-9.733 47.335 47.26-10.08-32.088 36.134 45.97 14.893-45.858 15.244z"/><path fill="#005387" d="M238.462 174.92l-14.935 7.93-14.57 8.61-16.917-.583-16.918.197-14.36-8.94-14.758-8.276-7.953-14.905-8.63-14.52.574-16.873-.188-16.883 8.965-14.32 8.298-14.715 14.935-7.934 14.57-8.607 16.917.58 16.928-.19 14.36 8.937 14.748 8.275 7.953 14.902 8.63 14.52-.574 16.872.187 16.883-8.964 14.322z"/><path d="M244.637 128.28c0 28.646-23.222 51.867-51.867 51.867s-51.866-23.22-51.866-51.866 23.223-51.865 51.866-51.865 51.867 23.222 51.867 51.866z" fill="#fff"/></g></svg>