<svg xmlns="http://www.w3.org/2000/svg" height="512" width="512" viewBox="0 0 512 512"><defs><clipPath id="a"><path fill-opacity=".67" d="M124.02 0h496.06v496.06H124.02z"/></clipPath></defs><g clip-path="url(#a)"><path fill-rule="evenodd" fill="#ffe700" d="M-128 341.313h767.9v85.31H-128z"/><path fill-rule="evenodd" d="M-128 255.967h767.9v85.31H-128z"/><path fill-rule="evenodd" fill="#de3908" d="M-128 170.662h767.9v85.31H-128z"/><path fill-rule="evenodd" fill="#ffe700" d="M-128 85.347h767.9v85.31H-128z"/><path fill-rule="evenodd" d="M-128 0h767.9v85.31H-128z"/><path d="M335.653 255.967c0 44.018-35.684 79.7-79.702 79.7s-79.7-35.682-79.7-79.7 35.684-79.7 79.7-79.7 79.703 35.682 79.703 79.7z" fill-rule="evenodd" stroke="#000" stroke-width="NaN" fill="#fffdff"/><path d="M241.89 194.867l-5.175-9.53c1.997-1.997 5.356-3.54 10.712-3.54 0 .363-.546 10.44-.546 10.44l-4.99 2.63z" fill-rule="evenodd" stroke="#000" stroke-width="NaN" fill="#de3108"/><path d="M246.88 192.332l.726-10.53s10.712-.635 16.52 6.353c.09-.09-5.717 8.17-5.717 8.17l-11.53-3.994z" fill-rule="evenodd" stroke="#000" stroke-width="NaN" fill="#ffe700"/><path d="M258.592 196.233l5.265-8.17c3.54 3.723 4.99 6.355 5.536 10.35.09.09-8.35 2.087-8.35 1.996s-2.36-4.086-2.45-4.177z" fill-rule="evenodd" stroke="#000" stroke-width="NaN" fill="#de3108"/><path stroke-linejoin="round" d="M244.523 331.114s9.894-11.346 29.138-8.895c-2.904-4.72-12.253-4.176-12.253-4.176s-2.904-22.057-.636-23.147 11.892.09 11.892.09c1.27 0 3.45-3.448 1.725-5.627-1.725-2.178-6.808-10.53-4.72-12.164 2.087-1.632 13.433.908 13.433.908l-32.04-41.028s-3.27-15.43 3.266-22.873c7.898-6.536 7.08-13.616 6.808-13.525-1.09-7.17-11.98-12.345-19.333-5.718-4.356 5.263-1.452 9.257-1.452 9.257s-11.437 3.086-11.89 5.084c-.455 1.998 12.89-.362 12.89-.362l-1.273 9.168s-25.96 23.6-6.08 44.022c.18-.09.635-.908.635-.908s6.99 8.624 14.342 10.53c6.898 7.08 6.264 5.99 6.264 5.99s1.36 11.166.09 13.344c-1.724-.545-19.333-1.18-21.967-.182-2.36.727-11.438.273-9.168 15.067 1.723-3.994 3.267-7.534 3.267-7.534s-.273 5.356 1.906 7.262c-.363-5.63 2.088-9.44 2.088-9.44s.454 6.172 1.814 7.08c1.362.908 1.362-9.985 8.896-9.078 7.534.91 12.98.636 12.98.636s2.542 21.332 1.725 23.328c-5.448-1.27-18.427.545-19.245 3.813 7.625-.454 11.166.454 11.166.454s-6.172 5.447-4.266 8.623z" fill-rule="evenodd" stroke="#000" stroke-linecap="round" stroke-width="0.865848"/><path stroke-linejoin="round" d="M247.58 214.724s-18.89 20.82-10.74 36.753c.433-2.222.244-3.617.516-3.527-.454-.272 2.343 1.917 2.13 1.49.06-1.15-.85-3.62-.85-3.62l2.555.64-1.49-2.77 3.62.427s-1.278-3.41-.852-3.41c.426 0 2.983.214 2.983.214-5.372-9.64-.305-17.646 2.13-26.196z" fill-rule="evenodd" stroke="#9ca69c" stroke-linecap="round" stroke-width="0.865848" fill="#9ca69c"/><path d="M254.142 196.864s1 7.17-2.904 9.257c-.635.455-3.085 1.274-2.723 2.726.454 1.997 1.543 1.633 3.086 1.27 4.085-.726 8.806-9.44 2.542-13.252z" fill-rule="evenodd" stroke="#9ca69c" stroke-width="NaN" fill="#9ca69c"/><path d="M363.524 196.743a1.495 1.495 0 1 1-2.99 0 1.495 1.495 0 0 1 2.99 0z" fill-rule="evenodd" fill="#fff" transform="translate(-128) scale(1.032)"/><path d="M241.072 209.026c-1 .818-6.264 6.265-1.09 8.262 5.356-1.453 3.903-2.45 5.084-3.632.03-2.45-2.663-3.086-3.994-4.63z" fill-rule="evenodd" stroke="#000" stroke-width="NaN" fill="#de3108"/><path stroke-linejoin="round" d="M252.508 260.5c-.273 1.18-1.452 5.536.18 8.895 4.54-1.906 6.627-1.362 8.17-.363-3.72-2.996-5.173-4.266-8.35-8.532z" fill-rule="evenodd" stroke="#9ca69c" stroke-linecap="round" stroke-width="0.865848" fill="#9ca69c"/><path stroke-linejoin="round" d="M260.318 281.104l.272 10.166s3.54.636 5.174 0c1.634-.635-.09-7.08-5.446-10.166z" fill-rule="evenodd" stroke="#fff" stroke-linecap="round" stroke-width="0.865848" fill="#fff"/><path d="M286.002 282.373s-6.535-15.795-23.237-19.79-14.524-21.783-13.16-22.873c.725-1.543 1.27-3.903 6.08-1.633 4.81 2.27 26.96 13.433 30.136 13.978s.455 30.68.182 30.318z" fill-rule="evenodd" stroke="#000" stroke-width="NaN" fill="#9ca69c"/><path stroke-linejoin="round" d="M270.118 262.495c-.273.182 22.33 13.344 15.52 24.69 6.447-4.266 4.358-11.71 4.358-11.71s5.264 13.707-7.533 20.424c1.362 1.18 2.27.907 2.27.907l-2.18 2.178s-1 1.634 7.625-2.542c-2.36 1.907-2.54 3.268-2.54 3.268s.634 1.818 6.26-3.084c-4.538 4.902-5.536 7.442-5.536 7.352 12.254-1.09 38.94-40.938-8.44-52.74 2.54 2.635 2.176 2.272 2.176 2.272l-11.98 8.985z" fill-rule="evenodd" stroke="#000" stroke-width="0.865848" fill="#de3108"/><path stroke-linejoin="round" d="M271.116 258.593c3.085 2.18 4.174 2.905 4.537 3.994-2.813-.634-5.355-.454-5.355-.454s-6.08-5.808-7.17-6.262c-.817 0-5.538-2.995-5.538-2.995-2.36-1.18-4.537-9.35 4.177-6.99 8.984 4.267 10.256 4.63 10.256 4.63l10.71 3.36 6.172 6.898s-10.98-5.447-12.342-5.538c2.994 2.45 4.72 5.81 4.72 5.81-3.48-1-6.506-1.907-10.167-2.452z" fill-rule="evenodd" stroke="#000" stroke-linecap="round" stroke-width="0.865848" fill="#fff"/><path d="M228.368 209.845s10.53-2.542 11.8-2.178" stroke="#fff" stroke-linecap="round" stroke-width="0.865848" fill="none"/><path fill-rule="evenodd" fill="#de3908" d="M-128 426.63h767.9v85.31H-128z"/></g></svg>