<svg xmlns="http://www.w3.org/2000/svg" height="512" width="512" viewBox="0 0 512 512"><defs><clipPath id="a"><path fill-opacity=".67" d="M0 0h130v130H0z"/></clipPath></defs><g fill-rule="evenodd" clip-path="url(#a)"><path d="M0 0h972.81v39.385H0zm0 78.77h972.81v39.385H0zm0 20h972.81v39.385H0zm0 20h972.81v39.385H0zm0 20h972.81v39.385H0zm0 20h972.81v39.385H0zm0 20h972.81v39.385H0z" fill="#bd3d44"/><path d="M0 39.385h972.81V78.77H0zm0 49.385h972.81v39.385H0zm0 20h972.81v39.385H0zm0 20h972.81v39.385H0zm0 20h972.81v39.385H0zm0 20h972.81v39.385H0z" fill="#fff"/><path fill="#192f5d" d="M0 0h389.124v275.695H0z"/><g fill="#fff"><path d="M32.426 11.8l3.544 10.898h11.453l-9.267 6.734 3.54 10.894-9.27-6.735-9.268 6.736 3.54-10.894-9.27-6.734h11.46zm40.662-8.804l3.54 10.898h11.458L78.82 20.63l3.536 10.893-9.268-6.73-9.267 6.733 3.538-10.893-9.268-6.735h11.458zm16.467 0l3.54 10.898h11.458l-9.267 6.735 3.54 10.893-9.27-6.735-9.268 6.735 3.54-10.894-9.27-6.736h11.46zm16.463 0l3.54 10.898h11.458l-9.267 6.735 3.54 10.893-9.272-6.735-9.267 6.735 3.542-10.894-9.27-6.736h11.46zm16.47 0l3.54 10.898h11.458l-9.27 6.735 3.544 10.893-9.272-6.73-9.267 6.733 3.538-10.893-9.268-6.735h11.458zm16.467 0l3.54 10.898h11.458l-9.27 6.735 3.544 10.893-9.272-6.735-9.267 6.735 3.537-10.894-9.268-6.736h11.458zM64.855 39.37l3.54 10.897h11.458l-9.267 6.735 3.537 10.894-9.268-6.735-9.267 6.736 3.537-10.894-9.268-6.735h11.458zM32.93-19.378l3.54 10.898h11.458L87.05 27.63l3.54 10.893-9.272-6.735-9.267 6.735 3.542-10.894-9.27-6.736h11.46zm16.47 0l3.54 10.898h11.458l-9.267 6.735 3.54 10.893-9.272-6.735-9.267 6.735 3.542-10.894-9.272-6.736h11.462zm16.467 0l3.54 10.898h11.458l-9.267 6.735 3.537 10.893-9.268-6.735-9.267 6.735 3.54-10.894-9.27-6.736h11.46zm16.463 0l3.54 10.898h11.458l-9.27 6.735 3.544 10.893-9.272-6.735-9.267 6.735 3.538-10.894-9.267-6.736h11.458zM32.426 66.94l3.544 10.897h11.453l-9.267 6.734 3.54 10.895-9.27-6.735-9.268 6.735 3.54-10.894-9.27-6.733h11.46zm40.662-49.944l3.54 10.898h11.458L78.82 34.63l3.536 10.893-9.268-6.735-9.267 6.735L67.36 34.63l-9.268-6.736h11.458zm16.467 0l3.54 10.898h11.458l-9.267 6.735 3.54 10.893-9.27-6.735-9.268 6.735 3.54-10.894-9.27-6.736h11.46zm16.463 0l3.54 10.898h11.458l-9.267 6.735 3.54 10.893-9.272-6.735-9.267 6.735 3.542-10.894-9.27-6.736h11.46zm16.47 0l3.54 10.898h11.458l-9.27 6.735 3.544 10.893-9.272-6.735-9.267 6.735 3.538-10.894-9.268-6.736h11.458zm16.467 0l3.54 10.898h11.458l-9.27 6.735 3.544 10.893-9.272-6.735-9.267 6.735 3.537-10.894-9.268-6.736h11.458zM64.855 94.508l3.54 10.898h11.458l-9.267 6.735 3.537 10.895-9.268-6.735-9.267 6.735 3.537-10.894-9.268-6.734h11.458zM32.93-46.516l3.54 10.898h11.458L87.05 41.63l3.54 10.893-9.272-6.735-9.267 6.735 3.542-10.894-9.27-6.736h11.46zm16.47 0l3.54 10.898h11.458l-9.267 6.735 3.54 10.893-9.272-6.735-9.267 6.735 3.542-10.894-9.272-6.736h11.462zm16.467 0l3.54 10.898h11.458l-9.267 6.735 3.537 10.893-9.268-6.735-9.267 6.735 3.54-10.894-9.27-6.736h11.46zm16.463 0l3.54 10.898h11.458l-9.27 6.735 3.544 10.893-9.272-6.735-9.267 6.735 3.538-10.894-9.267-6.736h11.458zM32.426 122.078l3.544 10.898h11.453l-9.267 6.734 3.54 10.894-9.27-6.735-9.268 6.734 3.54-10.894-9.27-6.734h11.46zm40.662-91.082l3.54 10.898h11.458L78.82 48.63l3.536 10.893-9.268-6.735-9.267 6.735L67.36 48.63l-9.268-6.736h11.458zm16.467 0l3.54 10.898h11.458l-9.267 6.735 3.54 10.893-9.27-6.735-9.268 6.735 3.54-10.894-9.27-6.736h11.46zm16.463 0l3.54 10.898h11.458l-9.267 6.735 3.54 10.893-9.272-6.735-9.267 6.735 3.542-10.894-9.27-6.736h11.46zm16.47 0l3.54 10.898h11.458l-9.27 6.735 3.544 10.893-9.272-6.735-9.267 6.735 3.538-10.894-9.268-6.736h11.458zm16.467 0l3.54 10.898h11.458l-9.27 6.735 3.544 10.893-9.272-6.735-9.267 6.735 3.537-10.894-9.268-6.736h11.458zM64.855 149.647l3.54 10.898h11.458l-9.267 6.735 3.537 10.894-9.268-6.735-9.267 6.734 3.537-10.894-9.268-6.735h11.458zM32.93-73.654l3.54 10.897h11.458L87.05 55.63l3.54 10.893-9.272-6.735-9.267 6.735 3.542-10.894-9.27-6.736h11.46zm16.47 0l3.54 10.897h11.458l-9.267 6.735 3.54 10.893-9.272-6.735-9.267 6.735 3.542-10.894-9.272-6.736h11.462zm16.467 0l3.54 10.897h11.458l-9.267 6.735 3.537 10.893-9.268-6.735-9.267 6.735 3.54-10.894-9.27-6.736h11.46zm16.463 0l3.54 10.897h11.458l-9.27 6.735 3.544 10.893-9.272-6.735-9.267 6.735 3.538-10.894-9.267-6.736h11.458zM32.426 177.217l3.544 10.898h11.453l-9.267 6.734 3.54 10.893-9.27-6.735-9.268 6.735 3.54-10.894-9.27-6.735h11.46zm40.662-132.22l3.54 10.897h11.458L78.82 62.63l3.536 10.893-9.268-6.735-9.267 6.735L67.36 62.63l-9.268-6.736h11.458zm16.467 0l3.54 10.897h11.458l-9.267 6.735 3.54 10.893-9.27-6.735-9.268 6.735 3.54-10.894-9.27-6.736h11.46zm16.463 0l3.54 10.897h11.458l-9.267 6.735 3.54 10.893-9.272-6.735-9.267 6.735 3.542-10.894-9.27-6.736h11.46zm16.47 0l3.54 10.897h11.458l-9.27 6.735 3.544 10.893-9.272-6.735-9.267 6.735 3.538-10.894-9.268-6.736h11.458zm16.467 0l3.54 10.897h11.458l-9.27 6.735 3.544 10.893-9.272-6.735-9.267 6.735 3.537-10.894-9.268-6.736h11.458zM64.855 204.786l3.54 10.898h11.458l-9.267 6.735 3.537 10.893-9.268-6.735-9.267 6.735 3.537-10.894-9.268-6.736h11.458zm16.463-152.79l3.54 10.898h11.458L87.05 69.63l3.54 10.893-9.272-6.735-9.267 6.735 3.542-10.894-9.27-6.736h11.46zm16.47 0l3.54 10.898h11.458l-9.267 6.735 3.54 10.893-9.272-6.735-9.267 6.735 3.542-10.894-9.272-6.736h11.462zm16.467 0l3.54 10.898h11.458l-9.267 6.735 3.537 10.893-9.268-6.735-9.267 6.735 3.54-10.894-9.27-6.736h11.46zm16.463 0l3.54 10.898h11.458l-9.27 6.735 3.544 10.893-9.272-6.735-9.267 6.735 3.538-10.894-9.267-6.736h11.458zM32.426 232.356l3.544 10.898h11.453l-9.267 6.734 3.54 10.894-9.27-6.735-9.268 6.735 3.54-10.894-9.27-6.734h11.46zm40.662-173.36l3.54 10.898h11.458L78.82 76.63l3.536 10.893-9.268-6.735-9.267 6.735L67.36 76.63l-9.268-6.736h11.458zm16.467 0l3.54 10.898h11.458l-9.267 6.735 3.54 10.893-9.27-6.735-9.268 6.735 3.54-10.894-9.27-6.736h11.46zm16.463 0l3.54 10.898h11.458l-9.267 6.735 3.54 10.893-9.272-6.735-9.267 6.735 3.542-10.894-9.27-6.736h11.46zm16.47 0l3.54 10.898h11.458l-9.27 6.735 3.544 10.893-9.272-6.735-9.267 6.735 3.538-10.894-9.268-6.736h11.458zm16.467 0l3.54 10.898h11.458l-9.27 6.735 3.544 10.893-9.272-6.735-9.267 6.735 3.537-10.894-9.268-6.736h11.458z"/></g></g></svg>