<svg xmlns="http://www.w3.org/2000/svg" xmlns:xlink="http://www.w3.org/1999/xlink" height="512" width="512" viewBox="0 0 512 512"><path fill="#4b92db" fill-rule="evenodd" d="M0 0h512v512H0z"/><g transform="translate(-128.692) scale(.64)"><path d="M663.853 587.03c-2.694 3.08-6.18 5.956-9.466 8.608-21.233-21.943-46.16-46.262-69.854-46.262-14.69 0-25.27 11.182-37.613 19.072-17.13 10.95-40.626 17.115-60.76 9.08-10.832-4.113-21.324-10.17-29.166-20.01 15.848 10.93 39.58 12.4 57.472 4.977 19.776-8.205 39.904-19.1 62.44-19.1 33.223 0 64.797 22.474 86.947 43.636zM418.31 518.017c21.997 25.04 57.872 16.983 87.235 23.237 4.087.87 7.926 2.227 12.313 1.554-3.49-2.214-8.118-2.463-12.15-3.982-22.783-8.583-26.335-32.967-38.804-49.748 15.926 10.587 29.12 25.082 44.012 38.703 10.364 9.48 23.277 13.538 36.67 16.263-3.218 1.176-7.428.9-10.894 1.758-24.056 5.97-50.727 15.39-76.324 6.94-16.52-5.45-33.71-18.36-42.057-34.723zm-35.257-57.95c13.72 31.063 48.19 33.496 71.11 52.552 4.36 3.623 8.68 6.96 13.467 9.19l.247-.25c-5.29-4.785-11.012-10.488-15.11-16.44-13.1-19.035-8.74-45.05-18.84-65.23 9.177 10.986 17.784 22.3 23.068 34.88 8.503 20.247 11.392 43.343 30.463 58.727-20.64-6.81-44.452-5.454-63.04-17.628-19.536-12.798-37.643-32.997-41.365-55.803zm-14.697-62.846c1.984 27.37 31.12 41.988 45.014 64.485 2.967 4.805 6.02 9.765 10.33 13.645-.672-2.914-3.07-5.496-4.39-8.355-4.455-9.653-6.472-20.823-5.36-32.31 1.354-13.975 7.18-26.953 4.944-41.655 11.975 25.848 8.112 58.162 15.033 86.11 1.53 6.183 5.296 11.594 7.616 17.45-11.766-8.95-27.185-16.896-40.1-27.076-12.49-9.845-23.332-21.384-28.967-36.4-4.06-10.818-5.117-23.723-4.12-35.894zm.814-50.425c1.405-6.108 2.48-12.43 5.138-18.033-5.03 25.818 12.144 44.467 18.008 66.803 2.21 8.417 2.966 17.36 6.37 25.215.317.17.592-.16.788-.414-8.473-23.77 3.948-45.74 16.05-64.477 3.18-4.926 4.71-10.66 6.196-16.46 1.308 10.76-.982 23.218-2.973 34.32-2.563 14.298-7.45 27.697-11.332 41.49-2.557 8.617-1.883 18.34-.57 27.37l-1.235-.984c-9.01-16.632-26.784-29.625-32.152-47.778-4.29-14.508-7.258-31.27-4.288-47.053zm9.502-27.77c0-19.538 7.607-35.475 19.018-50.025.33-.166.567-.498.994-.42-12.56 19.108-1.128 43.228-2.742 64.9l-1.657 22.245c.246.162.246.83.83.574.742-2.48.967-5.12 1.4-7.68 3.023-17.933 18.77-30.415 32.124-43.075a28.528 28.528 0 0 0 6.96-10.342c-1.11 8.933-3.603 18.09-7.613 26.208-10.28 20.81-30.132 37.61-33.703 61.258-1.73-22.666-15.613-39.515-15.613-63.647zm33.112-65.904c6.316-7.003 13.396-12.46 21.824-14.616-16.366 11.253-15.477 31.366-20.488 48.183-1.832 6.15-4.525 11.91-5.957 18.265l.415.332c2.722-7.185 7.394-14.09 13.48-19.834 11.512-10.86 28.82-17.434 34.515-33.32-.26 22.076-19.08 38.858-36.266 51.84-7.71 5.824-14.26 13.642-18.258 21.838.666-6.1.97-11.175.425-17.13-1.764-19.284-2.91-40.903 10.308-55.556zm66.428-37.116c-12.146 10.658-20.25 24.377-29.582 36.71-7.76 10.256-18.41 16.61-27.567 25.218 4.943-10.255 5.856-22.007 12.134-31.93 10.735-16.966 28.478-23.55 45.015-29.997z" fill="#fff" id="a"/><use height="100%" width="100%" xlink:href="#a" transform="matrix(-1 0 0 1 1202.2 0)"/></g><path d="M350.946 279.475l-2.296-1.253a103.363 103.363 0 0 1-19.024 27.078l-13.414-13.414c6.572-6.772 11.87-14.458 15.773-22.766l-2.285-1.25a81.638 81.638 0 0 1-15.31 22.19l-12.153-12.15a64.04 64.04 0 0 0 12.344-18.297l-2.266-1.237a61.786 61.786 0 0 1-11.894 17.72l-13.43-13.43a42.413 42.413 0 0 0 8.58-13.437l-2.268-1.24a40.13 40.13 0 0 1-8.118 12.867l-12.188-12.186a22.616 22.616 0 0 0 5.77-13.93h17.252a39.77 39.77 0 0 1-2.715 13.25l2.268 1.238a42.477 42.477 0 0 0 2.99-14.488h19.017a61.198 61.198 0 0 1-5.264 23.634l2.268 1.238a63.916 63.916 0 0 0 5.54-24.873h17.22a80.816 80.816 0 0 1-7.64 33.13l2.285 1.25c5-10.64 7.717-22.3 7.897-34.38H358.9c-.19 15.564-3.857 30.3-10.25 43.48l2.297 1.254c6.876-14.162 10.526-29.8 10.526-46.005 0-13.783-2.64-27.15-7.657-39.555l-2.357 1.012c4.724 11.705 7.285 24.292 7.443 37.27h-19.02a83.743 83.743 0 0 0-5.91-29.753l-2.34 1.002a81.144 81.144 0 0 1 5.708 28.75h-17.22a64.014 64.014 0 0 0-4.317-21.944l-2.34 1.005a61.492 61.492 0 0 1 4.117 20.94h-19.02a42.528 42.528 0 0 0-2.577-13.428l-2.34 1.002a39.957 39.957 0 0 1 2.377 12.425h-17.252a22.614 22.614 0 0 0-5.77-13.93l12.2-12.198a39.8 39.8 0 0 1 8.447 13.703l2.338-1.003a42.383 42.383 0 0 0-8.99-14.497l13.448-13.447a61.288 61.288 0 0 1 13.024 20.432l2.34-1.005a63.872 63.872 0 0 0-13.564-21.224l12.175-12.18c7.54 7.777 13.335 16.8 17.218 26.597l2.34-1.003c-4.013-10.087-9.988-19.382-17.76-27.39l13.446-13.448c9.51 9.742 16.843 21.046 21.797 33.322l2.356-1.014c-5.234-12.953-13.06-24.85-23.235-35.026-10.215-10.215-22.165-18.057-35.174-23.292l-.937 2.385c12.302 4.956 23.63 12.3 33.39 21.828l-13.445 13.448c-7.872-7.628-16.992-13.542-26.893-17.548l-.93 2.365c9.575 3.884 18.4 9.603 26.025 17L300.44 187.25a63.957 63.957 0 0 0-20.145-13.143l-.93 2.363a61.43 61.43 0 0 1 19.278 12.577l-13.443 13.45a42.493 42.493 0 0 0-12.782-8.315l-.93 2.367a39.912 39.912 0 0 1 11.914 7.743l-12.198 12.2a22.61 22.61 0 0 0-13.933-5.77v-17.25a39.855 39.855 0 0 1 14.22 3.075l.93-2.368a42.46 42.46 0 0 0-15.147-3.252V171.91a61.42 61.42 0 0 1 22.097 4.562l.93-2.365a63.953 63.953 0 0 0-23.03-4.738v-17.23c10.213.156 20.114 2.192 29.323 5.926l.928-2.366c-9.5-3.85-19.712-5.946-30.25-6.102v-19.02c12.955.156 25.52 2.71 37.2 7.413l.938-2.384c-12.36-4.977-25.68-7.6-39.406-7.6a104.8 104.8 0 0 0-47.185 11.186l1.16 2.218c13.747-6.89 28.958-10.642 44.756-10.832v19.02a83.328 83.328 0 0 0-35.914 8.71l1.154 2.212c10.697-5.295 22.505-8.196 34.76-8.383v17.223a63.718 63.718 0 0 0-26.758 6.452l1.162 2.222a61.326 61.326 0 0 1 25.597-6.134v19.02a42.323 42.323 0 0 0-16.764 3.995l1.17 2.23a39.848 39.848 0 0 1 15.596-3.685v17.254c-2.675.15-5.228.76-7.58 1.752l1.166 2.23a20.243 20.243 0 0 1 7.685-1.506 20.16 20.16 0 0 1 14.346 5.94 20.157 20.157 0 0 1 5.942 14.348c0 11.186-9.1 20.29-20.287 20.29-5.42 0-10.514-2.11-14.345-5.943a20.16 20.16 0 0 1-5.943-14.348c0-5.42 2.11-10.515 5.943-14.347a20.27 20.27 0 0 1 6.66-4.437l-1.166-2.23a22.804 22.804 0 0 0-6.343 4.023l-12.214-12.2a39.964 39.964 0 0 1 10.533-7.138l-1.168-2.23a42.715 42.715 0 0 0-11.15 7.585l-13.46-13.46a61.61 61.61 0 0 1 15.78-11.005l-1.163-2.222a64.408 64.408 0 0 0-16.39 11.45l-12.2-12.198a81.333 81.333 0 0 1 20.588-14.544l-1.155-2.212a84.286 84.286 0 0 0-21.203 14.988l-13.475-13.476a103.01 103.01 0 0 1 25.836-18.408l-1.16-2.218c-20.535 10.32-37.254 27.138-47.434 47.755l2.207 1.193a103.013 103.013 0 0 1 18.752-26.525l13.475 13.477a84.178 84.178 0 0 0-15.45 22.116l2.2 1.19a81.395 81.395 0 0 1 15.018-21.536l12.2 12.198a64.358 64.358 0 0 0-12 17.56l2.205 1.19a61.47 61.47 0 0 1 11.57-16.974l13.46 13.46a42.705 42.705 0 0 0-8.232 12.593l2.224 1.202a39.897 39.897 0 0 1 7.79-12.01l12.206 12.204a22.708 22.708 0 0 0-5.774 13.923H215.98a39.944 39.944 0 0 1 3.032-14.118l-2.225-1.203a42.334 42.334 0 0 0-3.35 15.32H194.42a61.305 61.305 0 0 1 5.57-24.4l-2.207-1.19a63.703 63.703 0 0 0-5.9 25.59H174.66c.18-11.894 2.91-23.368 7.91-33.813l-2.202-1.19a83.34 83.34 0 0 0-8.245 35H153.1c.187-15.533 3.816-30.5 10.487-44.066l-2.21-1.193a104.815 104.815 0 0 0-10.85 46.53 105.85 105.85 0 0 0 4.246 29.728l2.49-.626a103.235 103.235 0 0 1-4.163-27.828h19.018a84.078 84.078 0 0 0 3.598 23.183l2.466-.622a81.526 81.526 0 0 1-3.524-22.56h17.22a64.31 64.31 0 0 0 3.042 18.343l2.47-.623a61.664 61.664 0 0 1-2.97-17.72h19.02a42.597 42.597 0 0 0 2.446 13.063l2.472-.624a40.06 40.06 0 0 1-2.38-12.44h17.254a22.614 22.614 0 0 0 5.77 13.93l-12.2 12.2a39.88 39.88 0 0 1-8.445-13.69l-2.472.624a42.367 42.367 0 0 0 9.12 14.862l-13.446 13.448a61.298 61.298 0 0 1-14.165-23.648l-2.47.623c2.944 9.208 7.964 17.678 14.842 24.826l-12.18 12.18c-9.106-9.393-15.684-20.596-19.4-32.79l-2.467.622c3.83 12.63 10.636 24.24 20.072 33.962l-13.447 13.447c-11.902-12.194-20.402-26.83-25.075-42.764l-2.49.627c4.9 16.775 13.944 32.152 26.647 44.852 8.602 8.604 18.434 15.53 29.094 20.633l1.264-2.24c-10.088-4.807-19.42-11.285-27.64-19.312L197.59 293.7a83.906 83.906 0 0 0 23.574 16.132l1.255-2.226a81.347 81.347 0 0 1-23.03-15.703l12.175-12.178a63.965 63.965 0 0 0 19.357 12.81l1.255-2.222a61.443 61.443 0 0 1-18.81-12.377l13.45-13.448a42.36 42.36 0 0 0 14.804 9.1l1.27-2.25a39.862 39.862 0 0 1-14.28-8.646l12.2-12.2a22.594 22.594 0 0 0 13.93 5.77v17.255a40.032 40.032 0 0 1-11.85-2.18l-1.27 2.252a42.498 42.498 0 0 0 13.12 2.466v19.016a61.397 61.397 0 0 1-22.56-4.75l-1.252 2.222a63.905 63.905 0 0 0 23.813 5.07v17.222c-11.33-.175-22.275-2.665-32.315-7.22l-1.255 2.225c10.422 4.763 21.795 7.36 33.57 7.537v19.016c-15.105-.182-29.683-3.606-42.95-9.927l-1.263 2.24c14.022 6.71 29.478 10.26 45.484 10.26 16.79 0 32.97-3.924 47.528-11.29l-1.202-2.333a102.234 102.234 0 0 1-45.055 11.05v-19.016c12.84-.19 25.197-3.267 36.36-8.883l-1.185-2.302a80.786 80.786 0 0 1-35.173 8.642v-17.22c9.633-.187 18.903-2.498 27.3-6.687l-1.18-2.29a61.17 61.17 0 0 1-26.12 6.434v-19.015a42.33 42.33 0 0 0 17.415-4.287l-1.172-2.278a39.81 39.81 0 0 1-16.243 4.022v-17.25a22.61 22.61 0 0 0 13.932-5.773l12.186 12.19a40.225 40.225 0 0 1-9.875 6.812l1.172 2.277a42.62 42.62 0 0 0 10.513-7.283l13.426 13.427A61.74 61.74 0 0 1 283.4 288.64l1.18 2.29a64.17 64.17 0 0 0 15.872-11.196l12.15 12.15a81.61 81.61 0 0 1-20.148 14.31l1.187 2.302a83.897 83.897 0 0 0 20.787-14.788l13.414 13.414a103.325 103.325 0 0 1-25.504 18.222l1.203 2.332a105.686 105.686 0 0 0 27.05-19.603 105.555 105.555 0 0 0 20.37-28.573zM261.4 209.086l.03.763.643-.033-.035-.758zm-.933-1.04h.85v.647h-.85zm-.787-.116l.09-.64-.746-.108-.09.637zm-1.375-.33l-.743-.106.09-.643.743.11zm-6.132-.854h.85v.648h-.85zm-1.11 1.398l.09-.64-.743-.108-.09.64zm-.666.87l-.853-.215.155-.63.85.216zm-1.524.8l-.106-.65.63-.106.106.65zm-83.836 65.17h-.532v1.08h.852v1.404H166l-.11-1.62-.853-.324zm8.408 9.394l-.426.753-1.17-1.077-.853-1.185-.426-.972-.746-1.944 1.594.754.536 1.51.742.546zm21.49 28.722l-.852-1.3 1.278.22 1.38 1.186.538 1.404-.747.433-.426-.647-1.063-.325zm57.77-97.068h-1.17l-.214-2.375.64-.433v-1.188h-3.724l-.106-1.186.533-.325-.853-.324-.638.865-.21.972-1.066.217v.54h-.744v1.402l-2.98 2.484-5.957-.216c-.427.97-1.492-.11-1.492-.11-.21-.647-1.7 0-1.7 0 0 1.19-2.02-.538-2.02-.538l-3.725-2.7c-2.128-1.944-5.32.54-5.425 1.08.106 1.51-2.447.324-2.447.324s-2.127-.648-2.447.216c-.32.863-1.706.65-1.706.65l-.213.43-1.064.216-.21.647-1.278.215 3.19-.108c.852-.108-.32 1.836-.85 1.728l-1.49.108-.532.54h-1.383l-.638.864-2.02-.108s-1.172.97-1.064 1.294c.107.324-.212 1.296-.532 1.296-.32 0-.958.973-.745 1.296.215.324-.637 1.404-.637 1.404l-.212 1.08-.638.216v2.916l-1.278.864v1.295l-1.916 2.053.214 1.727-1.595 1.727.21 1.728-.955.324-.212.754-.425 2.266 1.064.11c.53-.216.425 1.404 0 1.62-.428.215-1.598.646-.958 1.078.64.434-1.703.325-1.703-.324 0-.646-1.276-1.187-1.594-.97-.32.215-.852-.972-.852-.972-1.17-1.187-4.787.107-4.787.107l-.535 1.726c-1.17.217-1.913 2.16-1.913 2.16-.96.324-1.704 1.51-1.384 1.835.317.325-.535.433-.535.433v2.376l-.53.755.106 2.59c.64 0 .533 1.19.533 1.19-1.065.106-.854 1.51-.854 1.51l-2.233.756-.425.648-2.766-.11-.744.758-.747-.757h-5.32l-.21-.54-1.064-.217-.107-1.186-1.596.107-.32.648-1.702.107c.106 1.08-1.702 2.7-1.913 2.27-.217-.434-1.386-1.623-.853-1.837.533-.217 1.917-.434 1.917-.434v-.756l-3.938-.107-.425.648-1.597.107v1.728l-.744.217c-.534.323.105 1.512.105 1.512.743.753-.107 1.94-.107 1.94-.64.65.53 1.84.53 1.84.853.212-.53.86-.53.86.21 1.08.85 1.404.85 1.404-.64 1.08.428 1.618.428 1.618l.106 1.837.745.432v1.185l.426.757h1.702l-.106-2.7c-1.49-1.728 1.275-2.16 1.383-1.513.107.65 1.277.974 1.277.974.213 1.62 2.022 2.59 2.553.973.532-1.622.957-.65 1.277.106.32.757 2.338 2.593 2.338 2.593h1.598l.214 1.51c1.808-.107 2.34.11 3.083 2.592.747 2.48 2.767 3.13 2.767 3.13l1.49-.108c0-1.294 1.49.218 1.49.866 0 .646 2.872 3.13 2.872 3.13l2.87.646 2.664 2.162 2.02-.216h.852c.53-1.837 3.085.106 3.296.755.215.648 1.917 1.728 2.128 1.187.214-.54 1.384-.214 1.597 1.404.212 1.62.956 1.297.956 1.297l6.065-.107 2.13-1.838 5.425-.106c2.766-.108 1.064-3.888.533-3.888-.958-.755.317-3.886.317-3.886l-7.766-7.234c-1.808 0-.213-2.593-.213-2.593 1.383-.865-.32-2.267-.32-2.267.214-1.297-.745-2.81-.745-2.81-1.913-1.294-1.383-3.78-1.383-3.78v-1.727c-1.596-1.51.64-1.728.64-1.728.742-1.294-.535-2.266-.535-2.266l-.106-1.404-1.703-.217-.21-5.074-3.83-5.506c-.748-.217-.215-1.51-.215-1.51.957-.542-.214-1.836-.214-1.836l-.107-2.376 2.234-.217.533-.862h1.062l-.106-2.808c.53-1.403 1.807-.648 1.807-.648l1.49.108.853-1.62.21-1.295-1.168-.107c-1.277-.757-.64-3.563-.64-3.563 2.023-3.025 4.362-1.297 4.362-1.297l1.49-.107c2.234 1.51.212 4.32.212 4.32-.426.65-.21 2.7-.21 2.7l.53 3.454-1.384 1.19c-1.17.647-1.17 2.158.107 2.482.85.107.53 2.16-.747.755-1.913 0 1.066 1.73.215 1.295 1.916.973 1.49-.863 1.49-.863l2.554-2.05c.958-.757 2.66 1.62 2.66 1.944 0 .323 4.256.106 4.256.106 1.17.756 1.595 2.7 1.595 2.7 1.17-1.512 3.616-.11 1.808.756 1.7 1.08 1.7 2.05 1.7 2.05 1.386-.432 1.386.648 1.386.972 0 .324.424-1.62.424-1.62-1.597-1.187 2.126-1.62 1.063.54l-.64.973 1.065.863.106 2.484c2.34-.216 1.702-3.132 1.702-3.132l1.064-.215c0-.972.744-.432.744-.432-.744-3.67 1.703-4.32 1.703-4.32 1.384-.322 1.49-3.24 1.49-3.24-.956-.43-.426-1.94.64-.644 1.062 1.293-.64-2.594-.64-2.594l-.85-.755-1.17-.11-.108-1.186h-1.913l-.32 1.513-.745.216-.214-.434-.317 1.187h-1.914l-.107-1.296 1.17-.322.425-.648.32-1.728h1.383l1.81-.54c.104-1.836 1.063-1.404 1.063-1.404l.637.54.958.754.107.647-.64.325-.105.865.32 1.187h.85c.32-1.728 2.555-1.728 3.192-.648l.64-1.512c-1.49-.756-.028-1.944.397-1.404.424.54 1.41-1.404 1.41-1.404s.744.972 0-.324c-.745-1.296.53-1.943.53-1.943-.21-1.296 1.384-1.08 1.384-1.08l.106-1.727-1.49-.11c-.318 1.512-1.595.217-.957-.107s1.275-.972 1.275-.972v-1.08l.64-.216.104-1.08h1.596l1.383-.647.32-.54 1.488-.107 2.128-1.944-.212-.864c-1.277 0 0-.972 0-.972l.21-1.616zM209.83 237.408l-1.915-.216.107.755h.53c.852 1.513.108 5.183.108 5.183s-1.275.107-1.49-.54c-.21-.647-.744 1.405-.32 1.73.426.32 1.917 0 2.023 1.187.105 1.187.957-.756.957-.756v-7.34zM210.253 249.5l.216-.972-.75-.32.106-1.62.642-.11.104-.76-1.6 1.085-1.063-.646v2.59l1.705 2.264zm.427 2.81l-.743.106-.11.865.852.11zm-.96 5.505l-.9.107v.758l.9-.107zm1.256-2.565c.25 0 .45-.203.45-.455 0-.255-.2-.46-.45-.46s-.45.205-.45.46c0 .252.2.456.45.456z" fill="#fff"/><ellipse cy="257.062" cx="211.717" rx=".451" ry=".458" fill="#fff"/><ellipse cy="244.727" cx="211.742" rx=".451" ry=".458" fill="#fff"/><path fill="#fff" d="M241.53 241.404l.216-1.08.637-.325.11-1.08.42-.76.643-.752.21-.866 1.064-.646 1.278-.22.532-.645.215-1.292.075-.972.457-.65 1.273-.54v-2.05h-.636l-.106-.76-1.173-.106-.21.54h-.532l-.11.864h.64l.107.647-.427.433-.21.54-.853.218-1.915 1.838-.105.86-.532.76-.636 1.617-2.237.107-.426 1.944.314 1.618zm9.363-5.29v-1.51l-.214-1.405-1.596-.757-1.17 1.08-.214 1.512v.97l-1.063.218-.214 2.914-.85.325.107 1.08-1.17.324-1.17.324-.213 1.404-.85.54-.428 1.296-.533 3.13s.96 1.836 1.49.972c.532-.863 1.383-.97 1.383-.97l.32-.757 2.872.107c.214-1.188 1.596-.755 1.596-.215s1.065.107 1.065.107l.744-1.187h1.17l.106-1.295.533-.324v-1.945c1.702-.54 1.488-2.16 1.488-2.16l.428-.538-.214-.755c-.852-.325-.427-1.082.106-.866.533.216-.745-.972-.745-.972-.64.54-1.17-.647-1.17-.647h-1.598zm1.702 13.064c-.106 1.295-1.703 1.727-1.703 1.727l-1.17-.323-.637-.54-.107-1.513.957-.11.213.65 2.447.107zm5.747-6.906c.23.94.21-1.513.637-1.404.423.107.105-1.51.105-1.51l-1.915 1.4c.958.11 1.064 1.082 1.172 1.514zm5.638-5.62c.426.973.32 2.377 1.914 3.457.54.362-.32 1.08-.852.753-.53-.323-2.02-2.7-2.02-2.7v-1.403c.32-.862.774-.525.96-.107zm1.382 32.5l-.637-.22-.742.546.316.32.314.54zm-4.044-1.402v1.3m16.238-3.403l-.34-.545-.848.534.336.55zm29.938 23.05l.96.43.104 1.837c1.278 1.295 5.427.216 5.427-.108 0-.325-.214-3.995-.214-3.995l-.53-.54-.106-2.7c.425-1.403-2.023-3.455-2.235-3.02-.214.43-1.597.105-1.597.54 0 .43-.85 2.59-.425 3.346.425.756-.32.756-.425 1.51-.106.757-1.17 2.054-.958 2.703zm-2.342-4.32c-.202.82-.956 1.296-1.38.97-.43-.323.528.54.743.974.212.433.85.433 1.064 0 .21-.432.103-1.4.32-1.833.21-.433-.64-.54-.75-.108zm-4.947-19.807h.744v2.052h-.746zm11.015-20.788c-.465-.63 2.127-1.727 2.552-.43.425 1.293 0 1.08-.425.97-.427-.108-1.49.323-2.128-.54zm2.176-13.828l1.17.214.114-.636-1.173-.214zm-2.793 1.42l.592-.24-.215-.538-.136-.34-.316.177-.792.448-.692-.436-.336.544.853.54.16.102.16-.093.644-.36zm3.912-26.464h-1.597s.533.215-.955-1.19c-1.492-1.403-2.448.325-2.448.325l-1.702.215v1.728l-.852.324.11 1.08 1.17-.107s0 1.295.32.755c.32-.54 2.98.107 2.765 1.404-.087.532 2.66 1.942 2.34 3.67 1.384.217 1.065 1.62 1.065 1.62l1.807.216.533-1.08.53.11v-.65l-1.17-.323-.212-3.456-.745-.54.212-.862-.85-.324.426-1.403-.744-1.51zm4.68 11.013l-.85-.107-1.92.324-1.06 2.05s.53.325.955 1.08c.425.758.638 5.183-.638 5.94-1.276.756.107.323.107.323l-.216 2.376c.32 1.077.85.54 1.17 0 .322-.54.64-.65 1.066-1.19.427-.54 1.064-1.51 1.17-2.27.106-.753.64-1.94.32-2.264-.32-.324.32-1.835.32-1.835s.425-.864 0-1.727c-.426-.865.105-1.836.425-2.27l-.85-.43zm1.285 4.405l.11-.864.634.082-.11.864zm-.04 2.984l-.57-.29.32-.647.57.29zm-.926-8.572l-.428-.973s0-.863.213-1.296c.213-.43-.427-.86-.745-.97-.32-.11-.212-.97-.32-1.403-.105-.432-.85-.756-.85-.756s-.214-1.62-.214-1.942c0-.324-.956-.756-.637-1.08.32-.324.533-.755.853-.972.32-.216-.32-1.728.21-1.404.534.326.534.865.747 1.297.212.43-.107 1.943.426 2.267.53.323-.11 1.402.743 1.402.85 0 .32 2.052.32 2.052s-.215 1.51.316 1.62c.532.107.214 2.7.214 2.7l-.85-.54zm-6.912-17.498c.317.43.956.755.956 1.188 0 .432-.212.755.427.863.637.108 1.064-.108 1.276.432.215.54.215 1.403.11 1.835-.108.433.105 1.08.636 1.08.533 0 .64.11.64.433s.638-1.19.638-1.19c-.534-.43-.96-1.403-.96-1.403s-.53-1.51-.53-1.727c0-.216-.744-.433-1.063-.54-.32-.108-.852-1.08-.852-1.08l-1.275.11zm1.062-.967c-.32-.433-.64-.756-1.064-.97-.425-.218-.744-.434-1.17-.434a.698.698 0 0 1-.64-.97c.214-.54-.32-.755-.32-1.19 0-.43.32-.43.852-.105.533.324.426.43.853.972.425.54.637 1.08 1.06.97.43-.107.748.973 1.173.65.425-.325.32.755.32.755l-1.064.325zm-12.448 12.2c.587.595-3.19.43-3.19 0 0-.433.32-1.944 1.275-1.62.96.323 1.065-1.944 1.065-1.944s-.85.108-.106-.323c.744-.43 0-1.08-.32-1.403-.32-.325-.638-.864-.638-.864h1.49c.64-.434.85-2.484.85-2.484 1.277.43 1.916-.433 1.916-.433s.216.648.64 1.19c.426.538-1.066.754-.533 1.08.533.323.744 1.294.533 1.617-.214.324-1.385.108-1.385-.323 0-.433-.425.54 0 1.08.426.54-.53 1.295-.744 1.295-.214 0-1.595.216-.426.864 1.17.647 2.45.325 2.45.325s.956-.11 1.275.433c.32.54-.107.648-.64.648-.53 0-3.085-.216-3.085-.216s-.743.757-.424 1.08zm-6.81.97c.534-.106 1.808-.215 2.022.11.214.322-.745.754-.745.754l-1.277.215c-.425-.54-.53-.972 0-1.08zm13.728-9.067c.85-.432 2.66-.432 2.553-1.08-.105-.648 1.064-.864 1.064-.864l.32 1.295.96.646.105 1.188s.32-.216-.85.108c-1.172.324-.425.863-.425.863l-2.556.108-.32-1.08-.85-1.186zm-4.154-5.83c.648 0-.21 2.482 1.49 2.267 1.702-.217.108.755 1.383.863 1.277.11.958-.972 1.383-1.727.427-.753.214-1.186-.53-1.402-.747-.216-.747-.216-.96-1.08-.21-.864-1.062-1.08-1.062-1.08l-.32-1.295-1.383.863-1.38 1.836c0 1.406.743.757 1.382.757zm2.817 9.122l.32-.648.572.29-.32.65zm-1.114-1.027h.64v.756h-.64zm.537-14.387l.107.97-.634.074-.107-.972zm-1.81 10.067h.64v.54h-.64zm-1.675-.01l-.063-.646 1.064-.106.062.647zm-8.778 10.383l-.585-.255.32-.753.584.255zm-3.34-1.966l-.062-.643 1.066-.107.064.644zm-20.797-.092l.03.646 2.336-.107-.03-.646zm-1.567.832l-.212-.972.626-.14.212.97zm-.448.668l-.202-.614.32-.108.2.615zm5.32-1.82l-.104.754 1.17.11s.53.43.53.754.748.648 1.173.648c.425 0 1.595-.864 1.595-.864s.533-1.512.108-1.404c-.427.107-1.278.755-1.383.107-.108-.648-1.383-.324-1.383-.324l-1.704.216zm5.32-1.192c0 .324-.21.756.425.864.64.107 1.81-.43 1.916.216.108.648.108 1.08.958 1.405.85.325 1.384.434 2.022.434.636 0 2.022-.218 2.022-.218s1.505.236 1.807.54c1.17 1.19 1.915 1.512 2.234.973.317-.54-.108-1.728-.214-2.16-.107-.433-1.597-2.485-2.13-2.053-.53.433-.636 0-1.594.324-.958.325-2.98.11-3.085-.323-.106-.432-1.595-.646-1.595-1.08 0-.432-1.063-.97-.958-.324.106.648-.744.972-.96.757-.21-.217-.85.646-.85.646zm24.473-13.824l.747-2.373c-1.063-.22-.852-1.406-.852-1.406-.106-.972-1.595-2.052-2.128-1.728-.53.323-.32-2.268-.32-2.268s.96-.648 1.384-.324c.424.323-3.618-5.4-4.47-4.86-.85.54-2.764-.54-2.66-1.51.107-.972-3.83-4.212-3.83-4.212s-1.276-.863-1.49-.215c-.21.646-.636 1.08 0 1.4.64.326.533-.538 1.277.217.745.756 2.13 1.728 1.597 2.376-.533.65-1.17.865-1.17.865l.745.864h1.17l.212 1.833s1.275.65 1.595 1.404c.32.755.32 1.188 0 1.62-.32.432-.956 1.188-.85 1.943.106.755.957 1.08.957 1.08l.85.108.64.326v1.404c.85-.217 2.232.97 2.127 1.727-.105.755.21.323 1.276 1.08 1.066.755.747.864 1.49 1.403.746.54 1.385.215 1.702-.758zM285.363 176.62c-.106-.432-.32-1.944.32-1.836.637.11.213 0 .957.324.745.325.85-.54.85-.54h1.172l1.49 1.188-.215.972-1.063.107c-.53-.863-1.596-.54-1.383.217.215.755-.53 2.16-.954 2.267-.426.106-1.81.106-1.703-.54.106-.65.53-2.16.53-2.16zm-.85-2.918v-.863s-.11-.865-.64-.865-1.488-.647-1.277-1.08c.214-.433-1.808-.864-1.808-.864s-1.807-1.727-1.17-1.51c.64.216.32-.757.32-.757s-1.277.216-1.597.11c-.32-.11-.212-1.08-.212-1.08s-1.274-.325-1.274 0c0 .323.425.323.636.97.213.647.107 1.728 1.065 1.943.958.217 1.17.432 1.277.864.106.434 1.276.54 1.276.54l.852.433 2.552 2.16zm-11.805-11.875l-.853-.214v.972l1.168.107zm-.004-3.67c-1.112-.844 1.488.648 1.488.648.85 0 1.383.648 1.383.973 0 .323 1.17.215 1.17.215l.11-.756-.854-1.08-.742-.54s-1.17-.107-1.17-.43c0-.324-.958 1.295-1.383.97zm19.57.646c-.31.945-.424 2.268-.956 2.268-.53 0-.32 1.407-.32 1.407s1.385 0 1.81.107c.425.107.425 1.187.425 1.187 1.597-.106 2.236 2.053 2.02 2.593-.212.54.64.54.64.54s0 1.727-.214 2.16c-.213.43 1.382.755 1.807 1.403.425.648-.214 2.807-.532 2.915-.32.11.85.43.745.97-.107.543.32 0 .426.867.106.863.32 2.698.32 2.698l1.488.11c.214-1.404 2.957-1.458 3.405-1.297 1.807.648 3.19 3.455 3.19 4.103 0 .648-1.17.757-1.17.757l.214 3.13c1.807.54 3.297 3.133 3.085 3.565-.214.432 1.274.325 1.274.325.214-1.945 2.022-1.296 2.127-.648.11.647.427 2.05.427 2.05l.532.97.744.756 1.17-.108.32.65 1.383.216s1.17 1.294 1.277 1.62c.107.322 1.702.214 2.127.322.426.108 1.066.432 1.17.972.11.54.747 1.404.747 1.404s1.276.325 1.383.756c.107.43.64 1.404.64 1.404l1.062.864.107.972 1.17.108.317 1.294 1.914-.107 1.067-.754c1.383-.756 2.34-1.73 2.447-2.16.105-.433.32-2.05 1.383-1.728 1.063.323.32-2.377.32-2.377s-1.49-1.08-1.384-1.62c.106-.54-1.49-1.62-1.383-2.05.107-.434-1.382-1.296-1.276-1.728.105-.433-.745-1.62-.745-1.62l-1.6-1.512-.212-.972-1.277-.106-2.55-3.132.106-.864-.745-.107v-1.187l-.742-.433-1.173-.107-2.34-2.59-.213-1.19h-1.17l.212-2.267c.746-.973.32-2.81.32-2.81s-1.49.757-2.234.433c-.746-.323.318-1.08.318-1.08v-.863l-.637-.648s-1.81.216-1.915-.108c-.106-.324-.425-1.728-.425-1.728l-.107-1.836-.743-.323-.108-.648-1.17.106V162.8l-.64-.217-.636-.324-.107-1.298-2.34-.107-.745-1.08-.85-1.296-2.66-.217-.64-.646-1.062-.217-.745-.323-.32.54-2.022.107-.106.648c-1.063.54-5.318.108-5.427.43zM303.45 156c-.17-.852 2.13-1.62 2.66-.972.533.647 2.022.757 2.235 3.996.075 1.16-1.916-1.188-1.916-1.188l-1.598-.54c-.85-.216-1.278-.755-1.383-1.296zm-31.205 1.32l-.58-.264.426-.973.583.263zm-5.5-10.606l-1.385-1.404v-1.188l-.425-.433-.426-1.513-1.384-.432-1.383.54-1.49.97-1.595.22-.853.97 3.405.322.637 1.082 2.448.214 1.594 1.62c1.385.432 1.703-.216.853-.97zm-.21-5.294c-.235-.948-1.598 1.188-.21 1.62 1.38.433 2.762 0 2.762 0l.32-.648 5.318.108c.428-.432.64-1.08.64-1.08s1.276-.432 1.807-.217c.533.217.108-1.51-.426-1.295-.53.216-1.594.108-1.594.108h-1.916c-.106-.755-1.808-.432-1.914 0-.108.432-.744.54-.744.54l-2.447.216c-.212.65-1.487 1.08-1.595.65zM256 159.642c1.636.52 2.233.134 2.34-.297.108-.433.214-.54.853-.648.638-.108-.107-1.404-.745-1.296-.64.11-1.277-.214-1.383-.754-.108-.54-1.17-1.943-1.277-.863-.106 1.08-.745 1.08-.64 1.836.108.753.428 1.886.853 2.023zm-12.23 1.216c-.077-.383 2.127-.432 2.447-.11.32.325.106.865 1.063.865s.532.648.426.972c-.106.324-1.17.216-1.278-.107-.105-.324-1.702-.434-1.702-.434s-.85-.648-.956-1.186zm35.34-22.464l-.54-.55-.452.458.742.755.205.206.22-.18 1.07-.865-.402-.506zm-5.706-3.078l-.335.55.85.538.165.11.17-.11 1.174-.757-.34-.546-1.005.648zm-2.904 22.628l-1.062-.112-.065.646.913.092.662 1.053.536-.346-.742-1.185-.085-.133zm-35.03 30.12l.108 1.188h1.594c.638 0-.53-.755-.53-.755s-1.278.108-1.173-.433zm2.027.036l.408-.5.64.538-.41.498zm-19.383-20.202l.452-.458.637.648-.452.458zm29.84 138.432l-.286.58.666.337-.22.224.456.46.532-.54.31-.315-.396-.204zm-7.582-7.734l-.642.54-.316.27.336.243.747.54.372-.526-.414-.3.32-.27zm79.518-19.986c-.14-.55-.76-.775-.83-.798l-.203.616v-.004c.05.02.124.058.198.106l.13.56c-.047.072-.1.14-.14.187l.468.44c.34-.382.467-.75.378-1.106zm-.056-2.114l.08-.972 1.038.163-.08.885zm25.696-8.342c.454-.288 1.036-.812.957.405-.08 1.212-.56.81-.957 1.212-.4.406-.64-1.214 0-1.62zm5.414-4.584c-.01-.02-.015-.095-.02-.15a1.764 1.764 0 0 0-.163-.675l-.57.29c.073.144.087.297.1.443.015.19.036.406.217.543.115.09.26.113.43.08l-.12-.627c.048.007.113.053.128.1zm-1.42.532c.16.657.4 1.304.41 1.33l.597-.227a12.71 12.71 0 0 1-.39-1.26l-.616.157zm-2.324 2.548l-.636-.064c-.05.51.072 1.14.575 1.24l.123-.634c.004 0 .01.004.012.004-.052-.046-.1-.306-.076-.546zm-2.797-12.884a.583.583 0 0 0-.35-.454c-.47-.207-1.267.136-1.657.4l.353.54c.402-.273.932-.405 1.05-.345a.074.074 0 0 1-.03-.035l.63-.106zm-29.465-34.496c-.426.433-1.383.65-1.383.65l-.32 1.186-.53.432s.105.324 0 1.08c-.107.755-1.065 1.187-1.065 1.187l-.425.54s-2.565.14-2.873 0c-.957-.43-.318-1.727.32-1.62.637.11-.108-1.835-.108-1.835l.853-.108s.105-1.944.425-1.944-.106-.647-.533-.972c-.427-.322-.96-1.402-1.386-1.295-.425.11-2.127 0-2.127 0l-.32.65-1.17.216s.1.835-.104 1.08c-.64.755-3.086 2.375-2.024-.324l.317-.646v-.972l-1.912-.107s-.958-.325-.958-.757-.107-.97-.107-.97l-2.234-2.484-2.658-.324-.214-.54-1.594-.216c-1.917-.97-3.62-.108-3.3 1.512.32 1.62.85 2.268-.212 2.268-1.065 0-1.277-.864-1.277-.864s-.85-.325-.85.107-.32 1.295 0 1.727c.32.43-.425 1.08-.745.755-.316-.324-1.168-1.294-.955-1.618.21-.324-1.492-2.376.21-2.7 1.704-.324-.105-1.296.534-1.51l.85-.433h.85l.533-.433-1.383-.215-.85-.107-1.597-.108c-1.595 1.08-1.913 2.376-1.913 2.376-.853 1.62-2.873-.647-2.128-1.51.744-.865-2.34-.11-2.874.323-.533.43-2.128.215-2.128.215-.32.974-1.808-.105-1.383-.754.428-.647.428-1.08.428-1.08l-.53-.108-.64 1.188c-1.49 0-1.915.863-1.597 1.403.32.54-.424-.11-.637.647-.21.756.107.756.746 1.08.64.324-.32.324.105.863.425.54 1.702 0 .958.757-.744.755-2.236.432-2.236.432-.105.97-2.127.754-2.338.43-.215-.323-1.81-2.267-1.81-2.267l-2.024-.108c-.21-1.51.96-.756 1.384-1.944.427-1.187.64-3.13.64-3.13s-1.705-.107-1.81.43c-.106.543-1.17.866-1.17.866s-.852.324-.533.756c.32.432-.64.646-.64.646s.167.698-.105.972c-.85.865-2.98.107-3.297-.216l-1.277-.54-1.277-.863-1.487.646-.425.433h-1.597l-.104 1.293 2.872.324.213 2.672-1.17-.404h-.745l-.32-.65-.637-.107v2.374l.638.54.533.54 1.063.108.213 1.296 2.66.11.318.538 1.597.108 3.086 3.13-.213.973-.533.324c.213.756-1.382.324-1.382.324v.647l.742.11.747.43 1.063-1.835c1.17-.755 1.7.325 1.81.972.104.648-.534.54-.534.54v1.513l.638.213c1.066 1.296-.425 2.053-.425 2.053l-.32 1.08c-.32.97-1.49.754-1.49.754l-.425.65-1.28.323 2.527.323c.24-.864.877-1.08 1.197-.648.32.433.32 1.19.32 1.19l.64.107-.11 1.187.64.217v3.452l.744.864c1.278-.54 1.278.325.638.756-.638.43-.213 2.375-.213 2.375l-.533.54v.864l-.638.43v1.19c-1.065-.54-2.34-.325-2.66 0-.958-.65-2.98-.432-2.98.11.638.862-.743 1.08-.743 1.08l-.746.862c.534 1.08-.53 1.187-.53 1.187v2.05l-1.277 1.19.107 2.807c0 .755 1.596.863 1.914.43.32-.43 1.598.866 1.598.866h.955l.214-1.945-.637-.325v-3.132l1.065-1.187c1.277-.43.85 2.81.85 3.133.107 1.187.638 1.08 1.17.863 1.065-.43.212 1.19-.638 1.08-.85-.107-.32 1.08-.32 1.08l.533.216-.96.756-.848.972-1.066-.324-1.277-.106-.426-.758-.746-.107-.105 1.51-.53.647-1.278 1.297c1.703 0-.214 1.185-.64 1.185.96.323-.104 1.296-2.55.54v.756l-.854.108.747.863.85.108-.32 1.836c0 1.404-3.51.43-3.83.11l-.105 1.942-.638.107.106 1.296-.106 1.836 1.17-.216v.756l2.874.108 4.15-4.427 2.447-.54c.212-1.08 1.275.217 1.275.217 1.065-.11 1.28.647 1.28.647l1.382.216c1.17.325.463.44.53.866.107.644.64.43.64.43l.213-1.405.64.107-.64-.756-1.17-.54-1.277-.54c-.852-1.187.213-.97 1.064-.862h1.383s1.597 2.158 1.597 2.698.745.65.745.65l.954-.11.32.756h.957l.32.645h1.916l.106-.97-1.81-.323-.105-1.08-1.276-.325c-.427-1.834.318-2.375.85-1.51l.64.106-.214-1.62.744-.215-.213-2.268-.638-.215v-.757l2.656.11c-.21-1.406.107-2.053.107-2.053h.745l.105.54 3.255.308 2.3-2.64c-.114-.2.233-.324-.02-.583-.32-.324-.747 0-1.28-.324-.53-.322 0-2.16-.106-2.59-.106-.432 1.81-1.082 1.49-.11-.318.974 0 1.405 0 1.405 1.384-1.295 2.554.108 2.45.433-.11.325.742.65 1.273.325.533-.324 1.17.972.958 1.618-.214.648-2.127.54-2.232-.107-.11-.648-.43-.432-.64-.107-.212.324-1.17.54-1.7.214a.507.507 0 0 1-.19-.172l-2.3 2.64.15.015c1.274.757.637 1.73.213 1.944-.428.218-1.172.218-1.172.218l-.21.43-2.767.216-.214 1.08c-1.384-.218-1.914 1.296-1.596 2.05.32.755 0 1.404 0 1.404l1.17.54 1.49-.43c.213-1.08 1.17-1.297 2.02-1.944.85-.648 2.236 1.186 1.81 2.05-.427.863-.427 1.188-.427 1.188l.106.972-1.063.43-.85.434-.108.54h-2.872l-.53.54-1.384.11-.428.646-.955.11s-1.597.755-.958 1.62c.638.863-2.66.755-3.405-.434-.214 1.08-1.383.108-1.383.108l-1.17-.325-.106-1.618c-.21-1.08-2.233-1.08-2.125-.324.106.757-3.832.325-3.832.325l-1.276.62-1.17.676-.107.54-1.917.216-.85.433-.32-.65h-.85l-.85 1.19c-2.235.11-4.362 1.404-4.15 1.944.213.54-.85 1.08-.85 1.08l-.96.32-.635.974-1.277.432-.212 2.27-.637.43v.972l-.745.214v.54l-1.064.11.638 1.62.854.432c1.49.214.85 2.052.85 2.052l.85.106.428 1.187.85 1.728c.32 1.298 1.278.974 1.703.866.426-.107.85 1.295.85 1.295l4.256.11s-.213.433.532.65c.743.213 5.637.43 5.85.107-.213-.973 2.66-1.19 3.83-.325 1.17.863 2.766.325 2.766.325l1.596 1.94 1.066 2.378 1.807.54 1.276.323.428 1.835.957.108.32 1.19c1.17.863-.32 2.7-.32 2.7v2.375l.852.432-.11.865 1.386 1.402 1.595.11 4.045 4.318 3.19.97.53 1.73.854-.11.637-.538 2.553-.108 1.277-1.19 1.383-.214 11.81-10.042-1.066-.647v-2.375c1.916-1.403 2.022-3.888.214-4.104-1.372-.164-.744-1.62.533-1.835l.745-.325v-.973l2.448-2.266v-1.728l-5.318-4.43c-2.342-.862 0-6.046 1.594-5.937 1.596.107-.106-7.99-.106-7.99l-.854-.43.214-2.593h-1.17l-1.915 2.484-.53 1.727c-.215 2.27-6.81 1.836-7.13 1.51-.32-.323-2.554-1.294-2.554-1.294s-1.703-1.403-2.022-.97c-.32.432-1.808-.542-1.808-.217 0 .323-1.383-.756-1.383-.756l-2.128-.756 1.597-.325-.32-1.296 2.763 1.403c.32.432 1.703.326 1.703.326l.425.54s.853-.11 1.387.54c.53.648 3.296.108 3.296.108l.744.648 1.17.433 3.3.11.105-2.05.64-.648-.108-1.297.745-.647v-1.08l.638-.216.105-2.374.53-.11v-5.182l-1.594-1.512c-.105.54-1.81.54-1.81.54s-.423.755-.742.755c-.32 0 .425.97.212 1.62-.213.647-1.065.647-1.065.647l-1.597.433-.425.54h-1.703l-.21-1.402 1.912-.54 1.064-.54.533-1.08c.103-1.08 1.38-.972 1.38-.972s2.448-2.052 2.554-3.022c.108-.973.958-3.672 2.447-3.672H301c1.062-.433.743-1.836.743-1.836l1.383-.215.213.758s1.914.215 2.126-.11c.214-.32.638-1.078 1.17-.754.533.323 2.235-.757 2.235-.757.107-.755 2.767-.43 2.767-.43l.32-.973S310.15 244 309.83 244c-.32 0-2.02-1.513-2.235-.972-1.7-.432-1.595-2.808-1.595-2.808l-.64-1.51c0-.866-1.593-2.7-1.914-2.484-1.597-1.188-.425-2.59 0-2.7.425-.107 1.49-1.62 1.49-1.62l.532-1.51 1.808-.54.213-1.403-.957-.11s1.062-1.943 1.595-1.943c.532 0 4.042 0 4.36-.216.32-.215.957-1.943.957-2.267 0-.324.853-.432 1.17-.54.32-.108 1.064-.972 1.277-1.404.213-.435-.53-3.135-.957-2.703zM256 258.195c.16-.16.32.487.64.406.316-.08.477.57.16.57-.32 0-.32.405-.32.567 0 .162 0 .565-.24.81-.24.242-.48.08-.8-.082-.32-.162-.477-.162-.877-.162s-.08.648-.08.648-1.677-.08-1.357-.324c.32-.24.64-.324.4-.486-.24-.163 0-.324 0-.648s.798-.162.557-.405c-.237-.244.005-1.183.4-.65l.24-.567c-.24-.242-.08-.324-.56-.483-.477-.162-.08-1.135-.08-1.135l.08-.648c.16-.808 1.756-.89 1.837-.162.078.73 0 1.215 0 1.215l.48.162s-.082.486-.48.486c-.4 0 0 .24-.24.484l.24.405zm-5.267.813c.24-.486.797-2.592 1.437-1.943.636.647 1.036 0 1.036 0s.32.324.16.972c-.16.647-.32 1.296-.72 1.377-.398.08-.718.324-1.194.405-.48.08-.72-.813-.72-.813z"/></svg>