<svg xmlns="http://www.w3.org/2000/svg" height="512" width="512" viewBox="0 0 512 512"><g fill-rule="evenodd"><path fill="#fff" d="M255.992 0h255.992v511.984H255.992z"/><path d="M282.43-735.13c0 .625 55.956 222.85 118.17 300.56 69.375 87.27 113.18 87.333 113.18 87.333l70.866-17.717s-41.496 2.093-123.8-104.21c-83.45-107.78-109.42-285.96-108.17-282.84l-70.24 16.875z" transform="matrix(-.215 0 0 .179 450.486 340.71)" stroke="#000" stroke-width="1pt" fill="#fff"/><path d="M285-727.64c-1.535-9.37 33.898 220.95 140.2 327.24 53.15 53.15 88.583 53.15 88.583 53.15l88.582-17.717s-51.712 3.75-134.02-102.55c-83.45-107.78-108.58-263.25-107.96-263.87l-75.38 3.75zM282.43-735.13c0 .625 55.956 222.85 118.17 300.56 69.375 87.27 113.18 87.333 113.18 87.333l70.866-17.717s-41.496 2.093-123.8-104.21c-83.45-107.78-109.42-285.96-108.17-282.84l-70.24 16.875z" transform="matrix(.215 0 0 .179 313.875 342.337)" stroke="#000" stroke-width="1pt" fill="#fff"/><path d="M285-727.64c-1.535-9.37 33.898 220.95 140.2 327.24 53.15 53.15 88.583 53.15 88.583 53.15l88.582-17.717s-51.712 3.75-134.02-102.55c-83.45-107.78-108.58-263.25-107.96-263.87l-75.38 3.75z" transform="matrix(-.215 0 0 .179 450.486 340.71)" stroke="#000" stroke-width="1pt" fill="#fff"/><path d="M344.54-596.29l9.152 22.14s1.455-9.766 8.526-11.533l7.07-1.768s26.865 49.327 32.17 58.166c5.3 8.838-3.537 16.793-1.77 16.793 1.77 0 26.517-11.49 26.517-11.49s-10.606.882-15.026-6.19-34.82-59.933-34.82-59.933 6.187-2.652 11.49-5.303c5.304-2.652 10.607 7.955 10.607 7.955L385.2-613.97s0 8.84-4.42 10.607c-4.42 1.766-7.956 3.534-7.956 3.534s-3.535-6.187-7.955-13.258c-4.42-7.07 4.42-14.142 4.42-14.142l-22.982 11.49s7.955 4.42 10.607 8.84l5.303 8.838s-3.223 1.768-8.214 3.482c-3.59 1.875-7.696.054-9.464-1.714z" transform="matrix(.215 .004 -.005 .179 312.189 347.844)" stroke="#000" stroke-width="1pt" fill="#fff133"/><g stroke="#000" stroke-width="14.25" fill="#b00"><path d="M339.256 341.724c-.56-.088-.798-.545-.475-.915s1.208-.652 1.77-.565l3.084.482c.56.087.798.544.475.914-.338.387-1.208.652-1.77.565l-3.084-.48zM337.63 342.96c-.552-.1-.772-.567-.443-.936s1.21-.637 1.76-.538l3.026.548c.55.1.77.567.442.936-.345.385-1.21.637-1.76.538l-3.026-.548zM335.903 344.35c-.56-.088-.798-.545-.475-.915s1.207-.65 1.768-.564l3.085.483c.562.087.8.544.476.914-.337.386-1.207.65-1.768.564l-3.085-.48zM357.484 326.218c-.57.035-.938-.356-.738-.782s.97-.89 1.538-.924l3.13-.195c.57-.036.938.355.738.782-.21.445-.97.888-1.538.923l-3.13.195zM356.182 327.654c-.562.012-.91-.4-.693-.823s.994-.858 1.557-.87l3.095-.066c.562-.012.91.4.693.822-.226.443-.995.86-1.558.87l-3.095.068zM354.896 329.343c-.57.026-.93-.37-.72-.794s.99-.873 1.56-.9l3.132-.14c.57-.027.93.37.72.793-.22.442-.99.872-1.56.898l-3.132.143zM353.47 329.947c-.563-.017-.877-.446-.63-.857s1.06-.804 1.62-.787l3.094.098c.562.018.877.447.63.858-.26.43-1.06.805-1.622.787l-3.093-.098zM362.077 320.293c-.56.086-.978-.27-.833-.713s.85-.97 1.41-1.054l3.088-.47c.562-.085.978.27.834.713-.15.46-.85.968-1.412 1.054l-3.087.47zM361.083 321.936c-.557.07-.962-.3-.81-.744s.857-.957 1.414-1.028l3.06-.39c.555-.07.96.302.81.745-.158.462-.858.955-1.415 1.026l-3.06.39zM360.06 323.746c-.56.086-.978-.27-.833-.713s.85-.97 1.41-1.054l3.088-.47c.562-.086.978.27.834.712-.152.462-.852.97-1.413 1.055l-3.087.47zM358.768 325.212c-.558.062-.955-.316-.794-.756s.88-.942 1.44-1.004l3.068-.34c.558-.063.955.315.794.755-.17.46-.88.942-1.44 1.004l-3.068.342zM345.98 336.676c-.566-.05-.847-.49-.56-.88s1.14-.732 1.706-.682l3.12.273c.568.05.85.49.562.88-.3.408-1.14.73-1.707.68l-3.12-.27zM344.48 338.015c-.557-.062-.822-.514-.53-.904s1.144-.716 1.702-.654l3.07.34c.557.063.823.515.53.905-.306.408-1.143.718-1.7.656l-3.07-.34zM342.892 339.52c-.567-.05-.848-.49-.562-.88s1.14-.732 1.707-.682l3.12.273c.568.05.85.49.562.88-.3.41-1.14.732-1.708.682l-3.12-.272zM340.984 340.335c-.55-.1-.77-.567-.442-.936s1.21-.638 1.76-.54l3.026.55c.55.098.77.566.442.935-.345.385-1.21.637-1.76.538l-3.026-.548zM352.062 331.567c-.57-.005-.9-.42-.658-.832s1.053-.817 1.623-.812l3.138.025c.57.005.9.42.658.83-.252.43-1.053.82-1.623.814l-3.138-.025zM350.712 333.02c-.562-.017-.876-.446-.628-.857s1.058-.804 1.62-.787l3.093.098c.562.017.877.446.63.857-.26.43-1.06.806-1.622.788l-3.093-.098zM349.07 333.833c-.568-.05-.85-.49-.563-.88s1.14-.732 1.707-.682l3.12.274c.568.05.85.49.562.88-.3.408-1.14.73-1.707.68l-3.12-.27zM347.57 335.172c-.558-.062-.823-.514-.53-.904s1.143-.717 1.7-.655l3.07.34c.558.063.824.515.53.905-.305.407-1.142.717-1.7.655l-3.07-.34zM371.994 300.508c-.53.176-1.022-.106-.983-.563s.61-1.09 1.14-1.265l2.917-.965c.53-.175 1.022.107.983.564-.04.476-.608 1.088-1.14 1.264l-2.916.964zM371.408 301.31c-.543.125-.997-.205-.908-.66s.72-1.033 1.263-1.158l2.985-.686c.543-.125.997.205.91.66-.094.475-.72 1.034-1.264 1.16l-2.986.685zM370.648 303.207c-.546.14-1.01-.174-.927-.627s.71-1.045 1.257-1.185l3-.768c.546-.14 1.01.174.928.627-.086.473-.71 1.045-1.256 1.185l-3.002.767zM369.885 304.938c-.543.124-.997-.206-.908-.66s.72-1.034 1.263-1.16l2.985-.685c.543-.125.997.205.91.66-.094.475-.72 1.034-1.264 1.16l-2.985.685zM373.75 294.845c-.53.16-1.014-.138-.97-.596s.62-1.08 1.148-1.24l2.91-.883c.53-.16 1.013.138.97.597-.048.48-.62 1.078-1.15 1.238l-2.908.883zM373.164 296.792c-.53.176-1.022-.106-.983-.563s.61-1.09 1.14-1.266l2.917-.965c.53-.176 1.022.106.983.563-.04.477-.608 1.09-1.14 1.265l-2.916.964zM372.578 298.562c-.53.16-1.014-.138-.97-.596s.62-1.08 1.148-1.24l2.91-.882c.53-.16 1.013.138.97.597-.048.48-.62 1.08-1.15 1.24l-2.908.882zM366.03 313.444c-.556.102-.988-.24-.863-.687s.807-.995 1.364-1.098l3.065-.566c.557-.103.99.24.864.687-.132.467-.808.996-1.365 1.098l-3.064.566zM365.113 315.112c-.552.09-.974-.27-.843-.718s.815-.982 1.368-1.07l3.04-.486c.553-.088.974.27.843.718-.136.468-.814.983-1.366 1.07l-3.04.486zM364.167 316.957c-.557.102-.99-.24-.864-.687s.807-.995 1.364-1.098l3.064-.565c.558-.103.99.24.865.687-.13.466-.807.995-1.364 1.097l-3.063.567zM363.1 318.483c-.558.07-.963-.3-.812-.744s.858-.958 1.415-1.03l3.06-.388c.555-.07.96.3.81.744-.158.463-.858.956-1.415 1.027l-3.06.39zM369.125 306.834c-.546.14-1.01-.174-.927-.627s.71-1.045 1.256-1.185l3-.768c.546-.14 1.01.174.928.627-.086.474-.71 1.046-1.256 1.186l-3 .768zM368.837 308.084c-.552.09-.974-.27-.843-.718s.815-.982 1.368-1.07l3.04-.486c.553-.088.974.27.843.718-.137.468-.815.983-1.367 1.07l-3.04.486zM367.892 309.93c-.557.102-.99-.24-.864-.687s.807-.995 1.364-1.098l3.064-.565c.557-.103.99.24.864.687-.13.466-.807.995-1.364 1.097l-3.064.566zM366.975 311.598c-.552.09-.974-.27-.843-.718s.815-.982 1.368-1.07l3.04-.486c.553-.088.974.27.843.718-.137.468-.815.983-1.367 1.07l-3.04.486zM377.552 284.185c-.49.244-1.03.032-1.078-.424s.392-1.156.883-1.4l2.697-1.346c.49-.244 1.03-.032 1.078.424.05.477-.392 1.157-.883 1.402l-2.698 1.345zM376.81 285.946c-.525.183-1.023-.09-.994-.548s.585-1.098 1.112-1.282l2.895-1.01c.527-.183 1.024.09.995.548-.03.48-.584 1.1-1.11 1.282l-2.897 1.01zM376.26 287.727c-.527.17-1.017-.122-.982-.58s.596-1.09 1.12-1.258l2.89-.928c.527-.17 1.017.122.982.58-.037.482-.596 1.09-1.12 1.258l-2.89.927zM378.2 278.36c-.493.23-1.028 0-1.07-.46s.404-1.146.896-1.376l2.705-1.26c.493-.23 1.028 0 1.07.46.046.478-.404 1.146-.896 1.375l-2.705 1.26zM378 280.36c-.49.243-1.03.03-1.08-.425s.393-1.157.884-1.402l2.697-1.345c.49-.244 1.03-.032 1.08.424.05.477-.393 1.157-.884 1.402L378 280.36zM377.752 282.185c-.492.23-1.027 0-1.07-.46s.405-1.146.897-1.376l2.704-1.26c.492-.23 1.027 0 1.07.458.045.48-.405 1.147-.897 1.376l-2.705 1.26zM375.72 289.68c-.525.183-1.023-.09-.994-.548s.585-1.098 1.112-1.282l2.895-1.01c.527-.183 1.024.09.995.548-.03.48-.584 1.1-1.11 1.282l-2.897 1.01zM374.95 291.035c-.53.16-1.014-.138-.97-.596s.62-1.08 1.148-1.24l2.91-.883c.53-.16 1.013.138.97.597-.048.48-.62 1.078-1.15 1.238l-2.908.883zM374.367 292.982c-.53.176-1.022-.106-.983-.563s.608-1.09 1.14-1.266l2.916-.965c.53-.176 1.022.106.983.563-.04.477-.608 1.09-1.14 1.265l-2.916.964z"/></g><g stroke="#000" stroke-width="14.25" fill="#b00"><path d="M423.076 336.686c.566-.056.84-.5.546-.886s-1.153-.717-1.72-.66l-3.116.312c-.566.056-.84.5-.546.886.306.404 1.153.717 1.72.66l3.116-.312zM424.603 338.013c.557-.07.814-.524.514-.91s-1.156-.704-1.713-.635l-3.062.38c-.556.07-.813.525-.513.91.312.405 1.155.704 1.71.635l3.063-.38zM426.216 339.49c.566-.056.84-.5.546-.886s-1.153-.717-1.72-.66l-3.116.312c-.566.056-.84.5-.546.886.306.404 1.153.717 1.72.66l3.116-.312zM406.104 320.21c.565.066.964-.304.798-.74s-.897-.94-1.462-1.006l-3.106-.365c-.565-.067-.964.304-.798.74.173.456.897.94 1.46 1.006l3.108.364zM407.29 321.715c.56.043.938-.35.756-.783s-.926-.912-1.487-.954l-3.084-.236c-.56-.043-.938.348-.756.783.19.454.926.91 1.486.954l3.083.235zM408.443 323.474c.566.057.956-.32.78-.754s-.918-.924-1.485-.98l-3.114-.312c-.566-.057-.956.32-.78.754.184.453.918.924 1.485.98l3.113.312zM409.814 324.153c.563.013.91-.398.695-.822s-.994-.86-1.556-.872l-3.095-.073c-.564-.013-.91.398-.696.822.224.443.993.86 1.555.874l3.094.073zM401.987 314.046c.554.116.997-.216.887-.665s-.773-1.014-1.326-1.13l-3.044-.64c-.554-.115-.997.218-.887.667.114.47.773 1.014 1.326 1.13l3.044.64zM402.85 315.737c.548.1.982-.247.866-.697s-.78-1.002-1.33-1.103l-3.023-.557c-.55-.102-.984.247-.868.697.12.47.78 1 1.33 1.103l3.024.557zM403.73 317.603c.553.116.996-.216.886-.665s-.773-1.015-1.326-1.13l-3.044-.64c-.554-.116-.997.217-.887.666.113.47.772 1.014 1.325 1.13l3.044.64zM404.904 319.143c.552.092.977-.264.85-.713s-.804-.988-1.356-1.08l-3.036-.507c-.552-.092-.978.264-.85.712.13.47.804.99 1.356 1.08l3.036.508zM416.762 331.275c.57-.018.885-.44.63-.846s-1.08-.794-1.65-.777l-3.136.098c-.57.02-.885.442-.63.847.266.424 1.08.793 1.65.775l3.136-.097zM418.155 332.697c.562-.03.862-.467.6-.872s-1.084-.78-1.646-.748l-3.09.172c-.56.03-.86.466-.6.87.274.424 1.085.78 1.647.75l3.088-.173zM419.622 334.28c.57-.017.885-.44.63-.845s-1.08-.793-1.65-.776l-3.136.097c-.57.018-.885.44-.63.846.266.424 1.08.793 1.65.775l3.136-.097zM421.462 335.21c.557-.07.814-.525.514-.91s-1.156-.705-1.713-.636l-3.062.38c-.555.07-.812.525-.512.91.313.405 1.156.704 1.712.635l3.062-.38zM411.098 325.845c.57.027.93-.37.72-.793s-.986-.874-1.555-.9l-3.132-.15c-.568-.026-.93.37-.72.794.218.443.987.874 1.556.9l3.132.15zM412.325 327.372c.563.013.91-.398.695-.822s-.993-.86-1.555-.873l-3.095-.073c-.563-.013-.91.398-.695.822.224.443.993.86 1.555.874l3.095.072zM413.903 328.268c.57-.018.885-.44.63-.846s-1.08-.793-1.65-.776l-3.136.098c-.57.018-.885.44-.63.846.266.424 1.08.793 1.65.775l3.136-.097zM415.295 329.69c.562-.03.862-.467.6-.872s-1.084-.78-1.646-.748l-3.09.172c-.56.03-.86.467-.6.872.274.423 1.085.78 1.647.748l3.088-.172zM393.64 293.758c.515.204 1.027-.05 1.024-.508s-.52-1.12-1.036-1.325l-2.836-1.124c-.515-.204-1.028.05-1.025.508.003.48.52 1.12 1.036 1.325l2.836 1.125zM394.162 294.586c.532.155 1.01-.15.958-.607s-.636-1.072-1.168-1.226l-2.923-.85c-.532-.154-1.01.15-.96.607.056.48.638 1.072 1.17 1.227l2.922.85zM394.775 296.525c.533.17 1.02-.117.973-.574s-.626-1.08-1.16-1.25l-2.932-.932c-.533-.17-1.02.118-.974.574.05.477.626 1.082 1.16 1.252l2.933.93zM395.396 298.288c.532.155 1.01-.15.958-.607s-.636-1.07-1.168-1.224l-2.923-.85c-.53-.154-1.01.15-.958.607.055.48.637 1.07 1.168 1.226l2.923.848zM392.336 288.016c.516.19 1.022-.082 1.013-.543s-.534-1.11-1.05-1.3l-2.835-1.04c-.515-.19-1.022.082-1.013.542.01.482.533 1.11 1.05 1.3l2.834 1.04zM392.762 289.985c.516.204 1.028-.05 1.025-.508s-.52-1.12-1.036-1.325l-2.835-1.124c-.515-.205-1.028.05-1.025.507.003.48.52 1.12 1.036 1.325l2.836 1.125zM393.213 291.79c.516.188 1.022-.083 1.013-.544s-.533-1.11-1.048-1.3l-2.836-1.04c-.515-.19-1.022.082-1.013.542.008.482.532 1.11 1.048 1.3l2.835 1.04zM398.576 306.99c.547.132 1.006-.186.916-.638s-.727-1.037-1.275-1.17l-3.013-.733c-.548-.134-1.006.185-.916.637.094.472.727 1.036 1.275 1.17l3.013.732zM399.36 308.71c.544.12.993-.216.897-.67s-.736-1.025-1.28-1.143l-2.998-.65c-.546-.12-.995.216-.9.67.1.473.737 1.025 1.282 1.143l2.997.65zM400.16 310.598c.546.133 1.005-.185.915-.637s-.727-1.036-1.275-1.17l-3.013-.732c-.548-.133-1.006.186-.916.638.095.472.728 1.036 1.276 1.17l3.013.732zM401.107 312.18c.55.1.983-.247.867-.697s-.78-1.002-1.33-1.103l-3.023-.557c-.55-.102-.983.247-.867.697.12.47.78 1 1.33 1.103l3.024.557zM396.01 300.228c.532.17 1.02-.117.972-.574s-.626-1.082-1.16-1.25l-2.932-.933c-.533-.168-1.02.12-.974.575.05.477.626 1.082 1.16 1.252l2.933.93zM396.195 301.495c.545.12.994-.217.898-.67s-.736-1.026-1.28-1.144l-2.998-.65c-.545-.118-.994.217-.9.67.1.474.738 1.026 1.283 1.144l2.997.65zM396.993 303.38c.547.134 1.006-.184.916-.636s-.728-1.037-1.276-1.17l-3.013-.733c-.547-.132-1.005.187-.915.64.094.47.727 1.035 1.275 1.17l3.013.73zM397.777 305.103c.545.12.994-.217.898-.67s-.736-1.026-1.28-1.144l-2.998-.652c-.545-.118-.994.217-.9.67.1.474.738 1.026 1.283 1.144l2.997.65zM389.374 277.163c.47.27 1.025.09 1.11-.363s-.3-1.176-.77-1.446l-2.587-1.49c-.47-.27-1.026-.088-1.11.364-.09.473.3 1.176.77 1.447l2.587 1.488zM389.97 278.966c.513.212 1.03-.034 1.038-.493s-.497-1.128-1.008-1.34l-2.812-1.165c-.512-.212-1.03.034-1.037.492-.006.48.498 1.13 1.01 1.34l2.81 1.166zM390.387 280.774c.51.197 1.023-.067 1.024-.527s-.508-1.12-1.02-1.316l-2.81-1.082c-.513-.197-1.025.067-1.026.527 0 .482.51 1.118 1.02 1.315l2.813 1.084zM389.183 271.32c.473.255 1.025.056 1.104-.4s-.314-1.167-.787-1.423l-2.6-1.407c-.472-.256-1.024-.056-1.103.4-.083.476.314 1.167.786 1.423l2.6 1.407zM389.228 273.32c.47.272 1.025.09 1.11-.362s-.3-1.176-.77-1.446l-2.587-1.49c-.47-.27-1.025-.088-1.11.364-.088.473.302 1.176.772 1.447l2.586 1.488zM389.33 275.16c.473.256 1.025.057 1.104-.4s-.314-1.166-.787-1.422l-2.6-1.407c-.472-.255-1.024-.055-1.103.4-.083.477.314 1.168.786 1.424l2.6 1.407zM390.767 282.753c.512.212 1.03-.034 1.037-.493s-.497-1.128-1.008-1.34l-2.812-1.165c-.512-.212-1.03.034-1.037.492-.007.48.497 1.13 1.008 1.34l2.812 1.166zM391.437 284.148c.516.19 1.022-.082 1.013-.543s-.533-1.11-1.048-1.3l-2.836-1.04c-.515-.19-1.022.082-1.013.542.01.482.533 1.11 1.05 1.3l2.834 1.04zM391.86 286.117c.517.204 1.03-.05 1.026-.508s-.52-1.122-1.036-1.326l-2.836-1.124c-.515-.205-1.028.05-1.025.507.002.48.52 1.12 1.035 1.325l2.836 1.125z"/></g><path d="M344.54-596.29l9.152 22.14s1.455-9.766 8.526-11.533l7.07-1.768s26.865 49.327 32.17 58.166c5.3 8.838-3.537 16.793-1.77 16.793 1.77 0 26.517-11.49 26.517-11.49s-10.606.882-15.026-6.19-34.82-59.933-34.82-59.933 6.187-2.652 11.49-5.303c5.304-2.652 10.607 7.955 10.607 7.955L385.2-613.97s0 8.84-4.42 10.607c-4.42 1.766-7.956 3.534-7.956 3.534s-3.535-6.187-7.955-13.258c-4.42-7.07 4.42-14.142 4.42-14.142l-22.982 11.49s7.955 4.42 10.607 8.84l5.303 8.838s-3.223 1.768-8.214 3.482c-3.59 1.875-7.696.054-9.464-1.714z" transform="matrix(-.215 .004 .005 .179 452.172 346.217)" stroke="#000" stroke-width="1pt" fill="#fff133"/><g transform="matrix(.13 0 0 .108 351.35 305.645)"><path fill="#c0c0c0" d="M324.546-255.37l-50.11 50.11L449.82-29.874l50.11-50.11z"/><ellipse fill="#fff133" transform="scale(-1 1) rotate(45 -177.879 -1104.595)" cx="354.33" rx="35.433" cy="-1428" ry="35.433" stroke="#000" stroke-width="1pt"/><path d="M-402.046-956.91l37.583 37.582-25.055 25.054-37.583-37.582c-12.53-12.528 12.526-37.583 25.054-25.055z" stroke="#000" stroke-width="1pt" fill="#c0c0c0"/><path d="M-346.606-926.53l-50.11 50.11c-13.798 0-25.35-11.554-25.055-25.056 10.877-25.88 25.027-38.434 50.11-50.11 12.476.73 24.216 10.892 25.054 25.055z" stroke="#000" stroke-width="1pt" fill="#fff133"/><path d="M-351.926-931.85l37.583 37.582-50.11 50.11-37.583-37.583c5.027-20.03 30.082-45.085 50.11-50.11z" stroke="#000" stroke-width="1pt" fill="#c0c0c0"/><path d="M-309.026-888.95l-50.11 50.11c-13.798 0-25.35-11.554-25.055-25.056 10.877-25.88 25.027-38.434 50.11-50.11 12.476.73 24.216 10.892 25.054 25.055z" stroke="#000" stroke-width="1pt" fill="#fff133"/><path d="M-314.356-894.28L28.44-551.478l-50.11 50.11-342.796-342.804c5.027-20.03 30.082-45.085 50.11-50.11z" stroke="#000" stroke-width="1pt" fill="#c0c0c0"/><path d="M48.934-530.97l-50.11 50.11c-13.798 0-25.35-11.554-25.055-25.056 10.877-25.88 25.027-38.434 50.11-50.11 12.476.73 24.216 10.892 25.054 25.055z" stroke="#000" stroke-width="1pt" fill="#fff133"/><path d="M48.944-530.976L274.44-305.48l-50.11 50.11L-1.166-480.866c5.027-20.028 30.082-45.084 50.11-50.11zM186.744-418.23l-75.166 75.165c-13.797 0-25.35-11.553-25.055-25.055 0 0 0-25.055 25.055-50.11s50.11-25.055 50.11-25.055c11.64 1.567 21.415 12.527 25.055 25.055zM186.744-418.23l50.11 75.165-50.11 50.11-75.165-50.11c-2.83-2.443 0-25.055 25.054-50.11s48.98-24.457 50.11-25.056z" stroke="#000" stroke-width="1pt" fill="#c0c0c0"/><path d="M336.61-506.69c0-35.433 0-86.653 17.717-129.98 17.716 43.326 17.716 94.546 17.716 129.98H336.61z" transform="rotate(-135 434.752 18.668) scale(1 -.818)" stroke="#000" stroke-width="1pt" fill="#c0c0c0"/><path d="M318.9-506.69h17.716v-43.326c0-43.327-35.433-64.99-35.433-64.99l17.717 108.32z" transform="rotate(-45 399.396 -194.158) scale(1 .818)" stroke="#000" stroke-width="1pt" fill="#c0c0c0"/><path d="M318.9-506.69h17.716v-43.326c0-43.327-35.433-64.99-35.433-64.99l17.717 108.32z" transform="rotate(-135 434.752 18.668) scale(1 -.818)" stroke="#000" stroke-width="1pt" fill="#c0c0c0"/><path d="M-314.356-894.28l37.583 37.582C-251.718-831.643-164.03-718.9-164.03-718.9s117.296 92.25 142.356 117.31l37.583 37.583C-9.148-589.062-164.03-693.842-164.03-693.842S-71.784-551.48-34.2-513.896l-37.583-37.583c-25.055-25.054-117.305-142.36-117.3-142.365-.005.005-100.223-75.168-125.276-100.22l-50.11-50.11c25.055 25.054 175.382 125.28 175.382 125.28s-100.22-150.338-125.272-175.39z" stroke="#000" stroke-width="1pt" fill="#fff133"/><path d="M299.493-230.317c50.11 75.165 100.22 125.276 112.744 137.8 23.776 23.82 50.11 25.055 50.11 25.055s0-25.056-25.055-50.11c-12.527-12.528-62.638-62.64-137.8-112.745zm-62.64-112.75c87.695 87.695 187.916 137.806 250.552 200.442 50.11 50.11 15.414 88.464 1.443 100.606-13.97 12.142-51.966 50.283-101.664-.385-62.638-62.638-112.746-162.857-200.442-250.552 0-25.055 25.056-50.11 50.11-50.11z" stroke="#000" stroke-width="1pt" fill="#c0c0c0"/><path transform="matrix(-1.249 -1.421 -1.359 1.317 1166.1 -102.64)" stroke="#000" stroke-width="1pt" fill="#c0c0c0" d="M218.28 257.88h22.934v73.043H218.28z"/><g stroke="#000" fill="#c0c0c0"><path d="M-330.51-843.274l-40.654 39.753 40.653 39.75-20.326 19.878-40.654-39.753-81.304 79.505 40.653 39.753-20.33 19.876-40.65-39.753-40.653 39.752 121.958 119.257 81.304-79.505-40.654-39.753-20.326 19.876-20.325-19.877 81.304-79.506 20.325 19.878-20.326 19.875 40.65 39.752 40.654-39.753-20.326-19.877 20.326-19.876 81.304 79.505-20.325 19.874-20.326-19.875-40.653 39.752 40.65 39.75 20.327-19.874 20.328 19.875-81.304 79.505-20.328-19.876 20.328-19.878-40.653-39.75-81.304 79.504 121.958 119.258 40.653-39.754-40.653-39.75 20.326-19.876 40.653 39.75 81.304-79.504-40.653-39.753 20.328-19.877 40.65 39.754 40.654-39.754-284.576-278.276zM-208.564-406.002v39.752l-101.63 99.38v-79.503l20.325-19.877h40.654l40.652-39.752zM-106.925-504.564l-80.75 78.96-.96 39.48 81.71-79.9v-38.54zM-188.234-386.122l-40.652-39.752v-39.753l40.652 39.753v39.752zM-86.603-485.503l-40.652-39.752v-39.753l40.652 39.753v39.752zM-127.255-565.01v39.753l-20.327-19.877 20.327-19.875zM-228.886-465.628v39.752l-20.327-19.877 20.327-19.875zM-45.543-565.01L-86.6-525.255v39.752l41.057-40.965v-38.54zM-289.865-604.758l-40.652-39.752v-39.753l40.652 39.753v39.752zM-208.56-525.26l-40.653-39.752v-39.753l40.652 39.753v39.752zM-188.23-624.638l-60.98-59.63v-39.75l81.305 79.503-20.326 19.877zM-249.213-724.016v39.752l-20.327-19.877 20.327-19.876zM-289.865-604.758l40.652-39.752v-39.753l-40.652 39.753v39.752zM-391.493-624.638l60.98-59.63v-39.75l-81.305 79.503 20.325 19.877zM-330.51-604.764l-81.305 79.505h-40.652l-20.327 19.876v79.506l142.288-139.53v-39.357zM-249.213-366.242L-371.17-485.5h-40.653l121.958 119.258h40.652zM-310.192-346.373L-432.15-465.63l20.33-19.87 121.958 119.258-20.33 19.87zM-310.192-346.373v79.504L-432.15-386.126v-79.504l121.958 119.257zM-411.82-525.25l-121.958-119.257h-40.652l121.958 119.258h40.652zM-472.8-505.38l-121.957-119.258 20.33-19.87 121.958 119.26-20.33 19.868zM-472.8-505.38v79.504l-121.957-119.258v-79.504L-472.8-505.38zM-452.48-644.507l-20.327-19.877v-39.752l40.653 39.752-20.326 19.877zM-350.852-743.885l-20.327-19.877v-39.752l40.654 39.752-20.326 19.877zM-249.216-485.5v-39.752l-20.327 19.875 20.327 19.877zM-208.56-525.26l40.65-39.752-20.325-19.877-20.326 19.878v39.752zM-330.522-684.267l20.326-19.877-20.326-19.875v39.753z"/></g><path transform="matrix(-1.251 -1.419 -1.361 1.315 1166.1 -102.64)" stroke="#000" stroke-width="1pt" fill="#fff133" d="M196.5 254.15h25.197v80.26H196.5z"/><path d="M336.61 166.54c0 14.67 35.433 35.434 35.433-17.716H336.61v17.716zM242.1 24.803c-147.06 0-113.13 164.24-100.37 124.02 9.36-29.503 35.433-70.866 64.935-80.225 40.225-12.76 26.696 9.36 41.364 9.36 14.67 0 1.14-22.12 41.363-9.36 29.503 9.36 55.577 50.722 64.936 80.225 12.76 40.224 53.148-124.02-112.23-124.02zM389.76 166.54c0 78.237-63.496 141.73-141.73 141.73-78.236 0-141.73-63.496-141.73-141.73v-17.716c0-29.116 35.433 124.02 141.73 124.02s141.73-124.77 141.73-124.02v17.716z" transform="matrix(-1.899 0 0 1.887 1166.1 -102.64)" stroke="#000" stroke-width="1pt" fill="#c0c0c0"/><path d="M336.61 166.54c0 14.67 35.433 35.434 35.433-17.716H336.61v17.716z" transform="matrix(1.899 0 0 1.887 224 -100.51)" stroke="#000" stroke-width="1pt" fill="#c0c0c0"/><path d="M389.76 148.82c0 78.236-63.496 141.73-141.73 141.73-78.236 0-141.73-63.496-141.73-141.73 0-78.236 63.496-141.73 141.73-141.73 78.237 0 141.73 63.496 141.73 141.73zm-53.15 0c0 14.67 22.812 3.042 9.36 43.04-9.36 27.826-27.076 45.543-56.58 54.902-40.224 12.76-26.693-9.36-41.363-9.36-14.668 0-1.14 22.12-41.364 9.36-29.502-9.36-47.218-27.076-56.577-56.578-12.76-40.224 9.36-26.695 9.36-41.364 0-14.67-22.12-1.14-9.36-41.364 9.36-29.502 27.075-47.22 56.577-56.578 40.225-12.76 26.696 9.36 41.364 9.36 14.67 0 1.14-22.12 41.364-9.36 29.504 9.36 47.22 27.075 56.58 56.578 12.76 40.224-9.36 26.694-9.36 41.364z" transform="matrix(-1.899 0 0 1.887 1166.1 -102.64)" stroke="#000" stroke-width="1pt" fill="#c0c0c0"/><path d="M126.55 157.68c-20.248 0-1.93 67.6-9.104 51.705s-11.144-33.368-11.144-51.705 3.97-35.81 11.144-51.705c7.175-15.894-11.144 51.705 9.104 51.705z" transform="matrix(-1.662 0 0 1.761 1107.2 -99.519)" stroke="#000" stroke-width="1pt" fill="#c0c0c0"/><path d="M372.05 139.96c0 15.892-2.13 31.632-9.75 44.81-7.966 13.776 9.75-44.81-7.966-44.81 17.716 0 1.687-58.587 7.965-44.81 6.278 13.775 9.75 28.918 9.75 44.81z" transform="matrix(-1.899 0 0 2.032 1166.1 -106.24)" stroke="#000" stroke-width="1pt" fill="#c0c0c0"/><path d="M296.29 263.08c-14.836 6.28-31.144 9.75-48.258 9.75s-33.422-3.47-48.257-9.75c-14.835-6.278 48.257 9.75 48.257-7.966 0 17.717 63.093 1.688 48.258 7.966zM248.03 42.52c0-17.716-63.092-1.688-48.257-7.966s31.143-9.75 48.257-9.75 33.422 3.472 48.258 9.75c14.835 6.278-48.258-9.75-48.258 7.966z" transform="matrix(-1.899 0 0 1.887 1166.1 -102.64)" stroke="#000" stroke-width="1pt" fill="#c0c0c0"/><ellipse fill="#fff133" transform="matrix(-1.293 -1.382 -1.391 1.284 1257.6 -120.02)" cx="82.112" rx="18.433" cy="160.86" ry="20.109" stroke="#000" stroke-width="1pt"/><path d="M276.58 287.67c-9.223 1.89-18.773 2.88-28.552 2.88s-19.33-.99-28.553-2.88l-1.432 6.965c9.686 1.984 19.715 3.025 29.985 3.025s20.3-1.04 29.985-3.025l-1.433-6.965z" transform="matrix(-1.293 -1.382 1.391 -1.284 808.89 712.05)" stroke="#000" stroke-width="1pt" fill="#fff133"/><path d="M276.58 287.67c-9.223 1.89-18.773 2.88-28.552 2.88s-19.33-.99-28.553-2.88l-1.432 6.965c9.686 1.984 19.715 3.025 29.985 3.025s20.3-1.04 29.985-3.025l-1.433-6.965zM267.7 308.51c-9.223 1.89-20.19.927-29.97.927-9.777 0-19.284-2.612-28.508-4.5l8.82-10.304c9.687 1.984 19.716 3.025 29.986 3.025s20.3-1.04 29.985-3.025L267.7 308.51z" transform="matrix(-1.293 -1.382 -1.391 1.284 1223.2 329.88)" stroke="#000" stroke-width="1pt" fill="#fff133"/><path d="M276.58 287.67c-9.223 1.89-18.773 2.88-28.552 2.88s-19.33-.99-28.553-2.88l-1.432 6.965c9.686 1.984 19.715 3.025 29.985 3.025s20.3-1.04 29.985-3.025l-1.433-6.965z" transform="matrix(-1.391 1.284 1.293 1.382 847.44 -345.21)" stroke="#000" stroke-width="1pt" fill="#fff133"/><ellipse fill="#fff133" transform="matrix(-1.293 -1.382 -1.391 1.284 789.14 314.38)" cx="82.112" rx="18.433" cy="160.86" ry="20.109" stroke="#000" stroke-width="1pt"/><path d="M267.59 281.47c-9.223 1.89-17.098 2.943-26.877 2.943s-23.112-.712-32.336-2.6l9.672 12.82c9.685 1.985 19.714 3.026 29.984 3.026s20.3-1.042 29.985-3.026l-10.43-13.164z" transform="matrix(-1.391 1.284 1.293 1.382 850.63 -315.18)" stroke="#000" stroke-width="1pt" fill="#fff133"/><path d="M173.94 271.77l-.838 14.842-3.24 4.493.977-15.087 3.1-4.248zm156.6-6.17l3.562 4.19 1.047 13.615-2.934-2.933-1.676-14.872z" transform="matrix(-1.899 0 0 1.887 1166.1 -102.64)" stroke="#000" stroke-width="1pt" fill="#fff133"/><ellipse fill="#fff133" transform="matrix(-1.293 -1.382 -1.391 1.284 1237.6 329.88)" cx="82.112" rx="18.433" cy="160.86" ry="20.109" stroke="#000" stroke-width="1pt"/></g><path d="M513.78-790.16l35.432-17.714 35.433 17.714s-73.366 35.433-73.366 159.45c-.002 88.58 125.26 106.3 125.26 212.6 0 45.65-34.184 88.582-69.617 88.582s-88.583-17.716-141.73-70.866c35.433 17.716 76.082 37.308 106.3 36.058 19.588-.405 55.025-17.716 55.025-53.15 0-70.865-122.77-106.92-122.77-213.22 0-124.02 50.025-159.45 50.026-159.45zM520.25-790.16l46.683-17.717 10 17.717s-70.65 35.433-70.65 159.45c0 88.58 125.89 106.3 125.89 212.6 0 45.65-26.713 87.362-65.24 88.582-73.403 2.363-90.458-23.966-141.73-70.866 43.15 32.308 105 46.752 129.02 34.183 29.354-15.365 35.024-36.06 35.024-53.775 0-70.866-120.89-104.42-120.89-210.72 0-124.02 51.9-159.45 51.9-159.45zM513.34-789.69c7.004-2.437 35.875-18.186 71.308 17.247 17.717 17.72 17.716 53.15 17.716 70.866l53.15-53.15s-29.066-86.87-107.62-53.59c-11.127 4.9-28.14 14.537-34.55 18.627zM523.8-795.94c8.84-2.87 36.676-6.325 64.596 18.5 17.717 17.72 18.966 42.934 18.966 60.65l40.65-37.932c3.44-3.21-24.832-81.252-99.24-54.034-4.5 1.807-14.78 6.302-24.972 12.816z" transform="matrix(-.215 0 0 .179 450.486 340.71)" stroke="#000" stroke-width="1pt" fill="#fff"/><path d="M344.54-596.29l9.152 22.14s1.455-9.766 8.526-11.533l7.07-1.768s26.865 49.327 32.17 58.166c5.3 8.838-3.537 16.793-1.77 16.793 1.77 0 26.517-11.49 26.517-11.49s-10.606.882-15.026-6.19-34.82-59.933-34.82-59.933 6.187-2.652 11.49-5.303c5.304-2.652 10.607 7.955 10.607 7.955L385.2-613.97s0 8.84-4.42 10.607c-4.42 1.766-7.956 3.534-7.956 3.534s-3.535-6.187-7.955-13.258c-4.42-7.07 4.42-14.142 4.42-14.142l-22.982 11.49s7.955 4.42 10.607 8.84l5.303 8.838s-3.223 1.768-8.214 3.482c-3.59 1.875-7.696.054-9.464-1.714z" transform="matrix(-.175 -.019 -.06 .155 365.625 343.191)" stroke="#000" stroke-width="1pt" fill="#fff133"/><path d="M344.54-596.29l9.152 22.14s1.455-9.766 8.526-11.533l7.07-1.768s26.865 49.327 32.17 58.166c5.3 8.838-3.537 16.793-1.77 16.793 1.77 0 26.517-11.49 26.517-11.49s-10.606.882-15.026-6.19-34.82-59.933-34.82-59.933 6.187-2.652 11.49-5.303c5.304-2.652 10.607 7.955 10.607 7.955L385.2-613.97s0 8.84-4.42 10.607c-4.42 1.766-7.956 3.534-7.956 3.534s-3.535-6.187-7.955-13.258c-4.42-7.07 4.42-14.142 4.42-14.142l-22.982 11.49s7.955 4.42 10.607 8.84l5.303 8.838s-3.223 1.768-8.214 3.482c-3.59 1.875-7.696.054-9.464-1.714z" transform="matrix(.16 .022 .003 -.119 258.866 126.07)" stroke="#000" stroke-width="1pt" fill="#fff133"/><g transform="matrix(.13 0 0 .108 351.35 305.645)"><g transform="rotate(45 478.12 -504.573)"><ellipse fill="#c0c0c0" transform="translate(124.01 283.46)" cx="354.33" rx="35.433" cy="-1428" ry="35.433" stroke="#000"/><path d="M460.63-1126.77v53.15h35.432v-53.15c0-17.717-35.432-17.717-35.432 0z" stroke="#000" fill="#fff133"/><path d="M442.91-1066.09h70.866c9.757-9.756 9.757-26.095 0-35.433-25.99-10.607-44.874-9.48-70.866 0-8.307 9.338-9.422 24.826 0 35.433z" stroke="#000" fill="#c0c0c0"/><path d="M442.91-1073.62v53.15h70.866v-53.15c-17.717-10.607-53.15-10.607-70.866 0z" stroke="#000" fill="#fff133"/><path d="M442.91-1012.94h70.866c9.757-9.756 9.757-26.095 0-35.433-25.99-10.607-44.874-9.48-70.866 0-8.307 9.338-9.422 24.826 0 35.433z" stroke="#000" fill="#c0c0c0"/><path fill="#fff133" d="M442.91-116.93h70.866V131.1H442.91z"/><path d="M442.91-1020.476l.006 484.79h70.867l-.007-484.79c-17.717-10.607-53.15-10.607-70.866 0z" stroke="#000" fill="#fff133"/><path d="M442.92-506.698h70.866c9.757-9.756 9.757-26.095 0-35.433-25.99-10.608-44.874-9.48-70.866 0-8.307 9.337-9.422 24.825 0 35.432z" stroke="#000" fill="#c0c0c0"/><path d="M442.92-506.7v318.9h70.866v-318.9c-17.717-10.607-53.15-10.607-70.866 0zM425.19-329.53h106.3c9.757-9.756 9.757-26.095 0-35.433 0 0-17.716-17.716-53.15-17.716s-53.15 17.717-53.15 17.717c-7.12 9.338-6.283 24 0 35.433zM425.19-329.53l17.717 88.583h70.866l17.716-88.583c.273-3.727-17.717-17.716-53.15-17.716s-51.928 17.34-53.15 17.716z" stroke="#000" fill="#fff133"/><path d="M336.61-506.69c0-35.433 0-86.653 17.717-129.98 17.716 43.326 17.716 94.546 17.716 129.98H336.61z" transform="matrix(1 0 0 .818 124.01 173.44)" stroke="#000" fill="#fff133"/><path d="M318.9-506.69h17.716v-43.326c0-43.327-35.433-64.99-35.433-64.99l17.717 108.32z" transform="matrix(-1 0 0 .818 832.67 173.44)" stroke="#000" fill="#fff133"/><path d="M318.9-506.69h17.716v-43.326c0-43.327-35.433-64.99-35.433-64.99l17.717 108.32z" transform="matrix(1 0 0 .818 124.01 173.44)" stroke="#000" fill="#fff133"/><path d="M478.34-116.93c17.716 88.582 17.716 159.45 17.716 177.16.03 33.655-17.716 53.15-17.716 53.15s-17.717-17.717-17.717-53.15c0-17.716 0-88.583 17.717-177.16zm-35.433-124.02c0 124.02-35.433 230.32-35.433 318.9 0 70.866 51.654 73.453 70.118 72.16 18.464-1.294 72.3-1.19 71.614-72.16 0-88.583-35.433-194.88-35.433-318.9-17.717-17.716-53.15-17.716-70.866 0z" stroke="#000" fill="#fff133"/><path d="M442.91-1020.476v53.15c0 35.433 17.716 177.16 17.716 177.16s-17.71 148.17-17.71 183.61v53.15c0-35.433 35.427-219.04 35.427-219.04s35.44 165.89 35.44 219.04v-53.15c0-35.433-17.717-183.61-17.724-183.61.006 0 17.716-124.02 17.716-159.45v-70.867c0 35.433-35.426 212.6-35.426 212.6s-35.44-177.17-35.44-212.6z" stroke="#000" fill="#c0c0c0"/></g><path transform="matrix(1.249 -1.421 1.359 1.317 -662.45 -102.64)" stroke="#000" stroke-width="1pt" fill="#fff133" d="M218.28 257.88h22.934v73.043H218.28z"/><path d="M336.61 166.54c0 14.67 35.433 35.434 35.433-17.716H336.61v17.716zM242.1 24.803c-147.06 0-113.13 164.24-100.37 124.02 9.36-29.503 35.433-70.866 64.935-80.225 40.225-12.76 26.696 9.36 41.364 9.36 14.67 0 1.14-22.12 41.363-9.36 29.503 9.36 55.577 50.722 64.936 80.225 12.76 40.224 53.148-124.02-112.23-124.02zM389.76 166.54c0 78.237-63.496 141.73-141.73 141.73-78.236 0-141.73-63.496-141.73-141.73v-17.716c0-29.116 35.433 124.02 141.73 124.02s141.73-124.77 141.73-124.02v17.716z" transform="matrix(1.899 0 0 1.887 -662.45 -102.64)" stroke="#000" stroke-width="1pt" fill="#fff133"/><ellipse fill="#c0c0c0" transform="matrix(1.293 -1.382 1.391 1.284 -753.9 -120.02)" cx="82.112" rx="18.433" cy="160.86" ry="20.109" stroke="#000" stroke-width="1pt"/><path transform="matrix(1.251 -1.419 1.361 1.315 -662.45 -102.64)" stroke="#000" stroke-width="1pt" fill="#c0c0c0" d="M196.5 254.15h25.197v80.26H196.5z"/><path d="M336.61 166.54c0 14.67 35.433 35.434 35.433-17.716H336.61v17.716z" transform="matrix(-1.899 0 0 1.887 279.67 -100.51)" stroke="#000" stroke-width="1pt" fill="#fff133"/><path d="M389.76 148.82c0 78.236-63.496 141.73-141.73 141.73-78.236 0-141.73-63.496-141.73-141.73 0-78.236 63.496-141.73 141.73-141.73 78.237 0 141.73 63.496 141.73 141.73zm-53.15 0c0 14.67 22.812 3.042 9.36 43.04-9.36 27.826-27.076 45.543-56.58 54.902-40.224 12.76-26.693-9.36-41.363-9.36-14.668 0-1.14 22.12-41.364 9.36-29.502-9.36-47.218-27.076-56.577-56.578-12.76-40.224 9.36-26.695 9.36-41.364 0-14.67-22.12-1.14-9.36-41.364 9.36-29.502 27.075-47.22 56.577-56.578 40.225-12.76 26.696 9.36 41.364 9.36 14.67 0 1.14-22.12 41.364-9.36 29.504 9.36 47.22 27.075 56.58 56.578 12.76 40.224-9.36 26.694-9.36 41.364z" transform="matrix(1.899 0 0 1.887 -662.45 -102.64)" stroke="#000" stroke-width="1pt" fill="#fff133"/><path d="M126.55 157.68c-20.248 0-1.93 67.6-9.104 51.705s-11.144-33.368-11.144-51.705 3.97-35.81 11.144-51.705c7.175-15.894-11.144 51.705 9.104 51.705z" transform="matrix(1.662 0 0 1.761 -603.57 -99.519)" stroke="#000" stroke-width="1pt" fill="#fff133"/><path d="M372.05 139.96c0 15.892-2.13 31.632-9.75 44.81-7.966 13.776 9.75-44.81-7.966-44.81 17.716 0 1.687-58.587 7.965-44.81 6.278 13.775 9.75 28.918 9.75 44.81z" transform="matrix(1.899 0 0 2.032 -662.45 -106.24)" stroke="#000" stroke-width="1pt" fill="#fff133"/><path d="M296.29 263.08c-14.836 6.28-31.144 9.75-48.258 9.75s-33.422-3.47-48.257-9.75c-14.835-6.278 48.257 9.75 48.257-7.966 0 17.717 63.093 1.688 48.258 7.966zM248.03 42.52c0-17.716-63.092-1.688-48.257-7.966s31.143-9.75 48.257-9.75 33.422 3.472 48.258 9.75c14.835 6.278-48.258-9.75-48.258 7.966z" transform="matrix(1.899 0 0 1.887 -662.45 -102.64)" stroke="#000" stroke-width="1pt" fill="#fff133"/><path d="M276.58 287.67c-9.223 1.89-18.773 2.88-28.552 2.88s-19.33-.99-28.553-2.88l-1.432 6.965c9.686 1.984 19.715 3.025 29.985 3.025s20.3-1.04 29.985-3.025l-1.433-6.965z" transform="matrix(1.293 -1.382 -1.391 -1.284 -305.22 712.05)" stroke="#000" stroke-width="1pt" fill="#c0c0c0"/><path d="M276.58 287.67c-9.223 1.89-18.773 2.88-28.552 2.88s-19.33-.99-28.553-2.88l-1.432 6.965c9.686 1.984 19.715 3.025 29.985 3.025s20.3-1.04 29.985-3.025l-1.433-6.965zM267.7 308.51c-9.223 1.89-20.19.927-29.97.927-9.777 0-19.284-2.612-28.508-4.5l8.82-10.304c9.687 1.984 19.716 3.025 29.986 3.025s20.3-1.04 29.985-3.025L267.7 308.51z" transform="matrix(1.293 -1.382 1.391 1.284 -719.56 329.88)" stroke="#000" stroke-width="1pt" fill="#c0c0c0"/><path d="M276.58 287.67c-9.223 1.89-18.773 2.88-28.552 2.88s-19.33-.99-28.553-2.88l-1.432 6.965c9.686 1.984 19.715 3.025 29.985 3.025s20.3-1.04 29.985-3.025l-1.433-6.965z" transform="matrix(1.391 1.284 -1.293 1.382 -343.78 -345.21)" stroke="#000" stroke-width="1pt" fill="#c0c0c0"/><ellipse fill="#c0c0c0" transform="matrix(1.293 -1.382 1.391 1.284 -285.47 314.38)" cx="82.112" rx="18.433" cy="160.86" ry="20.109" stroke="#000" stroke-width="1pt"/><path d="M267.59 281.47c-9.223 1.89-17.098 2.943-26.877 2.943s-23.112-.712-32.336-2.6l9.672 12.82c9.685 1.985 19.714 3.026 29.984 3.026s20.3-1.042 29.985-3.026l-10.43-13.164z" transform="matrix(1.391 1.284 -1.293 1.382 -346.96 -315.18)" stroke="#000" stroke-width="1pt" fill="#c0c0c0"/><path d="M173.94 271.77l-.838 14.842-3.24 4.493.977-15.087 3.1-4.248zm156.6-6.17l3.562 4.19 1.047 13.615-2.934-2.933-1.676-14.872z" transform="matrix(1.899 0 0 1.887 -662.45 -102.64)" stroke="#000" stroke-width="1pt" fill="#c0c0c0"/><ellipse fill="#c0c0c0" transform="matrix(1.293 -1.382 1.391 1.284 -733.89 329.88)" cx="82.112" rx="18.433" cy="160.86" ry="20.109" stroke="#000" stroke-width="1pt"/><g stroke="#000" fill="#fff133"><path d="M834.18-843.274l40.654 39.753-40.653 39.75 20.326 19.878 40.654-39.753 81.304 79.505-40.653 39.753 20.33 19.876 40.65-39.753 40.653 39.752-121.958 119.257-81.304-79.505 40.654-39.753 20.326 19.876 20.325-19.877-81.304-79.506-20.325 19.878 20.326 19.875-40.65 39.752-40.654-39.753 20.326-19.877-20.326-19.876-81.304 79.505 20.325 19.874 20.326-19.875 40.653 39.752-40.65 39.75-20.327-19.874-20.328 19.875 81.304 79.505 20.328-19.876-20.328-19.878 40.653-39.75 81.304 79.504-121.958 119.258-40.653-39.754 40.653-39.75-20.326-19.876-40.653 39.75-81.304-79.504 40.653-39.753-20.328-19.877-40.65 39.754-40.654-39.754L834.19-843.283zM712.234-406.002v39.752l101.63 99.38v-79.503L793.54-366.25h-40.654l-40.652-39.752zM610.595-504.564l80.75 78.96.96 39.48-81.71-79.9v-38.54zM691.904-386.122l40.652-39.752v-39.753l-40.652 39.753v39.752zM590.273-485.503l40.652-39.752v-39.753l-40.652 39.753v39.752zM630.925-565.01v39.753l20.327-19.877-20.327-19.875zM732.556-465.628v39.752l20.327-19.877-20.327-19.875zM549.213-565.01l41.058 39.754v39.752l-41.057-40.965v-38.54zM793.535-604.758l40.652-39.752v-39.753l-40.652 39.753v39.752zM712.23-525.26l40.653-39.752v-39.753l-40.652 39.753v39.752zM691.9-624.638l60.98-59.63v-39.75l-81.305 79.503 20.326 19.877zM752.883-724.016v39.752l20.327-19.877-20.327-19.876zM793.535-604.758l-40.652-39.752v-39.753l40.652 39.753v39.752zM895.163-624.638l-60.98-59.63v-39.75l81.305 79.503-20.325 19.877zM834.18-604.764l81.305 79.505h40.652l20.327 19.876v79.506l-142.288-139.53v-39.357zM752.883-366.242L874.84-485.5h40.653L793.535-366.242h-40.652zM813.862-346.373L935.82-465.63l-20.33-19.87-121.958 119.258 20.33 19.87zM813.862-346.373v79.504L935.82-386.126v-79.504L813.862-346.374zM915.49-525.25l121.958-119.257h40.652L956.142-525.25H915.49zM976.47-505.38l121.957-119.258-20.33-19.87-121.958 119.26 20.33 19.868zM976.47-505.38v79.504l121.957-119.258v-79.504L976.47-505.38zM956.15-644.507l20.327-19.877v-39.752l-40.653 39.752 20.326 19.877zM854.522-743.885l20.327-19.877v-39.752l-40.654 39.752 20.326 19.877zM752.886-485.5v-39.752l20.327 19.875-20.327 19.877zM712.23-525.26l-40.65-39.752 20.325-19.877 20.326 19.878v39.752zM834.192-684.267l-20.326-19.877 20.326-19.875v39.753z"/></g></g><g stroke="#000" stroke-width="20.006" fill="#b00"><path d="M380.964 287.24c-.456-.287-1.02-.124-1.125.325s.242 1.185.7 1.47l2.51 1.576c.455.287 1.018.124 1.124-.325.11-.47-.244-1.185-.7-1.47l-2.51-1.576zM380.956 285.402c-.46-.272-1.022-.09-1.123.36s.257 1.178.717 1.45l2.53 1.495c.46.27 1.02.09 1.122-.362.106-.473-.257-1.177-.717-1.448l-2.53-1.495zM381.004 283.396c-.456-.286-1.02-.123-1.125.326s.242 1.185.7 1.47l2.51 1.576c.455.286 1.018.123 1.124-.326.11-.47-.244-1.185-.7-1.47l-2.51-1.576zM380.995 281.558c-.46-.272-1.022-.09-1.123.36s.257 1.178.717 1.45l2.53 1.495c.46.27 1.02.09 1.12-.362.107-.472-.256-1.176-.716-1.447l-2.53-1.495zM380.885 294.927c-.456-.286-1.02-.123-1.125.326s.243 1.185.7 1.47l2.51 1.576c.456.285 1.02.122 1.125-.327.11-.47-.244-1.185-.7-1.47l-2.51-1.576zM380.877 293.09c-.46-.273-1.022-.092-1.123.36s.257 1.177.717 1.45l2.53 1.494c.46.27 1.022.09 1.123-.362.106-.473-.257-1.177-.717-1.448l-2.53-1.495zM380.925 291.083c-.456-.286-1.02-.123-1.125.326s.243 1.184.7 1.47l2.51 1.575c.456.286 1.02.123 1.125-.326.11-.47-.244-1.186-.7-1.472l-2.51-1.575zM380.916 289.245c-.46-.272-1.022-.09-1.123.36s.257 1.178.717 1.45l2.53 1.495c.46.27 1.02.09 1.122-.362.106-.473-.257-1.177-.717-1.448l-2.53-1.495zM381.123 271.865c-.456-.286-1.02-.123-1.125.326s.243 1.186.7 1.472l2.51 1.575c.456.286 1.02.123 1.125-.326.11-.47-.244-1.184-.7-1.47l-2.51-1.575zM381.115 270.03c-.46-.273-1.022-.092-1.123.36s.257 1.177.717 1.45l2.53 1.494c.46.27 1.02.09 1.12-.362.107-.473-.256-1.177-.716-1.448l-2.53-1.495zM381.163 268.022c-.456-.286-1.02-.123-1.125.326s.243 1.185.7 1.47l2.51 1.576c.456.286 1.02.123 1.125-.326.11-.47-.244-1.185-.7-1.47l-2.51-1.576zM381.154 266.184c-.46-.272-1.022-.09-1.123.36s.258 1.178.718 1.45l2.53 1.495c.46.27 1.02.09 1.122-.363.106-.473-.257-1.177-.717-1.448l-2.53-1.496zM381.044 279.553c-.456-.286-1.02-.123-1.125.326s.242 1.184.7 1.47l2.51 1.575c.455.286 1.018.123 1.124-.326.11-.47-.244-1.186-.7-1.472l-2.51-1.575zM381.035 277.714c-.46-.272-1.022-.09-1.123.36s.257 1.178.717 1.45l2.53 1.495c.46.27 1.02.09 1.12-.363.107-.473-.256-1.177-.716-1.448l-2.53-1.496zM381.083 275.71c-.456-.287-1.02-.124-1.125.325s.243 1.185.7 1.47l2.51 1.576c.456.287 1.02.124 1.125-.325.11-.47-.244-1.185-.7-1.47l-2.51-1.576zM381.075 273.87c-.46-.27-1.022-.09-1.123.362s.257 1.177.717 1.45l2.53 1.494c.46.27 1.02.09 1.12-.362.107-.473-.256-1.177-.716-1.448l-2.53-1.495zM380.647 317.987c-.456-.286-1.02-.123-1.125.326s.243 1.185.7 1.47l2.51 1.576c.456.285 1.02.122 1.125-.327.11-.47-.244-1.185-.7-1.47l-2.51-1.576zM380.638 316.15c-.46-.273-1.022-.092-1.123.36s.257 1.177.717 1.45l2.53 1.494c.46.27 1.02.09 1.122-.362.106-.473-.257-1.177-.717-1.448l-2.53-1.495zM380.686 314.144c-.456-.286-1.02-.123-1.125.326s.244 1.185.7 1.47l2.51 1.576c.457.286 1.02.123 1.126-.326.11-.47-.244-1.185-.7-1.47l-2.51-1.576zM380.677 312.306c-.46-.272-1.022-.09-1.123.36s.257 1.178.717 1.45l2.53 1.495c.46.272 1.022.092 1.123-.36.106-.474-.257-1.178-.717-1.45l-2.53-1.494zM380.567 325.674c-.456-.286-1.02-.123-1.125.326s.243 1.185.7 1.47l2.51 1.576c.456.286 1.02.123 1.125-.326.11-.47-.244-1.185-.7-1.47l-2.51-1.576zM380.56 323.836c-.46-.272-1.023-.09-1.124.36s.257 1.178.717 1.45l2.53 1.495c.46.272 1.02.092 1.122-.36.106-.474-.257-1.178-.717-1.45l-2.53-1.494zM380.607 321.83c-.456-.285-1.02-.122-1.125.327s.243 1.185.7 1.47l2.51 1.576c.456.286 1.02.123 1.125-.326.11-.47-.244-1.185-.7-1.47l-2.51-1.576zM380.598 319.993c-.46-.272-1.022-.09-1.123.36s.257 1.178.717 1.45l2.53 1.495c.46.27 1.02.09 1.122-.362.106-.473-.257-1.177-.717-1.448l-2.53-1.495zM380.805 302.613c-.456-.286-1.02-.123-1.125.326s.243 1.184.7 1.47l2.51 1.575c.456.286 1.02.123 1.125-.326.11-.47-.244-1.186-.7-1.472l-2.51-1.575zM380.797 300.775c-.46-.272-1.022-.09-1.123.36s.257 1.178.717 1.45l2.53 1.495c.46.27 1.022.09 1.123-.362.106-.473-.257-1.177-.717-1.448l-2.53-1.495zM380.845 298.77c-.456-.286-1.02-.123-1.125.326s.243 1.185.7 1.47l2.51 1.576c.456.286 1.02.123 1.125-.326.11-.47-.244-1.185-.7-1.47l-2.51-1.576zM380.837 296.932c-.46-.272-1.022-.09-1.123.36s.257 1.178.717 1.45l2.53 1.495c.46.27 1.022.09 1.123-.362.106-.473-.257-1.177-.717-1.448l-2.53-1.495zM380.726 310.3c-.456-.286-1.02-.123-1.125.326s.244 1.185.7 1.47l2.51 1.576c.457.286 1.02.123 1.126-.326.11-.47-.244-1.185-.7-1.47l-2.51-1.576zM380.717 308.462c-.46-.272-1.022-.09-1.123.36s.257 1.178.717 1.45l2.53 1.495c.46.27 1.022.09 1.123-.362.106-.473-.257-1.177-.717-1.448l-2.53-1.495zM380.766 306.457c-.456-.286-1.02-.123-1.125.326s.244 1.185.7 1.47l2.51 1.576c.457.285 1.02.122 1.126-.327.11-.47-.244-1.185-.7-1.47l-2.51-1.576zM380.757 304.62c-.46-.273-1.022-.092-1.123.36s.257 1.177.717 1.45l2.53 1.494c.46.27 1.022.09 1.123-.362.106-.473-.257-1.177-.717-1.448l-2.53-1.495zM380.33 348.735c-.457-.286-1.02-.123-1.126.326s.243 1.186.7 1.472l2.51 1.575c.456.286 1.02.123 1.125-.326.11-.47-.245-1.184-.7-1.47l-2.51-1.575zM380.32 346.897c-.46-.272-1.022-.09-1.123.36s.257 1.178.717 1.45l2.53 1.495c.46.27 1.02.09 1.122-.362.106-.473-.257-1.177-.717-1.448l-2.53-1.495zM380.37 344.892c-.457-.286-1.02-.123-1.126.326s.243 1.185.7 1.47l2.51 1.576c.456.286 1.02.123 1.125-.326.11-.47-.245-1.185-.7-1.47l-2.51-1.576zM380.36 343.053c-.46-.272-1.022-.09-1.123.36s.257 1.178.717 1.45l2.53 1.495c.46.27 1.02.09 1.122-.362.106-.473-.257-1.177-.717-1.448l-2.53-1.495zM380.24 354.584c-.46-.272-1.02-.09-1.122.36s.257 1.178.717 1.45l2.53 1.495c.46.27 1.02.09 1.122-.363.106-.473-.257-1.177-.717-1.448l-2.53-1.496zM380.29 352.578c-.457-.286-1.02-.123-1.126.326s.243 1.185.7 1.47l2.51 1.576c.456.286 1.02.123 1.125-.326.11-.47-.245-1.185-.7-1.47l-2.51-1.576zM380.28 350.74c-.46-.27-1.02-.09-1.122.362s.257 1.177.717 1.45l2.53 1.494c.46.27 1.02.09 1.122-.362.106-.473-.257-1.177-.717-1.448l-2.53-1.495zM380.488 333.36c-.456-.285-1.02-.122-1.125.327s.243 1.185.7 1.47l2.51 1.576c.456.286 1.02.123 1.125-.326.11-.47-.244-1.185-.7-1.47l-2.51-1.576zM380.48 331.523c-.46-.272-1.023-.09-1.124.36s.257 1.178.717 1.45l2.53 1.495c.46.27 1.02.09 1.122-.362.106-.473-.257-1.177-.717-1.448l-2.53-1.495zM380.527 329.518c-.456-.286-1.02-.123-1.125.326s.243 1.185.7 1.47l2.51 1.576c.456.286 1.02.123 1.125-.326.11-.47-.244-1.185-.7-1.47l-2.51-1.576zM380.52 327.68c-.46-.273-1.023-.092-1.124.36s.257 1.177.717 1.45l2.53 1.494c.46.27 1.02.09 1.122-.362.106-.473-.257-1.177-.717-1.448l-2.53-1.495zM380.41 341.05c-.457-.287-1.02-.124-1.126.325s.243 1.185.7 1.47l2.51 1.576c.456.287 1.02.124 1.125-.325.11-.47-.245-1.185-.7-1.47l-2.51-1.576zM380.4 339.21c-.46-.272-1.022-.09-1.123.36s.257 1.178.717 1.45l2.53 1.495c.46.27 1.02.09 1.122-.362.106-.473-.257-1.177-.717-1.448l-2.53-1.495zM380.448 337.204c-.456-.286-1.02-.123-1.125.326s.243 1.185.7 1.47l2.51 1.576c.456.286 1.02.123 1.125-.326.11-.47-.244-1.185-.7-1.47l-2.51-1.576zM380.44 335.367c-.46-.272-1.023-.09-1.124.36s.257 1.178.717 1.45l2.53 1.495c.46.27 1.02.09 1.122-.362.106-.473-.257-1.177-.717-1.448l-2.53-1.495zM380.13 368.05c-.457-.286-1.02-.123-1.126.326s.243 1.185.7 1.47l2.51 1.576c.456.286 1.02.123 1.125-.326.11-.47-.245-1.185-.7-1.47l-2.51-1.576zM380.12 366.212c-.46-.272-1.02-.09-1.122.36s.257 1.178.717 1.45l2.53 1.495c.46.27 1.02.09 1.122-.362.106-.473-.257-1.177-.717-1.448l-2.53-1.495zM380.17 364.207c-.457-.286-1.02-.123-1.126.326s.243 1.185.7 1.47l2.51 1.576c.456.285 1.02.122 1.125-.327.11-.47-.245-1.185-.7-1.47l-2.51-1.576zM380.16 362.37c-.46-.273-1.022-.092-1.123.36s.257 1.177.717 1.45l2.53 1.494c.46.27 1.02.09 1.122-.362.106-.473-.257-1.177-.717-1.448l-2.53-1.495zM380.04 373.9c-.46-.273-1.02-.092-1.122.36s.257 1.177.717 1.45l2.53 1.494c.46.27 1.02.09 1.122-.362.106-.473-.257-1.177-.717-1.448l-2.53-1.495zM380.09 371.893c-.457-.286-1.02-.123-1.126.326s.243 1.184.7 1.47l2.51 1.575c.456.286 1.02.123 1.125-.326.11-.47-.245-1.186-.7-1.472l-2.51-1.575zM380.08 370.056c-.46-.272-1.02-.09-1.122.36s.257 1.178.717 1.45l2.53 1.495c.46.272 1.02.092 1.122-.36.106-.474-.257-1.178-.717-1.45l-2.53-1.494zM380.21 360.363c-.457-.286-1.02-.123-1.126.326s.243 1.184.7 1.47l2.51 1.575c.456.286 1.02.123 1.125-.326.11-.47-.245-1.186-.7-1.472l-2.51-1.575zM380.2 358.526c-.46-.272-1.022-.09-1.123.36s.257 1.178.717 1.45l2.53 1.495c.46.272 1.02.092 1.122-.36.106-.474-.257-1.178-.717-1.45l-2.53-1.494zM380.25 356.52c-.457-.286-1.02-.123-1.126.326s.243 1.185.7 1.47l2.51 1.576c.456.286 1.02.123 1.125-.326.11-.47-.245-1.185-.7-1.47l-2.51-1.576z"/></g><g stroke="#000" stroke-width="20.006" fill="#b00"><path d="M383.55 287.455c-.46-.282-1.022-.114-1.122.336s.26 1.183.72 1.465l2.534 1.552c.46.282 1.02.114 1.12-.336.106-.47-.26-1.18-.72-1.463l-2.533-1.552zM383.513 285.61c-.464-.266-1.022-.08-1.118.373s.273 1.175.737 1.442l2.55 1.47c.462.266 1.02.08 1.116-.373.1-.474-.273-1.175-.736-1.442l-2.55-1.47zM383.537 283.612c-.46-.282-1.02-.114-1.12.336s.26 1.182.72 1.464l2.533 1.552c.46.282 1.02.114 1.12-.336.106-.47-.26-1.182-.72-1.464l-2.533-1.552zM383.5 281.767c-.463-.267-1.02-.08-1.117.372s.273 1.174.737 1.44l2.55 1.47c.462.267 1.02.08 1.116-.372.1-.474-.273-1.175-.736-1.442l-2.55-1.47zM383.573 295.142c-.46-.282-1.02-.114-1.12.336s.26 1.182.72 1.464l2.533 1.552c.46.282 1.02.114 1.12-.336.106-.47-.26-1.182-.72-1.464l-2.533-1.552zM383.538 293.298c-.464-.267-1.022-.08-1.118.372s.273 1.175.737 1.442l2.55 1.47c.462.266 1.02.08 1.116-.373.1-.475-.273-1.176-.736-1.443l-2.55-1.47zM383.56 291.3c-.46-.283-1.02-.115-1.12.335s.26 1.182.72 1.464l2.534 1.55c.46.283 1.02.115 1.12-.335.106-.47-.26-1.182-.72-1.464l-2.533-1.55zM383.525 289.454c-.464-.267-1.022-.08-1.118.372s.273 1.175.737 1.442l2.55 1.47c.462.266 1.02.08 1.116-.373.1-.474-.273-1.175-.736-1.442l-2.55-1.47zM383.5 272.08c-.46-.28-1.02-.113-1.12.337s.26 1.182.72 1.464l2.534 1.553c.46.282 1.02.114 1.12-.336.106-.47-.26-1.182-.72-1.464l-2.533-1.552zM383.465 270.237c-.464-.267-1.022-.08-1.118.372s.273 1.174.737 1.44l2.55 1.47c.462.267 1.02.08 1.116-.372.1-.474-.273-1.175-.736-1.442l-2.55-1.47zM383.488 268.237c-.46-.282-1.02-.114-1.12.336s.26 1.182.72 1.464l2.533 1.552c.46.28 1.022.113 1.122-.337.105-.47-.26-1.182-.72-1.464l-2.534-1.553zM383.453 266.393c-.464-.267-1.022-.08-1.118.372s.273 1.175.737 1.442l2.55 1.47c.462.266 1.02.08 1.116-.373.1-.474-.273-1.175-.736-1.442l-2.55-1.47zM383.525 279.768c-.46-.282-1.02-.114-1.12.336s.26 1.182.72 1.464l2.533 1.552c.46.282 1.02.114 1.12-.336.106-.47-.26-1.182-.72-1.464l-2.533-1.552zM383.49 277.924c-.465-.267-1.023-.08-1.12.372s.274 1.175.738 1.442l2.55 1.47c.462.266 1.02.08 1.116-.373.1-.474-.273-1.175-.736-1.442l-2.55-1.47zM383.513 275.924c-.46-.282-1.02-.114-1.12.336s.26 1.182.72 1.464l2.533 1.552c.46.282 1.02.114 1.12-.336.106-.47-.26-1.182-.72-1.464l-2.533-1.552zM383.477 274.08c-.464-.267-1.022-.08-1.118.372s.272 1.175.736 1.442l2.55 1.47c.462.266 1.02.08 1.116-.373.1-.473-.273-1.174-.736-1.44l-2.55-1.47zM383.646 318.204c-.46-.282-1.02-.114-1.12.336s.26 1.182.72 1.464l2.533 1.552c.46.282 1.02.114 1.12-.336.105-.47-.26-1.182-.72-1.464l-2.534-1.552zM383.61 316.36c-.463-.267-1.02-.08-1.117.372s.273 1.175.737 1.442l2.55 1.47c.462.266 1.02.08 1.116-.373.1-.473-.273-1.174-.736-1.44l-2.55-1.47zM383.634 314.36c-.46-.282-1.02-.114-1.12.336s.26 1.182.72 1.464l2.533 1.552c.46.282 1.02.114 1.12-.336.106-.47-.26-1.182-.72-1.464l-2.533-1.552zM383.598 312.516c-.464-.267-1.022-.08-1.118.372s.273 1.175.737 1.442l2.55 1.47c.462.266 1.02.08 1.116-.373.1-.474-.273-1.175-.736-1.442l-2.55-1.47zM383.67 325.89c-.46-.28-1.02-.113-1.12.337s.26 1.182.72 1.464l2.533 1.553c.46.282 1.02.114 1.12-.336.106-.47-.26-1.182-.72-1.464l-2.533-1.552zM383.634 324.048c-.464-.267-1.022-.08-1.118.372s.273 1.175.737 1.442l2.55 1.47c.462.266 1.02.08 1.116-.373.1-.475-.274-1.176-.737-1.443l-2.55-1.47zM383.657 322.048c-.46-.282-1.02-.114-1.12.336s.26 1.182.72 1.464l2.533 1.552c.46.282 1.02.114 1.12-.336.106-.47-.26-1.182-.72-1.464l-2.533-1.552zM383.622 320.204c-.464-.267-1.022-.08-1.118.372s.273 1.175.737 1.442l2.55 1.47c.463.266 1.022.08 1.117-.373.1-.474-.273-1.175-.736-1.442l-2.548-1.47zM383.597 302.83c-.46-.282-1.02-.114-1.12.336s.26 1.182.72 1.464l2.533 1.552c.46.282 1.02.114 1.12-.336.106-.47-.26-1.182-.72-1.464l-2.533-1.552zM383.56 300.985c-.463-.267-1.02-.08-1.117.372s.273 1.175.737 1.442l2.55 1.468c.462.267 1.02.08 1.116-.372.1-.474-.273-1.175-.736-1.442l-2.55-1.47zM383.585 298.986c-.46-.282-1.02-.114-1.12.336s.26 1.182.72 1.464l2.533 1.552c.46.282 1.02.114 1.12-.336.106-.47-.26-1.182-.72-1.464l-2.533-1.552zM383.55 297.142c-.464-.267-1.022-.08-1.118.372s.273 1.175.737 1.442l2.548 1.47c.463.266 1.022.08 1.117-.373.1-.474-.273-1.175-.736-1.442l-2.55-1.468zM383.622 310.517c-.46-.282-1.02-.114-1.12.336s.26 1.182.72 1.464l2.533 1.552c.46.28 1.02.113 1.12-.337.106-.47-.26-1.182-.72-1.464l-2.533-1.553zM383.586 308.673c-.464-.267-1.022-.08-1.118.372s.273 1.175.737 1.442l2.55 1.47c.462.266 1.02.08 1.116-.373.1-.474-.272-1.175-.735-1.442l-2.55-1.47zM383.61 306.673c-.46-.282-1.022-.114-1.122.336s.26 1.18.72 1.463l2.534 1.552c.46.282 1.02.114 1.12-.336.106-.472-.26-1.183-.72-1.465l-2.533-1.552zM383.574 304.83c-.464-.268-1.022-.082-1.118.37s.273 1.176.737 1.443l2.55 1.47c.462.266 1.02.08 1.116-.373.1-.474-.274-1.175-.737-1.442l-2.55-1.47zM383.742 348.952c-.46-.282-1.02-.114-1.12.336s.26 1.182.72 1.464l2.533 1.552c.46.282 1.02.114 1.12-.336.106-.47-.26-1.182-.72-1.464l-2.533-1.552zM383.707 347.11c-.464-.268-1.022-.082-1.118.37s.272 1.176.736 1.443l2.55 1.47c.462.266 1.02.08 1.116-.373.1-.474-.273-1.175-.736-1.442l-2.55-1.47zM383.73 345.11c-.46-.283-1.02-.115-1.12.335s.26 1.182.72 1.464l2.533 1.55c.46.283 1.02.115 1.12-.335.106-.47-.26-1.182-.72-1.464l-2.533-1.55zM383.695 343.265c-.464-.267-1.022-.08-1.118.372s.273 1.175.737 1.442l2.55 1.468c.462.267 1.02.08 1.116-.372.1-.474-.273-1.175-.736-1.442l-2.55-1.47zM383.73 354.796c-.463-.267-1.02-.08-1.117.372s.273 1.175.737 1.442l2.55 1.47c.462.266 1.02.08 1.116-.373.1-.474-.273-1.175-.736-1.442l-2.55-1.47zM383.755 352.796c-.46-.282-1.02-.114-1.12.336s.26 1.182.72 1.464l2.533 1.552c.46.282 1.02.114 1.12-.336.106-.47-.26-1.182-.72-1.464l-2.533-1.552zM383.72 350.952c-.465-.267-1.023-.08-1.12.372s.274 1.175.738 1.442l2.55 1.47c.462.266 1.02.08 1.116-.373.1-.474-.273-1.175-.736-1.442l-2.55-1.468zM383.694 333.58c-.46-.283-1.02-.115-1.12.335s.26 1.182.72 1.464l2.533 1.55c.46.283 1.02.115 1.12-.335.106-.47-.26-1.182-.72-1.464l-2.533-1.55zM383.66 331.734c-.465-.267-1.023-.08-1.12.372s.274 1.175.738 1.442l2.55 1.47c.462.266 1.02.08 1.116-.373.1-.474-.273-1.175-.736-1.442l-2.55-1.47zM383.682 329.735c-.46-.282-1.02-.114-1.12.336s.26 1.183.72 1.465l2.533 1.552c.46.282 1.02.114 1.12-.336.106-.47-.26-1.18-.72-1.463l-2.533-1.552zM383.646 327.89c-.464-.266-1.022-.08-1.118.373s.273 1.175.737 1.442l2.55 1.47c.462.266 1.02.08 1.116-.373.1-.474-.272-1.175-.735-1.442l-2.55-1.47zM383.718 341.266c-.46-.282-1.02-.114-1.12.336s.26 1.182.72 1.464l2.533 1.552c.46.282 1.022.114 1.122-.336.105-.47-.26-1.182-.72-1.464l-2.534-1.552zM383.683 339.422c-.464-.267-1.022-.08-1.118.372s.273 1.175.737 1.442l2.55 1.47c.462.266 1.02.08 1.116-.373.1-.474-.273-1.175-.736-1.442l-2.55-1.468zM383.707 337.422c-.46-.282-1.02-.114-1.12.336s.26 1.182.72 1.464l2.533 1.552c.46.282 1.02.114 1.12-.336.106-.47-.26-1.182-.72-1.464l-2.533-1.552zM383.67 335.578c-.463-.267-1.02-.08-1.117.372s.273 1.175.737 1.442l2.55 1.47c.462.266 1.02.08 1.116-.373.1-.475-.273-1.176-.736-1.443l-2.55-1.47zM383.803 368.27c-.46-.283-1.02-.115-1.12.335s.26 1.182.72 1.464l2.533 1.55c.46.283 1.02.115 1.12-.335.106-.47-.26-1.182-.72-1.464l-2.533-1.55zM383.768 366.424c-.464-.267-1.022-.08-1.118.372s.273 1.175.737 1.442l2.55 1.47c.462.266 1.02.08 1.116-.373.1-.474-.273-1.175-.736-1.442l-2.55-1.47zM383.79 364.426c-.46-.282-1.02-.114-1.12.336s.26 1.182.72 1.464l2.534 1.552c.46.282 1.02.114 1.12-.336.106-.47-.26-1.182-.72-1.464l-2.533-1.552zM383.756 362.58c-.464-.266-1.022-.08-1.118.373s.273 1.175.737 1.442l2.55 1.47c.462.266 1.02.08 1.116-.373.1-.474-.272-1.175-.735-1.442l-2.55-1.47zM383.79 374.112c-.463-.267-1.02-.08-1.117.372s.273 1.175.737 1.442l2.55 1.47c.462.266 1.02.08 1.116-.373.1-.474-.273-1.175-.736-1.442l-2.55-1.468zM383.815 372.112c-.46-.282-1.02-.114-1.12.336s.26 1.182.72 1.464l2.533 1.552c.46.282 1.02.114 1.12-.336.106-.47-.26-1.182-.72-1.464l-2.533-1.552zM383.78 370.268c-.464-.267-1.022-.08-1.118.372s.273 1.175.737 1.442l2.548 1.47c.463.266 1.022.08 1.117-.373.1-.475-.273-1.176-.736-1.443l-2.55-1.47zM383.78 360.582c-.46-.282-1.022-.114-1.122.336s.26 1.182.72 1.464l2.534 1.552c.46.282 1.02.114 1.12-.336.106-.47-.26-1.182-.72-1.464l-2.533-1.552zM383.743 358.738c-.464-.267-1.022-.08-1.118.372s.273 1.175.737 1.442l2.55 1.47c.462.266 1.02.08 1.116-.373.1-.475-.273-1.176-.736-1.443l-2.55-1.47zM383.767 356.738c-.46-.282-1.02-.114-1.12.336s.26 1.182.72 1.464l2.533 1.552c.46.282 1.02.114 1.12-.336.106-.47-.26-1.182-.72-1.464l-2.533-1.552z"/></g><g stroke="#000" stroke-width="14.25" fill="#b00"><path d="M392.372 274.803c-.574-.144-1.066.167-.984.62s.74 1.05 1.313 1.194l3.158.787c.574.143 1.066-.167.983-.62-.085-.475-.737-1.05-1.31-1.194l-3.158-.787zM393.265 275.3c-.16-.46-.755-.62-1.19-.32s-.712 1.063-.552 1.524l.877 2.533c.16.46.754.62 1.19.32.455-.315.71-1.063.552-1.523l-.877-2.534zM393.026 274.99c-.418-.344-1.037-.258-1.237.172s.017 1.203.436 1.546l2.3 1.886c.42.343 1.038.256 1.238-.173.21-.45-.018-1.202-.436-1.545l-2.302-1.886zM391.593 276.533c.35-.39.13-.856-.438-.935s-1.486.232-1.836.62l-1.922 2.138c-.35.39-.13.856.438.935.594.083 1.486-.23 1.835-.62l1.923-2.137zM393.91 276.482c.33-.392.09-.857-.484-.932s-1.475.243-1.806.634l-1.82 2.15c-.33.393-.09.858.482.933.598.077 1.476-.243 1.807-.634l1.82-2.15zM382.01 276.613c.367-.378.17-.852-.395-.947s-1.496.186-1.864.564l-2.02 2.08c-.367.378-.17.852.395.947.59.1 1.496-.187 1.863-.565l2.02-2.08zM384.323 276.625c.35-.38.13-.853-.44-.944s-1.485.2-1.834.58l-1.92 2.098c-.35.38-.13.853.438.944.594.096 1.486-.2 1.835-.58l1.92-2.097zM386.85 276.7c.368-.38.17-.853-.394-.948s-1.496.186-1.864.564l-2.02 2.08c-.368.378-.17.852.394.947.59.1 1.496-.187 1.863-.565l2.02-2.08zM389.067 276.538c.33-.392.09-.857-.483-.932s-1.475.243-1.806.634l-1.82 2.15c-.33.393-.09.858.482.933.598.077 1.476-.243 1.807-.634l1.82-2.152zM378.9 275.798c.367-.378.17-.852-.395-.947s-1.496.187-1.864.565l-2.02 2.08c-.367.378-.17.852.395.947.59.1 1.496-.187 1.863-.565l2.02-2.08zM380.013 276.546c.403-.345.256-.835-.295-.98s-1.506.06-1.91.405l-2.217 1.903c-.402.346-.254.835.297.98.576.15 1.505-.06 1.908-.405l2.218-1.902zM377.24 276.078c.534-.222.605-.717.142-.99s-1.457-.327-1.99-.106l-2.93 1.218c-.534.22-.605.717-.142.99.483.287 1.457.327 1.99.106l2.93-1.218z"/></g><g stroke="#000" stroke-width="14.25" fill="#b00"><path d="M424.057 355.87c.463.28.446.777-.034.997s-1.424.16-1.887-.118l-2.547-1.535c-.464-.28-.447-.777.033-.997.502-.23 1.424-.16 1.887.118l2.547 1.534zM426.157 355.33c.448.285.41.788-.075 1.004s-1.42.147-1.866-.14l-2.462-1.572c-.447-.285-.41-.788.076-1.004.507-.227 1.42-.147 1.866.14l2.46 1.57zM428.426 354.687c.463.28.446.777-.034.997s-1.424.16-1.887-.118l-2.547-1.534c-.463-.28-.446-.777.034-.997.502-.23 1.424-.16 1.887.118l2.546 1.534zM430.525 354.145c.448.286.41.79-.075 1.005s-1.42.147-1.866-.14l-2.462-1.572c-.447-.285-.41-.788.076-1.004.507-.227 1.42-.147 1.866.14l2.46 1.57zM439.724 347.184c.552-.09.976.267.847.714s-.808.986-1.36 1.076l-3.04.497c-.55.09-.975-.266-.846-.713.134-.468.81-.986 1.362-1.076l3.038-.496zM438.153 343.846c.365-.367.96-.317 1.187.1s.09 1.2-.274 1.566l-2.007 2.02c-.366.366-.96.317-1.187-.1-.24-.435-.092-1.2.273-1.567l2.007-2.02zM440.655 345.335c.556-.105.99.236.868.683s-.8.998-1.357 1.103l-3.06.577c-.556.105-.99-.236-.868-.683.128-.466.8-.998 1.357-1.102l3.06-.577zM415.42 357.938c.432.31.363.806-.138.99s-1.434.058-1.867-.253l-2.38-1.71c-.432-.312-.364-.808.137-.992.524-.192 1.435-.057 1.868.254l2.38 1.71zM417.568 357.55c.416.317.326.815-.18.996s-1.428.044-1.844-.273l-2.29-1.744c-.417-.318-.327-.816.18-.997.528-.19 1.427-.044 1.844.273l2.29 1.744zM419.877 356.652c.475.264.48.763.01.997s-1.417.202-1.892-.063l-2.61-1.456c-.476-.263-.48-.762-.01-.996.492-.244 1.416-.203 1.89.062l2.612 1.456zM421.683 356.567c.398.333.282.827-.233.988s-1.43-.01-1.828-.343l-2.192-1.83c-.4-.333-.283-.827.233-.988.538-.168 1.43.01 1.827.343l2.193 1.83zM432.794 353.502c.463.28.446.777-.034.997s-1.424.16-1.887-.12l-2.547-1.533c-.463-.28-.446-.777.034-.997.502-.23 1.424-.16 1.887.118l2.547 1.534zM434.894 352.96c.448.287.41.79-.075 1.006s-1.42.147-1.867-.14l-2.462-1.572c-.446-.285-.408-.788.077-1.004.507-.227 1.42-.147 1.866.14l2.46 1.57zM387.596 360.295c.35.378.163.852-.372.947s-1.42-.186-1.768-.564l-1.917-2.08c-.35-.378-.164-.852.37-.947.56-.1 1.42.188 1.77.566l1.916 2.08zM389.795 360.283c.33.38.123.853-.416.944s-1.41-.2-1.74-.58l-1.82-2.095c-.332-.38-.124-.853.415-.944.563-.095 1.41.2 1.74.58l1.82 2.095zM392.186 360.206c.35.378.163.852-.372.947s-1.42-.186-1.768-.564l-1.917-2.08c-.35-.38-.164-.853.37-.948.56-.1 1.42.187 1.77.565l1.916 2.08zM394.386 360.196c.33.38.123.853-.416.944s-1.41-.2-1.74-.58l-1.82-2.095c-.33-.38-.123-.853.416-.944.563-.094 1.41.2 1.74.58l1.82 2.096zM378.416 360.47c.35.38.163.853-.372.948s-1.42-.186-1.768-.564l-1.917-2.08c-.35-.378-.164-.852.37-.947.56-.1 1.42.187 1.77.565l1.916 2.08zM380.615 360.46c.33.38.123.853-.416.944s-1.41-.2-1.74-.58l-1.82-2.095c-.332-.382-.124-.854.415-.945.563-.095 1.41.2 1.74.58l1.82 2.095zM383.006 360.382c.35.378.163.852-.372.947s-1.42-.187-1.768-.565l-1.917-2.08c-.35-.378-.164-.852.37-.947.56-.1 1.42.187 1.77.565l1.916 2.08zM385.205 360.372c.33.38.123.853-.416.944s-1.41-.2-1.74-.58l-1.82-2.095c-.332-.38-.124-.852.415-.943.563-.095 1.41.2 1.74.58l1.82 2.095zM406.144 359.463c.396.344.272.832-.247.976s-1.435-.057-1.83-.4l-2.177-1.89c-.396-.345-.273-.833.247-.977.543-.15 1.435.056 1.83.4l2.177 1.89zM408.43 359.142c.393.338.266.83-.253.983s-1.428-.03-1.82-.37l-2.153-1.86c-.39-.34-.265-.83.254-.984.542-.16 1.428.032 1.82.37l2.153 1.862zM410.786 358.788c.41.333.303.823-.21.98s-1.437-.018-1.845-.35l-2.246-1.833c-.41-.333-.303-.823.21-.98.537-.165 1.437.018 1.845.35l2.246 1.833zM413.095 358.414c.416.317.326.815-.18.996s-1.428.044-1.844-.273l-2.29-1.744c-.416-.317-.326-.815.18-.996.53-.19 1.428-.044 1.845.273l2.29 1.744zM396.776 360.117c.35.378.163.852-.372.947s-1.42-.186-1.768-.564l-1.917-2.08c-.35-.378-.164-.852.37-.947.56-.1 1.42.187 1.77.565l1.916 2.08zM399.046 359.89c.36.363.188.845-.343.965s-1.422-.123-1.782-.486l-1.977-1.994c-.36-.363-.188-.845.343-.965.555-.124 1.422.124 1.782.487l1.978 1.993zM401.507 359.606c.398.342.277.83-.24.976s-1.437-.05-1.835-.392l-2.188-1.883c-.398-.342-.277-.83.242-.976.542-.152 1.435.05 1.833.393l2.187 1.883zM403.594 359.558c.352.367.17.847-.363.96s-1.417-.144-1.77-.51l-1.937-2.022c-.352-.367-.17-.847.362-.96.558-.117 1.42.143 1.77.51l1.94 2.022zM350.543 359.36c.263.425-.022.863-.57.877s-1.356-.396-1.618-.82l-1.442-2.333c-.262-.424.023-.862.57-.876.57-.014 1.356.396 1.618.82l1.443 2.333zM352.708 359.678c.244.424-.062.857-.61.866s-1.345-.406-1.59-.83l-1.342-2.336c-.244-.424.06-.857.61-.866.576-.01 1.345.407 1.59.83l1.342 2.336zM355.27 359.833c.314.4.084.86-.458.92s-1.397-.278-1.71-.677l-1.718-2.196c-.313-.4-.083-.86.46-.92.565-.064 1.396.278 1.708.677l1.72 2.196zM357.463 359.96c.294.402.044.86-.502.916s-1.385-.29-1.68-.69l-1.62-2.21c-.296-.4-.045-.858.5-.914.57-.06 1.386.29 1.68.69l1.623 2.21zM343.638 358.474c.244.424-.062.857-.61.866s-1.345-.406-1.59-.83l-1.342-2.336c-.244-.424.06-.857.61-.866.576-.01 1.345.407 1.59.83l1.342 2.336zM346.008 358.76c.263.423-.022.86-.57.875s-1.356-.396-1.618-.82l-1.442-2.333c-.262-.424.023-.862.57-.876.57-.014 1.356.396 1.618.82l1.442 2.333zM348.174 359.076c.244.424-.062.857-.61.866s-1.345-.406-1.59-.83l-1.342-2.336c-.244-.424.06-.857.61-.866.576-.01 1.345.407 1.59.83l1.342 2.336zM369.024 360.463c.313.4.083.86-.46.92s-1.396-.278-1.708-.677l-1.72-2.196c-.312-.4-.082-.86.46-.92.566-.064 1.397.278 1.71.677l1.718 2.196zM371.217 360.59c.294.4.044.86-.502.915s-1.386-.29-1.68-.69l-1.622-2.21c-.295-.4-.044-.858.5-.914.572-.058 1.387.29 1.682.692l1.622 2.208zM373.826 360.56c.35.377.163.85-.372.946s-1.42-.186-1.768-.564l-1.917-2.08c-.35-.378-.164-.852.37-.947.56-.1 1.42.187 1.77.565l1.916 2.08zM376.023 360.55c.33.38.123.852-.416.943s-1.41-.2-1.74-.58l-1.82-2.095c-.33-.38-.123-.853.416-.944.563-.095 1.41.2 1.74.58l1.82 2.095zM359.855 360.043c.313.4.083.86-.46.92s-1.396-.278-1.708-.677l-1.72-2.196c-.312-.4-.082-.86.46-.92.566-.064 1.397.278 1.71.677l1.718 2.196zM362.048 360.17c.294.4.044.86-.502.915s-1.386-.29-1.68-.69l-1.622-2.21c-.295-.4-.044-.858.5-.914.572-.058 1.387.29 1.682.692l1.622 2.208zM364.44 360.252c.313.4.083.86-.46.92s-1.396-.278-1.708-.677l-1.72-2.196c-.312-.4-.082-.86.46-.92.566-.065 1.397.277 1.71.676l1.718 2.196zM366.633 360.38c.294.4.044.858-.502.914s-1.385-.29-1.68-.69l-1.62-2.21c-.296-.4-.045-.858.5-.914.57-.06 1.386.29 1.68.69l1.623 2.21zM331.35 349.69c-.565.072-.97-.295-.81-.733s.884-.95 1.448-1.02l3.103-.396c.565-.07.97.295.81.734-.168.458-.884.948-1.448 1.02l-3.103.396zM331.765 352.184c-.448.284-1.016.12-1.136-.33s.208-1.183.656-1.468l2.468-1.566c.448-.285 1.017-.12 1.136.328.125.47-.21 1.184-.657 1.47l-2.468 1.566zM332.972 354.34c-.3.407-.896.426-1.19.04s-.287-1.178.014-1.583l1.657-2.23c.3-.405.896-.424 1.19-.038.307.402.287 1.177-.014 1.582l-1.658 2.23zM334.4 355.718c-.12.46-.68.645-1.12.368s-.76-1.013-.64-1.474l.658-2.533c.12-.462.68-.646 1.12-.37.46.29.76 1.014.64 1.474l-.658 2.534zM335.04 344.786c-.56-.03-.862-.466-.6-.872s1.08-.78 1.643-.75l3.09.165c.56.03.862.465.6.87-.27.424-1.08.782-1.643.75l-3.09-.164zM333.583 346.37c-.57-.017-.886-.44-.632-.845s1.078-.795 1.648-.778l3.136.092c.57.015.886.438.633.843-.265.424-1.078.795-1.648.78l-3.137-.093zM332.43 347.905c-.56.057-.95-.324-.784-.763s.89-.936 1.45-.993l3.073-.317c.558-.057.95.324.784.763-.174.46-.892.936-1.45.993l-3.074.315zM336.177 357.237c.032.477-.442.78-.948.605s-1.045-.826-1.077-1.303l-.175-2.624c-.032-.477.442-.78.948-.605.53.184 1.044.827 1.076 1.304l.175 2.623zM338.633 357.876c.14.456-.263.83-.804.748s-1.222-.62-1.36-1.077l-.767-2.51c-.14-.456.262-.83.804-.748.565.085 1.22.62 1.36 1.076l.766 2.51zM341.357 358.142c.263.424-.022.862-.57.876s-1.356-.396-1.618-.82l-1.443-2.333c-.262-.424.023-.862.57-.876.57-.015 1.356.395 1.618.82l1.442 2.332zM436.026 351.07c.554.114.76.582.41.936s-1.25.59-1.805.476l-3.045-.63c-.554-.116-.76-.584-.41-.937.364-.37 1.25-.592 1.805-.477l3.046.63zM436.62 351.47c.533.15.69.635.315.97s-1.285.526-1.82.377l-2.936-.82c-.535-.147-.693-.633-.317-.97.392-.35 1.285-.524 1.82-.375l2.936.818zM440.136 348.936c.56.086.8.543.477.913s-1.206.653-1.767.567l-3.085-.476c-.56-.085-.798-.542-.476-.912.337-.387 1.206-.654 1.767-.568l3.086.476zM438.338 350.418c.53.158.677.646.293.976s-1.297.5-1.827.342l-2.915-.87c-.53-.16-.676-.648-.293-.977.4-.345 1.298-.502 1.828-.343l2.915.87zM427.983 341.742c-.52.197-.62.688-.2.983s1.357.392 1.877.195l2.86-1.084c.52-.197.62-.688.2-.983-.438-.307-1.358-.392-1.878-.195l-2.86 1.084zM426.05 340.865c-.507.206-.587.705-.162.998s1.356.378 1.862.17l2.783-1.135c.506-.207.587-.705.162-.998-.445-.305-1.357-.378-1.863-.17l-2.783 1.135zM423.87 339.672c-.536.162-.682.646-.29.967s1.316.477 1.853.314l2.95-.896c.537-.163.683-.647.292-.968-.408-.335-1.317-.478-1.854-.315l-2.95.897zM434.06 344.624c-.507.206-.587.705-.162.998s1.356.378 1.862.17l2.783-1.135c.506-.207.587-.705.162-.998-.445-.306-1.357-.38-1.863-.172l-2.783 1.136zM431.99 343.623c-.52.197-.62.688-.202.983s1.358.392 1.878.195l2.86-1.083c.52-.197.62-.688.2-.983-.438-.307-1.358-.392-1.878-.195l-2.86 1.083zM430.053 342.745c-.506.206-.586.705-.16.998s1.355.378 1.86.17l2.784-1.135c.506-.207.587-.705.162-.998-.446-.305-1.358-.378-1.864-.17l-2.783 1.135z"/></g><g transform="matrix(.072 0 0 .086 364.627 299.181)"><path d="M212.603-1994.912v53.15h-53.15v35.44h53.15v106.3h35.433v-106.3h53.15v-35.44h-53.15v-53.15h-35.433z" stroke="#000" fill="#fff133"/><ellipse fill="#fff133" transform="matrix(.571 0 0 .618 93.645 -678.94)" cx="239.17" rx="62.008" cy="-1813.5" ry="57.32" stroke="#000"/><path d="M602.36-1119.4c0 68.45-10.417 145.68-29.252 205.02-120.08-26.455-268.06-39.682-339.04-39.682-87.586 0-246.15 13.227-345.26 26.455-18.835-59.336-30.538-123.34-30.538-191.79 0-273.81 105.27-390.21 367.5-496.03 233.3 105.82 376.6 222.22 376.6 496.03z" transform="matrix(1.058 0 0 1.339 -5.764 363.72)" stroke="#000" fill="#fff"/><path d="M566.93-657.28c0-44.007-150.8-79.724-336.61-79.724s-336.61 35.717-336.61 79.724v26.575c0-44.007 150.8-70.866 336.61-70.866s336.61 44.575 336.61 88.582v-44.292z" transform="matrix(1.171 0 0 .745 -32.833 -634.89)" stroke="#000" fill="#fff133"/><g stroke="#000" fill="#fff133"><path d="M236.99-1381.568l-62.318 39.577 41.545 26.383-20.772 13.193-41.545-26.384-62.32 39.576 62.32 39.577 41.545-26.384 20.772 13.192v39.578h41.545v-39.578l20.773-13.19 41.546 26.383 62.32-39.577-62.32-39.576-41.545 26.384-20.773-13.193 41.547-26.384-62.32-39.578zM-181.547-1340.023l6.092 39.878 10.4 25.544-14.908 16.074-10.402-25.544-4.51 41.62 35.715 35.012-10.4-25.544 25.31 9.47 15.603 38.315 20.11-3.303-15.602-38.317 14.912-16.074 10.4 25.542 4.51-41.618-35.715-35.014 10.403 25.545-25.312-9.47-10.402-25.544-26.203-36.573zM655.283-1339.405l-23.78 37.11-9.478 25.69-24.963 9.835 9.477-25.69-34.442 35.525 6.01 41.542 9.477-25.688 15.486 15.852-14.214 38.534 20.226 3.01 14.215-38.535 24.964-9.834-9.476 25.688 34.44-35.523-6.01-41.543-9.476 25.69-15.487-15.854 9.478-25.69 3.555-40.118zM-30.97-1285.526c-3.317-13.026 9.772-27.736 26.176-29.42 16.406-1.686 36.127 9.655 39.444 22.68s-9.773 27.73-9.773 27.73l78.883 45.354-32.81 3.37-59.163-34.016-39.266 44.123-32.81 3.37 52.357-58.83s-19.72-11.336-23.037-24.36zM438.984-1292.165c3.173-13.04 22.77-24.468 39.193-22.855 16.423 1.612 29.672 16.264 26.5 29.304s-22.77 24.462-22.77 24.462l53 58.6-32.845-3.226-39.75-43.95-58.788 34.277-32.846-3.224 78.384-45.702s-13.252-14.644-10.078-27.685zM631.665-1163.89c0-32.77-176.813-59.365-394.675-59.365s-394.675 26.596-394.675 59.365v19.788c0-32.77 176.813-52.77 394.675-52.77s394.675 33.194 394.675 65.963v-32.98z"/></g><path d="M566.93-657.28c0-44.007-150.8-79.724-336.61-79.724s-336.61 35.717-336.61 79.724v26.575c0-44.007 150.8-70.866 336.61-70.866s336.61 44.575 336.61 88.582v-44.292z" transform="matrix(1.073 0 0 .745 -9.254 -386.86)" stroke="#000" fill="#fff133"/><g stroke="#000" fill="#fff133"><path d="M241.427-1133.538l-58.688 39.577 39.124 26.383-19.562 13.193-39.125-26.384-58.688 39.576 58.687 39.577L202.302-1028l19.562 13.192v39.578h39.125v-39.578l19.562-13.19 39.126 26.383 58.688-39.577-58.688-39.576-39.126 26.384-19.563-13.193 39.126-26.384-58.69-39.578zM8.365-636.353l5.712 39.88 9.78 25.547-14.05 16.07-9.78-25.55-4.27 41.618 33.61 35.025-9.78-25.547 23.83 9.48 14.668 38.32 18.94-3.296-14.67-38.322 14.05-16.068 9.778 25.547 4.27-41.615-33.61-35.026 9.782 25.547-23.83-9.48-9.78-25.546-24.65-36.583zM635.353-1091.375l-22.395 37.11-8.925 25.69-23.51 9.835 8.926-25.69-32.436 35.525 5.66 41.542 8.925-25.688 14.583 15.852-13.387 38.534 19.047 3.01 13.388-38.535 23.51-9.834-8.925 25.688 32.435-35.523-5.66-41.543-8.925 25.69-14.585-15.854 8.925-25.69 3.348-40.118zM-10.918-1037.496c-3.123-13.026 9.204-27.736 24.652-29.42 15.45-1.686 34.022 9.655 37.146 22.68s-9.204 27.73-9.204 27.73l74.288 45.354-30.9 3.37L29.35-1001.8l-36.98 44.123-30.9 3.37 49.307-58.83s-18.57-11.336-21.695-24.36zM431.658-1044.135c2.988-13.04 21.444-24.468 36.91-22.855 15.467 1.612 27.944 16.264 24.956 29.304s-21.442 24.462-21.442 24.462l49.914 58.6-30.933-3.226-37.436-43.95-55.363 34.277-30.933-3.224 73.82-45.702s-12.48-14.644-9.492-27.685zM613.112-915.86c0-32.77-166.513-59.365-371.685-59.365s-371.684 26.596-371.684 59.365v19.788c0-32.77 166.513-52.77 371.684-52.77s371.685 33.194 371.685 65.963v-32.98z"/></g><path d="M566.93-657.28c0-44.007-150.8-79.724-336.61-79.724s-336.61 35.717-336.61 79.724v26.575c0-44.007 150.8-70.866 336.61-70.866s336.61 44.575 336.61 88.582v-44.292z" transform="matrix(1.105 0 0 .745 -16.106 -865.2)" stroke="#000" fill="#fff133"/><g stroke="#000" fill="#fff133"><path d="M242.555-1611.225l-57.397 37.332 38.264 24.887-19.132 12.444-38.264-24.887-57.396 37.33 57.396 37.333 38.264-24.887 19.132 12.443v37.33h38.264v-37.33l19.133-12.444 38.263 24.887 57.396-37.332-57.397-37.33-38.264 24.888-19.134-12.444 38.265-24.887-57.395-37.332zM-142.925-1572.032l5.61 37.616 9.58 24.094-13.732 15.163-9.58-24.094-4.153 39.258 32.893 33.025-9.58-24.094 23.312 8.93 14.37 36.143 18.523-3.117-14.37-36.142 13.733-15.16 9.58 24.093 4.153-39.257-32.893-33.027 9.58 24.094-23.312-8.932-9.58-24.094-24.133-34.5zM435.345-529.347l-21.88 35.014-8.718 24.236-22.978 9.284 8.716-24.237-31.695 33.52 5.547 39.19 8.716-24.237 14.26 14.953-13.074 36.354 18.62 2.834 13.075-36.354 22.98-9.283-8.718 24.235 31.695-33.52-5.546-39.188-8.716 24.237-14.262-14.953 8.717-24.236 3.26-37.847zM-4.235-1520.642c-3.054-12.287 9-26.163 24.11-27.752 15.11-1.59 33.273 9.108 36.328 21.395s-9.002 26.157-9.002 26.157l72.655 42.78-30.22 3.18-54.49-32.087-36.165 41.62-30.22 3.18 48.223-55.495s-18.163-10.69-21.218-22.977zM428.59-1526.89c2.922-12.3 20.97-23.08 36.097-21.558 15.126 1.52 27.33 15.34 24.406 27.64s-20.97 23.075-20.97 23.075l48.816 55.273-30.253-3.04-36.612-41.457-54.144 32.332-30.25-3.04 72.192-43.11s-12.205-13.814-9.282-26.114zM606.06-1405.898c0-30.91-162.85-55.997-363.505-55.997s-363.506 25.087-363.506 55.997v18.665c0-30.91 162.848-49.774 363.505-49.774s363.505 31.31 363.505 62.218v-31.108z"/></g><ellipse fill="#b90000" transform="matrix(.966 0 0 .414 12.936 -517.53)" cx="234.13" rx="375.87" cy="-822.11" ry="120.53"/></g><path d="M513.78-790.16l35.432-17.714 35.433 17.714s-73.366 35.433-73.366 159.45c-.002 88.58 125.26 106.3 125.26 212.6 0 45.65-34.184 88.582-69.617 88.582s-88.583-17.716-141.73-70.866c35.433 17.716 76.082 37.308 106.3 36.058 19.588-.405 55.025-17.716 55.025-53.15 0-70.865-122.77-106.92-122.77-213.22 0-124.02 50.025-159.45 50.026-159.45z" transform="matrix(.215 0 0 .179 313.875 342.337)" stroke="#000" stroke-width="1pt" fill="#fff"/><path d="M212.6-453.54c-35.433 0-70.866 35.433-70.866 70.866s35.433 70.866 70.866 70.866h194.88c35.433 0 70.866-35.433 70.866-70.866 0-37.027-35.433-70.866-70.866-70.866H212.6z" transform="matrix(.019 -.001 .009 .02 378.938 385.27)" stroke="#000" stroke-width="20.006" fill="#b00"/><path d="M520.25-790.16l46.683-17.717 10 17.717s-70.65 35.433-70.65 159.45c0 88.58 125.89 106.3 125.89 212.6 0 45.65-26.713 87.362-65.24 88.582-73.403 2.363-90.458-23.966-141.73-70.866 43.15 32.308 105 46.752 129.02 34.183 29.354-15.365 35.024-36.06 35.024-53.775 0-70.866-120.89-104.42-120.89-210.72 0-124.02 51.9-159.45 51.9-159.45zM513.34-789.69c7.004-2.437 35.875-18.186 71.308 17.247 17.717 17.72 17.716 53.15 17.716 70.866l53.15-53.15s-29.066-86.87-107.62-53.59c-11.127 4.9-28.14 14.537-34.55 18.627zM523.8-795.94c8.84-2.87 36.676-6.325 64.596 18.5 17.717 17.72 18.966 42.934 18.966 60.65l40.65-37.932c3.44-3.21-24.832-81.252-99.24-54.034-4.5 1.807-14.78 6.302-24.972 12.816z" transform="matrix(.215 0 0 .179 313.875 342.337)" stroke="#000" stroke-width="1pt" fill="#fff"/><path d="M344.54-596.29l9.152 22.14s1.455-9.766 8.526-11.533l7.07-1.768s26.865 49.327 32.17 58.166c5.3 8.838-3.537 16.793-1.77 16.793 1.77 0 26.517-11.49 26.517-11.49s-10.606.882-15.026-6.19-34.82-59.933-34.82-59.933 6.187-2.652 11.49-5.303c5.304-2.652 10.607 7.955 10.607 7.955L385.2-613.97s0 8.84-4.42 10.607c-4.42 1.766-7.956 3.534-7.956 3.534s-3.535-6.187-7.955-13.258c-4.42-7.07 4.42-14.142 4.42-14.142l-22.982 11.49s7.955 4.42 10.607 8.84l5.303 8.838s-3.223 1.768-8.214 3.482c-3.59 1.875-7.696.054-9.464-1.714z" transform="matrix(.175 -.019 .06 .155 398.736 344.82)" stroke="#000" stroke-width="1pt" fill="#fff133"/><path d="M344.54-596.29l9.152 22.14s1.455-9.766 8.526-11.533l7.07-1.768s26.865 49.327 32.17 58.166c5.3 8.838-3.537 16.793-1.77 16.793 1.77 0 26.517-11.49 26.517-11.49s-10.606.882-15.026-6.19-34.82-59.933-34.82-59.933 6.187-2.652 11.49-5.303c5.304-2.652 10.607 7.955 10.607 7.955L385.2-613.97s0 8.84-4.42 10.607c-4.42 1.766-7.956 3.534-7.956 3.534s-3.535-6.187-7.955-13.258c-4.42-7.07 4.42-14.142 4.42-14.142l-22.982 11.49s7.955 4.42 10.607 8.84l5.303 8.838s-3.223 1.768-8.214 3.482c-3.59 1.875-7.696.054-9.464-1.714z" transform="matrix(-.16 .022 -.003 -.119 505.5 127.698)" stroke="#000" stroke-width="1pt" fill="#fff133"/><path d="M212.6-453.54c-35.433 0-70.866 35.433-70.866 70.866s35.433 70.866 70.866 70.866h194.88c35.433 0 70.866-35.433 70.866-70.866 0-37.027-35.433-70.866-70.866-70.866H212.6z" transform="matrix(.019 -.001 .009 .02 382.077 385.078)" stroke="#000" stroke-width="20.006" fill="#b00"/><path d="M212.6-453.54c-35.433 0-70.866 35.433-70.866 70.866s35.433 70.866 70.866 70.866h194.88c35.433 0 70.866-35.433 70.866-70.866 0-37.027-35.433-70.866-70.866-70.866H212.6z" transform="matrix(.031 -.001 .014 .02 377.403 387.717)" stroke="#000" stroke-width="20.006" fill="#b00"/><path d="M212.6-453.54c-35.433 0-70.866 35.433-70.866 70.866s35.433 70.866 70.866 70.866h194.88c35.433 0 70.866-35.433 70.866-70.866 0-37.027-35.433-70.866-70.866-70.866H212.6z" transform="matrix(.031 -.001 .014 .02 380.366 387.526)" stroke="#000" stroke-width="20.006" fill="#b00"/><path d="M212.6-453.54c-35.433 0-70.866 35.433-70.866 70.866s35.433 70.866 70.866 70.866h194.88c35.433 0 70.866-35.433 70.866-70.866 0-37.027-35.433-70.866-70.866-70.866H212.6z" transform="matrix(.039 -.001 .018 .02 376.22 390.533)" stroke="#000" stroke-width="20.006" fill="#b00"/><path d="M212.6-453.54c-35.433 0-70.866 35.433-70.866 70.866s35.433 70.866 70.866 70.866h194.88c35.433 0 70.866-35.433 70.866-70.866 0-37.027-35.433-70.866-70.866-70.866H212.6z" transform="matrix(.039 -.001 .018 .02 379.893 390.342)" stroke="#000" stroke-width="20.006" fill="#b00"/><path fill="#ffe000" d="M0 0h255.992v511.984H0z"/></g></svg>