<svg xmlns="http://www.w3.org/2000/svg" height="512" width="512" viewBox="0 0 512 512"><defs><clipPath id="a"><path fill-opacity=".67" d="M0 0h496.06v496.06H0z"/></clipPath></defs><g fill-rule="evenodd" clip-path="url(#a)"><path d="M0 0l347.415 219.424h420.56v73.142h-420.56L0 511.98V-.003z"/><path d="M0 493.705l354.733-226.732h413.242v-21.94H354.733L0 18.29V51.2l332.79 204.79L0 460.787V493.7z" fill="#ff0"/><path d="M0 511.984l354.733-226.732h413.242v226.732H0z" fill="#40aa40"/><path d="M0 0l354.733 226.732h413.242V0H0z" fill="#ce0000"/><path d="M95.806 266.622c1.227.27 1.55.622 2.766-1.162.26-.896 1.023-2.15 1.686-3.263.887-1.456 1.276-2.04 2.11-.932.54.63 2.69-.535 3.582.077 1.38.917.55.785 1.68-.207.867-1.848.103-1.63-1.12-2.47-.86-.588-3.05.626-3.91.037.3-1.846.888-2.044 1.95-2.403.805.552 3.146-.42 3.87-.405 1.022.213 1.932.328 2.254-1.174.506-1.062.285-.33-.12-1.1-.858-.59-3.05.624-3.91.035-1.114-.844-.93-1.158-.28-2.573.872-.48 1.52-.248 2.6.423 1.108.762 2.855-.718 3.828-.772.875-.996 1.907-1.327 1.255-2.54-.364-.92-.64-1.026-1.84-1.262-1.227-.842-2.826.7-3.294-.56.975-1.395 1.338-1.097 2.52-.312.758.26 3.054-1.1 3.79-1.14 1.092-.316.562.913 1.333-1.805-.268-1.178-2.243.723-3.357.416-1.072.142-1.924-.238-2.024-1.39.015-1.55.784-1.657 1.885-1.426.972.174 3.16-1.03 3.975-1.014 1.16.616 1.526.386 2.44-1.046.67-1.693-.075-.993-1.225-1.86-.858-.59-3.05.625-3.91.036.15-.625.422-1.385 1.007-1.69.847.167 1.574.13 2.64.79 1.046.46 2.77-1.564 3.668-2.242-.17-.964-1.884.408-2.926-.307-.662-.454-1.49-.928-1.696-1.504.59-1.69.303-1.604 1.926-1.058.864-.224 2.328-.213 1.335-1.805-.16-.257-1.013-.165-1.76-.527-.898-.62-1.764-1.24-2.718-1.527-.687-.106-1.686-.33-2.23-.172-.058 1.004.195 1.642.136 2.815.448.733 1.294.75 1.472 1.01-.9.79-1.386.385-2.335.438-1.13-.774-.482-3.178-1.815-2.605.307.706.196 3.375.77 3.928.6.415 1.37.82 1.51 1.378-.96 1.48-1.326 1.396-2.478.68-.964-.66-.66-2.832-1.49-2.72-1.014.766-1.03.73-.82 1.815.052 1.417-.513 3.39.623 4.17 1.367.97 1.54.854.465 2.7-.742.898-1.157.733-2.008.323-.914-.63-.716-2.942-1.424-3.7-1.34-.8-.563-.77-1.678.21-.345 1.255-.094 1.585.464 2.698.453.692.424 3.052 1.2 3.206 1.25.715 1.294.572-.13 1.953-1.116.044-1.596.35-2.453-.665-1.04-.785-.39-3.202-1.71-3.216-1.225.1-1.492.132-1.337 1.805.212 1.472-.335 3.787.85 4.663 1.106.506 1.777.473 2.166 1.148-.346.303-.995 1.24-1.376 1.437-.775.056-1.576-.48-2.454-.664-1.045-.48-.572-1.414-1.407-1.987-.967.313-.983-1.036-1.496.334.198 1.125-.183 2.595.872 3.32.86.59 1.613 1.787 2.47 2.377.985 1.166.6 1.368-.007 3.056-.822.023-1.785-.544-2.68-1.158-.858-.59-.71-2.87-1.568-3.458-.742-.73-.526-1.352-1.678.207-.108 1.108.098 1.187.384 1.966.033 1.13-.27 3.216.77 3.93 1.05.21 2.18.76 3.004 1.04.79.928.104.747-.782 2.185-.557 1.44-.562 1.695-1.44 2.414-.758 1.012-1.06 1.457-.374 2.803zM120.92 267.85c.734-1.197 1.186-1.4.032-3.403-.72-.636-1.568-1.947-2.326-3.096-.983-1.522-1.365-2.17-.015-2.613.796-.32.58-3.07 1.498-3.772 1.39-1.097.94-.27.477-1.866-1.35-1.66-1.454-.763-2.712.2-.882.677-.64 3.492-1.522 4.168-1.575-1.057-1.523-1.76-1.43-3.032.828-.632.868-3.51 1.17-4.27.603-1.002 1.07-1.92-.18-2.863-.775-.96-.19-.434-1.06-.314-.883.675-.64 3.49-1.522 4.165-1.22.847-1.435.527-2.474-.73-.093-1.117.38-1.714 1.422-2.59 1.14-.874.478-3.32.815-4.376-.564-1.328-.458-2.557-1.83-2.348-.99.02-1.197.268-1.892 1.448-1.263.967-.482 3.282-1.826 3.274-.893-1.592-.475-1.858.716-2.8.54-.7.206-3.682.46-4.48.146-1.287 1.064-.232-1.124-2.138-1.19-.186-.23 2.67-.954 3.732-.296 1.194-.983 1.948-2.08 1.594-1.417-.636-1.21-1.496-.558-2.573.545-.962.31-3.77.65-4.626 1.027-.985.96-1.467.01-3.008-1.287-1.39-.942-.32-2.196.555-.883.677-.64 3.492-1.522 4.168-.513-.41-1.104-1-1.15-1.744.49-.832.744-1.62 1.775-2.487.837-.928-.333-3.57-.6-4.793-.952-.204-.374 2.164-1.447 2.985-.68.52-1.445 1.208-2.055 1.197-1.314-1.302-1.352-.962-.205-2.468.138-1.008.733-2.558-1.125-2.14-.3.065-.556 1.01-1.185 1.658-.925.708-1.84 1.38-2.483 2.277-.372.687-.973 1.66-1.045 2.3.898.462 1.584.45 2.64.98.85-.183 1.202-1.075 1.512-1.158.367 1.27-.198 1.625-.527 2.653-1.162.89-3.11-.76-3.116.887.77-.045 3.177 1.14 3.913.753.62-.475 1.298-1.13 1.866-1.053.974 1.61.753 1.963-.362 2.903-.99.76-2.863-.43-3.09.492.3 1.385.26 1.39 1.34 1.6 1.322.508 2.908 1.9 4.076 1.003 1.434-1.063 1.398-1.293 2.663.586.53 1.147.213 1.523-.503 2.26-.94.722-2.986-.414-3.962.035-1.268 1.103-.932.29-.477 1.866 1.016.87 1.42.736 2.663.588.816-.207 2.97.768 3.42.006 1.156-1.043 1.04-1.146 1.744.916-.405 1.205-.315 1.837-1.588 2.34-1.134.792-3.095-.864-3.633.534-.396 1.34-.472 1.634 1.125 2.138 1.436.365 3.344 1.87 4.62.963.905-.974 1.14-1.7 1.916-1.842.14.487.742 1.552.772 2.034-.26.847-1.07 1.482-1.588 2.34-.856.92-1.524.044-2.384.703-.097 1.15-1.342.628-.29 1.72 1.115.24 2.312 1.232 3.397.4.883-.675 2.284-.997 3.166-1.673 1.462-.58 1.495-.088 2.803 1.23-.307.88-1.21 1.676-2.13 2.38-.883.676-2.917-.392-3.8.284-.965.496-1.45.02-.476 1.867.973.557 1.13.37 1.956.377 1.052.418 2.845 1.573 3.913.754.613-1.03 1.567-2.013 2.155-2.775 1.164-.47.724.19 1.692 1.705 1.1 1.166 1.332 1.273 1.643 2.49.628 1.213.917 1.71 2.426 1.52zM98.008 314.504c0-5.32-.825-10.638 0-10.638 46.81 0 58.51-31.917 58.51-53.196 0-21.278-16.26-42.553-46.81-42.553-35.107 0-46.81 20.786-46.81 42.553 0 21.278 17.555 37.237 35.11 37.237 23.404 0 29.256-5.32 46.81-26.597-5.853 26.597-35.11 37.237-46.81 37.237-23.406 0-46.81-15.958-46.81-47.875 0-26.597 17.554-53.192 58.514-53.192 35.108 0 58.51 26.597 58.51 53.192 0 37.237-29.255 63.834-70.215 63.834z" fill="#ff0"/></g></svg>