<svg xmlns="http://www.w3.org/2000/svg" height="512" width="512" viewBox="0 0 512 512"><g fill-rule="evenodd"><path fill="#f00" d="M0 0h512v512H0z"/><path fill="#00006b" d="M0-1h256v128H0z"/><path d="M132.524 116.574l-10.15-6.852-9.73 6.966 3.09-12.22-9.34-7.53 12.063-.7 3.96-11.622 4.36 11.788 11.788.347-9.366 7.988zm-1.738-81.28l-8.122-5.22-7.975 5.18 2.213-9.732-7.15-6.365 9.494-.795 3.548-9.113 3.656 9.24 9.348.732-7.237 6.506zM94.892 64.54l-7.904-5.422-8.08 5.422 2.516-9.504-7.447-6.325 9.45-.45 3.48-9.33 3.33 9.224 9.593.56-7.393 6.152zm71.964-6.534l-7.585-4.892-7.38 4.952 2.125-9.024-6.8-5.777 8.897-.685 3.175-8.524 3.373 8.602 8.764.51-6.81 6zm-21.212 21.372l-5.056-3.15-5.04 3.18 1.314-5.98-4.464-4.01 5.87-.548 2.283-5.66 2.314 5.645 5.873.512-4.44 4.035z" fill="#fff"/></g></svg>