<svg xmlns="http://www.w3.org/2000/svg" height="512" width="512" viewBox="0 0 512 512"><defs><clipPath id="a"><path fill-opacity=".67" d="M70.133 0h499.61v499.61H70.133z"/></clipPath></defs><g fill-rule="evenodd" clip-path="url(#a)"><path d="M-71.872 407.856V104.392L154.01 256.046l-225.883 151.82z"/><path d="M82.257 512.16l253.596-170.676h360.45V512.16H82.258z" fill="#00c"/><path d="M65.954.007l630.33.013v170.704H335.832S69.334-1.68 65.955.007z" fill="#f00"/><path d="M-71.872 64.032v40.336L154.01 256.02-71.873 407.84v40.335L212.63 256.02-71.872 64.033z" fill="#fc0"/><path d="M-71.872 64.032V.007h94.914l301.38 203.917h371.86v104.28h-371.86L23.04 512.09h-94.913v-63.915L212.63 256.02-71.872 64.032z" fill="#093"/><path d="M23.04.007h59.207L335.842 170.71h360.452v33.214h-371.86L23.052.007zm69.56 512.15h59.205L405.4 341.485h360.452v-33.212h-371.86L92.61 512.158z" fill="#fff"/></g></svg>