<svg xmlns="http://www.w3.org/2000/svg" height="512" width="512" viewBox="0 0 512 512"><defs><clipPath id="a"><path fill-opacity=".67" d="M0 0h496.06v496.06H0z"/></clipPath></defs><g clip-path="url(#a)"><path fill-rule="evenodd" fill="#319208" d="M0 438.85h1023.977v73.14H0z"/><path fill-rule="evenodd" fill="#de2010" d="M0 292.56h1023.977v73.14H0z"/><path fill-rule="evenodd" fill="#ffd200" d="M0 365.704h1023.977v73.14H0z"/><path fill-rule="evenodd" fill="#de2010" d="M0 146.28h1023.977v73.14H0z"/><path fill-rule="evenodd" fill="#ffd200" d="M0 73.14h1023.977v73.142H0z"/><path fill-rule="evenodd" fill="#319208" d="M0 0h1023.977v73.14H0z"/><path d="M28.89 0v511.984l343.762-255.992L28.892 0zM0 0h29.256v511.984H0zM0 0v511.984l373.022-255.992L0 0zM0 219.424h1023.977v73.14H0z" fill-rule="evenodd"/><path d="M0 0v511.984l343.762-255.992L0 0z" fill-rule="evenodd" fill="#fff"/><path fill="#d62419" fill-rule="evenodd" d="M131.973 114.662l27.27 90.366 97.405.854-77.523 53.864 29.296 92.885-75.177-57.08-79.296 56.567 31.055-89.142-78.31-57.932 94.387 1.986z"/><path d="M50.057 166.226c1.657-2.985 1.99-4.644 10.612-8.292 11.275-32.832 40.128-19.898 56.047 25.537 14.592 6.302 101.815 71.304 100.488 74.952-.663 3.316-11.608.664-11.608.664s-17.245 73.625-17.576 73.625c-32.17-4.31-82.247-4.974-116.41-4.31.33-5.64-9.286-42.452-9.286-42.452s-8.292-2.652 5.638-30.842c14.924-35.485 17.91-93.192-17.908-88.88z" fill-rule="evenodd" stroke="#000" fill="#f7df00" stroke-width="1.032"/><path d="M77.09 148.196a3.535 3.535 0 1 1-7.07 0 3.535 3.535 0 0 1 7.07 0zm35.03 29.57S84.485 193.51 76.452 193.19M199.2 251.025c-1.928-1.607-102.5-6.427-98.327-40.488m16.067 41.128s10.925 6.427 20.243-10.282m-8.033 9.962s7.712 7.07 18.96-8.354m-87.4 34.064s7.07.964 8.355-3.213m25.055 44.663c0-.32-7.07-45.63-7.07-45.63 34.92 3.107 71.122 3.322 104.75 9.32" stroke="#000" fill="none" transform="scale(1.032)"/><path d="M93.49 282.27l9.946 11.604 10.28-9.948 8.622 9.286m2.658.336l8.62-7.627 9.287 8.954m1.65-.005l9.616-8.622 7.295 8.622m3.985.34l8.623-5.97 7.626 7.296m5.97-.335l6.3-5.97M91.827 292.877l10.612 12.27 10.61-9.616 9.285 9.95 10.612-9.286 8.954 10.61 10.944-9.284s8.29 10.28 9.285 10.28 10.943-8.62 10.943-8.62l9.617 10.61 13.263-10.61M93.49 304.817s85.555 3.317 99.482 6.632m-85.22-45.425s81.243 4.31 94.176 9.285" stroke="#000" fill="none" stroke-width="1.032"/><path d="M88.34 224.996c.643 4.82-5.14 21.53-11.246 27.313-8.355 6.747-7.39 20.885-7.39 20.885.963 5.784 13.495 5.14 15.102 2.25 1.285-13.175 15.423-16.067 15.423-16.067s19.6-5.462 27.955-21.85m-.325 29.238a4.177 4.177 0 1 1-8.355 0 4.177 4.177 0 0 1 8.355 0zm18.64 1.61a4.177 4.177 0 1 1-8.355 0 4.177 4.177 0 0 1 8.355 0z" stroke="#000" fill="none" transform="scale(1.032)"/></g></svg>